<?xml version="1.0" encoding="utf-8"?>
<!-- Generator: Adobe Illustrator 21.0.0, SVG Export Plug-In . SVG Version: 6.00 Build 0)  -->
<svg version="1.1" id="Layer_1" xmlns="http://www.w3.org/2000/svg" xmlns:xlink="http://www.w3.org/1999/xlink" x="0px" y="0px"
	 viewBox="0 0 100 100" style="enable-background:new 0 0 100 100;" xml:space="preserve">
<style type="text/css">
	.st0{fill:#3DD83D;}
	.st1{fill:#231F20;}
</style>
<g>
	<g>
		<circle class="st0" cx="50" cy="50" r="49.1"/>
		<path class="st1" d="M50,100C22.4,100,0,77.6,0,50S22.4,0,50,0s50,22.4,50,50S77.6,100,50,100z M50,1.7C23.4,1.7,1.7,23.4,1.7,50
			S23.4,98.3,50,98.3S98.3,76.6,98.3,50S76.6,1.7,50,1.7z"/>
	</g>
	<g>
		<path d="M38.7,74.6c3.1-0.2,5-0.7,6-1.4c0.9-0.7,1.4-2.5,1.4-5.4V34.4c0-2.8-0.5-4.5-1.4-5.3s-2.9-1.3-6-1.4v-1.4H61v1.4
			c-3.1,0.1-5,0.6-6,1.4c-0.9,0.8-1.4,2.6-1.4,5.3v33.5c0,2.9,0.5,4.7,1.4,5.4c0.9,0.7,2.9,1.2,6,1.4V76H38.7V74.6z"/>
	</g>
</g>
</svg>
