<?xml version="1.0" encoding="utf-8"?>
<!-- Generator: Adobe Illustrator 21.0.0, SVG Export Plug-In . SVG Version: 6.00 Build 0)  -->
<svg version="1.1" id="Layer_1" xmlns="http://www.w3.org/2000/svg" xmlns:xlink="http://www.w3.org/1999/xlink" x="0px" y="0px"
	 viewBox="0 0 148.1338043 200" style="enable-background:new 0 0 148.1338043 200;" xml:space="preserve">
<style type="text/css">
	.st0{fill:#797979;}
	.st1{fill:none;stroke:#FFFFFF;stroke-width:1.5;stroke-linecap:round;stroke-linejoin:round;stroke-miterlimit:10;}
</style>
<g id="XMLID_52_">
	<g>
		<polygon class="st0" points="119.2853394,92.9535522 119.2324142,93.0064774 119.1583252,93.0620422 119.0868835,93.1149673 
			119.0313187,93.1705322 119.0127945,93.1890564 118.9757462,93.2260971 118.9413528,93.2419739 118.8487396,93.3345871 
			118.7217255,93.4616013 118.6132355,93.5700836 118.4862289,93.6970978 118.3592148,93.8241043 118.2507324,93.9537659 
			118.139595,94.0992966 118.031105,94.2263107 117.9226151,94.3718414 117.8141327,94.5173721 117.7029953,94.6443863 
			117.6130295,94.8084412 117.5230637,94.9539719 117.4304504,95.0995026 117.3219604,95.2609177 117.2505188,95.4064484 
			117.1579056,95.5705032 117.0679398,95.7345581 116.9938507,95.898613 116.9224091,96.0626678 116.84832,96.2267227 
			116.7768784,96.3907776 116.7027893,96.5521927 116.6498642,96.7347641 116.5942993,96.8988266 116.5228577,97.081398 
			116.4672852,97.2613297 116.4302444,97.4253845 116.3773193,97.6079636 116.3402786,97.7905426 116.3032303,97.9704742 
			116.2661896,98.1530533 116.2317886,98.3356323 116.1947479,98.5182114 116.1762238,98.698143 116.1391754,98.880722 
			116.1206512,99.0818176 116.1047821,99.2617493 116.1047821,99.4443283 116.0862579,99.6269073 116.0862579,99.8253632 
			116.0862579,100.0079346 116.0862579,100.1905136 116.0862579,100.3730927 116.1047821,100.5715485 116.1047821,100.7541275 
			116.1206512,100.9367065 116.1391754,101.1166382 116.1762238,101.2992096 116.1947479,101.4817886 116.2317886,101.6828918 
			116.2661896,101.8628235 116.3032303,102.0454025 116.3402786,102.2279816 116.3773193,102.3920364 116.4302444,102.5719681 
			116.4672852,102.7545471 116.5228577,102.9371185 116.5942993,103.1011734 116.6498642,103.281105 116.7027893,103.4451675 
			116.7768784,103.627739 116.84832,103.7917938 116.9224091,103.9558563 116.9938507,104.1172638 117.0679398,104.2813187 
			117.1579056,104.4453735 117.2505188,104.6094284 117.3219604,104.7549591 117.4304504,104.919014 117.5230637,105.0645523 
			117.6130295,105.210083 117.7029953,105.3556137 117.8141327,105.501152 117.9226151,105.6466827 118.031105,105.7922134 
			118.139595,105.9192276 118.2507324,106.0462341 118.3592148,106.1917725 118.4862289,106.318779 118.6132355,106.427269 
			118.7217255,106.5542755 118.8487396,106.6839371 118.9413528,106.7553787 118.9757462,106.7924271 119.0127945,106.8294678 
			119.0313187,106.8453445 119.0868835,106.9009094 119.1583252,106.9564819 119.2324142,107.0093994 119.2853394,107.0649643 
			119.3409042,107.1178894 119.4123459,107.1919785 119.4864349,107.2290192 119.6504898,107.3189926 119.777504,107.4089584 
			119.9230347,107.501564 120.0685654,107.5915298 120.2141037,107.6841431 120.3596344,107.7555847 120.5051651,107.8296738 
			120.6507034,107.901123 120.7962341,107.9752121 120.8332825,107.9910889 120.960289,108.0466537 121.1058197,108.1022186 
			121.2672348,108.1551437 121.4127655,108.2107086 121.5768204,108.2636337 121.7223511,108.3191986 121.8864059,108.3562393 
			122.0504608,108.3932877 122.1959991,108.4276886 122.360054,108.4647293 122.5241089,108.4832535 122.6881638,108.5017776 
			122.8495712,108.5202942 123.0136261,108.5388184 123.1591644,108.5546951 123.3232193,108.5546951 123.4872742,108.5546951 
			123.651329,108.5546951 123.8153839,108.5546951 123.8339081,108.5546951 126.2338791,110.3010941 128.6153259,112.0845337 
			130.9438629,113.9579391 133.1268463,115.9768829 134.2170258,117.1226273 135.180191,118.1572342 137.03508,120.5413284 
			138.6729889,123.2138443 140.0357056,126.1774216 141.0914764,129.4876404 141.8905792,133.1259613 142.4541931,136.9997864 
			142.8378754,141.1091156 143.0548553,145.3824921 143.1633453,149.7828827 143.2003784,154.2944031 143.2003784,156.921936 
			129.7055054,156.921936 129.7055054,156.8213959 128.6338501,156.474762 127.5595551,156.1122437 126.506424,155.7126923 
			125.4691696,155.2760925 124.4133911,154.8394928 123.3973083,154.3473358 122.360054,153.8578033 121.3598404,153.3127136 
			120.3596344,152.7649841 119.3594284,152.1828613 118.377739,151.5848541 117.4119263,150.9471436 116.4487686,150.2935791 
			115.522644,149.6188354 114.5753555,148.9096832 113.6677628,148.1820221 112.757515,147.4384766 111.865799,146.6737671 
			110.9925995,145.8746643 110.1379242,145.0729065 109.3017731,144.2367554 108.4656143,143.3820801 107.6665115,142.4903564 
			106.8647537,141.5986328 106.0841675,140.69104 105.319458,139.7437439 104.5917892,138.7991028 103.8641281,137.8174286 
			103.1549835,136.817215 102.4643631,135.8170013 101.810791,134.7797546 101.1545639,133.7424927 100.519516,132.6893616 
			99.9188614,131.6150665 99.3367233,130.5248871 98.7731171,129.4161987 98.2280273,128.3048553 97.6988144,127.159111 
			97.190773,126.0133667 96.7171326,124.86763 96.2620087,123.7060089 95.8254089,122.5232239 95.4073334,121.3219147 
			95.007782,120.1232529 94.6452713,118.9219437 94.2986374,117.6862335 93.9705276,116.4664001 93.6794586,115.2306976 
			93.4069138,113.9923401 93.1528931,112.7381134 92.9173965,111.4838791 92.7162933,110.2296524 92.5337219,108.9568939 
			92.3696594,107.6841431 92.2426529,106.4087448 92.1341629,105.135994 92.0441971,103.8447189 91.9886322,102.5719681 
			91.9515839,101.2806931 91.9357071,100.0079346 91.9515839,98.7166595 91.9886322,97.4439087 92.0441971,96.1526337 
			92.1341629,94.8798828 92.2426529,93.607132 92.3696594,92.3343811 92.5337219,91.0616226 92.7162933,89.7888718 
			92.9173965,88.5319977 93.1528931,87.2777634 93.4069138,86.0235367 93.6794586,84.7878265 93.9705276,83.5494766 
			94.2986374,82.3137665 94.6452713,81.0939331 95.007782,79.8767471 95.4073334,78.6754379 95.8254089,77.4953003 
			96.2620087,76.3125153 96.7171326,75.1482468 97.190773,73.9839859 97.6988144,72.8382416 98.2280273,71.7110214 
			98.7731171,70.5838013 99.3367233,69.4936295 99.9188614,68.4008102 100.519516,67.329155 101.1545639,66.2548599 
			101.810791,65.2176056 102.4643631,64.2015152 103.1549835,63.1827888 103.8641281,62.2010994 104.5917892,61.2167702 
			105.319458,60.2721252 106.0841675,59.3274841 106.8647537,58.4172401 107.6665115,57.507 108.4656143,56.6338005 
			109.3017731,55.7791252 110.1379242,54.9429703 110.9925995,54.1253395 111.865799,53.3421097 112.757515,52.5615234 
			113.6677628,51.8153343 114.5753555,51.0876694 115.522644,50.397049 116.4487686,49.7064285 117.4119263,49.0687294 
			118.377739,48.4336739 119.3594284,47.8330193 120.3596344,47.2508888 121.3598404,46.6872787 122.360054,46.1607132 
			123.3973083,45.6500244 124.4133911,45.1790276 125.4691696,44.7239075 126.506424,44.3058281 127.5595551,43.9036293 
			128.6338501,43.5225983 129.7055054,43.1786079 130.0336151,43.0859985 143.2003784,43.0859985 143.1633453,50.2144699 
			143.0548553,54.6333847 142.8378754,58.9094086 142.4541931,63.0002098 141.8905792,66.8925552 141.0914764,70.5097122 
			140.0357056,73.8384552 138.6729889,76.8020325 137.03508,79.4586716 135.180191,81.8586426 134.2170258,82.8958969 
			133.1268463,84.0416412 130.9438629,86.0420609 128.6153259,87.9339905 126.2338791,89.7147827 123.8339081,91.4611816 
			123.8153839,91.4611816 123.651329,91.4611816 123.4872742,91.4611816 123.3232193,91.4611816 123.1591644,91.4611816 
			123.0136261,91.4797058 122.8495712,91.4797058 122.6881638,91.4982224 122.5241089,91.5326233 122.360054,91.5511475 
			122.1959991,91.5881882 122.0504608,91.6252365 121.8864059,91.6622772 121.7223511,91.6966782 121.5768204,91.752243 
			121.4127655,91.7892914 121.2672348,91.8422089 121.1058197,91.8977814 120.960289,91.969223 120.8332825,92.0247879 
			120.7962341,92.0247879 120.6507034,92.098877 120.5051651,92.1703262 120.3596344,92.2602921 120.2141037,92.3343811 
			120.0685654,92.4243469 119.9230347,92.498436 119.777504,92.6069183 119.6504898,92.6968842 119.5049591,92.7894974 
			119.3779449,92.8979874 		"/>
		<polygon class="st0" points="52.0331955,43.0859985 52.0331955,45.7241135 52.0331955,46.9042549 52.0331955,52.6514893 
			52.0331955,58.4542885 52.0331955,64.3285294 52.0331955,70.3483047 52.0331955,76.9846115 52.0331955,84.8963165 
			52.0331955,92.5169525 51.7077332,92.4799118 48.2334595,92.4799118 47.1062431,92.5884018 45.9975433,92.9350357 
			44.9788132,93.4801178 44.0500488,94.2448273 43.2324181,95.1709518 42.5947189,96.2452469 42.1051979,97.4253845 
			41.8141327,98.698143 41.7241669,100.0079346 41.8141327,101.3177338 42.1051979,102.5719681 42.5947189,103.7732773 
			43.2324181,104.8449249 44.0500488,105.7736893 44.9788132,106.5198822 45.9975433,107.0834885 47.1062431,107.4089584 
			48.2334595,107.5386124 51.7077332,107.5386124 52.0331955,107.501564 52.0331955,115.1222076 52.0331955,123.0127411 
			52.0331955,129.6702118 52.0331955,135.6714783 52.0331955,141.5642395 52.0331955,147.345871 52.0331955,153.0930939 
			52.0331955,154.2944031 52.0331955,156.921936 52.0331955,158.8218079 51.9987984,158.8218079 51.871788,158.8218079 
			51.7791748,158.8218079 51.7077332,158.8218079 50.5990334,158.8218079 49.48769,158.7662354 48.378994,158.7133179 
			47.270298,158.6048279 46.1615982,158.475174 45.0502586,158.3296356 43.960083,158.149704 42.8513832,157.9300842 
			41.758564,157.6945953 40.6683884,157.440567 39.5940895,157.1495056 38.522438,156.8213959 37.4481392,156.474762 
			36.3764877,156.1122437 35.320713,155.7126923 34.2861023,155.2760925 33.2303276,154.8394928 32.2115974,154.3473358 
			31.1928654,153.8578033 30.1741352,153.3127136 29.1739254,152.7649841 28.1737175,152.1828613 27.19203,151.5848541 
			26.2288666,150.9471436 25.2657013,150.2935791 24.336937,149.6188354 23.3922939,148.9096832 22.4820518,148.1820221 
			21.5718079,147.4384766 20.6827335,146.6737671 19.809536,145.8746643 18.9548607,145.0729065 18.1187057,144.2367554 
			17.2799072,143.3820801 16.4807987,142.4903564 15.6816902,141.5986328 14.8984575,140.69104 14.1337471,139.7437439 
			13.4087286,138.7991028 12.6810627,137.8174286 11.97192,136.817215 11.2786541,135.8170013 10.6250782,134.7797546 
			9.9715023,133.7424927 9.3523254,132.6893616 8.7331486,131.6150665 8.1510162,130.5248871 7.5874066,129.4161987 
			7.0423193,128.3048553 6.5157542,127.159111 6.0050659,126.0133667 5.5340681,124.86763 5.0789466,123.7060089 
			4.6423473,122.5232239 4.2242703,121.3219147 3.8247161,120.1232529 3.4595606,118.9219437 3.1155734,117.6862335 
			2.7874625,116.4664001 2.4963965,115.2306976 2.2238529,113.9923401 1.9698315,112.7381134 1.7316865,111.4838791 
			1.5332323,110.2296524 1.3506545,108.9568939 1.1865991,107.6841431 1.0595884,106.4087448 0.9511002,105.135994 
			0.8584883,103.8447189 0.8055671,102.5719681 0.7685224,101.2806931 0.75,100.0079346 0.7685224,98.7166595 0.8055671,97.4439087 
			0.8584883,96.1526337 0.9511002,94.8798828 1.0595884,93.607132 1.1865991,92.3343811 1.3506545,91.0616226 1.5332323,89.7888718 
			1.7316865,88.5319977 1.9698315,87.2777634 2.2238529,86.0235367 2.4963965,84.7878265 2.7874625,83.5494766 
			3.1155734,82.3137665 3.4595606,81.0939331 3.8247161,79.8767471 4.2242703,78.6754379 4.6423473,77.4953003 
			5.0789466,76.3125153 5.5340681,75.1482468 6.0050659,73.9839859 6.5157542,72.8382416 7.0423193,71.7110214 
			7.5874066,70.5838013 8.1510162,69.4936295 8.7331486,68.4008102 9.3523254,67.329155 9.9715023,66.2548599 
			10.6250782,65.2176056 11.2786541,64.2015152 11.97192,63.1827888 12.6810627,62.2010994 13.4087286,61.2167702 
			14.1337471,60.2721252 14.8984575,59.3274841 15.6816902,58.4172401 16.4807987,57.507 17.2799072,56.6338005 
			18.1187057,55.7791252 18.9548607,54.9429703 19.809536,54.1253395 20.6827335,53.3421097 21.5718079,52.5615234 
			22.4820518,51.8153343 23.3922939,51.0876694 24.336937,50.397049 25.2657013,49.7064285 26.2288666,49.0687294 
			27.19203,48.4336739 28.1737175,47.8330193 29.1739254,47.2508888 30.1741352,46.6872787 31.1928654,46.1607132 
			32.2115974,45.6500244 33.2303276,45.1790276 34.2861023,44.7239075 35.320713,44.3058281 36.3764877,43.9036293 
			37.4481392,43.5225983 38.522438,43.1786079 39.5940895,42.8690224 40.6683884,42.5779533 41.758564,42.3054123 
			42.8513832,42.0672684 43.960083,41.8688126 45.0502586,41.6862335 46.1615982,41.5221786 47.270298,41.4136925 
			48.378994,41.3052025 49.48769,41.2311134 50.5990334,41.1940689 51.7077332,41.1781921 51.7791748,41.1781921 
			51.871788,41.1781921 51.9617538,41.1781921 51.9987984,41.1781921 52.0331955,41.1940689 		"/>
	</g>
	<g>
		<polyline class="st1" points="144.5657501,41.1781921 144.5657501,43.0859985 144.5657501,46.9042549 144.5657501,52.6514893 
			144.5657501,58.4542885 144.5657501,64.3285294 144.5657501,70.3483047 144.5657501,76.9846115 144.5657501,84.8963165 
			144.5657501,92.4799118 144.5657501,92.498436 144.5657501,92.5169525 144.2376404,92.4799118 143.1104126,92.5884018 
			142.0017242,92.9350357 140.9829865,93.4801178 140.0542297,94.2448273 139.2365875,95.1709518 138.5988922,96.2452469 
			138.109375,97.4253845 137.8183136,98.698143 137.7256927,100.0079346 137.8183136,101.3177338 138.109375,102.5719681 
			138.5988922,103.7732773 139.2365875,104.8449249 140.0542297,105.7736893 140.9829865,106.5198822 142.0017242,107.0834885 
			143.1104126,107.4089584 144.2376404,107.5386124 144.5657501,107.501564 144.5657501,107.5200882 144.5657501,107.5386124 
			144.5657501,115.1222076 144.5657501,123.0127411 144.5657501,129.6702118 144.5657501,135.6714783 144.5657501,141.5642395 
			144.5657501,147.345871 144.5657501,153.0930939 144.5657501,154.2944031 144.5657501,156.921936 144.5657501,158.8218079 		"/>
		<polyline class="st1" points="144.5657501,92.4799118 146.9842377,92.4799118 147.2938385,92.5169525 		"/>
		<polyline class="st1" points="119.2853394,92.9535522 119.3409042,92.8794632 119.4123459,92.8238983 119.4679108,92.7709808 		
			"/>
		<polyline class="st1" points="119.0127945,106.8294678 118.9757462,106.7924271 118.9413528,106.7553787 118.8487396,106.6839371 
			118.7217255,106.5542755 118.6132355,106.427269 118.4862289,106.318779 118.3592148,106.1917725 118.2507324,106.0462341 
			118.139595,105.9192276 118.031105,105.7922134 117.9226151,105.6466827 117.8141327,105.501152 117.7029953,105.3556137 
			117.6130295,105.210083 117.5230637,105.0645523 117.4304504,104.919014 117.3219604,104.7549591 117.2505188,104.6094284 
			117.1579056,104.4453735 117.0679398,104.2813187 116.9938507,104.1172638 116.9224091,103.9558563 116.84832,103.7917938 
			116.7768784,103.627739 116.7027893,103.4451675 116.6498642,103.281105 116.5942993,103.1011734 116.5228577,102.9371185 
			116.4672852,102.7545471 116.4302444,102.5719681 116.3773193,102.3920364 116.3402786,102.2279816 116.3032303,102.0454025 
			116.2661896,101.8628235 116.2317886,101.6828918 116.1947479,101.4817886 116.1762238,101.2992096 116.1391754,101.1166382 
			116.1206512,100.9367065 116.1047821,100.7541275 116.1047821,100.5715485 116.0862579,100.3730927 116.0862579,100.1905136 
			116.0862579,100.0079346 116.0862579,99.8253632 116.0862579,99.6269073 116.1047821,99.4443283 116.1047821,99.2617493 
			116.1206512,99.0818176 116.1391754,98.880722 116.1762238,98.698143 116.1947479,98.5182114 116.2317886,98.3356323 
			116.2661896,98.1530533 116.3032303,97.9704742 116.3402786,97.7905426 116.3773193,97.6079636 116.4302444,97.4253845 
			116.4672852,97.2613297 116.5228577,97.081398 116.5942993,96.8988266 116.6498642,96.7347641 116.7027893,96.5521927 
			116.7768784,96.3907776 116.84832,96.2267227 116.9224091,96.0626678 116.9938507,95.898613 117.0679398,95.7345581 
			117.1579056,95.5705032 117.2505188,95.4064484 117.3219604,95.2609177 117.4304504,95.0995026 117.5230637,94.9539719 
			117.6130295,94.8084412 117.7029953,94.6443863 117.8141327,94.5173721 117.9226151,94.3718414 118.031105,94.2263107 
			118.139595,94.0992966 118.2507324,93.9537659 118.3592148,93.8241043 118.4862289,93.6970978 118.6132355,93.5700836 
			118.7217255,93.4616013 118.8487396,93.3345871 118.9413528,93.2419739 118.9757462,93.2260971 119.0127945,93.1890564 		"/>
		<polyline class="st1" points="143.2003784,156.9298859 143.2003784,156.921936 143.2003784,154.2944031 143.1633453,149.7828827 
			143.0548553,145.3824921 142.8378754,141.1091156 142.4541931,136.9997864 141.8905792,133.1259613 141.0914764,129.4876404 
			140.0357056,126.1774216 138.6729889,123.2138443 137.03508,120.5413284 135.180191,118.1572342 134.2170258,117.1226273 
			133.1268463,115.9768829 130.9438629,113.9579391 128.6153259,112.0845337 126.2338791,110.3010941 123.8339081,108.5546951 
			123.8153839,108.5546951 123.651329,108.5546951 123.4872742,108.5546951 123.3232193,108.5546951 123.1591644,108.5546951 
			123.0136261,108.5388184 122.8495712,108.5202942 122.6881638,108.5017776 122.5241089,108.4832535 122.360054,108.4647293 
			122.1959991,108.4276886 122.0504608,108.3932877 121.8864059,108.3562393 121.7223511,108.3191986 121.5768204,108.2636337 
			121.4127655,108.2107086 121.2672348,108.1551437 121.1058197,108.1022186 120.960289,108.0466537 120.8332825,107.9910889 
			120.7962341,107.9752121 120.6507034,107.901123 120.5051651,107.8296738 120.3596344,107.7555847 120.2141037,107.6841431 
			120.0685654,107.5915298 119.9230347,107.501564 119.777504,107.4089584 119.6504898,107.3189926 119.4864349,107.2290192 
			119.4123459,107.1919785 119.3409042,107.1178894 119.2853394,107.0649643 		"/>
		<polyline class="st1" points="130.0336151,43.0859985 129.7055054,43.1786079 128.6338501,43.5225983 127.5595551,43.9036293 
			126.506424,44.3058281 125.4691696,44.7239075 124.4133911,45.1790276 123.3973083,45.6500244 122.360054,46.1607132 
			121.3598404,46.6872787 120.3596344,47.2508888 119.3594284,47.8330193 118.377739,48.4336739 117.4119263,49.0687294 
			116.4487686,49.7064285 115.522644,50.397049 114.5753555,51.0876694 113.6677628,51.8153343 112.757515,52.5615234 
			111.865799,53.3421097 110.9925995,54.1253395 110.1379242,54.9429703 109.3017731,55.7791252 108.4656143,56.6338005 
			107.6665115,57.507 106.8647537,58.4172401 106.0841675,59.3274841 105.319458,60.2721252 104.5917892,61.2167702 
			103.8641281,62.2010994 103.1549835,63.1827888 102.4643631,64.2015152 101.810791,65.2176056 101.1545639,66.2548599 
			100.519516,67.329155 99.9188614,68.4008102 99.3367233,69.4936295 98.7731171,70.5838013 98.2280273,71.7110214 
			97.6988144,72.8382416 97.190773,73.9839859 96.7171326,75.1482468 96.2620087,76.3125153 95.8254089,77.4953003 
			95.4073334,78.6754379 95.007782,79.8767471 94.6452713,81.0939331 94.2986374,82.3137665 93.9705276,83.5494766 
			93.6794586,84.7878265 93.4069138,86.0235367 93.1528931,87.2777634 92.9173965,88.5319977 92.7162933,89.7888718 
			92.5337219,91.0616226 92.3696594,92.3343811 92.2426529,93.607132 92.1341629,94.8798828 92.0441971,96.1526337 
			91.9886322,97.4439087 91.9515839,98.7166595 91.9357071,100.0079346 91.9515839,101.2806931 91.9886322,102.5719681 
			92.0441971,103.8447189 92.1341629,105.135994 92.2426529,106.4087448 92.3696594,107.6841431 92.5337219,108.9568939 
			92.7162933,110.2296524 92.9173965,111.4838791 93.1528931,112.7381134 93.4069138,113.9923401 93.6794586,115.2306976 
			93.9705276,116.4664001 94.2986374,117.6862335 94.6452713,118.9219437 95.007782,120.1232529 95.4073334,121.3219147 
			95.8254089,122.5232239 96.2620087,123.7060089 96.7171326,124.86763 97.190773,126.0133667 97.6988144,127.159111 
			98.2280273,128.3048553 98.7731171,129.4161987 99.3367233,130.5248871 99.9188614,131.6150665 100.519516,132.6893616 
			101.1545639,133.7424927 101.810791,134.7797546 102.4643631,135.8170013 103.1549835,136.817215 103.8641281,137.8174286 
			104.5917892,138.7991028 105.319458,139.7437439 106.0841675,140.69104 106.8647537,141.5986328 107.6665115,142.4903564 
			108.4656143,143.3820801 109.3017731,144.2367554 110.1379242,145.0729065 110.9925995,145.8746643 111.865799,146.6737671 
			112.757515,147.4384766 113.6677628,148.1820221 114.5753555,148.9096832 115.522644,149.6188354 116.4487686,150.2935791 
			117.4119263,150.9471436 118.377739,151.5848541 119.3594284,152.1828613 120.3596344,152.7649841 121.3598404,153.3127136 
			122.360054,153.8578033 123.3973083,154.3473358 124.4133911,154.8394928 125.4691696,155.2760925 126.506424,155.7126923 
			127.5595551,156.1122437 128.6338501,156.474762 129.7055054,156.8213959 		"/>
		<line class="st1" x1="143.2003784" y1="41.1940689" x2="143.2003784" y2="41.1781921"/>
		<polyline class="st1" points="120.8332825,107.9910889 120.6877441,107.6841431 120.5422134,107.3745575 120.4125595,107.0649643 
			120.2670212,106.7553787 120.1955795,106.5383987 120.0870895,106.2473373 119.9415588,105.8107376 119.8674698,105.4641037 
			119.7589798,105.0830688 119.669014,104.6993942 119.5949249,104.3183594 119.5049591,103.9373322 119.4308701,103.5377731 
			119.3779449,103.1540985 119.3223801,102.7730637 119.2668152,102.3735123 119.2324142,101.9713135 119.1953735,101.5902786 
			119.1768494,101.1907272 119.1583252,100.7911682 119.139801,100.4074936 119.139801,100.0079346 119.139801,99.6083832 
			119.1583252,99.2088318 119.1768494,98.8251495 119.1953735,98.4255981 119.2324142,98.0260391 119.2668152,97.6450119 
			119.3223801,97.2454529 119.3779449,96.8617783 119.4308701,96.4622269 119.5049591,96.081192 119.5949249,95.6975174 
			119.669014,95.3164825 119.7589798,94.9354477 119.8674698,94.5517731 119.9415588,94.1892624 120.0870895,93.7711868 
			120.1955795,93.4801178 120.2670212,93.260498 120.4125595,92.9350357 120.5422134,92.6254425 120.6877441,92.3343811 
			120.8332825,92.0247879 120.960289,91.969223 121.1058197,91.8977814 121.2672348,91.8422089 121.4127655,91.7892914 
			121.5768204,91.752243 121.7223511,91.6966782 121.8864059,91.6622772 122.0504608,91.6252365 122.1959991,91.5881882 
			122.360054,91.5511475 122.5241089,91.5326233 122.6881638,91.4982224 122.8495712,91.4797058 123.0136261,91.4797058 
			123.1591644,91.4611816 123.3232193,91.4611816 123.4872742,91.4611816 123.651329,91.4611816 123.8153839,91.4611816 
			123.8339081,91.4611816 126.2338791,89.7147827 128.6153259,87.9339905 130.9438629,86.0420609 133.1268463,84.0416412 
			134.2170258,82.8958969 135.180191,81.8586426 137.03508,79.4586716 138.6729889,76.8020325 140.0357056,73.8384552 
			141.0914764,70.5097122 141.8905792,66.8925552 142.4541931,63.0002098 142.8378754,58.9094086 143.0548553,54.6333847 
			143.1633453,50.2144699 143.2003784,43.0859985 		"/>
		<polyline class="st1" points="147.2938385,107.501564 146.9842377,107.5386124 144.5657501,107.5386124 		"/>
		<polyline class="st1" points="119.0127945,93.1890564 119.0313187,93.1705322 119.0868835,93.1149673 119.1583252,93.0620422 
			119.2324142,93.0064774 119.2853394,92.9535522 119.3779449,92.8979874 119.5049591,92.7894974 119.6504898,92.6968842 
			119.777504,92.6069183 119.9230347,92.498436 120.0685654,92.4243469 120.2141037,92.3343811 120.3596344,92.2602921 
			120.5051651,92.1703262 120.6507034,92.098877 120.7962341,92.0247879 120.8332825,92.0247879 		"/>
		<polyline class="st1" points="119.4864349,107.2290192 119.3779449,107.1178894 119.2853394,107.0649643 119.2324142,107.0093994 
			119.1583252,106.9564819 119.0868835,106.9009094 119.0313187,106.8453445 119.0127945,106.8294678 		"/>
		<polyline class="st1" points="147.3838043,92.5169525 147.2938385,92.5169525 146.5820465,92.5884018 145.4733429,92.9350357 
			145.1637573,93.0990906 144.4546204,93.4801178 143.5099792,94.2448273 142.7108612,95.1709518 142.0546417,96.2452469 
			141.5809937,97.4253845 141.2899323,98.698143 141.1814423,100.0079346 141.2899323,101.3177338 141.5809937,102.5719681 
			142.0546417,103.7732773 142.7108612,104.8449249 143.5099792,105.7736893 144.4546204,106.5198822 144.5657501,106.5727997 
			145.1637573,106.9009094 145.4733429,107.0834885 146.5820465,107.4089584 147.3838043,107.501564 147.2938385,107.501564 		"/>
		<polyline class="st1" points="53.3800392,43.0859985 53.3800392,45.7241135 53.4170837,50.2144699 53.5255737,54.6333847 
			53.7610703,58.9094086 54.1447487,63.0002098 54.7083588,66.8925552 55.5074654,70.5097122 56.5632439,73.8384552 
			57.9259605,76.8020325 59.5453491,79.4586716 61.4002304,81.8586426 62.3819199,82.8958969 63.4562187,84.0416412 
			65.6550903,86.0420609 67.9650955,87.9339905 70.3465424,89.7147827 72.7491608,91.4426575 72.7676849,91.4611816 		"/>
		<polyline class="st1" points="48.2334595,92.4799118 51.7077332,92.4799118 52.0331955,92.5169525 		"/>
		<polyline class="st1" points="51.9987984,41.1781921 52.0331955,41.1940689 52.0331955,43.0859985 52.0331955,45.7241135 
			52.0331955,46.9042549 52.0331955,52.6514893 52.0331955,58.4542885 52.0331955,64.3285294 52.0331955,70.3483047 
			52.0331955,76.9846115 52.0331955,84.8963165 52.0331955,92.5169525 		"/>
		<polyline class="st1" points="51.871788,158.8218079 51.7791748,158.8218079 51.7077332,158.8218079 50.5990334,158.8218079 
			49.48769,158.7662354 48.378994,158.7133179 47.270298,158.6048279 46.1615982,158.475174 45.0502586,158.3296356 
			43.960083,158.149704 42.8513832,157.9300842 41.758564,157.6945953 40.6683884,157.440567 39.5940895,157.1495056 
			38.522438,156.8213959 37.4481392,156.474762 36.3764877,156.1122437 35.320713,155.7126923 34.2861023,155.2760925 
			33.2303276,154.8394928 32.2115974,154.3473358 31.1928654,153.8578033 30.1741352,153.3127136 29.1739254,152.7649841 
			28.1737175,152.1828613 27.19203,151.5848541 26.2288666,150.9471436 25.2657013,150.2935791 24.336937,149.6188354 
			23.3922939,148.9096832 22.4820518,148.1820221 21.5718079,147.4384766 20.6827335,146.6737671 19.809536,145.8746643 
			18.9548607,145.0729065 18.1187057,144.2367554 17.2799072,143.3820801 16.4807987,142.4903564 15.6816902,141.5986328 
			14.8984575,140.69104 14.1337471,139.7437439 13.4087286,138.7991028 12.6810627,137.8174286 11.97192,136.817215 
			11.2786541,135.8170013 10.6250782,134.7797546 9.9715023,133.7424927 9.3523254,132.6893616 8.7331486,131.6150665 
			8.1510162,130.5248871 7.5874066,129.4161987 7.0423193,128.3048553 6.5157542,127.159111 6.0050659,126.0133667 
			5.5340681,124.86763 5.0789466,123.7060089 4.6423473,122.5232239 4.2242703,121.3219147 3.8247161,120.1232529 
			3.4595606,118.9219437 3.1155734,117.6862335 2.7874625,116.4664001 2.4963965,115.2306976 2.2238529,113.9923401 
			1.9698315,112.7381134 1.7316865,111.4838791 1.5332323,110.2296524 1.3506545,108.9568939 1.1865991,107.6841431 
			1.0595884,106.4087448 0.9511002,105.135994 0.8584883,103.8447189 0.8055671,102.5719681 0.7685224,101.2806931 
			0.75,100.0079346 0.7685224,98.7166595 0.8055671,97.4439087 0.8584883,96.1526337 0.9511002,94.8798828 1.0595884,93.607132 
			1.1865991,92.3343811 1.3506545,91.0616226 1.5332323,89.7888718 1.7316865,88.5319977 1.9698315,87.2777634 
			2.2238529,86.0235367 2.4963965,84.7878265 2.7874625,83.5494766 3.1155734,82.3137665 3.4595606,81.0939331 
			3.8247161,79.8767471 4.2242703,78.6754379 4.6423473,77.4953003 5.0789466,76.3125153 5.5340681,75.1482468 
			6.0050659,73.9839859 6.5157542,72.8382416 7.0423193,71.7110214 7.5874066,70.5838013 8.1510162,69.4936295 
			8.7331486,68.4008102 9.3523254,67.329155 9.9715023,66.2548599 10.6250782,65.2176056 11.2786541,64.2015152 
			11.97192,63.1827888 12.6810627,62.2010994 13.4087286,61.2167702 14.1337471,60.2721252 14.8984575,59.3274841 
			15.6816902,58.4172401 16.4807987,57.507 17.2799072,56.6338005 18.1187057,55.7791252 18.9548607,54.9429703 
			19.809536,54.1253395 20.6827335,53.3421097 21.5718079,52.5615234 22.4820518,51.8153343 23.3922939,51.0876694 
			24.336937,50.397049 25.2657013,49.7064285 26.2288666,49.0687294 27.19203,48.4336739 28.1737175,47.8330193 
			29.1739254,47.2508888 30.1741352,46.6872787 31.1928654,46.1607132 32.2115974,45.6500244 33.2303276,45.1790276 
			34.2861023,44.7239075 35.320713,44.3058281 36.3764877,43.9036293 37.4481392,43.5225983 38.522438,43.1786079 
			39.5940895,42.8690224 40.6683884,42.5779533 41.758564,42.3054123 42.8513832,42.0672684 43.960083,41.8688126 
			45.0502586,41.6862335 46.1615982,41.5221786 47.270298,41.4136925 48.378994,41.3052025 49.48769,41.2311134 
			50.5990334,41.1940689 51.7077332,41.1781921 51.7791748,41.1781921 51.871788,41.1781921 51.9617538,41.1781921 		"/>
		<polyline class="st1" points="52.0331955,107.501564 52.0331955,115.1222076 52.0331955,123.0127411 52.0331955,129.6702118 
			52.0331955,135.6714783 52.0331955,141.5642395 52.0331955,147.345871 52.0331955,153.0930939 52.0331955,154.2944031 
			52.0331955,156.921936 52.0331955,158.8218079 		"/>
		<polyline class="st1" points="52.0331955,107.501564 51.7077332,107.5386124 48.2334595,107.5386124 47.1062431,107.4089584 
			45.9975433,107.0834885 44.9788132,106.5198822 44.0500488,105.7736893 43.2324181,104.8449249 42.5947189,103.7732773 
			42.1051979,102.5719681 41.8141327,101.3177338 41.7241669,100.0079346 41.8141327,98.698143 42.1051979,97.4253845 
			42.5947189,96.2452469 43.2324181,95.1709518 44.0500488,94.2448273 44.9788132,93.4801178 45.9975433,92.9350357 
			47.1062431,92.5884018 48.2334595,92.4799118 48.561573,92.5169525 51.3796196,92.5169525 52.0331955,92.5169525 		"/>
		<polyline class="st1" points="72.7676849,91.4611816 72.6221542,91.4611816 72.4580994,91.4611816 72.2940445,91.4611816 
			72.1299896,91.4611816 71.9659271,91.4797058 71.8018723,91.4797058 71.6378174,91.4982224 71.4764099,91.5326233 
			71.3308792,91.5511475 71.1668243,91.5881882 71.0027695,91.6252365 70.8387146,91.6622772 70.6931763,91.6966782 
			70.5291214,91.752243 70.3835907,91.7892914 70.2195358,91.8422089 70.0740051,91.8977814 69.91259,91.969223 
			69.7670593,92.0247879 69.6215286,92.098877 69.4759903,92.1703262 69.3119354,92.2602921 69.1664047,92.3343811 
			69.0393906,92.4243469 68.8938599,92.498436 68.7483292,92.6069183 68.6027908,92.6968842 68.4757843,92.7894974 
			68.3302536,92.8979874 68.200592,93.0064774 68.0735855,93.1149673 67.9465714,93.2260971 67.8195648,93.3345871 
			67.6925507,93.4616013 67.5655441,93.5700836 67.43853,93.6970978 67.33004,93.8241043 67.2189102,93.9537659 
			67.0918961,94.0992966 66.9834061,94.2263107 66.8749237,94.3718414 66.7823105,94.5173721 66.6738205,94.6443863 
			66.5653305,94.8084412 66.4753647,94.9539719 66.3827515,95.0995026 66.2927856,95.2609177 66.2001801,95.4064484 
			66.1102142,95.5705032 66.038765,95.7345581 65.9646759,95.898613 65.8747101,96.0626678 65.800621,96.2267227 
			65.7291794,96.3907776 65.6736145,96.5521927 65.6021652,96.7347641 65.5466003,96.8988266 65.4910355,97.081398 
			65.4381104,97.2613297 65.3825455,97.4253845 65.3454971,97.6079636 65.2925797,97.7905426 65.2555313,97.9704742 
			65.2184906,98.1530533 65.1840897,98.3356323 65.1655655,98.5182114 65.1285248,98.698143 65.1100006,98.880722 
			65.0914764,99.0818176 65.0729599,99.2617493 65.0544357,99.4443283 65.0544357,99.6269073 65.038559,99.8253632 
			65.038559,100.0079346 65.038559,100.1905136 65.0544357,100.3730927 65.0544357,100.5715485 65.0729599,100.7541275 
			65.0914764,100.9367065 65.1100006,101.1166382 65.1285248,101.2992096 65.1655655,101.4817886 65.1840897,101.6828918 
			65.2184906,101.8628235 65.2555313,102.0454025 65.2925797,102.2279816 65.3454971,102.3920364 65.3825455,102.5719681 
			65.4381104,102.7545471 65.4910355,102.9371185 65.5466003,103.1011734 65.6021652,103.281105 65.6736145,103.4451675 
			65.7291794,103.627739 65.800621,103.7917938 65.8747101,103.9558563 65.9646759,104.1172638 66.038765,104.2813187 
			66.1102142,104.4453735 66.2001801,104.6094284 66.2927856,104.7549591 66.3827515,104.919014 66.4753647,105.0645523 
			66.5653305,105.210083 66.6738205,105.3556137 66.7823105,105.501152 66.8749237,105.6466827 66.9834061,105.7922134 
			67.0918961,105.9192276 67.2189102,106.0462341 67.33004,106.1917725 67.43853,106.318779 67.5655441,106.427269 
			67.6925507,106.5542755 67.8195648,106.6839371 67.9465714,106.7924271 68.0735855,106.9009094 68.200592,107.0093994 
			68.3302536,107.1178894 68.4757843,107.2105026 68.6027908,107.3189926 68.7483292,107.4089584 68.8938599,107.501564 
			69.0393906,107.5915298 69.1664047,107.6841431 69.3119354,107.7555847 69.4759903,107.8296738 69.6215286,107.901123 
			69.7670593,107.9752121 69.91259,108.0466537 70.0740051,108.1022186 70.2195358,108.1551437 70.3835907,108.2107086 
			70.5291214,108.2636337 70.6931763,108.3191986 70.8387146,108.3562393 71.0027695,108.3932877 71.1668243,108.4276886 
			71.3308792,108.4647293 71.4764099,108.4832535 71.6378174,108.5017776 71.8018723,108.5202942 71.9659271,108.5388184 
			72.1299896,108.5546951 72.2940445,108.5546951 72.4580994,108.5546951 72.6221542,108.5546951 72.7491608,108.5546951 		"/>
		<polyline class="st1" points="72.7676849,108.5546951 72.7491608,108.5546951 70.3465424,110.3010941 67.9650955,112.0845337 
			65.6550903,113.9579391 63.4562187,115.9768829 62.3819199,117.1226273 61.4002304,118.1572342 59.5453491,120.5413284 
			57.9259605,123.2138443 56.5632439,126.1774216 55.5074654,129.4876404 54.7083588,133.1259613 54.1447487,136.9997864 
			53.7610703,141.1091156 53.5255737,145.3824921 53.4170837,149.7828827 53.3800392,154.2944031 53.3800392,156.921936 
			53.3800392,156.9298859 		"/>
		<polyline class="st1" points="52.0331955,107.501564 51.3796196,107.501564 50.580513,107.4089584 49.4691696,107.0834885 
			48.453083,106.5198822 47.5057945,105.7736893 46.7066879,104.8449249 46.0504646,103.7732773 45.5794678,102.5719681 
			45.2884026,101.3177338 45.177269,100.0079346 45.2884026,98.698143 45.5794678,97.4253845 46.0504646,96.2452469 
			46.7066879,95.1709518 47.5057945,94.2448273 48.453083,93.4801178 49.4691696,92.9350357 50.580513,92.5884018 
			51.3796196,92.5169525 		"/>
		<polyline class="st1" points="51.871788,158.8218079 51.9987984,158.8218079 52.0331955,158.8218079 52.3798294,158.8218079 
			52.5438843,158.8218079 52.7079391,158.8218079 52.797905,158.8218079 52.8905182,158.8218079 53.0519295,158.8218079 
			53.2159843,158.8218079 53.3800392,158.8218079 129.7055054,158.8218079 143.1818542,158.8218079 143.2003784,158.8218079 
			144.5657501,158.8218079 		"/>
		<polyline class="st1" points="51.3796196,107.501564 48.561573,107.501564 48.2334595,107.5386124 		"/>
		<polyline class="st1" points="51.9617538,41.1781921 51.9987984,41.1781921 52.0331955,41.1781921 52.2898636,41.1781921 
			52.3798294,41.1781921 52.4697952,41.1781921 52.5438843,41.1781921 52.5624084,41.1781921 52.7079391,41.1781921 
			52.797905,41.1781921 52.8719978,41.1781921 52.9619637,41.1781921 53.0519295,41.1781921 53.2159843,41.1781921 
			53.3800392,41.1781921 130.0336151,41.1781921 142.9648895,41.1781921 143.1448212,41.1781921 143.1818542,41.1781921 
			143.2003784,41.1781921 144.5657501,41.1781921 		"/>
		<polyline class="st1" points="144.5604553,43.0859985 143.2083282,43.0859985 143.2003784,43.0859985 130.0336151,43.0859985 
			129.7002106,43.0859985 53.3800392,43.0859985 52.0331955,43.0859985 52.0279045,43.0859985 		"/>
		<polyline class="st1" points="52.0279045,156.921936 52.0331955,156.921936 53.3800392,156.921936 66.8881531,156.921936 
			129.7055054,156.921936 143.2003784,156.921936 144.5604553,156.921936 		"/>
	</g>
</g>
</svg>
