<?xml version="1.0" encoding="utf-8"?>
<!-- Generator: Adobe Illustrator 21.0.0, SVG Export Plug-In . SVG Version: 6.00 Build 0)  -->
<svg version="1.1" id="Layer_1" xmlns="http://www.w3.org/2000/svg" xmlns:xlink="http://www.w3.org/1999/xlink" x="0px" y="0px"
	 viewBox="0 0 164.5427856 200" style="enable-background:new 0 0 164.5427856 200;" xml:space="preserve">
<style type="text/css">
	.st0{fill:#797979;}
	.st1{fill:none;stroke:#FFFFFF;stroke-width:1.5;stroke-linecap:round;stroke-linejoin:round;}
	.st2{fill:none;stroke:#FFFFFF;stroke-linecap:round;stroke-linejoin:round;}
	.st3{fill:#FFFFFF;}
</style>
<g>
	<g>
		<g>
			<g>
				<g id="XMLID_19_">
					<g>
						<polygon class="st0" points="141.9345398,124.920372 142.0002747,129.6542816 142.1756134,134.5196991 
							142.6139374,140.3274994 143.1837616,144.9956665 143.7974091,148.4803467 144.3672333,150.9130554 145.0247192,153.1485138 
							145.7698822,155.1428986 146.3397064,156.3263702 146.9533539,157.4002686 147.6108398,158.320755 148.3340759,159.0878143 
							149.1011505,159.7233887 149.9120483,160.1836395 150.8106232,160.4466248 151.7530212,160.5562134 149.4518127,160.4904633 
							147.1725159,160.3151245 146.2301178,160.2274628 143.9727478,159.9425507 141.7153778,159.5261383 139.4799194,159.0220642 
							137.2444611,158.3865051 136.433548,158.1235046 134.2419281,157.3783569 132.7954559,156.8085327 133.0584412,156.3263702 
							133.6282654,155.1428986 134.39534,153.1485138 135.0528259,150.9130554 135.6007385,148.4803467 136.214386,144.9956665 
							136.7842102,140.3274994 137.2663727,133.5334625 137.463623,124.920372 137.4855347,123.758812 137.5293579,122.6849136 
							137.6608582,121.4795227 137.7704468,120.6028671 137.9457703,119.8577194 138.0772705,119.3536453 138.2087708,118.8934021 
							138.3840942,118.498909 138.559433,118.1482468 138.7347565,117.8633347 138.9320068,117.6441727 139.1292572,117.4688492 
							139.2607422,117.3811798 139.4799194,117.2935181 139.6990814,117.2715988 139.9182434,117.2935181 140.0716553,117.3373489 
							140.2031555,117.4250107 140.3346405,117.5126801 140.5318909,117.7099228 140.7291412,117.951004 140.9044647,118.2578278 
							141.0798035,118.6304092 141.2332153,119.046814 141.3866272,119.5070572 141.5400391,120.2083817 141.6934509,121.0192795 
							141.8030396,121.9397659 141.8907013,123.210907 						"/>
						<polygon class="st0" points="137.6608582,78.5236588 137.5293579,77.3182602 137.4855347,76.2443619 137.463623,75.0828018 
							137.2663727,66.4697113 136.7842102,59.6756744 136.214386,55.0075111 135.6007385,51.5228271 135.0528259,49.0901222 
							134.39534,46.8546638 133.6282654,44.8602829 133.0584412,43.6768036 132.7954559,43.1946487 134.2419281,42.6029091 
							136.433548,41.879673 137.2444611,41.6166763 139.4799194,40.9811058 141.7153778,40.4551163 143.9727478,40.0606232 
							146.2301178,39.7757111 147.1725159,39.6880455 149.4518127,39.5127182 151.7530212,39.4469681 150.8106232,39.5565491 
							149.9120483,39.8195457 149.1011505,40.2797852 148.3340759,40.9153557 147.6108398,41.6824265 146.9533539,42.6029091 
							146.3397064,43.6768036 145.7698822,44.8602829 145.0247192,46.8546638 144.3672333,49.0901222 143.7974091,51.5228271 
							143.1837616,55.0075111 142.6139374,59.6756744 142.1756134,65.4834824 142.0002747,70.3488922 141.9345398,75.0828018 
							141.8907013,76.7922745 141.8030396,78.0634155 141.6934509,78.9619827 141.5400391,79.7728806 141.3866272,80.4961166 
							141.2332153,80.9563599 141.0798035,81.3727722 140.9044647,81.7453461 140.7291412,82.0521698 140.5318909,82.293251 
							140.3346405,82.4905014 140.2031555,82.5781631 140.0716553,82.6658249 139.9182434,82.7096634 139.6990814,82.731575 
							139.4799194,82.7096634 139.2607422,82.621994 139.1292572,82.5343323 138.9320068,82.3590012 138.7347565,82.1398392 
							138.559433,81.8549271 138.3840942,81.5042648 138.2087708,81.1097717 138.0772705,80.6495361 137.9457703,80.145462 
							137.7704468,79.3783875 						"/>
						<polygon class="st0" points="117.454071,120.2083817 117.6074905,121.0192795 117.7170715,121.9397659 
							117.8047333,123.210907 117.8485641,124.920372 117.9143143,129.6542816 118.0896454,134.5196991 118.5279694,140.3274994 
							119.0977936,144.9956665 119.7114487,148.4803467 120.2593536,150.9130554 120.9168396,153.1485138 121.6839142,155.1428986 
							122.2537308,156.3263702 122.8454742,157.4002686 123.5248795,158.320755 124.2261963,159.0878143 124.9932632,159.7233887 
							125.8260803,160.1836395 126.7027359,160.4466248 127.6670456,160.5562134 125.3658447,160.4904633 123.0865479,160.3151245 
							122.1441498,160.2274628 119.8867798,159.9425507 117.6294022,159.5261383 115.3720322,159.0220642 113.1584854,158.3865051 
							112.3475876,158.1235046 110.1559601,157.3783569 108.7094879,156.8085327 108.9724808,156.3263702 109.542305,155.1428986 
							110.2874603,153.1485138 110.9449463,150.9130554 111.5147705,148.4803467 112.1284256,144.9956665 112.6982422,140.3274994 
							113.1804047,133.5334625 113.3776474,124.920372 113.3995667,123.758812 113.4433975,122.6849136 113.5529785,121.4795227 
							113.6844788,120.6028671 113.8378906,119.8577194 113.9913025,119.3536453 114.1228027,118.8934021 114.2981339,118.498909 
							114.4515457,118.1482468 114.6487885,117.8633347 114.8460388,117.6441727 115.0432816,117.4688492 115.1747818,117.3811798 
							115.3939438,117.2935181 115.6131058,117.2715988 115.8322678,117.2935181 115.9856873,117.3373489 116.1171799,117.4250107 
							116.2486801,117.5126801 116.4459229,117.7099228 116.6431732,117.951004 116.8185043,118.2578278 116.9938354,118.6304092 
							117.1472473,119.046814 117.2787399,119.5070572 						"/>
						<polygon class="st0" points="117.6074905,78.9619827 117.454071,79.7728806 117.2787399,80.4961166 117.1472473,80.9563599 
							116.9938354,81.3727722 116.8185043,81.7453461 116.6431732,82.0521698 116.4459229,82.293251 116.2486801,82.4905014 
							116.1171799,82.5781631 115.9856873,82.6658249 115.8322678,82.7096634 115.6131058,82.731575 115.3939438,82.7096634 
							115.1747818,82.621994 115.0432816,82.5343323 114.8460388,82.3590012 114.6487885,82.1398392 114.4515457,81.8549271 
							114.2981339,81.5042648 114.1228027,81.1097717 113.9913025,80.6495361 113.8378906,80.145462 113.6844788,79.3783875 
							113.5529785,78.5236588 113.4433975,77.3182602 113.3995667,76.2443619 113.3776474,75.0828018 113.1804047,66.4697113 
							112.6982422,59.6756744 112.1284256,55.0075111 111.5147705,51.5228271 110.9449463,49.0901222 110.2874603,46.8546638 
							109.542305,44.8602829 108.9724808,43.6768036 108.7094879,43.1946487 110.1559601,42.6029091 112.3475876,41.879673 
							113.1584854,41.6166763 115.3720322,40.9811058 117.6294022,40.4551163 119.8867798,40.0606232 122.1441498,39.7757111 
							123.0865479,39.6880455 125.3658447,39.5127182 127.6670456,39.4469681 126.7027359,39.5565491 125.8260803,39.8195457 
							124.9932632,40.2797852 124.2261963,40.9153557 123.5248795,41.6824265 122.8454742,42.6029091 122.2537308,43.6768036 
							121.6839142,44.8602829 120.9168396,46.8546638 120.2593536,49.0901222 119.7114487,51.5228271 119.0977936,55.0075111 
							118.5279694,59.6756744 118.0896454,65.4834824 117.9143143,70.3488922 117.8485641,75.0828018 117.8047333,76.7922745 
							117.7170715,78.0634155 						"/>
						<polygon class="st0" points="102.6167679,39.5565491 101.7401199,39.8195457 100.9072952,40.2797852 100.1402283,40.9153557 
							99.4169922,41.6824265 98.7595062,42.6029091 98.1458511,43.6768036 97.5979462,44.8602829 96.8308716,46.8546638 
							96.1733856,49.0901222 95.6254807,51.5228271 95.0118256,55.0075111 94.4420013,59.6756744 94.0036774,65.4834824 
							93.8064346,70.3488922 93.7625961,75.0828018 93.7187653,76.7922745 93.6311035,78.0634155 93.4996033,78.9619827 
							93.368103,79.7728806 93.1927719,80.4961166 93.0612793,80.9563599 92.9078674,81.3727722 92.7325363,81.7453461 
							92.5572052,82.0521698 92.3599548,82.293251 92.1627121,82.4905014 92.0312119,82.5781631 91.8778,82.6658249 
							91.7462997,82.7096634 91.5271378,82.731575 91.3079758,82.7096634 91.0888138,82.621994 90.9573212,82.5343323 
							90.7381516,82.3590012 90.5628281,82.1398392 90.3655777,81.8549271 90.1902466,81.5042648 90.0368347,81.1097717 
							89.8834229,80.6495361 89.7519226,80.145462 89.5985107,79.3783875 89.4670105,78.5236588 89.3574295,77.3182602 
							89.2916794,76.2443619 89.2916794,75.0828018 89.0944366,66.4697113 88.6122742,59.6756744 88.0424576,55.0075111 
							87.4288025,51.5228271 86.8589783,49.0901222 86.2014923,46.8546638 85.456337,44.8602829 84.8865128,43.6768036 
							84.6016006,43.1946487 86.0699921,42.6029091 88.2616196,41.879673 89.0725174,41.6166763 91.2860641,40.9811058 
							93.5215225,40.4551163 95.7788925,40.0606232 98.0581818,39.7757111 99.0005875,39.6880455 101.2798767,39.5127182 
							103.559166,39.4469681 						"/>
						<polygon class="st0" points="101.2798767,160.4904633 99.0005875,160.3151245 98.0581818,160.2274628 95.7788925,159.9425507 
							93.5215225,159.5261383 91.2860641,159.0220642 89.0725174,158.3865051 88.2616196,158.1235046 86.0699921,157.3783569 
							84.6016006,156.8085327 84.8865128,156.3263702 85.456337,155.1428986 86.2014923,153.1485138 86.8589783,150.9130554 
							87.4288025,148.4803467 88.0424576,144.9956665 88.6122742,140.3274994 89.0944366,133.5334625 89.2916794,124.920372 
							89.2916794,123.758812 89.3574295,122.6849136 89.4670105,121.4795227 89.5985107,120.6028671 89.7519226,119.8577194 
							89.8834229,119.3536453 90.0368347,118.8934021 90.1902466,118.498909 90.3655777,118.1482468 90.5628281,117.8633347 
							90.7381516,117.6441727 90.9573212,117.4688492 91.0888138,117.3811798 91.3079758,117.2935181 91.5271378,117.2715988 
							91.7462997,117.2935181 91.8778,117.3373489 92.0312119,117.4250107 92.1627121,117.5126801 92.3599548,117.7099228 
							92.5572052,117.951004 92.7325363,118.2578278 92.9078674,118.6304092 93.0612793,119.046814 93.1927719,119.5070572 
							93.368103,120.2083817 93.4996033,121.0192795 93.6311035,121.9397659 93.7187653,123.210907 93.7625961,124.920372 
							93.8064346,129.6542816 94.0036774,134.5196991 94.4420013,140.3274994 95.0118256,144.9956665 95.6254807,148.4803467 
							96.1733856,150.9130554 96.8308716,153.1485138 97.5979462,155.1428986 98.1458511,156.3263702 98.7595062,157.4002686 
							99.4169922,158.320755 100.1402283,159.0878143 100.9072952,159.7233887 101.7401199,160.1836395 102.6167679,160.4466248 
							103.559166,160.5562134 						"/>
						<polygon class="st0" points="69.4355545,40.4551163 71.6929245,40.0606232 73.9722137,39.7757111 74.9146194,39.6880455 
							77.1939087,39.5127182 79.4731979,39.4469681 78.5307999,39.5565491 77.6541519,39.8195457 76.8213348,40.2797852 
							76.0542603,40.9153557 75.3310242,41.6824265 74.6735382,42.6029091 74.0598831,43.6768036 73.5119781,44.8602829 
							72.7449036,46.8546638 72.0874176,49.0901222 71.5175934,51.5228271 70.9039383,55.0075111 70.3341217,59.6756744 
							69.9177094,65.4834824 69.7204666,70.3488922 69.6766281,75.0828018 69.6327972,76.7922745 69.5232162,78.0634155 
							69.4136353,78.9619827 69.282135,79.7728806 69.1068115,80.4961166 68.9753113,80.9563599 68.7999802,81.3727722 
							68.6465683,81.7453461 68.4493179,82.0521698 68.2739868,82.293251 68.0767441,82.4905014 67.9452438,82.5781631 
							67.791832,82.6658249 67.6603317,82.7096634 67.4411697,82.731575 67.2000961,82.7096634 67.0028458,82.621994 
							66.8494339,82.5343323 66.6521912,82.3590012 66.4549408,82.1398392 66.2796097,81.8549271 66.1042786,81.5042648 
							65.9508667,81.1097717 65.7974548,80.6495361 65.6659546,80.145462 65.5125427,79.3783875 65.3810425,78.5236588 
							65.2714615,77.3182602 65.2057114,76.2443619 65.1837997,75.0828018 65.0084686,66.4697113 64.5263138,59.6756744 
							63.9564896,55.0075111 63.3428307,51.5228271 62.7730103,49.0901222 62.1155205,46.8546638 61.370369,44.8602829 
							60.8005447,43.6768036 60.5156364,43.1946487 61.984024,42.6029091 64.1537323,41.879673 64.9865494,41.6166763 
							67.2000961,40.9811058 						"/>
						<polygon class="st0" points="69.282135,120.2083817 69.4136353,121.0192795 69.5232162,121.9397659 69.6327972,123.210907 
							69.6766281,124.920372 69.7204666,129.6542816 69.9177094,134.5196991 70.3341217,140.3274994 70.9039383,144.9956665 
							71.5175934,148.4803467 72.0874176,150.9130554 72.7449036,153.1485138 73.5119781,155.1428986 74.0598831,156.3263702 
							74.6735382,157.4002686 75.3310242,158.320755 76.0542603,159.0878143 76.8213348,159.7233887 77.6541519,160.1836395 
							78.5307999,160.4466248 79.4731979,160.5562134 77.1939087,160.4904633 74.9146194,160.3151245 73.9722137,160.2274628 
							71.6929245,159.9425507 69.4355545,159.5261383 67.2000961,159.0220642 64.9865494,158.3865051 64.1537323,158.1235046 
							61.984024,157.3783569 60.5156364,156.8085327 60.8005447,156.3263702 61.370369,155.1428986 62.1155205,153.1485138 
							62.7730103,150.9130554 63.3428307,148.4803467 63.9564896,144.9956665 64.5263138,140.3274994 65.0084686,133.5334625 
							65.1837997,124.920372 65.2057114,123.758812 65.2714615,122.6849136 65.3810425,121.4795227 65.5125427,120.6028671 
							65.6659546,119.8577194 65.7974548,119.3536453 65.9508667,118.8934021 66.1042786,118.498909 66.2796097,118.1482468 
							66.4549408,117.8633347 66.6521912,117.6441727 66.8494339,117.4688492 67.0028458,117.3811798 67.2000961,117.2935181 
							67.4411697,117.2715988 67.6603317,117.2935181 67.791832,117.3373489 67.9452438,117.4250107 68.0767441,117.5126801 
							68.2739868,117.7099228 68.4493179,117.951004 68.6465683,118.2578278 68.7999802,118.6304092 68.9753113,119.046814 
							69.1068115,119.5070572 						"/>
						<polygon class="st0" points="53.1079407,39.5127182 55.3872299,39.4469681 54.4448318,39.5565491 53.5681801,39.8195457 
							52.735363,40.2797852 51.9682961,40.9153557 51.24506,41.6824265 50.5875702,42.6029091 49.9739151,43.6768036 
							49.4040909,44.8602829 48.6589394,46.8546638 48.0014534,49.0901222 47.4316292,51.5228271 46.8179741,55.0075111 
							46.2481499,59.6756744 45.8098259,65.4834824 45.6344948,70.3488922 45.5687485,75.0828018 45.5468292,76.7922745 
							45.4372482,78.0634155 45.3276672,78.9619827 45.1961708,79.7728806 45.0208397,80.4961166 44.8674278,80.9563599 
							44.7140121,81.3727722 44.5386848,81.7453461 44.3633537,82.0521698 44.1880226,82.293251 43.9907761,82.4905014 
							43.8373642,82.5781631 43.705864,82.6658249 43.5524521,82.7096634 43.3332901,82.731575 42.6977158,82.7534943 
							42.0402298,82.7973251 41.6019058,82.8630753 41.3827438,82.8849945 40.7471695,82.9945755 40.111599,83.1479874 
							39.4760284,83.3233185 38.8404579,83.5424805 38.2268028,83.7835541 37.6131439,84.0465546 37.0214081,84.3533783 
							36.4296684,84.6821213 35.8598442,85.0547028 35.3119392,85.4491959 34.7640305,85.8656006 34.2380409,86.3039246 
							33.7339668,86.786087 33.2298927,87.2682419 32.7696533,87.7942352 32.3094101,88.3421402 31.8930016,88.9119644 
							31.476593,89.481781 31.1040173,90.0954361 30.7314415,90.7310104 30.4026966,91.3665848 30.0739536,92.0240707 
							29.7890415,92.703476 29.5260468,93.4047928 29.2849674,94.1061172 29.0877209,94.8074341 28.8904743,95.5306702 
							28.7370605,96.2539062 28.6274796,96.9990616 28.5178986,97.7442169 28.4521503,98.4893646 28.4083176,99.2564392 
							28.3864002,100.0015869 28.4083176,100.7467422 28.4521503,101.5138092 28.5178986,102.2589645 28.6274796,103.0041122 
							28.7370605,103.7273483 28.8904743,104.4725037 29.0877209,105.1957397 29.2849674,105.8970642 29.5260468,106.598381 
							29.7890415,107.2997055 30.0739536,107.9791031 30.4026966,108.6365967 30.7314415,109.2721634 31.1040173,109.9077377 
							31.476593,110.4994736 31.8930016,111.091217 32.3094101,111.6610336 32.7696533,112.2089462 33.2298927,112.7349319 
							33.7339668,113.2170944 34.2380409,113.6992493 34.7640305,114.1375732 35.3119392,114.5539856 35.8598442,114.9484787 
							36.4296684,115.3210526 37.0214081,115.6497955 37.6131439,115.9566269 38.2268028,116.2196198 38.8404579,116.460701 
							39.4760284,116.679863 40.111599,116.8551941 40.7471695,117.008606 41.3827438,117.118187 41.6019058,117.1400986 
							42.0402298,117.2058487 42.6977158,117.2496796 43.3332901,117.2715988 43.5524521,117.2935181 43.705864,117.3373489 
							43.8373642,117.4250107 43.9907761,117.5126801 44.1880226,117.7099228 44.3633537,117.951004 44.5386848,118.2578278 
							44.7140121,118.6304092 44.8674278,119.046814 45.0208397,119.5070572 45.1961708,120.2083817 45.3276672,121.0192795 
							45.4372482,121.9397659 45.5468292,123.210907 45.5687485,124.920372 45.6344948,129.6542816 45.8098259,134.5196991 
							46.2481499,140.3274994 46.8179741,144.9956665 47.4316292,148.4803467 48.0014534,150.9130554 48.6589394,153.1485138 
							49.4040909,155.1428986 49.9739151,156.3263702 50.5875702,157.4002686 51.24506,158.320755 51.9682961,159.0878143 
							52.735363,159.7233887 53.5681801,160.1836395 54.4448318,160.4466248 55.3872299,160.5562134 53.1079407,160.4904633 
							50.8067322,160.3151245 49.8862495,160.2274628 47.6069603,159.9425507 45.3495865,159.5261383 43.1141281,159.0220642 
							40.9005852,158.3865051 40.0677681,158.1235046 37.898056,157.3783569 35.7283478,156.5455322 33.6243858,155.6031342 
							31.5423431,154.5292358 29.5041294,153.3676758 28.8466434,152.9731903 26.8741798,151.7239532 24.945549,150.3651428 
							23.060751,148.9186707 21.2417011,147.3845367 19.4884014,145.7408142 17.800848,144.0313568 16.1571293,142.2342224 
							15.7845526,141.7958984 14.2284985,139.9330139 12.7601089,137.9824677 11.3574686,135.9661713 10.0424929,133.9060364 
							8.7932663,131.7582397 7.6317048,129.5447083 6.5578084,127.2873306 5.5715766,124.9642029 4.6730103,122.6191635 
							3.8621087,120.2083817 3.7963598,119.9453812 3.0731232,117.5345917 2.4594681,115.1018906 1.9334779,112.625351 
							1.517069,110.1268997 1.1664089,107.6065292 0.9472463,105.0861588 0.7938325,102.5438766 0.75,100.0015869 
							0.7938325,97.4593048 0.9472463,94.9170151 1.1664089,92.3966446 1.517069,89.8762741 1.9334779,87.3778229 
							2.4594681,84.9012833 3.0731232,82.4685822 3.7963598,80.0577927 3.8621087,79.7947998 4.6730103,77.3840103 
							5.5715766,75.0170517 6.5578084,72.7158508 7.6317048,70.4584732 8.7932663,68.2449341 10.0424929,66.0971375 
							11.3574686,64.0370102 12.7601089,62.0207138 14.2284985,60.0701675 15.7845526,58.207283 16.1571293,57.768959 
							17.800848,55.9718246 19.4884014,54.2623596 21.2417011,52.6186371 23.060751,51.0844994 24.945549,49.6380272 
							26.8741798,48.2792206 28.8466434,47.0299911 29.5041294,46.6355019 31.5423431,45.473938 33.6243858,44.4000435 
							35.7283478,43.4576416 37.898056,42.6029091 40.0677681,41.879673 40.9005852,41.6166763 43.1141281,40.9811058 
							45.3495865,40.4551163 47.6069603,40.0606232 49.8862495,39.7757111 50.8067322,39.6880455 						"/>
					</g>
					<g>
						<polyline class="st1" points="151.7530212,160.5562134 149.4518127,160.4904633 147.1725159,160.3151245 
							146.2301178,160.2274628 143.9727478,159.9425507 141.7153778,159.5261383 139.4799194,159.0220642 137.2444611,158.3865051 
							136.433548,158.1235046 134.2419281,157.3783569 132.7954559,156.8085327 						"/>
						<polyline class="st1" points="79.4731979,160.5562134 77.1939087,160.4904633 74.9146194,160.3151245 73.9722137,160.2274628 
							71.6929245,159.9425507 69.4355545,159.5261383 67.2000961,159.0220642 64.9865494,158.3865051 64.1537323,158.1235046 
							61.984024,157.3783569 60.5156364,156.8085327 						"/>
						<polyline class="st1" points="127.6670456,160.5562134 125.3658447,160.4904633 123.0865479,160.3151245 
							122.1441498,160.2274628 119.8867798,159.9425507 117.6294022,159.5261383 115.3720322,159.0220642 113.1584854,158.3865051 
							112.3475876,158.1235046 110.1559601,157.3783569 108.7094879,156.8085327 						"/>
						<polyline class="st1" points="103.559166,160.5562134 101.2798767,160.4904633 99.0005875,160.3151245 
							98.0581818,160.2274628 95.7788925,159.9425507 93.5215225,159.5261383 91.2860641,159.0220642 89.0725174,158.3865051 
							88.2616196,158.1235046 86.0699921,157.3783569 84.6016006,156.8085327 						"/>
						<polyline class="st1" points="84.6016006,43.1946487 86.0699921,42.6029091 88.2616196,41.879673 89.0725174,41.6166763 
							91.2860641,40.9811058 93.5215225,40.4551163 95.7788925,40.0606232 98.0581818,39.7757111 99.0005875,39.6880455 
							101.2798767,39.5127182 103.559166,39.4469681 						"/>
						<polyline class="st1" points="108.7094879,43.1946487 110.1559601,42.6029091 112.3475876,41.879673 113.1584854,41.6166763 
							115.3720322,40.9811058 117.6294022,40.4551163 119.8867798,40.0606232 122.1441498,39.7757111 123.0865479,39.6880455 
							125.3658447,39.5127182 127.6670456,39.4469681 						"/>
						<polyline class="st1" points="132.7954559,43.1946487 134.2419281,42.6029091 136.433548,41.879673 137.2444611,41.6166763 
							139.4799194,40.9811058 141.7153778,40.4551163 143.9727478,40.0606232 146.2301178,39.7757111 147.1725159,39.6880455 
							149.4518127,39.5127182 151.7530212,39.4469681 						"/>
						<polyline class="st1" points="60.5156364,43.1946487 61.984024,42.6029091 64.1537323,41.879673 64.9865494,41.6166763 
							67.2000961,40.9811058 69.4355545,40.4551163 71.6929245,40.0606232 73.9722137,39.7757111 74.9146194,39.6880455 
							77.1939087,39.5127182 79.4731979,39.4469681 						"/>
						<polyline class="st2" points="139.2607422,85.1642838 139.6990814,85.1861954 139.9839935,85.1642838 140.2908173,85.0766144 
							140.5757294,84.9232025 140.8606415,84.7040405 141.1455536,84.4191284 141.4304657,84.0465546 141.6934509,83.6301422 
							141.9564514,83.1041565 142.197525,82.5343323 142.3947754,81.8549271 142.5920258,81.1097717 142.7673492,80.255043 
							142.9645996,78.9838943 143.0960999,77.5593414 143.1399231,76.3758621 143.16185,75.0828018 143.3371735,66.8642044 
							143.7535858,60.6619072 144.2576599,56.3224869 144.8055573,53.0350494 145.3096313,50.7338409 145.9013824,48.6079636 
							146.6026917,46.7231636 147.1286926,45.6054344 147.67659,44.59729 148.2902527,43.7425537 148.9696503,43.0412331 
							149.6928864,42.4933281 150.4599609,42.1207504 150.8763733,41.989254 151.7530212,41.9015884 152.6077576,41.989254 
							153.4186554,42.2741661 154.1638031,42.7344055 154.8651276,43.369976 155.5007019,44.1589622 156.0924377,45.0794449 
							156.6403351,46.1533432 157.1444092,47.3368187 157.8019104,49.3092842 158.3717194,51.4789925 158.9853821,54.6568489 
							159.5552063,58.9086037 160.0154419,64.2123413 160.2565308,69.450325 160.3222809,75.0828018 160.3661041,76.967598 
							160.4756927,78.3702393 160.6291046,79.6413879 160.826355,80.7591171 161.0016785,81.5480957 161.1989288,82.2494202 
							161.4400024,82.8630753 161.681076,83.4109802 161.9440765,83.8712234 162.207077,84.2657166 162.3604889,84.4191284 
							162.5577393,84.6382904 163.7850494,84.6382904 						"/>
						<polyline class="st2" points="115.1747818,85.1642838 115.6131058,85.1861954 115.8980179,85.1642838 116.2048492,85.0766144 
							116.4897614,84.9232025 116.7746658,84.7040405 117.0595779,84.4191284 117.3444901,84.0465546 117.6074905,83.6301422 
							117.8704834,83.1041565 118.0896454,82.5343323 118.3088074,81.8549271 118.5060501,81.1097717 118.6813812,80.255043 
							118.8567123,78.9838943 118.9882126,77.5593414 119.0539627,76.3758621 119.0758743,75.0828018 119.2512054,66.8642044 
							119.6676178,60.6619072 120.1716919,56.3224869 120.7195969,53.0350494 121.223671,50.7338409 121.8154068,48.6079636 
							122.5167313,46.7231636 123.0208054,45.6054344 123.5906219,44.59729 124.204277,43.7425537 124.8836823,43.0412331 
							125.6069183,42.4933281 126.3739929,42.1207504 126.7903976,41.989254 127.6670456,41.9015884 128.5217896,41.989254 
							129.3326874,42.2741661 130.0778351,42.7344055 130.7791595,43.369976 131.4147339,44.1589622 132.0064697,45.0794449 
							132.5543823,46.1533432 133.0365295,47.3368187 133.7159424,49.3092842 134.2638397,51.4789925 134.8994141,54.6568489 
							135.4692383,58.9086037 135.9294739,64.2123413 136.1705627,69.450325 136.2363129,75.0828018 136.3020477,77.1648483 
							136.4116364,78.6551514 136.5869598,79.9482117 136.740387,80.8248596 136.9376221,81.6138458 137.1348724,82.3151703 
							137.375946,82.9288254 137.6170349,83.4548111 137.8800201,83.9150543 138.1649323,84.3095474 138.4498444,84.6163788 
							138.7347565,84.8574524 139.0196686,85.0327835 139.2388306,85.1642838 						"/>
						<polyline class="st2" points="91.0888138,85.1642838 91.5271378,85.1861954 91.8120499,85.1642838 92.096962,85.0766144 
							92.4037933,84.9232025 92.6887054,84.7040405 92.9736099,84.4191284 93.258522,84.0465546 93.5215225,83.6301422 
							93.7625961,83.1041565 94.0036774,82.5343323 94.2228394,81.8549271 94.4200897,81.1097717 94.5954132,80.255043 
							94.7707443,78.9838943 94.9022446,77.5593414 94.9679947,76.3758621 94.9899063,75.0828018 95.1652374,66.8642044 
							95.5816498,60.6619072 96.0857239,56.3224869 96.6336288,53.0350494 97.1377029,50.7338409 97.7294388,48.6079636 
							98.408844,46.7231636 98.9348373,45.6054344 99.5046616,44.59729 100.1183167,43.7425537 100.7977142,43.0412331 
							101.5209503,42.4933281 102.2880249,42.1207504 102.7044296,41.989254 103.559166,41.9015884 104.4358139,41.989254 
							105.2467194,42.2741661 105.9918671,42.7344055 106.6931915,43.369976 107.3287582,44.1589622 107.9205017,45.0794449 
							108.4684067,46.1533432 108.9505615,47.3368187 109.6080551,49.3092842 110.1778793,51.4789925 110.7915344,54.6568489 
							111.3832703,58.9086037 111.8215942,64.2123413 112.0626755,69.450325 112.1503372,75.0828018 112.1941681,77.1648483 
							112.3256683,78.6551514 112.5009995,79.9482117 112.6544113,80.8248596 112.8297424,81.6138458 113.0489044,82.3151703 
							113.2899857,82.9288254 113.5310593,83.4548111 113.7940598,83.9150543 114.0570526,84.3095474 114.3419647,84.6163788 
							114.6487885,84.8574524 114.9337006,85.0327835 115.1309509,85.1642838 						"/>
						<polyline class="st2" points="67.2000961,85.1642838 67.4411697,85.1861954 67.7260818,85.1642838 68.010994,85.0766144 
							68.2959061,84.9232025 68.6027374,84.7040405 68.8876419,84.4191284 69.1506424,84.0465546 69.4355545,83.6301422 
							69.6766281,83.1041565 69.9177094,82.5343323 70.1368713,81.8549271 70.3341217,81.1097717 70.5094452,80.255043 
							70.6847763,78.9838943 70.8162766,77.5593414 70.8820267,76.3758621 70.8820267,75.0828018 71.0573578,66.8642044 
							71.4956818,60.6619072 71.9778366,56.3224869 72.5257416,53.0350494 73.0298157,50.7338409 73.6434708,48.6079636 
							74.322876,46.7231636 74.8488693,45.6054344 75.4186935,44.59729 76.0323486,43.7425537 76.6898346,43.0412331 
							77.4130707,42.4933281 78.2020569,42.1207504 78.6184616,41.989254 79.4731979,41.9015884 80.3498459,41.989254 
							81.1388321,42.2741661 81.9059067,42.7344055 82.5853043,43.369976 83.2427979,44.1589622 83.8345337,45.0794449 
							84.360527,46.1533432 84.8646011,47.3368187 85.5220871,49.3092842 86.0919113,51.4789925 86.7055664,54.6568489 
							87.2973022,58.9086037 87.7356262,64.2123413 87.9767075,69.450325 88.0643692,75.0828018 88.1082001,77.1648483 
							88.2177887,78.6551514 88.3931122,79.9482117 88.5684433,80.8248596 88.7437744,81.6138458 88.9629364,82.3151703 
							89.1820984,82.9288254 89.4450989,83.4548111 89.7080917,83.9150543 89.9710846,84.3095474 90.2559967,84.6163788 
							90.5409088,84.8574524 90.8477325,85.0327835 91.0449829,85.1642838 						"/>
						<polyline class="st2" points="44.5606003,84.6382904 44.8455124,84.3533783 45.1304207,83.9808044 45.3934174,83.5424805 
							45.6344948,83.0164871 45.875576,82.402832 46.0728226,81.7234268 46.2700691,80.9563599 46.4453964,80.1016235 
							46.5988121,78.8962326 46.7303085,77.5593414 46.7741432,76.3758621 46.7960587,75.0828018 46.971386,66.8642044 
							47.3877983,60.6619072 47.8918724,56.3224869 48.4397774,53.0350494 48.9438515,50.7338409 49.5355911,48.6079636 
							50.2369118,46.7231636 50.7629013,45.6054344 51.3327217,44.59729 51.9463768,43.7425537 52.6038666,43.0412331 
							53.3271027,42.4933281 54.1160889,42.1207504 54.510582,41.989254 55.3872299,41.9015884 56.2419662,41.989254 
							57.0528679,42.2741661 57.7980194,42.7344055 58.4993401,43.369976 59.156826,44.1589622 59.7266502,45.0794449 
							60.2745552,46.1533432 60.7786293,47.3368187 61.4361191,49.3092842 62.0059395,51.4789925 62.6195946,54.6568489 
							63.1894188,58.9086037 63.6496582,64.2123413 63.8907394,69.450325 63.978405,75.0828018 64.0222397,77.1648483 
							64.1318207,78.6551514 64.3071442,79.9482117 64.4824753,80.8248596 64.6578064,81.6138458 64.8769684,82.3151703 
							65.0961304,82.9288254 65.3591309,83.4548111 65.6221237,83.9150543 65.8851166,84.3095474 66.1700287,84.6163788 
							66.4549408,84.8574524 66.7398529,85.0327835 66.9590149,85.1642838 						"/>
						<polyline class="st2" points="41.0759163,114.9703903 40.4622574,114.9923096 39.892437,114.8388977 39.3445282,114.6416473 
							38.7966232,114.4224854 38.2487183,114.1814041 37.7227287,113.9184113 37.1967354,113.6115875 36.6926613,113.3047562 
							36.1885872,112.9540939 35.7064323,112.5815201 35.2461891,112.187027 34.7859497,111.7706223 34.3476219,111.310379 
							33.9312134,110.8501358 33.5367203,110.367981 33.1641464,109.8639069 32.7915688,109.3379135 32.4409103,108.8119202 
							32.1340828,108.2421036 31.8272533,107.6722794 31.5423431,107.0805359 31.2793465,106.4888 31.0601845,105.875145 
							30.8410225,105.2614899 30.6656914,104.6259155 30.4903622,103.9684296 30.3588638,103.3328629 30.2492828,102.6753693 
							30.1616173,101.9959641 30.0958691,101.3384781 30.0520363,100.6590729 30.0520363,100.0015869 30.0520363,99.3221817 
							30.0958691,98.6646957 30.1616173,97.9852905 30.2492828,97.3278046 30.3588638,96.6703186 30.4903622,96.0347443 
							30.6656914,95.3772583 30.8410225,94.741684 31.0601845,94.1280289 31.2793465,93.5143738 31.5423431,92.9007187 
							31.8272533,92.3308945 32.1340828,91.7610779 32.4409103,91.1912537 32.7915688,90.6433487 33.1641464,90.1392746 
							33.5367203,89.6352005 33.9312134,89.153038 34.3476219,88.6708832 34.7859497,88.2325592 35.2461891,87.8161469 
							35.7064323,87.4216537 36.1885872,87.0490799 36.6926613,86.6984177 37.1967354,86.3915939 37.7227287,86.0847626 
							38.2487183,85.8217697 38.7966232,85.5806885 39.3445282,85.3615265 39.892437,85.1642838 40.4622574,85.0108643 
							41.0759163,85.0327835 						"/>
						<polyline class="st2" points="66.9590149,114.8388977 66.7398529,114.9703903 66.4549408,115.1457214 66.1700287,115.3868027 
							65.8851166,115.6936264 65.6221237,116.0881195 65.3591309,116.5483627 65.0961304,117.0743561 64.8769684,117.6880112 
							64.6578064,118.389328 64.4824753,119.1783142 64.3071442,120.0330505 64.1318207,121.3480225 64.0222397,122.8383255 
							63.978405,124.920372 63.8907394,130.5528564 63.6496582,135.7689209 63.1894188,141.094574 62.6195946,145.3463287 
							62.0059395,148.5241852 61.4361191,150.6938934 60.7786293,152.6663513 60.2745552,153.8498383 59.7266502,154.9237366 
							59.156826,155.8442078 58.4993401,156.633194 57.7980194,157.2468567 57.0528679,157.7290039 56.2419662,158.013916 
							55.3872299,158.101593 54.510582,158.013916 54.1160889,157.882431 53.3271027,157.5098419 52.6038666,156.9619446 
							51.9463768,156.2606201 51.3327217,155.4058838 50.7629013,154.3977356 50.2369118,153.280014 49.5355911,151.373291 
							48.9438515,149.2693329 48.4397774,146.9681244 47.8918724,143.6806946 47.3877983,139.3193512 46.971386,133.1389771 
							46.7960587,124.920372 46.7741432,123.6273117 46.7303085,122.44384 46.5988121,121.1069412 46.4453964,119.9015503 
							46.2700691,119.046814 46.0728226,118.279747 45.875576,117.6003418 45.6344948,116.9866867 45.3934174,116.460701 
							45.1304207,116.0223694 44.8455124,115.6497955 44.5606003,115.3648834 						"/>
						<polyline class="st2" points="91.0449829,114.8388977 90.8477325,114.9703903 90.5409088,115.1457214 90.2559967,115.3868027 
							89.9710846,115.6936264 89.7080917,116.0881195 89.4450989,116.5483627 89.1820984,117.0743561 88.9629364,117.6880112 
							88.7437744,118.389328 88.5684433,119.1783142 88.3931122,120.0330505 88.2177887,121.3480225 88.1082001,122.8383255 
							88.0643692,124.920372 87.9767075,130.5528564 87.7356262,135.7689209 87.2973022,141.094574 86.7055664,145.3463287 
							86.0919113,148.5241852 85.5220871,150.6938934 84.8646011,152.6663513 84.360527,153.8498383 83.8345337,154.9237366 
							83.2427979,155.8442078 82.5853043,156.633194 81.9059067,157.2468567 81.1388321,157.7290039 80.3498459,158.013916 
							79.4731979,158.101593 78.6184616,158.013916 78.2020569,157.882431 77.4130707,157.5098419 76.6898346,156.9619446 
							76.0323486,156.2606201 75.4186935,155.4058838 74.8488693,154.3977356 74.322876,153.280014 73.6434708,151.373291 
							73.0298157,149.2693329 72.5257416,146.9681244 71.9778366,143.6806946 71.4956818,139.3193512 71.0573578,133.1389771 
							70.8820267,124.920372 70.8820267,123.6273117 70.8162766,122.44384 70.6847763,120.9973602 70.5094452,119.7481384 
							70.3341217,118.8934021 70.1368713,118.1482468 69.9177094,117.4688492 69.6766281,116.8771057 69.4355545,116.3730316 
							69.1506424,115.9566269 68.8876419,115.5840454 68.6027374,115.2991333 68.2959061,115.0799713 68.010994,114.9265594 
							67.7260818,114.8388977 67.4411697,114.8169785 67.2000961,114.8388977 						"/>
						<polyline class="st2" points="115.1309509,114.8388977 114.9337006,114.9703903 114.6487885,115.1457214 
							114.3419647,115.3868027 114.0570526,115.6936264 113.7940598,116.0881195 113.5310593,116.5483627 113.2899857,117.0743561 
							113.0489044,117.6880112 112.8297424,118.389328 112.6544113,119.1783142 112.5009995,120.0330505 112.3256683,121.3480225 
							112.1941681,122.8383255 112.1503372,124.920372 112.0626755,130.5528564 111.8215942,135.7689209 111.3832703,141.094574 
							110.7915344,145.3463287 110.1778793,148.5241852 109.6080551,150.6938934 108.9505615,152.6663513 108.4684067,153.8498383 
							107.9205017,154.9237366 107.3287582,155.8442078 106.6931915,156.633194 105.9918671,157.2468567 105.2467194,157.7290039 
							104.4358139,158.013916 103.559166,158.101593 102.7044296,158.013916 102.2880249,157.882431 101.5209503,157.5098419 
							100.7977142,156.9619446 100.1183167,156.2606201 99.5046616,155.4058838 98.9348373,154.3977356 98.408844,153.280014 
							97.7294388,151.373291 97.1377029,149.2693329 96.6336288,146.9681244 96.0857239,143.6806946 95.5816498,139.3193512 
							95.1652374,133.1389771 94.9899063,124.920372 94.9679947,123.6273117 94.9022446,122.44384 94.7707443,120.9973602 
							94.5954132,119.7481384 94.4200897,118.8934021 94.2228394,118.1482468 94.0036774,117.4688492 93.7625961,116.8771057 
							93.5215225,116.3730316 93.258522,115.9566269 92.9736099,115.5840454 92.6887054,115.2991333 92.4037933,115.0799713 
							92.096962,114.9265594 91.8120499,114.8388977 91.5271378,114.8169785 91.0888138,114.8388977 						"/>
						<polyline class="st2" points="139.2388306,114.8388977 139.0196686,114.9703903 138.7347565,115.1457214 
							138.4498444,115.3868027 138.1649323,115.6936264 137.8800201,116.0881195 137.6170349,116.5483627 137.375946,117.0743561 
							137.1348724,117.6880112 136.9376221,118.389328 136.740387,119.1783142 136.5869598,120.0330505 136.4116364,121.3480225 
							136.3020477,122.8383255 136.2363129,124.920372 136.1705627,130.5528564 135.9294739,135.7689209 135.4692383,141.094574 
							134.8994141,145.3463287 134.2638397,148.5241852 133.7159424,150.6938934 133.0365295,152.6663513 132.5543823,153.8498383 
							132.0064697,154.9237366 131.4147339,155.8442078 130.7791595,156.633194 130.0778351,157.2468567 129.3326874,157.7290039 
							128.5217896,158.013916 127.6670456,158.101593 126.7903976,158.013916 126.3739929,157.882431 125.6069183,157.5098419 
							124.8836823,156.9619446 124.204277,156.2606201 123.5906219,155.4058838 123.0208054,154.3977356 122.5167313,153.280014 
							121.8154068,151.373291 121.223671,149.2693329 120.7195969,146.9681244 120.1716919,143.6806946 119.6676178,139.3193512 
							119.2512054,133.1389771 119.0758743,124.920372 119.0539627,123.6273117 118.9882126,122.44384 118.8567123,120.9973602 
							118.6813812,119.7481384 118.5060501,118.8934021 118.3088074,118.1482468 118.0896454,117.4688492 117.8704834,116.8771057 
							117.6074905,116.3730316 117.3444901,115.9566269 117.0595779,115.5840454 116.7746658,115.2991333 116.4897614,115.0799713 
							116.2048492,114.9265594 115.8980179,114.8388977 115.6131058,114.8169785 115.1747818,114.8388977 						"/>
						<polyline class="st2" points="163.7850494,115.3648834 162.5577393,115.3648834 162.3604889,115.5621338 
							162.207077,115.7374649 161.9440765,116.1319504 161.681076,116.5921936 161.4400024,117.1400986 161.1989288,117.7537537 
							161.0016785,118.4550781 160.826355,119.2440643 160.6291046,120.3617935 160.4756927,121.6110153 160.3661041,123.0355759 
							160.3222809,124.920372 160.2565308,130.5528564 160.0154419,135.7689209 159.5552063,141.094574 158.9853821,145.3463287 
							158.3717194,148.5241852 157.8019104,150.6938934 157.1444092,152.6663513 156.6403351,153.8498383 156.0924377,154.9237366 
							155.5007019,155.8442078 154.8651276,156.633194 154.1638031,157.2468567 153.4186554,157.7290039 152.6077576,158.013916 
							151.7530212,158.101593 150.8763733,158.013916 150.4599609,157.882431 149.6928864,157.5098419 148.9696503,156.9619446 
							148.2902527,156.2606201 147.67659,155.4058838 147.1286926,154.3977356 146.6026917,153.280014 145.9013824,151.373291 
							145.3096313,149.2693329 144.8055573,146.9681244 144.2576599,143.6806946 143.7535858,139.3193512 143.3371735,133.1389771 
							143.16185,124.920372 143.1399231,123.6273117 143.0960999,122.44384 142.9645996,120.9973602 142.7673492,119.7481384 
							142.5920258,118.8934021 142.3947754,118.1482468 142.197525,117.4688492 141.9564514,116.8771057 141.6934509,116.3730316 
							141.4304657,115.9566269 141.1455536,115.5840454 140.8606415,115.2991333 140.5757294,115.0799713 140.2908173,114.9265594 
							139.9839935,114.8388977 139.6990814,114.8169785 139.4799194,114.8388977 						"/>
						<polyline class="st1" points="55.3872299,160.5562134 54.4448318,160.4466248 53.5681801,160.1836395 52.735363,159.7233887 
							51.9682961,159.0878143 51.24506,158.320755 50.5875702,157.4002686 49.9739151,156.3263702 49.4040909,155.1428986 
							48.6589394,153.1485138 48.0014534,150.9130554 47.4316292,148.4803467 46.8179741,144.9956665 46.2481499,140.3274994 
							45.8098259,134.5196991 45.6344948,129.6542816 45.5687485,124.920372 45.5468292,123.210907 45.4372482,121.9397659 
							45.3276672,121.0192795 45.1961708,120.2083817 45.0208397,119.5070572 44.8674278,119.046814 44.7140121,118.6304092 
							44.5386848,118.2578278 44.3633537,117.951004 44.1880226,117.7099228 43.9907761,117.5126801 43.8373642,117.4250107 
							43.705864,117.3373489 43.5524521,117.2935181 43.3332901,117.2715988 42.6977158,117.2496796 42.0402298,117.2058487 
							41.6019058,117.1400986 41.3827438,117.118187 40.7471695,117.008606 40.111599,116.8551941 39.4760284,116.679863 
							38.8404579,116.460701 38.2268028,116.2196198 37.6131439,115.9566269 37.0214081,115.6497955 36.4296684,115.3210526 
							35.8598442,114.9484787 35.3119392,114.5539856 34.7640305,114.1375732 34.2380409,113.6992493 33.7339668,113.2170944 
							33.2298927,112.7349319 32.7696533,112.2089462 32.3094101,111.6610336 31.8930016,111.091217 31.476593,110.4994736 
							31.1040173,109.9077377 30.7314415,109.2721634 30.4026966,108.6365967 30.0739536,107.9791031 29.7890415,107.2997055 
							29.5260468,106.598381 29.2849674,105.8970642 29.0877209,105.1957397 28.8904743,104.4725037 28.7370605,103.7273483 
							28.6274796,103.0041122 28.5178986,102.2589645 28.4521503,101.5138092 28.4083176,100.7467422 28.3864002,100.0015869 
							28.4083176,99.2564392 28.4521503,98.4893646 28.5178986,97.7442169 28.6274796,96.9990616 28.7370605,96.2539062 
							28.8904743,95.5306702 29.0877209,94.8074341 29.2849674,94.1061172 29.5260468,93.4047928 29.7890415,92.703476 
							30.0739536,92.0240707 30.4026966,91.3665848 30.7314415,90.7310104 31.1040173,90.0954361 31.476593,89.481781 
							31.8930016,88.9119644 32.3094101,88.3421402 32.7696533,87.7942352 33.2298927,87.2682419 33.7339668,86.786087 
							34.2380409,86.3039246 34.7640305,85.8656006 35.3119392,85.4491959 35.8598442,85.0547028 36.4296684,84.6821213 
							37.0214081,84.3533783 37.6131439,84.0465546 38.2268028,83.7835541 38.8404579,83.5424805 39.4760284,83.3233185 
							40.111599,83.1479874 40.7471695,82.9945755 41.3827438,82.8849945 41.6019058,82.8630753 42.0402298,82.7973251 
							42.6977158,82.7534943 43.3332901,82.731575 						"/>
						<polyline class="st2" points="31.6957569,96.1881561 31.7176723,96.0347443 31.8272533,95.5964203 31.8710861,95.3772583 
							31.9149189,95.2895966 						"/>
						<polyline class="st2" points="31.586174,103.3328629 31.5642586,103.2232819 31.476593,102.6753693 31.4546776,102.6096191 
							31.3889294,101.9959641 31.367012,101.9740524 31.3231792,101.3384781 31.3231792,101.3165665 31.2793465,100.6590729 
							31.257431,100.0015869 31.2793465,99.3221817 31.3231792,98.686615 31.3231792,98.6646957 31.367012,98.0291214 
							31.3889294,97.9852905 31.4546776,97.3935547 31.476593,97.3278046 31.5642586,96.7798996 31.586174,96.6703186 						"/>
						<polyline class="st2" points="31.9806671,104.9546661 31.8710861,104.6259155 31.8272533,104.4067535 31.7176723,103.9684296 
							31.6957569,103.8150177 						"/>
						<polyline class="st1" points="162.5577393,84.6382904 161.987915,84.6602097 161.4180908,84.7040405 160.826355,84.7697906 
							160.300354,85.0327835 159.7962799,85.3615265 159.2483826,85.5806885 158.70047,85.8217697 158.1744843,86.0847626 
							157.6484833,86.3915939 157.1444092,86.6984177 156.6403351,87.0490799 156.1581879,87.4216537 155.697937,87.8161469 
							155.2377014,88.2325592 154.7993774,88.6708832 154.3829651,89.153038 153.9884796,89.6352005 153.6159058,90.1392746 
							153.2433167,90.6433487 152.8926697,91.1912537 152.5858307,91.7610779 152.279007,92.3308945 151.9940948,92.9007187 
							151.7310944,93.5143738 151.5119324,94.1280289 151.2927704,94.741684 151.1174469,95.3772583 150.9421082,96.0347443 
							150.8106232,96.6703186 150.7010345,97.3278046 150.6133728,97.9852905 150.5476227,98.6646957 150.5037842,99.3221817 
							150.5037842,100.0015869 150.5037842,100.6590729 150.5476227,101.3384781 150.6133728,101.9959641 150.7010345,102.6753693 
							150.8106232,103.3328629 150.9421082,103.9684296 151.1174469,104.6259155 151.2927704,105.2614899 151.5119324,105.875145 
							151.7310944,106.4888 151.9940948,107.0805359 152.279007,107.6722794 152.5858307,108.2421036 152.8926697,108.8119202 
							153.2433167,109.3379135 153.6159058,109.8639069 153.9884796,110.367981 154.3829651,110.8501358 154.7993774,111.310379 
							155.2377014,111.7706223 155.697937,112.187027 156.1581879,112.5815201 156.6403351,112.9540939 157.1444092,113.3047562 
							157.6484833,113.6115875 158.1744843,113.9184113 158.70047,114.1814041 159.2483826,114.4224854 159.7962799,114.6416473 
							160.300354,114.9703903 160.826355,115.2333908 161.4180908,115.2991333 161.987915,115.3429718 162.5577393,115.3648834 
													"/>
						<polyline class="st2" points="160.300354,85.0327835 159.6867065,85.0108643 159.1387939,85.1642838 158.5689697,85.3615265 
							158.0210724,85.5806885 157.4731598,85.8217697 156.9471741,86.0847626 156.4211731,86.3915939 155.917099,86.6984177 
							155.4349518,87.0490799 154.9308777,87.4216537 154.4706268,87.8161469 154.0323029,88.2325592 153.5939789,88.6708832 
							153.1556549,89.153038 152.7611694,89.6352005 152.3885956,90.1392746 152.0160065,90.6433487 151.6872711,91.1912537 
							151.3585205,91.7610779 151.0516968,92.3308945 150.7667847,92.9007187 150.5257111,93.5143738 150.2846222,94.1280289 
							150.0654602,94.741684 149.8901367,95.3772583 149.714798,96.0347443 149.583313,96.6703186 149.4737244,97.3278046 
							149.3860626,97.9852905 149.3203125,98.6646957 149.276474,99.3221817 149.276474,100.0015869 149.276474,100.6590729 
							149.3203125,101.3384781 149.3860626,101.9959641 149.4737244,102.6753693 149.583313,103.3328629 149.714798,103.9684296 
							149.8901367,104.6259155 150.0654602,105.2614899 150.2846222,105.875145 150.5257111,106.4888 150.7667847,107.0805359 
							151.0516968,107.6722794 151.3585205,108.2421036 151.6872711,108.8119202 152.0160065,109.3379135 152.3885956,109.8639069 
							152.7611694,110.367981 153.1556549,110.8501358 153.5939789,111.310379 154.0323029,111.7706223 154.4706268,112.187027 
							154.9308777,112.5815201 155.4349518,112.9540939 155.917099,113.3047562 156.4211731,113.6115875 156.9471741,113.9184113 
							157.4731598,114.1814041 158.0210724,114.4224854 158.5689697,114.6416473 159.1387939,114.8388977 159.6867065,114.9923096 
							160.300354,114.9703903 						"/>
						<polyline class="st2" points="44.5606003,115.3648834 43.9907761,115.3429718 43.377121,115.3210526 42.7634659,115.3429718 
							42.1717262,115.2991333 41.6019058,115.2333908 41.0759163,114.9703903 40.5718422,114.6416473 40.0239334,114.4224854 
							39.4760284,114.1814041 38.9500389,113.9184113 38.4240456,113.6115875 37.9199715,113.3047562 37.4159012,112.9540939 
							36.9337425,112.5815201 36.4734993,112.187027 36.0132599,111.7706223 35.5749321,111.310379 35.1585236,110.8501358 
							34.7640305,110.367981 34.3695412,109.8639069 34.0188789,109.3379135 33.6682205,108.8119202 33.3394737,108.2421036 
							33.0545654,107.6722794 32.7696533,107.0805359 32.5066566,106.4888 32.3313293,106.0066452 32.3313293,105.984726 
							32.2874947,105.875145 32.1559982,105.4806519 32.0902481,105.3053207 31.9806671,104.9546661 31.9149189,104.7135849 
							31.7615051,104.0560989 31.6957569,103.8150177 31.6080914,103.3986053 31.586174,103.3328629 31.4985104,102.7192078 
							31.4108448,102.0398026 31.3450966,101.3603973 31.3012638,100.6809921 31.3012638,100.0015869 31.3012638,99.3221817 
							31.3450966,98.6427765 31.4108448,97.9633789 31.4985104,97.2839737 31.586174,96.6703186 31.6080914,96.6045685 
							31.6957569,96.1881561 31.7615051,95.9470825 31.9149189,95.2895966 32.0902481,94.6978531 32.1559982,94.5006104 
							32.2874947,94.1280289 32.3313293,94.0184479 32.3313293,93.9965363 32.5066566,93.5143738 32.7696533,92.9007187 
							33.0545654,92.3308945 33.3394737,91.7610779 33.6682205,91.1912537 34.0188789,90.6433487 34.3695412,90.1392746 
							34.7640305,89.6352005 35.1585236,89.153038 35.5749321,88.6708832 36.0132599,88.2325592 36.4734993,87.8161469 
							36.9337425,87.4216537 37.4159012,87.0490799 37.9199715,86.6984177 38.4240456,86.3915939 38.9500389,86.0847626 
							39.4760284,85.8217697 40.0239334,85.5806885 40.5718422,85.3615265 41.0759163,85.0327835 41.6019058,84.7697906 
							42.1717262,84.7040405 42.7634659,84.6602097 43.377121,84.6821213 43.9907761,84.6602097 44.5606003,84.6382904 						"/>
						<polyline class="st1" points="55.3872299,39.4469681 53.1079407,39.5127182 50.8067322,39.6880455 49.8862495,39.7757111 
							47.6069603,40.0606232 45.3495865,40.4551163 43.1141281,40.9811058 40.9005852,41.6166763 40.0677681,41.879673 
							37.898056,42.6029091 35.7283478,43.4576416 33.6243858,44.4000435 31.5423431,45.473938 29.5041294,46.6355019 
							28.8466434,47.0299911 26.8741798,48.2792206 24.945549,49.6380272 23.060751,51.0844994 21.2417011,52.6186371 
							19.4884014,54.2623596 17.800848,55.9718246 16.1571293,57.768959 15.7845526,58.207283 14.2284985,60.0701675 
							12.7601089,62.0207138 11.3574686,64.0370102 10.0424929,66.0971375 8.7932663,68.2449341 7.6317048,70.4584732 
							6.5578084,72.7158508 5.5715766,75.0170517 4.6730103,77.3840103 3.8621087,79.7947998 3.7963598,80.0577927 
							3.0731232,82.4685822 2.4594681,84.9012833 1.9334779,87.3778229 1.517069,89.8762741 1.1664089,92.3966446 
							0.9472463,94.9170151 0.7938325,97.4593048 0.75,100.0015869 0.7938325,102.5438766 0.9472463,105.0861588 
							1.1664089,107.6065292 1.517069,110.1268997 1.9334779,112.625351 2.4594681,115.1018906 3.0731232,117.5345917 
							3.7963598,119.9453812 3.8621087,120.2083817 4.6730103,122.6191635 5.5715766,124.9642029 6.5578084,127.2873306 
							7.6317048,129.5447083 8.7932663,131.7582397 10.0424929,133.9060364 11.3574686,135.9661713 12.7601089,137.9824677 
							14.2284985,139.9330139 15.7845526,141.7958984 16.1571293,142.2342224 17.800848,144.0313568 19.4884014,145.7408142 
							21.2417011,147.3845367 23.060751,148.9186707 24.945549,150.3651428 26.8741798,151.7239532 28.8466434,152.9731903 
							29.5041294,153.3676758 31.5423431,154.5292358 33.6243858,155.6031342 35.7283478,156.5455322 37.898056,157.3783569 
							40.0677681,158.1235046 40.9005852,158.3865051 43.1141281,159.0220642 45.3495865,159.5261383 47.6069603,159.9425507 
							49.8862495,160.2274628 50.8067322,160.3151245 53.1079407,160.4904633 55.3872299,160.5562134 56.3296318,160.4466248 
							57.2062798,160.1836395 58.0390968,159.7233887 58.8061676,159.0878143 59.5294037,158.320755 60.1868896,157.4002686 
							60.5156364,156.8085327 60.8005447,156.3263702 61.370369,155.1428986 62.1155205,153.1485138 62.7730103,150.9130554 
							63.3428307,148.4803467 63.9564896,144.9956665 64.5263138,140.3274994 65.0084686,133.5334625 65.1837997,124.920372 
							65.2057114,123.758812 65.2714615,122.6849136 65.3810425,121.4795227 65.5125427,120.6028671 65.6659546,119.8577194 
							65.7974548,119.3536453 65.9508667,118.8934021 66.1042786,118.498909 66.2796097,118.1482468 66.4549408,117.8633347 
							66.6521912,117.6441727 66.8494339,117.4688492 67.0028458,117.3811798 67.2000961,117.2935181 67.4411697,117.2715988 
							67.6603317,117.2935181 67.791832,117.3373489 67.9452438,117.4250107 68.0767441,117.5126801 68.2739868,117.7099228 
							68.4493179,117.951004 68.6465683,118.2578278 68.7999802,118.6304092 68.9753113,119.046814 69.1068115,119.5070572 
							69.282135,120.2083817 69.4136353,121.0192795 69.5232162,121.9397659 69.6327972,123.210907 69.6766281,124.920372 
							69.7204666,129.6542816 69.9177094,134.5196991 70.3341217,140.3274994 70.9039383,144.9956665 71.5175934,148.4803467 
							72.0874176,150.9130554 72.7449036,153.1485138 73.5119781,155.1428986 74.0598831,156.3263702 74.6735382,157.4002686 
							75.3310242,158.320755 76.0542603,159.0878143 76.8213348,159.7233887 77.6541519,160.1836395 78.5307999,160.4466248 
							79.4731979,160.5562134 80.415596,160.4466248 81.3141632,160.1836395 82.1250687,159.7233887 82.8921356,159.0878143 
							83.6153717,158.320755 84.2728577,157.4002686 84.6016006,156.8085327 84.8865128,156.3263702 85.456337,155.1428986 
							86.2014923,153.1485138 86.8589783,150.9130554 87.4288025,148.4803467 88.0424576,144.9956665 88.6122742,140.3274994 
							89.0944366,133.5334625 89.2916794,124.920372 89.2916794,123.758812 89.3574295,122.6849136 89.4670105,121.4795227 
							89.5985107,120.6028671 89.7519226,119.8577194 89.8834229,119.3536453 90.0368347,118.8934021 90.1902466,118.498909 
							90.3655777,118.1482468 90.5628281,117.8633347 90.7381516,117.6441727 90.9573212,117.4688492 91.0888138,117.3811798 
							91.3079758,117.2935181 91.5271378,117.2715988 91.7462997,117.2935181 91.8778,117.3373489 92.0312119,117.4250107 
							92.1627121,117.5126801 92.3599548,117.7099228 92.5572052,117.951004 92.7325363,118.2578278 92.9078674,118.6304092 
							93.0612793,119.046814 93.1927719,119.5070572 93.368103,120.2083817 93.4996033,121.0192795 93.6311035,121.9397659 
							93.7187653,123.210907 93.7625961,124.920372 93.8064346,129.6542816 94.0036774,134.5196991 94.4420013,140.3274994 
							95.0118256,144.9956665 95.6254807,148.4803467 96.1733856,150.9130554 96.8308716,153.1485138 97.5979462,155.1428986 
							98.1458511,156.3263702 98.7595062,157.4002686 99.4169922,158.320755 100.1402283,159.0878143 100.9072952,159.7233887 
							101.7401199,160.1836395 102.6167679,160.4466248 103.559166,160.5562134 104.501564,160.4466248 105.4001312,160.1836395 
							106.2110291,159.7233887 107.0000153,159.0878143 107.7013397,158.320755 108.3588257,157.4002686 108.7094879,156.8085327 
							108.9724808,156.3263702 109.542305,155.1428986 110.2874603,153.1485138 110.9449463,150.9130554 111.5147705,148.4803467 
							112.1284256,144.9956665 112.6982422,140.3274994 113.1804047,133.5334625 113.3776474,124.920372 113.3995667,123.758812 
							113.4433975,122.6849136 113.5529785,121.4795227 113.6844788,120.6028671 113.8378906,119.8577194 113.9913025,119.3536453 
							114.1228027,118.8934021 114.2981339,118.498909 114.4515457,118.1482468 114.6487885,117.8633347 114.8460388,117.6441727 
							115.0432816,117.4688492 115.1747818,117.3811798 115.3939438,117.2935181 115.6131058,117.2715988 115.8322678,117.2935181 
							115.9856873,117.3373489 116.1171799,117.4250107 116.2486801,117.5126801 116.4459229,117.7099228 116.6431732,117.951004 
							116.8185043,118.2578278 116.9938354,118.6304092 117.1472473,119.046814 117.2787399,119.5070572 117.454071,120.2083817 
							117.6074905,121.0192795 117.7170715,121.9397659 117.8047333,123.210907 117.8485641,124.920372 117.9143143,129.6542816 
							118.0896454,134.5196991 118.5279694,140.3274994 119.0977936,144.9956665 119.7114487,148.4803467 120.2593536,150.9130554 
							120.9168396,153.1485138 121.6839142,155.1428986 122.2537308,156.3263702 122.8454742,157.4002686 123.5248795,158.320755 
							124.2261963,159.0878143 124.9932632,159.7233887 125.8260803,160.1836395 126.7027359,160.4466248 127.6670456,160.5562134 
							128.6094513,160.4466248 129.4860992,160.1836395 130.318924,159.7233887 131.0859833,159.0878143 131.7873077,158.320755 
							132.4667053,157.4002686 132.7954559,156.8085327 133.0584412,156.3263702 133.6282654,155.1428986 134.39534,153.1485138 
							135.0528259,150.9130554 135.6007385,148.4803467 136.214386,144.9956665 136.7842102,140.3274994 137.2663727,133.5334625 
							137.463623,124.920372 137.4855347,123.758812 137.5293579,122.6849136 137.6608582,121.4795227 137.7704468,120.6028671 
							137.9457703,119.8577194 138.0772705,119.3536453 138.2087708,118.8934021 138.3840942,118.498909 138.559433,118.1482468 
							138.7347565,117.8633347 138.9320068,117.6441727 139.1292572,117.4688492 139.2607422,117.3811798 139.4799194,117.2935181 
							139.6990814,117.2715988 139.9182434,117.2935181 140.0716553,117.3373489 140.2031555,117.4250107 140.3346405,117.5126801 
							140.5318909,117.7099228 140.7291412,117.951004 140.9044647,118.2578278 141.0798035,118.6304092 141.2332153,119.046814 
							141.3866272,119.5070572 141.5400391,120.2083817 141.6934509,121.0192795 141.8030396,121.9397659 141.8907013,123.210907 
							141.9345398,124.920372 142.0002747,129.6542816 142.1756134,134.5196991 142.6139374,140.3274994 143.1837616,144.9956665 
							143.7974091,148.4803467 144.3672333,150.9130554 145.0247192,153.1485138 145.7698822,155.1428986 146.3397064,156.3263702 
							146.9533539,157.4002686 147.6108398,158.320755 148.3340759,159.0878143 149.1011505,159.7233887 149.9120483,160.1836395 
							150.8106232,160.4466248 151.7530212,160.5562134 152.6954193,160.4466248 153.5720673,160.1836395 154.4048767,159.7233887 
							155.1719513,159.0878143 155.8951874,158.320755 156.5526733,157.4002686 157.1663361,156.3263702 157.7142334,155.1428986 
							158.481308,153.1485138 159.1387939,150.9130554 159.6867065,148.4803467 160.300354,144.9956665 160.8701782,140.3274994 
							161.3523407,133.5334625 161.5495911,124.920372 161.5715027,123.758812 161.6372528,122.6849136 161.7468262,121.4795227 
							161.8783264,120.6028671 162.0317383,119.8577194 162.1632385,119.3536453 162.3166504,118.8934021 162.4700623,118.498909 
							162.645401,118.1482468 162.8207245,117.8633347 163.0179749,117.6441727 163.2152252,117.4688492 163.3467102,117.3811798 
							163.5658722,117.2935181 163.7850494,117.2715988 						"/>
						<line class="st1" x1="108.7094879" y1="43.1946487" x2="108.4026566" y2="42.6686592"/>
						<polyline class="st2" points="67.4411697,114.8169785 67.243927,114.8388977 67.2000961,114.8388977 66.9590149,114.8388977 
							66.4549408,114.7731476 66.0385284,114.7293167 65.4906235,114.6197357 64.9427185,114.4882355 64.5043945,114.3786545 
							64.1318207,114.2471542 63.5839119,114.0279922 63.0579224,113.786911 62.5538483,113.5458374 62.2470207,113.348587 
							61.7648621,113.0636749 61.2827034,112.7130203 60.822464,112.3623581 60.3622208,111.967865 59.9677277,111.6172028 
							59.9019814,111.5514526 59.6389847,111.2884598 59.2225761,110.8282166 58.828083,110.3460617 58.4555054,109.8419876 
							58.0829315,109.3159943 57.7322693,108.7680893 57.4254417,108.2201843 57.1624489,107.7161102 56.8994522,107.1901245 
							56.6364594,106.598381 56.4172935,105.9628067 56.1981316,105.32724 56.000885,104.6916656 55.8474731,104.0341797 
							55.6940575,103.3766937 55.5844765,102.6972885 55.4968109,102.0398026 55.4310646,101.3603973 55.3872299,100.6809921 
							55.3872299,100.0015869 55.3872299,99.3221817 55.4310646,98.6427765 55.4968109,97.9633789 55.5844765,97.2839737 
							55.6940575,96.6264877 55.8474731,95.9689941 56.000885,95.3115082 56.1981316,94.6759338 56.4172935,94.0403671 
							56.6364594,93.4047928 56.8994522,92.7911377 57.1624489,92.2870636 57.4254417,91.7829895 57.7322693,91.2131653 
							58.0829315,90.6871796 58.4555054,90.1611862 58.828083,89.6571121 59.2225761,89.1749573 59.6389847,88.7147141 
							59.9019814,88.4517212 59.9677277,88.3859711 60.3622208,88.0353088 60.822464,87.6408157 61.2827034,87.2682419 
							61.7648621,86.9394989 62.2470207,86.6326675 62.5538483,86.4573441 63.0579224,86.1943436 63.5839119,85.9751816 
							64.1318207,85.7560196 64.5043945,85.6245193 64.9427185,85.5149384 65.4906235,85.3834457 66.0385284,85.2738647 
							66.4549408,85.2300339 66.9590149,85.1642838 67.2000961,85.1642838 67.243927,85.1642838 67.4411697,85.1861954 						"/>
						<polyline class="st2" points="115.6131058,114.8169785 115.415863,114.8388977 115.1747818,114.8388977 
							115.1309509,114.8388977 114.6487885,114.7731476 114.2323837,114.7293167 113.6625595,114.6197357 113.1146545,114.4882355 
							112.6763306,114.3786545 112.3037491,114.2471542 111.7777634,114.0279922 111.25177,113.786911 110.7257843,113.5458374 
							110.4189529,113.348587 109.9587097,113.0636749 109.4765549,112.7130203 108.9944,112.3623581 108.5341568,111.967865 
							108.1396637,111.6172028 108.0958328,111.5514526 107.8328323,111.2884598 107.4164276,110.8282166 107.0000153,110.3460617 
							106.6274414,109.8419876 106.2548676,109.3159943 105.9261246,108.7680893 105.597374,108.2201843 105.3343811,107.7161102 
							105.0933075,107.1901245 104.830307,106.598381 104.5892334,105.9628067 104.3700638,105.32724 104.1947403,104.6916656 
							104.0194092,104.0341797 103.8879089,103.3766937 103.7783279,102.6972885 103.6687469,102.0398026 103.6029968,101.3603973 
							103.5810852,100.6809921 103.559166,100.0015869 103.5810852,99.3221817 103.6029968,98.6427765 103.6687469,97.9633789 
							103.7783279,97.2839737 103.8879089,96.6264877 104.0194092,95.9689941 104.1947403,95.3115082 104.3700638,94.6759338 
							104.5892334,94.0403671 104.830307,93.4047928 105.0933075,92.7911377 105.3343811,92.2870636 105.597374,91.7829895 
							105.9261246,91.2131653 106.2548676,90.6871796 106.6274414,90.1611862 107.0000153,89.6571121 107.4164276,89.1749573 
							107.8328323,88.7147141 108.0958328,88.4517212 108.1396637,88.3859711 108.5341568,88.0353088 108.9944,87.6408157 
							109.4765549,87.2682419 109.9587097,86.9394989 110.4189529,86.6326675 110.7257843,86.4573441 111.25177,86.1943436 
							111.7777634,85.9751816 112.3037491,85.7560196 112.6763306,85.6245193 113.1146545,85.5149384 113.6625595,85.3834457 
							114.2323837,85.2738647 114.6487885,85.2300339 115.1309509,85.1642838 115.1747818,85.1642838 115.415863,85.1642838 
							115.6131058,85.1861954 						"/>
						<polyline class="st2" points="91.5271378,114.8169785 91.329895,114.8388977 91.0888138,114.8388977 91.0449829,114.8388977 
							90.5409088,114.7731476 90.1244965,114.7293167 89.5765915,114.6197357 89.0286865,114.4882355 88.5903625,114.3786545 
							88.2177887,114.2471542 87.6698761,114.0279922 87.1438904,113.786911 86.6398163,113.5458374 86.3329849,113.348587 
							85.8727493,113.0636749 85.3686752,112.7130203 84.908432,112.3623581 84.4481888,111.967865 84.0536957,111.6172028 
							84.0098648,111.5514526 83.7249527,111.2884598 83.3085403,110.8282166 82.9140472,110.3460617 82.5414734,109.8419876 
							82.1688995,109.3159943 81.8401566,108.7680893 81.5114136,108.2201843 81.2484131,107.7161102 81.0073395,107.1901245 
							80.744339,106.598381 80.5032654,105.9628067 80.2841034,105.32724 80.086853,104.6916656 79.9334412,104.0341797 
							79.8019409,103.3766937 79.6704483,102.6972885 79.5827789,102.0398026 79.5170288,101.3603973 79.4951172,100.6809921 
							79.4731979,100.0015869 79.4951172,99.3221817 79.5170288,98.6427765 79.5827789,97.9633789 79.6704483,97.2839737 
							79.8019409,96.6264877 79.9334412,95.9689941 80.086853,95.3115082 80.2841034,94.6759338 80.5032654,94.0403671 
							80.744339,93.4047928 81.0073395,92.7911377 81.2484131,92.2870636 81.5114136,91.7829895 81.8401566,91.2131653 
							82.1688995,90.6871796 82.5414734,90.1611862 82.9140472,89.6571121 83.3085403,89.1749573 83.7249527,88.7147141 
							84.0098648,88.4517212 84.0536957,88.3859711 84.4481888,88.0353088 84.908432,87.6408157 85.3686752,87.2682419 
							85.8727493,86.9394989 86.3329849,86.6326675 86.6398163,86.4573441 87.1438904,86.1943436 87.6698761,85.9751816 
							88.2177887,85.7560196 88.5903625,85.6245193 89.0286865,85.5149384 89.5765915,85.3834457 90.1244965,85.2738647 
							90.5409088,85.2300339 91.0449829,85.1642838 91.0888138,85.1642838 91.329895,85.1642838 91.5271378,85.1861954 						"/>
						<polyline class="st2" points="139.6990814,85.1861954 139.5018311,85.1642838 139.2607422,85.1642838 139.2388306,85.1642838 
							138.7347565,85.2300339 138.3183441,85.2738647 137.7485352,85.3834457 137.2006226,85.5149384 136.7622986,85.6245193 
							136.3897247,85.7560196 135.8637238,85.9751816 135.337738,86.1943436 134.8117523,86.4573441 134.5049286,86.6326675 
							134.0446777,86.9394989 133.5625153,87.2682419 133.080368,87.6408157 132.6201172,88.0353088 132.2475433,88.3859711 
							132.1817932,88.4517212 131.918808,88.7147141 131.5023956,89.1749573 131.1078949,89.6571121 130.7134094,90.1611862 
							130.3627472,90.6871796 130.012085,91.2131653 129.6833496,91.7829895 129.4203491,92.2870636 129.1792755,92.7911377 
							128.916275,93.4047928 128.6752014,94.0403671 128.477951,94.6759338 128.2807007,95.3115082 128.1053772,95.9689941 
							127.973877,96.6264877 127.864296,97.2839737 127.7766342,97.9633789 127.7108841,98.6427765 127.6670456,99.3221817 
							127.645134,100.0015869 127.6670456,100.6809921 127.7108841,101.3603973 127.7766342,102.0398026 127.864296,102.6972885 
							127.973877,103.3766937 128.1053772,104.0341797 128.2807007,104.6916656 128.477951,105.32724 128.6752014,105.9628067 
							128.916275,106.598381 129.1792755,107.1901245 129.4203491,107.7161102 129.6833496,108.2201843 130.012085,108.7680893 
							130.3627472,109.3159943 130.7134094,109.8419876 131.1078949,110.3460617 131.5023956,110.8282166 131.918808,111.2884598 
							132.1817932,111.5514526 132.2475433,111.6172028 132.6201172,111.967865 133.080368,112.3623581 133.5625153,112.7130203 
							134.0446777,113.0636749 134.5049286,113.348587 134.8117523,113.5458374 135.337738,113.786911 135.8637238,114.0279922 
							136.3897247,114.2471542 136.7622986,114.3786545 137.2006226,114.4882355 137.7485352,114.6197357 138.3183441,114.7293167 
							138.7347565,114.7731476 139.2388306,114.8388977 139.4799194,114.8388977 139.5018311,114.8388977 139.6990814,114.8169785 
													"/>
						<polyline class="st1" points="43.3332901,82.731575 43.5524521,82.7096634 43.705864,82.6658249 43.8373642,82.5781631 
							43.9907761,82.4905014 44.1880226,82.293251 44.3633537,82.0521698 44.5386848,81.7453461 44.7140121,81.3727722 
							44.8674278,80.9563599 45.0208397,80.4961166 45.1961708,79.7728806 45.3276672,78.9619827 45.4372482,78.0634155 
							45.5468292,76.7922745 45.5687485,75.0828018 45.6344948,70.3488922 45.8098259,65.4834824 46.2481499,59.6756744 
							46.8179741,55.0075111 47.4316292,51.5228271 48.0014534,49.0901222 48.6589394,46.8546638 49.4040909,44.8602829 
							49.9739151,43.6768036 50.5875702,42.6029091 51.24506,41.6824265 51.9682961,40.9153557 52.735363,40.2797852 
							53.5681801,39.8195457 54.4448318,39.5565491 55.3872299,39.4469681 56.3296318,39.5565491 57.2062798,39.8195457 
							58.0390968,40.2797852 58.8061676,40.9153557 59.5294037,41.6824265 60.1868896,42.6029091 60.5156364,43.1946487 
							60.8005447,43.6768036 61.370369,44.8602829 62.1155205,46.8546638 62.7730103,49.0901222 63.3428307,51.5228271 
							63.9564896,55.0075111 64.5263138,59.6756744 65.0084686,66.4697113 65.1837997,75.0828018 65.2057114,76.2443619 
							65.2714615,77.3182602 65.3810425,78.5236588 65.5125427,79.3783875 65.6659546,80.145462 65.7974548,80.6495361 
							65.9508667,81.1097717 66.1042786,81.5042648 66.2796097,81.8549271 66.4549408,82.1398392 66.6521912,82.3590012 
							66.8494339,82.5343323 67.0028458,82.621994 67.2000961,82.7096634 67.4411697,82.731575 67.6603317,82.7096634 
							67.791832,82.6658249 67.9452438,82.5781631 68.0767441,82.4905014 68.2739868,82.293251 68.4493179,82.0521698 
							68.6465683,81.7453461 68.7999802,81.3727722 68.9753113,80.9563599 69.1068115,80.4961166 69.282135,79.7728806 
							69.4136353,78.9619827 69.5232162,78.0634155 69.6327972,76.7922745 69.6766281,75.0828018 69.7204666,70.3488922 
							69.9177094,65.4834824 70.3341217,59.6756744 70.9039383,55.0075111 71.5175934,51.5228271 72.0874176,49.0901222 
							72.7449036,46.8546638 73.5119781,44.8602829 74.0598831,43.6768036 74.6735382,42.6029091 75.3310242,41.6824265 
							76.0542603,40.9153557 76.8213348,40.2797852 77.6541519,39.8195457 78.5307999,39.5565491 79.4731979,39.4469681 
							80.415596,39.5565491 81.3141632,39.8195457 82.1250687,40.2797852 82.8921356,40.9153557 83.6153717,41.6824265 
							84.2728577,42.6029091 84.6016006,43.1946487 84.8865128,43.6768036 85.456337,44.8602829 86.2014923,46.8546638 
							86.8589783,49.0901222 87.4288025,51.5228271 88.0424576,55.0075111 88.6122742,59.6756744 89.0944366,66.4697113 
							89.2916794,75.0828018 89.2916794,76.2443619 89.3574295,77.3182602 89.4670105,78.5236588 89.5985107,79.3783875 
							89.7519226,80.145462 89.8834229,80.6495361 90.0368347,81.1097717 90.1902466,81.5042648 90.3655777,81.8549271 
							90.5628281,82.1398392 90.7381516,82.3590012 90.9573212,82.5343323 91.0888138,82.621994 91.3079758,82.7096634 
							91.5271378,82.731575 91.7462997,82.7096634 91.8778,82.6658249 92.0312119,82.5781631 92.1627121,82.4905014 
							92.3599548,82.293251 92.5572052,82.0521698 92.7325363,81.7453461 92.9078674,81.3727722 93.0612793,80.9563599 
							93.1927719,80.4961166 93.368103,79.7728806 93.4996033,78.9619827 93.6311035,78.0634155 93.7187653,76.7922745 
							93.7625961,75.0828018 93.8064346,70.3488922 94.0036774,65.4834824 94.4420013,59.6756744 95.0118256,55.0075111 
							95.6254807,51.5228271 96.1733856,49.0901222 96.8308716,46.8546638 97.5979462,44.8602829 98.1458511,43.6768036 
							98.7595062,42.6029091 99.4169922,41.6824265 100.1402283,40.9153557 100.9072952,40.2797852 101.7401199,39.8195457 
							102.6167679,39.5565491 103.559166,39.4469681 104.501564,39.5565491 105.4001312,39.8195457 106.2110291,40.2797852 
							107.0000153,40.9153557 107.7013397,41.6824265 108.3588257,42.6029091 108.4026566,42.6686592 108.7094879,43.1946487 
							108.9724808,43.6768036 109.542305,44.8602829 110.2874603,46.8546638 110.9449463,49.0901222 111.5147705,51.5228271 
							112.1284256,55.0075111 112.6982422,59.6756744 113.1804047,66.4697113 113.3776474,75.0828018 113.3995667,76.2443619 
							113.4433975,77.3182602 113.5529785,78.5236588 113.6844788,79.3783875 113.8378906,80.145462 113.9913025,80.6495361 
							114.1228027,81.1097717 114.2981339,81.5042648 114.4515457,81.8549271 114.6487885,82.1398392 114.8460388,82.3590012 
							115.0432816,82.5343323 115.1747818,82.621994 115.3939438,82.7096634 115.6131058,82.731575 115.8322678,82.7096634 
							115.9856873,82.6658249 116.1171799,82.5781631 116.2486801,82.4905014 116.4459229,82.293251 116.6431732,82.0521698 
							116.8185043,81.7453461 116.9938354,81.3727722 117.1472473,80.9563599 117.2787399,80.4961166 117.454071,79.7728806 
							117.6074905,78.9619827 117.7170715,78.0634155 117.8047333,76.7922745 117.8485641,75.0828018 117.9143143,70.3488922 
							118.0896454,65.4834824 118.5279694,59.6756744 119.0977936,55.0075111 119.7114487,51.5228271 120.2593536,49.0901222 
							120.9168396,46.8546638 121.6839142,44.8602829 122.2537308,43.6768036 122.8454742,42.6029091 123.5248795,41.6824265 
							124.2261963,40.9153557 124.9932632,40.2797852 125.8260803,39.8195457 126.7027359,39.5565491 127.6670456,39.4469681 
							128.6094513,39.5565491 129.4860992,39.8195457 130.318924,40.2797852 131.0859833,40.9153557 131.7873077,41.6824265 
							132.4667053,42.6029091 132.7954559,43.1946487 133.0584412,43.6768036 133.6282654,44.8602829 134.39534,46.8546638 
							135.0528259,49.0901222 135.6007385,51.5228271 136.214386,55.0075111 136.7842102,59.6756744 137.2663727,66.4697113 
							137.463623,75.0828018 137.4855347,76.2443619 137.5293579,77.3182602 137.6608582,78.5236588 137.7704468,79.3783875 
							137.9457703,80.145462 138.0772705,80.6495361 138.2087708,81.1097717 138.3840942,81.5042648 138.559433,81.8549271 
							138.7347565,82.1398392 138.9320068,82.3590012 139.1292572,82.5343323 139.2607422,82.621994 139.4799194,82.7096634 
							139.6990814,82.731575 139.9182434,82.7096634 140.0716553,82.6658249 140.2031555,82.5781631 140.3346405,82.4905014 
							140.5318909,82.293251 140.7291412,82.0521698 140.9044647,81.7453461 141.0798035,81.3727722 141.2332153,80.9563599 
							141.3866272,80.4961166 141.5400391,79.7728806 141.6934509,78.9619827 141.8030396,78.0634155 141.8907013,76.7922745 
							141.9345398,75.0828018 142.0002747,70.3488922 142.1756134,65.4834824 142.6139374,59.6756744 143.1837616,55.0075111 
							143.7974091,51.5228271 144.3672333,49.0901222 145.0247192,46.8546638 145.7698822,44.8602829 146.3397064,43.6768036 
							146.9533539,42.6029091 147.6108398,41.6824265 148.3340759,40.9153557 149.1011505,40.2797852 149.9120483,39.8195457 
							150.8106232,39.5565491 151.7530212,39.4469681 152.6954193,39.5565491 153.5720673,39.8195457 154.4048767,40.2797852 
							155.1719513,40.9153557 155.8951874,41.6824265 156.5526733,42.6029091 157.1663361,43.6768036 157.7142334,44.8602829 
							158.481308,46.8546638 159.1387939,49.0901222 159.6867065,51.5228271 160.300354,55.0075111 160.8701782,59.6756744 
							161.3523407,66.4697113 161.5495911,75.0828018 161.5715027,76.2443619 161.6372528,77.3182602 161.7468262,78.5236588 
							161.8783264,79.3783875 162.0317383,80.145462 162.1632385,80.6495361 162.3166504,81.1097717 162.4700623,81.5042648 
							162.645401,81.8549271 162.8207245,82.1398392 163.0179749,82.3590012 163.2152252,82.5343323 163.3467102,82.621994 
							163.5658722,82.7096634 163.7850494,82.731575 163.7850494,84.6382904 						"/>
					</g>
				</g>
			</g>
		</g>
		<g>
			<path class="st3" d="M25.9981518,59.236042h7.6375179v1.6372986h-5.855751v3.5250053
				c0.2825127-0.0963058,0.5650272-0.1680069,0.8475418-0.2172318c0.2825146-0.0470886,0.5650291-0.071701,0.8475437-0.071701
				c1.6051941,0,2.8765087,0.439827,3.81394,1.3194733c0.9374352,0.8796463,1.4061508,2.0707016,1.4061508,3.5731583
				c0,1.5474091-0.4815559,2.7491684-1.4446754,3.6074066c-0.9631157,0.8561096-2.3211098,1.2852325-4.0739822,1.2852325
				c-0.6035538,0-1.2188778-0.0513687-1.8438339-0.1540985c-0.6270962-0.1027374-1.2734547-0.2568359-1.9412155-0.4623032
				v-1.9551239c0.5778713,0.314621,1.1750031,0.5489731,1.7913971,0.7030716
				c0.616396,0.1541061,1.2681046,0.2311554,1.9551277,0.2311554c1.1107941,0,1.9904404-0.2921524,2.6389408-0.876442
				c0.6484966-0.5842896,0.9727459-1.3772583,0.9727459-2.3788986s-0.3242493-1.7946091-0.9727459-2.3788986
				c-0.6485004-0.5842896-1.5281467-0.8764343-2.6389408-0.8764343c-0.5200825,0-1.0390968,0.057785-1.5548992,0.1733627
				c-0.5179424,0.1155701-1.045517,0.2953568-1.5848618,0.5393448V59.236042z"/>
		</g>
	</g>
	<line class="st1" x1="163.7927856" y1="115.3547287" x2="163.7927856" y2="117.2626495"/>
</g>
</svg>
