<?xml version="1.0" encoding="utf-8"?>
<!-- Generator: Adobe Illustrator 21.0.0, SVG Export Plug-In . SVG Version: 6.00 Build 0)  -->
<svg version="1.1" id="Layer_1" xmlns="http://www.w3.org/2000/svg" xmlns:xlink="http://www.w3.org/1999/xlink" x="0px" y="0px"
	 viewBox="0 0 165.9631042 200" style="enable-background:new 0 0 165.9631042 200;" xml:space="preserve">
<style type="text/css">
	.st0{fill:#ECF0F1;}
	.st1{fill:none;stroke:#000000;stroke-width:1.5;stroke-linecap:round;stroke-linejoin:round;}
	.st2{fill:none;stroke:#000000;stroke-linecap:round;stroke-linejoin:round;}
</style>
<g>
	<g id="XMLID_20_">
		<g>
			<polygon class="st0" points="155.1736145,39.4514503 154.388916,39.543766 153.6503754,39.8207169 152.9580078,40.2823029 
				152.3117828,40.9054451 151.7117157,41.6670647 151.1578217,42.5902367 150.6500702,43.6518822 150.1884766,44.852005 
				149.5653381,46.8599052 149.0114441,49.0755196 148.411377,52.3527794 147.8113098,56.8301659 147.2804871,63.5231628 
				147.0727844,69.3853073 147.00354,75.0628128 146.9573822,77.0476303 146.84198,78.5247116 146.7035065,79.5863571 
				146.565033,80.3248978 146.4034729,80.9480362 146.2880859,81.3634644 146.1265259,81.7327347 145.9880524,82.0327606 
				145.8264923,82.2866364 145.7111053,82.4251099 145.5957031,82.5405045 145.4803009,82.6097488 145.3649139,82.6789856 
				145.2495117,82.7251434 145.1341095,82.7251434 144.995636,82.7251434 144.880249,82.6789856 144.7648468,82.6097488 
				144.6494446,82.5405045 144.5340576,82.4251099 144.4186554,82.2866364 144.3263397,82.1250839 144.1647797,81.8481293 
				144.0263062,81.5019379 143.8878326,81.1095886 143.7724304,80.6480026 143.6339569,79.9556274 143.4954834,79.170929 
				143.3800964,78.0631256 143.2877655,76.7937622 143.2646942,75.0628128 143.0569763,65.4849014 142.6184692,58.6995888 
				141.9953308,53.2297935 141.4183502,49.8602142 140.8875275,47.5753632 140.2874603,45.4982262 139.5950775,43.6518822 
				139.0873413,42.5902367 138.8796234,42.2440453 140.8182831,41.5978241 143.0569763,40.9746819 145.2956696,40.4438591 
				147.5574493,40.0515099 149.8192139,39.774559 150.6039124,39.6822433 152.8887634,39.4976082 			"/>
			<polygon class="st0" points="155.1736145,160.5485535 152.8887634,160.4793091 150.6039124,160.3177643 149.8192139,160.2254333 
				147.5574493,159.925415 145.2956696,159.5330658 143.0569763,159.002243 140.8182831,158.3790894 138.8796234,157.7328796 
				139.0873413,157.3866882 139.5950775,156.3250427 140.2874603,154.50177 140.8875275,152.4246368 141.4183502,150.1166992 
				141.9953308,146.7702026 142.6184692,141.2773285 143.0569763,134.5150909 143.2646942,124.9141083 143.2877655,123.1831589 
				143.3800964,121.9137955 143.4954834,120.8059921 143.6339569,120.0212936 143.7724304,119.3289185 143.8878326,118.8904114 
				144.0263062,118.4980621 144.1647797,118.1518707 144.3263397,117.8518372 144.4186554,117.6902847 144.5340576,117.5518112 
				144.6494446,117.4594955 144.7648468,117.3671722 144.880249,117.2979355 144.995636,117.2748566 145.1341095,117.2517776 
				145.2495117,117.2748566 145.3649139,117.2979355 145.4803009,117.3671722 145.5957031,117.4594955 145.7111053,117.5518112 
				145.8264923,117.6902847 145.9880524,117.9441605 146.1265259,118.2441864 146.2880859,118.6134567 146.4034729,119.0288849 
				146.565033,119.6751022 146.7035065,120.4136429 146.84198,121.4522095 146.9573822,122.9292908 147.00354,124.9141083 
				147.0727844,130.5916138 147.2804871,136.4537659 147.8113098,143.146759 148.411377,147.6241455 149.0114441,150.9013977 
				149.5653381,153.1400909 150.1884766,155.1249084 150.6500702,156.3250427 151.1578217,157.3866882 151.7117157,158.3098602 
				152.3117828,159.0945587 152.9580078,159.7176971 153.6503754,160.1562042 154.388916,160.4562378 			"/>
			<polygon class="st0" points="135.0946198,39.4514503 134.3099213,39.543766 133.5713806,39.8207169 132.8790131,40.2823029 
				132.2327881,40.9054451 131.6327209,41.6670647 131.1018982,42.5902367 130.5710754,43.6518822 130.1094971,44.852005 
				129.4863434,46.8599052 128.9324493,49.0755196 128.3323822,52.3527794 127.7554016,56.8301659 127.2245789,63.5231628 
				126.993782,69.3853073 126.9245453,75.0628128 126.8783875,77.0476303 126.7629929,78.5247116 126.6245193,79.5863571 
				126.4860382,80.3248978 126.3244858,80.9480362 126.2090912,81.3634644 126.07061,81.7327347 125.9090576,82.0327606 
				125.7475052,82.2866364 125.632103,82.4251099 125.5397873,82.5405045 125.4243927,82.6097488 125.2859192,82.6789856 
				125.170517,82.7251434 125.0551224,82.7251434 124.9397278,82.7251434 124.8012543,82.6789856 124.6858521,82.6097488 
				124.5704575,82.5405045 124.4550629,82.4251099 124.3627472,82.2866364 124.247345,82.1250839 124.0857925,81.8481293 
				123.947319,81.5019379 123.8088379,81.1095886 123.6934433,80.6480026 123.5549698,79.9556274 123.4164963,79.170929 
				123.3010941,78.0631256 123.2318573,76.7937622 123.1856995,75.0628128 122.9779892,65.4849014 122.5394821,58.6995888 
				121.9163361,53.2297935 121.3393555,49.8602142 120.8085327,47.5753632 120.2084732,45.4982262 119.5160904,43.6518822 
				119.0083466,42.5902367 118.8006363,42.2440453 120.7623749,41.5978241 122.9779892,40.9746819 125.2166748,40.4438591 
				127.478447,40.0515099 129.7402191,39.774559 130.5249176,39.6822433 132.8097687,39.4976082 			"/>
			<polygon class="st0" points="135.0946198,160.5485535 132.8097687,160.4793091 130.5249176,160.3177643 129.7402191,160.2254333 
				127.478447,159.925415 125.2166748,159.5330658 122.9779892,159.002243 120.7623749,158.3790894 118.8006363,157.7328796 
				119.0083466,157.3866882 119.5160904,156.3250427 120.2084732,154.50177 120.8085327,152.4246368 121.3393555,150.1166992 
				121.9163361,146.7702026 122.5394821,141.2773285 122.9779892,134.5150909 123.1856995,124.9141083 123.2318573,123.1831589 
				123.3010941,121.9137955 123.4164963,120.8059921 123.5549698,120.0212936 123.6934433,119.3289185 123.8088379,118.8904114 
				123.947319,118.4980621 124.0857925,118.1518707 124.247345,117.8518372 124.3627472,117.6902847 124.4550629,117.5518112 
				124.5704575,117.4594955 124.6858521,117.3671722 124.8012543,117.2979355 124.9397278,117.2748566 125.0551224,117.2517776 
				125.170517,117.2748566 125.2859192,117.2979355 125.4243927,117.3671722 125.5397873,117.4594955 125.632103,117.5518112 
				125.7475052,117.6902847 125.9090576,117.9441605 126.07061,118.2441864 126.2090912,118.6134567 126.3244858,119.0288849 
				126.4860382,119.6751022 126.6245193,120.4136429 126.7629929,121.4522095 126.8783875,122.9292908 126.9245453,124.9141083 
				126.993782,130.5916138 127.2245789,136.4537659 127.7554016,143.146759 128.3323822,147.6241455 128.9324493,150.9013977 
				129.4863434,153.1400909 130.1094971,155.1249084 130.5710754,156.3250427 131.1018982,157.3866882 131.6327209,158.3098602 
				132.2327881,159.0945587 132.8790131,159.7176971 133.5713806,160.1562042 134.3099213,160.4562378 			"/>
			<polygon class="st0" points="115.015625,39.4514503 114.2309341,39.543766 113.4923935,39.8207169 112.8000107,40.2823029 
				112.1537933,40.9054451 111.5768127,41.6670647 111.0229111,42.5902367 110.5151596,43.6518822 110.0304947,44.852005 
				109.4073563,46.8599052 108.8534546,49.0755196 108.2533875,52.3527794 107.6764069,56.8301659 107.1455841,63.5231628 
				106.9147949,69.3853073 106.8455505,75.0628128 106.7993927,77.0476303 106.6839981,78.5247116 106.5455246,79.5863571 
				106.4070435,80.3248978 106.245491,80.9480362 106.1300964,81.3634644 105.9916229,81.7327347 105.8300629,82.0327606 
				105.6685104,82.2866364 105.5761948,82.4251099 105.4607925,82.5405045 105.3453979,82.6097488 105.2300034,82.6789856 
				105.0915298,82.7251434 104.9761276,82.7251434 104.860733,82.7251434 104.7453384,82.6789856 104.6068649,82.6097488 
				104.4914627,82.5405045 104.399147,82.4251099 104.2837524,82.2866364 104.1683578,82.1250839 104.0298767,81.8481293 
				103.8683243,81.5019379 103.7529297,81.1095886 103.6144485,80.6480026 103.475975,79.9556274 103.3375015,79.170929 
				103.2221069,78.0631256 103.1528625,76.7937622 103.1067047,75.0628128 102.9220734,65.4849014 102.4604874,58.6995888 
				101.8373413,53.2297935 101.2603607,49.8602142 100.729538,47.5753632 100.1294785,45.4982262 99.4601746,43.6518822 
				98.9524307,42.5902367 98.7447205,42.2440453 100.6833801,41.5978241 102.8989944,40.9746819 105.1376877,40.4438591 
				107.3994598,40.0515099 109.661232,39.774559 110.4459229,39.6822433 112.7307739,39.4976082 			"/>
			<polygon class="st0" points="115.015625,160.5485535 112.7307739,160.4793091 110.4459229,160.3177643 109.661232,160.2254333 
				107.3994598,159.925415 105.1376877,159.5330658 102.8989944,159.002243 100.6833801,158.3790894 98.7447205,157.7328796 
				98.9524307,157.3866882 99.4601746,156.3250427 100.1294785,154.50177 100.729538,152.4246368 101.2603607,150.1166992 
				101.8373413,146.7702026 102.4604874,141.2773285 102.9220734,134.5150909 103.1067047,124.9141083 103.1528625,123.1831589 
				103.2221069,121.9137955 103.3375015,120.8059921 103.475975,120.0212936 103.6144485,119.3289185 103.7529297,118.8904114 
				103.8683243,118.4980621 104.0298767,118.1518707 104.1683578,117.8518372 104.2837524,117.6902847 104.399147,117.5518112 
				104.4914627,117.4594955 104.6068649,117.3671722 104.7453384,117.2979355 104.860733,117.2748566 104.9761276,117.2517776 
				105.0915298,117.2748566 105.2300034,117.2979355 105.3453979,117.3671722 105.4607925,117.4594955 105.5761948,117.5518112 
				105.6685104,117.6902847 105.8300629,117.9441605 105.9916229,118.2441864 106.1300964,118.6134567 106.245491,119.0288849 
				106.4070435,119.6751022 106.5455246,120.4136429 106.6839981,121.4522095 106.7993927,122.9292908 106.8455505,124.9141083 
				106.9147949,130.5916138 107.1455841,136.4537659 107.6764069,143.146759 108.2533875,147.6241455 108.8534546,150.9013977 
				109.4073563,153.1400909 110.0304947,155.1249084 110.5151596,156.3250427 111.0229111,157.3866882 111.5768127,158.3098602 
				112.1537933,159.0945587 112.8000107,159.7176971 113.4923935,160.1562042 114.2309341,160.4562378 			"/>
			<polygon class="st0" points="94.9366302,39.4514503 94.1519394,39.543766 93.4133987,39.8207169 92.7210236,40.2823029 
				92.0978775,40.9054451 91.497818,41.6670647 90.9439163,42.5902367 90.4361725,43.6518822 89.9515076,44.852005 
				89.3283615,46.8599052 88.7744598,49.0755196 88.1744003,52.3527794 87.5974121,56.8301659 87.0665894,63.5231628 
				86.8358002,69.3853073 86.7665634,75.0628128 86.7204056,77.0476303 86.6050034,78.5247116 86.4665298,79.5863571 
				86.3280563,80.3248978 86.1895752,80.9480362 86.0511017,81.3634644 85.9126282,81.7327347 85.7510681,82.0327606 
				85.6125946,82.2866364 85.4972,82.4251099 85.3818054,82.5405045 85.2664032,82.6097488 85.1510086,82.6789856 
				85.035614,82.7251434 84.8971405,82.7251434 84.7817383,82.7251434 84.6663437,82.6789856 84.5509491,82.6097488 
				84.4355545,82.5405045 84.3201523,82.4251099 84.2047577,82.2866364 84.0893631,82.1250839 83.950882,81.8481293 
				83.8124084,81.5019379 83.6739349,81.1095886 83.5354614,80.6480026 83.3969803,79.9556274 83.2815857,79.170929 
				83.1431122,78.0631256 83.0738754,76.7937622 83.02771,75.0628128 82.8430786,65.4849014 82.4045715,58.6995888 
				81.7583542,53.2297935 81.181366,49.8602142 80.6736221,47.5753632 80.0735626,45.4982262 79.3811874,43.6518822 
				78.873436,42.5902367 78.6657257,42.2440453 80.6043854,41.5978241 82.8199997,40.9746819 85.0586929,40.4438591 
				87.3204651,40.0515099 89.5822372,39.774559 90.3669281,39.6822433 92.6517792,39.4976082 			"/>
			<polygon class="st0" points="94.9366302,160.5485535 92.6517792,160.4793091 90.3669281,160.3177643 89.5822372,160.2254333 
				87.3204651,159.925415 85.0586929,159.5330658 82.8199997,159.002243 80.6043854,158.3790894 78.6657257,157.7328796 
				78.873436,157.3866882 79.3811874,156.3250427 80.0735626,154.50177 80.6736221,152.4246368 81.181366,150.1166992 
				81.7583542,146.7702026 82.4045715,141.2773285 82.8430786,134.5150909 83.02771,124.9141083 83.0738754,123.1831589 
				83.1431122,121.9137955 83.2815857,120.8059921 83.3969803,120.0212936 83.5354614,119.3289185 83.6739349,118.8904114 
				83.8124084,118.4980621 83.950882,118.1518707 84.0893631,117.8518372 84.2047577,117.6902847 84.3201523,117.5518112 
				84.4355545,117.4594955 84.5509491,117.3671722 84.6663437,117.2979355 84.7817383,117.2748566 84.8971405,117.2517776 
				85.035614,117.2748566 85.1510086,117.2979355 85.2664032,117.3671722 85.3818054,117.4594955 85.4972,117.5518112 
				85.6125946,117.6902847 85.7510681,117.9441605 85.9126282,118.2441864 86.0511017,118.6134567 86.1895752,119.0288849 
				86.3280563,119.6751022 86.4665298,120.4136429 86.6050034,121.4522095 86.7204056,122.9292908 86.7665634,124.9141083 
				86.8358002,130.5916138 87.0665894,136.4537659 87.5974121,143.146759 88.1744003,147.6241455 88.7744598,150.9013977 
				89.3283615,153.1400909 89.9515076,155.1249084 90.4361725,156.3250427 90.9439163,157.3866882 91.497818,158.3098602 
				92.0978775,159.0945587 92.7210236,159.7176971 93.4133987,160.1562042 94.1519394,160.4562378 			"/>
			<polygon class="st0" points="74.8576431,39.4514503 74.0729446,39.543766 73.334404,39.8207169 72.6651077,40.2823029 
				72.0188828,40.9054451 71.4188232,41.6670647 70.8649216,42.5902367 70.3571777,43.6518822 69.8955917,44.852005 
				69.2493668,46.8599052 68.718544,49.0755196 68.0954056,52.3527794 67.518425,56.8301659 66.9875946,63.5231628 
				66.7568054,69.3853073 66.6875687,75.0628128 66.6414108,77.0476303 66.5260086,78.5247116 66.3875351,79.5863571 
				66.2721405,80.3248978 66.1105881,80.9480362 65.9721069,81.3634644 65.8336334,81.7327347 65.6951599,82.0327606 
				65.5335999,82.2866364 65.4182053,82.4251099 65.3028107,82.5405045 65.1874161,82.6097488 65.0720139,82.6789856 
				64.9566193,82.7251434 64.8181458,82.7251434 64.7027435,82.7251434 64.5873489,82.6789856 64.4719543,82.6097488 
				64.3565598,82.5405045 64.2411575,82.4251099 64.1257629,82.2866364 64.0103683,82.1250839 63.871891,81.8481293 
				63.7334175,81.5019379 63.5949402,81.1095886 63.4795456,80.6480026 63.3179893,79.9556274 63.2025909,79.170929 
				63.0871964,78.0631256 62.9948807,76.7937622 62.9717979,75.0628128 62.7640877,65.4849014 62.3255806,58.6995888 
				61.6793594,53.2297935 61.102375,49.8602142 60.5946312,47.5753632 59.9945679,45.4982262 59.3021889,43.6518822 
				58.794445,42.5902367 58.586731,42.2440453 60.5253944,41.5978241 62.7410049,40.9746819 64.9796982,40.4438591 
				67.2414703,40.0515099 69.5263214,39.774559 70.287941,39.6822433 72.5727921,39.4976082 			"/>
			<polygon class="st0" points="74.8576431,160.5485535 72.5727921,160.4793091 70.287941,160.3177643 69.5263214,160.2254333 
				67.2414703,159.925415 64.9796982,159.5330658 62.7410049,159.002243 60.5253944,158.3790894 58.586731,157.7328796 
				58.794445,157.3866882 59.3021889,156.3250427 59.9945679,154.50177 60.5946312,152.4246368 61.102375,150.1166992 
				61.6793594,146.7702026 62.3255806,141.2773285 62.7640877,134.5150909 62.9717979,124.9141083 62.9948807,123.1831589 
				63.0871964,121.9137955 63.2025909,120.8059921 63.3179893,120.0212936 63.4795456,119.3289185 63.5949402,118.8904114 
				63.7334175,118.4980621 63.871891,118.1518707 64.0103683,117.8518372 64.1257629,117.6902847 64.2411575,117.5518112 
				64.3565598,117.4594955 64.4719543,117.3671722 64.5873489,117.2979355 64.7027435,117.2748566 64.8181458,117.2517776 
				64.9566193,117.2748566 65.0720139,117.2979355 65.1874161,117.3671722 65.3028107,117.4594955 65.4182053,117.5518112 
				65.5335999,117.6902847 65.6951599,117.9441605 65.8336334,118.2441864 65.9721069,118.6134567 66.1105881,119.0288849 
				66.2721405,119.6751022 66.3875351,120.4136429 66.5260086,121.4522095 66.6414108,122.9292908 66.6875687,124.9141083 
				66.7568054,130.5916138 66.9875946,136.4537659 67.518425,143.146759 68.0954056,147.6241455 68.718544,150.9013977 
				69.2493668,153.1400909 69.8955917,155.1249084 70.3571777,156.3250427 70.8649216,157.3866882 71.4188232,158.3098602 
				72.0188828,159.0945587 72.6651077,159.7176971 73.334404,160.1562042 74.0729446,160.4562378 			"/>
			<polygon class="st0" points="54.7786484,39.4514503 53.9939499,39.543766 53.2554131,39.8207169 52.586113,40.2823029 
				51.9398918,40.9054451 51.3398323,41.6670647 50.7859268,42.5902367 50.278183,43.6518822 49.816597,44.852005 
				49.1703758,46.8599052 48.6395531,49.0755196 48.0164108,52.3527794 47.4394302,56.8301659 46.9086037,63.5231628 
				46.6778107,69.3853073 46.6085739,75.0628128 46.5624161,77.0476303 46.4700966,78.5247116 46.3316231,79.5863571 
				46.1931458,80.3248978 46.0315933,80.9480362 45.893116,81.3634644 45.7546387,81.7327347 45.6161652,82.0327606 
				45.4546089,82.2866364 45.3392143,82.4251099 45.2238159,82.5405045 45.1084213,82.6097488 44.9930229,82.6789856 
				44.8776283,82.7251434 44.7622299,82.7251434 44.0929298,82.7482224 43.5621071,82.7943802 43.4467087,82.7943802 
				42.8004875,82.8866959 42.1542702,83.0020905 41.508049,83.1405716 40.8849068,83.3252029 40.2617645,83.5329208 
				39.6386261,83.76371 39.0385628,84.0406647 38.4384995,84.3406906 37.8384399,84.686882 37.2845345,85.0330734 
				36.7306328,85.4254227 36.1767311,85.8408508 35.6459045,86.3024368 35.1381607,86.7640228 34.6534958,87.2717667 
				34.1919098,87.7795105 33.7303238,88.3334122 33.2918167,88.8873138 32.8994675,89.487381 32.507122,90.0874405 
				32.1378517,90.7105789 31.8147411,91.3568039 31.4916306,92.0261002 31.1916008,92.6954041 30.937727,93.3877792 
				30.706934,94.080162 30.4992218,94.7956161 30.3145866,95.5341568 30.1530323,96.2496109 30.0376358,96.9881516 
				29.9222393,97.7266922 29.8530006,98.4883041 29.8068428,99.2268448 29.8068428,99.9884567 29.8068428,100.7500763 
				29.8530006,101.4886169 29.9222393,102.2502289 30.0376358,102.9887695 30.1530323,103.7273102 30.3145866,104.4658432 
				30.4992218,105.1813049 30.706934,105.896759 30.937727,106.5891418 31.1916008,107.281517 31.4916306,107.9508209 
				31.8147411,108.6201172 32.1378517,109.2663422 32.507122,109.8894806 32.8994675,110.4895401 33.2918167,111.0896072 
				33.7303238,111.6435089 34.1919098,112.1974106 34.6534958,112.7282333 35.1381607,113.2128983 35.6459045,113.6744843 
				36.1767311,114.1360703 36.7306328,114.5514984 37.2845345,114.9438477 37.8384399,115.313118 38.4384995,115.6362305 
				39.0385628,115.9362564 39.6386261,116.2132111 40.2617645,116.4440002 40.8849068,116.6747971 41.508049,116.8363495 
				42.1542702,116.9979095 42.8004875,117.1133041 43.4467087,117.1825409 43.5621071,117.2056198 44.0929298,117.2286987 
				44.7622299,117.2517776 44.8776283,117.2748566 44.9930229,117.2979355 45.1084213,117.3671722 45.2238159,117.4594955 
				45.3392143,117.5518112 45.4546089,117.6902847 45.6161652,117.9441605 45.7546387,118.2441864 45.893116,118.6134567 
				46.0315933,119.0288849 46.1931458,119.6751022 46.3316231,120.4136429 46.4700966,121.4522095 46.5624161,122.9292908 
				46.6085739,124.9141083 46.6778107,130.5916138 46.9086037,136.4537659 47.4394302,143.146759 48.0164108,147.6241455 
				48.6395531,150.9013977 49.1703758,153.1400909 49.816597,155.1249084 50.278183,156.3250427 50.7859268,157.3866882 
				51.3398323,158.3098602 51.9398918,159.0945587 52.586113,159.7176971 53.2554131,160.1562042 53.9939499,160.4562378 
				54.7786484,160.5485535 52.4937973,160.4793091 50.2089462,160.3177643 49.4473267,160.2254333 47.1624756,159.925415 
				44.9007072,159.5330658 42.662014,159.002243 40.4463997,158.3790894 38.2538681,157.640564 36.1074905,156.8097076 
				35.4381905,156.5327454 33.3148956,155.5865021 31.2377586,154.5248566 29.2067795,153.3708801 27.2219601,152.101532 
				25.2602196,150.7398529 23.3677158,149.2858582 22.9061298,148.9165802 21.1059456,147.3702698 19.3288383,145.7316437 
				17.6440487,144.0237732 16.0054188,142.223587 14.4591055,140.3310852 12.958951,138.369339 11.5511131,136.3383636 
				10.2125139,134.2381439 8.9662313,132.0686951 8.7815971,131.745575 7.6276321,129.5299683 6.5429049,127.2681961 
				5.5504951,124.9602661 4.6504021,122.6061783 3.8426266,120.2059326 3.1271682,117.7595215 2.5040269,115.2900391 
				1.9732031,112.7743912 1.5346963,110.2587509 1.1885067,107.6969452 0.9577137,105.1351471 0.8192379,102.5733414 
				0.75,99.9884567 0.8192379,97.4035797 0.9577137,94.841774 1.1885067,92.2799759 1.5346963,89.7181702 1.9732031,87.2025299 
				2.5040269,84.686882 3.1271682,82.2173996 3.8426266,79.7709885 4.6504021,77.3707428 5.5504951,75.016655 6.5429049,72.708725 
				7.6276321,70.4469528 8.7815971,68.2313385 8.9662313,67.908226 10.2125139,65.7387772 11.5511131,63.6385574 
				12.958951,61.6075821 14.4591055,59.6458397 16.0054188,57.7764168 17.6440487,55.9531517 19.3288383,54.2452812 
				21.1059456,52.6066513 22.9061298,51.0834198 23.3677158,50.6910706 25.2602196,49.2370758 27.2219601,47.8753967 
				29.2067795,46.6060333 31.2377586,45.4520683 33.3148956,44.390419 35.4381905,43.4441681 36.1074905,43.1902962 
				38.2538681,42.3363609 40.4463997,41.5978241 42.662014,40.9746819 44.9007072,40.4438591 47.1624756,40.0515099 
				49.4473267,39.774559 50.2089462,39.6822433 52.4937973,39.4976082 			"/>
		</g>
		<g>
			<polyline class="st1" points="74.8576431,160.5485535 72.5727921,160.4793091 70.287941,160.3177643 69.5263214,160.2254333 
				67.2414703,159.925415 64.9796982,159.5330658 62.7410049,159.002243 60.5253944,158.3790894 58.586731,157.7328796 			"/>
			<polyline class="st1" points="94.9366302,160.5485535 92.6517792,160.4793091 90.3669281,160.3177643 89.5822372,160.2254333 
				87.3204651,159.925415 85.0586929,159.5330658 82.8199997,159.002243 80.6043854,158.3790894 78.6657257,157.7328796 			"/>
			<polyline class="st1" points="155.1736145,160.5485535 152.8887634,160.4793091 150.6039124,160.3177643 
				149.8192139,160.2254333 147.5574493,159.925415 145.2956696,159.5330658 143.0569763,159.002243 140.8182831,158.3790894 
				138.8796234,157.7328796 			"/>
			<polyline class="st1" points="115.015625,160.5485535 112.7307739,160.4793091 110.4459229,160.3177643 109.661232,160.2254333 
				107.3994598,159.925415 105.1376877,159.5330658 102.8989944,159.002243 100.6833801,158.3790894 98.7447205,157.7328796 			"/>
			<polyline class="st1" points="135.0946198,160.5485535 132.8097687,160.4793091 130.5249176,160.3177643 
				129.7402191,160.2254333 127.478447,159.925415 125.2166748,159.5330658 122.9779892,159.002243 120.7623749,158.3790894 
				118.8006363,157.7328796 			"/>
			<polyline class="st1" points="98.7447205,42.2440453 100.6833801,41.5978241 102.8989944,40.9746819 105.1376877,40.4438591 
				107.3994598,40.0515099 109.661232,39.774559 110.4459229,39.6822433 112.7307739,39.4976082 115.015625,39.4514503 			"/>
			<polyline class="st1" points="118.8006363,42.2440453 120.7623749,41.5978241 122.9779892,40.9746819 125.2166748,40.4438591 
				127.478447,40.0515099 129.7402191,39.774559 130.5249176,39.6822433 132.8097687,39.4976082 135.0946198,39.4514503 			"/>
			<polyline class="st1" points="138.8796234,42.2440453 140.8182831,41.5978241 143.0569763,40.9746819 145.2956696,40.4438591 
				147.5574493,40.0515099 149.8192139,39.774559 150.6039124,39.6822433 152.8887634,39.4976082 155.1736145,39.4514503 			"/>
			<polyline class="st1" points="78.6657257,42.2440453 80.6043854,41.5978241 82.8199997,40.9746819 85.0586929,40.4438591 
				87.3204651,40.0515099 89.5822372,39.774559 90.3669281,39.6822433 92.6517792,39.4976082 94.9366302,39.4514503 			"/>
			<polyline class="st1" points="58.586731,42.2440453 60.5253944,41.5978241 62.7410049,40.9746819 64.9796982,40.4438591 
				67.2414703,40.0515099 69.5263214,39.774559 70.287941,39.6822433 72.5727921,39.4976082 74.8576431,39.4514503 			"/>
			<polyline class="st1" points="165.2131042,115.4515915 165.0746307,117.2748566 164.8438416,117.3671722 
				164.7284393,117.4594955 164.6130524,117.5518112 164.4976501,117.6902847 164.4053345,117.8518372 164.2437744,118.1518707 
				164.1053009,118.4980621 163.9668274,118.8904114 163.8514252,119.3289185 163.6898804,120.0212936 163.5744781,120.8059921 
				163.4590759,121.9137955 163.3667603,123.1831589 163.343689,124.9141083 163.1359711,134.5150909 162.697464,141.2773285 
				162.051239,146.7702026 161.497345,150.1166992 160.9665222,152.4246368 160.3664551,154.50177 159.6740723,156.3250427 
				159.1663361,157.3866882 158.6124268,158.3098602 158.0123749,159.0945587 157.3892212,159.7176971 156.6968536,160.1562042 
				155.958313,160.4562378 155.1736145,160.5485535 154.388916,160.4562378 153.6503754,160.1562042 152.9580078,159.7176971 
				152.3117828,159.0945587 151.7117157,158.3098602 151.1578217,157.3866882 150.6500702,156.3250427 150.1884766,155.1249084 
				149.5653381,153.1400909 149.0114441,150.9013977 148.411377,147.6241455 147.8113098,143.146759 147.2804871,136.4537659 
				147.0727844,130.5916138 147.00354,124.9141083 146.9573822,122.9292908 146.84198,121.4522095 146.7035065,120.4136429 
				146.565033,119.6751022 146.4034729,119.0288849 146.2880859,118.6134567 146.1265259,118.2441864 145.9880524,117.9441605 
				145.8264923,117.6902847 145.7111053,117.5518112 145.5957031,117.4594955 145.4803009,117.3671722 145.3649139,117.2979355 
				145.2495117,117.2748566 145.1341095,117.2517776 144.995636,117.2748566 144.880249,117.2979355 144.7648468,117.3671722 
				144.6494446,117.4594955 144.5340576,117.5518112 144.4186554,117.6902847 144.3263397,117.8518372 144.1647797,118.1518707 
				144.0263062,118.4980621 143.8878326,118.8904114 143.7724304,119.3289185 143.6339569,120.0212936 143.4954834,120.8059921 
				143.3800964,121.9137955 143.2877655,123.1831589 143.2646942,124.9141083 143.0569763,134.5150909 142.6184692,141.2773285 
				141.9953308,146.7702026 141.4183502,150.1166992 140.8875275,152.4246368 140.2874603,154.50177 139.5950775,156.3250427 
				139.0873413,157.3866882 138.8796234,157.7328796 138.533432,158.3098602 137.9333801,159.0945587 137.3102264,159.7176971 
				136.6178589,160.1562042 135.8793182,160.4562378 135.0946198,160.5485535 134.3099213,160.4562378 133.5713806,160.1562042 
				132.8790131,159.7176971 132.2327881,159.0945587 131.6327209,158.3098602 131.1018982,157.3866882 130.5710754,156.3250427 
				130.1094971,155.1249084 129.4863434,153.1400909 128.9324493,150.9013977 128.3323822,147.6241455 127.7554016,143.146759 
				127.2245789,136.4537659 126.993782,130.5916138 126.9245453,124.9141083 126.8783875,122.9292908 126.7629929,121.4522095 
				126.6245193,120.4136429 126.4860382,119.6751022 126.3244858,119.0288849 126.2090912,118.6134567 126.07061,118.2441864 
				125.9090576,117.9441605 125.7475052,117.6902847 125.632103,117.5518112 125.5397873,117.4594955 125.4243927,117.3671722 
				125.2859192,117.2979355 125.170517,117.2748566 125.0551224,117.2517776 124.9397278,117.2748566 124.8012543,117.2979355 
				124.6858521,117.3671722 124.5704575,117.4594955 124.4550629,117.5518112 124.3627472,117.6902847 124.247345,117.8518372 
				124.0857925,118.1518707 123.947319,118.4980621 123.8088379,118.8904114 123.6934433,119.3289185 123.5549698,120.0212936 
				123.4164963,120.8059921 123.3010941,121.9137955 123.2318573,123.1831589 123.1856995,124.9141083 122.9779892,134.5150909 
				122.5394821,141.2773285 121.9163361,146.7702026 121.3393555,150.1166992 120.8085327,152.4246368 120.2084732,154.50177 
				119.5160904,156.3250427 119.0083466,157.3866882 118.8006363,157.7328796 118.4544449,158.3098602 117.8774567,159.0945587 
				117.2312393,159.7176971 116.5388641,160.1562042 115.8003235,160.4562378 115.015625,160.5485535 114.2309341,160.4562378 
				113.4923935,160.1562042 112.8000107,159.7176971 112.1537933,159.0945587 111.5768127,158.3098602 111.0229111,157.3866882 
				110.5151596,156.3250427 110.0304947,155.1249084 109.4073563,153.1400909 108.8534546,150.9013977 108.2533875,147.6241455 
				107.6764069,143.146759 107.1455841,136.4537659 106.9147949,130.5916138 106.8455505,124.9141083 106.7993927,122.9292908 
				106.6839981,121.4522095 106.5455246,120.4136429 106.4070435,119.6751022 106.245491,119.0288849 106.1300964,118.6134567 
				105.9916229,118.2441864 105.8300629,117.9441605 105.6685104,117.6902847 105.5761948,117.5518112 105.4607925,117.4594955 
				105.3453979,117.3671722 105.2300034,117.2979355 105.0915298,117.2748566 104.9761276,117.2517776 104.860733,117.2748566 
				104.7453384,117.2979355 104.6068649,117.3671722 104.4914627,117.4594955 104.399147,117.5518112 104.2837524,117.6902847 
				104.1683578,117.8518372 104.0298767,118.1518707 103.8683243,118.4980621 103.7529297,118.8904114 103.6144485,119.3289185 
				103.475975,120.0212936 103.3375015,120.8059921 103.2221069,121.9137955 103.1528625,123.1831589 103.1067047,124.9141083 
				102.9220734,134.5150909 102.4604874,141.2773285 101.8373413,146.7702026 101.2603607,150.1166992 100.729538,152.4246368 
				100.1294785,154.50177 99.4601746,156.3250427 98.9524307,157.3866882 98.7447205,157.7328796 98.3985291,158.3098602 
				97.7984695,159.0945587 97.1522446,159.7176971 96.4598694,160.1562042 95.7213287,160.4562378 94.9366302,160.5485535 
				94.1519394,160.4562378 93.4133987,160.1562042 92.7210236,159.7176971 92.0978775,159.0945587 91.497818,158.3098602 
				90.9439163,157.3866882 90.4361725,156.3250427 89.9515076,155.1249084 89.3283615,153.1400909 88.7744598,150.9013977 
				88.1744003,147.6241455 87.5974121,143.146759 87.0665894,136.4537659 86.8358002,130.5916138 86.7665634,124.9141083 
				86.7204056,122.9292908 86.6050034,121.4522095 86.4665298,120.4136429 86.3280563,119.6751022 86.1895752,119.0288849 
				86.0511017,118.6134567 85.9126282,118.2441864 85.7510681,117.9441605 85.6125946,117.6902847 85.4972,117.5518112 
				85.3818054,117.4594955 85.2664032,117.3671722 85.1510086,117.2979355 85.035614,117.2748566 84.8971405,117.2517776 
				84.7817383,117.2748566 84.6663437,117.2979355 84.5509491,117.3671722 84.4355545,117.4594955 84.3201523,117.5518112 
				84.2047577,117.6902847 84.0893631,117.8518372 83.950882,118.1518707 83.8124084,118.4980621 83.6739349,118.8904114 
				83.5354614,119.3289185 83.3969803,120.0212936 83.2815857,120.8059921 83.1431122,121.9137955 83.0738754,123.1831589 
				83.02771,124.9141083 82.8430786,134.5150909 82.4045715,141.2773285 81.7583542,146.7702026 81.181366,150.1166992 
				80.6736221,152.4246368 80.0735626,154.50177 79.3811874,156.3250427 78.873436,157.3866882 78.6657257,157.7328796 
				78.3195343,158.3098602 77.7194748,159.0945587 77.0732498,159.7176971 76.3808746,160.1562042 75.642334,160.4562378 
				74.8576431,160.5485535 74.0729446,160.4562378 73.334404,160.1562042 72.6651077,159.7176971 72.0188828,159.0945587 
				71.4188232,158.3098602 70.8649216,157.3866882 70.3571777,156.3250427 69.8955917,155.1249084 69.2493668,153.1400909 
				68.718544,150.9013977 68.0954056,147.6241455 67.518425,143.146759 66.9875946,136.4537659 66.7568054,130.5916138 
				66.6875687,124.9141083 66.6414108,122.9292908 66.5260086,121.4522095 66.3875351,120.4136429 66.2721405,119.6751022 
				66.1105881,119.0288849 65.9721069,118.6134567 65.8336334,118.2441864 65.6951599,117.9441605 65.5335999,117.6902847 
				65.4182053,117.5518112 65.3028107,117.4594955 65.1874161,117.3671722 65.0720139,117.2979355 64.9566193,117.2748566 
				64.8181458,117.2517776 64.7027435,117.2748566 64.5873489,117.2979355 64.4719543,117.3671722 64.3565598,117.4594955 
				64.2411575,117.5518112 64.1257629,117.6902847 64.0103683,117.8518372 63.871891,118.1518707 63.7334175,118.4980621 
				63.5949402,118.8904114 63.4795456,119.3289185 63.3179893,120.0212936 63.2025909,120.8059921 63.0871964,121.9137955 
				62.9948807,123.1831589 62.9717979,124.9141083 62.7640877,134.5150909 62.3255806,141.2773285 61.6793594,146.7702026 
				61.102375,150.1166992 60.5946312,152.4246368 59.9945679,154.50177 59.3021889,156.3250427 58.794445,157.3866882 
				58.586731,157.7328796 58.2405434,158.3098602 57.64048,159.0945587 56.9942589,159.7176971 56.3018799,160.1562042 
				55.586422,160.4562378 54.7786484,160.5485535 52.4937973,160.4793091 50.2089462,160.3177643 49.4473267,160.2254333 
				47.1624756,159.925415 44.9007072,159.5330658 42.662014,159.002243 40.4463997,158.3790894 38.2538681,157.640564 
				36.1074905,156.8097076 35.4381905,156.5327454 33.3148956,155.5865021 31.2377586,154.5248566 29.2067795,153.3708801 
				27.2219601,152.101532 25.2602196,150.7398529 23.3677158,149.2858582 22.9061298,148.9165802 21.1059456,147.3702698 
				19.3288383,145.7316437 17.6440487,144.0237732 16.0054188,142.223587 14.4591055,140.3310852 12.958951,138.369339 
				11.5511131,136.3383636 10.2125139,134.2381439 8.9662313,132.0686951 8.7815971,131.745575 7.6276321,129.5299683 
				6.5429049,127.2681961 5.5504951,124.9602661 4.6504021,122.6061783 3.8426266,120.2059326 3.1271682,117.7595215 
				2.5040269,115.2900391 1.9732031,112.7743912 1.5346963,110.2587509 1.1885067,107.6969452 0.9577137,105.1351471 
				0.8192379,102.5733414 0.75,99.9884567 0.8192379,97.4035797 0.9577137,94.841774 1.1885067,92.2799759 1.5346963,89.7181702 
				1.9732031,87.2025299 2.5040269,84.686882 3.1271682,82.2173996 3.8426266,79.7709885 4.6504021,77.3707428 5.5504951,75.016655 
				6.5429049,72.708725 7.6276321,70.4469528 8.7815971,68.2313385 8.9662313,67.908226 10.2125139,65.7387772 
				11.5511131,63.6385574 12.958951,61.6075821 14.4591055,59.6458397 16.0054188,57.7764168 17.6440487,55.9531517 
				19.3288383,54.2452812 21.1059456,52.6066513 22.9061298,51.0834198 23.3677158,50.6910706 25.2602196,49.2370758 
				27.2219601,47.8753967 29.2067795,46.6060333 31.2377586,45.4520683 33.3148956,44.390419 35.4381905,43.4441681 
				36.1074905,43.1902962 38.2538681,42.3363609 40.4463997,41.5978241 42.662014,40.9746819 44.9007072,40.4438591 
				47.1624756,40.0515099 49.4473267,39.774559 50.2089462,39.6822433 52.4937973,39.4976082 54.7786484,39.4514503 
				55.586422,39.543766 56.3018799,39.8207169 56.9942589,40.2823029 57.64048,40.9054451 58.2405434,41.6670647 
				58.586731,42.2440453 58.794445,42.5902367 59.3021889,43.6518822 59.9945679,45.4982262 60.5946312,47.5753632 
				61.102375,49.8602142 61.6793594,53.2297935 62.3255806,58.6995888 62.7640877,65.4849014 62.9717979,75.0628128 
				62.9948807,76.7937622 63.0871964,78.0631256 63.2025909,79.170929 63.3179893,79.9556274 63.4795456,80.6480026 
				63.5949402,81.1095886 63.7334175,81.5019379 63.871891,81.8481293 64.0103683,82.1250839 64.1257629,82.2866364 
				64.2411575,82.4251099 64.3565598,82.5405045 64.4719543,82.6097488 64.5873489,82.6789856 64.7027435,82.7251434 
				64.8181458,82.7251434 64.9566193,82.7251434 65.0720139,82.6789856 65.1874161,82.6097488 65.3028107,82.5405045 
				65.4182053,82.4251099 65.5335999,82.2866364 65.6951599,82.0327606 65.8336334,81.7327347 65.9721069,81.3634644 
				66.1105881,80.9480362 66.2721405,80.3248978 66.3875351,79.5863571 66.5260086,78.5247116 66.6414108,77.0476303 
				66.6875687,75.0628128 66.7568054,69.3853073 66.9875946,63.5231628 67.518425,56.8301659 68.0954056,52.3527794 
				68.718544,49.0755196 69.2493668,46.8599052 69.8955917,44.852005 70.3571777,43.6518822 70.8649216,42.5902367 
				71.4188232,41.6670647 72.0188828,40.9054451 72.6651077,40.2823029 73.334404,39.8207169 74.0729446,39.543766 
				74.8576431,39.4514503 75.642334,39.543766 76.3808746,39.8207169 77.0732498,40.2823029 77.7194748,40.9054451 
				78.3195343,41.6670647 78.6657257,42.2440453 78.873436,42.5902367 79.3811874,43.6518822 80.0735626,45.4982262 
				80.6736221,47.5753632 81.181366,49.8602142 81.7583542,53.2297935 82.4045715,58.6995888 82.8430786,65.4849014 
				83.02771,75.0628128 83.0738754,76.7937622 83.1431122,78.0631256 83.2815857,79.170929 83.3969803,79.9556274 
				83.5354614,80.6480026 83.6739349,81.1095886 83.8124084,81.5019379 83.950882,81.8481293 84.0893631,82.1250839 
				84.2047577,82.2866364 84.3201523,82.4251099 84.4355545,82.5405045 84.5509491,82.6097488 84.6663437,82.6789856 
				84.7817383,82.7251434 84.8971405,82.7251434 85.035614,82.7251434 85.1510086,82.6789856 85.2664032,82.6097488 
				85.3818054,82.5405045 85.4972,82.4251099 85.6125946,82.2866364 85.7510681,82.0327606 85.9126282,81.7327347 
				86.0511017,81.3634644 86.1895752,80.9480362 86.3280563,80.3248978 86.4665298,79.5863571 86.6050034,78.5247116 
				86.7204056,77.0476303 86.7665634,75.0628128 86.8358002,69.3853073 87.0665894,63.5231628 87.5974121,56.8301659 
				88.1744003,52.3527794 88.7744598,49.0755196 89.3283615,46.8599052 89.9515076,44.852005 90.4361725,43.6518822 
				90.9439163,42.5902367 91.497818,41.6670647 92.0978775,40.9054451 92.7210236,40.2823029 93.4133987,39.8207169 
				94.1519394,39.543766 94.9366302,39.4514503 95.7213287,39.543766 96.4598694,39.8207169 97.1522446,40.2823029 
				97.7984695,40.9054451 98.3985291,41.6670647 98.7447205,42.2440453 98.9524307,42.5902367 99.4601746,43.6518822 
				100.1294785,45.4982262 100.729538,47.5753632 101.2603607,49.8602142 101.8373413,53.2297935 102.4604874,58.6995888 
				102.9220734,65.4849014 103.1067047,75.0628128 103.1528625,76.7937622 103.2221069,78.0631256 103.3375015,79.170929 
				103.475975,79.9556274 103.6144485,80.6480026 103.7529297,81.1095886 103.8683243,81.5019379 104.0298767,81.8481293 
				104.1683578,82.1250839 104.2837524,82.2866364 104.399147,82.4251099 104.4914627,82.5405045 104.6068649,82.6097488 
				104.7453384,82.6789856 104.860733,82.7251434 104.9761276,82.7251434 105.0915298,82.7251434 105.2300034,82.6789856 
				105.3453979,82.6097488 105.4607925,82.5405045 105.5761948,82.4251099 105.6685104,82.2866364 105.8300629,82.0327606 
				105.9916229,81.7327347 106.1300964,81.3634644 106.245491,80.9480362 106.4070435,80.3248978 106.5455246,79.5863571 
				106.6839981,78.5247116 106.7993927,77.0476303 106.8455505,75.0628128 106.9147949,69.3853073 107.1455841,63.5231628 
				107.6764069,56.8301659 108.2533875,52.3527794 108.8534546,49.0755196 109.4073563,46.8599052 110.0304947,44.852005 
				110.5151596,43.6518822 111.0229111,42.5902367 111.5768127,41.6670647 112.1537933,40.9054451 112.8000107,40.2823029 
				113.4923935,39.8207169 114.2309341,39.543766 115.015625,39.4514503 115.8003235,39.543766 116.5388641,39.8207169 
				117.2312393,40.2823029 117.8774567,40.9054451 118.4544449,41.6670647 118.8006363,42.2440453 119.0083466,42.5902367 
				119.5160904,43.6518822 120.2084732,45.4982262 120.8085327,47.5753632 121.3393555,49.8602142 121.9163361,53.2297935 
				122.5394821,58.6995888 122.9779892,65.4849014 123.1856995,75.0628128 123.2318573,76.7937622 123.3010941,78.0631256 
				123.4164963,79.170929 123.5549698,79.9556274 123.6934433,80.6480026 123.8088379,81.1095886 123.947319,81.5019379 
				124.0857925,81.8481293 124.247345,82.1250839 124.3627472,82.2866364 124.4550629,82.4251099 124.5704575,82.5405045 
				124.6858521,82.6097488 124.8012543,82.6789856 124.9397278,82.7251434 125.0551224,82.7251434 125.170517,82.7251434 
				125.2859192,82.6789856 125.4243927,82.6097488 125.5397873,82.5405045 125.632103,82.4251099 125.7475052,82.2866364 
				125.9090576,82.0327606 126.07061,81.7327347 126.2090912,81.3634644 126.3244858,80.9480362 126.4860382,80.3248978 
				126.6245193,79.5863571 126.7629929,78.5247116 126.8783875,77.0476303 126.9245453,75.0628128 126.993782,69.3853073 
				127.2245789,63.5231628 127.7554016,56.8301659 128.3323822,52.3527794 128.9324493,49.0755196 129.4863434,46.8599052 
				130.1094971,44.852005 130.5710754,43.6518822 131.1018982,42.5902367 131.6327209,41.6670647 132.2327881,40.9054451 
				132.8790131,40.2823029 133.5713806,39.8207169 134.3099213,39.543766 135.0946198,39.4514503 135.8793182,39.543766 
				136.6178589,39.8207169 137.3102264,40.2823029 137.9333801,40.9054451 138.533432,41.6670647 138.8796234,42.2440453 
				139.0873413,42.5902367 139.5950775,43.6518822 140.2874603,45.4982262 140.8875275,47.5753632 141.4183502,49.8602142 
				141.9953308,53.2297935 142.6184692,58.6995888 143.0569763,65.4849014 143.2646942,75.0628128 143.2877655,76.7937622 
				143.3800964,78.0631256 143.4954834,79.170929 143.6339569,79.9556274 143.7724304,80.6480026 143.8878326,81.1095886 
				144.0263062,81.5019379 144.1647797,81.8481293 144.3263397,82.1250839 144.4186554,82.2866364 144.5340576,82.4251099 
				144.6494446,82.5405045 144.7648468,82.6097488 144.880249,82.6789856 144.995636,82.7251434 145.1341095,82.7251434 
				145.2495117,82.7251434 145.3649139,82.6789856 145.4803009,82.6097488 145.5957031,82.5405045 145.7111053,82.4251099 
				145.8264923,82.2866364 145.9880524,82.0327606 146.1265259,81.7327347 146.2880859,81.3634644 146.4034729,80.9480362 
				146.565033,80.3248978 146.7035065,79.5863571 146.84198,78.5247116 146.9573822,77.0476303 147.00354,75.0628128 
				147.0727844,69.3853073 147.2804871,63.5231628 147.8113098,56.8301659 148.411377,52.3527794 149.0114441,49.0755196 
				149.5653381,46.8599052 150.1884766,44.852005 150.6500702,43.6518822 151.1578217,42.5902367 151.7117157,41.6670647 
				152.3117828,40.9054451 152.9580078,40.2823029 153.6503754,39.8207169 154.388916,39.543766 155.1736145,39.4514503 
				155.958313,39.543766 156.6968536,39.8207169 157.3892212,40.2823029 158.0123749,40.9054451 158.6124268,41.6670647 
				159.1663361,42.5902367 159.6740723,43.6518822 160.3664551,45.4982262 160.9665222,47.5753632 161.497345,49.8602142 
				162.051239,53.2297935 162.697464,58.6995888 163.1359711,65.4849014 163.343689,75.0628128 163.3667603,76.7937622 
				163.4590759,78.0631256 163.5744781,79.170929 163.6898804,79.9556274 163.8514252,80.6480026 163.9668274,81.1095886 
				164.1053009,81.5019379 164.2437744,81.8481293 164.4053345,82.1250839 164.4976501,82.2866364 164.6130524,82.4251099 
				164.7284393,82.5405045 164.8438416,82.6097488 165.0746307,82.7020645 165.2131042,84.5253296 			"/>
			<polyline class="st2" points="145.1341095,85.1715469 145.3879852,85.148468 145.6649475,85.0561523 145.9418945,84.8945999 
				146.1957703,84.686882 146.4496307,84.4099274 146.7035065,84.0406647 146.9342957,83.6021576 147.1651001,83.0944138 
				147.3728027,82.5174255 147.5574493,81.8481293 147.7189941,81.0865097 147.926712,79.9556274 148.0651855,78.6401062 
				148.1805878,77.1630325 148.2267456,75.0628128 148.4344635,65.2541122 148.9421997,58.1918449 149.4499512,53.8990936 
				150.0038452,50.6910706 150.5115967,48.4985352 151.1116486,46.5367966 151.5501556,45.3828316 152.0348206,44.390419 
				152.5656586,43.5134087 153.1426392,42.8210297 153.7657776,42.313282 154.4350739,41.9901733 155.1736145,41.8978577 
				155.8890686,41.9901733 156.5583649,42.313282 157.1815186,42.8210297 157.7584991,43.5134087 158.2893219,44.390419 
				158.7739868,45.3828316 159.2355652,46.5367966 159.8125458,48.4985352 160.3202972,50.6910706 160.8742065,53.8990936 
				161.3819427,58.1918449 161.8435364,64.3770981 162.051239,70.1930771 162.1204834,75.0628128 162.1666412,77.1861115 
				162.2820435,78.7785797 162.420517,79.9556274 162.582077,80.994194 162.7897797,81.917366 162.974411,82.5405045 
				163.1821289,83.1174927 163.3898468,83.6021576 163.620636,84.0175858 163.8052673,84.2945328 163.9899139,84.5253296 
				165.2131042,84.5253296 			"/>
			<polyline class="st2" points="125.0551224,85.1715469 125.332077,85.148468 125.5859451,85.0561523 125.8628998,84.8945999 
				126.1167679,84.686882 126.3706436,84.4099274 126.6245193,84.0406647 126.8553085,83.6021576 127.0861053,83.0944138 
				127.2938156,82.5174255 127.478447,81.8481293 127.6630859,81.0865097 127.8477173,79.9556274 127.9861984,78.6401062 
				128.101593,77.1630325 128.1477509,75.0628128 128.3554688,65.2541122 128.863205,58.1918449 129.3940277,53.8990936 
				129.9248505,50.6910706 130.4326019,48.4985352 131.0326691,46.5367966 131.4711761,45.3828316 131.9558411,44.390419 
				132.4866638,43.5134087 133.0636444,42.8210297 133.6867828,42.313282 134.3560791,41.9901733 135.0946198,41.8978577 
				135.8100739,41.9901733 136.5024567,42.313282 137.1255951,42.8210297 137.7025757,43.5134087 138.2333984,44.390419 
				138.7180634,45.3828316 139.1565704,46.5367966 139.7335663,48.4985352 140.2413025,50.6910706 140.7952118,53.8990936 
				141.3260345,58.1918449 141.7645416,64.3770981 141.9953308,70.1930771 142.0414886,75.0628128 142.0876465,77.1630325 
				142.22612,78.9862976 142.3876801,80.2556534 142.5723114,81.3403854 142.7569427,82.0789185 142.9646606,82.7251434 
				143.1723785,83.2790451 143.4031677,83.76371 143.6339569,84.1791382 143.8878326,84.5022507 144.1417084,84.7561188 
				144.4186554,84.9638367 144.6263733,85.148468 			"/>
			<polyline class="st2" points="104.9761276,85.1715469 105.2530823,85.148468 105.506958,85.0561523 105.783905,84.8945999 
				106.0377808,84.686882 106.3147278,84.4099274 106.5455246,84.0406647 106.7993927,83.6021576 107.0071106,83.0944138 
				107.2148209,82.5174255 107.3994598,81.8481293 107.5840912,81.0865097 107.7687225,79.9556274 107.9302826,78.6401062 
				108.0225983,77.1630325 108.0687561,75.0628128 108.2995529,65.2541122 108.7842178,58.1918449 109.3150406,53.8990936 
				109.8689423,50.6910706 110.3766861,48.4985352 110.9536667,46.5367966 111.3921738,45.3828316 111.8768387,44.390419 
				112.4076691,43.5134087 112.9846497,42.8210297 113.6077881,42.313282 114.3001709,41.9901733 115.015625,41.8978577 
				115.7310867,41.9901733 116.4234619,42.313282 117.046608,42.8210297 117.6235886,43.5134087 118.1544113,44.390419 
				118.6390762,45.3828316 119.0775833,46.5367966 119.6776428,48.4985352 120.1623077,50.6910706 120.716217,53.8990936 
				121.2470398,58.1918449 121.7086258,64.3770981 121.9163361,70.1930771 121.9624939,75.0628128 122.0086517,77.1630325 
				122.1471329,78.9862976 122.3086853,80.2556534 122.5164032,81.3403854 122.6779556,82.0789185 122.8856659,82.7251434 
				123.0933838,83.2790451 123.324173,83.76371 123.5549698,84.1791382 123.8088379,84.5022507 124.0627136,84.7561188 
				124.3396683,84.9638367 124.5473785,85.148468 			"/>
			<polyline class="st2" points="84.8971405,85.1715469 85.1740875,85.148468 85.4510422,85.0561523 85.7049103,84.8945999 
				85.9818649,84.686882 86.235733,84.4099274 86.4665298,84.0406647 86.7204056,83.6021576 86.9281158,83.0944138 
				87.1358261,82.5174255 87.343544,81.8481293 87.5050964,81.0865097 87.6897354,79.9556274 87.8512878,78.6401062 
				87.9436035,77.1630325 87.9897614,75.0628128 88.2205582,65.2541122 88.7052231,58.1918449 89.2360458,53.8990936 
				89.7899475,50.6910706 90.2976913,48.4985352 90.8746796,46.5367966 91.3131866,45.3828316 91.7978516,44.390419 
				92.3286743,43.5134087 92.9056549,42.8210297 93.5287933,42.313282 94.2211761,41.9901733 94.9366302,41.8978577 
				95.6751709,41.9901733 96.3444748,42.313282 96.9676132,42.8210297 97.5445938,43.5134087 98.0754166,44.390419 
				98.5600815,45.3828316 98.9985886,46.5367966 99.5986557,48.4985352 100.1063995,50.6910706 100.6603012,53.8990936 
				101.168045,58.1918449 101.629631,64.3770981 101.8373413,70.1930771 101.8835068,75.0628128 101.9296646,77.1630325 
				102.0681381,78.9862976 102.2296906,80.2556534 102.4374084,81.3403854 102.5989609,82.0789185 102.8066788,82.7251434 
				103.014389,83.2790451 103.2451859,83.76371 103.475975,84.1791382 103.7298508,84.5022507 104.0067978,84.7561188 
				104.2606735,84.9638367 104.4683838,85.148468 			"/>
			<polyline class="st2" points="64.8181458,85.1715469 65.0950928,85.148468 65.3720474,85.0561523 65.6259232,84.8945999 
				65.9028702,84.686882 66.1567459,84.4099274 66.410614,84.0406647 66.6414108,83.6021576 66.8491211,83.0944138 
				67.0799179,82.5174255 67.2645493,81.8481293 67.4261017,81.0865097 67.6338196,79.9556274 67.7722931,78.6401062 
				67.8646088,77.1630325 67.9107666,75.0628128 68.1415634,65.2541122 68.6493073,58.1918449 69.1570511,53.8990936 
				69.7109528,50.6910706 70.2187042,48.4985352 70.7956848,46.5367966 71.2572708,45.3828316 71.7419357,44.390419 
				72.2727585,43.5134087 72.8497391,42.8210297 73.4728851,42.313282 74.1421814,41.9901733 74.8576431,41.8978577 
				75.5961761,41.9901733 76.26548,42.313282 76.8886185,42.8210297 77.4655991,43.5134087 77.9964218,44.390419 
				78.4810944,45.3828316 78.9196014,46.5367966 79.5196609,48.4985352 80.0274048,50.6910706 80.5813065,53.8990936 
				81.0890503,58.1918449 81.5506363,64.3770981 81.7583542,70.1930771 81.804512,75.0628128 81.8506699,77.1630325 
				81.9891434,78.9862976 82.1507034,80.2556534 82.3584137,81.3403854 82.543045,82.0789185 82.727684,82.7251434 
				82.9353943,83.2790451 83.1661911,83.76371 83.4200592,84.1791382 83.650856,84.5022507 83.927803,84.7561188 
				84.1816788,84.9638367 84.389389,85.148468 			"/>
			<polyline class="st2" points="49.0780602,53.8990936 49.6319618,50.6910706 50.1397057,48.4985352 50.739769,46.5367966 
				51.1782761,45.3828316 51.662941,44.390419 52.1937637,43.5134087 52.7707481,42.8210297 53.3938904,42.313282 
				54.0631905,41.9901733 54.7786484,41.8978577 55.5171852,41.9901733 56.1864853,42.313282 56.8096275,42.8210297 
				57.3866081,43.5134087 57.9174309,44.390419 58.4020996,45.3828316 58.8406029,46.5367966 59.4406662,48.4985352 
				59.94841,50.6910706 60.5023155,53.8990936 61.0100594,58.1918449 61.4716454,64.3770981 61.6793594,70.1930771 
				61.7485962,75.0628128 61.794754,77.1630325 61.9101524,78.9862976 62.0717087,80.2556534 62.2794189,81.3403854 
				62.4640541,82.0789185 62.6486893,82.7251434 62.8564034,83.2790451 63.0871964,83.76371 63.3410683,84.1791382 
				63.5949402,84.5022507 63.8488121,84.7561188 64.102684,84.9638367 64.3334808,85.148468 			"/>
			<polyline class="st2" points="45.9854317,84.5253296 46.2162247,84.2022171 46.4470177,83.8329468 46.6778107,83.3713608 
				46.8855247,82.840538 47.0701599,82.2404785 47.2547951,81.5711746 47.4394302,80.6018448 47.6009827,79.4940414 
				47.73946,78.0169678 			"/>
			<polyline class="st2" points="42.4773788,115.0823212 41.8542366,115.0823212 41.277256,114.9207687 40.7233505,114.7361374 
				40.1694489,114.5284195 39.6155472,114.2745514 39.0847206,113.9975967 38.5769768,113.7206421 38.046154,113.3744583 
				37.5614891,113.0282669 37.0768204,112.6589966 36.5921555,112.2666473 36.1536484,111.8281403 35.6920624,111.3896332 
				35.276638,110.9280472 34.8842888,110.4433823 34.4919395,109.9356384 34.122673,109.4048157 33.7764816,108.850914 
				33.453373,108.2970123 33.1533394,107.7200241 32.8763885,107.1430435 32.6225166,106.5199051 32.3686447,105.919838 
				32.1609306,105.2736206 31.9762955,104.6504822 31.8147411,104.0042572 31.6762657,103.3349609 31.5608692,102.665657 
				31.4685516,102.0194397 31.399313,101.3501358 31.3762341,100.6577606 31.3531551,99.9884567 31.3762341,99.3191605 
				31.399313,98.6498642 31.4685516,97.9805603 31.5608692,97.311264 31.6762657,96.6419601 31.8147411,95.9957428 
				31.9762955,95.3495178 32.1609306,94.7033005 32.3686447,94.080162 32.6225166,93.457016 32.8763885,92.8569565 
				33.1533394,92.256897 33.453373,91.6799088 33.7764816,91.1260071 34.122673,90.5721054 34.4919395,90.0412827 
				34.8842888,89.5335388 35.276638,89.0488739 35.6920624,88.5872879 36.1536484,88.1487808 36.5921555,87.7102737 
				37.0768204,87.3179245 37.5614891,86.9486542 38.046154,86.6024628 38.5769768,86.2793579 39.0847206,85.9793243 
				39.6155472,85.7023697 40.1694489,85.4485016 40.7233505,85.2407837 41.277256,85.0561523 41.8542366,84.8945999 
				42.4773788,84.8945999 			"/>
			<polyline class="st2" points="64.3334808,114.851532 64.102684,115.0130844 63.8488121,115.2208023 63.5949402,115.4746704 
				63.3410683,115.8208618 63.0871964,116.2132111 62.8564034,116.697876 62.6486893,117.2517776 62.4640541,117.8980026 
				62.2794189,118.6365356 62.0717087,119.7443466 61.9101524,120.9906235 61.794754,122.8138885 61.7485962,124.9141083 
				61.6793594,129.783844 61.4716454,135.599823 61.0100594,141.78508 60.5023155,146.0778351 59.94841,149.2858582 
				59.4406662,151.4783783 58.8406029,153.4401245 58.4020996,154.5940857 57.9174309,155.6095734 57.3866081,156.4635162 
				56.8096275,157.155899 56.1864853,157.6636353 55.5171852,157.9867401 54.7786484,158.1021423 54.0631905,157.9867401 
				53.3938904,157.6636353 52.7707481,157.155899 52.1937637,156.4635162 51.662941,155.6095734 51.1782761,154.5940857 
				50.739769,153.4401245 50.1397057,151.4783783 49.6319618,149.2858582 49.0780602,146.0778351 48.5703163,141.78508 
				48.0625687,134.7458954 47.8317757,124.9141083 47.8086967,123.3677902 47.73946,121.9830322 47.6009827,120.4828796 
				47.4394302,119.3750763 47.2547951,118.4288254 47.0701599,117.7364426 46.8855247,117.1363831 46.6778107,116.6055603 
				46.4470177,116.1670532 46.2162247,115.774704 45.9854317,115.4515915 			"/>
			<polyline class="st2" points="84.389389,114.851532 84.1816788,115.0130844 83.927803,115.2208023 83.650856,115.4746704 
				83.4200592,115.8208618 83.1661911,116.2132111 82.9353943,116.697876 82.727684,117.2517776 82.543045,117.8980026 
				82.3584137,118.6365356 82.1507034,119.7443466 81.9891434,120.9906235 81.8506699,122.8138885 81.804512,124.9141083 
				81.7583542,129.783844 81.5506363,135.599823 81.0890503,141.78508 80.5813065,146.0778351 80.0274048,149.2858582 
				79.5196609,151.4783783 78.9196014,153.4401245 78.4810944,154.5940857 77.9964218,155.6095734 77.4655991,156.4635162 
				76.8886185,157.155899 76.26548,157.6636353 75.5961761,157.9867401 74.8576431,158.1021423 74.1421814,157.9867401 
				73.4728851,157.6636353 72.8497391,157.155899 72.2727585,156.4635162 71.7419357,155.6095734 71.2572708,154.5940857 
				70.7956848,153.4401245 70.2187042,151.4783783 69.7109528,149.2858582 69.1570511,146.0778351 68.6493073,141.78508 
				68.1415634,134.7458954 67.9107666,124.9141083 67.8646088,122.8138885 67.7722931,121.3368149 67.6338196,120.0443726 
				67.4261017,118.8904114 67.2645493,118.1287918 67.0799179,117.4594955 66.8491211,116.8825073 66.6414108,116.3747635 
				66.410614,115.9362564 66.1567459,115.5900726 65.9028702,115.2900391 65.6259232,115.0823212 65.3720474,114.9207687 
				65.0950928,114.8284531 64.8181458,114.8053741 			"/>
			<polyline class="st2" points="104.4683838,114.851532 104.2606735,115.0130844 104.0067978,115.2208023 103.7298508,115.4746704 
				103.475975,115.8208618 103.2451859,116.2132111 103.014389,116.697876 102.8066788,117.2517776 102.5989609,117.8980026 
				102.4374084,118.6365356 102.2296906,119.7443466 102.0681381,120.9906235 101.9296646,122.8138885 101.8835068,124.9141083 
				101.8373413,129.783844 101.629631,135.599823 101.168045,141.78508 100.6603012,146.0778351 100.1063995,149.2858582 
				99.5986557,151.4783783 98.9985886,153.4401245 98.5600815,154.5940857 98.0754166,155.6095734 97.5445938,156.4635162 
				96.9676132,157.155899 96.3444748,157.6636353 95.6751709,157.9867401 94.9366302,158.1021423 94.2211761,157.9867401 
				93.5287933,157.6636353 92.9056549,157.155899 92.3286743,156.4635162 91.7978516,155.6095734 91.3131866,154.5940857 
				90.8746796,153.4401245 90.2976913,151.4783783 89.7899475,149.2858582 89.2360458,146.0778351 88.7052231,141.78508 
				88.2205582,134.7458954 87.9897614,124.9141083 87.9436035,122.8138885 87.8512878,121.3368149 87.6897354,120.0443726 
				87.5050964,118.8904114 87.343544,118.1287918 87.1358261,117.4594955 86.9281158,116.8825073 86.7204056,116.3747635 
				86.4665298,115.9362564 86.235733,115.5900726 85.9818649,115.2900391 85.7049103,115.0823212 85.4510422,114.9207687 
				85.1740875,114.8284531 84.8971405,114.8053741 			"/>
			<polyline class="st2" points="124.5473785,114.851532 124.3396683,115.0130844 124.0627136,115.2208023 123.8088379,115.4746704 
				123.5549698,115.8208618 123.324173,116.2132111 123.0933838,116.697876 122.8856659,117.2517776 122.6779556,117.8980026 
				122.5164032,118.6365356 122.3086853,119.7443466 122.1471329,120.9906235 122.0086517,122.8138885 121.9624939,124.9141083 
				121.9163361,129.783844 121.7086258,135.599823 121.2470398,141.78508 120.716217,146.0778351 120.1623077,149.2858582 
				119.6776428,151.4783783 119.0775833,153.4401245 118.6390762,154.5940857 118.1544113,155.6095734 117.6235886,156.4635162 
				117.046608,157.155899 116.4234619,157.6636353 115.7310867,157.9867401 115.015625,158.1021423 114.3001709,157.9867401 
				113.6077881,157.6636353 112.9846497,157.155899 112.4076691,156.4635162 111.8768387,155.6095734 111.3921738,154.5940857 
				110.9536667,153.4401245 110.3766861,151.4783783 109.8689423,149.2858582 109.3150406,146.0778351 108.7842178,141.78508 
				108.2995529,134.7458954 108.0687561,124.9141083 108.0225983,122.8138885 107.9302826,121.3368149 107.7687225,120.0443726 
				107.5840912,118.8904114 107.3994598,118.1287918 107.2148209,117.4594955 107.0071106,116.8825073 106.7993927,116.3747635 
				106.5455246,115.9362564 106.3147278,115.5900726 106.0377808,115.2900391 105.783905,115.0823212 105.506958,114.9207687 
				105.2530823,114.8284531 104.9761276,114.8053741 			"/>
			<polyline class="st2" points="144.6263733,114.851532 144.4186554,115.0130844 144.1417084,115.2208023 143.8878326,115.4746704 
				143.6339569,115.8208618 143.4031677,116.2132111 143.1723785,116.697876 142.9646606,117.2517776 142.7569427,117.8980026 
				142.5723114,118.6365356 142.3876801,119.7443466 142.22612,120.9906235 142.0876465,122.8138885 142.0414886,124.9141083 
				141.9953308,129.783844 141.7645416,135.599823 141.3260345,141.78508 140.7952118,146.0778351 140.2413025,149.2858582 
				139.7335663,151.4783783 139.1565704,153.4401245 138.7180634,154.5940857 138.2333984,155.6095734 137.7025757,156.4635162 
				137.1255951,157.155899 136.5024567,157.6636353 135.8100739,157.9867401 135.0946198,158.1021423 134.3560791,157.9867401 
				133.6867828,157.6636353 133.0636444,157.155899 132.4866638,156.4635162 131.9558411,155.6095734 131.4711761,154.5940857 
				131.0326691,153.4401245 130.4326019,151.4783783 129.9248505,149.2858582 129.3940277,146.0778351 128.863205,141.78508 
				128.3554688,134.7458954 128.1477509,124.9141083 128.101593,122.8138885 127.9861984,121.3368149 127.8477173,120.0443726 
				127.6630859,118.8904114 127.478447,118.1287918 127.2938156,117.4594955 127.0861053,116.8825073 126.8553085,116.3747635 
				126.6245193,115.9362564 126.3706436,115.5900726 126.1167679,115.2900391 125.8628998,115.0823212 125.5859451,114.9207687 
				125.332077,114.8284531 125.0551224,114.8053741 			"/>
			<polyline class="st2" points="165.2131042,115.4515915 163.9899139,115.4515915 163.8052673,115.6823883 163.620636,115.9593353 
				163.3898468,116.3747635 163.1821289,116.8594284 162.974411,117.4364166 162.7897797,118.082634 162.582077,118.9827271 
				162.420517,120.0212936 162.2820435,121.1983414 162.1666412,122.7908096 162.1204834,124.9141083 162.051239,129.783844 
				161.8435364,135.599823 161.3819427,141.78508 160.8742065,146.0778351 160.3202972,149.2858582 159.8125458,151.4783783 
				159.2355652,153.4401245 158.7739868,154.5940857 158.2893219,155.6095734 157.7584991,156.4635162 157.1815186,157.155899 
				156.5583649,157.6636353 155.8890686,157.9867401 155.1736145,158.1021423 154.4350739,157.9867401 153.7657776,157.6636353 
				153.1426392,157.155899 152.5656586,156.4635162 152.0348206,155.6095734 151.5501556,154.5940857 151.1116486,153.4401245 
				150.5115967,151.4783783 150.0038452,149.2858582 149.4499512,146.0778351 148.9421997,141.78508 148.4344635,134.7458954 
				148.2267456,124.9141083 148.1805878,122.8138885 148.0651855,121.3368149 147.926712,120.0443726 147.7189941,118.8904114 
				147.5574493,118.1287918 147.3728027,117.4594955 147.1651001,116.8825073 146.9342957,116.3747635 146.7035065,115.9362564 
				146.4496307,115.5900726 146.1957703,115.2900391 145.9418945,115.0823212 145.6649475,114.9207687 145.3879852,114.8284531 
				145.1341095,114.8053741 			"/>
			<polyline class="st1" points="54.7786484,160.5485535 53.9939499,160.4562378 53.2554131,160.1562042 52.586113,159.7176971 
				51.9398918,159.0945587 51.3398323,158.3098602 50.7859268,157.3866882 50.278183,156.3250427 49.816597,155.1249084 
				49.1703758,153.1400909 48.6395531,150.9013977 48.0164108,147.6241455 47.4394302,143.146759 46.9086037,136.4537659 
				46.6778107,130.5916138 46.6085739,124.9141083 46.5624161,122.9292908 46.4700966,121.4522095 46.3316231,120.4136429 
				46.1931458,119.6751022 46.0315933,119.0288849 45.893116,118.6134567 45.7546387,118.2441864 45.6161652,117.9441605 
				45.4546089,117.6902847 45.3392143,117.5518112 45.2238159,117.4594955 45.1084213,117.3671722 44.9930229,117.2979355 
				44.8776283,117.2748566 44.7622299,117.2517776 44.0929298,117.2286987 43.5621071,117.2056198 43.4467087,117.1825409 
				42.8004875,117.1133041 42.1542702,116.9979095 41.508049,116.8363495 40.8849068,116.6747971 40.2617645,116.4440002 
				39.6386261,116.2132111 39.0385628,115.9362564 38.4384995,115.6362305 37.8384399,115.313118 37.2845345,114.9438477 
				36.7306328,114.5514984 36.1767311,114.1360703 35.6459045,113.6744843 35.1381607,113.2128983 34.6534958,112.7282333 
				34.1919098,112.1974106 33.7303238,111.6435089 33.2918167,111.0896072 32.8994675,110.4895401 32.507122,109.8894806 
				32.1378517,109.2663422 31.8147411,108.6201172 31.4916306,107.9508209 31.1916008,107.281517 30.937727,106.5891418 
				30.706934,105.896759 30.4992218,105.1813049 30.3145866,104.4658432 30.1530323,103.7273102 30.0376358,102.9887695 
				29.9222393,102.2502289 29.8530006,101.4886169 29.8068428,100.7500763 29.8068428,99.9884567 29.8068428,99.2268448 
				29.8530006,98.4883041 29.9222393,97.7266922 30.0376358,96.9881516 30.1530323,96.2496109 30.3145866,95.5341568 
				30.4992218,94.7956161 30.706934,94.080162 30.937727,93.3877792 31.1916008,92.6954041 31.4916306,92.0261002 
				31.8147411,91.3568039 32.1378517,90.7105789 32.507122,90.0874405 32.8994675,89.487381 33.2918167,88.8873138 
				33.7303238,88.3334122 34.1919098,87.7795105 34.6534958,87.2717667 35.1381607,86.7640228 35.6459045,86.3024368 
				36.1767311,85.8408508 36.7306328,85.4254227 37.2845345,85.0330734 37.8384399,84.686882 38.4384995,84.3406906 
				39.0385628,84.0406647 39.6386261,83.76371 40.2617645,83.5329208 40.8849068,83.3252029 41.508049,83.1405716 
				42.1542702,83.0020905 42.8004875,82.8866959 43.4467087,82.7943802 43.5621071,82.7943802 44.0929298,82.7482224 
				44.7622299,82.7251434 44.8776283,82.7251434 44.9930229,82.6789856 45.1084213,82.6097488 45.2238159,82.5405045 
				45.3392143,82.4251099 45.4546089,82.2866364 45.6161652,82.0327606 45.7546387,81.7327347 45.893116,81.3634644 
				46.0315933,80.9480362 46.1931458,80.3248978 46.3316231,79.5863571 46.4700966,78.5247116 46.5624161,77.0476303 
				46.6085739,75.0628128 46.6778107,69.3853073 46.9086037,63.5231628 47.4394302,56.8301659 48.0164108,52.3527794 
				48.6395531,49.0755196 49.1703758,46.8599052 49.816597,44.852005 50.278183,43.6518822 50.7859268,42.5902367 
				51.3398323,41.6670647 51.9398918,40.9054451 52.586113,40.2823029 53.2554131,39.8207169 53.9939499,39.543766 
				54.7786484,39.4514503 			"/>
			<polyline class="st1" points="163.9899139,84.5253296 163.3898468,84.5484085 162.8128662,84.5714874 162.2358856,84.6638031 
				161.7050629,84.8945999 161.1742249,85.2407837 160.6203308,85.4485016 160.0664215,85.7023697 159.5355988,85.9793243 
				159.0278625,86.2793579 158.4970398,86.6024628 158.0123749,86.9486542 157.5276947,87.3179245 157.0430298,87.7102737 
				156.6045227,88.1487808 156.1660309,88.5872879 155.7275238,89.0488739 155.3351746,89.5335388 154.9428253,90.0412827 
				154.5735474,90.5721054 154.227356,91.1260071 153.9042511,91.6799088 153.6042175,92.256897 153.3272705,92.8569565 
				153.0733948,93.457016 152.819519,94.080162 152.6118164,94.7033005 152.4271698,95.3495178 152.265625,95.9957428 
				152.1271515,96.6419601 152.0117493,97.311264 151.9194336,97.9805603 151.8501892,98.6498642 151.8271179,99.3191605 
				151.8040314,99.9884567 151.8271179,100.6577606 151.8501892,101.3501358 151.9194336,102.0194397 152.0117493,102.665657 
				152.1271515,103.3349609 152.265625,104.0042572 152.4271698,104.6504822 152.6118164,105.2736206 152.819519,105.919838 
				153.0733948,106.5199051 153.3272705,107.1430435 153.6042175,107.7200241 153.9042511,108.2970123 154.227356,108.850914 
				154.5735474,109.4048157 154.9428253,109.9356384 155.3351746,110.4433823 155.7275238,110.9280472 156.1660309,111.3896332 
				156.6045227,111.8281403 157.0430298,112.2666473 157.5276947,112.6589966 158.0123749,113.0282669 158.4970398,113.3744583 
				159.0278625,113.7206421 159.5355988,113.9975967 160.0664215,114.2745514 160.6203308,114.5284195 161.1742249,114.7361374 
				161.7050629,115.0823212 162.2358856,115.3361969 162.8128662,115.4054337 163.3898468,115.4515915 163.9899139,115.4515915 			
				"/>
			<polyline class="st2" points="45.9854317,115.4515915 45.3853722,115.4515915 44.7853088,115.4285126 44.1621666,115.4515915 
				43.585186,115.4054337 43.0082016,115.3361969 42.4773788,115.0823212 41.9465561,114.7361374 41.3926506,114.5284195 
				40.8387489,114.2745514 40.3079262,113.9975967 39.8001785,113.7206421 39.2693558,113.3744583 38.7846909,113.0282669 
				38.3000259,112.6589966 37.815361,112.2666473 37.353775,111.8281403 36.9152679,111.3896332 36.4998398,110.9280472 
				36.1074905,110.4433823 35.7151451,109.9356384 35.3458748,109.4048157 34.9996834,108.850914 34.6765747,108.2970123 
				34.376545,107.7200241 34.0995903,107.1430435 33.8457184,106.5199051 33.5918465,105.919838 33.3841324,105.2736206 
				33.199501,104.6504822 33.0379448,104.0042572 32.8994675,103.3349609 32.7840729,102.665657 32.6917534,102.0194397 
				32.6225166,101.3501358 32.5994377,100.6577606 32.5763588,99.9884567 32.5994377,99.3191605 32.6225166,98.6498642 
				32.6917534,97.9805603 32.7840729,97.311264 32.8994675,96.6419601 33.0379448,95.9957428 33.199501,95.3495178 
				33.3841324,94.7033005 33.5918465,94.080162 33.8457184,93.457016 34.0995903,92.8569565 34.376545,92.256897 
				34.6765747,91.6799088 34.9996834,91.1260071 35.3458748,90.5721054 35.7151451,90.0412827 36.1074905,89.5335388 
				36.4998398,89.0488739 36.9152679,88.5872879 37.353775,88.1487808 37.815361,87.7102737 38.3000259,87.3179245 
				38.7846909,86.9486542 39.2693558,86.6024628 39.8001785,86.2793579 40.3079262,85.9793243 40.8387489,85.7023697 
				41.3926506,85.4485016 41.9465561,85.2407837 42.4773788,84.8945999 43.0082016,84.6638031 43.585186,84.5714874 
				44.1621666,84.5484085 44.7853088,84.5484085 45.3853722,84.5484085 45.9854317,84.5253296 			"/>
			<polyline class="st2" points="161.7050629,84.8945999 161.0819092,84.8945999 160.5049286,85.0561523 159.9510345,85.2407837 
				159.3971252,85.4485016 158.8663025,85.7023697 158.3123932,85.9793243 157.804657,86.2793579 157.2738342,86.6024628 
				156.7891693,86.9486542 156.3045044,87.3179245 155.8198395,87.7102737 155.3813324,88.1487808 154.9428253,88.5872879 
				154.5043182,89.0488739 154.111969,89.5335388 153.7196198,90.0412827 153.3503418,90.5721054 153.0041656,91.1260071 
				152.6810455,91.6799088 152.381012,92.256897 152.1040649,92.8569565 151.8501892,93.457016 151.5963287,94.080162 
				151.3886108,94.7033005 151.2039795,95.3495178 151.0424194,95.9957428 150.9039459,96.6419601 150.7885437,97.311264 
				150.696228,97.9805603 150.6269836,98.6498642 150.6039124,99.3191605 150.5808258,99.9884567 150.6039124,100.6577606 
				150.6269836,101.3501358 150.696228,102.0194397 150.7885437,102.665657 150.9039459,103.3349609 151.0424194,104.0042572 
				151.2039795,104.6504822 151.3886108,105.2736206 151.5963287,105.919838 151.8501892,106.5199051 152.1040649,107.1430435 
				152.381012,107.7200241 152.6810455,108.2970123 153.0041656,108.850914 153.3503418,109.4048157 153.7196198,109.9356384 
				154.111969,110.4433823 154.5043182,110.9280472 154.9428253,111.3896332 155.3813324,111.8281403 155.8198395,112.2666473 
				156.3045044,112.6589966 156.7891693,113.0282669 157.2738342,113.3744583 157.804657,113.7206421 158.3123932,113.9975967 
				158.8663025,114.2745514 159.3971252,114.5284195 159.9510345,114.7361374 160.5049286,114.9207687 161.0819092,115.0823212 
				161.7050629,115.0823212 			"/>
			<polyline class="st2" points="64.3334808,85.148468 64.56427,85.148468 64.8181458,85.1715469 			"/>
			<polyline class="st1" points="64.3334808,114.851532 63.8026543,114.7592163 63.410305,114.7130585 62.8564034,114.6207352 
				62.3255806,114.4822617 61.7716751,114.3207092 61.4254875,114.2283936 60.9408226,114.0206757 60.409996,113.7898865 
				59.9022522,113.5360107 59.3945084,113.2359772 59.048317,113.005188 58.6098099,112.7051544 58.1482239,112.358963 
				57.6866379,111.9666214 57.2250519,111.5511932 56.8096275,111.1126862 56.4172783,110.6741791 56.1172485,110.3279877 
				55.7479782,109.8202438 55.3787079,109.3125 55.0325203,108.7585983 54.7094078,108.204689 54.4093781,107.6507874 
				54.1324272,107.0507278 53.8785553,106.4506683 53.6477623,105.8506012 53.4400482,105.2274628 53.2554131,104.6043243 
				53.0938568,103.9811783 52.9784622,103.3580399 52.8630638,102.688736 52.7707481,102.0194397 52.7015114,101.3501358 
				52.6553497,100.6808395 52.6553497,99.9884567 52.6553497,99.3191605 52.7015114,98.6267853 52.7707481,97.9574814 
				52.8630638,97.2881851 52.9784622,96.6188812 53.0938568,95.9957428 53.2554131,95.3956757 53.4400482,94.7494583 
				53.6477623,94.1263199 53.8785553,93.5262527 54.1324272,92.9261932 54.4093781,92.3492126 54.7094078,91.7722321 
				55.0325203,91.2183228 55.3787079,90.6644211 55.7479782,90.1566772 56.1172485,89.6489334 56.4172783,89.302742 
				56.8096275,88.8642349 57.2250519,88.4257278 57.6866379,88.0102997 58.1482239,87.641037 58.6098099,87.2717667 
				59.048317,86.9717331 59.3945084,86.7409439 59.9022522,86.4639893 60.409996,86.1870346 60.9408226,85.9562454 
				61.4254875,85.7716064 61.7716751,85.6562119 62.3255806,85.4946594 62.8564034,85.3792648 63.410305,85.2638626 
				63.8026543,85.2177048 64.3334808,85.148468 			"/>
			<polyline class="st2" points="64.8181458,114.8053741 64.56427,114.8284531 64.3334808,114.851532 			"/>
			<polyline class="st2" points="104.4683838,85.148468 104.6991806,85.148468 104.9761276,85.1715469 			"/>
			<polyline class="st1" points="104.4683838,114.851532 103.96064,114.7592163 103.5682907,114.7130585 103.014389,114.6207352 
				102.4604874,114.4822617 101.9296646,114.3207092 101.5834732,114.2283936 101.0988083,114.0206757 100.5679855,113.7898865 
				100.0602417,113.5360107 99.5524979,113.2359772 99.1832275,113.005188 98.7677994,112.7051544 98.2831345,112.358963 
				97.8215485,111.9666214 97.3830414,111.5511932 96.9676132,111.1126862 96.575264,110.6741791 96.2752304,110.3279877 
				95.8828888,109.8202438 95.5366974,109.3125 95.190506,108.7585983 94.8673935,108.204689 94.5673676,107.6507874 
				94.2904129,107.0507278 94.0365372,106.4506683 93.805748,105.8506012 93.5980377,105.2274628 93.4133987,104.6043243 
				93.2518463,103.9811783 93.1133652,103.3580399 92.9979706,102.688736 92.9056549,102.0194397 92.8594971,101.3501358 
				92.8133392,100.6808395 92.7902603,99.9884567 92.8133392,99.3191605 92.8594971,98.6267853 92.9056549,97.9574814 
				92.9979706,97.2881851 93.1133652,96.6188812 93.2518463,95.9957428 93.4133987,95.3956757 93.5980377,94.7494583 
				93.805748,94.1263199 94.0365372,93.5262527 94.2904129,92.9261932 94.5673676,92.3492126 94.8673935,91.7722321 
				95.190506,91.2183228 95.5366974,90.6644211 95.8828888,90.1566772 96.2752304,89.6489334 96.575264,89.302742 
				96.9676132,88.8642349 97.3830414,88.4257278 97.8215485,88.0102997 98.2831345,87.641037 98.7677994,87.2717667 
				99.1832275,86.9717331 99.5524979,86.7409439 100.0602417,86.4639893 100.5679855,86.1870346 101.0988083,85.9562454 
				101.5834732,85.7716064 101.9296646,85.6562119 102.4604874,85.4946594 103.014389,85.3792648 103.5682907,85.2638626 
				103.96064,85.2177048 104.4683838,85.148468 			"/>
			<polyline class="st2" points="104.9761276,114.8053741 104.6991806,114.8284531 104.4683838,114.851532 			"/>
			<polyline class="st2" points="144.6263733,114.851532 144.8571625,114.8284531 145.1341095,114.8053741 			"/>
			<polyline class="st1" points="144.6263733,85.148468 144.0955505,85.2177048 143.7262726,85.2638626 143.1723785,85.3792648 
				142.6184692,85.4946594 142.0645752,85.6562119 141.7414551,85.7716064 141.2337189,85.9562454 140.7259674,86.1870346 
				140.1951447,86.4639893 139.6874084,86.7409439 139.341217,86.9717331 138.9257812,87.2717667 138.4411163,87.641037 
				137.979538,88.0102997 137.5410309,88.4257278 137.1025238,88.8642349 136.7101746,89.302742 136.4332123,89.6489334 
				136.0408783,90.1566772 135.6716003,90.6644211 135.3484955,91.2183228 135.0253754,91.7722321 134.7253571,92.3492126 
				134.4483948,92.9261932 134.1945343,93.5262527 133.9637299,94.1263199 133.7329407,94.7494583 133.5483093,95.3956757 
				133.4098358,95.9957428 133.2713623,96.6188812 133.1559601,97.2881851 133.0636444,97.9574814 132.9944,98.6267853 
				132.9713287,99.3191605 132.9482422,99.9884567 132.9713287,100.6808395 132.9944,101.3501358 133.0636444,102.0194397 
				133.1559601,102.688736 133.2713623,103.3580399 133.4098358,103.9811783 133.5483093,104.6043243 133.7329407,105.2274628 
				133.9637299,105.8506012 134.1945343,106.4506683 134.4483948,107.0507278 134.7253571,107.6507874 135.0253754,108.204689 
				135.3484955,108.7585983 135.6716003,109.3125 136.0408783,109.8202438 136.4332123,110.3279877 136.7101746,110.6741791 
				137.1025238,111.1126862 137.5410309,111.5511932 137.979538,111.9666214 138.4411163,112.358963 138.9257812,112.7051544 
				139.341217,113.005188 139.6874084,113.2359772 140.1951447,113.5360107 140.7259674,113.7898865 141.2337189,114.0206757 
				141.7414551,114.2283936 142.0645752,114.3207092 142.6184692,114.4822617 143.1723785,114.6207352 143.7262726,114.7130585 
				144.0955505,114.7592163 144.6263733,114.851532 			"/>
			<polyline class="st2" points="145.1341095,85.1715469 144.8571625,85.148468 144.6263733,85.148468 			"/>
			<polyline class="st2" points="124.5473785,114.851532 124.7781754,114.8284531 125.0551224,114.8053741 			"/>
			<polyline class="st1" points="124.5473785,85.148468 124.0396347,85.2177048 123.6472855,85.2638626 123.0933838,85.3792648 
				122.5394821,85.4946594 121.9855728,85.6562119 121.662468,85.7716064 121.177803,85.9562454 120.6469803,86.1870346 
				120.1161499,86.4639893 119.631485,86.7409439 119.2622223,86.9717331 118.8467941,87.2717667 118.3621292,87.641037 
				117.9005432,88.0102997 117.4620361,88.4257278 117.0235291,88.8642349 116.6311798,89.302742 116.3542252,89.6489334 
				115.9618759,90.1566772 115.6156921,90.6644211 115.2695007,91.2183228 114.9463882,91.7722321 114.6463547,92.3492126 
				114.3694077,92.9261932 114.1155319,93.5262527 113.8847427,94.1263199 113.6770248,94.7494583 113.4923935,95.3956757 
				113.3308411,95.9957428 113.1923599,96.6188812 113.0769653,97.2881851 112.9846497,97.9574814 112.9384918,98.6267853 
				112.892334,99.3191605 112.8692551,99.9884567 112.892334,100.6808395 112.9384918,101.3501358 112.9846497,102.0194397 
				113.0769653,102.688736 113.1923599,103.3580399 113.3308411,103.9811783 113.4923935,104.6043243 113.6770248,105.2274628 
				113.8847427,105.8506012 114.1155319,106.4506683 114.3694077,107.0507278 114.6463547,107.6507874 114.9463882,108.204689 
				115.2695007,108.7585983 115.6156921,109.3125 115.9618759,109.8202438 116.3542252,110.3279877 116.6311798,110.6741791 
				117.0235291,111.1126862 117.4620361,111.5511932 117.9005432,111.9666214 118.3621292,112.358963 118.8467941,112.7051544 
				119.2622223,113.005188 119.631485,113.2359772 120.1161499,113.5360107 120.6469803,113.7898865 121.177803,114.0206757 
				121.662468,114.2283936 121.9855728,114.3207092 122.5394821,114.4822617 123.0933838,114.6207352 123.6472855,114.7130585 
				124.0396347,114.7592163 124.5473785,114.851532 			"/>
			<polyline class="st2" points="125.0551224,85.1715469 124.7781754,85.148468 124.5473785,85.148468 			"/>
			<polyline class="st2" points="84.389389,85.148468 84.6432648,85.148468 84.8971405,85.1715469 			"/>
			<polyline class="st1" points="84.389389,114.851532 83.8816452,114.7592163 83.489296,114.7130585 82.9353943,114.6207352 
				82.3814926,114.4822617 81.8506699,114.3207092 81.5044785,114.2283936 81.0198135,114.0206757 80.4889908,113.7898865 
				79.9812469,113.5360107 79.4735031,113.2359772 79.1042328,113.005188 78.6888046,112.7051544 78.2041397,112.358963 
				77.7656326,111.9666214 77.3040466,111.5511932 76.8886185,111.1126862 76.4962692,110.6741791 76.1962433,110.3279877 
				75.826973,109.8202438 75.4577026,109.3125 75.1115112,108.7585983 74.7883987,108.204689 74.4883728,107.6507874 
				74.2114182,107.0507278 73.95755,106.4506683 73.7267532,105.8506012 73.519043,105.2274628 73.334404,104.6043243 
				73.1728516,103.9811783 73.057457,103.3580399 72.9420547,102.688736 72.8497391,102.0194397 72.7805023,101.3501358 
				72.7343445,100.6808395 72.7343445,99.9884567 72.7343445,99.3191605 72.7805023,98.6267853 72.8497391,97.9574814 
				72.9420547,97.2881851 73.057457,96.6188812 73.1728516,95.9957428 73.334404,95.3956757 73.519043,94.7494583 
				73.7267532,94.1263199 73.95755,93.5262527 74.2114182,92.9261932 74.4883728,92.3492126 74.7883987,91.7722321 
				75.1115112,91.2183228 75.4577026,90.6644211 75.826973,90.1566772 76.1962433,89.6489334 76.4962692,89.302742 
				76.8886185,88.8642349 77.3040466,88.4257278 77.7656326,88.0102997 78.2041397,87.641037 78.6888046,87.2717667 
				79.1042328,86.9717331 79.4735031,86.7409439 79.9812469,86.4639893 80.4889908,86.1870346 81.0198135,85.9562454 
				81.5044785,85.7716064 81.8506699,85.6562119 82.3814926,85.4946594 82.9353943,85.3792648 83.489296,85.2638626 
				83.8816452,85.2177048 84.389389,85.148468 			"/>
			<polyline class="st2" points="84.8971405,114.8053741 84.6432648,114.8284531 84.389389,114.851532 			"/>
			<polyline class="st2" points="47.73946,78.0169678 47.7856178,77.1399536 47.8086967,76.7014465 47.8317757,75.0628128 
				48.0625687,65.2541122 48.5703163,58.1918449 49.0780602,53.8990936 			"/>
		</g>
	</g>
</g>
<g>
	<path d="M35.6507416,124.8656769v1.8661804c-0.5138779-0.2434158-1.0333862-0.4293594-1.5562782-0.5578232
		c-0.5251427-0.1284714-1.0435257-0.1927032-1.5573997-0.1927032c-1.3523026,0-2.3856888,0.456398-3.0990276,1.3692017
		c-0.7133408,0.9128036-1.1201572,2.2921524-1.2215805,4.1380539c0.3989296-0.5882568,0.8992805-1.0401459,1.5010567-1.3534393
		c0.6017742-0.3155365,1.2644024-0.472168,1.9878845-0.472168c1.5213413,0,2.7226353,0.460907,3.606142,1.3849792
		c0.8812485,0.921814,1.3230019,2.1783295,1.3230019,3.7672882c0,1.5551453-0.4597816,2.8026428-1.3793488,3.7424927
		s-2.1433983,1.4097748-3.6715031,1.4097748c-1.7512321,0-3.0900116-0.670517-4.0163383-2.0137939
		c-0.9263287-1.3410339-1.389492-3.2872314-1.389492-5.836319c0-2.3935699,0.5679684-4.3014526,1.7039013-5.7258759
		c1.1359348-1.4221725,2.660656-2.1343842,4.5741653-2.1343842c0.5138741,0,1.0322571,0.0507126,1.5574036,0.1521378
		C34.5362167,124.5106964,35.0827713,124.6628342,35.6507416,124.8656769z M31.5836887,131.2857361
		c-0.9195652,0-1.6475544,0.3144073-2.1862221,0.9432373c-0.5364132,0.6288147-0.805748,1.4909058-0.805748,2.5862732
		c0,1.0886078,0.2693348,1.9495697,0.805748,2.5817719c0.5386677,0.6322021,1.2666569,0.9477386,2.1862221,0.9477386
		s1.6475582-0.3155365,2.186224-0.9477386c0.5364151-0.6322021,0.805748-1.4931641,0.805748-2.5817719
		c0-1.0953674-0.2693329-1.9574585-0.805748-2.5862732C33.2312469,131.6001434,32.5032539,131.2857361,31.5836887,131.2857361z"/>
</g>
</svg>
