<?xml version="1.0" encoding="utf-8"?>
<!-- Generator: Adobe Illustrator 21.0.0, SVG Export Plug-In . SVG Version: 6.00 Build 0)  -->
<svg version="1.1" id="Layer_1" xmlns="http://www.w3.org/2000/svg" xmlns:xlink="http://www.w3.org/1999/xlink" x="0px" y="0px"
	 viewBox="0 0 161.7082062 200" style="enable-background:new 0 0 161.7082062 200;" xml:space="preserve">
<style type="text/css">
	.st0{fill:none;stroke:#000000;stroke-width:1.5;stroke-linecap:round;stroke-linejoin:round;}
</style>
<g>
	<g>
		<polyline class="st0" points="22.4988556,56.5023422 27.5240154,56.5023422 27.593895,56.5087433 27.7580357,56.5235939 
			28.8498096,56.6036873 28.9497929,56.6109085 29.8791981,56.6678467 30.0535545,56.6991768 30.3191757,56.7468491 
			30.3961391,56.7587013 31.8441181,56.9808693 32.3259163,57.0447578 33.2196312,57.1632652 33.4830742,57.2206116 
			34.5627251,57.4246635 35.2177887,57.5484848 36.9760704,57.8353577 37.0110779,57.8410759 37.1298599,57.8575592 
			38.0452347,57.9845123 38.8431892,58.1385727 39.4436302,58.2351494 40.6758461,58.4333458 40.6904221,58.4356613 
			41.058342,58.4830666 41.850441,58.5850906 42.5343819,58.6729507 44.0561905,58.8182945 44.3590012,58.8471718 
			46.0607529,58.9493332 46.1498375,58.9546471 47.871067,58.9908791 47.8924561,58.9914246 49.4431419,58.9565544 
			49.5123405,58.9549179 50.7772446,58.8618813 50.9605942,58.8483963 51.9127464,58.719265 52.2346268,58.6754036 
			52.8779755,58.5370064 53.3299408,58.4392052 53.6937752,58.3212395 54.2400017,58.1427956 54.3755379,58.0763245 
			54.561203,57.9845123 54.9140015,57.8545609 54.9363403,57.8462524 54.9415169,57.8443451 55.3193817,57.6142769 
			55.4208641,57.5520248 55.5720634,57.3663635 55.6810379,57.2276955 55.6894798,57.1632652 55.6893463,57.1548195 
			55.689209,57.1229439 55.6826706,56.984005 55.6332245,56.9372826 55.4129639,56.8186378 55.3234673,56.8646774 
			54.8695946,56.7215157 54.8573341,56.7186546 54.772747,56.6999931 54.1882401,56.552063 54.086895,56.5244102 
			53.8246803,56.5023422 53.1362419,56.5581894 53.0005684,56.5692253 51.7754402,56.6510887 51.7077408,56.7305031 
			51.5148582,56.7456245 51.298275,56.6991768 50.2652092,56.8703995 49.9098206,56.9589386 48.6791039,57.1183128 
			48.1372337,57.1632652 47.9532089,57.2044029 47.6705589,57.2763252 46.9875679,57.4192162 45.5443573,57.6501007 
			45.2202988,57.7601662 44.9726562,57.8579674 43.3900948,58.0624275 43.1425896,58.0255127 41.5669746,58.361969 
			41.058342,58.4830666 		"/>
		<polyline class="st0" points="22.4988556,143.4976501 27.491869,143.4976501 27.7262974,143.4763336 28.0363255,143.4535675 
			28.9184628,143.3887329 29.1896706,143.3720856 29.8403759,143.3321228 30.2889366,143.2510986 30.429512,143.2294006 
			31.2186127,143.1075745 31.7287426,143.0288391 31.8153763,143.0154724 33.1358604,142.8391266 33.1565628,142.8368378 
			33.4567833,142.7707977 34.5146408,142.5693817 35.1950417,142.439682 35.9521332,142.3153076 36.9952774,142.1436768 
			37.4465637,142.0805206 37.9109268,142.0155029 38.8400574,141.8339233 38.9285965,141.8194885 39.3128624,141.756897 
			40.4501343,141.5719604 40.6759834,141.5352173 40.7003632,141.53125 41.0396805,141.4871063 42.0190773,141.3596954 
			42.5589027,141.2893829 43.6279259,141.1862335 44.3995934,141.1116943 45.2761459,141.0585022 46.2063675,141.0020142 
			46.9622345,140.9858704 47.9638329,140.9644623 48.6594887,140.9803619 49.5972023,141.0017548 50.2973557,141.0541687 
			51.054718,141.1107025 51.8233871,141.217041 52.3336525,141.2874146 53.2033958,141.4788971 53.428833,141.5283508 
			54.1206779,141.7591095 54.3334465,141.8304291 54.3853455,141.8569794 54.6956482,142.0155029 55.027607,142.1408539 
			55.2000542,142.2497406 55.4978256,142.4366913 55.6642799,142.6587372 55.7450562,142.7640991 55.7505074,142.8368378 
			55.7378387,142.9954376 55.7370224,143.0131683 55.6317253,143.1075592 55.4746666,143.2487793 55.4069672,143.2816315 
			55.3030357,143.3321228 54.9345703,143.3879089 54.7723351,143.3558197 54.1178169,143.464447 53.8568268,143.4976501 
			53.8114662,143.4922028 53.0263138,143.3970337 52.7696838,143.3726196 51.7398872,143.2686157 51.5858269,143.2575989 
			51.5113144,143.3295593 50.294632,143.1267395 50.2785568,143.0771484 48.9283791,142.9152069 48.7086639,142.8892365 
			48.202755,142.8368378 47.5325699,142.6865082 47.0129051,142.5693359 46.152153,142.4026642 45.240593,142.2243958 
			44.7153435,142.1377563 43.5045166,142.0155029 43.4165192,141.9171448 43.321167,141.8226776 42.8888168,141.7562408 
			41.79105,141.5878296 41.5642471,141.5530243 41.0396805,141.4871063 		"/>
		<polyline class="st0" points="44.1648941,96.2090149 44.2475777,100.0000534 43.9172516,107.5532532 43.5065575,111.2580643 
			42.9359474,114.8770676 41.3337708,121.7487717 40.3143272,124.9491806 39.1593475,127.9596939 36.478611,133.3211823 
			34.9734192,135.6311951 33.3731461,137.6700745 29.9373608,140.8744354 28.1278629,142.0155029 26.2754555,142.8368378 
			25.6583958,142.9710388 25.5345745,142.999527 22.4988556,143.4976501 20.6032677,143.3321228 18.7221203,142.8368378 
			15.060214,140.8744354 13.3073816,139.4222717 11.6244278,137.6700745 8.5189667,133.3211823 7.1200242,130.7574463 
			5.8382277,127.9596939 3.663805,121.7487717 2.7876613,118.3828659 2.0616279,114.8770676 1.0803248,107.5532532 
			0.75,100.0000534 0.8326834,96.2090149 1.0803248,92.4467163 2.0616279,85.1229095 2.7876613,81.6171036 3.663805,78.2511978 
			5.8382277,72.0402756 7.1200242,69.2425232 8.5189667,66.6789322 11.6244278,62.3299522 13.3073816,60.5778008 
			15.060214,59.1255989 18.7221203,57.1632652 20.6032677,56.6678467 22.4988556,56.5023422 24.3943081,56.6678467 
			25.5860653,56.9816895 25.7006226,57.0380821 26.2754555,57.1632652 28.1278629,57.9845123 29.9373608,59.1255989 
			33.3731461,62.3299522 34.9734192,64.3688431 36.478611,66.6789322 39.1593475,72.0402756 40.3143272,75.0507965 
			41.3337708,78.2511978 42.9359474,85.1229095 43.5065575,88.7420425 43.9172516,92.4467163 44.2475777,100.0000534 
			44.1648941,103.7910919 43.9172516,107.5532532 42.9359474,114.8770676 42.2099152,118.3828659 41.3337708,121.7487717 
			39.1593475,127.9596939 37.877552,130.7574463 36.478611,133.3211823 33.3731461,137.6700745 31.6901951,139.4222717 
			29.9373608,140.8744354 26.2754555,142.8368378 25.6583958,142.9710388 25.5345745,142.999527 24.3943081,143.3321228 
			22.4988556,143.4976501 18.7221203,142.8368378 16.8698502,142.0155029 15.060214,140.8744354 11.6244278,137.6700745 
			10.0241575,135.6311951 8.5189667,133.3211823 5.8382277,127.9596939 4.6832485,124.9491806 3.663805,121.7487717 
			2.0616279,114.8770676 1.4910172,111.2580643 1.0803248,107.5532532 0.8326834,103.7910919 0.75,100.0000534 
			1.0803248,92.4467163 1.4910172,88.7420425 2.0616279,85.1229095 3.663805,78.2511978 4.6832485,75.0507965 5.8382277,72.0402756 
			8.5189667,66.6789322 10.0241575,64.3688431 11.6244278,62.3299522 15.060214,59.1255989 16.8698502,57.9845123 
			18.7221203,57.1632652 22.4988556,56.5023422 25.6030922,57.0455742 25.7006226,57.0380821 26.2754555,57.1632652 
			29.9373608,59.1255989 31.6901951,60.5778008 33.3731461,62.3299522 36.478611,66.6789322 37.877552,69.2425232 
			39.1593475,72.0402756 41.3337708,78.2511978 42.2099152,81.6171036 42.9359474,85.1229095 43.9172516,92.4467163 
			44.1648941,96.2090149 		"/>
		<polyline class="st0" points="40.6758461,58.4333458 41.5669746,58.361969 42.8189392,58.2294312 43.3900948,58.0624275 
			43.4084816,57.9801559 44.2233276,57.8574219 45.2202988,57.7601662 45.3185081,57.7925835 46.9875679,57.4192162 
			47.9532089,57.2044029 48.1372337,57.1632652 48.6818275,57.095974 49.9098206,56.9589386 50.2507706,56.9675217 
			51.5148582,56.7456245 51.7077408,56.7305031 52.505558,56.6994476 52.9864044,56.6361084 53.0598221,56.6243935 
			53.8246803,56.5023422 58.8505211,56.5023422 60.7459717,56.6678467 62.627121,57.1632652 64.4795227,57.9845123 
			66.2890244,59.1255989 68.0418549,60.5778008 69.7248077,62.3299522 71.3250809,64.3688431 72.8302765,66.6789322 
			74.2292175,69.2425232 75.5110092,72.0402756 76.6659927,75.0507965 77.6854324,78.2511978 78.5615768,81.6171036 
			79.2876129,85.1229095 79.858223,88.7420425 80.2689133,92.4467163 80.5165558,96.2090149 80.5992432,100.0000534 
			80.5165558,103.7910919 80.2689133,107.5532532 79.858223,111.2580643 79.2876129,114.8770676 78.5615768,118.3828659 
			77.6854324,121.7487717 76.6659927,124.9491806 75.5110092,127.9596939 74.2292175,130.7574463 72.8302765,133.3211823 
			71.3250809,135.6311951 69.7248077,137.6700745 68.0418549,139.4222717 66.2890244,140.8744354 64.4795227,142.0155029 
			62.627121,142.8368378 60.7459717,143.3321228 58.8505211,143.4976501 53.8568268,143.4976501 53.8114662,143.4922028 
			53.7300072,143.4773102 53.0263138,143.3970337 52.7696838,143.3726196 51.7398872,143.2686157 51.5858269,143.2575989 
			50.9698563,143.1074066 50.3541565,143.0384216 50.2785568,143.0771484 50.1608658,143.1075745 48.9283791,142.9152069 
			48.7086639,142.8892365 48.202755,142.8368378 47.5325699,142.6865082 47.0129051,142.5693359 46.152153,142.4026642 
			45.240593,142.2243958 44.7153435,142.1377563 43.4165192,141.9171448 43.148037,141.9488373 42.076149,141.7568359 
			41.6621895,141.6828461 41.5627518,141.6650238 40.6759834,141.5352173 		"/>
		<polyline class="st0" points="40.2011299,99.2599945 40.2026291,99.5487671 40.2000427,99.6122437 40.1985435,99.654747 
			40.1786575,100.0000534 40.1775665,100.0105438 40.1740227,100.0463715 40.131115,100.4029846 40.1274376,100.4343109 
			40.1251221,100.4512024 40.0630074,100.788887 40.0578308,100.8177643 40.0413513,100.8989487 39.9743309,101.1679764 
			39.9675217,101.1957626 39.9286995,101.3398819 39.8653564,101.5394363 39.8566399,101.5677719 39.7878494,101.7705917 
			39.736496,101.9027252 39.7250557,101.9330978 39.6203041,102.1878281 39.4340973,102.5884399 39.3945923,102.6640396 
			39.34869,102.7544861 39.231678,102.9692993 39.0134621,103.3276825 38.9567947,103.4105072 38.8596725,103.5566635 
			38.7865257,103.6605988 38.5458298,103.9657211 38.4284096,104.097168 38.3033638,104.2407455 38.2037888,104.3400421 
			38.0546341,104.483345 37.801815,104.6918945 37.7880592,104.7012939 37.5555382,104.8647537 37.312252,105.0005569 
			37.0736046,105.0982285 37.0646133,105.1005402 36.9278526,105.1348648 36.8453026,105.155983 36.840538,105.1572113 
			36.6183662,105.1769562 36.4068222,105.1572113 36.2075386,105.0982285 36.1808395,105.084198 36.0181999,105.0005569 
			35.8416634,104.8647537 35.6799736,104.6918945 35.5340843,104.483345 35.4528999,104.3302383 35.4320602,104.2895126 
			35.404953,104.2407455 35.3940544,104.2154083 35.287262,103.9657211 35.1883659,103.6605988 35.1511803,103.5053101 
			35.1005096,103.3276825 35.0847054,103.2535858 35.0310364,102.9692993 35.0001183,102.7202988 34.9779129,102.5884399 
			34.9488983,102.3258133 34.9367752,102.1878281 34.9276505,101.9330978 34.9155273,101.7705917 34.9138908,101.7103882 
			34.9130745,101.5516968 34.9044914,101.3398819 34.9046288,101.314682 34.9081688,101.1685181 34.9062653,100.9212875 
			34.9063988,100.8989487 34.912529,100.7839813 34.918251,100.5303421 34.9211121,100.4512024 34.9254684,100.3980789 
			34.9392281,100.1413116 34.9476738,100.0112228 34.948082,100.0000534 34.9686508,99.7544556 34.9809113,99.6234131 
			34.9860878,99.5487671 35.0067902,99.3696442 35.0232735,99.2349243 35.0367584,99.1010284 35.0535126,98.9872818 
			35.0751724,98.8458939 35.0999641,98.6600952 35.1094971,98.6073761 35.1374245,98.4565887 35.1754265,98.2301941 
			35.1755638,98.2293777 35.2112503,98.0668716 35.2542953,97.8566895 35.2634239,97.812149 35.2982941,97.6771545 
			35.3450165,97.4867249 35.3632698,97.4115372 35.4007301,97.2875748 35.4492226,97.1207123 35.474968,97.0306702 
			35.5216904,96.8981323 35.5693665,96.7596054 35.5986519,96.6724243 35.6659431,96.5091019 35.7084427,96.404213 
			35.7340508,96.3393784 35.8398895,96.1207504 35.8710861,96.0557709 35.8810272,96.0342484 36.0389023,95.7593689 
			36.0574303,95.7332153 36.0688705,95.7171402 36.1328926,95.6245117 36.2071304,95.5167618 36.3211441,95.384903 
			36.3546524,95.3456726 36.386528,95.3082199 36.576004,95.1353607 36.6725807,95.0699768 36.7756958,94.9995499 
			36.8620605,94.9590912 36.984108,94.9017487 37.2012367,94.8427658 37.4063797,94.8247833 37.425312,94.8231506 
			37.6545639,94.8427658 37.8879051,94.9017487 37.9098358,94.9108734 38.0114517,94.9531021 38.1227417,94.9995499 
			38.1676941,95.0255661 38.3570328,95.1353607 38.589283,95.3082199 38.6133919,95.3301468 38.7090187,95.4185486 
			38.8149948,95.5167618 38.9904404,95.7112808 39.0330772,95.7593689 39.1115379,95.8635712 39.2397156,96.0342484 
			39.2797623,96.0963669 39.4045372,96.295105 39.4323273,96.3393784 39.510788,96.48526 39.6085892,96.6724243 
			39.6299744,96.7202377 39.7001266,96.8774261 39.7659187,97.0306702 39.8063774,97.1416931 39.8537788,97.2721863 
			39.9021378,97.4115372 39.9450455,97.5605545 39.9761009,97.6689835 40.0149231,97.812149 40.0507469,97.9771042 
			40.0702286,98.0668716 40.1026459,98.2293777 40.1268921,98.3909302 40.1380615,98.4653015 40.1639442,98.6600952 
			40.1760674,98.8017578 40.1813812,98.863327 40.1975899,99.1010284 40.2000427,99.2091827 40.2011299,99.2599945 		"/>
		<polyline class="st0" points="53.8246803,56.5023422 54.0818558,56.5466118 54.1882401,56.552063 54.8961563,56.6118584 
			54.9357948,56.6178551 55.2646217,56.6678467 55.3285065,56.699585 55.4125519,56.7409935 55.4129639,56.8186378 
			55.5987625,57.0036201 55.667141,57.0435295 55.6853943,57.1347961 55.6862106,57.1941872 55.6810379,57.2276955 		"/>
		<polyline class="st0" points="55.7450562,142.7640991 55.7490082,142.8020325 55.7273483,142.9364319 55.7239456,142.9544678 
			55.4520569,143.1071472 55.4445648,143.1113281 55.4426575,143.1119232 54.9116859,143.2780304 54.7723351,143.3558197 
			54.1178169,143.464447 53.8568268,143.4976501 		"/>
		<polyline class="st0" points="25.6355114,142.9487915 25.5620899,142.877243 25.8154526,141.7540131 26.1186714,140.3993225 
			26.4203911,139.0442047 26.7208843,137.688797 27.0205593,136.3332214 27.3200989,134.9775696 27.6196404,133.6219482 
			27.9198608,132.266449 28.1647778,131.1703186 28.2267551,130.8929749 28.5179863,129.5166473 28.8094902,128.1599426 
			29.1080761,126.80513 29.4149723,125.4522247 29.7315388,124.1019135 30.0591393,122.7543259 30.3989983,121.409729 
			30.4525318,121.2067719 30.7369518,120.0805283 31.0517483,118.7445221 31.3877945,117.3980255 31.5462132,116.7891388 
			31.5862617,116.6190033 31.7430458,115.8446121 31.9033737,115.0707626 32.0619278,114.2985535 32.1153259,114.0356598 
			32.182888,113.5202103 32.2770157,112.7497711 32.3644638,111.9801483 32.4460602,111.2113495 32.5222054,110.4429474 
			32.5934448,109.6745529 32.6228676,109.3361893 32.6390762,108.9041138 32.6644135,108.1334 32.6868896,107.3620071 
			32.7063675,106.6333847 32.7075958,106.590065 32.7054138,106.585434 32.6900215,105.8124084 32.6762657,105.0385666 
			32.6655045,104.2639008 32.6591034,103.4881516 32.6581497,102.7113037 32.6641426,101.9330978 32.6687737,101.5484238 
			32.6729965,101.163208 32.6746292,100.9891205 32.6747665,100.9752274 32.6729965,100.7766266 32.6699982,100.3901749 
			32.6675453,100.0034561 32.6655045,99.6164703 32.663868,99.2293396 32.6627808,98.8419418 32.6619606,98.4544067 
			32.6618271,98.0668716 32.6619606,97.6793365 32.6627808,97.2918015 32.663868,96.9045334 32.6655045,96.5172729 
			32.6675453,96.1302795 32.6699982,95.7435608 32.6721802,95.5690689 32.6747665,95.3568497 32.6729965,94.9706726 
			32.6687737,94.5853195 32.6641426,94.2006378 32.6586914,93.4224396 32.6608734,92.6453247 32.6694527,91.8693008 
			32.6829376,91.094223 32.6996956,90.3199692 32.7184906,89.5465317 32.7059593,88.7684708 32.6874352,87.9965286 
			32.6659126,87.2251358 32.6269531,86.4525146 32.5588455,85.6835709 32.484745,84.9146347 32.4042397,84.1456909 
			32.3165169,83.3760681 32.2207565,82.6059036 32.1015663,81.8260651 31.936882,81.0552139 31.7681103,80.2834091 
			31.5955238,79.5102463 31.3877945,78.7357178 31.0685024,77.5789719 30.7513905,76.421402 30.4360504,75.2634277 
			30.1160774,74.1431808 29.794199,72.9879303 29.4804916,71.830368 29.1740055,70.6708908 28.8737831,69.5095139 
			28.5787392,68.3467636 28.4714012,67.9171371 28.2880535,67.1828003 28.2673492,67.1454773 27.961134,65.984642 
			27.6551914,64.8237991 27.3495216,63.6628304 27.0439892,62.5018578 26.738184,61.3408852 26.4322414,60.1799126 
			26.1257534,59.0192146 25.8187218,57.8586502 25.6228428,57.1202202 25.6676579,57.0729523 25.6812801,57.0591965 		"/>
	</g>
	<g>
		<polyline class="st0" points="103.6604004,57.7042503 107.3849564,58.356041 110.9962692,60.2912636 114.3845901,63.4513474 
			117.4471436,67.740242 120.0908432,73.0275116 121.229866,75.9964371 121.6004944,77.2519302 122.2352295,79.152626 
			123.8152695,85.9293976 124.2065887,88.8502274 124.2427216,88.8607101 124.3779984,89.4985275 124.7828827,93.1520233 
			125.0272369,96.8623428 125.1087723,100.6010056 124.7828827,108.0499802 124.2690506,112.160347 123.8152695,115.2724762 
			122.2352295,122.0493774 121.6004944,123.9499435 120.0908432,128.1744843 118.8267593,130.9334564 117.4471436,133.4617615 
			114.3845901,137.7505951 112.724884,139.4785767 110.9962692,140.910675 107.3849564,142.8459625 105.5298004,143.3344269 
			103.6604004,143.4976501 99.9359741,142.8459625 98.1091614,142.0359955 96.3246613,140.910675 92.936348,137.7505951 
			91.3581848,135.7398834 89.8737869,133.4617615 87.2300873,128.1744843 86.0910645,125.2055664 85.0857086,122.0493774 
			83.5056686,115.2724762 82.9429398,111.703476 82.5379181,108.0499802 82.2121582,100.6010056 82.2937012,96.8623428 
			82.5379181,93.1520233 83.5056686,85.9293976 84.2216721,82.4720306 85.0857086,79.152626 87.2300873,73.0275116 
			88.4941788,70.2684174 89.8737869,67.740242 92.936348,63.4513474 94.5960464,61.7234039 96.3246613,60.2912636 
			99.9359741,58.356041 101.7911377,57.8676033 103.6604004,57.7042503 139.5098267,57.7042503 141.3792267,57.8676033 
			143.2343903,58.356041 145.0610657,59.1659431 146.8457031,60.2912636 148.5743103,61.7234039 150.234024,63.4513474 
			151.8121796,65.4620667 153.2965698,67.740242 154.6761932,70.2684174 155.9402771,73.0275116 157.0792999,75.9964371 
			158.0846558,79.152626 158.9487,82.4720306 159.6647034,85.9293976 160.2274323,89.4985275 160.6324463,93.1520233 
			160.8766632,96.8623428 160.9582062,100.6010056 160.8766632,104.3396606 160.6324463,108.0499802 160.2274323,111.703476 
			159.6647034,115.2724762 158.9487,118.7299728 158.0846558,122.0493774 157.0792999,125.2055664 155.9402771,128.1744843 
			154.6761932,130.9334564 153.2965698,133.4617615 151.8121796,135.7398834 150.234024,137.7505951 148.5743103,139.4785767 
			146.8457031,140.910675 145.0610657,142.0359955 143.2343903,142.8459625 141.3792267,143.3344269 139.5098267,143.4976501 
			103.6604004,143.4976501 101.7911377,143.3344269 99.9359741,142.8459625 96.3246613,140.910675 94.5960464,139.4785767 
			92.936348,137.7505951 89.8737869,133.4617615 88.4941788,130.9334564 87.2300873,128.1744843 85.0857086,122.0493774 
			84.2216721,118.7299728 83.5056686,115.2724762 82.5379181,108.0499802 82.2937012,104.3396606 82.2121582,100.6010056 
			82.5379181,93.1520233 82.9429398,89.4985275 83.5056686,85.9293976 85.0857086,79.152626 86.0910645,75.9964371 
			87.2300873,73.0275116 89.8737869,67.740242 91.3581848,65.4620667 92.936348,63.4513474 96.3246613,60.2912636 
			98.1091614,59.1659431 99.9359741,58.356041 103.6604004,57.7042503 105.5298004,57.8676033 107.3849564,58.356041 
			109.2116394,59.1659431 110.9962692,60.2912636 112.724884,61.7234039 114.3845901,63.4513474 115.9627457,65.4620667 
			117.4471436,67.740242 118.8267593,70.2684174 120.0908432,73.0275116 121.6004944,77.2519302 122.2352295,79.152626 
			123.0992661,82.4720306 123.8152695,85.9293976 124.2427216,88.8607101 124.7828827,93.1520233 125.1087723,100.6010056 
			125.0272369,104.3396606 124.7828827,108.0499802 124.3779984,111.703476 124.2690506,112.160347 124.2314377,112.1659851 
			123.8152695,115.2724762 123.0992661,118.7299728 122.2352295,122.0493774 121.6004944,123.9499435 121.229866,125.2055664 
			120.0908432,128.1744843 117.4471436,133.4617615 115.9627457,135.7398834 114.3845901,137.7505951 110.9962692,140.910675 
			109.2116394,142.0359955 107.3849564,142.8459625 103.6604004,143.4976501 		"/>
		<polyline class="st0" points="118.8941956,89.3693008 118.8970184,89.3482056 119.3550949,85.9293976 120.9351349,79.152626 
			121.5851822,77.2958527 		"/>
		<polyline class="st0" points="121.5851822,123.9061508 120.9351349,122.0493774 119.3550949,115.2724762 118.8847885,111.7625809 
					"/>
		<polyline class="st0" points="118.7778625,111.7225494 118.1796722,111.4669113 117.5716705,111.1803741 116.9548111,110.8675156 
					"/>
		<polyline class="st0" points="120.9029007,99.7143936 120.9252014,100.1560898 120.932724,100.563385 120.9333954,100.6010056 
			120.9272156,101.0459213 120.9076004,101.4874725 120.9045105,101.5279083 120.8898697,101.7159805 120.8736115,101.9223175 
			120.8643417,102.0039902 120.8252563,102.347084 120.7633209,102.7585449 120.7554016,102.8001938 120.7224884,102.9675751 
			120.6855469,103.1536255 120.6120605,103.4548035 120.5932541,103.5293579 120.5522842,103.6631546 120.4847183,103.8826599 
			120.4601288,103.9495544 120.3783188,104.163414 120.360054,104.210968 120.2995987,104.3428879 120.2192688,104.511879 
			120.1985855,104.5481491 120.1307449,104.667038 120.0620956,104.7831039 120.0123978,104.8528214 119.9538269,104.9347687 
			119.8889389,105.0223541 119.8196259,105.0987854 119.7689819,105.1545334 119.6999359,105.2280197 119.6202698,105.2953186 
			119.5767517,105.3321304 119.4954758,105.3984909 119.4146042,105.4487305 119.3773956,105.4718323 119.2765121,105.5324173 
			119.2031631,105.5633163 119.1713257,105.5767517 119.0439758,105.6287384 118.9862137,105.6428452 118.9589462,105.6494217 
			118.7992172,105.6869049 118.7640228,105.6897278 118.740654,105.6914749 118.5433121,105.7063828 118.5372696,105.7058487 
			118.5168533,105.7043686 118.3064804,105.6890564 118.2880783,105.6877136 118.2777328,105.6869049 118.0719376,105.6431122 
			118.0546036,105.6393509 118.0034256,105.6287384 117.8341599,105.5700302 117.8168335,105.5638504 117.7230682,105.5324173 
			117.5932999,105.4703598 117.5751648,105.4614944 117.4388123,105.3984909 117.3500214,105.3444824 117.3300018,105.3321304 
			117.1530838,105.2280197 116.8747482,105.0223541 116.8222198,104.9749298 116.7606964,104.9181061 116.6070175,104.7831039 
			116.3505707,104.511879 116.2914658,104.4370575 116.1895065,104.3050079 116.113205,104.210968 115.889534,103.8826599 
			115.7933502,103.7137985 115.691391,103.5293579 115.6211395,103.3755417 115.514473,103.1536255 115.3597183,102.7585449 
			115.3527374,102.7361145 115.2373428,102.347084 115.1429062,101.9223175 115.0768127,101.4874725 115.0753326,101.4704132 
			115.0522308,101.2128983 115.0394669,101.0549164 115.0386658,101.0459213 115.0323486,100.6010056 115.0558548,100.1560898 
			115.1091843,99.7143936 115.1210098,99.6520615 115.1880417,99.279686 115.2933578,98.8547897 115.424736,98.4433212 
			115.5813751,98.0482407 115.6952896,97.8112793 115.7261887,97.7484131 115.7613831,97.6726456 115.7795181,97.6401367 
			115.9576416,97.3193436 116.1745911,96.9908981 116.2847519,96.8505173 116.4026947,96.6899872 116.4517288,96.6339722 
			116.6465149,96.4188995 116.8169785,96.2624054 116.9014816,96.1796494 117.069931,96.0447769 117.1612778,95.9739838 
			117.3300018,95.8698807 117.4312897,95.8035126 117.4687729,95.7848434 117.5708694,95.735405 117.6998291,95.6695862 
			117.7151413,95.6640778 117.8066254,95.632103 117.9535828,95.5781021 117.9672852,95.5731354 118.0374069,95.5582199 
			118.184639,95.5253067 118.2316589,95.5150986 118.2632294,95.5128174 118.4089813,95.5016632 118.4842072,95.4961548 
			118.490387,95.4956207 118.6266022,95.5062332 118.7003479,95.511879 118.7407837,95.5150986 118.8377762,95.5383377 
			118.9116592,95.5558014 118.9824524,95.5731354 119.0426331,95.5981216 119.1181335,95.6290131 119.213913,95.6695862 
			119.2411804,95.6859741 119.3196335,95.7328568 119.4336853,95.8033829 119.5160294,95.8698807 119.6192017,95.955719 
			119.641098,95.9739838 119.7073212,96.0433044 119.7985382,96.141098 119.8342667,96.1796494 119.8933716,96.2575684 
			119.9711533,96.3623505 120.0126648,96.4188995 120.0739212,96.519249 120.1366577,96.6240311 120.1756134,96.6899872 
			120.2486877,96.8376236 120.294899,96.9324646 120.3228455,96.9908981 120.4174118,97.226387 120.4452209,97.2962418 
			120.4540863,97.3193436 120.5686722,97.6726456 120.579689,97.7132111 120.5862732,97.7379303 120.6234818,97.8814011 
			120.6663361,98.0482407 120.7189941,98.2978363 120.7343063,98.372261 120.7486801,98.4433212 120.8149109,98.8547897 
			120.8401642,99.0593796 120.8664932,99.279686 120.8816757,99.4596939 120.9029007,99.7143936 		"/>
		<polyline class="st0" points="113.0040359,91.602478 113.3852768,91.5252304 113.4705734,91.502533 113.6143112,91.464241 
			113.7634277,91.4244843 113.7784729,91.4196472 113.7881393,91.4165573 114.1143036,91.3217163 114.2913589,91.2544174 
			114.4970245,91.1744843 114.5754776,91.1417084 114.7202911,91.080986 115.097229,90.9189835 115.6208649,90.6834946 
			115.6490784,90.6704636 115.9885406,90.5102005 116.3563461,90.3365097 116.7242889,90.1653671 117.0929031,90.0001297 
			117.4627304,89.8439026 117.8340302,89.7001648 118.2073441,89.5720062 118.5830765,89.4626617 118.8941956,89.3693008 
			119.2542114,89.2612915 119.6197357,89.1723633 119.8020248,89.1363602 119.98526,89.1042557 120.1695633,89.0759125 
			120.35495,89.0513306 120.5333405,89.0314484 120.7223511,89.014122 121.0569763,88.9852371 121.0720215,88.984024 
			121.1703568,88.9759674 121.3496933,88.9594421 121.4022217,88.9548798 121.5032425,88.9449387 121.6800232,88.9265289 
			121.7607574,88.9180679 121.8144913,88.9092026 121.9255829,88.8832779 122.0806046,88.8455276 122.2483902,88.8205414 
			122.5235062,88.7830658 122.6988144,88.7622452 122.8824539,88.7497482 123.0741425,88.7455826 123.2736359,88.7497482 
			123.4807739,88.7622452 123.6949081,88.7830658 123.9160233,88.8120804 124.1437149,88.8494263 124.2081985,88.8620529 		"/>
		<polyline class="st0" points="115.6596909,110.2932358 115.3000793,110.1547318 114.7455444,109.9487991 114.7110214,109.9365768 
			114.3753204,109.8332672 		"/>
		<polyline class="st0" points="113.8984299,109.7068634 113.8214569,109.7278214 113.4183197,109.8575821 113.1604004,109.9551086 
			112.569191,110.1983948 111.9919586,110.5171661 111.5950012,110.7366714 110.9191589,111.1117325 110.455307,111.410759 
			109.9273682,111.7280579 109.399437,112.0460281 108.8712311,112.3623886 108.3424911,112.6748505 107.8128128,112.9808578 
			107.4115524,113.2010345 107.3705826,113.2288437 106.5720978,113.6779251 106.3982697,113.7757187 106.0589447,113.9671478 
			105.4177628,114.2118988 104.5988617,114.5253067 103.7567215,114.7109528 103.0384293,114.8697357 102.0708237,114.938652 
			101.3857117,114.9876862 100.4033279,114.9186325 99.6957855,114.8689346 98.8134766,114.6840897 98.0401154,114.5222168 
			97.3179321,114.2702026 96.4298477,113.9606934 95.9109116,113.7051926 94.8770752,113.1970062 94.5879898,113.0108185 
			93.3946991,112.2432327 93.345932,112.2037354 93.1276398,112.0268173 92.2101364,111.2822037 91.9953308,111.1078339 
			91.1643448,110.2721405 90.6973953,109.8034515 90.1988831,109.1867218 89.5144424,108.3417587 89.3240967,108.0499802 
			89.3128128,108.0290222 88.6217957,106.7046204 88.5546265,106.5309296 87.9615402,104.9997864 87.9396439,104.9429626 
			87.9369583,104.9362411 87.4984894,103.2734528 87.4411316,103.0562363 87.2188034,101.5382538 87.1519089,101.0819168 
			87.136322,100.6010056 87.2333145,99.5126266 87.2729416,99.0686493 87.6395416,97.2783737 87.6680222,97.1392059 
			87.9733582,96.1994019 88.2609711,95.3135986 88.3108063,95.2046509 89.035675,93.6076813 89.211792,93.3149719 
			89.3091812,93.1520233 90.1044464,92.062439 90.8235321,91.2665024 91.3510666,90.6805344 92.6041412,89.5510559 
			92.7058258,89.4594345 93.0863953,89.1840515 94.151001,88.4159241 94.4318924,88.2579498 95.6722031,87.5587387 
			96.2647552,87.3118362 97.2554703,86.8980789 98.0773239,86.670517 98.8879013,86.4453735 99.8493347,86.3114471 
			100.5575409,86.2125702 101.5618286,86.2127075 102.243309,86.2127075 103.1587982,86.3459702 103.8545151,86.447258 
			104.611351,86.6754913 105.3665848,86.902916 105.9289093,87.1688995 106.7714539,87.5669327 107.1512146,87.7794495 
			107.7171631,88.1052094 108.2855377,88.4391708 108.8552475,88.7780914 109.4256287,89.1190338 109.9957504,89.4590378 
			110.5646515,89.7948685 111.131546,90.1238556 111.6625671,90.4525681 112.2118607,90.7460938 112.2134781,90.7481079 
			112.2954178,90.7867966 112.5789948,90.917099 112.7868118,91.0124741 113.3567963,91.2529373 113.7881393,91.4165573 		"/>
		<polyline class="st0" points="124.2321091,112.1611557 124.1614456,112.1693497 123.9825134,112.1869431 123.8007584,112.2022552 
			123.5366592,112.2264404 123.511673,112.2104568 123.3475189,112.2488708 123.3440247,112.2499466 123.2878723,112.2692947 
			123.1391602,112.3117447 122.9813232,112.3463974 122.814743,112.3733978 122.6395721,112.392746 122.4562073,112.4042969 
			122.2647781,112.4080582 122.0656967,112.4042969 121.4590454,112.3807907 121.251358,112.3674927 121.0371017,112.3453217 
			120.8159866,112.3142929 120.5884247,112.2743988 120.3546829,112.2256317 120.1151581,112.1681366 119.8702698,112.1016388 
			119.6200027,112.026413 119.365036,111.9421844 118.8847885,111.7625809 118.7778625,111.7225494 118.1632843,111.445282 
			117.5642853,111.1467896 116.9502411,110.8452148 116.7310104,110.7479553 116.7207947,110.7424469 116.6908417,110.726326 
			116.6817093,110.721489 116.3920822,110.5819168 115.872345,110.3832397 115.6596909,110.2932358 115.5656586,110.2534714 
			115.2882538,110.1360626 115.0866165,110.0522385 114.7069931,109.9146805 114.567955,109.8862 114.2839737,109.7936401 
			113.9489441,109.7158661 113.8984299,109.7068634 113.8539658,109.6987991 113.7298431,109.676506 113.7161407,109.6748886 
			113.2747192,109.6212921 		"/>
		<polyline class="st0" points="134.0821838,89.5035019 134.0878296,89.4985275 134.8844299,88.7932739 135.2105865,88.5060654 
			135.2287292,88.4902115 135.7413483,88.1539764 135.8676147,88.0716248 136.4785767,87.6721191 136.5088043,87.6519699 
			136.9060211,87.4710159 137.8870697,87.0177765 138.1255188,86.9472504 139.3834229,86.576622 139.4770508,86.563324 
			140.8193207,86.3744431 140.9631958,86.3538971 140.9751434,86.3501358 140.9983978,86.3473129 142.6515045,86.3474426 
			142.6723328,86.3502655 144.3175201,86.5746078 144.427948,86.6110077 145.9370575,87.0232849 146.2809601,87.1641998 
			147.5176392,87.6718521 148.3059235,88.078476 149.040451,88.5131836 149.9832153,89.2278442 150.4790497,89.5274124 
			150.54245,89.5177383 151.1335144,90.063942 151.8235931,90.7462234 151.8597412,90.8354263 153.0473785,92.1204681 
			153.6724396,92.9869232 153.7915955,93.1520233 154.0496521,93.5598602 154.1101074,93.6555099 154.7279053,94.9772263 
			154.8696289,95.3576584 155.4431,96.9225235 155.572464,97.1611023 155.5867157,97.2426376 155.7620087,98.4453354 
			155.8869476,99.0924225 155.9005127,99.2827759 156.0018005,100.6010056 155.9842072,101.0999222 155.9635162,101.312439 
			155.9668732,101.3822937 155.7289734,103.0720825 155.3297272,104.6306305 155.3072968,104.88694 155.2878113,104.951828 
			154.6859894,106.304306 154.5227814,106.704216 153.9605865,107.7394028 153.7905273,108.0499802 153.6118622,108.324295 
			153.5504608,108.4087906 153.1247559,108.9310837 152.4432831,109.7725525 152.2092743,110.0095215 151.5765533,110.5960236 
			151.2198944,110.9477081 151.1308289,111.088089 150.4461365,111.703476 150.0973969,111.9174728 149.7599487,112.182106 
			148.9223785,112.7048035 148.2672272,113.1131821 147.6722565,113.3975677 146.7123108,113.8556442 146.3418121,113.9813843 
			145.1076813,114.3998337 144.9241791,114.4373169 143.4646301,114.7352676 143.4102325,114.7388992 142.0694427,114.8278275 
			141.7964783,114.8466339 141.7892151,114.847168 141.5233765,114.8283615 140.1499329,114.7343292 140.1082916,114.7251968 
			138.6018677,114.3960724 138.563446,114.3839874 138.3932495,114.3170853 137.1345367,113.8360367 136.7142029,113.6013489 
			135.8169708,113.0975952 135.0219879,112.4873199 134.6285248,112.1850662 134.1583557,111.703476 133.6007233,111.1385956 
			133.5284576,111.0651169 133.5093842,111.0397263 132.5549316,109.7635498 132.245163,109.2131805 131.7349548,108.3053513 
			131.6311188,108.0499802 131.2517548,107.1628342 131.0474396,106.6842041 130.5612793,105.0197983 130.5354767,104.9312744 
			130.4755707,104.5740738 130.4363403,104.3396606 130.190918,103.0535431 130.1786957,102.8877792 130.0454254,101.0801697 
			130.0588684,100.7439346 130.0646362,100.6010056 130.0898895,99.0708008 130.1168976,98.8659363 130.3444672,97.1413498 
			130.3612518,97.0748596 130.414856,96.8623428 130.4691162,96.6252365 130.7160339,95.5427704 130.7668152,95.322998 
			131.2005768,94.1110382 131.3737335,93.6334763 131.6156616,93.1520233 131.7845306,92.8015442 132.1278839,92.0980377 
			132.4120026,91.6626587 133.0312805,90.7205658 133.1396942,90.5945663 133.5863495,90.0768356 133.988678,89.6112366 
			134.0821838,89.5035019 		"/>
		<polyline class="st0" points="108.3424911,112.6748505 107.4548111,113.1714783 107.4135742,113.1994247 106.9562988,113.4503632 
					"/>
	</g>
</g>
</svg>
