<?xml version="1.0" encoding="utf-8"?>
<!-- Generator: Adobe Illustrator 21.0.0, SVG Export Plug-In . SVG Version: 6.00 Build 0)  -->
<svg version="1.1" id="Layer_1" xmlns="http://www.w3.org/2000/svg" xmlns:xlink="http://www.w3.org/1999/xlink" x="0px" y="0px"
	 viewBox="0 0 200 200" style="enable-background:new 0 0 200 200;" xml:space="preserve">
<style type="text/css">
	.st0{fill:#ECF0F1;}
	.st1{fill:none;stroke:#000000;stroke-width:1.5;stroke-linecap:round;stroke-linejoin:round;}
	.st2{fill:none;stroke:#000000;stroke-linecap:round;stroke-linejoin:round;}
</style>
<g>
	<g id="XMLID_18_">
		<g>
			<polygon class="st0" points="46.3001595,30.133934 49.0890808,28.9308701 52.0967407,28.1379414 55.1044044,27.8645172 
				58.1394043,28.1379414 59.2877846,28.4387074 61.1470642,28.9308701 64.1000443,30.2159615 66.970993,32.0479012 
				69.7599106,34.3720016 71.91996,36.6140747 71.9473038,36.6140747 72.4668045,37.160923 75.0096436,40.4146652 
				77.4157715,44.1058846 79.6305084,48.1798973 81.6811829,52.6366997 83.5404663,57.4489594 85.1536636,62.5619812 
				86.5481262,67.9210815 87.6965027,73.526268 88.6261444,79.2955093 89.2823563,85.2014618 89.6651535,91.1894379 
				89.8018646,97.2321014 89.6651535,103.3021088 89.2823563,109.2900848 88.6261444,115.1960373 87.6965027,120.965271 
				86.5481262,126.5704575 85.1536636,131.9295654 83.5404663,137.0425873 81.6811829,141.8274994 79.6305084,146.3116455 
				77.4157715,150.3856659 75.0096436,154.0768738 72.4668045,157.3306274 69.7599106,160.1195374 66.970993,162.4436493 
				64.1000443,164.2482452 61.1470642,165.5606689 58.1394043,166.3536072 55.1044044,166.6270294 52.0967407,166.3536072 
				49.0890808,165.5606689 46.1361084,164.2482452 43.2378159,162.4436493 40.4488945,160.1195374 37.7693443,157.3306274 
				35.2265015,154.0768738 32.8203735,150.3856659 30.5783005,146.3116455 28.4455967,142.0188904 27.2698746,139.6127625 
				29.2111816,143.1672821 31.2892017,146.3389893 33.476593,149.1552582 35.8006935,151.5613861 38.2341614,153.557373 
				40.7223167,155.1432343 43.2651596,156.264267 45.8626823,156.9478302 48.4602089,157.1939087 51.0850754,156.9478302 
				53.6825981,156.264267 56.225441,155.1432343 58.7135963,153.557373 61.1470642,151.5613861 63.4438248,149.1552582 
				65.6585541,146.3389893 67.7365723,143.1672821 69.6505432,139.6127625 71.4277954,135.7848358 73.013649,131.6287994 
				74.4354553,127.2266769 75.6385193,122.578476 76.6228409,117.7388763 77.1970367,114.1296844 77.4157715,112.7625656 
				77.9899597,107.6495438 78.3180695,102.4818344 78.4274445,97.2321014 78.3454132,93.0213776 78.3180695,92.0097046 
				77.9899597,86.8420029 77.4157715,81.728981 77.2790604,80.8813629 77.2790604,80.7993393 76.6228409,76.7526703 
				75.6385193,71.9130707 74.4354553,67.2648697 73.013649,62.8627472 72.8496017,62.45261 71.4277954,58.706707 
				69.6505432,54.8514328 67.7365723,51.3242683 65.6585541,48.1525536 63.4438248,45.3362885 61.1470642,42.9301605 
				58.7135963,40.9341698 56.225441,39.3483124 55.1864281,38.8834915 53.6825981,38.2272758 51.0850754,37.5437164 
				50.6749382,37.5163727 48.4602089,37.2976341 45.8626823,37.5437164 43.2651596,38.2272758 40.7223167,39.3483124 
				38.2341614,40.9341698 35.8006935,42.9301605 33.476593,45.3362885 31.2892017,48.1525536 29.2111816,51.3242683 
				27.2698746,54.8514328 28.4455967,52.4726486 30.5783005,48.1798973 32.8203735,44.1058846 35.2265015,40.4146652 
				37.7693443,37.160923 40.4488945,34.3720016 43.2378159,32.0479012 46.1361084,30.2159615 			"/>
			<path class="st0" d="M72.1933823,114.1296844l-1.8319397-0.4921646l-1.6952286-1.4218063l-1.4491425-2.2420731
				l-0.4648209-1.1483765c-0.4374771-1.1757202-0.7929306-2.3787842-1.0390091-3.6091919
				c-0.2187424-1.0390091-0.3827972-2.1053619-0.4374771-3.1717148l-0.0273438-0.5195084
				c-0.0546875-0.5195007-0.0546875-1.0116653-0.0546875-1.50383c0-0.5195007,0-1.0390091,0.0546875-1.5311737l0.0273438-0.5468445
				c0.0546799-1.0663528,0.2187347-2.1327057,0.4374771-3.1717148c0.2460785-1.2304077,0.601532-2.4061279,1.0390091-3.5818481
				l0.4648209-1.1757202l1.4491425-2.2420731l1.6952286-1.4218063l1.8319397-0.4648209l0.5741882,0.1367111l1.2577515,0.3281097
				l1.6952209,1.4218063l1.4764938,2.2420731l0.4374771,1.1757202c0.2460785,0.601532,0.4374771,1.203064,0.6288757,1.8319397
				h0.0820236l0.0820312,4.2107239l-0.109375,5.249733l-0.3281097,5.1677094l-0.5741882,5.1130219l-0.2187347,1.3671188H76.568161
				H72.1933823z M73.013649,99.9936829l-0.1367111-1.8046036l-0.3281021-1.6952209l-0.5741959-1.4491501l-0.7108994-1.093689
				l-0.8476105-0.710907l-0.902298-0.2460785l-0.902298,0.2460785l-0.8476181,0.710907l-0.7382431,1.093689l-0.5468445,1.4491501
				l-0.3554535,1.6952209l-0.1093674,1.8046036l0.1093674,1.8045959l0.3554535,1.6952209l0.5468445,1.4491501l0.7382431,1.1210327
				l0.8476181,0.6835632l0.902298,0.2460785l0.902298-0.2460785l0.8476105-0.6835632l0.7108994-1.1210327l0.5741959-1.4491501
				l0.3281021-1.6952209L73.013649,99.9936829z"/>
			<polygon class="st0" points="59.2877846,10.1466646 59.2877846,28.4387074 58.1394043,28.1379414 55.1044044,27.8645172 
				52.0967407,28.1379414 49.0890808,28.9308701 46.3001595,30.133934 46.3001595,10.1466646 			"/>
			<path class="st0" d="M57.0730515,98.4898453c0.0546875,1.011673,0.0546875,2.0233383,0,3.0350037l-0.0273399,0.5195084
				c-0.0820274,1.0663528-0.2187386,2.1327057-0.4374771,3.1717148c-0.2460823,1.2304077-0.601532,2.4334717-1.0663528,3.5818481
				l-0.4374771,1.1757202l-1.47649,2.2420731l-1.6952248,1.4218063l-1.8319397,0.4921646l-1.8319397-0.4921646l-1.6952248-1.4218063
				l-1.4491463-2.2420731l-0.4648209-1.1483765c-0.4374771-1.1757202-0.7929268-2.3787842-1.0390091-3.6091919
				c-0.2187386-1.0390091-0.3554497-2.1053619-0.4374771-3.1717148l-0.0273438-0.5195084
				c-0.0820274-1.0116653-0.0820274-2.0233307,0-3.0350037l0.0273438-0.5468445
				c0.0820274-1.0663528,0.2187386-2.1327057,0.4374771-3.1717148c0.2460823-1.2304077,0.601532-2.4061279,1.0390091-3.5818481
				l0.4648209-1.1757202l1.4491463-2.2420731l1.6952248-1.4218063l1.8319397-0.4648209l0.5741882,0.1367111l1.2577515,0.3281097
				l1.6952248,1.4218063l1.47649,2.2420731l0.4374771,1.1757202c0.4648209,1.1757202,0.8202705,2.3514404,1.0663528,3.5818481
				c0.2187386,1.0390091,0.3554497,2.1053619,0.4374771,3.1717148L57.0730515,98.4898453z M50.9210205,99.9936829
				l-0.1093712-1.8046036l-0.3554497-1.6952209l-0.5468483-1.4491501l-0.7382431-1.093689l-0.8476105-0.710907l-0.9023018-0.2460785
				l-0.902298,0.2460785l-0.8476105,0.710907l-0.7109032,1.093689l-0.5741882,1.4491501l-0.3554535,1.6952209l-0.1093674,1.8046036
				l0.1093674,1.8045959l0.3554535,1.6952209l0.5741882,1.4491501l0.7109032,1.1210327l0.8476105,0.6835632l0.902298,0.2460785
				l0.9023018-0.2460785l0.8476105-0.6835632l0.7382431-1.1210327l0.5468483-1.4491501l0.3554497-1.6952209L50.9210205,99.9936829z"
				/>
		</g>
		<g>
			<polyline class="st1" points="71.9473038,36.6140747 72.4668045,37.160923 75.0096436,40.4146652 77.4157715,44.1058846 
				79.6305084,48.1798973 81.6811829,52.6366997 83.5404663,57.4489594 85.1536636,62.5619812 86.5481262,67.9210815 
				87.6965027,73.526268 88.6261444,79.2955093 89.2823563,85.2014618 89.6651535,91.1894379 89.8018646,97.2321014 
				89.6651535,103.3021088 89.2823563,109.2900848 88.6261444,115.1960373 87.6965027,120.965271 86.5481262,126.5704575 
				85.1536636,131.9295654 83.5404663,137.0425873 81.6811829,141.8274994 79.6305084,146.3116455 77.4157715,150.3856659 
				75.0096436,154.0768738 72.4668045,157.3306274 69.7599106,160.1195374 66.970993,162.4436493 64.1000443,164.2482452 
				61.1470642,165.5606689 58.1394043,166.3536072 55.1044044,166.6270294 			"/>
			<polyline class="st1" points="161.4662018,34.3720016 164.145752,37.160923 166.7159424,40.4146652 169.0947266,44.1058846 
				171.3368073,48.1798973 173.3874817,52.6366997 175.2194214,57.4489594 176.8599548,62.5619812 178.254425,67.9210815 
				179.4028015,73.526268 180.3050995,79.2955093 180.961319,85.2014618 181.3714447,91.1894379 181.5081635,97.2321014 
				181.3714447,103.3021088 180.961319,109.2900848 180.3050995,115.1960373 179.4028015,120.965271 178.254425,126.5704575 
				176.8599548,131.9295654 175.2194214,137.0425873 173.3874817,141.8274994 171.3368073,146.3116455 169.0947266,150.3856659 
				166.7159424,154.0768738 164.145752,157.3306274 161.4662018,160.1195374 158.6772919,162.4436493 155.7789917,164.2482452 
				152.8260193,165.5606689 149.8183594,166.3536072 146.8106995,166.6270294 55.1044044,166.6270294 52.0967407,166.3536072 
				49.0890808,165.5606689 46.1361084,164.2482452 43.2378159,162.4436493 40.4488945,160.1195374 37.7693443,157.3306274 
				35.2265015,154.0768738 32.8203735,150.3856659 30.5783005,146.3116455 28.4455967,142.0188904 27.2698746,139.6127625 
				25.5199623,135.7848358 23.9341049,131.6287994 22.5123024,127.2266769 21.3092384,122.578476 20.2975712,117.7388763 
				19.5319843,112.7625656 18.9577942,107.6495438 18.6296864,102.4818344 18.4929752,97.2321014 18.6296864,92.0097046 
				18.9577942,86.8420029 19.5319843,81.728981 20.2975712,76.7526703 21.3092384,71.9130707 22.5123024,67.2648697 
				23.9341049,62.8627472 25.5199623,58.706707 27.2698746,54.8514328 28.4455967,52.4726486 30.5783005,48.1798973 
				32.8203735,44.1058846 35.2265015,40.4146652 37.7693443,37.160923 40.4488945,34.3720016 43.2378159,32.0479012 
				46.1361084,30.2159615 46.3001595,30.133934 49.0890808,28.9308701 52.0967407,28.1379414 55.1044044,27.8645172 
				58.1394043,28.1379414 59.2877846,28.4387074 61.1470642,28.9308701 64.1000443,30.2159615 66.970993,32.0479012 
				69.7599106,34.3720016 71.91996,36.6140747 			"/>
			<polyline class="st1" points="77.2790604,80.8813629 77.4157715,81.728981 77.9899597,86.8420029 78.3180695,92.0097046 
				78.3454132,93.0213776 78.4274445,97.2321014 78.3180695,102.4818344 77.9899597,107.6495438 77.4157715,112.7625656 
				77.1970367,114.1296844 76.6228409,117.7388763 75.6385193,122.578476 74.4354553,127.2266769 73.013649,131.6287994 
				71.4277954,135.7848358 69.6505432,139.6127625 67.7365723,143.1672821 65.6585541,146.3389893 63.4438248,149.1552582 
				61.1470642,151.5613861 58.7135963,153.557373 56.225441,155.1432343 53.6825981,156.264267 51.0850754,156.9478302 
				48.4602089,157.1939087 45.8626823,156.9478302 43.2651596,156.264267 40.7223167,155.1432343 38.2341614,153.557373 
				35.8006935,151.5613861 33.476593,149.1552582 31.2892017,146.3389893 29.2111816,143.1672821 27.2698746,139.6127625 			"/>
			<polyline class="st1" points="27.2698746,54.8514328 29.2111816,51.3242683 31.2892017,48.1525536 33.476593,45.3362885 
				35.8006935,42.9301605 38.2341614,40.9341698 40.7223167,39.3483124 43.2651596,38.2272758 45.8626823,37.5437164 
				48.4602089,37.2976341 50.6749382,37.5163727 51.0850754,37.5437164 53.6825981,38.2272758 55.1864281,38.8834915 
				56.225441,39.3483124 58.7135963,40.9341698 61.1470642,42.9301605 63.4438248,45.3362885 65.6585541,48.1525536 
				67.7365723,51.3242683 69.6505432,54.8514328 71.4277954,58.706707 72.8496017,62.45261 73.013649,62.8627472 
				74.4354553,67.2648697 75.6385193,71.9130707 76.6228409,76.7526703 77.2790604,80.7993393 			"/>
			<path class="st1" d="M50.10075,114.1296844l1.8319397-0.4921646l1.6952248-1.4218063l1.47649-2.2420731l0.4374771-1.1757202
				c0.4648209-1.1483765,0.8202705-2.3514404,1.0663528-3.5818481c0.2187386-1.0390091,0.3554497-2.1053619,0.4374771-3.1717148
				l0.0273399-0.5195084c0.0546875-1.0116653,0.0546875-2.0233307,0-3.0350037l-0.0273399-0.5468445
				c-0.0820274-1.0663528-0.2187386-2.1327057-0.4374771-3.1717148c-0.2460823-1.2304077-0.601532-2.4061279-1.0663528-3.5818481
				l-0.4374771-1.1757202l-1.47649-2.2420731l-1.6952248-1.4218063l-1.2577515-0.3281097L50.10075,85.8850174l-1.8319397,0.4648209
				l-1.6952248,1.4218063l-1.4491463,2.2420731l-0.4648209,1.1757202c-0.4374771,1.1757202-0.7929268,2.3514404-1.0390091,3.5818481
				c-0.2187386,1.0390091-0.3554497,2.1053619-0.4374771,3.1717148l-0.0273438,0.5468445
				c-0.0820274,1.011673-0.0820274,2.0233383,0,3.0350037l0.0273438,0.5195084
				c0.0820274,1.0663528,0.2187386,2.1327057,0.4374771,3.1717148c0.2460823,1.2304077,0.601532,2.4334717,1.0390091,3.6091919
				l0.4648209,1.1483765l1.4491463,2.2420731l1.6952248,1.4218063L50.10075,114.1296844h4.4021225h1.1210365l1.8045959-0.4921646
				l1.7225685-1.4218063l1.4491463-2.2420731l0.464817-1.1757202c0.4374809-1.1483765,0.7929306-2.3514404,1.0390129-3.5818481
				c0.2187386-1.0390091,0.3554497-2.1053619,0.4374771-3.1717148l0.0273399-0.5195084
				c0.0546875-0.5195007,0.0546875-1.0116653,0.0546875-1.50383c0-0.5195007,0-1.0390091-0.0546875-1.5311737l-0.0273399-0.5468445
				c-0.0820274-1.0663528-0.2187386-2.1327057-0.4374771-3.1717148c-0.2460823-1.2304077-0.601532-2.4061279-1.0390129-3.5818481
				l-0.464817-1.1757202l-1.4491463-2.2420731l-1.7225685-1.4218063l-1.8045959-0.4648209h-0.4374809"/>
			<polygon class="st2" points="50.8116493,98.1890793 50.4561996,96.4938583 49.9093513,95.0447083 49.1711082,93.9510193 
				48.3234978,93.2401123 47.421196,92.9940338 46.518898,93.2401123 45.6712875,93.9510193 44.9603844,95.0447083 
				44.3861961,96.4938583 44.0307426,98.1890793 43.9213753,99.9936829 44.0307426,101.7982788 44.3861961,103.4934998 
				44.9603844,104.9426498 45.6712875,106.0636826 46.518898,106.7472458 47.421196,106.9933243 48.3234978,106.7472458 
				49.1711082,106.0636826 49.9093513,104.9426498 50.4561996,103.4934998 50.8116493,101.7982788 50.9210205,99.9936829 			"/>
			<polygon class="st2" points="49.3898468,98.5718765 49.2531357,97.8883133 49.0343971,97.2867813 48.897686,97.0407028 
				48.7883148,96.7672806 48.4875488,96.3571472 48.1320992,96.0290375 47.9680443,95.9470062 47.7766495,95.8376389 
				47.421196,95.7829514 47.0657463,95.8376389 46.8743515,95.9470062 46.7102966,96.0290375 46.3821869,96.3571472 
				46.0814209,96.7672806 45.9447098,97.0407028 45.8079987,97.2867813 45.5892601,97.8883133 45.452549,98.5718765 
				45.3978615,98.8999863 45.3431778,99.2554321 45.315834,99.9936829 45.3431778,100.731926 45.3978615,101.0873718 
				45.452549,101.4428253 45.5892601,102.0990448 45.8079987,102.7005768 45.9447098,102.973999 46.0814209,103.2200775 
				46.3821869,103.6575546 46.7102966,103.9583206 46.8743515,104.067688 47.0657463,104.1497192 47.421196,104.2044067 
				47.7766495,104.1497192 47.9680443,104.067688 48.1320992,103.9583206 48.4875488,103.6575546 48.7883148,103.2200775 
				48.897686,102.973999 49.0343971,102.7005768 49.2531357,102.0990448 49.3898468,101.4428253 49.4445343,101.0873718 
				49.499218,100.731926 49.5265617,99.9936829 49.499218,99.2554321 49.4445343,98.8999863 			"/>
			<polyline class="st1" points="55.1864281,86.0490723 55.1864281,85.8850174 55.1864281,38.8834915 			"/>
			<polyline class="st1" points="50.10075,85.8850174 50.6749382,85.8850174 50.6749382,37.5437164 			"/>
			<line class="st1" x1="77.6891937" y1="85.8850174" x2="77.2790604" y2="85.8850174"/>
			<path class="st1" d="M78.2633896,93.0213776c-0.1913986-0.6288757-0.3827972-1.2304077-0.6288757-1.8319397l-0.4374771-1.1757202
				l-1.4764938-2.2420731l-1.6952209-1.4218063l-1.2577515-0.3281097l-0.5741882-0.1367111l-1.8319397,0.4648209
				l-1.6952286,1.4218063l-1.4491425,2.2420731l-0.4648209,1.1757202c-0.4374771,1.1757202-0.7929306,2.3514404-1.0390091,3.5818481
				c-0.2187424,1.0390091-0.3827972,2.1053619-0.4374771,3.1717148l-0.0273438,0.5468445
				c-0.0546875,0.4921646-0.0546875,1.011673-0.0546875,1.5311737c0,0.4921646,0,0.9843292,0.0546875,1.50383l0.0273438,0.5195084
				c0.0546799,1.0663528,0.2187347,2.1327057,0.4374771,3.1717148c0.2460785,1.2304077,0.601532,2.4334717,1.0390091,3.6091919
				l0.4648209,1.1483765l1.4491425,2.2420731l1.6952286,1.4218063l1.8319397,0.4921646h4.3747787h0.6288757"/>
			<polyline class="st1" points="72.1933823,114.1296844 74.025322,113.6375198 75.7205429,112.2157135 77.1970367,109.9736404 
				77.6345139,108.7979202 			"/>
			<polygon class="st2" points="72.8769379,98.1890793 72.5488358,96.4938583 71.9746399,95.0447083 71.2637405,93.9510193 
				70.4161301,93.2401123 69.5138321,92.9940338 68.6115341,93.2401123 67.763916,93.9510193 67.0256729,95.0447083 
				66.4788284,96.4938583 66.1233749,98.1890793 66.0140076,99.9936829 66.1233749,101.7982788 66.4788284,103.4934998 
				67.0256729,104.9426498 67.763916,106.0636826 68.6115341,106.7472458 69.5138321,106.9933243 70.4161301,106.7472458 
				71.2637405,106.0636826 71.9746399,104.9426498 72.5488358,103.4934998 72.8769379,101.7982788 73.013649,99.9936829 			"/>
			<polygon class="st2" points="71.4824829,98.5718765 71.3457642,97.8883133 71.1270294,97.2867813 70.9903183,97.0407028 
				70.8536072,96.7672806 70.5528412,96.3571472 70.2247314,96.0290375 70.0606766,95.9470062 69.869278,95.8376389 
				69.5138321,95.7829514 69.1310349,95.8376389 68.96698,95.9470062 68.775589,96.0290375 68.4474792,96.3571472 
				68.1467133,96.7672806 68.0373383,97.0407028 67.9006271,97.2867813 67.6818924,97.8883133 67.5178375,98.5718765 
				67.4904938,98.8999863 67.4358063,99.2554321 67.4084702,99.9936829 67.4358063,100.731926 67.4904938,101.0873718 
				67.5178375,101.4428253 67.6818924,102.0990448 67.9006271,102.7005768 68.0373383,102.973999 68.1467133,103.2200775 
				68.4474792,103.6575546 68.8029251,103.9583206 68.96698,104.067688 69.1310349,104.1497192 69.5138321,104.2044067 
				69.869278,104.1497192 70.0606766,104.067688 70.2247314,103.9583206 70.5528412,103.6575546 70.8536072,103.2200775 
				70.9903183,102.973999 71.1270294,102.7005768 71.3457642,102.0990448 71.4824829,101.4428253 71.5371628,101.0873718 
				71.5918503,100.731926 71.619194,99.9936829 71.5918503,99.2554321 71.5371628,98.8999863 			"/>
			<polyline class="st1" points="77.2790604,86.0490723 77.2790604,85.8850174 77.2790604,80.8813629 77.2790604,80.7993393 			"/>
			<polyline class="st1" points="72.1933823,85.8850174 72.7675705,85.8850174 72.7675705,62.4799538 			"/>
			<polyline class="st1" points="71.91996,36.6140747 71.9473038,36.6140747 161.4662018,36.6140747 161.4662018,34.3720016 
				161.4662018,10.1466646 			"/>
			<polyline class="st1" points="161.4662018,10.1466646 59.2877846,10.1466646 46.3001595,10.1466646 46.3001595,30.133934 
				46.3001595,30.2159615 			"/>
			<line class="st1" x1="59.2877846" y1="10.1466646" x2="59.2877846" y2="28.4387074"/>
		</g>
	</g>
</g>
</svg>
