<?xml version="1.0" encoding="utf-8"?>
<!-- Generator: Adobe Illustrator 21.0.0, SVG Export Plug-In . SVG Version: 6.00 Build 0)  -->
<svg version="1.1" id="Layer_1" xmlns="http://www.w3.org/2000/svg" xmlns:xlink="http://www.w3.org/1999/xlink" x="0px" y="0px"
	 viewBox="0 0 100 100" style="enable-background:new 0 0 100 100;" xml:space="preserve">
<style type="text/css">
	.st0{fill:#FCF211;}
	.st1{fill:#000000;}
	.st2{enable-background:new    ;}
</style>
<g id="Layer_1_1_">
	<g id="Layer_2">
	</g>
	<g>
		<g>
			<rect x="0.9" y="0.9" class="st0" width="98.2" height="98.2"/>
			<path class="st1" d="M100,100H0V0h100V100z M1.8,98.2h96.4V1.8H1.8V98.2z"/>
		</g>
		<g>
			<polygon points="50.3,75.8 23.2,28.5 24.8,27.6 50.3,72.2 75.2,27.6 76.8,28.4 			"/>
		</g>
		<g>
			<rect x="24" y="49.1" width="52" height="1.8"/>
		</g>
	</g>
</g>
<g id="Layer_2_2_">
	<g class="st2">
		<path d="M11.8,85.8V87c-0.4-0.2-0.9-0.4-1.3-0.5s-0.8-0.2-1.2-0.2c-0.6,0-1.1,0.1-1.5,0.4s-0.5,0.6-0.5,1.1c0,0.4,0.1,0.7,0.3,0.9
			S8.4,89,9,89.1l0.7,0.1c0.9,0.2,1.5,0.5,2,0.9s0.6,1,0.6,1.7c0,0.8-0.3,1.5-0.9,1.9s-1.4,0.7-2.5,0.7c-0.4,0-0.9,0-1.3-0.1
			s-0.9-0.2-1.4-0.4v-1.2c0.5,0.3,1,0.5,1.4,0.6s0.9,0.2,1.4,0.2c0.7,0,1.2-0.1,1.6-0.4s0.6-0.6,0.6-1.1c0-0.4-0.1-0.8-0.4-1
			s-0.7-0.4-1.3-0.5l-0.7-0.1c-0.9-0.2-1.5-0.5-1.9-0.8s-0.6-0.9-0.6-1.6c0-0.8,0.3-1.4,0.8-1.8s1.3-0.7,2.3-0.7
			c0.4,0,0.8,0,1.3,0.1S11.4,85.7,11.8,85.8z"/>
		<path d="M18.3,90.2c0.3,0.1,0.5,0.3,0.7,0.6s0.5,0.7,0.7,1.2l1.2,2.4h-1.3L18.6,92c-0.3-0.6-0.6-1-0.8-1.2s-0.6-0.3-1.1-0.3h-1.3
			v3.7h-1.2v-8.7h2.7c1,0,1.7,0.2,2.2,0.6s0.7,1,0.7,1.9c0,0.6-0.1,1-0.4,1.4S18.8,90.1,18.3,90.2z M15.4,86.5v3.1h1.5
			c0.6,0,1-0.1,1.3-0.4s0.4-0.7,0.4-1.2s-0.1-0.9-0.4-1.2s-0.7-0.4-1.3-0.4L15.4,86.5L15.4,86.5z"/>
	</g>
</g>
</svg>
