<?xml version="1.0" encoding="utf-8"?>
<!-- Generator: Adobe Illustrator 21.0.0, SVG Export Plug-In . SVG Version: 6.00 Build 0)  -->
<svg version="1.1" id="Layer_1" xmlns="http://www.w3.org/2000/svg" xmlns:xlink="http://www.w3.org/1999/xlink" x="0px" y="0px"
	 viewBox="0 0 100 100" style="enable-background:new 0 0 100 100;" xml:space="preserve">
<style type="text/css">
	.st0{fill:#FCF211;}
	.st1{fill:#96900A;}
	.st2{enable-background:new    ;}
</style>
<g id="Layer_1_1_">
	<g id="Layer_2">
	</g>
	<g>
		<g>
			<rect x="0.9" y="0.9" class="st0" width="98.2" height="98.2"/>
			<path class="st1" d="M100,100H0V0h100V100z M1.8,98.2h96.4V1.8H1.8V98.2z"/>
		</g>
		<g>
			<polygon points="50.3,75.8 23.2,28.5 24.8,27.6 50.3,72.2 75.2,27.6 76.8,28.4 			"/>
		</g>
		<g>
			<rect x="24" y="49.1" width="52" height="1.8"/>
		</g>
	</g>
</g>
<g id="Layer_2_2_">
	<g class="st2">
		<path d="M13.43,83.328v1.489c-0.579-0.277-1.126-0.484-1.64-0.619c-0.513-0.135-1.01-0.204-1.489-0.204
			c-0.832,0-1.473,0.161-1.923,0.484c-0.45,0.322-0.676,0.78-0.676,1.375c0,0.499,0.15,0.876,0.45,1.13S9.02,87.442,9.856,87.6
			l0.922,0.188c1.139,0.217,1.979,0.599,2.521,1.146c0.542,0.547,0.813,1.278,0.813,2.196c0,1.094-0.366,1.922-1.1,2.487
			s-1.807,0.846-3.224,0.846c-0.534,0-1.102-0.061-1.704-0.182s-1.225-0.299-1.87-0.537v-1.573c0.619,0.348,1.227,0.61,1.821,0.786
			c0.595,0.175,1.179,0.264,1.753,0.264c0.872,0,1.544-0.172,2.018-0.513c0.473-0.342,0.711-0.832,0.711-1.467
			c0-0.555-0.17-0.988-0.511-1.3s-0.898-0.547-1.674-0.703l-0.93-0.182C8.263,88.829,7.44,88.474,6.93,87.99
			s-0.764-1.156-0.764-2.018c0-0.997,0.351-1.784,1.054-2.358c0.703-0.574,1.672-0.862,2.906-0.862c0.529,0,1.068,0.048,1.618,0.143
			C12.293,82.991,12.856,83.137,13.43,83.328z"/>
		<path d="M21.842,88.951c0.328,0.111,0.646,0.348,0.956,0.711c0.31,0.362,0.62,0.862,0.934,1.496l1.549,3.084h-1.64l-1.444-2.895
			c-0.373-0.756-0.734-1.258-1.085-1.504c-0.351-0.246-0.828-0.37-1.432-0.37h-1.663v4.769H16.49V82.958h3.447
			c1.29,0,2.252,0.27,2.887,0.809s0.952,1.353,0.952,2.442c0,0.711-0.165,1.3-0.495,1.769
			C22.951,88.445,22.473,88.771,21.842,88.951z M18.019,84.213v4.005h1.92c0.735,0,1.291-0.17,1.667-0.511s0.564-0.84,0.564-1.5
			s-0.188-1.157-0.564-1.493c-0.375-0.335-0.931-0.503-1.667-0.503h-1.92V84.213z"/>
	</g>
</g>
</svg>
