<?xml version="1.0" encoding="utf-8"?>
<!-- Generator: Adobe Illustrator 21.0.0, SVG Export Plug-In . SVG Version: 6.00 Build 0)  -->
<svg version="1.1" id="Layer_1" xmlns="http://www.w3.org/2000/svg" xmlns:xlink="http://www.w3.org/1999/xlink" x="0px" y="0px"
	 viewBox="0 0 100 100" style="enable-background:new 0 0 100 100;" xml:space="preserve">
<style type="text/css">
	.st0{fill:none;}
	.st1{fill:#FEC251;}
	.st2{fill:url(#New_Pattern_Swatch_1);}
	.st3{fill:#231F20;}
	.st4{enable-background:new    ;}
</style>
<pattern  y="100" width="31.006" height="31.006" patternUnits="userSpaceOnUse" id="New_Pattern_Swatch_1" viewBox="0 -31.006 31.006 31.006" style="overflow:visible;">
	<g>
		<rect y="-31.006" class="st0" width="31.006" height="31.006"/>
		<rect x="0" y="-31.006" class="st1" width="31.006" height="31.006"/>
	</g>
</pattern>
<g id="Layer_1_1_">
	<g id="Layer_2">
	</g>
	<g>
		<g>
			<rect x="0.9" y="0.9" class="st2" width="98.2" height="98.2"/>
			<path class="st3" d="M100,100H0V0h100V100z M1.8,98.2h96.4V1.8H1.8V98.2z"/>
		</g>
		<g>
			<polygon points="50.3,75.8 23.2,28.5 24.8,27.6 50.3,72.2 75.2,27.6 76.8,28.4 			"/>
		</g>
		<g>
			<rect x="24" y="49.1" width="52" height="1.8"/>
		</g>
	</g>
</g>
<g id="Layer_2_2_">
	<g class="st4">
		<path d="M11.797,85.831v1.154c-0.449-0.215-0.873-0.375-1.271-0.48s-0.783-0.158-1.154-0.158c-0.645,0-1.142,0.125-1.491,0.375
			s-0.524,0.605-0.524,1.066c0,0.387,0.116,0.679,0.349,0.876s0.673,0.356,1.321,0.478l0.715,0.146
			c0.883,0.168,1.534,0.464,1.954,0.888s0.63,0.991,0.63,1.702c0,0.848-0.284,1.49-0.853,1.928s-1.401,0.656-2.499,0.656
			c-0.414,0-0.854-0.047-1.321-0.141s-0.95-0.232-1.45-0.416v-1.219c0.48,0.27,0.951,0.473,1.412,0.609s0.914,0.205,1.359,0.205
			c0.676,0,1.197-0.133,1.564-0.398s0.551-0.645,0.551-1.137c0-0.43-0.132-0.766-0.396-1.008s-0.696-0.424-1.298-0.545l-0.721-0.141
			c-0.883-0.176-1.521-0.451-1.916-0.826s-0.592-0.896-0.592-1.564c0-0.773,0.272-1.383,0.817-1.828s1.296-0.668,2.253-0.668
			c0.41,0,0.828,0.037,1.254,0.111S11.352,85.683,11.797,85.831z"/>
		<path d="M18.318,90.19c0.254,0.086,0.501,0.27,0.741,0.551s0.481,0.668,0.724,1.16l1.201,2.391h-1.271l-1.119-2.244
			c-0.289-0.586-0.569-0.975-0.841-1.166s-0.642-0.287-1.11-0.287h-1.289v3.697H14.17v-8.748h2.672c1,0,1.746,0.209,2.238,0.627
			s0.738,1.049,0.738,1.893c0,0.551-0.128,1.008-0.384,1.371S18.807,90.05,18.318,90.19z M15.354,86.517v3.105h1.488
			c0.57,0,1.001-0.132,1.292-0.396s0.437-0.651,0.437-1.163s-0.146-0.897-0.437-1.157s-0.722-0.39-1.292-0.39H15.354z"/>
	</g>
</g>
</svg>
