<?xml version="1.0" encoding="utf-8"?>
<!-- Generator: Adobe Illustrator 21.0.0, SVG Export Plug-In . SVG Version: 6.00 Build 0)  -->
<svg version="1.1" id="Layer_1" xmlns="http://www.w3.org/2000/svg" xmlns:xlink="http://www.w3.org/1999/xlink" x="0px" y="0px"
	 viewBox="0 0 100 100" style="enable-background:new 0 0 100 100;" xml:space="preserve">
<style type="text/css">
	.st0{fill:#FCF211;}
	.st1{fill:#96900A;}
</style>
<g id="Layer_1_1_">
	<g id="Layer_2">
	</g>
	<g>
		<g>
			<rect x="0.9" y="0.9" class="st0" width="98.2" height="98.2"/>
			<path class="st1" d="M100,100H0V0h100V100z M1.8,98.2h96.4V1.8H1.8V98.2z"/>
		</g>
		<g>
			<polygon points="50.3,75.8 23.2,28.5 24.8,27.6 50.3,72.2 75.2,27.6 76.8,28.4 			"/>
		</g>
		<g>
			<rect x="24" y="49.1" width="52" height="1.8"/>
		</g>
	</g>
</g>
<g>
	<path d="M6.553,83.103h6.43v1.274H8.066v3.297h4.437v1.274H8.066v5.344H6.553V83.103z"/>
	<path d="M20.687,89.045c0.325,0.11,0.64,0.346,0.947,0.704c0.307,0.36,0.615,0.854,0.926,1.483l1.536,3.058h-1.625l-1.432-2.87
		c-0.369-0.749-0.728-1.247-1.075-1.491c-0.347-0.244-0.821-0.367-1.419-0.367h-1.648v4.728h-1.514V83.103H18.8
		c1.279,0,2.233,0.268,2.862,0.802c0.629,0.534,0.944,1.341,0.944,2.421c0,0.704-0.164,1.289-0.491,1.754
		C21.787,88.545,21.311,88.867,20.687,89.045z M16.895,84.348v3.971h1.904c0.729,0,1.281-0.168,1.653-0.506
		c0.372-0.338,0.559-0.832,0.559-1.488c0-0.655-0.187-1.147-0.559-1.48s-0.924-0.499-1.653-0.499h-1.904V84.348z"/>
</g>
</svg>
