<?xml version="1.0" encoding="utf-8"?>
<!-- Generator: Adobe Illustrator 21.0.0, SVG Export Plug-In . SVG Version: 6.00 Build 0)  -->
<svg version="1.1" id="Layer_1" xmlns="http://www.w3.org/2000/svg" xmlns:xlink="http://www.w3.org/1999/xlink" x="0px" y="0px"
	 viewBox="0 0 100 100" style="enable-background:new 0 0 100 100;" xml:space="preserve">
<style type="text/css">
	.st0{fill:#FC0D1B;}
	.st1{fill:#000000;}
	.st2{fill:#FFFFFF;}
</style>
<g id="Layer_1_1_">
	<g id="Layer_2">
	</g>
	<g>
		<g>
			<rect x="0.9" y="0.9" class="st0" width="98.2" height="98.2"/>
			<path class="st1" d="M100,100H0V0h100V100z M1.8,98.2h96.4V1.8H1.8V98.2z"/>
		</g>
		<g>
			<polygon class="st2" points="50.3,75.8 23.2,28.5 24.8,27.6 50.3,72.2 75.2,27.6 76.8,28.4 			"/>
		</g>
		<g>
			<rect x="24" y="49.1" class="st2" width="52" height="1.8"/>
		</g>
	</g>
</g>
<g>
	<path class="st2" d="M6.6,85.5h5v1H7.7v2.6h3.5v1H7.7v4.2H6.6V85.5z"/>
	<path class="st2" d="M17.6,90.2c0.3,0.1,0.5,0.3,0.7,0.6s0.5,0.7,0.7,1.2l1.2,2.4H19L17.9,92c-0.3-0.6-0.6-1-0.8-1.2
		s-0.6-0.3-1.1-0.3h-1.3v3.7h-1.2v-8.7h2.7c1,0,1.7,0.2,2.2,0.6s0.7,1,0.7,1.9c0,0.6-0.1,1-0.4,1.4S18.1,90.1,17.6,90.2z M14.6,86.5
		v3.1h1.5c0.6,0,1-0.1,1.3-0.4s0.4-0.7,0.4-1.2s-0.1-0.9-0.4-1.2s-0.7-0.4-1.3-0.4L14.6,86.5L14.6,86.5z"/>
</g>
</svg>
