<?xml version="1.0" encoding="utf-8"?>
<!-- Generator: Adobe Illustrator 21.0.0, SVG Export Plug-In . SVG Version: 6.00 Build 0)  -->
<svg version="1.1" id="Layer_1" xmlns="http://www.w3.org/2000/svg" xmlns:xlink="http://www.w3.org/1999/xlink" x="0px" y="0px"
	 viewBox="0 0 100 100" style="enable-background:new 0 0 100 100;" xml:space="preserve">
<style type="text/css">
	.st0{fill:#24E629;}
	.st1{fill:#231F20;}
</style>
<g id="Layer_1_1_">
	<g id="Layer_2">
	</g>
	<g>
		<g>
			<rect x="0.9" y="0.9" class="st0" width="98.2" height="98.2"/>
			<path class="st1" d="M100,100H0V0h100V100z M1.8,98.2h96.4V1.8H1.8V98.2z"/>
		</g>
		<g>
			<polygon points="50.3,75.8 23.2,28.5 24.8,27.6 50.3,72.2 75.2,27.6 76.8,28.4 			"/>
		</g>
		<g>
			<rect x="24" y="49.1" width="52" height="1.8"/>
		</g>
	</g>
</g>
<g>
	<path d="M6.553,85.544h5.027v0.996H7.736v2.578h3.469v0.996H7.736v4.178H6.553V85.544z"/>
	<path d="M17.604,90.19c0.254,0.086,0.501,0.27,0.741,0.551s0.481,0.668,0.724,1.16l1.201,2.391h-1.271l-1.119-2.244
		c-0.289-0.586-0.569-0.975-0.841-1.166s-0.642-0.287-1.11-0.287h-1.289v3.697h-1.184v-8.748h2.672c1,0,1.746,0.209,2.238,0.627
		s0.738,1.049,0.738,1.893c0,0.551-0.128,1.008-0.384,1.371S18.092,90.05,17.604,90.19z M14.639,86.517v3.105h1.488
		c0.57,0,1.001-0.132,1.292-0.396s0.437-0.651,0.437-1.163s-0.146-0.897-0.437-1.157s-0.722-0.39-1.292-0.39H14.639z"/>
</g>
</svg>
