<?xml version="1.0" encoding="utf-8"?>
<!-- Generator: Adobe Illustrator 21.0.0, SVG Export Plug-In . SVG Version: 6.00 Build 0)  -->
<svg version="1.1" id="Layer_1" xmlns="http://www.w3.org/2000/svg" xmlns:xlink="http://www.w3.org/1999/xlink" x="0px" y="0px"
	 viewBox="0 0 100 100" style="enable-background:new 0 0 100 100;" xml:space="preserve">
<style type="text/css">
	.st0{fill:#FC0D1B;}
	.st1{fill:#960810;}
	.st2{fill:#FFFFFF;}
</style>
<g id="Layer_1_1_">
	<g id="Layer_2">
	</g>
	<g>
		<g>
			<rect x="0.9" y="0.9" class="st0" width="98.2" height="98.2"/>
			<path class="st1" d="M100,100H0V0h100V100z M1.8,98.2h96.4V1.8H1.8V98.2z"/>
		</g>
		<g>
			<polygon class="st2" points="50.3,75.8 23.2,28.5 24.8,27.6 50.3,72.2 75.2,27.6 76.8,28.4 			"/>
		</g>
		<g>
			<rect x="24" y="49.1" class="st2" width="52" height="1.8"/>
		</g>
	</g>
</g>
<g>
	<path class="st2" d="M6.6,82.919h6.45v1.29H8.019v3.354h4.515v1.29H8.019v5.418H6.6V82.919z"/>
	<path class="st2" d="M20.79,88.982c0.387,0.129,0.645,0.387,0.903,0.774c0.258,0.387,0.645,0.903,0.903,1.548l1.549,3.096h-1.548
		l-1.419-3.096c-0.387-0.774-0.774-1.29-1.032-1.548c-0.258-0.258-0.774-0.387-1.419-0.387h-1.677v4.773H15.5V82.919h3.483
		c1.29,0,2.193,0.258,2.838,0.774c0.645,0.516,0.903,1.29,0.903,2.451c0,0.774-0.129,1.29-0.516,1.806
		C21.821,88.466,21.435,88.853,20.79,88.982z M16.92,84.209v3.999h1.935c0.774,0,1.29-0.129,1.677-0.516
		c0.387-0.387,0.516-0.903,0.516-1.548c0-0.645-0.129-1.161-0.516-1.548c-0.387-0.387-0.903-0.516-1.677-0.516L16.92,84.209
		L16.92,84.209z"/>
</g>
</svg>
