<?xml version="1.0" encoding="utf-8"?>
<!-- Generator: Adobe Illustrator 21.1.0, SVG Export Plug-In . SVG Version: 6.00 Build 0)  -->
<svg version="1.1" id="Layer_1" xmlns="http://www.w3.org/2000/svg" xmlns:xlink="http://www.w3.org/1999/xlink" x="0px" y="0px"
	 viewBox="0 0 16 16" style="enable-background:new 0 0 16 16;" xml:space="preserve">
<style type="text/css">
	.st0{fill:none;stroke:#000000;stroke-linecap:round;stroke-linejoin:round;stroke-miterlimit:10;}
	.st1{fill:none;stroke:#000000;stroke-width:0.75;stroke-linecap:round;stroke-linejoin:round;stroke-miterlimit:10;}
</style>
<path class="st0" d="M13.6517782,12.4799614H2.3482218C1.3274771,12.4799614,0.5,11.6524839,0.5,10.6317387V5.3682609
	c0-1.0207448,0.8274771-1.8482218,1.8482218-1.8482218h11.3035564c1.0207443,0,1.8482218,0.827477,1.8482218,1.8482218v5.2634778
	C15.5,11.6524839,14.6725225,12.4799614,13.6517782,12.4799614z"/>
<polyline class="st0" points="8.5400782,3.5200391 8.5400782,8 8.5400782,12.4799614 "/>
<g>
	<path d="M3.0664065,9.0041618h0.8885617V6.4816136L3.0427053,6.6698289V5.9848185l0.907151-0.1882153H4.906733v3.2075586h0.8885617
		v0.6952353H3.0664065V9.0041618z"/>
</g>
<line class="st0" x1="8.5400782" y1="8" x2="15.5" y2="8"/>
<polyline class="st1" points="13.5647058,6.5843749 12.0200386,5.0668149 10.4753723,6.5843749 "/>
<polyline class="st1" points="13.5647058,9.4156246 12.0200386,10.9331856 10.4753723,9.4156246 "/>
</svg>
