<?xml version="1.0" encoding="utf-8"?>
<!-- Generator: Adobe Illustrator 21.0.0, SVG Export Plug-In . SVG Version: 6.00 Build 0)  -->
<svg version="1.1" id="Layer_1" xmlns="http://www.w3.org/2000/svg" xmlns:xlink="http://www.w3.org/1999/xlink" x="0px" y="0px"
	 viewBox="0 0 100 100" style="enable-background:new 0 0 100 100;" xml:space="preserve">
<style type="text/css">
	.st0{fill:#FC0D1B;}
	.st1{fill:#960810;}
	.st2{fill:#FFFFFF;}
	.st3{display:none;}
	.st4{display:inline;}
	.st5{font-family:'Helvetica';}
	.st6{font-size:10.385px;}
	.st7{enable-background:new    ;}
</style>
<g id="Layer_1_1_">
	<g id="Layer_2">
	</g>
	<g>
		<g>
			<rect x="0.9" y="0.9" class="st0" width="98.2" height="98.2"/>
			<path class="st1" d="M100,100H0V0h100V100z M1.8,98.2h96.4V1.8H1.8V98.2z"/>
		</g>
		<g>
			<polygon class="st2" points="50.3,75.8 23.2,28.5 24.8,27.6 50.3,72.2 75.2,27.6 76.8,28.4 			"/>
		</g>
		<g>
			<rect x="24" y="49.1" class="st2" width="52" height="1.8"/>
		</g>
	</g>
</g>
<g id="Layer_2_1_" class="st3">
	<text transform="matrix(1 0 0 1 5.0005 95.8096)" class="st4 st5 st6">PI</text>
</g>
<g id="Layer_2_2_">
	<g class="st7">
		<path class="st2" d="M6.553,83.009h1.52v4.605h5.523v-4.605h1.52v11.234h-1.52v-5.35H8.072v5.35H6.553V83.009z"/>
		<path class="st2" d="M26.553,83.875v1.603c-0.511-0.476-1.057-0.832-1.636-1.068s-1.196-0.353-1.847-0.353
			c-1.284,0-2.268,0.393-2.95,1.178c-0.682,0.785-1.024,1.92-1.024,3.404c0,1.479,0.342,2.612,1.024,3.398s1.666,1.178,2.95,1.178
			c0.652,0,1.267-0.118,1.847-0.353c0.579-0.235,1.125-0.592,1.636-1.068v1.587c-0.532,0.361-1.095,0.632-1.689,0.813
			c-0.593,0.181-1.223,0.271-1.885,0.271c-1.7,0-3.04-0.52-4.018-1.562c-0.979-1.041-1.468-2.462-1.468-4.262
			c0-1.806,0.489-3.23,1.468-4.27c0.979-1.04,2.318-1.562,4.018-1.562c0.672,0,1.306,0.089,1.899,0.267
			C25.472,83.253,26.032,83.518,26.553,83.875z"/>
	</g>
</g>
</svg>
