<?xml version="1.0" encoding="utf-8"?>
<!-- Generator: Adobe Illustrator 21.0.0, SVG Export Plug-In . SVG Version: 6.00 Build 0)  -->
<svg version="1.1" id="Layer_1" xmlns="http://www.w3.org/2000/svg" xmlns:xlink="http://www.w3.org/1999/xlink" x="0px" y="0px"
	 viewBox="0 0 100 100" style="enable-background:new 0 0 100 100;" xml:space="preserve">
<style type="text/css">
	.st0{fill:#960810;}
	.st1{fill:#FC0D1B;}
	.st2{fill:none;stroke:#960810;stroke-width:2.7;stroke-miterlimit:10;}
	.st3{fill:none;stroke:#960810;stroke-width:2.7;}
</style>
<g>
	<g id="XMLID_1_">
		<g>
			<path class="st0" d="M99.6,21.36v57.28L50,50L99.6,21.36z M96.9,73.96V26.04L55.4,50L96.9,73.96z"/>
			<polygon class="st1" points="96.9,26.04 96.9,73.96 55.4,50 			"/>
			<path class="st0" d="M50,50L0.4,78.64V21.36L50,50z M3.1,73.96L44.6,50L3.1,26.04V73.96z"/>
			<polygon class="st1" points="44.6,50 3.1,73.96 3.1,26.04 			"/>
		</g>
		<g>
			<polyline class="st2" points="50,50.4 50,50 50,1.4 			"/>
			<polyline class="st2" points="31.39,1.4 50,1.4 68.61,1.4 			"/>
		</g>
	</g>
</g>
<g>
	<line class="st3" x1="33.005" y1="36.782" x2="62.565" y2="18.173"/>
	<line class="st3" x1="55.498" y1="6.946" x2="69.633" y2="29.399"/>
</g>
</svg>
