<?xml version="1.0" encoding="utf-8"?>
<!-- Generator: Adobe Illustrator 21.0.0, SVG Export Plug-In . SVG Version: 6.00 Build 0)  -->
<svg version="1.1" id="Layer_1" xmlns="http://www.w3.org/2000/svg" xmlns:xlink="http://www.w3.org/1999/xlink" x="0px" y="0px"
	 viewBox="0 0 100 100" style="enable-background:new 0 0 100 100;" xml:space="preserve">
<style type="text/css">
	.st0{display:none;}
	.st1{display:inline;}
	.st2{fill:#000000;}
	.st3{fill:#FFFFFF;}
	.st4{fill:none;stroke:#999999;stroke-width:1.5;stroke-miterlimit:10;}
	.st5{fill:none;stroke:#999999;stroke-width:1.5;stroke-miterlimit:10;stroke-dasharray:1.4686,1.4686;}
	.st6{fill:none;stroke:#999999;stroke-width:1.5;stroke-miterlimit:10;stroke-dasharray:1.468,1.468;}
	.st7{fill:none;stroke:#999999;stroke-width:1.5;stroke-miterlimit:10;stroke-dasharray:1.4,1.4;}
	.st8{fill:none;stroke:#999999;stroke-width:1.5;stroke-miterlimit:10;stroke-dasharray:1.5024,1.5024;}
	.st9{fill:none;stroke:#999999;stroke-width:1.5;stroke-miterlimit:10;stroke-dasharray:1.4118,1.4118;}
	.st10{fill:none;stroke:#999999;stroke-width:1.5;stroke-miterlimit:10;stroke-dasharray:1.5733,1.5733;}
	.st11{fill:none;stroke:#999999;stroke-width:1.5;stroke-miterlimit:10;stroke-dasharray:1.5555,1.5555;}
</style>
<g id="Layer_1_2_" class="st0">
	<g id="Layer_2" class="st1">
	</g>
	<g id="Layer_1_1_" class="st1">
		<g>
			<g>
				<rect x="83.1" y="49.2" class="st2" width="16.9" height="1.7"/>
			</g>
			<g>
				<path class="st2" d="M83.9,70.5L48.3,50l35.6-20.5C83.9,29.5,83.9,70.5,83.9,70.5z M51.7,50l30.5,17.6V32.4L51.7,50z"/>
			</g>
		</g>
		<g>
			<rect y="49.2" class="st2" width="16.9" height="1.7"/>
		</g>
		<g>
			<path class="st2" d="M16.1,29.5L51.7,50L16.1,70.5V29.5z M17.8,32.4v35.2L48.3,50L17.8,32.4z"/>
		</g>
		<g>
			<rect x="37.2" y="16.1" class="st2" width="25.5" height="1.7"/>
		</g>
		<g>
			<rect x="49.2" y="16.9" class="st2" width="1.7" height="33.1"/>
		</g>
	</g>
</g>
<g id="Layer_3" class="st0">
	<g id="Layer_1_3_" class="st1">
		<g>
			<g>
				<rect x="83.1" y="49.2" class="st2" width="16.9" height="1.7"/>
			</g>
			<g>
				<polygon class="st3" points="50,50 83.1,30.9 83.1,69.1 				"/>
				<path class="st2" d="M83.9,70.5L48.3,50l35.6-20.5C83.9,29.5,83.9,70.5,83.9,70.5z M51.7,50l30.5,17.6V32.4L51.7,50z"/>
			</g>
		</g>
		<g>
			<rect y="49.2" class="st2" width="16.9" height="1.7"/>
		</g>
		<g>
			<polygon class="st3" points="50,50 16.9,30.9 16.9,69.1 			"/>
			<path class="st2" d="M16.1,29.5L51.7,50L16.1,70.5V29.5z M17.8,32.4v35.2L48.3,50L17.8,32.4z"/>
		</g>
		<g>
			<rect x="37.2" y="16.1" class="st2" width="25.5" height="1.7"/>
		</g>
		<g>
			<rect x="49.2" y="16.9" class="st2" width="1.7" height="33.1"/>
		</g>
	</g>
	<g class="st1">
		<g>
			
				<rect x="59.802" y="19.807" transform="matrix(0.8721 -0.4893 0.4893 0.8721 -5.7269 33.2016)" class="st2" width="1.7" height="15.5"/>
		</g>
		<g>
			
				<rect x="37.198" y="32.902" transform="matrix(0.8721 -0.4893 0.4893 0.8721 -10.1527 28.6585)" class="st2" width="25.1" height="1.7"/>
		</g>
	</g>
</g>
<g>
	<g>
		<polyline class="st4" points="50.6,50.4 50,50 50.6,49.6 		"/>
		<line class="st5" x1="51.9" y1="48.9" x2="81.8" y2="31.6"/>
		<polyline class="st4" points="82.5,31.3 83.1,30.9 83.1,31.7 		"/>
		<line class="st6" x1="83.1" y1="33.1" x2="83.1" y2="67.6"/>
		<polyline class="st4" points="83.1,68.3 83.1,69.1 82.5,68.7 		"/>
		<line class="st5" x1="81.2" y1="68" x2="51.3" y2="50.7"/>
	</g>
</g>
<g>
	<g>
		<polyline class="st4" points="49.4,50.4 50,50 49.4,49.6 		"/>
		<line class="st5" x1="48.1" y1="48.9" x2="18.2" y2="31.6"/>
		<polyline class="st4" points="17.5,31.3 16.9,30.9 16.9,31.7 		"/>
		<line class="st6" x1="16.9" y1="33.1" x2="16.9" y2="67.6"/>
		<polyline class="st4" points="16.9,68.3 16.9,69.1 17.5,68.7 		"/>
		<line class="st5" x1="18.8" y1="68" x2="48.7" y2="50.7"/>
	</g>
</g>
<g>
	<g>
		<line class="st4" x1="16.9" y1="50" x2="16.1" y2="50"/>
		<line class="st7" x1="14.8" y1="50" x2="1.4" y2="50"/>
		<line class="st4" x1="0.8" y1="50" x2="0" y2="50"/>
	</g>
</g>
<g>
	<g>
		<line class="st4" x1="83.1" y1="50.1" x2="83.8" y2="50.1"/>
		<line class="st7" x1="85.2" y1="50.1" x2="98.6" y2="50.1"/>
		<line class="st4" x1="99.2" y1="50.1" x2="100" y2="50.1"/>
	</g>
</g>
<g>
	<g>
		<line class="st4" x1="50" y1="50" x2="50" y2="49.2"/>
		<line class="st8" x1="50" y1="47.7" x2="50" y2="18.5"/>
		<line class="st4" x1="50" y1="17.7" x2="50" y2="16.9"/>
	</g>
</g>
<g>
	<g>
		<line class="st4" x1="37.2" y1="16.9" x2="38" y2="16.9"/>
		<line class="st9" x1="39.4" y1="16.9" x2="61.2" y2="16.9"/>
		<line class="st4" x1="62" y1="16.9" x2="62.7" y2="16.9"/>
	</g>
</g>
<g>
	<g>
		<line class="st4" x1="38.8" y1="39.9" x2="39.5" y2="39.5"/>
		<line class="st10" x1="40.8" y1="38.8" x2="59.4" y2="28.4"/>
		<line class="st4" x1="60.1" y1="28" x2="60.7" y2="27.6"/>
	</g>
</g>
<g>
	<g>
		<line class="st4" x1="56.9" y1="20.8" x2="57.2" y2="21.4"/>
		<line class="st11" x1="58" y1="22.8" x2="63.7" y2="32.9"/>
		<line class="st4" x1="64.1" y1="33.6" x2="64.4" y2="34.3"/>
	</g>
</g>
</svg>
