<?xml version="1.0" encoding="utf-8"?>
<!-- Generator: Adobe Illustrator 21.0.0, SVG Export Plug-In . SVG Version: 6.00 Build 0)  -->
<svg version="1.1" id="Layer_1" xmlns="http://www.w3.org/2000/svg" xmlns:xlink="http://www.w3.org/1999/xlink" x="0px" y="0px"
	 viewBox="0 0 100 100" style="enable-background:new 0 0 100 100;" xml:space="preserve">
<style type="text/css">
	.st0{fill:#000000;}
	.st1{fill:#13BFF9;}
</style>
<g id="Layer_2">
</g>
<g id="Layer_1_1_">
	<g>
		<g>
			<rect x="83.1" y="49.2" class="st0" width="16.9" height="1.7"/>
		</g>
		<g>
			<polygon class="st1" points="50,50 83.1,30.9 83.1,69.1 			"/>
			<path class="st0" d="M83.9,70.5L48.3,50l35.6-20.5C83.9,29.5,83.9,70.5,83.9,70.5z M51.7,50l30.5,17.6V32.4L51.7,50z"/>
		</g>
	</g>
	<g>
		<rect y="49.2" class="st0" width="16.9" height="1.7"/>
	</g>
	<g>
		<polygon class="st1" points="50,50 16.9,30.9 16.9,69.1 		"/>
		<path class="st0" d="M16.1,29.5L51.7,50L16.1,70.5V29.5z M17.8,32.4v35.2L48.3,50L17.8,32.4z"/>
	</g>
	<g>
		<rect x="37.2" y="16.1" class="st0" width="25.5" height="1.7"/>
	</g>
	<g>
		<rect x="49.2" y="16.9" class="st0" width="1.7" height="33.1"/>
	</g>
</g>
<g>
	<g>
		
			<rect x="59.8" y="19.8" transform="matrix(0.8721 -0.4893 0.4893 0.8721 -5.7095 33.1974)" class="st0" width="1.7" height="15.5"/>
	</g>
	<g>
		
			<rect x="37.2" y="32.9" transform="matrix(0.8721 -0.4893 0.4893 0.8721 -10.1482 28.6624)" class="st0" width="25.1" height="1.7"/>
	</g>
</g>
</svg>
