<?xml version="1.0" encoding="utf-8"?>
<!-- Generator: Adobe Illustrator 21.0.0, SVG Export Plug-In . SVG Version: 6.00 Build 0)  -->
<svg version="1.1" id="Layer_1" xmlns="http://www.w3.org/2000/svg" xmlns:xlink="http://www.w3.org/1999/xlink" x="0px" y="0px"
	 viewBox="0 0 100 100" style="enable-background:new 0 0 100 100;" xml:space="preserve">
<style type="text/css">
	.st0{display:none;}
	.st1{display:inline;}
	.st2{fill:#FFFFFF;}
	.st3{fill:none;stroke:#797979;stroke-width:2.7;stroke-miterlimit:10;stroke-dasharray:1.472,1.4721;}
	.st4{fill:none;stroke:#797979;stroke-width:2.7;stroke-dasharray:1.472,1.4721;}
	.st5{fill:#797979;}
</style>
<g id="Layer_1_2_" class="st0">
	<g id="Layer_2" class="st1">
	</g>
	<g id="Layer_1_1_" class="st1">
		<g>
			<g>
				<rect x="83.1" y="49.2" width="16.9" height="1.7"/>
			</g>
			<g>
				<path d="M83.9,70.5L48.3,50l35.6-20.5C83.9,29.5,83.9,70.5,83.9,70.5z M51.7,50l30.5,17.6V32.4L51.7,50z"/>
			</g>
		</g>
		<g>
			<rect y="49.2" width="16.9" height="1.7"/>
		</g>
		<g>
			<path d="M16.1,29.5L51.7,50L16.1,70.5V29.5z M17.8,32.4v35.2L48.3,50L17.8,32.4z"/>
		</g>
		<g>
			<rect x="37.2" y="16.1" width="25.5" height="1.7"/>
		</g>
		<g>
			<rect x="49.2" y="16.9" width="1.7" height="33.1"/>
		</g>
	</g>
</g>
<g id="Layer_3" class="st0">
	<g id="Layer_1_3_" class="st1">
		<g>
			<g>
				<rect x="83.1" y="49.2" width="16.9" height="1.7"/>
			</g>
			<g>
				<polygon class="st2" points="50,50 83.1,30.9 83.1,69.1 				"/>
				<path d="M83.9,70.5L48.3,50l35.6-20.5C83.9,29.5,83.9,70.5,83.9,70.5z M51.7,50l30.5,17.6V32.4L51.7,50z"/>
			</g>
		</g>
		<g>
			<rect y="49.2" width="16.9" height="1.7"/>
		</g>
		<g>
			<polygon class="st2" points="50,50 16.9,30.9 16.9,69.1 			"/>
			<path d="M16.1,29.5L51.7,50L16.1,70.5V29.5z M17.8,32.4v35.2L48.3,50L17.8,32.4z"/>
		</g>
		<g>
			<rect x="37.2" y="16.1" width="25.5" height="1.7"/>
		</g>
		<g>
			<rect x="49.2" y="16.9" width="1.7" height="33.1"/>
		</g>
	</g>
	<g class="st1">
		<g>
			<rect x="59.8" y="19.807" transform="matrix(0.8721 -0.4893 0.4893 0.8721 -5.7275 33.2008)" width="1.7" height="15.5"/>
		</g>
		<g>
			<rect x="37.197" y="32.902" transform="matrix(0.8721 -0.4893 0.4893 0.8721 -10.1528 28.6581)" width="25.1" height="1.7"/>
		</g>
	</g>
</g>
<polyline class="st3" points="50,50.4 50,50 50,1.4 "/>
<polyline class="st3" points="31.39,1.4 50,1.4 68.61,1.4 "/>
<g>
	<line class="st4" x1="33.005" y1="36.782" x2="62.565" y2="18.173"/>
	<line class="st4" x1="55.498" y1="6.946" x2="69.633" y2="29.399"/>
</g>
<g>
	<path class="st5" d="M3.1,27.248H0.4v1.472h2.7V27.248L3.1,27.248z M3.1,30.192H0.4v1.472h2.7V30.192L3.1,30.192z M3.1,33.136H0.4
		v1.472h2.7V33.136L3.1,33.136z M3.1,36.081H0.4v1.472h2.7V36.081L3.1,36.081z M3.1,39.025H0.4v1.472h2.7V39.025L3.1,39.025z
		 M3.1,41.969H0.4v1.472h2.7V41.969L3.1,41.969z M3.1,44.913H0.4v1.472h2.7V44.913L3.1,44.913z M3.1,47.857H0.4v1.472h2.7V47.857
		L3.1,47.857z M3.1,50.801H0.4v1.472h2.7V50.801L3.1,50.801z M3.1,53.745H0.4v1.472h2.7V53.745L3.1,53.745z M3.1,56.689H0.4v1.472
		h2.7V56.689L3.1,56.689z M3.1,59.633H0.4v1.472h2.7V59.633L3.1,59.633z M3.1,62.577H0.4v1.472h2.7V62.577L3.1,62.577z M3.1,65.521
		H0.4v1.472h2.7V65.521L3.1,65.521z M3.1,68.466H0.4v1.472h2.7V68.466L3.1,68.466z M3.1,71.41H0.4v1.472h2.7V71.41L3.1,71.41z
		 M3.1,74.354H0.4v1.472h0.225l0.85,1.472H0.4c0,0,0,0.692,0,1.082l0,0v0.26l0,0l0,0l0,0l0,0l0,0l0,0l0,0l2.324-1.342h0
		c0.192-0.111,0.338-0.195,0.338-0.195l-0.737-1.277H3.1V74.354L3.1,74.354z M4.262,73.292l-1.275,0.736l1.35,2.338
		c0,0,0.253-0.146,0.533-0.308l0.001-0.001c0,0,0.001,0,0.001-0.001l0.002-0.001c0.001,0,0.002-0.001,0.002-0.001l0.735-0.424
		L4.262,73.292L4.262,73.292z M6.811,71.82l-1.275,0.736l1.35,2.338c0,0,0.247-0.143,0.524-0.303l0.014-0.008
		c0.001,0,0.001-0.001,0.002-0.001l0.006-0.004c0,0,0.001,0,0.001-0.001l0.003-0.002c0,0,0,0,0,0l0.002-0.001
		c0.001,0,0.001-0.001,0.002-0.001l0.72-0.416L6.811,71.82L6.811,71.82z M9.361,70.348l-1.275,0.736l1.35,2.338l0.987-0.57
		c0,0,0,0,0,0l0.002-0.001c0.001,0,0.001-0.001,0.002-0.001l0.001,0c0.164-0.095,0.283-0.163,0.283-0.163L9.361,70.348L9.361,70.348
		z M11.91,68.876l-1.275,0.736l1.35,2.338l1.275-0.736L11.91,68.876L11.91,68.876z M14.46,67.404l-1.275,0.736l1.35,2.338
		l1.275-0.736L14.46,67.404L14.46,67.404z M17.01,65.932l-1.275,0.736l1.35,2.338c0,0,0.321-0.185,0.641-0.37l0.001-0.001
		c0.001,0,0.001-0.001,0.002-0.001l0.631-0.364L17.01,65.932L17.01,65.932z M19.559,64.459l-1.275,0.736l1.35,2.338
		c0,0,0.473-0.273,0.843-0.487l0.001-0.001c0.003-0.002,0.006-0.003,0.008-0.005l0.003-0.001c0.001,0,0.001-0.001,0.002-0.001
		l0.418-0.242L19.559,64.459L19.559,64.459z M22.109,62.987l-1.275,0.736l1.35,2.338l0.848-0.49c0.001,0,0.001-0.001,0.002-0.001
		l0.001,0c0.002-0.001,0.004-0.003,0.007-0.004l0.001-0.001c0.23-0.133,0.417-0.241,0.417-0.241L22.109,62.987L22.109,62.987z
		 M24.658,61.515l-0.808,0.467l-0.466,0.269l1.35,2.338l0.447-0.258c0,0,0,0,0,0l0.004-0.002c0,0,0,0,0.001,0l0.001-0.001
		c0.001,0,0.001-0.001,0.002-0.001l0,0c0,0,0.001-0.001,0.001-0.001l0.001,0c0,0,0.001,0,0.001-0.001l0,0
		c0.001,0,0.001-0.001,0.002-0.001l0,0c0,0,0.001,0,0.001-0.001l0,0c0.002-0.001,0.004-0.002,0.004-0.002l0,0c0,0,0,0,0,0
		s0.013-0.007,0.035-0.02l0,0c0.022-0.013,0.053-0.031,0.091-0.053l0.001,0c0.019-0.011,0.039-0.023,0.061-0.035l0.001-0.001
		c0.011-0.006,0.021-0.012,0.033-0.019l0,0c0.011-0.006,0.022-0.013,0.033-0.019l0.002-0.001c0.011-0.007,0.023-0.013,0.035-0.02
		l0.001,0c0.009-0.005,0.018-0.01,0.027-0.016l0,0c0.001-0.001,0.003-0.002,0.004-0.002l0,0c0.001-0.001,0.002-0.001,0.004-0.002
		l0.002-0.001c0.006-0.003,0.012-0.007,0.018-0.01l0.001,0c0.003-0.002,0.006-0.003,0.009-0.005l0.001,0
		c0.003-0.002,0.005-0.003,0.008-0.005l0.002-0.001c0,0,0,0,0,0l0.002-0.001c0,0,0.001-0.001,0.001-0.001l0.001-0.001
		c0.001-0.001,0.002-0.001,0.003-0.002l0.002-0.001c0,0,0,0,0.001,0l0.001-0.001c0.001,0,0.001-0.001,0.002-0.001l0,0
		c0.001-0.001,0.002-0.001,0.004-0.002l0.004-0.002c0,0,0,0,0.001,0l0.001-0.001c0.001,0,0.001-0.001,0.002-0.001l0.008-0.005
		c0,0,0,0,0.001,0l0.011-0.006c0,0,0,0,0.001,0l0.002-0.001c0.001-0.001,0.002-0.001,0.003-0.002l0,0
		c0.001-0.001,0.002-0.001,0.004-0.002l0.004-0.002c0.001,0,0.001-0.001,0.002-0.001l0,0c0.001-0.001,0.002-0.001,0.004-0.002
		l0.002-0.001c0.002-0.001,0.005-0.003,0.007-0.004l0.004-0.003c0,0,0.001,0,0.001-0.001l0.001-0.001
		c0.001,0,0.001-0.001,0.002-0.001l0,0c0.001,0,0.001-0.001,0.002-0.001l0,0c0.003-0.002,0.005-0.003,0.008-0.005l0.004-0.002
		c0,0,0,0,0.001,0l0.001-0.001c0,0,0.001,0,0.001-0.001l0.004-0.002c0,0,0.001,0,0.001-0.001l0.004-0.002c0,0,0,0,0,0l0.006-0.003
		c0.002-0.001,0.004-0.002,0.006-0.004l0.001-0.001c0.003-0.001,0.005-0.003,0.008-0.004l0.002-0.001c0,0,0.001-0.001,0.001-0.001
		l0.001,0c0.001,0,0.001-0.001,0.002-0.001l0,0c0.004-0.002,0.008-0.004,0.011-0.007l0,0c0,0,0.001,0,0.001,0l0.004-0.002
		c0.002-0.001,0.004-0.002,0.006-0.003l0.001-0.001c0.002-0.001,0.005-0.003,0.007-0.004l0.002-0.001c0,0,0.001,0,0.001-0.001l0,0
		c0.001,0,0.001-0.001,0.002-0.001l0.001,0c0,0,0.001,0,0.001-0.001l0.002-0.001c0,0,0,0,0.001,0l0.002-0.001c0,0,0,0,0,0
		l0.002-0.001c0,0,0,0,0.001,0l0.025-0.015c0.002-0.001,0.004-0.002,0.006-0.003l0.001-0.001c0.001-0.001,0.002-0.001,0.004-0.002
		l0,0c0.001,0,0.001-0.001,0.002-0.001l0.005-0.003c0,0,0.001-0.001,0.001-0.001l0.001,0c0,0,0.001,0,0.001-0.001l0.001-0.001
		c0,0,0,0,0.001,0l0.002-0.001c0.001-0.001,0.002-0.001,0.003-0.002l0.001-0.001c0,0,0,0,0.001,0l0.005-0.003
		c0,0,0.001-0.001,0.002-0.001l0.001,0c0.001,0,0.001-0.001,0.002-0.001l0.001,0c0,0,0,0,0.001,0l0.002-0.001c0,0,0,0,0.001,0
		l0.001,0c0,0,0.001-0.001,0.001-0.001l0.001-0.001c0,0,0,0,0.001,0l0.008-0.004c0,0,0,0,0,0l0.004-0.002
		c0.001-0.001,0.002-0.001,0.003-0.002l0,0c0.001-0.001,0.002-0.001,0.003-0.002l0.003-0.002c0,0,0.001,0,0.001,0l0.001-0.001
		c0.001,0,0.001-0.001,0.002-0.001l0.004-0.002c0,0,0,0,0.001,0l0.009-0.005c0,0,0,0,0,0l0.005-0.003c0,0,0,0,0,0l0.002-0.001
		c0,0,0,0,0,0l0.04-0.023c0,0,0,0,0,0l0.012-0.007c0,0,0,0,0.001,0l0.001-0.001c0,0,0,0,0,0l0.004-0.002c0,0,0,0,0.001,0l0.001,0
		c0,0,0.001,0,0.001-0.001l0.058-0.033c0,0,0,0,0,0l0.007-0.004c0,0,0,0,0,0l0.001-0.001c0,0,0,0,0,0l0.016-0.009L24.658,61.515
		L24.658,61.515z M27.208,60.043l-1.275,0.736l1.35,2.338l1.275-0.736L27.208,60.043L27.208,60.043z M29.757,58.571l-1.275,0.736
		l1.35,2.338l1.275-0.736L29.757,58.571L29.757,58.571z M32.307,57.098l-1.275,0.736l1.35,2.338c0,0,0.841-0.486,1.157-0.668l0,0
		c0.006-0.003,0.012-0.007,0.017-0.01l0,0c0.003-0.002,0.005-0.003,0.008-0.005l0.001,0c0.001-0.001,0.003-0.001,0.004-0.002l0,0
		c0,0,0.001-0.001,0.001-0.001l0.001-0.001c0,0,0,0,0.001,0l0.001-0.001c0.005-0.003,0.009-0.005,0.014-0.008l0.001-0.001
		c0.001-0.001,0.002-0.001,0.003-0.002l0.001,0c0,0,0.001-0.001,0.001-0.001l0.004-0.002c0,0,0,0,0,0l0.021-0.012c0,0,0,0,0,0
		l0.037-0.022L32.307,57.098L32.307,57.098z M34.857,55.626l-1.275,0.736l1.35,2.338l1.275-0.736L34.857,55.626L34.857,55.626z
		 M37.406,54.154l-1.275,0.736l1.35,2.338l0.44-0.254c0.002-0.001,0.003-0.002,0.005-0.003l0.002-0.001
		c0.004-0.002,0.007-0.004,0.011-0.006l0.005-0.003c0.001-0.001,0.003-0.002,0.004-0.002l0,0c0.005-0.003,0.01-0.006,0.014-0.008
		l0,0c0.002-0.001,0.004-0.002,0.006-0.004l0.002-0.001c0.004-0.002,0.009-0.005,0.013-0.007l0.002-0.001
		c0.002-0.001,0.004-0.002,0.006-0.004l0.001,0c0.001-0.001,0.002-0.001,0.003-0.002l0.001-0.001c0,0,0.001,0,0.001-0.001
		l0.006-0.003c0.001-0.001,0.002-0.001,0.003-0.002l0,0c0.002-0.001,0.004-0.002,0.006-0.004l0.001-0.001
		c0.014-0.008,0.029-0.017,0.043-0.025l0.001-0.001c0.009-0.005,0.019-0.011,0.028-0.016l0.001-0.001
		c0.005-0.003,0.01-0.006,0.014-0.008l0,0c0.005-0.003,0.01-0.006,0.014-0.008l0.001-0.001c0.318-0.184,0.637-0.368,0.637-0.368
		L37.406,54.154L37.406,54.154z M39.956,52.682l-1.275,0.736l1.35,2.338l1.275-0.736L39.956,52.682L39.956,52.682z M42.505,51.21
		l-1.275,0.736l1.35,2.338c0,0,0.061-0.035,0.155-0.09l0.006-0.004c0.001-0.001,0.003-0.002,0.004-0.003l0.001-0.001
		c0.001-0.001,0.003-0.002,0.004-0.002l0.001,0c0,0,0.001-0.001,0.002-0.001l1.101-0.636L42.505,51.21L42.505,51.21z M45.946,47.659
		l-1.35,2.338L44.6,50l-0.82,0.474l1.35,2.338l1.275-0.736l-0.895-1.551l0.361,0.208l0.73-1.264l0.85,1.472l-0.305,0.528
		l0.155,0.089l2.241-1.294l0.23-0.398l-0.002-0.001c0,0,0,0,0,0l-0.035-0.02c0,0,0,0-0.001,0l-0.002-0.001c0,0,0,0,0,0l-1.234-0.713
		L48.3,49.47l-0.391-0.677L47.3,48.441l-0.159,0.092l0.079-0.138L45.946,47.659L45.946,47.659z M43.397,46.187l-1.35,2.338
		l1.275,0.736l1.35-2.338l-0.363-0.21c-0.002-0.001-0.004-0.002-0.005-0.003l0,0c-0.001-0.001-0.002-0.001-0.003-0.002l-0.002-0.001
		c0,0,0,0,0,0l-0.003-0.002c-0.004-0.002-0.008-0.005-0.012-0.007l-0.001,0c-0.002-0.001-0.004-0.002-0.006-0.004l-0.002-0.001
		c-0.001-0.001-0.002-0.001-0.003-0.002l-0.004-0.002C43.893,46.474,43.397,46.187,43.397,46.187L43.397,46.187z M40.847,44.715
		l-1.35,2.338l1.275,0.736l1.35-2.338c0,0-0.702-0.405-1.064-0.614l0,0c-0.001-0.001-0.003-0.002-0.004-0.003L40.847,44.715
		L40.847,44.715z M38.297,43.243l-1.35,2.338l1.275,0.736l1.35-2.338L38.297,43.243L38.297,43.243z M35.748,41.77l-1.35,2.338
		l1.275,0.736l1.35-2.338L35.748,41.77L35.748,41.77z M33.198,40.298l-1.35,2.338l1.275,0.736l1.35-2.338l-0.587-0.339
		c0,0-0.001,0-0.001-0.001l-0.003-0.002c0,0-0.001,0-0.001-0.001l-0.002-0.001c-0.002-0.001-0.004-0.002-0.006-0.004l0,0
		c-0.002-0.001-0.005-0.003-0.007-0.004l0,0C33.537,40.494,33.198,40.298,33.198,40.298L33.198,40.298z M30.649,38.826l-1.35,2.338
		l1.275,0.736l1.35-2.338l-0.673-0.388c0,0-0.001,0-0.001,0l-0.002-0.001c-0.002-0.001-0.003-0.002-0.005-0.003l-0.003-0.002
		c-0.001,0-0.001-0.001-0.002-0.001l-0.001-0.001c-0.001-0.001-0.002-0.001-0.003-0.002l-0.001-0.001
		c-0.001,0-0.002-0.001-0.002-0.001l-0.006-0.003C30.928,38.987,30.649,38.826,30.649,38.826L30.649,38.826z M28.099,37.354
		l-1.35,2.338l1.275,0.736l1.35-2.338c0,0-0.548-0.316-0.925-0.534l-0.002-0.001c-0.002-0.001-0.004-0.002-0.006-0.003l0,0
		c-0.002-0.001-0.004-0.002-0.006-0.003l-0.009-0.005c0,0,0,0,0,0L28.099,37.354L28.099,37.354z M25.549,35.882l-1.35,2.338
		l1.275,0.736l1.35-2.338L25.549,35.882L25.549,35.882z M23,34.41l-1.35,2.338l1.275,0.736l1.35-2.338L23,34.41L23,34.41z
		 M20.45,32.937l-1.35,2.338l1.275,0.736l1.35-2.338L20.45,32.937L20.45,32.937z M17.901,31.465l-1.35,2.338l1.275,0.736l1.35-2.338
		l-1.033-0.596c0,0-0.001,0-0.001-0.001l-0.002-0.001c0,0,0,0,0,0l-0.002-0.001c-0.001,0-0.002-0.001-0.002-0.001l0,0
		C17.996,31.52,17.901,31.465,17.901,31.465L17.901,31.465z M15.351,29.993l-1.35,2.338l1.275,0.736l1.35-2.338L15.351,29.993
		L15.351,29.993z M12.801,28.521l-1.35,2.338l1.275,0.736l1.35-2.338c0,0-0.549-0.317-0.926-0.535l0,0
		c-0.012-0.007-0.024-0.014-0.036-0.021l-0.004-0.002c-0.002-0.001-0.004-0.002-0.006-0.003l-0.001-0.001c0,0-0.001,0-0.001-0.001
		l-0.006-0.003c-0.001-0.001-0.002-0.001-0.004-0.002l-0.009-0.005c-0.001,0-0.002-0.001-0.002-0.001l0,0
		c-0.003-0.002-0.006-0.003-0.009-0.005l-0.002-0.001c-0.002-0.001-0.003-0.002-0.005-0.003l-0.008-0.005c0,0-0.001,0-0.001-0.001
		L12.801,28.521L12.801,28.521z M10.252,27.049l-1.35,2.338l1.275,0.736l1.35-2.338L10.252,27.049L10.252,27.049z M7.702,25.576
		l-1.35,2.338l1.275,0.736l1.35-2.338l-0.002-0.001c0,0,0,0,0,0l0,0c0,0,0,0,0,0l0,0c0,0,0,0,0,0l0,0c0,0,0,0,0,0l0,0c0,0,0,0,0,0
		l0,0c-0.001,0-0.001-0.001-0.002-0.001l-0.001,0c0,0,0,0-0.001,0l-0.002-0.001c0,0,0,0-0.001,0l0,0c0,0,0,0-0.001,0l0,0
		c0,0-0.001,0-0.001-0.001l0,0c0,0,0,0-0.001,0l0,0c0,0,0,0-0.001,0l0,0c0,0,0,0-0.001,0l0,0c0,0,0,0,0,0L8.96,26.303c0,0,0,0,0,0
		l0,0c0,0,0,0-0.001,0l0,0C8.799,26.21,7.702,25.576,7.702,25.576L7.702,25.576z M5.153,24.104l-1.35,2.338l1.275,0.736l1.35-2.338
		L5.153,24.104L5.153,24.104z M0.4,21.36v2.144l0.388-0.672h1.7l-0.85,1.472H0.4v1.472h2.7v-1.061l0.778-1.347
		c0,0-0.551-0.318-0.929-0.536h0L0.4,21.36L0.4,21.36z"/>
</g>
<g>
	<path class="st5" d="M94.501,24.304c0,0-0.571,0.329-0.948,0.548l-0.326,0.189l1.35,2.338l1.275-0.736L94.501,24.304L94.501,24.304
		z M91.951,25.777L90.872,26.4c-0.117,0.068-0.196,0.113-0.196,0.113l1.35,2.338l1.275-0.736L91.951,25.777L91.951,25.777z
		 M89.402,27.249l-0.451,0.26c-0.367,0.212-0.824,0.476-0.824,0.476l1.35,2.338l1.275-0.736L89.402,27.249L89.402,27.249z
		 M86.852,28.721l-1.275,0.736l1.35,2.338l1.275-0.736L86.852,28.721L86.852,28.721z M84.302,30.193c0,0-0.287,0.165-0.588,0.339
		l-0.008,0.005c-0.001,0-0.002,0.001-0.002,0.001l-0.676,0.39l1.35,2.338l1.275-0.736L84.302,30.193L84.302,30.193z M81.753,31.665
		c0,0-0.695,0.401-1.059,0.611l-0.003,0.002c-0.001,0-0.001,0.001-0.002,0.001l-0.211,0.122l1.35,2.338l1.275-0.736L81.753,31.665
		L81.753,31.665z M79.203,33.137l-0.934,0.539c-0.194,0.112-0.341,0.197-0.341,0.197l1.35,2.338l1.275-0.736L79.203,33.137
		L79.203,33.137z M76.654,34.61l-0.307,0.177c0,0,0,0-0.001,0l-0.005,0.003c-0.377,0.218-0.963,0.556-0.963,0.556l1.35,2.338
		l1.275-0.736L76.654,34.61L76.654,34.61z M74.104,36.082l-1.275,0.736l1.35,2.338l1.275-0.736L74.104,36.082L74.104,36.082z
		 M71.555,37.554c0,0-0.473,0.273-0.843,0.487l-0.001,0.001c-0.002,0.001-0.004,0.002-0.006,0.004l0,0
		c-0.001,0.001-0.002,0.001-0.003,0.002L70.7,38.047c-0.001,0-0.001,0.001-0.002,0.001L70.28,38.29l1.35,2.338l1.275-0.736
		L71.555,37.554L71.555,37.554z M69.005,39.026l-1.082,0.625c0,0,0,0,0,0l-0.002,0.001c0,0,0,0,0,0l-0.002,0.001
		c-0.003,0.002-0.007,0.004-0.01,0.006l0,0c-0.107,0.062-0.177,0.102-0.177,0.102l1.35,2.338l1.275-0.736L69.005,39.026
		L69.005,39.026z M66.455,40.498l-0.391,0.226c0,0,0,0-0.001,0l-0.002,0.001c-0.001,0-0.001,0.001-0.002,0.001l-0.002,0.001
		c-0.001,0-0.001,0.001-0.002,0.001l-0.002,0.001c0,0-0.001,0-0.001,0.001l-0.003,0.002c-0.373,0.216-0.87,0.503-0.87,0.503
		l1.35,2.338l1.275-0.736L66.455,40.498L66.455,40.498z M63.906,41.971l-1.275,0.736l1.35,2.338l1.275-0.736L63.906,41.971
		L63.906,41.971z M61.356,43.443c0,0-0.449,0.259-0.814,0.47l0,0c-0.004,0.002-0.008,0.005-0.013,0.007l-0.447,0.258l1.35,2.338
		l1.275-0.736L61.356,43.443L61.356,43.443z M58.807,44.915l-1.111,0.641c-0.001,0-0.001,0.001-0.002,0.001L57.69,45.56
		c0,0-0.001,0-0.001,0l-0.002,0.001c-0.095,0.055-0.155,0.089-0.155,0.089l1.35,2.338l1.275-0.736L58.807,44.915L58.807,44.915z
		 M56.257,46.387l-0.42,0.243c-0.001,0.001-0.003,0.002-0.004,0.002l0,0c-0.002,0.001-0.004,0.002-0.006,0.004l-0.001,0.001
		c-0.37,0.213-0.842,0.486-0.842,0.486l1.35,2.338l1.275-0.736L56.257,46.387L56.257,46.387z M53.707,47.859l-1.275,0.736
		l0.117,0.203L51.7,50.27l-0.542-0.939c0,0-0.586,0.338-0.924,0.533l0,0L50,50l0,0l0,0l0,0l0,0l0,0l0,0l0,0l0,0l2.316,1.337l0,0
		c0.108,0.063,0.203,0.117,0.266,0.154l0.001,0.001c0.001,0.001,0.002,0.001,0.003,0.002l0,0c0.001,0,0.001,0.001,0.002,0.001
		l0.006,0.003c0,0,0,0,0,0l0.071,0.041l0.733-1.27l0.383,0.663l1.275-0.736L53.707,47.859L53.707,47.859z M55.292,49.938
		l-1.35,2.338c0,0,0.231,0.133,0.496,0.287l0,0c0.002,0.001,0.004,0.002,0.006,0.003l0.002,0.001
		c0.001,0.001,0.002,0.001,0.003,0.002l0.767,0.443l1.35-2.338L55.292,49.938L55.292,49.938z M57.841,51.41l-1.35,2.338l0.15,0.087
		c0,0,0,0,0,0l0.007,0.004c0,0,0.001,0,0.001,0.001l0.003,0.002c0.343,0.198,1.113,0.643,1.113,0.643l1.35-2.338L57.841,51.41
		L57.841,51.41z M60.391,52.882l-1.35,2.338l0.728,0.421c0,0,0.001,0,0.001,0.001l0.002,0.001c0.001,0,0.001,0.001,0.002,0.001
		l0.001,0.001c0.002,0.001,0.004,0.002,0.006,0.003l0.002,0.001c0.28,0.162,0.532,0.307,0.532,0.307l1.35-2.338L60.391,52.882
		L60.391,52.882z M62.94,54.354l-1.35,2.338c0,0,0.601,0.347,0.978,0.565l0.002,0.001c0.016,0.009,0.031,0.018,0.046,0.026
		l0.004,0.003c0.001,0.001,0.002,0.001,0.004,0.002l0.005,0.003c0,0,0.001,0,0.001,0.001l0.002,0.001
		c0.001,0.001,0.003,0.001,0.004,0.002l0.014,0.008c0,0,0,0,0,0l0.215,0.124l1.35-2.338L62.94,54.354L62.94,54.354z M65.49,55.826
		l-1.35,2.338c0,0,0.243,0.14,0.517,0.299l0.003,0.002c0,0,0,0,0.001,0l0.002,0.001c0.001,0,0.001,0.001,0.002,0.001l0.002,0.001
		c0.001,0,0.001,0.001,0.002,0.001l0.002,0.001c0,0,0.001,0,0.001,0.001l0.006,0.004c0,0,0.001,0,0.001,0.001l0.736,0.425
		l1.35-2.338L65.49,55.826L65.49,55.826z M68.039,57.299l-1.35,2.338l0.128,0.074c0,0,0,0,0.001,0l0.001,0
		c0.001,0,0.001,0.001,0.002,0.001l0.001,0c0.001,0.001,0.002,0.001,0.004,0.002l0.002,0.001c0.329,0.19,1.137,0.657,1.137,0.657
		l1.35-2.338L68.039,57.299L68.039,57.299z M70.589,58.771l-1.35,2.338l0.709,0.409c0.001,0.001,0.002,0.001,0.003,0.002l0.001,0
		c0.292,0.169,0.563,0.325,0.563,0.325l1.35-2.338L70.589,58.771L70.589,58.771z M73.139,60.243l-1.35,2.338
		c0,0,0.716,0.414,1.075,0.621l0.001,0.001c0.014,0.008,0.028,0.016,0.042,0.024l0.001,0.001c0.007,0.004,0.013,0.007,0.019,0.011
		l0.001,0.001c0.003,0.002,0.006,0.003,0.009,0.005l0,0c0.002,0.001,0.003,0.002,0.005,0.003l0,0c0.001,0,0.002,0.001,0.002,0.001
		l0.005,0.003c0.001,0,0.001,0.001,0.002,0.001l0,0c0.001,0.001,0.003,0.002,0.004,0.002l0.001,0
		c0.003,0.001,0.005,0.003,0.008,0.004l0.001,0.001c0.002,0.001,0.005,0.003,0.007,0.004l0.001,0
		c0.002,0.001,0.004,0.002,0.006,0.004l0.003,0.002c0.001,0,0.002,0.001,0.002,0.001l0.001,0.001c0,0,0,0,0.001,0l0.007,0.004
		c0,0,0,0,0.001,0l0.007,0.004c0,0,0.001,0,0.001,0l0.001,0.001c0,0,0,0,0,0l0.016,0.009c0,0,0,0,0,0l0.007,0.004c0,0,0,0,0.001,0
		l0.002,0.001c0,0,0,0,0.001,0l0,0c0,0,0.001,0,0.001,0l0.001,0.001l0,0l0.004,0.002c0,0,0,0,0,0l0.001,0.001
		c0.001,0,0.001,0.001,0.002,0.001l0.001,0l0,0l0.019,0.011c0,0,0,0,0,0l0.007,0.004l1.35-2.338L73.139,60.243L73.139,60.243z
		 M75.688,61.715l-1.35,2.338L74.8,64.32c0,0,0.001,0,0.002,0.001l0,0c0,0,0,0,0.001,0l0,0c0,0,0,0,0.001,0l0.001,0.001c0,0,0,0,0,0
		l0.001,0.001c0,0,0.001,0,0.001,0.001l0,0c0,0,0,0,0,0l0.001,0.001c0,0,0,0,0,0l0.006,0.004c0,0,0,0,0,0l0.002,0.001
		c0,0,0,0,0.001,0l0.001,0c0,0,0,0,0,0l0.795,0.459l1.35-2.338l-0.813-0.469L75.688,61.715L75.688,61.715z M78.238,63.187
		l-1.35,2.338l1.275,0.736l1.35-2.338L78.238,63.187L78.238,63.187z M80.787,64.659l-1.35,2.338l0.528,0.305
		c0.351,0.202,0.747,0.431,0.747,0.431l1.35-2.338L80.787,64.659L80.787,64.659z M83.337,66.132l-1.35,2.338l1.275,0.736l1.35-2.338
		L83.337,66.132L83.337,66.132z M85.887,67.604l-1.35,2.338c0,0,0.649,0.375,1.021,0.589l0.254,0.147l1.35-2.338L85.887,67.604
		L85.887,67.604z M88.436,69.076l-1.35,2.338c0,0,0.175,0.101,0.394,0.228l0.001,0c0.001,0,0.001,0.001,0.002,0.001l0.878,0.507
		l1.35-2.338L88.436,69.076L88.436,69.076z M90.986,70.548l-1.35,2.338l0.162,0.094c0.001,0,0.001,0.001,0.002,0.001l0,0
		c0.344,0.199,1.111,0.641,1.111,0.641l1.35-2.338L90.986,70.548L90.986,70.548z M93.535,72.02l-1.35,2.338l0.642,0.371
		c0.317,0.183,0.633,0.365,0.633,0.365l1.35-2.338L93.535,72.02L93.535,72.02z M96.085,73.493l-1.35,2.338l1.275,0.736l0.89-1.542
		v0.401h1.468l-0.85,1.472H96.9v0.183l2.232,1.289H99.6v-1.472h-0.382l0.382-0.661v-0.714l-0.167-0.097H99.6v-1.472h-2.7v0.009
		L96.085,73.493L96.085,73.493z M99.6,71.01h-2.7v1.472h2.7V71.01L99.6,71.01z M99.6,68.065h-2.7v1.472h2.7V68.065L99.6,68.065z
		 M99.6,65.121h-2.7v1.472h2.7V65.121L99.6,65.121z M99.6,62.177h-2.7v1.472h2.7V62.177L99.6,62.177z M99.6,59.233h-2.7v1.472h2.7
		V59.233L99.6,59.233z M99.6,56.289h-2.7v1.472h2.7V56.289L99.6,56.289z M99.6,53.345h-2.7v1.472h2.7V53.345L99.6,53.345z
		 M99.6,50.401h-2.7v1.472h2.7V50.401L99.6,50.401z M99.6,47.457h-2.7v1.472h2.7V47.457L99.6,47.457z M99.6,44.513h-2.7v1.472h2.7
		V44.513L99.6,44.513z M99.6,41.569h-2.7v1.472h2.7V41.569L99.6,41.569z M99.6,38.625h-2.7v1.472h2.7V38.625L99.6,38.625z
		 M99.6,35.68h-2.7v1.472h2.7V35.68L99.6,35.68z M99.6,32.736h-2.7v1.472h2.7V32.736L99.6,32.736z M99.6,29.792h-2.7v1.472h2.7
		V29.792L99.6,29.792z M99.6,26.848h-2.7v1.472h2.7V26.848L99.6,26.848z M99.6,21.36l-1.856,1.072h0.776l0.85,1.472h-1.7
		l-0.619-1.072c0,0-0.221,0.128-0.479,0.277l-0.795,0.459l1.35,2.338l0.919-0.53H99.6V21.36L99.6,21.36z"/>
</g>
</svg>
