<?xml version="1.0" encoding="utf-8"?>
<!-- Generator: Adobe Illustrator 21.0.0, SVG Export Plug-In . SVG Version: 6.00 Build 0)  -->
<svg version="1.1" id="Layer_1" xmlns="http://www.w3.org/2000/svg" xmlns:xlink="http://www.w3.org/1999/xlink" x="0px" y="0px"
	 viewBox="0 0 100 100" style="enable-background:new 0 0 100 100;" xml:space="preserve">
<style type="text/css">
	.st0{fill:none;}
	.st1{fill:#797979;}
	.st2{display:none;}
	.st3{display:inline;}
	.st4{font-family:'Helvetica';}
	.st5{font-size:10.385px;}
</style>
<g id="Layer_1_1_">
	<g id="Layer_2">
	</g>
	<g>
		<g>
			<rect x="0.9" y="0.9" class="st0" width="98.2" height="98.2"/>
			<path class="st1" d="M100,100H0V0h100V100z M1.8,98.2h96.4V1.8H1.8V98.2z"/>
		</g>
		<g>
			<polygon points="50.3,75.8 23.2,28.5 24.8,27.6 50.3,72.2 75.2,27.6 76.8,28.4 			"/>
		</g>
		<g>
			<rect x="24" y="49.1" width="52" height="1.8"/>
		</g>
	</g>
</g>
<g id="Layer_2_1_" class="st2">
	<text transform="matrix(1 0 0 1 5.0005 95.8096)" class="st3 st4 st5">PI</text>
</g>
<g>
	<path d="M15.159,83.851v1.548c-0.516-0.516-1.032-0.774-1.677-1.032c-0.645-0.258-1.161-0.387-1.806-0.387
		c-1.29,0-2.322,0.387-2.967,1.161c-0.645,0.774-1.032,1.935-1.032,3.483s0.387,2.58,1.032,3.354
		c0.645,0.774,1.677,1.161,2.967,1.161c0.645,0,1.29-0.129,1.806-0.387c0.516-0.258,1.161-0.645,1.677-1.032v1.548
		c-0.516,0.387-1.161,0.645-1.677,0.774s-1.29,0.258-1.935,0.258c-1.677,0-3.096-0.516-3.999-1.548S6,90.43,6,88.624
		s0.516-3.225,1.419-4.257s2.322-1.548,3.999-1.548c0.645,0,1.29,0.129,1.935,0.258C13.998,83.206,14.643,83.464,15.159,83.851z"/>
	<path d="M17.481,82.948h3.096c2.193,0,3.741,0.516,4.773,1.419c1.032,0.903,1.548,2.322,1.548,4.257s-0.516,3.354-1.548,4.257
		S22.77,94.3,20.577,94.3h-3.096V82.948L17.481,82.948z M19.029,84.238v8.772h1.806c1.548,0,2.709-0.387,3.483-1.032
		c0.774-0.645,1.032-1.806,1.032-3.354s-0.387-2.58-1.032-3.354c-0.645-0.774-1.806-1.032-3.483-1.032H19.029L19.029,84.238z"/>
</g>
</svg>
