<?xml version="1.0" encoding="utf-8"?>
<!-- Generator: Adobe Illustrator 21.0.0, SVG Export Plug-In . SVG Version: 6.00 Build 0)  -->
<svg version="1.1" id="Layer_1" xmlns="http://www.w3.org/2000/svg" xmlns:xlink="http://www.w3.org/1999/xlink" x="0px" y="0px"
	 viewBox="0 0 100 100" style="enable-background:new 0 0 100 100;" xml:space="preserve">
<style type="text/css">
	.st0{fill:none;}
	.st1{fill:#FFFFFF;}
	.st2{display:none;}
	.st3{display:inline;}
	.st4{font-family:'Helvetica';}
	.st5{font-size:10.385px;}
</style>
<g id="Layer_1_1_">
	<g id="Layer_2">
	</g>
	<g>
		<g>
			<rect x="0.9" y="0.9" class="st0" width="98.2" height="98.2"/>
			<path class="st1" d="M100,100H0V0h100V100z M1.8,98.2h96.4V1.8H1.8V98.2z"/>
		</g>
		<g>
			<polygon class="st1" points="50.3,75.8 23.2,28.5 24.8,27.6 50.3,72.2 75.2,27.6 76.8,28.4 			"/>
		</g>
		<g>
			<rect x="24" y="49.1" class="st1" width="52" height="1.8"/>
		</g>
	</g>
</g>
<g id="Layer_2_1_" class="st2">
	<text transform="matrix(1 0 0 1 5.0005 95.8096)" class="st3 st4 st5">PI</text>
</g>
<g>
	<path class="st1" d="M13.1,86.2v1.2c-0.4-0.4-0.8-0.6-1.3-0.8s-0.9-0.3-1.4-0.3c-1,0-1.8,0.3-2.3,0.9s-0.8,1.5-0.8,2.7
		c0,1.2,0.3,2,0.8,2.6s1.3,0.9,2.3,0.9c0.5,0,1-0.1,1.4-0.3s0.9-0.5,1.3-0.8v1.2c-0.4,0.3-0.9,0.5-1.3,0.6s-1,0.2-1.5,0.2
		c-1.3,0-2.4-0.4-3.1-1.2S6,91.3,6,89.9c0-1.4,0.4-2.5,1.1-3.3s1.8-1.2,3.1-1.2c0.5,0,1,0.1,1.5,0.2S12.7,85.9,13.1,86.2z"/>
	<path class="st1" d="M14.9,85.5h2.4c1.7,0,2.9,0.4,3.7,1.1s1.2,1.8,1.2,3.3c0,1.5-0.4,2.6-1.2,3.3s-2,1.1-3.7,1.1h-2.4L14.9,85.5
		L14.9,85.5z M16.1,86.5v6.8h1.4c1.2,0,2.1-0.3,2.7-0.8s0.8-1.4,0.8-2.6c0-1.2-0.3-2-0.8-2.6s-1.4-0.8-2.7-0.8L16.1,86.5L16.1,86.5z
		"/>
</g>
</svg>
