<?xml version="1.0" encoding="utf-8"?>
<!-- Generator: Adobe Illustrator 21.1.0, SVG Export Plug-In . SVG Version: 6.00 Build 0)  -->
<svg version="1.1" id="Layer_1" xmlns="http://www.w3.org/2000/svg" xmlns:xlink="http://www.w3.org/1999/xlink" x="0px" y="0px"
	 viewBox="0 0 16 16" style="enable-background:new 0 0 16 16;" xml:space="preserve">
<style type="text/css">
	.st0{fill:url(#SVGID_1_);stroke:#000000;stroke-linecap:round;stroke-linejoin:round;stroke-miterlimit:10;}
</style>
<linearGradient id="SVGID_1_" gradientUnits="userSpaceOnUse" x1="8" y1="3.8583333" x2="8" y2="15.5040541">
	<stop  offset="0" style="stop-color:#FFFFFF"/>
	<stop  offset="0.3131055" style="stop-color:#F8F8F8"/>
	<stop  offset="0.3737793" style="stop-color:#F1F1F1"/>
	<stop  offset="0.465113" style="stop-color:#DCDCDC"/>
	<stop  offset="0.5758085" style="stop-color:#BABABA"/>
	<stop  offset="0.7016521" style="stop-color:#8B8B8B"/>
	<stop  offset="0.8402768" style="stop-color:#4F4F4F"/>
	<stop  offset="0.9875376" style="stop-color:#060606"/>
	<stop  offset="1" style="stop-color:#000000"/>
</linearGradient>
<path class="st0" d="M13.3965893,12.1216211H2.6034102C1.7178713,12.1216211,1,11.4037504,1,10.5182114V5.4817891
	c0-0.8855391,0.7178713-1.6034105,1.6034102-1.6034105h10.7931786C14.2821283,3.8783786,15,4.5962501,15,5.4817891v5.0364223
	C15,11.4037504,14.2821283,12.1216211,13.3965893,12.1216211z"/>
<g>
	<path d="M4.0089517,5.9232421H5.162858c0.8039064,0,1.3931642,0.1672525,1.7686849,0.5017581
		c0.3773437,0.3340492,0.5651045,0.8567705,0.5651045,1.5681639c0,0.7150393-0.1895838,1.239583-0.5669274,1.5749998
		s-0.9666014,0.5031252-1.7668619,0.5031252H4.0089517V5.9232421z M4.5704103,6.3844399v3.2256513h0.6781249
		c0.5723958,0,0.9916668-0.129427,1.2564454-0.3891926c0.2661457-0.2588539,0.3992186-0.6685553,0.3992186-1.2277346
		c0-0.5555339-0.1330729-0.9625001-0.3992186-1.2208986C6.240202,6.5138674,5.820931,6.3844399,5.2485352,6.3844399H4.5704103z"/>
	<path d="M10.0742512,5.8485026c0.5815105,0,1.0463543,0.1945963,1.3945312,0.5847006
		c0.348177,0.3896484,0.5222654,0.9123697,0.5222654,1.5681643c0,0.6539707-0.1740885,1.1757812-0.5222654,1.5658846
		c-0.348177,0.3891935-0.8130207,0.5842457-1.3945312,0.5842457c-0.583333,0-1.0500002-0.1941414-1.3990889-0.583334
		C8.3260746,9.1789713,8.1519861,8.6571617,8.1519861,8.0013676s0.1740885-1.1785159,0.5231762-1.5681643
		C9.024251,6.0430989,9.4909182,5.8485026,10.0742512,5.8485026z M10.0742512,6.3037763
		c-0.4074221,0-0.7309895,0.1522131-0.9707031,0.455729C8.8629236,7.0634766,8.7435217,7.4772787,8.7435217,8.0013676
		c0,0.5222654,0.1194019,0.9356117,0.3600264,1.2386713c0.2397137,0.3044271,0.5632811,0.4557295,0.9707031,0.4557295
		s0.7300787-0.1513023,0.9679689-0.4557295c0.2378902-0.3030596,0.3572912-0.7164059,0.3572912-1.2386713
		c0-0.5240889-0.119401-0.937891-0.3572912-1.2418623C10.8043299,6.4559894,10.4816732,6.3037763,10.0742512,6.3037763z"/>
</g>
</svg>
