<?xml version="1.0" encoding="utf-8"?>
<!-- Generator: Adobe Illustrator 21.0.0, SVG Export Plug-In . SVG Version: 6.00 Build 0)  -->
<svg version="1.1" id="Layer_1" xmlns="http://www.w3.org/2000/svg" xmlns:xlink="http://www.w3.org/1999/xlink" x="0px" y="0px"
	 viewBox="0 0 16 16" style="enable-background:new 0 0 16 16;" xml:space="preserve">
<style type="text/css">
	.st0{fill:#FC0D1B;stroke:#000000;stroke-width:0.5;stroke-miterlimit:10;}
	.st1{fill:#3DD83D;stroke:#000000;stroke-width:0.5;stroke-miterlimit:10;}
	.st2{fill:#797979;}
	.st3{fill:none;stroke:#797979;stroke-miterlimit:10;}
	.st4{fill:none;stroke:#797979;stroke-miterlimit:10;stroke-dasharray:0.9489,0.9489;}
</style>
<g>
	<g>
		<rect x="4.6" y="4.2" class="st0" width="4.2" height="5.5"/>
		<circle class="st1" cx="9.1" cy="9.4" r="2.4"/>
	</g>
	<rect x="1" y="1" class="st2" width="2.5" height="2.5"/>
	<rect x="12.5" y="1" class="st2" width="2.5" height="2.5"/>
	<rect x="1" y="12.5" class="st2" width="2.5" height="2.5"/>
	<rect x="12.5" y="12.5" class="st2" width="2.5" height="2.5"/>
	<g>
		<g>
			<polyline class="st3" points="13.7,13.2 13.7,13.7 13.2,13.7 			"/>
			<line class="st4" x1="12.2" y1="13.7" x2="3.2" y2="13.7"/>
			<polyline class="st3" points="2.7,13.7 2.2,13.7 2.2,13.2 			"/>
			<line class="st4" x1="2.2" y1="12.3" x2="2.2" y2="3.3"/>
			<polyline class="st3" points="2.2,2.8 2.2,2.3 2.7,2.3 			"/>
			<line class="st4" x1="3.7" y1="2.3" x2="12.7" y2="2.3"/>
			<polyline class="st3" points="13.2,2.3 13.7,2.3 13.7,2.8 			"/>
			<line class="st4" x1="13.7" y1="3.7" x2="13.7" y2="12.7"/>
		</g>
	</g>
</g>
</svg>
