<?xml version="1.0" encoding="utf-8"?>
<!-- Generator: Adobe Illustrator 21.1.0, SVG Export Plug-In . SVG Version: 6.00 Build 0)  -->
<svg version="1.1" id="Layer_1" xmlns="http://www.w3.org/2000/svg" xmlns:xlink="http://www.w3.org/1999/xlink" x="0px" y="0px"
	 viewBox="0 0 100 100" style="enable-background:new 0 0 100 100;" xml:space="preserve">
<style type="text/css">
	.st0{fill:none;stroke:#FFFFFF;stroke-width:1.5;stroke-miterlimit:10;}
	.st1{fill:none;stroke:#FFFFFF;stroke-width:0.5;stroke-linecap:round;stroke-linejoin:round;stroke-miterlimit:10;}
</style>
<g>
	<path class="st0" d="M74.909,92.189c14.588-8.561,24.389-24.4,24.389-42.537c0-18.354-10.037-34.353-24.915-42.839"/>
	<path class="st0" d="M25.617,6.812C10.739,15.299,0.702,31.298,0.702,49.652c0,18.137,9.801,33.976,24.389,42.537"/>
</g>
<g>
	<path class="st1" d="M46.834,92.176l45.342-45.342c-0.106-1.44-0.285-2.858-0.532-4.255L42.58,91.645
		C43.975,91.892,45.395,92.07,46.834,92.176z"/>
	<path class="st1" d="M38.676,90.762l52.085-52.085c-0.34-1.227-0.73-2.432-1.175-3.611l-54.521,54.52
		C36.244,90.032,37.449,90.421,38.676,90.762z"/>
	<path class="st1" d="M42.58,91.645L91.645,42.58c-0.234-1.323-0.528-2.625-0.883-3.903L38.676,90.762
		C39.954,91.116,41.255,91.41,42.58,91.645z"/>
	<path class="st1" d="M50,92.307c0.513,0,1.02-0.02,1.529-0.038L92.268,51.53c0.018-0.508,0.038-1.016,0.038-1.529
		c0-1.066-0.053-2.12-0.13-3.166L46.834,92.176C47.88,92.254,48.934,92.307,50,92.307z"/>
	<path class="st1" d="M63.162,90.208l27.046-27.046c0.67-2.046,1.189-4.158,1.541-6.328L56.834,91.75
		C59.004,91.396,61.116,90.877,63.162,90.208z"/>
	<path class="st1" d="M56.834,91.75L91.75,56.834c0.282-1.735,0.454-3.506,0.519-5.305l-40.74,40.739
		C53.328,92.204,55.099,92.031,56.834,91.75z"/>
	<path class="st1" d="M31.895,30.533L18.516,43.911c0.81-0.352,1.704-0.551,2.644-0.551c0.803,0,1.569,0.15,2.282,0.411l12.13-12.13
		c-0.001,0-0.003,0-0.003,0C34.21,31.642,32.947,31.233,31.895,30.533z"/>
	<path class="st1" d="M31.708,88.157l56.449-56.449c-0.511-1.065-1.075-2.102-1.67-3.115L28.592,86.486
		C29.606,87.082,30.642,87.645,31.708,88.157z"/>
	<path class="st1" d="M25.682,84.609l58.927-58.927c-0.656-0.933-1.343-1.841-2.07-2.716L22.966,82.539
		C23.841,83.266,24.75,83.953,25.682,84.609z"/>
	<path class="st1" d="M22.966,82.539l59.573-59.573c-0.723-0.869-1.484-1.705-2.273-2.514L20.452,80.266
		C21.261,81.056,22.097,81.816,22.966,82.539z"/>
	<path class="st1" d="M20.453,80.266l59.814-59.814c-0.789-0.808-1.611-1.582-2.462-2.325L18.128,77.804
		C18.871,78.655,19.645,79.477,20.453,80.266z"/>
	<path class="st1" d="M72.041,86.115L86.116,72.04c1.691-2.766,3.066-5.743,4.092-8.879L63.162,90.208
		C66.297,89.182,69.275,87.807,72.041,86.115z"/>
	<path class="st1" d="M18.128,77.804l59.676-59.676c-0.854-0.746-1.733-1.464-2.646-2.14l-59.17,59.17
		C16.665,76.071,17.382,76.95,18.128,77.804z"/>
	<path class="st1" d="M35.065,89.586l54.522-54.522c-0.431-1.143-0.905-2.264-1.43-3.357l-56.449,56.45
		C32.8,88.682,33.922,89.155,35.065,89.586z"/>
	<path class="st1" d="M14.054,72.305l58.251-58.251c-0.993-0.618-2.015-1.19-3.06-1.726L12.328,69.245
		C12.863,70.29,13.437,71.312,14.054,72.305z"/>
	<path class="st1" d="M15.988,75.158l59.17-59.17c-0.922-0.683-1.875-1.326-2.852-1.934L14.054,72.305
		C14.661,73.283,15.305,74.236,15.988,75.158z"/>
	<path class="st1" d="M28.592,86.486l57.894-57.894c-0.586-0.997-1.213-1.967-1.877-2.909L25.682,84.609
		C26.625,85.273,27.594,85.9,28.592,86.486z"/>
	<path class="st1" d="M35.568,18.364c1.077,0,2.092,0.262,2.991,0.718L49.946,7.695c-1.731,0.003-3.434,0.119-5.11,0.323
		L34.378,18.476C34.765,18.406,35.161,18.364,35.568,18.364z"/>
	<path class="st1" d="M41.097,21.33L54.494,7.933c-1.477-0.156-2.976-0.24-4.494-0.24c-0.018,0-0.036,0.002-0.054,0.002
		L38.56,19.081C39.587,19.602,40.462,20.377,41.097,21.33z"/>
	<path class="st1" d="M42.207,25.003c0,0.001,0,0.003,0,0.003L58.635,8.578c-1.358-0.282-2.739-0.497-4.142-0.645L41.097,21.33
		C41.798,22.382,42.207,23.644,42.207,25.003z"/>
	<path class="st1" d="M8.018,44.836l21.023-21.023c0.491-2.712,2.626-4.846,5.337-5.337L44.836,8.018
		c-2.03,0.248-4.016,0.635-5.946,1.159L9.178,38.89C8.654,40.821,8.266,42.806,8.018,44.836z"/>
	<path class="st1" d="M31.162,12.12c-8.235,4.103-14.939,10.808-19.043,19.043L31.162,12.12z"/>
	<path class="st1" d="M86.115,72.041L72.041,86.115C77.775,82.609,82.609,77.775,86.115,72.041z"/>
	<path class="st1" d="M35.571,31.642l-12.13,12.13c1.104,0.405,2.073,1.088,2.812,1.973l36.19-36.188
		c-1.246-0.383-2.516-0.711-3.808-0.979L42.207,25.007C42.205,28.671,39.235,31.641,35.571,31.642z"/>
	<path class="st1" d="M9.178,38.89L38.89,9.178c-2.692,0.731-5.278,1.721-7.728,2.942L12.12,31.162
		C10.898,33.613,9.909,36.197,9.178,38.89z"/>
	<path class="st1" d="M18.516,43.911l13.379-13.379c-0.953-0.634-1.728-1.51-2.248-2.538L7.695,49.946
		c0,0.018-0.002,0.036-0.002,0.054c0,1.518,0.083,3.017,0.24,4.494l7.138-7.138C15.74,45.817,16.976,44.581,18.516,43.911z"/>
	<path class="st1" d="M27.725,49.061L65.966,10.82c-1.15-0.47-2.324-0.895-3.523-1.264L26.255,45.745
		C27.028,46.67,27.547,47.81,27.725,49.061z"/>
	<path class="st1" d="M14.521,50c0-0.94,0.198-1.833,0.551-2.644l-7.138,7.138c0.148,1.402,0.363,2.783,0.645,4.142l6.353-6.353
		C14.671,51.569,14.521,50.803,14.521,50z"/>
	<path class="st1" d="M28.929,25.003c0-0.407,0.043-0.803,0.112-1.19L8.018,44.836c-0.204,1.676-0.322,3.379-0.323,5.11
		l21.952-21.952C29.191,27.095,28.929,26.08,28.929,25.003z"/>
	<path class="st1" d="M14.932,52.282l-6.353,6.353c0.268,1.292,0.596,2.562,0.979,3.808l7.349-7.349
		C16.02,54.354,15.336,53.386,14.932,52.282z"/>
	<path class="st1" d="M27.799,50c0,3.667-2.972,6.639-6.639,6.639c-0.319,0-0.631-0.031-0.939-0.074l-9.401,9.401
		c0.456,1.118,0.961,2.211,1.508,3.279l56.917-56.917c-1.068-0.547-2.161-1.052-3.279-1.508L27.725,49.061
		C27.769,49.369,27.799,49.681,27.799,50z"/>
	<path class="st1" d="M16.905,55.095l-7.349,7.349c0.368,1.199,0.795,2.372,1.264,3.523l9.401-9.401
		C18.971,56.388,17.83,55.868,16.905,55.095z"/>
</g>
</svg>
