<?xml version="1.0" encoding="utf-8"?>
<!-- Generator: Adobe Illustrator 21.1.0, SVG Export Plug-In . SVG Version: 6.00 Build 0)  -->
<svg version="1.1" id="Layer_1" xmlns="http://www.w3.org/2000/svg" xmlns:xlink="http://www.w3.org/1999/xlink" x="0px" y="0px"
	 viewBox="0 0 100 100" style="enable-background:new 0 0 100 100;" xml:space="preserve">
<style type="text/css">
	.st0{fill:none;stroke:#000000;stroke-width:0.5;stroke-linecap:round;stroke-linejoin:round;stroke-miterlimit:10;}
</style>
<g>
	<path class="st0" d="M46.28,99.563L99.563,46.28c-0.125-1.692-0.335-3.359-0.625-5L41.28,98.939
		C42.92,99.229,44.588,99.438,46.28,99.563z"/>
	<path class="st0" d="M36.693,97.901l61.208-61.208c-0.4-1.442-0.858-2.858-1.381-4.244L32.449,96.52
		C33.835,97.043,35.251,97.501,36.693,97.901z"/>
	<path class="st0" d="M41.28,98.939L98.939,41.28c-0.275-1.555-0.621-3.085-1.038-4.587L36.693,97.901
		C38.195,98.317,39.724,98.663,41.28,98.939z"/>
	<path class="st0" d="M50,99.717c0.603,0,1.199-0.024,1.797-0.045l47.874-47.874c0.021-0.597,0.045-1.194,0.045-1.797
		c0-1.253-0.062-2.491-0.153-3.72L46.28,99.563C47.509,99.655,48.747,99.717,50,99.717z"/>
	<path class="st0" d="M65.467,97.25L97.25,65.467c0.787-2.404,1.397-4.886,1.811-7.436L58.031,99.062
		C60.581,98.647,63.063,98.037,65.467,97.25z"/>
	<path class="st0" d="M58.031,99.062l41.031-41.031c0.331-2.039,0.534-4.12,0.61-6.234L51.797,99.671
		C53.911,99.596,55.992,99.393,58.031,99.062z"/>
	<path class="st0" d="M28.724,27.123L13.002,42.845c0.952-0.414,2.002-0.647,3.107-0.647c0.944,0,1.844,0.176,2.682,0.483
		l14.254-14.254c-0.001,0-0.003,0-0.004,0C31.444,28.427,29.96,27.946,28.724,27.123z"/>
	<path class="st0" d="M28.504,94.84L94.84,28.504c-0.601-1.252-1.263-2.47-1.963-3.661L24.842,92.877
		C26.034,93.577,27.251,94.239,28.504,94.84z"/>
	<path class="st0" d="M21.423,90.671l69.248-69.248c-0.771-1.096-1.578-2.164-2.433-3.192L18.231,88.238
		C19.259,89.093,20.328,89.9,21.423,90.671z"/>
	<path class="st0" d="M18.231,88.238l70.007-70.007c-0.85-1.021-1.744-2.004-2.671-2.954l-70.29,70.29
		C16.227,86.495,17.21,87.389,18.231,88.238z"/>
	<path class="st0" d="M15.278,85.567l70.29-70.29c-0.927-0.949-1.893-1.859-2.893-2.732L12.546,82.674
		C13.419,83.674,14.328,84.64,15.278,85.567z"/>
	<path class="st0" d="M75.901,92.441l16.54-16.54c1.987-3.25,3.603-6.749,4.809-10.434L65.467,97.25
		C69.152,96.045,72.651,94.429,75.901,92.441z"/>
	<path class="st0" d="M12.546,82.674l70.128-70.128c-1.004-0.877-2.037-1.72-3.11-2.515L10.031,79.564
		C10.826,80.637,11.669,81.67,12.546,82.674z"/>
	<path class="st0" d="M32.449,96.52L96.52,32.449c-0.507-1.343-1.063-2.661-1.68-3.945L28.504,94.84
		C29.788,95.457,31.106,96.013,32.449,96.52z"/>
	<path class="st0" d="M7.758,76.212L76.212,7.758c-1.167-0.726-2.368-1.399-3.596-2.028L5.73,72.616
		C6.359,73.844,7.033,75.045,7.758,76.212z"/>
	<path class="st0" d="M10.031,79.564l69.533-69.533c-1.084-0.803-2.203-1.558-3.352-2.273L7.758,76.212
		C8.472,77.361,9.228,78.481,10.031,79.564z"/>
	<path class="st0" d="M24.842,92.877l68.034-68.034c-0.689-1.172-1.426-2.311-2.206-3.419L21.423,90.671
		C22.531,91.451,23.67,92.188,24.842,92.877z"/>
	<path class="st0" d="M33.04,12.823c1.266,0,2.458,0.308,3.515,0.844L49.937,0.285c-2.034,0.003-4.035,0.14-6.005,0.38
		L31.642,12.955C32.097,12.872,32.562,12.823,33.04,12.823z"/>
	<path class="st0" d="M39.538,16.309L55.281,0.565C53.545,0.382,51.784,0.283,50,0.283c-0.021,0-0.042,0.002-0.063,0.002
		L36.556,13.666C37.763,14.278,38.792,15.189,39.538,16.309z"/>
	<path class="st0" d="M40.842,20.625c0,0.001,0,0.003,0,0.004L60.148,1.323c-1.596-0.331-3.219-0.584-4.867-0.758L39.538,16.309
		C40.361,17.545,40.842,19.028,40.842,20.625z"/>
	<path class="st0" d="M0.665,43.932L25.37,19.227c0.577-3.187,3.086-5.695,6.272-6.272L43.932,0.665
		c-2.385,0.291-4.719,0.746-6.987,1.362L2.028,36.944C1.412,39.213,0.956,41.546,0.665,43.932z"/>
	<path class="st0" d="M27.863,5.485c-9.677,4.822-17.556,12.701-22.378,22.378L27.863,5.485z"/>
	<path class="st0" d="M92.441,75.901l-16.54,16.54C82.64,88.32,88.32,82.64,92.441,75.901z"/>
	<path class="st0" d="M33.044,28.427L18.79,42.681c1.297,0.476,2.436,1.279,3.305,2.319L64.623,2.473
		c-1.464-0.45-2.957-0.835-4.475-1.15L40.842,20.629C40.84,24.935,37.35,28.425,33.044,28.427z"/>
	<path class="st0" d="M2.028,36.944L36.944,2.028c-3.164,0.859-6.202,2.022-9.082,3.457L5.485,27.863
		C4.05,30.743,2.887,33.78,2.028,36.944z"/>
	<path class="st0" d="M13.002,42.845l15.722-15.722c-1.12-0.745-2.031-1.775-2.642-2.982L0.285,49.937
		c0,0.021-0.002,0.042-0.002,0.063c0,1.784,0.098,3.545,0.282,5.281l8.388-8.388C9.74,45.084,11.192,43.632,13.002,42.845z"/>
	<path class="st0" d="M23.824,48.897L68.763,3.958c-1.352-0.552-2.731-1.052-4.14-1.485L22.096,45
		C23.004,46.087,23.615,47.427,23.824,48.897z"/>
	<path class="st0" d="M8.307,50c0-1.105,0.233-2.154,0.647-3.107l-8.388,8.388c0.174,1.648,0.427,3.271,0.758,4.867l7.466-7.466
		C8.483,51.844,8.307,50.944,8.307,50z"/>
	<path class="st0" d="M25.238,20.625c0-0.478,0.05-0.944,0.132-1.398L0.665,43.932c-0.24,1.97-0.378,3.971-0.38,6.005L26.082,24.14
		C25.546,23.083,25.238,21.891,25.238,20.625z"/>
	<path class="st0" d="M8.79,52.682l-7.466,7.466c0.315,1.518,0.7,3.011,1.15,4.475l8.636-8.636
		C10.069,55.117,9.265,53.979,8.79,52.682z"/>
	<path class="st0" d="M23.911,50c0,4.309-3.493,7.802-7.802,7.802c-0.375,0-0.742-0.036-1.103-0.087L3.958,68.763
		c0.536,1.314,1.129,2.598,1.772,3.853L72.616,5.73c-1.255-0.643-2.539-1.236-3.853-1.772L23.824,48.897
		C23.875,49.258,23.911,49.625,23.911,50z"/>
	<path class="st0" d="M11.109,55.987l-8.636,8.636c0.433,1.409,0.934,2.787,1.485,4.14l11.047-11.047
		C13.536,57.507,12.196,56.896,11.109,55.987z"/>
</g>
</svg>
