<?xml version="1.0" encoding="utf-8"?>
<!-- Generator: Adobe Illustrator 21.0.0, SVG Export Plug-In . SVG Version: 6.00 Build 0)  -->
<svg version="1.1" id="Layer_1" xmlns="http://www.w3.org/2000/svg" xmlns:xlink="http://www.w3.org/1999/xlink" x="0px" y="0px"
	 viewBox="0 0 100 100" style="enable-background:new 0 0 100 100;" xml:space="preserve">
<style type="text/css">
	.st0{fill:#FC0D1B;}
	.st1{fill:#000000;}
	.st2{fill:none;stroke:#FFFFFF;stroke-width:1.8;stroke-miterlimit:5;}
	.st3{fill:#FFFFFF;}
	.st4{enable-background:new    ;}
</style>
<g>
	<path class="st0" d="M50,99.1c-27.1,0-49.1-22-49.1-49.1S22.9,0.9,50,0.9s49.1,22,49.1,49.1S77.1,99.1,50,99.1z"/>
	<path class="st1" d="M50,1.8c26.6,0,48.2,21.6,48.2,48.2S76.6,98.2,50,98.2S1.8,76.6,1.8,50S23.4,1.8,50,1.8 M50,0
		C22.4,0,0,22.4,0,50s22.4,50,50,50s50-22.4,50-50S77.6,0,50,0L50,0z"/>
</g>
<g>
	<g>
		<line class="st2" x1="50" y1="79.7" x2="24.9" y2="26.4"/>
		<g>
			<polygon class="st3" points="29.1,25.7 22.5,21.1 21.8,29.2 			"/>
		</g>
	</g>
</g>
<g id="Layer_2_2_">
	<g class="st4">
		<path class="st3" d="M47.6,84.5h2.7c1,0,1.7,0.2,2.2,0.7s0.8,1.1,0.8,1.9c0,0.9-0.3,1.5-0.8,2s-1.2,0.7-2.2,0.7h-1.5v3.5h-1.2
			V84.5z M48.7,85.5v3.3h1.5c0.6,0,1-0.1,1.3-0.4s0.5-0.7,0.5-1.2c0-0.5-0.2-0.9-0.5-1.2s-0.7-0.4-1.3-0.4L48.7,85.5L48.7,85.5z"/>
	</g>
</g>
</svg>
