<?xml version="1.0" encoding="utf-8"?>
<!-- Generator: Adobe Illustrator 21.0.0, SVG Export Plug-In . SVG Version: 6.00 Build 0)  -->
<svg version="1.1" id="Layer_1" xmlns="http://www.w3.org/2000/svg" xmlns:xlink="http://www.w3.org/1999/xlink" x="0px" y="0px"
	 viewBox="0 0 100 100" style="enable-background:new 0 0 100 100;" xml:space="preserve">
<style type="text/css">
	.st0{fill:#FFFFFF;}
	.st1{fill:#000000;}
	.st2{fill:none;}
	.st3{fill:none;stroke:#000000;stroke-width:1.8;stroke-miterlimit:5;}
	.st4{enable-background:new    ;}
</style>
<g>
	<path class="st0" d="M50,99.1c-27.1,0-49.1-22-49.1-49.1S22.9,0.9,50,0.9s49.1,22,49.1,49.1S77.1,99.1,50,99.1z"/>
	<path class="st1" d="M50,1.8c26.6,0,48.2,21.6,48.2,48.2S76.6,98.2,50,98.2S1.8,76.6,1.8,50S23.4,1.8,50,1.8 M50,0
		C22.4,0,0,22.4,0,50s22.4,50,50,50s50-22.4,50-50S77.6,0,50,0L50,0z"/>
</g>
<g>
	<line class="st2" x1="50" y1="79.7" x2="22.5" y2="21.1"/>
	<g>
		<line class="st3" x1="50" y1="79.7" x2="24.9" y2="26.4"/>
		<g>
			<polygon class="st1" points="29.1,25.7 22.5,21.1 21.8,29.2 			"/>
		</g>
	</g>
</g>
<g id="Layer_2_2_">
	<g class="st4">
		<path d="M47.56,84.544h2.672c0.98,0,1.722,0.222,2.224,0.665s0.753,1.093,0.753,1.948c0,0.863-0.251,1.516-0.753,1.957
			s-1.243,0.662-2.224,0.662h-1.488v3.516H47.56V84.544z M48.743,85.517v3.287h1.488c0.551,0,0.977-0.143,1.277-0.428
			s0.451-0.691,0.451-1.219c0-0.523-0.15-0.928-0.451-1.213s-0.727-0.428-1.277-0.428H48.743z"/>
	</g>
</g>
</svg>
