<?xml version="1.0" encoding="utf-8"?>
<!-- Generator: Adobe Illustrator 21.0.0, SVG Export Plug-In . SVG Version: 6.00 Build 0)  -->
<svg version="1.1" id="Layer_1" xmlns="http://www.w3.org/2000/svg" xmlns:xlink="http://www.w3.org/1999/xlink" x="0px" y="0px"
	 viewBox="0 0 100 100" style="enable-background:new 0 0 100 100;" xml:space="preserve">
<style type="text/css">
	.st0{fill:#797979;}
	.st1{fill:none;stroke:#000000;stroke-width:2.5;stroke-miterlimit:5;}
	.st2{enable-background:new    ;}
</style>
<g>
	<path class="st0" d="M50,1.8c26.6,0,48.2,21.6,48.2,48.2S76.6,98.2,50,98.2S1.8,76.6,1.8,50S23.4,1.8,50,1.8 M50,0
		C22.4,0,0,22.4,0,50s22.4,50,50,50s50-22.4,50-50S77.6,0,50,0L50,0z"/>
</g>
<g>
	<g>
		<line class="st1" x1="50" y1="87.14" x2="24.9" y2="26.4"/>
		<g>
			<polygon points="30.159,25.859 21.645,19.925 20.741,30.374 			"/>
		</g>
	</g>
</g>
<g id="Layer_2_2_">
	<g class="st2">
		<path d="M45.934,8.275h4.211c1.544,0,2.714,0.35,3.505,1.048s1.187,1.722,1.187,3.07c0,1.36-0.396,2.389-1.187,3.084
			c-0.791,0.695-1.959,1.043-3.505,1.043h-2.345v5.541h-1.866V8.275z M47.798,9.809v5.18h2.345c0.868,0,1.54-0.225,2.012-0.674
			c0.473-0.449,0.711-1.089,0.711-1.921c0-0.824-0.236-1.462-0.711-1.911c-0.474-0.449-1.146-0.674-2.012-0.674h-2.345V9.809z"/>
	</g>
</g>
</svg>
