<?xml version="1.0" encoding="utf-8"?>
<!-- Generator: Adobe Illustrator 21.1.0, SVG Export Plug-In . SVG Version: 6.00 Build 0)  -->
<svg version="1.1" id="Layer_1" xmlns="http://www.w3.org/2000/svg" xmlns:xlink="http://www.w3.org/1999/xlink" x="0px" y="0px"
	 viewBox="0 0 16 16" style="enable-background:new 0 0 16 16;" xml:space="preserve">
<g>
	<path d="M10.9994936,9.4900322h1.5001688c0.8244171,0,1.5305777,0.2964869,2.1184816,0.8886137
		C15.206048,10.9707737,15.5,11.6760893,15.5,12.4954386s-0.293952,1.5246649-0.881856,2.1167927
		c-0.587904,0.5929718-1.2940645,0.8886137-2.1184816,0.8886137c-0.8176603,0-1.520442-0.293952-2.1117249-0.881856
		s-0.8869238-1.2940655-0.8869238-2.1184826v-1.5001688H6.5006757v1.5001688c0,0.8109026-0.293952,1.5136843-0.881856,2.108346
		S4.3247552,15.500845,3.5003378,15.500845c-0.8109021,0-1.5136839-0.292263-2.1083455-0.8784771
		C0.7973308,14.0369978,0.5,13.3283024,0.5,12.4954386c0-0.8261061,0.2956414-1.5331116,0.8869241-2.1218605
		s1.2957541-0.8835459,2.1134138-0.8835459h1.500169V6.5099673h-1.500169c-0.8176596,0-1.5221308-0.2947965-2.1134138-0.8835454
		S0.5,4.330668,0.5,3.5045614s0.2956414-1.5331119,0.8869241-2.1218605s1.2957541-0.8835455,2.1134138-0.8835455
		s1.5221307,0.293952,2.1134136,0.8818561S6.5006757,2.675076,6.5006757,3.4994931v1.5001688h3.0003381V3.4994931
		c0-0.8244171,0.2956409-1.5305777,0.8869238-2.1184816s1.2940645-0.8818561,2.1117249-0.8818561
		c0.8176594,0,1.5238199,0.2947967,2.1151028,0.8835455S15.5,2.6784549,15.5,3.5045614
		c0,0.8193488-0.293952,1.5246649-0.881856,2.1167922c-0.587904,0.5929723-1.2940645,0.8886137-2.1184816,0.8886137h-1.5001688
		V9.4900322z M5.0005069,4.9996619V3.5045614c0-0.4037619-0.1486654-0.754308-0.4459963-1.0507941
		C4.2571797,2.1581259,3.9057889,2.0094604,3.5003378,2.0094604c-0.3986936,0-0.748395,0.1452868-1.0491047,0.4341705
		C2.1505237,2.7333596,2.000169,3.0872846,2.000169,3.5045614c0,0.4105191,0.146976,0.7627549,0.440928,1.0558619
		c0.293952,0.2931075,0.6470323,0.4392385,1.0592408,0.4392385H5.0005069z M5.0005069,11.0003376h-1.500169
		c-0.4122086,0-0.7652888,0.1486654-1.0592408,0.4443073c-0.293952,0.2964859-0.440928,0.6470318-0.440928,1.0507936
		s0.146976,0.7543077,0.440928,1.0507936c0.293952,0.2964869,0.6470323,0.4443073,1.0592408,0.4443073
		s0.7652891-0.1478205,1.0592411-0.4443073c0.293952-0.2964859,0.440928-0.6470318,0.440928-1.0507936V11.0003376z
		 M9.5010138,9.4900322V6.5099673H6.5006757v2.9800649H9.5010138z M10.9994936,4.9996619h1.5001688
		c0.4122086,0,0.7669783-0.1478205,1.0609303-0.4443064c0.293952-0.2964864,0.4392385-0.6470325,0.4392385-1.0507941
		s-0.1452866-0.754308-0.4392385-1.0507941c-0.293952-0.2956414-0.6487217-0.4443069-1.0609303-0.4443069
		S11.736063,2.155592,11.442111,2.4486992s-0.4426174,0.6453428-0.4426174,1.0558622V4.9996619z M10.9994936,11.0003376v1.495101
		c0,0.4105196,0.1486654,0.7627544,0.4459953,1.0558624c0.2973309,0.293107,0.6487217,0.4392385,1.0541735,0.4392385
		c0.4054508,0,0.7568417-0.1461315,1.0541725-0.4392385c0.2973309-0.293108,0.4459963-0.6453428,0.4459963-1.0558624
		c0-0.4105186-0.1452866-0.7627544-0.4392385-1.0558624c-0.293952-0.293107-0.6487217-0.4392385-1.0609303-0.4392385H10.9994936z"/>
</g>
</svg>
