<?xml version="1.0" encoding="utf-8"?>
<!-- Generator: Adobe Illustrator 21.1.0, SVG Export Plug-In . SVG Version: 6.00 Build 0)  -->
<svg version="1.1" id="Layer_1" xmlns="http://www.w3.org/2000/svg" xmlns:xlink="http://www.w3.org/1999/xlink" x="0px" y="0px"
	 viewBox="0 0 16 16" style="enable-background:new 0 0 16 16;" xml:space="preserve">
<style type="text/css">
	.st0{fill:none;stroke:#000000;stroke-miterlimit:10;}
	.st1{fill:#FC0D1B;}
	.st2{fill:none;stroke:#FC0D1B;stroke-linecap:round;stroke-miterlimit:10;}
	.st3{fill:none;stroke:#000000;stroke-width:0.75;stroke-linecap:round;stroke-linejoin:round;stroke-miterlimit:10;}
</style>
<g>
	<g>
		<path class="st0" d="M8.9231739,7.8747635V2.5622253C8.9231739,1.6994019,8.2237186,1,7.3609486,1
			S5.7987232,1.6994019,5.7987232,2.5622253v5.3125381c-1.2818451,0.5927505-2.1763384,1.8816452-2.1763384,3.386673
			C3.6223848,13.3261566,5.2962284,15,7.3609486,15s3.7385635-1.6738434,3.7385635-3.7385635
			C11.0995121,9.7564087,10.205019,8.467514,8.9231739,7.8747635z"/>
		<path class="st1" d="M7.8349247,9.2508698V6.0628119c0-0.2617416-0.2122345-0.4739227-0.4739761-0.4739227
			S6.8869724,5.8010702,6.8869724,6.0628119v3.1880579c-0.9139328,0.215065-1.5962982,1.0309982-1.5962982,2.0105667
			c0,1.143364,0.9269104,2.0702744,2.0702744,2.0702744s2.0702744-0.9269104,2.0702744-2.0702744
			C9.4312229,10.281868,8.7488575,9.4659348,7.8349247,9.2508698z"/>
	</g>
	<line class="st2" x1="10.5109482" y1="2.4000001" x2="12.377615" y2="2.4000001"/>
	<line class="st3" x1="10.5109482" y1="4.5" x2="12.377615" y2="4.5"/>
	<line class="st3" x1="10.5109482" y1="6.5999999" x2="12.377615" y2="6.5999999"/>
</g>
</svg>
