<?xml version="1.0" encoding="utf-8"?>
<!-- Generator: Adobe Illustrator 21.0.0, SVG Export Plug-In . SVG Version: 6.00 Build 0)  -->
<svg version="1.1" id="Layer_1" xmlns="http://www.w3.org/2000/svg" xmlns:xlink="http://www.w3.org/1999/xlink" x="0px" y="0px"
	 viewBox="0 0 100 100" style="enable-background:new 0 0 100 100;" xml:space="preserve">
<style type="text/css">
	.st0{fill:none;}
	.st1{display:none;}
	.st2{display:inline;}
	.st3{font-family:'Helvetica';}
	.st4{font-size:10.385px;}
</style>
<g id="Layer_1_1_">
	<g id="Layer_2">
	</g>
	<g>
		<g>
			<rect x="0.9" y="0.9" class="st0" width="98.2" height="98.2"/>
			<path d="M100,100H0V0h100V100z M1.8,98.2h96.4V1.8H1.8V98.2z"/>
		</g>
		<g>
			<polygon points="50.3,75.8 23.2,28.5 24.8,27.6 50.3,72.2 75.2,27.6 76.8,28.4 			"/>
		</g>
		<g>
			<rect x="24" y="49.1" width="52" height="1.8"/>
		</g>
	</g>
</g>
<g id="Layer_2_1_" class="st1">
	<text transform="matrix(1 0 0 1 5.0005 95.8096)" class="st2 st3 st4">PI</text>
</g>
<g>
	<path d="M15.161,83.848v1.548c-0.516-0.516-1.032-0.774-1.677-1.032c-0.645-0.258-1.161-0.387-1.806-0.387
		c-1.29,0-2.323,0.387-2.968,1.161c-0.645,0.774-1.032,1.935-1.032,3.484c0,1.548,0.387,2.581,1.032,3.355s1.677,1.161,2.968,1.161
		c0.645,0,1.29-0.129,1.806-0.387s1.161-0.645,1.677-1.032v1.548c-0.516,0.387-1.161,0.645-1.677,0.774
		c-0.516,0.129-1.29,0.258-1.935,0.258c-1.677,0-3.097-0.516-4-1.548C6.645,91.719,6,90.429,6,88.623s0.516-3.226,1.419-4.258
		c0.903-1.032,2.323-1.548,4-1.548c0.645,0,1.29,0.129,1.935,0.258C14,83.203,14.645,83.461,15.161,83.848z"/>
	<path d="M26,83.848v1.548c-0.516-0.516-1.032-0.774-1.677-1.032c-0.645-0.258-1.161-0.387-1.806-0.387
		c-1.29,0-2.323,0.387-2.968,1.161s-1.032,1.935-1.032,3.484c0,1.548,0.387,2.581,1.032,3.355s1.677,1.161,2.968,1.161
		c0.645,0,1.29-0.129,1.806-0.387s1.161-0.645,1.677-1.032v1.548c-0.516,0.387-1.161,0.645-1.677,0.774
		c-0.516,0.129-1.29,0.258-1.935,0.258c-1.677,0-3.097-0.516-4-1.548s-1.419-2.452-1.419-4.258s0.516-3.226,1.419-4.258
		c1.032-1.032,2.323-1.548,4-1.548c0.645,0,1.29,0.129,1.935,0.258C24.968,83.074,25.484,83.461,26,83.848z"/>
</g>
</svg>
