<?xml version="1.0" encoding="utf-8"?>
<!-- Generator: Adobe Illustrator 21.0.0, SVG Export Plug-In . SVG Version: 6.00 Build 0)  -->
<svg version="1.1" id="Layer_1" xmlns="http://www.w3.org/2000/svg" xmlns:xlink="http://www.w3.org/1999/xlink" x="0px" y="0px"
	 viewBox="0 0 100 100" style="enable-background:new 0 0 100 100;" xml:space="preserve">
<style type="text/css">
	.st0{fill:none;}
	.st1{fill:#797979;}
	.st2{display:none;}
	.st3{display:inline;}
	.st4{font-family:'Helvetica';}
	.st5{font-size:10.385px;}
</style>
<g id="Layer_1_1_">
	<g id="Layer_2">
	</g>
	<g>
		<g>
			<rect x="0.9" y="0.9" class="st0" width="98.2" height="98.2"/>
			<path class="st1" d="M100,100H0V0h100V100z M1.8,98.2h96.4V1.8H1.8V98.2z"/>
		</g>
		<g>
			<polygon points="50.3,75.8 23.2,28.5 24.8,27.6 50.3,72.2 75.2,27.6 76.8,28.4 			"/>
		</g>
		<g>
			<rect x="24" y="49.1" width="52" height="1.8"/>
		</g>
	</g>
</g>
<g id="Layer_2_1_" class="st2">
	<text transform="matrix(1 0 0 1 5.0005 95.8096)" class="st3 st4 st5">PI</text>
</g>
<g>
	<path d="M15.192,83.778v1.617c-0.516-0.481-1.067-0.84-1.651-1.078s-1.207-0.356-1.864-0.356c-1.296,0-2.289,0.397-2.977,1.188
		s-1.033,1.937-1.033,3.436c0,1.493,0.345,2.636,1.033,3.429s1.681,1.188,2.977,1.188c0.658,0,1.279-0.119,1.864-0.356
		s1.135-0.597,1.651-1.078v1.602c-0.537,0.364-1.105,0.638-1.704,0.82c-0.599,0.183-1.234,0.273-1.902,0.273
		c-1.716,0-3.067-0.525-4.055-1.576c-0.987-1.051-1.481-2.484-1.481-4.301c0-1.822,0.494-3.259,1.481-4.309
		c0.987-1.05,2.339-1.576,4.055-1.576c0.678,0,1.318,0.089,1.917,0.27C14.101,83.151,14.664,83.418,15.192,83.778z"/>
	<path d="M26.049,83.778v1.617c-0.516-0.481-1.067-0.84-1.651-1.078c-0.584-0.238-1.207-0.356-1.864-0.356
		c-1.296,0-2.289,0.397-2.977,1.188c-0.688,0.792-1.033,1.937-1.033,3.436c0,1.493,0.345,2.636,1.033,3.429
		c0.688,0.793,1.681,1.188,2.977,1.188c0.658,0,1.279-0.119,1.864-0.356c0.584-0.237,1.135-0.597,1.651-1.078v1.602
		c-0.537,0.364-1.105,0.638-1.704,0.82s-1.234,0.273-1.902,0.273c-1.716,0-3.067-0.525-4.055-1.576
		c-0.987-1.051-1.481-2.484-1.481-4.301c0-1.822,0.494-3.259,1.481-4.309c0.987-1.05,2.339-1.576,4.055-1.576
		c0.678,0,1.318,0.089,1.917,0.27C24.958,83.151,25.523,83.418,26.049,83.778z"/>
</g>
</svg>
