<?xml version="1.0" encoding="utf-8"?>
<!-- Generator: Adobe Illustrator 21.0.0, SVG Export Plug-In . SVG Version: 6.00 Build 0)  -->
<svg version="1.1" id="Layer_1" xmlns="http://www.w3.org/2000/svg" xmlns:xlink="http://www.w3.org/1999/xlink" x="0px" y="0px"
	 viewBox="0 0 100 100" style="enable-background:new 0 0 100 100;" xml:space="preserve">
<style type="text/css">
	.st0{fill:#3DD83D;}
	.st1{fill:#288C28;}
	.st2{fill:none;stroke:#288C28;stroke-width:2.7;stroke-miterlimit:10;}
</style>
<g id="Layer_2">
</g>
<g>
	<polygon class="st0" points="23.702,98.249 50,52.7 76.298,98.249 	"/>
	<path class="st1" d="M50,55.4l23.96,41.499H26.04L50,55.4 M50,50L21.364,99.599h57.272L50,50L50,50z"/>
</g>
<g>
	<polygon class="st0" points="52.7,50 98.25,23.702 98.25,76.298 	"/>
	<path class="st1" d="M96.899,26.04V73.96L55.4,50L96.899,26.04 M99.599,21.364L50,50l49.599,28.636V21.364L99.599,21.364z"/>
</g>
<line class="st2" x1="50" y1="50.401" x2="50" y2="25.704"/>
<g>
	<path class="st1" d="M55.878,2.7v21.999H44.122V2.7H55.878 M58.578,0H41.422v27.399h17.156V0L58.578,0z"/>
</g>
<g>
	<circle class="st1" cx="50" cy="50" r="7.656"/>
</g>
</svg>
