<?xml version="1.0" encoding="utf-8"?>
<!-- Generator: Adobe Illustrator 21.0.0, SVG Export Plug-In . SVG Version: 6.00 Build 0)  -->
<svg version="1.1" id="Layer_1" xmlns="http://www.w3.org/2000/svg" xmlns:xlink="http://www.w3.org/1999/xlink" x="0px" y="0px"
	 viewBox="0 0 100 100" style="enable-background:new 0 0 100 100;" xml:space="preserve">
<style type="text/css">
	.st0{display:none;}
	.st1{display:inline;}
	.st2{fill:none;}
	.st3{fill:#000000;}
	.st4{fill:none;stroke:#999999;stroke-width:1.8;stroke-miterlimit:10;}
	.st5{fill:none;stroke:#999999;stroke-width:1.8;stroke-miterlimit:10;stroke-dasharray:1.4,1.4;}
	.st6{fill:#999999;}
	.st7{fill:none;stroke:#999999;stroke-width:1.8;stroke-miterlimit:10;stroke-dasharray:1.4706,1.4706;}
	.st8{fill:none;stroke:#999999;stroke-width:1.8;stroke-miterlimit:10;stroke-dasharray:1.472,1.472;}
	.st9{fill:none;stroke:#999999;stroke-width:1.8;stroke-miterlimit:10;stroke-dasharray:1.4686,1.4686;}
	.st10{fill:none;stroke:#999999;stroke-width:1.8;stroke-miterlimit:10;stroke-dasharray:1.4721,1.4721;}
	.st11{fill:none;stroke:#999999;stroke-width:1.8;stroke-miterlimit:10;stroke-dasharray:1.5;}
	.st12{fill:none;stroke:#999999;stroke-width:1.8;stroke-miterlimit:10;stroke-dasharray:1.3914,1.3914;}
	.st13{fill:none;stroke:#999999;stroke-width:1.8;stroke-miterlimit:10;stroke-dasharray:1.3513,1.3513;}
</style>
<g id="Layer_1_1_" class="st0">
	<g id="Layer_2" class="st1">
	</g>
	<g class="st1">
		<g>
			<g id="XMLID_1_">
				<g>
					<path class="st2" d="M82.1,32.3v35.3l-27.7-16c0.2-0.5,0.3-1.1,0.3-1.7c0-0.6-0.1-1.1-0.3-1.7L82.1,32.3z"/>
					<path class="st2" d="M51.5,54.4l16,27.8H32.2l16.1-27.8c0.5,0.2,1.1,0.3,1.6,0.3S51,54.6,51.5,54.4z"/>
					<rect x="83.8" y="49.1" class="st3" width="16.1" height="1.7"/>
					<path class="st3" d="M83.9,29.3l-0.1,19.8H83v1.7l0,0v-20L54,47.5c-0.1-0.2-0.3-0.5-0.5-0.7L83.9,29.3z"/>
					<rect x="83.1" y="49.1" class="st3" width="0.8" height="1.7"/>
					<path class="st3" d="M83.8,50.8v19.7L53.6,53c0.2-0.2,0.3-0.5,0.5-0.7l29,16.8V50.8h0.1H83.8z"/>
					<path class="st3" d="M83,50.8v18.3L54,52.3c0.1-0.2,0.2-0.5,0.3-0.7l27.7,16V32.3L54.4,48.2c-0.1-0.3-0.2-0.5-0.3-0.7l29-16.7
						v20H83z"/>
					<path class="st3" d="M52.9,53.6l17.6,30.3H50.7v-0.8H69L52.3,54C52.5,53.9,52.7,53.8,52.9,53.6z"/>
					<path class="st3" d="M52.3,54L69,83H50.7H49H30.7l16.8-29c0.2,0.1,0.5,0.3,0.8,0.4L32.2,82.2h35.3l-16-27.8
						C51.8,54.3,52,54.2,52.3,54z"/>
					<rect x="56" y="28.9" class="st3" width="1.7" height="1.7"/>
					<rect x="56" y="5.8" class="st3" width="1.7" height="23.1"/>
					<rect x="56" y="4.1" class="st3" width="1.7" height="1.7"/>
					<polygon class="st3" points="56,28.9 56,30.6 50.7,30.6 50.7,29.7 49,29.7 49,30.6 43.8,30.6 43.8,28.9 					"/>
					<rect x="43.8" y="4.1" class="st3" width="12.2" height="1.7"/>
					<path class="st3" d="M54.4,48.2c0.2,0.5,0.3,1.1,0.3,1.7c0,0.6-0.1,1.1-0.3,1.7l-2.9-1.7L54.4,48.2z"/>
					<path class="st3" d="M54.4,48.2l-2.9,1.7l2.9,1.7c-0.1,0.3-0.2,0.5-0.3,0.7l-2.8-1.6l-0.5-0.9v-0.3l3.3-1.9
						C54.2,47.7,54.3,48,54.4,48.2z"/>
					<path class="st3" d="M54,47.5l-3.3,1.9v-1l2.9-1.6C53.8,47,53.9,47.2,54,47.5z"/>
					<path class="st3" d="M51.2,50.7l2.8,1.6c-0.1,0.2-0.3,0.5-0.5,0.7L52,52.2L51.2,50.7z"/>
					<path class="st3" d="M50.7,45.2c1.1,0.2,2.1,0.8,2.9,1.6l-2.9,1.6V45.2z"/>
					<path class="st3" d="M53.6,53c-0.2,0.2-0.4,0.4-0.6,0.6l-0.8-1.5L53.6,53z"/>
					<path class="st3" d="M52.1,52.2l0.8,1.5c-0.2,0.2-0.4,0.3-0.6,0.4l-1.5-2.7L52.1,52.2z"/>
					<path class="st3" d="M50.8,51.4l1.5,2.7c-0.2,0.2-0.5,0.3-0.8,0.4l-1.6-2.8l-1.6,2.8c-0.3-0.1-0.5-0.2-0.8-0.4l2-3.4L50.8,51.4
						z"/>
					<polygon class="st3" points="51.2,50.7 52.1,52.2 50.8,51.4 49.9,49.9 					"/>
					<path class="st3" d="M49.9,51.6l1.6,2.8c-0.5,0.2-1,0.3-1.6,0.3s-1.1-0.1-1.6-0.3L49.9,51.6z"/>
					<polygon class="st3" points="50.7,49.8 51.2,50.7 49.9,49.9 50.7,49.9 					"/>
					<polygon class="st3" points="50.8,51.4 49.5,50.6 49.9,49.9 					"/>
					<rect x="49" y="83.9" class="st3" width="1.7" height="16.1"/>
					<rect x="49" y="83.1" class="st3" width="1.7" height="0.8"/>
					<polygon class="st3" points="50.7,49.8 50.7,49.9 49.9,49.9 50.6,49.5 					"/>
					<polygon class="st3" points="50.7,49.4 50.7,49.8 50.6,49.5 					"/>
					<polygon class="st3" points="50.7,48.5 50.7,49.4 50.6,49.5 50.1,48.8 					"/>
					<path class="st3" d="M50.7,45.2v3.3l-0.6,0.3l-0.3-0.6l-0.7,1.2H49v-4.2c0.3-0.1,0.6-0.1,0.9-0.1
						C50.2,45.1,50.4,45.1,50.7,45.2z"/>
					<path class="st3" d="M50.7,30.6v14.6c-0.3,0-0.5-0.1-0.8-0.1s-0.6,0-0.9,0.1V30.6H50.7z"/>
					<rect x="49" y="29.7" class="st3" width="1.7" height="0.9"/>
					<polygon class="st3" points="50.1,48.8 50.6,49.5 49.9,49.9 49,49.9 49,49.6 49.1,49.4 					"/>
					<polygon class="st3" points="50.1,48.8 49.1,49.4 49.8,48.2 					"/>
					<polygon class="st3" points="49.9,49.9 49.5,50.6 48.7,50.2 49,49.6 49,49.9 					"/>
					<path class="st3" d="M48.7,50.2l0.8,0.5l-2,3.4c-0.3-0.2-0.5-0.3-0.8-0.5L48.7,50.2z"/>
					<polygon class="st3" points="49,49.4 49.1,49.4 49,49.6 					"/>
					<path class="st3" d="M49,83.1v0.8H29.2l17.5-30.4c0.2,0.2,0.5,0.4,0.8,0.5L30.7,83L49,83.1L49,83.1z"/>
					<polygon class="st3" points="49,49.4 49,49.6 48.7,50.2 48.2,49.9 					"/>
					<path class="st3" d="M49,45.2v4.2l-0.8,0.5l0.5,0.3l-1.9,3.3c-1-0.9-1.6-2.2-1.6-3.6C45.1,47.6,46.8,45.6,49,45.2z"/>
					<rect x="42.1" y="28.9" class="st3" width="1.7" height="1.7"/>
					<rect x="42.1" y="5.8" class="st3" width="1.7" height="23.1"/>
					<rect x="42.1" y="4.1" class="st3" width="1.7" height="1.7"/>
				</g>
			</g>
		</g>
	</g>
</g>
<g id="Layer_2_1_">
	<g>
		<g>
			<line class="st4" x1="49.8" y1="83.1" x2="49.8" y2="83.8"/>
			<line class="st5" x1="49.8" y1="85.2" x2="49.8" y2="98.6"/>
			<line class="st4" x1="49.8" y1="99.2" x2="49.8" y2="100"/>
		</g>
	</g>
	<g>
		<g>
			<line class="st4" x1="83" y1="49.9" x2="83.8" y2="49.9"/>
			<line class="st5" x1="85.2" y1="49.9" x2="98.5" y2="49.9"/>
			<line class="st4" x1="99.2" y1="49.9" x2="99.9" y2="49.9"/>
		</g>
	</g>
	<circle class="st6" cx="49.9" cy="49.9" r="4.8"/>
	<g>
		<g>
			<polyline class="st4" points="50.3,50.5 49.9,49.9 49.5,50.5 			"/>
			<line class="st7" x1="48.8" y1="51.8" x2="31.4" y2="81.7"/>
			<polyline class="st4" points="31.1,82.4 30.7,83 31.5,83 			"/>
			<line class="st8" x1="32.9" y1="83" x2="67.5" y2="83"/>
			<polyline class="st4" points="68.2,83 69,83 68.6,82.4 			"/>
			<line class="st9" x1="67.9" y1="81.1" x2="50.6" y2="51.2"/>
		</g>
	</g>
	<g>
		<g>
			<polyline class="st4" points="82.4,31.2 83.1,30.8 83.1,31.5 			"/>
			<line class="st8" x1="83.1" y1="33" x2="83" y2="67.6"/>
			<polyline class="st4" points="83,68.3 83,69.1 82.4,68.7 			"/>
			<line class="st7" x1="81.1" y1="68" x2="51.2" y2="50.6"/>
			<polyline class="st4" points="50.5,50.3 49.9,49.9 50.6,49.5 			"/>
			<line class="st10" x1="51.8" y1="48.8" x2="81.8" y2="31.5"/>
		</g>
	</g>
</g>
<line class="st11" x1="49.9" y1="29.8" x2="49.9" y2="49.9"/>
<g>
	<g>
		<polyline class="st4" points="56.8,28.561 56.8,29.25 56.111,29.25 		"/>
		<line class="st12" x1="54.72" y1="29.25" x2="44.285" y2="29.25"/>
		<polyline class="st4" points="43.589,29.25 42.9,29.25 42.9,28.561 		"/>
		<line class="st13" x1="42.9" y1="27.21" x2="42.9" y2="6.265"/>
		<polyline class="st4" points="42.9,5.589 42.9,4.9 43.589,4.9 		"/>
		<line class="st12" x1="44.98" y1="4.9" x2="55.415" y2="4.9"/>
		<polyline class="st4" points="56.111,4.9 56.8,4.9 56.8,5.589 		"/>
		<line class="st13" x1="56.8" y1="6.94" x2="56.8" y2="27.885"/>
	</g>
</g>
</svg>
