<?xml version="1.0" encoding="utf-8"?>
<!-- Generator: Adobe Illustrator 21.0.0, SVG Export Plug-In . SVG Version: 6.00 Build 0)  -->
<svg version="1.1" id="Layer_1" xmlns="http://www.w3.org/2000/svg" xmlns:xlink="http://www.w3.org/1999/xlink" x="0px" y="0px"
	 viewBox="0 0 100 100" style="enable-background:new 0 0 100 100;" xml:space="preserve">
<style type="text/css">
	.st0{fill:#FFFFFF;}
	.st1{fill:#231F20;}
</style>
<g id="Layer_2">
</g>
<g>
	<g>
		<g id="XMLID_1_">
			<g>
				<path class="st0" d="M82.1,32.3v35.3l-27.7-16c0.2-0.5,0.3-1.1,0.3-1.7c0-0.6-0.1-1.1-0.3-1.7L82.1,32.3z"/>
				<path class="st0" d="M51.5,54.4l16,27.8H32.2l16.1-27.8c0.5,0.2,1.1,0.3,1.6,0.3S51,54.6,51.5,54.4z"/>
				<rect x="83.8" y="49.1" class="st1" width="16.1" height="1.7"/>
				<path class="st1" d="M83.9,29.3l-0.1,19.8h-0.8v1.7H83v-20L54,47.5c-0.1-0.2-0.3-0.5-0.5-0.7L83.9,29.3z"/>
				<rect x="83.1" y="49.1" class="st1" width="0.8" height="1.7"/>
				<path class="st1" d="M83.8,50.8l0,19.7L53.6,53c0.2-0.2,0.3-0.5,0.5-0.7l29,16.8V50.8h0.1H83.8z"/>
				<path class="st1" d="M83,50.8v18.3L54,52.3c0.1-0.2,0.2-0.5,0.3-0.7l27.7,16V32.3L54.4,48.2c-0.1-0.3-0.2-0.5-0.3-0.7l29-16.7
					V50.8z"/>
				<path class="st1" d="M52.9,53.6l17.6,30.3H50.7v-0.8H69L52.3,54C52.5,53.9,52.7,53.8,52.9,53.6z"/>
				<path class="st1" d="M52.3,54l16.7,29H50.7H49H30.7l16.8-29c0.2,0.1,0.5,0.3,0.8,0.4L32.2,82.2h35.3l-16-27.8
					C51.8,54.3,52,54.2,52.3,54z"/>
				<rect x="56" y="28.9" class="st1" width="1.7" height="1.7"/>
				<rect x="56" y="5.8" class="st1" width="1.7" height="23.1"/>
				<rect x="56" y="4.1" class="st1" width="1.7" height="1.7"/>
				<polygon class="st1" points="56,28.9 56,30.6 50.7,30.6 50.7,29.7 49,29.7 49,30.6 43.8,30.6 43.8,28.9 				"/>
				<rect x="43.8" y="4.1" class="st1" width="12.2" height="1.7"/>
				<path class="st1" d="M54.4,48.2c0.2,0.5,0.3,1.1,0.3,1.7c0,0.6-0.1,1.1-0.3,1.7l-2.9-1.7L54.4,48.2z"/>
				<path class="st1" d="M54.4,48.2l-2.9,1.7l2.9,1.7c-0.1,0.3-0.2,0.5-0.3,0.7l-2.8-1.6l-0.5-0.9v-0.3l3.3-1.9
					C54.2,47.7,54.3,48,54.4,48.2z"/>
				<path class="st1" d="M54,47.5l-3.3,1.9v-1l2.9-1.6C53.8,47,53.9,47.2,54,47.5z"/>
				<path class="st1" d="M51.2,50.7l2.8,1.6c-0.1,0.2-0.3,0.5-0.5,0.7l-1.5-0.8L51.2,50.7z"/>
				<path class="st1" d="M50.7,45.2c1.1,0.2,2.1,0.8,2.9,1.6l-2.9,1.6V45.2z"/>
				<path class="st1" d="M53.6,53c-0.2,0.2-0.4,0.4-0.6,0.6l-0.8-1.5L53.6,53z"/>
				<path class="st1" d="M52.1,52.2l0.8,1.5c-0.2,0.2-0.4,0.3-0.6,0.4l-1.5-2.7L52.1,52.2z"/>
				<path class="st1" d="M50.8,51.4l1.5,2.7c-0.2,0.2-0.5,0.3-0.8,0.4l-1.6-2.8l-1.6,2.8c-0.3-0.1-0.5-0.2-0.8-0.4l2-3.4L50.8,51.4z
					"/>
				<polygon class="st1" points="51.2,50.7 52.1,52.2 50.8,51.4 49.9,49.9 				"/>
				<path class="st1" d="M49.9,51.6l1.6,2.8c-0.5,0.2-1,0.3-1.6,0.3s-1.1-0.1-1.6-0.3L49.9,51.6z"/>
				<polygon class="st1" points="50.7,49.8 51.2,50.7 49.9,49.9 50.7,49.9 				"/>
				<polygon class="st1" points="50.8,51.4 49.5,50.6 49.9,49.9 				"/>
				<rect x="49" y="83.9" class="st1" width="1.7" height="16.1"/>
				<rect x="49" y="83.1" class="st1" width="1.7" height="0.8"/>
				<polygon class="st1" points="50.7,49.8 50.7,49.9 49.9,49.9 50.6,49.5 				"/>
				<polygon class="st1" points="50.7,49.4 50.7,49.8 50.6,49.5 				"/>
				<polygon class="st1" points="50.7,48.5 50.7,49.4 50.6,49.5 50.1,48.8 				"/>
				<path class="st1" d="M50.7,45.2v3.3l-0.6,0.3l-0.3-0.6l-0.7,1.2L49,49.4v-4.2c0.3-0.1,0.6-0.1,0.9-0.1
					C50.2,45.1,50.4,45.1,50.7,45.2z"/>
				<path class="st1" d="M50.7,30.6v14.6c-0.3,0-0.5-0.1-0.8-0.1c-0.3,0-0.6,0-0.9,0.1V30.6H50.7z"/>
				<rect x="49" y="29.7" class="st1" width="1.7" height="0.9"/>
				<polygon class="st1" points="50.1,48.8 50.6,49.5 49.9,49.9 49,49.9 49,49.6 49.1,49.4 				"/>
				<polygon class="st1" points="50.1,48.8 49.1,49.4 49.8,48.2 				"/>
				<polygon class="st1" points="49.9,49.9 49.5,50.6 48.7,50.2 49,49.6 49,49.9 				"/>
				<path class="st1" d="M48.7,50.2l0.8,0.5l-2,3.4c-0.3-0.2-0.5-0.3-0.8-0.5L48.7,50.2z"/>
				<polygon class="st1" points="49,49.4 49.1,49.4 49,49.6 				"/>
				<path class="st1" d="M49,83.1v0.8H29.2l17.5-30.4c0.2,0.2,0.5,0.4,0.8,0.5l-16.8,29H49z"/>
				<polygon class="st1" points="49,49.4 49,49.6 48.7,50.2 48.2,49.9 				"/>
				<path class="st1" d="M49,45.2v4.2l-0.8,0.5l0.5,0.3l-1.9,3.3c-1-0.9-1.6-2.2-1.6-3.6C45.1,47.6,46.8,45.6,49,45.2z"/>
				<rect x="42.1" y="28.9" class="st1" width="1.7" height="1.7"/>
				<rect x="42.1" y="5.8" class="st1" width="1.7" height="23.1"/>
				<rect x="42.1" y="4.1" class="st1" width="1.7" height="1.7"/>
			</g>
		</g>
	</g>
</g>
</svg>
