<?xml version="1.0" encoding="utf-8"?>
<!-- Generator: Adobe Illustrator 21.0.0, SVG Export Plug-In . SVG Version: 6.00 Build 0)  -->
<svg version="1.1" id="Layer_1" xmlns="http://www.w3.org/2000/svg" xmlns:xlink="http://www.w3.org/1999/xlink" x="0px" y="0px"
	 viewBox="0 0 100 100" style="enable-background:new 0 0 100 100;" xml:space="preserve">
<style type="text/css">
	.st0{display:none;}
	.st1{display:inline;}
	.st2{fill:none;}
	.st3{fill:#797979;}
	.st4{fill:none;stroke:#797979;stroke-width:2.7;stroke-miterlimit:10;stroke-dasharray:1.4721,1.4721;}
</style>
<g id="Layer_1_1_" class="st0">
	<g id="Layer_2" class="st1">
	</g>
	<g class="st1">
		<g>
			<g id="XMLID_1_">
				<g>
					<path class="st2" d="M82.1,32.3v35.3l-27.7-16c0.2-0.5,0.3-1.1,0.3-1.7c0-0.6-0.1-1.1-0.3-1.7L82.1,32.3z"/>
					<path class="st2" d="M51.5,54.4l16,27.8H32.2l16.1-27.8c0.5,0.2,1.1,0.3,1.6,0.3S51,54.6,51.5,54.4z"/>
					<rect x="83.8" y="49.1" width="16.1" height="1.7"/>
					<path d="M83.9,29.3l-0.1,19.8H83v1.7l0,0v-20L54,47.5c-0.1-0.2-0.3-0.5-0.5-0.7L83.9,29.3z"/>
					<rect x="83.1" y="49.1" width="0.8" height="1.7"/>
					<path d="M83.8,50.8v19.7L53.6,53c0.2-0.2,0.3-0.5,0.5-0.7l29,16.8V50.8h0.1H83.8z"/>
					<path d="M83,50.8v18.3L54,52.3c0.1-0.2,0.2-0.5,0.3-0.7l27.7,16V32.3L54.4,48.2c-0.1-0.3-0.2-0.5-0.3-0.7l29-16.7v20H83z"/>
					<path d="M52.9,53.6l17.6,30.3H50.7v-0.8H69L52.3,54C52.5,53.9,52.7,53.8,52.9,53.6z"/>
					<path d="M52.3,54L69,83H50.7H49H30.7l16.8-29c0.2,0.1,0.5,0.3,0.8,0.4L32.2,82.2h35.3l-16-27.8C51.8,54.3,52,54.2,52.3,54z"/>
					<rect x="56" y="28.9" width="1.7" height="1.7"/>
					<rect x="56" y="5.8" width="1.7" height="23.1"/>
					<rect x="56" y="4.1" width="1.7" height="1.7"/>
					<polygon points="56,28.9 56,30.6 50.7,30.6 50.7,29.7 49,29.7 49,30.6 43.8,30.6 43.8,28.9 					"/>
					<rect x="43.8" y="4.1" width="12.2" height="1.7"/>
					<path d="M54.4,48.2c0.2,0.5,0.3,1.1,0.3,1.7c0,0.6-0.1,1.1-0.3,1.7l-2.9-1.7L54.4,48.2z"/>
					<path d="M54.4,48.2l-2.9,1.7l2.9,1.7c-0.1,0.3-0.2,0.5-0.3,0.7l-2.8-1.6l-0.5-0.9v-0.3l3.3-1.9C54.2,47.7,54.3,48,54.4,48.2z"
						/>
					<path d="M54,47.5l-3.3,1.9v-1l2.9-1.6C53.8,47,53.9,47.2,54,47.5z"/>
					<path d="M51.2,50.7l2.8,1.6c-0.1,0.2-0.3,0.5-0.5,0.7L52,52.2L51.2,50.7z"/>
					<path d="M50.7,45.2c1.1,0.2,2.1,0.8,2.9,1.6l-2.9,1.6V45.2z"/>
					<path d="M53.6,53c-0.2,0.2-0.4,0.4-0.6,0.6l-0.8-1.5L53.6,53z"/>
					<path d="M52.1,52.2l0.8,1.5c-0.2,0.2-0.4,0.3-0.6,0.4l-1.5-2.7L52.1,52.2z"/>
					<path d="M50.8,51.4l1.5,2.7c-0.2,0.2-0.5,0.3-0.8,0.4l-1.6-2.8l-1.6,2.8c-0.3-0.1-0.5-0.2-0.8-0.4l2-3.4L50.8,51.4z"/>
					<polygon points="51.2,50.7 52.1,52.2 50.8,51.4 49.9,49.9 					"/>
					<path d="M49.9,51.6l1.6,2.8c-0.5,0.2-1,0.3-1.6,0.3s-1.1-0.1-1.6-0.3L49.9,51.6z"/>
					<polygon points="50.7,49.8 51.2,50.7 49.9,49.9 50.7,49.9 					"/>
					<polygon points="50.8,51.4 49.5,50.6 49.9,49.9 					"/>
					<rect x="49" y="83.9" width="1.7" height="16.1"/>
					<rect x="49" y="83.1" width="1.7" height="0.8"/>
					<polygon points="50.7,49.8 50.7,49.9 49.9,49.9 50.6,49.5 					"/>
					<polygon points="50.7,49.4 50.7,49.8 50.6,49.5 					"/>
					<polygon points="50.7,48.5 50.7,49.4 50.6,49.5 50.1,48.8 					"/>
					<path d="M50.7,45.2v3.3l-0.6,0.3l-0.3-0.6l-0.7,1.2H49v-4.2c0.3-0.1,0.6-0.1,0.9-0.1C50.2,45.1,50.4,45.1,50.7,45.2z"/>
					<path d="M50.7,30.6v14.6c-0.3,0-0.5-0.1-0.8-0.1s-0.6,0-0.9,0.1V30.6H50.7z"/>
					<rect x="49" y="29.7" width="1.7" height="0.9"/>
					<polygon points="50.1,48.8 50.6,49.5 49.9,49.9 49,49.9 49,49.6 49.1,49.4 					"/>
					<polygon points="50.1,48.8 49.1,49.4 49.8,48.2 					"/>
					<polygon points="49.9,49.9 49.5,50.6 48.7,50.2 49,49.6 49,49.9 					"/>
					<path d="M48.7,50.2l0.8,0.5l-2,3.4c-0.3-0.2-0.5-0.3-0.8-0.5L48.7,50.2z"/>
					<polygon points="49,49.4 49.1,49.4 49,49.6 					"/>
					<path d="M49,83.1v0.8H29.2l17.5-30.4c0.2,0.2,0.5,0.4,0.8,0.5L30.7,83L49,83.1L49,83.1z"/>
					<polygon points="49,49.4 49,49.6 48.7,50.2 48.2,49.9 					"/>
					<path d="M49,45.2v4.2l-0.8,0.5l0.5,0.3l-1.9,3.3c-1-0.9-1.6-2.2-1.6-3.6C45.1,47.6,46.8,45.6,49,45.2z"/>
					<rect x="42.1" y="28.9" width="1.7" height="1.7"/>
					<rect x="42.1" y="5.8" width="1.7" height="23.1"/>
					<rect x="42.1" y="4.1" width="1.7" height="1.7"/>
				</g>
			</g>
		</g>
	</g>
</g>
<g>
	<path class="st3" d="M47.056,55.099l-0.165,0.286c0,0.001-0.001,0.002-0.001,0.002l-0.001,0.001c0,0.001-0.001,0.002-0.001,0.002
		l-0.001,0.001c0,0-0.001,0.001-0.001,0.001l-0.001,0.002c-0.217,0.377-0.565,0.978-0.565,0.978l2.338,1.35l0.736-1.275
		L47.056,55.099L47.056,55.099z M45.584,57.649l-0.041,0.07c0,0.001-0.001,0.001-0.001,0.002l0,0.001
		c-0.001,0.001-0.001,0.002-0.002,0.003l0,0.001c-0.001,0.001-0.001,0.002-0.002,0.003l0,0c-0.001,0.001-0.001,0.002-0.002,0.003
		l-0.001,0.001c-0.001,0.001-0.001,0.002-0.002,0.003l0,0.001c-0.001,0.001-0.001,0.002-0.002,0.004l0,0
		c-0.001,0.003-0.003,0.005-0.004,0.008l0,0.001c-0.002,0.003-0.003,0.005-0.005,0.008l0,0c-0.002,0.003-0.003,0.006-0.005,0.008
		l-0.001,0.001c-0.182,0.316-0.668,1.157-0.668,1.157l2.338,1.35l0.736-1.275L45.584,57.649L45.584,57.649z M44.112,60.199
		l-0.736,1.275l2.338,1.35l0.736-1.275L44.112,60.199L44.112,60.199z M42.64,62.749l-0.196,0.339c0,0.001-0.001,0.001-0.001,0.002
		l-0.001,0.001c-0.001,0.002-0.002,0.003-0.003,0.005l-0.001,0.002c-0.218,0.377-0.534,0.925-0.534,0.925l2.338,1.35l0.736-1.275
		L42.64,62.749L42.64,62.749z M41.167,65.299l-0.125,0.217c0,0-0.001,0.001-0.001,0.001l-0.003,0.005c0,0,0,0,0,0l-0.001,0.002
		c0,0,0,0.001-0.001,0.001l-0.001,0.002c0,0,0,0.001-0.001,0.001l-0.001,0.002c0,0,0,0.001-0.001,0.001l-0.001,0.002
		c-0.001,0.002-0.002,0.003-0.003,0.005l0,0.001c-0.001,0.002-0.002,0.003-0.003,0.005l-0.001,0.002
		c-0.214,0.371-0.594,1.028-0.594,1.028l2.338,1.35l0.736-1.275L41.167,65.299L41.167,65.299z M39.695,67.848l-0.736,1.275
		l2.338,1.35l0.736-1.275L39.695,67.848L39.695,67.848z M38.223,70.398l-0.234,0.405c-0.216,0.373-0.502,0.869-0.502,0.869
		l2.338,1.35l0.736-1.275L38.223,70.398L38.223,70.398z M36.751,72.948l-0.212,0.367c0,0,0,0,0,0l-0.002,0.003
		c0,0,0,0.001-0.001,0.001l-0.005,0.009c0,0,0,0.001-0.001,0.001l-0.002,0.003c0,0,0,0.001-0.001,0.001l-0.005,0.009
		c0,0-0.001,0.001-0.001,0.001l-0.007,0.012c-0.001,0.001-0.001,0.002-0.002,0.003l0,0c-0.001,0.002-0.003,0.005-0.004,0.007l0,0
		c-0.215,0.372-0.495,0.857-0.495,0.857l2.338,1.35l0.736-1.275L36.751,72.948L36.751,72.948z M35.279,75.498l-0.736,1.275
		l2.338,1.35l0.736-1.275L35.279,75.498L35.279,75.498z M33.807,78.047l-0.736,1.275l2.338,1.35l0.736-1.275L33.807,78.047
		L33.807,78.047z M32.335,80.597L32,81.177c0,0,0,0,0,0l-0.003,0.006c-0.193,0.335-0.398,0.689-0.398,0.689l2.338,1.35l0.736-1.275
		L32.335,80.597L32.335,80.597z M30.863,83.147l-0.448,0.776c-0.001,0.001-0.001,0.002-0.002,0.003l0,0
		c-0.153,0.265-0.287,0.497-0.287,0.497l2.338,1.35l0.736-1.275L30.863,83.147L30.863,83.147z M29.391,85.697l-0.736,1.275
		l2.338,1.35l0.736-1.275L29.391,85.697L29.391,85.697z M27.919,88.246l-0.416,0.72c0,0.001-0.001,0.002-0.001,0.002L27.5,88.971
		c0,0,0,0,0,0l-0.001,0.002c-0.003,0.005-0.005,0.009-0.008,0.014l-0.001,0.001c-0.162,0.28-0.308,0.533-0.308,0.533l2.338,1.35
		l0.736-1.275L27.919,88.246L27.919,88.246z M26.446,90.796l-0.476,0.825c-0.001,0.001-0.002,0.003-0.002,0.004l0,0
		c-0.141,0.243-0.257,0.446-0.257,0.446l2.338,1.35l0.736-1.275L26.446,90.796L26.446,90.796z M24.974,93.346l-0.736,1.275
		l2.338,1.35l0.736-1.275L24.974,93.346L24.974,93.346z M23.502,95.896l-0.506,0.876c0,0,0,0,0,0.001l-0.001,0.002
		c-0.127,0.22-0.228,0.395-0.228,0.395l0.209,0.121v1.7l-0.945-0.546l-0.666,1.154l0,0l0,0l0,0l0,0l0,0l0,0l0,0l0,0h2.665l0,0
		c0.236,0,0.419,0,0.419,0v-1.458l0.657,0.379l0.736-1.275L23.502,95.896L23.502,95.896z M27.392,96.899H25.92v2.7h1.472V96.899
		L27.392,96.899z M30.336,96.899h-1.472v2.7h1.472V96.899L30.336,96.899z M33.28,96.899h-1.472v2.7h1.472V96.899L33.28,96.899z
		 M36.224,96.899h-1.472v2.7h1.472V96.899L36.224,96.899z M39.169,96.899h-1.472v2.7h1.472V96.899L39.169,96.899z M42.113,96.899
		h-1.472v2.7h1.472V96.899L42.113,96.899z M45.057,96.899h-1.472v2.7h1.472V96.899L45.057,96.899z M48.001,96.899h-1.472v2.7h1.472
		V96.899L48.001,96.899z M50.945,96.899h-1.472v2.7h1.472V96.899L50.945,96.899z M53.89,96.899h-1.472v2.7h1.472V96.899
		L53.89,96.899z M56.834,96.899h-1.472v2.7h1.472V96.899L56.834,96.899z M59.778,96.899h-1.472v2.7h1.472V96.899L59.778,96.899z
		 M62.722,96.899H61.25v2.7h1.472V96.899L62.722,96.899z M65.666,96.899h-1.472v2.7h1.472V96.899L65.666,96.899z M68.611,96.899
		h-1.472v2.7h1.472V96.899L68.611,96.899z M71.555,96.899h-1.472v2.7h1.472V96.899L71.555,96.899z M76.288,95.533l-2.338,1.35
		l0.01,0.016h-0.933v2.7h1.472v-1.766l0.187,0.324l1.285-0.742v1.7l-0.549,0.317l0.096,0.167h2.559l0.419-0.242l-0.736-1.275
		l-0.317,0.183v-0.732l-0.366-0.634h-0.212l0.159-0.092l-0.207-0.359c0-0.001-0.001-0.001-0.001-0.002l-0.001-0.002
		C76.597,96.068,76.288,95.533,76.288,95.533L76.288,95.533z M74.816,92.983l-2.338,1.35l0.736,1.275l2.338-1.35L74.816,92.983
		L74.816,92.983z M73.344,90.433l-2.338,1.35l0.736,1.275l2.338-1.35l-0.082-0.142c0,0,0,0,0-0.001l-0.004-0.006
		c-0.001-0.002-0.002-0.004-0.004-0.006l-0.003-0.005C73.79,91.205,73.344,90.433,73.344,90.433L73.344,90.433z M71.872,87.884
		l-2.338,1.35l0.736,1.275l2.338-1.35l-0.343-0.594C72.073,88.232,71.872,87.884,71.872,87.884L71.872,87.884z M70.4,85.334
		l-2.338,1.35l0.736,1.275l2.338-1.35L70.4,85.334L70.4,85.334z M68.928,82.784l-2.338,1.35l0.736,1.275l2.338-1.35l-0.213-0.37
		c-0.001-0.002-0.002-0.004-0.003-0.006l0,0C69.23,83.307,68.928,82.784,68.928,82.784L68.928,82.784z M67.456,80.234l-2.338,1.35
		l0.736,1.275l2.338-1.35l-0.471-0.816c-0.001-0.002-0.002-0.004-0.003-0.005l0-0.001C67.575,80.44,67.456,80.234,67.456,80.234
		L67.456,80.234z M65.984,77.684l-2.338,1.35l0.736,1.275l2.338-1.35l-0.636-1.101c0-0.001-0.001-0.001-0.001-0.001l0-0.001
		c-0.001-0.001-0.002-0.003-0.002-0.004l-0.001-0.001c0-0.001-0.001-0.001-0.001-0.002l0,0c0-0.001-0.001-0.001-0.001-0.002
		l-0.002-0.003c0,0-0.001-0.001-0.001-0.001l-0.013-0.022c0,0,0,0,0-0.001l-0.002-0.003c0-0.001-0.001-0.001-0.001-0.002l0,0
		c0,0-0.001-0.001-0.001-0.001l-0.001-0.002c-0.001-0.003-0.003-0.005-0.004-0.008l-0.001-0.001
		c-0.005-0.008-0.01-0.017-0.014-0.024l0-0.001C66.004,77.719,65.984,77.684,65.984,77.684L65.984,77.684z M64.512,75.135
		l-2.338,1.35l0.736,1.275l2.338-1.35l-0.344-0.596c-0.002-0.004-0.004-0.008-0.007-0.012l0-0.001
		C64.707,75.473,64.512,75.135,64.512,75.135L64.512,75.135z M63.039,72.585l-2.338,1.35l0.736,1.275l2.338-1.35l-0.582-1.008
		c0-0.001-0.001-0.001-0.001-0.002l-0.001-0.001c-0.001-0.002-0.002-0.003-0.003-0.005l-0.001-0.002
		c-0.001-0.002-0.002-0.003-0.003-0.005l-0.001-0.001c-0.001-0.001-0.002-0.003-0.002-0.004l-0.001-0.002
		C63.097,72.685,63.039,72.585,63.039,72.585L63.039,72.585z M61.567,70.035l-2.338,1.35l0.736,1.275l2.338-1.35l-0.206-0.356
		c0-0.001-0.001-0.001-0.001-0.002l0,0c0-0.001-0.001-0.001-0.001-0.002l-0.001-0.002c-0.002-0.004-0.005-0.008-0.007-0.012l0,0
		C61.869,70.558,61.567,70.035,61.567,70.035L61.567,70.035z M60.095,67.485l-2.338,1.35l0.736,1.275l2.338-1.35l-0.461-0.798
		c0,0,0,0,0,0l-0.002-0.004c-0.002-0.004-0.004-0.008-0.007-0.011l-0.001-0.001C60.217,67.696,60.095,67.485,60.095,67.485
		L60.095,67.485z M58.623,64.936l-2.338,1.35l0.736,1.275l2.338-1.35l-0.572-0.99c0,0,0,0,0,0l-0.01-0.017
		c-0.001-0.001-0.001-0.002-0.002-0.003l-0.001-0.001c-0.001-0.001-0.002-0.003-0.003-0.004l-0.002-0.003c0,0,0,0,0,0l-0.001-0.002
		c0,0,0,0,0,0l-0.013-0.023c0-0.001-0.001-0.001-0.001-0.002l-0.006-0.01c0-0.001-0.001-0.001-0.001-0.002l-0.006-0.011c0,0,0,0,0,0
		l-0.006-0.011c0,0,0,0,0,0l-0.001-0.002c0,0-0.001-0.001-0.001-0.001l-0.001-0.002c0,0,0,0,0,0l-0.001-0.002
		c0-0.001-0.001-0.001-0.001-0.002l0-0.001c0-0.001-0.001-0.001-0.001-0.002l-0.001-0.001c0-0.001-0.001-0.001-0.001-0.002l0,0
		c0-0.001-0.001-0.001-0.001-0.002l-0.001-0.001c-0.004-0.007-0.008-0.013-0.011-0.02l-0.001-0.002
		c-0.008-0.013-0.015-0.025-0.021-0.037l-0.001-0.001c-0.014-0.024-0.026-0.045-0.036-0.062l0-0.001
		C58.635,64.956,58.623,64.936,58.623,64.936L58.623,64.936z M57.151,62.386l-2.338,1.35l0.736,1.275l2.338-1.35l-0.339-0.587
		c0,0,0,0,0,0l-0.001-0.003c0,0,0-0.001-0.001-0.001l-0.001-0.002c-0.003-0.004-0.005-0.009-0.008-0.013l-0.001-0.002
		C57.346,62.724,57.151,62.386,57.151,62.386L57.151,62.386z M55.679,59.836l-2.338,1.35l0.736,1.275l2.338-1.35l-0.596-1.033
		c0-0.001-0.001-0.001-0.001-0.001l-0.001-0.001c-0.001-0.002-0.002-0.003-0.003-0.005l0,0
		C55.734,59.931,55.679,59.836,55.679,59.836L55.679,59.836z M54.207,57.286l-2.338,1.35l0.736,1.275l2.338-1.35L54.207,57.286
		L54.207,57.286z M52.735,54.737l-2.338,1.35l0.736,1.275l2.338-1.35L53,55.196C52.856,54.946,52.735,54.737,52.735,54.737
		L52.735,54.737z M50,50l-1.053,1.824l0.634-0.366l1.472,0.85l-1.472,0.85l-1.053-0.608l-0.736,1.275l2.338,1.35l0.549-0.951
		l1.32-0.762L50,50L50,50z"/>
</g>
<g>
	<path class="st3" d="M94.5,24.308c0,0-0.106,0.061-0.257,0.148l-1.018,0.588l1.35,2.338l1.275-0.736L94.5,24.308L94.5,24.308z
		 M91.95,25.78l-1.275,0.736l1.35,2.338l1.275-0.736L91.95,25.78L91.95,25.78z M89.4,27.252l-1.275,0.736l1.35,2.338l1.275-0.736
		L89.4,27.252L89.4,27.252z M86.85,28.724c0,0-0.084,0.049-0.21,0.121l-0.001,0.001c-0.002,0.001-0.003,0.002-0.005,0.003
		l-1.059,0.611l1.35,2.338l1.275-0.736L86.85,28.724L86.85,28.724z M84.301,30.196l-1.275,0.736l1.35,2.338l1.275-0.736
		L84.301,30.196L84.301,30.196z M81.751,31.669c0,0-0.21,0.121-0.46,0.265l-0.815,0.471l1.35,2.338l1.275-0.736L81.751,31.669
		L81.751,31.669z M79.201,33.141c0,0-0.222,0.128-0.481,0.278l-0.794,0.458l1.35,2.338l1.275-0.736L79.201,33.141L79.201,33.141z
		 M76.651,34.613l-1.275,0.736l1.35,2.338l1.275-0.736L76.651,34.613L76.651,34.613z M74.102,36.085c0,0-0.194,0.112-0.43,0.248
		l-0.003,0.002c0,0-0.001,0-0.001,0.001l-0.001,0.001c-0.001,0-0.001,0.001-0.002,0.001l-0.837,0.483l1.35,2.338l1.275-0.736
		L74.102,36.085L74.102,36.085z M71.552,37.557c0,0-0.165,0.095-0.375,0.217l-0.001,0c-0.004,0.003-0.009,0.005-0.013,0.008l0,0
		c-0.002,0.001-0.004,0.002-0.006,0.004l-0.002,0.001c0,0-0.001,0-0.001,0.001l-0.01,0.006c0,0,0,0,0,0l-0.006,0.004
		c0,0,0,0-0.001,0l-0.003,0.002c0,0,0,0,0,0L71.13,37.8c-0.001,0-0.001,0.001-0.002,0.001l-0.002,0.001c0,0-0.001,0-0.001,0.001
		l-0.848,0.49l1.35,2.338l1.275-0.736L71.552,37.557L71.552,37.557z M69.002,39.029l-1.275,0.736l1.35,2.338l1.275-0.736
		L69.002,39.029L69.002,39.029z M66.452,40.501c0,0-0.172,0.099-0.389,0.224l-0.002,0.001c-0.002,0.001-0.003,0.002-0.005,0.003
		l-0.88,0.508l1.35,2.338l1.275-0.736L66.452,40.501L66.452,40.501z M63.903,41.973c0,0-0.101,0.058-0.246,0.142l0,0
		c-0.008,0.005-0.016,0.009-0.024,0.014l0,0c-0.004,0.002-0.008,0.005-0.012,0.007l-0.001,0.001
		c-0.002,0.001-0.003,0.002-0.005,0.003l-0.002,0.001c0,0,0,0,0,0l-0.984,0.568l1.35,2.338l1.275-0.736L63.903,41.973L63.903,41.973
		z M61.353,43.445l-1.275,0.736l1.35,2.338l1.275-0.736L61.353,43.445L61.353,43.445z M58.803,44.917c0,0-0.15,0.087-0.347,0.2
		l-0.003,0.002c0,0,0,0-0.001,0l-0.924,0.534l1.35,2.338l1.275-0.736L58.803,44.917L58.803,44.917z M56.253,46.39
		c0,0-0.059,0.034-0.151,0.087l0,0c-0.001,0-0.001,0.001-0.002,0.001l0,0c0,0-0.001,0-0.001,0.001l-0.004,0.002
		c-0.001,0-0.001,0.001-0.002,0.001l-0.004,0.003c0,0,0,0,0,0l-0.008,0.004c0,0,0,0-0.001,0l-0.008,0.004c0,0,0,0,0,0l-0.002,0.001
		c0,0-0.001,0-0.001,0l-1.09,0.63l1.35,2.338l1.275-0.736L56.253,46.39L56.253,46.39z M53.704,47.862l-1.275,0.736l0.121,0.209
		l-0.85,1.472l-0.546-0.945c0,0-0.574,0.331-0.912,0.527h0L50,50l0,0l0,0l0,0l0,0l0,0l0,0l0,0l0,0l2.308,1.332v0
		c0.205,0.118,0.363,0.209,0.363,0.209l0.729-1.263l0.379,0.657l1.275-0.736L53.704,47.862L53.704,47.862z M55.296,49.94
		l-1.35,2.338l1.275,0.736l1.35-2.338L55.296,49.94L55.296,49.94z M57.845,51.412l-1.35,2.338l0.412,0.238c0,0,0.001,0,0.001,0
		l0.006,0.003c0.372,0.215,0.856,0.494,0.856,0.494l1.35-2.338L57.845,51.412L57.845,51.412z M60.395,52.884l-1.35,2.338
		l0.583,0.337c0,0,0,0,0,0l0.003,0.001c0.002,0.001,0.004,0.002,0.006,0.003l0.002,0.001c0.001,0,0.002,0.001,0.002,0.001
		l0.001,0.001c0.001,0,0.001,0.001,0.002,0.001l0.002,0.001c0.001,0,0.002,0.001,0.002,0.001l0.001,0
		c0.001,0,0.001,0.001,0.002,0.001l0.003,0.002c0.001,0,0.001,0.001,0.002,0.001l0.001,0c0.001,0,0.002,0.001,0.002,0.001
		l0.005,0.003c0.001,0,0.002,0.001,0.002,0.001l0.002,0.001c0.002,0.001,0.004,0.002,0.006,0.004l0,0
		c0.002,0.001,0.004,0.003,0.007,0.004l0.002,0.001c0.318,0.184,0.636,0.367,0.636,0.367l1.35-2.338L60.395,52.884L60.395,52.884z
		 M62.945,54.356l-1.35,2.338l1.275,0.736l1.35-2.338L62.945,54.356L62.945,54.356z M65.495,55.828l-1.35,2.338l0.601,0.347
		c0.001,0,0.001,0.001,0.002,0.001l0.001,0.001c0,0,0.001,0,0.001,0.001l0.003,0.002c0.328,0.189,0.666,0.384,0.666,0.384
		l1.35-2.338L65.495,55.828L65.495,55.828z M68.044,57.3l-1.35,2.338l1.127,0.65c0,0,0.001,0,0.001,0.001l0.002,0.001
		c0.001,0.001,0.002,0.001,0.003,0.002l0.001,0.001c0.001,0.001,0.002,0.001,0.003,0.002l0.002,0.001
		c0.001,0.001,0.003,0.002,0.004,0.002l0,0c0.001,0.001,0.003,0.002,0.004,0.002l0.001,0c0.003,0.002,0.005,0.003,0.008,0.005
		l0.002,0.001c0.072,0.042,0.117,0.067,0.117,0.067l1.35-2.338L68.044,57.3L68.044,57.3z M70.594,58.772l-1.35,2.338l0.437,0.252
		c0,0,0,0,0,0l0.013,0.007c0.001,0,0.002,0.001,0.003,0.001l0.001,0.001c0.001,0.001,0.002,0.001,0.003,0.002l0.001,0.001
		c0,0,0,0,0.001,0l0.003,0.002c0.004,0.002,0.009,0.005,0.013,0.007l0,0c0.005,0.003,0.01,0.005,0.014,0.008l0,0
		c0.01,0.006,0.019,0.011,0.029,0.017l0.001,0c0.353,0.204,0.756,0.436,0.756,0.436l1.35-2.338L70.594,58.772L70.594,58.772z
		 M73.144,60.244l-1.35,2.338l0.788,0.455c0.261,0.151,0.487,0.281,0.487,0.281l1.35-2.338L73.144,60.244L73.144,60.244z
		 M75.694,61.716l-1.35,2.338l1.275,0.736l1.35-2.338L75.694,61.716L75.694,61.716z M78.243,63.189l-1.35,2.338l1.275,0.736
		l1.35-2.338L78.243,63.189L78.243,63.189z M80.793,64.661l-1.35,2.338c0,0,0.289,0.167,0.592,0.342l0.002,0.001
		c0.001,0.001,0.002,0.001,0.003,0.002l0.679,0.392l1.35-2.338L80.793,64.661L80.793,64.661z M83.343,66.133l-1.35,2.338
		c0,0,0.489,0.282,0.861,0.497l0.005,0.003c0,0,0.001,0,0.001,0.001l0.408,0.236l1.35-2.338L83.343,66.133L83.343,66.133z
		 M85.893,67.605l-1.35,2.338c0,0,0.227,0.131,0.49,0.283l0.004,0.002c0.001,0.001,0.002,0.001,0.003,0.002l0,0
		c0.001,0.001,0.002,0.001,0.003,0.002l0.001,0.001c0.001,0,0.001,0.001,0.002,0.001l0.002,0.001
		c0.001,0.001,0.002,0.001,0.003,0.002h0c0.003,0.002,0.006,0.003,0.009,0.005l0.012,0.007c0.001,0.001,0.002,0.001,0.003,0.002
		l0.743,0.429l1.35-2.338L85.893,67.605L85.893,67.605z M88.442,69.077l-1.35,2.338c0,0,0.162,0.094,0.371,0.214l0.904,0.522
		l1.35-2.338L88.442,69.077L88.442,69.077z M90.992,70.549l-1.35,2.338c0,0,0.315,0.182,0.632,0.365l0.004,0.002c0,0,0,0,0,0
		l0.639,0.369l1.35-2.338L90.992,70.549L90.992,70.549z M93.542,72.021l-1.35,2.338l1.275,0.736l1.35-2.338L93.542,72.021
		L93.542,72.021z M96.092,73.493l-1.35,2.338c0,0,0.055,0.032,0.142,0.082l0.001,0c0,0,0.001,0,0.001,0.001l0.004,0.002
		c0.001,0,0.001,0.001,0.002,0.001l1.125,0.649l0.883-1.529v0.374h1.484l-0.85,1.472h-0.634v0.192l2.216,1.28h0.484v-1.472h-0.366
		l0.366-0.634v-0.732l-0.183-0.106h0.183v-1.472h-2.7v0.019L96.092,73.493L96.092,73.493z M99.599,70.996h-2.7v1.472h2.7V70.996
		L99.599,70.996z M99.599,68.052h-2.7v1.472h2.7V68.052L99.599,68.052z M99.599,65.108h-2.7v1.472h2.7V65.108L99.599,65.108z
		 M99.599,62.164h-2.7v1.472h2.7V62.164L99.599,62.164z M99.599,59.22h-2.7v1.472h2.7V59.22L99.599,59.22z M99.599,56.275h-2.7
		v1.472h2.7V56.275L99.599,56.275z M99.599,53.331h-2.7v1.472h2.7V53.331L99.599,53.331z M99.599,50.387h-2.7v1.472h2.7V50.387
		L99.599,50.387z M99.599,47.443h-2.7v1.472h2.7V47.443L99.599,47.443z M99.599,44.499h-2.7v1.472h2.7V44.499L99.599,44.499z
		 M99.599,41.554h-2.7v1.472h2.7V41.554L99.599,41.554z M99.599,38.61h-2.7v1.472h2.7V38.61L99.599,38.61z M99.599,35.666h-2.7
		v1.472h2.7V35.666L99.599,35.666z M99.599,32.722h-2.7v1.472h2.7V32.722L99.599,32.722z M99.599,29.778h-2.7v1.472h2.7V29.778
		L99.599,29.778z M99.599,26.833h-2.7v1.472h2.7V26.833L99.599,26.833z M99.599,21.364l-1.824,1.053h0.733l0.85,1.472h-1.7
		l-0.608-1.053l-1.275,0.736l1.35,2.338l0.951-0.549h1.524V21.364L99.599,21.364z"/>
</g>
<line class="st4" x1="50" y1="50.401" x2="50" y2="25.704"/>
<g>
	<path class="st3" d="M55.634,0h-1.472v2.7h1.472V0L55.634,0z M52.689,0h-1.472v2.7h1.472V0L52.689,0z M49.745,0h-1.472v2.7h1.472V0
		L49.745,0z M46.801,0h-1.472v2.7h1.472V0L46.801,0z M43.857,0h-1.472v0.51h-0.962v1.472h0.962V2.7h1.472V1.982h0.265V0.51h-0.265V0
		L43.857,0z M44.122,3.454h-2.7v1.472h2.7V3.454L44.122,3.454z M44.122,6.398h-2.7V7.87h2.7V6.398L44.122,6.398z M44.122,9.342h-2.7
		v1.472h2.7V9.342L44.122,9.342z M44.122,12.286h-2.7v1.472h2.7V12.286L44.122,12.286z M44.122,15.231h-2.7v1.472h2.7V15.231
		L44.122,15.231z M44.122,18.175h-2.7v1.472h2.7V18.175L44.122,18.175z M44.122,21.119h-2.7v1.472h2.7V21.119L44.122,21.119z
		 M44.122,24.063h-2.7v1.472l0,0v1.472l0,0v0.392h2.7l0,0l0,0l0,0l0,0c0.373,0,1.325,0,1.325,0v-2.7h-1.325V24.063L44.122,24.063z
		 M42.503,25.535h1.472v1.472h-1.472V25.535L42.503,25.535z M41.422,25.535v1.472l0,0V25.535L41.422,25.535z M48.391,24.699h-1.472
		v2.7h1.472V24.699L48.391,24.699z M51.335,24.699h-1.472v2.7h1.472V24.699L51.335,24.699z M54.279,24.699h-1.472v2.7h1.472V24.699
		L54.279,24.699z M57.224,24.699h-1.472v2.7h1.472v-0.118h1.354v-1.472h-1.354V24.699L57.224,24.699z M58.578,22.865h-2.7v1.472h2.7
		V22.865L58.578,22.865z M58.578,19.921h-2.7v1.472h2.7V19.921L58.578,19.921z M58.578,16.977h-2.7v1.472h2.7V16.977L58.578,16.977z
		 M58.578,14.032h-2.7v1.472h2.7V14.032L58.578,14.032z M58.578,11.088h-2.7v1.472h2.7V11.088L58.578,11.088z M58.578,8.144h-2.7
		v1.472h2.7V8.144L58.578,8.144z M58.578,5.2h-2.7v1.472h2.7V5.2L58.578,5.2z M58.578,0h-2.7v0.784h1.228v1.472h-1.228v1.472h2.7V0
		L58.578,0z"/>
</g>
<g>
	<circle class="st3" cx="50" cy="50" r="7.656"/>
</g>
</svg>
