<?xml version="1.0" encoding="utf-8"?>
<!-- Generator: Adobe Illustrator 21.0.0, SVG Export Plug-In . SVG Version: 6.00 Build 0)  -->
<svg version="1.1" id="Layer_1" xmlns="http://www.w3.org/2000/svg" xmlns:xlink="http://www.w3.org/1999/xlink" x="0px" y="0px"
	 viewBox="0 0 100 100" style="enable-background:new 0 0 100 100;" xml:space="preserve">
<style type="text/css">
	.st0{display:none;}
	.st1{display:inline;}
	.st2{fill:none;}
	.st3{fill:#FC0D1B;}
	.st4{fill:#3DD83D;}
	.st5{fill:#231F20;}
	.st6{fill:#FFFFFF;}
</style>
<g id="Layer_2" class="st0">
	<g class="st1">
		<path d="M46,88.9c0.3,0.3,0.4,0.8,0.4,1.3c0,0.6-0.1,1.1-0.4,1.5c-0.4,0.5-0.9,0.7-1.5,0.7s-1.1-0.2-1.4-0.6
			c-0.3-0.4-0.5-0.9-0.5-1.5c0-0.5,0.1-1,0.4-1.4c0.3-0.5,0.8-0.7,1.5-0.7C45.1,88.2,45.7,88.4,46,88.9z M45.5,91.4
			c0.2-0.3,0.3-0.7,0.3-1.2s-0.1-0.8-0.4-1.1s-0.6-0.4-1-0.4s-0.7,0.1-1,0.4S43,89.8,43,90.3c0,0.4,0.1,0.8,0.3,1.1
			c0.2,0.3,0.6,0.5,1.1,0.5C45,91.9,45.3,91.7,45.5,91.4z"/>
		<path d="M47.1,88.3h1.8c0.3,0,0.6,0.1,0.8,0.3c0.2,0.2,0.3,0.5,0.3,0.8s-0.1,0.6-0.3,0.8c-0.2,0.2-0.5,0.3-0.9,0.3h-1.2v1.7h-0.5
			C47.1,92.2,47.1,88.3,47.1,88.3z M49.1,88.8c-0.1-0.1-0.3-0.1-0.5-0.1h-1.1v1.4h1.1c0.2,0,0.4-0.1,0.6-0.2
			c0.1-0.1,0.2-0.3,0.2-0.5C49.5,89.1,49.4,88.9,49.1,88.8z"/>
		<path d="M50.7,88.3h2.9v0.5h-2.3V90h2.2v0.5h-2.2v1.3h2.4v0.5h-2.9v-4H50.7z"/>
		<path d="M54.4,88.3H55l2,3.2v-3.2h0.5v3.9h-0.6l-2-3.2v3.2h-0.5V88.3z"/>
	</g>
</g>
<g id="Layer_1_1_">
	<circle class="st2" cx="50" cy="50" r="49.1"/>
	<g>
		<g id="XMLID_1_">
			<g>
				<g>
					<rect x="80.8" y="32.2" class="st3" width="8.3" height="35.5"/>
				</g>
				<g>
					<polygon class="st3" points="80.8,32.2 80.8,67.8 50,50 					"/>
				</g>
				<g>
					<polygon class="st3" points="50,50 19.2,67.8 19.2,32.2 					"/>
				</g>
				<g>
					<rect x="10.9" y="32.2" class="st4" width="8.3" height="35.5"/>
				</g>
			</g>
			<g>
				<g>
					<path class="st5" d="M89.9,68.6h-9.4L50,51L19.5,68.6h-9.4V31.4h9.4L50,49l30.5-17.6h9.4V68.6z M81,66.9h7.2V33.1H81L51.8,50
						L81,66.9z M11.8,66.9H19L48.3,50L19,33.1h-7.2V66.9z"/>
				</g>
				<g>
					<path class="st5" d="M19.2,68.6c-0.5,0-0.9-0.4-0.9-0.9V32.2c0-0.5,0.4-0.9,0.9-0.9s0.9,0.4,0.9,0.9v35.5
						C20.1,68.2,19.7,68.6,19.2,68.6z"/>
				</g>
				<g>
					<path class="st5" d="M80.8,68.6c-0.5,0-0.9-0.4-0.9-0.9V32.2c0-0.5,0.4-0.9,0.9-0.9s0.9,0.4,0.9,0.9v35.5
						C81.6,68.2,81.2,68.6,80.8,68.6z"/>
				</g>
			</g>
		</g>
		<g>
			<g>
				<rect y="49.1" class="st5" width="19.2" height="1.7"/>
			</g>
		</g>
		<g>
			<g>
				<rect x="80.8" y="49.1" class="st5" width="19.2" height="1.7"/>
			</g>
		</g>
		<g>
			<g>
				<line class="st2" x1="50" y1="67.7" x2="50" y2="31.3"/>
			</g>
			<g>
				<rect x="49.1" y="31.3" class="st5" width="1.7" height="36.5"/>
			</g>
		</g>
		<g>
			<g>
				<rect x="42.7" y="6.9" class="st6" width="14.6" height="25.3"/>
			</g>
			<g>
				<path class="st5" d="M58.1,33.1H41.9v-27h16.3v27H58.1z M43.6,31.4h12.8V7.8H43.6V31.4z"/>
			</g>
		</g>
	</g>
</g>
</svg>
