<?xml version="1.0" encoding="utf-8"?>
<!-- Generator: Adobe Illustrator 21.0.0, SVG Export Plug-In . SVG Version: 6.00 Build 0)  -->
<svg version="1.1" id="Layer_1" xmlns="http://www.w3.org/2000/svg" xmlns:xlink="http://www.w3.org/1999/xlink" x="0px" y="0px"
	 viewBox="0 0 100 100" style="enable-background:new 0 0 100 100;" xml:space="preserve">
<style type="text/css">
	.st0{fill:#FC0D1B;}
	.st1{fill:#960810;}
	.st2{fill:none;stroke:#960810;stroke-width:2.7;stroke-miterlimit:10;}
</style>
<g id="Layer_2">
</g>
<g>
	<polygon class="st0" points="1.75,23.702 47.3,50 1.75,76.298 	"/>
	<path class="st1" d="M44.6,50L3.101,73.96V26.04L44.6,50 M50,50L0.401,21.364v57.272L50,50L50,50z"/>
</g>
<g>
	<polygon class="st0" points="52.7,50 98.25,23.702 98.25,76.298 	"/>
	<path class="st1" d="M96.899,26.04v47.92L55.4,50L96.899,26.04 M99.599,21.364L50,50l49.599,28.636V21.364L99.599,21.364z"/>
</g>
<line class="st2" x1="50" y1="78.636" x2="50" y2="25.704"/>
<g>
	<path class="st1" d="M55.878,2.7v21.999H44.122V2.7H55.878 M58.578,0H41.422v27.399h17.156L58.578,0L58.578,0z"/>
</g>
</svg>
