<?xml version="1.0" encoding="utf-8"?>
<!-- Generator: Adobe Illustrator 21.0.0, SVG Export Plug-In . SVG Version: 6.00 Build 0)  -->
<svg version="1.1" xmlns="http://www.w3.org/2000/svg" xmlns:xlink="http://www.w3.org/1999/xlink" x="0px" y="0px"
	 viewBox="0 0 100 100" style="enable-background:new 0 0 100 100;" xml:space="preserve">
<style type="text/css">
	.st0{display:none;}
	.st1{display:inline;fill:none;}
	.st2{display:inline;}
	.st3{fill:#000000;}
	.st4{fill:none;}
	.st5{fill:none;stroke:#FF1535;stroke-miterlimit:10;}
	.st6{fill:none;stroke:#999999;stroke-width:1.8;stroke-miterlimit:10;}
	.st7{fill:none;stroke:#999999;stroke-width:1.8;stroke-miterlimit:10;stroke-dasharray:1.4609,1.4609;}
	.st8{fill:none;stroke:#999999;stroke-width:1.8;stroke-miterlimit:10;stroke-dasharray:1.4599,1.4599;}
	.st9{fill:none;stroke:#999999;stroke-width:1.8;stroke-miterlimit:10;stroke-dasharray:1.4621,1.4621;}
	.st10{fill:none;stroke:#999999;stroke-width:1.8;stroke-miterlimit:10;stroke-dasharray:1.6273,1.6273;}
	.st11{fill:none;stroke:#999999;stroke-width:1.8;stroke-miterlimit:10;stroke-dasharray:1.4783,1.4783;}
	.st12{fill:none;stroke:#999999;stroke-width:1.8;stroke-miterlimit:10;stroke-dasharray:1.4556,1.4556;}
	.st13{fill:none;stroke:#999999;stroke-width:1.8;stroke-miterlimit:10;stroke-dasharray:1.5867,1.5867;}
</style>
<g id="Layer_1" class="st0">
	<circle class="st1" cx="50" cy="50" r="49.1"/>
	<g class="st2">
		<g>
			<g>
				<rect x="-0.2" y="48.9" class="st3" width="19.6" height="1.7"/>
			</g>
		</g>
		<g>
			<g>
				<rect x="80.2" y="48.9" class="st3" width="19.6" height="1.7"/>
			</g>
		</g>
		<g>
			<g>
				<line class="st4" x1="49.8" y1="67.6" x2="49.8" y2="32.1"/>
			</g>
			<g>
				<rect x="48.9" y="32.1" class="st3" width="1.7" height="36.5"/>
			</g>
		</g>
		<g>
			<g>
				<rect x="42.5" y="6.8" class="st4" width="14.6" height="25.3"/>
			</g>
			<g>
				<path class="st3" d="M58,32.9H41.7v-27H58V32.9z M43.4,31.2h12.8V7.6H43.4V31.2z"/>
			</g>
		</g>
		<g id="XMLID_2_">
			<g>
				<g>
					<polygon class="st5" points="49.8,50 19.4,67.6 19.4,32.5 					"/>
				</g>
			</g>
		</g>
		<g id="XMLID_3_">
			<g>
				<g>
					<polygon class="st4" points="80.2,32.5 80.2,67.6 49.8,50 					"/>
				</g>
			</g>
			<g>
				<g>
					<path class="st3" d="M81.1,69.1L48.1,50l33-19.1V69.1z M51.5,50l27.8,16.1V34L51.5,50z"/>
				</g>
			</g>
		</g>
	</g>
</g>
<g id="Layer_2">
	<g>
		<g>
			<polyline class="st6" points="20,67.2 19.4,67.6 19.4,66.8 			"/>
			<line class="st7" x1="19.4" y1="65.4" x2="19.4" y2="34"/>
			<polyline class="st6" points="19.4,33.2 19.4,32.5 20,32.9 			"/>
			<line class="st8" x1="21.3" y1="33.6" x2="48.5" y2="49.3"/>
			<polyline class="st6" points="49.2,49.6 49.8,50 49.2,50.4 			"/>
			<line class="st9" x1="47.9" y1="51.1" x2="20.7" y2="66.9"/>
		</g>
	</g>
	<g>
		<g>
			<line class="st6" x1="19.4" y1="49.8" x2="18.6" y2="49.8"/>
			<line class="st10" x1="17" y1="49.8" x2="1.6" y2="49.8"/>
			<line class="st6" x1="0.8" y1="49.8" x2="0" y2="49.8"/>
		</g>
	</g>
	<g>
		<g>
			<polyline class="st6" points="79.6,67.2 80.2,67.6 80.2,66.8 			"/>
			<line class="st7" x1="80.2" y1="65.4" x2="80.2" y2="34"/>
			<polyline class="st6" points="80.2,33.2 80.2,32.5 79.6,32.9 			"/>
			<line class="st8" x1="78.3" y1="33.6" x2="51.1" y2="49.3"/>
			<polyline class="st6" points="50.4,49.6 49.8,50 50.4,50.4 			"/>
			<line class="st9" x1="51.7" y1="51.1" x2="78.9" y2="66.9"/>
		</g>
	</g>
	<g>
		<g>
			<line class="st6" x1="80.2" y1="49.8" x2="80.9" y2="49.8"/>
			<line class="st10" x1="82.6" y1="49.8" x2="98" y2="49.8"/>
			<line class="st6" x1="98.8" y1="49.8" x2="99.6" y2="49.8"/>
		</g>
	</g>
	<g>
		<g>
			<line class="st6" x1="49.8" y1="32.1" x2="49.8" y2="32.8"/>
			<line class="st11" x1="49.8" y1="34.3" x2="49.8" y2="66.1"/>
			<line class="st6" x1="49.8" y1="66.8" x2="49.8" y2="67.6"/>
		</g>
	</g>
	<g>
		<g>
			<polyline class="st6" points="57.1,31.3 57.1,32.1 56.3,32.1 			"/>
			<line class="st12" x1="54.9" y1="32.1" x2="44" y2="32.1"/>
			<polyline class="st6" points="43.2,32.1 42.5,32.1 42.5,31.3 			"/>
			<line class="st13" x1="42.5" y1="29.8" x2="42.5" y2="8.3"/>
			<polyline class="st6" points="42.5,7.6 42.5,6.8 43.2,6.8 			"/>
			<line class="st12" x1="44.7" y1="6.8" x2="55.6" y2="6.8"/>
			<polyline class="st6" points="56.3,6.8 57.1,6.8 57.1,7.6 			"/>
			<line class="st13" x1="57.1" y1="9.1" x2="57.1" y2="30.6"/>
		</g>
	</g>
</g>
</svg>
