<?xml version="1.0" encoding="utf-8"?>
<!-- Generator: Adobe Illustrator 21.0.0, SVG Export Plug-In . SVG Version: 6.00 Build 0)  -->
<svg version="1.1" id="Layer_1" xmlns="http://www.w3.org/2000/svg" xmlns:xlink="http://www.w3.org/1999/xlink" x="0px" y="0px"
	 viewBox="0 0 100 100" style="enable-background:new 0 0 100 100;" xml:space="preserve">
<style type="text/css">
	.st0{fill:#A9A9A9;}
</style>
<g>
	<path class="st0" d="M33.6,20.5h32.8v6.7H54v45.6h12.4v6.7H33.6v-6.7H46V27.2H33.6V20.5z"/>
</g>
<g>
	<path class="st0" d="M50,0c-0.007,0-0.014,0-0.022,0c-0.003,0-0.004,0-0.008,0c-0.005,0-0.009,0-0.014,0c-0.003,0-0.006,0-0.01,0
		c-0.004,0-0.008,0-0.012,0c-0.003,0-0.007,0-0.01,0c-0.004,0-0.008,0-0.012,0c-0.003,0-0.007,0-0.01,0c-0.004,0-0.008,0-0.012,0
		c-0.003,0-0.007,0-0.01,0c-0.004,0-0.008,0-0.012,0c-0.003,0-0.006,0-0.01,0c-0.007,0-0.014,0-0.021,0c-0.003,0-0.009,0-0.012,0
		c-0.003,0-0.006,0-0.009,0c-0.005,0-0.008,0-0.013,0c-0.003,0-0.006,0-0.008,0c-0.005,0-0.008,0-0.013,0c-0.003,0-0.006,0-0.009,0
		c-0.003,0-0.009,0-0.013,0c-0.003,0-0.006,0-0.009,0c-0.005,0-0.009,0-0.014,0c-0.002,0-0.004,0-0.006,0c-0.005,0-0.011,0-0.016,0
		c0,0,0,0,0,0c-0.02,0-0.039,0-0.059,0c0,0-0.001,0-0.001,0c-0.007,0-0.012,0-0.019,0c-0.001,0-0.001,0-0.002,0
		c-0.007,0-0.012,0-0.019,0c0,0-0.001,0-0.001,0c-0.007,0-0.013,0-0.019,0c0,0,0,0-0.001,0c-0.342,0.003-0.684,0.009-1.024,0.018
		c-0.001,0-0.003,0-0.004,0c-0.005,0-0.01,0-0.015,0c-0.003,0-0.005,0-0.008,0c-0.003,0-0.009,0-0.013,0c-0.003,0-0.007,0-0.01,0
		c-0.003,0-0.004,0-0.008,0l0.079,2.699C49.061,2.707,49.529,2.7,50,2.7V0L50,0L50,0z M47.03,0.087
		c-0.392,0.023-0.785,0.051-1.175,0.083c0,0,0,0,0,0c-0.005,0-0.011,0.001-0.016,0.001c-0.002,0-0.004,0-0.006,0
		c-0.003,0-0.011,0.001-0.014,0.001c-0.003,0-0.005,0-0.008,0.001c-0.003,0-0.009,0.001-0.012,0.001
		c-0.004,0-0.008,0.001-0.012,0.001c-0.003,0-0.005,0-0.009,0.001c-0.076,0.006-0.153,0.013-0.229,0.02l0.237,2.69
		c0.465-0.041,0.933-0.075,1.402-0.103L47.03,0.087L47.03,0.087z M44.072,0.348c-0.002,0-0.003,0-0.004,0.001
		c-0.004,0-0.008,0.001-0.012,0.001C44.051,0.35,44.05,0.35,44.045,0.351c-0.003,0-0.006,0.001-0.009,0.001
		c-0.005,0.001-0.008,0.001-0.013,0.002c-0.001,0-0.001,0-0.002,0c-0.02,0.002-0.037,0.004-0.056,0.007c-0.001,0-0.001,0-0.002,0
		c-0.007,0.001-0.011,0.001-0.018,0.002c-0.001,0-0.002,0-0.002,0c-0.451,0.054-0.897,0.114-1.343,0.181l0.396,2.671
		c0.462-0.069,0.926-0.13,1.392-0.185L44.072,0.348L44.072,0.348z M41.134,0.784C40.756,0.851,40.379,0.923,40.003,1
		C40.002,1,40,1,39.998,1c-0.005,0.001-0.009,0.002-0.014,0.003c-0.002,0.001-0.005,0.001-0.007,0.002
		c-0.003,0.001-0.009,0.002-0.012,0.002c-0.003,0.001-0.007,0.001-0.01,0.002c-0.003,0.001-0.007,0.001-0.01,0.002
		c-0.005,0.001-0.011,0.002-0.016,0.003c-0.002,0-0.002,0-0.004,0.001c-0.007,0.002-0.015,0.003-0.022,0.005l0,0
		c-0.007,0.001-0.014,0.003-0.021,0.004c-0.002,0-0.002,0-0.004,0.001c-0.006,0.001-0.012,0.002-0.018,0.004
		c-0.002,0-0.003,0.001-0.005,0.001c-0.006,0.001-0.013,0.003-0.019,0.004c-0.002,0,0,0-0.002,0
		c-0.053,0.011-0.105,0.022-0.158,0.033l0.555,2.642c0.457-0.096,0.917-0.185,1.379-0.268L41.134,0.784L41.134,0.784z M38.227,1.394
		c-0.482,0.116-0.962,0.24-1.438,0.37l0.712,2.605c0.451-0.123,0.904-0.24,1.36-0.35L38.227,1.394L38.227,1.394z M35.362,2.177
		c-0.385,0.118-0.768,0.24-1.149,0.366c-0.002,0.001-0.003,0.001-0.004,0.001c-0.005,0.002-0.01,0.003-0.016,0.005
		c-0.003,0.001-0.004,0.001-0.007,0.002c-0.004,0.001-0.008,0.003-0.012,0.004c-0.003,0.001-0.006,0.002-0.009,0.003
		c-0.003,0.001-0.005,0.002-0.008,0.003c-0.07,0.023-0.138,0.046-0.208,0.07l0.866,2.557c0.443-0.15,0.888-0.293,1.337-0.431
		L35.362,2.177L35.362,2.177z M32.549,3.13c-0.37,0.138-0.738,0.28-1.104,0.426l0,0c-0.036,0.014-0.071,0.029-0.107,0.043l-0.001,0
		c-0.057,0.023-0.114,0.046-0.171,0.069l1.018,2.501c0.433-0.176,0.869-0.346,1.308-0.51L32.549,3.13L32.549,3.13z M29.798,4.249
		c-0.323,0.143-0.64,0.287-0.96,0.437c-0.001,0.001-0.002,0.001-0.003,0.002c-0.006,0.003-0.009,0.004-0.015,0.007
		c-0.001,0-0.002,0.001-0.003,0.001c-0.014,0.007-0.03,0.014-0.045,0.021c-0.002,0.001-0.004,0.002-0.006,0.003
		c-0.004,0.002-0.007,0.003-0.011,0.005c-0.003,0.001-0.006,0.003-0.009,0.004c-0.003,0.001-0.007,0.003-0.01,0.005
		c-0.004,0.002-0.007,0.003-0.011,0.005c-0.001,0.001-0.007,0.003-0.008,0.004c-0.004,0.002-0.009,0.004-0.013,0.006
		C28.704,4.749,28.701,4.75,28.7,4.751c-0.006,0.003-0.012,0.006-0.019,0.009c-0.003,0.001-0.003,0.001-0.006,0.003
		c-0.005,0.002-0.01,0.005-0.014,0.007c-0.001,0.001-0.004,0.002-0.006,0.003c-0.005,0.002-0.01,0.005-0.015,0.007
		c-0.001,0.001-0.003,0.002-0.005,0.002c-0.006,0.003-0.011,0.005-0.017,0.008L28.616,4.79c-0.014,0.006-0.027,0.013-0.041,0.019
		L28.574,4.81c-0.007,0.003-0.013,0.006-0.02,0.009L28.553,4.82c-0.035,0.017-0.069,0.033-0.104,0.05l1.165,2.436
		c0.422-0.202,0.847-0.398,1.276-0.587L29.798,4.249L29.798,4.249z M27.119,5.531c-0.252,0.13-0.501,0.261-0.751,0.395
		c-0.001,0-0.002,0.001-0.003,0.001c-0.006,0.003-0.008,0.005-0.014,0.007c-0.001,0.001-0.003,0.001-0.004,0.002
		c-0.004,0.002-0.009,0.005-0.014,0.007c-0.001,0.001-0.003,0.002-0.004,0.002c-0.014,0.007-0.027,0.015-0.041,0.022
		c-0.002,0.001-0.005,0.003-0.007,0.004c-0.004,0.002-0.006,0.003-0.01,0.005c-0.003,0.002-0.006,0.003-0.009,0.005
		c-0.003,0.001-0.006,0.003-0.009,0.005c-0.004,0.002-0.008,0.004-0.012,0.007c-0.003,0.001-0.003,0.002-0.006,0.003
		c-0.006,0.003-0.013,0.007-0.019,0.01c-0.001,0.001,0,0-0.002,0.001c-0.006,0.003-0.012,0.006-0.018,0.01
		c-0.001,0.001-0.002,0.001-0.003,0.002c-0.006,0.003-0.011,0.006-0.017,0.009l-0.003,0.002c-0.006,0.003-0.012,0.006-0.018,0.01
		l-0.002,0.001c-0.02,0.011-0.04,0.022-0.06,0.033l-0.001,0.001c-0.094,0.051-0.189,0.103-0.283,0.155l-0.001,0.001l1.308,2.362
		c0.409-0.227,0.822-0.447,1.239-0.662L27.119,5.531L27.119,5.531z M24.521,6.97c-0.004,0.002-0.006,0.004-0.01,0.006
		c-0.001,0-0.001,0.001-0.002,0.001C24.503,6.98,24.5,6.982,24.495,6.985c-0.002,0.001-0.004,0.002-0.006,0.003
		c-0.004,0.002-0.008,0.005-0.012,0.007c-0.004,0.003-0.009,0.005-0.013,0.008c-0.001,0.001-0.004,0.003-0.006,0.003
		c-0.005,0.003-0.011,0.007-0.016,0.01c-0.001,0.001-0.004,0.002-0.005,0.003c-0.005,0.003-0.01,0.006-0.015,0.009
		c-0.001,0.001-0.002,0.001-0.003,0.002c-0.006,0.004-0.012,0.007-0.018,0.011l0,0c-0.278,0.166-0.555,0.335-0.83,0.507
		c-0.001,0.001-0.003,0.002-0.004,0.003c-0.005,0.003-0.01,0.006-0.014,0.009c-0.001,0.001-0.004,0.002-0.005,0.003
		c-0.004,0.003-0.009,0.005-0.013,0.008c-0.003,0.002-0.003,0.002-0.006,0.004c-0.005,0.003-0.011,0.007-0.016,0.01
		c-0.004,0.002-0.008,0.005-0.012,0.007c-0.002,0.001-0.004,0.003-0.006,0.004c-0.004,0.003-0.009,0.005-0.013,0.008
		c-0.001,0.001-0.003,0.002-0.004,0.002c-0.005,0.003-0.009,0.005-0.014,0.009c0,0-0.001,0-0.001,0.001
		c-0.069,0.043-0.139,0.088-0.208,0.131l1.446,2.28c0.395-0.251,0.794-0.496,1.197-0.735L24.521,6.97L24.521,6.97z M22.013,8.561
		c-0.173,0.117-0.345,0.235-0.517,0.354c-0.001,0.001,0.001-0.001,0,0c-0.006,0.004-0.012,0.008-0.018,0.012
		c-0.001,0.001-0.001,0.001-0.002,0.002c-0.006,0.004-0.012,0.008-0.018,0.012l0,0c-0.012,0.009-0.025,0.017-0.037,0.026
		c-0.001,0.001-0.002,0.001-0.003,0.002c-0.005,0.003-0.009,0.006-0.014,0.01c-0.003,0.002-0.003,0.002-0.006,0.004
		c-0.004,0.003-0.008,0.006-0.012,0.009c-0.003,0.002-0.003,0.002-0.005,0.004c-0.012,0.008-0.023,0.016-0.035,0.024
		c-0.001,0.001-0.004,0.003-0.006,0.004c-0.004,0.003-0.008,0.005-0.012,0.008c-0.003,0.002-0.005,0.003-0.007,0.005
		c-0.004,0.003-0.007,0.005-0.011,0.008c-0.001,0.001-0.005,0.003-0.006,0.004c-0.004,0.003-0.009,0.006-0.013,0.009
		c-0.001,0.001-0.003,0.002-0.004,0.003c-0.006,0.004-0.011,0.008-0.017,0.012c-0.003,0.002-0.005,0.003-0.007,0.005
		c-0.003,0.002-0.006,0.004-0.009,0.007c-0.003,0.002-0.006,0.004-0.009,0.006c-0.003,0.002-0.006,0.004-0.009,0.006
		c-0.003,0.002-0.006,0.004-0.009,0.006c-0.003,0.002-0.006,0.004-0.009,0.006c-0.003,0.002-0.006,0.004-0.009,0.006
		c-0.002,0.002-0.004,0.003-0.007,0.005c-0.005,0.004-0.012,0.009-0.018,0.012c-0.003,0.002-0.006,0.004-0.009,0.006
		c-0.003,0.002-0.006,0.005-0.009,0.006c-0.003,0.002-0.005,0.004-0.008,0.006c-0.003,0.002-0.007,0.005-0.009,0.007
		c-0.002,0.002-0.005,0.003-0.007,0.005c-0.004,0.003-0.006,0.005-0.01,0.007c-0.001,0.001-0.003,0.002-0.004,0.003
		c-0.006,0.005-0.015,0.01-0.021,0.015c-0.002,0.002-0.005,0.003-0.007,0.005c-0.004,0.003-0.006,0.004-0.01,0.007
		c-0.003,0.002-0.005,0.004-0.008,0.005c-0.003,0.002-0.007,0.005-0.009,0.007c-0.003,0.002-0.005,0.004-0.008,0.006
		c-0.004,0.003-0.005,0.004-0.009,0.006c-0.003,0.002-0.006,0.005-0.01,0.007c-0.005,0.004-0.01,0.007-0.015,0.01
		c-0.003,0.002-0.006,0.004-0.009,0.006c-0.004,0.003-0.006,0.004-0.009,0.007c-0.003,0.002-0.005,0.004-0.008,0.006
		c-0.003,0.002-0.006,0.004-0.009,0.006c-0.003,0.002-0.006,0.004-0.009,0.006c-0.004,0.003-0.005,0.003-0.009,0.006
		c-0.003,0.002-0.006,0.004-0.009,0.006c-0.004,0.003-0.009,0.006-0.013,0.009c-0.004,0.003-0.007,0.005-0.011,0.008
		c-0.003,0.002-0.006,0.004-0.009,0.006c-0.003,0.002-0.006,0.004-0.009,0.006c-0.003,0.002-0.006,0.004-0.008,0.006
		c-0.003,0.002-0.006,0.004-0.009,0.006c-0.003,0.002-0.006,0.004-0.008,0.006c-0.003,0.002-0.007,0.005-0.01,0.007
		c-0.003,0.002-0.004,0.003-0.007,0.005c-0.005,0.004-0.011,0.008-0.017,0.012c-0.001,0.001-0.004,0.003-0.005,0.004
		c-0.004,0.003-0.008,0.006-0.013,0.009c-0.001,0.001-0.004,0.003-0.006,0.004c-0.004,0.003-0.008,0.006-0.012,0.009
		c-0.003,0.002-0.003,0.002-0.006,0.004c-0.005,0.003-0.009,0.007-0.014,0.01l-0.003,0.002c-0.006,0.004-0.012,0.009-0.018,0.013
		l1.579,2.19c0.38-0.274,0.764-0.542,1.152-0.805L22.013,8.561L22.013,8.561z M19.603,10.297c-0.055,0.042-0.11,0.085-0.165,0.127
		l-0.001,0.001c-0.005,0.004-0.011,0.008-0.016,0.012c-0.001,0.001-0.002,0.002-0.004,0.003c-0.004,0.003-0.009,0.007-0.013,0.01
		c-0.001,0.001-0.003,0.002-0.004,0.003c-0.005,0.004-0.009,0.007-0.014,0.011c-0.001,0.001-0.004,0.003-0.005,0.004
		c-0.005,0.004-0.01,0.008-0.015,0.012c-0.002,0.002-0.005,0.004-0.007,0.006c-0.003,0.002-0.006,0.005-0.009,0.007
		c-0.002,0.002-0.007,0.005-0.009,0.007c-0.002,0.002-0.004,0.003-0.007,0.005c-0.004,0.003-0.007,0.005-0.011,0.008
		c-0.001,0.001-0.002,0.001-0.003,0.002c-0.014,0.011-0.028,0.022-0.041,0.032c0,0-0.001,0.001-0.001,0.001
		c-0.005,0.004-0.008,0.007-0.013,0.01c-0.001,0.001-0.002,0.001-0.002,0.002c-0.005,0.004-0.009,0.007-0.014,0.011c0,0,0,0-0.001,0
		c-0.178,0.139-0.354,0.278-0.529,0.419c0,0,0,0,0,0c-0.018,0.015-0.037,0.03-0.056,0.045c-0.001,0.001-0.003,0.002-0.004,0.003
		c-0.004,0.003-0.008,0.006-0.011,0.009c-0.001,0.001-0.003,0.002-0.004,0.003c-0.004,0.003-0.008,0.006-0.011,0.009
		c-0.001,0.001-0.003,0.002-0.004,0.003c-0.012,0.01-0.024,0.02-0.036,0.029c-0.002,0.001-0.004,0.003-0.006,0.005
		c-0.004,0.003-0.006,0.005-0.01,0.008c-0.002,0.002-0.005,0.004-0.007,0.006c-0.002,0.002-0.006,0.005-0.008,0.007
		c-0.003,0.003-0.006,0.005-0.009,0.008c-0.002,0.002-0.004,0.003-0.007,0.005c-0.005,0.004-0.011,0.009-0.016,0.013
		c-0.001,0.001-0.004,0.003-0.005,0.004c-0.004,0.003-0.008,0.006-0.012,0.009c-0.001,0.001-0.005,0.004-0.006,0.005
		c-0.004,0.003-0.007,0.006-0.011,0.009c-0.002,0.002-0.003,0.003-0.006,0.004c-0.004,0.003-0.008,0.007-0.013,0.01
		c-0.001,0.001-0.003,0.002-0.004,0.003c-0.011,0.009-0.023,0.018-0.034,0.028l-0.001,0.001l1.706,2.093
		c0.363-0.296,0.731-0.586,1.102-0.871L19.603,10.297L19.603,10.297z M17.301,12.174l-0.001,0.001
		c-0.023,0.02-0.046,0.04-0.068,0.059c-0.001,0.001,0,0-0.001,0.001c-0.029,0.025-0.058,0.05-0.087,0.076l0,0
		c-0.117,0.102-0.233,0.204-0.348,0.307l0,0c-0.005,0.005-0.011,0.01-0.016,0.015l-0.001,0.001c-0.017,0.015-0.034,0.03-0.051,0.045
		l-0.001,0.001c-0.005,0.004-0.01,0.009-0.015,0.013c-0.001,0.001-0.002,0.002-0.003,0.003c-0.005,0.004-0.009,0.008-0.014,0.012
		l-0.003,0.002c-0.011,0.01-0.022,0.02-0.033,0.03c-0.001,0.001-0.002,0.002-0.003,0.003c-0.004,0.004-0.008,0.007-0.012,0.011
		c-0.002,0.002-0.003,0.003-0.005,0.005c-0.004,0.003-0.007,0.007-0.011,0.01c-0.001,0.001-0.004,0.003-0.005,0.005
		c-0.004,0.004-0.009,0.008-0.013,0.012c-0.001,0.001-0.001,0.001-0.003,0.002c-0.005,0.005-0.01,0.009-0.015,0.014
		c-0.002,0.002-0.004,0.004-0.007,0.006c-0.003,0.003-0.006,0.005-0.009,0.008c-0.002,0.002-0.005,0.005-0.008,0.007
		c-0.003,0.002-0.005,0.005-0.008,0.007c-0.003,0.003-0.005,0.004-0.008,0.007c-0.002,0.002-0.005,0.004-0.007,0.006
		c-0.01,0.009-0.022,0.02-0.033,0.03c-0.002,0.001-0.003,0.003-0.005,0.004c-0.003,0.003-0.007,0.006-0.01,0.009
		c-0.001,0.001-0.003,0.003-0.004,0.004c-0.003,0.003-0.008,0.007-0.011,0.01c-0.001,0.001-0.001,0.001-0.002,0.002
		c-0.096,0.087-0.189,0.172-0.285,0.26l1.826,1.989c0.345-0.317,0.695-0.629,1.049-0.935L17.301,12.174L17.301,12.174z
		 M15.113,14.182c-0.031,0.031-0.064,0.062-0.095,0.093c0,0,0,0,0,0c-0.003,0.003-0.008,0.008-0.011,0.011
		c-0.001,0.001-0.002,0.002-0.004,0.004c-0.002,0.002-0.008,0.007-0.01,0.01c-0.002,0.002-0.004,0.004-0.006,0.006
		c-0.003,0.003-0.006,0.006-0.009,0.009c-0.005,0.005-0.009,0.009-0.014,0.014c-0.001,0.001-0.001,0.001-0.002,0.002
		c-0.004,0.004-0.009,0.009-0.013,0.013c-0.001,0.001-0.003,0.003-0.005,0.004c-0.004,0.004-0.008,0.008-0.012,0.012
		c-0.002,0.002-0.001,0.001-0.004,0.003c-0.005,0.005-0.009,0.009-0.014,0.014l-0.001,0.001c-0.286,0.282-0.569,0.568-0.849,0.857
		l1.94,1.878c0.326-0.337,0.656-0.668,0.992-0.995L15.113,14.182L15.113,14.182z M13.048,16.317
		c-0.065,0.072-0.129,0.142-0.194,0.214c-0.001,0.002-0.003,0.003-0.004,0.005c-0.002,0.002-0.006,0.007-0.008,0.009
		c-0.002,0.003-0.005,0.005-0.007,0.008c-0.002,0.002-0.005,0.005-0.007,0.008c-0.004,0.004-0.007,0.008-0.011,0.012
		c-0.001,0.001-0.001,0.002-0.003,0.003c-0.005,0.005-0.01,0.011-0.015,0.016c-0.001,0.001-0.001,0.001-0.002,0.002
		c-0.005,0.005-0.009,0.01-0.014,0.016l0,0c-0.243,0.27-0.483,0.544-0.72,0.819l2.048,1.76c0.305-0.355,0.616-0.706,0.932-1.052
		L13.048,16.317L13.048,16.317z M11.112,18.569c-0.036,0.045-0.072,0.089-0.108,0.134c0,0.001-0.001,0.001-0.001,0.002
		c-0.004,0.005-0.007,0.008-0.011,0.013c-0.001,0.001-0.002,0.002-0.002,0.003c-0.009,0.011-0.019,0.024-0.028,0.035
		c-0.002,0.003-0.005,0.006-0.007,0.009c-0.001,0.001-0.004,0.006-0.005,0.007c-0.003,0.004-0.006,0.007-0.008,0.01
		c-0.002,0.002-0.003,0.004-0.005,0.006c-0.003,0.004-0.006,0.008-0.009,0.012c-0.002,0.002-0.002,0.002-0.004,0.005
		c-0.005,0.006-0.009,0.011-0.013,0.017c-0.001,0.001,0,0-0.001,0.001c-0.004,0.005-0.008,0.011-0.013,0.016
		c-0.001,0.001-0.002,0.002-0.003,0.004c-0.004,0.004-0.007,0.009-0.01,0.013c-0.002,0.002-0.002,0.002-0.004,0.005
		c-0.004,0.005-0.008,0.01-0.012,0.015l-0.002,0.002c-0.009,0.012-0.019,0.023-0.028,0.035l-0.002,0.002
		c-0.004,0.005-0.008,0.01-0.012,0.015c-0.002,0.002-0.001,0.002-0.003,0.004c-0.004,0.005-0.007,0.009-0.011,0.014
		c-0.001,0.001-0.001,0.002-0.002,0.003c-0.005,0.006-0.009,0.011-0.014,0.017l0,0c-0.005,0.006-0.009,0.011-0.014,0.017
		c-0.002,0.002-0.002,0.002-0.004,0.005c-0.003,0.004-0.006,0.008-0.009,0.012c-0.002,0.002-0.003,0.004-0.005,0.006
		c-0.003,0.004-0.006,0.007-0.009,0.011c-0.001,0.001-0.004,0.005-0.005,0.006c-0.003,0.004-0.006,0.007-0.009,0.011
		c-0.002,0.002-0.003,0.004-0.005,0.006c-0.004,0.005-0.008,0.01-0.012,0.016c-0.002,0.002-0.004,0.005-0.006,0.008
		c-0.002,0.003-0.004,0.006-0.007,0.009c-0.002,0.002-0.006,0.007-0.008,0.01c-0.001,0.002-0.003,0.004-0.005,0.006
		c-0.003,0.004-0.006,0.007-0.009,0.011c-0.001,0.001-0.002,0.003-0.003,0.004c-0.164,0.209-0.329,0.422-0.49,0.634l2.148,1.636
		c0.284-0.373,0.573-0.741,0.868-1.105L11.112,18.569L11.112,18.569z M9.313,20.933c-0.003,0.004-0.005,0.007-0.007,0.01
		c-0.001,0.002-0.003,0.004-0.004,0.006c-0.003,0.004-0.005,0.006-0.007,0.01c-0.002,0.002-0.003,0.004-0.005,0.007
		c-0.002,0.003-0.006,0.008-0.008,0.011c-0.001,0.002-0.003,0.004-0.004,0.006c-0.003,0.004-0.005,0.007-0.007,0.01
		c-0.001,0.002-0.003,0.004-0.004,0.006c-0.009,0.013-0.017,0.024-0.026,0.037c-0.001,0.002-0.003,0.004-0.004,0.006
		c-0.003,0.004-0.005,0.006-0.007,0.01c-0.002,0.002-0.003,0.005-0.005,0.007c-0.003,0.004-0.005,0.006-0.007,0.01
		c-0.001,0.002-0.002,0.004-0.004,0.005c-0.009,0.013-0.018,0.025-0.027,0.038c-0.001,0.002-0.003,0.004-0.004,0.005
		c-0.003,0.004-0.005,0.008-0.008,0.012c-0.001,0.002-0.002,0.003-0.003,0.005c-0.003,0.004-0.005,0.008-0.008,0.011
		c-0.001,0.002-0.002,0.003-0.004,0.005c-0.003,0.004-0.006,0.008-0.008,0.012c0,0,0,0.001-0.001,0.001
		c-0.01,0.014-0.02,0.029-0.03,0.043c-0.001,0.001-0.002,0.002-0.003,0.004c-0.004,0.005-0.005,0.007-0.009,0.012
		c-0.001,0.001-0.002,0.003-0.003,0.004c-0.003,0.004-0.006,0.009-0.009,0.013c-0.001,0.001-0.001,0.002-0.002,0.002
		c-0.009,0.013-0.019,0.028-0.028,0.04c-0.001,0.002-0.003,0.004-0.004,0.005c-0.003,0.004-0.005,0.007-0.007,0.01
		C9.052,21.3,9.05,21.302,9.049,21.305c-0.003,0.004-0.005,0.007-0.008,0.011c-0.001,0.001-0.002,0.003-0.003,0.004
		c-0.009,0.013-0.018,0.026-0.027,0.038c-0.001,0.002-0.003,0.004-0.004,0.006c-0.003,0.004-0.005,0.007-0.008,0.011
		c-0.001,0.002-0.002,0.003-0.004,0.005c-0.003,0.004-0.005,0.007-0.008,0.011c-0.001,0.002-0.003,0.004-0.004,0.006
		c-0.003,0.004-0.005,0.007-0.007,0.01c-0.003,0.004-0.005,0.007-0.008,0.011c-0.003,0.004-0.006,0.008-0.008,0.012
		c-0.002,0.003-0.005,0.007-0.007,0.01C8.95,21.445,8.95,21.446,8.947,21.45c-0.002,0.003-0.004,0.006-0.006,0.009
		c-0.002,0.003-0.005,0.007-0.006,0.009c-0.002,0.003-0.004,0.006-0.006,0.009c-0.003,0.004-0.003,0.004-0.006,0.008
		c-0.003,0.004-0.005,0.008-0.008,0.012c-0.002,0.003-0.005,0.007-0.007,0.009c-0.003,0.004-0.006,0.009-0.009,0.013
		c-0.002,0.003-0.003,0.004-0.004,0.006c-0.003,0.004-0.005,0.008-0.008,0.011c-0.002,0.003-0.003,0.004-0.004,0.006
		c-0.003,0.004-0.006,0.008-0.009,0.013c-0.001,0.001-0.002,0.004-0.003,0.005c-0.003,0.005-0.007,0.01-0.01,0.015
		c-0.001,0.001-0.001,0.001-0.002,0.003c-0.004,0.006-0.008,0.012-0.013,0.018c-0.001,0.001-0.001,0.001-0.002,0.002
		c-0.004,0.005-0.007,0.01-0.011,0.015c-0.001,0.001-0.002,0.003-0.003,0.005c-0.003,0.005-0.006,0.009-0.01,0.014
		c-0.001,0.001-0.002,0.003-0.003,0.004c-0.004,0.006-0.008,0.011-0.011,0.017l-0.001,0.001c-0.008,0.012-0.017,0.025-0.025,0.037
		c-0.001,0.001-0.001,0.001-0.002,0.003c-0.004,0.006-0.008,0.011-0.011,0.017l-0.001,0.002c-0.101,0.146-0.2,0.293-0.3,0.441
		l2.241,1.506c0.261-0.389,0.528-0.774,0.801-1.154L9.313,20.933L9.313,20.933z M7.656,23.398c-0.171,0.272-0.339,0.544-0.505,0.82
		c0,0,0,0.001-0.001,0.001c-0.003,0.005-0.006,0.01-0.009,0.015c0,0-0.001,0.001-0.001,0.001c-0.01,0.016-0.018,0.029-0.027,0.046
		c0,0.001-0.001,0.002-0.001,0.002c-0.002,0.004-0.005,0.008-0.007,0.012c-0.001,0.002-0.002,0.004-0.004,0.006
		c-0.002,0.003-0.005,0.008-0.007,0.011c-0.001,0.002-0.003,0.005-0.004,0.007c-0.002,0.004-0.004,0.006-0.006,0.01
		c-0.002,0.003-0.003,0.005-0.005,0.008c-0.003,0.005-0.007,0.012-0.01,0.017c-0.002,0.003-0.004,0.006-0.006,0.01
		c-0.002,0.003-0.004,0.006-0.005,0.009c-0.002,0.003-0.004,0.006-0.006,0.01c-0.002,0.003-0.003,0.005-0.005,0.008
		c-0.002,0.004-0.005,0.008-0.007,0.011c-0.001,0.001-0.003,0.005-0.004,0.007c-0.003,0.005-0.005,0.009-0.008,0.014
		c-0.001,0.001-0.002,0.003-0.003,0.005c-0.004,0.006-0.007,0.012-0.011,0.019c-0.001,0.001,0,0-0.001,0.002
		c-0.003,0.006-0.007,0.011-0.01,0.017c-0.001,0.001-0.001,0.002-0.002,0.004c-0.003,0.005-0.006,0.011-0.009,0.016
		c-0.001,0.001-0.001,0.002-0.002,0.003c-0.003,0.006-0.007,0.012-0.01,0.017l-0.001,0.001c-0.032,0.053-0.063,0.106-0.094,0.16
		l2.327,1.37c0.238-0.404,0.481-0.804,0.731-1.2L7.656,23.398L7.656,23.398z M6.149,25.957c-0.148,0.269-0.292,0.537-0.435,0.809
		c0,0,0,0.001-0.001,0.001c-0.003,0.006-0.005,0.01-0.008,0.015c0,0.001-0.001,0.002-0.001,0.003
		C5.701,26.791,5.7,26.794,5.697,26.8c-0.001,0.001-0.001,0.002-0.002,0.004c-0.004,0.008-0.01,0.018-0.014,0.027
		c-0.001,0.001-0.001,0.003-0.002,0.004c-0.001,0.003-0.004,0.007-0.005,0.01c-0.002,0.003-0.003,0.006-0.005,0.009
		c-0.001,0.003-0.003,0.007-0.005,0.009c-0.002,0.003-0.004,0.007-0.005,0.01c-0.001,0.003-0.003,0.005-0.004,0.008
		c-0.002,0.004-0.004,0.008-0.007,0.013c-0.001,0.003-0.001,0.003-0.003,0.006c-0.007,0.013-0.013,0.026-0.02,0.039
		c-0.001,0.001-0.001,0.002-0.002,0.004c-0.003,0.006-0.006,0.011-0.009,0.017l-0.001,0.002c-0.053,0.103-0.106,0.205-0.159,0.308
		l2.404,1.229c0.213-0.417,0.433-0.831,0.658-1.241L6.149,25.957L6.149,25.957z M4.797,28.602c-0.162,0.342-0.321,0.686-0.475,1.033
		l0,0c-0.003,0.006-0.006,0.012-0.008,0.019c-0.001,0.001-0.002,0.004-0.003,0.006c-0.002,0.005-0.004,0.009-0.006,0.014
		c-0.001,0.001-0.002,0.005-0.003,0.007c-0.002,0.004-0.004,0.008-0.006,0.012c-0.001,0.003-0.002,0.005-0.003,0.008
		c-0.001,0.003-0.003,0.007-0.004,0.01c-0.003,0.007-0.007,0.015-0.01,0.022c-0.001,0.001-0.001,0.002-0.002,0.004
		c-0.003,0.006-0.004,0.01-0.007,0.015c0,0.001-0.001,0.001-0.001,0.002c-0.03,0.067-0.059,0.133-0.088,0.2l2.473,1.084
		c0.188-0.429,0.382-0.855,0.583-1.278L4.797,28.602L4.797,28.602z M3.605,31.322c-0.001,0.003-0.001,0.003-0.002,0.006
		c-0.001,0.002-0.001,0.004-0.002,0.006c-0.002,0.004-0.003,0.009-0.005,0.013c-0.001,0.002-0.002,0.005-0.003,0.007
		c-0.002,0.006-0.005,0.013-0.008,0.019c-0.002,0.004-0.003,0.008-0.005,0.011c-0.001,0.003-0.002,0.006-0.003,0.009
		c-0.001,0.004-0.003,0.007-0.004,0.011c-0.001,0.003-0.002,0.006-0.003,0.009c-0.002,0.004-0.003,0.008-0.005,0.012
		c-0.001,0.001-0.002,0.006-0.003,0.007c-0.002,0.005-0.004,0.011-0.006,0.016c-0.001,0.001-0.001,0.002-0.001,0.003
		c-0.003,0.007-0.006,0.014-0.008,0.021l0,0c-0.003,0.007-0.005,0.013-0.008,0.02c-0.001,0.001-0.001,0.002-0.001,0.004
		c-0.002,0.006-0.005,0.012-0.007,0.018l-0.001,0.002c-0.154,0.387-0.304,0.777-0.448,1.169l-0.001,0.003
		c-0.002,0.006-0.004,0.011-0.006,0.016c-0.001,0.001-0.001,0.002-0.001,0.003l2.533,0.934c0.162-0.44,0.331-0.877,0.505-1.31
		L3.605,31.322L3.605,31.322z M2.578,34.109c-0.136,0.406-0.267,0.814-0.393,1.224c0,0,0,0,0,0
		c-0.002,0.006-0.004,0.012-0.006,0.018c0,0,0,0.001,0,0.001c-0.003,0.011-0.006,0.021-0.01,0.032c0,0.001-0.001,0.003-0.001,0.004
		c-0.001,0.003-0.002,0.006-0.003,0.009c-0.001,0.004-0.003,0.008-0.004,0.012c0,0.002-0.002,0.005-0.002,0.007
		c-0.002,0.005-0.003,0.01-0.005,0.015c0,0.002-0.001,0.004-0.002,0.005c-0.002,0.006-0.004,0.013-0.006,0.02l0,0.001
		c-0.007,0.022-0.013,0.044-0.02,0.067l2.585,0.78c0.136-0.449,0.278-0.895,0.426-1.338L2.578,34.109L2.578,34.109z M1.72,36.952
		c-0.069,0.256-0.137,0.515-0.202,0.773c0,0.002-0.001,0.004-0.001,0.006c-0.001,0.005-0.002,0.009-0.003,0.013
		c-0.001,0.003-0.001,0.005-0.002,0.008c-0.001,0.003-0.002,0.009-0.003,0.012c-0.001,0.004-0.002,0.008-0.003,0.011
		c-0.001,0.003-0.001,0.005-0.002,0.009c-0.004,0.014-0.007,0.028-0.011,0.043l-0.001,0.002c-0.002,0.007-0.003,0.013-0.005,0.02
		l-0.001,0.002c-0.045,0.18-0.089,0.36-0.132,0.54l2.627,0.625c0.108-0.456,0.224-0.91,0.345-1.361L1.72,36.952L1.72,36.952z
		 M1.033,39.842c-0.005,0.025-0.011,0.053-0.016,0.079c0,0.002-0.001,0.003-0.001,0.005c-0.001,0.006-0.002,0.009-0.003,0.015
		c0,0.002-0.001,0.003-0.001,0.005c-0.001,0.005-0.002,0.011-0.003,0.016c0,0.001,0,0.002-0.001,0.003
		c-0.005,0.022-0.01,0.049-0.014,0.071c0,0.002-0.001,0.003-0.001,0.005c-0.001,0.005-0.002,0.01-0.003,0.015
		c0,0.002-0.001,0.003-0.001,0.005c-0.001,0.005-0.002,0.01-0.003,0.015c0,0.002-0.001,0.003-0.001,0.005
		c-0.005,0.024-0.009,0.047-0.014,0.07c0,0.001,0,0.002-0.001,0.003c-0.001,0.006-0.002,0.01-0.003,0.016
		c0,0.001,0,0.002-0.001,0.003c-0.001,0.006-0.002,0.011-0.003,0.017c0,0.001,0,0.001,0,0.002c-0.006,0.032-0.012,0.062-0.019,0.094
		c0,0,0,0,0,0c-0.048,0.242-0.093,0.484-0.138,0.728c0,0.001,0,0.001,0,0.001c-0.001,0.006-0.002,0.012-0.003,0.018
		c0,0.001,0,0.001,0,0.002c-0.003,0.018-0.006,0.034-0.009,0.051c0,0.002-0.001,0.004-0.001,0.005
		C0.791,41.095,0.79,41.1,0.789,41.103c-0.001,0.004-0.001,0.007-0.002,0.011c-0.001,0.003-0.001,0.006-0.002,0.009
		c-0.001,0.005-0.002,0.009-0.003,0.014c-0.001,0.003,0,0.003-0.001,0.006c-0.001,0.006-0.002,0.013-0.003,0.019l0,0.002
		c-0.008,0.046-0.016,0.091-0.024,0.137l2.659,0.467c0.081-0.462,0.169-0.922,0.263-1.38L1.033,39.842L1.033,39.842z M0.519,42.767
		c-0.054,0.369-0.103,0.742-0.149,1.114c0,0.002-0.001,0.004-0.001,0.006c-0.001,0.005-0.001,0.008-0.002,0.012
		c0,0.003-0.001,0.007-0.001,0.01c0,0.003-0.001,0.007-0.001,0.01c-0.001,0.005-0.001,0.009-0.002,0.014
		c0,0.002-0.001,0.004-0.001,0.006C0.351,44.041,0.34,44.14,0.328,44.24l2.682,0.308c0.053-0.466,0.114-0.931,0.181-1.393
		L0.519,42.767L0.519,42.767z M0.181,45.718c-0.007,0.079-0.013,0.157-0.02,0.237c0,0.001,0,0.001,0,0.002
		c-0.001,0.007-0.001,0.011-0.001,0.018c-0.001,0.007-0.001,0.013-0.002,0.02l0,0.002c-0.001,0.007-0.001,0.014-0.002,0.021l0,0.001
		c-0.031,0.392-0.057,0.786-0.079,1.18l2.696,0.149c0.026-0.469,0.059-0.937,0.098-1.402L0.181,45.718L0.181,45.718z M0.017,48.684
		c-0.008,0.303-0.013,0.607-0.015,0.912c0,0,0,0,0,0c0,0.007,0,0.013,0,0.02c0,0,0,0,0,0c0,0.007,0,0.013,0,0.02
		c0,0,0,0.001,0,0.001c0,0.007,0,0.012,0,0.019c0,0.001,0,0.001,0,0.002c0,0.007,0,0.011,0,0.018c0,0.001,0,0.002,0,0.003
		c0,0.007,0,0.011,0,0.018c0,0.001,0,0.002,0,0.002c0,0.007,0,0.011,0,0.018c0,0.001,0,0.002,0,0.003c0,0.005,0,0.012,0,0.017
		c0,0.001,0,0.002,0,0.003c0,0.005,0,0.011,0,0.016c0,0.002,0,0.004,0,0.005c0,0.005,0,0.01,0,0.015c0,0.002,0,0.004,0,0.005
		c0,0.005,0,0.01,0,0.015c0,0.002,0,0.004,0,0.006c0,0.005,0,0.01,0,0.015c0,0.002,0,0.004,0,0.005c0,0.005,0,0.01,0,0.015
		c0,0.002,0,0.004,0,0.007c0,0.005,0,0.009,0,0.014c0,0.002,0,0.004,0,0.006c0,0.005,0,0.009,0,0.014c0,0.002,0,0.004,0,0.006
		c0,0.005,0,0.009,0,0.014c0,0.002,0,0.004,0,0.006c0,0.005,0,0.009,0,0.014c0,0.002,0,0.004,0,0.006c0,0.005,0,0.01,0,0.015
		c0,0.001,0,0.002,0,0.002c0,0.007,0,0.011,0,0.018c0,0.002,0,0.004,0,0.006C0,49.977,0,49.988,0,50c0,0.007,0,0.014,0,0.021l0,0
		c0,0.047,0,0.095,0,0.142c0,0.003,0,0.002,0,0.006l2.7-0.009l0-0.16c0-0.417,0.005-0.832,0.016-1.246L0.017,48.684L0.017,48.684z
		 M2.725,51.567l-2.699,0.088c0.007,0.209,0.015,0.418,0.024,0.626l0,0.002c0,0.006,0.001,0.013,0.001,0.019
		c0,0.002,0,0.003,0,0.005c0,0.006,0.001,0.012,0.001,0.018c0,0.002,0,0.003,0,0.005c0,0.006,0.001,0.011,0.001,0.017
		c0,0.002,0,0.004,0,0.006c0,0.007,0.001,0.014,0.001,0.021c0,0.003,0,0.008,0.001,0.012c0,0.003,0,0.006,0,0.009
		c0,0.005,0,0.008,0.001,0.013c0,0.003,0,0.006,0,0.008c0,0.003,0.001,0.011,0.001,0.014c0,0.002,0,0.004,0,0.006
		c0,0.005,0.001,0.01,0.001,0.015c0,0.002,0,0.003,0,0.005c0,0.005,0.001,0.012,0.001,0.017c0,0,0,0,0,0.001
		c0.002,0.033,0.003,0.066,0.005,0.099c0,0,0,0,0,0c0.005,0.092,0.01,0.185,0.015,0.277c0,0.001,0,0.003,0,0.004
		c0,0.005,0.001,0.01,0.001,0.015c0,0.002,0,0.005,0,0.007c0,0.003,0.001,0.009,0.001,0.013c0,0.003,0,0.007,0.001,0.01
		c0,0.005,0,0.006,0.001,0.011c0,0.005,0.001,0.01,0.001,0.016c0,0.002,0,0.004,0,0.005c0,0.007,0.001,0.015,0.001,0.023l0,0
		c0.004,0.062,0.007,0.123,0.011,0.185l2.695-0.167C2.763,52.505,2.741,52.037,2.725,51.567L2.725,51.567z M2.899,54.373
		l-2.689,0.246c0.005,0.049,0.009,0.096,0.014,0.146c0,0.005,0.001,0.01,0.001,0.015c0,0.002,0,0.004,0,0.005
		c0.001,0.006,0.001,0.012,0.002,0.018c0,0.002,0,0.002,0,0.003c0.041,0.431,0.088,0.861,0.14,1.289l2.68-0.326
		C2.992,55.306,2.942,54.841,2.899,54.373L2.899,54.373z M3.238,57.162l-2.669,0.405c0.036,0.234,0.072,0.465,0.111,0.698
		c0.001,0.003,0.001,0.006,0.002,0.009c0.001,0.003,0.001,0.007,0.002,0.01c0.001,0.004,0.001,0.008,0.002,0.012
		c0.001,0.003,0.001,0.006,0.001,0.009c0.001,0.005,0.002,0.01,0.002,0.015c0,0.002,0.001,0.004,0.001,0.006
		c0.032,0.19,0.065,0.379,0.099,0.568c0,0.002,0.001,0.004,0.001,0.005c0.001,0.005,0.002,0.01,0.003,0.015
		c0.001,0.003,0.001,0.006,0.002,0.009c0.001,0.003,0.001,0.007,0.002,0.01c0.001,0.005,0.001,0.007,0.002,0.012
		c0,0.002,0.001,0.003,0.001,0.005c0.005,0.027,0.01,0.055,0.015,0.082l2.656-0.485C3.386,58.088,3.309,57.626,3.238,57.162
		L3.238,57.162z M3.743,59.926L1.102,60.49c0.006,0.027,0.011,0.053,0.017,0.08c0,0.001,0,0.002,0.001,0.003
		c0.001,0.006,0.002,0.009,0.003,0.016c0,0.002,0.001,0.004,0.001,0.006c0.001,0.005,0.002,0.009,0.003,0.013
		c0.001,0.003,0.001,0.006,0.002,0.009c0.001,0.005,0.001,0.007,0.002,0.012c0.001,0.007,0.003,0.013,0.004,0.02
		c0,0.002,0.001,0.003,0.001,0.005c0.001,0.006,0.002,0.011,0.004,0.017c0,0.002,0.001,0.004,0.001,0.005
		c0.001,0.006,0.003,0.012,0.004,0.017c0,0.002,0,0.002,0.001,0.004c0.001,0.006,0.003,0.013,0.004,0.019
		c0,0.002,0,0.001,0.001,0.002c0.048,0.219,0.097,0.437,0.148,0.655c0,0.002,0,0.001,0.001,0.002
		c0.001,0.006,0.003,0.012,0.004,0.018c0.001,0.003,0.001,0.003,0.001,0.006c0.001,0.005,0.002,0.01,0.004,0.015
		c0,0.002,0.001,0.005,0.002,0.007c0.001,0.005,0.002,0.01,0.004,0.015c0,0.002,0.001,0.004,0.001,0.006
		c0.002,0.007,0.003,0.013,0.005,0.02c0.001,0.005,0.002,0.008,0.003,0.013c0.001,0.002,0.001,0.005,0.002,0.007
		c0.001,0.005,0.002,0.01,0.003,0.015c0,0.002,0.001,0.003,0.001,0.005c0.001,0.006,0.002,0.009,0.004,0.015
		c0,0.001,0.001,0.002,0.001,0.004c0.033,0.14,0.066,0.277,0.1,0.416l2.622-0.642C3.945,60.841,3.841,60.385,3.743,59.926
		L3.743,59.926z M4.411,62.653l-2.602,0.721c0.132,0.478,0.272,0.953,0.418,1.425l2.579-0.798
		C4.668,63.555,4.536,63.105,4.411,62.653L4.411,62.653z M5.241,65.337l-2.554,0.875c0.042,0.124,0.085,0.248,0.129,0.371
		c0.001,0.002,0.001,0.004,0.002,0.006c0.002,0.005,0.003,0.009,0.005,0.014c0.001,0.003,0.002,0.005,0.003,0.008
		c0.001,0.004,0.003,0.007,0.004,0.011c0.002,0.005,0.002,0.006,0.004,0.01c0.001,0.002,0.001,0.004,0.002,0.006
		c0.115,0.325,0.233,0.649,0.354,0.97l2.527-0.951C5.551,66.221,5.393,65.78,5.241,65.337L5.241,65.337z M6.23,67.965l-2.497,1.026
		c0.15,0.365,0.304,0.728,0.463,1.089c0.001,0.001,0,0,0.001,0.002c0.003,0.006,0.006,0.013,0.008,0.019
		c0.001,0.001,0,0.001,0.001,0.002c0.012,0.028,0.024,0.055,0.037,0.083l0.001,0.002c0.025,0.056,0.05,0.113,0.075,0.169l2.466-1.1
		C6.593,68.829,6.408,68.399,6.23,67.965L6.23,67.965z M7.375,70.53l-2.432,1.173c0.215,0.446,0.437,0.889,0.665,1.327l2.396-1.245
		C7.788,71.371,7.579,70.952,7.375,70.53L7.375,70.53z M8.671,73.023l-2.357,1.316c0.048,0.085,0.094,0.169,0.143,0.254
		c0,0,0,0.001,0,0.001c0.186,0.329,0.375,0.654,0.568,0.978c0,0.001,0.001,0.001,0.001,0.002c0.008,0.013,0.015,0.025,0.023,0.038
		c0.002,0.004,0.004,0.007,0.006,0.011c0.001,0.001,0.001,0.001,0.001,0.002l2.317-1.386C9.134,73.837,8.899,73.432,8.671,73.023
		L8.671,73.023z M10.113,75.434l-2.275,1.454c0.169,0.264,0.339,0.525,0.513,0.786c0,0,0,0.001,0.001,0.001
		c0.013,0.02,0.026,0.039,0.039,0.059c0.001,0.002,0.002,0.003,0.003,0.005c0.003,0.004,0.005,0.008,0.008,0.012
		c0.001,0.002,0.003,0.004,0.004,0.006c0.002,0.003,0.005,0.008,0.007,0.01c0.002,0.002,0.003,0.005,0.005,0.007
		c0.003,0.004,0.004,0.006,0.007,0.01c0.004,0.005,0.007,0.011,0.011,0.016c0.002,0.003,0.003,0.004,0.004,0.006
		c0.002,0.004,0.005,0.007,0.007,0.011c0.001,0.001,0.004,0.005,0.005,0.007c0.003,0.004,0.006,0.008,0.008,0.012
		c0.002,0.003,0.002,0.002,0.003,0.005c0.004,0.005,0.007,0.011,0.011,0.016l0.001,0.001c0.06,0.09,0.121,0.179,0.182,0.269
		l2.231-1.521C10.623,76.22,10.365,75.829,10.113,75.434L10.113,75.434z M11.695,77.756L9.51,79.342
		c0.104,0.144,0.21,0.287,0.316,0.43l0.001,0.001c0.018,0.025,0.037,0.049,0.055,0.074l0,0c0.171,0.229,0.344,0.457,0.519,0.684
		l2.137-1.65C12.252,78.51,11.971,78.135,11.695,77.756L11.695,77.756z M13.413,79.98l-2.087,1.713
		c0.314,0.383,0.634,0.761,0.959,1.134l2.036-1.773C14.013,80.7,13.71,80.343,13.413,79.98L13.413,79.98z M15.259,82.1l-1.983,1.833
		c0.126,0.136,0.253,0.272,0.38,0.407l0.001,0.001c0.005,0.005,0.01,0.011,0.015,0.016c0.001,0.001,0,0,0.001,0.001
		c0.016,0.017,0.031,0.033,0.047,0.049c0.001,0.001,0.001,0.001,0.002,0.002c0.005,0.005,0.009,0.01,0.014,0.014
		c0.001,0.001,0.001,0.001,0.002,0.002c0.005,0.005,0.01,0.01,0.014,0.015l0.001,0.001c0.005,0.006,0.01,0.011,0.016,0.017l0,0
		c0.005,0.005,0.01,0.01,0.014,0.015c0.001,0.001,0.003,0.003,0.004,0.004c0.004,0.004,0.007,0.008,0.011,0.011
		c0.002,0.002,0.002,0.002,0.004,0.004c0.004,0.004,0.008,0.008,0.012,0.012c0.001,0.001,0.003,0.003,0.004,0.004
		c0.005,0.005,0.01,0.01,0.015,0.016l0,0c0.005,0.005,0.009,0.01,0.014,0.015c0.002,0.002,0.004,0.004,0.006,0.006
		c0.003,0.003,0.006,0.006,0.009,0.009c0.002,0.002,0.004,0.004,0.006,0.007c0.003,0.003,0.005,0.006,0.008,0.008
		c0.003,0.003,0.004,0.004,0.007,0.007c0.003,0.003,0.006,0.006,0.008,0.009c0.004,0.005,0.006,0.007,0.011,0.011
		c0.003,0.003,0.006,0.006,0.009,0.009c0.003,0.003,0.005,0.005,0.008,0.008c0.002,0.002,0.004,0.004,0.006,0.007
		c0.002,0.002,0.006,0.006,0.008,0.009c0.002,0.002,0.004,0.004,0.006,0.006c0.003,0.003,0.006,0.006,0.009,0.009
		c0.002,0.002,0.003,0.003,0.005,0.005c0.011,0.011,0.021,0.022,0.032,0.033c0.002,0.002,0.003,0.003,0.005,0.005
		c0.003,0.003,0.006,0.006,0.009,0.01c0.002,0.002,0.003,0.003,0.005,0.005c0.003,0.003,0.006,0.007,0.01,0.01
		c0.001,0.001,0.003,0.003,0.004,0.004c0.012,0.012,0.023,0.024,0.035,0.036c0.001,0.001,0.001,0.001,0.002,0.002
		c0.003,0.003,0.008,0.008,0.011,0.011c0.001,0.001,0.002,0.002,0.003,0.003c0.004,0.004,0.007,0.007,0.011,0.011
		c0.001,0.001,0.001,0.001,0.002,0.002c0.013,0.013,0.023,0.024,0.036,0.037c0.001,0.001,0.001,0.001,0.002,0.002
		c0.003,0.003,0.007,0.008,0.011,0.011c0.001,0.001,0.002,0.002,0.003,0.003c0.004,0.004,0.006,0.007,0.011,0.011
		c0.001,0.001,0.002,0.002,0.003,0.003c0.015,0.016,0.033,0.034,0.048,0.049c0.001,0.001,0.003,0.003,0.004,0.004
		c0.004,0.004,0.006,0.006,0.01,0.01c0.001,0.001,0.003,0.003,0.004,0.004c0.003,0.003,0.006,0.006,0.01,0.01
		c0.002,0.002,0.003,0.003,0.005,0.005c0.007,0.007,0.013,0.013,0.019,0.02c0.001,0.001,0.002,0.002,0.004,0.004
		c0.003,0.003,0.006,0.006,0.009,0.009c0.002,0.002,0.004,0.004,0.006,0.006c0.002,0.002,0.006,0.006,0.008,0.009
		c0.002,0.002,0.004,0.005,0.007,0.007c0.003,0.003,0.005,0.005,0.008,0.008c0.002,0.002,0.004,0.004,0.006,0.006
		c0.002,0.002,0.005,0.005,0.007,0.007l1.928-1.891C15.9,82.783,15.577,82.444,15.259,82.1L15.259,82.1z M17.227,84.106
		l-1.871,1.947c0.357,0.343,0.719,0.681,1.086,1.013l1.813-2.001C17.907,84.751,17.565,84.431,17.227,84.106L17.227,84.106z
		 M19.31,85.993l-1.753,2.054c0.245,0.209,0.489,0.414,0.738,0.618c0.001,0.001,0.001,0.001,0.002,0.002
		c0.005,0.004,0.007,0.006,0.012,0.01c0.002,0.001,0.003,0.003,0.005,0.004c0.004,0.003,0.007,0.006,0.011,0.009
		c0.002,0.001,0.004,0.003,0.005,0.004c0.006,0.005,0.01,0.008,0.016,0.013c0.003,0.003,0.007,0.005,0.01,0.008
		c0.002,0.002,0.004,0.003,0.006,0.005c0.004,0.003,0.008,0.006,0.011,0.009c0.002,0.002,0.003,0.002,0.005,0.004
		c0.005,0.004,0.009,0.008,0.014,0.011l0.002,0.002c0.102,0.083,0.204,0.166,0.306,0.248l1.691-2.105
		C20.027,86.596,19.666,86.297,19.31,85.993L19.31,85.993z M21.501,87.754l-1.628,2.154c0.169,0.127,0.34,0.256,0.511,0.381
		c0.001,0.001,0.003,0.002,0.004,0.003c0.005,0.004,0.007,0.005,0.012,0.009c0.002,0.001,0.003,0.002,0.005,0.004
		c0.004,0.003,0.007,0.005,0.011,0.008c0.002,0.002,0.004,0.003,0.007,0.005c0.005,0.004,0.01,0.007,0.015,0.011
		c0.004,0.003,0.007,0.005,0.011,0.008c0.003,0.002,0.004,0.003,0.007,0.005c0.003,0.002,0.007,0.005,0.01,0.007
		c0.003,0.002,0.005,0.004,0.008,0.006c0.004,0.003,0.008,0.006,0.011,0.008c0.001,0.001,0.004,0.003,0.005,0.004
		c0.018,0.013,0.036,0.026,0.054,0.04c0.001,0.001-0.001,0,0.001,0.001c0.175,0.128,0.35,0.254,0.527,0.38l1.564-2.201
		C22.252,88.313,21.874,88.036,21.501,87.754L21.501,87.754z M23.792,89.382l-1.498,2.246c0.128,0.086,0.257,0.171,0.386,0.255
		c0.001,0.001,0,0,0.001,0.001c0.019,0.012,0.038,0.025,0.057,0.037c0.001,0.001,0.001,0.001,0.003,0.002
		c0.005,0.003,0.01,0.006,0.015,0.01c0.003,0.002,0.002,0.002,0.005,0.003c0.005,0.003,0.009,0.006,0.014,0.009
		c0.001,0.001,0.003,0.002,0.004,0.003c0.012,0.008,0.024,0.016,0.036,0.024c0.001,0.001,0.005,0.003,0.006,0.004
		c0.004,0.002,0.008,0.005,0.011,0.007c0.003,0.002,0.006,0.004,0.008,0.005c0.003,0.002,0.006,0.004,0.009,0.006
		c0.003,0.002,0.006,0.004,0.008,0.005c0.003,0.002,0.006,0.004,0.009,0.006c0.008,0.005,0.015,0.01,0.023,0.015
		c0.001,0,0.001,0.001,0.002,0.001c0.004,0.003,0.009,0.006,0.013,0.008c0.001,0.001,0.003,0.002,0.004,0.002
		c0.004,0.003,0.009,0.006,0.013,0.008c0.001,0.001,0.003,0.002,0.004,0.003c0.004,0.003,0.009,0.006,0.013,0.009
		c0,0,0.001,0.001,0.001,0.001c0.199,0.128,0.4,0.256,0.601,0.381l1.431-2.29C24.575,89.895,24.181,89.641,23.792,89.382
		L23.792,89.382z M26.175,90.871l-1.362,2.331c0.001,0.001,0.003,0.002,0.004,0.002c0.003,0.002,0.005,0.003,0.008,0.005
		c0.003,0.002,0.006,0.004,0.009,0.005c0.006,0.004,0.012,0.007,0.018,0.011c0.001,0.001,0.001,0,0.002,0.001
		c0.006,0.003,0.011,0.007,0.017,0.01c0.001,0.001,0.002,0.001,0.003,0.002c0.006,0.003,0.011,0.007,0.017,0.01
		c0.001,0.001,0.001,0.001,0.002,0.001c0.14,0.081,0.28,0.162,0.42,0.242c0.001,0.001,0.001,0,0.002,0.001
		c0.006,0.003,0.011,0.006,0.017,0.009c0.001,0.001,0.003,0.001,0.004,0.002c0.006,0.003,0.011,0.006,0.017,0.01l0.002,0.001
		c0.013,0.007,0.025,0.014,0.038,0.022c0.001,0.001,0.005,0.003,0.006,0.003c0.004,0.002,0.008,0.005,0.012,0.007
		c0.003,0.002,0.005,0.003,0.008,0.005c0.003,0.002,0.007,0.004,0.01,0.006c0.003,0.002,0.006,0.003,0.009,0.005
		c0.003,0.002,0.006,0.003,0.008,0.005c0.008,0.005,0.016,0.009,0.024,0.014c0.001,0,0.001,0.001,0.002,0.001
		c0.004,0.002,0.009,0.005,0.013,0.008c0.001,0.001,0.003,0.002,0.004,0.002c0.004,0.002,0.009,0.005,0.013,0.007
		c0.002,0.001,0.003,0.002,0.005,0.003c0.004,0.002,0.01,0.005,0.014,0.008c0,0,0,0,0.001,0c0.11,0.062,0.219,0.123,0.329,0.184
		c0,0,0,0,0,0c0.006,0.003,0.01,0.006,0.016,0.009c0,0,0.001,0.001,0.001,0.001c0.015,0.008,0.029,0.016,0.044,0.024
		c0.002,0.001,0.004,0.002,0.006,0.003c0.004,0.002,0.006,0.003,0.01,0.006c0.003,0.002,0.006,0.003,0.009,0.005
		c0.003,0.002,0.006,0.004,0.009,0.005c0.004,0.002,0.008,0.004,0.011,0.006c0.001,0.001,0.005,0.003,0.006,0.003
		c0.047,0.026,0.094,0.051,0.141,0.077l1.292-2.371C26.986,91.337,26.579,91.107,26.175,90.871L26.175,90.871z M28.641,92.215
		l-1.221,2.408c0.103,0.052,0.207,0.104,0.311,0.156l0,0c0.006,0.003,0.013,0.006,0.019,0.009c0.001,0.001,0.002,0.001,0.004,0.002
		c0.006,0.003,0.011,0.006,0.017,0.008c0.001,0.001,0.001,0.001,0.003,0.001c0.006,0.003,0.013,0.006,0.019,0.009
		c0.001,0.001,0,0,0.001,0.001c0.007,0.003,0.013,0.007,0.02,0.01c0.001,0.001,0.003,0.001,0.004,0.002
		c0.005,0.002,0.01,0.005,0.015,0.007c0.001,0.001,0.006,0.003,0.007,0.004c0.004,0.002,0.008,0.004,0.012,0.006
		c0.003,0.001,0.005,0.003,0.008,0.004c0.004,0.002,0.007,0.003,0.011,0.005c0.003,0.001,0.006,0.003,0.009,0.004
		c0.004,0.002,0.008,0.004,0.011,0.006c0.006,0.003,0.011,0.005,0.016,0.008c0.003,0.001,0.006,0.003,0.008,0.004
		c0.004,0.002,0.008,0.004,0.012,0.006c0.002,0.001,0.004,0.002,0.006,0.003c0.004,0.002,0.008,0.004,0.012,0.006
		c0.002,0.001,0.004,0.002,0.006,0.003c0.004,0.002,0.009,0.004,0.013,0.006c0.001,0.001,0.002,0.001,0.003,0.002
		c0.016,0.008,0.032,0.016,0.048,0.023c0,0,0.001,0,0.001,0c0.006,0.003,0.01,0.005,0.016,0.008c0.001,0,0.001,0.001,0.002,0.001
		c0.006,0.003,0.01,0.005,0.015,0.008c0.001,0,0.001,0.001,0.002,0.001c0.234,0.115,0.467,0.226,0.703,0.337l1.149-2.443
		C29.479,92.632,29.058,92.427,28.641,92.215L28.641,92.215z M31.184,93.41l-1.075,2.477l0,0c0.007,0.003,0.013,0.006,0.02,0.009
		c0.001,0.001,0,0,0.002,0.001c0.007,0.003,0.013,0.006,0.02,0.009c0.001,0.001-0.001,0,0.001,0
		c0.007,0.003,0.014,0.006,0.021,0.009c0.001,0.001,0.001,0,0.002,0.001c0.006,0.002,0.011,0.005,0.017,0.007
		c0.001,0.001,0.006,0.003,0.007,0.003c0.004,0.002,0.008,0.003,0.012,0.005c0.003,0.001,0.006,0.003,0.009,0.004
		c0.003,0.001,0.007,0.003,0.01,0.004c0.004,0.002,0.006,0.002,0.01,0.004c0.003,0.001,0.006,0.003,0.009,0.004
		c0.009,0.004,0.017,0.007,0.026,0.011c0,0,0.001,0,0.001,0.001c0.004,0.002,0.009,0.004,0.013,0.006
		c0.002,0.001,0.004,0.002,0.006,0.003c0.004,0.002,0.008,0.004,0.013,0.005c0.002,0.001,0.004,0.002,0.006,0.003
		c0.004,0.002,0.009,0.004,0.013,0.006c0.001,0.001,0.003,0.001,0.004,0.002c0.016,0.007,0.033,0.014,0.049,0.021c0,0,0,0,0,0
		c0.004,0.002,0.011,0.005,0.015,0.006c0.001,0.001,0.003,0.001,0.004,0.002c0.006,0.002,0.009,0.004,0.015,0.006
		c0.001,0,0.002,0.001,0.003,0.001c0.023,0.01,0.043,0.018,0.066,0.028c0.001,0,0.002,0.001,0.003,0.001
		c0.004,0.002,0.01,0.004,0.014,0.006c0.002,0.001,0.004,0.002,0.005,0.002c0.004,0.002,0.009,0.004,0.013,0.006
		c0.002,0.001,0.004,0.002,0.005,0.002c0.004,0.002,0.009,0.004,0.013,0.006c0.001,0,0.002,0.001,0.003,0.001
		c0.009,0.004,0.018,0.008,0.027,0.011c0.002,0.001,0.004,0.002,0.006,0.002c0.004,0.002,0.008,0.003,0.012,0.005
		c0.002,0.001,0.005,0.002,0.007,0.003c0.003,0.001,0.009,0.004,0.012,0.005c0.003,0.001,0.005,0.002,0.008,0.003
		c0.004,0.002,0.008,0.003,0.012,0.005c0.002,0.001,0.005,0.002,0.007,0.003c0.004,0.002,0.008,0.003,0.012,0.005
		c0.006,0.002,0.012,0.005,0.018,0.007c0.003,0.001,0.006,0.003,0.009,0.004c0.004,0.002,0.007,0.003,0.011,0.005
		c0.003,0.001,0.006,0.003,0.009,0.004c0.003,0.001,0.007,0.003,0.01,0.004c0.003,0.001,0.007,0.003,0.01,0.004
		c0.004,0.002,0.007,0.003,0.011,0.004c0.003,0.001,0.006,0.002,0.009,0.004c0.006,0.003,0.012,0.005,0.018,0.008l0.002,0.001
		c0.006,0.003,0.012,0.005,0.018,0.008c0.001,0.001,0.005,0.002,0.006,0.003c0.005,0.002,0.009,0.004,0.014,0.006
		c0.003,0.001,0.004,0.002,0.007,0.003c0.005,0.002,0.01,0.004,0.014,0.006c0.001,0.001,0.004,0.001,0.005,0.002
		c0.006,0.003,0.012,0.005,0.018,0.008c0.001,0.001,0,0,0.002,0.001c0.014,0.006,0.027,0.011,0.041,0.017
		c0.001,0.001,0.002,0.001,0.004,0.002c0.006,0.002,0.011,0.005,0.017,0.007c0.001,0.001,0.003,0.001,0.004,0.002
		c0.006,0.002,0.012,0.005,0.018,0.007l0.003,0.001c0.014,0.006,0.028,0.012,0.042,0.017l0.001,0.001
		c0.006,0.003,0.013,0.005,0.019,0.008c0.001,0.001,0.002,0.001,0.003,0.001c0.006,0.002,0.012,0.005,0.017,0.007
		c0.001,0.001,0.002,0.001,0.004,0.002c0.007,0.003,0.013,0.005,0.02,0.008l0.001,0c0.007,0.003,0.014,0.006,0.021,0.009l0,0
		c0.007,0.003,0.013,0.005,0.02,0.008c0.001,0.001,0.002,0.001,0.004,0.002c0.005,0.002,0.011,0.004,0.016,0.007
		c0.003,0.001,0.002,0.001,0.005,0.002c0.005,0.002,0.011,0.004,0.016,0.006c0.001,0.001,0.003,0.001,0.005,0.002
		c0.005,0.002,0.011,0.004,0.016,0.007c0.001,0.001,0.003,0.001,0.004,0.002c0.006,0.003,0.013,0.005,0.019,0.008
		c0.003,0.001,0.005,0.002,0.008,0.003c0.004,0.002,0.008,0.003,0.011,0.005c0.003,0.001,0.007,0.003,0.01,0.004
		c0.003,0.001,0.006,0.002,0.008,0.003c0.004,0.002,0.007,0.003,0.012,0.005c0.002,0.001,0.004,0.002,0.007,0.003
		c0.09,0.036,0.178,0.072,0.268,0.108l1.001-2.508C32.044,93.776,31.612,93.596,31.184,93.41L31.184,93.41z M33.792,94.451
		l-0.925,2.537c0.109,0.04,0.218,0.079,0.327,0.118l0,0c0.007,0.002,0.014,0.005,0.021,0.007c0.002,0.001,0,0,0.002,0.001
		c0.021,0.008,0.043,0.015,0.064,0.023c0.002,0.001,0.001,0,0.003,0.001c0.006,0.002,0.012,0.004,0.017,0.006
		c0.003,0.001,0.002,0.001,0.005,0.002c0.005,0.002,0.011,0.004,0.016,0.006c0.002,0.001,0.003,0.001,0.005,0.002
		c0.006,0.002,0.012,0.004,0.018,0.006c0.002,0.001,0.001,0,0.002,0.001c0.007,0.002,0.014,0.005,0.021,0.007
		c0.002,0.001,0.001,0.001,0.003,0.001c0.006,0.002,0.011,0.004,0.017,0.006c0.002,0.001,0.006,0.002,0.007,0.002
		c0.004,0.002,0.009,0.003,0.013,0.005c0.003,0.001,0.005,0.002,0.008,0.003c0.004,0.002,0.009,0.003,0.013,0.005
		c0.003,0.001,0.005,0.002,0.008,0.003c0.005,0.002,0.011,0.004,0.016,0.006c0.003,0.001,0.003,0.001,0.006,0.002
		c0.006,0.002,0.011,0.004,0.017,0.006c0.003,0.001,0.006,0.002,0.009,0.003c0.004,0.001,0.007,0.003,0.011,0.004
		c0.003,0.001,0.006,0.002,0.009,0.003c0.004,0.001,0.007,0.003,0.011,0.004c0.003,0.001,0.007,0.002,0.01,0.003
		c0.004,0.001,0.007,0.003,0.011,0.004c0.003,0.001,0.006,0.002,0.009,0.003c0.004,0.001,0.007,0.003,0.011,0.004
		c0.006,0.002,0.011,0.004,0.018,0.006c0.003,0.001,0.007,0.002,0.01,0.003c0.003,0.001,0.007,0.002,0.01,0.003
		c0.004,0.001,0.007,0.003,0.011,0.004c0.003,0.001,0.007,0.002,0.01,0.003c0.004,0.001,0.007,0.002,0.011,0.004
		c0.003,0.001,0.006,0.002,0.009,0.003c0.004,0.001,0.008,0.003,0.012,0.004c0.003,0.001,0.005,0.002,0.008,0.003
		c0.007,0.002,0.013,0.005,0.02,0.007c0.002,0.001,0.004,0.001,0.006,0.002c0.005,0.002,0.01,0.003,0.014,0.005
		c0.002,0.001,0.007,0.002,0.008,0.003c0.004,0.001,0.008,0.003,0.012,0.004c0.003,0.001,0.006,0.002,0.009,0.003
		c0.004,0.001,0.008,0.003,0.012,0.004c0.003,0.001,0.006,0.002,0.009,0.003c0.005,0.002,0.01,0.004,0.016,0.005
		c0.002,0.001,0.003,0.001,0.004,0.002c0.007,0.002,0.013,0.005,0.02,0.007c0.003,0.001,0.003,0.001,0.006,0.002
		c0.005,0.002,0.01,0.003,0.015,0.005c0.002,0.001,0.005,0.002,0.006,0.002c0.005,0.002,0.01,0.003,0.015,0.005
		c0.002,0.001,0.005,0.002,0.006,0.002c0.005,0.002,0.01,0.004,0.016,0.005c0.002,0.001,0.003,0.001,0.005,0.002
		c0.007,0.002,0.014,0.005,0.021,0.007l0,0c0.007,0.002,0.014,0.005,0.02,0.007c0.002,0.001,0.003,0.001,0.005,0.002
		c0.005,0.002,0.01,0.004,0.016,0.005c0.002,0.001,0.005,0.002,0.006,0.002c0.005,0.002,0.011,0.004,0.016,0.005
		c0.002,0.001,0.003,0.001,0.004,0.001c0.007,0.002,0.014,0.005,0.02,0.007l0,0c0.014,0.005,0.028,0.01,0.043,0.014
		c0.002,0.001,0.002,0.001,0.004,0.001c0.006,0.002,0.012,0.004,0.017,0.006l0.004,0.001c0.006,0.002,0.012,0.004,0.018,0.006
		c0.002,0.001,0.002,0.001,0.003,0.001c0.014,0.005,0.029,0.01,0.043,0.014l0.001,0c0.007,0.002,0.014,0.005,0.021,0.007
		c0.002,0.001,0,0,0.002,0.001c0.006,0.002,0.013,0.004,0.019,0.006c0.002,0.001,0.002,0.001,0.003,0.001
		c0.007,0.002,0.013,0.004,0.02,0.007l0.001,0c0.015,0.005,0.029,0.01,0.044,0.015h0c0.007,0.002,0.014,0.005,0.021,0.007
		c0.002,0.001,0.001,0,0.003,0.001c0.006,0.002,0.013,0.004,0.019,0.006c0.002,0.001,0,0,0.002,0.001
		c0.007,0.002,0.014,0.005,0.021,0.007l0.849-2.563C34.673,94.765,34.231,94.611,33.792,94.451L33.792,94.451z M36.458,95.334
		l-0.772,2.587c0.263,0.078,0.526,0.154,0.79,0.229c0.001,0,0.002,0.001,0.003,0.001c0.006,0.002,0.009,0.002,0.015,0.004
		c0.002,0.001,0.004,0.001,0.006,0.002c0.005,0.001,0.008,0.002,0.013,0.004c0.003,0.001,0.007,0.002,0.01,0.003
		c0.003,0.001,0.007,0.002,0.01,0.003c0.007,0.002,0.013,0.004,0.02,0.006c0.002,0,0.004,0.001,0.005,0.001
		c0.005,0.001,0.011,0.003,0.016,0.004c0.002,0,0.004,0.001,0.006,0.002c0.006,0.002,0.011,0.003,0.017,0.005l0.003,0.001
		c0.007,0.002,0.014,0.004,0.021,0.006l0,0c0.164,0.045,0.327,0.09,0.492,0.133l0.001,0l0.694-2.609
		C37.356,95.594,36.906,95.467,36.458,95.334L36.458,95.334z M39.172,96.056l-0.616,2.629c0.003,0.001,0.009,0.002,0.012,0.003
		c0.003,0.001,0.005,0.001,0.008,0.002c0.003,0.001,0.006,0.001,0.009,0.002c0.004,0.001,0.009,0.002,0.013,0.003
		c0.002,0,0.006,0.001,0.007,0.002c0.005,0.001,0.01,0.002,0.016,0.004c0.002,0,0.003,0.001,0.005,0.001
		c0.007,0.002,0.013,0.003,0.02,0.005l0.001,0c0.293,0.068,0.587,0.133,0.881,0.196c0.002,0,0.002,0,0.003,0.001
		c0.006,0.001,0.011,0.002,0.017,0.004c0.003,0.001,0.004,0.001,0.007,0.001c0.004,0.001,0.009,0.002,0.013,0.003
		c0.003,0.001,0.006,0.001,0.009,0.002c0.003,0.001,0.007,0.001,0.01,0.002c0.14,0.03,0.28,0.059,0.42,0.087l0.537-2.646
		C40.084,96.262,39.627,96.162,39.172,96.056L39.172,96.056z M41.925,96.614l-0.458,2.661c0.167,0.029,0.334,0.057,0.502,0.084
		l0.001,0c0.023,0.004,0.045,0.007,0.068,0.011c0.002,0,0,0,0.002,0c0.007,0.001,0.013,0.002,0.02,0.003
		c0.002,0,0.004,0.001,0.006,0.001c0.005,0.001,0.01,0.002,0.016,0.002c0.003,0.001,0.004,0.001,0.007,0.001
		c0.004,0.001,0.009,0.001,0.013,0.002c0.003,0.001,0.006,0.001,0.009,0.001c0.004,0.001,0.008,0.001,0.012,0.002
		c0.003,0.001,0.007,0.001,0.01,0.002c0.003,0.001,0.007,0.001,0.01,0.002c0.008,0.001,0.016,0.003,0.024,0.004
		c0.002,0,0.004,0.001,0.006,0.001c0.005,0.001,0.01,0.002,0.015,0.002c0.002,0,0.004,0.001,0.006,0.001
		c0.005,0.001,0.01,0.002,0.015,0.002c0.002,0,0.004,0.001,0.006,0.001c0.005,0.001,0.009,0.001,0.014,0.002
		c0.002,0,0.004,0.001,0.006,0.001c0.005,0.001,0.01,0.002,0.015,0.002c0,0,0,0,0,0c0.019,0.003,0.036,0.006,0.056,0.009
		c0.001,0,0.002,0,0.003,0c0.006,0.001,0.01,0.002,0.017,0.003c0.001,0,0.002,0,0.003,0.001c0.006,0.001,0.01,0.002,0.017,0.003
		c0.001,0,0.002,0,0.004,0.001c0.006,0.001,0.01,0.002,0.017,0.003c0,0,0.001,0,0.001,0c0.026,0.004,0.05,0.008,0.075,0.011
		c0.001,0,0.001,0,0.002,0c0.006,0.001,0.011,0.002,0.017,0.003c0.001,0,0.002,0,0.003,0c0.006,0.001,0.011,0.002,0.018,0.003
		c0,0,0.001,0,0.001,0c0.032,0.005,0.063,0.009,0.096,0.014c0.001,0,0.001,0,0.002,0c0.006,0.001,0.011,0.002,0.018,0.003
		c0.001,0,0.001,0,0.002,0c0.006,0.001,0.012,0.002,0.018,0.003c0,0,0,0,0.001,0c0.024,0.004,0.049,0.007,0.074,0.011
		c0.002,0,0.004,0.001,0.006,0.001c0.005,0.001,0.01,0.001,0.015,0.002c0.002,0,0.004,0.001,0.006,0.001
		c0.005,0.001,0.01,0.001,0.015,0.002c0.002,0,0.004,0.001,0.005,0.001c0.005,0.001,0.011,0.002,0.016,0.002c0,0,0.001,0,0.001,0
		c0.013,0.002,0.024,0.004,0.037,0.005c0,0,0.001,0,0.001,0c0.005,0.001,0.009,0.001,0.014,0.002c0.003,0,0.005,0.001,0.008,0.001
		c0.005,0.001,0.008,0.001,0.013,0.002c0.003,0,0.006,0.001,0.008,0.001c0.003,0,0.009,0.001,0.012,0.002
		c0.003,0,0.007,0.001,0.01,0.001c0.005,0.001,0.006,0.001,0.011,0.002c0.004,0.001,0.008,0.001,0.012,0.002
		c0.003,0,0.006,0.001,0.009,0.001c0.007,0.001,0.014,0.002,0.021,0.003c0.002,0,0.005,0.001,0.006,0.001
		c0.005,0.001,0.01,0.001,0.015,0.002l0.002,0l0.378-2.673C42.848,96.766,42.386,96.693,41.925,96.614L41.925,96.614z
		 M44.707,97.007l-0.299,2.683c0.088,0.01,0.174,0.019,0.262,0.028c0.001,0,0.002,0,0.003,0c0.007,0.001,0.01,0.001,0.016,0.002
		c0.003,0,0.006,0.001,0.009,0.001c0.005,0.001,0.006,0.001,0.011,0.001c0.391,0.041,0.783,0.078,1.177,0.11l0.219-2.691
		C45.637,97.104,45.171,97.059,44.707,97.007L44.707,97.007z M47.509,97.236l-0.14,2.696c0.013,0.001,0.024,0.001,0.037,0.002
		c0.001,0,0.001,0,0.002,0c0.005,0,0.01,0.001,0.015,0.001c0.003,0,0.005,0,0.008,0c0.003,0,0.008,0,0.012,0.001
		c0.004,0,0.008,0,0.011,0.001c0.002,0,0.008,0,0.009,0c0.006,0,0.012,0.001,0.018,0.001c0.002,0,0.001,0,0.003,0
		c0.377,0.019,0.756,0.033,1.135,0.043l0,0c0.008,0,0.015,0,0.023,0.001l0,0c0.023,0.001,0.046,0.001,0.069,0.002l0.003,0
		c0.006,0,0.013,0,0.019,0c0.002,0,0.005,0,0.007,0c0.005,0,0.01,0,0.014,0c0.003,0,0.006,0,0.009,0c0.004,0,0.008,0,0.012,0
		c0.003,0,0.007,0,0.01,0c0.004,0,0.007,0,0.011,0c0.003,0,0.008,0,0.012,0c0.002,0,0.005,0,0.007,0
		c0.013,0,0.023,0.001,0.036,0.001l0.061-2.699C48.444,97.277,47.975,97.26,47.509,97.236L47.509,97.236z M51.727,97.269
		c-0.467,0.017-0.936,0.027-1.406,0.03l0.018,2.7c0.385-0.003,0.768-0.009,1.151-0.021c0,0,0.001,0,0.001,0c0.005,0,0.012,0,0.017,0
		c0.002,0,0.004,0,0.006,0c0.003,0,0.01,0,0.013,0c0.004,0,0.007,0,0.011,0c0.002,0,0.008,0,0.01,0
		c0.092-0.003,0.183-0.006,0.275-0.009L51.727,97.269L51.727,97.269z M54.532,97.086c-0.465,0.044-0.932,0.082-1.401,0.112
		l0.176,2.694c0.348-0.023,0.695-0.049,1.041-0.079c0.002,0,0,0,0.002,0c0.007-0.001,0.013-0.001,0.02-0.002l0.004,0
		c0.006-0.001,0.013-0.001,0.019-0.002c0.002,0,0.002,0,0.003,0c0.006-0.001,0.013-0.001,0.019-0.002c0.002,0,0.002,0,0.003,0
		c0.015-0.001,0.029-0.003,0.044-0.004c0.003,0,0.003,0,0.006-0.001c0.005,0,0.01-0.001,0.016-0.001c0.003,0,0.005,0,0.009-0.001
		c0.004,0,0.008-0.001,0.012-0.001c0.003,0,0.008-0.001,0.011-0.001c0.003,0,0.007-0.001,0.01-0.001
		c0.005,0,0.007-0.001,0.012-0.001c0.003,0,0.005,0,0.008-0.001c0.031-0.003,0.061-0.006,0.093-0.008c0,0,0,0,0.001,0
		c0.049-0.005,0.099-0.009,0.148-0.014L54.532,97.086L54.532,97.086z M57.32,96.737c-0.462,0.072-0.925,0.137-1.391,0.195
		l0.335,2.679c0.123-0.015,0.245-0.031,0.368-0.047l0.002,0c0.007-0.001,0.015-0.002,0.022-0.003l0,0
		c0.022-0.003,0.045-0.006,0.067-0.009c0.002,0,0.005-0.001,0.007-0.001c0.005-0.001,0.01-0.001,0.015-0.002
		c0.003,0,0.005-0.001,0.008-0.001c0.004-0.001,0.009-0.001,0.013-0.002c0.003,0,0.006-0.001,0.009-0.001
		c0.004-0.001,0.008-0.001,0.011-0.002c0.003,0,0.007-0.001,0.01-0.001c0.003,0,0.007-0.001,0.01-0.001
		c0.008-0.001,0.015-0.002,0.023-0.003c0.003,0,0.005-0.001,0.008-0.001c0.005-0.001,0.008-0.001,0.013-0.002
		c0.002,0,0.005-0.001,0.007-0.001c0.005-0.001,0.009-0.001,0.014-0.002c0.002,0,0.004-0.001,0.007-0.001
		c0.005-0.001,0.01-0.001,0.015-0.002c0.002,0,0.003,0,0.005-0.001c0.005-0.001,0.011-0.002,0.016-0.002c0,0,0.001,0,0.001,0
		c0.026-0.004,0.05-0.007,0.076-0.011c0,0,0.001,0,0.001,0c0.006-0.001,0.013-0.002,0.019-0.003c0,0,0,0,0,0
		c0.084-0.012,0.168-0.024,0.252-0.036c0.001,0,0.001,0,0.002,0c0.006-0.001,0.012-0.002,0.018-0.003c0,0,0.001,0,0.001,0
		c0.024-0.004,0.048-0.007,0.072-0.011c0.002,0,0.004-0.001,0.006-0.001c0.005-0.001,0.008-0.001,0.013-0.002
		c0.003,0,0.006-0.001,0.01-0.001c0.003,0,0.007-0.001,0.01-0.002c0.004-0.001,0.008-0.001,0.012-0.002
		c0.003,0,0.005-0.001,0.009-0.001c0.006-0.001,0.011-0.002,0.017-0.003c0.002,0,0.002,0,0.004-0.001
		c0.099-0.015,0.198-0.03,0.297-0.045L57.32,96.737L57.32,96.737z M60.082,96.224c-0.456,0.099-0.915,0.192-1.377,0.277l0.494,2.654
		c0.129-0.024,0.259-0.049,0.388-0.074c0.002,0,0,0,0.001,0c0.007-0.001,0.014-0.003,0.021-0.004l0.002,0
		c0.007-0.001,0.015-0.003,0.022-0.004l0,0c0.022-0.004,0.045-0.009,0.067-0.013c0.002,0,0.001,0,0.003-0.001
		c0.006-0.001,0.013-0.003,0.019-0.004l0.004-0.001c0.006-0.001,0.013-0.003,0.019-0.004c0.002,0,0.001,0,0.003-0.001
		c0.022-0.004,0.044-0.009,0.067-0.013c0.002,0,0.001,0,0.003-0.001c0.006-0.001,0.013-0.003,0.019-0.004l0.004-0.001
		c0.006-0.001,0.012-0.002,0.019-0.004c0.002,0,0.002,0,0.003-0.001c0.022-0.004,0.044-0.009,0.066-0.013l0.002,0
		c0.007-0.001,0.013-0.003,0.02-0.004c0.002,0,0.002,0,0.003-0.001c0.006-0.001,0.013-0.003,0.02-0.004c0.002,0,0.001,0,0.002,0
		c0.227-0.046,0.454-0.093,0.68-0.143L60.082,96.224L60.082,96.224z M62.808,95.546c-0.45,0.126-0.903,0.246-1.358,0.359l0.651,2.62
		c0.48-0.119,0.961-0.247,1.436-0.38L62.808,95.546L62.808,95.546z M65.488,94.707c-0.442,0.153-0.886,0.3-1.333,0.44l0.807,2.577
		c0.473-0.148,0.943-0.303,1.41-0.465l0,0L65.488,94.707L65.488,94.707z M68.113,93.709c-0.432,0.179-0.867,0.352-1.305,0.519
		l0.96,2.524c0.072-0.027,0.144-0.055,0.216-0.083c0.001-0.001,0,0,0.002-0.001c0.006-0.002,0.013-0.005,0.019-0.007
		c0.001-0.001,0.001-0.001,0.003-0.001c0.006-0.002,0.012-0.005,0.018-0.007l0.003-0.001c0.014-0.005,0.027-0.011,0.041-0.016
		c0.003-0.001,0.004-0.001,0.007-0.003c0.004-0.002,0.009-0.003,0.013-0.005c0.003-0.001,0.006-0.002,0.009-0.003
		c0.003-0.001,0.007-0.003,0.01-0.004c0.003-0.001,0.007-0.003,0.01-0.004c0.003-0.001,0.007-0.003,0.01-0.004
		c0.003-0.001,0.007-0.003,0.01-0.004c0.002-0.001,0.004-0.001,0.006-0.002c0.009-0.003,0.017-0.007,0.026-0.01
		c0.002-0.001,0.003-0.001,0.005-0.002c0.004-0.002,0.009-0.003,0.013-0.005c0.002-0.001,0.004-0.002,0.006-0.002
		c0.004-0.002,0.009-0.004,0.014-0.005c0.001-0.001,0.003-0.001,0.004-0.002c0.312-0.122,0.626-0.249,0.936-0.377L68.113,93.709
		L68.113,93.709z M70.674,92.555c-0.42,0.205-0.844,0.403-1.272,0.596l1.109,2.462c0.349-0.157,0.699-0.32,1.044-0.485
		c0.001-0.001,0.002-0.001,0.003-0.002c0.004-0.002,0.008-0.004,0.013-0.006c0.002-0.001,0.005-0.002,0.007-0.003
		c0.003-0.001,0.008-0.004,0.011-0.005c0.003-0.001,0.006-0.003,0.008-0.004c0.004-0.002,0.006-0.003,0.01-0.005
		c0.006-0.003,0.012-0.006,0.018-0.009l0.001-0.001c0.006-0.003,0.013-0.006,0.019-0.009l0.003-0.002
		c0.006-0.003,0.012-0.006,0.018-0.009l0.002-0.001c0.062-0.03,0.125-0.06,0.187-0.091L70.674,92.555L70.674,92.555z M73.162,91.251
		c-0.408,0.229-0.819,0.453-1.234,0.671l1.254,2.391c0.106-0.056,0.211-0.111,0.317-0.168c0.001-0.001,0.003-0.001,0.004-0.002
		c0.006-0.003,0.008-0.004,0.014-0.007c0.001-0.001,0.002-0.001,0.004-0.002c0.004-0.002,0.009-0.005,0.014-0.007
		c0.002-0.001,0.004-0.002,0.007-0.004c0.007-0.004,0.01-0.005,0.017-0.009c0.004-0.002,0.008-0.004,0.013-0.007
		c0.001-0.001,0.005-0.002,0.006-0.003c0.004-0.002,0.009-0.005,0.013-0.007c0.003-0.001,0.004-0.002,0.007-0.004
		c0.005-0.002,0.009-0.005,0.014-0.007c0.001-0.001,0.003-0.002,0.005-0.003c0.013-0.007,0.026-0.014,0.039-0.021l0,0
		c0.006-0.003,0.013-0.007,0.019-0.01c0.001-0.001,0.001-0.001,0.002-0.001c0.204-0.11,0.406-0.221,0.608-0.333l0.003-0.002
		c0.005-0.003,0.011-0.006,0.016-0.009c0.001-0.001,0.003-0.002,0.004-0.002c0.005-0.003,0.009-0.005,0.014-0.008
		c0.001-0.001,0.005-0.003,0.006-0.003c0.005-0.003,0.01-0.006,0.015-0.009c0.001-0.001,0.002-0.001,0.003-0.002
		c0.006-0.003,0.012-0.007,0.018-0.01c0.003-0.002,0.004-0.002,0.007-0.004c0.004-0.002,0.007-0.004,0.011-0.006
		c0.003-0.002,0.007-0.004,0.01-0.006c0.003-0.001,0.005-0.003,0.008-0.004c0.004-0.002,0.008-0.004,0.012-0.007
		c0.002-0.001,0.003-0.002,0.005-0.003c0.023-0.013,0.048-0.027,0.071-0.04L73.162,91.251L73.162,91.251z M75.569,89.801
		c-0.393,0.253-0.791,0.501-1.192,0.743l1.394,2.313c0.026-0.016,0.053-0.032,0.079-0.048l0.003-0.002
		c0.005-0.003,0.01-0.006,0.015-0.009c0.003-0.002,0.003-0.002,0.006-0.003c0.004-0.002,0.008-0.005,0.012-0.007
		c0.001-0.001,0.006-0.003,0.007-0.004c0.004-0.002,0.008-0.005,0.011-0.007c0.003-0.002,0.005-0.003,0.007-0.004
		c0.005-0.003,0.011-0.007,0.016-0.01c0.004-0.002,0.009-0.005,0.013-0.008c0.001-0.001,0.003-0.002,0.004-0.003
		c0.005-0.003,0.008-0.005,0.014-0.008c0.001-0.001,0.002-0.001,0.003-0.002c0.005-0.003,0.009-0.006,0.015-0.009c0,0,0,0,0,0
		c0.354-0.216,0.707-0.437,1.055-0.661L75.569,89.801L75.569,89.801z M77.885,88.21c-0.378,0.276-0.76,0.547-1.146,0.812
		l1.528,2.226c0.255-0.175,0.508-0.352,0.759-0.532c0.001-0.001,0.002-0.001,0.003-0.002c0.005-0.004,0.011-0.008,0.016-0.011
		c0.001-0.001,0.001-0.001,0.002-0.002c0.012-0.009,0.024-0.017,0.037-0.026c0.001-0.001,0.001-0.001,0.002-0.001
		c0.005-0.004,0.01-0.007,0.015-0.011c0.001-0.001,0.004-0.003,0.006-0.004c0.004-0.003,0.008-0.006,0.012-0.009
		c0.003-0.002,0.003-0.002,0.006-0.004c0.004-0.003,0.008-0.006,0.012-0.009c0.003-0.002,0.003-0.002,0.006-0.004
		c0.005-0.004,0.011-0.008,0.016-0.012c0.003-0.002,0.004-0.003,0.007-0.005c0.003-0.002,0.007-0.005,0.01-0.007
		c0.004-0.003,0.004-0.003,0.008-0.006c0.003-0.002,0.006-0.004,0.009-0.007c0.003-0.002,0.006-0.004,0.008-0.006
		c0.003-0.002,0.006-0.004,0.008-0.006c0.004-0.003,0.005-0.004,0.009-0.006c0.003-0.002,0.007-0.005,0.01-0.007
		c0.005-0.004,0.008-0.006,0.014-0.01c0.003-0.002,0.006-0.004,0.009-0.007c0.004-0.003,0.006-0.004,0.009-0.007
		c0.003-0.002,0.005-0.004,0.008-0.005c0.003-0.002,0.006-0.005,0.009-0.007c0.003-0.002,0.006-0.004,0.009-0.006
		c0.004-0.003,0.005-0.003,0.008-0.006c0.004-0.003,0.007-0.005,0.011-0.008c0.003-0.002,0.004-0.003,0.006-0.005
		c0.005-0.004,0.011-0.008,0.016-0.011c0.003-0.002,0.006-0.004,0.008-0.006c0.003-0.002,0.006-0.004,0.009-0.007
		c0.003-0.002,0.005-0.004,0.008-0.006c0.003-0.002,0.007-0.005,0.01-0.007c0.003-0.002,0.005-0.003,0.007-0.005
		c0.004-0.003,0.008-0.006,0.013-0.009c0.001-0.001,0.003-0.002,0.004-0.003c0.006-0.004,0.011-0.008,0.017-0.013
		c0.001-0.001,0.002-0.002,0.003-0.003c0.005-0.004,0.01-0.007,0.015-0.011c0.001-0.001,0.002-0.002,0.003-0.002
		c0.005-0.004,0.01-0.007,0.015-0.011c0.001-0.001,0.002-0.002,0.003-0.003c0.012-0.009,0.024-0.018,0.036-0.026L77.885,88.21
		L77.885,88.21z M80.104,86.485c-0.361,0.298-0.727,0.591-1.096,0.879l1.657,2.132c0.238-0.185,0.474-0.372,0.708-0.561
		c0.001-0.001,0.002-0.001,0.003-0.002c0.004-0.004,0.009-0.007,0.013-0.011c0.001-0.001,0.004-0.003,0.005-0.004
		c0.004-0.004,0.009-0.007,0.013-0.011c0.001-0.001,0.002-0.002,0.004-0.003c0.005-0.004,0.011-0.009,0.016-0.013
		c0.002-0.002,0.004-0.003,0.006-0.005c0.003-0.003,0.006-0.005,0.01-0.008c0.002-0.002,0.006-0.005,0.008-0.007
		c0.002-0.002,0.005-0.004,0.007-0.006c0.004-0.003,0.006-0.005,0.01-0.008c0.001-0.001,0.003-0.002,0.004-0.003
		c0.117-0.095,0.234-0.191,0.35-0.286L80.104,86.485L80.104,86.485z M82.217,84.632c-0.343,0.319-0.69,0.633-1.043,0.942l1.78,2.03
		c0.001-0.001,0.002-0.001,0.003-0.002c0.004-0.003,0.007-0.007,0.011-0.01c0.001-0.001,0.004-0.003,0.005-0.004
		c0.005-0.004,0.009-0.008,0.014-0.012c0.001-0.001,0.002-0.002,0.004-0.003c0.005-0.004,0.01-0.009,0.015-0.013
		c0.002-0.002,0.004-0.003,0.006-0.005c0.003-0.003,0.006-0.005,0.009-0.008c0.002-0.002,0.005-0.005,0.007-0.007
		c0.003-0.003,0.006-0.005,0.009-0.008c0.001-0.001,0.006-0.005,0.007-0.006c0.004-0.003,0.007-0.006,0.011-0.009
		c0.002-0.002,0.003-0.002,0.005-0.005c0.005-0.005,0.01-0.009,0.015-0.013c0.002-0.002,0.004-0.004,0.006-0.006
		c0.003-0.003,0.006-0.005,0.009-0.008c0.002-0.002,0.006-0.005,0.008-0.007c0.003-0.002,0.006-0.005,0.008-0.007
		c0.002-0.002,0.005-0.004,0.007-0.006c0.003-0.003,0.006-0.006,0.009-0.008c0.002-0.002,0.005-0.004,0.007-0.006
		c0.005-0.004,0.01-0.009,0.015-0.013c0.002-0.002,0.003-0.002,0.005-0.004c0.004-0.003,0.007-0.007,0.011-0.01
		c0.001-0.001,0.005-0.004,0.006-0.005c0.004-0.003,0.008-0.007,0.011-0.01c0.001-0.001,0.003-0.003,0.004-0.004
		c0.004-0.004,0.008-0.007,0.012-0.011c0.002-0.002,0.002-0.002,0.004-0.004c0.005-0.005,0.011-0.009,0.016-0.014
		c0.001-0.001,0.001-0.001,0.002-0.002c0.005-0.004,0.009-0.008,0.014-0.012c0.001-0.001,0.003-0.003,0.004-0.004
		c0.004-0.004,0.008-0.007,0.012-0.011c0.001-0.001,0.003-0.002,0.004-0.004c0.005-0.004,0.009-0.008,0.014-0.013l0.002-0.002
		c0.011-0.01,0.022-0.02,0.034-0.03l0.002-0.001c0.005-0.005,0.01-0.009,0.015-0.014l0.001-0.001
		c0.213-0.19,0.424-0.382,0.633-0.576c0.001-0.001,0.002-0.002,0.003-0.003c0.004-0.004,0.008-0.007,0.012-0.011
		c0.002-0.002,0.004-0.003,0.006-0.006c0.003-0.003,0.006-0.005,0.009-0.008c0.003-0.003,0.005-0.004,0.008-0.008
		c0.002-0.001,0.003-0.003,0.005-0.004c0.013-0.012,0.025-0.023,0.037-0.034c0,0,0,0,0,0c0.008-0.007,0.015-0.014,0.023-0.022
		L82.217,84.632L82.217,84.632z M84.217,82.657c-0.323,0.339-0.652,0.673-0.985,1.002l1.897,1.921
		c0.039-0.038,0.077-0.076,0.115-0.114l0,0c0.005-0.005,0.01-0.01,0.015-0.015c0.001-0.001,0.001-0.001,0.002-0.002
		c0.005-0.005,0.01-0.01,0.015-0.015c0.002-0.002,0.003-0.003,0.005-0.005c0.003-0.003,0.006-0.006,0.009-0.009
		c0.003-0.003,0.005-0.005,0.008-0.008c0.002-0.002,0.004-0.004,0.006-0.006c0.003-0.003,0.007-0.007,0.01-0.01
		c0.001-0.001,0.001-0.001,0.002-0.002c0.241-0.241,0.479-0.483,0.715-0.728c0.003-0.003,0.005-0.005,0.008-0.008
		c0.001-0.001,0.004-0.004,0.005-0.005c0.004-0.004,0.008-0.008,0.012-0.012l0.002-0.002c0.037-0.039,0.074-0.078,0.111-0.116
		L84.217,82.657L84.217,82.657z M86.097,80.568c-0.303,0.357-0.611,0.71-0.924,1.058l2.007,1.806
		c0.33-0.367,0.657-0.742,0.977-1.118L86.097,80.568L86.097,80.568z M87.85,78.371c-0.281,0.375-0.568,0.745-0.86,1.111l2.11,1.684
		c0.053-0.066,0.106-0.133,0.158-0.199c0.001-0.001,0,0,0.001-0.001c0.004-0.005,0.009-0.011,0.013-0.016
		c0.001-0.001,0.001-0.001,0.002-0.002c0.009-0.012,0.019-0.024,0.028-0.035l0,0c0.004-0.005,0.009-0.011,0.013-0.016
		c0.001-0.001,0.002-0.003,0.003-0.004c0.003-0.004,0.007-0.009,0.01-0.013c0.001-0.001,0.003-0.003,0.004-0.005
		c0.004-0.005,0.007-0.009,0.011-0.014l0.003-0.003c0.005-0.006,0.009-0.012,0.014-0.017l0,0c0.004-0.005,0.009-0.011,0.013-0.016
		c0.001-0.001,0.003-0.004,0.004-0.005c0.003-0.004,0.006-0.008,0.009-0.012c0.002-0.002,0.003-0.004,0.005-0.006
		c0.003-0.004,0.006-0.007,0.009-0.011c0.001-0.001,0.004-0.005,0.005-0.006c0.004-0.005,0.007-0.009,0.011-0.014
		c0.001-0.001,0.003-0.003,0.004-0.005c0.004-0.005,0.008-0.01,0.012-0.015c0.001-0.001,0.003-0.004,0.004-0.005
		c0.003-0.004,0.006-0.007,0.008-0.011c0.002-0.002,0.004-0.005,0.006-0.007c0.003-0.003,0.005-0.006,0.008-0.01
		c0.001-0.001,0.005-0.006,0.005-0.007c0.003-0.004,0.006-0.008,0.009-0.012c0.001-0.001,0.003-0.004,0.004-0.005
		c0.004-0.005,0.008-0.011,0.013-0.016c0.002-0.002,0.003-0.004,0.005-0.006c0.003-0.004,0.006-0.007,0.008-0.011
		c0.002-0.002,0.003-0.004,0.005-0.007c0.003-0.004,0.006-0.007,0.008-0.011c0.001-0.001,0.004-0.005,0.005-0.006
		c0.003-0.004,0.006-0.008,0.009-0.012c0.002-0.002,0.002-0.003,0.004-0.005c0.004-0.005,0.008-0.011,0.013-0.016
		c0.002-0.002,0.002-0.003,0.004-0.005c0.003-0.004,0.006-0.008,0.009-0.011c0.002-0.002,0.003-0.004,0.005-0.007
		c0.003-0.003,0.005-0.007,0.008-0.01c0.002-0.002,0.003-0.004,0.005-0.007c0.003-0.004,0.006-0.007,0.009-0.011
		c0.002-0.002,0.002-0.003,0.004-0.006c0.004-0.006,0.009-0.011,0.013-0.017c0.001-0.001,0.001-0.001,0.002-0.002
		c0.004-0.005,0.008-0.01,0.011-0.015c0.001-0.001,0.003-0.004,0.004-0.006c0.003-0.004,0.006-0.008,0.009-0.011
		c0.002-0.002,0.003-0.004,0.005-0.006c0.003-0.004,0.006-0.008,0.009-0.012c0.001-0.001,0.003-0.004,0.004-0.005
		c0.009-0.011,0.017-0.022,0.026-0.034c0.002-0.002,0.003-0.003,0.004-0.006c0.003-0.004,0.006-0.008,0.009-0.012
		c0.002-0.002,0.002-0.003,0.004-0.005c0.003-0.004,0.007-0.009,0.01-0.013c0.001-0.001,0.002-0.003,0.003-0.004
		c0.004-0.005,0.008-0.01,0.012-0.015c0.001-0.001,0.001-0.001,0.002-0.002c0.004-0.006,0.009-0.011,0.013-0.017
		c0.002-0.002,0.003-0.003,0.004-0.006c0.003-0.004,0.006-0.007,0.009-0.011c0.002-0.002,0.003-0.004,0.005-0.007
		c0.003-0.003,0.005-0.007,0.008-0.01c0.002-0.002,0.004-0.005,0.005-0.007c0.003-0.003,0.005-0.007,0.008-0.01
		c0.002-0.002,0.003-0.004,0.005-0.006c0.004-0.005,0.008-0.01,0.012-0.016c0.002-0.002,0.004-0.006,0.006-0.008
		c0.002-0.003,0.004-0.006,0.007-0.009c0.002-0.002,0.005-0.006,0.007-0.009c0.002-0.002,0.004-0.005,0.006-0.007
		c0.002-0.002,0.005-0.007,0.007-0.009c0.002-0.002,0.004-0.005,0.005-0.007c0.003-0.004,0.005-0.006,0.008-0.01c0,0,0,0,0-0.001
		c0.007-0.009,0.014-0.019,0.021-0.027c0.001-0.001,0.001-0.002,0.002-0.002c0.003-0.004,0.007-0.009,0.009-0.012
		c0.001-0.001,0.002-0.002,0.003-0.004c0.004-0.005,0.006-0.008,0.01-0.013c0-0.001,0.001-0.001,0.001-0.002
		c0.045-0.06,0.089-0.117,0.134-0.177L87.85,78.371L87.85,78.371z M89.47,76.075c-0.259,0.391-0.523,0.777-0.793,1.16l2.206,1.557
		c0.216-0.306,0.429-0.616,0.638-0.927c0.001-0.002,0.002-0.003,0.003-0.005c0.003-0.004,0.005-0.007,0.007-0.011
		c0.002-0.003,0.003-0.005,0.005-0.008c0.002-0.003,0.004-0.006,0.006-0.009c0.003-0.004,0.006-0.009,0.009-0.013
		c0.001-0.001,0.002-0.003,0.003-0.004c0.004-0.006,0.008-0.012,0.012-0.018c0.001-0.001,0-0.001,0.001-0.002
		c0.004-0.006,0.008-0.011,0.011-0.017c0.001-0.001,0-0.001,0.001-0.002c0.047-0.07,0.094-0.141,0.141-0.211L89.47,76.075
		L89.47,76.075z M90.951,73.687c-0.235,0.405-0.476,0.807-0.722,1.205l2.295,1.423c0.001-0.001,0,0.001,0-0.001
		c0.008-0.013,0.016-0.025,0.023-0.038c0.001-0.001,0-0.001,0.001-0.002c0.004-0.006,0.008-0.012,0.011-0.018l0,0
		c0.248-0.401,0.49-0.806,0.727-1.214L90.951,73.687L90.951,73.687z M92.287,71.216c-0.211,0.419-0.427,0.834-0.65,1.245
		l2.375,1.284c0.235-0.435,0.464-0.874,0.687-1.317L92.287,71.216L92.287,71.216z M93.473,68.67
		c-0.185,0.431-0.377,0.858-0.574,1.282l2.447,1.14c0.192-0.413,0.379-0.828,0.56-1.247c0.001-0.001,0.002-0.006,0.003-0.007
		c0.002-0.004,0.003-0.008,0.005-0.011c0.001-0.003,0.003-0.008,0.005-0.01c0.001-0.003,0.002-0.005,0.003-0.008
		c0.002-0.004,0.004-0.008,0.005-0.013c0-0.001,0.001-0.002,0.001-0.002c0.008-0.019,0.016-0.037,0.024-0.056L93.473,68.67
		L93.473,68.67z M94.505,66.058c-0.159,0.441-0.325,0.879-0.496,1.314l2.511,0.992c0.028-0.072,0.057-0.144,0.085-0.216l0,0
		c0.008-0.022,0.017-0.043,0.025-0.065c0.001-0.001,0,0.001,0,0c0.002-0.006,0.005-0.013,0.007-0.019
		c0.001-0.001,0.002-0.004,0.002-0.006c0.002-0.005,0.004-0.01,0.006-0.014c0.001-0.003,0.002-0.004,0.003-0.007
		c0.002-0.004,0.003-0.008,0.005-0.012c0.001-0.003,0.002-0.006,0.003-0.009c0.001-0.003,0.003-0.007,0.004-0.01
		c0.003-0.007,0.005-0.013,0.008-0.021c0.001-0.002,0.002-0.005,0.003-0.007c0.002-0.004,0.004-0.009,0.005-0.014
		c0.001-0.002,0.001-0.003,0.002-0.005c0.002-0.004,0.004-0.01,0.005-0.014c0.001-0.002,0.001-0.003,0.002-0.005
		c0.002-0.004,0.004-0.011,0.006-0.015c0,0,0-0.001,0-0.001c0.121-0.315,0.239-0.632,0.354-0.95L94.505,66.058L94.505,66.058z
		 M95.379,63.389c-0.132,0.45-0.271,0.897-0.417,1.341l2.566,0.84c0.076-0.232,0.151-0.467,0.224-0.701c0,0,0,0,0,0
		c0.002-0.006,0.003-0.01,0.005-0.016c0-0.001,0.001-0.003,0.001-0.004c0.002-0.006,0.003-0.008,0.004-0.014
		c0.001-0.002,0.001-0.004,0.002-0.007c0.001-0.005,0.003-0.008,0.004-0.013c0.001-0.003,0.002-0.007,0.003-0.01
		c0.001-0.003,0.002-0.006,0.003-0.009c0.002-0.007,0.004-0.013,0.006-0.02c0.001-0.003,0.001-0.004,0.002-0.007
		c0.002-0.005,0.003-0.01,0.005-0.015c0-0.002,0.001-0.004,0.002-0.006c0.002-0.006,0.003-0.011,0.005-0.017
		c0-0.002,0.001-0.002,0.001-0.004c0.059-0.192,0.117-0.384,0.174-0.577L95.379,63.389L95.379,63.389z M96.092,60.672
		c-0.105,0.457-0.217,0.912-0.336,1.364l2.612,0.685c0.035-0.134,0.07-0.269,0.104-0.404l0,0c0.006-0.022,0.011-0.044,0.017-0.067
		c0-0.002,0-0.002,0.001-0.003c0.001-0.006,0.003-0.011,0.004-0.017c0-0.002,0.001-0.006,0.002-0.007
		c0.001-0.004,0.002-0.009,0.003-0.013c0.001-0.003,0.001-0.005,0.002-0.008c0.001-0.004,0.002-0.008,0.003-0.012
		c0.001-0.003,0.002-0.007,0.003-0.01c0.001-0.003,0.001-0.005,0.002-0.008c0.004-0.016,0.008-0.031,0.012-0.047
		c0-0.001,0.001-0.002,0.001-0.003c0.002-0.006,0.003-0.011,0.004-0.017c0-0.001,0-0.001,0-0.002
		c0.002-0.006,0.003-0.012,0.004-0.018c0,0,0,0,0,0c0.066-0.268,0.13-0.535,0.193-0.804L96.092,60.672L96.092,60.672z
		 M96.641,57.917c-0.078,0.463-0.163,0.923-0.254,1.381l2.648,0.528c0.059-0.298,0.116-0.598,0.17-0.898c0,0,0,0,0-0.001
		c0.004-0.024,0.009-0.049,0.013-0.073c0-0.002,0.001-0.003,0.001-0.005c0.001-0.005,0.001-0.008,0.002-0.013
		c0-0.003,0.001-0.005,0.001-0.008c0.001-0.003,0.002-0.009,0.002-0.012c0.001-0.003,0.001-0.006,0.002-0.009
		c0.001-0.003,0.001-0.008,0.002-0.011c0.001-0.003,0.001-0.007,0.002-0.01c0.001-0.005,0.001-0.006,0.002-0.011
		c0.001-0.005,0.002-0.009,0.003-0.014c0-0.002,0.001-0.006,0.001-0.008c0.001-0.006,0.002-0.013,0.003-0.019
		c0.001-0.003,0.001-0.004,0.001-0.007c0.001-0.005,0.002-0.01,0.003-0.015c0-0.002,0.001-0.004,0.001-0.006
		c0.001-0.005,0.002-0.011,0.003-0.016c0-0.002,0.001-0.004,0.001-0.006c0.001-0.006,0.002-0.012,0.003-0.018
		c0-0.002,0-0.002,0.001-0.003c0.017-0.099,0.034-0.198,0.051-0.297L96.641,57.917L96.641,57.917z M97.025,55.134
		c-0.05,0.467-0.108,0.932-0.171,1.394l2.675,0.369c0.003-0.021,0.005-0.038,0.008-0.059c0-0.001,0-0.002,0-0.004
		c0.001-0.005,0.001-0.011,0.002-0.015c0-0.002,0-0.004,0.001-0.006c0.001-0.005,0.001-0.01,0.002-0.015
		c0-0.002,0.001-0.004,0.001-0.006c0.001-0.005,0.001-0.009,0.002-0.014c0-0.002,0.001-0.005,0.001-0.007
		c0.001-0.007,0.001-0.01,0.002-0.017c0.001-0.005,0.001-0.011,0.002-0.017c0-0.003,0.001-0.006,0.001-0.009
		c0.001-0.004,0.001-0.008,0.002-0.013c0-0.002,0.001-0.008,0.001-0.009c0.001-0.004,0.001-0.009,0.002-0.013
		c0-0.003,0.001-0.004,0.001-0.008c0.001-0.005,0.001-0.01,0.002-0.015c0-0.002,0.001-0.005,0.001-0.006
		c0.001-0.006,0.002-0.012,0.002-0.018l0-0.004c0.002-0.015,0.004-0.03,0.006-0.045l0-0.001c0.001-0.007,0.002-0.014,0.003-0.021
		c0-0.002,0-0.003,0.001-0.005c0.001-0.006,0.002-0.012,0.002-0.018c0-0.002,0-0.003,0.001-0.005
		c0.001-0.006,0.002-0.012,0.002-0.018c0-0.002,0-0.002,0-0.004c0.003-0.023,0.006-0.045,0.009-0.068v0
		c0.001-0.007,0.002-0.014,0.003-0.022c0-0.002,0-0.002,0-0.003c0.001-0.006,0.002-0.013,0.003-0.02c0-0.002,0-0.001,0-0.003
		c0.001-0.007,0.002-0.014,0.003-0.021l0-0.002c0.003-0.023,0.006-0.045,0.009-0.068l0-0.002c0.001-0.007,0.002-0.013,0.003-0.02
		c0-0.002,0-0.002,0.001-0.004c0.001-0.006,0.002-0.012,0.002-0.018c0-0.002,0-0.003,0.001-0.004
		c0.001-0.006,0.002-0.013,0.002-0.019l0-0.003c0.002-0.015,0.004-0.03,0.006-0.045l0-0.001c0.001-0.007,0.002-0.013,0.002-0.02
		c0-0.002,0.001-0.004,0.001-0.006c0.001-0.005,0.001-0.011,0.002-0.016c0-0.003,0-0.004,0.001-0.007
		c0.001-0.005,0.001-0.011,0.002-0.016c0-0.002,0-0.004,0.001-0.005c0.001-0.007,0.002-0.013,0.002-0.02c0-0.002,0-0.001,0-0.002
		c0.002-0.015,0.004-0.03,0.005-0.044l0-0.004c0.001-0.006,0.001-0.012,0.002-0.018c0-0.002,0-0.003,0.001-0.005
		c0.001-0.006,0.001-0.011,0.002-0.017c0-0.002,0-0.004,0.001-0.006c0.001-0.006,0.001-0.012,0.002-0.017
		c0-0.002,0-0.003,0.001-0.005c0.002-0.015,0.004-0.03,0.005-0.045l0,0c0.001-0.007,0.002-0.015,0.003-0.022
		c0-0.002,0-0.001,0-0.003c0.001-0.007,0.002-0.013,0.002-0.019l0-0.003c0.001-0.006,0.002-0.013,0.002-0.019
		c0-0.002,0-0.001,0-0.003c0.018-0.153,0.035-0.307,0.052-0.461L97.025,55.134L97.025,55.134z M97.244,52.331
		c-0.023,0.47-0.052,0.937-0.089,1.403l2.692,0.21c0.012-0.15,0.023-0.3,0.033-0.451c0-0.002,0-0.004,0-0.005
		c0-0.005,0.001-0.009,0.001-0.014c0-0.003,0-0.005,0.001-0.008c0-0.003,0.001-0.009,0.001-0.012c0-0.003,0-0.007,0.001-0.01
		c0-0.003,0.001-0.008,0.001-0.011c0-0.004,0.001-0.008,0.001-0.012c0-0.003,0-0.005,0.001-0.009c0-0.007,0.001-0.014,0.001-0.021
		l0-0.001c0-0.007,0.001-0.015,0.001-0.022l0-0.002c0-0.007,0.001-0.013,0.001-0.019c0-0.002,0-0.003,0-0.005
		c0-0.006,0.001-0.012,0.001-0.018l0-0.004c0-0.007,0.001-0.013,0.001-0.02c0-0.002,0,0,0-0.002c0.012-0.185,0.023-0.37,0.033-0.555
		l0-0.001c0.002-0.03,0.003-0.061,0.005-0.091c0-0.002,0-0.003,0-0.005c0-0.006,0.001-0.011,0.001-0.017c0-0.002,0-0.005,0-0.007
		c0-0.005,0.001-0.01,0.001-0.015c0-0.003,0-0.005,0-0.009c0-0.004,0-0.008,0.001-0.013c0-0.003,0-0.006,0-0.009
		c0-0.004,0-0.007,0.001-0.011c0.001-0.023,0.002-0.048,0.004-0.072c0,0,0,0,0,0c0-0.01,0.001-0.021,0.002-0.031L97.244,52.331
		L97.244,52.331z M99.997,49.492l-2.7,0.027L97.3,50c0,0.309-0.003,0.618-0.009,0.926l2.7,0.052
		c0.005-0.254,0.008-0.508,0.009-0.763c0-0.002,0,0,0-0.002c0-0.019,0-0.039,0-0.058c0-0.002,0-0.003,0-0.004
		c0-0.009,0-0.018,0-0.027l0-0.001c0-0.009,0-0.018,0-0.028c0-0.002,0-0.004,0-0.006c0-0.008,0-0.017,0-0.025
		c0-0.002,0-0.001,0-0.003c0-0.009,0-0.018,0-0.027c0-0.003,0-0.003,0-0.007c0-0.009,0-0.018,0-0.027c0-0.007,0-0.012,0-0.019
		c0-0.001,0-0.003,0-0.004c0-0.003,0-0.011,0-0.014c0-0.002,0-0.004,0-0.005c0-0.007,0-0.011,0-0.018c0,0,0,0,0,0
		c0-0.013,0-0.027,0-0.04c0,0,0,0,0-0.001c0-0.074,0-0.146-0.001-0.22c0-0.002,0-0.004,0-0.005c0-0.003,0-0.008,0-0.012
		c0-0.003,0-0.006,0-0.009c0-0.002,0-0.004,0-0.006C99.998,49.595,99.998,49.543,99.997,49.492L99.997,49.492z M99.881,46.524
		l-2.694,0.185c0.032,0.466,0.057,0.934,0.076,1.403l2.698-0.106c-0.007-0.167-0.014-0.333-0.022-0.5v0
		c0-0.007-0.001-0.013-0.001-0.02c0,0,0-0.001,0-0.001c0-0.007-0.001-0.012-0.001-0.019c0-0.001,0-0.002,0-0.003
		c-0.001-0.017-0.002-0.03-0.002-0.047c0-0.004,0-0.008-0.001-0.012c0-0.003,0-0.005,0-0.009c0-0.005,0-0.009-0.001-0.014
		c0-0.002,0-0.005,0-0.007c0-0.005-0.001-0.011-0.001-0.016c0-0.003,0-0.003,0-0.006c0-0.006-0.001-0.012-0.001-0.018
		c0-0.002,0-0.002,0-0.003C99.916,47.062,99.9,46.793,99.881,46.524L99.881,46.524z M99.59,43.568l-2.678,0.344
		c0.059,0.463,0.112,0.929,0.158,1.396l2.687-0.264c-0.019-0.191-0.038-0.379-0.059-0.569c0-0.001,0-0.001,0-0.002
		c-0.001-0.005-0.001-0.012-0.002-0.016c0-0.002,0-0.004-0.001-0.006c-0.001-0.005-0.001-0.01-0.002-0.015
		c0-0.002,0-0.004-0.001-0.006c-0.001-0.005-0.001-0.009-0.002-0.014c0-0.003-0.001-0.006-0.001-0.009
		c-0.001-0.005-0.001-0.012-0.002-0.017c-0.001-0.005-0.001-0.01-0.002-0.015c0-0.003,0-0.004-0.001-0.007
		c-0.001-0.005-0.001-0.01-0.002-0.015c0-0.002-0.001-0.005-0.001-0.007c-0.001-0.005-0.001-0.011-0.002-0.016
		c0-0.002,0-0.003-0.001-0.005c-0.001-0.006-0.001-0.012-0.002-0.018c0-0.002,0-0.002,0-0.003
		C99.651,44.058,99.622,43.813,99.59,43.568L99.59,43.568z M99.124,40.635l-2.653,0.503c0.087,0.459,0.167,0.92,0.241,1.384
		l2.667-0.423c-0.015-0.097-0.031-0.19-0.046-0.287c0-0.003-0.001-0.005-0.001-0.008c-0.001-0.005-0.001-0.006-0.002-0.011
		c-0.001-0.004-0.001-0.008-0.002-0.011c-0.001-0.003-0.001-0.006-0.001-0.009c-0.001-0.005-0.002-0.01-0.002-0.015
		c0-0.002-0.001-0.005-0.001-0.006c-0.001-0.006-0.002-0.012-0.003-0.017c0-0.002,0-0.003-0.001-0.004
		C99.258,41.363,99.193,40.998,99.124,40.635L99.124,40.635z M98.485,37.735l-2.618,0.66c0.114,0.453,0.222,0.909,0.323,1.367
		l2.637-0.582C98.719,38.695,98.605,38.214,98.485,37.735L98.485,37.735z M97.672,34.878l-2.574,0.816
		c0.141,0.445,0.276,0.894,0.404,1.345L98.1,36.3c-0.071-0.249-0.144-0.498-0.218-0.745c0,0,0,0,0-0.001
		c-0.002-0.006-0.004-0.012-0.005-0.018c0,0,0-0.001,0-0.001c-0.005-0.015-0.01-0.032-0.014-0.047
		c-0.001-0.003-0.002-0.006-0.003-0.009c-0.001-0.003-0.002-0.006-0.003-0.009c-0.001-0.004-0.002-0.008-0.004-0.012
		c-0.001-0.003-0.001-0.005-0.002-0.008c-0.002-0.005-0.003-0.01-0.005-0.015c0-0.002-0.001-0.003-0.001-0.004
		c-0.007-0.022-0.013-0.043-0.02-0.065l0,0c-0.002-0.007-0.004-0.015-0.007-0.022l0,0c-0.029-0.096-0.059-0.192-0.089-0.288l0-0.001
		c-0.002-0.007-0.004-0.013-0.006-0.02c0-0.002-0.001-0.003-0.001-0.005c-0.002-0.005-0.003-0.01-0.005-0.015
		c0-0.002-0.002-0.005-0.002-0.007c-0.001-0.005-0.003-0.009-0.004-0.014c-0.001-0.003-0.001-0.004-0.002-0.007
		c-0.001-0.004-0.002-0.007-0.003-0.011c-0.003-0.009-0.006-0.018-0.009-0.027c0,0,0,0,0,0
		C97.687,34.925,97.68,34.901,97.672,34.878L97.672,34.878z M96.691,32.075l-2.52,0.968c0.168,0.436,0.329,0.876,0.484,1.318
		l2.548-0.892c-0.096-0.275-0.194-0.547-0.295-0.82c0-0.001-0.001-0.002-0.001-0.003c-0.002-0.006-0.003-0.009-0.005-0.015
		c-0.001-0.002-0.001-0.004-0.002-0.005c-0.002-0.004-0.003-0.009-0.005-0.014c-0.001-0.002-0.001-0.003-0.002-0.005
		c-0.005-0.013-0.011-0.029-0.016-0.043c-0.001-0.003-0.002-0.006-0.004-0.009c-0.002-0.004-0.002-0.006-0.004-0.01
		c-0.001-0.003-0.003-0.007-0.004-0.01c-0.001-0.003-0.002-0.006-0.003-0.009c-0.002-0.004-0.003-0.008-0.005-0.012
		c-0.001-0.003-0.002-0.005-0.003-0.008c-0.002-0.005-0.004-0.01-0.006-0.015c-0.001-0.001-0.001-0.003-0.002-0.004
		c-0.002-0.007-0.005-0.013-0.007-0.02c-0.001-0.003-0.001-0.003-0.002-0.006c-0.002-0.005-0.004-0.009-0.005-0.014
		c-0.001-0.003-0.002-0.004-0.003-0.007c-0.002-0.004-0.003-0.008-0.005-0.012c-0.001-0.003-0.002-0.005-0.003-0.008
		c-0.002-0.005-0.003-0.009-0.005-0.014c-0.001-0.003-0.001-0.003-0.002-0.006c-0.003-0.007-0.005-0.013-0.008-0.02l0-0.001
		c-0.002-0.006-0.005-0.013-0.007-0.019c-0.001-0.001-0.002-0.006-0.003-0.007c-0.002-0.004-0.003-0.008-0.005-0.012
		c-0.001-0.003-0.002-0.006-0.003-0.009c-0.001-0.004-0.003-0.007-0.004-0.011c-0.001-0.003-0.002-0.006-0.003-0.009
		c-0.001-0.004-0.003-0.007-0.004-0.011c-0.005-0.013-0.01-0.027-0.015-0.04c-0.001-0.002-0.002-0.004-0.002-0.006
		c-0.002-0.004-0.003-0.008-0.005-0.013c-0.001-0.002-0.002-0.004-0.002-0.006c-0.002-0.004-0.004-0.01-0.005-0.014
		c0-0.001-0.001-0.002-0.001-0.003C96.727,32.169,96.709,32.122,96.691,32.075L96.691,32.075z M95.543,29.335l-2.458,1.117
		c0.193,0.426,0.381,0.855,0.562,1.287l2.49-1.043C95.946,30.24,95.747,29.785,95.543,29.335L95.543,29.335z M94.234,26.669
		l-2.387,1.262c0.219,0.414,0.431,0.831,0.638,1.251l2.424-1.19C94.69,27.547,94.465,27.106,94.234,26.669L94.234,26.669z
		 M92.769,24.086l-2.308,1.401c0.243,0.4,0.48,0.804,0.711,1.211l2.348-1.332c-0.132-0.233-0.265-0.463-0.401-0.694
		c0,0,0-0.001-0.001-0.001c-0.003-0.005-0.006-0.01-0.009-0.015c0-0.001-0.001-0.001-0.001-0.002
		c-0.012-0.02-0.024-0.041-0.036-0.061c-0.001-0.001-0.001-0.003-0.002-0.004c-0.003-0.005-0.005-0.008-0.008-0.014
		c-0.001-0.001-0.001-0.002-0.002-0.003c-0.016-0.027-0.031-0.052-0.047-0.079c0,0,0,0,0-0.001
		C92.933,24.357,92.851,24.221,92.769,24.086L92.769,24.086z M91.153,21.594l-2.221,1.536c0.266,0.385,0.527,0.774,0.782,1.167
		l2.265-1.469c-0.202-0.311-0.407-0.621-0.616-0.927c-0.001-0.001-0.001-0.001-0.001-0.002c-0.004-0.005-0.007-0.01-0.011-0.016
		c-0.001-0.001-0.002-0.003-0.003-0.004c-0.003-0.004-0.006-0.009-0.009-0.013c-0.002-0.003-0.002-0.003-0.004-0.006
		c-0.003-0.004-0.005-0.008-0.008-0.011c-0.004-0.006-0.007-0.01-0.012-0.017c-0.001-0.002-0.002-0.003-0.003-0.005
		c-0.003-0.004-0.006-0.009-0.009-0.012c-0.001-0.001-0.002-0.003-0.003-0.004c-0.004-0.005-0.006-0.008-0.009-0.013
		c0-0.001-0.001-0.001-0.001-0.002C91.245,21.728,91.199,21.661,91.153,21.594L91.153,21.594z M89.392,19.202l-2.126,1.664
		c0.289,0.369,0.572,0.742,0.85,1.119l2.174-1.601c-0.101-0.137-0.202-0.273-0.304-0.409l-0.002-0.002
		c-0.004-0.005-0.008-0.01-0.012-0.015c-0.001-0.001-0.002-0.002-0.003-0.004c-0.003-0.004-0.007-0.009-0.01-0.013
		c-0.001-0.001-0.003-0.004-0.004-0.005c-0.004-0.005-0.008-0.01-0.012-0.016l-0.001-0.002c-0.004-0.006-0.008-0.011-0.013-0.017
		c-0.002-0.002-0.003-0.004-0.005-0.007c-0.002-0.003-0.005-0.007-0.007-0.01c-0.002-0.003-0.004-0.006-0.006-0.008
		c-0.002-0.003-0.004-0.006-0.006-0.008c-0.003-0.004-0.004-0.005-0.007-0.009c-0.002-0.003-0.004-0.005-0.006-0.008
		c-0.009-0.011-0.019-0.025-0.027-0.036c-0.001-0.001-0.002-0.002-0.003-0.004c-0.004-0.005-0.006-0.008-0.01-0.013
		c-0.001-0.001-0.001-0.002-0.002-0.002C89.699,19.597,89.547,19.4,89.392,19.202L89.392,19.202z M87.492,16.919l-2.024,1.787
		c0.31,0.351,0.615,0.707,0.914,1.067l2.076-1.727C88.142,17.665,87.82,17.29,87.492,16.919L87.492,16.919z M85.462,14.751
		l-1.915,1.903c0.33,0.332,0.656,0.669,0.976,1.011l1.97-1.846C86.154,15.458,85.811,15.102,85.462,14.751L85.462,14.751z
		 M83.306,12.707l-1.799,2.013c0.349,0.312,0.694,0.63,1.034,0.952l1.858-1.959C84.04,13.373,83.676,13.038,83.306,12.707
		L83.306,12.707z M81.034,10.795l-1.677,2.116c0.367,0.291,0.73,0.587,1.088,0.889l1.739-2.065c-0.269-0.226-0.54-0.45-0.814-0.671
		c-0.001-0.001-0.002-0.002-0.003-0.002c-0.005-0.004-0.007-0.005-0.011-0.009c-0.002-0.002-0.004-0.003-0.006-0.005
		c-0.004-0.003-0.005-0.004-0.009-0.007c-0.005-0.004-0.011-0.009-0.016-0.013l-0.001-0.001c-0.006-0.005-0.011-0.009-0.017-0.014
		l-0.001-0.001C81.215,10.939,81.125,10.866,81.034,10.795L81.034,10.795z M78.653,9.019l-1.549,2.211
		c0.384,0.269,0.763,0.543,1.139,0.823l1.614-2.165c-0.151-0.112-0.303-0.224-0.454-0.335c0,0-0.001-0.001-0.001-0.001
		c-0.013-0.009-0.024-0.017-0.036-0.027c-0.003-0.002-0.007-0.005-0.01-0.007c-0.003-0.002-0.004-0.003-0.007-0.005
		c-0.004-0.003-0.008-0.006-0.012-0.008c-0.003-0.002-0.003-0.002-0.005-0.004c-0.005-0.004-0.01-0.007-0.015-0.011L79.314,9.49
		C79.095,9.332,78.875,9.175,78.653,9.019L78.653,9.019z M76.171,7.388l-1.415,2.299c0.399,0.246,0.794,0.497,1.185,0.754
		l1.483-2.256c-0.232-0.153-0.466-0.304-0.701-0.453l-0.001-0.001c-0.006-0.004-0.012-0.008-0.018-0.011l-0.002-0.001
		c-0.006-0.004-0.012-0.007-0.018-0.011l-0.002-0.001c-0.012-0.008-0.025-0.016-0.037-0.023c-0.001-0.001-0.004-0.003-0.005-0.003
		c-0.004-0.003-0.009-0.006-0.013-0.008c-0.003-0.002-0.003-0.002-0.006-0.004c-0.004-0.003-0.008-0.005-0.013-0.008
		c-0.001-0.001-0.005-0.003-0.006-0.004c-0.005-0.003-0.01-0.006-0.015-0.009c-0.001-0.001-0.002-0.001-0.003-0.002
		c-0.006-0.004-0.012-0.007-0.018-0.011c-0.003-0.002-0.003-0.002-0.006-0.004c-0.004-0.002-0.008-0.005-0.012-0.007
		c-0.003-0.002-0.005-0.003-0.008-0.005c-0.003-0.002-0.007-0.004-0.01-0.006c-0.003-0.002-0.006-0.003-0.008-0.005
		c-0.004-0.002-0.007-0.005-0.011-0.007c-0.003-0.002-0.004-0.003-0.007-0.004c-0.005-0.003-0.011-0.007-0.016-0.01
		c-0.003-0.002-0.006-0.004-0.009-0.006c-0.003-0.002-0.007-0.004-0.01-0.006c-0.003-0.002-0.005-0.003-0.008-0.005
		c-0.003-0.002-0.007-0.004-0.01-0.006c-0.003-0.002-0.005-0.003-0.008-0.005c-0.004-0.002-0.008-0.005-0.012-0.007
		c-0.003-0.002-0.004-0.002-0.006-0.004c-0.005-0.003-0.01-0.006-0.015-0.009c-0.003-0.002-0.005-0.003-0.008-0.005
		c-0.004-0.003-0.009-0.006-0.013-0.008c-0.001-0.001-0.005-0.003-0.006-0.004c-0.004-0.002-0.008-0.005-0.012-0.007
		c-0.003-0.002-0.005-0.003-0.007-0.005c-0.004-0.002-0.008-0.005-0.011-0.007c-0.001-0.001-0.005-0.003-0.006-0.004
		c-0.005-0.003-0.01-0.006-0.015-0.009c-0.001-0.001-0.002-0.001-0.003-0.002c-0.006-0.004-0.012-0.008-0.019-0.012l-0.003-0.002
		c-0.005-0.003-0.01-0.006-0.016-0.01C76.29,7.462,76.288,7.46,76.287,7.46c-0.005-0.003-0.01-0.006-0.015-0.009
		c-0.001-0.001-0.001-0.001-0.003-0.002C76.236,7.428,76.204,7.408,76.171,7.388L76.171,7.388z M73.597,5.907l-1.276,2.379
		c0.413,0.221,0.822,0.449,1.228,0.682l1.346-2.34c-0.254-0.146-0.507-0.288-0.763-0.43c0,0,0,0-0.001,0
		c-0.004-0.002-0.009-0.005-0.013-0.007c-0.002-0.001-0.004-0.002-0.005-0.003c-0.003-0.002-0.009-0.005-0.012-0.006
		c-0.002-0.001-0.004-0.002-0.007-0.004c-0.004-0.002-0.008-0.004-0.012-0.007c-0.002-0.001-0.004-0.002-0.006-0.003
		c-0.007-0.004-0.015-0.008-0.022-0.012c-0.002-0.001-0.005-0.003-0.007-0.004c-0.003-0.002-0.007-0.004-0.01-0.005
		c-0.003-0.002-0.006-0.003-0.009-0.005c-0.003-0.002-0.007-0.004-0.01-0.005c-0.003-0.001-0.005-0.003-0.008-0.004
		c-0.003-0.002-0.008-0.004-0.01-0.006c-0.003-0.002-0.006-0.003-0.009-0.005c-0.003-0.002-0.007-0.004-0.01-0.005
		c-0.006-0.003-0.011-0.006-0.017-0.009c-0.003-0.002-0.007-0.004-0.01-0.005C73.953,6.1,73.95,6.099,73.947,6.097
		c-0.004-0.002-0.007-0.004-0.011-0.006c-0.002-0.001-0.005-0.003-0.007-0.004c-0.004-0.002-0.008-0.004-0.012-0.006
		c-0.002-0.001-0.004-0.002-0.006-0.003c-0.004-0.002-0.008-0.004-0.012-0.007c-0.001-0.001-0.002-0.001-0.003-0.002
		c-0.015-0.008-0.031-0.017-0.046-0.025c0,0-0.001,0-0.001-0.001c-0.006-0.003-0.01-0.005-0.016-0.008
		c-0.001,0-0.001-0.001-0.002-0.001C73.753,5.991,73.676,5.95,73.597,5.907L73.597,5.907z M70.938,4.582l-1.132,2.451
		c0.425,0.196,0.848,0.399,1.266,0.608l1.205-2.416c-0.047-0.023-0.092-0.046-0.139-0.069c-0.001,0-0.001-0.001-0.002-0.001
		c-0.004-0.002-0.008-0.004-0.012-0.006c-0.003-0.001-0.005-0.002-0.007-0.004c-0.003-0.001-0.007-0.004-0.01-0.005
		c-0.004-0.002-0.008-0.004-0.012-0.006c-0.001-0.001-0.004-0.002-0.005-0.003C71.708,4.943,71.325,4.76,70.938,4.582L70.938,4.582z
		 M68.206,3.418l-0.984,2.514c0.437,0.171,0.87,0.348,1.3,0.531l1.058-2.484c-0.074-0.032-0.148-0.063-0.223-0.094
		c-0.001,0-0.001,0-0.002-0.001c-0.029-0.012-0.056-0.023-0.085-0.036c-0.001,0-0.002-0.001-0.003-0.001
		c-0.006-0.002-0.009-0.004-0.015-0.006c-0.001-0.001-0.003-0.001-0.004-0.002c-0.02-0.009-0.043-0.018-0.063-0.026
		c-0.002-0.001-0.004-0.002-0.007-0.003c-0.004-0.002-0.008-0.003-0.012-0.005c-0.002-0.001-0.005-0.002-0.007-0.003
		c-0.004-0.002-0.008-0.003-0.012-0.005c-0.002-0.001-0.005-0.002-0.007-0.003c-0.004-0.002-0.008-0.003-0.012-0.005
		c-0.002-0.001-0.005-0.002-0.007-0.003c-0.009-0.004-0.013-0.006-0.022-0.009c-0.003-0.001-0.005-0.002-0.008-0.003
		c-0.004-0.002-0.007-0.003-0.011-0.005c-0.003-0.001-0.006-0.002-0.009-0.004c-0.003-0.001-0.008-0.003-0.011-0.004
		c-0.003-0.001-0.006-0.003-0.01-0.004c-0.003-0.001-0.006-0.003-0.009-0.004c-0.004-0.002-0.008-0.003-0.012-0.005
		c-0.003-0.001-0.005-0.002-0.008-0.003c-0.006-0.003-0.012-0.005-0.019-0.008C69.002,3.737,69,3.736,68.997,3.735
		c-0.004-0.002-0.008-0.003-0.012-0.005c-0.003-0.001-0.006-0.002-0.009-0.004c-0.004-0.002-0.008-0.003-0.012-0.005
		c-0.003-0.001-0.005-0.002-0.008-0.003c-0.004-0.002-0.008-0.003-0.012-0.005c-0.003-0.001-0.004-0.002-0.007-0.003
		c-0.013-0.005-0.026-0.011-0.04-0.016c-0.001-0.001-0.004-0.002-0.005-0.002c-0.005-0.002-0.01-0.004-0.015-0.006
		c-0.001-0.001-0.004-0.002-0.006-0.002c-0.005-0.002-0.01-0.004-0.015-0.006c-0.001-0.001-0.004-0.002-0.006-0.002
		c-0.006-0.003-0.012-0.005-0.018-0.008c-0.001-0.001,0,0-0.001,0c-0.007-0.003-0.014-0.006-0.021-0.009l-0.001,0
		c-0.007-0.003-0.013-0.005-0.02-0.008c-0.001-0.001-0.001-0.001-0.003-0.001c-0.006-0.002-0.012-0.005-0.018-0.007l-0.003-0.001
		c-0.006-0.003-0.013-0.005-0.019-0.008l-0.001,0c-0.021-0.009-0.043-0.017-0.064-0.026l0,0C68.523,3.543,68.365,3.48,68.206,3.418
		L68.206,3.418z M65.409,2.419l-0.831,2.569c0.446,0.144,0.889,0.295,1.329,0.452l0.908-2.543
		C66.349,2.731,65.88,2.572,65.409,2.419L65.409,2.419z M62.557,1.59l-0.676,2.614c0.454,0.117,0.905,0.241,1.354,0.372l0.754-2.593
		c-0.094-0.027-0.187-0.054-0.282-0.081c0,0-0.001,0-0.001,0c-0.005-0.001-0.011-0.003-0.016-0.004
		c-0.002,0-0.003-0.001-0.005-0.001c-0.005-0.001-0.01-0.003-0.015-0.004c-0.001,0-0.003-0.001-0.004-0.001
		c-0.015-0.004-0.034-0.01-0.049-0.014c-0.001,0-0.003-0.001-0.004-0.001c-0.005-0.001-0.008-0.002-0.012-0.003
		c-0.003-0.001-0.005-0.002-0.008-0.002c-0.003-0.001-0.009-0.002-0.012-0.003c-0.003-0.001-0.006-0.002-0.009-0.003
		c-0.003-0.001-0.008-0.002-0.011-0.003c-0.003-0.001-0.007-0.002-0.01-0.003c-0.003-0.001-0.007-0.002-0.01-0.003
		c-0.005-0.001-0.01-0.003-0.016-0.004c-0.003-0.001-0.006-0.002-0.009-0.003c-0.005-0.001-0.01-0.003-0.016-0.004
		c-0.003-0.001-0.004-0.001-0.007-0.002c-0.005-0.001-0.009-0.003-0.014-0.004c-0.002,0-0.005-0.001-0.007-0.002
		c-0.005-0.001-0.009-0.003-0.014-0.004c-0.002,0-0.006-0.002-0.007-0.002c-0.005-0.001-0.011-0.003-0.016-0.004l-0.005-0.001
		c-0.014-0.004-0.029-0.008-0.043-0.012l-0.003-0.001c-0.006-0.002-0.012-0.003-0.018-0.005c-0.002,0-0.004-0.001-0.005-0.002
		c-0.005-0.001-0.011-0.003-0.016-0.004c-0.002,0-0.003-0.001-0.005-0.001c-0.006-0.002-0.013-0.003-0.019-0.005l-0.002-0.001
		c-0.014-0.004-0.029-0.008-0.043-0.012c-0.002,0-0.003-0.001-0.005-0.001c-0.006-0.002-0.011-0.003-0.016-0.005
		c-0.002,0-0.003-0.001-0.005-0.001c-0.006-0.002-0.011-0.003-0.017-0.005c-0.002,0-0.003-0.001-0.004-0.001
		c-0.007-0.002-0.013-0.004-0.02-0.005l-0.002,0c-0.014-0.004-0.029-0.008-0.044-0.012c-0.002,0-0.002,0-0.003-0.001
		c-0.006-0.002-0.011-0.003-0.017-0.005c-0.002,0-0.004-0.001-0.006-0.002c-0.005-0.001-0.011-0.003-0.016-0.004
		c-0.002,0-0.003-0.001-0.005-0.001c-0.006-0.002-0.012-0.003-0.017-0.005c-0.002,0-0.002-0.001-0.004-0.001
		c-0.007-0.002-0.014-0.004-0.021-0.006c-0.002,0-0.001,0-0.003-0.001c-0.006-0.002-0.012-0.003-0.018-0.005
		c-0.002,0-0.006-0.002-0.008-0.002c-0.004-0.001-0.008-0.002-0.012-0.003c-0.003-0.001-0.006-0.002-0.009-0.002
		c-0.004-0.001-0.007-0.002-0.011-0.003c-0.005-0.001-0.006-0.002-0.011-0.003c-0.003-0.001-0.006-0.002-0.009-0.002
		c-0.003-0.001-0.008-0.002-0.011-0.003c-0.002,0-0.003-0.001-0.005-0.001c-0.009-0.002-0.018-0.005-0.027-0.007
		c-0.002-0.001-0.004-0.001-0.006-0.002c-0.005-0.001-0.01-0.003-0.015-0.004c-0.001,0-0.003-0.001-0.004-0.001
		c-0.006-0.002-0.009-0.003-0.016-0.004c-0.001,0-0.002-0.001-0.003-0.001C62.788,1.65,62.674,1.62,62.557,1.59L62.557,1.59z
		 M59.66,0.932l-0.519,2.65c0.46,0.09,0.918,0.187,1.374,0.29l0.598-2.633c-0.117-0.026-0.234-0.053-0.351-0.078
		c0,0-0.001,0-0.001,0c-0.006-0.001-0.012-0.003-0.018-0.004c0,0,0,0,0,0c-0.032-0.007-0.063-0.014-0.094-0.021c0,0,0,0-0.001,0
		c-0.006-0.001-0.012-0.003-0.019-0.004c0,0,0,0,0,0c-0.304-0.066-0.606-0.128-0.912-0.189c-0.001,0-0.002,0-0.004-0.001
		c-0.005-0.001-0.01-0.002-0.015-0.003c-0.002,0-0.004-0.001-0.007-0.001c-0.005-0.001-0.008-0.002-0.013-0.003
		c-0.003-0.001-0.005-0.001-0.008-0.002C59.667,0.934,59.664,0.933,59.66,0.932L59.66,0.932z M56.73,0.449l-0.36,2.676
		c0.465,0.063,0.928,0.132,1.389,0.208l0.439-2.664c-0.271-0.045-0.541-0.087-0.813-0.127c-0.002,0-0.004-0.001-0.006-0.001
		c-0.005-0.001-0.008-0.001-0.013-0.002c-0.003,0-0.006-0.001-0.009-0.001c-0.003,0-0.008-0.001-0.011-0.002
		c-0.004-0.001-0.008-0.001-0.012-0.002c-0.002,0-0.008-0.001-0.009-0.001c-0.006-0.001-0.013-0.002-0.019-0.003
		c-0.002,0,0.001,0-0.001,0c-0.008-0.001-0.015-0.002-0.023-0.003c-0.002,0,0,0-0.002,0c-0.007-0.001-0.014-0.002-0.021-0.003
		l-0.002,0c-0.007-0.001-0.014-0.002-0.02-0.003l-0.002,0c-0.007-0.001-0.014-0.002-0.022-0.003l0,0
		c-0.084-0.012-0.168-0.024-0.252-0.036c-0.002,0,0,0-0.001,0c-0.022-0.003-0.045-0.006-0.067-0.009
		c-0.003,0-0.004-0.001-0.007-0.001c-0.004-0.001-0.009-0.001-0.013-0.002c-0.003,0-0.008-0.001-0.011-0.002
		c-0.003,0-0.006-0.001-0.009-0.001c-0.005-0.001-0.009-0.001-0.014-0.002c-0.002,0-0.004,0-0.005-0.001
		C56.799,0.458,56.764,0.454,56.73,0.449L56.73,0.449z M53.776,0.14l-0.201,2.692c0.469,0.035,0.935,0.077,1.4,0.125l0.28-2.685
		c-0.021-0.002-0.042-0.004-0.063-0.007c-0.001,0-0.001,0-0.002,0c-0.005-0.001-0.01-0.001-0.014-0.001
		c-0.003,0-0.005-0.001-0.008-0.001c-0.003,0-0.008-0.001-0.011-0.001c-0.004,0-0.009-0.001-0.013-0.001
		c-0.003,0-0.004,0-0.007-0.001c-0.006-0.001-0.013-0.001-0.019-0.002l-0.002,0c-0.261-0.026-0.522-0.051-0.784-0.073l-0.002,0
		c-0.007-0.001-0.014-0.001-0.022-0.002l-0.001,0c-0.023-0.002-0.046-0.004-0.069-0.006l-0.002,0
		c-0.007-0.001-0.013-0.001-0.02-0.002c-0.002,0-0.002,0-0.004,0c-0.006-0.001-0.012-0.001-0.018-0.002c-0.002,0-0.003,0-0.005,0
		c-0.006-0.001-0.013-0.001-0.019-0.002c-0.002,0-0.001,0-0.003,0c-0.031-0.003-0.061-0.005-0.092-0.007l-0.001,0
		c-0.007-0.001-0.015-0.001-0.022-0.002l-0.001,0C53.961,0.155,53.868,0.147,53.776,0.14L53.776,0.14z M50.809,0.006l-0.043,2.7
		c0.47,0.007,0.938,0.022,1.405,0.043l0.122-2.697C51.8,0.029,51.306,0.014,50.809,0.006L50.809,0.006z"/>
</g>
</svg>
