<?xml version="1.0" encoding="utf-8"?>
<!-- Generator: Adobe Illustrator 21.0.0, SVG Export Plug-In . SVG Version: 6.00 Build 0)  -->
<svg version="1.1" id="Layer_1" xmlns="http://www.w3.org/2000/svg" xmlns:xlink="http://www.w3.org/1999/xlink" x="0px" y="0px"
	 viewBox="0 0 100 100" style="enable-background:new 0 0 100 100;" xml:space="preserve">
<style type="text/css">
	.st0{fill:#A9A9A9;}
</style>
<g>
	<path class="st0" d="M33.6,20.5h32.8v6.7H54v45.6h12.4v6.7H33.6v-6.7H46V27.2H33.6V20.5z"/>
</g>
<g>
	<path class="st0" d="M50,0c-0.007,0-0.015,0-0.022,0c-0.003,0-0.003,0-0.007,0c-0.005,0-0.01,0-0.015,0c-0.002,0-0.007,0-0.008,0
		c-0.005,0-0.009,0-0.014,0c-0.003,0-0.005,0-0.008,0c-0.005,0-0.009,0-0.014,0c-0.002,0-0.006,0-0.008,0c-0.005,0-0.01,0-0.016,0
		c-0.003,0-0.003,0-0.006,0c-0.007,0-0.014,0-0.022,0l0,0c-0.008,0-0.015,0-0.023,0c-0.002,0-0.003,0-0.005,0
		c-0.006,0-0.012,0-0.017,0c-0.002,0-0.005,0-0.007,0c-0.005,0-0.01,0-0.016,0c-0.003,0-0.003,0-0.007,0c-0.005,0-0.011,0-0.016,0
		c-0.002,0-0.004,0-0.006,0c-0.006,0-0.012,0-0.019,0l-0.003,0c-0.023,0-0.046,0-0.069,0l-0.002,0c-0.007,0-0.014,0-0.021,0
		l-0.003,0c-0.007,0-0.013,0-0.02,0c-0.002,0-0.001,0-0.003,0c-0.375,0.003-0.75,0.01-1.123,0.021l0.05,1.699
		C49.031,1.707,49.515,1.7,50,1.7V0L50,0L50,0z M47.001,0.088c-0.437,0.026-0.873,0.057-1.308,0.094c-0.002,0-0.004,0-0.005,0
		c-0.005,0-0.011,0.001-0.016,0.001c-0.003,0-0.004,0-0.008,0.001c-0.004,0-0.009,0.001-0.013,0.001
		c-0.003,0-0.007,0.001-0.01,0.001c-0.003,0-0.007,0.001-0.01,0.001c-0.005,0-0.007,0.001-0.012,0.001c-0.001,0-0.002,0-0.003,0
		c-0.038,0.003-0.073,0.006-0.111,0.01l0.151,1.693c0.48-0.043,0.962-0.078,1.445-0.107L47.001,0.088L47.001,0.088z M44.014,0.355
		c-0.028,0.003-0.057,0.007-0.085,0.01c-0.001,0-0.002,0-0.004,0c-0.005,0.001-0.008,0.001-0.013,0.002
		c-0.003,0-0.007,0.001-0.01,0.001c-0.003,0-0.006,0.001-0.009,0.001c-0.005,0.001-0.01,0.001-0.015,0.002
		c-0.002,0-0.004,0-0.006,0.001c-0.45,0.055-0.898,0.116-1.345,0.183l0.252,1.681c0.476-0.071,0.955-0.136,1.436-0.193L44.014,0.355
		L44.014,0.355z M41.047,0.799c-0.151,0.027-0.299,0.055-0.449,0.083c-0.002,0-0.005,0.001-0.007,0.001
		c-0.005,0.001-0.007,0.001-0.012,0.002c-0.004,0.001-0.007,0.001-0.011,0.002c-0.003,0.001-0.006,0.001-0.009,0.002
		c-0.005,0.001-0.01,0.002-0.015,0.003c-0.002,0-0.004,0.001-0.005,0.001c-0.015,0.003-0.03,0.006-0.045,0.009l0,0
		c-0.008,0.001-0.015,0.003-0.023,0.004c-0.002,0,0.001,0,0,0c-0.26,0.05-0.52,0.102-0.778,0.157c-0.002,0-0.006,0.001-0.008,0.002
		c-0.004,0.001-0.008,0.002-0.012,0.003C39.668,1.069,39.664,1.07,39.66,1.07c-0.003,0.001-0.006,0.001-0.008,0.002
		c-0.005,0.001-0.009,0.002-0.014,0.003c-0.001,0-0.002,0-0.003,0.001c-0.021,0.004-0.04,0.008-0.06,0.013l0.353,1.663
		c0.471-0.1,0.945-0.193,1.422-0.279L41.047,0.799L41.047,0.799z M38.113,1.422c-0.002,0-0.003,0.001-0.005,0.001
		c-0.004,0.001-0.008,0.002-0.011,0.003c-0.003,0.001-0.006,0.001-0.009,0.002c-0.014,0.003-0.028,0.007-0.042,0.01l-0.004,0.001
		c-0.006,0.001-0.012,0.003-0.018,0.004c-0.002,0-0.004,0.001-0.005,0.001c-0.006,0.001-0.012,0.003-0.018,0.004
		c-0.002,0-0.002,0-0.003,0.001c-0.022,0.006-0.045,0.011-0.067,0.017l0,0c-0.007,0.002-0.015,0.004-0.022,0.006l-0.001,0
		c-0.068,0.017-0.136,0.034-0.204,0.051c-0.002,0-0.001,0-0.002,0.001c-0.007,0.002-0.013,0.003-0.02,0.005
		c-0.002,0-0.001,0-0.003,0.001c-0.007,0.002-0.014,0.004-0.022,0.005h0c-0.015,0.004-0.03,0.008-0.045,0.011
		c-0.002,0-0.002,0-0.003,0.001c-0.006,0.002-0.012,0.003-0.018,0.005c-0.002,0-0.003,0.001-0.005,0.001
		c-0.006,0.001-0.011,0.003-0.017,0.004c-0.002,0-0.004,0.001-0.006,0.002c-0.006,0.002-0.012,0.003-0.018,0.005
		c-0.002,0-0.001,0-0.003,0.001c-0.007,0.002-0.014,0.004-0.021,0.006c-0.002,0-0.003,0.001-0.004,0.001
		c-0.006,0.001-0.011,0.003-0.017,0.004c-0.002,0-0.006,0.002-0.008,0.002c-0.004,0.001-0.008,0.002-0.013,0.003
		c-0.003,0.001-0.006,0.002-0.01,0.002c-0.004,0.001-0.007,0.002-0.011,0.003c-0.005,0.001-0.006,0.001-0.01,0.003
		c-0.003,0.001-0.006,0.002-0.01,0.003c-0.008,0.002-0.017,0.004-0.025,0.006c-0.002,0-0.003,0.001-0.004,0.001
		c-0.005,0.001-0.009,0.002-0.014,0.004c-0.002,0.001-0.004,0.001-0.006,0.002c-0.005,0.001-0.009,0.002-0.014,0.004
		c-0.002,0.001-0.004,0.001-0.006,0.002c-0.005,0.001-0.009,0.002-0.014,0.004c-0.002,0.001-0.004,0.001-0.006,0.002
		c-0.022,0.006-0.046,0.012-0.068,0.018c-0.001,0-0.003,0.001-0.004,0.001c-0.006,0.002-0.009,0.002-0.015,0.004
		c-0.001,0-0.003,0.001-0.004,0.001c-0.006,0.002-0.01,0.003-0.016,0.004c-0.001,0-0.001,0-0.002,0.001
		c-0.019,0.005-0.035,0.009-0.053,0.014c0,0-0.001,0-0.001,0c-0.005,0.001-0.011,0.003-0.016,0.004
		c-0.001,0-0.003,0.001-0.004,0.001c-0.006,0.002-0.009,0.002-0.016,0.004c-0.001,0-0.003,0.001-0.004,0.001
		c-0.005,0.001-0.011,0.003-0.016,0.004c-0.001,0-0.002,0-0.002,0.001c-0.017,0.005-0.032,0.008-0.049,0.013
		c-0.002,0.001-0.005,0.001-0.007,0.002c-0.005,0.001-0.008,0.002-0.012,0.003c-0.003,0.001-0.006,0.002-0.009,0.002
		c-0.003,0.001-0.008,0.002-0.012,0.003c-0.003,0.001-0.006,0.002-0.009,0.002C37.026,1.7,37.024,1.7,37.02,1.701
		c-0.005,0.001-0.01,0.003-0.015,0.004c-0.002,0-0.006,0.001-0.007,0.002c-0.006,0.002-0.013,0.003-0.019,0.005
		c-0.002,0-0.004,0.001-0.005,0.001c-0.006,0.002-0.011,0.003-0.017,0.005c-0.002,0-0.003,0.001-0.005,0.001
		c-0.006,0.002-0.012,0.003-0.019,0.005c-0.002,0-0.001,0-0.002,0.001c-0.09,0.024-0.18,0.049-0.27,0.074l0.452,1.639
		c0.464-0.128,0.932-0.25,1.402-0.364L38.113,1.422L38.113,1.422z M35.221,2.22c-0.343,0.106-0.681,0.214-1.02,0.327
		c-0.001,0-0.001,0-0.002,0.001c-0.005,0.002-0.01,0.003-0.014,0.005c-0.002,0.001-0.004,0.001-0.006,0.002
		c-0.003,0.001-0.01,0.003-0.013,0.004c-0.002,0.001-0.005,0.002-0.007,0.002c-0.005,0.002-0.008,0.003-0.013,0.004
		c-0.003,0.001-0.007,0.002-0.01,0.003c-0.005,0.002-0.007,0.002-0.012,0.004c-0.006,0.002-0.012,0.004-0.017,0.006
		c-0.003,0.001-0.003,0.001-0.006,0.002c-0.005,0.002-0.01,0.003-0.016,0.005c-0.002,0.001-0.004,0.001-0.006,0.002
		c-0.006,0.002-0.011,0.004-0.017,0.006c-0.002,0.001-0.003,0.001-0.004,0.001c-0.088,0.03-0.176,0.06-0.264,0.09l0.551,1.608
		c0.456-0.156,0.915-0.306,1.377-0.449L35.221,2.22L35.221,2.22z M32.384,3.192c-0.21,0.079-0.418,0.159-0.626,0.241
		c-0.001,0-0.002,0.001-0.003,0.001c-0.004,0.002-0.009,0.004-0.014,0.005c-0.002,0.001-0.004,0.002-0.007,0.003
		c-0.004,0.002-0.008,0.003-0.012,0.005c-0.003,0.001-0.005,0.002-0.007,0.003c-0.004,0.002-0.007,0.003-0.012,0.005
		c-0.004,0.002-0.008,0.003-0.012,0.005c-0.004,0.002-0.009,0.003-0.013,0.005c-0.005,0.002-0.009,0.004-0.014,0.006
		c-0.001,0.001-0.005,0.002-0.006,0.003c-0.005,0.002-0.01,0.004-0.014,0.006C31.64,3.479,31.64,3.479,31.637,3.48
		c-0.006,0.002-0.011,0.004-0.017,0.007c-0.001,0.001-0.001,0.001-0.003,0.001c-0.21,0.083-0.42,0.168-0.629,0.254l0.647,1.572
		c0.446-0.183,0.895-0.36,1.348-0.531L32.384,3.192L32.384,3.192z M29.61,4.333c-0.367,0.164-0.733,0.333-1.095,0.506
		c-0.002,0.001-0.003,0.002-0.005,0.002c-0.004,0.002-0.008,0.004-0.012,0.006c-0.003,0.001-0.005,0.003-0.008,0.004
		c-0.004,0.002-0.006,0.003-0.01,0.005c-0.005,0.002-0.01,0.005-0.015,0.007c-0.001,0.001-0.002,0.001-0.003,0.001
		c-0.007,0.003-0.013,0.006-0.02,0.01l-0.003,0.001c-0.006,0.003-0.012,0.006-0.018,0.009c-0.001,0.001-0.001,0.001-0.003,0.001
		c-0.056,0.027-0.112,0.054-0.167,0.081l0.74,1.53c0.434-0.21,0.872-0.414,1.313-0.611L29.61,4.333L29.61,4.333z M26.91,5.639
		c-0.444,0.231-0.884,0.469-1.319,0.714l0.831,1.483c0.421-0.236,0.846-0.466,1.274-0.689L26.91,5.639L26.91,5.639z M24.293,7.106
		c-0.428,0.257-0.854,0.522-1.274,0.791l0.919,1.43c0.406-0.261,0.816-0.516,1.231-0.765L24.293,7.106L24.293,7.106z M21.769,8.727
		c-0.2,0.137-0.398,0.275-0.596,0.415c-0.001,0.001,0,0-0.002,0.001c-0.005,0.004-0.011,0.008-0.016,0.011
		c-0.001,0.001-0.002,0.001-0.003,0.002c-0.006,0.004-0.011,0.008-0.017,0.012c-0.001,0.001,0,0-0.001,0.001
		c-0.006,0.004-0.012,0.009-0.019,0.013c-0.001,0.001-0.001,0-0.002,0.001c-0.005,0.004-0.01,0.007-0.015,0.011
		c-0.001,0.001-0.004,0.003-0.005,0.004c-0.004,0.003-0.008,0.006-0.012,0.009c-0.001,0.001-0.005,0.003-0.006,0.004
		c-0.005,0.003-0.009,0.007-0.014,0.01c-0.001,0.001-0.002,0.002-0.004,0.003c-0.006,0.004-0.012,0.008-0.017,0.012
		c-0.003,0.002-0.003,0.002-0.005,0.004c-0.004,0.003-0.008,0.006-0.012,0.008c-0.003,0.002-0.005,0.004-0.008,0.006
		c-0.003,0.002-0.006,0.004-0.009,0.006c-0.003,0.002-0.007,0.005-0.009,0.006c-0.003,0.002-0.006,0.004-0.008,0.006
		c-0.003,0.002-0.006,0.005-0.009,0.006c-0.003,0.002-0.006,0.004-0.009,0.006c-0.006,0.005-0.01,0.007-0.016,0.012
		c-0.002,0.002-0.005,0.003-0.007,0.005c-0.004,0.003-0.006,0.004-0.01,0.007c-0.003,0.002-0.005,0.004-0.008,0.005
		c-0.004,0.003-0.006,0.004-0.01,0.007c-0.002,0.002-0.004,0.003-0.007,0.005c-0.004,0.003-0.007,0.005-0.01,0.007
		c0,0-0.001,0.001-0.001,0.001c-0.009,0.006-0.015,0.011-0.024,0.017c-0.002,0.002-0.004,0.003-0.006,0.005
		c-0.004,0.003-0.007,0.005-0.011,0.008c-0.002,0.001-0.004,0.003-0.005,0.004c-0.004,0.003-0.007,0.005-0.011,0.008
		c-0.002,0.001-0.004,0.003-0.006,0.004c-0.004,0.003-0.007,0.005-0.011,0.008c-0.002,0.001-0.003,0.002-0.005,0.004
		c-0.006,0.005-0.013,0.009-0.019,0.014C20.8,9.408,20.797,9.41,20.794,9.412c-0.004,0.003-0.005,0.004-0.009,0.007
		c-0.003,0.002-0.005,0.004-0.008,0.006c-0.003,0.002-0.007,0.005-0.009,0.007c-0.003,0.002-0.006,0.004-0.008,0.006
		c-0.003,0.002-0.006,0.004-0.008,0.006c-0.004,0.003-0.008,0.006-0.012,0.008c-0.004,0.003-0.009,0.006-0.012,0.009
		c-0.003,0.002-0.006,0.005-0.009,0.007c-0.003,0.002-0.005,0.004-0.008,0.006c-0.003,0.002-0.007,0.005-0.01,0.007
		c-0.003,0.002-0.004,0.003-0.007,0.005c-0.004,0.003-0.008,0.006-0.013,0.009c-0.003,0.002-0.002,0.001-0.005,0.003
		c-0.012,0.009-0.024,0.017-0.036,0.026c-0.001,0.001-0.001,0.001-0.003,0.002c-0.005,0.004-0.011,0.008-0.016,0.012l-0.002,0.002
		c-0.025,0.018-0.05,0.036-0.075,0.054l1.003,1.373c0.39-0.285,0.784-0.564,1.183-0.837L21.769,8.727L21.769,8.727z M19.346,10.496
		c-0.101,0.079-0.203,0.159-0.304,0.238c0,0,0,0,0,0c-0.018,0.015-0.038,0.03-0.057,0.045c-0.001,0.001-0.002,0.002-0.003,0.002
		c-0.004,0.003-0.008,0.007-0.012,0.009c-0.001,0.001-0.003,0.002-0.004,0.004c-0.004,0.003-0.007,0.006-0.011,0.009
		c-0.002,0.002-0.004,0.003-0.006,0.005c-0.007,0.006-0.012,0.009-0.019,0.015c-0.002,0.001-0.004,0.003-0.006,0.004
		c-0.002,0.002-0.006,0.005-0.008,0.007c-0.003,0.002-0.006,0.005-0.009,0.007c-0.002,0.002-0.005,0.004-0.007,0.006
		c-0.003,0.003-0.007,0.006-0.01,0.008c-0.001,0.001-0.005,0.004-0.006,0.005c-0.004,0.003-0.009,0.007-0.013,0.01
		c-0.001,0.001-0.002,0.002-0.004,0.003c-0.006,0.005-0.012,0.009-0.017,0.014c-0.001,0.001-0.001,0-0.002,0.001
		c-0.005,0.004-0.01,0.008-0.015,0.012c-0.001,0.001-0.002,0.002-0.004,0.003c-0.005,0.004-0.01,0.008-0.015,0.012
		c-0.001,0.001-0.002,0.001-0.003,0.002c-0.018,0.014-0.036,0.029-0.054,0.043c-0.001,0.001,0.001,0-0.001,0.001
		c-0.195,0.156-0.389,0.314-0.581,0.473l1.083,1.311c0.372-0.308,0.749-0.61,1.131-0.906L19.346,10.496L19.346,10.496z
		 M17.034,12.406c-0.041,0.036-0.082,0.072-0.123,0.108l0,0c-0.005,0.004-0.01,0.009-0.015,0.013
		c-0.002,0.002-0.004,0.004-0.006,0.006c-0.003,0.003-0.006,0.005-0.009,0.008c-0.002,0.002-0.006,0.005-0.008,0.007
		c-0.002,0.002-0.004,0.004-0.006,0.006c-0.013,0.011-0.024,0.022-0.037,0.033c0,0-0.001,0-0.001,0.001
		c-0.005,0.004-0.009,0.008-0.014,0.012c0,0,0,0,0,0c-0.209,0.186-0.418,0.374-0.624,0.563c-0.001,0.001-0.003,0.003-0.004,0.004
		c-0.003,0.003-0.006,0.006-0.01,0.009c-0.002,0.002-0.005,0.004-0.007,0.006c-0.002,0.002-0.005,0.005-0.008,0.007
		c-0.005,0.005-0.01,0.009-0.015,0.014c-0.001,0.001-0.002,0.002-0.003,0.003c-0.005,0.004-0.009,0.008-0.014,0.013
		c-0.001,0.001-0.002,0.002-0.003,0.003c-0.005,0.005-0.01,0.009-0.015,0.014l-0.001,0.001c-0.063,0.058-0.126,0.117-0.189,0.175
		l1.159,1.244c0.353-0.329,0.712-0.653,1.075-0.972L17.034,12.406L17.034,12.406z M14.839,14.451
		c-0.002,0.002-0.004,0.004-0.006,0.006c-0.002,0.002-0.003,0.003-0.005,0.005c-0.003,0.003-0.007,0.007-0.011,0.011
		c-0.001,0.001-0.001,0.001-0.002,0.002c-0.323,0.32-0.641,0.643-0.955,0.972c-0.001,0.001-0.003,0.003-0.004,0.004
		c-0.003,0.003-0.006,0.006-0.009,0.009c-0.002,0.002-0.004,0.004-0.006,0.006c-0.002,0.002-0.005,0.006-0.007,0.008
		c-0.003,0.003-0.007,0.007-0.01,0.01c-0.002,0.002-0.002,0.002-0.004,0.005c-0.01,0.011-0.021,0.022-0.031,0.032
		c-0.001,0.001,0,0-0.001,0.001l1.231,1.172c0.333-0.35,0.672-0.695,1.015-1.034L14.839,14.451L14.839,14.451z M12.771,16.623
		c-0.313,0.348-0.62,0.701-0.923,1.058c-0.001,0.001-0.002,0.002-0.003,0.004c-0.003,0.004-0.007,0.008-0.01,0.012
		c-0.001,0.001-0.004,0.004-0.005,0.006c-0.003,0.003-0.006,0.007-0.008,0.01c-0.01,0.012-0.02,0.023-0.03,0.035
		c0,0,0,0-0.001,0.001c-0.002,0.002-0.002,0.003-0.005,0.005l1.299,1.097c0.312-0.369,0.629-0.734,0.952-1.093L12.771,16.623
		L12.771,16.623z M10.835,18.915c-0.178,0.224-0.352,0.447-0.527,0.674c-0.001,0.001-0.001,0.001-0.002,0.002
		c-0.004,0.005-0.006,0.008-0.01,0.013c-0.001,0.001-0.002,0.003-0.003,0.004c-0.01,0.012-0.021,0.027-0.03,0.039
		c-0.001,0.001-0.002,0.002-0.002,0.003c-0.003,0.004-0.005,0.007-0.008,0.01c-0.002,0.002-0.004,0.005-0.005,0.007
		c-0.002,0.002-0.005,0.007-0.007,0.009c-0.002,0.003-0.004,0.006-0.007,0.009c-0.002,0.002-0.004,0.005-0.006,0.008
		c-0.004,0.005-0.008,0.011-0.012,0.016c-0.001,0.001-0.001,0.001-0.002,0.002c-0.004,0.005-0.008,0.01-0.012,0.016
		c-0.001,0.001-0.002,0.003-0.003,0.004c-0.004,0.005-0.007,0.009-0.011,0.014c-0.001,0.001-0.002,0.002-0.003,0.004
		c-0.004,0.005-0.008,0.011-0.012,0.016l-0.001,0.001c-0.085,0.112-0.17,0.224-0.254,0.337l1.362,1.018
		c0.289-0.387,0.584-0.77,0.885-1.148L10.835,18.915L10.835,18.915z M9.04,21.318c-0.263,0.374-0.519,0.75-0.771,1.132
		c-0.001,0.001-0.002,0.002-0.002,0.003c-0.003,0.005-0.005,0.008-0.009,0.013c-0.001,0.001-0.002,0.002-0.002,0.003
		c-0.008,0.012-0.017,0.026-0.025,0.037c-0.002,0.003-0.004,0.006-0.006,0.009c-0.002,0.003-0.004,0.006-0.005,0.008
		c-0.002,0.003-0.005,0.007-0.007,0.01c-0.002,0.003-0.003,0.004-0.004,0.007c-0.003,0.005-0.006,0.009-0.009,0.014l-0.002,0.003
		l1.42,0.934c0.266-0.404,0.537-0.803,0.814-1.199L9.04,21.318L9.04,21.318z M7.391,23.824c-0.2,0.326-0.397,0.654-0.59,0.984
		c-0.001,0.001,0,0-0.001,0.001c-0.004,0.006-0.007,0.012-0.011,0.019c-0.001,0.001,0,0-0.001,0.002
		c-0.011,0.02-0.023,0.039-0.034,0.059c-0.001,0.001-0.001,0.001-0.002,0.003c-0.003,0.006-0.006,0.011-0.01,0.017
		c-0.001,0.001-0.001,0.002-0.002,0.003c-0.003,0.006-0.007,0.012-0.01,0.018L6.73,24.93c-0.004,0.007-0.008,0.013-0.012,0.02
		c-0.001,0.001,0-0.001,0,0.001c-0.004,0.006-0.007,0.012-0.011,0.018c-0.001,0.001-0.002,0.003-0.002,0.004
		c-0.003,0.005-0.006,0.01-0.009,0.015c-0.001,0.001-0.002,0.004-0.003,0.005c-0.003,0.005-0.006,0.01-0.009,0.015l-0.002,0.004
		c-0.004,0.006-0.007,0.013-0.011,0.019C6.67,25.032,6.67,25.032,6.67,25.034c-0.003,0.005-0.006,0.011-0.009,0.016
		c-0.001,0.001-0.003,0.005-0.004,0.006c-0.002,0.004-0.005,0.008-0.007,0.012c-0.002,0.003-0.003,0.004-0.004,0.007
		c-0.002,0.004-0.005,0.008-0.007,0.013c-0.002,0.003-0.002,0.003-0.004,0.006c-0.004,0.006-0.007,0.012-0.011,0.018l0,0
		l1.474,0.847c0.241-0.419,0.488-0.834,0.741-1.245L7.391,23.824L7.391,23.824z M5.896,26.424c-0.107,0.199-0.212,0.399-0.316,0.6
		c-0.001,0.001-0.001,0.001-0.001,0.003c-0.003,0.006-0.006,0.011-0.009,0.016c-0.001,0.001-0.002,0.003-0.002,0.005
		c-0.003,0.005-0.006,0.011-0.008,0.016c-0.001,0.001-0.001,0.002-0.002,0.003c-0.003,0.006-0.007,0.013-0.01,0.019
		c-0.001,0.001-0.002,0.004-0.003,0.005c-0.002,0.005-0.005,0.009-0.007,0.014c-0.001,0.001-0.003,0.006-0.004,0.007
		c-0.002,0.004-0.004,0.008-0.006,0.011c-0.001,0.003-0.003,0.006-0.004,0.009c-0.002,0.004-0.004,0.007-0.006,0.011
		c-0.001,0.003-0.003,0.005-0.004,0.008c-0.002,0.004-0.005,0.009-0.007,0.013C5.505,27.17,5.502,27.175,5.5,27.179
		c-0.002,0.003-0.003,0.006-0.005,0.009c-0.002,0.004-0.003,0.006-0.005,0.01c-0.001,0.003-0.003,0.006-0.004,0.009
		c-0.001,0.003-0.004,0.008-0.005,0.01c-0.001,0.003-0.003,0.006-0.004,0.008c-0.002,0.004-0.003,0.006-0.005,0.01
		c-0.001,0.002-0.002,0.005-0.004,0.007c-0.004,0.008-0.008,0.016-0.013,0.025c-0.001,0.001-0.001,0.002-0.002,0.003
		c-0.002,0.004-0.004,0.008-0.006,0.013c-0.001,0.002-0.002,0.004-0.003,0.006c-0.001,0.003-0.005,0.009-0.006,0.012
		c-0.001,0.002-0.002,0.004-0.003,0.006c-0.002,0.004-0.004,0.008-0.006,0.013c-0.001,0.001-0.001,0.002-0.002,0.003
		c-0.007,0.014-0.015,0.03-0.023,0.044C5.402,27.37,5.401,27.372,5.4,27.374c-0.002,0.004-0.004,0.009-0.007,0.013
		c-0.001,0.002-0.002,0.003-0.003,0.005c-0.002,0.004-0.005,0.009-0.007,0.013c-0.001,0.001-0.001,0.002-0.002,0.004
		c-0.007,0.014-0.015,0.029-0.022,0.043c-0.001,0.002-0.002,0.004-0.003,0.006c-0.002,0.004-0.004,0.008-0.006,0.012
		c-0.001,0.003-0.003,0.005-0.004,0.008c-0.002,0.004-0.003,0.007-0.005,0.011c-0.002,0.003-0.003,0.006-0.005,0.009
		c-0.001,0.003-0.003,0.007-0.005,0.01c-0.003,0.006-0.006,0.012-0.009,0.018c-0.001,0.003-0.003,0.005-0.004,0.008
		c-0.002,0.004-0.004,0.008-0.006,0.011c-0.001,0.003-0.003,0.005-0.004,0.008c-0.002,0.004-0.004,0.008-0.006,0.012
		c-0.001,0.003-0.002,0.004-0.004,0.007c-0.002,0.005-0.005,0.009-0.007,0.014c-0.001,0.003-0.001,0.003-0.003,0.006
		c-0.003,0.007-0.007,0.013-0.01,0.02l0,0c-0.003,0.007-0.007,0.013-0.01,0.02c-0.001,0.001-0.001,0.002-0.002,0.003
		c-0.003,0.006-0.006,0.012-0.009,0.018L5.26,27.653c-0.017,0.035-0.035,0.069-0.052,0.104l1.522,0.757
		c0.215-0.433,0.437-0.862,0.665-1.287L5.896,26.424L5.896,26.424z M4.56,29.11c-0.001,0.001,0,0.001-0.001,0.002
		c-0.003,0.006-0.006,0.012-0.008,0.018c-0.001,0.001-0.002,0.004-0.002,0.005c-0.002,0.005-0.005,0.01-0.007,0.015
		c-0.001,0.001-0.002,0.005-0.003,0.006c-0.002,0.005-0.004,0.009-0.006,0.014c-0.001,0.003-0.001,0.003-0.003,0.006
		c-0.002,0.005-0.005,0.011-0.007,0.016L4.52,29.196c-0.006,0.014-0.013,0.028-0.019,0.041l0,0.001
		c-0.003,0.007-0.006,0.013-0.009,0.02L4.491,29.26c-0.042,0.092-0.083,0.183-0.125,0.275l-0.001,0.002
		c-0.003,0.007-0.006,0.014-0.009,0.02l0,0c-0.006,0.014-0.013,0.028-0.019,0.042l-0.001,0.003
		c-0.002,0.006-0.005,0.011-0.007,0.017c-0.001,0.003-0.001,0.003-0.003,0.006c-0.002,0.005-0.004,0.01-0.007,0.015
		c-0.001,0.001-0.002,0.004-0.002,0.005c-0.002,0.005-0.005,0.01-0.007,0.016c-0.001,0.001-0.001,0.003-0.002,0.004
		c-0.003,0.006-0.006,0.013-0.008,0.019c-0.001,0.003-0.002,0.005-0.003,0.008c-0.002,0.004-0.003,0.008-0.005,0.012
		c-0.001,0.003-0.003,0.007-0.004,0.01c-0.001,0.003-0.003,0.006-0.004,0.009c-0.001,0.003-0.003,0.008-0.005,0.011
		c-0.001,0.002-0.002,0.005-0.003,0.007c-0.01,0.022-0.018,0.042-0.028,0.063c0,0.001,0,0.001-0.001,0.002
		c-0.099,0.225-0.197,0.45-0.293,0.676l1.565,0.664c0.189-0.445,0.384-0.887,0.586-1.325L4.56,29.11L4.56,29.11z M3.388,31.871
		c-0.086,0.222-0.171,0.444-0.254,0.668c0,0,0,0.001,0,0.001c-0.002,0.006-0.004,0.011-0.006,0.017c0,0,0,0.001,0,0.001
		c-0.009,0.024-0.017,0.045-0.026,0.069c0,0.001-0.001,0.002-0.001,0.003c-0.002,0.006-0.003,0.009-0.005,0.015
		c-0.001,0.002-0.001,0.003-0.002,0.005c-0.002,0.004-0.004,0.01-0.005,0.014c-0.001,0.001-0.001,0.003-0.002,0.004
		c-0.006,0.015-0.012,0.033-0.018,0.048c0,0.001-0.001,0.003-0.001,0.004c-0.002,0.004-0.003,0.009-0.005,0.014
		c-0.001,0.002-0.001,0.004-0.002,0.006c-0.002,0.004-0.004,0.01-0.005,0.014c0,0.001-0.001,0.002-0.001,0.004
		c-0.005,0.015-0.012,0.033-0.018,0.048c0,0.001-0.001,0.002-0.001,0.003c-0.002,0.006-0.003,0.009-0.006,0.015
		c0,0.001-0.001,0.002-0.001,0.003c-0.002,0.006-0.004,0.01-0.006,0.016c0,0.001-0.001,0.002-0.001,0.002
		c-0.052,0.144-0.104,0.287-0.155,0.431l1.602,0.568c0.162-0.456,0.33-0.909,0.505-1.358L3.388,31.871L3.388,31.871z M2.385,34.698
		c-0.001,0.003-0.001,0.005-0.002,0.008c-0.001,0.003-0.002,0.005-0.003,0.008c-0.001,0.003-0.003,0.009-0.004,0.012
		c-0.001,0.002-0.001,0.005-0.002,0.007c-0.001,0.005-0.003,0.009-0.004,0.014c0,0.001-0.001,0.002-0.001,0.003
		c-0.005,0.017-0.011,0.034-0.016,0.051c0,0.001,0,0.002-0.001,0.002c-0.002,0.006-0.003,0.01-0.005,0.017
		c0,0.001,0,0.001-0.001,0.002c-0.138,0.435-0.271,0.872-0.397,1.311l1.634,0.471c0.134-0.465,0.275-0.927,0.422-1.386L2.385,34.698
		L2.385,34.698z M1.555,37.58c-0.004,0.015-0.008,0.03-0.011,0.045l0,0.001c-0.083,0.325-0.162,0.651-0.239,0.978l0,0.001
		c-0.002,0.007-0.003,0.014-0.005,0.021l0,0.002c-0.003,0.015-0.007,0.029-0.01,0.044c-0.001,0.003-0.001,0.003-0.001,0.006
		c-0.001,0.005-0.002,0.01-0.003,0.014c-0.001,0.003-0.002,0.007-0.002,0.01c-0.001,0.004-0.002,0.007-0.002,0.011
		c-0.001,0.003-0.002,0.009-0.003,0.012c-0.001,0.002-0.001,0.005-0.002,0.007c-0.024,0.102-0.047,0.205-0.07,0.308l1.659,0.371
		c0.106-0.472,0.218-0.942,0.338-1.409L1.555,37.58L1.555,37.58z M0.9,40.507c-0.001,0.003-0.001,0.004-0.001,0.008
		c0,0.001,0,0.002-0.001,0.003c-0.001,0.006-0.002,0.011-0.003,0.017l0,0c-0.003,0.018-0.007,0.037-0.01,0.055
		c0,0.001,0,0.002-0.001,0.003c-0.001,0.005-0.002,0.01-0.003,0.015c0,0.002-0.001,0.004-0.001,0.006
		c-0.001,0.005-0.002,0.01-0.003,0.014c0,0.002-0.001,0.004-0.001,0.006c-0.001,0.005-0.002,0.01-0.003,0.015
		c0,0.001-0.001,0.003-0.001,0.004c-0.002,0.011-0.004,0.022-0.006,0.034c0,0,0,0.001,0,0.001c-0.001,0.005-0.002,0.009-0.003,0.013
		c0,0.003-0.001,0.005-0.001,0.008c-0.001,0.005-0.001,0.007-0.002,0.012c-0.001,0.003-0.001,0.007-0.002,0.01
		c-0.001,0.003-0.001,0.008-0.002,0.011c-0.001,0.004-0.001,0.007-0.002,0.011c-0.001,0.003-0.001,0.006-0.002,0.01
		c-0.001,0.005-0.002,0.009-0.003,0.014c-0.001,0.003-0.001,0.004-0.001,0.008c-0.001,0.007-0.003,0.014-0.004,0.021
		c-0.001,0.003-0.001,0.003-0.001,0.006c-0.001,0.005-0.002,0.01-0.003,0.015c0,0.002-0.001,0.005-0.001,0.007
		c-0.001,0.005-0.002,0.01-0.003,0.015c-0.001,0.003-0.001,0.003-0.001,0.006c-0.001,0.005-0.002,0.011-0.003,0.016
		c0,0.002-0.001,0.004-0.001,0.006c-0.003,0.015-0.005,0.03-0.008,0.044l0,0c-0.001,0.007-0.003,0.015-0.004,0.022
		c0,0.002,0,0.002-0.001,0.003c-0.001,0.007-0.002,0.013-0.004,0.02l-0.001,0.003c-0.062,0.337-0.12,0.676-0.174,1.016l0,0
		l1.678,0.27c0.077-0.478,0.161-0.953,0.252-1.427L0.9,40.507L0.9,40.507z M0.423,43.469c-0.064,0.493-0.122,0.993-0.172,1.49
		l1.692,0.169c0.048-0.482,0.104-0.962,0.166-1.44L0.423,43.469L0.423,43.469z M0.124,46.453c-0.01,0.137-0.019,0.276-0.027,0.414
		c0,0.001,0,0.001,0,0.002c0,0.005-0.001,0.01-0.001,0.015c0,0.002,0,0.005,0,0.007c0,0.003-0.001,0.009-0.001,0.013
		c0,0.003,0,0.006-0.001,0.01c0,0.003,0,0.008-0.001,0.011c0,0.004,0,0.008-0.001,0.012c0,0.002,0,0.007-0.001,0.009
		c0,0.006-0.001,0.013-0.001,0.019c0,0.002,0,0.001,0,0.002c0,0.008-0.001,0.015-0.001,0.023l0,0c0,0.007-0.001,0.015-0.001,0.022
		c0,0.002,0,0.002,0,0.004c0,0.007-0.001,0.013-0.001,0.02l0,0.002c0,0.007-0.001,0.015-0.001,0.022c0,0.002,0-0.001,0,0
		c-0.017,0.296-0.032,0.593-0.044,0.89l1.699,0.068c0.02-0.484,0.046-0.967,0.08-1.447L0.124,46.453L0.124,46.453z M0.003,49.45
		c0,0.039-0.001,0.078-0.001,0.117c0,0.002,0,0.002,0,0.004c0,0.003,0,0.007,0,0.01c0,0.003,0,0.008,0,0.011
		c0,0.002,0,0.004,0,0.006c0,0.005,0,0.012,0,0.017c0,0,0,0.001,0,0.001C0.001,49.717,0,49.817,0,49.918c0,0.001,0,0.003,0,0.004
		c0,0.003,0,0.012,0,0.015c0,0.002,0,0.004,0,0.006c0,0.003,0,0.009,0,0.013c0,0.002,0,0.005,0,0.007c0,0.003,0,0.01,0,0.013
		c0,0.002,0,0.004,0,0.006C0,49.988,0,49.993,0,50l0,0c0,0.007,0,0.011,0,0.018c0,0.002,0,0.004,0,0.006c0,0.003,0,0.01,0,0.013
		c0,0.002,0,0.004,0,0.006c0,0.007,0,0.011,0,0.018c0,0.001,0,0.001,0,0.002c0,0.005,0,0.011,0,0.016c0,0.002,0,0.004,0,0.006
		c0,0.003,0,0.01,0,0.014c0,0.002,0,0.003,0,0.005c0,0.007,0,0.012,0,0.018c0,0.001,0,0.002,0,0.002c0,0.007,0,0.009,0,0.016
		c0,0.001,0,0.003,0,0.005c0,0.005,0,0.01,0,0.015c0,0.001,0,0.002,0,0.004c0,0.007,0,0.012,0,0.019c0,0.001,0,0.001,0,0.002
		c0,0.007,0,0.01,0,0.017c0,0.001,0,0.003,0,0.004c0,0.013,0,0.025,0,0.038c0,0.001,0,0.001,0,0.002c0,0.007,0,0.011,0,0.018
		c0,0.001,0,0.001,0,0.002c0,0.013,0,0.026,0,0.039c0,0,0,0.001,0,0.001c0,0.007,0,0.012,0,0.019c0,0,0,0.001,0,0.001
		c0.001,0.21,0.004,0.418,0.008,0.628l1.7-0.032C1.703,50.614,1.7,50.307,1.7,50c0-0.177,0.001-0.355,0.003-0.532L0.003,49.45
		L0.003,49.45z M1.757,52.368L0.059,52.45c0.018,0.381,0.041,0.759,0.068,1.138c0,0,0,0,0,0.001c0,0.007,0.001,0.012,0.001,0.018
		c0,0.001,0,0.002,0,0.003c0,0.007,0.001,0.011,0.001,0.018c0,0.001,0,0.002,0,0.003c0,0.007,0.001,0.011,0.001,0.018
		c0,0,0,0.001,0,0.001c0.001,0.012,0.002,0.021,0.002,0.033c0,0.002,0,0.004,0,0.007c0,0.003,0.001,0.007,0.001,0.011
		c0,0.004,0.001,0.008,0.001,0.011c0,0.003,0,0.006,0.001,0.01c0,0.004,0.001,0.009,0.001,0.013c0,0.003,0,0.005,0.001,0.008
		c0,0.005,0.001,0.01,0.001,0.016c0,0.002,0,0.004,0,0.006c0.005,0.062,0.009,0.123,0.014,0.185l1.695-0.132
		C1.811,53.335,1.78,52.853,1.757,52.368L1.757,52.368z M1.983,55.258l-1.69,0.183c0.054,0.498,0.115,0.995,0.184,1.489l1.684-0.233
		C2.094,56.219,2.035,55.74,1.983,55.258L1.983,55.258z M2.381,58.128l-1.676,0.284c0.013,0.077,0.026,0.154,0.04,0.231l0,0.001
		c0.001,0.007,0.002,0.014,0.004,0.02c0,0.002,0.001,0.003,0.001,0.005c0.001,0.005,0.002,0.011,0.003,0.016
		c0,0.002,0.001,0.006,0.001,0.007c0.001,0.005,0.002,0.009,0.002,0.014c0.001,0.003,0.001,0.005,0.001,0.008
		c0.001,0.004,0.001,0.007,0.002,0.011c0.001,0.008,0.003,0.018,0.005,0.026c0,0.001,0,0.003,0.001,0.004
		c0.001,0.005,0.002,0.01,0.003,0.015c0,0.002,0.001,0.003,0.001,0.005c0.001,0.006,0.002,0.01,0.003,0.016
		c0,0.001,0,0.002,0.001,0.003c0.001,0.006,0.002,0.011,0.003,0.017c0,0,0,0,0,0c0.033,0.186,0.067,0.371,0.102,0.556
		c0,0.001,0,0.001,0,0.002c0.001,0.006,0.002,0.012,0.003,0.018c0,0,0,0.001,0,0.001c0.003,0.018,0.007,0.035,0.01,0.053
		c0,0.002,0.001,0.003,0.001,0.005c0.001,0.005,0.001,0.008,0.002,0.013c0.001,0.003,0.001,0.006,0.002,0.009
		c0.001,0.003,0.002,0.008,0.002,0.011c0.001,0.003,0.001,0.007,0.002,0.01c0.001,0.003,0.001,0.008,0.002,0.011
		c0.001,0.004,0.001,0.007,0.002,0.011c0.001,0.003,0.001,0.007,0.002,0.01c0.001,0.007,0.003,0.014,0.004,0.02
		c0,0.002,0,0.002,0.001,0.004c0.001,0.006,0.002,0.012,0.004,0.018c0,0.002,0.001,0.004,0.001,0.005
		c0.001,0.006,0.002,0.011,0.003,0.017c0,0.002,0.001,0.003,0.001,0.005c0.001,0.006,0.002,0.013,0.004,0.019
		c0,0.002,0,0.001,0,0.002c0.018,0.092,0.036,0.183,0.054,0.275l1.667-0.334C2.549,59.08,2.462,58.605,2.381,58.128L2.381,58.128z
		 M2.951,60.969l-1.656,0.384c0.092,0.396,0.189,0.79,0.29,1.182c0,0.002,0.001,0.006,0.002,0.007
		c0.001,0.004,0.002,0.009,0.003,0.013c0.001,0.003,0.002,0.007,0.003,0.01c0.001,0.003,0.002,0.006,0.002,0.009
		c0.001,0.005,0.002,0.008,0.003,0.013c0,0.002,0.001,0.003,0.001,0.005c0.019,0.072,0.038,0.145,0.057,0.217l1.644-0.434
		C3.176,61.909,3.06,61.44,2.951,60.969L2.951,60.969z M3.691,63.769l-1.63,0.484c0.009,0.03,0.018,0.06,0.027,0.089l0,0.001
		c0.002,0.007,0.004,0.014,0.006,0.021c0,0.002,0,0.001,0.001,0.002c0.002,0.007,0.004,0.014,0.006,0.021c0,0.002,0-0.001,0,0
		c0.002,0.007,0.004,0.015,0.007,0.022c0,0.002,0-0.001,0,0.001c0.002,0.007,0.004,0.013,0.006,0.02
		c0,0.002,0.002,0.005,0.002,0.007c0.001,0.005,0.003,0.009,0.004,0.014c0.001,0.003,0.002,0.005,0.002,0.008
		c0.001,0.004,0.002,0.008,0.004,0.012c0.001,0.003,0.002,0.006,0.003,0.009c0.001,0.004,0.002,0.008,0.003,0.011
		c0.002,0.008,0.004,0.014,0.007,0.022c0.001,0.002,0.001,0.004,0.002,0.005c0.001,0.005,0.003,0.009,0.004,0.014
		c0.001,0.002,0.001,0.004,0.002,0.007c0.001,0.005,0.003,0.009,0.004,0.014c0.001,0.002,0.001,0.004,0.002,0.005
		c0.001,0.005,0.003,0.01,0.004,0.015c0,0.001,0.001,0.002,0.001,0.003c0.113,0.371,0.23,0.74,0.351,1.107l1.614-0.533
		C3.973,64.694,3.828,64.233,3.691,63.769L3.691,63.769z M4.599,66.52l-1.597,0.581c0.019,0.051,0.037,0.103,0.056,0.154l0,0.001
		c0.003,0.007,0.005,0.014,0.008,0.021l0,0.001c0.005,0.014,0.01,0.028,0.016,0.043c0.001,0.001,0.001,0.002,0.001,0.004
		c0.002,0.006,0.004,0.011,0.006,0.017c0.001,0.003,0.001,0.002,0.002,0.005c0.002,0.005,0.004,0.01,0.006,0.015
		c0.001,0.001,0.002,0.005,0.002,0.006c0.002,0.005,0.004,0.011,0.006,0.016c0.001,0.001,0.001,0.003,0.002,0.004
		c0.002,0.007,0.005,0.013,0.007,0.02c0.001,0.003,0.001,0.004,0.003,0.007c0.002,0.004,0.003,0.009,0.005,0.013
		c0.001,0.003,0.002,0.006,0.003,0.009c0.001,0.004,0.003,0.007,0.004,0.011c0.001,0.003,0.003,0.007,0.004,0.01
		c0.001,0.004,0.003,0.008,0.004,0.011c0.001,0.003,0.002,0.005,0.003,0.008c0.002,0.006,0.005,0.013,0.007,0.019
		c0.001,0.003,0.002,0.005,0.003,0.008c0.001,0.004,0.003,0.008,0.004,0.012c0.001,0.003,0.003,0.007,0.004,0.01
		c0.001,0.003,0.003,0.007,0.004,0.01c0.001,0.003,0.003,0.007,0.004,0.01c0.001,0.004,0.003,0.008,0.004,0.011
		c0.001,0.003,0.002,0.006,0.003,0.009c0.002,0.005,0.004,0.01,0.006,0.015c0.001,0.003,0.003,0.007,0.004,0.01
		c0.002,0.005,0.004,0.01,0.006,0.015c0.001,0.003,0.002,0.005,0.003,0.008c0.002,0.004,0.003,0.008,0.005,0.012
		c0.001,0.003,0.002,0.006,0.003,0.009c0.002,0.004,0.003,0.008,0.005,0.012c0.001,0.001,0.002,0.006,0.003,0.008
		c0.002,0.005,0.004,0.01,0.006,0.015c0.001,0.001,0.001,0.003,0.002,0.005c0.003,0.007,0.005,0.013,0.008,0.02
		c0.001,0.001,0.001,0.003,0.002,0.004c0.002,0.005,0.004,0.011,0.006,0.016c0.001,0.001,0.002,0.005,0.002,0.006
		c0.002,0.005,0.004,0.01,0.006,0.015c0.001,0.001,0.002,0.004,0.002,0.006c0.002,0.006,0.005,0.012,0.007,0.018l0.001,0.002
		c0.005,0.014,0.011,0.028,0.016,0.042c0.001,0.001,0.001,0.002,0.001,0.004c0.002,0.006,0.005,0.012,0.007,0.018l0.001,0.003
		c0.002,0.007,0.005,0.013,0.007,0.019l0,0.001c0.084,0.219,0.169,0.437,0.255,0.654l1.579-0.629
		C4.936,67.426,4.764,66.975,4.599,66.52L4.599,66.52z M5.671,69.211l-1.559,0.677c0.199,0.459,0.405,0.915,0.618,1.367l1.538-0.724
		C6.063,70.095,5.864,69.655,5.671,69.211L5.671,69.211z M6.904,71.833l-1.516,0.77c0.028,0.055,0.056,0.11,0.084,0.165
		c0.001,0.001,0.002,0.004,0.003,0.005c0.002,0.004,0.005,0.009,0.007,0.013c0.001,0.001,0.003,0.006,0.004,0.008
		c0.002,0.003,0.003,0.006,0.005,0.01c0.194,0.377,0.394,0.755,0.597,1.126l1.492-0.815C7.348,72.691,7.123,72.264,6.904,71.833
		L6.904,71.833z M8.293,74.376l-1.467,0.859c0.002,0.004,0.004,0.007,0.007,0.011c0,0,0,0.001,0,0.001
		c0.003,0.005,0.006,0.01,0.009,0.015c0.001,0.001,0.001,0.002,0.002,0.003c0.003,0.005,0.005,0.009,0.008,0.014
		c0,0.001,0.001,0.001,0.001,0.002c0.006,0.009,0.01,0.017,0.016,0.027c0.001,0.002,0.002,0.003,0.003,0.005
		c0.002,0.004,0.004,0.007,0.006,0.011c0.002,0.003,0.003,0.005,0.005,0.008c0.002,0.003,0.004,0.007,0.005,0.009
		c0.002,0.003,0.004,0.007,0.006,0.01c0.002,0.003,0.003,0.005,0.005,0.008c0.003,0.006,0.007,0.011,0.01,0.017l0,0.001
		c0.004,0.006,0.007,0.013,0.011,0.019c0.001,0.001,0.002,0.003,0.002,0.004c0.003,0.005,0.006,0.011,0.009,0.016
		c0.001,0.001,0.001,0.002,0.002,0.003c0.003,0.006,0.007,0.012,0.01,0.017l0.001,0.001c0.191,0.323,0.385,0.643,0.583,0.961
		c0.001,0.001,0,0,0.001,0.001c0.004,0.006,0.007,0.011,0.011,0.017c0.001,0.001,0.001,0.002,0.002,0.003
		c0.003,0.005,0.007,0.011,0.01,0.016c0.001,0.001,0.001,0.002,0.002,0.003c0.004,0.006,0.007,0.012,0.011,0.018
		c0.002,0.004,0.004,0.006,0.006,0.01c0.001,0.002,0.003,0.005,0.004,0.007c0.003,0.005,0.005,0.008,0.008,0.013
		c0.001,0.001,0.001,0.002,0.002,0.003c0.006,0.009,0.012,0.019,0.018,0.028l1.44-0.903C8.787,75.206,8.537,74.793,8.293,74.376
		L8.293,74.376z M9.832,76.831l-1.413,0.946c0.278,0.416,0.563,0.827,0.853,1.234l1.384-0.987
		C10.375,77.63,10.101,77.233,9.832,76.831L9.832,76.831z M11.515,79.19l-1.354,1.028c0.198,0.261,0.4,0.521,0.603,0.778
		c0.001,0.001-0.001-0.001,0,0c0.014,0.018,0.028,0.036,0.043,0.054c0.001,0.001,0.001,0.001,0.002,0.003
		c0.004,0.005,0.008,0.01,0.012,0.015c0.001,0.001,0.002,0.002,0.003,0.003c0.004,0.006,0.009,0.011,0.013,0.017l0,0
		c0.005,0.006,0.01,0.012,0.014,0.018l0,0c0.004,0.006,0.009,0.011,0.013,0.017c0.001,0.001,0.002,0.003,0.003,0.004
		c0.004,0.005,0.007,0.009,0.011,0.014c0.001,0.001,0.002,0.003,0.003,0.004c0.004,0.005,0.008,0.011,0.013,0.016l0.001,0.001
		c0.005,0.006,0.01,0.012,0.014,0.018c0.001,0.001,0-0.001,0,0.001c0.004,0.006,0.009,0.011,0.013,0.017
		c0.001,0.001,0.002,0.002,0.003,0.003c0.004,0.005,0.008,0.01,0.011,0.014c0.001,0.001,0.002,0.002,0.003,0.003
		c0.014,0.018,0.028,0.035,0.042,0.053c0.001,0.001,0,0,0.001,0.002c0.004,0.005,0.009,0.011,0.013,0.016
		c0.001,0.001,0,0,0.001,0.002c0.029,0.036,0.058,0.073,0.088,0.109l1.322-1.068C12.105,79.955,11.807,79.575,11.515,79.19
		L11.515,79.19z M13.336,81.444l-1.29,1.107c0.086,0.1,0.173,0.201,0.26,0.3c0.001,0.001,0.001,0.002,0.002,0.003
		c0.004,0.004,0.008,0.009,0.011,0.013c0.002,0.002,0.003,0.003,0.005,0.005c0.003,0.004,0.006,0.007,0.009,0.011
		c0.002,0.002,0.003,0.004,0.005,0.006c0.003,0.003,0.006,0.006,0.008,0.01c0.005,0.006,0.009,0.01,0.014,0.016
		c0.001,0.002,0.003,0.003,0.004,0.005c0.003,0.004,0.007,0.008,0.01,0.011c0.001,0.001,0.002,0.002,0.003,0.003
		c0.004,0.005,0.006,0.007,0.011,0.012c0.001,0.001,0.001,0.001,0.002,0.002c0.214,0.244,0.43,0.486,0.649,0.726l1.256-1.145
		C13.971,82.173,13.651,81.811,13.336,81.444L13.336,81.444z M15.289,83.586l-1.222,1.182c0.096,0.099,0.19,0.195,0.286,0.293
		c0,0,0.001,0.001,0.001,0.001c0.004,0.004,0.008,0.008,0.012,0.012c0,0,0.001,0.001,0.001,0.001
		c0.013,0.013,0.024,0.025,0.038,0.038c0,0,0.001,0.001,0.001,0.001c0.003,0.003,0.008,0.008,0.011,0.011
		c0.001,0.001,0.003,0.003,0.004,0.004c0.003,0.003,0.007,0.007,0.01,0.01c0.002,0.002,0.003,0.003,0.005,0.005
		c0.011,0.011,0.023,0.023,0.034,0.034c0.001,0.001,0.002,0.002,0.003,0.003c0.003,0.003,0.006,0.006,0.01,0.01
		c0.002,0.002,0.003,0.003,0.005,0.005c0.003,0.003,0.006,0.006,0.009,0.009c0.002,0.002,0.003,0.003,0.005,0.005
		c0.011,0.011,0.021,0.021,0.032,0.032c0.002,0.002,0.004,0.004,0.005,0.006c0.003,0.003,0.006,0.006,0.009,0.009
		c0.002,0.002,0.004,0.004,0.005,0.005c0.003,0.003,0.006,0.006,0.01,0.01c0.002,0.002,0.003,0.003,0.005,0.005
		c0.011,0.011,0.023,0.023,0.034,0.034c0.001,0.001,0.002,0.002,0.003,0.003c0.003,0.003,0.007,0.007,0.01,0.01
		c0.002,0.002,0.003,0.003,0.005,0.005c0.003,0.003,0.006,0.006,0.009,0.009c0.002,0.002,0.003,0.003,0.005,0.005
		c0.003,0.003,0.006,0.006,0.009,0.009c0.001,0.001,0.001,0.001,0.002,0.002c0.008,0.008,0.015,0.015,0.022,0.022
		c0.001,0.001,0.002,0.002,0.003,0.003c0.003,0.003,0.007,0.007,0.011,0.011c0.001,0.001,0.002,0.002,0.003,0.003
		c0.004,0.004,0.007,0.007,0.011,0.011c0.001,0.001,0.002,0.002,0.003,0.003c0.017,0.017,0.034,0.034,0.051,0.051
		c0,0,0.001,0.001,0.001,0.001c0.124,0.123,0.25,0.247,0.375,0.369l1.186-1.218C15.966,84.275,15.625,83.933,15.289,83.586
		L15.289,83.586z M17.365,85.608l-1.149,1.253c0.029,0.026,0.057,0.052,0.086,0.079c0.001,0.001,0,0,0.001,0.001
		c0.005,0.004,0.01,0.009,0.015,0.013c0.001,0.001,0.002,0.002,0.003,0.003c0.004,0.004,0.009,0.008,0.013,0.012
		c0.001,0.001,0.003,0.002,0.004,0.004c0.005,0.005,0.01,0.009,0.015,0.014c0.002,0.002,0.005,0.005,0.008,0.007
		c0.003,0.002,0.005,0.005,0.008,0.007c0.003,0.003,0.005,0.005,0.009,0.008c0.002,0.002,0.004,0.004,0.007,0.006
		c0.003,0.003,0.006,0.006,0.01,0.009c0.001,0.001,0.002,0.002,0.003,0.003c0.272,0.247,0.546,0.49,0.823,0.731
		c0.001,0.001,0.002,0.002,0.003,0.003c0.005,0.004,0.007,0.006,0.012,0.01c0.001,0.001,0.002,0.002,0.003,0.003
		c0.011,0.009,0.024,0.021,0.035,0.03c0.002,0.002,0.005,0.004,0.007,0.006c0.002,0.002,0.006,0.005,0.008,0.007
		c0.003,0.002,0.005,0.005,0.008,0.007c0.002,0.002,0.006,0.005,0.008,0.007c0.003,0.003,0.006,0.005,0.009,0.008
		c0.002,0.002,0.005,0.004,0.007,0.006c0.005,0.004,0.01,0.009,0.015,0.013l0.001,0.001l1.111-1.287
		C18.082,86.255,17.722,85.934,17.365,85.608L17.365,85.608z M19.559,87.502l-1.072,1.319c0.109,0.088,0.218,0.176,0.327,0.264
		l0.002,0.001c0.006,0.005,0.011,0.009,0.017,0.014l0.001,0c0.012,0.009,0.023,0.019,0.035,0.028
		c0.001,0.001,0.003,0.003,0.005,0.004c0.004,0.003,0.008,0.006,0.012,0.01c0.002,0.002,0.003,0.003,0.006,0.005
		c0.004,0.003,0.007,0.006,0.011,0.009c0.002,0.002,0.004,0.003,0.007,0.005c0.003,0.002,0.006,0.005,0.009,0.007
		c0.006,0.005,0.011,0.009,0.017,0.014c0.002,0.001,0.003,0.003,0.005,0.004c0.004,0.003,0.007,0.006,0.011,0.009
		c0.002,0.001,0.003,0.003,0.005,0.004c0.004,0.003,0.008,0.006,0.012,0.009c0.001,0.001,0.002,0.002,0.003,0.002
		c0.229,0.182,0.462,0.363,0.694,0.54l1.032-1.351C20.313,88.106,19.934,87.806,19.559,87.502L19.559,87.502z M21.862,89.262
		l-0.991,1.381c0.139,0.1,0.275,0.196,0.414,0.294c0.001,0,0.001,0.001,0.002,0.001c0.004,0.003,0.007,0.005,0.011,0.008
		c0.002,0.002,0.004,0.003,0.007,0.005c0.003,0.002,0.008,0.005,0.01,0.007c0.002,0.002,0.005,0.003,0.007,0.005
		c0.004,0.003,0.006,0.004,0.01,0.007c0.004,0.003,0.008,0.005,0.011,0.008c0.003,0.002,0.007,0.005,0.01,0.007
		c0.004,0.003,0.009,0.006,0.013,0.009c0.001,0.001,0.005,0.003,0.006,0.004c0.004,0.003,0.008,0.006,0.012,0.009
		c0.003,0.002,0.003,0.002,0.005,0.004c0.005,0.003,0.009,0.006,0.014,0.01c0.001,0.001,0.003,0.002,0.004,0.003
		c0.012,0.009,0.024,0.017,0.037,0.026l0.002,0.001c0.006,0.004,0.011,0.008,0.017,0.012l0.003,0.002
		c0.006,0.004,0.012,0.008,0.018,0.012l0,0c0.173,0.12,0.347,0.24,0.521,0.358l0.001,0.001c0.006,0.004,0.012,0.008,0.018,0.012
		c0.001,0.001,0.001,0,0.002,0.001c0.013,0.008,0.025,0.017,0.038,0.026l0.002,0.001c0.005,0.004,0.011,0.007,0.016,0.011
		c0.001,0.001,0.004,0.002,0.005,0.003c0.004,0.003,0.009,0.006,0.013,0.009c0.001,0.001,0.002,0.001,0.003,0.002l0.95-1.41
		C22.65,89.819,22.254,89.543,21.862,89.262L21.862,89.262z M24.265,90.881l-0.907,1.438c0.059,0.037,0.119,0.075,0.178,0.112
		l0.001,0.001c0.006,0.004,0.012,0.008,0.019,0.012l0.001,0.001c0.013,0.008,0.025,0.016,0.038,0.023
		c0.001,0.001,0.005,0.003,0.007,0.004c0.004,0.002,0.007,0.005,0.011,0.007c0.003,0.002,0.006,0.003,0.008,0.005
		c0.003,0.002,0.006,0.004,0.009,0.006c0.004,0.002,0.006,0.004,0.01,0.006c0.002,0.001,0.003,0.002,0.004,0.003
		c0.015,0.009,0.028,0.018,0.043,0.027c0.001,0,0.001,0.001,0.002,0.001c0.315,0.195,0.63,0.386,0.95,0.575l0.864-1.464
		C25.086,91.39,24.673,91.138,24.265,90.881L24.265,90.881z M26.761,92.352l-0.819,1.49c0.119,0.065,0.239,0.131,0.358,0.195
		c0,0,0.001,0,0.001,0.001c0.022,0.012,0.042,0.023,0.064,0.035c0.001,0,0.001,0.001,0.002,0.001
		c0.006,0.003,0.009,0.005,0.014,0.008c0.001,0.001,0.003,0.001,0.004,0.002c0.004,0.002,0.01,0.005,0.014,0.007
		c0.001,0.001,0.003,0.002,0.004,0.002c0.014,0.007,0.028,0.015,0.042,0.022c0.002,0.001,0.004,0.002,0.006,0.003
		c0.004,0.002,0.007,0.004,0.011,0.006c0.003,0.001,0.005,0.003,0.008,0.004c0.004,0.002,0.007,0.003,0.011,0.006
		c0.003,0.002,0.006,0.003,0.009,0.005c0.003,0.001,0.007,0.004,0.01,0.005c0.006,0.003,0.011,0.006,0.017,0.009
		c0.003,0.001,0.006,0.003,0.009,0.005c0.004,0.002,0.007,0.004,0.011,0.006c0.003,0.001,0.005,0.003,0.008,0.004
		c0.004,0.002,0.007,0.004,0.011,0.006c0.003,0.001,0.005,0.003,0.008,0.004c0.004,0.002,0.009,0.005,0.013,0.007
		c0.003,0.001,0.003,0.002,0.006,0.003c0.006,0.003,0.012,0.007,0.019,0.01c0.001,0.001,0.002,0.001,0.003,0.002
		c0.005,0.003,0.011,0.006,0.016,0.009c0.001,0.001,0.004,0.002,0.005,0.003c0.005,0.003,0.01,0.005,0.015,0.008
		c0.001,0.001,0.004,0.002,0.005,0.003c0.006,0.003,0.011,0.006,0.017,0.009l0.002,0.001c0.014,0.007,0.027,0.014,0.041,0.022l0,0
		c0.007,0.003,0.013,0.007,0.02,0.01l0.002,0.001c0.179,0.095,0.359,0.188,0.54,0.28l0.774-1.514
		C27.61,92.811,27.184,92.585,26.761,92.352L26.761,92.352z M29.34,93.672l-0.728,1.536c0,0,0.001,0.001,0.001,0.001
		c0.006,0.003,0.012,0.006,0.018,0.009c0.004,0.002,0.007,0.003,0.011,0.005c0.002,0.001,0.005,0.002,0.007,0.004
		c0.004,0.002,0.008,0.004,0.012,0.006c0.002,0.001,0.004,0.002,0.006,0.003c0.004,0.002,0.009,0.004,0.013,0.006
		c0.001,0,0.002,0.001,0.002,0.001c0.2,0.094,0.398,0.186,0.6,0.278c0,0,0.001,0,0.001,0.001c0.006,0.003,0.01,0.004,0.015,0.007
		c0.001,0.001,0.002,0.001,0.003,0.002c0.006,0.003,0.009,0.004,0.015,0.007c0.001,0,0.002,0.001,0.003,0.001
		c0.013,0.006,0.03,0.014,0.043,0.019c0.003,0.001,0.006,0.003,0.009,0.004c0.003,0.001,0.007,0.003,0.01,0.004
		c0.003,0.002,0.007,0.003,0.01,0.005c0.003,0.001,0.006,0.003,0.009,0.004c0.005,0.002,0.009,0.004,0.014,0.006
		c0.003,0.001,0.002,0.001,0.005,0.002c0.007,0.003,0.013,0.006,0.02,0.009l0.001,0c0.006,0.003,0.013,0.006,0.019,0.009
		c0.001,0.001,0.003,0.001,0.004,0.002c0.006,0.002,0.011,0.005,0.017,0.007l0.003,0.002c0.006,0.003,0.013,0.006,0.019,0.009
		l0.001,0c0.157,0.071,0.314,0.14,0.472,0.209l0.681-1.557C30.216,94.078,29.776,93.878,29.34,93.672L29.34,93.672z M31.994,94.833
		L31.36,96.41c0.275,0.11,0.55,0.218,0.827,0.324c0.001,0.001,0.002,0.001,0.004,0.001c0.006,0.002,0.011,0.004,0.017,0.006
		c0.001,0.001,0.004,0.001,0.005,0.002c0.006,0.002,0.011,0.004,0.017,0.006c0.001,0.001,0.003,0.001,0.004,0.002
		c0.007,0.003,0.014,0.005,0.02,0.008c0.001,0.001,0.003,0.001,0.005,0.002c0.005,0.002,0.01,0.004,0.015,0.006
		c0.001,0.001,0.007,0.003,0.008,0.003c0.004,0.001,0.008,0.003,0.012,0.004c0.003,0.001,0.007,0.002,0.009,0.004
		c0.003,0.001,0.007,0.002,0.01,0.004c0.004,0.002,0.006,0.002,0.011,0.004c0.003,0.001,0.005,0.002,0.008,0.003
		c0.007,0.003,0.018,0.007,0.026,0.01c0.001,0,0.002,0.001,0.004,0.001c0.004,0.002,0.009,0.003,0.013,0.005
		c0.002,0.001,0.004,0.002,0.007,0.003c0.006,0.002,0.008,0.003,0.013,0.005c0.002,0.001,0.003,0.001,0.005,0.002
		c0.004,0.002,0.01,0.004,0.015,0.006c0.001,0,0.002,0.001,0.003,0.001c0.024,0.009,0.045,0.017,0.069,0.026
		c0.001,0,0.001,0,0.002,0.001c0.006,0.002,0.011,0.004,0.017,0.006c0,0,0,0,0,0c0.085,0.032,0.171,0.064,0.256,0.095l0.586-1.596
		C32.893,95.186,32.442,95.013,31.994,94.833L31.994,94.833z M34.714,95.832l-0.538,1.613c0.104,0.035,0.207,0.069,0.311,0.103l0,0
		c0.014,0.005,0.028,0.009,0.042,0.014c0.005,0.001,0.006,0.002,0.01,0.003c0.003,0.001,0.006,0.002,0.009,0.003
		c0.003,0.001,0.01,0.003,0.013,0.004c0.002,0.001,0.003,0.001,0.005,0.002c0.005,0.001,0.011,0.004,0.016,0.005c0,0,0,0,0,0
		c0.339,0.11,0.681,0.217,1.024,0.319l0.489-1.628C35.631,96.13,35.171,95.984,34.714,95.832L34.714,95.832z M37.488,96.664
		l-0.439,1.642c0.482,0.129,0.967,0.251,1.455,0.366l0.389-1.655C38.422,96.906,37.954,96.789,37.488,96.664L37.488,96.664z
		 M40.308,97.328l-0.339,1.666c0.489,0.1,0.98,0.192,1.474,0.277l0.289-1.675C41.255,97.513,40.78,97.424,40.308,97.328
		L40.308,97.328z M43.163,97.82l-0.238,1.683c0.112,0.016,0.224,0.031,0.336,0.046c0,0,0,0,0.001,0
		c0.007,0.001,0.012,0.002,0.019,0.003c0,0,0.001,0,0.001,0c0.024,0.003,0.048,0.006,0.073,0.01c0.002,0,0.004,0.001,0.006,0.001
		c0.005,0.001,0.009,0.001,0.014,0.002c0.002,0,0.004,0.001,0.006,0.001c0.003,0,0.011,0.001,0.014,0.002
		c0.002,0,0.004,0.001,0.007,0.001c0.005,0.001,0.009,0.001,0.014,0.002c0.002,0,0.004,0,0.005,0.001
		c0.016,0.002,0.034,0.004,0.05,0.007c0.002,0,0.003,0,0.005,0.001c0.005,0.001,0.01,0.001,0.015,0.002c0.002,0,0.004,0,0.006,0.001
		c0.005,0.001,0.01,0.001,0.015,0.002c0.002,0,0.004,0.001,0.006,0.001c0.005,0.001,0.011,0.001,0.016,0.002
		c0.001,0,0.002,0,0.003,0c0.026,0.003,0.05,0.006,0.076,0.01c0,0,0,0,0,0c0.007,0.001,0.012,0.002,0.019,0.002c0,0,0.001,0,0.001,0
		c0.259,0.033,0.52,0.064,0.78,0.093l0.188-1.69C44.119,97.948,43.64,97.888,43.163,97.82L43.163,97.82z M46.043,98.14l-0.137,1.694
		c0.002,0,0.003,0,0.005,0c0.004,0,0.008,0.001,0.012,0.001c0.002,0,0.008,0.001,0.01,0.001c0.004,0,0.008,0.001,0.012,0.001
		c0.003,0,0.007,0.001,0.01,0.001c0.003,0,0.007,0.001,0.01,0.001c0.008,0.001,0.016,0.001,0.024,0.002c0.002,0,0.005,0,0.007,0.001
		c0.005,0,0.009,0.001,0.014,0.001c0.002,0,0.005,0,0.007,0.001c0.005,0,0.009,0.001,0.014,0.001c0.002,0,0.004,0,0.007,0.001
		c0.005,0,0.01,0.001,0.015,0.001c0.002,0,0.003,0,0.005,0c0.005,0,0.011,0.001,0.016,0.001c0,0,0.001,0,0.001,0
		c0.02,0.002,0.037,0.003,0.057,0.004c0.001,0,0.001,0,0.002,0c0.005,0,0.011,0.001,0.016,0.001c0.002,0,0.004,0,0.006,0
		c0.007,0,0.009,0.001,0.015,0.001c0.002,0,0.003,0,0.005,0c0.005,0,0.011,0.001,0.016,0.001c0.001,0,0.003,0,0.004,0
		c0.023,0.002,0.05,0.004,0.073,0.005c0.001,0,0.003,0,0.004,0c0.005,0,0.01,0.001,0.015,0.001c0.002,0,0.004,0,0.006,0
		c0.003,0,0.011,0.001,0.014,0.001c0.003,0,0.005,0,0.008,0.001c0.005,0,0.009,0.001,0.014,0.001c0.002,0,0.005,0,0.007,0.001
		c0.005,0,0.009,0.001,0.014,0.001c0.002,0,0.003,0,0.005,0c0.008,0.001,0.018,0.001,0.027,0.002c0.003,0,0.007,0,0.01,0.001
		c0.003,0,0.007,0.001,0.011,0.001c0.004,0,0.007,0.001,0.011,0.001c0.003,0,0.007,0.001,0.01,0.001
		c0.004,0,0.008,0.001,0.012,0.001c0.003,0,0.006,0,0.009,0.001c0.005,0,0.009,0.001,0.014,0.001c0.002,0,0.006,0,0.008,0.001
		c0.006,0,0.012,0.001,0.019,0.001c0.002,0,0.001,0,0.003,0c0.008,0.001,0.015,0.001,0.023,0.002c0.002,0,0.001,0,0.003,0
		c0.007,0,0.013,0.001,0.02,0.001c0.002,0,0.003,0,0.004,0c0.006,0,0.012,0.001,0.018,0.001c0.002,0,0.003,0,0.005,0
		c0.006,0,0.012,0.001,0.018,0.001c0.002,0,0.002,0,0.004,0c0.031,0.002,0.061,0.004,0.092,0.006l0.001,0
		c0.008,0,0.015,0.001,0.023,0.001l0.001,0c0.085,0.006,0.171,0.011,0.256,0.016l0.002,0c0.007,0,0.014,0.001,0.02,0.001
		c0.002,0,0.002,0,0.003,0c0.007,0,0.014,0.001,0.02,0.001l0.002,0c0.015,0.001,0.03,0.002,0.045,0.003c0.003,0,0.002,0,0.006,0
		c0.005,0,0.011,0.001,0.016,0.001c0.002,0,0.007,0,0.009,0c0.004,0,0.009,0,0.013,0.001c0.003,0,0.007,0,0.01,0.001
		c0.004,0,0.007,0,0.011,0.001c0.005,0,0.007,0,0.012,0.001c0.002,0,0.005,0,0.007,0c0.09,0.005,0.18,0.01,0.27,0.015l0.087-1.698
		C47.006,98.211,46.523,98.179,46.043,98.14L46.043,98.14z M48.938,98.289l-0.037,1.7c0.298,0.006,0.596,0.01,0.896,0.011
		c0,0,0,0,0.001,0c0.007,0,0.012,0,0.018,0c0.001,0,0.002,0,0.003,0c0.007,0,0.009,0,0.016,0c0.001,0,0.003,0,0.004,0
		c0.007,0,0.01,0,0.017,0c0.001,0,0.001,0,0.002,0c0.013,0,0.026,0,0.039,0c0.001,0,0.003,0,0.004,0c0.005,0,0.01,0,0.015,0
		c0.002,0,0.004,0,0.006,0c0.003,0,0.009,0,0.013,0c0.002,0,0.005,0,0.007,0c0.003,0,0.008,0,0.012,0c0.003,0,0.005,0,0.008,0
		c0.003,0,0.009,0,0.012,0c0.002,0,0.004,0,0.006,0c0.007,0,0.012,0,0.019,0l0,0c0.008,0,0.015,0,0.023,0c0.002,0,0.005,0,0.007,0
		c0.006,0,0.011,0,0.017,0c0.003,0,0.004,0,0.007,0c0.006,0,0.012,0,0.018,0c0.002,0,0.004,0,0.005,0c0.016,0,0.032,0,0.048,0
		l0.003,0c0.007,0,0.014,0,0.021,0c0.002,0,0.003,0,0.005,0c0.007,0,0.014,0,0.021,0c0.002,0,0.002,0,0.003,0
		c0.016,0,0.032,0,0.048,0c0.002,0,0.004,0,0.005,0c0.006,0,0.012,0,0.017,0c0.003,0,0.006,0,0.009,0c0.004,0,0.009,0,0.013,0
		c0.005,0,0.006,0,0.011,0c0.002,0,0.005,0,0.007,0c0.039,0,0.076,0,0.114-0.001l-0.013-1.7L50,98.3
		C49.645,98.3,49.291,98.296,48.938,98.289L48.938,98.289z M53.286,98.19c-0.481,0.032-0.963,0.058-1.447,0.076l0.064,1.699
		c0.086-0.003,0.171-0.007,0.257-0.01c0.002,0,0.001,0,0.003,0c0.006,0,0.012-0.001,0.018-0.001c0.002,0,0.005,0,0.007,0
		c0.005,0,0.01,0,0.015-0.001c0.002,0,0.006,0,0.008,0c0.004,0,0.009,0,0.013-0.001c0.003,0,0.006,0,0.009,0
		c0.005,0,0.01,0,0.015-0.001c0.007,0,0.013-0.001,0.02-0.001c0.002,0,0.004,0,0.006,0c0.005,0,0.011,0,0.016-0.001
		c0.002,0,0.004,0,0.005,0c0.007,0,0.01,0,0.016-0.001c0.001,0,0.003,0,0.004,0c0.007,0,0.011,0,0.017-0.001
		c0.001,0,0.001,0,0.002,0c0.127-0.006,0.252-0.012,0.378-0.019c0,0,0,0,0.001,0c0.007,0,0.012-0.001,0.018-0.001
		c0.001,0,0.002,0,0.003,0c0.007,0,0.011-0.001,0.018-0.001c0.001,0,0.001,0,0.002,0c0.018-0.001,0.036-0.002,0.054-0.003
		c0.002,0,0.004,0,0.005,0c0.005,0,0.008,0,0.013-0.001c0.003,0,0.006,0,0.009-0.001c0.003,0,0.008,0,0.011-0.001
		c0.004,0,0.008,0,0.012-0.001c0.003,0,0.006,0,0.009-0.001c0.005,0,0.01-0.001,0.015-0.001c0.002,0,0.005,0,0.007,0
		c0.007,0,0.014-0.001,0.021-0.001c0.002,0-0.001,0,0.001,0c0.023-0.001,0.047-0.003,0.07-0.004l0,0
		c0.14-0.008,0.28-0.017,0.42-0.026L53.286,98.19L53.286,98.19z M56.171,97.91c-0.478,0.061-0.958,0.115-1.44,0.162l0.164,1.692
		c0.358-0.035,0.715-0.073,1.071-0.116l0.003,0c0.006-0.001,0.012-0.001,0.019-0.002c0.002,0,0.003,0,0.005-0.001
		c0.005-0.001,0.011-0.001,0.016-0.002c0.002,0,0.005-0.001,0.006-0.001c0.006-0.001,0.013-0.002,0.019-0.002
		c0.005-0.001,0.01-0.001,0.015-0.002c0.002,0,0.004-0.001,0.007-0.001c0.007-0.001,0.01-0.001,0.017-0.002c0.001,0,0.002,0,0.003,0
		c0.104-0.013,0.206-0.025,0.31-0.039L56.171,97.91L56.171,97.91z M59.033,97.457c-0.473,0.09-0.949,0.172-1.427,0.248l0.265,1.679
		c0.005-0.001,0.008-0.001,0.013-0.002c0.001,0,0.002,0,0.003-0.001c0.005-0.001,0.011-0.002,0.015-0.002
		c0.002,0,0.004-0.001,0.006-0.001c0.005-0.001,0.009-0.001,0.014-0.002c0.003,0,0.005-0.001,0.008-0.001
		c0.005-0.001,0.009-0.001,0.013-0.002c0.002,0,0.004-0.001,0.006-0.001c0.008-0.001,0.016-0.003,0.024-0.004
		c0.004-0.001,0.007-0.001,0.011-0.002c0.003-0.001,0.006-0.001,0.01-0.002c0.004-0.001,0.008-0.001,0.012-0.002
		c0.003-0.001,0.006-0.001,0.01-0.002c0.004-0.001,0.008-0.001,0.012-0.002c0.003-0.001,0.006-0.001,0.009-0.001
		c0.005-0.001,0.009-0.001,0.014-0.002c0.003-0.001,0.005-0.001,0.008-0.001c0.014-0.002,0.029-0.005,0.043-0.007
		c0.002,0,0.003-0.001,0.005-0.001c0.006-0.001,0.011-0.002,0.017-0.003c0.002,0,0.004-0.001,0.006-0.001
		c0.005-0.001,0.011-0.002,0.016-0.003c0.002,0,0.005-0.001,0.006-0.001c0.006-0.001,0.012-0.002,0.017-0.003l0.004-0.001
		c0.015-0.002,0.03-0.005,0.044-0.007l0.003-0.001c0.006-0.001,0.012-0.002,0.018-0.003c0.002,0,0.005-0.001,0.006-0.001
		c0.005-0.001,0.011-0.002,0.016-0.003c0.002,0,0.005-0.001,0.006-0.001c0.005-0.001,0.011-0.002,0.016-0.003
		c0.002,0,0.004-0.001,0.006-0.001c0.014-0.002,0.029-0.005,0.043-0.007c0.003-0.001,0.003-0.001,0.007-0.001
		c0.005-0.001,0.01-0.002,0.015-0.003c0.003-0.001,0.005-0.001,0.008-0.001c0.004-0.001,0.009-0.001,0.013-0.002
		c0.003-0.001,0.005-0.001,0.009-0.001c0.004-0.001,0.009-0.001,0.013-0.002c0.003-0.001,0.005-0.001,0.009-0.001
		c0.004-0.001,0.008-0.001,0.012-0.002c0.006-0.001,0.011-0.002,0.018-0.003c0.004-0.001,0.008-0.001,0.011-0.002
		c0.003-0.001,0.007-0.001,0.011-0.002c0.003-0.001,0.007-0.001,0.01-0.002c0.003-0.001,0.009-0.001,0.012-0.002
		c0.003-0.001,0.006-0.001,0.009-0.002c0.003-0.001,0.009-0.002,0.012-0.002c0.003,0,0.005-0.001,0.008-0.001
		c0.005-0.001,0.009-0.001,0.014-0.002c0.002,0,0.003-0.001,0.005-0.001c0.016-0.003,0.035-0.006,0.051-0.009
		c0.001,0,0.003,0,0.004-0.001c0.006-0.001,0.01-0.002,0.016-0.003c0.001,0,0.002,0,0.003-0.001
		c0.006-0.001,0.011-0.002,0.017-0.003c0.001,0,0.001,0,0.002,0c0.244-0.042,0.484-0.086,0.727-0.132L59.033,97.457L59.033,97.457z
		 M61.861,96.833c-0.467,0.118-0.937,0.229-1.41,0.333l0.366,1.66c0.091-0.02,0.183-0.041,0.274-0.061l0.002,0
		c0.007-0.002,0.014-0.003,0.021-0.005l0.001,0c0.022-0.005,0.045-0.01,0.067-0.015c0.002,0,0.002,0,0.004-0.001
		c0.006-0.001,0.012-0.003,0.018-0.004l0.004-0.001c0.006-0.001,0.012-0.003,0.018-0.004c0.002,0,0.002,0,0.004-0.001
		c0.015-0.003,0.029-0.007,0.044-0.01c0.002,0,0.001,0,0.002-0.001c0.006-0.001,0.013-0.003,0.019-0.004
		c0.002,0,0.004-0.001,0.005-0.001c0.005-0.001,0.01-0.002,0.016-0.004c0.003-0.001,0.004-0.001,0.007-0.002
		c0.005-0.001,0.01-0.002,0.015-0.003c0.002,0,0.005-0.001,0.007-0.002c0.006-0.001,0.012-0.003,0.017-0.004
		c0.002,0,0.003-0.001,0.004-0.001c0.007-0.002,0.013-0.003,0.02-0.005c0.003-0.001,0.006-0.001,0.009-0.002
		c0.004-0.001,0.008-0.002,0.012-0.003c0.003-0.001,0.007-0.002,0.01-0.002c0.004-0.001,0.007-0.002,0.011-0.003
		c0.003-0.001,0.007-0.002,0.01-0.002c0.004-0.001,0.007-0.002,0.011-0.003c0.003-0.001,0.007-0.002,0.011-0.002
		c0.003-0.001,0.006-0.002,0.01-0.002c0.008-0.002,0.014-0.003,0.022-0.005c0.002-0.001,0.005-0.001,0.007-0.002
		c0.005-0.001,0.008-0.002,0.013-0.003c0.003-0.001,0.005-0.001,0.008-0.002c0.003-0.001,0.01-0.002,0.013-0.003
		c0.002-0.001,0.004-0.001,0.007-0.002c0.005-0.001,0.009-0.002,0.014-0.003c0.002,0,0.003-0.001,0.005-0.001
		c0.017-0.004,0.035-0.008,0.052-0.012c0,0,0.001,0,0.001,0c0.005-0.001,0.012-0.003,0.016-0.004c0.001,0,0.003-0.001,0.004-0.001
		c0.006-0.001,0.01-0.002,0.016-0.004c0.001,0,0.002,0,0.002-0.001c0.031-0.007,0.061-0.015,0.092-0.022c0,0,0,0,0.001,0
		c0.177-0.043,0.356-0.087,0.532-0.131L61.861,96.833L61.861,96.833z M64.647,96.04c-0.459,0.146-0.922,0.285-1.387,0.418
		l0.466,1.635c0.086-0.025,0.171-0.049,0.258-0.074c0,0,0.001,0,0.001,0c0.025-0.007,0.048-0.014,0.073-0.021c0,0,0.001,0,0.001,0
		c0.006-0.002,0.01-0.003,0.016-0.005c0.001,0,0.002-0.001,0.003-0.001c0.006-0.002,0.009-0.003,0.015-0.005
		c0.002,0,0.003-0.001,0.005-0.001c0.005-0.001,0.01-0.003,0.014-0.004c0.001,0,0.003-0.001,0.004-0.001
		c0.009-0.003,0.017-0.005,0.026-0.008c0.002-0.001,0.005-0.001,0.007-0.002c0.005-0.001,0.007-0.002,0.011-0.003
		c0.003-0.001,0.006-0.002,0.009-0.003c0.003-0.001,0.008-0.002,0.011-0.003c0.004-0.001,0.007-0.002,0.011-0.003
		c0.003-0.001,0.006-0.002,0.009-0.003c0.004-0.001,0.009-0.003,0.013-0.004c0.003-0.001,0.004-0.001,0.007-0.002
		c0.007-0.002,0.014-0.004,0.021-0.006c0.002,0,0.001,0,0.003-0.001c0.006-0.002,0.012-0.004,0.018-0.005
		c0.002,0,0.004-0.001,0.006-0.002c0.006-0.002,0.011-0.003,0.017-0.005c0.002,0,0.003-0.001,0.004-0.001
		c0.006-0.002,0.012-0.004,0.018-0.005c0.002,0,0.002,0,0.003-0.001c0.015-0.004,0.029-0.009,0.044-0.013l0.001,0
		c0.007-0.002,0.014-0.004,0.021-0.006c0.002,0,0.001,0,0.003-0.001c0.006-0.002,0.013-0.004,0.019-0.006
		c0.002,0,0.001,0,0.002-0.001c0.022-0.007,0.044-0.013,0.066-0.02l0,0c0.007-0.002,0.014-0.004,0.022-0.007l0.002,0
		c0.03-0.009,0.059-0.018,0.089-0.027c0.002,0-0.001,0,0.001,0c0.007-0.002,0.014-0.004,0.021-0.006l0.002-0.001
		c0.007-0.002,0.014-0.004,0.021-0.006l0.001,0c0.014-0.004,0.029-0.009,0.043-0.013c0.002,0,0.002-0.001,0.004-0.001
		c0.006-0.002,0.011-0.003,0.017-0.005c0.003-0.001,0.003-0.001,0.006-0.002c0.005-0.002,0.01-0.003,0.015-0.005
		c0.002,0,0.005-0.002,0.007-0.002c0.005-0.002,0.01-0.003,0.015-0.005c0.003-0.001,0.003-0.001,0.006-0.002
		c0.006-0.002,0.013-0.004,0.019-0.006c0.003-0.001,0.008-0.002,0.011-0.003c0.003-0.001,0.006-0.002,0.009-0.003
		c0.005-0.001,0.008-0.002,0.012-0.004c0.002-0.001,0.005-0.001,0.007-0.002c0.005-0.001,0.01-0.003,0.015-0.005
		c0.001,0,0.002-0.001,0.003-0.001c0.116-0.036,0.231-0.072,0.347-0.109L64.647,96.04L64.647,96.04z M67.38,95.079
		c-0.45,0.174-0.903,0.341-1.359,0.501l0.564,1.604c0.322-0.113,0.642-0.229,0.961-0.349c0.002-0.001,0.004-0.001,0.006-0.002
		c0.004-0.002,0.007-0.002,0.011-0.004c0.003-0.001,0.007-0.002,0.01-0.004c0.003-0.001,0.006-0.002,0.009-0.003
		c0.005-0.002,0.009-0.003,0.014-0.005c0.001-0.001,0.005-0.002,0.006-0.002c0.131-0.049,0.262-0.099,0.392-0.149L67.38,95.079
		L67.38,95.079z M70.05,93.955c-0.439,0.2-0.881,0.395-1.327,0.582l0.66,1.567c0.216-0.091,0.432-0.184,0.646-0.278l0,0
		c0.028-0.012,0.057-0.025,0.085-0.037c0.001-0.001,0.001,0,0.002-0.001c0.006-0.003,0.013-0.006,0.019-0.008
		c0.001-0.001,0,0,0.002-0.001c0.021-0.009,0.042-0.018,0.062-0.028c0.001-0.001,0.002-0.001,0.003-0.001
		c0.006-0.003,0.011-0.005,0.017-0.008c0.001-0.001,0.003-0.001,0.004-0.002c0.006-0.003,0.011-0.005,0.017-0.008l0.003-0.001
		c0.013-0.006,0.027-0.012,0.04-0.018c0.001-0.001,0.003-0.002,0.005-0.002c0.005-0.002,0.01-0.004,0.015-0.007
		c0.003-0.001,0.004-0.002,0.006-0.003c0.004-0.002,0.009-0.004,0.013-0.006c0.003-0.001,0.004-0.002,0.007-0.003
		c0.005-0.002,0.01-0.005,0.016-0.007c0.003-0.001,0.003-0.001,0.006-0.003c0.006-0.003,0.011-0.005,0.017-0.008
		c0.003-0.001,0.006-0.003,0.008-0.004c0.003-0.002,0.007-0.003,0.01-0.005c0.003-0.001,0.007-0.003,0.01-0.005
		c0.003-0.001,0.006-0.002,0.008-0.004c0.004-0.002,0.007-0.003,0.012-0.005c0.002-0.001,0.004-0.002,0.007-0.003
		c0.014-0.006,0.029-0.013,0.043-0.019c0.001-0.001,0.003-0.001,0.004-0.002c0.006-0.003,0.009-0.004,0.014-0.007
		c0.001-0.001,0.002-0.001,0.003-0.001c0.006-0.003,0.01-0.004,0.016-0.007c0,0,0.001,0,0.001,0
		c0.084-0.038,0.165-0.075,0.249-0.113L70.05,93.955L70.05,93.955z M72.648,92.672c-0.426,0.227-0.856,0.447-1.289,0.661
		l0.753,1.524c0.449-0.222,0.894-0.45,1.335-0.684L72.648,92.672L72.648,92.672z M75.164,91.235
		c-0.412,0.252-0.827,0.498-1.247,0.737l0.843,1.476c0.37-0.211,0.737-0.427,1.102-0.648c0.001,0,0.001-0.001,0.002-0.001
		c0.005-0.003,0.01-0.006,0.015-0.009c0,0,0.001-0.001,0.001-0.001c0.013-0.008,0.028-0.017,0.041-0.025
		c0.003-0.002,0.005-0.003,0.008-0.005c0.004-0.002,0.005-0.003,0.009-0.006c0.003-0.002,0.006-0.004,0.009-0.006
		c0.003-0.002,0.006-0.003,0.008-0.005c0.004-0.002,0.007-0.004,0.011-0.007c0.003-0.002,0.005-0.003,0.007-0.004
		c0.012-0.008,0.025-0.015,0.037-0.023l0.003-0.002c0.006-0.003,0.011-0.007,0.017-0.01l0.002-0.001
		c0.006-0.004,0.013-0.008,0.019-0.011L75.164,91.235L75.164,91.235z M77.59,89.65c-0.396,0.276-0.796,0.546-1.201,0.811l0.93,1.423
		c0.056-0.037,0.11-0.072,0.166-0.109c0.001,0,0.001-0.001,0.002-0.001c0.005-0.003,0.008-0.005,0.014-0.009
		c0.002-0.001,0.003-0.002,0.005-0.003c0.004-0.003,0.008-0.005,0.012-0.008c0.005-0.004,0.011-0.007,0.016-0.011
		c0.001-0.001,0.004-0.003,0.005-0.004c0.004-0.003,0.009-0.006,0.013-0.009c0.001-0.001,0.004-0.002,0.005-0.003
		c0.005-0.003,0.01-0.007,0.015-0.01c0.001-0.001,0.001-0.001,0.002-0.002c0.332-0.22,0.661-0.444,0.988-0.671L77.59,89.65
		L77.59,89.65z M79.916,87.922c-0.379,0.299-0.762,0.593-1.15,0.881l1.014,1.365c0.065-0.049,0.131-0.097,0.196-0.146
		c0.001,0,0.001-0.001,0.002-0.001c0.019-0.014,0.037-0.028,0.056-0.042c0.001-0.001,0.003-0.002,0.004-0.003
		c0.004-0.003,0.008-0.006,0.012-0.009c0.001-0.001,0.003-0.002,0.004-0.003c0.004-0.003,0.008-0.006,0.012-0.009
		c0.001-0.001,0.002-0.002,0.003-0.002c0.009-0.007,0.018-0.014,0.027-0.02c0,0,0.001,0,0.001-0.001
		c0.004-0.003,0.007-0.005,0.011-0.008c0.002-0.002,0.004-0.003,0.006-0.005c0.004-0.003,0.006-0.004,0.01-0.007
		c0.003-0.002,0.005-0.004,0.008-0.006c0.002-0.002,0.006-0.005,0.009-0.006c0.003-0.002,0.006-0.005,0.009-0.007
		c0.002-0.002,0.005-0.004,0.007-0.005c0.005-0.004,0.011-0.008,0.016-0.012c0.002-0.002,0.004-0.003,0.007-0.005
		c0.004-0.003,0.007-0.005,0.011-0.008c0.002-0.002,0.005-0.003,0.007-0.005c0.004-0.003,0.007-0.005,0.011-0.008
		c0.001-0.001,0.005-0.004,0.006-0.005c0.004-0.003,0.009-0.007,0.013-0.01c0.001-0.001,0.003-0.002,0.004-0.003
		c0.006-0.004,0.012-0.009,0.017-0.013c0.001-0.001,0.001-0.001,0.003-0.002c0.005-0.004,0.01-0.008,0.015-0.012
		c0.001-0.001,0.002-0.002,0.004-0.003c0.005-0.004,0.01-0.008,0.015-0.011c0.001-0.001,0.002-0.001,0.003-0.002
		c0.018-0.014,0.036-0.028,0.054-0.041c0.001-0.001,0,0,0.001-0.001c0.006-0.005,0.012-0.009,0.018-0.014
		c0.001-0.001-0.001,0.001,0,0c0.205-0.157,0.408-0.315,0.61-0.475L79.916,87.922L79.916,87.922z M82.136,86.059
		c-0.36,0.321-0.726,0.638-1.096,0.948l1.093,1.302c0.251-0.211,0.501-0.425,0.748-0.64l0,0c0.005-0.005,0.011-0.01,0.016-0.014
		l0.002-0.002c0.005-0.004,0.01-0.009,0.015-0.013l0.003-0.002c0.006-0.005,0.011-0.01,0.017-0.015l0.001-0.001
		c0.005-0.004,0.01-0.009,0.015-0.013c0.001-0.001,0.006-0.005,0.007-0.006c0.003-0.002,0.005-0.005,0.008-0.007
		c0.002-0.002,0.007-0.006,0.009-0.008c0.002-0.002,0.004-0.003,0.005-0.005c0.096-0.085,0.193-0.17,0.288-0.255L82.136,86.059
		L82.136,86.059z M84.24,84.066c-0.341,0.342-0.687,0.68-1.037,1.012l1.169,1.234c0.289-0.274,0.575-0.551,0.858-0.832l0.001-0.001
		c0.005-0.005,0.01-0.01,0.016-0.016l0.001-0.001c0.01-0.01,0.021-0.021,0.031-0.031c0.001-0.001,0.004-0.004,0.005-0.005
		c0.003-0.003,0.006-0.006,0.01-0.01c0.002-0.002,0.004-0.004,0.007-0.007c0.003-0.003,0.005-0.005,0.008-0.008
		c0.002-0.002,0.006-0.006,0.008-0.008c0.001-0.001,0.002-0.002,0.003-0.003c0.007-0.007,0.015-0.015,0.022-0.022
		c0.001-0.001,0.001-0.001,0.002-0.002c0.003-0.003,0.008-0.008,0.011-0.011c0.001-0.001,0.002-0.002,0.003-0.003
		c0.03-0.03,0.059-0.059,0.089-0.089L84.24,84.066L84.24,84.066z M86.222,81.951c-0.32,0.362-0.645,0.72-0.975,1.072l1.24,1.163
		c0.009-0.009,0.016-0.017,0.024-0.026c0.002-0.002,0.003-0.003,0.005-0.005c0.003-0.003,0.005-0.005,0.008-0.008
		c0.003-0.003,0.005-0.006,0.008-0.009c0.002-0.002,0.004-0.004,0.006-0.006c0.004-0.004,0.008-0.009,0.012-0.013l0.002-0.002
		c0.181-0.194,0.361-0.389,0.539-0.586l0,0c0.005-0.005,0.01-0.011,0.015-0.016c0.001-0.001,0,0,0.001-0.001
		c0.005-0.005,0.009-0.01,0.014-0.016l0.001-0.001c0.01-0.011,0.02-0.022,0.03-0.033c0.001-0.001,0.003-0.003,0.004-0.004
		c0.004-0.004,0.007-0.008,0.011-0.012c0.001-0.001,0.003-0.004,0.004-0.005c0.003-0.004,0.007-0.008,0.01-0.011
		c0.002-0.002,0.002-0.002,0.004-0.005c0.005-0.005,0.009-0.01,0.014-0.016c0.001-0.001,0.003-0.003,0.004-0.004
		c0.004-0.004,0.007-0.008,0.011-0.012c0.002-0.002,0.004-0.004,0.006-0.006c0.003-0.003,0.006-0.006,0.008-0.009
		c0.002-0.002,0.005-0.005,0.007-0.007c0.002-0.003,0.005-0.005,0.007-0.008c0.002-0.002,0.005-0.006,0.008-0.008
		c0.002-0.003,0.005-0.006,0.007-0.008c0.004-0.005,0.009-0.01,0.013-0.014c0.002-0.002,0.004-0.005,0.006-0.007
		c0.003-0.003,0.005-0.005,0.008-0.009c0.002-0.002,0.004-0.005,0.006-0.007c0.002-0.002,0.006-0.006,0.008-0.009
		c0.002-0.002,0.004-0.005,0.006-0.007c0.003-0.003,0.004-0.005,0.007-0.008c0.004-0.004,0.007-0.008,0.011-0.012
		c0.003-0.003,0.006-0.006,0.009-0.01c0.003-0.003,0.005-0.006,0.008-0.008c0.002-0.002,0.005-0.006,0.007-0.008
		c0.002-0.003,0.005-0.005,0.007-0.008c0.002-0.002,0.005-0.005,0.007-0.007c0.003-0.003,0.005-0.006,0.008-0.009
		c0.002-0.002,0.004-0.005,0.006-0.007c0.005-0.005,0.009-0.01,0.014-0.015c0.001-0.001,0.002-0.002,0.003-0.003
		c0.004-0.004,0.008-0.009,0.011-0.013c0.001-0.001,0.003-0.003,0.004-0.004c0.004-0.004,0.007-0.008,0.011-0.013
		c0.001-0.001,0.002-0.003,0.003-0.004c0.004-0.005,0.008-0.009,0.013-0.014l0.002-0.002c0.021-0.023,0.041-0.047,0.062-0.07
		L86.222,81.951L86.222,81.951z M88.075,79.723c-0.298,0.381-0.601,0.757-0.91,1.128l1.307,1.087c0.001-0.001,0,0,0.001-0.001
		c0.009-0.011,0.019-0.022,0.028-0.034c0.001-0.001,0.002-0.003,0.003-0.004c0.004-0.004,0.007-0.009,0.011-0.013
		c0.001-0.001,0.002-0.003,0.003-0.004c0.004-0.005,0.008-0.009,0.012-0.014l0.002-0.003c0.01-0.011,0.019-0.023,0.029-0.034
		c0.001-0.001,0.001-0.002,0.002-0.003c0.004-0.005,0.008-0.01,0.012-0.015c0.001-0.001,0.001-0.001,0.002-0.003
		c0.004-0.005,0.008-0.01,0.013-0.015l0.002-0.002c0.01-0.012,0.019-0.023,0.029-0.035c0.001-0.001,0.001-0.002,0.002-0.003
		c0.004-0.005,0.008-0.01,0.012-0.015c0.001-0.001,0.001-0.001,0.002-0.003c0.004-0.005,0.009-0.011,0.013-0.016l0.001-0.001
		c0.01-0.012,0.019-0.023,0.029-0.035c0.001-0.001,0.001-0.001,0.002-0.002c0.004-0.005,0.008-0.01,0.013-0.015
		c0.001-0.001,0.001-0.001,0.002-0.003c0.004-0.005,0.009-0.01,0.013-0.016l0.001-0.002c0.01-0.012,0.019-0.023,0.029-0.035
		c0.001-0.001,0-0.001,0.001-0.002c0.004-0.005,0.009-0.011,0.013-0.016l0.001-0.002c0.015-0.018,0.029-0.036,0.044-0.054l0,0
		c0.005-0.006,0.01-0.012,0.014-0.018l0.001-0.001c0.202-0.248,0.402-0.499,0.599-0.751L88.075,79.723L88.075,79.723z M89.79,77.387
		c-0.274,0.398-0.555,0.791-0.84,1.181l1.37,1.007l0.001-0.001c0.272-0.371,0.54-0.745,0.802-1.123
		c0.001-0.001,0.001-0.002,0.002-0.003c0.003-0.004,0.006-0.009,0.009-0.013c0.002-0.003,0.004-0.005,0.005-0.008
		c0.002-0.003,0.004-0.006,0.006-0.009c0.003-0.004,0.004-0.006,0.007-0.01c0.001-0.001,0.002-0.003,0.003-0.004
		c0.012-0.017,0.023-0.033,0.035-0.05L89.79,77.387L89.79,77.387z M91.363,74.954c-0.25,0.414-0.506,0.823-0.768,1.229l1.428,0.923
		c0.271-0.42,0.536-0.844,0.795-1.272L91.363,74.954L91.363,74.954z M92.787,72.43c-0.225,0.428-0.456,0.852-0.693,1.272
		l1.481,0.836c0.061-0.109,0.122-0.218,0.183-0.327l0-0.001c0.003-0.006,0.007-0.012,0.01-0.018
		c0.001-0.001,0.002-0.003,0.002-0.004c0.003-0.005,0.005-0.01,0.008-0.015c0.001-0.001,0.002-0.004,0.003-0.005
		c0.003-0.005,0.005-0.01,0.008-0.015c0.001-0.001,0.002-0.003,0.003-0.005c0.003-0.006,0.007-0.012,0.01-0.018
		c0.002-0.003,0.003-0.005,0.004-0.007c0.002-0.004,0.004-0.007,0.006-0.011c0.002-0.003,0.003-0.006,0.005-0.008
		c0.002-0.003,0.004-0.007,0.006-0.01c0.002-0.003,0.004-0.007,0.005-0.01c0.001-0.003,0.003-0.005,0.004-0.008
		c0.008-0.014,0.014-0.026,0.022-0.04c0.001-0.002,0.002-0.004,0.003-0.006c0.002-0.004,0.004-0.008,0.007-0.012
		c0.001-0.002,0.002-0.004,0.003-0.005c0.002-0.004,0.005-0.009,0.007-0.013c0.001-0.001,0.001-0.003,0.002-0.004
		c0.008-0.015,0.017-0.031,0.025-0.046c0,0,0-0.001,0.001-0.001c0.002-0.004,0.005-0.01,0.008-0.014
		c0.001-0.001,0.001-0.003,0.002-0.004c0.003-0.006,0.005-0.009,0.008-0.014c0.001-0.001,0.001-0.002,0.002-0.003
		c0.009-0.017,0.017-0.03,0.026-0.047c0,0,0-0.001,0.001-0.001c0.002-0.004,0.005-0.009,0.007-0.013
		c0.001-0.002,0.002-0.003,0.003-0.005c0.002-0.004,0.004-0.008,0.007-0.012c0.001-0.002,0.002-0.004,0.003-0.006
		c0.002-0.004,0.004-0.008,0.007-0.012c0.001-0.001,0.001-0.002,0.002-0.003c0.005-0.008,0.01-0.019,0.015-0.027
		c0.001-0.001,0.001-0.003,0.002-0.004c0.002-0.004,0.004-0.007,0.006-0.011c0.001-0.002,0.003-0.005,0.004-0.007
		c0.001-0.003,0.004-0.008,0.006-0.011c0.001-0.002,0.003-0.005,0.004-0.007c0.002-0.004,0.004-0.007,0.006-0.011
		c0.001-0.002,0.002-0.004,0.004-0.007c0.004-0.007,0.007-0.012,0.01-0.019c0.002-0.003,0.003-0.006,0.005-0.01
		c0.001-0.003,0.003-0.006,0.005-0.009c0.002-0.003,0.003-0.006,0.005-0.01c0.001-0.003,0.004-0.007,0.005-0.009
		c0.002-0.003,0.004-0.007,0.006-0.01c0.001-0.003,0.003-0.005,0.004-0.008c0.002-0.004,0.005-0.008,0.007-0.013
		c0.001-0.003,0.002-0.003,0.003-0.006c0.003-0.006,0.007-0.012,0.01-0.018c0.001-0.003,0.001-0.003,0.003-0.005
		c0.003-0.005,0.005-0.009,0.008-0.014c0.001-0.001,0.002-0.004,0.003-0.006c0.003-0.005,0.005-0.01,0.008-0.015
		c0.001-0.001,0.002-0.003,0.002-0.004c0.003-0.006,0.006-0.012,0.01-0.018c0.001-0.001,0,0,0.001-0.001
		c0.007-0.013,0.014-0.027,0.021-0.04c0.001-0.001,0-0.001,0.001-0.002c0.003-0.006,0.007-0.012,0.01-0.019
		c0.001-0.001,0,0,0.001-0.001c0.048-0.09,0.095-0.179,0.142-0.269L92.787,72.43L92.787,72.43z M94.057,69.826
		c-0.199,0.441-0.404,0.878-0.615,1.312l1.528,0.745c0.022-0.045,0.044-0.091,0.066-0.137c0,0,0-0.001,0-0.001
		c0.003-0.006,0.005-0.01,0.008-0.016c0-0.001,0.001-0.002,0.001-0.003c0.007-0.014,0.012-0.024,0.019-0.039
		c0.002-0.005,0.004-0.009,0.007-0.014c0.001-0.001,0.002-0.004,0.003-0.006c0.002-0.005,0.005-0.01,0.007-0.015
		c0.001-0.001,0.001-0.002,0.002-0.004c0.003-0.006,0.006-0.013,0.009-0.019l0,0c0.139-0.288,0.274-0.578,0.408-0.869l0.001-0.001
		c0.003-0.006,0.006-0.012,0.008-0.018c0.001-0.001,0.001-0.002,0.002-0.004c0.002-0.005,0.005-0.011,0.007-0.016
		c0.001-0.001,0.001-0.003,0.002-0.004c0.003-0.006,0.006-0.012,0.008-0.018c0.002-0.004,0.004-0.009,0.006-0.014
		c0.001-0.002,0.001-0.003,0.002-0.005c0.003-0.006,0.004-0.01,0.007-0.015c0-0.001,0.001-0.001,0.001-0.002
		c0.021-0.046,0.042-0.092,0.062-0.138L94.057,69.826L94.057,69.826z M95.167,67.15c-0.172,0.452-0.35,0.901-0.535,1.346l1.57,0.651
		c0.061-0.147,0.121-0.295,0.181-0.442c0,0,0-0.001,0-0.001c0.002-0.006,0.005-0.011,0.007-0.017c0,0,0,0,0,0
		c0.007-0.016,0.013-0.032,0.02-0.048c0.001-0.002,0.002-0.004,0.003-0.007c0.002-0.004,0.003-0.007,0.005-0.011
		c0.001-0.003,0.003-0.007,0.004-0.01c0.001-0.003,0.003-0.006,0.004-0.009c0.002-0.004,0.003-0.008,0.005-0.012
		c0.001-0.003,0.002-0.005,0.003-0.008c0.003-0.006,0.005-0.013,0.008-0.02c0.001-0.001,0.001-0.003,0.002-0.004
		c0.002-0.005,0.004-0.011,0.006-0.016c0.001-0.001,0.002-0.004,0.002-0.006c0.002-0.005,0.004-0.01,0.006-0.015
		c0.001-0.001,0.002-0.004,0.002-0.005c0.002-0.006,0.005-0.012,0.007-0.017l0.001-0.003c0.006-0.014,0.011-0.028,0.017-0.042
		l0.001-0.003c0.002-0.006,0.005-0.012,0.007-0.018l0.001-0.003c0.003-0.007,0.005-0.013,0.008-0.02l0-0.001
		c0.023-0.058,0.046-0.116,0.069-0.174l0-0.001c0.011-0.029,0.022-0.057,0.034-0.086l0.001-0.002
		c0.003-0.007,0.005-0.013,0.008-0.02l0-0.001c0.008-0.021,0.017-0.042,0.025-0.064c0.001-0.001,0.001-0.002,0.001-0.004
		c0.002-0.006,0.005-0.012,0.007-0.018c0.001-0.001,0.001-0.002,0.002-0.004c0.002-0.006,0.004-0.012,0.007-0.017
		c0.001-0.001,0.001-0.002,0.001-0.004c0.003-0.007,0.005-0.014,0.008-0.021c0.001-0.001,0-0.001,0.001-0.003
		c0.002-0.006,0.004-0.011,0.007-0.017c0.001-0.001,0.002-0.006,0.003-0.007c0.002-0.004,0.003-0.008,0.005-0.012
		c0.001-0.003,0.002-0.006,0.003-0.009c0.001-0.004,0.003-0.007,0.004-0.011c0.002-0.004,0.002-0.005,0.004-0.01
		c0.001-0.003,0.003-0.007,0.004-0.01c0.003-0.007,0.006-0.014,0.008-0.022c0.001-0.002,0.001-0.003,0.002-0.005
		c0.002-0.004,0.003-0.009,0.005-0.013c0.001-0.002,0.002-0.004,0.002-0.006c0.002-0.004,0.003-0.009,0.005-0.013
		c0.001-0.002,0.001-0.003,0.002-0.005c0.002-0.004,0.004-0.01,0.006-0.014c0-0.001,0.001-0.002,0.001-0.002
		c0.009-0.024,0.017-0.046,0.026-0.069c0,0,0,0,0,0c0.001-0.003,0.003-0.008,0.004-0.011L95.167,67.15L95.167,67.15z M96.114,64.412
		c-0.144,0.462-0.295,0.92-0.453,1.376l1.607,0.555c0.038-0.109,0.074-0.216,0.111-0.325c0,0,0-0.001,0-0.001
		c0.002-0.006,0.003-0.01,0.005-0.016c0-0.001,0.001-0.002,0.001-0.004c0.002-0.006,0.003-0.01,0.005-0.016
		c0-0.001,0.001-0.002,0.001-0.003c0.006-0.017,0.01-0.031,0.016-0.048c0.001-0.002,0.001-0.004,0.002-0.006
		c0.002-0.005,0.002-0.007,0.004-0.012c0.001-0.003,0.002-0.006,0.003-0.008c0.001-0.003,0.003-0.008,0.004-0.011
		c0.001-0.003,0.002-0.007,0.003-0.01c0.002-0.005,0.002-0.006,0.003-0.01c0.001-0.004,0.003-0.007,0.004-0.011
		c0.001-0.003,0.002-0.006,0.003-0.009c0.002-0.006,0.004-0.013,0.006-0.019c0.001-0.003,0.002-0.005,0.003-0.008
		c0.001-0.004,0.003-0.008,0.004-0.012c0.001-0.003,0.002-0.006,0.003-0.009c0.001-0.004,0.003-0.008,0.004-0.013
		c0.001-0.003,0.001-0.004,0.002-0.008c0.002-0.005,0.003-0.01,0.005-0.015c0.001-0.003,0.001-0.002,0.002-0.005
		c0.005-0.014,0.009-0.028,0.014-0.041c0.001-0.002,0.001-0.004,0.002-0.005c0.002-0.005,0.003-0.011,0.005-0.016
		c0.001-0.003,0.001-0.003,0.002-0.006c0.002-0.005,0.003-0.011,0.005-0.016c0.001-0.002,0.001-0.004,0.002-0.005
		c0.002-0.006,0.004-0.013,0.006-0.019c0.001-0.002,0,0,0.001-0.002c0.002-0.007,0.005-0.014,0.007-0.021
		c0.001-0.002,0.001-0.002,0.001-0.003c0.002-0.006,0.004-0.012,0.006-0.017c0.001-0.002,0.001-0.004,0.002-0.005
		c0.002-0.005,0.004-0.011,0.005-0.016c0-0.002,0.001-0.004,0.002-0.005c0.002-0.006,0.004-0.012,0.006-0.017l0.001-0.004
		c0.005-0.014,0.009-0.028,0.014-0.042c0-0.002,0.001-0.003,0.001-0.004c0.002-0.005,0.004-0.011,0.005-0.016
		c0.001-0.003,0.001-0.003,0.002-0.006c0.002-0.005,0.003-0.01,0.005-0.015c0-0.002,0.001-0.005,0.002-0.006
		c0.002-0.006,0.004-0.011,0.006-0.017c0-0.002,0.001-0.002,0.001-0.004c0.002-0.007,0.004-0.014,0.007-0.021
		c0.001-0.003,0.001-0.003,0.002-0.006c0.002-0.005,0.003-0.01,0.005-0.014c0.001-0.003,0.002-0.006,0.003-0.009
		c0.001-0.004,0.002-0.008,0.004-0.011c0.001-0.003,0.002-0.007,0.003-0.01c0.001-0.003,0.002-0.007,0.003-0.01
		c0.001-0.005,0.002-0.007,0.004-0.011c0.001-0.002,0.001-0.004,0.002-0.006c0.003-0.009,0.006-0.019,0.009-0.028
		c0-0.001,0.001-0.002,0.001-0.003c0.001-0.005,0.003-0.01,0.005-0.015c0.001-0.002,0.001-0.003,0.002-0.005
		c0.002-0.006,0.003-0.01,0.005-0.016c0-0.001,0-0.001,0.001-0.002c0.04-0.123,0.078-0.246,0.117-0.37L96.114,64.412L96.114,64.412z
		 M96.893,61.622c-0.116,0.47-0.239,0.937-0.369,1.401l1.637,0.457c0.055-0.195,0.108-0.391,0.16-0.587l0,0
		c0.004-0.015,0.008-0.03,0.012-0.045l0.001-0.002c0.002-0.006,0.003-0.013,0.005-0.019c0-0.002,0.001-0.004,0.001-0.006
		c0.001-0.005,0.003-0.01,0.004-0.015c0-0.002,0.001-0.005,0.002-0.007c0.001-0.005,0.003-0.009,0.004-0.014
		c0.001-0.003,0.001-0.004,0.002-0.008c0.001-0.005,0.003-0.009,0.004-0.014c0.001-0.005,0.003-0.011,0.004-0.015
		c0.001-0.004,0.002-0.007,0.003-0.011c0.001-0.005,0.002-0.007,0.003-0.011c0.001-0.003,0.002-0.006,0.002-0.009
		c0.001-0.003,0.002-0.009,0.003-0.012c0.001-0.003,0.001-0.005,0.002-0.008c0.001-0.005,0.002-0.008,0.003-0.013
		c0-0.002,0.001-0.004,0.001-0.006c0.004-0.017,0.009-0.035,0.014-0.052c0,0,0,0,0,0c0.002-0.006,0.003-0.011,0.004-0.017
		c0-0.001,0-0.002,0.001-0.003c0.002-0.006,0.003-0.011,0.004-0.017c0-0.001,0-0.001,0-0.002c0.008-0.031,0.016-0.06,0.024-0.092
		c0-0.001,0-0.001,0.001-0.002c0.01-0.037,0.019-0.074,0.028-0.111c0,0,0,0,0,0c0.008-0.031,0.015-0.061,0.023-0.092
		c0-0.001,0-0.002,0.001-0.002c0.002-0.006,0.002-0.01,0.004-0.016c0-0.002,0.001-0.003,0.001-0.005
		c0.001-0.005,0.003-0.01,0.004-0.015c0-0.001,0.001-0.002,0.001-0.004c0.004-0.014,0.008-0.032,0.011-0.046
		c0.001-0.003,0.002-0.007,0.003-0.01c0.001-0.003,0.002-0.006,0.002-0.01c0.001-0.004,0.002-0.008,0.003-0.012
		c0.001-0.003,0.001-0.005,0.002-0.008c0.001-0.005,0.003-0.01,0.004-0.015c0-0.002,0.001-0.004,0.001-0.005
		c0.006-0.022,0.011-0.045,0.017-0.067l0,0c0.004-0.015,0.008-0.03,0.011-0.046L96.893,61.622L96.893,61.622z M97.502,58.79
		c-0.088,0.476-0.182,0.95-0.283,1.421l1.662,0.358c0.026-0.119,0.051-0.237,0.075-0.356c0-0.001,0-0.002,0.001-0.003
		c0.001-0.005,0.002-0.01,0.003-0.015c0-0.002,0.001-0.005,0.001-0.007c0.001-0.003,0.002-0.009,0.003-0.012
		c0.001-0.004,0.002-0.007,0.002-0.011c0.001-0.003,0.001-0.006,0.002-0.009c0.001-0.007,0.003-0.014,0.004-0.021l0,0
		c0.001-0.007,0.003-0.014,0.004-0.022l0.001-0.004c0.001-0.006,0.003-0.013,0.004-0.019c0-0.002,0-0.001,0-0.002
		c0.001-0.007,0.003-0.015,0.004-0.022c0-0.002,0,0.001,0,0c0.037-0.183,0.074-0.367,0.109-0.55l0.001-0.003
		c0.001-0.007,0.003-0.013,0.004-0.02c0-0.002,0-0.001,0.001-0.003c0.001-0.007,0.003-0.014,0.004-0.021c0-0.002,0,0.001,0-0.001
		c0.001-0.007,0.003-0.015,0.004-0.022c0-0.002,0.001-0.004,0.001-0.006c0.001-0.005,0.002-0.01,0.003-0.015
		c0.001-0.003,0.001-0.007,0.002-0.01c0.001-0.003,0.001-0.007,0.002-0.01c0.001-0.003,0.002-0.009,0.002-0.012
		c0-0.003,0.001-0.005,0.001-0.008c0.001-0.005,0.002-0.01,0.003-0.015c0,0,0-0.001,0-0.001c0.017-0.091,0.034-0.179,0.051-0.271
		L97.502,58.79L97.502,58.79z M97.94,55.926c-0.059,0.481-0.125,0.959-0.197,1.436l1.68,0.257c0.024-0.157,0.047-0.313,0.07-0.47
		c0,0,0-0.001,0-0.001c0.003-0.018,0.005-0.036,0.008-0.054c0-0.001,0-0.003,0.001-0.004c0.001-0.005,0.001-0.007,0.002-0.012
		c0-0.003,0.001-0.007,0.001-0.01c0-0.003,0.001-0.007,0.001-0.011c0.001-0.004,0.001-0.008,0.002-0.012
		c0-0.003,0.001-0.005,0.001-0.008c0.001-0.005,0.001-0.01,0.002-0.016c0-0.002,0.001-0.004,0.001-0.006
		c0.041-0.293,0.08-0.588,0.116-0.883L97.94,55.926L97.94,55.926z M98.206,53.04c-0.03,0.484-0.067,0.965-0.111,1.445l1.693,0.156
		c0.006-0.069,0.013-0.139,0.019-0.209l0-0.002c0.001-0.006,0.001-0.013,0.002-0.019c0-0.002,0-0.003,0-0.005
		c0-0.005,0.001-0.011,0.001-0.017c0-0.003,0-0.003,0.001-0.007c0-0.005,0.001-0.009,0.001-0.014
		c0.001-0.008,0.001-0.016,0.002-0.024c0-0.001,0-0.002,0-0.003c0.001-0.007,0.001-0.011,0.001-0.017c0-0.001,0-0.002,0-0.003
		c0.033-0.391,0.062-0.783,0.087-1.176L98.206,53.04L98.206,53.04z M98.3,50.142c-0.001,0.485-0.01,0.968-0.026,1.45l1.699,0.055
		c0.016-0.498,0.025-0.998,0.026-1.5L98.3,50.142L98.3,50.142z M99.92,47.148l-1.697,0.095c0.027,0.481,0.047,0.964,0.06,1.449
		l1.699-0.045c-0.005-0.193-0.011-0.382-0.019-0.574c0-0.003,0-0.005,0-0.008c0-0.003,0-0.009,0-0.012c0-0.003,0-0.007,0-0.01
		c0-0.003,0-0.007,0-0.011c0-0.004,0-0.008,0-0.013c0-0.002,0-0.007,0-0.009c0-0.006,0-0.011-0.001-0.017c0-0.002,0-0.003,0-0.004
		c-0.001-0.015-0.001-0.031-0.002-0.046l0-0.001c0-0.007-0.001-0.015-0.001-0.022c0-0.002,0,0,0-0.002
		c0-0.007-0.001-0.015-0.001-0.022l0,0C99.946,47.646,99.934,47.397,99.92,47.148L99.92,47.148z M99.662,44.159l-1.689,0.196
		c0.056,0.478,0.104,0.959,0.146,1.442l1.694-0.146C99.77,45.152,99.72,44.654,99.662,44.159L99.662,44.159z M99.227,41.192
		l-1.674,0.297c0.084,0.474,0.162,0.951,0.232,1.43l1.682-0.247c-0.018-0.124-0.037-0.247-0.056-0.37c0-0.002,0-0.002-0.001-0.004
		c-0.001-0.006-0.002-0.013-0.003-0.019c0-0.002,0-0.002-0.001-0.004c-0.001-0.006-0.002-0.012-0.003-0.019
		c0-0.002,0-0.002-0.001-0.004c-0.002-0.015-0.005-0.03-0.007-0.044c0-0.002,0-0.003-0.001-0.004
		c-0.001-0.006-0.002-0.012-0.003-0.017c0-0.002-0.001-0.005-0.001-0.007c-0.001-0.005-0.002-0.01-0.002-0.015
		c-0.001-0.003-0.001-0.004-0.001-0.007c-0.001-0.005-0.002-0.01-0.002-0.015c0-0.002-0.001-0.005-0.001-0.007
		c-0.001-0.006-0.002-0.011-0.003-0.017c0-0.002-0.001-0.004-0.001-0.005c-0.001-0.007-0.002-0.014-0.003-0.021
		c0-0.002-0.001-0.004-0.001-0.006c-0.001-0.005-0.002-0.011-0.003-0.016c0-0.002-0.001-0.007-0.001-0.008
		c-0.001-0.004-0.001-0.009-0.002-0.013c-0.001-0.003-0.001-0.006-0.001-0.009c-0.001-0.004-0.001-0.008-0.002-0.012
		c0-0.002-0.001-0.008-0.001-0.009c-0.001-0.005-0.001-0.009-0.002-0.014c-0.001-0.003-0.001-0.004-0.001-0.007
		c-0.001-0.007-0.002-0.013-0.003-0.02c-0.001-0.003-0.001-0.007-0.002-0.01c-0.001-0.004-0.001-0.007-0.002-0.011
		c-0.001-0.005-0.001-0.006-0.002-0.011c-0.001-0.003-0.001-0.007-0.002-0.01c-0.001-0.003-0.001-0.008-0.002-0.012
		c-0.001-0.003-0.001-0.007-0.002-0.01c-0.001-0.005-0.001-0.006-0.002-0.011c-0.001-0.003-0.001-0.007-0.002-0.01
		c-0.001-0.003-0.001-0.008-0.002-0.011c-0.001-0.006-0.002-0.013-0.003-0.019c-0.001-0.003-0.001-0.008-0.002-0.011
		c-0.001-0.003-0.001-0.006-0.002-0.01c-0.001-0.005-0.001-0.008-0.002-0.013c0-0.003-0.001-0.005-0.001-0.008
		c-0.001-0.003-0.002-0.01-0.002-0.013c0-0.003-0.001-0.005-0.001-0.008c-0.001-0.005-0.001-0.008-0.002-0.013
		c0-0.002-0.001-0.005-0.001-0.007c-0.003-0.018-0.006-0.035-0.009-0.052c0,0,0,0,0,0c-0.001-0.006-0.002-0.011-0.003-0.018
		c0-0.001,0-0.002,0-0.002c-0.001-0.006-0.002-0.011-0.003-0.017c0-0.001,0-0.001,0-0.002
		C99.284,41.522,99.256,41.357,99.227,41.192L99.227,41.192z M98.613,38.255l-1.653,0.398c0.113,0.468,0.219,0.94,0.318,1.413
		l1.664-0.348c-0.016-0.076-0.032-0.152-0.048-0.228l0-0.002c-0.003-0.014-0.006-0.028-0.009-0.043
		c-0.001-0.005-0.001-0.006-0.002-0.011c-0.001-0.003-0.001-0.006-0.002-0.009c-0.001-0.003-0.002-0.01-0.003-0.013
		c0-0.002-0.001-0.004-0.001-0.006c-0.001-0.005-0.002-0.01-0.003-0.015c0-0.001,0-0.002-0.001-0.003
		c-0.061-0.283-0.125-0.566-0.191-0.848c0-0.001-0.001-0.003-0.001-0.004c-0.001-0.005-0.002-0.01-0.003-0.014
		c-0.001-0.003-0.001-0.005-0.002-0.007c-0.001-0.005-0.002-0.008-0.003-0.012c-0.001-0.004-0.002-0.008-0.003-0.012
		c-0.001-0.003-0.001-0.005-0.002-0.008c-0.002-0.007-0.003-0.014-0.005-0.021c0-0.002,0-0.002-0.001-0.004
		c-0.001-0.006-0.003-0.012-0.004-0.019c0-0.002,0-0.002-0.001-0.003c-0.002-0.007-0.003-0.014-0.005-0.02l0,0
		C98.638,38.361,98.626,38.308,98.613,38.255L98.613,38.255z M97.823,35.362l-1.626,0.497c0.141,0.461,0.275,0.925,0.403,1.392
		l1.64-0.448c-0.006-0.022-0.012-0.044-0.018-0.066c-0.001-0.003-0.002-0.006-0.002-0.009c-0.001-0.003-0.002-0.007-0.003-0.01
		c-0.001-0.003-0.003-0.01-0.003-0.013c-0.001-0.002-0.001-0.004-0.002-0.006c-0.001-0.005-0.003-0.01-0.004-0.015
		c0-0.001,0-0.001-0.001-0.002c-0.082-0.298-0.166-0.591-0.253-0.886c0-0.001,0-0.001-0.001-0.002
		c-0.001-0.005-0.003-0.01-0.004-0.015c-0.001-0.002-0.001-0.004-0.002-0.006c-0.001-0.003-0.003-0.01-0.004-0.013
		c-0.001-0.003-0.002-0.006-0.003-0.009c-0.001-0.005-0.002-0.006-0.003-0.011c-0.002-0.006-0.003-0.012-0.005-0.017
		c0-0.002,0-0.001-0.001-0.002c-0.002-0.007-0.004-0.014-0.006-0.021l-0.001-0.003c-0.002-0.006-0.004-0.012-0.006-0.018
		c0-0.002-0.001-0.002-0.001-0.003c-0.002-0.007-0.004-0.014-0.006-0.02c0-0.002,0,0.001,0,0
		C97.882,35.556,97.853,35.459,97.823,35.362L97.823,35.362z M96.86,32.521l-1.593,0.594c0.169,0.452,0.331,0.907,0.486,1.365
		l1.61-0.546c-0.097-0.287-0.197-0.571-0.299-0.856c0,0,0,0,0,0c-0.002-0.006-0.004-0.01-0.006-0.016
		c0-0.001-0.001-0.002-0.001-0.003c-0.002-0.006-0.004-0.01-0.006-0.016c0,0,0,0,0-0.001c-0.006-0.016-0.012-0.035-0.018-0.051
		c0-0.001-0.001-0.002-0.001-0.003c-0.002-0.004-0.003-0.01-0.005-0.014c-0.001-0.002-0.001-0.004-0.002-0.006
		c-0.001-0.003-0.004-0.01-0.005-0.013c-0.001-0.003-0.002-0.005-0.003-0.008c-0.002-0.004-0.003-0.007-0.004-0.012
		c-0.001-0.003-0.002-0.005-0.003-0.008c-0.002-0.006-0.005-0.014-0.007-0.02C97.001,32.903,97,32.9,96.998,32.897
		c-0.001-0.003-0.003-0.007-0.004-0.01c-0.001-0.003-0.003-0.007-0.004-0.01c-0.001-0.003-0.002-0.007-0.004-0.01
		c-0.001-0.004-0.003-0.007-0.004-0.011c-0.001-0.003-0.002-0.005-0.003-0.008c-0.002-0.005-0.004-0.01-0.006-0.016
		c-0.001-0.001-0.001-0.003-0.002-0.004c-0.005-0.014-0.01-0.028-0.015-0.042c-0.001-0.001-0.001-0.002-0.001-0.003
		c-0.002-0.006-0.005-0.013-0.007-0.019l-0.001-0.002C96.919,32.681,96.89,32.601,96.86,32.521L96.86,32.521z M95.727,29.744
		l-1.554,0.689c0.196,0.441,0.385,0.885,0.567,1.333l1.574-0.642c0,0-0.001-0.004-0.001-0.004c-0.002-0.004-0.004-0.009-0.006-0.013
		c-0.001-0.003-0.001-0.003-0.002-0.006c-0.003-0.007-0.005-0.013-0.008-0.02c-0.001-0.001-0.001-0.002-0.001-0.004
		c-0.002-0.006-0.005-0.011-0.007-0.017c-0.001-0.001-0.001-0.003-0.002-0.005c-0.002-0.005-0.004-0.011-0.007-0.016
		c-0.001-0.001-0.001-0.003-0.002-0.004C96.1,30.602,95.916,30.171,95.727,29.744L95.727,29.744z M94.428,27.04l-1.51,0.782
		c0.222,0.428,0.437,0.861,0.647,1.296l1.532-0.736c-0.212-0.441-0.43-0.878-0.654-1.313c0,0,0,0,0,0
		c-0.003-0.006-0.006-0.011-0.009-0.016c0,0,0,0,0-0.001C94.432,27.048,94.43,27.044,94.428,27.04L94.428,27.04z M92.969,24.419
		l-1.46,0.871c0.247,0.414,0.489,0.833,0.724,1.255l1.485-0.827c-0.209-0.375-0.423-0.748-0.641-1.118
		c-0.001-0.001,0-0.001-0.001-0.002c-0.003-0.006-0.007-0.011-0.01-0.017c-0.001-0.001-0.001-0.002-0.002-0.003
		c-0.004-0.006-0.007-0.012-0.011-0.018c-0.001-0.001,0,0.001,0-0.001c-0.004-0.006-0.007-0.013-0.011-0.019
		c-0.002-0.003-0.002-0.003-0.004-0.006c-0.002-0.004-0.005-0.008-0.007-0.012c-0.002-0.003-0.004-0.006-0.005-0.009
		c-0.002-0.003-0.003-0.005-0.005-0.008c-0.002-0.004-0.004-0.007-0.007-0.011c-0.001-0.002-0.002-0.004-0.003-0.005
		C92.998,24.467,92.983,24.442,92.969,24.419L92.969,24.419z M91.356,21.89l-1.405,0.957c0.272,0.399,0.538,0.802,0.798,1.21
		l1.433-0.914c-0.019-0.03-0.038-0.06-0.058-0.09c-0.001-0.001-0.001-0.002-0.002-0.003c-0.003-0.005-0.005-0.008-0.008-0.013
		c-0.001-0.001-0.002-0.003-0.003-0.004c-0.003-0.004-0.006-0.009-0.008-0.013c-0.001-0.001-0.001-0.002-0.002-0.003
		c-0.008-0.013-0.018-0.028-0.026-0.041c-0.001-0.002-0.002-0.004-0.003-0.005c-0.003-0.004-0.005-0.007-0.007-0.011
		c-0.001-0.002-0.003-0.004-0.004-0.006c-0.003-0.004-0.005-0.007-0.007-0.011c-0.001-0.002-0.003-0.004-0.004-0.006
		c-0.009-0.013-0.016-0.025-0.025-0.038c-0.001-0.002-0.003-0.004-0.004-0.006c-0.003-0.004-0.004-0.007-0.007-0.011
		c-0.001-0.002-0.003-0.004-0.004-0.007c-0.003-0.004-0.005-0.007-0.007-0.011c-0.001-0.002-0.003-0.004-0.004-0.006
		c-0.009-0.013-0.017-0.026-0.025-0.039c-0.001-0.002-0.002-0.003-0.003-0.005c-0.003-0.004-0.005-0.007-0.007-0.011
		c-0.001-0.002-0.003-0.004-0.004-0.006c-0.003-0.004-0.005-0.007-0.007-0.011c-0.001-0.002-0.002-0.003-0.003-0.005
		c-0.009-0.013-0.018-0.028-0.027-0.041c-0.001-0.001-0.001-0.002-0.002-0.003c-0.003-0.005-0.005-0.008-0.009-0.013
		c-0.001-0.001-0.002-0.002-0.002-0.004c-0.003-0.005-0.005-0.008-0.009-0.014c0-0.001-0.001-0.001-0.001-0.002
		c-0.014-0.021-0.026-0.04-0.04-0.061c0,0,0,0,0-0.001c-0.072-0.11-0.145-0.22-0.218-0.329c0,0,0,0,0,0
		c-0.013-0.02-0.027-0.04-0.04-0.06c-0.001-0.002-0.002-0.003-0.003-0.005c-0.002-0.003-0.006-0.009-0.007-0.011
		c-0.002-0.002-0.003-0.005-0.005-0.007c-0.003-0.004-0.004-0.006-0.007-0.01c-0.002-0.003-0.004-0.006-0.006-0.009
		c-0.003-0.004-0.005-0.007-0.008-0.011c-0.003-0.005-0.006-0.009-0.009-0.014c-0.001-0.001-0.002-0.003-0.003-0.004
		c-0.003-0.005-0.007-0.01-0.01-0.015c-0.001-0.001-0.001-0.002-0.002-0.003C91.478,22.07,91.417,21.98,91.356,21.89L91.356,21.89z
		 M89.594,19.462l-1.345,1.039c0.295,0.382,0.585,0.769,0.869,1.16l1.376-0.999c-0.142-0.196-0.286-0.391-0.431-0.585l0-0.001
		c-0.004-0.006-0.009-0.012-0.013-0.018c-0.001-0.001,0,0-0.001-0.001c-0.014-0.018-0.027-0.036-0.041-0.054
		c-0.001-0.001-0.002-0.002-0.003-0.003c-0.004-0.005-0.007-0.01-0.011-0.014c-0.001-0.001-0.002-0.003-0.003-0.004
		c-0.009-0.012-0.018-0.024-0.027-0.035c-0.001-0.001-0.002-0.002-0.002-0.003c-0.003-0.005-0.007-0.009-0.01-0.014
		c-0.001-0.001-0.003-0.004-0.004-0.006c-0.003-0.004-0.006-0.008-0.009-0.011c-0.001-0.001-0.004-0.005-0.005-0.006
		c-0.003-0.004-0.006-0.008-0.009-0.012c-0.002-0.002-0.002-0.003-0.004-0.006c-0.004-0.005-0.008-0.011-0.012-0.016
		c-0.002-0.002-0.003-0.003-0.004-0.006c-0.003-0.004-0.006-0.007-0.008-0.011c-0.002-0.002-0.004-0.005-0.005-0.007
		c-0.002-0.003-0.005-0.006-0.007-0.01c-0.002-0.002-0.004-0.006-0.006-0.008c-0.002-0.003-0.004-0.006-0.006-0.008
		c-0.002-0.002-0.004-0.006-0.006-0.008c-0.003-0.004-0.005-0.007-0.008-0.011c-0.004-0.005-0.007-0.009-0.011-0.014
		c-0.002-0.002-0.003-0.005-0.005-0.007c-0.003-0.004-0.005-0.007-0.008-0.01c-0.001-0.002-0.003-0.004-0.004-0.005
		c-0.003-0.004-0.006-0.008-0.009-0.011c-0.001-0.001-0.002-0.003-0.003-0.004c-0.01-0.014-0.02-0.026-0.03-0.04
		c-0.001-0.001-0.001-0.002-0.002-0.002c-0.004-0.005-0.006-0.008-0.01-0.013c-0.001-0.001-0.002-0.002-0.003-0.003
		c-0.004-0.005-0.006-0.008-0.01-0.013c0,0,0,0,0,0c-0.015-0.02-0.03-0.039-0.045-0.059c0,0,0,0,0,0
		C89.675,19.568,89.634,19.514,89.594,19.462L89.594,19.462z M87.691,17.144l-1.281,1.118c0.318,0.364,0.63,0.733,0.936,1.106
		l1.314-1.079c-0.017-0.021-0.034-0.041-0.051-0.062c-0.001-0.002-0.003-0.004-0.004-0.005c-0.002-0.002-0.006-0.007-0.008-0.01
		c-0.003-0.003-0.005-0.006-0.008-0.009c-0.001-0.001-0.004-0.005-0.005-0.006c-0.009-0.011-0.019-0.023-0.028-0.034l-0.001-0.002
		c-0.004-0.005-0.009-0.011-0.013-0.016l-0.002-0.002c-0.079-0.096-0.159-0.191-0.239-0.286l-0.002-0.002
		c-0.005-0.006-0.01-0.011-0.014-0.017l0,0c-0.01-0.012-0.02-0.023-0.029-0.035c-0.001-0.001-0.002-0.002-0.003-0.003
		c-0.004-0.004-0.007-0.009-0.011-0.013c-0.002-0.002-0.003-0.003-0.005-0.006c-0.003-0.004-0.006-0.007-0.009-0.011
		c-0.001-0.001-0.004-0.004-0.005-0.006c-0.004-0.004-0.007-0.008-0.011-0.013c-0.002-0.002-0.005-0.006-0.007-0.009
		c-0.003-0.004-0.006-0.007-0.009-0.011c-0.003-0.004-0.005-0.005-0.008-0.009c-0.002-0.002-0.003-0.004-0.005-0.006
		c-0.003-0.004-0.006-0.007-0.009-0.011c-0.001-0.001-0.002-0.003-0.004-0.004c-0.136-0.161-0.274-0.322-0.412-0.481
		c0,0-0.001-0.001-0.001-0.001c-0.004-0.005-0.007-0.008-0.011-0.013c-0.001-0.001-0.001-0.002-0.002-0.002
		c-0.004-0.005-0.007-0.008-0.011-0.012c-0.001-0.001-0.002-0.002-0.003-0.003c-0.004-0.005-0.01-0.012-0.014-0.016
		c-0.003-0.004-0.006-0.007-0.009-0.011c-0.001-0.001-0.003-0.004-0.004-0.005c-0.004-0.004-0.007-0.008-0.011-0.012
		C87.691,17.145,87.692,17.146,87.691,17.144L87.691,17.144z M85.652,14.944l-1.212,1.192c0.339,0.344,0.672,0.694,1.001,1.048
		l1.247-1.155c-0.045-0.048-0.088-0.095-0.133-0.143c-0.001-0.001-0.002-0.002-0.003-0.003c-0.003-0.003-0.008-0.008-0.011-0.012
		c0,0-0.001-0.001-0.001-0.001c-0.006-0.007-0.012-0.013-0.018-0.02c-0.003-0.003-0.005-0.005-0.007-0.008
		c-0.002-0.002-0.004-0.004-0.006-0.007c-0.003-0.003-0.006-0.006-0.009-0.009c-0.002-0.002-0.004-0.004-0.006-0.006
		c-0.003-0.004-0.007-0.007-0.01-0.011c-0.001-0.001-0.003-0.004-0.004-0.005c-0.01-0.011-0.02-0.021-0.03-0.032
		c-0.001-0.001-0.002-0.002-0.003-0.003c-0.004-0.004-0.008-0.009-0.012-0.013c-0.002-0.002-0.002-0.002-0.004-0.004
		c-0.004-0.005-0.009-0.009-0.013-0.014l-0.002-0.002c-0.01-0.011-0.021-0.022-0.031-0.033l-0.001-0.001
		c-0.005-0.005-0.009-0.01-0.014-0.015l-0.003-0.003c-0.005-0.005-0.009-0.01-0.014-0.015l-0.001-0.001
		c-0.01-0.011-0.021-0.022-0.031-0.033c-0.001-0.001-0.001-0.001-0.002-0.002c-0.004-0.004-0.008-0.009-0.013-0.013
		c-0.002-0.002-0.002-0.002-0.004-0.004c-0.004-0.004-0.008-0.009-0.012-0.013c-0.001-0.001-0.002-0.002-0.003-0.003
		c-0.01-0.011-0.02-0.021-0.03-0.032c-0.001-0.001-0.003-0.003-0.004-0.004c-0.003-0.004-0.007-0.007-0.01-0.011
		c-0.002-0.002-0.004-0.004-0.006-0.006c-0.003-0.003-0.006-0.006-0.009-0.009c-0.002-0.002-0.004-0.004-0.006-0.006
		c-0.003-0.003-0.007-0.007-0.01-0.01c-0.003-0.003-0.006-0.007-0.01-0.01c-0.003-0.003-0.006-0.006-0.009-0.009
		c-0.003-0.003-0.005-0.005-0.008-0.008c-0.002-0.002-0.004-0.004-0.006-0.006c-0.003-0.003-0.006-0.006-0.009-0.01
		c-0.001-0.001-0.003-0.003-0.004-0.004c-0.016-0.017-0.033-0.034-0.049-0.051c0,0,0,0,0,0
		C85.962,15.261,85.808,15.102,85.652,14.944L85.652,14.944z M83.486,12.869l-1.139,1.262c0.359,0.324,0.713,0.653,1.061,0.987
		l1.176-1.228C84.224,13.544,83.857,13.204,83.486,12.869L83.486,12.869z M81.2,10.927l-1.062,1.328
		c0.377,0.302,0.75,0.609,1.118,0.922l1.101-1.295c-0.001-0.001-0.003-0.003-0.004-0.004c-0.003-0.002-0.005-0.004-0.008-0.007
		c-0.002-0.002-0.005-0.005-0.008-0.007c-0.005-0.004-0.01-0.009-0.016-0.013c-0.001-0.001-0.002-0.001-0.003-0.002
		c-0.005-0.004-0.009-0.008-0.014-0.012c-0.001-0.001-0.003-0.003-0.005-0.004c-0.004-0.003-0.008-0.007-0.012-0.01
		c-0.002-0.002-0.002-0.002-0.005-0.004c-0.005-0.004-0.01-0.009-0.016-0.013l0,0c-0.012-0.01-0.024-0.02-0.036-0.03l0,0
		c-0.006-0.005-0.012-0.01-0.017-0.015l-0.001-0.001c-0.286-0.241-0.575-0.479-0.866-0.714l-0.003-0.003
		c-0.005-0.004-0.01-0.008-0.015-0.012c-0.001-0.001-0.002-0.001-0.003-0.002c-0.006-0.005-0.011-0.009-0.017-0.014l-0.001-0.001
		c-0.005-0.004-0.01-0.008-0.015-0.012c-0.002-0.002-0.005-0.004-0.007-0.006c-0.003-0.002-0.006-0.005-0.009-0.007
		c-0.002-0.002-0.007-0.006-0.009-0.008c-0.002-0.002-0.004-0.003-0.006-0.005c-0.004-0.003-0.007-0.006-0.011-0.009
		c0,0-0.001,0-0.001-0.001C81.234,10.953,81.217,10.94,81.2,10.927L81.2,10.927z M78.802,9.124l-0.98,1.389
		c0.395,0.279,0.785,0.563,1.171,0.853l1.021-1.359C79.615,9.707,79.211,9.413,78.802,9.124L78.802,9.124z M76.301,7.468
		l-0.895,1.445c0.411,0.255,0.818,0.515,1.22,0.782l0.938-1.418c-0.167-0.111-0.334-0.22-0.503-0.329c0,0-0.001-0.001-0.001-0.001
		c-0.004-0.003-0.009-0.006-0.013-0.009c-0.001-0.001-0.003-0.002-0.004-0.003c-0.004-0.003-0.009-0.006-0.013-0.008
		c-0.001-0.001-0.003-0.002-0.004-0.003C77.012,7.917,77,7.909,76.987,7.901c-0.002-0.002-0.005-0.003-0.007-0.005
		c-0.004-0.003-0.006-0.004-0.01-0.006c-0.003-0.002-0.005-0.004-0.008-0.005c-0.003-0.002-0.006-0.004-0.009-0.006
		c-0.003-0.002-0.007-0.004-0.01-0.006c-0.003-0.002-0.005-0.003-0.008-0.005c-0.006-0.004-0.011-0.007-0.017-0.011
		c-0.003-0.002-0.003-0.002-0.006-0.004c-0.004-0.003-0.008-0.005-0.013-0.008c-0.001-0.001-0.005-0.003-0.006-0.004
		c-0.004-0.003-0.008-0.005-0.012-0.008c-0.003-0.002-0.004-0.002-0.006-0.004c-0.004-0.003-0.009-0.006-0.013-0.009
		c-0.003-0.002-0.002-0.001-0.005-0.003c-0.012-0.008-0.025-0.016-0.037-0.024c-0.001-0.001-0.002-0.001-0.003-0.002
		c-0.005-0.003-0.01-0.007-0.016-0.01c-0.001-0.001-0.002-0.001-0.003-0.002c-0.006-0.004-0.011-0.007-0.017-0.011l-0.001-0.001
		c-0.013-0.008-0.026-0.017-0.039-0.025l0,0C76.593,7.65,76.447,7.559,76.301,7.468L76.301,7.468z M73.705,5.966l-0.807,1.496
		c0.425,0.229,0.847,0.465,1.265,0.707l0.852-1.471c-0.31-0.18-0.623-0.356-0.938-0.529c-0.001-0.001-0.001,0-0.002-0.001
		c-0.006-0.003-0.011-0.006-0.017-0.009c-0.001-0.001-0.002-0.001-0.004-0.002c-0.005-0.003-0.011-0.006-0.016-0.009
		c-0.001-0.001-0.003-0.001-0.004-0.002c-0.006-0.003-0.013-0.007-0.019-0.01c-0.001-0.001-0.003-0.002-0.004-0.002
		c-0.005-0.003-0.009-0.005-0.014-0.008c-0.003-0.002-0.006-0.003-0.009-0.005c-0.003-0.002-0.006-0.004-0.01-0.005
		c-0.003-0.002-0.007-0.004-0.01-0.005c-0.003-0.002-0.006-0.003-0.008-0.005c-0.004-0.002-0.007-0.004-0.011-0.006
		c-0.001,0-0.002-0.001-0.003-0.001C73.932,6.088,73.915,6.08,73.9,6.071c0,0-0.001-0.001-0.001-0.001
		C73.834,6.035,73.771,6.001,73.705,5.966L73.705,5.966z M71.024,4.621l-0.716,1.542c0.439,0.204,0.874,0.413,1.305,0.63l0.762-1.52
		c-0.003-0.001-0.005-0.002-0.008-0.004c-0.004-0.002-0.007-0.004-0.011-0.006c-0.004-0.002-0.005-0.003-0.009-0.005
		c-0.003-0.002-0.006-0.003-0.009-0.005c-0.003-0.001-0.007-0.004-0.01-0.005c-0.003-0.001-0.006-0.003-0.009-0.004
		c-0.004-0.002-0.006-0.003-0.01-0.005c-0.003-0.001-0.005-0.003-0.008-0.004c-0.014-0.007-0.026-0.013-0.04-0.02
		c-0.002-0.001-0.004-0.002-0.006-0.003c-0.004-0.002-0.008-0.004-0.012-0.006c-0.002-0.001-0.004-0.002-0.006-0.003
		c-0.004-0.002-0.008-0.004-0.012-0.006c-0.002-0.001-0.003-0.002-0.005-0.002c-0.021-0.011-0.042-0.021-0.064-0.031
		c-0.001,0-0.001-0.001-0.002-0.001c-0.328-0.162-0.657-0.321-0.99-0.476c0,0-0.001,0-0.001,0c-0.016-0.007-0.029-0.013-0.045-0.021
		c-0.002-0.001-0.005-0.002-0.007-0.003c-0.003-0.001-0.006-0.003-0.009-0.004c-0.004-0.002-0.008-0.004-0.012-0.006
		c-0.001-0.001-0.005-0.002-0.007-0.003c-0.005-0.002-0.01-0.005-0.015-0.007c-0.001-0.001-0.002-0.001-0.003-0.002
		C71.051,4.634,71.037,4.628,71.024,4.621L71.024,4.621z M68.266,3.442l-0.621,1.582c0.45,0.177,0.897,0.36,1.34,0.55l0.669-1.563
		C69.195,3.814,68.732,3.625,68.266,3.442L68.266,3.442z M65.442,2.43l-0.525,1.617c0.46,0.149,0.917,0.305,1.371,0.468l0.573-1.6
		C66.392,2.746,65.918,2.585,65.442,2.43L65.442,2.43z M62.562,1.591l-0.426,1.646c0.468,0.121,0.934,0.249,1.397,0.384l0.475-1.632
		c-0.002,0-0.003-0.001-0.004-0.001c-0.003-0.001-0.007-0.002-0.01-0.003c-0.003-0.001-0.006-0.002-0.009-0.003
		c-0.007-0.002-0.014-0.004-0.02-0.006c-0.002,0-0.003-0.001-0.004-0.001c-0.006-0.002-0.012-0.003-0.017-0.005
		c-0.002,0-0.002-0.001-0.004-0.001c-0.006-0.002-0.012-0.004-0.018-0.005l-0.003-0.001c-0.239-0.069-0.479-0.136-0.719-0.202
		c-0.002,0-0.001,0-0.003-0.001c-0.006-0.002-0.013-0.004-0.019-0.005c-0.002,0-0.001,0-0.003-0.001
		c-0.007-0.002-0.014-0.004-0.02-0.006l-0.001,0c-0.014-0.004-0.029-0.008-0.043-0.012c-0.002,0-0.005-0.001-0.006-0.002
		c-0.005-0.001-0.01-0.003-0.015-0.004c-0.003-0.001-0.004-0.001-0.007-0.002c-0.004-0.001-0.009-0.002-0.013-0.004
		c-0.002,0-0.007-0.002-0.009-0.002c-0.004-0.001-0.008-0.002-0.013-0.003c-0.005-0.001-0.007-0.002-0.012-0.003
		c-0.005-0.001-0.01-0.003-0.016-0.004c-0.005-0.001-0.007-0.002-0.012-0.003c-0.003-0.001-0.005-0.001-0.008-0.002
		c-0.005-0.001-0.008-0.002-0.013-0.003c-0.002-0.001-0.005-0.001-0.007-0.002c-0.005-0.001-0.009-0.003-0.014-0.004
		c-0.002,0-0.003-0.001-0.005-0.001c-0.023-0.006-0.048-0.013-0.071-0.019h0c-0.006-0.002-0.012-0.003-0.018-0.005
		c0,0-0.001,0-0.002,0C62.766,1.644,62.665,1.618,62.562,1.591L62.562,1.591z M59.637,0.928l-0.326,1.668
		c0.475,0.093,0.948,0.192,1.417,0.299l0.376-1.658c-0.087-0.02-0.176-0.04-0.263-0.059c-0.002,0-0.004-0.001-0.005-0.001
		c-0.005-0.001-0.009-0.002-0.014-0.003c-0.003-0.001-0.005-0.001-0.008-0.002c-0.003-0.001-0.009-0.002-0.012-0.003
		c-0.003-0.001-0.006-0.001-0.009-0.002c-0.005-0.001-0.006-0.001-0.011-0.002c-0.005-0.001-0.01-0.002-0.015-0.003
		c-0.002,0-0.005-0.001-0.007-0.001c-0.007-0.001-0.013-0.003-0.02-0.004c-0.003-0.001-0.003-0.001-0.006-0.001
		c-0.005-0.001-0.011-0.002-0.016-0.004c-0.002,0-0.004-0.001-0.005-0.001c-0.006-0.001-0.012-0.003-0.018-0.004
		c-0.002,0-0.002,0-0.003-0.001C60.342,1.069,59.99,0.997,59.637,0.928L59.637,0.928z M56.677,0.442l-0.225,1.685
		c0.48,0.064,0.958,0.135,1.433,0.213l0.275-1.678c-0.061-0.01-0.122-0.02-0.183-0.03c-0.002,0-0.003,0-0.004-0.001
		c-0.006-0.001-0.012-0.002-0.017-0.003c-0.002,0-0.004-0.001-0.006-0.001c-0.005-0.001-0.011-0.002-0.016-0.003
		c-0.002,0-0.005-0.001-0.006-0.001c-0.006-0.001-0.011-0.002-0.017-0.003c-0.002,0-0.003,0-0.005-0.001
		c-0.007-0.001-0.014-0.002-0.021-0.003c-0.003-0.001-0.008-0.001-0.011-0.002c-0.003-0.001-0.007-0.001-0.01-0.002
		c-0.005-0.001-0.007-0.001-0.012-0.002c-0.003,0-0.006-0.001-0.009-0.001C57.84,0.611,57.834,0.61,57.831,0.61
		c-0.002,0-0.005-0.001-0.007-0.001c-0.005-0.001-0.009-0.001-0.014-0.002c-0.002,0-0.003-0.001-0.005-0.001
		c-0.024-0.004-0.047-0.007-0.071-0.011c-0.001,0-0.002,0-0.004-0.001c-0.006-0.001-0.01-0.002-0.017-0.003
		c-0.001,0-0.002,0-0.003,0c-0.006-0.001-0.011-0.002-0.018-0.003c0,0,0,0,0,0c-0.026-0.004-0.051-0.008-0.077-0.012c0,0,0,0,0,0
		C57.302,0.528,56.991,0.484,56.677,0.442L56.677,0.442z M53.693,0.134L53.569,1.83c0.483,0.035,0.965,0.078,1.444,0.127
		l0.174-1.691c-0.005-0.001-0.01-0.001-0.015-0.002c-0.001,0-0.001,0-0.002,0c-0.007-0.001-0.011-0.001-0.017-0.002
		c-0.001,0-0.002,0-0.004,0c-0.007-0.001-0.011-0.001-0.017-0.002c-0.001,0-0.002,0-0.003,0c-0.007-0.001-0.011-0.001-0.018-0.002
		c0,0,0,0,0,0c-0.026-0.003-0.052-0.005-0.078-0.008c0,0-0.001,0-0.001,0c-0.007-0.001-0.012-0.001-0.019-0.002c0,0-0.001,0-0.001,0
		C54.575,0.205,54.135,0.167,53.693,0.134L53.693,0.134z M50.697,0.005l-0.023,1.7c0.485,0.007,0.968,0.02,1.449,0.041l0.073-1.698
		C51.697,0.026,51.199,0.012,50.697,0.005L50.697,0.005z"/>
</g>
</svg>
