<?xml version="1.0" encoding="utf-8"?>
<!-- Generator: Adobe Illustrator 21.0.0, SVG Export Plug-In . SVG Version: 6.00 Build 0)  -->
<svg version="1.1" id="Layer_1" xmlns="http://www.w3.org/2000/svg" xmlns:xlink="http://www.w3.org/1999/xlink" x="0px" y="0px"
	 viewBox="0 0 16 16" style="enable-background:new 0 0 16 16;" xml:space="preserve">
<style type="text/css">
	.st0{fill:none;stroke:#2F8794;stroke-miterlimit:10;}
	.st1{fill:none;stroke:#997531;stroke-miterlimit:10;}
	.st2{fill:none;stroke:#000000;stroke-miterlimit:10;}
</style>
<g>
	<path class="st0" d="M14.5748634,11.4462748c-1.9994488,0-1.9994488,1.2154112-3.9988966,1.2154112
		c-2.0008221,0-2.0008221-1.2154112-4.0016446-1.2154112s-2.0008225,1.2154112-4.0016446,1.2154112"/>
	<path class="st1" d="M14.5748634,6.3947225c-1.4987803,0-1.4987803,3.6462331-2.9975615,3.6462331
		c-1.500083,0-1.500083-3.6462331-3.0001669-3.6462331c-1.5011144,0-1.5011144,3.6462331-3.0022287,3.6462331
		S4.073792,6.3947225,2.5726776,6.3947225"/>
	<path class="st0" d="M14.5748634,1.3431695c-1.9994488,0-1.9994488,3.6462338-3.9988966,3.6462338
		c-2.0008221,0-2.0008221-3.6462338-4.0016446-3.6462338S4.5734997,4.9894032,2.5726776,4.9894032"/>
	<polyline class="st2" points="15.5,13.7786884 2.2213116,13.7786884 2.2213116,0.5 	"/>
	<g>
		<line class="st2" x1="0.5" y1="1.3431695" x2="2.2213116" y2="1.3431695"/>
		<line class="st2" x1="0.5" y1="5.4883423" x2="2.2213116" y2="5.4883423"/>
		<line class="st2" x1="0.5" y1="9.6335154" x2="2.2213116" y2="9.6335154"/>
		<line class="st2" x1="0.5" y1="13.7786884" x2="2.2213116" y2="13.7786884"/>
	</g>
	<g>
		<line class="st2" x1="2.2213116" y1="15.5" x2="2.2213116" y2="13.7786884"/>
		<line class="st2" x1="6.3664846" y1="15.5" x2="6.3664846" y2="13.7786884"/>
		<line class="st2" x1="10.5116577" y1="15.5" x2="10.5116577" y2="13.7786884"/>
		<line class="st2" x1="14.6568308" y1="15.5" x2="14.6568308" y2="13.7786884"/>
	</g>
</g>
</svg>
