<?xml version="1.0" encoding="utf-8"?>
<!-- Generator: Adobe Illustrator 21.0.0, SVG Export Plug-In . SVG Version: 6.00 Build 0)  -->
<svg version="1.1" xmlns="http://www.w3.org/2000/svg" xmlns:xlink="http://www.w3.org/1999/xlink" x="0px" y="0px"
	 viewBox="0 0 100 100" style="enable-background:new 0 0 100 100;" xml:space="preserve">
<style type="text/css">
	.st0{fill:#FFFFFF;}
	.st1{fill:#231F20;}
	.st2{display:none;}
	.st3{display:inline;}
	.st4{font-family:'Helvetica';}
	.st5{font-size:10.385px;}
</style>
<g id="Layer_1">
	<g id="Layer_2">
	</g>
	<g>
		<g>
			<rect x="0.9" y="0.9" class="st0" width="98.2" height="98.2"/>
			<path class="st1" d="M100,100H0V0h100V100z M1.8,98.2h96.4V1.8H1.8V98.2z"/>
		</g>
		<g>
			<polygon class="st1" points="50.3,75.8 23.2,28.5 24.8,27.6 50.3,72.2 75.2,27.6 76.8,28.4 			"/>
		</g>
		<g>
			<rect x="24" y="49.1" class="st1" width="52" height="1.8"/>
		</g>
	</g>
	<g>
		<path d="M5.9,88.4h3.3c0.7,0,1.2,0.2,1.6,0.6c0.4,0.4,0.6,0.9,0.6,1.6c0,0.6-0.2,1.1-0.5,1.5c-0.4,0.4-0.9,0.6-1.7,0.6H6.9v3.1h-1
			V88.4z M9.8,89.4c-0.2-0.1-0.5-0.2-0.9-0.2h-2v2.6h2c0.4,0,0.8-0.1,1.1-0.3c0.3-0.2,0.4-0.5,0.4-1C10.4,90,10.2,89.6,9.8,89.4z"/>
		<path d="M12.9,88.4h1v7.4h-1V88.4z"/>
	</g>
</g>
<g id="Layer_2_1_" class="st2">
	<text transform="matrix(1 0 0 1 5.0005 95.8096)" class="st3 st4 st5">PI</text>
</g>
</svg>
