<?xml version="1.0" encoding="utf-8"?>
<!-- Generator: Adobe Illustrator 21.0.0, SVG Export Plug-In . SVG Version: 6.00 Build 0)  -->
<svg version="1.1" xmlns="http://www.w3.org/2000/svg" xmlns:xlink="http://www.w3.org/1999/xlink" x="0px" y="0px"
	 viewBox="0 0 100 100" style="enable-background:new 0 0 100 100;" xml:space="preserve">
<style type="text/css">
	.st0{display:none;}
	.st1{display:inline;}
	.st2{fill:#231F20;}
	.st3{fill:none;}
	.st4{fill:none;stroke:#999999;stroke-width:1.8;stroke-miterlimit:10;}
	.st5{fill:none;stroke:#999999;stroke-width:1.8;stroke-miterlimit:10;stroke-dasharray:1.4686,1.4686;}
	.st6{fill:none;stroke:#999999;stroke-width:1.8;stroke-miterlimit:10;stroke-dasharray:1.468,1.468;}
	.st7{fill:none;stroke:#999999;stroke-width:1.8;stroke-miterlimit:10;stroke-dasharray:1.5;}
	.st8{fill:none;stroke:#999999;stroke-width:1.8;stroke-miterlimit:10;stroke-dasharray:1.4,1.4;}
	.st9{fill:none;stroke:#999999;stroke-width:1.8;stroke-miterlimit:10;stroke-dasharray:1.5024,1.5024;}
	.st10{fill:none;stroke:#999999;stroke-width:1.8;stroke-miterlimit:10;stroke-dasharray:1.5556,1.5556;}
	.st11{fill:#999999;}
</style>
<g id="Layer_1" class="st0">
	<g id="Layer_2" class="st1">
	</g>
	<g id="Layer_1_1_" class="st1">
		<g>
			<g>
				<rect x="83.1" y="49.2" class="st2" width="16.9" height="1.7"/>
			</g>
			<g>
				<polygon class="st3" points="50,50 83.1,30.9 83.1,69.1 				"/>
			</g>
		</g>
		<g>
			<rect y="49.2" class="st2" width="16.9" height="1.7"/>
		</g>
		<g>
			<polygon class="st3" points="50,50 16.9,30.9 16.9,69.1 			"/>
		</g>
		<g>
			<circle class="st2" cx="50" cy="50" r="4.8"/>
		</g>
		<g>
			<rect x="42.2" y="16.1" class="st2" width="15.5" height="1.7"/>
		</g>
		<g>
			<rect x="49.2" y="16.9" class="st2" width="1.7" height="33.1"/>
		</g>
	</g>
</g>
<g id="Layer_2_1_">
	<g>
		<g>
			<g>
				<g>
					<polyline class="st4" points="50.6,50.4 50,50 50.6,49.6 					"/>
					<line class="st5" x1="51.9" y1="48.9" x2="81.8" y2="31.6"/>
					<polyline class="st4" points="82.5,31.3 83.1,30.9 83.1,31.7 					"/>
					<line class="st6" x1="83.1" y1="33.1" x2="83.1" y2="67.6"/>
					<polyline class="st4" points="83.1,68.3 83.1,69.1 82.5,68.7 					"/>
					<line class="st5" x1="81.2" y1="68" x2="51.3" y2="50.7"/>
				</g>
			</g>
		</g>
	</g>
	<g>
		<g>
			<g>
				<polyline class="st4" points="49.4,50.4 50,50 49.4,49.6 				"/>
				<line class="st5" x1="48.1" y1="48.9" x2="18.2" y2="31.6"/>
				<polyline class="st4" points="17.5,31.3 16.9,30.9 16.9,31.7 				"/>
				<line class="st6" x1="16.9" y1="33.1" x2="16.9" y2="67.6"/>
				<polyline class="st4" points="16.9,68.3 16.9,69.1 17.5,68.7 				"/>
				<line class="st5" x1="18.8" y1="68" x2="48.7" y2="50.7"/>
			</g>
		</g>
	</g>
	<line class="st7" x1="83.1" y1="50" x2="100" y2="50"/>
	<g>
		<g>
			<line class="st4" x1="16.9" y1="50" x2="16.1" y2="50"/>
			<line class="st8" x1="14.8" y1="50" x2="1.4" y2="50"/>
			<line class="st4" x1="0.8" y1="50" x2="0" y2="50"/>
		</g>
	</g>
	<g>
		<g>
			<line class="st4" x1="50" y1="16.9" x2="50" y2="17.7"/>
			<line class="st9" x1="50" y1="19.2" x2="50" y2="48.5"/>
			<line class="st4" x1="50" y1="49.2" x2="50" y2="50"/>
		</g>
	</g>
	<g>
		<g>
			<line class="st4" x1="42.2" y1="16.9" x2="43" y2="16.9"/>
			<line class="st10" x1="44.5" y1="16.9" x2="56.2" y2="16.9"/>
			<line class="st4" x1="57" y1="16.9" x2="57.7" y2="16.9"/>
		</g>
	</g>
	<g>
		<circle class="st11" cx="50" cy="50" r="4.8"/>
	</g>
</g>
</svg>
