<?xml version="1.0" encoding="utf-8"?>
<!-- Generator: Adobe Illustrator 21.0.0, SVG Export Plug-In . SVG Version: 6.00 Build 0)  -->
<svg version="1.1" id="Layer_1" xmlns="http://www.w3.org/2000/svg" xmlns:xlink="http://www.w3.org/1999/xlink" x="0px" y="0px"
	 viewBox="0 0 100 100" style="enable-background:new 0 0 100 100;" xml:space="preserve">
<style type="text/css">
	.st0{display:none;}
	.st1{display:inline;}
	.st2{fill:none;}
	.st3{fill:none;stroke:#797979;stroke-width:2.7;stroke-miterlimit:10;stroke-dasharray:1.472,1.4721;}
	.st4{fill:#797979;}
</style>
<g id="Layer_1_2_" class="st0">
	<g id="Layer_2" class="st1">
	</g>
	<g id="Layer_1_1_" class="st1">
		<g>
			<g>
				<rect x="83.1" y="49.1" width="16.9" height="1.7"/>
			</g>
			<g>
				<polygon class="st2" points="49.9,49.9 83,30.8 83,69.1 				"/>
			</g>
			<g>
				<rect x="49" y="83.1" width="1.7" height="16.9"/>
			</g>
			<g>
				<polygon class="st2" points="49.9,49.9 69,83.1 30.7,83.1 				"/>
			</g>
			<g>
				<circle cx="49.9" cy="49.9" r="4.8"/>
			</g>
			<g>
				<rect x="42.1" y="15.9" width="15.6" height="1.7"/>
			</g>
			<g>
				<rect x="49" y="16.7" width="1.7" height="33.2"/>
			</g>
		</g>
	</g>
</g>
<line class="st3" x1="50" y1="50.401" x2="50" y2="1.39"/>
<g>
	<circle class="st4" cx="50" cy="50" r="7.656"/>
</g>
<line class="st3" x1="38.25" y1="1.39" x2="61.75" y2="1.39"/>
<g>
	<path class="st4" d="M94.5,24.308c0,0-0.106,0.061-0.257,0.148l-1.018,0.588l1.35,2.338l1.275-0.736L94.5,24.308L94.5,24.308z
		 M91.95,25.78l-1.275,0.736l1.35,2.338l1.275-0.736L91.95,25.78L91.95,25.78z M89.4,27.252l-1.275,0.736l1.35,2.338l1.275-0.736
		L89.4,27.252L89.4,27.252z M86.85,28.724c0,0-0.084,0.049-0.21,0.121l-0.001,0.001c-0.002,0.001-0.003,0.002-0.005,0.003
		l-1.059,0.611l1.35,2.338l1.275-0.736L86.85,28.724L86.85,28.724z M84.301,30.196l-1.275,0.736l1.35,2.338l1.275-0.736
		L84.301,30.196L84.301,30.196z M81.751,31.669c0,0-0.21,0.121-0.46,0.265l-0.815,0.471l1.35,2.338l1.275-0.736L81.751,31.669
		L81.751,31.669z M79.201,33.141c0,0-0.222,0.128-0.481,0.278l-0.794,0.458l1.35,2.338l1.275-0.736L79.201,33.141L79.201,33.141z
		 M76.651,34.613l-1.275,0.736l1.35,2.338l1.275-0.736L76.651,34.613L76.651,34.613z M74.102,36.085c0,0-0.194,0.112-0.43,0.248
		l-0.003,0.002c0,0-0.001,0-0.001,0.001l-0.001,0.001c-0.001,0-0.001,0.001-0.002,0.001l-0.837,0.483l1.35,2.338l1.275-0.736
		L74.102,36.085L74.102,36.085z M71.552,37.557c0,0-0.165,0.095-0.375,0.217h-0.001c-0.004,0.003-0.009,0.005-0.013,0.008l0,0
		c-0.002,0.001-0.004,0.002-0.006,0.004l-0.002,0.001c0,0-0.001,0-0.001,0.001l-0.01,0.006l0,0l-0.006,0.004c0,0,0,0-0.001,0
		L71.134,37.8l0,0H71.13c-0.001,0-0.001,0.001-0.002,0.001l-0.002,0.001c0,0-0.001,0-0.001,0.001l-0.848,0.49l1.35,2.338
		l1.275-0.736L71.552,37.557L71.552,37.557z M69.002,39.029l-1.275,0.736l1.35,2.338l1.275-0.736L69.002,39.029L69.002,39.029z
		 M66.452,40.501c0,0-0.172,0.099-0.389,0.224l-0.002,0.001c-0.002,0.001-0.003,0.002-0.005,0.003l-0.88,0.508l1.35,2.338
		l1.275-0.736L66.452,40.501L66.452,40.501z M63.903,41.973c0,0-0.101,0.058-0.246,0.142l0,0c-0.008,0.005-0.016,0.009-0.024,0.014
		l0,0c-0.004,0.002-0.008,0.005-0.012,0.007l-0.001,0.001c-0.002,0.001-0.003,0.002-0.005,0.003l-0.002,0.001l0,0l-0.984,0.568
		l1.35,2.338l1.275-0.736L63.903,41.973L63.903,41.973z M61.353,43.445l-1.275,0.736l1.35,2.338l1.275-0.736L61.353,43.445
		L61.353,43.445z M58.803,44.917c0,0-0.15,0.087-0.347,0.2l-0.003,0.002c0,0,0,0-0.001,0l-0.924,0.534l1.35,2.338l1.275-0.736
		L58.803,44.917L58.803,44.917z M56.253,46.39c0,0-0.059,0.034-0.151,0.087l0,0c-0.001,0-0.001,0.001-0.002,0.001l0,0
		c0,0-0.001,0-0.001,0.001l-0.004,0.002c-0.001,0-0.001,0.001-0.002,0.001l-0.004,0.003l0,0l-0.008,0.004c0,0,0,0-0.001,0
		l-0.008,0.004l0,0l-0.002,0.001h-0.001l-1.09,0.63l1.35,2.338l1.275-0.736L56.253,46.39L56.253,46.39z M53.704,47.862l-1.275,0.736
		l0.121,0.209l-0.85,1.472l-0.546-0.945c0,0-0.574,0.331-0.912,0.527l0,0L50,50l0,0l0,0l0,0l0,0l0,0l0,0l0,0l0,0l2.308,1.332l0,0
		c0.205,0.118,0.363,0.209,0.363,0.209l0.729-1.263l0.379,0.657l1.275-0.736L53.704,47.862L53.704,47.862z M55.296,49.94
		l-1.35,2.338l1.275,0.736l1.35-2.338L55.296,49.94L55.296,49.94z M57.845,51.412l-1.35,2.338l0.412,0.238h0.001l0.006,0.003
		c0.372,0.215,0.856,0.494,0.856,0.494l1.35-2.338L57.845,51.412L57.845,51.412z M60.395,52.884l-1.35,2.338l0.583,0.337l0,0
		l0.003,0.001c0.002,0.001,0.004,0.002,0.006,0.003l0.002,0.001c0.001,0,0.002,0.001,0.002,0.001l0.001,0.001
		c0.001,0,0.001,0.001,0.002,0.001l0.002,0.001c0.001,0,0.002,0.001,0.002,0.001h0.001c0.001,0,0.001,0.001,0.002,0.001l0.003,0.002
		c0.001,0,0.001,0.001,0.002,0.001h0.001c0.001,0,0.002,0.001,0.002,0.001l0.005,0.003c0.001,0,0.002,0.001,0.002,0.001l0.002,0.001
		c0.002,0.001,0.004,0.002,0.006,0.004l0,0c0.002,0.001,0.004,0.003,0.007,0.004l0.002,0.001c0.318,0.184,0.636,0.367,0.636,0.367
		l1.35-2.338L60.395,52.884L60.395,52.884z M62.945,54.356l-1.35,2.338l1.275,0.736l1.35-2.338L62.945,54.356L62.945,54.356z
		 M65.495,55.828l-1.35,2.338l0.601,0.347c0.001,0,0.001,0.001,0.002,0.001l0.001,0.001c0,0,0.001,0,0.001,0.001l0.003,0.002
		c0.328,0.189,0.666,0.384,0.666,0.384l1.35-2.338L65.495,55.828L65.495,55.828z M68.044,57.3l-1.35,2.338l1.127,0.65
		c0,0,0.001,0,0.001,0.001l0.002,0.001c0.001,0.001,0.002,0.001,0.003,0.002l0.001,0.001c0.001,0.001,0.002,0.001,0.003,0.002
		l0.002,0.001c0.001,0.001,0.003,0.002,0.004,0.002l0,0c0.001,0.001,0.003,0.002,0.004,0.002h0.001
		c0.003,0.002,0.005,0.003,0.008,0.005l0.002,0.001c0.072,0.042,0.117,0.067,0.117,0.067l1.35-2.338L68.044,57.3L68.044,57.3z
		 M70.594,58.772l-1.35,2.338l0.437,0.252l0,0l0.013,0.007c0.001,0,0.002,0.001,0.003,0.001l0.001,0.001
		c0.001,0.001,0.002,0.001,0.003,0.002l0.001,0.001c0,0,0,0,0.001,0l0.003,0.002c0.004,0.002,0.009,0.005,0.013,0.007l0,0
		c0.005,0.003,0.01,0.005,0.014,0.008l0,0c0.01,0.006,0.019,0.011,0.029,0.017h0.001c0.353,0.204,0.756,0.436,0.756,0.436
		l1.35-2.338L70.594,58.772L70.594,58.772z M73.144,60.244l-1.35,2.338l0.788,0.455c0.261,0.151,0.487,0.281,0.487,0.281l1.35-2.338
		L73.144,60.244L73.144,60.244z M75.694,61.716l-1.35,2.338l1.275,0.736l1.35-2.338L75.694,61.716L75.694,61.716z M78.243,63.189
		l-1.35,2.338l1.275,0.736l1.35-2.338L78.243,63.189L78.243,63.189z M80.793,64.661l-1.35,2.338c0,0,0.289,0.167,0.592,0.342
		l0.002,0.001c0.001,0.001,0.002,0.001,0.003,0.002l0.679,0.392l1.35-2.338L80.793,64.661L80.793,64.661z M83.343,66.133
		l-1.35,2.338c0,0,0.489,0.282,0.861,0.497l0.005,0.003c0,0,0.001,0,0.001,0.001l0.408,0.236l1.35-2.338L83.343,66.133
		L83.343,66.133z M85.893,67.605l-1.35,2.338c0,0,0.227,0.131,0.49,0.283l0.004,0.002c0.001,0.001,0.002,0.001,0.003,0.002l0,0
		c0.001,0.001,0.002,0.001,0.003,0.002l0.001,0.001c0.001,0,0.001,0.001,0.002,0.001l0.002,0.001
		c0.001,0.001,0.002,0.001,0.003,0.002l0,0c0.003,0.002,0.006,0.003,0.009,0.005l0.012,0.007c0.001,0.001,0.002,0.001,0.003,0.002
		l0.743,0.429l1.35-2.338L85.893,67.605L85.893,67.605z M88.442,69.077l-1.35,2.338c0,0,0.162,0.094,0.371,0.214l0.904,0.522
		l1.35-2.338L88.442,69.077L88.442,69.077z M90.992,70.549l-1.35,2.338c0,0,0.315,0.182,0.632,0.365l0.004,0.002l0,0l0.639,0.369
		l1.35-2.338L90.992,70.549L90.992,70.549z M93.542,72.021l-1.35,2.338l1.275,0.736l1.35-2.338L93.542,72.021L93.542,72.021z
		 M96.092,73.493l-1.35,2.338c0,0,0.055,0.032,0.142,0.082h0.001c0,0,0.001,0,0.001,0.001l0.004,0.002
		c0.001,0,0.001,0.001,0.002,0.001l1.125,0.649l0.883-1.529v0.374h1.484l-0.85,1.472H96.9v0.192l2.216,1.28H99.6v-1.472h-0.366
		l0.366-0.634v-0.732l-0.183-0.106H99.6v-1.472h-2.7v0.019L96.092,73.493L96.092,73.493z M99.599,70.996h-2.7v1.472h2.7V70.996
		L99.599,70.996z M99.599,68.052h-2.7v1.472h2.7V68.052L99.599,68.052z M99.599,65.108h-2.7v1.472h2.7V65.108L99.599,65.108z
		 M99.599,62.164h-2.7v1.472h2.7V62.164L99.599,62.164z M99.599,59.22h-2.7v1.472h2.7V59.22L99.599,59.22z M99.599,56.275h-2.7
		v1.472h2.7V56.275L99.599,56.275z M99.599,53.331h-2.7v1.472h2.7V53.331L99.599,53.331z M99.599,50.387h-2.7v1.472h2.7V50.387
		L99.599,50.387z M99.599,47.443h-2.7v1.472h2.7V47.443L99.599,47.443z M99.599,44.499h-2.7v1.472h2.7V44.499L99.599,44.499z
		 M99.599,41.554h-2.7v1.472h2.7V41.554L99.599,41.554z M99.599,38.61h-2.7v1.472h2.7V38.61L99.599,38.61z M99.599,35.666h-2.7
		v1.472h2.7V35.666L99.599,35.666z M99.599,32.722h-2.7v1.472h2.7V32.722L99.599,32.722z M99.599,29.778h-2.7v1.472h2.7V29.778
		L99.599,29.778z M99.599,26.833h-2.7v1.472h2.7V26.833L99.599,26.833z M99.599,21.364l-1.824,1.053h0.733l0.85,1.472h-1.7
		l-0.608-1.053l-1.275,0.736l1.35,2.338l0.951-0.549H99.6L99.599,21.364L99.599,21.364z"/>
</g>
<g>
	<path class="st4" d="M5.5,24.308l-1.35,2.338l1.275,0.736l1.35-2.338l-1.018-0.588C5.606,24.369,5.5,24.308,5.5,24.308L5.5,24.308z
		 M8.05,25.78L6.7,28.118l1.275,0.736l1.35-2.338L8.05,25.78L8.05,25.78z M10.6,27.252L9.25,29.59l1.275,0.736l1.35-2.338
		L10.6,27.252L10.6,27.252z M13.15,28.724l-1.35,2.338l1.275,0.736l1.35-2.338l-1.059-0.611c-0.002-0.001-0.003-0.002-0.005-0.003
		l-0.001-0.001C13.234,28.773,13.15,28.724,13.15,28.724L13.15,28.724z M15.699,30.196l-1.35,2.338l1.275,0.736l1.35-2.338
		L15.699,30.196L15.699,30.196z M18.249,31.669l-1.35,2.338l1.275,0.736l1.35-2.338l-0.815-0.471
		C18.459,31.79,18.249,31.669,18.249,31.669L18.249,31.669z M20.799,33.141l-1.35,2.338l1.275,0.736l1.35-2.338l-0.794-0.458
		C21.021,33.269,20.799,33.141,20.799,33.141L20.799,33.141z M23.349,34.613l-1.35,2.338l1.275,0.736l1.35-2.338L23.349,34.613
		L23.349,34.613z M25.898,36.085l-1.351,2.338l1.275,0.736l1.35-2.338l-0.837-0.483c-0.001,0-0.001-0.001-0.002-0.001l-0.001-0.001
		c0-0.001-0.001-0.001-0.001-0.001l-0.003-0.002C26.092,36.197,25.898,36.085,25.898,36.085L25.898,36.085z M28.448,37.557
		l-1.35,2.338l1.275,0.736l1.35-2.338l-0.848-0.49c0-0.001-0.001-0.001-0.001-0.001l-0.002-0.001c-0.001,0-0.001-0.001-0.002-0.001
		h-0.004l0,0l-0.003-0.002c-0.001,0-0.001,0-0.001,0l-0.006-0.004l0,0l-0.01-0.006c0-0.001-0.001-0.001-0.001-0.001l-0.002-0.001
		c-0.002-0.002-0.004-0.003-0.006-0.004l0,0c-0.004-0.003-0.009-0.005-0.013-0.008h-0.001
		C28.613,37.652,28.448,37.557,28.448,37.557L28.448,37.557z M30.998,39.029l-1.35,2.338l1.275,0.736l1.35-2.338L30.998,39.029
		L30.998,39.029z M33.548,40.501l-1.349,2.338l1.275,0.736l1.35-2.338l-0.88-0.508c-0.002-0.001-0.003-0.002-0.005-0.003
		l-0.002-0.001C33.72,40.6,33.548,40.501,33.548,40.501L33.548,40.501z M36.097,41.973l-1.351,2.338l1.275,0.736l1.35-2.338
		l-0.984-0.568l0,0l-0.002-0.001c-0.002-0.001-0.003-0.002-0.005-0.003l-0.001-0.001c-0.004-0.002-0.008-0.005-0.012-0.007l0,0
		c-0.008-0.005-0.016-0.009-0.024-0.014l0,0C36.198,42.031,36.097,41.973,36.097,41.973L36.097,41.973z M38.647,43.445l-1.35,2.338
		l1.275,0.736l1.35-2.338L38.647,43.445L38.647,43.445z M41.197,44.917l-1.35,2.338l1.275,0.736l1.35-2.338l-0.924-0.534
		c-0.001,0-0.001,0-0.001,0l-0.003-0.002C41.347,45.004,41.197,44.917,41.197,44.917L41.197,44.917z M43.747,46.39l-1.351,2.336
		l1.275,0.736l1.35-2.338l-1.09-0.63H43.93l-0.002-0.001l0,0l-0.008-0.004c-0.001,0-0.001,0-0.001,0l-0.008-0.004l0,0l-0.004-0.003
		c-0.001,0-0.001-0.001-0.002-0.001l-0.004-0.002c0-0.001-0.001-0.001-0.001-0.001l0,0c-0.001,0-0.001-0.001-0.002-0.001l0,0
		C43.806,46.424,43.747,46.39,43.747,46.39L43.747,46.39z M46.296,47.862l-1.35,2.337l1.275,0.736l0.379-0.657l0.729,1.263
		c0,0,0.158-0.091,0.363-0.209l0,0L50,50l0,0l0,0l0,0l0,0l0,0l0,0l0,0l0,0l-0.242-0.139l0,0c-0.338-0.196-0.912-0.527-0.912-0.527
		L48.3,50.279l-0.85-1.472l0.121-0.209L46.296,47.862L46.296,47.862z M44.704,49.94l-1.275,0.736l1.35,2.338l1.275-0.736
		L44.704,49.94L44.704,49.94z M42.155,51.412l-1.275,0.735l1.35,2.338c0,0,0.484-0.279,0.856-0.494l0.006-0.003h0.001l0.412-0.238
		L42.155,51.412L42.155,51.412z M39.605,52.884l-1.274,0.733l1.35,2.338c0,0,0.318-0.183,0.636-0.367l0.002-0.001
		c0.003-0.001,0.005-0.003,0.007-0.004l0,0c0.002-0.002,0.004-0.003,0.006-0.004l0.002-0.001c0,0,0.001-0.001,0.002-0.001
		l0.005-0.003c0,0,0.001-0.001,0.002-0.001h0.001c0.001,0,0.001-0.001,0.002-0.001l0.003-0.002c0.001,0,0.001-0.001,0.002-0.001
		h0.001c0,0,0.001-0.001,0.002-0.001l0.002-0.001c0.001,0,0.001-0.001,0.002-0.001l0.001-0.001c0,0,0.001-0.001,0.002-0.001
		l0.002-0.001c0.002-0.001,0.004-0.002,0.006-0.003l0.003-0.001l0,0l0.583-0.337L39.605,52.884L39.605,52.884z M37.055,54.356
		l-1.275,0.736l1.35,2.338l1.275-0.736L37.055,54.356L37.055,54.356z M34.505,55.828l-1.274,0.736l1.35,2.338
		c0,0,0.338-0.195,0.666-0.384l0.003-0.002c0-0.001,0.001-0.001,0.001-0.001l0.001-0.001c0.001,0,0.001-0.001,0.002-0.001
		l0.601-0.347L34.505,55.828L34.505,55.828z M31.956,57.3l-1.275,0.735l1.35,2.338c0,0,0.045-0.025,0.117-0.067l0.002-0.001
		c0.003-0.002,0.005-0.003,0.008-0.005h0.001c0.001,0,0.003-0.001,0.004-0.002l0,0c0.001,0,0.003-0.001,0.004-0.002l0.002-0.001
		c0.001-0.001,0.002-0.001,0.003-0.002l0.001-0.001c0.001-0.001,0.002-0.001,0.003-0.002l0.002-0.001
		c0-0.001,0.001-0.001,0.001-0.001l1.127-0.65L31.956,57.3L31.956,57.3z M29.406,58.772l-1.275,0.734l1.35,2.338
		c0,0,0.403-0.232,0.756-0.436h0.001c0.01-0.006,0.019-0.011,0.029-0.017l0,0c0.004-0.003,0.009-0.005,0.014-0.008l0,0
		c0.004-0.002,0.009-0.005,0.013-0.007l0.003-0.002c0.001,0,0.001,0,0.001,0l0.001-0.001c0.001-0.001,0.002-0.001,0.003-0.002
		l0.001-0.001c0.001,0,0.002-0.001,0.003-0.001l0.013-0.007l0,0l0.437-0.252L29.406,58.772L29.406,58.772z M26.856,60.244
		l-1.275,0.736l1.35,2.338c0,0,0.226-0.13,0.487-0.281l0.788-0.455L26.856,60.244L26.856,60.244z M24.306,61.716l-1.275,0.736
		l1.35,2.338l1.275-0.736L24.306,61.716L24.306,61.716z M21.757,63.189l-1.275,0.736l1.35,2.338l1.275-0.736L21.757,63.189
		L21.757,63.189z M19.207,64.661l-1.276,0.737l1.35,2.338l0.679-0.392c0.001-0.001,0.002-0.001,0.003-0.002l0.002-0.001
		c0.303-0.175,0.592-0.342,0.592-0.342L19.207,64.661L19.207,64.661z M16.657,66.133l-1.275,0.737l1.35,2.338l0.408-0.236
		c0-0.001,0.001-0.001,0.001-0.001l0.005-0.003c0.372-0.215,0.861-0.497,0.861-0.497L16.657,66.133L16.657,66.133z M14.107,67.605
		l-1.275,0.737l1.35,2.338l0.743-0.429c0.001-0.001,0.002-0.001,0.003-0.002l0.012-0.007c0.003-0.002,0.006-0.003,0.009-0.005l0,0
		c0.001-0.001,0.002-0.001,0.003-0.002l0.002-0.001c0.001,0,0.001-0.001,0.002-0.001l0.001-0.001
		c0.001-0.001,0.002-0.001,0.003-0.002l0,0c0.001-0.001,0.002-0.001,0.003-0.002l0.004-0.002c0.263-0.152,0.49-0.283,0.49-0.283
		L14.107,67.605L14.107,67.605z M11.558,69.077l-1.275,0.736l1.35,2.338l0.904-0.522c0.209-0.12,0.371-0.214,0.371-0.214
		L11.558,69.077L11.558,69.077z M9.008,70.549l-1.275,0.736l1.35,2.338l0.639-0.369l0,0l0.004-0.002
		c0.317-0.183,0.632-0.365,0.632-0.365L9.008,70.549L9.008,70.549z M6.458,72.021l-1.275,0.736l1.35,2.338l1.275-0.736L6.458,72.021
		L6.458,72.021z M3.908,73.493L3.1,73.958v-0.019H0.4v1.472h0.183L0.4,75.517v0.732l0.366,0.634H0.4v1.472h0.484l2.216-1.28v-0.192
		H2.466l-0.85-1.472H3.1v-0.374l0.883,1.529l1.125-0.649c0.001,0,0.001-0.001,0.002-0.001l0.004-0.002
		c0-0.001,0.001-0.001,0.001-0.001h0.001c0.087-0.05,0.142-0.082,0.142-0.082L3.908,73.493L3.908,73.493z M0.401,70.996v1.472h2.7
		v-1.472H0.401L0.401,70.996z M0.401,68.052v1.472h2.7v-1.472H0.401L0.401,68.052z M0.401,65.108v1.472h2.7v-1.472H0.401
		L0.401,65.108z M0.401,62.164v1.472h2.7v-1.472H0.401L0.401,62.164z M0.401,59.22v1.472h2.7V59.22H0.401L0.401,59.22z
		 M0.401,56.275v1.472h2.7v-1.472H0.401L0.401,56.275z M0.401,53.331v1.472h2.7v-1.472H0.401L0.401,53.331z M0.401,50.387v1.472h2.7
		v-1.472H0.401L0.401,50.387z M0.401,47.443v1.472h2.7v-1.472H0.401L0.401,47.443z M0.401,44.499v1.472h2.7v-1.472H0.401
		L0.401,44.499z M0.401,41.554v1.472h2.7v-1.472H0.401L0.401,41.554z M0.401,38.61v1.472h2.7V38.61H0.401L0.401,38.61z
		 M0.401,35.666v1.472h2.7v-1.472H0.401L0.401,35.666z M0.401,32.722v1.472h2.7v-1.472H0.401L0.401,32.722z M0.401,29.778v1.472h2.7
		v-1.472H0.401L0.401,29.778z M0.401,26.833v1.472h2.7v-1.472H0.401L0.401,26.833z M0.401,21.364L0.4,25.361h1.524l0.951,0.549
		l1.35-2.338L2.95,22.836l-0.608,1.053h-1.7l0.85-1.472h0.733L0.401,21.364L0.401,21.364z"/>
</g>
</svg>
