<?xml version="1.0" encoding="utf-8"?>
<!-- Generator: Adobe Illustrator 21.0.0, SVG Export Plug-In . SVG Version: 6.00 Build 0)  -->
<svg version="1.1" id="Layer_1" xmlns="http://www.w3.org/2000/svg" xmlns:xlink="http://www.w3.org/1999/xlink" x="0px" y="0px"
	 viewBox="0 0 100 100" style="enable-background:new 0 0 100 100;" xml:space="preserve">
<style type="text/css">
	.st0{display:none;}
	.st1{display:inline;}
	.st2{fill:#FFFD38;}
	.st3{fill:#000000;}
	.st4{fill:none;stroke:#999999;stroke-width:1.8;stroke-miterlimit:5;stroke-dasharray:1.5;}
	.st5{fill:#999999;}
	
		.st6{fill:none;stroke:#999999;stroke-width:2.2;stroke-linecap:round;stroke-linejoin:round;stroke-miterlimit:5;stroke-dasharray:2.2;}
	.st7{enable-background:new    ;}
</style>
<g id="Layer_1_1_" class="st0">
	<g id="Layer_2" class="st1">
	</g>
	<g class="st1">
		<g>
			<rect x="0.9" y="0.9" class="st2" width="98.2" height="98.2"/>
			<path class="st3" d="M100,100H0V0h100V100z M1.8,98.2h96.4V1.8H1.8V98.2z"/>
		</g>
		<g>
			<polygon points="50.3,75.8 23.2,28.5 24.8,27.6 50.3,72.2 75.2,27.6 76.8,28.4 			"/>
		</g>
		<g>
			<rect x="24" y="49.1" width="52" height="1.8"/>
		</g>
	</g>
	<g class="st1">
		<path d="M11.1,88.9c0.5,0.5,0.8,1.1,0.9,1.7h-1c-0.1-0.5-0.3-0.9-0.7-1.1C10,89.2,9.5,89,8.9,89c-0.7,0-1.3,0.3-1.7,0.8
			c-0.4,0.5-0.7,1.3-0.7,2.4c0,0.9,0.2,1.6,0.6,2.1s1,0.8,1.8,0.8c0.7,0,1.3-0.3,1.7-0.9c0.2-0.3,0.4-0.7,0.5-1.2h1
			c-0.1,0.8-0.4,1.4-0.9,2c-0.6,0.6-1.4,1-2.4,1c-0.9,0-1.6-0.3-2.2-0.8c-0.8-0.7-1.1-1.8-1.1-3.2c0-1.1,0.3-2,0.9-2.7
			C7,88.5,7.9,88.2,9,88.2C9.8,88.2,10.5,88.4,11.1,88.9z"/>
		<path d="M13.3,88.4h3c1,0,1.8,0.4,2.4,1.1c0.5,0.7,0.7,1.5,0.7,2.5c0,0.8-0.1,1.5-0.4,2.1c-0.5,1.1-1.4,1.7-2.7,1.7h-3
			C13.3,95.8,13.3,88.4,13.3,88.4z M16.1,94.9c0.3,0,0.6,0,0.8-0.1c0.4-0.1,0.7-0.4,0.9-0.8c0.2-0.3,0.3-0.7,0.4-1.2
			c0-0.3,0.1-0.5,0.1-0.8c0-0.9-0.2-1.6-0.5-2.2c-0.4-0.5-0.9-0.8-1.7-0.8h-1.8v5.7h1.8C16.1,94.7,16.1,94.9,16.1,94.9z"/>
	</g>
</g>
<polyline class="st4" points="50,25.2 35.8,53 35.8,81.8 "/>
<line class="st4" x1="64.2" y1="53" x2="64.2" y2="81.8"/>
<circle class="st5" cx="50" cy="22.9" r="4.8"/>
<line class="st6" x1="50" y1="25.2" x2="64.2" y2="53"/>
<g>
	<path class="st5" d="M97,0h-1.5v1.8H97V0L97,0z M94,0h-1.5v1.8H94V0L94,0z M91,0h-1.5v1.8H91V0L91,0z M88,0h-1.5v1.8H88V0L88,0z
		 M85,0h-1.5v1.8H85V0L85,0z M82,0h-1.5v1.8H82V0L82,0z M79,0h-1.5v1.8H79V0L79,0z M76,0h-1.5v1.8H76V0L76,0z M73,0h-1.5v1.8H73V0
		L73,0z M70,0h-1.5v1.8H70V0L70,0z M67,0h-1.5v1.8H67V0L67,0z M64,0h-1.5v1.8H64V0L64,0z M61,0h-1.5v1.8H61V0L61,0z M58,0h-1.5v1.8
		H58V0L58,0z M55,0h-1.5v1.8H55V0L55,0z M52,0h-1.5v1.8H52V0L52,0z M49,0h-1.5v1.8H49V0L49,0z M46,0h-1.5v1.8H46V0L46,0z M43,0h-1.5
		v1.8H43V0L43,0z M40,0h-1.5v1.8H40V0L40,0z M37,0h-1.5v1.8H37V0L37,0z M34,0h-1.5v1.8H34V0L34,0z M31,0h-1.5v1.8H31V0L31,0z M28,0
		h-1.5v1.8H28V0L28,0z M25,0h-1.5v1.8H25V0L25,0z M22,0h-1.5v1.8H22V0L22,0z M19,0h-1.5v1.8H19V0L19,0z M16,0h-1.5v1.8H16V0L16,0z
		 M13,0h-1.5v1.8H13V0L13,0z M10,0H8.5v1.8H10V0L10,0z M7,0H5.5v1.8H7V0L7,0z M4,0H2.5v1.8H4V0L4,0z M1.8,0H0v1.8h1V0.5h0.8V0L1.8,0
		z M1.8,2H0v1.5h1.8V2L1.8,2z M1.8,5H0v1.5h1.8V5L1.8,5z M1.8,8H0v1.5h1.8V8L1.8,8z M1.8,11H0v1.5h1.8V11L1.8,11z M1.8,14H0v1.5h1.8
		V14L1.8,14z M1.8,17H0v1.5h1.8V17L1.8,17z M1.8,20H0v1.5h1.8V20L1.8,20z M1.8,23H0v1.5h1.8V23L1.8,23z M1.8,26H0v1.5h1.8V26L1.8,26
		z M1.8,29H0v1.5h1.8V29L1.8,29z M1.8,32H0v1.5h1.8V32L1.8,32z M1.8,35H0v1.5h1.8V35L1.8,35z M1.8,38H0v1.5h1.8V38L1.8,38z M1.8,41
		H0v1.5h1.8V41L1.8,41z M1.8,44H0v1.5h1.8V44L1.8,44z M1.8,47H0v1.5h1.8V47L1.8,47z M1.8,50H0v1.5h1.8V50L1.8,50z M1.8,53H0v1.5h1.8
		V53L1.8,53z M1.8,56H0v1.5h1.8V56L1.8,56z M1.8,59H0v1.5h1.8V59L1.8,59z M1.8,62H0v1.5h1.8V62L1.8,62z M1.8,65H0v1.5h1.8V65L1.8,65
		z M1.8,68H0v1.5h1.8V68L1.8,68z M1.8,71H0v1.5h1.8V71L1.8,71z M1.8,74H0v1.5h1.8V74L1.8,74z M1.8,77H0v1.5h1.8V77L1.8,77z M1.8,80
		H0v1.5h1.8V80L1.8,80z M1.8,83H0v1.5h1.8V83L1.8,83z M1.8,86H0v1.5h1.8V86L1.8,86z M1.8,89H0v1.5h1.8V89L1.8,89z M1.8,92H0v1.5h1.8
		V92L1.8,92z M1.8,95H0v1.5h1.8V95L1.8,95z M1.8,98H0v1.5h1v0.5h1.5v-1.8H1.8V98L1.8,98z M5.5,98.2H4v1.8h1.5V98.2L5.5,98.2z
		 M8.5,98.2H7v1.8h1.5V98.2L8.5,98.2z M11.5,98.2H10v1.8h1.5V98.2L11.5,98.2z M14.5,98.2H13v1.8h1.5V98.2L14.5,98.2z M17.5,98.2H16
		v1.8h1.5V98.2L17.5,98.2z M20.5,98.2H19v1.8h1.5V98.2L20.5,98.2z M23.5,98.2H22v1.8h1.5V98.2L23.5,98.2z M26.5,98.2H25v1.8h1.5
		V98.2L26.5,98.2z M29.5,98.2H28v1.8h1.5V98.2L29.5,98.2z M32.5,98.2H31v1.8h1.5V98.2L32.5,98.2z M35.5,98.2H34v1.8h1.5V98.2
		L35.5,98.2z M38.5,98.2H37v1.8h1.5V98.2L38.5,98.2z M41.5,98.2H40v1.8h1.5V98.2L41.5,98.2z M44.5,98.2H43v1.8h1.5V98.2L44.5,98.2z
		 M47.5,98.2H46v1.8h1.5V98.2L47.5,98.2z M50.5,98.2H49v1.8h1.5V98.2L50.5,98.2z M53.5,98.2H52v1.8h1.5V98.2L53.5,98.2z M56.5,98.2
		H55v1.8h1.5V98.2L56.5,98.2z M59.5,98.2H58v1.8h1.5V98.2L59.5,98.2z M62.5,98.2H61v1.8h1.5V98.2L62.5,98.2z M65.5,98.2H64v1.8h1.5
		V98.2L65.5,98.2z M68.5,98.2H67v1.8h1.5V98.2L68.5,98.2z M71.5,98.2H70v1.8h1.5V98.2L71.5,98.2z M74.5,98.2H73v1.8h1.5V98.2
		L74.5,98.2z M77.5,98.2H76v1.8h1.5V98.2L77.5,98.2z M80.5,98.2H79v1.8h1.5V98.2L80.5,98.2z M83.5,98.2H82v1.8h1.5V98.2L83.5,98.2z
		 M86.5,98.2H85v1.8h1.5V98.2L86.5,98.2z M89.5,98.2H88v1.8h1.5V98.2L89.5,98.2z M92.5,98.2H91v1.8h1.5V98.2L92.5,98.2z M95.5,98.2
		H94v1.8h1.5V98.2L95.5,98.2z M98.5,98.2H97v1.8h1.5l0,0h1.5v-1.5h-1.5V98.2L98.5,98.2z M100,95.5h-1.8V97h1.8V95.5L100,95.5z
		 M100,92.5h-1.8V94h1.8V92.5L100,92.5z M100,89.5h-1.8V91h1.8V89.5L100,89.5z M100,86.5h-1.8V88h1.8V86.5L100,86.5z M100,83.5h-1.8
		V85h1.8V83.5L100,83.5z M100,80.5h-1.8V82h1.8V80.5L100,80.5z M100,77.5h-1.8V79h1.8V77.5L100,77.5z M100,74.5h-1.8V76h1.8V74.5
		L100,74.5z M100,71.5h-1.8V73h1.8V71.5L100,71.5z M100,68.5h-1.8V70h1.8V68.5L100,68.5z M100,65.5h-1.8V67h1.8V65.5L100,65.5z
		 M100,62.5h-1.8V64h1.8V62.5L100,62.5z M100,59.5h-1.8V61h1.8V59.5L100,59.5z M100,56.5h-1.8V58h1.8V56.5L100,56.5z M100,53.5h-1.8
		V55h1.8V53.5L100,53.5z M100,50.5h-1.8V52h1.8V50.5L100,50.5z M100,47.5h-1.8V49h1.8V47.5L100,47.5z M100,44.5h-1.8V46h1.8V44.5
		L100,44.5z M100,41.5h-1.8V43h1.8V41.5L100,41.5z M100,38.5h-1.8V40h1.8V38.5L100,38.5z M100,35.5h-1.8V37h1.8V35.5L100,35.5z
		 M100,32.5h-1.8V34h1.8V32.5L100,32.5z M100,29.5h-1.8V31h1.8V29.5L100,29.5z M100,26.5h-1.8V28h1.8V26.5L100,26.5z M100,23.5h-1.8
		V25h1.8V23.5L100,23.5z M100,20.5h-1.8V22h1.8V20.5L100,20.5z M100,17.5h-1.8V19h1.8V17.5L100,17.5z M100,14.5h-1.8V16h1.8V14.5
		L100,14.5z M100,11.5h-1.8V13h1.8V11.5L100,11.5z M100,8.5h-1.8V10h1.8V8.5L100,8.5z M100,5.5h-1.8V7h1.8V5.5L100,5.5z M100,2.5
		h-1.8V4h1.8V2.5L100,2.5z M100,0h-1.8v1h0.3v0.8h1.5V0L100,0z"/>
</g>
<g id="Layer_2_2_">
	<g class="st7">
		<path class="st5" d="M5.34,85.544h7.4v0.996H9.635v7.752H8.445V86.54H5.34V85.544z"/>
		<path class="st5" d="M19.73,86.218v1.248c-0.398-0.371-0.823-0.648-1.274-0.832s-0.931-0.275-1.438-0.275
			c-1,0-1.766,0.306-2.297,0.917s-0.797,1.495-0.797,2.651c0,1.152,0.266,2.034,0.797,2.646s1.297,0.917,2.297,0.917
			c0.508,0,0.987-0.092,1.438-0.275s0.876-0.461,1.274-0.832v1.236c-0.414,0.281-0.853,0.492-1.315,0.633s-0.952,0.211-1.468,0.211
			c-1.324,0-2.367-0.405-3.129-1.216s-1.143-1.917-1.143-3.319c0-1.406,0.381-2.515,1.143-3.325s1.805-1.216,3.129-1.216
			c0.523,0,1.017,0.069,1.479,0.208S19.324,85.94,19.73,86.218z"/>
	</g>
</g>
</svg>
