<?xml version="1.0" encoding="utf-8"?>
<!-- Generator: Adobe Illustrator 21.0.0, SVG Export Plug-In . SVG Version: 6.00 Build 0)  -->
<svg version="1.1" id="Layer_1" xmlns="http://www.w3.org/2000/svg" xmlns:xlink="http://www.w3.org/1999/xlink" x="0px" y="0px"
	 viewBox="0 0 100 100" style="enable-background:new 0 0 100 100;" xml:space="preserve">
<style type="text/css">
	.st0{fill:#FC0D1B;}
	.st1{display:none;}
	.st2{display:inline;}
	.st3{fill:#FFFD38;}
	.st4{fill:#231F20;}
	.st5{fill:none;stroke:#FFFFFF;stroke-width:1.8;stroke-miterlimit:5;}
	.st6{fill:#FFFFFF;}
	.st7{fill:none;stroke:#FFFFFF;stroke-width:3;stroke-linecap:round;stroke-linejoin:round;stroke-miterlimit:5;}
	.st8{enable-background:new    ;}
</style>
<rect x="1.9" y="1.8" class="st0" width="96.4" height="96.4"/>
<g id="Layer_1_1_" class="st1">
	<g id="Layer_2" class="st2">
	</g>
	<g class="st2">
		<g>
			<rect x="0.9" y="0.9" class="st3" width="98.2" height="98.2"/>
			<path class="st4" d="M100,100H0V0h100V100z M1.8,98.2h96.4V1.8H1.8V98.2z"/>
		</g>
		<g>
			<polygon points="50.3,75.8 23.2,28.5 24.8,27.6 50.3,72.2 75.2,27.6 76.8,28.4 			"/>
		</g>
		<g>
			<rect x="24" y="49.1" width="52" height="1.8"/>
		</g>
	</g>
	<g class="st2">
		<path d="M11.1,88.9c0.5,0.5,0.8,1.1,0.9,1.7h-1c-0.1-0.5-0.3-0.9-0.7-1.1C10,89.2,9.5,89,8.9,89c-0.7,0-1.3,0.3-1.7,0.8
			c-0.4,0.5-0.7,1.3-0.7,2.4c0,0.9,0.2,1.6,0.6,2.1s1,0.8,1.8,0.8c0.7,0,1.3-0.3,1.7-0.9c0.2-0.3,0.4-0.7,0.5-1.2h1
			c-0.1,0.8-0.4,1.4-0.9,2c-0.6,0.6-1.4,1-2.4,1c-0.9,0-1.6-0.3-2.2-0.8c-0.8-0.7-1.1-1.8-1.1-3.2c0-1.1,0.3-2,0.9-2.7
			C7,88.5,7.9,88.2,9,88.2C9.8,88.2,10.5,88.4,11.1,88.9z"/>
		<path d="M13.3,88.4h3c1,0,1.8,0.4,2.4,1.1c0.5,0.7,0.7,1.5,0.7,2.5c0,0.8-0.1,1.5-0.4,2.1c-0.5,1.1-1.4,1.7-2.7,1.7h-3
			C13.3,95.8,13.3,88.4,13.3,88.4z M16.1,94.9c0.3,0,0.6,0,0.8-0.1c0.4-0.1,0.7-0.4,0.9-0.8c0.2-0.3,0.3-0.7,0.4-1.2
			c0-0.3,0.1-0.5,0.1-0.8c0-0.9-0.2-1.6-0.5-2.2c-0.4-0.5-0.9-0.8-1.7-0.8h-1.8v5.7h1.8C16.1,94.7,16.1,94.9,16.1,94.9z"/>
	</g>
</g>
<g>
	<polyline class="st5" points="50,25.2 35.8,53 35.8,81.8 	"/>
	<polyline class="st5" points="50,25.2 64.2,53 64.2,81.8 	"/>
	<circle class="st6" cx="50" cy="22.9" r="4.8"/>
	<line class="st7" x1="50" y1="25.2" x2="64.2" y2="53"/>
</g>
<g id="Layer_1_2_">
	<g id="Layer_2_2_">
	</g>
	<g>
		<g>
			<path class="st4" d="M100.1,100H0.1V0h100V100z M1.9,98.2h96.4V1.8H1.9V98.2z"/>
		</g>
	</g>
</g>
<g id="Layer_2_1_">
	<g class="st8">
		<path class="st6" d="M5.34,85.544h7.4v0.996H9.635v7.752H8.445V86.54H5.34V85.544z"/>
		<path class="st6" d="M19.73,86.218v1.248c-0.398-0.371-0.823-0.648-1.274-0.832s-0.931-0.275-1.438-0.275
			c-1,0-1.766,0.306-2.297,0.917s-0.797,1.495-0.797,2.651c0,1.152,0.266,2.034,0.797,2.646s1.297,0.917,2.297,0.917
			c0.508,0,0.987-0.092,1.438-0.275s0.876-0.461,1.274-0.832v1.236c-0.414,0.281-0.853,0.492-1.315,0.633s-0.952,0.211-1.468,0.211
			c-1.324,0-2.367-0.405-3.129-1.216s-1.143-1.917-1.143-3.319c0-1.406,0.381-2.515,1.143-3.325s1.805-1.216,3.129-1.216
			c0.523,0,1.017,0.069,1.479,0.208S19.324,85.94,19.73,86.218z"/>
	</g>
</g>
</svg>
