<?xml version="1.0" encoding="utf-8"?>
<!-- Generator: Adobe Illustrator 21.0.0, SVG Export Plug-In . SVG Version: 6.00 Build 0)  -->
<svg version="1.1" id="Layer_1" xmlns="http://www.w3.org/2000/svg" xmlns:xlink="http://www.w3.org/1999/xlink" x="0px" y="0px"
	 viewBox="0 0 100 100" style="enable-background:new 0 0 100 100;" xml:space="preserve">
<style type="text/css">
	.st0{fill:none;}
	.st1{display:none;}
	.st2{display:inline;}
	.st3{fill:#FFFD38;}
	.st4{fill:#000000;}
	.st5{fill:none;stroke:#FFFFFF;stroke-width:1.8;stroke-miterlimit:5;}
	.st6{fill:#FFFFFF;}
	.st7{fill:none;stroke:#FFFFFF;stroke-width:3;stroke-linecap:round;stroke-linejoin:round;stroke-miterlimit:5;}
	.st8{enable-background:new    ;}
</style>
<rect x="1.9" y="1.8" class="st0" width="96.4" height="96.4"/>
<g id="Layer_1_1_" class="st1">
	<g id="Layer_2" class="st2">
	</g>
	<g class="st2">
		<g>
			<rect x="0.9" y="0.9" class="st3" width="98.2" height="98.2"/>
			<path class="st4" d="M100,100H0V0h100V100z M1.8,98.2h96.4V1.8H1.8V98.2z"/>
		</g>
		<g>
			<polygon points="50.3,75.8 23.2,28.5 24.8,27.6 50.3,72.2 75.2,27.6 76.8,28.4 			"/>
		</g>
		<g>
			<rect x="24" y="49.1" width="52" height="1.8"/>
		</g>
	</g>
	<g class="st2">
		<path d="M11.1,88.9c0.5,0.5,0.8,1.1,0.9,1.7h-1c-0.1-0.5-0.3-0.9-0.7-1.1C10,89.2,9.5,89,8.9,89c-0.7,0-1.3,0.3-1.7,0.8
			c-0.4,0.5-0.7,1.3-0.7,2.4c0,0.9,0.2,1.6,0.6,2.1s1,0.8,1.8,0.8c0.7,0,1.3-0.3,1.7-0.9c0.2-0.3,0.4-0.7,0.5-1.2h1
			c-0.1,0.8-0.4,1.4-0.9,2c-0.6,0.6-1.4,1-2.4,1c-0.9,0-1.6-0.3-2.2-0.8c-0.8-0.7-1.1-1.8-1.1-3.2c0-1.1,0.3-2,0.9-2.7
			C7,88.5,7.9,88.2,9,88.2C9.8,88.2,10.5,88.4,11.1,88.9z"/>
		<path d="M13.3,88.4h3c1,0,1.8,0.4,2.4,1.1c0.5,0.7,0.7,1.5,0.7,2.5c0,0.8-0.1,1.5-0.4,2.1c-0.5,1.1-1.4,1.7-2.7,1.7h-3
			C13.3,95.8,13.3,88.4,13.3,88.4z M16.1,94.9c0.3,0,0.6,0,0.8-0.1c0.4-0.1,0.7-0.4,0.9-0.8c0.2-0.3,0.3-0.7,0.4-1.2
			c0-0.3,0.1-0.5,0.1-0.8c0-0.9-0.2-1.6-0.5-2.2c-0.4-0.5-0.9-0.8-1.7-0.8h-1.8v5.7h1.8C16.1,94.7,16.1,94.9,16.1,94.9z"/>
	</g>
</g>
<g>
	<polyline class="st5" points="50,25.2 35.8,53 35.8,81.8 	"/>
	<polyline class="st5" points="50,25.2 64.2,53 64.2,81.8 	"/>
	<circle class="st6" cx="50" cy="22.9" r="4.8"/>
	<line class="st7" x1="50" y1="25.2" x2="64.2" y2="53"/>
</g>
<g id="Layer_1_2_">
	<g id="Layer_2_2_">
	</g>
	<g>
		<g>
			<path class="st6" d="M100.1,100H0.1V0h100V100z M1.9,98.2h96.4V1.8H1.9V98.2z"/>
		</g>
	</g>
</g>
<g id="Layer_2_1_">
	<g class="st8">
		<path class="st6" d="M5.3,85.5h7.4v1H9.6v7.8H8.4v-7.8H5.3V85.5z"/>
		<path class="st6" d="M19.7,86.2v1.2c-0.4-0.4-0.8-0.6-1.3-0.8s-0.9-0.3-1.4-0.3c-1,0-1.8,0.3-2.3,0.9s-0.8,1.5-0.8,2.7
			c0,1.2,0.3,2,0.8,2.6s1.3,0.9,2.3,0.9c0.5,0,1-0.1,1.4-0.3s0.9-0.5,1.3-0.8v1.2c-0.4,0.3-0.9,0.5-1.3,0.6s-1,0.2-1.5,0.2
			c-1.3,0-2.4-0.4-3.1-1.2s-1.1-1.9-1.1-3.3c0-1.4,0.4-2.5,1.1-3.3s1.8-1.2,3.1-1.2c0.5,0,1,0.1,1.5,0.2S19.3,85.9,19.7,86.2z"/>
	</g>
</g>
</svg>
