<?xml version="1.0" encoding="utf-8"?>
<!-- Generator: Adobe Illustrator 21.0.0, SVG Export Plug-In . SVG Version: 6.00 Build 0)  -->
<svg version="1.1" id="Layer_1" xmlns="http://www.w3.org/2000/svg" xmlns:xlink="http://www.w3.org/1999/xlink" x="0px" y="0px"
	 viewBox="0 0 100 100" style="enable-background:new 0 0 100 100;" xml:space="preserve">
<style type="text/css">
	.st0{display:none;}
	.st1{display:inline;}
	.st2{font-family:'Helvetica';}
	.st3{font-size:10.385px;}
	.st4{fill:none;stroke:#A9A9A9;stroke-width:1.8;stroke-miterlimit:10;}
	.st5{fill:none;stroke:#A9A9A9;stroke-width:2.7;stroke-miterlimit:10;stroke-dasharray:1.5094,1.5094;}
	.st6{fill:none;stroke:#A9A9A9;stroke-width:2.7;stroke-miterlimit:10;}
	.st7{fill:none;stroke:#A9A9A9;stroke-width:2.7;stroke-miterlimit:10;stroke-dasharray:1.552,1.552;}
	.st8{fill:none;stroke:#A9A9A9;stroke-width:2.7;stroke-miterlimit:10;stroke-dasharray:1.4265,1.4265;}
	.st9{fill:none;stroke:#A9A9A9;stroke-width:2.7;stroke-miterlimit:10;stroke-dasharray:1.5352,1.5352;}
	.st10{fill:none;stroke:#A9A9A9;stroke-width:2.7;stroke-miterlimit:10;stroke-dasharray:1.5282,1.5282;}
	.st11{fill:#797979;}
</style>
<g id="Layer_2_1_" class="st0">
	<text transform="matrix(1 0 0 1 5.0005 95.8096)" class="st1 st2 st3">PI</text>
</g>
<g>
	<g>
		<line class="st4" x1="23.7" y1="9.2" x2="23.5" y2="9.9"/>
		<line class="st5" x1="23.1" y1="11.4" x2="7.9" y2="72.1"/>
		<line class="st4" x1="7.7" y1="72.9" x2="7.5" y2="73.6"/>
	</g>
</g>
<g>
	<g>
		<line class="st4" x1="76.3" y1="9.2" x2="76.5" y2="9.9"/>
		<line class="st5" x1="76.9" y1="11.4" x2="92.1" y2="72.1"/>
		<line class="st4" x1="92.3" y1="72.9" x2="92.5" y2="73.6"/>
	</g>
</g>
<g>
	<g>
		<g>
			<line class="st6" x1="50" y1="40.2" x2="50" y2="39.4"/>
			<line class="st7" x1="50" y1="37.9" x2="50" y2="1.4"/>
			<line class="st6" x1="50" y1="0.6" x2="50" y2="-0.1"/>
		</g>
	</g>
	<g>
		<g>
			<line class="st6" x1="50" y1="0.7" x2="49.6" y2="1.3"/>
			<line class="st8" x1="48.7" y1="2.5" x2="44.2" y2="8.9"/>
			<line class="st6" x1="43.8" y1="9.5" x2="43.4" y2="10.1"/>
		</g>
	</g>
	<g>
		<g>
			<line class="st6" x1="50" y1="0.7" x2="50.4" y2="1.3"/>
			<line class="st8" x1="51.3" y1="2.5" x2="55.8" y2="8.9"/>
			<line class="st6" x1="56.2" y1="9.5" x2="56.6" y2="10.1"/>
		</g>
	</g>
	<g>
		<g>
			<g>
				<line class="st6" x1="42.8" y1="56.4" x2="42.3" y2="56.9"/>
				<line class="st9" x1="41.2" y1="58" x2="15.7" y2="83.5"/>
				<line class="st6" x1="15.1" y1="84.1" x2="14.6" y2="84.6"/>
			</g>
		</g>
		<g>
			<g>
				<line class="st6" x1="15.1" y1="84.1" x2="15.8" y2="84"/>
				<line class="st10" x1="17.3" y1="83.7" x2="22.6" y2="82.8"/>
				<line class="st6" x1="23.4" y1="82.6" x2="24.1" y2="82.5"/>
			</g>
		</g>
		<g>
			<g>
				<line class="st6" x1="15.1" y1="84.1" x2="15.2" y2="83.4"/>
				<line class="st10" x1="15.5" y1="81.9" x2="16.4" y2="76.6"/>
				<line class="st6" x1="16.6" y1="75.8" x2="16.7" y2="75.1"/>
			</g>
		</g>
	</g>
	<g>
		<g>
			<g>
				<line class="st6" x1="57.2" y1="56.4" x2="57.7" y2="56.9"/>
				<line class="st9" x1="58.8" y1="58" x2="84.3" y2="83.5"/>
				<line class="st6" x1="84.9" y1="84.1" x2="85.4" y2="84.6"/>
			</g>
		</g>
		<g>
			<g>
				<line class="st6" x1="84.9" y1="84.1" x2="84.2" y2="84"/>
				<line class="st10" x1="82.7" y1="83.7" x2="77.4" y2="82.8"/>
				<line class="st6" x1="76.6" y1="82.6" x2="75.9" y2="82.5"/>
			</g>
		</g>
		<g>
			<g>
				<line class="st6" x1="84.9" y1="84.1" x2="84.8" y2="83.4"/>
				<line class="st10" x1="84.5" y1="81.9" x2="83.6" y2="76.6"/>
				<line class="st6" x1="83.4" y1="75.8" x2="83.3" y2="75.1"/>
			</g>
		</g>
	</g>
</g>
<g>
	<path class="st11" d="M50,0C50,0,50,0,50,0C50,0,50,0,50,0C50,0,50,0,50,0C50,0,49.9,0,50,0C49.9,0,49.9,0,50,0C49.9,0,49.9,0,50,0
		C49.9,0,49.9,0,50,0C49.9,0,49.9,0,50,0c-0.1,0-0.1,0-0.1,0c0,0,0,0,0,0c0,0,0,0,0,0l0,0c0,0,0,0,0,0c0,0,0,0,0,0c0,0,0,0,0,0
		c0,0,0,0,0,0c0,0,0,0,0,0c0,0,0,0,0,0c0,0,0,0,0,0c0,0,0,0,0,0c0,0,0,0,0,0h0c0,0,0,0-0.1,0h0c0,0,0,0,0,0h0c0,0,0,0,0,0
		c0,0,0,0,0,0c-0.4,0-0.8,0-1.1,0l0.1,1.8c0.5,0,1,0,1.4,0V0L50,0L50,0z M47,0.1c-0.4,0-0.9,0.1-1.3,0.1c0,0,0,0,0,0c0,0,0,0,0,0
		c0,0,0,0,0,0c0,0,0,0,0,0c0,0,0,0,0,0s0,0,0,0c0,0,0,0,0,0c0,0,0,0,0,0c0,0-0.1,0-0.1,0L45.7,2c0.5,0,1-0.1,1.4-0.1L47,0.1L47,0.1z
		 M44,0.4C44,0.4,44,0.4,44,0.4C43.9,0.4,43.9,0.4,44,0.4c-0.1,0-0.1,0-0.1,0c0,0,0,0,0,0s0,0,0,0c0,0,0,0,0,0c0,0,0,0,0,0
		c-0.5,0.1-0.9,0.1-1.3,0.2l0.3,1.8c0.5-0.1,1-0.1,1.4-0.2L44,0.4L44,0.4z M41,0.8c-0.2,0-0.3,0.1-0.4,0.1c0,0,0,0,0,0c0,0,0,0,0,0
		c0,0,0,0,0,0c0,0,0,0,0,0c0,0,0,0,0,0c0,0,0,0,0,0c0,0,0,0,0,0l0,0c0,0,0,0,0,0c0,0,0,0,0,0C40.2,1,40,1,39.7,1.1c0,0,0,0,0,0
		c0,0,0,0,0,0c0,0,0,0,0,0c0,0,0,0,0,0c0,0,0,0,0,0c0,0,0,0,0,0c0,0,0,0-0.1,0l0.4,1.8c0.5-0.1,0.9-0.2,1.4-0.3L41,0.8L41,0.8z
		 M38.1,1.4C38.1,1.4,38.1,1.4,38.1,1.4C38.1,1.4,38.1,1.4,38.1,1.4C38.1,1.4,38.1,1.4,38.1,1.4C38.1,1.4,38.1,1.4,38.1,1.4
		L38.1,1.4C38,1.4,38,1.4,38.1,1.4C38,1.4,38,1.4,38.1,1.4c-0.1,0-0.1,0-0.1,0c0,0,0,0,0,0c0,0,0,0-0.1,0l0,0c0,0,0,0,0,0h0
		c-0.1,0-0.1,0-0.2,0.1c0,0,0,0,0,0c0,0,0,0,0,0c0,0,0,0,0,0c0,0,0,0,0,0l0,0c0,0,0,0,0,0c0,0,0,0,0,0c0,0,0,0,0,0c0,0,0,0,0,0
		c0,0,0,0,0,0c0,0,0,0,0,0c0,0,0,0,0,0c0,0,0,0,0,0c0,0,0,0,0,0c0,0,0,0,0,0c0,0,0,0,0,0c0,0,0,0,0,0c0,0,0,0,0,0c0,0,0,0,0,0
		c0,0,0,0,0,0c0,0,0,0,0,0c0,0,0,0,0,0c0,0,0,0,0,0c0,0,0,0,0,0c0,0,0,0,0,0c0,0,0,0,0,0c0,0,0,0,0,0c0,0,0,0,0,0c0,0,0,0,0,0
		c0,0,0,0,0,0c0,0,0,0-0.1,0c0,0,0,0,0,0c0,0,0,0,0,0c0,0,0,0,0,0c0,0,0,0,0,0c0,0,0,0,0,0c0,0,0,0-0.1,0h0c0,0,0,0,0,0c0,0,0,0,0,0
		c0,0,0,0,0,0c0,0,0,0,0,0c0,0,0,0,0,0c0,0,0,0,0,0c0,0,0,0,0,0c0,0,0,0,0,0c0,0,0,0,0,0c0,0,0,0,0,0c0,0,0,0,0,0c0,0,0,0,0,0
		c0,0,0,0,0,0c0,0,0,0,0,0c0,0,0,0,0,0c0,0,0,0,0,0c0,0,0,0,0,0c0,0,0,0,0,0c0,0,0,0,0,0c0,0,0,0,0,0c0,0,0,0,0,0
		c-0.1,0-0.2,0-0.3,0.1l0.5,1.7c0.5-0.1,0.9-0.2,1.4-0.4L38.1,1.4L38.1,1.4z M35.2,2.2c-0.3,0.1-0.7,0.2-1,0.3c0,0,0,0,0,0
		c0,0,0,0,0,0c0,0,0,0,0,0c0,0,0,0,0,0c0,0,0,0,0,0c0,0,0,0,0,0c0,0,0,0,0,0c0,0,0,0,0,0c0,0,0,0,0,0c0,0,0,0,0,0c0,0,0,0,0,0
		c0,0,0,0,0,0c0,0,0,0,0,0c0,0,0,0,0,0c-0.1,0-0.2,0.1-0.3,0.1l0.6,1.7c0.5-0.2,0.9-0.3,1.4-0.4L35.2,2.2L35.2,2.2z M32.4,3.2
		c-0.2,0.1-0.4,0.2-0.6,0.2c0,0,0,0,0,0c0,0,0,0,0,0c0,0,0,0,0,0c0,0,0,0,0,0c0,0,0,0,0,0c0,0,0,0,0,0c0,0,0,0,0,0s0,0,0,0
		c0,0,0,0,0,0c0,0,0,0,0,0c0,0,0,0,0,0c0,0,0,0,0,0c0,0,0,0,0,0c0,0,0,0,0,0c-0.2,0.1-0.4,0.2-0.6,0.3l0.7,1.7
		C32.1,5.2,32.6,5,33,4.9L32.4,3.2L32.4,3.2z M29.6,4.3c-0.4,0.2-0.7,0.3-1.1,0.5c0,0,0,0,0,0c0,0,0,0,0,0c0,0,0,0,0,0c0,0,0,0,0,0
		c0,0,0,0,0,0c0,0,0,0,0,0c0,0,0,0,0,0l0,0c0,0,0,0,0,0c0,0,0,0,0,0c-0.1,0-0.1,0.1-0.2,0.1L29,6.6c0.4-0.2,0.9-0.4,1.3-0.6
		L29.6,4.3L29.6,4.3z M26.9,5.6c-0.4,0.2-0.9,0.5-1.3,0.7l0.9,1.6c0.4-0.2,0.8-0.5,1.3-0.7L26.9,5.6L26.9,5.6z M24.3,7.1
		c-0.4,0.3-0.9,0.5-1.3,0.8l1,1.5c0.4-0.3,0.8-0.5,1.2-0.8L24.3,7.1L24.3,7.1z M21.8,8.7c-0.2,0.1-0.4,0.3-0.6,0.4c0,0,0,0,0,0
		c0,0,0,0,0,0c0,0,0,0,0,0c0,0,0,0,0,0c0,0,0,0,0,0c0,0,0,0,0,0c0,0,0,0,0,0c0,0,0,0,0,0c0,0,0,0,0,0c0,0,0,0,0,0c0,0,0,0,0,0
		c0,0,0,0,0,0c0,0,0,0,0,0c0,0,0,0,0,0c0,0,0,0,0,0c0,0,0,0,0,0c0,0,0,0,0,0s0,0,0,0s0,0,0,0c0,0,0,0,0,0c0,0,0,0,0,0c0,0,0,0,0,0
		c0,0,0,0,0,0c0,0,0,0,0,0c0,0,0,0,0,0c0,0,0,0,0,0c0,0,0,0,0,0c0,0,0,0,0,0c0,0,0,0,0,0l0,0c0,0,0,0,0,0c0,0,0,0,0,0c0,0,0,0,0,0
		c0,0,0,0,0,0c0,0,0,0,0,0c0,0,0,0,0,0c0,0,0,0,0,0c0,0,0,0,0,0c0,0,0,0,0,0c0,0,0,0,0,0c0,0,0,0,0,0c0,0,0,0,0,0s0,0,0,0
		c0,0,0,0,0,0c0,0,0,0,0,0c0,0,0,0,0,0c0,0,0,0,0,0c0,0,0,0,0,0s0,0,0,0s0,0,0,0s0,0,0,0c0,0,0,0,0,0c0,0,0,0,0,0c0,0,0,0,0,0
		c0,0,0,0,0,0c0,0,0,0,0,0l0,0c0,0,0,0-0.1,0.1l1.1,1.5c0.4-0.3,0.8-0.6,1.2-0.8L21.8,8.7L21.8,8.7z M19.3,10.5
		c-0.1,0.1-0.2,0.2-0.3,0.2l0,0c0,0,0,0-0.1,0c0,0,0,0,0,0c0,0,0,0,0,0c0,0,0,0,0,0c0,0,0,0,0,0c0,0,0,0,0,0c0,0,0,0,0,0
		c0,0,0,0,0,0c0,0,0,0,0,0c0,0,0,0,0,0c0,0,0,0,0,0c0,0,0,0,0,0c0,0,0,0,0,0c0,0,0,0,0,0c0,0,0,0,0,0c0,0,0,0,0,0c0,0,0,0,0,0
		c0,0,0,0,0,0c0,0,0,0,0,0c0,0,0,0,0,0c0,0,0,0,0,0c0,0,0,0-0.1,0c0,0,0,0,0,0c-0.2,0.2-0.4,0.3-0.6,0.5l1.1,1.4
		c0.4-0.3,0.7-0.6,1.1-0.9L19.3,10.5L19.3,10.5z M17,12.4c0,0-0.1,0.1-0.1,0.1l0,0c0,0,0,0,0,0c0,0,0,0,0,0c0,0,0,0,0,0c0,0,0,0,0,0
		c0,0,0,0,0,0c0,0,0,0,0,0c0,0,0,0,0,0c0,0,0,0,0,0l0,0c-0.2,0.2-0.4,0.4-0.6,0.6c0,0,0,0,0,0c0,0,0,0,0,0c0,0,0,0,0,0s0,0,0,0
		c0,0,0,0,0,0c0,0,0,0,0,0c0,0,0,0,0,0c0,0,0,0,0,0c0,0,0,0,0,0l0,0c-0.1,0.1-0.1,0.1-0.2,0.2l1.2,1.3c0.4-0.3,0.7-0.7,1.1-1
		L17,12.4L17,12.4z M14.8,14.5C14.8,14.5,14.8,14.5,14.8,14.5C14.8,14.5,14.8,14.5,14.8,14.5C14.8,14.5,14.8,14.5,14.8,14.5
		C14.8,14.5,14.8,14.5,14.8,14.5c-0.3,0.3-0.7,0.7-1,1c0,0,0,0,0,0c0,0,0,0,0,0c0,0,0,0,0,0s0,0,0,0c0,0,0,0,0,0c0,0,0,0,0,0
		c0,0,0,0,0,0c0,0,0,0,0,0l1.3,1.2c0.3-0.3,0.7-0.7,1-1L14.8,14.5L14.8,14.5z M12.8,16.6c-0.3,0.3-0.6,0.7-0.9,1.1c0,0,0,0,0,0
		c0,0,0,0,0,0c0,0,0,0,0,0c0,0,0,0,0,0c0,0,0,0,0,0c0,0,0,0,0,0c0,0,0,0,0,0l1.4,1.2c0.3-0.4,0.6-0.7,0.9-1.1L12.8,16.6L12.8,16.6z
		 M10.8,18.9c-0.2,0.2-0.4,0.4-0.5,0.7c0,0,0,0,0,0c0,0,0,0,0,0c0,0,0,0,0,0c0,0,0,0,0,0c0,0,0,0,0,0c0,0,0,0,0,0c0,0,0,0,0,0
		c0,0,0,0,0,0c0,0,0,0,0,0c0,0,0,0,0,0c0,0,0,0,0,0c0,0,0,0,0,0c0,0,0,0,0,0c0,0,0,0,0,0c0,0,0,0,0,0c0,0,0,0,0,0c0,0,0,0,0,0l0,0
		c-0.1,0.1-0.2,0.2-0.3,0.3l1.4,1.1c0.3-0.4,0.6-0.8,0.9-1.1L10.8,18.9L10.8,18.9z M9,21.3c-0.3,0.4-0.5,0.8-0.8,1.1c0,0,0,0,0,0
		c0,0,0,0,0,0c0,0,0,0,0,0c0,0,0,0,0,0c0,0,0,0,0,0s0,0,0,0c0,0,0,0,0,0s0,0,0,0c0,0,0,0,0,0l0,0l1.5,1c0.3-0.4,0.5-0.8,0.8-1.2
		L9,21.3L9,21.3z M7.4,23.8c-0.2,0.3-0.4,0.7-0.6,1c0,0,0,0,0,0c0,0,0,0,0,0c0,0,0,0,0,0c0,0,0,0,0,0.1c0,0,0,0,0,0c0,0,0,0,0,0
		c0,0,0,0,0,0c0,0,0,0,0,0l0,0c0,0,0,0,0,0c0,0,0,0,0,0c0,0,0,0,0,0c0,0,0,0,0,0c0,0,0,0,0,0c0,0,0,0,0,0c0,0,0,0,0,0l0,0
		c0,0,0,0,0,0c0,0,0,0,0,0c0,0,0,0,0,0c0,0,0,0,0,0c0,0,0,0,0,0c0,0,0,0,0,0c0,0,0,0,0,0c0,0,0,0,0,0c0,0,0,0,0,0l0,0L8.2,26
		c0.2-0.4,0.5-0.8,0.7-1.2L7.4,23.8L7.4,23.8z M5.9,26.4c-0.1,0.2-0.2,0.4-0.3,0.6c0,0,0,0,0,0c0,0,0,0,0,0c0,0,0,0,0,0c0,0,0,0,0,0
		c0,0,0,0,0,0c0,0,0,0,0,0c0,0,0,0,0,0c0,0,0,0,0,0c0,0,0,0,0,0c0,0,0,0,0,0c0,0,0,0,0,0c0,0,0,0,0,0c0,0,0,0,0,0c0,0,0,0,0,0
		c0,0,0,0,0,0c0,0,0,0,0,0c0,0,0,0,0,0c0,0,0,0,0,0c0,0,0,0,0,0c0,0,0,0,0,0c0,0,0,0,0,0c0,0,0,0,0,0c0,0,0,0,0,0c0,0,0,0,0,0
		c0,0,0,0,0,0c0,0,0,0,0,0c0,0,0,0,0,0c0,0,0,0,0,0c0,0,0,0,0,0c0,0,0,0,0,0c0,0,0,0,0,0c0,0,0,0,0,0c0,0,0,0,0,0c0,0,0,0,0,0
		c0,0,0,0,0,0c0,0,0,0,0,0c0,0,0,0,0,0c0,0,0,0,0,0c0,0,0,0,0,0c0,0,0,0,0,0c0,0,0,0,0,0c0,0,0,0,0,0c0,0,0,0,0,0c0,0,0,0,0,0
		c0,0,0,0,0,0c0,0,0,0,0,0c0,0,0,0,0,0c0,0,0,0,0,0c0,0,0,0,0,0c0,0,0,0,0,0c0,0,0,0,0,0c0,0,0,0,0,0l0,0c0,0,0,0,0,0c0,0,0,0,0,0
		c0,0,0,0,0,0h0c0,0,0,0.1-0.1,0.1l1.6,0.8c0.2-0.4,0.4-0.9,0.7-1.3L5.9,26.4L5.9,26.4z M4.6,29.1C4.6,29.1,4.6,29.1,4.6,29.1
		C4.6,29.1,4.6,29.1,4.6,29.1C4.6,29.1,4.5,29.1,4.6,29.1C4.5,29.1,4.5,29.1,4.6,29.1C4.5,29.2,4.5,29.2,4.6,29.1
		C4.5,29.2,4.5,29.2,4.6,29.1C4.5,29.2,4.5,29.2,4.6,29.1C4.5,29.2,4.5,29.2,4.6,29.1L4.6,29.1c0,0.1-0.1,0.1-0.1,0.1v0c0,0,0,0,0,0
		l0,0c0,0.1-0.1,0.2-0.1,0.3l0,0c0,0,0,0,0,0l0,0c0,0,0,0,0,0l0,0c0,0,0,0,0,0c0,0,0,0,0,0c0,0,0,0,0,0c0,0,0,0,0,0c0,0,0,0,0,0
		c0,0,0,0,0,0c0,0,0,0,0,0c0,0,0,0,0,0c0,0,0,0,0,0c0,0,0,0,0,0c0,0,0,0,0,0c0,0,0,0,0,0c0,0,0,0,0,0c0,0,0,0,0,0.1c0,0,0,0,0,0
		C4.1,30,4.1,30.3,4,30.5l1.7,0.7c0.2-0.4,0.4-0.9,0.6-1.3L4.6,29.1L4.6,29.1z M3.4,31.9c-0.1,0.2-0.2,0.4-0.3,0.7v0c0,0,0,0,0,0v0
		c0,0,0,0,0,0.1c0,0,0,0,0,0c0,0,0,0,0,0c0,0,0,0,0,0c0,0,0,0,0,0c0,0,0,0,0,0c0,0,0,0,0,0c0,0,0,0,0,0c0,0,0,0,0,0c0,0,0,0,0,0
		c0,0,0,0,0,0c0,0,0,0,0,0c0,0,0,0,0,0c0,0,0,0,0,0c0,0,0,0,0,0c0,0,0,0,0,0c0,0,0,0,0,0c0,0,0,0,0,0C3,33,2.9,33.1,2.9,33.3
		l1.7,0.6c0.2-0.5,0.3-0.9,0.5-1.4L3.4,31.9L3.4,31.9z M2.4,34.7C2.4,34.7,2.4,34.7,2.4,34.7C2.4,34.7,2.4,34.7,2.4,34.7
		C2.4,34.7,2.4,34.7,2.4,34.7C2.4,34.7,2.4,34.7,2.4,34.7C2.4,34.7,2.4,34.7,2.4,34.7C2.4,34.7,2.4,34.7,2.4,34.7c0,0.1,0,0.1,0,0.1
		c0,0,0,0,0,0c0,0,0,0,0,0c0,0,0,0,0,0c-0.1,0.4-0.3,0.9-0.4,1.3l1.7,0.5c0.1-0.5,0.3-0.9,0.4-1.4L2.4,34.7L2.4,34.7z M1.6,37.6
		C1.6,37.6,1.5,37.6,1.6,37.6L1.6,37.6c-0.1,0.4-0.2,0.7-0.2,1v0c0,0,0,0,0,0v0c0,0,0,0,0,0c0,0,0,0,0,0c0,0,0,0,0,0c0,0,0,0,0,0
		c0,0,0,0,0,0c0,0,0,0,0,0c0,0,0,0,0,0c0,0.1,0,0.2-0.1,0.3L3,39.4C3.1,39,3.2,38.5,3.3,38L1.6,37.6L1.6,37.6z M0.9,40.5
		C0.9,40.5,0.9,40.5,0.9,40.5C0.9,40.5,0.9,40.5,0.9,40.5C0.9,40.5,0.9,40.5,0.9,40.5L0.9,40.5C0.9,40.6,0.9,40.6,0.9,40.5
		C0.9,40.6,0.9,40.6,0.9,40.5c0,0.1,0,0.1,0,0.1c0,0,0,0,0,0c0,0,0,0,0,0c0,0,0,0,0,0c0,0,0,0,0,0c0,0,0,0,0,0c0,0,0,0,0,0v0
		c0,0,0,0,0,0c0,0,0,0,0,0c0,0,0,0,0,0c0,0,0,0,0,0s0,0,0,0c0,0,0,0,0,0c0,0,0,0,0,0c0,0,0,0,0,0c0,0,0,0,0,0c0,0,0,0,0,0
		c0,0,0,0,0,0c0,0,0,0,0,0c0,0,0,0,0,0c0,0,0,0,0,0c0,0,0,0,0,0c0,0,0,0,0,0c0,0,0,0,0,0c0,0,0,0,0,0l0,0c0,0,0,0,0,0c0,0,0,0,0,0
		c0,0,0,0,0,0l0,0c-0.1,0.3-0.1,0.7-0.2,1l0,0l1.8,0.3c0.1-0.5,0.2-1,0.3-1.4L0.9,40.5L0.9,40.5z M0.4,43.5c-0.1,0.5-0.1,1-0.2,1.5
		L2,45.1c0-0.5,0.1-1,0.2-1.4L0.4,43.5L0.4,43.5z M0.1,46.5c0,0.1,0,0.3,0,0.4c0,0,0,0,0,0c0,0,0,0,0,0c0,0,0,0,0,0c0,0,0,0,0,0
		c0,0,0,0,0,0c0,0,0,0,0,0c0,0,0,0,0,0c0,0,0,0,0,0c0,0,0,0,0,0c0,0,0,0,0,0c0,0,0,0,0,0l0,0c0,0,0,0,0,0c0,0,0,0,0,0c0,0,0,0,0,0v0
		c0,0,0,0,0,0c0,0,0,0,0,0c0,0.3,0,0.6,0,0.9L1.8,48c0-0.5,0-1,0.1-1.4L0.1,46.5L0.1,46.5z M0,49.4c0,0,0,0.1,0,0.1c0,0,0,0,0,0
		c0,0,0,0,0,0s0,0,0,0c0,0,0,0,0,0c0,0,0,0,0,0v0c0,0.1,0,0.2,0,0.3c0,0,0,0,0,0c0,0,0,0,0,0c0,0,0,0,0,0c0,0,0,0,0,0c0,0,0,0,0,0
		c0,0,0,0,0,0c0,0,0,0,0,0c0,0,0,0,0,0l0,0c0,0,0,0,0,0c0,0,0,0,0,0c0,0,0,0,0,0c0,0,0,0,0,0c0,0,0,0,0,0c0,0,0,0,0,0c0,0,0,0,0,0
		c0,0,0,0,0,0c0,0,0,0,0,0c0,0,0,0,0,0c0,0,0,0,0,0c0,0,0,0,0,0c0,0,0,0,0,0c0,0,0,0,0,0c0,0,0,0,0,0c0,0,0,0,0,0c0,0,0,0,0,0
		c0,0,0,0,0,0c0,0,0,0,0,0c0,0,0,0,0,0c0,0,0,0,0,0c0,0,0,0,0,0c0,0,0,0,0,0c0,0,0,0,0,0c0,0,0,0,0,0v0c0,0,0,0,0,0v0
		c0,0.2,0,0.4,0,0.6l1.8,0c0-0.3,0-0.6,0-0.9c0-0.2,0-0.4,0-0.5L0,49.4L0,49.4z M1.9,52.4l-1.8,0.1c0,0.4,0,0.8,0.1,1.1c0,0,0,0,0,0
		c0,0,0,0,0,0c0,0,0,0,0,0c0,0,0,0,0,0c0,0,0,0,0,0c0,0,0,0,0,0v0c0,0,0,0,0,0c0,0,0,0,0,0s0,0,0,0s0,0,0,0c0,0,0,0,0,0c0,0,0,0,0,0
		c0,0,0,0,0,0c0,0,0,0,0,0c0,0,0,0,0,0c0,0.1,0,0.1,0,0.2l1.8-0.1C1.9,53.3,1.9,52.8,1.9,52.4L1.9,52.4z M2.1,55.2l-1.8,0.2
		c0.1,0.5,0.1,1,0.2,1.5l1.8-0.2C2.2,56.2,2.1,55.7,2.1,55.2L2.1,55.2z M2.5,58.1l-1.8,0.3c0,0.1,0,0.2,0,0.2v0c0,0,0,0,0,0
		c0,0,0,0,0,0c0,0,0,0,0,0c0,0,0,0,0,0c0,0,0,0,0,0c0,0,0,0,0,0c0,0,0,0,0,0c0,0,0,0,0,0c0,0,0,0,0,0c0,0,0,0,0,0c0,0,0,0,0,0
		c0,0,0,0,0,0c0,0,0,0,0,0c0,0,0,0,0,0l0,0c0,0.2,0.1,0.4,0.1,0.6c0,0,0,0,0,0c0,0,0,0,0,0v0c0,0,0,0,0,0.1c0,0,0,0,0,0c0,0,0,0,0,0
		c0,0,0,0,0,0s0,0,0,0c0,0,0,0,0,0s0,0,0,0c0,0,0,0,0,0c0,0,0,0,0,0c0,0,0,0,0,0c0,0,0,0,0,0c0,0,0,0,0,0c0,0,0,0,0,0c0,0,0,0,0,0
		c0,0,0,0,0,0c0,0,0,0,0,0c0,0,0,0,0,0c0,0.1,0,0.2,0.1,0.3l1.8-0.4C2.6,59.1,2.6,58.6,2.5,58.1L2.5,58.1z M3,60.9l-1.8,0.4
		c0.1,0.4,0.2,0.8,0.3,1.2c0,0,0,0,0,0c0,0,0,0,0,0c0,0,0,0,0,0s0,0,0,0c0,0,0,0,0,0c0,0,0,0,0,0c0,0.1,0,0.1,0.1,0.2l1.7-0.5
		C3.3,61.9,3.2,61.4,3,60.9L3,60.9z M3.8,63.7l-1.7,0.5c0,0,0,0.1,0,0.1v0c0,0,0,0,0,0c0,0,0,0,0,0c0,0,0,0,0,0c0,0,0,0,0,0
		c0,0,0,0,0,0c0,0,0,0,0,0c0,0,0,0,0,0c0,0,0,0,0,0c0,0,0,0,0,0c0,0,0,0,0,0c0,0,0,0,0,0c0,0,0,0,0,0c0,0,0,0,0,0c0,0,0,0,0,0
		c0,0,0,0,0,0c0,0,0,0,0,0c0,0,0,0,0,0c0,0,0,0,0,0c0,0,0,0,0,0c0,0,0,0,0,0c0,0,0,0,0,0c0.1,0.4,0.2,0.7,0.4,1.1l1.7-0.6
		C4.1,64.7,3.9,64.2,3.8,63.7L3.8,63.7z M4.7,66.5L3,67.1c0,0.1,0,0.1,0.1,0.2v0c0,0,0,0,0,0v0c0,0,0,0,0,0c0,0,0,0,0,0c0,0,0,0,0,0
		c0,0,0,0,0,0c0,0,0,0,0,0c0,0,0,0,0,0c0,0,0,0,0,0c0,0,0,0,0,0c0,0,0,0,0,0c0,0,0,0,0,0c0,0,0,0,0,0c0,0,0,0,0,0c0,0,0,0,0,0
		c0,0,0,0,0,0c0,0,0,0,0,0s0,0,0,0c0,0,0,0,0,0c0,0,0,0,0,0c0,0,0,0,0,0c0,0,0,0,0,0s0,0,0,0s0,0,0,0c0,0,0,0,0,0s0,0,0,0
		c0,0,0,0,0,0c0,0,0,0,0,0c0,0,0,0,0,0c0,0,0,0,0,0c0,0,0,0,0,0c0,0,0,0,0,0c0,0,0,0,0,0c0,0,0,0,0,0c0,0,0,0,0,0c0,0,0,0,0,0
		c0,0,0,0,0,0c0,0,0,0,0,0c0,0,0,0,0,0c0,0,0,0,0,0c0,0,0,0,0,0c0,0,0,0,0,0c0,0,0,0,0,0l0,0c0,0,0,0,0,0c0,0,0,0,0,0c0,0,0,0,0,0
		l0,0c0,0,0,0,0,0v0c0.1,0.2,0.2,0.4,0.3,0.7l1.7-0.7C5,67.4,4.9,66.9,4.7,66.5L4.7,66.5z M5.8,69.2l-1.7,0.7
		c0.2,0.5,0.4,0.9,0.6,1.4l1.6-0.8C6.2,70.1,6,69.6,5.8,69.2L5.8,69.2z M7,71.8l-1.6,0.8c0,0.1,0.1,0.1,0.1,0.2c0,0,0,0,0,0
		c0,0,0,0,0,0c0,0,0,0,0,0c0,0,0,0,0,0c0.2,0.4,0.4,0.8,0.6,1.1l1.6-0.9C7.4,72.6,7.2,72.2,7,71.8L7,71.8z M8.4,74.3l-1.6,0.9
		c0,0,0,0,0,0v0c0,0,0,0,0,0c0,0,0,0,0,0c0,0,0,0,0,0c0,0,0,0,0,0c0,0,0,0,0,0c0,0,0,0,0,0c0,0,0,0,0,0c0,0,0,0,0,0c0,0,0,0,0,0
		c0,0,0,0,0,0s0,0,0,0c0,0,0,0,0,0v0c0,0,0,0,0,0c0,0,0,0,0,0c0,0,0,0,0,0c0,0,0,0,0,0c0,0,0,0,0,0l0,0c0.2,0.3,0.4,0.6,0.6,1
		c0,0,0,0,0,0c0,0,0,0,0,0c0,0,0,0,0,0c0,0,0,0,0,0c0,0,0,0,0,0c0,0,0,0,0,0c0,0,0,0,0,0c0,0,0,0,0,0c0,0,0,0,0,0c0,0,0,0,0,0
		c0,0,0,0,0,0l1.5-1C8.9,75.2,8.6,74.7,8.4,74.3L8.4,74.3z M9.9,76.8l-1.5,1C8.7,78.2,9,78.6,9.3,79l1.5-1
		C10.5,77.6,10.2,77.2,9.9,76.8L9.9,76.8z M11.6,79.1l-1.4,1.1c0.2,0.3,0.4,0.5,0.6,0.8c0,0,0,0,0,0c0,0,0,0,0,0.1c0,0,0,0,0,0
		c0,0,0,0,0,0c0,0,0,0,0,0c0,0,0,0,0,0l0,0c0,0,0,0,0,0l0,0c0,0,0,0,0,0c0,0,0,0,0,0c0,0,0,0,0,0c0,0,0,0,0,0c0,0,0,0,0,0l0,0
		c0,0,0,0,0,0c0,0,0,0,0,0c0,0,0,0,0,0c0,0,0,0,0,0c0,0,0,0,0,0c0,0,0,0,0,0c0,0,0,0,0,0.1c0,0,0,0,0,0c0,0,0,0,0,0c0,0,0,0,0,0
		c0,0,0.1,0.1,0.1,0.1l1.4-1.1C12.2,79.9,11.9,79.5,11.6,79.1L11.6,79.1z M13.4,81.4L12,82.6c0.1,0.1,0.2,0.2,0.3,0.3c0,0,0,0,0,0
		c0,0,0,0,0,0c0,0,0,0,0,0c0,0,0,0,0,0c0,0,0,0,0,0c0,0,0,0,0,0c0,0,0,0,0,0c0,0,0,0,0,0c0,0,0,0,0,0c0,0,0,0,0,0c0,0,0,0,0,0
		c0,0,0,0,0,0c0.2,0.2,0.4,0.5,0.6,0.7l1.3-1.2C14,82.1,13.7,81.7,13.4,81.4L13.4,81.4z M15.4,83.5l-1.3,1.3
		c0.1,0.1,0.2,0.2,0.3,0.3l0,0c0,0,0,0,0,0l0,0c0,0,0,0,0,0l0,0c0,0,0,0,0,0c0,0,0,0,0,0c0,0,0,0,0,0c0,0,0,0,0,0c0,0,0,0,0,0
		c0,0,0,0,0,0c0,0,0,0,0,0c0,0,0,0,0,0c0,0,0,0,0,0c0,0,0,0,0,0c0,0,0,0,0,0c0,0,0,0,0,0c0,0,0,0,0,0c0,0,0,0,0,0c0,0,0,0,0,0
		c0,0,0,0,0,0c0,0,0,0,0,0c0,0,0,0,0,0c0,0,0,0,0,0c0,0,0,0,0,0c0,0,0,0,0,0c0,0,0,0,0,0c0,0,0,0,0,0c0,0,0,0,0,0c0,0,0,0,0,0
		c0,0,0,0,0,0c0,0,0,0,0,0c0,0,0,0,0,0c0,0,0,0,0,0c0,0,0,0,0,0c0,0,0,0,0.1,0.1l0,0c0.1,0.1,0.2,0.2,0.4,0.4l1.3-1.3
		C16,84.2,15.7,83.9,15.4,83.5L15.4,83.5z M17.4,85.5l-1.2,1.3c0,0,0.1,0.1,0.1,0.1c0,0,0,0,0,0c0,0,0,0,0,0c0,0,0,0,0,0
		c0,0,0,0,0,0c0,0,0,0,0,0c0,0,0,0,0,0c0,0,0,0,0,0c0,0,0,0,0,0c0,0,0,0,0,0c0,0,0,0,0,0c0,0,0,0,0,0c0,0,0,0,0,0
		c0.3,0.2,0.5,0.5,0.8,0.7c0,0,0,0,0,0c0,0,0,0,0,0c0,0,0,0,0,0c0,0,0,0,0,0c0,0,0,0,0,0s0,0,0,0c0,0,0,0,0,0c0,0,0,0,0,0
		c0,0,0,0,0,0c0,0,0,0,0,0c0,0,0,0,0,0l0,0l1.2-1.4C18.1,86.2,17.8,85.9,17.4,85.5L17.4,85.5z M19.6,87.4l-1.1,1.4
		c0.1,0.1,0.2,0.2,0.3,0.3l0,0c0,0,0,0,0,0h0c0,0,0,0,0,0c0,0,0,0,0,0c0,0,0,0,0,0c0,0,0,0,0,0c0,0,0,0,0,0c0,0,0,0,0,0s0,0,0,0
		c0,0,0,0,0,0c0,0,0,0,0,0c0,0,0,0,0,0c0,0,0,0,0,0c0,0,0,0,0,0c0,0,0,0,0,0c0.2,0.2,0.5,0.4,0.7,0.5l1.1-1.4
		C20.4,88,20,87.7,19.6,87.4L19.6,87.4z M21.9,89.2l-1,1.5c0.1,0.1,0.3,0.2,0.4,0.3c0,0,0,0,0,0c0,0,0,0,0,0c0,0,0,0,0,0s0,0,0,0
		c0,0,0,0,0,0c0,0,0,0,0,0c0,0,0,0,0,0c0,0,0,0,0,0c0,0,0,0,0,0c0,0,0,0,0,0c0,0,0,0,0,0c0,0,0,0,0,0c0,0,0,0,0,0c0,0,0,0,0,0
		c0,0,0,0,0,0l0,0c0,0,0,0,0,0l0,0c0,0,0,0,0,0l0,0c0.2,0.1,0.3,0.2,0.5,0.4l0,0c0,0,0,0,0,0c0,0,0,0,0,0c0,0,0,0,0,0l0,0
		c0,0,0,0,0,0c0,0,0,0,0,0c0,0,0,0,0,0c0,0,0,0,0,0l1-1.5C22.7,89.7,22.3,89.5,21.9,89.2L21.9,89.2z M24.3,90.8l-1,1.5
		c0.1,0,0.1,0.1,0.2,0.1l0,0c0,0,0,0,0,0l0,0c0,0,0,0,0,0c0,0,0,0,0,0c0,0,0,0,0,0c0,0,0,0,0,0c0,0,0,0,0,0c0,0,0,0,0,0c0,0,0,0,0,0
		c0,0,0,0,0,0c0,0,0,0,0,0c0.3,0.2,0.6,0.4,1,0.6l0.9-1.6C25.1,91.3,24.7,91.1,24.3,90.8L24.3,90.8z M26.8,92.3l-0.9,1.6
		c0.1,0.1,0.2,0.1,0.4,0.2c0,0,0,0,0,0c0,0,0,0,0.1,0c0,0,0,0,0,0c0,0,0,0,0,0c0,0,0,0,0,0c0,0,0,0,0,0c0,0,0,0,0,0c0,0,0,0,0,0
		c0,0,0,0,0,0c0,0,0,0,0,0c0,0,0,0,0,0c0,0,0,0,0,0c0,0,0,0,0,0c0,0,0,0,0,0c0,0,0,0,0,0c0,0,0,0,0,0c0,0,0,0,0,0c0,0,0,0,0,0
		c0,0,0,0,0,0c0,0,0,0,0,0c0,0,0,0,0,0c0,0,0,0,0,0c0,0,0,0,0,0c0,0,0,0,0,0c0,0,0,0,0,0c0,0,0,0,0,0c0,0,0,0,0,0c0,0,0,0,0,0
		c0,0,0,0,0,0l0,0c0,0,0,0,0,0l0,0c0,0,0,0,0,0l0,0c0.2,0.1,0.4,0.2,0.5,0.3l0.8-1.6C27.7,92.7,27.2,92.5,26.8,92.3L26.8,92.3z
		 M29.4,93.6l-0.8,1.6l0,0c0,0,0,0,0,0c0,0,0,0,0,0c0,0,0,0,0,0c0,0,0,0,0,0c0,0,0,0,0,0c0,0,0,0,0,0c0,0,0,0,0,0
		c0.2,0.1,0.4,0.2,0.6,0.3c0,0,0,0,0,0c0,0,0,0,0,0c0,0,0,0,0,0c0,0,0,0,0,0c0,0,0,0,0,0c0,0,0,0,0,0c0,0,0,0,0,0s0,0,0,0
		c0,0,0,0,0,0c0,0,0,0,0,0c0,0,0,0,0,0c0,0,0,0,0,0c0,0,0,0,0,0h0c0,0,0,0,0,0c0,0,0,0,0,0c0,0,0,0,0,0l0,0c0,0,0,0,0,0h0
		c0.2,0.1,0.3,0.1,0.5,0.2l0.7-1.6C30.3,94,29.8,93.8,29.4,93.6L29.4,93.6z M32,94.7l-0.7,1.7c0.3,0.1,0.5,0.2,0.8,0.3c0,0,0,0,0,0
		c0,0,0,0,0,0c0,0,0,0,0,0c0,0,0,0,0,0c0,0,0,0,0,0c0,0,0,0,0,0c0,0,0,0,0,0c0,0,0,0,0,0c0,0,0,0,0,0c0,0,0,0,0,0c0,0,0,0,0,0
		c0,0,0,0,0,0c0,0,0,0,0,0c0,0,0,0,0,0c0,0,0,0,0,0c0,0,0,0,0,0c0,0,0,0,0,0c0,0,0,0,0,0c0,0,0,0,0,0c0,0,0,0,0,0c0,0,0,0,0,0
		c0,0,0,0,0,0c0,0,0,0,0.1,0c0,0,0,0,0,0c0,0,0,0,0,0l0,0c0.1,0,0.2,0.1,0.3,0.1l0.6-1.7C32.9,95.1,32.5,94.9,32,94.7L32,94.7z
		 M34.7,95.7l-0.6,1.7c0.1,0,0.2,0.1,0.3,0.1l0,0c0,0,0,0,0,0c0,0,0,0,0,0c0,0,0,0,0,0s0,0,0,0c0,0,0,0,0,0c0,0,0,0,0,0l0,0
		c0.3,0.1,0.7,0.2,1,0.3l0.5-1.7C35.7,96,35.2,95.9,34.7,95.7L34.7,95.7z M37.5,96.6L37,98.3c0.5,0.1,1,0.3,1.5,0.4l0.4-1.8
		C38.4,96.8,38,96.7,37.5,96.6L37.5,96.6z M40.3,97.2L40,99c0.5,0.1,1,0.2,1.5,0.3l0.3-1.8C41.3,97.4,40.8,97.3,40.3,97.2L40.3,97.2
		z M43.2,97.7l-0.3,1.8c0.1,0,0.2,0,0.3,0c0,0,0,0,0,0c0,0,0,0,0,0h0c0,0,0,0,0.1,0c0,0,0,0,0,0c0,0,0,0,0,0c0,0,0,0,0,0
		c0,0,0,0,0,0c0,0,0,0,0,0c0,0,0,0,0,0c0,0,0,0,0,0c0,0,0,0,0,0c0,0,0,0,0,0c0,0,0,0,0,0c0,0,0,0,0,0c0,0,0,0,0,0c0,0,0,0,0,0
		c0,0,0,0,0,0c0,0,0,0,0,0c0,0,0,0,0.1,0l0,0c0,0,0,0,0,0h0c0.3,0,0.5,0.1,0.8,0.1l0.2-1.8C44.1,97.8,43.7,97.8,43.2,97.7L43.2,97.7
		z M46.1,98l-0.1,1.8c0,0,0,0,0,0c0,0,0,0,0,0c0,0,0,0,0,0c0,0,0,0,0,0c0,0,0,0,0,0s0,0,0,0c0,0,0,0,0,0c0,0,0,0,0,0c0,0,0,0,0,0
		c0,0,0,0,0,0c0,0,0,0,0,0c0,0,0,0,0,0c0,0,0,0,0,0c0,0,0,0,0,0c0,0,0,0,0,0h0c0,0,0,0,0.1,0c0,0,0,0,0,0c0,0,0,0,0,0c0,0,0,0,0,0
		c0,0,0,0,0,0c0,0,0,0,0,0c0,0,0,0,0,0c0,0,0,0,0,0c0,0,0,0,0.1,0c0,0,0,0,0,0c0,0,0,0,0,0c0,0,0,0,0,0c0,0,0,0,0,0s0,0,0,0
		c0,0,0,0,0,0c0,0,0,0,0,0c0,0,0,0,0,0c0,0,0,0,0,0c0,0,0,0,0,0c0,0,0,0,0,0c0,0,0,0,0,0s0,0,0,0c0,0,0,0,0,0c0,0,0,0,0,0
		c0,0,0,0,0,0c0,0,0,0,0,0c0,0,0,0,0,0c0,0,0,0,0,0c0,0,0,0,0,0c0,0,0,0,0,0c0,0,0,0,0,0c0,0,0,0,0,0c0,0,0,0,0,0c0,0,0,0,0,0
		c0,0,0,0,0,0c0,0,0,0,0,0c0,0,0,0,0,0c0,0,0.1,0,0.1,0h0c0,0,0,0,0,0h0c0.1,0,0.2,0,0.3,0h0c0,0,0,0,0,0c0,0,0,0,0,0c0,0,0,0,0,0h0
		c0,0,0,0,0,0c0,0,0,0,0,0c0,0,0,0,0,0c0,0,0,0,0,0c0,0,0,0,0,0c0,0,0,0,0,0c0,0,0,0,0,0c0,0,0,0,0,0c0,0,0,0,0,0c0.1,0,0.2,0,0.3,0
		l0.1-1.8C47,98.1,46.5,98.1,46.1,98L46.1,98z M48.9,98.2l0,1.8c0.3,0,0.6,0,0.9,0c0,0,0,0,0,0c0,0,0,0,0,0c0,0,0,0,0,0c0,0,0,0,0,0
		c0,0,0,0,0,0c0,0,0,0,0,0c0,0,0,0,0,0c0,0,0,0,0,0c0,0,0,0,0,0c0,0,0,0,0,0c0,0,0,0,0,0c0,0,0,0,0,0c0,0,0,0,0,0c0,0,0,0,0,0
		c0,0,0,0,0,0s0,0,0,0c0,0,0,0,0,0c0,0,0,0,0,0l0,0c0,0,0,0,0,0c0,0,0,0,0,0c0,0,0,0,0,0c0,0,0,0,0,0c0,0,0,0,0,0c0,0,0,0,0,0
		c0,0,0,0,0,0h0c0,0,0,0,0,0c0,0,0,0,0,0c0,0,0,0,0,0c0,0,0,0,0,0c0,0,0,0,0,0c0,0,0,0,0,0c0,0,0,0,0,0c0,0,0,0,0,0c0,0,0,0,0,0
		c0,0,0,0,0,0c0,0,0,0,0,0c0,0,0.1,0,0.1,0l0-1.8l-0.4,0C49.6,98.2,49.3,98.2,48.9,98.2L48.9,98.2z M53.3,98.1c-0.5,0-1,0.1-1.4,0.1
		l0.1,1.8c0.1,0,0.2,0,0.3,0c0,0,0,0,0,0c0,0,0,0,0,0c0,0,0,0,0,0c0,0,0,0,0,0c0,0,0,0,0,0c0,0,0,0,0,0c0,0,0,0,0,0c0,0,0,0,0,0
		c0,0,0,0,0,0c0,0,0,0,0,0c0,0,0,0,0,0c0,0,0,0,0,0c0,0,0,0,0,0c0,0,0,0,0,0c0,0,0,0,0,0c0,0,0,0,0,0c0.1,0,0.3,0,0.4,0c0,0,0,0,0,0
		c0,0,0,0,0,0c0,0,0,0,0,0c0,0,0,0,0,0c0,0,0,0,0,0c0,0,0,0,0.1,0c0,0,0,0,0,0c0,0,0,0,0,0c0,0,0,0,0,0c0,0,0,0,0,0c0,0,0,0,0,0
		c0,0,0,0,0,0c0,0,0,0,0,0c0,0,0,0,0,0c0,0,0,0,0,0c0,0,0,0,0,0c0,0,0,0,0.1,0l0,0c0.1,0,0.3,0,0.4,0L53.3,98.1L53.3,98.1z
		 M56.2,97.8c-0.5,0.1-1,0.1-1.4,0.2l0.2,1.8c0.4,0,0.7-0.1,1.1-0.1h0c0,0,0,0,0,0c0,0,0,0,0,0c0,0,0,0,0,0c0,0,0,0,0,0c0,0,0,0,0,0
		c0,0,0,0,0,0c0,0,0,0,0,0c0,0,0,0,0,0c0,0,0,0,0,0c0.1,0,0.2,0,0.3,0L56.2,97.8L56.2,97.8z M59,97.4c-0.5,0.1-0.9,0.2-1.4,0.2
		l0.3,1.8c0,0,0,0,0,0c0,0,0,0,0,0c0,0,0,0,0,0c0,0,0,0,0,0c0,0,0,0,0,0c0,0,0,0,0,0c0,0,0,0,0,0c0,0,0,0,0,0c0,0,0,0,0,0
		c0,0,0,0,0,0c0,0,0,0,0,0c0,0,0,0,0,0c0,0,0,0,0,0c0,0,0,0,0,0c0,0,0,0,0,0c0,0,0,0,0,0c0,0,0,0,0,0c0,0,0,0,0,0c0,0,0,0,0,0
		c0,0,0,0,0,0c0,0,0,0,0,0c0,0,0,0,0,0c0,0,0,0,0,0c0,0,0,0,0,0l0,0c0,0,0,0,0,0l0,0c0,0,0,0,0,0c0,0,0,0,0,0c0,0,0,0,0,0
		c0,0,0,0,0,0c0,0,0,0,0,0c0,0,0,0,0,0c0,0,0,0,0,0c0,0,0,0,0,0c0,0,0,0,0,0c0,0,0,0,0,0c0,0,0,0,0,0c0,0,0,0,0,0c0,0,0,0,0,0
		c0,0,0,0,0,0c0,0,0,0,0,0c0,0,0,0,0,0c0,0,0,0,0,0c0,0,0,0,0,0c0,0,0,0,0,0s0,0,0,0c0,0,0,0,0,0s0,0,0,0c0,0,0,0,0,0c0,0,0,0,0,0
		c0,0,0,0,0,0c0,0,0,0,0.1,0c0,0,0,0,0,0c0,0,0,0,0,0c0,0,0,0,0,0c0,0,0,0,0,0c0,0,0,0,0,0c0.2,0,0.5-0.1,0.7-0.1L59,97.4L59,97.4z
		 M61.8,96.7c-0.5,0.1-0.9,0.2-1.4,0.3l0.4,1.8c0.1,0,0.2,0,0.3-0.1h0c0,0,0,0,0,0h0c0,0,0,0,0.1,0c0,0,0,0,0,0c0,0,0,0,0,0l0,0
		c0,0,0,0,0,0c0,0,0,0,0,0c0,0,0,0,0,0c0,0,0,0,0,0c0,0,0,0,0,0c0,0,0,0,0,0c0,0,0,0,0,0c0,0,0,0,0,0c0,0,0,0,0,0c0,0,0,0,0,0
		c0,0,0,0,0,0c0,0,0,0,0,0c0,0,0,0,0,0c0,0,0,0,0,0c0,0,0,0,0,0c0,0,0,0,0,0c0,0,0,0,0,0c0,0,0,0,0,0c0,0,0,0,0,0c0,0,0,0,0,0
		c0,0,0,0,0,0c0,0,0,0,0,0c0,0,0,0,0,0c0,0,0,0,0,0c0,0,0,0,0,0s0,0,0,0c0,0,0,0,0,0c0,0,0,0,0,0c0,0,0,0,0,0c0,0,0,0,0.1,0h0
		c0,0,0,0,0,0c0,0,0,0,0,0c0,0,0,0,0,0c0,0,0,0,0,0c0,0,0.1,0,0.1,0c0,0,0,0,0,0c0.2,0,0.4-0.1,0.5-0.1L61.8,96.7L61.8,96.7z
		 M64.6,95.9c-0.5,0.1-0.9,0.3-1.4,0.4l0.5,1.7c0.1,0,0.2,0,0.3-0.1h0c0,0,0,0,0.1,0h0c0,0,0,0,0,0c0,0,0,0,0,0c0,0,0,0,0,0
		c0,0,0,0,0,0c0,0,0,0,0,0c0,0,0,0,0,0c0,0,0,0,0,0c0,0,0,0,0,0c0,0,0,0,0,0c0,0,0,0,0,0c0,0,0,0,0,0c0,0,0,0,0,0c0,0,0,0,0,0
		c0,0,0,0,0,0c0,0,0,0,0,0c0,0,0,0,0,0c0,0,0,0,0,0c0,0,0,0,0,0c0,0,0,0,0,0c0,0,0,0,0,0c0,0,0,0,0,0c0,0,0,0,0,0c0,0,0,0,0,0
		c0,0,0,0,0,0h0c0,0,0,0,0,0c0,0,0,0,0,0c0,0,0,0,0,0c0,0,0,0,0,0c0,0,0,0,0.1,0l0,0c0,0,0,0,0,0h0c0,0,0.1,0,0.1,0c0,0,0,0,0,0
		c0,0,0,0,0,0l0,0c0,0,0,0,0,0h0c0,0,0,0,0,0c0,0,0,0,0,0c0,0,0,0,0,0c0,0,0,0,0,0c0,0,0,0,0,0c0,0,0,0,0,0c0,0,0,0,0,0c0,0,0,0,0,0
		c0,0,0,0,0,0c0,0,0,0,0,0s0,0,0,0c0,0,0,0,0,0c0,0,0,0,0,0c0,0,0,0,0,0c0,0,0,0,0,0c0.1,0,0.2-0.1,0.3-0.1L64.6,95.9L64.6,95.9z
		 M67.3,95c-0.4,0.2-0.9,0.3-1.4,0.5l0.6,1.7c0.3-0.1,0.6-0.2,1-0.3c0,0,0,0,0,0c0,0,0,0,0,0c0,0,0,0,0,0c0,0,0,0,0,0c0,0,0,0,0,0
		c0,0,0,0,0,0c0.1,0,0.3-0.1,0.4-0.1L67.3,95L67.3,95z M70,93.9c-0.4,0.2-0.9,0.4-1.3,0.6l0.7,1.7c0.2-0.1,0.4-0.2,0.6-0.3l0,0
		c0,0,0.1,0,0.1,0c0,0,0,0,0,0c0,0,0,0,0,0c0,0,0,0,0,0c0,0,0,0,0.1,0c0,0,0,0,0,0c0,0,0,0,0,0c0,0,0,0,0,0c0,0,0,0,0,0l0,0
		c0,0,0,0,0,0c0,0,0,0,0,0c0,0,0,0,0,0c0,0,0,0,0,0c0,0,0,0,0,0c0,0,0,0,0,0c0,0,0,0,0,0c0,0,0,0,0,0c0,0,0,0,0,0c0,0,0,0,0,0
		c0,0,0,0,0,0c0,0,0,0,0,0c0,0,0,0,0,0c0,0,0,0,0,0c0,0,0,0,0,0c0,0,0,0,0,0c0,0,0,0,0,0c0,0,0,0,0,0c0,0,0,0,0,0c0,0,0,0,0,0h0
		c0.1,0,0.2-0.1,0.2-0.1L70,93.9L70,93.9z M72.6,92.6c-0.4,0.2-0.9,0.4-1.3,0.7l0.8,1.6c0.4-0.2,0.9-0.4,1.3-0.7L72.6,92.6
		L72.6,92.6z M75.1,91.1c-0.4,0.3-0.8,0.5-1.2,0.7l0.9,1.6c0.4-0.2,0.7-0.4,1.1-0.6c0,0,0,0,0,0c0,0,0,0,0,0l0,0c0,0,0,0,0,0
		c0,0,0,0,0,0c0,0,0,0,0,0c0,0,0,0,0,0c0,0,0,0,0,0c0,0,0,0,0,0c0,0,0,0,0,0c0,0,0,0,0,0l0,0c0,0,0,0,0,0l0,0c0,0,0,0,0,0L75.1,91.1
		L75.1,91.1z M77.5,89.6c-0.4,0.3-0.8,0.5-1.2,0.8l1,1.5c0.1,0,0.1-0.1,0.2-0.1c0,0,0,0,0,0c0,0,0,0,0,0c0,0,0,0,0,0c0,0,0,0,0,0
		c0,0,0,0,0,0c0,0,0,0,0,0c0,0,0,0,0,0c0,0,0,0,0,0c0,0,0,0,0,0c0,0,0,0,0,0c0.3-0.2,0.7-0.4,1-0.7L77.5,89.6L77.5,89.6z M79.9,87.8
		c-0.4,0.3-0.8,0.6-1.1,0.9l1.1,1.4c0.1,0,0.1-0.1,0.2-0.1c0,0,0,0,0,0c0,0,0,0,0.1,0c0,0,0,0,0,0c0,0,0,0,0,0c0,0,0,0,0,0
		c0,0,0,0,0,0c0,0,0,0,0,0c0,0,0,0,0,0c0,0,0,0,0,0c0,0,0,0,0,0c0,0,0,0,0,0c0,0,0,0,0,0c0,0,0,0,0,0c0,0,0,0,0,0c0,0,0,0,0,0
		c0,0,0,0,0,0c0,0,0,0,0,0c0,0,0,0,0,0c0,0,0,0,0,0c0,0,0,0,0,0c0,0,0,0,0,0c0,0,0,0,0,0c0,0,0,0,0,0c0,0,0,0,0,0c0,0,0,0,0,0
		c0,0,0,0,0,0c0,0,0,0,0,0c0,0,0,0,0,0c0,0,0,0,0,0c0,0,0,0,0,0c0,0,0,0,0.1,0c0,0,0,0,0,0c0,0,0,0,0,0c0,0,0,0,0,0
		c0.2-0.2,0.4-0.3,0.6-0.5L79.9,87.8L79.9,87.8z M82.1,86c-0.4,0.3-0.7,0.6-1.1,0.9l1.2,1.4c0.3-0.2,0.5-0.4,0.7-0.6l0,0
		c0,0,0,0,0,0l0,0c0,0,0,0,0,0l0,0c0,0,0,0,0,0l0,0c0,0,0,0,0,0c0,0,0,0,0,0c0,0,0,0,0,0c0,0,0,0,0,0c0,0,0,0,0,0
		c0.1-0.1,0.2-0.2,0.3-0.3L82.1,86L82.1,86z M84.2,84c-0.3,0.3-0.7,0.7-1,1l1.2,1.3c0.3-0.3,0.6-0.6,0.9-0.8l0,0c0,0,0,0,0,0l0,0
		c0,0,0,0,0,0c0,0,0,0,0,0c0,0,0,0,0,0c0,0,0,0,0,0c0,0,0,0,0,0c0,0,0,0,0,0c0,0,0,0,0,0c0,0,0,0,0,0c0,0,0,0,0,0c0,0,0,0,0,0
		c0,0,0,0,0,0c0,0,0.1-0.1,0.1-0.1L84.2,84L84.2,84z M86.1,81.9c-0.3,0.4-0.6,0.7-1,1.1l1.3,1.2c0,0,0,0,0,0c0,0,0,0,0,0
		c0,0,0,0,0,0c0,0,0,0,0,0c0,0,0,0,0,0c0,0,0,0,0,0l0,0c0.2-0.2,0.4-0.4,0.5-0.6l0,0c0,0,0,0,0,0c0,0,0,0,0,0c0,0,0,0,0,0l0,0
		c0,0,0,0,0,0c0,0,0,0,0,0c0,0,0,0,0,0c0,0,0,0,0,0c0,0,0,0,0,0c0,0,0,0,0,0c0,0,0,0,0,0c0,0,0,0,0,0c0,0,0,0,0,0c0,0,0,0,0,0
		c0,0,0,0,0,0c0,0,0,0,0,0c0,0,0,0,0,0c0,0,0,0,0,0c0,0,0,0,0,0c0,0,0,0,0,0c0,0,0,0,0,0c0,0,0,0,0,0c0,0,0,0,0,0c0,0,0,0,0,0
		c0,0,0,0,0,0c0,0,0,0,0,0c0,0,0,0,0,0c0,0,0,0,0,0c0,0,0,0,0,0c0,0,0,0,0,0c0,0,0,0,0,0c0,0,0,0,0,0c0,0,0,0,0,0c0,0,0,0,0,0
		c0,0,0,0,0,0c0,0,0,0,0,0c0,0,0,0,0,0c0,0,0,0,0,0c0,0,0,0,0,0c0,0,0,0,0,0c0,0,0,0,0,0l0,0c0,0,0,0,0.1-0.1L86.1,81.9L86.1,81.9z
		 M88,79.7c-0.3,0.4-0.6,0.8-0.9,1.1l1.4,1.2c0,0,0,0,0,0c0,0,0,0,0,0c0,0,0,0,0,0c0,0,0,0,0,0c0,0,0,0,0,0c0,0,0,0,0,0l0,0
		c0,0,0,0,0,0c0,0,0,0,0,0c0,0,0,0,0,0c0,0,0,0,0,0c0,0,0,0,0,0l0,0c0,0,0,0,0,0c0,0,0,0,0,0c0,0,0,0,0,0c0,0,0,0,0,0c0,0,0,0,0,0
		l0,0c0,0,0,0,0,0c0,0,0,0,0,0c0,0,0,0,0,0c0,0,0,0,0,0c0,0,0,0,0,0l0,0c0,0,0,0,0,0c0,0,0,0,0,0c0,0,0,0,0,0l0,0c0,0,0,0,0-0.1l0,0
		c0,0,0,0,0,0l0,0c0.2-0.2,0.4-0.5,0.6-0.8L88,79.7L88,79.7z M89.7,77.3c-0.3,0.4-0.6,0.8-0.8,1.2l1.5,1.1l0,0
		c0.3-0.4,0.5-0.7,0.8-1.1c0,0,0,0,0,0c0,0,0,0,0,0c0,0,0,0,0,0c0,0,0,0,0,0c0,0,0,0,0,0c0,0,0,0,0,0c0,0,0,0,0-0.1L89.7,77.3
		L89.7,77.3z M91.3,74.9c-0.2,0.4-0.5,0.8-0.8,1.2l1.5,1c0.3-0.4,0.5-0.8,0.8-1.3L91.3,74.9L91.3,74.9z M92.7,72.4
		c-0.2,0.4-0.5,0.8-0.7,1.3l1.6,0.9c0.1-0.1,0.1-0.2,0.2-0.3v0c0,0,0,0,0,0c0,0,0,0,0,0c0,0,0,0,0,0c0,0,0,0,0,0c0,0,0,0,0,0
		c0,0,0,0,0,0c0,0,0,0,0,0c0,0,0,0,0,0c0,0,0,0,0,0c0,0,0,0,0,0c0,0,0,0,0,0s0,0,0,0s0,0,0,0c0,0,0,0,0,0c0,0,0,0,0,0c0,0,0,0,0,0
		c0,0,0,0,0,0c0,0,0,0,0,0c0,0,0,0,0,0c0,0,0,0,0,0c0,0,0,0,0,0c0,0,0,0,0,0c0,0,0,0,0,0c0,0,0,0,0,0c0,0,0,0,0,0c0,0,0,0,0,0
		c0,0,0,0,0,0c0,0,0,0,0,0c0,0,0,0,0,0c0,0,0,0,0,0c0,0,0,0,0,0c0,0,0,0,0,0c0,0,0,0,0,0c0,0,0,0,0,0c0,0,0,0,0,0c0,0,0,0,0,0
		c0,0,0,0,0,0c0,0,0,0,0,0c0,0,0,0,0,0c0,0,0,0,0,0c0,0,0,0,0,0c0,0,0,0,0,0c0,0,0,0,0,0c0,0,0,0,0,0c0,0,0,0,0,0c0,0,0,0,0,0
		c0,0,0,0,0,0c0,0,0,0,0,0c0,0,0,0,0,0c0,0,0,0,0,0c0,0,0,0,0,0c0,0,0,0,0,0c0,0,0,0,0,0c0,0,0,0,0,0c0,0,0,0,0,0c0,0,0,0,0,0
		c0,0,0,0,0,0c0,0,0,0,0,0c0,0,0,0,0,0c0,0,0,0,0,0c0,0,0,0,0,0c0,0,0,0,0,0c0-0.1,0.1-0.2,0.1-0.3L92.7,72.4L92.7,72.4z M94,69.8
		c-0.2,0.4-0.4,0.9-0.6,1.3l1.6,0.8c0,0,0-0.1,0.1-0.1v0c0,0,0,0,0,0c0,0,0,0,0,0c0,0,0,0,0,0c0,0,0,0,0,0c0,0,0,0,0,0c0,0,0,0,0,0
		c0,0,0,0,0,0c0,0,0,0,0,0l0,0c0.1-0.3,0.3-0.6,0.4-0.9l0,0c0,0,0,0,0,0c0,0,0,0,0,0c0,0,0,0,0,0c0,0,0,0,0,0c0,0,0,0,0,0
		c0,0,0,0,0,0c0,0,0,0,0,0c0,0,0,0,0,0c0,0,0,0,0,0c0,0,0-0.1,0.1-0.1L94,69.8L94,69.8z M95.1,67.1c-0.2,0.5-0.3,0.9-0.5,1.3
		l1.7,0.7c0.1-0.1,0.1-0.3,0.2-0.4v0c0,0,0,0,0,0l0,0c0,0,0,0,0,0c0,0,0,0,0,0c0,0,0,0,0,0c0,0,0,0,0,0s0,0,0,0c0,0,0,0,0,0
		c0,0,0,0,0,0c0,0,0,0,0,0c0,0,0,0,0,0c0,0,0,0,0,0c0,0,0,0,0,0c0,0,0,0,0,0c0,0,0,0,0,0c0,0,0,0,0,0l0,0c0,0,0,0,0,0l0,0
		c0,0,0,0,0,0l0,0c0,0,0,0,0,0v0c0-0.1,0-0.1,0.1-0.2v0c0,0,0-0.1,0-0.1l0,0c0,0,0,0,0,0v0c0,0,0,0,0-0.1c0,0,0,0,0,0c0,0,0,0,0,0
		c0,0,0,0,0,0c0,0,0,0,0,0c0,0,0,0,0,0c0,0,0,0,0,0c0,0,0,0,0,0c0,0,0,0,0,0c0,0,0,0,0,0c0,0,0,0,0,0c0,0,0,0,0,0c0,0,0,0,0,0
		c0,0,0,0,0,0c0,0,0,0,0,0c0,0,0,0,0,0c0,0,0,0,0,0c0,0,0,0,0,0c0,0,0,0,0,0c0,0,0,0,0,0c0,0,0,0,0,0c0,0,0,0,0,0c0,0,0,0,0,0
		c0,0,0,0,0-0.1l0,0c0,0,0,0,0,0L95.1,67.1L95.1,67.1z M96,64.4c-0.1,0.5-0.3,0.9-0.5,1.4l1.7,0.6c0-0.1,0.1-0.2,0.1-0.3v0
		c0,0,0,0,0,0c0,0,0,0,0,0c0,0,0,0,0,0c0,0,0,0,0,0c0,0,0,0,0,0c0,0,0,0,0,0c0,0,0,0,0,0c0,0,0,0,0,0c0,0,0,0,0,0s0,0,0,0
		c0,0,0,0,0,0c0,0,0,0,0,0c0,0,0,0,0,0c0,0,0,0,0,0c0,0,0,0,0,0c0,0,0,0,0,0c0,0,0,0,0,0c0,0,0,0,0,0c0,0,0,0,0,0c0,0,0,0,0,0
		c0,0,0,0,0,0c0,0,0,0,0,0c0,0,0,0,0,0c0,0,0,0,0,0c0,0,0,0,0,0c0,0,0,0,0,0c0,0,0,0,0,0c0,0,0,0,0,0c0,0,0,0,0,0c0,0,0,0,0,0
		c0,0,0,0,0,0c0,0,0,0,0,0c0,0,0,0,0,0c0,0,0,0,0,0c0,0,0,0,0,0c0,0,0,0,0,0l0,0c0,0,0,0,0,0c0,0,0,0,0,0c0,0,0,0,0,0c0,0,0,0,0,0
		c0,0,0,0,0,0c0,0,0,0,0,0c0,0,0,0,0,0c0,0,0,0,0,0c0,0,0,0,0,0c0,0,0,0,0,0c0,0,0,0,0,0c0,0,0,0,0,0c0,0,0,0,0,0c0,0,0,0,0,0
		s0,0,0,0c0,0,0,0,0,0c0,0,0,0,0,0c0,0,0,0,0,0c0,0,0,0,0,0c0,0,0,0,0,0c0,0,0,0,0,0c0,0,0,0,0,0c0,0,0,0,0,0c0-0.1,0.1-0.2,0.1-0.4
		L96,64.4L96,64.4z M96.8,61.6c-0.1,0.5-0.2,0.9-0.4,1.4l1.7,0.5c0.1-0.2,0.1-0.4,0.2-0.6l0,0c0,0,0,0,0,0l0,0c0,0,0,0,0,0
		c0,0,0,0,0,0c0,0,0,0,0,0c0,0,0,0,0,0c0,0,0,0,0,0c0,0,0,0,0,0c0,0,0,0,0,0s0,0,0,0c0,0,0,0,0,0c0,0,0,0,0,0c0,0,0,0,0,0
		c0,0,0,0,0,0c0,0,0,0,0,0c0,0,0,0,0,0c0,0,0,0,0,0c0,0,0,0,0-0.1l0,0c0,0,0,0,0,0c0,0,0,0,0,0c0,0,0,0,0,0c0,0,0,0,0,0
		c0,0,0-0.1,0-0.1c0,0,0,0,0,0c0,0,0-0.1,0-0.1l0,0c0,0,0-0.1,0-0.1c0,0,0,0,0,0c0,0,0,0,0,0c0,0,0,0,0,0c0,0,0,0,0,0c0,0,0,0,0,0
		c0,0,0,0,0,0c0,0,0,0,0,0s0,0,0,0c0,0,0,0,0,0c0,0,0,0,0,0c0,0,0,0,0,0c0,0,0,0,0,0c0,0,0,0,0-0.1l0,0c0,0,0,0,0,0L96.8,61.6
		L96.8,61.6z M97.4,58.8c-0.1,0.5-0.2,0.9-0.3,1.4l1.8,0.4c0-0.1,0.1-0.2,0.1-0.4c0,0,0,0,0,0c0,0,0,0,0,0c0,0,0,0,0,0c0,0,0,0,0,0
		c0,0,0,0,0,0c0,0,0,0,0,0c0,0,0,0,0,0l0,0c0,0,0,0,0,0l0,0c0,0,0,0,0,0c0,0,0,0,0,0c0,0,0,0,0,0c0,0,0,0,0,0c0-0.2,0.1-0.4,0.1-0.5
		l0,0c0,0,0,0,0,0c0,0,0,0,0,0c0,0,0,0,0,0c0,0,0,0,0,0c0,0,0,0,0,0c0,0,0,0,0,0c0,0,0,0,0,0c0,0,0,0,0,0s0,0,0,0s0,0,0,0
		c0,0,0,0,0,0c0,0,0,0,0,0v0c0-0.1,0-0.2,0.1-0.3L97.4,58.8L97.4,58.8z M97.8,55.9c-0.1,0.5-0.1,1-0.2,1.4l1.8,0.3
		c0-0.2,0-0.3,0.1-0.5v0c0,0,0,0,0-0.1c0,0,0,0,0,0c0,0,0,0,0,0c0,0,0,0,0,0s0,0,0,0c0,0,0,0,0,0c0,0,0,0,0,0c0,0,0,0,0,0
		c0,0,0,0,0,0c0-0.3,0.1-0.6,0.1-0.9L97.8,55.9L97.8,55.9z M98.1,53c0,0.5-0.1,1-0.1,1.4l1.8,0.2c0-0.1,0-0.1,0-0.2v0c0,0,0,0,0,0
		c0,0,0,0,0,0c0,0,0,0,0,0c0,0,0,0,0,0c0,0,0,0,0,0c0,0,0,0,0,0c0,0,0,0,0,0c0,0,0,0,0,0c0,0,0,0,0,0c0-0.4,0.1-0.8,0.1-1.2L98.1,53
		L98.1,53z M98.2,50.1c0,0.5,0,1,0,1.4l1.8,0.1c0-0.5,0-1,0-1.5L98.2,50.1L98.2,50.1z M99.9,47.1l-1.8,0.1c0,0.5,0,1,0.1,1.4l1.8,0
		c0-0.2,0-0.4,0-0.6c0,0,0,0,0,0s0,0,0,0c0,0,0,0,0,0s0,0,0,0s0,0,0,0c0,0,0,0,0,0c0,0,0,0,0,0c0,0,0,0,0,0c0,0,0,0,0,0v0
		c0,0,0,0,0,0c0,0,0,0,0,0c0,0,0,0,0,0l0,0C99.9,47.6,99.9,47.4,99.9,47.1L99.9,47.1z M99.7,44.2l-1.8,0.2c0.1,0.5,0.1,1,0.1,1.4
		l1.8-0.2C99.8,45.2,99.7,44.7,99.7,44.2L99.7,44.2z M99.2,41.2l-1.8,0.3c0.1,0.5,0.2,0.9,0.2,1.4l1.8-0.3c0-0.1,0-0.2-0.1-0.4
		c0,0,0,0,0,0c0,0,0,0,0,0c0,0,0,0,0,0c0,0,0,0,0,0c0,0,0,0,0,0c0,0,0,0,0,0c0,0,0,0,0,0c0,0,0,0,0,0c0,0,0,0,0,0c0,0,0,0,0,0
		c0,0,0,0,0,0c0,0,0,0,0,0c0,0,0,0,0,0c0,0,0,0,0,0c0,0,0,0,0,0c0,0,0,0,0,0c0,0,0,0,0,0c0,0,0,0,0,0c0,0,0,0,0,0c0,0,0,0,0,0
		c0,0,0,0,0,0c0,0,0,0,0,0c0,0,0,0,0,0c0,0,0,0,0,0c0,0,0,0,0,0c0,0,0,0,0,0c0,0,0,0,0,0c0,0,0,0,0,0c0,0,0,0,0,0c0,0,0,0,0,0
		s0,0,0,0c0,0,0,0,0,0c0,0,0,0,0,0c0,0,0,0,0,0s0,0,0,0c0,0,0,0,0,0c0,0,0,0,0,0c0,0,0,0,0,0c0,0,0,0,0,0c0,0,0,0,0,0c0,0,0,0,0,0
		c0,0,0,0,0,0c0,0,0,0,0,0c0,0,0,0,0,0c0,0,0,0,0-0.1l0,0c0,0,0,0,0,0c0,0,0,0,0,0c0,0,0,0,0,0c0,0,0,0,0,0
		C99.3,41.5,99.3,41.4,99.2,41.2L99.2,41.2z M98.6,38.3l-1.8,0.4c0.1,0.5,0.2,0.9,0.3,1.4l1.8-0.4c0-0.1,0-0.2,0-0.2v0c0,0,0,0,0,0
		c0,0,0,0,0,0c0,0,0,0,0,0s0,0,0,0c0,0,0,0,0,0c0,0,0,0,0,0c0,0,0,0,0,0c-0.1-0.3-0.1-0.6-0.2-0.8c0,0,0,0,0,0c0,0,0,0,0,0
		c0,0,0,0,0,0c0,0,0,0,0,0s0,0,0,0c0,0,0,0,0,0c0,0,0,0,0,0c0,0,0,0,0,0c0,0,0,0,0,0c0,0,0,0,0,0c0,0,0,0,0,0l0,0
		C98.6,38.4,98.6,38.3,98.6,38.3L98.6,38.3z M97.8,35.4l-1.7,0.5c0.1,0.5,0.3,0.9,0.4,1.4l1.7-0.5c0,0,0,0,0-0.1c0,0,0,0,0,0
		c0,0,0,0,0,0s0,0,0,0c0,0,0,0,0,0c0,0,0,0,0,0c0,0,0,0,0,0c-0.1-0.3-0.2-0.6-0.3-0.9c0,0,0,0,0,0c0,0,0,0,0,0c0,0,0,0,0,0
		c0,0,0,0,0,0c0,0,0,0,0,0c0,0,0,0,0,0c0,0,0,0,0,0c0,0,0,0,0,0c0,0,0,0,0,0l0,0c0,0,0,0,0,0c0,0,0,0,0,0c0,0,0,0,0,0c0,0,0,0,0,0
		C97.9,35.6,97.9,35.5,97.8,35.4L97.8,35.4z M96.9,32.5l-1.7,0.6c0.2,0.5,0.3,0.9,0.5,1.4l1.7-0.6c-0.1-0.3-0.2-0.6-0.3-0.9l0,0
		c0,0,0,0,0,0c0,0,0,0,0,0c0,0,0,0,0,0c0,0,0,0,0,0c0,0,0,0,0-0.1c0,0,0,0,0,0c0,0,0,0,0,0c0,0,0,0,0,0c0,0,0,0,0,0c0,0,0,0,0,0
		c0,0,0,0,0,0c0,0,0,0,0,0c0,0,0,0,0,0c0,0,0,0,0,0c0,0,0,0,0,0s0,0,0,0s0,0,0,0c0,0,0,0,0,0c0,0,0,0,0,0c0,0,0,0,0,0c0,0,0,0,0,0
		c0,0,0,0,0,0c0,0,0,0,0,0c0,0,0,0,0,0l0,0C96.9,32.7,96.9,32.6,96.9,32.5L96.9,32.5z M95.7,29.7l-1.6,0.7c0.2,0.4,0.4,0.9,0.6,1.3
		l1.7-0.7l0,0c0,0,0,0,0,0c0,0,0,0,0,0c0,0,0,0,0,0c0,0,0,0,0,0c0,0,0,0,0,0c0,0,0,0,0,0c0,0,0,0,0,0c0,0,0,0,0,0
		C96.1,30.6,95.9,30.2,95.7,29.7L95.7,29.7z M94.4,27l-1.6,0.8c0.2,0.4,0.4,0.9,0.6,1.3l1.6-0.8C94.9,27.9,94.7,27.5,94.4,27
		L94.4,27C94.4,27.1,94.4,27.1,94.4,27C94.4,27.1,94.4,27.1,94.4,27C94.4,27,94.4,27,94.4,27L94.4,27z M93,24.4l-1.5,0.9
		c0.2,0.4,0.5,0.8,0.7,1.3l1.6-0.9c-0.2-0.4-0.4-0.7-0.6-1.1c0,0,0,0,0,0c0,0,0,0,0,0c0,0,0,0,0,0c0,0,0,0,0,0c0,0,0,0,0,0
		c0,0,0,0,0,0c0,0,0,0,0,0c0,0,0,0,0,0C93,24.5,93,24.5,93,24.4C93,24.5,93,24.5,93,24.4C93,24.5,93,24.5,93,24.4
		C93,24.5,93,24.5,93,24.4C93,24.5,93,24.4,93,24.4L93,24.4z M91.4,21.9l-1.5,1c0.3,0.4,0.5,0.8,0.8,1.2l1.5-1c0,0,0-0.1-0.1-0.1
		c0,0,0,0,0,0c0,0,0,0,0,0c0,0,0,0,0,0c0,0,0,0,0,0c0,0,0,0,0,0c0,0,0,0,0,0c0,0,0,0,0,0c0,0,0,0,0,0c0,0,0,0,0,0c0,0,0,0,0,0
		c0,0,0,0,0,0c0,0,0,0,0,0c0,0,0,0,0,0c0,0,0,0,0,0c0,0,0,0,0,0c0,0,0,0,0,0c0,0,0,0,0,0c0,0,0,0,0,0c0,0,0,0,0,0c0,0,0,0,0,0
		c0,0,0,0,0,0c0,0,0,0,0,0c0,0,0,0,0,0c0,0,0,0,0,0c0,0,0,0,0,0c0,0,0,0,0,0c0,0,0,0,0,0c0,0,0,0,0,0c0,0,0,0,0,0c0,0,0,0,0-0.1
		c0,0,0,0,0,0c-0.1-0.1-0.1-0.2-0.2-0.3l0,0c0,0,0,0,0-0.1c0,0,0,0,0,0c0,0,0,0,0,0c0,0,0,0,0,0c0,0,0,0,0,0c0,0,0,0,0,0
		c0,0,0,0,0,0c0,0,0,0,0,0c0,0,0,0,0,0c0,0,0,0,0,0c0,0,0,0,0,0C91.5,22.1,91.4,22,91.4,21.9L91.4,21.9z M89.6,19.5l-1.4,1.1
		c0.3,0.4,0.6,0.8,0.9,1.2l1.5-1.1c-0.1-0.2-0.3-0.4-0.4-0.6v0c0,0,0,0,0,0c0,0,0,0,0,0c0,0,0,0,0-0.1c0,0,0,0,0,0c0,0,0,0,0,0
		c0,0,0,0,0,0c0,0,0,0,0,0c0,0,0,0,0,0c0,0,0,0,0,0c0,0,0,0,0,0c0,0,0,0,0,0c0,0,0,0,0,0c0,0,0,0,0,0c0,0,0,0,0,0c0,0,0,0,0,0
		c0,0,0,0,0,0c0,0,0,0,0,0c0,0,0,0,0,0c0,0,0,0,0,0c0,0,0,0,0,0c0,0,0,0,0,0c0,0,0,0,0,0c0,0,0,0,0,0c0,0,0,0,0,0c0,0,0,0,0,0
		c0,0,0,0,0,0c0,0,0,0,0,0c0,0,0,0,0,0c0,0,0,0,0,0c0,0,0,0,0,0c0,0,0,0,0,0c0,0,0,0,0,0c0,0,0,0,0,0c0,0,0,0,0,0l0,0c0,0,0,0,0-0.1
		l0,0C89.7,19.6,89.6,19.5,89.6,19.5L89.6,19.5z M87.7,17.1l-1.4,1.2c0.3,0.4,0.6,0.7,0.9,1.1l1.4-1.1c0,0,0,0-0.1-0.1c0,0,0,0,0,0
		c0,0,0,0,0,0c0,0,0,0,0,0c0,0,0,0,0,0c0,0,0,0,0,0l0,0c0,0,0,0,0,0l0,0c-0.1-0.1-0.2-0.2-0.2-0.3l0,0c0,0,0,0,0,0l0,0c0,0,0,0,0,0
		c0,0,0,0,0,0c0,0,0,0,0,0c0,0,0,0,0,0c0,0,0,0,0,0c0,0,0,0,0,0c0,0,0,0,0,0c0,0,0,0,0,0c0,0,0,0,0,0c0,0,0,0,0,0c0,0,0,0,0,0
		c0,0,0,0,0,0c0,0,0,0,0,0C88,17.5,87.9,17.4,87.7,17.1L87.7,17.1C87.8,17.2,87.7,17.2,87.7,17.1C87.7,17.2,87.7,17.2,87.7,17.1
		C87.7,17.2,87.7,17.2,87.7,17.1C87.7,17.2,87.7,17.2,87.7,17.1C87.7,17.2,87.7,17.2,87.7,17.1C87.7,17.2,87.7,17.2,87.7,17.1
		C87.7,17.2,87.7,17.2,87.7,17.1C87.7,17.2,87.7,17.1,87.7,17.1C87.7,17.1,87.7,17.1,87.7,17.1L87.7,17.1z M85.7,14.9l-1.3,1.3
		c0.3,0.3,0.7,0.7,1,1l1.3-1.2c0,0-0.1-0.1-0.1-0.1c0,0,0,0,0,0c0,0,0,0,0,0l0,0c0,0,0,0,0,0c0,0,0,0,0,0c0,0,0,0,0,0c0,0,0,0,0,0
		c0,0,0,0,0,0c0,0,0,0,0,0c0,0,0,0,0,0c0,0,0,0,0,0c0,0,0,0,0,0c0,0,0,0,0,0c0,0,0,0,0,0c0,0,0,0,0,0l0,0c0,0,0,0,0,0l0,0
		c0,0,0,0,0,0l0,0c0,0,0,0,0,0l0,0c0,0,0,0,0,0c0,0,0,0,0,0c0,0,0,0,0,0c0,0,0,0,0,0c0,0,0,0,0,0c0,0,0,0,0,0c0,0,0,0,0,0
		c0,0,0,0,0,0c0,0,0,0,0,0c0,0,0,0,0,0c0,0,0,0,0,0c0,0,0,0,0,0c0,0,0,0,0,0s0,0,0,0c0,0,0,0,0,0c0,0,0,0,0,0c0,0,0,0,0,0
		c0,0,0,0,0,0c0,0,0,0,0,0c0,0,0,0,0-0.1l0,0C86,15.3,85.8,15.1,85.7,14.9L85.7,14.9z M83.5,12.9l-1.2,1.3c0.4,0.3,0.7,0.7,1.1,1
		l1.2-1.3C84.2,13.5,83.9,13.2,83.5,12.9L83.5,12.9z M81.2,10.9l-1.1,1.4c0.4,0.3,0.7,0.6,1.1,0.9l1.2-1.4c0,0,0,0,0,0c0,0,0,0,0,0
		c0,0,0,0,0,0c0,0,0,0,0,0c0,0,0,0,0,0c0,0,0,0,0,0c0,0,0,0,0,0c0,0,0,0,0,0c0,0,0,0,0,0c0,0,0,0,0,0l0,0c0,0,0,0,0,0l0,0
		c0,0,0,0,0,0l0,0c-0.3-0.2-0.6-0.5-0.9-0.7l0,0c0,0,0,0,0,0c0,0,0,0,0,0c0,0,0,0,0,0l0,0C81.3,11,81.3,11,81.2,10.9
		C81.3,11,81.3,11,81.2,10.9C81.3,11,81.3,11,81.2,10.9C81.3,11,81.3,11,81.2,10.9C81.3,11,81.3,11,81.2,10.9
		C81.3,11,81.3,11,81.2,10.9C81.3,11,81.2,11,81.2,10.9C81.2,11,81.2,10.9,81.2,10.9L81.2,10.9z M78.8,9.1l-1,1.5
		c0.4,0.3,0.8,0.6,1.2,0.9L80,10C79.6,9.7,79.2,9.4,78.8,9.1L78.8,9.1z M76.3,7.5L75.4,9c0.4,0.3,0.8,0.5,1.2,0.8l1-1.5
		c-0.2-0.1-0.3-0.2-0.5-0.3l0,0c0,0,0,0,0,0c0,0,0,0,0,0c0,0,0,0,0,0c0,0,0,0,0,0c0,0,0,0,0,0c0,0,0,0,0,0c0,0,0,0,0,0c0,0,0,0,0,0
		c0,0,0,0,0,0c0,0,0,0,0,0s0,0,0,0c0,0,0,0,0,0c0,0,0,0,0,0c0,0,0,0,0,0c0,0,0,0,0,0c0,0,0,0,0,0c0,0,0,0,0,0c0,0,0,0,0,0
		c0,0,0,0,0,0c0,0,0,0,0,0c0,0,0,0,0,0c0,0,0,0,0,0c0,0,0,0,0,0c0,0,0,0,0,0l0,0c0,0,0,0,0,0l0,0C76.6,7.6,76.4,7.6,76.3,7.5
		L76.3,7.5z M73.7,6l-0.9,1.6c0.4,0.2,0.8,0.5,1.3,0.7L75,6.7c-0.3-0.2-0.6-0.4-0.9-0.5c0,0,0,0,0,0c0,0,0,0,0,0c0,0,0,0,0,0
		c0,0,0,0,0,0c0,0,0,0,0,0c0,0,0,0,0,0c0,0,0,0,0,0c0,0,0,0,0,0c0,0,0,0,0,0c0,0,0,0,0,0c0,0,0,0,0,0c0,0,0,0,0,0c0,0,0,0,0,0
		c0,0,0,0,0,0c0,0,0,0,0,0l0,0C73.8,6,73.8,6,73.7,6L73.7,6z M71,4.6l-0.8,1.6c0.4,0.2,0.9,0.4,1.3,0.6l0.8-1.6c0,0,0,0,0,0
		c0,0,0,0,0,0s0,0,0,0c0,0,0,0,0,0c0,0,0,0,0,0s0,0,0,0c0,0,0,0,0,0c0,0,0,0,0,0c0,0,0,0,0,0c0,0,0,0,0,0c0,0,0,0,0,0c0,0,0,0,0,0
		c0,0,0,0,0,0c0,0,0,0,0,0c0,0,0,0-0.1,0c0,0,0,0,0,0c-0.3-0.2-0.7-0.3-1-0.5h0C71.1,4.7,71.1,4.7,71,4.6C71.1,4.7,71.1,4.7,71,4.6
		C71.1,4.7,71.1,4.7,71,4.6C71.1,4.7,71.1,4.7,71,4.6C71.1,4.7,71.1,4.7,71,4.6C71.1,4.6,71.1,4.6,71,4.6C71.1,4.6,71.1,4.6,71,4.6
		C71.1,4.6,71,4.6,71,4.6L71,4.6z M68.3,3.4l-0.7,1.7c0.4,0.2,0.9,0.4,1.3,0.5L69.7,4C69.2,3.8,68.7,3.6,68.3,3.4L68.3,3.4z
		 M65.4,2.4l-0.6,1.7c0.5,0.1,0.9,0.3,1.4,0.5l0.6-1.7C66.4,2.7,65.9,2.6,65.4,2.4L65.4,2.4z M62.6,1.6l-0.5,1.7
		c0.5,0.1,0.9,0.2,1.4,0.4L64,2c0,0,0,0,0,0c0,0,0,0,0,0s0,0,0,0c0,0,0,0,0,0c0,0,0,0,0,0c0,0,0,0,0,0c0,0,0,0,0,0c0,0,0,0,0,0l0,0
		c-0.2-0.1-0.5-0.1-0.7-0.2c0,0,0,0,0,0c0,0,0,0,0,0c0,0,0,0,0,0c0,0,0,0,0,0h0c0,0,0,0,0,0c0,0,0,0,0,0c0,0,0,0,0,0c0,0,0,0,0,0
		c0,0,0,0,0,0c0,0,0,0,0,0c0,0,0,0,0,0s0,0,0,0s0,0,0,0c0,0,0,0,0,0c0,0,0,0,0,0c0,0,0,0,0,0c0,0,0,0,0,0c0,0,0,0,0,0c0,0,0,0,0,0
		c0,0,0,0-0.1,0l0,0c0,0,0,0,0,0c0,0,0,0,0,0C62.8,1.6,62.7,1.6,62.6,1.6L62.6,1.6z M59.6,0.9l-0.3,1.8c0.5,0.1,0.9,0.2,1.4,0.3
		l0.4-1.8c-0.1,0-0.2,0-0.3-0.1c0,0,0,0,0,0c0,0,0,0,0,0c0,0,0,0,0,0c0,0,0,0,0,0c0,0,0,0,0,0c0,0,0,0,0,0c0,0,0,0,0,0c0,0,0,0,0,0
		c0,0,0,0,0,0c0,0,0,0,0,0c0,0,0,0,0,0c0,0,0,0,0,0c0,0,0,0,0,0c0,0,0,0,0,0C60.3,1.1,60,1,59.6,0.9L59.6,0.9z M56.7,0.4l-0.2,1.8
		c0.5,0.1,1,0.1,1.4,0.2l0.3-1.8c-0.1,0-0.1,0-0.2,0c0,0,0,0,0,0c0,0,0,0,0,0c0,0,0,0,0,0c0,0,0,0,0,0c0,0,0,0,0,0c0,0,0,0,0,0
		c0,0,0,0,0,0c0,0,0,0,0,0c0,0,0,0,0,0c0,0,0,0,0,0c0,0,0,0,0,0c0,0,0,0,0,0c0,0,0,0,0,0c0,0,0,0,0,0c0,0,0,0,0,0c0,0,0,0,0,0
		c0,0,0,0-0.1,0c0,0,0,0,0,0c0,0,0,0,0,0c0,0,0,0,0,0c0,0,0,0,0,0l0,0c0,0-0.1,0-0.1,0l0,0C57.3,0.5,57,0.5,56.7,0.4L56.7,0.4z
		 M53.7,0.1l-0.1,1.8C54,2,54.5,2,55,2.1l0.2-1.8c0,0,0,0,0,0c0,0,0,0,0,0c0,0,0,0,0,0c0,0,0,0,0,0c0,0,0,0,0,0c0,0,0,0,0,0
		c0,0,0,0,0,0l0,0c0,0-0.1,0-0.1,0h0c0,0,0,0,0,0h0C54.6,0.2,54.1,0.2,53.7,0.1L53.7,0.1z M50.7,0l0,1.8c0.5,0,1,0,1.4,0L52.2,0
		C51.7,0,51.2,0,50.7,0L50.7,0z"/>
</g>
</svg>
