<?xml version="1.0" encoding="utf-8"?>
<!-- Generator: Adobe Illustrator 21.0.0, SVG Export Plug-In . SVG Version: 6.00 Build 0)  -->
<svg version="1.1" id="Layer_1" xmlns="http://www.w3.org/2000/svg" xmlns:xlink="http://www.w3.org/1999/xlink" x="0px" y="0px"
	 viewBox="0 0 100 100" style="enable-background:new 0 0 100 100;" xml:space="preserve">
<g>
	<path d="M85.2121124,43.565834l-1.4967194,0.262146c0.3412857,1.9483109,0.5144043,3.9485512,0.5144043,5.9453316
		c0,1.9972763-0.1731186,3.9975204-0.5144043,5.9458275l1.4967194,0.262146
		c0.3566208-2.0343704,0.5371552-4.1231499,0.5371552-6.2079735C85.7492676,47.6889839,85.5687332,45.6002045,85.2121124,43.565834z
		"/>
	<path d="M84.2945938,40.5847588c-0.800293-2.9946747-1.9948044-5.8750954-3.5503845-8.5621185l-0.8764648,0.5074806
		c1.5105667,2.6098633,2.6709518,5.4076805,3.448494,8.3157959L84.2945938,40.5847588z"/>
	<path d="M15.7699537,49.7733116c0-1.9962845,0.1731176-3.9965286,0.5146532-5.9458237l-1.4967203-0.2621498
		c-0.3566208,2.0353622-0.537405,4.1241417-0.537405,6.2079735c0,2.0838356,0.1807842,4.1726151,0.537405,6.2079735
		l1.4967203-0.262146C15.9430714,53.7698402,15.7699537,51.7695999,15.7699537,49.7733116z"/>
	<path d="M82.8270569,58.5711174c-0.9473495,3.5403328-2.4549866,6.8730202-4.4792786,9.928257l-2.304184-1.9071274
		l-1.3490448,7.9673309l7.5748215-2.8143539l-2.354454-1.9487686c2.2058563-3.2868729,3.8464737-6.8793297,4.8688583-10.7020302
		L82.8270569,58.5711174z"/>
	<path d="M78.8705902,29.557703c-1.1865921-1.6918468-2.5314636-3.2897167-3.9975128-4.749588l-0.3571167,0.3586006
		c1.4447861,1.4390965,2.7703629,3.0144596,3.9401398,4.6818237L78.8705902,29.557703z"/>
	<path d="M66.5194397,9.9776802l-0.6395416-0.2658587l-5.7202835,10.8309393
		c-3.2644882-1.1351528-6.6788521-1.7103958-10.1594925-1.7103958s-6.8954926,0.575243-10.1599846,1.7103958L34.1203537,9.7118216
		l-0.6395454,0.2658587C17.3438339,16.6834888,6.9169998,32.3043289,6.9169998,49.7733116
		c0,23.7560997,19.3270245,43.0828743,43.0831223,43.0828743s43.0828781-19.3267746,43.0828781-43.0828743
		C93.0830002,32.3043289,82.6564102,16.6837368,66.5194397,9.9776802z M50.0001221,91.3367157
		c-22.918211,0-41.563652-18.6451874-41.563652-41.5634041c0-16.6217003,9.7860546-31.509264,24.9899273-38.1215897
		l5.6901093,10.7740583l0.6251984-0.2327194c3.283287-1.2217102,6.734745-1.8412228,10.2584152-1.8412228
		c3.5231781,0,6.9746361,0.6195126,10.2579231,1.8412228l0.6251984,0.2327194l5.6906013-10.7740583
		C81.7774734,18.2640476,91.56353,33.1518593,91.56353,49.7733116C91.56353,72.6915283,72.918335,91.3367157,50.0001221,91.3367157z
		"/>
	<path d="M23.956377,32.9547234l1.3490143-7.9673386l-7.5748253,2.8143253l2.3544521,1.94874
		c-2.2063141,3.2877998-3.8470612,6.8805046-4.8687906,10.7022438l1.9572096,0.5233078
		c0.94627-3.5395279,2.4538403-6.8722458,4.4785366-9.9285965L23.956377,32.9547234z"/>
	<path d="M15.7051592,58.9623604c0.8000479,2.9929466,1.9945536,5.8736153,3.5501337,8.5618706l0.8769608-0.5074768
		c-1.5110626-2.6110992-2.671442-5.4086723-3.4484901-8.3155518L15.7051592,58.9623604z"/>
	<path d="M21.1296558,69.989418c1.1856041,1.6901169,2.5304756,3.2882309,3.9970226,4.7498322l0.3571148-0.3590927
		c-1.4452782-1.4403305-2.7708607-3.0152054-3.9396458-4.6815796L21.1296558,69.989418z"/>
</g>
</svg>
