<?xml version="1.0" encoding="utf-8"?>
<!-- Generator: Adobe Illustrator 21.0.0, SVG Export Plug-In . SVG Version: 6.00 Build 0)  -->
<svg version="1.1" id="Layer_1" xmlns="http://www.w3.org/2000/svg" xmlns:xlink="http://www.w3.org/1999/xlink" x="0px" y="0px"
	 viewBox="0 0 100 100" style="enable-background:new 0 0 100 100;" xml:space="preserve">
<style type="text/css">
	.st0{fill:none;stroke:#000000;stroke-width:1.5;stroke-miterlimit:10;}
	.st1{fill:none;stroke:#000000;stroke-width:3;stroke-miterlimit:10;}
</style>
<g>
	<circle class="st0" cx="50" cy="50" r="42.3"/>
	<circle class="st0" cx="21.2" cy="50" r="6.6"/>
	<circle class="st0" cx="35.6" cy="25" r="6.6"/>
</g>
<g>
	<g>
		<g>
			<path class="st1" d="M88.7,20.2c-3.9-5-8.7-9.3-14.3-12.5"/>
			<g>
				<polygon points="91.6,16.6 92.3,25.6 84.2,21.7 				"/>
			</g>
		</g>
	</g>
	<g>
		<g>
			<path class="st1" d="M79.8,88.7c5-3.9,9.3-8.7,12.5-14.3"/>
			<g>
				<polygon points="83.4,91.6 74.4,92.3 78.3,84.2 				"/>
			</g>
		</g>
	</g>
	<g>
		<g>
			<path class="st1" d="M20.2,11.3c-5,3.9-9.3,8.7-12.5,14.3"/>
			<g>
				<polygon points="16.6,8.4 25.6,7.7 21.7,15.8 				"/>
			</g>
		</g>
	</g>
	<g>
		<g>
			<path class="st1" d="M11.3,79.8c3.9,5,8.7,9.3,14.3,12.5"/>
			<g>
				<polygon points="8.4,83.4 7.7,74.4 15.8,78.3 				"/>
			</g>
		</g>
	</g>
</g>
</svg>
