<?xml version="1.0" encoding="utf-8"?>
<!-- Generator: Adobe Illustrator 21.0.0, SVG Export Plug-In . SVG Version: 6.00 Build 0)  -->
<svg version="1.1" id="Layer_1" xmlns="http://www.w3.org/2000/svg" xmlns:xlink="http://www.w3.org/1999/xlink" x="0px" y="0px"
	 viewBox="0 0 100 100" style="enable-background:new 0 0 100 100;" xml:space="preserve">
<g>
	<path d="M85.2,43.6l-1.5,0.3c0.3,1.9,0.5,3.9,0.5,5.9c0,2-0.2,4-0.5,5.9l1.5,0.3c0.4-2,0.5-4.1,0.5-6.2
		C85.7,47.7,85.6,45.6,85.2,43.6z"/>
	<path d="M84.3,40.6c-0.8-3-2-5.9-3.6-8.6l-0.9,0.5c1.5,2.6,2.7,5.4,3.4,8.3L84.3,40.6z"/>
	<path d="M15.8,49.8c0-2,0.2-4,0.5-5.9l-1.5-0.3c-0.4,2-0.5,4.1-0.5,6.2c0,2.1,0.2,4.2,0.5,6.2l1.5-0.3
		C15.9,53.8,15.8,51.8,15.8,49.8z"/>
	<path d="M82.8,58.6c-0.9,3.5-2.5,6.9-4.5,9.9L76,66.6l-1.3,8l7.6-2.8l-2.4-1.9c2.2-3.3,3.8-6.9,4.9-10.7L82.8,58.6z"/>
	<path d="M78.9,29.6c-1.2-1.7-2.5-3.3-4-4.7l-0.4,0.4c1.4,1.4,2.8,3,3.9,4.7L78.9,29.6z"/>
	<path d="M66.5,10l-0.6-0.3l-5.7,10.8c-3.3-1.1-6.7-1.7-10.2-1.7s-6.9,0.6-10.2,1.7L34.1,9.7L33.5,10C17.3,16.7,6.9,32.3,6.9,49.8
		c0,23.8,19.3,43.1,43.1,43.1s43.1-19.3,43.1-43.1C93.1,32.3,82.7,16.7,66.5,10z M50,91.3c-22.9,0-41.6-18.6-41.6-41.6
		c0-16.6,9.8-31.5,25-38.1l5.7,10.8l0.6-0.2C43,21,46.5,20.4,50,20.4c3.5,0,7,0.6,10.3,1.8l0.6,0.2l5.7-10.8
		c15.2,6.6,25,21.5,25,38.1C91.6,72.7,72.9,91.3,50,91.3z"/>
	<path d="M24,33l1.3-8l-7.6,2.8l2.4,1.9c-2.2,3.3-3.8,6.9-4.9,10.7l2,0.5c0.9-3.5,2.5-6.9,4.5-9.9L24,33z"/>
	<path d="M15.7,59c0.8,3,2,5.9,3.6,8.6l0.9-0.5c-1.5-2.6-2.7-5.4-3.4-8.3L15.7,59z"/>
	<path d="M21.1,70c1.2,1.7,2.5,3.3,4,4.7l0.4-0.4c-1.4-1.4-2.8-3-3.9-4.7L21.1,70z"/>
</g>
</svg>
