<?xml version="1.0" encoding="utf-8"?>
<!-- Generator: Adobe Illustrator 21.1.0, SVG Export Plug-In . SVG Version: 6.00 Build 0)  -->
<svg version="1.1" id="Layer_1" xmlns="http://www.w3.org/2000/svg" xmlns:xlink="http://www.w3.org/1999/xlink" x="0px" y="0px"
	 viewBox="0 0 100 100" style="enable-background:new 0 0 100 100;" xml:space="preserve">
<style type="text/css">
	.st0{fill:none;stroke:#000000;stroke-width:0.5;stroke-miterlimit:10;}
	.st1{fill:none;stroke:#000000;stroke-width:1.5;stroke-miterlimit:10;}
</style>
<g>
	<circle class="st0" cx="50" cy="50" r="42.306"/>
	<circle class="st0" cx="21.16" cy="50" r="6.639"/>
	<circle class="st0" cx="35.568" cy="25.003" r="6.639"/>
</g>
<g>
	<g>
		<g>
			<path class="st1" d="M88.71,20.21c-3.889-5.046-8.741-9.309-14.284-12.516"/>
			<g>
				<polygon points="91.589,16.629 92.306,25.574 84.2,21.724 				"/>
			</g>
		</g>
	</g>
	<g>
		<g>
			<path class="st1" d="M79.79,88.71c5.046-3.889,9.309-8.741,12.516-14.284"/>
			<g>
				<polygon points="83.371,91.589 74.426,92.307 78.276,84.2 				"/>
			</g>
		</g>
	</g>
	<g>
		<g>
			<path class="st1" d="M20.21,11.29c-5.046,3.889-9.309,8.741-12.516,14.284"/>
			<g>
				<polygon points="16.629,8.411 25.574,7.694 21.724,15.8 				"/>
			</g>
		</g>
	</g>
	<g>
		<g>
			<path class="st1" d="M11.29,79.79c3.889,5.046,8.741,9.309,14.284,12.516"/>
			<g>
				<polygon points="8.411,83.371 7.694,74.426 15.8,78.276 				"/>
			</g>
		</g>
	</g>
</g>
</svg>
