<?xml version="1.0" encoding="utf-8"?>
<!-- Generator: Adobe Illustrator 21.0.0, SVG Export Plug-In . SVG Version: 6.00 Build 0)  -->
<svg version="1.1" id="Layer_1" xmlns="http://www.w3.org/2000/svg" xmlns:xlink="http://www.w3.org/1999/xlink" x="0px" y="0px"
	 viewBox="0 0 106 200" style="enable-background:new 0 0 106 200;" xml:space="preserve">
<style type="text/css">
	.st0{fill:#ECF0F1;}
	.st1{fill:none;stroke:#000000;stroke-width:1.5;stroke-linecap:round;stroke-linejoin:round;}
</style>
<g>
	<g id="XMLID_8_">
		<g>
			<polygon class="st0" points="42.5,78.1 43.4,81.8 44.2,85.8 44.8,89.9 45.1,94.1 45.3,98.4 45.3,102.7 45.1,107.1 44.6,111.5 
				44,115.4 43.3,118.7 42.4,122.2 41.3,125.5 40,128.9 32.1,115.8 30.9,113.8 31.5,112.4 32,110.8 32.5,109.2 32.9,107 33.2,104.7 
				33.4,102.4 33.5,100 33.4,97.6 33.2,95.3 32.9,93 32.5,90.8 32,89.2 31.5,87.6 30.9,86.2 32.1,84.2 40,71.1 41.3,74.5 			"/>
			<polygon class="st0" points="19.5,80.2 18.4,81.2 17.6,82 16.9,83.1 16.1,84.2 10.7,71.1 8.6,66 10.3,63.4 12.1,61.2 13.9,59.3 
				15.9,57.7 18,56.6 20.1,55.8 22.2,55.4 24.4,55.5 26.6,56 28.8,56.9 30.7,58.1 32.4,59.5 34.1,61.3 35.8,63.4 37.5,66 29.9,84.2 
				29.2,83.1 28.4,82 27.6,81.2 26.5,80.2 25.4,79.6 24.2,79.2 23,79 21.8,79.2 20.7,79.6 			"/>
			<polygon class="st0" points="20.7,120.4 21.8,120.8 23,121 24.2,120.8 25.4,120.4 26.5,119.8 27.6,118.8 28.4,118 29.2,116.9 
				29.9,115.8 37.5,134 35.8,136.6 34,138.8 32.1,140.7 30.1,142.3 28.1,143.4 26,144.2 23.9,144.6 21.7,144.5 19.5,144 17.3,143.1 
				15.3,141.9 13.7,140.5 11.9,138.7 10.3,136.6 8.6,134 10.7,128.9 16.1,115.8 16.9,116.9 17.6,118 18.4,118.8 19.5,119.8 			"/>
			<polygon class="st0" points="14.6,112.4 15.2,113.8 14.6,114.8 6,128.9 4.7,125.5 3.6,121.9 2.7,118.2 1.9,114.2 1.3,110.1 
				0.9,105.9 0.8,101.6 0.8,97.3 1,92.9 1.5,88.5 2.1,84.6 2.8,81.3 3.7,77.8 4.7,74.5 6,71.1 14.6,85.2 15.2,86.2 14.6,87.6 
				14.1,89.2 13.6,90.8 13.1,93 12.8,95.3 12.6,97.6 12.6,100 12.6,102.4 12.8,104.7 13.1,107 13.6,109.2 14.1,110.8 			"/>
		</g>
		<g>
			<polyline class="st1" points="97.4,134 37.5,134 35.8,136.6 34,138.8 32.1,140.7 30.1,142.3 28.1,143.4 26,144.2 23.9,144.6 			
				"/>
			<line class="st1" x1="29.9" y1="84.2" x2="37.5" y2="66"/>
			<line class="st1" x1="37.5" y1="134" x2="29.9" y2="115.8"/>
			<polyline class="st1" points="6,128.9 14.6,114.8 15.2,113.8 14.6,112.4 14.1,110.8 13.6,109.2 13.1,107 12.8,104.7 12.6,102.4 
				12.6,100 12.6,97.6 12.8,95.3 13.1,93 13.6,90.8 14.1,89.2 14.6,87.6 15.2,86.2 14.6,85.2 6,71.1 			"/>
			<line class="st1" x1="16.1" y1="84.2" x2="29.9" y2="84.2"/>
			<polyline class="st1" points="95.3,128.9 97.4,134 95.7,136.6 93.9,138.8 92.1,140.7 90.1,142.3 88,143.4 85.9,144.2 83.8,144.6 
				23.9,144.6 21.7,144.5 19.5,144 17.3,143.1 15.3,141.9 13.7,140.5 11.9,138.7 10.3,136.6 8.6,134 10.7,128.9 16.1,115.8 			"/>
			<polyline class="st1" points="40,128.9 41.3,125.5 42.4,122.2 43.3,118.7 44,115.4 44.6,111.5 45.1,107.1 45.3,102.7 45.3,98.4 
				45.1,94.1 44.8,89.9 44.2,85.8 43.4,81.8 42.5,78.1 41.3,74.5 40,71.1 			"/>
			<polyline class="st1" points="100,71.1 101.3,74.5 102.4,78.1 103.3,81.8 104.1,85.8 104.7,89.9 105.1,94.1 105.3,98.4 
				105.2,102.7 105,107.1 104.5,111.5 103.9,115.4 103.2,118.7 102.3,122.2 101.3,125.5 100,128.9 			"/>
			<polyline class="st1" points="6,128.9 4.7,125.5 3.6,121.9 2.7,118.2 1.9,114.2 1.3,110.1 0.9,105.9 0.8,101.6 0.8,97.3 1,92.9 
				1.5,88.5 2.1,84.6 2.8,81.3 3.7,77.8 4.7,74.5 6,71.1 			"/>
			<polyline class="st1" points="22.2,55.4 24.4,55.5 26.6,56 28.8,56.9 30.7,58.1 32.4,59.5 34.1,61.3 35.8,63.4 37.5,66 97.4,66 
							"/>
			<polyline class="st1" points="29.9,115.8 29.2,116.9 28.4,118 27.6,118.8 26.5,119.8 25.4,120.4 24.2,120.8 23,121 21.8,120.8 
				20.7,120.4 19.5,119.8 18.4,118.8 17.6,118 16.9,116.9 16.1,115.8 			"/>
			<polyline class="st1" points="16.1,84.2 16.9,83.1 17.6,82 18.4,81.2 19.5,80.2 20.7,79.6 21.8,79.2 23,79 24.2,79.2 25.4,79.6 
				26.5,80.2 27.6,81.2 28.4,82 29.2,83.1 29.9,84.2 32.1,84.2 			"/>
			<polyline class="st1" points="100,128.9 95.3,128.9 40,128.9 32.1,115.8 30.9,113.8 31.5,112.4 32,110.8 32.5,109.2 32.9,107 
				33.2,104.7 33.4,102.4 33.5,100 33.4,97.6 33.2,95.3 32.9,93 32.5,90.8 32,89.2 31.5,87.6 30.9,86.2 32.1,84.2 40,71.1 
				95.3,71.1 100,71.1 			"/>
			<polyline class="st1" points="16.1,84.2 10.7,71.1 8.6,66 10.3,63.4 12.1,61.2 13.9,59.3 15.9,57.7 18,56.6 20.1,55.8 22.2,55.4 
				82.2,55.4 84.3,55.5 86.5,56 88.8,56.9 90.7,58.1 92.3,59.5 94.1,61.3 95.7,63.4 97.4,66 95.3,71.1 			"/>
			<polyline class="st1" points="32.1,115.8 29.9,115.8 16.1,115.8 			"/>
		</g>
	</g>
</g>
</svg>
