<?xml version="1.0" encoding="utf-8"?>
<!-- Generator: Adobe Illustrator 21.0.0, SVG Export Plug-In . SVG Version: 6.00 Build 0)  -->
<svg version="1.1" id="Layer_1" xmlns="http://www.w3.org/2000/svg" xmlns:xlink="http://www.w3.org/1999/xlink" x="0px" y="0px"
	 viewBox="0 0 101.5 200" style="enable-background:new 0 0 101.5 200;" xml:space="preserve">
<style type="text/css">
	.st0{fill:#797979;}
	.st1{fill:none;stroke:#FFFFFF;stroke-width:1.5;stroke-linecap:round;stroke-linejoin:round;}
	.st2{fill:none;stroke:#FFFFFF;stroke-linecap:round;stroke-linejoin:round;}
</style>
<g>
	<g id="XMLID_56_">
		<g>
			<polygon class="st0" points="82.9,89.7 82.9,110.3 81.4,110.3 72.5,110.3 72.5,106.6 72.5,93.4 72.5,89.7 81.4,89.7 			"/>
			<polygon class="st0" points="72.8,85.6 70.6,85.8 68.5,86.5 66.5,87.5 64.8,89 63.2,90.7 62,92.8 61,95.1 60.5,97.5 60.3,100 
				60.5,102.5 61,104.9 62,107.2 63.2,109.2 64.8,111 66.5,112.5 68.5,113.5 70.6,114.2 72.8,114.4 71.5,114.4 71.2,114.4 
				69.4,114.2 67.2,113.5 65.3,112.5 63.5,111 62,109.2 60.7,107.2 59.8,104.9 59.2,102.5 59,100 59.2,97.5 59.8,95.1 60.7,92.8 
				62,90.7 63.5,89 65.3,87.5 67.2,86.5 69.4,85.8 71.2,85.6 71.5,85.6 			"/>
			<polygon class="st0" points="49.3,94.1 48.6,88.3 47.3,82.9 45.6,78 43.5,73.8 41,70.3 38.3,67.8 35.5,66.3 32.5,65.7 29.5,66.3 
				26.6,67.8 23.9,70.3 21.5,73.8 20.6,75.6 32.5,75.6 33.5,75.7 34.6,76 35.6,76.4 36.7,77.1 37.6,77.9 38.6,78.9 39.5,80 
				40.3,81.3 41.1,82.7 41.8,84.3 42.5,86 43.1,87.8 43.5,89.7 43.9,91.7 44.3,93.7 44.5,95.8 44.6,97.9 44.7,100 44.6,102.1 
				44.5,104.2 44.3,106.3 43.9,108.3 43.5,110.3 43.1,112.2 42.5,114 41.8,115.7 41.1,117.2 40.3,118.7 39.5,120 38.6,121.1 
				37.6,122.1 36.7,122.9 35.6,123.6 34.6,124 33.5,124.3 32.5,124.4 20.6,124.4 21.5,126.2 23.9,129.7 26.6,132.2 29.5,133.7 
				32.5,134.2 35.5,133.7 38.3,132.2 41,129.7 43.5,126.2 45.6,122 47.3,117.1 48.6,111.7 49.3,106 49.5,102.3 49.6,100 			"/>
			<polygon class="st0" points="46.8,160.9 46.8,181.5 36.5,181.5 36.5,160.9 42.4,160.9 			"/>
			<path class="st0" d="M25.1,97.9l0,2.1l0,2.1l-0.1,2.1l-0.2,2.1l-0.3,2l-0.4,1.9l-0.5,1.9l-0.6,1.8l-0.6,1.7l-0.7,1.6l-0.8,1.4
				l-0.9,1.3l-0.9,1.1l-0.9,1l-1,0.8l-1,0.6l-1,0.5l-1.1,0.3l-1.1,0.1l-1.1-0.1l-1.1-0.3l-1-0.5l-1-0.6l-1-0.8l-1-1L5.9,120
				l-0.8-1.3l-0.8-1.4l-0.7-1.6L3,114l-0.6-1.8l-0.5-1.9l-0.4-1.9l-0.3-2l-0.2-2.1l-0.1-2.1l0-2.1l0-2.1l0.1-2.1l0.2-2.1l0.3-2
				l0.4-2l0.5-1.9L3,86l0.6-1.7l0.7-1.6l0.8-1.4L5.9,80l0.9-1.1l1-1l1-0.8l1-0.6l1-0.5l1.1-0.3l1.1-0.1l1.1,0.1l1.1,0.3l1,0.5l1,0.6
				l1,0.8l0.9,1l0.9,1.1l0.9,1.3l0.8,1.4l0.7,1.6l0.6,1.7l0.6,1.8l0.5,1.9l0.4,2l0.3,2l0.2,2.1L25.1,97.9z M18.2,100v-0.2l0-0.8
				l0-0.9l0-0.2l-0.1-0.7L18,96.4l0-0.2l-0.1-0.7l-0.2-0.9l0-0.2l-0.2-0.6l-0.3-0.8L17,93l-0.3-0.5l-0.3-0.6l-0.1-0.1L16,91.2
				l-0.4-0.5l-0.1-0.1l-0.3-0.3l-0.4-0.4l-0.1-0.1l-0.4-0.2l-0.4-0.2l-0.1,0l-0.4-0.1L13,89.1l-0.1,0l-0.4,0.1L12,89.3h0l-0.4,0.2
				l-0.5,0.2l0,0l-0.4,0.4l-0.4,0.4v0l-0.4,0.5l-0.4,0.5l-0.3,0.7L8.8,93l0,0l-0.3,0.8l-0.3,0.7l0,0.1L8,95.4l-0.2,0.8l0,0.1
				l-0.1,0.9L7.6,98v0.1l0,0.9l0,0.8v0.2l0,0.9l0,0.8l0,0.2l0.1,0.9l0.1,0.7l0,0.2l0.2,0.9l0.2,0.7l0.1,0.2l0.3,0.8l0.2,0.6l0.1,0.1
				l0.3,0.7l0.3,0.5l0.1,0.1l0.4,0.5l0.3,0.4l0.1,0.1l0.4,0.4l0.3,0.3l0.1,0l0.4,0.2l0.4,0.2H12l0.4,0.1l0.4,0.1l0.1,0l0.4-0.1
				l0.4-0.1l0.1,0l0.4-0.2l0.4-0.2l0,0l0.4-0.4l0.4-0.4v0l0.4-0.5l0.4-0.5l0.3-0.6l0.3-0.6l0,0l0.2-0.7l0.3-0.8l0-0.1l0.2-0.8
				l0.2-0.8l0-0.1l0.1-0.8l0.1-0.9v-0.1l0-0.8L18.2,100z"/>
		</g>
		<g>
			<line class="st1" x1="46.8" y1="181.5" x2="46.8" y2="160.9"/>
			<line class="st1" x1="36.5" y1="181.5" x2="36.5" y2="160.9"/>
			<line class="st1" x1="64.7" y1="160.9" x2="64.7" y2="181.5"/>
			<line class="st1" x1="82.9" y1="89.7" x2="82.9" y2="110.3"/>
			<line class="st1" x1="100.8" y1="89.7" x2="100.8" y2="110.3"/>
			<polyline class="st1" points="13,75.6 20.6,75.6 32.5,75.6 			"/>
			<polyline class="st1" points="64.7,181.5 46.8,181.5 36.5,181.5 			"/>
			<polyline class="st1" points="72.5,89.7 81.4,89.7 82.9,89.7 85,89.7 99.3,89.7 100.8,89.7 			"/>
			<polyline class="st1" points="72.5,110.3 81.4,110.3 82.9,110.3 85,110.3 99.3,110.3 100.8,110.3 			"/>
			<line class="st1" x1="58.8" y1="151.3" x2="58.8" y2="160.9"/>
			<line class="st1" x1="42.4" y1="160.9" x2="42.4" y2="151.3"/>
			<polyline class="st1" points="80.7,75.6 88.3,75.6 89.3,75.7 90.4,76 91.4,76.4 92.4,77.1 93.4,77.9 94.4,78.9 95.3,80 
				96.1,81.3 96.9,82.7 97.6,84.3 98.3,86 98.8,87.8 99.3,89.7 			"/>
			<line class="st1" x1="55.8" y1="148.3" x2="55.8" y2="151.3"/>
			<line class="st1" x1="45.4" y1="151.3" x2="45.4" y2="148.3"/>
			<polyline class="st1" points="32.5,65.7 35.5,66.3 38.3,67.8 41,70.3 43.5,73.8 45.6,78 47.3,82.9 48.6,88.3 49.3,94.1 49.6,100 
				49.5,102.3 49.3,106 48.6,111.7 47.3,117.1 45.6,122 43.5,126.2 41,129.7 38.3,132.2 35.5,133.7 32.5,134.2 29.5,133.7 
				26.6,132.2 23.9,129.7 21.5,126.2 20.6,124.4 			"/>
			<polyline class="st2" points="72.8,114.4 70.6,114.2 68.5,113.5 66.5,112.5 64.8,111 63.2,109.2 62,107.2 61,104.9 60.5,102.5 
				60.3,100 60.5,97.5 61,95.1 62,92.8 63.2,90.7 64.8,89 66.5,87.5 68.5,86.5 70.6,85.8 72.8,85.6 			"/>
			<polyline class="st1" points="25.1,97.9 25,95.8 24.7,93.7 24.4,91.7 24,89.7 23.5,87.8 22.9,86 22.3,84.3 21.6,82.7 20.8,81.3 
				19.9,80 19,78.9 18.1,77.9 17.1,77.1 16.1,76.4 15.1,76 14,75.7 13,75.6 11.9,75.7 10.8,76 9.8,76.4 8.8,77.1 7.8,77.9 6.8,78.9 
				5.9,80 5.1,81.3 4.3,82.7 3.6,84.3 3,86 2.4,87.8 1.9,89.7 1.5,91.7 1.2,93.7 0.9,95.8 0.8,97.9 0.8,100 0.8,102.1 0.9,104.2 
				1.2,106.3 1.5,108.3 1.9,110.3 2.4,112.2 3,114 3.6,115.7 4.3,117.2 5.1,118.7 5.9,120 6.8,121.1 7.8,122.1 8.8,122.9 9.8,123.6 
				10.8,124 11.9,124.3 13,124.4 14,124.3 15.1,124 16.1,123.6 17.1,122.9 18.1,122.1 19,121.1 19.9,120 20.8,118.7 21.6,117.2 
				22.3,115.7 22.9,114 23.5,112.2 24,110.3 24.4,108.3 24.7,106.3 25,104.2 25.1,102.1 25.1,100 25.1,97.9 			"/>
			<polyline class="st1" points="32.5,124.4 33.5,124.3 34.6,124 35.6,123.6 36.7,122.9 37.6,122.1 38.6,121.1 39.5,120 40.3,118.7 
				41.1,117.2 41.8,115.7 42.5,114 43.1,112.2 43.5,110.3 43.9,108.3 44.3,106.3 44.5,104.2 44.6,102.1 44.7,100 44.6,97.9 			"/>
			<polyline class="st1" points="44.6,97.9 44.5,95.8 44.3,93.7 43.9,91.7 43.5,89.7 43.1,87.8 42.5,86 41.8,84.3 41.1,82.7 
				40.3,81.3 39.5,80 38.6,78.9 37.6,77.9 36.7,77.1 35.6,76.4 34.6,76 33.5,75.7 32.5,75.6 			"/>
			<polyline class="st1" points="20.6,75.6 21.5,73.8 23.9,70.3 26.6,67.8 29.5,66.3 32.5,65.7 68.7,65.7 71.7,66.3 74.6,67.8 
				77.3,70.3 79.8,73.8 80.7,75.6 81.9,78 83.6,82.9 84.8,88.3 85,89.7 			"/>
			<polyline class="st1" points="99.3,110.3 98.8,112.2 98.3,114 97.6,115.7 96.9,117.2 96.1,118.7 95.3,120 94.4,121.1 93.4,122.1 
				92.4,122.9 91.4,123.6 90.4,124 89.3,124.3 88.3,124.4 80.7,124.4 			"/>
			<polyline class="st1" points="85,110.3 84.8,111.7 83.6,117.1 81.9,122 80.7,124.4 79.8,126.2 77.3,129.7 74.6,132.2 71.7,133.7 
				68.7,134.2 32.5,134.2 			"/>
			<polyline class="st2" points="81.4,110.3 80.8,111 79,112.5 77,113.5 74.9,114.2 72.8,114.4 71.5,114.4 71.2,114.4 69.4,114.2 
				67.2,113.5 65.3,112.5 63.5,111 62,109.2 60.7,107.2 59.8,104.9 59.2,102.5 59,100 59.2,97.5 59.8,95.1 60.7,92.8 62,90.7 
				63.5,89 65.3,87.5 67.2,86.5 69.4,85.8 71.2,85.6 71.5,85.6 72.8,85.6 74.9,85.8 77,86.5 79,87.5 80.8,89 81.4,89.7 			"/>
			<polyline class="st1" points="72.5,106.6 72.2,106.3 71.7,105.8 71.3,105.2 70.9,104.7 70.6,104.1 70.3,103.5 70.1,102.8 
				69.9,102.1 69.7,101.4 69.7,100.7 69.6,100 69.7,99.3 69.7,98.6 69.9,97.9 70.1,97.2 70.3,96.5 70.6,95.9 70.9,95.3 71.3,94.7 
				71.7,94.2 72.2,93.7 72.5,93.4 			"/>
			<polygon class="st1" points="65,140.9 64.8,140.9 64.2,140.9 63.1,140.9 61.6,140.9 59.9,140.9 57.8,140.9 55.5,140.9 
				53.1,140.9 50.6,140.9 48.1,140.9 45.7,140.9 43.4,140.9 41.4,140.9 39.6,140.9 38.1,140.9 37.1,140.9 36.4,140.9 36.2,140.9 
				36.2,143.4 36.4,143.4 37.1,143.4 38.1,143.4 39.6,143.4 41.4,143.4 43.4,143.4 45.7,143.4 48.1,143.4 50.6,143.4 53.1,143.4 
				55.5,143.4 57.8,143.4 59.9,143.4 61.6,143.4 63.1,143.4 64.2,143.4 64.8,143.4 65,143.4 			"/>
			<polyline class="st1" points="58.8,151.3 58.8,151.3 58.7,151.3 58.5,151.3 58.3,151.3 58,151.3 57.7,151.3 57.3,151.3 
				56.9,151.3 56.4,151.3 55.9,151.3 55.8,151.3 55.3,151.3 54.7,151.3 54.1,151.3 53.4,151.3 52.7,151.3 52,151.3 51.3,151.3 
				50.6,151.3 49.9,151.3 49.2,151.3 48.5,151.3 47.8,151.3 47.2,151.3 46.5,151.3 45.9,151.3 45.4,151.3 45.3,151.3 44.8,151.3 
				44.4,151.3 43.9,151.3 43.5,151.3 43.2,151.3 42.9,151.3 42.7,151.3 42.6,151.3 42.5,151.3 42.4,151.3 			"/>
			<polygon class="st1" points="17,106.7 17,106.7 17.2,106 17.5,105.3 17.5,105.2 17.7,104.4 17.9,103.6 17.9,103.5 18,102.7 
				18.2,101.8 18.2,101.7 18.2,100.9 18.2,100 18.2,99.8 18.2,99.1 18.2,98.2 18.2,98 18.1,97.3 18,96.4 17.9,96.2 17.8,95.5 
				17.6,94.7 17.5,94.5 17.3,93.9 17.1,93.1 17,93 16.7,92.4 16.4,91.8 16.3,91.6 16,91.2 15.6,90.7 15.6,90.6 15.2,90.2 14.8,89.8 
				14.7,89.8 14.3,89.6 13.9,89.3 13.8,89.3 13.4,89.2 13,89.1 12.9,89.1 12.5,89.2 12,89.3 12,89.3 11.6,89.5 11.1,89.7 11,89.8 
				10.7,90.2 10.2,90.5 10.2,90.6 9.8,91.1 9.4,91.6 9.1,92.3 8.8,93 8.8,93 8.5,93.8 8.2,94.5 8.2,94.5 8,95.4 7.9,96.2 7.8,96.3 
				7.7,97.2 7.6,98 7.6,98.1 7.6,99 7.5,99.8 7.5,100 7.6,100.9 7.6,101.7 7.6,101.9 7.8,102.8 7.9,103.5 7.9,103.7 8.1,104.5 
				8.2,105.2 8.3,105.4 8.6,106.1 8.8,106.7 8.9,106.9 9.2,107.5 9.4,108 9.5,108.2 9.9,108.7 10.2,109.1 10.3,109.2 10.7,109.6 
				11,109.9 11.1,110 11.6,110.2 12,110.4 12,110.4 12.5,110.5 12.9,110.6 13,110.5 13.4,110.5 13.8,110.4 13.9,110.4 14.3,110.1 
				14.7,109.9 14.7,109.9 15.2,109.5 15.6,109.1 15.6,109.1 16,108.6 16.3,108 16.7,107.4 			"/>
			<polyline class="st1" points="55.8,148.3 55.7,148.3 55.7,148.3 55.6,148.3 55.5,148.3 55.3,148.3 55.1,148.3 54.8,148.3 
				54.6,148.3 54.3,148.3 53.9,148.3 53.6,148.3 53.2,148.3 52.8,148.3 52.4,148.3 51.9,148.3 51.5,148.3 51.1,148.3 50.6,148.3 
				50.2,148.3 49.7,148.3 49.3,148.3 48.8,148.3 48.4,148.3 48,148.3 47.7,148.3 47.3,148.3 47,148.3 46.7,148.3 46.4,148.3 
				46.1,148.3 45.9,148.3 45.8,148.3 45.6,148.3 45.5,148.3 45.5,148.3 45.4,148.3 			"/>
			<polyline class="st1" points="72.5,89.7 72.5,93.4 72.5,106.6 72.5,110.3 			"/>
			<polyline class="st1" points="32.5,124.4 20.6,124.4 13,124.4 			"/>
			<polyline class="st1" points="64.7,160.9 58.8,160.9 46.8,160.9 42.4,160.9 36.5,160.9 			"/>
		</g>
	</g>
</g>
</svg>
