<?xml version="1.0" encoding="utf-8"?>
<!-- Generator: Adobe Illustrator 21.0.0, SVG Export Plug-In . SVG Version: 6.00 Build 0)  -->
<svg version="1.1" id="Layer_1" xmlns="http://www.w3.org/2000/svg" xmlns:xlink="http://www.w3.org/1999/xlink" x="0px" y="0px"
	 viewBox="0 0 152 200" style="enable-background:new 0 0 152 200;" xml:space="preserve">
<style type="text/css">
	.st0{fill:#797979;}
	.st1{fill:none;stroke:#FFFFFF;stroke-width:1.5;stroke-linecap:round;stroke-linejoin:round;}
	.st2{fill:none;stroke:#FFFFFF;stroke-linecap:round;stroke-linejoin:round;}
</style>
<g>
	<g id="XMLID_17_">
		<g>
			<polygon class="st0" points="72.4,61.7 72.4,138.3 56.6,169.9 0.8,169.9 0.8,144 27.3,144 51.3,144 55.7,135.1 58.9,128.7 
				59.4,127.6 59.4,72.4 58.9,71.2 55.7,64.8 51.3,56 27.3,56 27.3,56 0.8,56 0.8,30.1 56.6,30.1 			"/>
		</g>
		<g>
			<line class="st1" x1="151.2" y1="138.3" x2="72.4" y2="138.3"/>
			<line class="st1" x1="72.4" y1="61.7" x2="151.2" y2="61.7"/>
			<polyline class="st1" points="135.5,169.9 56.6,169.9 0.8,169.9 			"/>
			<polyline class="st1" points="0.8,30.1 56.6,30.1 135.5,30.1 			"/>
			<line class="st1" x1="27.3" y1="56" x2="51.3" y2="56"/>
			<polyline class="st1" points="135.5,30.1 151.2,61.7 151.2,138.3 135.5,169.9 			"/>
			<polyline class="st1" points="56.6,30.1 72.4,61.7 72.4,138.3 56.6,169.9 			"/>
			<line class="st1" x1="58.9" y1="128.7" x2="24.1" y2="128.7"/>
			<line class="st1" x1="55.7" y1="135.1" x2="27.3" y2="135.1"/>
			<line class="st1" x1="27.3" y1="64.8" x2="55.7" y2="64.8"/>
			<line class="st1" x1="0.8" y1="56" x2="27.3" y2="56"/>
			<polyline class="st1" points="0.8,169.9 0.8,144 0.8,143.9 0.8,142.2 0.8,140.6 0.8,138.8 0.8,137.2 0.8,135.5 0.8,135.1 
				1.4,133.8 2.2,132.1 3.1,130.4 3.9,128.7 			"/>
			<line class="st1" x1="24.1" y1="71.2" x2="58.9" y2="71.2"/>
			<polyline class="st1" points="27.3,144 27.3,143.9 27.3,142.2 27.3,140.6 27.3,138.8 27.3,137.2 27.3,135.5 27.3,135.1 
				26.7,133.8 25.9,132.1 25,130.4 24.1,128.7 			"/>
			<polyline class="st1" points="24.1,71.2 25,69.5 25.8,67.8 26.7,66.2 27.3,64.8 27.3,64.5 27.3,62.8 27.3,61.1 27.3,59.4 
				27.3,57.7 27.3,56 27.3,56 			"/>
			<polyline class="st1" points="3.9,71.2 3.1,69.5 2.3,67.8 1.4,66.2 0.8,64.8 0.8,64.5 0.8,62.8 0.8,61.1 0.8,59.4 0.8,57.7 
				0.8,56 0.8,56 0.8,30.1 			"/>
			<polyline class="st1" points="51.3,144 27.3,144 0.8,144 			"/>
			<polyline class="st1" points="51.3,144 55.7,135.1 58.9,128.7 59.4,127.6 59.4,72.4 58.9,71.2 55.7,64.8 51.3,56 			"/>
			<line class="st1" x1="3.9" y1="71.2" x2="24.1" y2="71.2"/>
			<line class="st2" x1="3.1" y1="69.5" x2="25" y2="69.5"/>
			<line class="st2" x1="2.3" y1="67.8" x2="25.8" y2="67.8"/>
			<line class="st2" x1="1.4" y1="66.2" x2="26.7" y2="66.2"/>
			<line class="st2" x1="0.8" y1="64.5" x2="27.3" y2="64.5"/>
			<line class="st2" x1="0.8" y1="62.8" x2="27.3" y2="62.8"/>
			<line class="st2" x1="0.8" y1="61.1" x2="27.3" y2="61.1"/>
			<line class="st2" x1="0.8" y1="59.4" x2="27.3" y2="59.4"/>
			<line class="st2" x1="0.8" y1="57.7" x2="27.3" y2="57.7"/>
			<line class="st1" x1="0.8" y1="56" x2="27.3" y2="56"/>
			<line class="st1" x1="0.8" y1="143.9" x2="27.3" y2="143.9"/>
			<line class="st2" x1="0.8" y1="142.2" x2="27.3" y2="142.2"/>
			<line class="st2" x1="0.8" y1="140.6" x2="27.3" y2="140.6"/>
			<line class="st2" x1="0.8" y1="138.8" x2="27.3" y2="138.8"/>
			<line class="st2" x1="0.8" y1="137.2" x2="27.3" y2="137.2"/>
			<line class="st2" x1="0.8" y1="135.5" x2="27.3" y2="135.5"/>
			<line class="st2" x1="1.4" y1="133.8" x2="26.7" y2="133.8"/>
			<line class="st2" x1="2.2" y1="132.1" x2="25.9" y2="132.1"/>
			<line class="st2" x1="3.1" y1="130.4" x2="25" y2="130.4"/>
			<line class="st1" x1="3.9" y1="128.7" x2="24.1" y2="128.7"/>
		</g>
	</g>
</g>
</svg>
