<?xml version="1.0" encoding="utf-8"?>
<!-- Generator: Adobe Illustrator 21.0.0, SVG Export Plug-In . SVG Version: 6.00 Build 0)  -->
<svg version="1.1" id="Layer_1" xmlns="http://www.w3.org/2000/svg" xmlns:xlink="http://www.w3.org/1999/xlink" x="0px" y="0px"
	 viewBox="0 0 79.4 200" style="enable-background:new 0 0 79.4 200;" xml:space="preserve">
<style type="text/css">
	.st0{fill:#ECF0F1;}
	.st1{fill:none;stroke:#000000;stroke-width:1.5;stroke-linecap:round;stroke-linejoin:round;}
</style>
<g>
	<g id="XMLID_64_">
		<g>
			<polygon class="st0" points="74.6,108.3 74.6,108.5 74.6,108.8 74.5,109 74.5,109.2 74.4,109.5 74.4,109.6 74.3,109.9 
				74.1,110.1 74,110.3 73.9,110.5 73.7,110.6 73.5,110.8 73.3,110.9 73.1,111 72.9,111.1 72.7,111.1 72.5,111.2 72.3,111.2 
				72.1,111.2 71.9,111.1 71.7,111.1 71.5,111 71.3,111 71.1,110.8 70.9,110.7 70.8,110.5 70.6,110.4 70.5,110.2 70.4,110 
				70.5,109.9 70.6,109.6 70.6,109.5 70.7,109.2 70.8,109 70.8,108.8 70.8,108.5 70.8,108.3 70.7,108 70.7,107.8 70.6,107.6 
				70.5,107.3 70.4,107.1 70.4,107.1 70.4,107 70.6,106.8 70.7,106.6 70.9,106.5 71,106.3 71.2,106.2 71.4,106.1 71.6,106 71.8,106 
				72,105.9 72.2,105.9 72.5,105.9 72.7,105.9 72.9,106 73.1,106.1 73.2,106.1 73.4,106.3 73.6,106.4 73.8,106.6 73.9,106.7 
				74.1,106.9 74.2,107.1 74.3,107.3 74.4,107.6 74.5,107.8 74.5,108 			"/>
			<polygon class="st0" points="74.5,91.2 74.5,91.4 74.5,91.7 74.4,91.9 74.4,92.2 74.3,92.4 74.2,92.6 74.1,92.8 74,93 73.8,93.2 
				73.7,93.4 73.5,93.5 73.4,93.6 73.2,93.7 72.9,93.8 72.7,93.9 72.5,93.9 72.3,94 72.1,94 71.9,93.9 71.7,93.9 71.5,93.8 
				71.3,93.7 71.1,93.6 70.9,93.5 70.7,93.3 70.6,93.2 70.4,93 70.3,92.9 70.3,92.8 70.4,92.6 70.5,92.4 70.6,92.2 70.7,91.9 
				70.7,91.7 70.7,91.4 70.7,91.2 70.7,90.9 70.7,90.7 70.6,90.5 70.5,90.2 70.4,90 70.3,89.8 70.3,89.8 70.5,89.6 70.6,89.4 
				70.8,89.3 70.9,89.2 71.1,89 71.3,88.9 71.5,88.8 71.7,88.7 71.9,88.7 72.1,88.7 72.3,88.7 72.5,88.7 72.7,88.7 72.9,88.8 
				73.1,88.9 73.3,89 73.5,89.1 73.7,89.3 73.8,89.5 74,89.6 74.1,89.8 74.2,90 74.3,90.2 74.4,90.5 74.4,90.7 74.5,90.9 			"/>
			<polygon class="st0" points="62.9,105.1 63.3,105.3 63.7,105.4 64.2,105.4 64.6,105.5 62.5,105.5 62.1,105.4 61.7,105.4 
				61.3,105.3 60.9,105.1 60.5,104.9 60.1,104.7 59.9,104.6 59.8,104.5 59.4,104.2 59.1,103.9 58.9,103.5 58.6,103.1 58.4,102.7 
				58.2,102.3 58,101.9 57.9,101.4 57.8,100.9 57.8,100.5 57.7,100 57.8,99.5 57.8,99.1 57.9,98.6 58,98.1 58.2,97.7 58.4,97.3 
				58.6,96.9 58.9,96.5 59.1,96.1 59.4,95.8 59.8,95.5 59.9,95.4 60.1,95.3 60.5,95.1 60.9,94.9 61.3,94.7 61.7,94.6 62.1,94.6 
				62.5,94.5 64.6,94.5 64.2,94.6 63.7,94.6 63.3,94.7 62.9,94.9 62.6,95.1 62.2,95.3 61.9,95.5 61.5,95.8 61.2,96.1 60.9,96.5 
				60.7,96.9 60.5,97.3 60.3,97.7 60.1,98.1 60,98.6 59.9,99.1 59.9,99.5 59.8,100 59.9,100.5 59.9,100.9 60,101.4 60.1,101.9 
				60.3,102.3 60.5,102.7 60.7,103.1 60.9,103.5 61.2,103.9 61.5,104.2 61.9,104.5 62.2,104.7 62.6,104.9 			"/>
			<polygon class="st0" points="61.7,117 61.7,117.2 61.7,117.5 61.6,117.7 61.6,118 61.5,118.2 61.4,118.4 61.3,118.7 61.2,118.9 
				61.1,119 60.9,119.2 60.7,119.4 60.6,119.5 60.4,119.6 60.2,119.7 60,119.8 59.8,119.8 59.6,119.9 59.4,119.9 59.2,119.9 
				58.9,119.8 58.7,119.8 58.5,119.7 58.3,119.6 58.2,119.5 58,119.3 57.8,119.2 57.7,119 57.5,118.8 57.5,118.7 57.5,118.7 
				57.5,118.7 57.6,118.4 57.7,118.2 57.8,118 57.9,117.7 57.9,117.5 57.9,117.2 57.9,117 57.9,116.8 57.8,116.6 57.8,116.3 
				57.7,116.1 57.6,115.9 57.5,115.7 57.6,115.6 57.7,115.4 57.9,115.3 58,115.1 58.2,115 58.4,114.8 58.6,114.7 58.8,114.7 
				59,114.6 59.2,114.6 59.4,114.6 59.6,114.6 59.8,114.6 60,114.7 60.2,114.8 60.4,114.9 60.6,115 60.8,115.1 61,115.3 61.1,115.5 
				61.2,115.7 61.4,115.9 61.5,116.1 61.5,116.3 61.6,116.6 61.6,116.8 			"/>
			<polygon class="st0" points="61.5,82.5 61.5,82.8 61.5,83 61.5,83.3 61.4,83.5 61.4,83.8 61.3,84 61.2,84.2 61.1,84.4 60.9,84.6 
				60.8,84.7 60.6,84.9 60.4,85 60.2,85.2 60,85.3 59.8,85.3 59.6,85.4 59.5,85.4 59.3,85.4 59,85.4 58.8,85.4 58.6,85.3 58.4,85.2 
				58.2,85.1 58,85 57.8,84.9 57.7,84.7 57.5,84.5 57.4,84.3 57.4,84.3 57.4,84.3 57.4,84.2 57.5,84 57.6,83.8 57.7,83.5 57.7,83.3 
				57.8,83 57.8,82.8 57.8,82.5 57.7,82.3 57.7,82.1 57.6,81.9 57.5,81.6 57.4,81.4 57.4,81.3 57.4,81.1 57.6,81 57.7,80.8 
				57.9,80.6 58.1,80.5 58.3,80.4 58.5,80.3 58.7,80.2 58.9,80.2 59,80.1 59.3,80.1 59.5,80.1 59.7,80.2 59.9,80.2 60.1,80.3 
				60.3,80.4 60.5,80.5 60.7,80.7 60.8,80.8 61,81 61.1,81.2 61.2,81.4 61.3,81.6 61.4,81.9 61.5,82.1 61.5,82.3 			"/>
			<polygon class="st0" points="59.3,122.4 55.5,122.4 53.6,122.2 52.4,122.1 51.2,121.8 50.6,121.6 48.9,121 47.2,120.2 
				45.6,119.2 44.1,118 42.7,116.7 41.4,115.3 41.3,115.1 41.3,115.1 40.3,113.7 39.7,112.8 39.2,112.1 38.5,110.5 38.4,110.5 
				38.3,110.3 37.6,108.5 37.6,108.4 37,106.4 36.6,104.3 36.3,102.2 36.2,100 36.3,97.8 36.4,96.4 36.8,94.3 37.4,92.3 37.6,91.6 
				37.7,91.5 38.1,90.3 38.4,89.6 38.4,89.6 38.9,88.5 39.7,87.2 39.7,87.1 39.9,86.8 41,85.2 41.3,84.9 42.3,83.7 43.6,82.4 
				45.1,81.2 46.7,80.1 48.3,79.3 50,78.6 50.9,78.3 51.2,78.3 51.8,78.1 53.6,77.8 55.5,77.6 59.3,77.6 57.4,77.8 55.6,78.1 
				53.8,78.6 52.1,79.3 50.4,80.1 48.9,81.2 47.4,82.4 46.1,83.7 44.8,85.2 43.7,86.8 42.7,88.5 41.9,90.3 41.2,92.3 40.6,94.3 
				40.2,96.4 40.1,97.8 40,100 40.1,102.2 40.3,104.3 40.8,106.4 41.4,108.4 42.1,110.3 43,112.1 44.1,113.7 45.2,115.3 46.5,116.7 
				47.9,118 49.4,119.2 51,120.2 52.6,121 54.4,121.6 56.2,122.1 57.4,122.2 			"/>
			<polygon class="st0" points="48.7,108.6 48.7,108.8 48.7,109.1 48.7,109.3 48.6,109.5 48.5,109.8 48.4,110 48.3,110.2 
				48.2,110.4 48,110.6 47.9,110.7 47.8,110.8 47.6,111 47.4,111.1 47.2,111.2 47,111.3 46.8,111.3 46.5,111.3 46.3,111.3 
				46.1,111.3 45.9,111.3 45.7,111.2 45.5,111.1 45.3,111 45.1,110.9 45,110.7 44.8,110.5 44.7,110.4 44.6,110.2 44.5,110.2 
				44.7,110 44.8,109.8 44.8,109.5 44.9,109.3 44.9,109.1 44.9,108.8 44.9,108.6 44.9,108.3 44.9,108.1 44.8,107.8 44.7,107.6 
				44.6,107.4 44.5,107.2 44.5,107.2 44.7,107 44.8,106.8 45,106.6 45.1,106.5 45.3,106.4 45.5,106.3 45.7,106.2 45.9,106.1 
				46.1,106.1 46.3,106 46.5,106 46.7,106.1 47,106.1 47.2,106.2 47.4,106.3 47.5,106.4 47.7,106.5 47.9,106.7 48.1,106.8 48.2,107 
				48.3,107.1 48.4,107.4 48.5,107.6 48.6,107.8 48.7,108.1 48.7,108.3 			"/>
			<polygon class="st0" points="48.6,91.2 48.7,91.4 48.6,91.7 48.6,91.9 48.6,92.1 48.5,92.4 48.4,92.5 48.3,92.8 48.2,93 
				48.1,93.2 47.9,93.4 47.8,93.5 47.6,93.7 47.4,93.8 47.2,93.9 47,94 46.8,94 46.6,94.1 46.4,94.1 46.2,94.1 46,94.1 45.8,94 
				45.6,93.9 45.4,93.9 45.2,93.7 45,93.6 44.9,93.4 44.7,93.3 44.6,93.1 44.5,92.9 44.6,92.8 44.7,92.5 44.7,92.4 44.8,92.1 
				44.8,91.9 44.9,91.7 44.9,91.4 44.9,91.2 44.8,90.9 44.8,90.7 44.7,90.5 44.6,90.2 44.5,90 44.5,90 44.5,89.9 44.6,89.7 
				44.8,89.5 45,89.4 45.1,89.2 45.3,89.1 45.5,89 45.7,88.9 45.9,88.9 46.1,88.8 46.3,88.8 46.5,88.8 46.8,88.9 47,88.9 47.2,89 
				47.3,89 47.5,89.2 47.7,89.3 47.9,89.5 48,89.6 48.2,89.8 48.3,90 48.4,90.2 48.5,90.5 48.6,90.7 48.6,90.9 			"/>
			<polygon class="st0" points="39.7,84 38.7,84.6 38.6,84.7 38.2,84.9 38.2,84.9 37.7,85.2 36.9,85.6 36.8,85.7 35.8,86.1 
				34.9,86.4 34,86.4 33.1,86.4 32.4,86.1 31.6,85.7 31.5,85.6 30.9,85.2 30.4,84.7 30.3,84.6 29.8,84 29.7,83.8 29.3,83.4 29.1,83 
				29,82.8 28.7,82.2 28.7,82.2 28.4,81.6 28.4,81.6 28.3,81.1 28.3,81 28.3,80.6 28.3,80.5 28.3,80.2 28.4,80 28.4,79.9 28.6,79.7 
				28.7,79.6 28.9,79.5 29,79.4 29.3,79.3 29.3,79.3 29.8,79.3 30.3,79.3 30.4,79.3 30.9,79.4 31.1,79.5 31.6,79.6 31.9,79.7 
				32.4,79.9 32.7,80 33.1,80.2 33.7,80.5 34,80.6 34.7,81 34.9,81.1 35.7,81.6 35.8,81.6 36.8,82.2 36.9,82.2 37.7,82.8 38.1,83 
				38.7,83.4 39.4,83.8 			"/>
			<polygon class="st0" points="37.7,114.8 38.2,115.1 38.6,115.3 38.7,115.4 39.7,116 39.4,116.2 38.7,116.6 38.1,117 37.7,117.2 
				36.9,117.8 36.8,117.8 35.8,118.4 35.7,118.4 34.9,118.9 34.7,119 34,119.4 33.7,119.5 33.1,119.8 32.7,120 32.4,120.1 
				31.9,120.3 31.6,120.4 31.1,120.5 30.9,120.6 30.4,120.7 30.3,120.7 29.8,120.7 29.3,120.7 29.3,120.7 29,120.6 28.9,120.5 
				28.7,120.4 28.6,120.3 28.4,120.1 28.4,120 28.3,119.8 28.3,119.5 28.3,119.4 28.3,119 28.3,118.9 28.4,118.4 28.4,118.4 
				28.7,117.8 28.7,117.8 29,117.2 29.1,117 29.3,116.6 29.7,116.2 29.8,116 30.3,115.4 30.4,115.3 30.9,114.8 31.5,114.4 
				31.6,114.3 32.4,113.9 33.1,113.6 34,113.6 34.9,113.6 35.8,113.9 36.8,114.3 36.9,114.4 			"/>
			<polygon class="st0" points="37.6,108.5 38.3,110.3 38.4,110.5 38.4,110.5 38.2,110.7 38.1,110.9 37.9,111 37.7,111.1 
				37.5,111.2 37.3,111.3 37.1,111.3 36.9,111.3 36.7,111.3 36.5,111.3 36.2,111.3 36,111.2 35.8,111.1 35.6,111 35.5,110.9 
				35.7,110.8 36.1,110.4 36.2,110.4 36.7,109.9 36.8,109.7 37.1,109.4 37.3,109 37.5,108.8 			"/>
			<polygon class="st0" points="35.9,89 36,89 36.2,88.9 36.4,88.9 36.7,88.8 36.9,88.8 37.1,88.8 37.3,88.9 37.5,88.9 37.7,89 
				37.9,89.1 38.1,89.2 38.2,89.4 38.4,89.5 38.4,89.6 38.1,90.3 37.7,91.5 37.6,91.6 37.5,91.2 37.3,91 37.1,90.6 36.8,90.3 
				36.7,90.1 36.2,89.6 36.1,89.6 35.7,89.2 35.6,89.2 35.7,89.2 			"/>
			<polygon class="st0" points="26.2,82.5 26.2,82.8 26.2,83 26.2,83.2 26.2,83.4 26.1,83.7 26,83.9 25.9,84.1 25.8,84.3 25.7,84.5 
				25.5,84.7 25.4,84.9 25.2,85 25,85.1 24.8,85.2 24.6,85.3 24.4,85.4 24.2,85.4 23.9,85.4 23.7,85.4 23.6,85.4 23.4,85.3 
				23.2,85.3 23,85.2 22.8,85 22.6,84.9 22.4,84.7 22.3,84.6 22.1,84.4 22.1,84.3 22.1,84.1 22.2,83.9 22.3,83.7 22.4,83.4 
				22.4,83.2 22.5,83 22.5,82.8 22.5,82.5 22.4,82.3 22.4,82 22.3,81.8 22.2,81.6 22.1,81.3 22.1,81.3 22.1,81.3 22.1,81.2 22.2,81 
				22.4,80.8 22.5,80.7 22.7,80.5 22.9,80.4 23.1,80.3 23.3,80.2 23.5,80.2 23.7,80.1 23.9,80.1 24.2,80.1 24.3,80.2 24.5,80.2 
				24.7,80.3 24.9,80.4 25.1,80.5 25.3,80.6 25.5,80.8 25.6,81 25.8,81.1 25.9,81.3 26,81.6 26.1,81.8 26.1,82 26.2,82.3 			"/>
			<polygon class="st0" points="26.1,117 26.1,117.2 26.1,117.5 26.1,117.7 26,117.9 26,118.1 25.9,118.4 25.8,118.6 25.7,118.8 
				25.5,119 25.4,119.2 25.2,119.3 25,119.5 24.9,119.6 24.7,119.7 24.5,119.8 24.3,119.8 24,119.9 23.8,119.9 23.6,119.9 
				23.4,119.8 23.2,119.8 23,119.7 22.8,119.6 22.6,119.5 22.5,119.4 22.3,119.2 22.1,119 22,118.9 21.9,118.7 22,118.6 22.1,118.4 
				22.2,118.1 22.2,117.9 22.3,117.7 22.3,117.5 22.3,117.2 22.3,117 22.3,116.7 22.2,116.5 22.2,116.2 22.1,116 22,115.8 
				21.9,115.7 21.9,115.7 22,115.7 22.1,115.5 22.2,115.3 22.4,115.1 22.6,115 22.8,114.9 23,114.8 23.2,114.7 23.4,114.6 
				23.6,114.6 23.8,114.6 24,114.6 24.2,114.6 24.4,114.7 24.6,114.7 24.8,114.8 25,115 25.2,115.1 25.3,115.3 25.5,115.4 
				25.6,115.6 25.7,115.8 25.8,116 25.9,116.2 26,116.5 26.1,116.7 			"/>
			<polygon class="st0" points="20.1,77.6 23.9,77.6 22,77.8 20.7,77.9 18.9,78.4 17.2,79 15.5,79.8 13.9,80.8 12.4,82 11.1,83.3 
				9.8,84.7 8.6,86.3 7.6,87.9 6.7,89.7 5.9,91.6 5.3,93.6 4.9,95.7 4.6,97.8 4.5,100 4.6,102.2 4.8,103.6 5.2,105.7 5.7,107.7 
				6.4,109.7 7.3,111.5 8.3,113.2 9.4,114.8 10.6,116.3 12,117.6 13.4,118.8 15,119.9 16.6,120.7 18.3,121.4 20.1,121.9 22,122.2 
				23.9,122.4 20.1,122.4 18.2,122.2 16.4,121.9 14.6,121.4 12.9,120.7 11.2,119.9 9.7,118.8 8.2,117.6 6.8,116.3 5.6,114.8 
				4.5,113.2 3.5,111.5 2.6,109.7 1.9,107.7 1.4,105.7 1,103.6 0.8,102.2 0.8,100 0.8,97.8 1.1,95.7 1.6,93.6 2.2,91.6 2.9,89.7 
				3.8,87.9 4.8,86.3 6,84.7 7.3,83.3 8.7,82 10.2,80.8 11.7,79.8 13.4,79 15.2,78.4 17,77.9 18.2,77.8 			"/>
			<polygon class="st0" points="13.3,91.2 13.3,91.4 13.3,91.7 13.2,91.9 13.2,92.2 13.1,92.4 13,92.6 12.9,92.9 12.8,93 12.6,93.2 
				12.5,93.3 12.3,93.5 12.1,93.6 11.9,93.7 11.7,93.8 11.5,93.9 11.3,93.9 11.1,94 10.9,94 10.7,93.9 10.5,93.9 10.3,93.8 10,93.7 
				9.8,93.6 9.7,93.5 9.5,93.4 9.4,93.2 9.2,93 9.1,92.8 9.1,92.8 9.2,92.6 9.3,92.4 9.4,92.2 9.4,91.9 9.5,91.7 9.5,91.4 9.5,91.2 
				9.5,90.9 9.4,90.7 9.4,90.5 9.3,90.2 9.2,90 9.1,89.8 9.1,89.8 9.2,89.6 9.4,89.5 9.5,89.3 9.7,89.1 9.9,89 10.1,88.9 10.3,88.8 
				10.5,88.7 10.7,88.7 10.9,88.7 11.1,88.7 11.3,88.7 11.5,88.7 11.7,88.8 11.9,88.9 12.1,89 12.3,89.2 12.4,89.3 12.6,89.4 
				12.8,89.6 12.9,89.8 13,90 13.1,90.2 13.2,90.5 13.2,90.7 13.3,90.9 			"/>
			<polygon class="st0" points="13.2,108.3 13.2,108.6 13.2,108.8 13.2,109.1 13.1,109.3 13,109.5 13,109.8 12.9,110 12.7,110.2 
				12.6,110.4 12.4,110.5 12.3,110.7 12.1,110.8 11.9,111 11.7,111 11.5,111.1 11.3,111.1 11.1,111.2 10.9,111.2 10.7,111.2 
				10.5,111.1 10.3,111.1 10.1,111 9.9,110.9 9.7,110.8 9.5,110.6 9.4,110.5 9.2,110.3 9.1,110.1 9,110 9.1,110 9.2,109.8 
				9.3,109.5 9.3,109.3 9.4,109.1 9.4,108.8 9.4,108.6 9.4,108.3 9.4,108.1 9.4,107.9 9.3,107.6 9.2,107.5 9.1,107.2 9,107.1 
				9.1,106.9 9.3,106.7 9.4,106.6 9.6,106.4 9.8,106.3 10,106.1 10.1,106.1 10.3,106 10.5,105.9 10.7,105.9 11,105.9 11.2,105.9 
				11.4,106 11.6,106 11.8,106.1 12,106.2 12.2,106.3 12.3,106.5 12.5,106.6 12.6,106.8 12.8,107 12.9,107.2 13,107.5 13.1,107.6 
				13.1,107.9 13.2,108.1 			"/>
		</g>
		<g>
			<line class="st1" x1="51.2" y1="121.8" x2="51.2" y2="131.7"/>
			<line class="st1" x1="51.2" y1="78.3" x2="51.2" y2="68.3"/>
			<polyline class="st1" points="28.3,131.7 28.3,121.8 28.3,119.4 			"/>
			<line class="st1" x1="62" y1="131.7" x2="62" y2="139.2"/>
			<line class="st1" x1="17.4" y1="139.2" x2="17.4" y2="131.7"/>
			<line class="st1" x1="62.1" y1="60.8" x2="62.1" y2="68.3"/>
			<line class="st1" x1="17.4" y1="68.3" x2="17.4" y2="60.8"/>
			<line class="st1" x1="44.3" y1="54.5" x2="44.3" y2="60.8"/>
			<line class="st1" x1="35.2" y1="60.8" x2="35.2" y2="54.5"/>
			<line class="st1" x1="35.2" y1="145.5" x2="35.2" y2="139.2"/>
			<line class="st1" x1="44.3" y1="139.2" x2="44.3" y2="145.5"/>
			<line class="st1" x1="34.3" y1="149.7" x2="34.3" y2="145.5"/>
			<line class="st1" x1="45.2" y1="145.5" x2="45.2" y2="149.7"/>
			<line class="st1" x1="45.2" y1="50.3" x2="45.2" y2="54.5"/>
			<line class="st1" x1="34.3" y1="54.5" x2="34.3" y2="50.3"/>
			<polyline class="st1" points="59.3,122.4 55.5,122.4 53.6,122.2 52.4,122.1 51.2,121.8 50.6,121.6 48.9,121 47.2,120.2 
				45.6,119.2 44.1,118 42.7,116.7 41.4,115.3 41.3,115.1 41.3,115.1 40.3,113.7 39.7,112.8 39.2,112.1 38.5,110.5 38.4,110.5 
				38.3,110.3 37.6,108.5 37.6,108.4 37,106.4 36.6,104.3 36.3,102.2 36.2,100 36.3,97.8 36.4,96.4 36.8,94.3 37.4,92.3 37.6,91.6 
				37.7,91.5 38.1,90.3 38.4,89.6 38.4,89.6 38.9,88.5 39.7,87.2 39.7,87.1 39.9,86.8 41,85.2 41.3,84.9 42.3,83.7 43.6,82.4 
				45.1,81.2 46.7,80.1 48.3,79.3 50,78.6 50.9,78.3 51.2,78.3 51.8,78.1 53.6,77.8 55.5,77.6 59.3,77.6 61.2,77.8 62.5,77.9 
				64.3,78.4 66,79 67.7,79.8 69.3,80.8 70.8,82 72.1,83.3 73.4,84.7 74.6,86.3 75.6,87.9 76.5,89.7 77.3,91.6 77.9,93.6 78.3,95.7 
				78.6,97.8 78.7,100 78.6,102.2 78.4,103.6 78,105.7 77.5,107.7 76.8,109.7 75.9,111.5 74.9,113.2 73.8,114.8 72.6,116.3 
				71.2,117.6 69.8,118.8 68.2,119.9 66.6,120.7 64.9,121.4 63.1,121.9 61.2,122.2 59.3,122.4 57.4,122.2 56.2,122.1 54.4,121.6 
				52.6,121 51,120.2 49.4,119.2 47.9,118 46.5,116.7 45.2,115.3 44.1,113.7 43,112.1 42.1,110.3 41.4,108.4 40.8,106.4 40.3,104.3 
				40.1,102.2 40,100 40.1,97.8 40.2,96.4 40.6,94.3 41.2,92.3 41.9,90.3 42.7,88.5 43.7,86.8 44.8,85.2 46.1,83.7 47.4,82.4 
				48.9,81.2 50.4,80.1 52.1,79.3 53.8,78.6 55.6,78.1 57.4,77.8 59.3,77.6 			"/>
			<polyline class="st1" points="64.6,94.5 62.5,94.5 62.1,94.6 61.7,94.6 61.3,94.7 60.9,94.9 60.5,95.1 60.1,95.3 59.9,95.4 
				59.3,95.4 58.6,95.5 58.3,95.6 58,95.7 57.7,95.9 57.3,96.1 57.1,96.3 56.8,96.5 56.5,96.8 56.3,97.1 56.1,97.4 55.9,97.7 
				55.7,98.1 55.6,98.4 55.5,98.8 55.4,99.2 55.4,99.6 55.4,100 55.4,100.4 55.4,100.8 55.5,101.2 55.6,101.6 55.7,101.9 
				55.9,102.3 55.9,102.3 56.1,102.6 56.3,102.9 56.5,103.2 56.8,103.5 57.1,103.7 57.3,103.9 57.7,104.1 58,104.3 58.3,104.4 
				58.6,104.5 59.3,104.6 59.9,104.6 60.1,104.7 60.5,104.9 60.9,105.1 61.3,105.3 61.7,105.4 62.1,105.4 62.5,105.5 64.6,105.5 
				65,105.4 65.4,105.4 65.8,105.3 66.2,105.1 66.6,104.9 66.9,104.7 67.3,104.5 67.6,104.2 67.9,103.9 68.2,103.5 68.4,103.1 
				68.7,102.7 68.8,102.3 69,101.9 69.1,101.4 69.2,100.9 69.3,100.5 69.3,100 69.3,99.5 69.2,99.1 69.1,98.6 69,98.1 68.8,97.7 
				68.7,97.3 68.4,96.9 68.2,96.5 67.9,96.1 67.6,95.8 67.3,95.5 66.9,95.3 66.6,95.1 66.2,94.9 65.8,94.7 65.4,94.6 65,94.6 
				64.6,94.5 64.2,94.6 63.7,94.6 63.3,94.7 62.9,94.9 62.6,95.1 62.2,95.3 61.9,95.5 61.5,95.8 61.2,96.1 60.9,96.5 60.7,96.9 
				60.5,97.3 60.3,97.7 60.1,98.1 60,98.6 59.9,99.1 59.9,99.5 59.8,100 59.9,100.5 59.9,100.9 60,101.4 60.1,101.9 60.3,102.3 
				60.5,102.7 60.7,103.1 60.9,103.5 61.2,103.9 61.5,104.2 61.9,104.5 62.2,104.7 62.6,104.9 62.9,105.1 63.3,105.3 63.7,105.4 
				64.2,105.4 64.6,105.5 			"/>
			<polyline class="st1" points="23.9,122.4 22,122.2 20.1,121.9 18.3,121.4 16.6,120.7 15,119.9 13.4,118.8 12,117.6 10.6,116.3 
				9.4,114.8 8.3,113.2 7.3,111.5 6.4,109.7 5.7,107.7 5.2,105.7 4.8,103.6 4.6,102.2 4.5,100 4.6,97.8 4.9,95.7 5.3,93.6 5.9,91.6 
				6.7,89.7 7.6,87.9 8.6,86.3 9.8,84.7 11.1,83.3 12.4,82 13.9,80.8 15.5,79.8 17.2,79 18.9,78.4 20.7,77.9 22,77.8 23.9,77.6 			
				"/>
			<polyline class="st1" points="28.3,121.8 27,122.1 25.8,122.2 23.9,122.4 20.1,122.4 18.2,122.2 16.4,121.9 14.6,121.4 
				12.9,120.7 11.2,119.9 9.7,118.8 8.2,117.6 6.8,116.3 5.6,114.8 4.5,113.2 3.5,111.5 2.6,109.7 1.9,107.7 1.4,105.7 1,103.6 
				0.8,102.2 0.8,100 0.8,97.8 1.1,95.7 1.6,93.6 2.2,91.6 2.9,89.7 3.8,87.9 4.8,86.3 6,84.7 7.3,83.3 8.7,82 10.2,80.8 11.7,79.8 
				13.4,79 15.2,78.4 17,77.9 18.2,77.8 20.1,77.6 23.9,77.6 25.8,77.8 27.6,78.1 28.3,78.3 			"/>
			<polyline class="st1" points="39.7,116 38.7,115.4 38.6,115.3 38.2,115.1 37.7,114.8 36.9,114.4 36.8,114.3 35.8,113.9 
				34.9,113.6 34,113.6 33.1,113.6 32.4,113.9 31.6,114.3 31.5,114.4 30.9,114.8 30.4,115.3 30.3,115.4 29.8,116 29.7,116.2 
				29.3,116.6 29.1,117 29,117.2 28.7,117.8 28.7,117.8 28.4,118.4 28.4,118.4 28.3,118.9 28.3,119 28.3,119.4 28.3,119.5 
				28.3,119.8 28.4,120 28.4,120.1 28.6,120.3 28.7,120.4 28.9,120.5 29,120.6 29.3,120.7 29.3,120.7 29.8,120.7 30.3,120.7 
				30.4,120.7 30.9,120.6 31.1,120.5 31.6,120.4 31.9,120.3 32.4,120.1 32.7,120 33.1,119.8 33.7,119.5 34,119.4 34.7,119 
				34.9,118.9 35.7,118.4 35.8,118.4 36.8,117.8 36.9,117.8 37.7,117.2 38.1,117 38.7,116.6 39.4,116.2 39.7,116 40.7,115.4 
				40.8,115.3 41.3,115.1 			"/>
			<polyline class="st1" points="39.7,112.8 39.1,113.7 38.2,115.1 			"/>
			<polyline class="st1" points="32.9,111.4 32,111.4 31,111.3 30,111.1 29.9,111 28.9,110.8 28,110.4 27.8,110.4 26.8,109.9 
				26.4,109.7 25.7,109.4 25.1,109 24.7,108.8 23.9,108.2 23.8,108.1 22.9,107.4 22.9,107.3 22.1,106.6 22,106.4 21.5,105.7 
				21.2,105.4 20.9,104.8 20.6,104.4 20.4,103.9 20.1,103.3 20,103 19.7,102.2 19.7,102 19.5,101.1 19.5,101 19.4,100 19.5,99 
				19.5,98.9 19.7,98 19.7,97.8 20,97 20.1,96.7 20.4,96.1 20.6,95.6 20.9,95.2 21.2,94.6 21.5,94.3 22,93.6 22.1,93.4 22.9,92.7 
				22.9,92.6 23.8,91.9 23.9,91.8 24.7,91.2 25.1,91 25.7,90.6 26.4,90.3 26.8,90.1 27.8,89.6 28,89.6 28.9,89.2 29.9,89 30,88.9 
				31,88.7 32,88.6 32.9,88.6 			"/>
			<polyline class="st1" points="41.3,84.9 40.8,84.7 40.7,84.6 39.7,84 39.4,83.8 38.7,83.4 38.1,83 37.7,82.8 36.9,82.2 
				36.8,82.2 35.8,81.6 35.7,81.6 34.9,81.1 34.7,81 34,80.6 33.7,80.5 33.1,80.2 32.7,80 32.4,79.9 31.9,79.7 31.6,79.6 31.1,79.5 
				30.9,79.4 30.4,79.3 30.3,79.3 29.8,79.3 29.3,79.3 29.3,79.3 29,79.4 28.9,79.5 28.7,79.6 28.6,79.7 28.4,79.9 28.4,80 
				28.3,80.2 28.3,80.5 28.3,80.6 28.3,81 28.3,81.1 28.4,81.6 28.4,81.6 28.7,82.2 28.7,82.2 29,82.8 29.1,83 29.3,83.4 29.7,83.8 
				29.8,84 30.3,84.6 30.4,84.7 30.9,85.2 31.5,85.6 31.6,85.7 32.4,86.1 33.1,86.4 34,86.4 34.9,86.4 35.8,86.1 36.8,85.7 
				36.9,85.6 37.7,85.2 38.2,84.9 38.2,84.9 38.6,84.7 38.7,84.6 39.7,84 			"/>
			<polyline class="st1" points="37.6,108.5 37.5,108.8 37.3,109 37.1,109.4 36.8,109.7 36.7,109.9 36.2,110.4 36.1,110.4 
				35.7,110.8 35.5,110.9 35.5,110.9 35.2,111 35.1,111.1 34.5,111.3 33.8,111.4 32.9,111.4 23.9,111.4 23,111.4 22.2,111.3 
				21.3,111.1 21.3,111.1 20.5,110.8 20.5,110.7 19.7,110.4 18.9,109.9 18.9,109.9 18.2,109.4 18.2,109.4 17.5,108.8 17.5,108.7 
				16.9,108.1 16.3,107.4 16.3,107.4 16.2,107.2 15.8,106.6 15.8,106.6 15.3,105.7 14.9,104.9 14.9,104.8 14.9,104.8 14.6,103.9 
				14.6,103.9 14.3,103 14.3,102.9 14.1,102 14.1,102 14,101 14,100 14,99 14.1,98 14.1,98 14.3,97.1 14.3,97 14.6,96.1 14.6,96.1 
				14.9,95.2 14.9,95.2 15.3,94.3 15.3,94.3 15.3,94.2 15.8,93.4 15.8,93.4 16.3,92.7 16.3,92.6 16.3,92.6 16.9,91.9 17.5,91.3 
				17.5,91.2 18.2,90.6 18.2,90.6 18.9,90.1 18.9,90.1 19.7,89.6 20.5,89.3 20.5,89.2 21.3,88.9 21.3,88.9 22.2,88.7 23,88.6 
				23.9,88.6 32.9,88.6 33.8,88.6 34.5,88.7 35.1,88.9 35.2,89 35.6,89.2 35.7,89.2 36.1,89.6 36.2,89.6 36.7,90.1 36.8,90.3 
				37.1,90.6 37.3,91 37.5,91.2 37.6,91.6 			"/>
			<polyline class="st1" points="38.2,84.9 38.4,85.2 39.5,86.8 39.7,87.2 			"/>
			<polyline class="st1" points="57,82.8 57,83 57,83.2 57,83.4 57.1,83.7 57.2,83.9 57.3,84.1 57.4,84.3 57.4,84.3 57.4,84.3 
				57.5,84.5 57.7,84.7 57.8,84.9 58,85 58.2,85.1 58.4,85.2 58.6,85.3 58.8,85.4 59,85.4 59.3,85.4 59.5,85.4 59.6,85.4 59.8,85.3 
				60,85.3 60.2,85.2 60.4,85 60.6,84.9 60.8,84.7 60.9,84.6 61.1,84.4 61.2,84.2 61.3,84 61.4,83.8 61.4,83.5 61.5,83.3 61.5,83 
				61.5,82.8 61.5,82.5 61.5,82.3 61.5,82.1 61.4,81.9 61.3,81.6 61.2,81.4 61.1,81.2 61,81 60.8,80.8 60.7,80.7 60.5,80.5 
				60.3,80.4 60.1,80.3 59.9,80.2 59.7,80.2 59.5,80.1 59.3,80.1 59,80.1 58.9,80.2 58.7,80.2 58.5,80.3 58.3,80.4 58.1,80.5 
				57.9,80.6 57.7,80.8 57.6,81 57.4,81.1 57.4,81.3 57.3,81.3 57.2,81.6 57.1,81.8 57.1,82 57,82.3 57,82.5 57,82.8 			"/>
			<polyline class="st1" points="13.2,92.2 13.2,91.9 13.3,91.7 13.3,91.4 13.3,91.2 13.3,90.9 13.2,90.7 13.2,90.5 13.1,90.2 
				13,90 12.9,89.8 12.8,89.6 12.6,89.4 12.4,89.3 12.3,89.2 12.1,89 11.9,88.9 11.7,88.8 11.5,88.7 11.3,88.7 11.1,88.7 10.9,88.7 
				10.7,88.7 10.5,88.7 10.3,88.8 10.1,88.9 9.9,89 9.7,89.1 9.5,89.3 9.4,89.5 9.2,89.6 9.1,89.8 9.1,89.8 9,90 8.9,90.2 8.8,90.5 
				8.8,90.7 8.7,90.9 8.7,91.2 8.7,91.4 8.7,91.7 8.8,91.9 8.8,92.2 8.9,92.4 9,92.6 9.1,92.8 9.1,92.8 9.2,93 9.4,93.2 9.5,93.4 
				9.7,93.5 9.8,93.6 10,93.7 10.3,93.8 10.5,93.9 10.7,93.9 10.9,94 11.1,94 11.3,93.9 11.5,93.9 11.7,93.8 11.9,93.7 12.1,93.6 
				12.3,93.5 12.5,93.3 12.6,93.2 12.8,93 12.9,92.9 13,92.6 13.1,92.4 13.2,92.2 			"/>
			<polyline class="st1" points="70.7,106.6 70.6,106.8 70.4,107 70.4,107.1 70.3,107.2 70.2,107.5 70.1,107.6 70.1,107.9 70,108.1 
				70,108.3 70,108.6 70,108.8 70,109.1 70.1,109.3 70.2,109.5 70.2,109.8 70.3,110 70.4,110 70.5,110.2 70.6,110.4 70.8,110.5 
				70.9,110.7 71.1,110.8 71.3,111 71.5,111 71.7,111.1 71.9,111.1 72.1,111.2 72.3,111.2 72.5,111.2 72.7,111.1 72.9,111.1 
				73.1,111 73.3,110.9 73.5,110.8 73.7,110.6 73.9,110.5 74,110.3 74.1,110.1 74.3,109.9 74.4,109.6 74.4,109.5 74.5,109.2 
				74.5,109 74.6,108.8 74.6,108.5 74.6,108.3 74.5,108 74.5,107.8 74.4,107.6 74.3,107.3 74.2,107.1 74.1,106.9 73.9,106.7 
				73.8,106.6 73.6,106.4 73.4,106.3 73.2,106.1 73.1,106.1 72.9,106 72.7,105.9 72.5,105.9 72.2,105.9 72,105.9 71.8,106 71.6,106 
				71.4,106.1 71.2,106.2 71,106.3 70.9,106.5 70.7,106.6 			"/>
			<polyline class="st1" points="70.8,89.3 70.6,89.4 70.5,89.6 70.3,89.8 70.3,89.8 70.2,90 70.1,90.2 70,90.5 70,90.7 69.9,90.9 
				69.9,91.2 69.9,91.4 69.9,91.7 70,91.9 70,92.2 70.1,92.4 70.2,92.6 70.3,92.8 70.3,92.9 70.4,93 70.6,93.2 70.7,93.3 70.9,93.5 
				71.1,93.6 71.3,93.7 71.5,93.8 71.7,93.9 71.9,93.9 72.1,94 72.3,94 72.5,93.9 72.7,93.9 72.9,93.8 73.2,93.7 73.4,93.6 
				73.5,93.5 73.7,93.4 73.8,93.2 74,93 74.1,92.8 74.2,92.6 74.3,92.4 74.4,92.2 74.4,91.9 74.5,91.7 74.5,91.4 74.5,91.2 
				74.5,90.9 74.4,90.7 74.4,90.5 74.3,90.2 74.2,90 74.1,89.8 74,89.6 73.8,89.5 73.7,89.3 73.5,89.1 73.3,89 73.1,88.9 72.9,88.8 
				72.7,88.7 72.5,88.7 72.3,88.7 72.1,88.7 71.9,88.7 71.7,88.7 71.5,88.8 71.3,88.9 71.1,89 70.9,89.2 70.8,89.3 			"/>
			<polyline class="st1" points="25.5,84.7 25.7,84.5 25.8,84.3 25.9,84.1 26,83.9 26.1,83.7 26.2,83.4 26.2,83.2 26.2,83 
				26.2,82.8 26.2,82.5 26.2,82.3 26.1,82 26.1,81.8 26,81.6 25.9,81.3 25.8,81.1 25.6,81 25.5,80.8 25.3,80.6 25.1,80.5 24.9,80.4 
				24.7,80.3 24.5,80.2 24.3,80.2 24.2,80.1 23.9,80.1 23.7,80.1 23.5,80.2 23.3,80.2 23.1,80.3 22.9,80.4 22.7,80.5 22.5,80.7 
				22.4,80.8 22.2,81 22.1,81.2 22.1,81.3 22.1,81.3 22,81.4 21.9,81.6 21.8,81.9 21.7,82.1 21.7,82.3 21.7,82.5 21.7,82.8 21.7,83 
				21.7,83.3 21.8,83.5 21.8,83.8 21.9,84 22,84.2 22.1,84.3 22.1,84.4 22.3,84.6 22.4,84.7 22.6,84.9 22.8,85 23,85.2 23.2,85.3 
				23.4,85.3 23.6,85.4 23.7,85.4 23.9,85.4 24.2,85.4 24.4,85.4 24.6,85.3 24.8,85.2 25,85.1 25.2,85 25.4,84.9 25.5,84.7 			"/>
			<polyline class="st1" points="57.9,115.3 57.7,115.4 57.6,115.6 57.5,115.7 57.5,115.8 57.4,116 57.3,116.2 57.2,116.5 
				57.1,116.7 57.1,117 57.1,117.2 57.1,117.5 57.1,117.7 57.2,117.9 57.2,118.1 57.3,118.4 57.4,118.6 57.5,118.7 57.5,118.7 
				57.5,118.8 57.7,119 57.8,119.2 58,119.3 58.2,119.5 58.3,119.6 58.5,119.7 58.7,119.8 58.9,119.8 59.2,119.9 59.4,119.9 
				59.6,119.9 59.8,119.8 60,119.8 60.2,119.7 60.4,119.6 60.6,119.5 60.7,119.4 60.9,119.2 61.1,119 61.2,118.9 61.3,118.7 
				61.4,118.4 61.5,118.2 61.6,118 61.6,117.7 61.7,117.5 61.7,117.2 61.7,117 61.6,116.8 61.6,116.6 61.5,116.3 61.5,116.1 
				61.4,115.9 61.2,115.7 61.1,115.5 61,115.3 60.8,115.1 60.6,115 60.4,114.9 60.2,114.8 60,114.7 59.8,114.6 59.6,114.6 
				59.4,114.6 59.2,114.6 59,114.6 58.8,114.7 58.6,114.7 58.4,114.8 58.2,115 58,115.1 57.9,115.3 			"/>
			<polyline class="st1" points="25.3,115.3 25.2,115.1 25,115 24.8,114.8 24.6,114.7 24.4,114.7 24.2,114.6 24,114.6 23.8,114.6 
				23.6,114.6 23.4,114.6 23.2,114.7 23,114.8 22.8,114.9 22.6,115 22.4,115.1 22.2,115.3 22.1,115.5 22,115.7 21.9,115.7 
				21.9,115.7 21.8,115.9 21.7,116.1 21.7,116.3 21.6,116.6 21.6,116.8 21.5,117 21.5,117.2 21.5,117.5 21.6,117.7 21.6,118 
				21.7,118.2 21.8,118.4 21.9,118.7 21.9,118.7 22,118.9 22.1,119 22.3,119.2 22.5,119.4 22.6,119.5 22.8,119.6 23,119.7 
				23.2,119.8 23.4,119.8 23.6,119.9 23.8,119.9 24,119.9 24.3,119.8 24.5,119.8 24.7,119.7 24.9,119.6 25,119.5 25.2,119.3 
				25.4,119.2 25.5,119 25.7,118.8 25.8,118.6 25.9,118.4 26,118.1 26,117.9 26.1,117.7 26.1,117.5 26.1,117.2 26.1,117 26.1,116.7 
				26,116.5 25.9,116.2 25.8,116 25.7,115.8 25.6,115.6 25.5,115.4 25.3,115.3 			"/>
			<polyline class="st1" points="45.9,106.1 45.7,106.2 45.5,106.3 45.3,106.4 45.1,106.5 45,106.6 44.8,106.8 44.7,107 44.5,107.2 
				44.5,107.2 44.4,107.4 44.3,107.6 44.3,107.8 44.2,108.1 44.2,108.3 44.1,108.6 44.1,108.8 44.2,109.1 44.2,109.3 44.3,109.5 
				44.3,109.8 44.5,110 44.5,110.2 44.6,110.2 44.7,110.4 44.8,110.5 45,110.7 45.1,110.9 45.3,111 45.5,111.1 45.7,111.2 
				45.9,111.3 46.1,111.3 46.3,111.3 46.5,111.3 46.8,111.3 47,111.3 47.2,111.2 47.4,111.1 47.6,111 47.8,110.8 47.9,110.7 
				48,110.6 48.2,110.4 48.3,110.2 48.4,110 48.5,109.8 48.6,109.5 48.7,109.3 48.7,109.1 48.7,108.8 48.7,108.6 48.7,108.3 
				48.7,108.1 48.6,107.8 48.5,107.6 48.4,107.4 48.3,107.1 48.2,107 48.1,106.8 47.9,106.7 47.7,106.5 47.5,106.4 47.4,106.3 
				47.2,106.2 47,106.1 46.7,106.1 46.5,106 46.3,106 46.1,106.1 45.9,106.1 			"/>
			<polyline class="st1" points="45.8,94 46,94.1 46.2,94.1 46.4,94.1 46.6,94.1 46.8,94 47,94 47.2,93.9 47.4,93.8 47.6,93.7 
				47.8,93.5 47.9,93.4 48.1,93.2 48.2,93 48.3,92.8 48.4,92.5 48.5,92.4 48.6,92.1 48.6,91.9 48.6,91.7 48.7,91.4 48.6,91.2 
				48.6,90.9 48.6,90.7 48.5,90.5 48.4,90.2 48.3,90 48.2,89.8 48,89.6 47.9,89.5 47.7,89.3 47.5,89.2 47.3,89 47.2,89 47,88.9 
				46.8,88.9 46.5,88.8 46.3,88.8 46.1,88.8 45.9,88.9 45.7,88.9 45.5,89 45.3,89.1 45.1,89.2 45,89.4 44.8,89.5 44.6,89.7 
				44.5,89.9 44.5,90 44.4,90.1 44.3,90.4 44.2,90.5 44.2,90.8 44.1,91 44.1,91.3 44.1,91.5 44.1,91.7 44.1,92 44.2,92.2 44.2,92.4 
				44.3,92.7 44.4,92.9 44.5,92.9 44.6,93.1 44.7,93.3 44.9,93.4 45,93.6 45.2,93.7 45.4,93.9 45.6,93.9 45.8,94 			"/>
			<polyline class="st1" points="44.5,107.2 44.6,107.4 44.7,107.6 44.8,107.8 44.9,108.1 44.9,108.3 44.9,108.6 44.9,108.8 
				44.9,109.1 44.9,109.3 44.8,109.5 44.8,109.8 44.7,110 44.5,110.2 			"/>
			<polyline class="st1" points="9.1,92.8 9.2,92.6 9.3,92.4 9.4,92.2 9.4,91.9 9.5,91.7 9.5,91.4 9.5,91.2 9.5,90.9 9.4,90.7 
				9.4,90.5 9.3,90.2 9.2,90 9.1,89.8 			"/>
			<polyline class="st1" points="70.3,89.8 70.4,90 70.5,90.2 70.6,90.5 70.7,90.7 70.7,90.9 70.7,91.2 70.7,91.4 70.7,91.7 
				70.7,91.9 70.6,92.2 70.5,92.4 70.4,92.6 70.3,92.8 			"/>
			<polyline class="st1" points="13.1,107.6 13,107.5 12.9,107.2 12.8,107 12.6,106.8 12.5,106.6 12.3,106.5 12.2,106.3 12,106.2 
				11.8,106.1 11.6,106 11.4,106 11.2,105.9 11,105.9 10.7,105.9 10.5,105.9 10.3,106 10.1,106.1 10,106.1 9.8,106.3 9.6,106.4 
				9.4,106.6 9.3,106.7 9.1,106.9 9,107.1 9,107.1 8.9,107.3 8.8,107.6 8.7,107.8 8.7,108 8.6,108.3 8.6,108.5 8.6,108.8 8.7,109 
				8.7,109.2 8.8,109.5 8.8,109.6 8.9,109.9 9,110 9.1,110.1 9.2,110.3 9.4,110.5 9.5,110.6 9.7,110.8 9.9,110.9 10.1,111 
				10.3,111.1 10.5,111.1 10.7,111.2 10.9,111.2 11.1,111.2 11.3,111.1 11.5,111.1 11.7,111 11.9,111 12.1,110.8 12.3,110.7 
				12.4,110.5 12.6,110.4 12.7,110.2 12.9,110 13,109.8 13,109.5 13.1,109.3 13.2,109.1 13.2,108.8 13.2,108.6 13.2,108.3 
				13.2,108.1 13.1,107.9 13.1,107.6 			"/>
			<polyline class="st1" points="57.4,81.3 57.4,81.4 57.5,81.6 57.6,81.9 57.7,82.1 57.7,82.3 57.8,82.5 57.8,82.8 57.8,83 
				57.7,83.3 57.7,83.5 57.6,83.8 57.5,84 57.4,84.2 57.4,84.3 			"/>
			<polyline class="st1" points="57.5,115.7 57.6,115.9 57.7,116.1 57.8,116.3 57.8,116.6 57.9,116.8 57.9,117 57.9,117.2 
				57.9,117.5 57.9,117.7 57.8,118 57.7,118.2 57.6,118.4 57.5,118.7 57.5,118.7 			"/>
			<polyline class="st1" points="21.9,118.7 22,118.6 22.1,118.4 22.2,118.1 22.2,117.9 22.3,117.7 22.3,117.5 22.3,117.2 22.3,117 
				22.3,116.7 22.2,116.5 22.2,116.2 22.1,116 22,115.8 21.9,115.7 			"/>
			<polyline class="st1" points="22.1,84.3 22.1,84.1 22.2,83.9 22.3,83.7 22.4,83.4 22.4,83.2 22.5,83 22.5,82.8 22.5,82.5 
				22.4,82.3 22.4,82 22.3,81.8 22.2,81.6 22.1,81.3 22.1,81.3 			"/>
			<polyline class="st1" points="38.4,110.5 38.4,110.5 38.2,110.7 38.1,110.9 37.9,111 37.7,111.1 37.5,111.2 37.3,111.3 
				37.1,111.3 36.9,111.3 36.7,111.3 36.5,111.3 36.2,111.3 36,111.2 35.8,111.1 35.6,111 35.5,110.9 			"/>
			<polyline class="st1" points="9,110 9.1,110 9.2,109.8 9.3,109.5 9.3,109.3 9.4,109.1 9.4,108.8 9.4,108.6 9.4,108.3 9.4,108.1 
				9.4,107.9 9.3,107.6 9.2,107.5 9.1,107.2 9,107.1 			"/>
			<polyline class="st1" points="44.5,90 44.5,90 44.6,90.2 44.7,90.5 44.8,90.7 44.8,90.9 44.9,91.2 44.9,91.4 44.9,91.7 
				44.8,91.9 44.8,92.1 44.7,92.4 44.7,92.5 44.6,92.8 44.5,92.9 			"/>
			<polyline class="st1" points="70.4,107.1 70.4,107.1 70.5,107.3 70.6,107.6 70.7,107.8 70.7,108 70.8,108.3 70.8,108.5 
				70.8,108.8 70.8,109 70.7,109.2 70.6,109.5 70.6,109.6 70.5,109.9 70.4,110 			"/>
			<polyline class="st1" points="35.6,89.2 35.7,89.2 35.9,89 36,89 36.2,88.9 36.4,88.9 36.7,88.8 36.9,88.8 37.1,88.8 37.3,88.9 
				37.5,88.9 37.7,89 37.9,89.1 38.1,89.2 38.2,89.4 38.4,89.5 38.4,89.6 			"/>
			<polyline class="st1" points="17.4,68.3 17.4,68.3 17.7,68.3 18.1,68.3 18.8,68.3 19.4,68.3 20.4,68.3 21.5,68.3 22.9,68.3 
				24.4,68.3 26,68.3 27.7,68.3 28.3,68.3 29.4,68.3 31.3,68.3 33.3,68.3 35.3,68.3 37.3,68.3 39.4,68.3 41.4,68.3 43.5,68.3 
				45.6,68.3 47.6,68.3 48.9,68.3 50.9,68.3 51.2,68.3 52.7,68.3 54.4,68.3 56,68.3 57.3,68.3 58.5,68.3 59.6,68.3 60.4,68.3 
				61.1,68.3 61.6,68.3 61.9,68.3 62.1,68.3 			"/>
			<polyline class="st1" points="17.4,60.8 17.4,60.8 17.7,60.8 18.1,60.8 18.8,60.8 19.4,60.8 20.4,60.8 21.5,60.8 22.9,60.8 
				24.4,60.8 26,60.8 27.7,60.8 29.4,60.8 31.3,60.8 33.3,60.8 35.2,60.8 35.3,60.8 37.3,60.8 39.4,60.8 41.4,60.8 43.5,60.8 
				44.3,60.8 45.6,60.8 47.6,60.8 48.9,60.8 50.9,60.8 52.7,60.8 54.4,60.8 56,60.8 57.3,60.8 58.5,60.8 59.6,60.8 60.4,60.8 
				61.1,60.8 61.6,60.8 61.9,60.8 62.1,60.8 			"/>
			<polyline class="st1" points="45.2,145.5 45.1,145.5 45.1,145.5 45,145.5 44.8,145.5 44.7,145.5 44.4,145.5 44.3,145.5 
				44.2,145.5 43.9,145.5 43.6,145.5 43.2,145.5 42.8,145.5 42.4,145.5 42,145.5 41.6,145.5 41.1,145.5 40.7,145.5 40.2,145.5 
				39.7,145.5 39.2,145.5 38.8,145.5 38.3,145.5 37.8,145.5 37.4,145.5 37,145.5 36.6,145.5 36.2,145.5 35.9,145.5 35.5,145.5 
				35.2,145.5 35.2,145.5 35,145.5 34.8,145.5 34.6,145.5 34.4,145.5 34.3,145.5 34.3,145.5 34.3,145.5 			"/>
			<polyline class="st1" points="45.2,149.7 45.1,149.7 45.1,149.7 45,149.7 44.8,149.7 44.7,149.7 44.4,149.7 44.2,149.7 
				43.9,149.7 43.6,149.7 43.2,149.7 42.8,149.7 42.4,149.7 42,149.7 41.6,149.7 41.1,149.7 40.7,149.7 40.2,149.7 39.7,149.7 
				39.2,149.7 38.8,149.7 38.3,149.7 37.8,149.7 37.4,149.7 37,149.7 36.6,149.7 36.2,149.7 35.9,149.7 35.5,149.7 35.2,149.7 
				35,149.7 34.8,149.7 34.6,149.7 34.4,149.7 34.3,149.7 34.3,149.7 34.3,149.7 			"/>
			<polyline class="st1" points="34.3,54.5 34.3,54.5 34.3,54.5 34.4,54.5 34.6,54.5 34.8,54.5 35,54.5 35.2,54.5 35.2,54.5 
				35.5,54.5 35.9,54.5 36.2,54.5 36.6,54.5 37,54.5 37.4,54.5 37.8,54.5 38.3,54.5 38.8,54.5 39.2,54.5 39.7,54.5 40.2,54.5 
				40.7,54.5 41.1,54.5 41.6,54.5 42,54.5 42.4,54.5 42.8,54.5 43.2,54.5 43.6,54.5 43.9,54.5 44.2,54.5 44.3,54.5 44.4,54.5 
				44.7,54.5 44.8,54.5 45,54.5 45.1,54.5 45.1,54.5 45.2,54.5 			"/>
			<polyline class="st1" points="34.3,50.3 34.3,50.3 34.3,50.3 34.4,50.3 34.6,50.3 34.8,50.3 35,50.3 35.2,50.3 35.5,50.3 
				35.9,50.3 36.2,50.3 36.6,50.3 37,50.3 37.4,50.3 37.8,50.3 38.3,50.3 38.8,50.3 39.2,50.3 39.7,50.3 40.2,50.3 40.7,50.3 
				41.1,50.3 41.6,50.3 42,50.3 42.4,50.3 42.8,50.3 43.2,50.3 43.6,50.3 43.9,50.3 44.2,50.3 44.4,50.3 44.7,50.3 44.8,50.3 
				45,50.3 45.1,50.3 45.1,50.3 45.2,50.3 			"/>
			<polyline class="st1" points="62,139.2 62,139.2 61.9,139.2 61.5,139.2 60.9,139.2 60.2,139.2 59.2,139.2 58.2,139.2 56.9,139.2 
				55.5,139.2 53.9,139.2 52.7,139.2 50.9,139.2 48.9,139.2 46.9,139.2 44.9,139.2 44.3,139.2 42.8,139.2 40.7,139.2 38.7,139.2 
				36.6,139.2 35.2,139.2 34.6,139.2 32.6,139.2 30.7,139.2 28.8,139.2 27.1,139.2 25.4,139.2 23.9,139.2 22.4,139.2 21.5,139.2 
				20.4,139.2 19.4,139.2 18.6,139.2 18,139.2 17.6,139.2 17.4,139.2 			"/>
			<polyline class="st1" points="62,131.7 62,131.7 61.9,131.7 61.5,131.7 60.9,131.7 60.2,131.7 59.2,131.7 58.2,131.7 56.9,131.7 
				55.5,131.7 53.9,131.7 52.7,131.7 51.2,131.7 50.9,131.7 48.9,131.7 46.9,131.7 44.9,131.7 42.8,131.7 40.7,131.7 38.7,131.7 
				36.6,131.7 34.6,131.7 32.6,131.7 30.7,131.7 28.8,131.7 28.3,131.7 27.1,131.7 25.4,131.7 23.9,131.7 22.4,131.7 21.5,131.7 
				20.4,131.7 19.4,131.7 18.6,131.7 18,131.7 17.6,131.7 17.4,131.7 			"/>
			<polyline class="st1" points="28.3,80.6 28.3,78.3 28.3,68.3 			"/>
			<polyline class="st1" points="59.9,95.4 59.8,95.5 59.4,95.8 59.1,96.1 58.9,96.5 58.6,96.9 58.4,97.3 58.2,97.7 58,98.1 
				57.9,98.6 57.8,99.1 57.8,99.5 57.7,100 57.8,100.5 57.8,100.9 57.9,101.4 58,101.9 58.2,102.3 58.4,102.7 58.6,103.1 
				58.9,103.5 59.1,103.9 59.4,104.2 59.8,104.5 59.9,104.6 			"/>
		</g>
	</g>
</g>
</svg>
