<?xml version="1.0" encoding="utf-8"?>
<!-- Generator: Adobe Illustrator 21.0.0, SVG Export Plug-In . SVG Version: 6.00 Build 0)  -->
<svg version="1.1" id="Layer_1" xmlns="http://www.w3.org/2000/svg" xmlns:xlink="http://www.w3.org/1999/xlink" x="0px" y="0px"
	 viewBox="0 0 148.1 200" style="enable-background:new 0 0 148.1 200;" xml:space="preserve">
<style type="text/css">
	.st0{fill:#ECF0F1;}
	.st1{fill:none;stroke:#000000;stroke-width:1.5;stroke-linecap:round;stroke-linejoin:round;stroke-miterlimit:10;}
</style>
<g id="XMLID_52_">
	<g>
		<polygon class="st0" points="117.5,105.1 117.6,105.2 117.7,105.4 117.8,105.5 117.9,105.6 118,105.8 118.1,105.9 118.3,106 
			118.4,106.2 118.5,106.3 118.6,106.4 118.7,106.6 118.8,106.7 118.9,106.8 119,106.8 119,106.8 119,106.8 119.1,106.9 119.2,107 
			119.2,107 119.3,107.1 119.3,107.1 119.4,107.2 119.5,107.2 119.7,107.3 119.8,107.4 119.9,107.5 120.1,107.6 120.2,107.7 
			120.4,107.8 120.5,107.8 120.7,107.9 120.8,108 120.8,108 121,108 121.1,108.1 121.3,108.2 121.4,108.2 121.6,108.3 121.7,108.3 
			121.9,108.4 122.1,108.4 122.2,108.4 122.4,108.5 122.5,108.5 122.7,108.5 122.8,108.5 123,108.5 123.2,108.6 123.3,108.6 
			123.5,108.6 123.7,108.6 123.8,108.6 123.8,108.6 126.2,110.3 128.6,112.1 130.9,114 133.1,116 134.2,117.1 135.2,118.2 
			137,120.5 138.7,123.2 140,126.2 141.1,129.5 141.9,133.1 142.5,137 142.8,141.1 143.1,145.4 143.2,149.8 143.2,154.3 
			143.2,156.9 129.7,156.9 129.7,156.8 128.6,156.5 127.6,156.1 126.5,155.7 125.5,155.3 124.4,154.8 123.4,154.3 122.4,153.9 
			121.4,153.3 120.4,152.8 119.4,152.2 118.4,151.6 117.4,150.9 116.4,150.3 115.5,149.6 114.6,148.9 113.7,148.2 112.8,147.4 
			111.9,146.7 111,145.9 110.1,145.1 109.3,144.2 108.5,143.4 107.7,142.5 106.9,141.6 106.1,140.7 105.3,139.7 104.6,138.8 
			103.9,137.8 103.2,136.8 102.5,135.8 101.8,134.8 101.2,133.7 100.5,132.7 99.9,131.6 99.3,130.5 98.8,129.4 98.2,128.3 
			97.7,127.2 97.2,126 96.7,124.9 96.3,123.7 95.8,122.5 95.4,121.3 95,120.1 94.6,118.9 94.3,117.7 94,116.5 93.7,115.2 93.4,114 
			93.2,112.7 92.9,111.5 92.7,110.2 92.5,109 92.4,107.7 92.2,106.4 92.1,105.1 92,103.8 92,102.6 92,101.3 91.9,100 92,98.7 
			92,97.4 92,96.2 92.1,94.9 92.2,93.6 92.4,92.3 92.5,91.1 92.7,89.8 92.9,88.5 93.2,87.3 93.4,86 93.7,84.8 94,83.5 94.3,82.3 
			94.6,81.1 95,79.9 95.4,78.7 95.8,77.5 96.3,76.3 96.7,75.1 97.2,74 97.7,72.8 98.2,71.7 98.8,70.6 99.3,69.5 99.9,68.4 
			100.5,67.3 101.2,66.3 101.8,65.2 102.5,64.2 103.2,63.2 103.9,62.2 104.6,61.2 105.3,60.3 106.1,59.3 106.9,58.4 107.7,57.5 
			108.5,56.6 109.3,55.8 110.1,54.9 111,54.1 111.9,53.3 112.8,52.6 113.7,51.8 114.6,51.1 115.5,50.4 116.4,49.7 117.4,49.1 
			118.4,48.4 119.4,47.8 120.4,47.3 121.4,46.7 122.4,46.2 123.4,45.7 124.4,45.2 125.5,44.7 126.5,44.3 127.6,43.9 128.6,43.5 
			129.7,43.2 130,43.1 143.2,43.1 143.2,50.2 143.1,54.6 142.8,58.9 142.5,63 141.9,66.9 141.1,70.5 140,73.8 138.7,76.8 137,79.5 
			135.2,81.9 134.2,82.9 133.1,84 130.9,86 128.6,87.9 126.2,89.7 123.8,91.5 123.8,91.5 123.7,91.5 123.5,91.5 123.3,91.5 
			123.2,91.5 123,91.5 122.8,91.5 122.7,91.5 122.5,91.5 122.4,91.6 122.2,91.6 122.1,91.6 121.9,91.7 121.7,91.7 121.6,91.8 
			121.4,91.8 121.3,91.8 121.1,91.9 121,92 120.8,92 120.8,92 120.7,92.1 120.5,92.2 120.4,92.3 120.2,92.3 120.1,92.4 119.9,92.5 
			119.8,92.6 119.7,92.7 119.5,92.8 119.4,92.9 119.3,93 119.2,93 119.2,93.1 119.1,93.1 119,93.2 119,93.2 119,93.2 118.9,93.2 
			118.8,93.3 118.7,93.5 118.6,93.6 118.5,93.7 118.4,93.8 118.3,94 118.1,94.1 118,94.2 117.9,94.4 117.8,94.5 117.7,94.6 
			117.6,94.8 117.5,95 117.4,95.1 117.3,95.3 117.3,95.4 117.2,95.6 117.1,95.7 117,95.9 116.9,96.1 116.8,96.2 116.8,96.4 
			116.7,96.6 116.6,96.7 116.6,96.9 116.5,97.1 116.5,97.3 116.4,97.4 116.4,97.6 116.3,97.8 116.3,98 116.3,98.2 116.2,98.3 
			116.2,98.5 116.2,98.7 116.1,98.9 116.1,99.1 116.1,99.3 116.1,99.4 116.1,99.6 116.1,99.8 116.1,100 116.1,100.2 116.1,100.4 
			116.1,100.6 116.1,100.8 116.1,100.9 116.1,101.1 116.2,101.3 116.2,101.5 116.2,101.7 116.3,101.9 116.3,102 116.3,102.2 
			116.4,102.4 116.4,102.6 116.5,102.8 116.5,102.9 116.6,103.1 116.6,103.3 116.7,103.4 116.8,103.6 116.8,103.8 116.9,104 
			117,104.1 117.1,104.3 117.2,104.4 117.3,104.6 117.3,104.8 117.4,104.9 		"/>
		<polygon class="st0" points="0.8,100 0.8,98.7 0.8,97.4 0.9,96.2 1,94.9 1.1,93.6 1.2,92.3 1.4,91.1 1.5,89.8 1.7,88.5 2,87.3 
			2.2,86 2.5,84.8 2.8,83.5 3.1,82.3 3.5,81.1 3.8,79.9 4.2,78.7 4.6,77.5 5.1,76.3 5.5,75.1 6,74 6.5,72.8 7,71.7 7.6,70.6 
			8.2,69.5 8.7,68.4 9.4,67.3 10,66.3 10.6,65.2 11.3,64.2 12,63.2 12.7,62.2 13.4,61.2 14.1,60.3 14.9,59.3 15.7,58.4 16.5,57.5 
			17.3,56.6 18.1,55.8 19,54.9 19.8,54.1 20.7,53.3 21.6,52.6 22.5,51.8 23.4,51.1 24.3,50.4 25.3,49.7 26.2,49.1 27.2,48.4 
			28.2,47.8 29.2,47.3 30.2,46.7 31.2,46.2 32.2,45.7 33.2,45.2 34.3,44.7 35.3,44.3 36.4,43.9 37.4,43.5 38.5,43.2 39.6,42.9 
			40.7,42.6 41.8,42.3 42.9,42.1 44,41.9 45.1,41.7 46.2,41.5 47.3,41.4 48.4,41.3 49.5,41.2 50.6,41.2 51.7,41.2 51.8,41.2 
			51.9,41.2 52,41.2 52,41.2 52,41.2 52,43.1 52,45.7 52,46.9 52,52.7 52,58.5 52,64.3 52,70.3 52,77 52,84.9 52,92.5 51.7,92.5 
			48.2,92.5 47.1,92.6 46,92.9 45,93.5 44.1,94.2 43.2,95.2 42.6,96.2 42.1,97.4 41.8,98.7 41.7,100 41.8,101.3 42.1,102.6 
			42.6,103.8 43.2,104.8 44.1,105.8 45,106.5 46,107.1 47.1,107.4 48.2,107.5 51.7,107.5 52,107.5 52,115.1 52,123 52,129.7 
			52,135.7 52,141.6 52,147.3 52,153.1 52,154.3 52,156.9 52,158.8 52,158.8 51.9,158.8 51.8,158.8 51.7,158.8 50.6,158.8 
			49.5,158.8 48.4,158.7 47.3,158.6 46.2,158.5 45.1,158.3 44,158.1 42.9,157.9 41.8,157.7 40.7,157.4 39.6,157.1 38.5,156.8 
			37.4,156.5 36.4,156.1 35.3,155.7 34.3,155.3 33.2,154.8 32.2,154.3 31.2,153.9 30.2,153.3 29.2,152.8 28.2,152.2 27.2,151.6 
			26.2,150.9 25.3,150.3 24.3,149.6 23.4,148.9 22.5,148.2 21.6,147.4 20.7,146.7 19.8,145.9 19,145.1 18.1,144.2 17.3,143.4 
			16.5,142.5 15.7,141.6 14.9,140.7 14.1,139.7 13.4,138.8 12.7,137.8 12,136.8 11.3,135.8 10.6,134.8 10,133.7 9.4,132.7 
			8.7,131.6 8.2,130.5 7.6,129.4 7,128.3 6.5,127.2 6,126 5.5,124.9 5.1,123.7 4.6,122.5 4.2,121.3 3.8,120.1 3.5,118.9 3.1,117.7 
			2.8,116.5 2.5,115.2 2.2,114 2,112.7 1.7,111.5 1.5,110.2 1.4,109 1.2,107.7 1.1,106.4 1,105.1 0.9,103.8 0.8,102.6 0.8,101.3 		
			"/>
	</g>
	<g>
		<polyline class="st1" points="144.6,41.2 144.6,43.1 144.6,46.9 144.6,52.7 144.6,58.5 144.6,64.3 144.6,70.3 144.6,77 
			144.6,84.9 144.6,92.5 144.6,92.5 144.6,92.5 144.2,92.5 143.1,92.6 142,92.9 141,93.5 140.1,94.2 139.2,95.2 138.6,96.2 
			138.1,97.4 137.8,98.7 137.7,100 137.8,101.3 138.1,102.6 138.6,103.8 139.2,104.8 140.1,105.8 141,106.5 142,107.1 143.1,107.4 
			144.2,107.5 144.6,107.5 144.6,107.5 144.6,107.5 144.6,115.1 144.6,123 144.6,129.7 144.6,135.7 144.6,141.6 144.6,147.3 
			144.6,153.1 144.6,154.3 144.6,156.9 144.6,158.8 		"/>
		<polyline class="st1" points="144.6,92.5 147,92.5 147.3,92.5 		"/>
		<polyline class="st1" points="119.3,93 119.3,92.9 119.4,92.8 119.5,92.8 		"/>
		<polyline class="st1" points="119,106.8 119,106.8 118.9,106.8 118.8,106.7 118.7,106.6 118.6,106.4 118.5,106.3 118.4,106.2 
			118.3,106 118.1,105.9 118,105.8 117.9,105.6 117.8,105.5 117.7,105.4 117.6,105.2 117.5,105.1 117.4,104.9 117.3,104.8 
			117.3,104.6 117.2,104.4 117.1,104.3 117,104.1 116.9,104 116.8,103.8 116.8,103.6 116.7,103.4 116.6,103.3 116.6,103.1 
			116.5,102.9 116.5,102.8 116.4,102.6 116.4,102.4 116.3,102.2 116.3,102 116.3,101.9 116.2,101.7 116.2,101.5 116.2,101.3 
			116.1,101.1 116.1,100.9 116.1,100.8 116.1,100.6 116.1,100.4 116.1,100.2 116.1,100 116.1,99.8 116.1,99.6 116.1,99.4 
			116.1,99.3 116.1,99.1 116.1,98.9 116.2,98.7 116.2,98.5 116.2,98.3 116.3,98.2 116.3,98 116.3,97.8 116.4,97.6 116.4,97.4 
			116.5,97.3 116.5,97.1 116.6,96.9 116.6,96.7 116.7,96.6 116.8,96.4 116.8,96.2 116.9,96.1 117,95.9 117.1,95.7 117.2,95.6 
			117.3,95.4 117.3,95.3 117.4,95.1 117.5,95 117.6,94.8 117.7,94.6 117.8,94.5 117.9,94.4 118,94.2 118.1,94.1 118.3,94 
			118.4,93.8 118.5,93.7 118.6,93.6 118.7,93.5 118.8,93.3 118.9,93.2 119,93.2 119,93.2 		"/>
		<polyline class="st1" points="143.2,156.9 143.2,156.9 143.2,154.3 143.2,149.8 143.1,145.4 142.8,141.1 142.5,137 141.9,133.1 
			141.1,129.5 140,126.2 138.7,123.2 137,120.5 135.2,118.2 134.2,117.1 133.1,116 130.9,114 128.6,112.1 126.2,110.3 123.8,108.6 
			123.8,108.6 123.7,108.6 123.5,108.6 123.3,108.6 123.2,108.6 123,108.5 122.8,108.5 122.7,108.5 122.5,108.5 122.4,108.5 
			122.2,108.4 122.1,108.4 121.9,108.4 121.7,108.3 121.6,108.3 121.4,108.2 121.3,108.2 121.1,108.1 121,108 120.8,108 120.8,108 
			120.7,107.9 120.5,107.8 120.4,107.8 120.2,107.7 120.1,107.6 119.9,107.5 119.8,107.4 119.7,107.3 119.5,107.2 119.4,107.2 
			119.3,107.1 119.3,107.1 		"/>
		<polyline class="st1" points="130,43.1 129.7,43.2 128.6,43.5 127.6,43.9 126.5,44.3 125.5,44.7 124.4,45.2 123.4,45.7 
			122.4,46.2 121.4,46.7 120.4,47.3 119.4,47.8 118.4,48.4 117.4,49.1 116.4,49.7 115.5,50.4 114.6,51.1 113.7,51.8 112.8,52.6 
			111.9,53.3 111,54.1 110.1,54.9 109.3,55.8 108.5,56.6 107.7,57.5 106.9,58.4 106.1,59.3 105.3,60.3 104.6,61.2 103.9,62.2 
			103.2,63.2 102.5,64.2 101.8,65.2 101.2,66.3 100.5,67.3 99.9,68.4 99.3,69.5 98.8,70.6 98.2,71.7 97.7,72.8 97.2,74 96.7,75.1 
			96.3,76.3 95.8,77.5 95.4,78.7 95,79.9 94.6,81.1 94.3,82.3 94,83.5 93.7,84.8 93.4,86 93.2,87.3 92.9,88.5 92.7,89.8 92.5,91.1 
			92.4,92.3 92.2,93.6 92.1,94.9 92,96.2 92,97.4 92,98.7 91.9,100 92,101.3 92,102.6 92,103.8 92.1,105.1 92.2,106.4 92.4,107.7 
			92.5,109 92.7,110.2 92.9,111.5 93.2,112.7 93.4,114 93.7,115.2 94,116.5 94.3,117.7 94.6,118.9 95,120.1 95.4,121.3 95.8,122.5 
			96.3,123.7 96.7,124.9 97.2,126 97.7,127.2 98.2,128.3 98.8,129.4 99.3,130.5 99.9,131.6 100.5,132.7 101.2,133.7 101.8,134.8 
			102.5,135.8 103.2,136.8 103.9,137.8 104.6,138.8 105.3,139.7 106.1,140.7 106.9,141.6 107.7,142.5 108.5,143.4 109.3,144.2 
			110.1,145.1 111,145.9 111.9,146.7 112.8,147.4 113.7,148.2 114.6,148.9 115.5,149.6 116.4,150.3 117.4,150.9 118.4,151.6 
			119.4,152.2 120.4,152.8 121.4,153.3 122.4,153.9 123.4,154.3 124.4,154.8 125.5,155.3 126.5,155.7 127.6,156.1 128.6,156.5 
			129.7,156.8 		"/>
		<line class="st1" x1="143.2" y1="41.2" x2="143.2" y2="41.2"/>
		<polyline class="st1" points="120.8,108 120.7,107.7 120.5,107.4 120.4,107.1 120.3,106.8 120.2,106.5 120.1,106.2 119.9,105.8 
			119.9,105.5 119.8,105.1 119.7,104.7 119.6,104.3 119.5,103.9 119.4,103.5 119.4,103.2 119.3,102.8 119.3,102.4 119.2,102 
			119.2,101.6 119.2,101.2 119.2,100.8 119.1,100.4 119.1,100 119.1,99.6 119.2,99.2 119.2,98.8 119.2,98.4 119.2,98 119.3,97.6 
			119.3,97.2 119.4,96.9 119.4,96.5 119.5,96.1 119.6,95.7 119.7,95.3 119.8,94.9 119.9,94.6 119.9,94.2 120.1,93.8 120.2,93.5 
			120.3,93.3 120.4,92.9 120.5,92.6 120.7,92.3 120.8,92 121,92 121.1,91.9 121.3,91.8 121.4,91.8 121.6,91.8 121.7,91.7 
			121.9,91.7 122.1,91.6 122.2,91.6 122.4,91.6 122.5,91.5 122.7,91.5 122.8,91.5 123,91.5 123.2,91.5 123.3,91.5 123.5,91.5 
			123.7,91.5 123.8,91.5 123.8,91.5 126.2,89.7 128.6,87.9 130.9,86 133.1,84 134.2,82.9 135.2,81.9 137,79.5 138.7,76.8 140,73.8 
			141.1,70.5 141.9,66.9 142.5,63 142.8,58.9 143.1,54.6 143.2,50.2 143.2,43.1 		"/>
		<polyline class="st1" points="147.3,107.5 147,107.5 144.6,107.5 		"/>
		<polyline class="st1" points="119,93.2 119,93.2 119.1,93.1 119.2,93.1 119.2,93 119.3,93 119.4,92.9 119.5,92.8 119.7,92.7 
			119.8,92.6 119.9,92.5 120.1,92.4 120.2,92.3 120.4,92.3 120.5,92.2 120.7,92.1 120.8,92 120.8,92 		"/>
		<polyline class="st1" points="119.5,107.2 119.4,107.1 119.3,107.1 119.2,107 119.2,107 119.1,106.9 119,106.8 119,106.8 		"/>
		<polyline class="st1" points="147.4,92.5 147.3,92.5 146.6,92.6 145.5,92.9 145.2,93.1 144.5,93.5 143.5,94.2 142.7,95.2 
			142.1,96.2 141.6,97.4 141.3,98.7 141.2,100 141.3,101.3 141.6,102.6 142.1,103.8 142.7,104.8 143.5,105.8 144.5,106.5 
			144.6,106.6 145.2,106.9 145.5,107.1 146.6,107.4 147.4,107.5 147.3,107.5 		"/>
		<polyline class="st1" points="53.4,43.1 53.4,45.7 53.4,50.2 53.5,54.6 53.8,58.9 54.1,63 54.7,66.9 55.5,70.5 56.6,73.8 
			57.9,76.8 59.5,79.5 61.4,81.9 62.4,82.9 63.5,84 65.7,86 68,87.9 70.3,89.7 72.7,91.4 72.8,91.5 		"/>
		<polyline class="st1" points="48.2,92.5 51.7,92.5 52,92.5 		"/>
		<polyline class="st1" points="52,41.2 52,41.2 52,43.1 52,45.7 52,46.9 52,52.7 52,58.5 52,64.3 52,70.3 52,77 52,84.9 52,92.5 		
			"/>
		<polyline class="st1" points="51.9,158.8 51.8,158.8 51.7,158.8 50.6,158.8 49.5,158.8 48.4,158.7 47.3,158.6 46.2,158.5 
			45.1,158.3 44,158.1 42.9,157.9 41.8,157.7 40.7,157.4 39.6,157.1 38.5,156.8 37.4,156.5 36.4,156.1 35.3,155.7 34.3,155.3 
			33.2,154.8 32.2,154.3 31.2,153.9 30.2,153.3 29.2,152.8 28.2,152.2 27.2,151.6 26.2,150.9 25.3,150.3 24.3,149.6 23.4,148.9 
			22.5,148.2 21.6,147.4 20.7,146.7 19.8,145.9 19,145.1 18.1,144.2 17.3,143.4 16.5,142.5 15.7,141.6 14.9,140.7 14.1,139.7 
			13.4,138.8 12.7,137.8 12,136.8 11.3,135.8 10.6,134.8 10,133.7 9.4,132.7 8.7,131.6 8.2,130.5 7.6,129.4 7,128.3 6.5,127.2 
			6,126 5.5,124.9 5.1,123.7 4.6,122.5 4.2,121.3 3.8,120.1 3.5,118.9 3.1,117.7 2.8,116.5 2.5,115.2 2.2,114 2,112.7 1.7,111.5 
			1.5,110.2 1.4,109 1.2,107.7 1.1,106.4 1,105.1 0.9,103.8 0.8,102.6 0.8,101.3 0.8,100 0.8,98.7 0.8,97.4 0.9,96.2 1,94.9 
			1.1,93.6 1.2,92.3 1.4,91.1 1.5,89.8 1.7,88.5 2,87.3 2.2,86 2.5,84.8 2.8,83.5 3.1,82.3 3.5,81.1 3.8,79.9 4.2,78.7 4.6,77.5 
			5.1,76.3 5.5,75.1 6,74 6.5,72.8 7,71.7 7.6,70.6 8.2,69.5 8.7,68.4 9.4,67.3 10,66.3 10.6,65.2 11.3,64.2 12,63.2 12.7,62.2 
			13.4,61.2 14.1,60.3 14.9,59.3 15.7,58.4 16.5,57.5 17.3,56.6 18.1,55.8 19,54.9 19.8,54.1 20.7,53.3 21.6,52.6 22.5,51.8 
			23.4,51.1 24.3,50.4 25.3,49.7 26.2,49.1 27.2,48.4 28.2,47.8 29.2,47.3 30.2,46.7 31.2,46.2 32.2,45.7 33.2,45.2 34.3,44.7 
			35.3,44.3 36.4,43.9 37.4,43.5 38.5,43.2 39.6,42.9 40.7,42.6 41.8,42.3 42.9,42.1 44,41.9 45.1,41.7 46.2,41.5 47.3,41.4 
			48.4,41.3 49.5,41.2 50.6,41.2 51.7,41.2 51.8,41.2 51.9,41.2 52,41.2 		"/>
		<polyline class="st1" points="52,107.5 52,115.1 52,123 52,129.7 52,135.7 52,141.6 52,147.3 52,153.1 52,154.3 52,156.9 
			52,158.8 		"/>
		<polyline class="st1" points="52,107.5 51.7,107.5 48.2,107.5 47.1,107.4 46,107.1 45,106.5 44.1,105.8 43.2,104.8 42.6,103.8 
			42.1,102.6 41.8,101.3 41.7,100 41.8,98.7 42.1,97.4 42.6,96.2 43.2,95.2 44.1,94.2 45,93.5 46,92.9 47.1,92.6 48.2,92.5 
			48.6,92.5 51.4,92.5 52,92.5 		"/>
		<polyline class="st1" points="72.8,91.5 72.6,91.5 72.5,91.5 72.3,91.5 72.1,91.5 72,91.5 71.8,91.5 71.6,91.5 71.5,91.5 
			71.3,91.6 71.2,91.6 71,91.6 70.8,91.7 70.7,91.7 70.5,91.8 70.4,91.8 70.2,91.8 70.1,91.9 69.9,92 69.8,92 69.6,92.1 69.5,92.2 
			69.3,92.3 69.2,92.3 69,92.4 68.9,92.5 68.7,92.6 68.6,92.7 68.5,92.8 68.3,92.9 68.2,93 68.1,93.1 67.9,93.2 67.8,93.3 
			67.7,93.5 67.6,93.6 67.4,93.7 67.3,93.8 67.2,94 67.1,94.1 67,94.2 66.9,94.4 66.8,94.5 66.7,94.6 66.6,94.8 66.5,95 66.4,95.1 
			66.3,95.3 66.2,95.4 66.1,95.6 66,95.7 66,95.9 65.9,96.1 65.8,96.2 65.7,96.4 65.7,96.6 65.6,96.7 65.5,96.9 65.5,97.1 
			65.4,97.3 65.4,97.4 65.3,97.6 65.3,97.8 65.3,98 65.2,98.2 65.2,98.3 65.2,98.5 65.1,98.7 65.1,98.9 65.1,99.1 65.1,99.3 
			65.1,99.4 65.1,99.6 65,99.8 65,100 65,100.2 65.1,100.4 65.1,100.6 65.1,100.8 65.1,100.9 65.1,101.1 65.1,101.3 65.2,101.5 
			65.2,101.7 65.2,101.9 65.3,102 65.3,102.2 65.3,102.4 65.4,102.6 65.4,102.8 65.5,102.9 65.5,103.1 65.6,103.3 65.7,103.4 
			65.7,103.6 65.8,103.8 65.9,104 66,104.1 66,104.3 66.1,104.4 66.2,104.6 66.3,104.8 66.4,104.9 66.5,105.1 66.6,105.2 
			66.7,105.4 66.8,105.5 66.9,105.6 67,105.8 67.1,105.9 67.2,106 67.3,106.2 67.4,106.3 67.6,106.4 67.7,106.6 67.8,106.7 
			67.9,106.8 68.1,106.9 68.2,107 68.3,107.1 68.5,107.2 68.6,107.3 68.7,107.4 68.9,107.5 69,107.6 69.2,107.7 69.3,107.8 
			69.5,107.8 69.6,107.9 69.8,108 69.9,108 70.1,108.1 70.2,108.2 70.4,108.2 70.5,108.3 70.7,108.3 70.8,108.4 71,108.4 
			71.2,108.4 71.3,108.5 71.5,108.5 71.6,108.5 71.8,108.5 72,108.5 72.1,108.6 72.3,108.6 72.5,108.6 72.6,108.6 72.7,108.6 		"/>
		<polyline class="st1" points="72.8,108.6 72.7,108.6 70.3,110.3 68,112.1 65.7,114 63.5,116 62.4,117.1 61.4,118.2 59.5,120.5 
			57.9,123.2 56.6,126.2 55.5,129.5 54.7,133.1 54.1,137 53.8,141.1 53.5,145.4 53.4,149.8 53.4,154.3 53.4,156.9 53.4,156.9 		"/>
		<polyline class="st1" points="52,107.5 51.4,107.5 50.6,107.4 49.5,107.1 48.5,106.5 47.5,105.8 46.7,104.8 46.1,103.8 
			45.6,102.6 45.3,101.3 45.2,100 45.3,98.7 45.6,97.4 46.1,96.2 46.7,95.2 47.5,94.2 48.5,93.5 49.5,92.9 50.6,92.6 51.4,92.5 		
			"/>
		<polyline class="st1" points="51.9,158.8 52,158.8 52,158.8 52.4,158.8 52.5,158.8 52.7,158.8 52.8,158.8 52.9,158.8 53.1,158.8 
			53.2,158.8 53.4,158.8 129.7,158.8 143.2,158.8 143.2,158.8 144.6,158.8 		"/>
		<polyline class="st1" points="51.4,107.5 48.6,107.5 48.2,107.5 		"/>
		<polyline class="st1" points="52,41.2 52,41.2 52,41.2 52.3,41.2 52.4,41.2 52.5,41.2 52.5,41.2 52.6,41.2 52.7,41.2 52.8,41.2 
			52.9,41.2 53,41.2 53.1,41.2 53.2,41.2 53.4,41.2 130,41.2 143,41.2 143.1,41.2 143.2,41.2 143.2,41.2 144.6,41.2 		"/>
		<polyline class="st1" points="144.6,43.1 143.2,43.1 143.2,43.1 130,43.1 129.7,43.1 53.4,43.1 52,43.1 52,43.1 		"/>
		<polyline class="st1" points="52,156.9 52,156.9 53.4,156.9 66.9,156.9 129.7,156.9 143.2,156.9 144.6,156.9 		"/>
	</g>
</g>
</svg>
