<?xml version="1.0" encoding="utf-8"?>
<!-- Generator: Adobe Illustrator 21.0.0, SVG Export Plug-In . SVG Version: 6.00 Build 0)  -->
<svg version="1.1" id="Layer_1" xmlns="http://www.w3.org/2000/svg" xmlns:xlink="http://www.w3.org/1999/xlink" x="0px" y="0px"
	 viewBox="0 0 164.5 200" style="enable-background:new 0 0 164.5 200;" xml:space="preserve">
<style type="text/css">
	.st0{fill:#797979;}
	.st1{fill:none;stroke:#FFFFFF;stroke-width:1.5;stroke-linecap:round;stroke-linejoin:round;}
	.st2{fill:none;stroke:#FFFFFF;stroke-linecap:round;stroke-linejoin:round;}
	.st3{fill:#FFFFFF;}
</style>
<g>
	<g>
		<g>
			<g>
				<g id="XMLID_19_">
					<g>
						<polygon class="st0" points="141.9,124.9 142,129.7 142.2,134.5 142.6,140.3 143.2,145 143.8,148.5 144.4,150.9 145,153.1 
							145.8,155.1 146.3,156.3 147,157.4 147.6,158.3 148.3,159.1 149.1,159.7 149.9,160.2 150.8,160.4 151.8,160.6 149.5,160.5 
							147.2,160.3 146.2,160.2 144,159.9 141.7,159.5 139.5,159 137.2,158.4 136.4,158.1 134.2,157.4 132.8,156.8 133.1,156.3 
							133.6,155.1 134.4,153.1 135.1,150.9 135.6,148.5 136.2,145 136.8,140.3 137.3,133.5 137.5,124.9 137.5,123.8 137.5,122.7 
							137.7,121.5 137.8,120.6 137.9,119.9 138.1,119.4 138.2,118.9 138.4,118.5 138.6,118.1 138.7,117.9 138.9,117.6 139.1,117.5 
							139.3,117.4 139.5,117.3 139.7,117.3 139.9,117.3 140.1,117.3 140.2,117.4 140.3,117.5 140.5,117.7 140.7,118 140.9,118.3 
							141.1,118.6 141.2,119 141.4,119.5 141.5,120.2 141.7,121 141.8,121.9 141.9,123.2 						"/>
						<polygon class="st0" points="137.7,78.5 137.5,77.3 137.5,76.2 137.5,75.1 137.3,66.5 136.8,59.7 136.2,55 135.6,51.5 
							135.1,49.1 134.4,46.9 133.6,44.9 133.1,43.7 132.8,43.2 134.2,42.6 136.4,41.9 137.2,41.6 139.5,41 141.7,40.5 144,40.1 
							146.2,39.8 147.2,39.7 149.5,39.5 151.8,39.4 150.8,39.6 149.9,39.8 149.1,40.3 148.3,40.9 147.6,41.7 147,42.6 146.3,43.7 
							145.8,44.9 145,46.9 144.4,49.1 143.8,51.5 143.2,55 142.6,59.7 142.2,65.5 142,70.3 141.9,75.1 141.9,76.8 141.8,78.1 
							141.7,79 141.5,79.8 141.4,80.5 141.2,81 141.1,81.4 140.9,81.7 140.7,82.1 140.5,82.3 140.3,82.5 140.2,82.6 140.1,82.7 
							139.9,82.7 139.7,82.7 139.5,82.7 139.3,82.6 139.1,82.5 138.9,82.4 138.7,82.1 138.6,81.9 138.4,81.5 138.2,81.1 138.1,80.6 
							137.9,80.1 137.8,79.4 						"/>
						<polygon class="st0" points="117.5,120.2 117.6,121 117.7,121.9 117.8,123.2 117.8,124.9 117.9,129.7 118.1,134.5 
							118.5,140.3 119.1,145 119.7,148.5 120.3,150.9 120.9,153.1 121.7,155.1 122.3,156.3 122.8,157.4 123.5,158.3 124.2,159.1 
							125,159.7 125.8,160.2 126.7,160.4 127.7,160.6 125.4,160.5 123.1,160.3 122.1,160.2 119.9,159.9 117.6,159.5 115.4,159 
							113.2,158.4 112.3,158.1 110.2,157.4 108.7,156.8 109,156.3 109.5,155.1 110.3,153.1 110.9,150.9 111.5,148.5 112.1,145 
							112.7,140.3 113.2,133.5 113.4,124.9 113.4,123.8 113.4,122.7 113.6,121.5 113.7,120.6 113.8,119.9 114,119.4 114.1,118.9 
							114.3,118.5 114.5,118.1 114.6,117.9 114.8,117.6 115,117.5 115.2,117.4 115.4,117.3 115.6,117.3 115.8,117.3 116,117.3 
							116.1,117.4 116.2,117.5 116.4,117.7 116.6,118 116.8,118.3 117,118.6 117.1,119 117.3,119.5 						"/>
						<polygon class="st0" points="117.6,79 117.5,79.8 117.3,80.5 117.1,81 117,81.4 116.8,81.7 116.6,82.1 116.4,82.3 116.2,82.5 
							116.1,82.6 116,82.7 115.8,82.7 115.6,82.7 115.4,82.7 115.2,82.6 115,82.5 114.8,82.4 114.6,82.1 114.5,81.9 114.3,81.5 
							114.1,81.1 114,80.6 113.8,80.1 113.7,79.4 113.6,78.5 113.4,77.3 113.4,76.2 113.4,75.1 113.2,66.5 112.7,59.7 112.1,55 
							111.5,51.5 110.9,49.1 110.3,46.9 109.5,44.9 109,43.7 108.7,43.2 110.2,42.6 112.3,41.9 113.2,41.6 115.4,41 117.6,40.5 
							119.9,40.1 122.1,39.8 123.1,39.7 125.4,39.5 127.7,39.4 126.7,39.6 125.8,39.8 125,40.3 124.2,40.9 123.5,41.7 122.8,42.6 
							122.3,43.7 121.7,44.9 120.9,46.9 120.3,49.1 119.7,51.5 119.1,55 118.5,59.7 118.1,65.5 117.9,70.3 117.8,75.1 117.8,76.8 
							117.7,78.1 						"/>
						<polygon class="st0" points="102.6,39.6 101.7,39.8 100.9,40.3 100.1,40.9 99.4,41.7 98.8,42.6 98.1,43.7 97.6,44.9 
							96.8,46.9 96.2,49.1 95.6,51.5 95,55 94.4,59.7 94,65.5 93.8,70.3 93.8,75.1 93.7,76.8 93.6,78.1 93.5,79 93.4,79.8 
							93.2,80.5 93.1,81 92.9,81.4 92.7,81.7 92.6,82.1 92.4,82.3 92.2,82.5 92,82.6 91.9,82.7 91.7,82.7 91.5,82.7 91.3,82.7 
							91.1,82.6 91,82.5 90.7,82.4 90.6,82.1 90.4,81.9 90.2,81.5 90,81.1 89.9,80.6 89.8,80.1 89.6,79.4 89.5,78.5 89.4,77.3 
							89.3,76.2 89.3,75.1 89.1,66.5 88.6,59.7 88,55 87.4,51.5 86.9,49.1 86.2,46.9 85.5,44.9 84.9,43.7 84.6,43.2 86.1,42.6 
							88.3,41.9 89.1,41.6 91.3,41 93.5,40.5 95.8,40.1 98.1,39.8 99,39.7 101.3,39.5 103.6,39.4 						"/>
						<polygon class="st0" points="101.3,160.5 99,160.3 98.1,160.2 95.8,159.9 93.5,159.5 91.3,159 89.1,158.4 88.3,158.1 
							86.1,157.4 84.6,156.8 84.9,156.3 85.5,155.1 86.2,153.1 86.9,150.9 87.4,148.5 88,145 88.6,140.3 89.1,133.5 89.3,124.9 
							89.3,123.8 89.4,122.7 89.5,121.5 89.6,120.6 89.8,119.9 89.9,119.4 90,118.9 90.2,118.5 90.4,118.1 90.6,117.9 90.7,117.6 
							91,117.5 91.1,117.4 91.3,117.3 91.5,117.3 91.7,117.3 91.9,117.3 92,117.4 92.2,117.5 92.4,117.7 92.6,118 92.7,118.3 
							92.9,118.6 93.1,119 93.2,119.5 93.4,120.2 93.5,121 93.6,121.9 93.7,123.2 93.8,124.9 93.8,129.7 94,134.5 94.4,140.3 
							95,145 95.6,148.5 96.2,150.9 96.8,153.1 97.6,155.1 98.1,156.3 98.8,157.4 99.4,158.3 100.1,159.1 100.9,159.7 101.7,160.2 
							102.6,160.4 103.6,160.6 						"/>
						<polygon class="st0" points="69.4,40.5 71.7,40.1 74,39.8 74.9,39.7 77.2,39.5 79.5,39.4 78.5,39.6 77.7,39.8 76.8,40.3 
							76.1,40.9 75.3,41.7 74.7,42.6 74.1,43.7 73.5,44.9 72.7,46.9 72.1,49.1 71.5,51.5 70.9,55 70.3,59.7 69.9,65.5 69.7,70.3 
							69.7,75.1 69.6,76.8 69.5,78.1 69.4,79 69.3,79.8 69.1,80.5 69,81 68.8,81.4 68.6,81.7 68.4,82.1 68.3,82.3 68.1,82.5 
							67.9,82.6 67.8,82.7 67.7,82.7 67.4,82.7 67.2,82.7 67,82.6 66.8,82.5 66.7,82.4 66.5,82.1 66.3,81.9 66.1,81.5 66,81.1 
							65.8,80.6 65.7,80.1 65.5,79.4 65.4,78.5 65.3,77.3 65.2,76.2 65.2,75.1 65,66.5 64.5,59.7 64,55 63.3,51.5 62.8,49.1 
							62.1,46.9 61.4,44.9 60.8,43.7 60.5,43.2 62,42.6 64.2,41.9 65,41.6 67.2,41 						"/>
						<polygon class="st0" points="69.3,120.2 69.4,121 69.5,121.9 69.6,123.2 69.7,124.9 69.7,129.7 69.9,134.5 70.3,140.3 
							70.9,145 71.5,148.5 72.1,150.9 72.7,153.1 73.5,155.1 74.1,156.3 74.7,157.4 75.3,158.3 76.1,159.1 76.8,159.7 77.7,160.2 
							78.5,160.4 79.5,160.6 77.2,160.5 74.9,160.3 74,160.2 71.7,159.9 69.4,159.5 67.2,159 65,158.4 64.2,158.1 62,157.4 
							60.5,156.8 60.8,156.3 61.4,155.1 62.1,153.1 62.8,150.9 63.3,148.5 64,145 64.5,140.3 65,133.5 65.2,124.9 65.2,123.8 
							65.3,122.7 65.4,121.5 65.5,120.6 65.7,119.9 65.8,119.4 66,118.9 66.1,118.5 66.3,118.1 66.5,117.9 66.7,117.6 66.8,117.5 
							67,117.4 67.2,117.3 67.4,117.3 67.7,117.3 67.8,117.3 67.9,117.4 68.1,117.5 68.3,117.7 68.4,118 68.6,118.3 68.8,118.6 
							69,119 69.1,119.5 						"/>
						<polygon class="st0" points="53.1,39.5 55.4,39.4 54.4,39.6 53.6,39.8 52.7,40.3 52,40.9 51.2,41.7 50.6,42.6 50,43.7 
							49.4,44.9 48.7,46.9 48,49.1 47.4,51.5 46.8,55 46.2,59.7 45.8,65.5 45.6,70.3 45.6,75.1 45.5,76.8 45.4,78.1 45.3,79 
							45.2,79.8 45,80.5 44.9,81 44.7,81.4 44.5,81.7 44.4,82.1 44.2,82.3 44,82.5 43.8,82.6 43.7,82.7 43.6,82.7 43.3,82.7 
							42.7,82.8 42,82.8 41.6,82.9 41.4,82.9 40.7,83 40.1,83.1 39.5,83.3 38.8,83.5 38.2,83.8 37.6,84 37,84.4 36.4,84.7 
							35.9,85.1 35.3,85.4 34.8,85.9 34.2,86.3 33.7,86.8 33.2,87.3 32.8,87.8 32.3,88.3 31.9,88.9 31.5,89.5 31.1,90.1 30.7,90.7 
							30.4,91.4 30.1,92 29.8,92.7 29.5,93.4 29.3,94.1 29.1,94.8 28.9,95.5 28.7,96.3 28.6,97 28.5,97.7 28.5,98.5 28.4,99.3 
							28.4,100 28.4,100.7 28.5,101.5 28.5,102.3 28.6,103 28.7,103.7 28.9,104.5 29.1,105.2 29.3,105.9 29.5,106.6 29.8,107.3 
							30.1,108 30.4,108.6 30.7,109.3 31.1,109.9 31.5,110.5 31.9,111.1 32.3,111.7 32.8,112.2 33.2,112.7 33.7,113.2 34.2,113.7 
							34.8,114.1 35.3,114.6 35.9,114.9 36.4,115.3 37,115.6 37.6,116 38.2,116.2 38.8,116.5 39.5,116.7 40.1,116.9 40.7,117 
							41.4,117.1 41.6,117.1 42,117.2 42.7,117.2 43.3,117.3 43.6,117.3 43.7,117.3 43.8,117.4 44,117.5 44.2,117.7 44.4,118 
							44.5,118.3 44.7,118.6 44.9,119 45,119.5 45.2,120.2 45.3,121 45.4,121.9 45.5,123.2 45.6,124.9 45.6,129.7 45.8,134.5 
							46.2,140.3 46.8,145 47.4,148.5 48,150.9 48.7,153.1 49.4,155.1 50,156.3 50.6,157.4 51.2,158.3 52,159.1 52.7,159.7 
							53.6,160.2 54.4,160.4 55.4,160.6 53.1,160.5 50.8,160.3 49.9,160.2 47.6,159.9 45.3,159.5 43.1,159 40.9,158.4 40.1,158.1 
							37.9,157.4 35.7,156.5 33.6,155.6 31.5,154.5 29.5,153.4 28.8,153 26.9,151.7 24.9,150.4 23.1,148.9 21.2,147.4 19.5,145.7 
							17.8,144 16.2,142.2 15.8,141.8 14.2,139.9 12.8,138 11.4,136 10,133.9 8.8,131.8 7.6,129.5 6.6,127.3 5.6,125 4.7,122.6 
							3.9,120.2 3.8,119.9 3.1,117.5 2.5,115.1 1.9,112.6 1.5,110.1 1.2,107.6 0.9,105.1 0.8,102.5 0.8,100 0.8,97.5 0.9,94.9 
							1.2,92.4 1.5,89.9 1.9,87.4 2.5,84.9 3.1,82.5 3.8,80.1 3.9,79.8 4.7,77.4 5.6,75 6.6,72.7 7.6,70.5 8.8,68.2 10,66.1 
							11.4,64 12.8,62 14.2,60.1 15.8,58.2 16.2,57.8 17.8,56 19.5,54.3 21.2,52.6 23.1,51.1 24.9,49.6 26.9,48.3 28.8,47 
							29.5,46.6 31.5,45.5 33.6,44.4 35.7,43.5 37.9,42.6 40.1,41.9 40.9,41.6 43.1,41 45.3,40.5 47.6,40.1 49.9,39.8 50.8,39.7 
													"/>
					</g>
					<g>
						<polyline class="st1" points="151.8,160.6 149.5,160.5 147.2,160.3 146.2,160.2 144,159.9 141.7,159.5 139.5,159 137.2,158.4 
							136.4,158.1 134.2,157.4 132.8,156.8 						"/>
						<polyline class="st1" points="79.5,160.6 77.2,160.5 74.9,160.3 74,160.2 71.7,159.9 69.4,159.5 67.2,159 65,158.4 
							64.2,158.1 62,157.4 60.5,156.8 						"/>
						<polyline class="st1" points="127.7,160.6 125.4,160.5 123.1,160.3 122.1,160.2 119.9,159.9 117.6,159.5 115.4,159 
							113.2,158.4 112.3,158.1 110.2,157.4 108.7,156.8 						"/>
						<polyline class="st1" points="103.6,160.6 101.3,160.5 99,160.3 98.1,160.2 95.8,159.9 93.5,159.5 91.3,159 89.1,158.4 
							88.3,158.1 86.1,157.4 84.6,156.8 						"/>
						<polyline class="st1" points="84.6,43.2 86.1,42.6 88.3,41.9 89.1,41.6 91.3,41 93.5,40.5 95.8,40.1 98.1,39.8 99,39.7 
							101.3,39.5 103.6,39.4 						"/>
						<polyline class="st1" points="108.7,43.2 110.2,42.6 112.3,41.9 113.2,41.6 115.4,41 117.6,40.5 119.9,40.1 122.1,39.8 
							123.1,39.7 125.4,39.5 127.7,39.4 						"/>
						<polyline class="st1" points="132.8,43.2 134.2,42.6 136.4,41.9 137.2,41.6 139.5,41 141.7,40.5 144,40.1 146.2,39.8 
							147.2,39.7 149.5,39.5 151.8,39.4 						"/>
						<polyline class="st1" points="60.5,43.2 62,42.6 64.2,41.9 65,41.6 67.2,41 69.4,40.5 71.7,40.1 74,39.8 74.9,39.7 77.2,39.5 
							79.5,39.4 						"/>
						<polyline class="st2" points="139.3,85.2 139.7,85.2 140,85.2 140.3,85.1 140.6,84.9 140.9,84.7 141.1,84.4 141.4,84 
							141.7,83.6 142,83.1 142.2,82.5 142.4,81.9 142.6,81.1 142.8,80.3 143,79 143.1,77.6 143.1,76.4 143.2,75.1 143.3,66.9 
							143.8,60.7 144.3,56.3 144.8,53 145.3,50.7 145.9,48.6 146.6,46.7 147.1,45.6 147.7,44.6 148.3,43.7 149,43 149.7,42.5 
							150.5,42.1 150.9,42 151.8,41.9 152.6,42 153.4,42.3 154.2,42.7 154.9,43.4 155.5,44.2 156.1,45.1 156.6,46.2 157.1,47.3 
							157.8,49.3 158.4,51.5 159,54.7 159.6,58.9 160,64.2 160.3,69.5 160.3,75.1 160.4,77 160.5,78.4 160.6,79.6 160.8,80.8 
							161,81.5 161.2,82.2 161.4,82.9 161.7,83.4 161.9,83.9 162.2,84.3 162.4,84.4 162.6,84.6 163.8,84.6 						"/>
						<polyline class="st2" points="115.2,85.2 115.6,85.2 115.9,85.2 116.2,85.1 116.5,84.9 116.8,84.7 117.1,84.4 117.3,84 
							117.6,83.6 117.9,83.1 118.1,82.5 118.3,81.9 118.5,81.1 118.7,80.3 118.9,79 119,77.6 119.1,76.4 119.1,75.1 119.3,66.9 
							119.7,60.7 120.2,56.3 120.7,53 121.2,50.7 121.8,48.6 122.5,46.7 123,45.6 123.6,44.6 124.2,43.7 124.9,43 125.6,42.5 
							126.4,42.1 126.8,42 127.7,41.9 128.5,42 129.3,42.3 130.1,42.7 130.8,43.4 131.4,44.2 132,45.1 132.6,46.2 133,47.3 
							133.7,49.3 134.3,51.5 134.9,54.7 135.5,58.9 135.9,64.2 136.2,69.5 136.2,75.1 136.3,77.2 136.4,78.7 136.6,79.9 136.7,80.8 
							136.9,81.6 137.1,82.3 137.4,82.9 137.6,83.5 137.9,83.9 138.2,84.3 138.4,84.6 138.7,84.9 139,85 139.2,85.2 						"/>
						<polyline class="st2" points="91.1,85.2 91.5,85.2 91.8,85.2 92.1,85.1 92.4,84.9 92.7,84.7 93,84.4 93.3,84 93.5,83.6 
							93.8,83.1 94,82.5 94.2,81.9 94.4,81.1 94.6,80.3 94.8,79 94.9,77.6 95,76.4 95,75.1 95.2,66.9 95.6,60.7 96.1,56.3 96.6,53 
							97.1,50.7 97.7,48.6 98.4,46.7 98.9,45.6 99.5,44.6 100.1,43.7 100.8,43 101.5,42.5 102.3,42.1 102.7,42 103.6,41.9 104.4,42 
							105.2,42.3 106,42.7 106.7,43.4 107.3,44.2 107.9,45.1 108.5,46.2 109,47.3 109.6,49.3 110.2,51.5 110.8,54.7 111.4,58.9 
							111.8,64.2 112.1,69.5 112.2,75.1 112.2,77.2 112.3,78.7 112.5,79.9 112.7,80.8 112.8,81.6 113,82.3 113.3,82.9 113.5,83.5 
							113.8,83.9 114.1,84.3 114.3,84.6 114.6,84.9 114.9,85 115.1,85.2 						"/>
						<polyline class="st2" points="67.2,85.2 67.4,85.2 67.7,85.2 68,85.1 68.3,84.9 68.6,84.7 68.9,84.4 69.2,84 69.4,83.6 
							69.7,83.1 69.9,82.5 70.1,81.9 70.3,81.1 70.5,80.3 70.7,79 70.8,77.6 70.9,76.4 70.9,75.1 71.1,66.9 71.5,60.7 72,56.3 
							72.5,53 73,50.7 73.6,48.6 74.3,46.7 74.8,45.6 75.4,44.6 76,43.7 76.7,43 77.4,42.5 78.2,42.1 78.6,42 79.5,41.9 80.3,42 
							81.1,42.3 81.9,42.7 82.6,43.4 83.2,44.2 83.8,45.1 84.4,46.2 84.9,47.3 85.5,49.3 86.1,51.5 86.7,54.7 87.3,58.9 87.7,64.2 
							88,69.5 88.1,75.1 88.1,77.2 88.2,78.7 88.4,79.9 88.6,80.8 88.7,81.6 89,82.3 89.2,82.9 89.4,83.5 89.7,83.9 90,84.3 
							90.3,84.6 90.5,84.9 90.8,85 91,85.2 						"/>
						<polyline class="st2" points="44.6,84.6 44.8,84.4 45.1,84 45.4,83.5 45.6,83 45.9,82.4 46.1,81.7 46.3,81 46.4,80.1 
							46.6,78.9 46.7,77.6 46.8,76.4 46.8,75.1 47,66.9 47.4,60.7 47.9,56.3 48.4,53 48.9,50.7 49.5,48.6 50.2,46.7 50.8,45.6 
							51.3,44.6 51.9,43.7 52.6,43 53.3,42.5 54.1,42.1 54.5,42 55.4,41.9 56.2,42 57.1,42.3 57.8,42.7 58.5,43.4 59.2,44.2 
							59.7,45.1 60.3,46.2 60.8,47.3 61.4,49.3 62,51.5 62.6,54.7 63.2,58.9 63.6,64.2 63.9,69.5 64,75.1 64,77.2 64.1,78.7 
							64.3,79.9 64.5,80.8 64.7,81.6 64.9,82.3 65.1,82.9 65.4,83.5 65.6,83.9 65.9,84.3 66.2,84.6 66.5,84.9 66.7,85 67,85.2 
													"/>
						<polyline class="st2" points="41.1,115 40.5,115 39.9,114.8 39.3,114.6 38.8,114.4 38.2,114.2 37.7,113.9 37.2,113.6 
							36.7,113.3 36.2,113 35.7,112.6 35.2,112.2 34.8,111.8 34.3,111.3 33.9,110.9 33.5,110.4 33.2,109.9 32.8,109.3 32.4,108.8 
							32.1,108.2 31.8,107.7 31.5,107.1 31.3,106.5 31.1,105.9 30.8,105.3 30.7,104.6 30.5,104 30.4,103.3 30.2,102.7 30.2,102 
							30.1,101.3 30.1,100.7 30.1,100 30.1,99.3 30.1,98.7 30.2,98 30.2,97.3 30.4,96.7 30.5,96 30.7,95.4 30.8,94.7 31.1,94.1 
							31.3,93.5 31.5,92.9 31.8,92.3 32.1,91.8 32.4,91.2 32.8,90.6 33.2,90.1 33.5,89.6 33.9,89.2 34.3,88.7 34.8,88.2 35.2,87.8 
							35.7,87.4 36.2,87 36.7,86.7 37.2,86.4 37.7,86.1 38.2,85.8 38.8,85.6 39.3,85.4 39.9,85.2 40.5,85 41.1,85 						"/>
						<polyline class="st2" points="67,114.8 66.7,115 66.5,115.1 66.2,115.4 65.9,115.7 65.6,116.1 65.4,116.5 65.1,117.1 
							64.9,117.7 64.7,118.4 64.5,119.2 64.3,120 64.1,121.3 64,122.8 64,124.9 63.9,130.6 63.6,135.8 63.2,141.1 62.6,145.3 
							62,148.5 61.4,150.7 60.8,152.7 60.3,153.8 59.7,154.9 59.2,155.8 58.5,156.6 57.8,157.2 57.1,157.7 56.2,158 55.4,158.1 
							54.5,158 54.1,157.9 53.3,157.5 52.6,157 51.9,156.3 51.3,155.4 50.8,154.4 50.2,153.3 49.5,151.4 48.9,149.3 48.4,147 
							47.9,143.7 47.4,139.3 47,133.1 46.8,124.9 46.8,123.6 46.7,122.4 46.6,121.1 46.4,119.9 46.3,119 46.1,118.3 45.9,117.6 
							45.6,117 45.4,116.5 45.1,116 44.8,115.6 44.6,115.4 						"/>
						<polyline class="st2" points="91,114.8 90.8,115 90.5,115.1 90.3,115.4 90,115.7 89.7,116.1 89.4,116.5 89.2,117.1 89,117.7 
							88.7,118.4 88.6,119.2 88.4,120 88.2,121.3 88.1,122.8 88.1,124.9 88,130.6 87.7,135.8 87.3,141.1 86.7,145.3 86.1,148.5 
							85.5,150.7 84.9,152.7 84.4,153.8 83.8,154.9 83.2,155.8 82.6,156.6 81.9,157.2 81.1,157.7 80.3,158 79.5,158.1 78.6,158 
							78.2,157.9 77.4,157.5 76.7,157 76,156.3 75.4,155.4 74.8,154.4 74.3,153.3 73.6,151.4 73,149.3 72.5,147 72,143.7 
							71.5,139.3 71.1,133.1 70.9,124.9 70.9,123.6 70.8,122.4 70.7,121 70.5,119.7 70.3,118.9 70.1,118.1 69.9,117.5 69.7,116.9 
							69.4,116.4 69.2,116 68.9,115.6 68.6,115.3 68.3,115.1 68,114.9 67.7,114.8 67.4,114.8 67.2,114.8 						"/>
						<polyline class="st2" points="115.1,114.8 114.9,115 114.6,115.1 114.3,115.4 114.1,115.7 113.8,116.1 113.5,116.5 
							113.3,117.1 113,117.7 112.8,118.4 112.7,119.2 112.5,120 112.3,121.3 112.2,122.8 112.2,124.9 112.1,130.6 111.8,135.8 
							111.4,141.1 110.8,145.3 110.2,148.5 109.6,150.7 109,152.7 108.5,153.8 107.9,154.9 107.3,155.8 106.7,156.6 106,157.2 
							105.2,157.7 104.4,158 103.6,158.1 102.7,158 102.3,157.9 101.5,157.5 100.8,157 100.1,156.3 99.5,155.4 98.9,154.4 
							98.4,153.3 97.7,151.4 97.1,149.3 96.6,147 96.1,143.7 95.6,139.3 95.2,133.1 95,124.9 95,123.6 94.9,122.4 94.8,121 
							94.6,119.7 94.4,118.9 94.2,118.1 94,117.5 93.8,116.9 93.5,116.4 93.3,116 93,115.6 92.7,115.3 92.4,115.1 92.1,114.9 
							91.8,114.8 91.5,114.8 91.1,114.8 						"/>
						<polyline class="st2" points="139.2,114.8 139,115 138.7,115.1 138.4,115.4 138.2,115.7 137.9,116.1 137.6,116.5 137.4,117.1 
							137.1,117.7 136.9,118.4 136.7,119.2 136.6,120 136.4,121.3 136.3,122.8 136.2,124.9 136.2,130.6 135.9,135.8 135.5,141.1 
							134.9,145.3 134.3,148.5 133.7,150.7 133,152.7 132.6,153.8 132,154.9 131.4,155.8 130.8,156.6 130.1,157.2 129.3,157.7 
							128.5,158 127.7,158.1 126.8,158 126.4,157.9 125.6,157.5 124.9,157 124.2,156.3 123.6,155.4 123,154.4 122.5,153.3 
							121.8,151.4 121.2,149.3 120.7,147 120.2,143.7 119.7,139.3 119.3,133.1 119.1,124.9 119.1,123.6 119,122.4 118.9,121 
							118.7,119.7 118.5,118.9 118.3,118.1 118.1,117.5 117.9,116.9 117.6,116.4 117.3,116 117.1,115.6 116.8,115.3 116.5,115.1 
							116.2,114.9 115.9,114.8 115.6,114.8 115.2,114.8 						"/>
						<polyline class="st2" points="163.8,115.4 162.6,115.4 162.4,115.6 162.2,115.7 161.9,116.1 161.7,116.6 161.4,117.1 
							161.2,117.8 161,118.5 160.8,119.2 160.6,120.4 160.5,121.6 160.4,123 160.3,124.9 160.3,130.6 160,135.8 159.6,141.1 
							159,145.3 158.4,148.5 157.8,150.7 157.1,152.7 156.6,153.8 156.1,154.9 155.5,155.8 154.9,156.6 154.2,157.2 153.4,157.7 
							152.6,158 151.8,158.1 150.9,158 150.5,157.9 149.7,157.5 149,157 148.3,156.3 147.7,155.4 147.1,154.4 146.6,153.3 
							145.9,151.4 145.3,149.3 144.8,147 144.3,143.7 143.8,139.3 143.3,133.1 143.2,124.9 143.1,123.6 143.1,122.4 143,121 
							142.8,119.7 142.6,118.9 142.4,118.1 142.2,117.5 142,116.9 141.7,116.4 141.4,116 141.1,115.6 140.9,115.3 140.6,115.1 
							140.3,114.9 140,114.8 139.7,114.8 139.5,114.8 						"/>
						<polyline class="st1" points="55.4,160.6 54.4,160.4 53.6,160.2 52.7,159.7 52,159.1 51.2,158.3 50.6,157.4 50,156.3 
							49.4,155.1 48.7,153.1 48,150.9 47.4,148.5 46.8,145 46.2,140.3 45.8,134.5 45.6,129.7 45.6,124.9 45.5,123.2 45.4,121.9 
							45.3,121 45.2,120.2 45,119.5 44.9,119 44.7,118.6 44.5,118.3 44.4,118 44.2,117.7 44,117.5 43.8,117.4 43.7,117.3 
							43.6,117.3 43.3,117.3 42.7,117.2 42,117.2 41.6,117.1 41.4,117.1 40.7,117 40.1,116.9 39.5,116.7 38.8,116.5 38.2,116.2 
							37.6,116 37,115.6 36.4,115.3 35.9,114.9 35.3,114.6 34.8,114.1 34.2,113.7 33.7,113.2 33.2,112.7 32.8,112.2 32.3,111.7 
							31.9,111.1 31.5,110.5 31.1,109.9 30.7,109.3 30.4,108.6 30.1,108 29.8,107.3 29.5,106.6 29.3,105.9 29.1,105.2 28.9,104.5 
							28.7,103.7 28.6,103 28.5,102.3 28.5,101.5 28.4,100.7 28.4,100 28.4,99.3 28.5,98.5 28.5,97.7 28.6,97 28.7,96.3 28.9,95.5 
							29.1,94.8 29.3,94.1 29.5,93.4 29.8,92.7 30.1,92 30.4,91.4 30.7,90.7 31.1,90.1 31.5,89.5 31.9,88.9 32.3,88.3 32.8,87.8 
							33.2,87.3 33.7,86.8 34.2,86.3 34.8,85.9 35.3,85.4 35.9,85.1 36.4,84.7 37,84.4 37.6,84 38.2,83.8 38.8,83.5 39.5,83.3 
							40.1,83.1 40.7,83 41.4,82.9 41.6,82.9 42,82.8 42.7,82.8 43.3,82.7 						"/>
						<polyline class="st2" points="31.7,96.2 31.7,96 31.8,95.6 31.9,95.4 31.9,95.3 						"/>
						<polyline class="st2" points="31.6,103.3 31.6,103.2 31.5,102.7 31.5,102.6 31.4,102 31.4,102 31.3,101.3 31.3,101.3 
							31.3,100.7 31.3,100 31.3,99.3 31.3,98.7 31.3,98.7 31.4,98 31.4,98 31.5,97.4 31.5,97.3 31.6,96.8 31.6,96.7 						"/>
						<polyline class="st2" points="32,105 31.9,104.6 31.8,104.4 31.7,104 31.7,103.8 						"/>
						<polyline class="st1" points="162.6,84.6 162,84.7 161.4,84.7 160.8,84.8 160.3,85 159.8,85.4 159.2,85.6 158.7,85.8 
							158.2,86.1 157.6,86.4 157.1,86.7 156.6,87 156.2,87.4 155.7,87.8 155.2,88.2 154.8,88.7 154.4,89.2 154,89.6 153.6,90.1 
							153.2,90.6 152.9,91.2 152.6,91.8 152.3,92.3 152,92.9 151.7,93.5 151.5,94.1 151.3,94.7 151.1,95.4 150.9,96 150.8,96.7 
							150.7,97.3 150.6,98 150.5,98.7 150.5,99.3 150.5,100 150.5,100.7 150.5,101.3 150.6,102 150.7,102.7 150.8,103.3 150.9,104 
							151.1,104.6 151.3,105.3 151.5,105.9 151.7,106.5 152,107.1 152.3,107.7 152.6,108.2 152.9,108.8 153.2,109.3 153.6,109.9 
							154,110.4 154.4,110.9 154.8,111.3 155.2,111.8 155.7,112.2 156.2,112.6 156.6,113 157.1,113.3 157.6,113.6 158.2,113.9 
							158.7,114.2 159.2,114.4 159.8,114.6 160.3,115 160.8,115.2 161.4,115.3 162,115.3 162.6,115.4 						"/>
						<polyline class="st2" points="160.3,85 159.7,85 159.1,85.2 158.6,85.4 158,85.6 157.5,85.8 156.9,86.1 156.4,86.4 
							155.9,86.7 155.4,87 154.9,87.4 154.5,87.8 154,88.2 153.6,88.7 153.2,89.2 152.8,89.6 152.4,90.1 152,90.6 151.7,91.2 
							151.4,91.8 151.1,92.3 150.8,92.9 150.5,93.5 150.3,94.1 150.1,94.7 149.9,95.4 149.7,96 149.6,96.7 149.5,97.3 149.4,98 
							149.3,98.7 149.3,99.3 149.3,100 149.3,100.7 149.3,101.3 149.4,102 149.5,102.7 149.6,103.3 149.7,104 149.9,104.6 
							150.1,105.3 150.3,105.9 150.5,106.5 150.8,107.1 151.1,107.7 151.4,108.2 151.7,108.8 152,109.3 152.4,109.9 152.8,110.4 
							153.2,110.9 153.6,111.3 154,111.8 154.5,112.2 154.9,112.6 155.4,113 155.9,113.3 156.4,113.6 156.9,113.9 157.5,114.2 
							158,114.4 158.6,114.6 159.1,114.8 159.7,115 160.3,115 						"/>
						<polyline class="st2" points="44.6,115.4 44,115.3 43.4,115.3 42.8,115.3 42.2,115.3 41.6,115.2 41.1,115 40.6,114.6 
							40,114.4 39.5,114.2 39,113.9 38.4,113.6 37.9,113.3 37.4,113 36.9,112.6 36.5,112.2 36,111.8 35.6,111.3 35.2,110.9 
							34.8,110.4 34.4,109.9 34,109.3 33.7,108.8 33.3,108.2 33.1,107.7 32.8,107.1 32.5,106.5 32.3,106 32.3,106 32.3,105.9 
							32.2,105.5 32.1,105.3 32,105 31.9,104.7 31.8,104.1 31.7,103.8 31.6,103.4 31.6,103.3 31.5,102.7 31.4,102 31.3,101.4 
							31.3,100.7 31.3,100 31.3,99.3 31.3,98.6 31.4,98 31.5,97.3 31.6,96.7 31.6,96.6 31.7,96.2 31.8,95.9 31.9,95.3 32.1,94.7 
							32.2,94.5 32.3,94.1 32.3,94 32.3,94 32.5,93.5 32.8,92.9 33.1,92.3 33.3,91.8 33.7,91.2 34,90.6 34.4,90.1 34.8,89.6 
							35.2,89.2 35.6,88.7 36,88.2 36.5,87.8 36.9,87.4 37.4,87 37.9,86.7 38.4,86.4 39,86.1 39.5,85.8 40,85.6 40.6,85.4 41.1,85 
							41.6,84.8 42.2,84.7 42.8,84.7 43.4,84.7 44,84.7 44.6,84.6 						"/>
						<polyline class="st1" points="55.4,39.4 53.1,39.5 50.8,39.7 49.9,39.8 47.6,40.1 45.3,40.5 43.1,41 40.9,41.6 40.1,41.9 
							37.9,42.6 35.7,43.5 33.6,44.4 31.5,45.5 29.5,46.6 28.8,47 26.9,48.3 24.9,49.6 23.1,51.1 21.2,52.6 19.5,54.3 17.8,56 
							16.2,57.8 15.8,58.2 14.2,60.1 12.8,62 11.4,64 10,66.1 8.8,68.2 7.6,70.5 6.6,72.7 5.6,75 4.7,77.4 3.9,79.8 3.8,80.1 
							3.1,82.5 2.5,84.9 1.9,87.4 1.5,89.9 1.2,92.4 0.9,94.9 0.8,97.5 0.8,100 0.8,102.5 0.9,105.1 1.2,107.6 1.5,110.1 1.9,112.6 
							2.5,115.1 3.1,117.5 3.8,119.9 3.9,120.2 4.7,122.6 5.6,125 6.6,127.3 7.6,129.5 8.8,131.8 10,133.9 11.4,136 12.8,138 
							14.2,139.9 15.8,141.8 16.2,142.2 17.8,144 19.5,145.7 21.2,147.4 23.1,148.9 24.9,150.4 26.9,151.7 28.8,153 29.5,153.4 
							31.5,154.5 33.6,155.6 35.7,156.5 37.9,157.4 40.1,158.1 40.9,158.4 43.1,159 45.3,159.5 47.6,159.9 49.9,160.2 50.8,160.3 
							53.1,160.5 55.4,160.6 56.3,160.4 57.2,160.2 58,159.7 58.8,159.1 59.5,158.3 60.2,157.4 60.5,156.8 60.8,156.3 61.4,155.1 
							62.1,153.1 62.8,150.9 63.3,148.5 64,145 64.5,140.3 65,133.5 65.2,124.9 65.2,123.8 65.3,122.7 65.4,121.5 65.5,120.6 
							65.7,119.9 65.8,119.4 66,118.9 66.1,118.5 66.3,118.1 66.5,117.9 66.7,117.6 66.8,117.5 67,117.4 67.2,117.3 67.4,117.3 
							67.7,117.3 67.8,117.3 67.9,117.4 68.1,117.5 68.3,117.7 68.4,118 68.6,118.3 68.8,118.6 69,119 69.1,119.5 69.3,120.2 
							69.4,121 69.5,121.9 69.6,123.2 69.7,124.9 69.7,129.7 69.9,134.5 70.3,140.3 70.9,145 71.5,148.5 72.1,150.9 72.7,153.1 
							73.5,155.1 74.1,156.3 74.7,157.4 75.3,158.3 76.1,159.1 76.8,159.7 77.7,160.2 78.5,160.4 79.5,160.6 80.4,160.4 81.3,160.2 
							82.1,159.7 82.9,159.1 83.6,158.3 84.3,157.4 84.6,156.8 84.9,156.3 85.5,155.1 86.2,153.1 86.9,150.9 87.4,148.5 88,145 
							88.6,140.3 89.1,133.5 89.3,124.9 89.3,123.8 89.4,122.7 89.5,121.5 89.6,120.6 89.8,119.9 89.9,119.4 90,118.9 90.2,118.5 
							90.4,118.1 90.6,117.9 90.7,117.6 91,117.5 91.1,117.4 91.3,117.3 91.5,117.3 91.7,117.3 91.9,117.3 92,117.4 92.2,117.5 
							92.4,117.7 92.6,118 92.7,118.3 92.9,118.6 93.1,119 93.2,119.5 93.4,120.2 93.5,121 93.6,121.9 93.7,123.2 93.8,124.9 
							93.8,129.7 94,134.5 94.4,140.3 95,145 95.6,148.5 96.2,150.9 96.8,153.1 97.6,155.1 98.1,156.3 98.8,157.4 99.4,158.3 
							100.1,159.1 100.9,159.7 101.7,160.2 102.6,160.4 103.6,160.6 104.5,160.4 105.4,160.2 106.2,159.7 107,159.1 107.7,158.3 
							108.4,157.4 108.7,156.8 109,156.3 109.5,155.1 110.3,153.1 110.9,150.9 111.5,148.5 112.1,145 112.7,140.3 113.2,133.5 
							113.4,124.9 113.4,123.8 113.4,122.7 113.6,121.5 113.7,120.6 113.8,119.9 114,119.4 114.1,118.9 114.3,118.5 114.5,118.1 
							114.6,117.9 114.8,117.6 115,117.5 115.2,117.4 115.4,117.3 115.6,117.3 115.8,117.3 116,117.3 116.1,117.4 116.2,117.5 
							116.4,117.7 116.6,118 116.8,118.3 117,118.6 117.1,119 117.3,119.5 117.5,120.2 117.6,121 117.7,121.9 117.8,123.2 
							117.8,124.9 117.9,129.7 118.1,134.5 118.5,140.3 119.1,145 119.7,148.5 120.3,150.9 120.9,153.1 121.7,155.1 122.3,156.3 
							122.8,157.4 123.5,158.3 124.2,159.1 125,159.7 125.8,160.2 126.7,160.4 127.7,160.6 128.6,160.4 129.5,160.2 130.3,159.7 
							131.1,159.1 131.8,158.3 132.5,157.4 132.8,156.8 133.1,156.3 133.6,155.1 134.4,153.1 135.1,150.9 135.6,148.5 136.2,145 
							136.8,140.3 137.3,133.5 137.5,124.9 137.5,123.8 137.5,122.7 137.7,121.5 137.8,120.6 137.9,119.9 138.1,119.4 138.2,118.9 
							138.4,118.5 138.6,118.1 138.7,117.9 138.9,117.6 139.1,117.5 139.3,117.4 139.5,117.3 139.7,117.3 139.9,117.3 140.1,117.3 
							140.2,117.4 140.3,117.5 140.5,117.7 140.7,118 140.9,118.3 141.1,118.6 141.2,119 141.4,119.5 141.5,120.2 141.7,121 
							141.8,121.9 141.9,123.2 141.9,124.9 142,129.7 142.2,134.5 142.6,140.3 143.2,145 143.8,148.5 144.4,150.9 145,153.1 
							145.8,155.1 146.3,156.3 147,157.4 147.6,158.3 148.3,159.1 149.1,159.7 149.9,160.2 150.8,160.4 151.8,160.6 152.7,160.4 
							153.6,160.2 154.4,159.7 155.2,159.1 155.9,158.3 156.6,157.4 157.2,156.3 157.7,155.1 158.5,153.1 159.1,150.9 159.7,148.5 
							160.3,145 160.9,140.3 161.4,133.5 161.5,124.9 161.6,123.8 161.6,122.7 161.7,121.5 161.9,120.6 162,119.9 162.2,119.4 
							162.3,118.9 162.5,118.5 162.6,118.1 162.8,117.9 163,117.6 163.2,117.5 163.3,117.4 163.6,117.3 163.8,117.3 						"/>
						<line class="st1" x1="108.7" y1="43.2" x2="108.4" y2="42.7"/>
						<polyline class="st2" points="67.4,114.8 67.2,114.8 67.2,114.8 67,114.8 66.5,114.8 66,114.7 65.5,114.6 64.9,114.5 
							64.5,114.4 64.1,114.2 63.6,114 63.1,113.8 62.6,113.5 62.2,113.3 61.8,113.1 61.3,112.7 60.8,112.4 60.4,112 60,111.6 
							59.9,111.6 59.6,111.3 59.2,110.8 58.8,110.3 58.5,109.8 58.1,109.3 57.7,108.8 57.4,108.2 57.2,107.7 56.9,107.2 56.6,106.6 
							56.4,106 56.2,105.3 56,104.7 55.8,104 55.7,103.4 55.6,102.7 55.5,102 55.4,101.4 55.4,100.7 55.4,100 55.4,99.3 55.4,98.6 
							55.5,98 55.6,97.3 55.7,96.6 55.8,96 56,95.3 56.2,94.7 56.4,94 56.6,93.4 56.9,92.8 57.2,92.3 57.4,91.8 57.7,91.2 
							58.1,90.7 58.5,90.2 58.8,89.7 59.2,89.2 59.6,88.7 59.9,88.5 60,88.4 60.4,88 60.8,87.6 61.3,87.3 61.8,86.9 62.2,86.6 
							62.6,86.5 63.1,86.2 63.6,86 64.1,85.8 64.5,85.6 64.9,85.5 65.5,85.4 66,85.3 66.5,85.2 67,85.2 67.2,85.2 67.2,85.2 
							67.4,85.2 						"/>
						<polyline class="st2" points="115.6,114.8 115.4,114.8 115.2,114.8 115.1,114.8 114.6,114.8 114.2,114.7 113.7,114.6 
							113.1,114.5 112.7,114.4 112.3,114.2 111.8,114 111.3,113.8 110.7,113.5 110.4,113.3 110,113.1 109.5,112.7 109,112.4 
							108.5,112 108.1,111.6 108.1,111.6 107.8,111.3 107.4,110.8 107,110.3 106.6,109.8 106.3,109.3 105.9,108.8 105.6,108.2 
							105.3,107.7 105.1,107.2 104.8,106.6 104.6,106 104.4,105.3 104.2,104.7 104,104 103.9,103.4 103.8,102.7 103.7,102 
							103.6,101.4 103.6,100.7 103.6,100 103.6,99.3 103.6,98.6 103.7,98 103.8,97.3 103.9,96.6 104,96 104.2,95.3 104.4,94.7 
							104.6,94 104.8,93.4 105.1,92.8 105.3,92.3 105.6,91.8 105.9,91.2 106.3,90.7 106.6,90.2 107,89.7 107.4,89.2 107.8,88.7 
							108.1,88.5 108.1,88.4 108.5,88 109,87.6 109.5,87.3 110,86.9 110.4,86.6 110.7,86.5 111.3,86.2 111.8,86 112.3,85.8 
							112.7,85.6 113.1,85.5 113.7,85.4 114.2,85.3 114.6,85.2 115.1,85.2 115.2,85.2 115.4,85.2 115.6,85.2 						"/>
						<polyline class="st2" points="91.5,114.8 91.3,114.8 91.1,114.8 91,114.8 90.5,114.8 90.1,114.7 89.6,114.6 89,114.5 
							88.6,114.4 88.2,114.2 87.7,114 87.1,113.8 86.6,113.5 86.3,113.3 85.9,113.1 85.4,112.7 84.9,112.4 84.4,112 84.1,111.6 
							84,111.6 83.7,111.3 83.3,110.8 82.9,110.3 82.5,109.8 82.2,109.3 81.8,108.8 81.5,108.2 81.2,107.7 81,107.2 80.7,106.6 
							80.5,106 80.3,105.3 80.1,104.7 79.9,104 79.8,103.4 79.7,102.7 79.6,102 79.5,101.4 79.5,100.7 79.5,100 79.5,99.3 
							79.5,98.6 79.6,98 79.7,97.3 79.8,96.6 79.9,96 80.1,95.3 80.3,94.7 80.5,94 80.7,93.4 81,92.8 81.2,92.3 81.5,91.8 
							81.8,91.2 82.2,90.7 82.5,90.2 82.9,89.7 83.3,89.2 83.7,88.7 84,88.5 84.1,88.4 84.4,88 84.9,87.6 85.4,87.3 85.9,86.9 
							86.3,86.6 86.6,86.5 87.1,86.2 87.7,86 88.2,85.8 88.6,85.6 89,85.5 89.6,85.4 90.1,85.3 90.5,85.2 91,85.2 91.1,85.2 
							91.3,85.2 91.5,85.2 						"/>
						<polyline class="st2" points="139.7,85.2 139.5,85.2 139.3,85.2 139.2,85.2 138.7,85.2 138.3,85.3 137.7,85.4 137.2,85.5 
							136.8,85.6 136.4,85.8 135.9,86 135.3,86.2 134.8,86.5 134.5,86.6 134,86.9 133.6,87.3 133.1,87.6 132.6,88 132.2,88.4 
							132.2,88.5 131.9,88.7 131.5,89.2 131.1,89.7 130.7,90.2 130.4,90.7 130,91.2 129.7,91.8 129.4,92.3 129.2,92.8 128.9,93.4 
							128.7,94 128.5,94.7 128.3,95.3 128.1,96 128,96.6 127.9,97.3 127.8,98 127.7,98.6 127.7,99.3 127.6,100 127.7,100.7 
							127.7,101.4 127.8,102 127.9,102.7 128,103.4 128.1,104 128.3,104.7 128.5,105.3 128.7,106 128.9,106.6 129.2,107.2 
							129.4,107.7 129.7,108.2 130,108.8 130.4,109.3 130.7,109.8 131.1,110.3 131.5,110.8 131.9,111.3 132.2,111.6 132.2,111.6 
							132.6,112 133.1,112.4 133.6,112.7 134,113.1 134.5,113.3 134.8,113.5 135.3,113.8 135.9,114 136.4,114.2 136.8,114.4 
							137.2,114.5 137.7,114.6 138.3,114.7 138.7,114.8 139.2,114.8 139.5,114.8 139.5,114.8 139.7,114.8 						"/>
						<polyline class="st1" points="43.3,82.7 43.6,82.7 43.7,82.7 43.8,82.6 44,82.5 44.2,82.3 44.4,82.1 44.5,81.7 44.7,81.4 
							44.9,81 45,80.5 45.2,79.8 45.3,79 45.4,78.1 45.5,76.8 45.6,75.1 45.6,70.3 45.8,65.5 46.2,59.7 46.8,55 47.4,51.5 48,49.1 
							48.7,46.9 49.4,44.9 50,43.7 50.6,42.6 51.2,41.7 52,40.9 52.7,40.3 53.6,39.8 54.4,39.6 55.4,39.4 56.3,39.6 57.2,39.8 
							58,40.3 58.8,40.9 59.5,41.7 60.2,42.6 60.5,43.2 60.8,43.7 61.4,44.9 62.1,46.9 62.8,49.1 63.3,51.5 64,55 64.5,59.7 
							65,66.5 65.2,75.1 65.2,76.2 65.3,77.3 65.4,78.5 65.5,79.4 65.7,80.1 65.8,80.6 66,81.1 66.1,81.5 66.3,81.9 66.5,82.1 
							66.7,82.4 66.8,82.5 67,82.6 67.2,82.7 67.4,82.7 67.7,82.7 67.8,82.7 67.9,82.6 68.1,82.5 68.3,82.3 68.4,82.1 68.6,81.7 
							68.8,81.4 69,81 69.1,80.5 69.3,79.8 69.4,79 69.5,78.1 69.6,76.8 69.7,75.1 69.7,70.3 69.9,65.5 70.3,59.7 70.9,55 
							71.5,51.5 72.1,49.1 72.7,46.9 73.5,44.9 74.1,43.7 74.7,42.6 75.3,41.7 76.1,40.9 76.8,40.3 77.7,39.8 78.5,39.6 79.5,39.4 
							80.4,39.6 81.3,39.8 82.1,40.3 82.9,40.9 83.6,41.7 84.3,42.6 84.6,43.2 84.9,43.7 85.5,44.9 86.2,46.9 86.9,49.1 87.4,51.5 
							88,55 88.6,59.7 89.1,66.5 89.3,75.1 89.3,76.2 89.4,77.3 89.5,78.5 89.6,79.4 89.8,80.1 89.9,80.6 90,81.1 90.2,81.5 
							90.4,81.9 90.6,82.1 90.7,82.4 91,82.5 91.1,82.6 91.3,82.7 91.5,82.7 91.7,82.7 91.9,82.7 92,82.6 92.2,82.5 92.4,82.3 
							92.6,82.1 92.7,81.7 92.9,81.4 93.1,81 93.2,80.5 93.4,79.8 93.5,79 93.6,78.1 93.7,76.8 93.8,75.1 93.8,70.3 94,65.5 
							94.4,59.7 95,55 95.6,51.5 96.2,49.1 96.8,46.9 97.6,44.9 98.1,43.7 98.8,42.6 99.4,41.7 100.1,40.9 100.9,40.3 101.7,39.8 
							102.6,39.6 103.6,39.4 104.5,39.6 105.4,39.8 106.2,40.3 107,40.9 107.7,41.7 108.4,42.6 108.4,42.7 108.7,43.2 109,43.7 
							109.5,44.9 110.3,46.9 110.9,49.1 111.5,51.5 112.1,55 112.7,59.7 113.2,66.5 113.4,75.1 113.4,76.2 113.4,77.3 113.6,78.5 
							113.7,79.4 113.8,80.1 114,80.6 114.1,81.1 114.3,81.5 114.5,81.9 114.6,82.1 114.8,82.4 115,82.5 115.2,82.6 115.4,82.7 
							115.6,82.7 115.8,82.7 116,82.7 116.1,82.6 116.2,82.5 116.4,82.3 116.6,82.1 116.8,81.7 117,81.4 117.1,81 117.3,80.5 
							117.5,79.8 117.6,79 117.7,78.1 117.8,76.8 117.8,75.1 117.9,70.3 118.1,65.5 118.5,59.7 119.1,55 119.7,51.5 120.3,49.1 
							120.9,46.9 121.7,44.9 122.3,43.7 122.8,42.6 123.5,41.7 124.2,40.9 125,40.3 125.8,39.8 126.7,39.6 127.7,39.4 128.6,39.6 
							129.5,39.8 130.3,40.3 131.1,40.9 131.8,41.7 132.5,42.6 132.8,43.2 133.1,43.7 133.6,44.9 134.4,46.9 135.1,49.1 135.6,51.5 
							136.2,55 136.8,59.7 137.3,66.5 137.5,75.1 137.5,76.2 137.5,77.3 137.7,78.5 137.8,79.4 137.9,80.1 138.1,80.6 138.2,81.1 
							138.4,81.5 138.6,81.9 138.7,82.1 138.9,82.4 139.1,82.5 139.3,82.6 139.5,82.7 139.7,82.7 139.9,82.7 140.1,82.7 140.2,82.6 
							140.3,82.5 140.5,82.3 140.7,82.1 140.9,81.7 141.1,81.4 141.2,81 141.4,80.5 141.5,79.8 141.7,79 141.8,78.1 141.9,76.8 
							141.9,75.1 142,70.3 142.2,65.5 142.6,59.7 143.2,55 143.8,51.5 144.4,49.1 145,46.9 145.8,44.9 146.3,43.7 147,42.6 
							147.6,41.7 148.3,40.9 149.1,40.3 149.9,39.8 150.8,39.6 151.8,39.4 152.7,39.6 153.6,39.8 154.4,40.3 155.2,40.9 155.9,41.7 
							156.6,42.6 157.2,43.7 157.7,44.9 158.5,46.9 159.1,49.1 159.7,51.5 160.3,55 160.9,59.7 161.4,66.5 161.5,75.1 161.6,76.2 
							161.6,77.3 161.7,78.5 161.9,79.4 162,80.1 162.2,80.6 162.3,81.1 162.5,81.5 162.6,81.9 162.8,82.1 163,82.4 163.2,82.5 
							163.3,82.6 163.6,82.7 163.8,82.7 163.8,84.6 						"/>
					</g>
				</g>
			</g>
		</g>
		<g>
			<path class="st3" d="M26,59.2h7.6v1.6h-5.9v3.5c0.3-0.1,0.6-0.2,0.8-0.2c0.3,0,0.6-0.1,0.8-0.1c1.6,0,2.9,0.4,3.8,1.3
				c0.9,0.9,1.4,2.1,1.4,3.6c0,1.5-0.5,2.7-1.4,3.6c-1,0.9-2.3,1.3-4.1,1.3c-0.6,0-1.2-0.1-1.8-0.2c-0.6-0.1-1.3-0.3-1.9-0.5v-2
				c0.6,0.3,1.2,0.5,1.8,0.7c0.6,0.2,1.3,0.2,2,0.2c1.1,0,2-0.3,2.6-0.9c0.6-0.6,1-1.4,1-2.4s-0.3-1.8-1-2.4
				c-0.6-0.6-1.5-0.9-2.6-0.9c-0.5,0-1,0.1-1.6,0.2c-0.5,0.1-1,0.3-1.6,0.5V59.2z"/>
		</g>
	</g>
	<line class="st1" x1="163.8" y1="115.4" x2="163.8" y2="117.3"/>
</g>
</svg>
