<?xml version="1.0" encoding="utf-8"?>
<!-- Generator: Adobe Illustrator 21.0.0, SVG Export Plug-In . SVG Version: 6.00 Build 0)  -->
<svg version="1.1" id="Layer_1" xmlns="http://www.w3.org/2000/svg" xmlns:xlink="http://www.w3.org/1999/xlink" x="0px" y="0px"
	 viewBox="0 0 166 200" style="enable-background:new 0 0 166 200;" xml:space="preserve">
<style type="text/css">
	.st0{fill:#797979;}
	.st1{fill:none;stroke:#FFFFFF;stroke-width:1.5;stroke-linecap:round;stroke-linejoin:round;}
	.st2{fill:none;stroke:#FFFFFF;stroke-linecap:round;stroke-linejoin:round;}
	.st3{fill:#FFFFFF;}
</style>
<g>
	<g id="XMLID_20_">
		<g>
			<polygon class="st0" points="155.2,39.5 154.4,39.5 153.7,39.8 153,40.3 152.3,40.9 151.7,41.7 151.2,42.6 150.7,43.7 
				150.2,44.9 149.6,46.9 149,49.1 148.4,52.4 147.8,56.8 147.3,63.5 147.1,69.4 147,75.1 147,77 146.8,78.5 146.7,79.6 146.6,80.3 
				146.4,80.9 146.3,81.4 146.1,81.7 146,82 145.8,82.3 145.7,82.4 145.6,82.5 145.5,82.6 145.4,82.7 145.2,82.7 145.1,82.7 
				145,82.7 144.9,82.7 144.8,82.6 144.6,82.5 144.5,82.4 144.4,82.3 144.3,82.1 144.2,81.8 144,81.5 143.9,81.1 143.8,80.6 
				143.6,80 143.5,79.2 143.4,78.1 143.3,76.8 143.3,75.1 143.1,65.5 142.6,58.7 142,53.2 141.4,49.9 140.9,47.6 140.3,45.5 
				139.6,43.7 139.1,42.6 138.9,42.2 140.8,41.6 143.1,41 145.3,40.4 147.6,40.1 149.8,39.8 150.6,39.7 152.9,39.5 			"/>
			<polygon class="st0" points="155.2,160.5 152.9,160.5 150.6,160.3 149.8,160.2 147.6,159.9 145.3,159.5 143.1,159 140.8,158.4 
				138.9,157.7 139.1,157.4 139.6,156.3 140.3,154.5 140.9,152.4 141.4,150.1 142,146.8 142.6,141.3 143.1,134.5 143.3,124.9 
				143.3,123.2 143.4,121.9 143.5,120.8 143.6,120 143.8,119.3 143.9,118.9 144,118.5 144.2,118.2 144.3,117.9 144.4,117.7 
				144.5,117.6 144.6,117.5 144.8,117.4 144.9,117.3 145,117.3 145.1,117.3 145.2,117.3 145.4,117.3 145.5,117.4 145.6,117.5 
				145.7,117.6 145.8,117.7 146,117.9 146.1,118.2 146.3,118.6 146.4,119 146.6,119.7 146.7,120.4 146.8,121.5 147,122.9 147,124.9 
				147.1,130.6 147.3,136.5 147.8,143.1 148.4,147.6 149,150.9 149.6,153.1 150.2,155.1 150.7,156.3 151.2,157.4 151.7,158.3 
				152.3,159.1 153,159.7 153.7,160.2 154.4,160.5 			"/>
			<polygon class="st0" points="135.1,39.5 134.3,39.5 133.6,39.8 132.9,40.3 132.2,40.9 131.6,41.7 131.1,42.6 130.6,43.7 
				130.1,44.9 129.5,46.9 128.9,49.1 128.3,52.4 127.8,56.8 127.2,63.5 127,69.4 126.9,75.1 126.9,77 126.8,78.5 126.6,79.6 
				126.5,80.3 126.3,80.9 126.2,81.4 126.1,81.7 125.9,82 125.7,82.3 125.6,82.4 125.5,82.5 125.4,82.6 125.3,82.7 125.2,82.7 
				125.1,82.7 124.9,82.7 124.8,82.7 124.7,82.6 124.6,82.5 124.5,82.4 124.4,82.3 124.2,82.1 124.1,81.8 123.9,81.5 123.8,81.1 
				123.7,80.6 123.6,80 123.4,79.2 123.3,78.1 123.2,76.8 123.2,75.1 123,65.5 122.5,58.7 121.9,53.2 121.3,49.9 120.8,47.6 
				120.2,45.5 119.5,43.7 119,42.6 118.8,42.2 120.8,41.6 123,41 125.2,40.4 127.5,40.1 129.7,39.8 130.5,39.7 132.8,39.5 			"/>
			<polygon class="st0" points="135.1,160.5 132.8,160.5 130.5,160.3 129.7,160.2 127.5,159.9 125.2,159.5 123,159 120.8,158.4 
				118.8,157.7 119,157.4 119.5,156.3 120.2,154.5 120.8,152.4 121.3,150.1 121.9,146.8 122.5,141.3 123,134.5 123.2,124.9 
				123.2,123.2 123.3,121.9 123.4,120.8 123.6,120 123.7,119.3 123.8,118.9 123.9,118.5 124.1,118.2 124.2,117.9 124.4,117.7 
				124.5,117.6 124.6,117.5 124.7,117.4 124.8,117.3 124.9,117.3 125.1,117.3 125.2,117.3 125.3,117.3 125.4,117.4 125.5,117.5 
				125.6,117.6 125.7,117.7 125.9,117.9 126.1,118.2 126.2,118.6 126.3,119 126.5,119.7 126.6,120.4 126.8,121.5 126.9,122.9 
				126.9,124.9 127,130.6 127.2,136.5 127.8,143.1 128.3,147.6 128.9,150.9 129.5,153.1 130.1,155.1 130.6,156.3 131.1,157.4 
				131.6,158.3 132.2,159.1 132.9,159.7 133.6,160.2 134.3,160.5 			"/>
			<polygon class="st0" points="115,39.5 114.2,39.5 113.5,39.8 112.8,40.3 112.2,40.9 111.6,41.7 111,42.6 110.5,43.7 110,44.9 
				109.4,46.9 108.9,49.1 108.3,52.4 107.7,56.8 107.1,63.5 106.9,69.4 106.8,75.1 106.8,77 106.7,78.5 106.5,79.6 106.4,80.3 
				106.2,80.9 106.1,81.4 106,81.7 105.8,82 105.7,82.3 105.6,82.4 105.5,82.5 105.3,82.6 105.2,82.7 105.1,82.7 105,82.7 
				104.9,82.7 104.7,82.7 104.6,82.6 104.5,82.5 104.4,82.4 104.3,82.3 104.2,82.1 104,81.8 103.9,81.5 103.8,81.1 103.6,80.6 
				103.5,80 103.3,79.2 103.2,78.1 103.2,76.8 103.1,75.1 102.9,65.5 102.5,58.7 101.8,53.2 101.3,49.9 100.7,47.6 100.1,45.5 
				99.5,43.7 99,42.6 98.7,42.2 100.7,41.6 102.9,41 105.1,40.4 107.4,40.1 109.7,39.8 110.4,39.7 112.7,39.5 			"/>
			<polygon class="st0" points="115,160.5 112.7,160.5 110.4,160.3 109.7,160.2 107.4,159.9 105.1,159.5 102.9,159 100.7,158.4 
				98.7,157.7 99,157.4 99.5,156.3 100.1,154.5 100.7,152.4 101.3,150.1 101.8,146.8 102.5,141.3 102.9,134.5 103.1,124.9 
				103.2,123.2 103.2,121.9 103.3,120.8 103.5,120 103.6,119.3 103.8,118.9 103.9,118.5 104,118.2 104.2,117.9 104.3,117.7 
				104.4,117.6 104.5,117.5 104.6,117.4 104.7,117.3 104.9,117.3 105,117.3 105.1,117.3 105.2,117.3 105.3,117.4 105.5,117.5 
				105.6,117.6 105.7,117.7 105.8,117.9 106,118.2 106.1,118.6 106.2,119 106.4,119.7 106.5,120.4 106.7,121.5 106.8,122.9 
				106.8,124.9 106.9,130.6 107.1,136.5 107.7,143.1 108.3,147.6 108.9,150.9 109.4,153.1 110,155.1 110.5,156.3 111,157.4 
				111.6,158.3 112.2,159.1 112.8,159.7 113.5,160.2 114.2,160.5 			"/>
			<polygon class="st0" points="94.9,39.5 94.2,39.5 93.4,39.8 92.7,40.3 92.1,40.9 91.5,41.7 90.9,42.6 90.4,43.7 90,44.9 
				89.3,46.9 88.8,49.1 88.2,52.4 87.6,56.8 87.1,63.5 86.8,69.4 86.8,75.1 86.7,77 86.6,78.5 86.5,79.6 86.3,80.3 86.2,80.9 
				86.1,81.4 85.9,81.7 85.8,82 85.6,82.3 85.5,82.4 85.4,82.5 85.3,82.6 85.2,82.7 85,82.7 84.9,82.7 84.8,82.7 84.7,82.7 
				84.6,82.6 84.4,82.5 84.3,82.4 84.2,82.3 84.1,82.1 84,81.8 83.8,81.5 83.7,81.1 83.5,80.6 83.4,80 83.3,79.2 83.1,78.1 
				83.1,76.8 83,75.1 82.8,65.5 82.4,58.7 81.8,53.2 81.2,49.9 80.7,47.6 80.1,45.5 79.4,43.7 78.9,42.6 78.7,42.2 80.6,41.6 
				82.8,41 85.1,40.4 87.3,40.1 89.6,39.8 90.4,39.7 92.7,39.5 			"/>
			<polygon class="st0" points="94.9,160.5 92.7,160.5 90.4,160.3 89.6,160.2 87.3,159.9 85.1,159.5 82.8,159 80.6,158.4 
				78.7,157.7 78.9,157.4 79.4,156.3 80.1,154.5 80.7,152.4 81.2,150.1 81.8,146.8 82.4,141.3 82.8,134.5 83,124.9 83.1,123.2 
				83.1,121.9 83.3,120.8 83.4,120 83.5,119.3 83.7,118.9 83.8,118.5 84,118.2 84.1,117.9 84.2,117.7 84.3,117.6 84.4,117.5 
				84.6,117.4 84.7,117.3 84.8,117.3 84.9,117.3 85,117.3 85.2,117.3 85.3,117.4 85.4,117.5 85.5,117.6 85.6,117.7 85.8,117.9 
				85.9,118.2 86.1,118.6 86.2,119 86.3,119.7 86.5,120.4 86.6,121.5 86.7,122.9 86.8,124.9 86.8,130.6 87.1,136.5 87.6,143.1 
				88.2,147.6 88.8,150.9 89.3,153.1 90,155.1 90.4,156.3 90.9,157.4 91.5,158.3 92.1,159.1 92.7,159.7 93.4,160.2 94.2,160.5 			
				"/>
			<polygon class="st0" points="74.9,39.5 74.1,39.5 73.3,39.8 72.7,40.3 72,40.9 71.4,41.7 70.9,42.6 70.4,43.7 69.9,44.9 
				69.2,46.9 68.7,49.1 68.1,52.4 67.5,56.8 67,63.5 66.8,69.4 66.7,75.1 66.6,77 66.5,78.5 66.4,79.6 66.3,80.3 66.1,80.9 66,81.4 
				65.8,81.7 65.7,82 65.5,82.3 65.4,82.4 65.3,82.5 65.2,82.6 65.1,82.7 65,82.7 64.8,82.7 64.7,82.7 64.6,82.7 64.5,82.6 
				64.4,82.5 64.2,82.4 64.1,82.3 64,82.1 63.9,81.8 63.7,81.5 63.6,81.1 63.5,80.6 63.3,80 63.2,79.2 63.1,78.1 63,76.8 63,75.1 
				62.8,65.5 62.3,58.7 61.7,53.2 61.1,49.9 60.6,47.6 60,45.5 59.3,43.7 58.8,42.6 58.6,42.2 60.5,41.6 62.7,41 65,40.4 67.2,40.1 
				69.5,39.8 70.3,39.7 72.6,39.5 			"/>
			<polygon class="st0" points="74.9,160.5 72.6,160.5 70.3,160.3 69.5,160.2 67.2,159.9 65,159.5 62.7,159 60.5,158.4 58.6,157.7 
				58.8,157.4 59.3,156.3 60,154.5 60.6,152.4 61.1,150.1 61.7,146.8 62.3,141.3 62.8,134.5 63,124.9 63,123.2 63.1,121.9 
				63.2,120.8 63.3,120 63.5,119.3 63.6,118.9 63.7,118.5 63.9,118.2 64,117.9 64.1,117.7 64.2,117.6 64.4,117.5 64.5,117.4 
				64.6,117.3 64.7,117.3 64.8,117.3 65,117.3 65.1,117.3 65.2,117.4 65.3,117.5 65.4,117.6 65.5,117.7 65.7,117.9 65.8,118.2 
				66,118.6 66.1,119 66.3,119.7 66.4,120.4 66.5,121.5 66.6,122.9 66.7,124.9 66.8,130.6 67,136.5 67.5,143.1 68.1,147.6 
				68.7,150.9 69.2,153.1 69.9,155.1 70.4,156.3 70.9,157.4 71.4,158.3 72,159.1 72.7,159.7 73.3,160.2 74.1,160.5 			"/>
			<polygon class="st0" points="54.8,39.5 54,39.5 53.3,39.8 52.6,40.3 51.9,40.9 51.3,41.7 50.8,42.6 50.3,43.7 49.8,44.9 
				49.2,46.9 48.6,49.1 48,52.4 47.4,56.8 46.9,63.5 46.7,69.4 46.6,75.1 46.6,77 46.5,78.5 46.3,79.6 46.2,80.3 46,80.9 45.9,81.4 
				45.8,81.7 45.6,82 45.5,82.3 45.3,82.4 45.2,82.5 45.1,82.6 45,82.7 44.9,82.7 44.8,82.7 44.1,82.7 43.6,82.8 43.4,82.8 
				42.8,82.9 42.2,83 41.5,83.1 40.9,83.3 40.3,83.5 39.6,83.8 39,84 38.4,84.3 37.8,84.7 37.3,85 36.7,85.4 36.2,85.8 35.6,86.3 
				35.1,86.8 34.7,87.3 34.2,87.8 33.7,88.3 33.3,88.9 32.9,89.5 32.5,90.1 32.1,90.7 31.8,91.4 31.5,92 31.2,92.7 30.9,93.4 
				30.7,94.1 30.5,94.8 30.3,95.5 30.2,96.2 30,97 29.9,97.7 29.9,98.5 29.8,99.2 29.8,100 29.8,100.8 29.9,101.5 29.9,102.3 
				30,103 30.2,103.7 30.3,104.5 30.5,105.2 30.7,105.9 30.9,106.6 31.2,107.3 31.5,108 31.8,108.6 32.1,109.3 32.5,109.9 
				32.9,110.5 33.3,111.1 33.7,111.6 34.2,112.2 34.7,112.7 35.1,113.2 35.6,113.7 36.2,114.1 36.7,114.6 37.3,114.9 37.8,115.3 
				38.4,115.6 39,115.9 39.6,116.2 40.3,116.4 40.9,116.7 41.5,116.8 42.2,117 42.8,117.1 43.4,117.2 43.6,117.2 44.1,117.2 
				44.8,117.3 44.9,117.3 45,117.3 45.1,117.4 45.2,117.5 45.3,117.6 45.5,117.7 45.6,117.9 45.8,118.2 45.9,118.6 46,119 
				46.2,119.7 46.3,120.4 46.5,121.5 46.6,122.9 46.6,124.9 46.7,130.6 46.9,136.5 47.4,143.1 48,147.6 48.6,150.9 49.2,153.1 
				49.8,155.1 50.3,156.3 50.8,157.4 51.3,158.3 51.9,159.1 52.6,159.7 53.3,160.2 54,160.5 54.8,160.5 52.5,160.5 50.2,160.3 
				49.4,160.2 47.2,159.9 44.9,159.5 42.7,159 40.4,158.4 38.3,157.6 36.1,156.8 35.4,156.5 33.3,155.6 31.2,154.5 29.2,153.4 
				27.2,152.1 25.3,150.7 23.4,149.3 22.9,148.9 21.1,147.4 19.3,145.7 17.6,144 16,142.2 14.5,140.3 13,138.4 11.6,136.3 
				10.2,134.2 9,132.1 8.8,131.7 7.6,129.5 6.5,127.3 5.6,125 4.7,122.6 3.8,120.2 3.1,117.8 2.5,115.3 2,112.8 1.5,110.3 
				1.2,107.7 1,105.1 0.8,102.6 0.8,100 0.8,97.4 1,94.8 1.2,92.3 1.5,89.7 2,87.2 2.5,84.7 3.1,82.2 3.8,79.8 4.7,77.4 5.6,75 
				6.5,72.7 7.6,70.4 8.8,68.2 9,67.9 10.2,65.7 11.6,63.6 13,61.6 14.5,59.6 16,57.8 17.6,56 19.3,54.2 21.1,52.6 22.9,51.1 
				23.4,50.7 25.3,49.2 27.2,47.9 29.2,46.6 31.2,45.5 33.3,44.4 35.4,43.4 36.1,43.2 38.3,42.3 40.4,41.6 42.7,41 44.9,40.4 
				47.2,40.1 49.4,39.8 50.2,39.7 52.5,39.5 			"/>
		</g>
		<g>
			<polyline class="st1" points="74.9,160.5 72.6,160.5 70.3,160.3 69.5,160.2 67.2,159.9 65,159.5 62.7,159 60.5,158.4 58.6,157.7 
							"/>
			<polyline class="st1" points="94.9,160.5 92.7,160.5 90.4,160.3 89.6,160.2 87.3,159.9 85.1,159.5 82.8,159 80.6,158.4 
				78.7,157.7 			"/>
			<polyline class="st1" points="155.2,160.5 152.9,160.5 150.6,160.3 149.8,160.2 147.6,159.9 145.3,159.5 143.1,159 140.8,158.4 
				138.9,157.7 			"/>
			<polyline class="st1" points="115,160.5 112.7,160.5 110.4,160.3 109.7,160.2 107.4,159.9 105.1,159.5 102.9,159 100.7,158.4 
				98.7,157.7 			"/>
			<polyline class="st1" points="135.1,160.5 132.8,160.5 130.5,160.3 129.7,160.2 127.5,159.9 125.2,159.5 123,159 120.8,158.4 
				118.8,157.7 			"/>
			<polyline class="st1" points="98.7,42.2 100.7,41.6 102.9,41 105.1,40.4 107.4,40.1 109.7,39.8 110.4,39.7 112.7,39.5 115,39.5 
							"/>
			<polyline class="st1" points="118.8,42.2 120.8,41.6 123,41 125.2,40.4 127.5,40.1 129.7,39.8 130.5,39.7 132.8,39.5 135.1,39.5 
							"/>
			<polyline class="st1" points="138.9,42.2 140.8,41.6 143.1,41 145.3,40.4 147.6,40.1 149.8,39.8 150.6,39.7 152.9,39.5 
				155.2,39.5 			"/>
			<polyline class="st1" points="78.7,42.2 80.6,41.6 82.8,41 85.1,40.4 87.3,40.1 89.6,39.8 90.4,39.7 92.7,39.5 94.9,39.5 			"/>
			<polyline class="st1" points="58.6,42.2 60.5,41.6 62.7,41 65,40.4 67.2,40.1 69.5,39.8 70.3,39.7 72.6,39.5 74.9,39.5 			"/>
			<polyline class="st1" points="165.2,115.5 165.1,117.3 164.8,117.4 164.7,117.5 164.6,117.6 164.5,117.7 164.4,117.9 
				164.2,118.2 164.1,118.5 164,118.9 163.9,119.3 163.7,120 163.6,120.8 163.5,121.9 163.4,123.2 163.3,124.9 163.1,134.5 
				162.7,141.3 162.1,146.8 161.5,150.1 161,152.4 160.4,154.5 159.7,156.3 159.2,157.4 158.6,158.3 158,159.1 157.4,159.7 
				156.7,160.2 156,160.5 155.2,160.5 154.4,160.5 153.7,160.2 153,159.7 152.3,159.1 151.7,158.3 151.2,157.4 150.7,156.3 
				150.2,155.1 149.6,153.1 149,150.9 148.4,147.6 147.8,143.1 147.3,136.5 147.1,130.6 147,124.9 147,122.9 146.8,121.5 
				146.7,120.4 146.6,119.7 146.4,119 146.3,118.6 146.1,118.2 146,117.9 145.8,117.7 145.7,117.6 145.6,117.5 145.5,117.4 
				145.4,117.3 145.2,117.3 145.1,117.3 145,117.3 144.9,117.3 144.8,117.4 144.6,117.5 144.5,117.6 144.4,117.7 144.3,117.9 
				144.2,118.2 144,118.5 143.9,118.9 143.8,119.3 143.6,120 143.5,120.8 143.4,121.9 143.3,123.2 143.3,124.9 143.1,134.5 
				142.6,141.3 142,146.8 141.4,150.1 140.9,152.4 140.3,154.5 139.6,156.3 139.1,157.4 138.9,157.7 138.5,158.3 137.9,159.1 
				137.3,159.7 136.6,160.2 135.9,160.5 135.1,160.5 134.3,160.5 133.6,160.2 132.9,159.7 132.2,159.1 131.6,158.3 131.1,157.4 
				130.6,156.3 130.1,155.1 129.5,153.1 128.9,150.9 128.3,147.6 127.8,143.1 127.2,136.5 127,130.6 126.9,124.9 126.9,122.9 
				126.8,121.5 126.6,120.4 126.5,119.7 126.3,119 126.2,118.6 126.1,118.2 125.9,117.9 125.7,117.7 125.6,117.6 125.5,117.5 
				125.4,117.4 125.3,117.3 125.2,117.3 125.1,117.3 124.9,117.3 124.8,117.3 124.7,117.4 124.6,117.5 124.5,117.6 124.4,117.7 
				124.2,117.9 124.1,118.2 123.9,118.5 123.8,118.9 123.7,119.3 123.6,120 123.4,120.8 123.3,121.9 123.2,123.2 123.2,124.9 
				123,134.5 122.5,141.3 121.9,146.8 121.3,150.1 120.8,152.4 120.2,154.5 119.5,156.3 119,157.4 118.8,157.7 118.5,158.3 
				117.9,159.1 117.2,159.7 116.5,160.2 115.8,160.5 115,160.5 114.2,160.5 113.5,160.2 112.8,159.7 112.2,159.1 111.6,158.3 
				111,157.4 110.5,156.3 110,155.1 109.4,153.1 108.9,150.9 108.3,147.6 107.7,143.1 107.1,136.5 106.9,130.6 106.8,124.9 
				106.8,122.9 106.7,121.5 106.5,120.4 106.4,119.7 106.2,119 106.1,118.6 106,118.2 105.8,117.9 105.7,117.7 105.6,117.6 
				105.5,117.5 105.3,117.4 105.2,117.3 105.1,117.3 105,117.3 104.9,117.3 104.7,117.3 104.6,117.4 104.5,117.5 104.4,117.6 
				104.3,117.7 104.2,117.9 104,118.2 103.9,118.5 103.8,118.9 103.6,119.3 103.5,120 103.3,120.8 103.2,121.9 103.2,123.2 
				103.1,124.9 102.9,134.5 102.5,141.3 101.8,146.8 101.3,150.1 100.7,152.4 100.1,154.5 99.5,156.3 99,157.4 98.7,157.7 
				98.4,158.3 97.8,159.1 97.2,159.7 96.5,160.2 95.7,160.5 94.9,160.5 94.2,160.5 93.4,160.2 92.7,159.7 92.1,159.1 91.5,158.3 
				90.9,157.4 90.4,156.3 90,155.1 89.3,153.1 88.8,150.9 88.2,147.6 87.6,143.1 87.1,136.5 86.8,130.6 86.8,124.9 86.7,122.9 
				86.6,121.5 86.5,120.4 86.3,119.7 86.2,119 86.1,118.6 85.9,118.2 85.8,117.9 85.6,117.7 85.5,117.6 85.4,117.5 85.3,117.4 
				85.2,117.3 85,117.3 84.9,117.3 84.8,117.3 84.7,117.3 84.6,117.4 84.4,117.5 84.3,117.6 84.2,117.7 84.1,117.9 84,118.2 
				83.8,118.5 83.7,118.9 83.5,119.3 83.4,120 83.3,120.8 83.1,121.9 83.1,123.2 83,124.9 82.8,134.5 82.4,141.3 81.8,146.8 
				81.2,150.1 80.7,152.4 80.1,154.5 79.4,156.3 78.9,157.4 78.7,157.7 78.3,158.3 77.7,159.1 77.1,159.7 76.4,160.2 75.6,160.5 
				74.9,160.5 74.1,160.5 73.3,160.2 72.7,159.7 72,159.1 71.4,158.3 70.9,157.4 70.4,156.3 69.9,155.1 69.2,153.1 68.7,150.9 
				68.1,147.6 67.5,143.1 67,136.5 66.8,130.6 66.7,124.9 66.6,122.9 66.5,121.5 66.4,120.4 66.3,119.7 66.1,119 66,118.6 
				65.8,118.2 65.7,117.9 65.5,117.7 65.4,117.6 65.3,117.5 65.2,117.4 65.1,117.3 65,117.3 64.8,117.3 64.7,117.3 64.6,117.3 
				64.5,117.4 64.4,117.5 64.2,117.6 64.1,117.7 64,117.9 63.9,118.2 63.7,118.5 63.6,118.9 63.5,119.3 63.3,120 63.2,120.8 
				63.1,121.9 63,123.2 63,124.9 62.8,134.5 62.3,141.3 61.7,146.8 61.1,150.1 60.6,152.4 60,154.5 59.3,156.3 58.8,157.4 
				58.6,157.7 58.2,158.3 57.6,159.1 57,159.7 56.3,160.2 55.6,160.5 54.8,160.5 52.5,160.5 50.2,160.3 49.4,160.2 47.2,159.9 
				44.9,159.5 42.7,159 40.4,158.4 38.3,157.6 36.1,156.8 35.4,156.5 33.3,155.6 31.2,154.5 29.2,153.4 27.2,152.1 25.3,150.7 
				23.4,149.3 22.9,148.9 21.1,147.4 19.3,145.7 17.6,144 16,142.2 14.5,140.3 13,138.4 11.6,136.3 10.2,134.2 9,132.1 8.8,131.7 
				7.6,129.5 6.5,127.3 5.6,125 4.7,122.6 3.8,120.2 3.1,117.8 2.5,115.3 2,112.8 1.5,110.3 1.2,107.7 1,105.1 0.8,102.6 0.8,100 
				0.8,97.4 1,94.8 1.2,92.3 1.5,89.7 2,87.2 2.5,84.7 3.1,82.2 3.8,79.8 4.7,77.4 5.6,75 6.5,72.7 7.6,70.4 8.8,68.2 9,67.9 
				10.2,65.7 11.6,63.6 13,61.6 14.5,59.6 16,57.8 17.6,56 19.3,54.2 21.1,52.6 22.9,51.1 23.4,50.7 25.3,49.2 27.2,47.9 29.2,46.6 
				31.2,45.5 33.3,44.4 35.4,43.4 36.1,43.2 38.3,42.3 40.4,41.6 42.7,41 44.9,40.4 47.2,40.1 49.4,39.8 50.2,39.7 52.5,39.5 
				54.8,39.5 55.6,39.5 56.3,39.8 57,40.3 57.6,40.9 58.2,41.7 58.6,42.2 58.8,42.6 59.3,43.7 60,45.5 60.6,47.6 61.1,49.9 
				61.7,53.2 62.3,58.7 62.8,65.5 63,75.1 63,76.8 63.1,78.1 63.2,79.2 63.3,80 63.5,80.6 63.6,81.1 63.7,81.5 63.9,81.8 64,82.1 
				64.1,82.3 64.2,82.4 64.4,82.5 64.5,82.6 64.6,82.7 64.7,82.7 64.8,82.7 65,82.7 65.1,82.7 65.2,82.6 65.3,82.5 65.4,82.4 
				65.5,82.3 65.7,82 65.8,81.7 66,81.4 66.1,80.9 66.3,80.3 66.4,79.6 66.5,78.5 66.6,77 66.7,75.1 66.8,69.4 67,63.5 67.5,56.8 
				68.1,52.4 68.7,49.1 69.2,46.9 69.9,44.9 70.4,43.7 70.9,42.6 71.4,41.7 72,40.9 72.7,40.3 73.3,39.8 74.1,39.5 74.9,39.5 
				75.6,39.5 76.4,39.8 77.1,40.3 77.7,40.9 78.3,41.7 78.7,42.2 78.9,42.6 79.4,43.7 80.1,45.5 80.7,47.6 81.2,49.9 81.8,53.2 
				82.4,58.7 82.8,65.5 83,75.1 83.1,76.8 83.1,78.1 83.3,79.2 83.4,80 83.5,80.6 83.7,81.1 83.8,81.5 84,81.8 84.1,82.1 84.2,82.3 
				84.3,82.4 84.4,82.5 84.6,82.6 84.7,82.7 84.8,82.7 84.9,82.7 85,82.7 85.2,82.7 85.3,82.6 85.4,82.5 85.5,82.4 85.6,82.3 
				85.8,82 85.9,81.7 86.1,81.4 86.2,80.9 86.3,80.3 86.5,79.6 86.6,78.5 86.7,77 86.8,75.1 86.8,69.4 87.1,63.5 87.6,56.8 
				88.2,52.4 88.8,49.1 89.3,46.9 90,44.9 90.4,43.7 90.9,42.6 91.5,41.7 92.1,40.9 92.7,40.3 93.4,39.8 94.2,39.5 94.9,39.5 
				95.7,39.5 96.5,39.8 97.2,40.3 97.8,40.9 98.4,41.7 98.7,42.2 99,42.6 99.5,43.7 100.1,45.5 100.7,47.6 101.3,49.9 101.8,53.2 
				102.5,58.7 102.9,65.5 103.1,75.1 103.2,76.8 103.2,78.1 103.3,79.2 103.5,80 103.6,80.6 103.8,81.1 103.9,81.5 104,81.8 
				104.2,82.1 104.3,82.3 104.4,82.4 104.5,82.5 104.6,82.6 104.7,82.7 104.9,82.7 105,82.7 105.1,82.7 105.2,82.7 105.3,82.6 
				105.5,82.5 105.6,82.4 105.7,82.3 105.8,82 106,81.7 106.1,81.4 106.2,80.9 106.4,80.3 106.5,79.6 106.7,78.5 106.8,77 
				106.8,75.1 106.9,69.4 107.1,63.5 107.7,56.8 108.3,52.4 108.9,49.1 109.4,46.9 110,44.9 110.5,43.7 111,42.6 111.6,41.7 
				112.2,40.9 112.8,40.3 113.5,39.8 114.2,39.5 115,39.5 115.8,39.5 116.5,39.8 117.2,40.3 117.9,40.9 118.5,41.7 118.8,42.2 
				119,42.6 119.5,43.7 120.2,45.5 120.8,47.6 121.3,49.9 121.9,53.2 122.5,58.7 123,65.5 123.2,75.1 123.2,76.8 123.3,78.1 
				123.4,79.2 123.6,80 123.7,80.6 123.8,81.1 123.9,81.5 124.1,81.8 124.2,82.1 124.4,82.3 124.5,82.4 124.6,82.5 124.7,82.6 
				124.8,82.7 124.9,82.7 125.1,82.7 125.2,82.7 125.3,82.7 125.4,82.6 125.5,82.5 125.6,82.4 125.7,82.3 125.9,82 126.1,81.7 
				126.2,81.4 126.3,80.9 126.5,80.3 126.6,79.6 126.8,78.5 126.9,77 126.9,75.1 127,69.4 127.2,63.5 127.8,56.8 128.3,52.4 
				128.9,49.1 129.5,46.9 130.1,44.9 130.6,43.7 131.1,42.6 131.6,41.7 132.2,40.9 132.9,40.3 133.6,39.8 134.3,39.5 135.1,39.5 
				135.9,39.5 136.6,39.8 137.3,40.3 137.9,40.9 138.5,41.7 138.9,42.2 139.1,42.6 139.6,43.7 140.3,45.5 140.9,47.6 141.4,49.9 
				142,53.2 142.6,58.7 143.1,65.5 143.3,75.1 143.3,76.8 143.4,78.1 143.5,79.2 143.6,80 143.8,80.6 143.9,81.1 144,81.5 
				144.2,81.8 144.3,82.1 144.4,82.3 144.5,82.4 144.6,82.5 144.8,82.6 144.9,82.7 145,82.7 145.1,82.7 145.2,82.7 145.4,82.7 
				145.5,82.6 145.6,82.5 145.7,82.4 145.8,82.3 146,82 146.1,81.7 146.3,81.4 146.4,80.9 146.6,80.3 146.7,79.6 146.8,78.5 147,77 
				147,75.1 147.1,69.4 147.3,63.5 147.8,56.8 148.4,52.4 149,49.1 149.6,46.9 150.2,44.9 150.7,43.7 151.2,42.6 151.7,41.7 
				152.3,40.9 153,40.3 153.7,39.8 154.4,39.5 155.2,39.5 156,39.5 156.7,39.8 157.4,40.3 158,40.9 158.6,41.7 159.2,42.6 
				159.7,43.7 160.4,45.5 161,47.6 161.5,49.9 162.1,53.2 162.7,58.7 163.1,65.5 163.3,75.1 163.4,76.8 163.5,78.1 163.6,79.2 
				163.7,80 163.9,80.6 164,81.1 164.1,81.5 164.2,81.8 164.4,82.1 164.5,82.3 164.6,82.4 164.7,82.5 164.8,82.6 165.1,82.7 
				165.2,84.5 			"/>
			<polyline class="st2" points="145.1,85.2 145.4,85.1 145.7,85.1 145.9,84.9 146.2,84.7 146.4,84.4 146.7,84 146.9,83.6 
				147.2,83.1 147.4,82.5 147.6,81.8 147.7,81.1 147.9,80 148.1,78.6 148.2,77.2 148.2,75.1 148.4,65.3 148.9,58.2 149.4,53.9 
				150,50.7 150.5,48.5 151.1,46.5 151.6,45.4 152,44.4 152.6,43.5 153.1,42.8 153.8,42.3 154.4,42 155.2,41.9 155.9,42 156.6,42.3 
				157.2,42.8 157.8,43.5 158.3,44.4 158.8,45.4 159.2,46.5 159.8,48.5 160.3,50.7 160.9,53.9 161.4,58.2 161.8,64.4 162.1,70.2 
				162.1,75.1 162.2,77.2 162.3,78.8 162.4,80 162.6,81 162.8,81.9 163,82.5 163.2,83.1 163.4,83.6 163.6,84 163.8,84.3 164,84.5 
				165.2,84.5 			"/>
			<polyline class="st2" points="125.1,85.2 125.3,85.1 125.6,85.1 125.9,84.9 126.1,84.7 126.4,84.4 126.6,84 126.9,83.6 
				127.1,83.1 127.3,82.5 127.5,81.8 127.7,81.1 127.8,80 128,78.6 128.1,77.2 128.1,75.1 128.4,65.3 128.9,58.2 129.4,53.9 
				129.9,50.7 130.4,48.5 131,46.5 131.5,45.4 132,44.4 132.5,43.5 133.1,42.8 133.7,42.3 134.4,42 135.1,41.9 135.8,42 136.5,42.3 
				137.1,42.8 137.7,43.5 138.2,44.4 138.7,45.4 139.2,46.5 139.7,48.5 140.2,50.7 140.8,53.9 141.3,58.2 141.8,64.4 142,70.2 
				142,75.1 142.1,77.2 142.2,79 142.4,80.3 142.6,81.3 142.8,82.1 143,82.7 143.2,83.3 143.4,83.8 143.6,84.2 143.9,84.5 
				144.1,84.8 144.4,85 144.6,85.1 			"/>
			<polyline class="st2" points="105,85.2 105.3,85.1 105.5,85.1 105.8,84.9 106,84.7 106.3,84.4 106.5,84 106.8,83.6 107,83.1 
				107.2,82.5 107.4,81.8 107.6,81.1 107.8,80 107.9,78.6 108,77.2 108.1,75.1 108.3,65.3 108.8,58.2 109.3,53.9 109.9,50.7 
				110.4,48.5 111,46.5 111.4,45.4 111.9,44.4 112.4,43.5 113,42.8 113.6,42.3 114.3,42 115,41.9 115.7,42 116.4,42.3 117,42.8 
				117.6,43.5 118.2,44.4 118.6,45.4 119.1,46.5 119.7,48.5 120.2,50.7 120.7,53.9 121.2,58.2 121.7,64.4 121.9,70.2 122,75.1 
				122,77.2 122.1,79 122.3,80.3 122.5,81.3 122.7,82.1 122.9,82.7 123.1,83.3 123.3,83.8 123.6,84.2 123.8,84.5 124.1,84.8 
				124.3,85 124.5,85.1 			"/>
			<polyline class="st2" points="84.9,85.2 85.2,85.1 85.5,85.1 85.7,84.9 86,84.7 86.2,84.4 86.5,84 86.7,83.6 86.9,83.1 
				87.1,82.5 87.3,81.8 87.5,81.1 87.7,80 87.9,78.6 87.9,77.2 88,75.1 88.2,65.3 88.7,58.2 89.2,53.9 89.8,50.7 90.3,48.5 
				90.9,46.5 91.3,45.4 91.8,44.4 92.3,43.5 92.9,42.8 93.5,42.3 94.2,42 94.9,41.9 95.7,42 96.3,42.3 97,42.8 97.5,43.5 98.1,44.4 
				98.6,45.4 99,46.5 99.6,48.5 100.1,50.7 100.7,53.9 101.2,58.2 101.6,64.4 101.8,70.2 101.9,75.1 101.9,77.2 102.1,79 
				102.2,80.3 102.4,81.3 102.6,82.1 102.8,82.7 103,83.3 103.2,83.8 103.5,84.2 103.7,84.5 104,84.8 104.3,85 104.5,85.1 			"/>
			<polyline class="st2" points="64.8,85.2 65.1,85.1 65.4,85.1 65.6,84.9 65.9,84.7 66.2,84.4 66.4,84 66.6,83.6 66.8,83.1 
				67.1,82.5 67.3,81.8 67.4,81.1 67.6,80 67.8,78.6 67.9,77.2 67.9,75.1 68.1,65.3 68.6,58.2 69.2,53.9 69.7,50.7 70.2,48.5 
				70.8,46.5 71.3,45.4 71.7,44.4 72.3,43.5 72.8,42.8 73.5,42.3 74.1,42 74.9,41.9 75.6,42 76.3,42.3 76.9,42.8 77.5,43.5 78,44.4 
				78.5,45.4 78.9,46.5 79.5,48.5 80,50.7 80.6,53.9 81.1,58.2 81.6,64.4 81.8,70.2 81.8,75.1 81.9,77.2 82,79 82.2,80.3 82.4,81.3 
				82.5,82.1 82.7,82.7 82.9,83.3 83.2,83.8 83.4,84.2 83.7,84.5 83.9,84.8 84.2,85 84.4,85.1 			"/>
			<polyline class="st2" points="49.1,53.9 49.6,50.7 50.1,48.5 50.7,46.5 51.2,45.4 51.7,44.4 52.2,43.5 52.8,42.8 53.4,42.3 
				54.1,42 54.8,41.9 55.5,42 56.2,42.3 56.8,42.8 57.4,43.5 57.9,44.4 58.4,45.4 58.8,46.5 59.4,48.5 59.9,50.7 60.5,53.9 61,58.2 
				61.5,64.4 61.7,70.2 61.7,75.1 61.8,77.2 61.9,79 62.1,80.3 62.3,81.3 62.5,82.1 62.6,82.7 62.9,83.3 63.1,83.8 63.3,84.2 
				63.6,84.5 63.8,84.8 64.1,85 64.3,85.1 			"/>
			<polyline class="st2" points="46,84.5 46.2,84.2 46.4,83.8 46.7,83.4 46.9,82.8 47.1,82.2 47.3,81.6 47.4,80.6 47.6,79.5 
				47.7,78 			"/>
			<polyline class="st2" points="42.5,115.1 41.9,115.1 41.3,114.9 40.7,114.7 40.2,114.5 39.6,114.3 39.1,114 38.6,113.7 38,113.4 
				37.6,113 37.1,112.7 36.6,112.3 36.2,111.8 35.7,111.4 35.3,110.9 34.9,110.4 34.5,109.9 34.1,109.4 33.8,108.9 33.5,108.3 
				33.2,107.7 32.9,107.1 32.6,106.5 32.4,105.9 32.2,105.3 32,104.7 31.8,104 31.7,103.3 31.6,102.7 31.5,102 31.4,101.4 
				31.4,100.7 31.4,100 31.4,99.3 31.4,98.6 31.5,98 31.6,97.3 31.7,96.6 31.8,96 32,95.3 32.2,94.7 32.4,94.1 32.6,93.5 32.9,92.9 
				33.2,92.3 33.5,91.7 33.8,91.1 34.1,90.6 34.5,90 34.9,89.5 35.3,89 35.7,88.6 36.2,88.1 36.6,87.7 37.1,87.3 37.6,86.9 38,86.6 
				38.6,86.3 39.1,86 39.6,85.7 40.2,85.4 40.7,85.2 41.3,85.1 41.9,84.9 42.5,84.9 			"/>
			<polyline class="st2" points="64.3,114.9 64.1,115 63.8,115.2 63.6,115.5 63.3,115.8 63.1,116.2 62.9,116.7 62.6,117.3 
				62.5,117.9 62.3,118.6 62.1,119.7 61.9,121 61.8,122.8 61.7,124.9 61.7,129.8 61.5,135.6 61,141.8 60.5,146.1 59.9,149.3 
				59.4,151.5 58.8,153.4 58.4,154.6 57.9,155.6 57.4,156.5 56.8,157.2 56.2,157.7 55.5,158 54.8,158.1 54.1,158 53.4,157.7 
				52.8,157.2 52.2,156.5 51.7,155.6 51.2,154.6 50.7,153.4 50.1,151.5 49.6,149.3 49.1,146.1 48.6,141.8 48.1,134.7 47.8,124.9 
				47.8,123.4 47.7,122 47.6,120.5 47.4,119.4 47.3,118.4 47.1,117.7 46.9,117.1 46.7,116.6 46.4,116.2 46.2,115.8 46,115.5 			"/>
			<polyline class="st2" points="84.4,114.9 84.2,115 83.9,115.2 83.7,115.5 83.4,115.8 83.2,116.2 82.9,116.7 82.7,117.3 
				82.5,117.9 82.4,118.6 82.2,119.7 82,121 81.9,122.8 81.8,124.9 81.8,129.8 81.6,135.6 81.1,141.8 80.6,146.1 80,149.3 
				79.5,151.5 78.9,153.4 78.5,154.6 78,155.6 77.5,156.5 76.9,157.2 76.3,157.7 75.6,158 74.9,158.1 74.1,158 73.5,157.7 
				72.8,157.2 72.3,156.5 71.7,155.6 71.3,154.6 70.8,153.4 70.2,151.5 69.7,149.3 69.2,146.1 68.6,141.8 68.1,134.7 67.9,124.9 
				67.9,122.8 67.8,121.3 67.6,120 67.4,118.9 67.3,118.1 67.1,117.5 66.8,116.9 66.6,116.4 66.4,115.9 66.2,115.6 65.9,115.3 
				65.6,115.1 65.4,114.9 65.1,114.8 64.8,114.8 			"/>
			<polyline class="st2" points="104.5,114.9 104.3,115 104,115.2 103.7,115.5 103.5,115.8 103.2,116.2 103,116.7 102.8,117.3 
				102.6,117.9 102.4,118.6 102.2,119.7 102.1,121 101.9,122.8 101.9,124.9 101.8,129.8 101.6,135.6 101.2,141.8 100.7,146.1 
				100.1,149.3 99.6,151.5 99,153.4 98.6,154.6 98.1,155.6 97.5,156.5 97,157.2 96.3,157.7 95.7,158 94.9,158.1 94.2,158 
				93.5,157.7 92.9,157.2 92.3,156.5 91.8,155.6 91.3,154.6 90.9,153.4 90.3,151.5 89.8,149.3 89.2,146.1 88.7,141.8 88.2,134.7 
				88,124.9 87.9,122.8 87.9,121.3 87.7,120 87.5,118.9 87.3,118.1 87.1,117.5 86.9,116.9 86.7,116.4 86.5,115.9 86.2,115.6 
				86,115.3 85.7,115.1 85.5,114.9 85.2,114.8 84.9,114.8 			"/>
			<polyline class="st2" points="124.5,114.9 124.3,115 124.1,115.2 123.8,115.5 123.6,115.8 123.3,116.2 123.1,116.7 122.9,117.3 
				122.7,117.9 122.5,118.6 122.3,119.7 122.1,121 122,122.8 122,124.9 121.9,129.8 121.7,135.6 121.2,141.8 120.7,146.1 
				120.2,149.3 119.7,151.5 119.1,153.4 118.6,154.6 118.2,155.6 117.6,156.5 117,157.2 116.4,157.7 115.7,158 115,158.1 114.3,158 
				113.6,157.7 113,157.2 112.4,156.5 111.9,155.6 111.4,154.6 111,153.4 110.4,151.5 109.9,149.3 109.3,146.1 108.8,141.8 
				108.3,134.7 108.1,124.9 108,122.8 107.9,121.3 107.8,120 107.6,118.9 107.4,118.1 107.2,117.5 107,116.9 106.8,116.4 
				106.5,115.9 106.3,115.6 106,115.3 105.8,115.1 105.5,114.9 105.3,114.8 105,114.8 			"/>
			<polyline class="st2" points="144.6,114.9 144.4,115 144.1,115.2 143.9,115.5 143.6,115.8 143.4,116.2 143.2,116.7 143,117.3 
				142.8,117.9 142.6,118.6 142.4,119.7 142.2,121 142.1,122.8 142,124.9 142,129.8 141.8,135.6 141.3,141.8 140.8,146.1 
				140.2,149.3 139.7,151.5 139.2,153.4 138.7,154.6 138.2,155.6 137.7,156.5 137.1,157.2 136.5,157.7 135.8,158 135.1,158.1 
				134.4,158 133.7,157.7 133.1,157.2 132.5,156.5 132,155.6 131.5,154.6 131,153.4 130.4,151.5 129.9,149.3 129.4,146.1 
				128.9,141.8 128.4,134.7 128.1,124.9 128.1,122.8 128,121.3 127.8,120 127.7,118.9 127.5,118.1 127.3,117.5 127.1,116.9 
				126.9,116.4 126.6,115.9 126.4,115.6 126.1,115.3 125.9,115.1 125.6,114.9 125.3,114.8 125.1,114.8 			"/>
			<polyline class="st2" points="165.2,115.5 164,115.5 163.8,115.7 163.6,116 163.4,116.4 163.2,116.9 163,117.4 162.8,118.1 
				162.6,119 162.4,120 162.3,121.2 162.2,122.8 162.1,124.9 162.1,129.8 161.8,135.6 161.4,141.8 160.9,146.1 160.3,149.3 
				159.8,151.5 159.2,153.4 158.8,154.6 158.3,155.6 157.8,156.5 157.2,157.2 156.6,157.7 155.9,158 155.2,158.1 154.4,158 
				153.8,157.7 153.1,157.2 152.6,156.5 152,155.6 151.6,154.6 151.1,153.4 150.5,151.5 150,149.3 149.4,146.1 148.9,141.8 
				148.4,134.7 148.2,124.9 148.2,122.8 148.1,121.3 147.9,120 147.7,118.9 147.6,118.1 147.4,117.5 147.2,116.9 146.9,116.4 
				146.7,115.9 146.4,115.6 146.2,115.3 145.9,115.1 145.7,114.9 145.4,114.8 145.1,114.8 			"/>
			<polyline class="st1" points="54.8,160.5 54,160.5 53.3,160.2 52.6,159.7 51.9,159.1 51.3,158.3 50.8,157.4 50.3,156.3 
				49.8,155.1 49.2,153.1 48.6,150.9 48,147.6 47.4,143.1 46.9,136.5 46.7,130.6 46.6,124.9 46.6,122.9 46.5,121.5 46.3,120.4 
				46.2,119.7 46,119 45.9,118.6 45.8,118.2 45.6,117.9 45.5,117.7 45.3,117.6 45.2,117.5 45.1,117.4 45,117.3 44.9,117.3 
				44.8,117.3 44.1,117.2 43.6,117.2 43.4,117.2 42.8,117.1 42.2,117 41.5,116.8 40.9,116.7 40.3,116.4 39.6,116.2 39,115.9 
				38.4,115.6 37.8,115.3 37.3,114.9 36.7,114.6 36.2,114.1 35.6,113.7 35.1,113.2 34.7,112.7 34.2,112.2 33.7,111.6 33.3,111.1 
				32.9,110.5 32.5,109.9 32.1,109.3 31.8,108.6 31.5,108 31.2,107.3 30.9,106.6 30.7,105.9 30.5,105.2 30.3,104.5 30.2,103.7 
				30,103 29.9,102.3 29.9,101.5 29.8,100.8 29.8,100 29.8,99.2 29.9,98.5 29.9,97.7 30,97 30.2,96.2 30.3,95.5 30.5,94.8 
				30.7,94.1 30.9,93.4 31.2,92.7 31.5,92 31.8,91.4 32.1,90.7 32.5,90.1 32.9,89.5 33.3,88.9 33.7,88.3 34.2,87.8 34.7,87.3 
				35.1,86.8 35.6,86.3 36.2,85.8 36.7,85.4 37.3,85 37.8,84.7 38.4,84.3 39,84 39.6,83.8 40.3,83.5 40.9,83.3 41.5,83.1 42.2,83 
				42.8,82.9 43.4,82.8 43.6,82.8 44.1,82.7 44.8,82.7 44.9,82.7 45,82.7 45.1,82.6 45.2,82.5 45.3,82.4 45.5,82.3 45.6,82 
				45.8,81.7 45.9,81.4 46,80.9 46.2,80.3 46.3,79.6 46.5,78.5 46.6,77 46.6,75.1 46.7,69.4 46.9,63.5 47.4,56.8 48,52.4 48.6,49.1 
				49.2,46.9 49.8,44.9 50.3,43.7 50.8,42.6 51.3,41.7 51.9,40.9 52.6,40.3 53.3,39.8 54,39.5 54.8,39.5 			"/>
			<polyline class="st1" points="164,84.5 163.4,84.5 162.8,84.6 162.2,84.7 161.7,84.9 161.2,85.2 160.6,85.4 160.1,85.7 159.5,86 
				159,86.3 158.5,86.6 158,86.9 157.5,87.3 157,87.7 156.6,88.1 156.2,88.6 155.7,89 155.3,89.5 154.9,90 154.6,90.6 154.2,91.1 
				153.9,91.7 153.6,92.3 153.3,92.9 153.1,93.5 152.8,94.1 152.6,94.7 152.4,95.3 152.3,96 152.1,96.6 152,97.3 151.9,98 
				151.9,98.6 151.8,99.3 151.8,100 151.8,100.7 151.9,101.4 151.9,102 152,102.7 152.1,103.3 152.3,104 152.4,104.7 152.6,105.3 
				152.8,105.9 153.1,106.5 153.3,107.1 153.6,107.7 153.9,108.3 154.2,108.9 154.6,109.4 154.9,109.9 155.3,110.4 155.7,110.9 
				156.2,111.4 156.6,111.8 157,112.3 157.5,112.7 158,113 158.5,113.4 159,113.7 159.5,114 160.1,114.3 160.6,114.5 161.2,114.7 
				161.7,115.1 162.2,115.3 162.8,115.4 163.4,115.5 164,115.5 			"/>
			<polyline class="st2" points="46,115.5 45.4,115.5 44.8,115.4 44.2,115.5 43.6,115.4 43,115.3 42.5,115.1 41.9,114.7 41.4,114.5 
				40.8,114.3 40.3,114 39.8,113.7 39.3,113.4 38.8,113 38.3,112.7 37.8,112.3 37.4,111.8 36.9,111.4 36.5,110.9 36.1,110.4 
				35.7,109.9 35.3,109.4 35,108.9 34.7,108.3 34.4,107.7 34.1,107.1 33.8,106.5 33.6,105.9 33.4,105.3 33.2,104.7 33,104 
				32.9,103.3 32.8,102.7 32.7,102 32.6,101.4 32.6,100.7 32.6,100 32.6,99.3 32.6,98.6 32.7,98 32.8,97.3 32.9,96.6 33,96 
				33.2,95.3 33.4,94.7 33.6,94.1 33.8,93.5 34.1,92.9 34.4,92.3 34.7,91.7 35,91.1 35.3,90.6 35.7,90 36.1,89.5 36.5,89 36.9,88.6 
				37.4,88.1 37.8,87.7 38.3,87.3 38.8,86.9 39.3,86.6 39.8,86.3 40.3,86 40.8,85.7 41.4,85.4 41.9,85.2 42.5,84.9 43,84.7 
				43.6,84.6 44.2,84.5 44.8,84.5 45.4,84.5 46,84.5 			"/>
			<polyline class="st2" points="161.7,84.9 161.1,84.9 160.5,85.1 160,85.2 159.4,85.4 158.9,85.7 158.3,86 157.8,86.3 157.3,86.6 
				156.8,86.9 156.3,87.3 155.8,87.7 155.4,88.1 154.9,88.6 154.5,89 154.1,89.5 153.7,90 153.4,90.6 153,91.1 152.7,91.7 
				152.4,92.3 152.1,92.9 151.9,93.5 151.6,94.1 151.4,94.7 151.2,95.3 151,96 150.9,96.6 150.8,97.3 150.7,98 150.6,98.6 
				150.6,99.3 150.6,100 150.6,100.7 150.6,101.4 150.7,102 150.8,102.7 150.9,103.3 151,104 151.2,104.7 151.4,105.3 151.6,105.9 
				151.9,106.5 152.1,107.1 152.4,107.7 152.7,108.3 153,108.9 153.4,109.4 153.7,109.9 154.1,110.4 154.5,110.9 154.9,111.4 
				155.4,111.8 155.8,112.3 156.3,112.7 156.8,113 157.3,113.4 157.8,113.7 158.3,114 158.9,114.3 159.4,114.5 160,114.7 
				160.5,114.9 161.1,115.1 161.7,115.1 			"/>
			<polyline class="st2" points="64.3,85.1 64.6,85.1 64.8,85.2 			"/>
			<polyline class="st1" points="64.3,114.9 63.8,114.8 63.4,114.7 62.9,114.6 62.3,114.5 61.8,114.3 61.4,114.2 60.9,114 
				60.4,113.8 59.9,113.5 59.4,113.2 59,113 58.6,112.7 58.1,112.4 57.7,112 57.2,111.6 56.8,111.1 56.4,110.7 56.1,110.3 
				55.7,109.8 55.4,109.3 55,108.8 54.7,108.2 54.4,107.7 54.1,107.1 53.9,106.5 53.6,105.9 53.4,105.2 53.3,104.6 53.1,104 
				53,103.4 52.9,102.7 52.8,102 52.7,101.4 52.7,100.7 52.7,100 52.7,99.3 52.7,98.6 52.8,98 52.9,97.3 53,96.6 53.1,96 53.3,95.4 
				53.4,94.7 53.6,94.1 53.9,93.5 54.1,92.9 54.4,92.3 54.7,91.8 55,91.2 55.4,90.7 55.7,90.2 56.1,89.6 56.4,89.3 56.8,88.9 
				57.2,88.4 57.7,88 58.1,87.6 58.6,87.3 59,87 59.4,86.7 59.9,86.5 60.4,86.2 60.9,86 61.4,85.8 61.8,85.7 62.3,85.5 62.9,85.4 
				63.4,85.3 63.8,85.2 64.3,85.1 			"/>
			<polyline class="st2" points="64.8,114.8 64.6,114.8 64.3,114.9 			"/>
			<polyline class="st2" points="104.5,85.1 104.7,85.1 105,85.2 			"/>
			<polyline class="st1" points="104.5,114.9 104,114.8 103.6,114.7 103,114.6 102.5,114.5 101.9,114.3 101.6,114.2 101.1,114 
				100.6,113.8 100.1,113.5 99.6,113.2 99.2,113 98.8,112.7 98.3,112.4 97.8,112 97.4,111.6 97,111.1 96.6,110.7 96.3,110.3 
				95.9,109.8 95.5,109.3 95.2,108.8 94.9,108.2 94.6,107.7 94.3,107.1 94,106.5 93.8,105.9 93.6,105.2 93.4,104.6 93.3,104 
				93.1,103.4 93,102.7 92.9,102 92.9,101.4 92.8,100.7 92.8,100 92.8,99.3 92.9,98.6 92.9,98 93,97.3 93.1,96.6 93.3,96 93.4,95.4 
				93.6,94.7 93.8,94.1 94,93.5 94.3,92.9 94.6,92.3 94.9,91.8 95.2,91.2 95.5,90.7 95.9,90.2 96.3,89.6 96.6,89.3 97,88.9 
				97.4,88.4 97.8,88 98.3,87.6 98.8,87.3 99.2,87 99.6,86.7 100.1,86.5 100.6,86.2 101.1,86 101.6,85.8 101.9,85.7 102.5,85.5 
				103,85.4 103.6,85.3 104,85.2 104.5,85.1 			"/>
			<polyline class="st2" points="105,114.8 104.7,114.8 104.5,114.9 			"/>
			<polyline class="st2" points="144.6,114.9 144.9,114.8 145.1,114.8 			"/>
			<polyline class="st1" points="144.6,85.1 144.1,85.2 143.7,85.3 143.2,85.4 142.6,85.5 142.1,85.7 141.7,85.8 141.2,86 
				140.7,86.2 140.2,86.5 139.7,86.7 139.3,87 138.9,87.3 138.4,87.6 138,88 137.5,88.4 137.1,88.9 136.7,89.3 136.4,89.6 136,90.2 
				135.7,90.7 135.3,91.2 135,91.8 134.7,92.3 134.4,92.9 134.2,93.5 134,94.1 133.7,94.7 133.5,95.4 133.4,96 133.3,96.6 
				133.2,97.3 133.1,98 133,98.6 133,99.3 132.9,100 133,100.7 133,101.4 133.1,102 133.2,102.7 133.3,103.4 133.4,104 133.5,104.6 
				133.7,105.2 134,105.9 134.2,106.5 134.4,107.1 134.7,107.7 135,108.2 135.3,108.8 135.7,109.3 136,109.8 136.4,110.3 
				136.7,110.7 137.1,111.1 137.5,111.6 138,112 138.4,112.4 138.9,112.7 139.3,113 139.7,113.2 140.2,113.5 140.7,113.8 141.2,114 
				141.7,114.2 142.1,114.3 142.6,114.5 143.2,114.6 143.7,114.7 144.1,114.8 144.6,114.9 			"/>
			<polyline class="st2" points="145.1,85.2 144.9,85.1 144.6,85.1 			"/>
			<polyline class="st2" points="124.5,114.9 124.8,114.8 125.1,114.8 			"/>
			<polyline class="st1" points="124.5,85.1 124,85.2 123.6,85.3 123.1,85.4 122.5,85.5 122,85.7 121.7,85.8 121.2,86 120.6,86.2 
				120.1,86.5 119.6,86.7 119.3,87 118.8,87.3 118.4,87.6 117.9,88 117.5,88.4 117,88.9 116.6,89.3 116.4,89.6 116,90.2 115.6,90.7 
				115.3,91.2 114.9,91.8 114.6,92.3 114.4,92.9 114.1,93.5 113.9,94.1 113.7,94.7 113.5,95.4 113.3,96 113.2,96.6 113.1,97.3 
				113,98 112.9,98.6 112.9,99.3 112.9,100 112.9,100.7 112.9,101.4 113,102 113.1,102.7 113.2,103.4 113.3,104 113.5,104.6 
				113.7,105.2 113.9,105.9 114.1,106.5 114.4,107.1 114.6,107.7 114.9,108.2 115.3,108.8 115.6,109.3 116,109.8 116.4,110.3 
				116.6,110.7 117,111.1 117.5,111.6 117.9,112 118.4,112.4 118.8,112.7 119.3,113 119.6,113.2 120.1,113.5 120.6,113.8 121.2,114 
				121.7,114.2 122,114.3 122.5,114.5 123.1,114.6 123.6,114.7 124,114.8 124.5,114.9 			"/>
			<polyline class="st2" points="125.1,85.2 124.8,85.1 124.5,85.1 			"/>
			<polyline class="st2" points="84.4,85.1 84.6,85.1 84.9,85.2 			"/>
			<polyline class="st1" points="84.4,114.9 83.9,114.8 83.5,114.7 82.9,114.6 82.4,114.5 81.9,114.3 81.5,114.2 81,114 80.5,113.8 
				80,113.5 79.5,113.2 79.1,113 78.7,112.7 78.2,112.4 77.8,112 77.3,111.6 76.9,111.1 76.5,110.7 76.2,110.3 75.8,109.8 
				75.5,109.3 75.1,108.8 74.8,108.2 74.5,107.7 74.2,107.1 74,106.5 73.7,105.9 73.5,105.2 73.3,104.6 73.2,104 73.1,103.4 
				72.9,102.7 72.8,102 72.8,101.4 72.7,100.7 72.7,100 72.7,99.3 72.8,98.6 72.8,98 72.9,97.3 73.1,96.6 73.2,96 73.3,95.4 
				73.5,94.7 73.7,94.1 74,93.5 74.2,92.9 74.5,92.3 74.8,91.8 75.1,91.2 75.5,90.7 75.8,90.2 76.2,89.6 76.5,89.3 76.9,88.9 
				77.3,88.4 77.8,88 78.2,87.6 78.7,87.3 79.1,87 79.5,86.7 80,86.5 80.5,86.2 81,86 81.5,85.8 81.9,85.7 82.4,85.5 82.9,85.4 
				83.5,85.3 83.9,85.2 84.4,85.1 			"/>
			<polyline class="st2" points="84.9,114.8 84.6,114.8 84.4,114.9 			"/>
			<polyline class="st2" points="47.7,78 47.8,77.1 47.8,76.7 47.8,75.1 48.1,65.3 48.6,58.2 49.1,53.9 			"/>
		</g>
	</g>
</g>
<g>
	<path class="st3" d="M35.7,124.9v1.9c-0.5-0.2-1-0.4-1.6-0.6c-0.5-0.1-1-0.2-1.6-0.2c-1.4,0-2.4,0.5-3.1,1.4
		c-0.7,0.9-1.1,2.3-1.2,4.1c0.4-0.6,0.9-1,1.5-1.4c0.6-0.3,1.3-0.5,2-0.5c1.5,0,2.7,0.5,3.6,1.4c0.9,0.9,1.3,2.2,1.3,3.8
		c0,1.6-0.5,2.8-1.4,3.7s-2.1,1.4-3.7,1.4c-1.8,0-3.1-0.7-4-2c-0.9-1.3-1.4-3.3-1.4-5.8c0-2.4,0.6-4.3,1.7-5.7
		c1.1-1.4,2.7-2.1,4.6-2.1c0.5,0,1,0.1,1.6,0.2C34.5,124.5,35.1,124.7,35.7,124.9z M31.6,131.3c-0.9,0-1.6,0.3-2.2,0.9
		c-0.5,0.6-0.8,1.5-0.8,2.6c0,1.1,0.3,1.9,0.8,2.6c0.5,0.6,1.3,0.9,2.2,0.9s1.6-0.3,2.2-0.9c0.5-0.6,0.8-1.5,0.8-2.6
		c0-1.1-0.3-2-0.8-2.6C33.2,131.6,32.5,131.3,31.6,131.3z"/>
</g>
</svg>
