<?xml version="1.0" encoding="utf-8"?>
<!-- Generator: Adobe Illustrator 21.0.0, SVG Export Plug-In . SVG Version: 6.00 Build 0)  -->
<svg version="1.1" id="Layer_1" xmlns="http://www.w3.org/2000/svg" xmlns:xlink="http://www.w3.org/1999/xlink" x="0px" y="0px"
	 viewBox="0 0 161.7 200" style="enable-background:new 0 0 161.7 200;" xml:space="preserve">
<style type="text/css">
	.st0{fill:none;stroke:#FFFFFF;stroke-width:1.5;stroke-linecap:round;stroke-linejoin:round;}
</style>
<g>
	<g>
		<polyline class="st0" points="22.5,56.5 27.5,56.5 27.6,56.5 27.8,56.5 28.8,56.6 28.9,56.6 29.9,56.7 30.1,56.7 30.3,56.7 
			30.4,56.8 31.8,57 32.3,57 33.2,57.2 33.5,57.2 34.6,57.4 35.2,57.5 37,57.8 37,57.8 37.1,57.9 38,58 38.8,58.1 39.4,58.2 
			40.7,58.4 40.7,58.4 41.1,58.5 41.9,58.6 42.5,58.7 44.1,58.8 44.4,58.8 46.1,58.9 46.1,59 47.9,59 47.9,59 49.4,59 49.5,59 
			50.8,58.9 51,58.8 51.9,58.7 52.2,58.7 52.9,58.5 53.3,58.4 53.7,58.3 54.2,58.1 54.4,58.1 54.6,58 54.9,57.9 54.9,57.8 
			54.9,57.8 55.3,57.6 55.4,57.6 55.6,57.4 55.7,57.2 55.7,57.2 55.7,57.2 55.7,57.1 55.7,57 55.6,56.9 55.4,56.8 55.3,56.9 
			54.9,56.7 54.9,56.7 54.8,56.7 54.2,56.6 54.1,56.5 53.8,56.5 53.1,56.6 53,56.6 51.8,56.7 51.7,56.7 51.5,56.7 51.3,56.7 
			50.3,56.9 49.9,57 48.7,57.1 48.1,57.2 48,57.2 47.7,57.3 47,57.4 45.5,57.7 45.2,57.8 45,57.9 43.4,58.1 43.1,58 41.6,58.4 
			41.1,58.5 		"/>
		<polyline class="st0" points="22.5,143.5 27.5,143.5 27.7,143.5 28,143.5 28.9,143.4 29.2,143.4 29.8,143.3 30.3,143.3 
			30.4,143.2 31.2,143.1 31.7,143 31.8,143 33.1,142.8 33.2,142.8 33.5,142.8 34.5,142.6 35.2,142.4 36,142.3 37,142.1 37.4,142.1 
			37.9,142 38.8,141.8 38.9,141.8 39.3,141.8 40.5,141.6 40.7,141.5 40.7,141.5 41,141.5 42,141.4 42.6,141.3 43.6,141.2 
			44.4,141.1 45.3,141.1 46.2,141 47,141 48,141 48.7,141 49.6,141 50.3,141.1 51.1,141.1 51.8,141.2 52.3,141.3 53.2,141.5 
			53.4,141.5 54.1,141.8 54.3,141.8 54.4,141.9 54.7,142 55,142.1 55.2,142.2 55.5,142.4 55.7,142.7 55.7,142.8 55.8,142.8 
			55.7,143 55.7,143 55.6,143.1 55.5,143.2 55.4,143.3 55.3,143.3 54.9,143.4 54.8,143.4 54.1,143.5 53.9,143.5 53.8,143.5 
			53,143.4 52.8,143.4 51.7,143.3 51.6,143.3 51.5,143.3 50.3,143.1 50.3,143.1 48.9,142.9 48.7,142.9 48.2,142.8 47.5,142.7 
			47,142.6 46.2,142.4 45.2,142.2 44.7,142.1 43.5,142 43.4,141.9 43.3,141.8 42.9,141.8 41.8,141.6 41.6,141.6 41,141.5 		"/>
		<polyline class="st0" points="44.2,96.2 44.2,100 43.9,107.6 43.5,111.3 42.9,114.9 41.3,121.7 40.3,124.9 39.2,128 36.5,133.3 
			35,135.6 33.4,137.7 29.9,140.9 28.1,142 26.3,142.8 25.7,143 25.5,143 22.5,143.5 20.6,143.3 18.7,142.8 15.1,140.9 13.3,139.4 
			11.6,137.7 8.5,133.3 7.1,130.8 5.8,128 3.7,121.7 2.8,118.4 2.1,114.9 1.1,107.6 0.8,100 0.8,96.2 1.1,92.4 2.1,85.1 2.8,81.6 
			3.7,78.3 5.8,72 7.1,69.2 8.5,66.7 11.6,62.3 13.3,60.6 15.1,59.1 18.7,57.2 20.6,56.7 22.5,56.5 24.4,56.7 25.6,57 25.7,57 
			26.3,57.2 28.1,58 29.9,59.1 33.4,62.3 35,64.4 36.5,66.7 39.2,72 40.3,75.1 41.3,78.3 42.9,85.1 43.5,88.7 43.9,92.4 44.2,100 
			44.2,103.8 43.9,107.6 42.9,114.9 42.2,118.4 41.3,121.7 39.2,128 37.9,130.8 36.5,133.3 33.4,137.7 31.7,139.4 29.9,140.9 
			26.3,142.8 25.7,143 25.5,143 24.4,143.3 22.5,143.5 18.7,142.8 16.9,142 15.1,140.9 11.6,137.7 10,135.6 8.5,133.3 5.8,128 
			4.7,124.9 3.7,121.7 2.1,114.9 1.5,111.3 1.1,107.6 0.8,103.8 0.8,100 1.1,92.4 1.5,88.7 2.1,85.1 3.7,78.3 4.7,75.1 5.8,72 
			8.5,66.7 10,64.4 11.6,62.3 15.1,59.1 16.9,58 18.7,57.2 22.5,56.5 25.6,57 25.7,57 26.3,57.2 29.9,59.1 31.7,60.6 33.4,62.3 
			36.5,66.7 37.9,69.2 39.2,72 41.3,78.3 42.2,81.6 42.9,85.1 43.9,92.4 44.2,96.2 		"/>
		<polyline class="st0" points="40.7,58.4 41.6,58.4 42.8,58.2 43.4,58.1 43.4,58 44.2,57.9 45.2,57.8 45.3,57.8 47,57.4 48,57.2 
			48.1,57.2 48.7,57.1 49.9,57 50.3,57 51.5,56.7 51.7,56.7 52.5,56.7 53,56.6 53.1,56.6 53.8,56.5 58.9,56.5 60.7,56.7 62.6,57.2 
			64.5,58 66.3,59.1 68,60.6 69.7,62.3 71.3,64.4 72.8,66.7 74.2,69.2 75.5,72 76.7,75.1 77.7,78.3 78.6,81.6 79.3,85.1 79.9,88.7 
			80.3,92.4 80.5,96.2 80.6,100 80.5,103.8 80.3,107.6 79.9,111.3 79.3,114.9 78.6,118.4 77.7,121.7 76.7,124.9 75.5,128 
			74.2,130.8 72.8,133.3 71.3,135.6 69.7,137.7 68,139.4 66.3,140.9 64.5,142 62.6,142.8 60.7,143.3 58.9,143.5 53.9,143.5 
			53.8,143.5 53.7,143.5 53,143.4 52.8,143.4 51.7,143.3 51.6,143.3 51,143.1 50.4,143 50.3,143.1 50.2,143.1 48.9,142.9 
			48.7,142.9 48.2,142.8 47.5,142.7 47,142.6 46.2,142.4 45.2,142.2 44.7,142.1 43.4,141.9 43.1,141.9 42.1,141.8 41.7,141.7 
			41.6,141.7 40.7,141.5 		"/>
		<polyline class="st0" points="40.2,99.3 40.2,99.5 40.2,99.6 40.2,99.7 40.2,100 40.2,100 40.2,100 40.1,100.4 40.1,100.4 
			40.1,100.5 40.1,100.8 40.1,100.8 40,100.9 40,101.2 40,101.2 39.9,101.3 39.9,101.5 39.9,101.6 39.8,101.8 39.7,101.9 
			39.7,101.9 39.6,102.2 39.4,102.6 39.4,102.7 39.3,102.8 39.2,103 39,103.3 39,103.4 38.9,103.6 38.8,103.7 38.5,104 38.4,104.1 
			38.3,104.2 38.2,104.3 38.1,104.5 37.8,104.7 37.8,104.7 37.6,104.9 37.3,105 37.1,105.1 37.1,105.1 36.9,105.1 36.8,105.2 
			36.8,105.2 36.6,105.2 36.4,105.2 36.2,105.1 36.2,105.1 36,105 35.8,104.9 35.7,104.7 35.5,104.5 35.5,104.3 35.4,104.3 
			35.4,104.2 35.4,104.2 35.3,104 35.2,103.7 35.2,103.5 35.1,103.3 35.1,103.3 35,103 35,102.7 35,102.6 34.9,102.3 34.9,102.2 
			34.9,101.9 34.9,101.8 34.9,101.7 34.9,101.6 34.9,101.3 34.9,101.3 34.9,101.2 34.9,100.9 34.9,100.9 34.9,100.8 34.9,100.5 
			34.9,100.5 34.9,100.4 34.9,100.1 34.9,100 34.9,100 35,99.8 35,99.6 35,99.5 35,99.4 35,99.2 35,99.1 35.1,99 35.1,98.8 
			35.1,98.7 35.1,98.6 35.1,98.5 35.2,98.2 35.2,98.2 35.2,98.1 35.3,97.9 35.3,97.8 35.3,97.7 35.3,97.5 35.4,97.4 35.4,97.3 
			35.4,97.1 35.5,97 35.5,96.9 35.6,96.8 35.6,96.7 35.7,96.5 35.7,96.4 35.7,96.3 35.8,96.1 35.9,96.1 35.9,96 36,95.8 36.1,95.7 
			36.1,95.7 36.1,95.6 36.2,95.5 36.3,95.4 36.4,95.3 36.4,95.3 36.6,95.1 36.7,95.1 36.8,95 36.9,95 37,94.9 37.2,94.8 37.4,94.8 
			37.4,94.8 37.7,94.8 37.9,94.9 37.9,94.9 38,95 38.1,95 38.2,95 38.4,95.1 38.6,95.3 38.6,95.3 38.7,95.4 38.8,95.5 39,95.7 
			39,95.8 39.1,95.9 39.2,96 39.3,96.1 39.4,96.3 39.4,96.3 39.5,96.5 39.6,96.7 39.6,96.7 39.7,96.9 39.8,97 39.8,97.1 39.9,97.3 
			39.9,97.4 39.9,97.6 40,97.7 40,97.8 40.1,98 40.1,98.1 40.1,98.2 40.1,98.4 40.1,98.5 40.2,98.7 40.2,98.8 40.2,98.9 40.2,99.1 
			40.2,99.2 40.2,99.3 		"/>
		<polyline class="st0" points="53.8,56.5 54.1,56.5 54.2,56.6 54.9,56.6 54.9,56.6 55.3,56.7 55.3,56.7 55.4,56.7 55.4,56.8 
			55.6,57 55.7,57 55.7,57.1 55.7,57.2 55.7,57.2 		"/>
		<polyline class="st0" points="55.7,142.8 55.7,142.8 55.7,142.9 55.7,143 55.5,143.1 55.4,143.1 55.4,143.1 54.9,143.3 
			54.8,143.4 54.1,143.5 53.9,143.5 		"/>
		<polyline class="st0" points="25.6,142.9 25.6,142.9 25.8,141.8 26.1,140.4 26.4,139 26.7,137.7 27,136.3 27.3,135 27.6,133.6 
			27.9,132.3 28.2,131.2 28.2,130.9 28.5,129.5 28.8,128.2 29.1,126.8 29.4,125.5 29.7,124.1 30.1,122.8 30.4,121.4 30.5,121.2 
			30.7,120.1 31.1,118.7 31.4,117.4 31.5,116.8 31.6,116.6 31.7,115.8 31.9,115.1 32.1,114.3 32.1,114 32.2,113.5 32.3,112.7 
			32.4,112 32.4,111.2 32.5,110.4 32.6,109.7 32.6,109.3 32.6,108.9 32.7,108.1 32.7,107.4 32.7,106.6 32.7,106.6 32.7,106.6 
			32.7,105.8 32.7,105 32.7,104.3 32.7,103.5 32.7,102.7 32.7,101.9 32.7,101.5 32.7,101.2 32.7,101 32.7,101 32.7,100.8 
			32.7,100.4 32.7,100 32.7,99.6 32.7,99.2 32.7,98.8 32.7,98.5 32.7,98.1 32.7,97.7 32.7,97.3 32.7,96.9 32.7,96.5 32.7,96.1 
			32.7,95.7 32.7,95.6 32.7,95.4 32.7,95 32.7,94.6 32.7,94.2 32.7,93.4 32.7,92.6 32.7,91.9 32.7,91.1 32.7,90.3 32.7,89.5 
			32.7,88.8 32.7,88 32.7,87.2 32.6,86.5 32.6,85.7 32.5,84.9 32.4,84.1 32.3,83.4 32.2,82.6 32.1,81.8 31.9,81.1 31.8,80.3 
			31.6,79.5 31.4,78.7 31.1,77.6 30.8,76.4 30.4,75.3 30.1,74.1 29.8,73 29.5,71.8 29.2,70.7 28.9,69.5 28.6,68.3 28.5,67.9 
			28.3,67.2 28.3,67.1 28,66 27.7,64.8 27.3,63.7 27,62.5 26.7,61.3 26.4,60.2 26.1,59 25.8,57.9 25.6,57.1 25.7,57.1 25.7,57.1 		
			"/>
	</g>
	<g>
		<polyline class="st0" points="103.7,57.7 107.4,58.4 111,60.3 114.4,63.5 117.4,67.7 120.1,73 121.2,76 121.6,77.3 122.2,79.2 
			123.8,85.9 124.2,88.9 124.2,88.9 124.4,89.5 124.8,93.2 125,96.9 125.1,100.6 124.8,108 124.3,112.2 123.8,115.3 122.2,122 
			121.6,123.9 120.1,128.2 118.8,130.9 117.4,133.5 114.4,137.8 112.7,139.5 111,140.9 107.4,142.8 105.5,143.3 103.7,143.5 
			99.9,142.8 98.1,142 96.3,140.9 92.9,137.8 91.4,135.7 89.9,133.5 87.2,128.2 86.1,125.2 85.1,122 83.5,115.3 82.9,111.7 
			82.5,108 82.2,100.6 82.3,96.9 82.5,93.2 83.5,85.9 84.2,82.5 85.1,79.2 87.2,73 88.5,70.3 89.9,67.7 92.9,63.5 94.6,61.7 
			96.3,60.3 99.9,58.4 101.8,57.9 103.7,57.7 139.5,57.7 141.4,57.9 143.2,58.4 145.1,59.2 146.8,60.3 148.6,61.7 150.2,63.5 
			151.8,65.5 153.3,67.7 154.7,70.3 155.9,73 157.1,76 158.1,79.2 158.9,82.5 159.7,85.9 160.2,89.5 160.6,93.2 160.9,96.9 
			161,100.6 160.9,104.3 160.6,108 160.2,111.7 159.7,115.3 158.9,118.7 158.1,122 157.1,125.2 155.9,128.2 154.7,130.9 
			153.3,133.5 151.8,135.7 150.2,137.8 148.6,139.5 146.8,140.9 145.1,142 143.2,142.8 141.4,143.3 139.5,143.5 103.7,143.5 
			101.8,143.3 99.9,142.8 96.3,140.9 94.6,139.5 92.9,137.8 89.9,133.5 88.5,130.9 87.2,128.2 85.1,122 84.2,118.7 83.5,115.3 
			82.5,108 82.3,104.3 82.2,100.6 82.5,93.2 82.9,89.5 83.5,85.9 85.1,79.2 86.1,76 87.2,73 89.9,67.7 91.4,65.5 92.9,63.5 
			96.3,60.3 98.1,59.2 99.9,58.4 103.7,57.7 105.5,57.9 107.4,58.4 109.2,59.2 111,60.3 112.7,61.7 114.4,63.5 116,65.5 117.4,67.7 
			118.8,70.3 120.1,73 121.6,77.3 122.2,79.2 123.1,82.5 123.8,85.9 124.2,88.9 124.8,93.2 125.1,100.6 125,104.3 124.8,108 
			124.4,111.7 124.3,112.2 124.2,112.2 123.8,115.3 123.1,118.7 122.2,122 121.6,123.9 121.2,125.2 120.1,128.2 117.4,133.5 
			116,135.7 114.4,137.8 111,140.9 109.2,142 107.4,142.8 103.7,143.5 		"/>
		<polyline class="st0" points="118.9,89.4 118.9,89.3 119.4,85.9 120.9,79.2 121.6,77.3 		"/>
		<polyline class="st0" points="121.6,123.9 120.9,122 119.4,115.3 118.9,111.8 		"/>
		<polyline class="st0" points="118.8,111.7 118.2,111.5 117.6,111.2 117,110.9 		"/>
		<polyline class="st0" points="120.9,99.7 120.9,100.2 120.9,100.6 120.9,100.6 120.9,101 120.9,101.5 120.9,101.5 120.9,101.7 
			120.9,101.9 120.9,102 120.8,102.3 120.8,102.8 120.8,102.8 120.7,103 120.7,103.2 120.6,103.5 120.6,103.5 120.6,103.7 
			120.5,103.9 120.5,103.9 120.4,104.2 120.4,104.2 120.3,104.3 120.2,104.5 120.2,104.5 120.1,104.7 120.1,104.8 120,104.9 
			120,104.9 119.9,105 119.8,105.1 119.8,105.2 119.7,105.2 119.6,105.3 119.6,105.3 119.5,105.4 119.4,105.4 119.4,105.5 
			119.3,105.5 119.2,105.6 119.2,105.6 119,105.6 119,105.6 119,105.6 118.8,105.7 118.8,105.7 118.7,105.7 118.5,105.7 
			118.5,105.7 118.5,105.7 118.3,105.7 118.3,105.7 118.3,105.7 118.1,105.6 118.1,105.6 118,105.6 117.8,105.6 117.8,105.6 
			117.7,105.5 117.6,105.5 117.6,105.5 117.4,105.4 117.4,105.3 117.3,105.3 117.2,105.2 116.9,105 116.8,105 116.8,104.9 
			116.6,104.8 116.4,104.5 116.3,104.4 116.2,104.3 116.1,104.2 115.9,103.9 115.8,103.7 115.7,103.5 115.6,103.4 115.5,103.2 
			115.4,102.8 115.4,102.7 115.2,102.3 115.1,101.9 115.1,101.5 115.1,101.5 115.1,101.2 115,101.1 115,101 115,100.6 115.1,100.2 
			115.1,99.7 115.1,99.7 115.2,99.3 115.3,98.9 115.4,98.4 115.6,98 115.7,97.8 115.7,97.7 115.8,97.7 115.8,97.6 116,97.3 
			116.2,97 116.3,96.9 116.4,96.7 116.5,96.6 116.6,96.4 116.8,96.3 116.9,96.2 117.1,96 117.2,96 117.3,95.9 117.4,95.8 
			117.5,95.8 117.6,95.7 117.7,95.7 117.7,95.7 117.8,95.6 118,95.6 118,95.6 118,95.6 118.2,95.5 118.2,95.5 118.3,95.5 
			118.4,95.5 118.5,95.5 118.5,95.5 118.6,95.5 118.7,95.5 118.7,95.5 118.8,95.5 118.9,95.6 119,95.6 119,95.6 119.1,95.6 
			119.2,95.7 119.2,95.7 119.3,95.7 119.4,95.8 119.5,95.9 119.6,96 119.6,96 119.7,96 119.8,96.1 119.8,96.2 119.9,96.3 120,96.4 
			120,96.4 120.1,96.5 120.1,96.6 120.2,96.7 120.2,96.8 120.3,96.9 120.3,97 120.4,97.2 120.4,97.3 120.5,97.3 120.6,97.7 
			120.6,97.7 120.6,97.7 120.6,97.9 120.7,98 120.7,98.3 120.7,98.4 120.7,98.4 120.8,98.9 120.8,99.1 120.9,99.3 120.9,99.5 
			120.9,99.7 		"/>
		<polyline class="st0" points="113,91.6 113.4,91.5 113.5,91.5 113.6,91.5 113.8,91.4 113.8,91.4 113.8,91.4 114.1,91.3 
			114.3,91.3 114.5,91.2 114.6,91.1 114.7,91.1 115.1,90.9 115.6,90.7 115.6,90.7 116,90.5 116.4,90.3 116.7,90.2 117.1,90 
			117.5,89.8 117.8,89.7 118.2,89.6 118.6,89.5 118.9,89.4 119.3,89.3 119.6,89.2 119.8,89.1 120,89.1 120.2,89.1 120.4,89.1 
			120.5,89 120.7,89 121.1,89 121.1,89 121.2,89 121.3,89 121.4,89 121.5,88.9 121.7,88.9 121.8,88.9 121.8,88.9 121.9,88.9 
			122.1,88.8 122.2,88.8 122.5,88.8 122.7,88.8 122.9,88.7 123.1,88.7 123.3,88.7 123.5,88.8 123.7,88.8 123.9,88.8 124.1,88.8 
			124.2,88.9 		"/>
		<polyline class="st0" points="115.7,110.3 115.3,110.2 114.7,109.9 114.7,109.9 114.4,109.8 		"/>
		<polyline class="st0" points="113.9,109.7 113.8,109.7 113.4,109.9 113.2,110 112.6,110.2 112,110.5 111.6,110.7 110.9,111.1 
			110.5,111.4 109.9,111.7 109.4,112 108.9,112.4 108.3,112.7 107.8,113 107.4,113.2 107.4,113.2 106.6,113.7 106.4,113.8 
			106.1,114 105.4,114.2 104.6,114.5 103.8,114.7 103,114.9 102.1,114.9 101.4,115 100.4,114.9 99.7,114.9 98.8,114.7 98,114.5 
			97.3,114.3 96.4,114 95.9,113.7 94.9,113.2 94.6,113 93.4,112.2 93.3,112.2 93.1,112 92.2,111.3 92,111.1 91.2,110.3 90.7,109.8 
			90.2,109.2 89.5,108.3 89.3,108 89.3,108 88.6,106.7 88.6,106.5 88,105 87.9,104.9 87.9,104.9 87.5,103.3 87.4,103.1 87.2,101.5 
			87.2,101.1 87.1,100.6 87.2,99.5 87.3,99.1 87.6,97.3 87.7,97.1 88,96.2 88.3,95.3 88.3,95.2 89,93.6 89.2,93.3 89.3,93.2 
			90.1,92.1 90.8,91.3 91.4,90.7 92.6,89.6 92.7,89.5 93.1,89.2 94.2,88.4 94.4,88.3 95.7,87.6 96.3,87.3 97.3,86.9 98.1,86.7 
			98.9,86.4 99.8,86.3 100.6,86.2 101.6,86.2 102.2,86.2 103.2,86.3 103.9,86.4 104.6,86.7 105.4,86.9 105.9,87.2 106.8,87.6 
			107.2,87.8 107.7,88.1 108.3,88.4 108.9,88.8 109.4,89.1 110,89.5 110.6,89.8 111.1,90.1 111.7,90.5 112.2,90.7 112.2,90.7 
			112.3,90.8 112.6,90.9 112.8,91 113.4,91.3 113.8,91.4 		"/>
		<polyline class="st0" points="124.2,112.2 124.2,112.2 124,112.2 123.8,112.2 123.5,112.2 123.5,112.2 123.3,112.2 123.3,112.2 
			123.3,112.3 123.1,112.3 123,112.3 122.8,112.4 122.6,112.4 122.5,112.4 122.3,112.4 122.1,112.4 121.5,112.4 121.3,112.4 
			121,112.3 120.8,112.3 120.6,112.3 120.4,112.2 120.1,112.2 119.9,112.1 119.6,112 119.4,111.9 118.9,111.8 118.8,111.7 
			118.2,111.4 117.6,111.1 117,110.8 116.7,110.7 116.7,110.7 116.7,110.7 116.7,110.7 116.4,110.6 115.9,110.4 115.7,110.3 
			115.6,110.3 115.3,110.1 115.1,110.1 114.7,109.9 114.6,109.9 114.3,109.8 113.9,109.7 113.9,109.7 113.9,109.7 113.7,109.7 
			113.7,109.7 113.3,109.6 		"/>
		<polyline class="st0" points="134.1,89.5 134.1,89.5 134.9,88.8 135.2,88.5 135.2,88.5 135.7,88.2 135.9,88.1 136.5,87.7 
			136.5,87.7 136.9,87.5 137.9,87 138.1,86.9 139.4,86.6 139.5,86.6 140.8,86.4 141,86.4 141,86.4 141,86.3 142.7,86.3 142.7,86.4 
			144.3,86.6 144.4,86.6 145.9,87 146.3,87.2 147.5,87.7 148.3,88.1 149,88.5 150,89.2 150.5,89.5 150.5,89.5 151.1,90.1 
			151.8,90.7 151.9,90.8 153,92.1 153.7,93 153.8,93.2 154,93.6 154.1,93.7 154.7,95 154.9,95.4 155.4,96.9 155.6,97.2 155.6,97.2 
			155.8,98.4 155.9,99.1 155.9,99.3 156,100.6 156,101.1 156,101.3 156,101.4 155.7,103.1 155.3,104.6 155.3,104.9 155.3,105 
			154.7,106.3 154.5,106.7 154,107.7 153.8,108 153.6,108.3 153.6,108.4 153.1,108.9 152.4,109.8 152.2,110 151.6,110.6 
			151.2,110.9 151.1,111.1 150.4,111.7 150.1,111.9 149.8,112.2 148.9,112.7 148.3,113.1 147.7,113.4 146.7,113.9 146.3,114 
			145.1,114.4 144.9,114.4 143.5,114.7 143.4,114.7 142.1,114.8 141.8,114.8 141.8,114.8 141.5,114.8 140.1,114.7 140.1,114.7 
			138.6,114.4 138.6,114.4 138.4,114.3 137.1,113.8 136.7,113.6 135.8,113.1 135,112.5 134.6,112.2 134.2,111.7 133.6,111.1 
			133.5,111.1 133.5,111 132.6,109.8 132.2,109.2 131.7,108.3 131.6,108 131.3,107.2 131,106.7 130.6,105 130.5,104.9 130.5,104.6 
			130.4,104.3 130.2,103.1 130.2,102.9 130,101.1 130.1,100.7 130.1,100.6 130.1,99.1 130.1,98.9 130.3,97.1 130.4,97.1 130.4,96.9 
			130.5,96.6 130.7,95.5 130.8,95.3 131.2,94.1 131.4,93.6 131.6,93.2 131.8,92.8 132.1,92.1 132.4,91.7 133,90.7 133.1,90.6 
			133.6,90.1 134,89.6 134.1,89.5 		"/>
		<polyline class="st0" points="108.3,112.7 107.5,113.2 107.4,113.2 107,113.5 		"/>
	</g>
</g>
</svg>
