<?xml version="1.0" encoding="utf-8"?>
<!-- Generator: Adobe Illustrator 21.0.0, SVG Export Plug-In . SVG Version: 6.00 Build 0)  -->
<svg version="1.1" id="Layer_1" xmlns="http://www.w3.org/2000/svg" xmlns:xlink="http://www.w3.org/1999/xlink" x="0px" y="0px"
	 viewBox="0 0 69.3 200" style="enable-background:new 0 0 69.3 200;" xml:space="preserve">
<style type="text/css">
	.st0{fill:#797979;}
	.st1{fill:none;stroke:#FFFFFF;stroke-width:1.5;stroke-linecap:round;stroke-linejoin:round;}
</style>
<g>
	<g id="XMLID_58_">
		<g>
			<polygon class="st0" points="43.9,67.2 43.9,132.8 38.1,144.4 36.4,141 41.5,130.8 41.5,69.2 36.4,59 38.1,55.6 			"/>
			<polygon class="st0" points="6.6,55.6 8.2,59 3.1,69.2 3.1,130.8 8.2,141 6.6,144.4 0.8,132.8 0.8,67.2 			"/>
		</g>
		<g>
			<line class="st1" x1="68.5" y1="132.8" x2="43.9" y2="132.8"/>
			<line class="st1" x1="43.9" y1="67.2" x2="68.5" y2="67.2"/>
			<line class="st1" x1="38.1" y1="55.6" x2="62.7" y2="55.6"/>
			<line class="st1" x1="62.7" y1="144.4" x2="38.1" y2="144.4"/>
			<polyline class="st1" points="62.7,55.6 68.5,67.2 68.5,132.8 62.7,144.4 			"/>
			<polyline class="st1" points="38.1,55.6 43.9,67.2 43.9,132.8 38.1,144.4 			"/>
			<polyline class="st1" points="38.1,55.6 36.4,59 41.5,69.2 41.5,130.8 36.4,141 38.1,144.4 			"/>
			<line class="st1" x1="27.8" y1="130.8" x2="3.1" y2="130.8"/>
			<line class="st1" x1="3.1" y1="69.2" x2="27.8" y2="69.2"/>
			<line class="st1" x1="6.6" y1="55.6" x2="31.2" y2="55.6"/>
			<line class="st1" x1="31.2" y1="144.4" x2="6.6" y2="144.4"/>
			<line class="st1" x1="32.9" y1="141" x2="8.2" y2="141"/>
			<line class="st1" x1="8.2" y1="59" x2="32.9" y2="59"/>
			<polyline class="st1" points="6.6,144.4 0.8,132.8 0.8,67.2 6.6,55.6 			"/>
			<polyline class="st1" points="6.6,144.4 8.2,141 3.1,130.8 3.1,69.2 8.2,59 6.6,55.6 			"/>
			<polyline class="st1" points="31.2,144.4 32.9,141 27.8,130.8 27.8,69.2 32.9,59 31.2,55.6 			"/>
		</g>
	</g>
</g>
</svg>
