<?xml version="1.0" encoding="utf-8"?>
<!-- Generator: Adobe Illustrator 21.0.0, SVG Export Plug-In . SVG Version: 6.00 Build 0)  -->
<svg version="1.1" id="Layer_1" xmlns="http://www.w3.org/2000/svg" xmlns:xlink="http://www.w3.org/1999/xlink" x="0px" y="0px"
	 viewBox="0 0 100 100" style="enable-background:new 0 0 100 100;" xml:space="preserve">
<g>
	<path d="M80.2340088,27.1621323l-5.7248459-1.989151l1.1389618,5.9525833l1.8981705-1.6405048
		c0.4875107,0.6607819,0.9601822,1.333622,1.3954849,2.0217648l0.85569-0.5416107
		c-0.461792-0.7302475-0.9641113-1.44417-1.4827805-2.1442757L80.2340088,27.1621323z"/>
	<path d="M81.2407761,32.9293556l-1.3364639,0.722641c0.7394562,1.3678741,1.389389,2.7995567,1.9324799,4.2554741
		l1.4235229-0.5307274C82.6929855,35.8550415,82.0133743,34.3588104,81.2407761,32.9293556z"/>
	<path d="M84.2614288,39.569397l-1.9418869,0.5777206c0.9254379,3.109436,1.3943405,6.3477211,1.3943405,9.625576
		c0,0.5856323-0.0168152,1.1846199-0.0509491,1.831089l2.0230026,0.1078262
		c0.0361099-0.6825752,0.0539169-1.3171768,0.0539169-1.9389153C85.7398529,46.2989693,85.2422638,42.8662987,84.2614288,39.569397z
		"/>
	<path d="M66.5193634,9.9771948l-0.6395493-0.2658587l-5.719799,10.8312168
		C56.8960114,19.4071503,53.4816399,18.8321533,50,18.8321533c-3.481144,0-6.8955154,0.5752449-10.1600151,1.7103996
		L34.12043,9.7113361l-0.6397934,0.2658587C17.3438644,16.6835175,6.9169998,32.3041534,6.9169998,49.7731895
		c0,23.7561684,19.3270798,43.0829964,43.0830002,43.0829964c23.7561646,0,43.0830002-19.326828,43.0830002-43.0829964
		C93.0830002,32.3044014,82.6563797,16.6835175,66.5193634,9.9771948z M50,91.3367157
		c-22.9182777,0-41.5635223-18.6452484-41.5635223-41.5635262c0-16.6215019,9.7860823-31.5093575,24.9899979-38.1219482
		l5.6898766,10.7743368l0.6252022-0.2327194C43.0248489,20.9711418,46.4763184,20.3516293,50,20.3516293
		c3.5241776,0,6.9756432,0.6195126,10.2584457,1.8412285l0.6252022,0.2327194l5.6901207-10.7743368
		C81.7774429,18.26408,91.5635223,33.1516876,91.5635223,49.7731895C91.5635223,72.6914673,72.9182816,91.3367157,50,91.3367157z"/>
	<path d="M22.4539528,70.0610123c-0.4868946-0.6601334-0.9594727-1.3327637-1.3952351-2.0214615l-0.8561897,0.5411224
		c0.4625645,0.7311096,0.9647903,1.4449997,1.4829979,2.144455L19.76618,72.3839645l5.7248402,1.989151l-1.1389599-5.9525833
		L22.4539528,70.0610123z"/>
	<path d="M18.1632042,61.6386604l-1.4235191,0.5312233c0.5673294,1.5209579,1.2469406,3.017189,2.0192909,4.4466476
		l1.3369617-0.7221527C19.3564777,64.5262604,18.7062988,63.0943298,18.1632042,61.6386604z"/>
	<path d="M16.2861176,49.7731895c0-0.5876122,0.0168171-1.1865959,0.0511932-1.831089l-2.0230017-0.1078262
		c-0.036355,0.6805992-0.0541611,1.315197-0.0541611,1.9389153c0,3.4727364,0.4973421,6.905407,1.4784231,10.2035408
		l1.9418831-0.5777168C16.7552643,56.2888336,16.2861176,53.0500565,16.2861176,49.7731895z"/>
</g>
</svg>
