<?xml version="1.0" encoding="utf-8"?>
<!-- Generator: Adobe Illustrator 21.0.0, SVG Export Plug-In . SVG Version: 6.00 Build 0)  -->
<svg version="1.1" id="Layer_1" xmlns="http://www.w3.org/2000/svg" xmlns:xlink="http://www.w3.org/1999/xlink" x="0px" y="0px"
	 viewBox="0 0 100 100" style="enable-background:new 0 0 100 100;" xml:space="preserve">
<style type="text/css">
	.st0{fill:#FFFFFF;}
</style>
<g>
	<path class="st0" d="M80.2,27.2l-5.7-2l1.1,6l1.9-1.6c0.5,0.7,1,1.3,1.4,2l0.9-0.5c-0.5-0.7-1-1.4-1.5-2.1L80.2,27.2z"/>
	<path class="st0" d="M81.2,32.9l-1.3,0.7c0.7,1.4,1.4,2.8,1.9,4.3l1.4-0.5C82.7,35.9,82,34.4,81.2,32.9z"/>
	<path class="st0" d="M84.3,39.6l-1.9,0.6c0.9,3.1,1.4,6.3,1.4,9.6c0,0.6,0,1.2-0.1,1.8l2,0.1c0-0.7,0.1-1.3,0.1-1.9
		C85.7,46.3,85.2,42.9,84.3,39.6z"/>
	<path class="st0" d="M66.5,10l-0.6-0.3l-5.7,10.8c-3.3-1.1-6.7-1.7-10.2-1.7c-3.5,0-6.9,0.6-10.2,1.7L34.1,9.7L33.5,10
		C17.3,16.7,6.9,32.3,6.9,49.8c0,23.8,19.3,43.1,43.1,43.1c23.8,0,43.1-19.3,43.1-43.1C93.1,32.3,82.7,16.7,66.5,10z M50,91.3
		c-22.9,0-41.6-18.6-41.6-41.6c0-16.6,9.8-31.5,25-38.1l5.7,10.8l0.6-0.2C43,21,46.5,20.4,50,20.4c3.5,0,7,0.6,10.3,1.8l0.6,0.2
		l5.7-10.8c15.2,6.6,25,21.5,25,38.1C91.6,72.7,72.9,91.3,50,91.3z"/>
	<path class="st0" d="M22.5,70.1c-0.5-0.7-1-1.3-1.4-2l-0.9,0.5c0.5,0.7,1,1.4,1.5,2.1l-1.9,1.7l5.7,2l-1.1-6L22.5,70.1z"/>
	<path class="st0" d="M18.2,61.6l-1.4,0.5c0.6,1.5,1.2,3,2,4.4l1.3-0.7C19.4,64.5,18.7,63.1,18.2,61.6z"/>
	<path class="st0" d="M16.3,49.8c0-0.6,0-1.2,0.1-1.8l-2-0.1c0,0.7-0.1,1.3-0.1,1.9c0,3.5,0.5,6.9,1.5,10.2l1.9-0.6
		C16.8,56.3,16.3,53.1,16.3,49.8z"/>
</g>
</svg>
