<?xml version="1.0" encoding="utf-8"?>
<!-- Generator: Adobe Illustrator 21.0.0, SVG Export Plug-In . SVG Version: 6.00 Build 0)  -->
<svg version="1.1" id="Layer_1" xmlns="http://www.w3.org/2000/svg" xmlns:xlink="http://www.w3.org/1999/xlink" x="0px" y="0px"
	 viewBox="0 0 59.3 200" style="enable-background:new 0 0 59.3 200;" xml:space="preserve">
<style type="text/css">
	.st0{fill:#797979;}
	.st1{fill:none;stroke:#FFFFFF;stroke-width:1.5;stroke-linecap:round;stroke-linejoin:round;}
</style>
<g id="XMLID_54_">
	<g>
		<polygon class="st0" points="1.4,90 2.2,85.2 3.3,80.7 4.7,76.5 6.4,72.7 8.3,69.3 10.4,66.5 12.7,64.3 15.1,62.6 17.6,61.7 
			20.1,61.3 20.1,69 18.1,69.3 16.1,70.1 14.2,71.4 12.3,73.2 10.7,75.4 9.1,78.1 7.8,81.2 6.7,84.5 5.8,88.2 5.1,92 4.7,96 
			4.6,100 0.8,100 0.9,95 		"/>
		<polygon class="st0" points="1.4,110 0.9,105 0.8,100 4.6,100 4.7,104 5.1,108 5.8,111.8 6.7,115.5 7.8,118.8 9.1,121.9 
			10.7,124.6 12.3,126.8 14.2,128.6 16.1,129.9 18.1,130.7 20.1,131 20.1,138.7 17.6,138.3 15.1,137.4 12.7,135.7 10.4,133.5 
			8.3,130.7 6.4,127.3 4.7,123.5 3.3,119.3 2.2,114.8 		"/>
	</g>
	<g>
		<polyline class="st1" points="42.3,105.4 20.1,131 18.1,130.7 16.1,129.9 14.2,128.6 12.3,126.8 10.7,124.6 9.1,121.9 7.8,118.8 
			6.7,115.5 5.8,111.8 5.1,108 4.7,104 4.6,100 4.7,96 5.1,92 5.8,88.2 6.7,84.5 7.8,81.2 9.1,78.1 10.7,75.4 12.3,73.2 14.2,71.4 
			16.1,70.1 18.1,69.3 20.1,69 22.6,72 42.3,94.6 		"/>
		<polyline class="st1" points="58.6,105.4 42.3,105.4 41.9,105.3 41.6,105.2 41.2,105 40.9,104.7 40.6,104.3 40.4,103.8 
			40.1,103.3 39.9,102.7 39.8,102.1 39.7,101.4 39.6,100.7 39.6,100 39.6,99.3 39.7,98.6 39.8,97.9 39.9,97.3 40.1,96.7 40.4,96.2 
			40.6,95.7 40.9,95.3 41.2,95 41.6,94.8 41.9,94.7 42.3,94.6 58.6,94.6 		"/>
		<polygon class="st1" points="58.6,110.8 44.2,110.8 20.1,138.7 17.6,138.3 15.1,137.4 12.7,135.7 10.4,133.5 8.3,130.7 6.4,127.3 
			4.7,123.5 3.3,119.3 2.2,114.8 1.4,110 0.9,105 0.8,100 0.9,95 1.4,90 2.2,85.2 3.3,80.7 4.7,76.5 6.4,72.7 8.3,69.3 10.4,66.5 
			12.7,64.3 15.1,62.6 17.6,61.7 20.1,61.3 24.3,66.2 44.2,89.2 58.6,89.2 58.6,94.6 58.2,94.7 57.9,94.8 57.6,95 57.2,95.3 
			57,95.7 56.7,96.2 56.5,96.7 56.3,97.3 56.1,97.9 56,98.6 55.9,99.3 55.9,100 55.9,100.7 56,101.4 56.1,102.1 56.3,102.7 
			56.5,103.3 56.7,103.8 57,104.3 57.2,104.7 57.6,105 57.9,105.2 58.2,105.3 58.6,105.4 		"/>
		<polyline class="st1" points="20.1,69 20.1,61.3 58.6,61.3 58.6,89.2 		"/>
		<polyline class="st1" points="20.1,131 20.1,138.7 58.6,138.7 58.6,110.8 		"/>
	</g>
</g>
</svg>
