<?xml version="1.0" encoding="utf-8"?>
<!-- Generator: Adobe Illustrator 21.0.0, SVG Export Plug-In . SVG Version: 6.00 Build 0)  -->
<svg version="1.1" id="Layer_1" xmlns="http://www.w3.org/2000/svg" xmlns:xlink="http://www.w3.org/1999/xlink" x="0px" y="0px"
	 viewBox="0 0 98.2 200" style="enable-background:new 0 0 98.2 200;" xml:space="preserve">
<style type="text/css">
	.st0{fill:none;stroke:#000000;stroke-width:0.75;stroke-linecap:round;stroke-linejoin:round;}
	.st1{fill:#ECF0F1;}
	.st2{fill:none;stroke:#000000;stroke-width:1.5;stroke-linecap:round;stroke-linejoin:round;}
</style>
<g>
	<line class="st0" x1="71.8" y1="77.1" x2="71.8" y2="122.9"/>
	<line class="st0" x1="70.3" y1="77.1" x2="70.3" y2="122.9"/>
	<line class="st0" x1="68.7" y1="77.1" x2="68.7" y2="122.9"/>
	<line class="st0" x1="67.1" y1="77.1" x2="67.1" y2="122.9"/>
	<line class="st0" x1="65.6" y1="77.1" x2="65.6" y2="122.9"/>
	<line class="st0" x1="64" y1="77.1" x2="64" y2="122.9"/>
	<line class="st0" x1="62.5" y1="77.1" x2="62.5" y2="122.9"/>
	<line class="st0" x1="60.9" y1="77.1" x2="60.9" y2="122.9"/>
	<line class="st0" x1="59.4" y1="77.1" x2="59.4" y2="122.9"/>
	<line class="st0" x1="57.8" y1="77.1" x2="57.8" y2="122.9"/>
</g>
<g>
	<path d="M7.4,93.5v1.5c-0.6-0.3-1.2-0.5-1.7-0.6c-0.5-0.1-1-0.2-1.5-0.2c-0.9,0-1.5,0.2-2,0.5c-0.5,0.3-0.7,0.8-0.7,1.4
		c0,0.5,0.2,0.9,0.5,1.2c0.3,0.3,0.9,0.5,1.7,0.6l0.9,0.2c1.2,0.2,2,0.6,2.6,1.2c0.6,0.6,0.8,1.3,0.8,2.2c0,1.1-0.4,2-1.1,2.5
		c-0.8,0.6-1.9,0.9-3.3,0.9c-0.5,0-1.1-0.1-1.7-0.2c-0.6-0.1-1.3-0.3-1.9-0.5v-1.6c0.6,0.4,1.3,0.6,1.9,0.8s1.2,0.3,1.8,0.3
		c0.9,0,1.6-0.2,2.1-0.5s0.7-0.9,0.7-1.5c0-0.6-0.2-1-0.5-1.3c-0.3-0.3-0.9-0.6-1.7-0.7l-1-0.2c-1.2-0.2-2-0.6-2.5-1.1
		S0,97.1,0,96.2c0-1,0.4-1.8,1.1-2.4s1.7-0.9,3-0.9c0.5,0,1.1,0,1.7,0.1S6.9,93.3,7.4,93.5z"/>
</g>
<g>
	<path d="M87.2,93.5v1.5c-0.6-0.3-1.2-0.5-1.7-0.6c-0.5-0.1-1-0.2-1.5-0.2c-0.9,0-1.5,0.2-2,0.5c-0.5,0.3-0.7,0.8-0.7,1.4
		c0,0.5,0.2,0.9,0.5,1.2c0.3,0.3,0.9,0.5,1.7,0.6l0.9,0.2c1.2,0.2,2,0.6,2.6,1.2c0.6,0.6,0.8,1.3,0.8,2.2c0,1.1-0.4,2-1.1,2.5
		c-0.8,0.6-1.9,0.9-3.3,0.9c-0.5,0-1.1-0.1-1.7-0.2c-0.6-0.1-1.3-0.3-1.9-0.5v-1.6c0.6,0.4,1.3,0.6,1.9,0.8c0.6,0.2,1.2,0.3,1.8,0.3
		c0.9,0,1.6-0.2,2.1-0.5c0.5-0.4,0.7-0.9,0.7-1.5c0-0.6-0.2-1-0.5-1.3c-0.3-0.3-0.9-0.6-1.7-0.7l-1-0.2c-1.2-0.2-2-0.6-2.5-1.1
		s-0.8-1.2-0.8-2.1c0-1,0.4-1.8,1.1-2.4s1.7-0.9,3-0.9c0.5,0,1.1,0,1.7,0.1S86.6,93.3,87.2,93.5z"/>
</g>
<g>
	<path d="M50.9,24.8H53l5.1,9.7v-9.7h1.5v11.6h-2.1l-5.1-9.7v9.7h-1.5V24.8z"/>
</g>
<g>
	<path d="M50.9,163.7H53l5.1,9.7v-9.7h1.5v11.6h-2.1l-5.1-9.7v9.7h-1.5V163.7z"/>
</g>
<g>
	<g id="XMLID_14_">
		<g>
			<polygon class="st1" points="68.7,40.7 73.8,50.7 70.4,57.4 70.4,77.1 59.6,77.1 59.6,74.5 58.6,72.4 56.9,69 55.4,69 55.4,47.4 
				65.4,47.4 66.9,44.4 			"/>
			<polygon class="st1" points="70.4,142.6 73.8,149.3 68.7,159.3 66.9,155.6 65.4,152.6 55.4,152.6 55.4,131 56.9,131 58.6,127.6 
				59.6,125.5 59.6,122.8 70.4,122.8 			"/>
			<polygon class="st1" points="32.6,131 32.6,152.6 22.8,152.6 19.5,159.3 14.5,149.3 17.8,142.6 17.8,122.8 28.6,122.8 
				28.6,125.5 31.4,131 			"/>
			<polygon class="st1" points="32.6,47.4 32.6,69 31.4,69 28.6,74.5 28.6,77.1 17.8,77.1 17.8,57.4 14.5,50.7 19.5,40.7 22.8,47.4 
							"/>
		</g>
		<g>
			<line class="st2" x1="30.2" y1="122.8" x2="30.2" y2="77.1"/>
			<line class="st2" x1="71.8" y1="77.1" x2="71.8" y2="122.8"/>
			<line class="st2" x1="54.2" y1="122.8" x2="54.2" y2="77.1"/>
			<line class="st2" x1="16.2" y1="122.8" x2="16.2" y2="77.1"/>
			<line class="st2" x1="95.8" y1="77.1" x2="95.8" y2="122.8"/>
			<line class="st2" x1="57.8" y1="77.1" x2="57.8" y2="122.8"/>
			<polyline class="st2" points="32.6,155.6 32.6,152.6 32.6,131 32.6,127.6 			"/>
			<polyline class="st2" points="32.6,72.4 32.6,69 32.6,47.4 32.6,44.4 			"/>
			<line class="st2" x1="97.5" y1="149.3" x2="73.8" y2="149.3"/>
			<line class="st2" x1="73.8" y1="50.7" x2="97.5" y2="50.7"/>
			<line class="st2" x1="28.6" y1="74.5" x2="52.3" y2="74.5"/>
			<line class="st2" x1="52.3" y1="125.5" x2="28.6" y2="125.5"/>
			<line class="st2" x1="94.1" y1="142.6" x2="70.4" y2="142.6"/>
			<line class="st2" x1="70.4" y1="57.4" x2="94.1" y2="57.4"/>
			<line class="st2" x1="92.5" y1="159.3" x2="68.7" y2="159.3"/>
			<line class="st2" x1="43.2" y1="159.3" x2="19.5" y2="159.3"/>
			<line class="st2" x1="19.5" y1="40.7" x2="43.2" y2="40.7"/>
			<line class="st2" x1="68.7" y1="40.7" x2="92.5" y2="40.7"/>
			<polyline class="st2" points="66.9,44.4 55.4,44.4 45.1,44.4 32.6,44.4 			"/>
			<polyline class="st2" points="17.8,77.1 17.8,57.4 14.5,50.7 19.5,40.7 			"/>
			<polyline class="st2" points="94.1,122.8 94.1,142.6 97.5,149.3 92.5,159.3 			"/>
			<polyline class="st2" points="70.4,122.8 70.4,142.6 73.8,149.3 68.7,159.3 			"/>
			<polyline class="st2" points="16.2,77.1 17.8,77.1 28.6,77.1 30.2,77.1 52.3,77.1 54.2,77.1 			"/>
			<polyline class="st2" points="57.8,77.1 59.6,77.1 70.4,77.1 71.8,77.1 94.1,77.1 95.8,77.1 			"/>
			<polyline class="st2" points="66.9,155.6 55.4,155.6 45.1,155.6 32.6,155.6 			"/>
			<polyline class="st2" points="92.5,40.7 97.5,50.7 94.1,57.4 94.1,77.1 			"/>
			<polyline class="st2" points="68.7,40.7 73.8,50.7 70.4,57.4 70.4,77.1 			"/>
			<polyline class="st2" points="19.5,159.3 14.5,149.3 17.8,142.6 17.8,122.8 			"/>
			<line class="st2" x1="65.4" y1="152.6" x2="55.4" y2="152.6"/>
			<line class="st2" x1="55.4" y1="47.4" x2="65.4" y2="47.4"/>
			<line class="st2" x1="22.8" y1="47.4" x2="32.6" y2="47.4"/>
			<line class="st2" x1="32.6" y1="152.6" x2="22.8" y2="152.6"/>
			<line class="st2" x1="19.5" y1="159.3" x2="22.8" y2="152.6"/>
			<line class="st2" x1="22.8" y1="47.4" x2="19.5" y2="40.7"/>
			<polyline class="st2" points="28.6,122.8 28.6,125.5 31.4,131 32.6,131 			"/>
			<polyline class="st2" points="59.6,77.1 59.6,74.5 58.6,72.4 56.9,69 55.4,69 			"/>
			<line class="st2" x1="43.2" y1="40.7" x2="45.1" y2="44.4"/>
			<line class="st2" x1="45.1" y1="155.6" x2="43.2" y2="159.3"/>
			<polyline class="st2" points="58.6,127.6 55.4,127.6 53.4,127.6 32.6,127.6 			"/>
			<polyline class="st2" points="28.6,77.1 28.6,74.5 31.4,69 32.6,69 			"/>
			<polyline class="st2" points="52.3,77.1 52.3,74.5 53.4,72.4 			"/>
			<polyline class="st2" points="59.6,122.8 59.6,125.5 58.6,127.6 56.9,131 55.4,131 			"/>
			<polyline class="st2" points="53.4,127.6 52.3,125.5 52.3,122.8 			"/>
			<polyline class="st2" points="95.8,122.8 94.1,122.8 71.8,122.8 70.4,122.8 59.6,122.8 57.8,122.8 			"/>
			<polyline class="st2" points="54.2,122.8 52.3,122.8 30.2,122.8 28.6,122.8 17.8,122.8 16.2,122.8 			"/>
			<polyline class="st2" points="58.6,72.4 55.4,72.4 53.4,72.4 32.6,72.4 			"/>
			<polyline class="st2" points="68.7,159.3 66.9,155.6 65.4,152.6 			"/>
			<polyline class="st2" points="65.4,47.4 66.9,44.4 68.7,40.7 			"/>
			<polyline class="st2" points="55.4,155.6 55.4,152.6 55.4,131 55.4,127.6 			"/>
			<polyline class="st2" points="55.4,72.4 55.4,69 55.4,47.4 55.4,44.4 			"/>
		</g>
	</g>
	<g>
		<line class="st0" x1="30.2" y1="77.1" x2="30.2" y2="122.9"/>
		<line class="st0" x1="28.6" y1="77.1" x2="28.6" y2="122.9"/>
		<line class="st0" x1="27.1" y1="77.1" x2="27.1" y2="122.9"/>
		<line class="st0" x1="25.5" y1="77.1" x2="25.5" y2="122.9"/>
		<line class="st0" x1="24" y1="77.1" x2="24" y2="122.9"/>
		<line class="st0" x1="22.4" y1="77.1" x2="22.4" y2="122.9"/>
		<line class="st0" x1="20.9" y1="77.1" x2="20.9" y2="122.9"/>
		<line class="st0" x1="19.3" y1="77.1" x2="19.3" y2="122.9"/>
		<line class="st0" x1="17.8" y1="77.1" x2="17.8" y2="122.9"/>
		<line class="st0" x1="16.2" y1="77.1" x2="16.2" y2="122.9"/>
	</g>
</g>
<g>
	<line class="st0" x1="32.7" y1="44.3" x2="55.5" y2="44.3"/>
	<line class="st0" x1="32.7" y1="46.5" x2="55.5" y2="46.5"/>
	<line class="st0" x1="32.7" y1="48.7" x2="55.5" y2="48.7"/>
	<line class="st0" x1="32.7" y1="50.8" x2="55.5" y2="50.8"/>
	<line class="st0" x1="32.7" y1="53" x2="55.5" y2="53"/>
	<line class="st0" x1="32.7" y1="55.1" x2="55.5" y2="55.1"/>
	<line class="st0" x1="32.7" y1="57.3" x2="55.5" y2="57.3"/>
	<line class="st0" x1="32.7" y1="59.5" x2="55.5" y2="59.5"/>
	<line class="st0" x1="32.7" y1="61.6" x2="55.5" y2="61.6"/>
	<line class="st0" x1="32.7" y1="63.8" x2="55.5" y2="63.8"/>
	<line class="st0" x1="32.7" y1="65.9" x2="55.5" y2="65.9"/>
	<line class="st0" x1="32.7" y1="68.1" x2="55.5" y2="68.1"/>
	<line class="st0" x1="32.7" y1="70.2" x2="55.5" y2="70.2"/>
	<line class="st0" x1="32.7" y1="72.4" x2="55.5" y2="72.4"/>
</g>
<g>
	<line class="st0" x1="32.7" y1="127.6" x2="55.5" y2="127.6"/>
	<line class="st0" x1="32.7" y1="129.7" x2="55.5" y2="129.7"/>
	<line class="st0" x1="32.7" y1="131.9" x2="55.5" y2="131.9"/>
	<line class="st0" x1="32.7" y1="134" x2="55.5" y2="134"/>
	<line class="st0" x1="32.7" y1="136.2" x2="55.5" y2="136.2"/>
	<line class="st0" x1="32.7" y1="138.4" x2="55.5" y2="138.4"/>
	<line class="st0" x1="32.7" y1="140.5" x2="55.5" y2="140.5"/>
	<line class="st0" x1="32.7" y1="142.7" x2="55.5" y2="142.7"/>
	<line class="st0" x1="32.7" y1="144.8" x2="55.5" y2="144.8"/>
	<line class="st0" x1="32.7" y1="147" x2="55.5" y2="147"/>
	<line class="st0" x1="32.7" y1="149.2" x2="55.5" y2="149.2"/>
	<line class="st0" x1="32.7" y1="151.3" x2="55.5" y2="151.3"/>
	<line class="st0" x1="32.7" y1="153.5" x2="55.5" y2="153.5"/>
	<line class="st0" x1="32.7" y1="155.6" x2="55.5" y2="155.6"/>
</g>
</svg>
