<?xml version="1.0" encoding="utf-8"?>
<!-- Generator: Adobe Illustrator 21.0.0, SVG Export Plug-In . SVG Version: 6.00 Build 0)  -->
<svg version="1.1" id="Layer_1" xmlns="http://www.w3.org/2000/svg" xmlns:xlink="http://www.w3.org/1999/xlink" x="0px" y="0px"
	 viewBox="0 0 100 100" style="enable-background:new 0 0 100 100;" xml:space="preserve">
<style type="text/css">
	.st0{fill:#FFFFFF;}
</style>
<g>
	<path class="st0" d="M66.5,10l-0.6-0.3l-5.7,10.8c-3.3-1.1-6.7-1.7-10.2-1.7s-6.9,0.6-10.2,1.7L34.1,9.7L33.5,10
		C17.3,16.7,6.9,32.3,6.9,49.8c0,23.8,19.3,43.1,43.1,43.1c23.8,0,43.1-19.3,43.1-43.1C93.1,32.3,82.7,16.7,66.5,10z M50,91.3
		c-22.9,0-41.6-18.6-41.6-41.6c0-16.6,9.8-31.5,25-38.1l5.7,10.8l0.6-0.2C43,21,46.5,20.4,50,20.4s7,0.6,10.3,1.8l0.6,0.2l5.7-10.8
		c15.2,6.6,25,21.5,25,38.1C91.6,72.7,72.9,91.3,50,91.3z"/>
	<polygon class="st0" points="50,79.6 56.1,69.1 51,69.1 51,55.4 49,55.4 49,69.1 43.9,69.1 	"/>
</g>
</svg>
