<?xml version="1.0" encoding="utf-8"?>
<!-- Generator: Adobe Illustrator 21.0.0, SVG Export Plug-In . SVG Version: 6.00 Build 0)  -->
<svg version="1.1" id="Layer_1" xmlns="http://www.w3.org/2000/svg" xmlns:xlink="http://www.w3.org/1999/xlink" x="0px" y="0px"
	 viewBox="0 0 100 100" style="enable-background:new 0 0 100 100;" xml:space="preserve">
<g>
	<path d="M66.5193634,9.9769478l-0.6395493-0.2658596l-5.719799,10.8312187
		C56.8955154,19.4071503,53.481144,18.8319054,50,18.8319054s-6.8955154,0.5752449-10.1600151,1.7104015L34.120182,9.7110882
		l-0.6397934,0.2658596C17.3438644,16.6832714,6.9169998,32.3041534,6.9169998,49.7731895
		c0,23.7561684,19.3270798,43.0829964,43.0830002,43.0829964c23.7561646,0,43.0830002-19.326828,43.0830002-43.0829964
		C93.0830002,32.3041534,82.6563797,16.6832714,66.5193634,9.9769478z M50,91.3367157
		c-22.9182777,0-41.5635223-18.6452484-41.5635223-41.5635262c0-16.6217499,9.7858362-31.5093575,24.9899979-38.1221962
		l5.6898766,10.7743359l0.6252022-0.2327194C43.0248489,20.9708958,46.4763184,20.3513813,50,20.3513813
		s6.9751511,0.6195145,10.2584457,1.8412285l0.6252022,0.2327194l5.6901207-10.7743359
		c15.2036743,6.6128387,24.9897537,21.5004463,24.9897537,38.1221962C91.5635223,72.6914673,72.9182816,91.3367157,50,91.3367157z"
		/>
	<polygon points="50.000061,79.6201248 56.0613365,69.1232986 51.0130768,69.1232986 51.0130768,55.3607712 48.9871101,55.3607712 
		48.9871101,69.1232986 43.938755,69.1232986 	"/>
</g>
</svg>
