<?xml version="1.0" encoding="utf-8"?>
<!-- Generator: Adobe Illustrator 21.0.0, SVG Export Plug-In . SVG Version: 6.00 Build 0)  -->
<svg version="1.1" id="Layer_1" xmlns="http://www.w3.org/2000/svg" xmlns:xlink="http://www.w3.org/1999/xlink" x="0px" y="0px"
	 viewBox="0 0 72.9 200" style="enable-background:new 0 0 72.9 200;" xml:space="preserve">
<style type="text/css">
	.st0{fill:#ECF0F1;}
	.st1{fill:none;stroke:#000000;stroke-width:1.5;stroke-linecap:round;stroke-linejoin:round;}
	.st2{clip-path:url(#SVGID_3_);}
	.st3{fill:#231F20;}
	.st4{fill:none;stroke:#000000;stroke-width:1.5;stroke-linecap:round;stroke-linejoin:round;stroke-miterlimit:10;}
</style>
<g>
	<g>
		<g id="XMLID_15_">
			<g>
				<polygon class="st0" points="32,95.9 32.1,100 32,104.1 31.6,108.1 30.9,112 30,115.7 28.9,119.1 27.5,122.2 26,124.9 
					24.3,127.2 22.4,129 20.5,130.3 18.5,131.1 16.4,131.4 14.4,131.1 12.4,130.3 10.4,129 8.6,127.2 6.9,124.9 5.3,122.2 4,119.1 
					2.8,115.7 1.9,112 1.3,108.1 0.9,104.1 0.7,100 0.9,95.9 1.3,91.9 1.9,88 2.8,84.3 4,80.9 5.3,77.8 6.9,75.1 8.6,72.8 10.4,71 
					12.4,69.7 14.4,68.9 16.4,68.6 18.5,68.9 20.5,69.7 22.4,71 24.3,72.8 26,75.1 27.5,77.8 28.9,80.9 30,84.3 30.9,88 31.6,91.9 
									"/>
			</g>
			<g>
				<polyline class="st1" points="53.6,68.6 55,68.6 56.5,68.6 58.5,68.9 60.5,69.7 62.5,71 64.3,72.8 66,75.1 67.6,77.8 68.9,80.9 
					70.1,84.3 71,88 71.6,91.9 72,95.9 72.2,100 72,104.1 71.6,108.1 71,112 70.1,115.7 68.9,119.1 67.6,122.2 66,124.9 64.3,127.2 
					62.5,129 60.5,130.3 58.5,131.1 56.5,131.4 55,131.4 53.6,131.4 16.4,131.4 14.4,131.1 12.4,130.3 10.4,129 8.6,127.2 
					6.9,124.9 5.3,122.2 4,119.1 2.8,115.7 1.9,112 1.3,108.1 0.9,104.1 0.7,100 0.9,95.9 1.3,91.9 1.9,88 2.8,84.3 4,80.9 
					5.3,77.8 6.9,75.1 8.6,72.8 10.4,71 12.4,69.7 14.4,68.9 16.4,68.6 18.5,68.9 20.5,69.7 22.4,71 24.3,72.8 26,75.1 27.5,77.8 
					28.9,80.9 30,84.3 30.9,88 31.6,91.9 32,95.9 32.1,100 32,104.1 31.6,108.1 30.9,112 30,115.7 28.9,119.1 27.5,122.2 26,124.9 
					24.3,127.2 22.4,129 20.5,130.3 18.5,131.1 16.4,131.4 				"/>
				<line class="st1" x1="16.4" y1="68.6" x2="53.6" y2="68.6"/>
			</g>
		</g>
	</g>
	<line class="st1" x1="18.7" y1="100" x2="14.1" y2="100"/>
	<line class="st1" x1="16.4" y1="102.3" x2="16.4" y2="97.7"/>
	<g>
		<g>
			<defs>
				<polygon id="SVGID_2_" points="72,95.9 72.2,100 72,104.1 71.6,108.1 71,112 70.1,115.7 68.9,119.1 67.6,122.2 66,124.9 
					64.3,127.2 62.5,129 60.5,130.3 58.5,131.1 56.5,131.4 55,131.4 53.6,131.4 16.4,131.4 18.5,131.1 20.5,130.3 22.4,129 
					24.3,127.2 26,124.9 27.5,122.2 28.9,119.1 30,115.7 30.9,112 31.6,108.1 32,104.1 32.1,100 32,95.9 31.6,91.9 30.9,88 30,84.3 
					28.9,80.9 27.5,77.8 26,75.1 24.3,72.8 22.4,71 20.5,69.7 18.5,68.9 16.4,68.6 53.6,68.6 55,68.6 56.5,68.6 58.5,68.9 
					60.5,69.7 62.5,71 64.3,72.8 66,75.1 67.6,77.8 68.9,80.9 70.1,84.3 71,88 71.6,91.9 				"/>
			</defs>
			<clipPath id="SVGID_3_">
				<use xlink:href="#SVGID_2_"  style="overflow:visible;"/>
			</clipPath>
			<g class="st2">
				<circle class="st3" cx="33.1" cy="95.2" r="0.6"/>
				<circle class="st3" cx="38.8" cy="96.8" r="0.6"/>
				<circle class="st3" cx="40.3" cy="92.8" r="0.6"/>
				<circle class="st3" cx="35.5" cy="92" r="0.6"/>
				<circle class="st3" cx="35.5" cy="89.6" r="0.6"/>
				<circle class="st3" cx="38.8" cy="88" r="0.6"/>
				<circle class="st3" cx="35.5" cy="86.4" r="0.6"/>
				<circle class="st3" cx="39.5" cy="84" r="0.6"/>
				<circle class="st3" cx="44.4" cy="84" r="0.6"/>
				<circle class="st3" cx="34.8" cy="83.2" r="0.6"/>
				<circle class="st3" cx="29.2" cy="81.6" r="0.6"/>
				<circle class="st3" cx="39.1" cy="81.1" r="0.6"/>
				<circle class="st3" cx="49.2" cy="78.8" r="0.6"/>
				<circle class="st3" cx="44.4" cy="75.1" r="0.6"/>
				<circle class="st3" cx="41.2" cy="71.6" r="0.6"/>
				<circle class="st3" cx="29.1" cy="69.1" r="0.6"/>
				<circle class="st3" cx="44.4" cy="69.1" r="0.6"/>
				<circle class="st3" cx="48.4" cy="74.4" r="0.6"/>
				<circle class="st3" cx="54" cy="77.6" r="0.6"/>
				<circle class="st3" cx="62.8" cy="71.5" r="0.6"/>
				<circle class="st3" cx="33.9" cy="101.6" r="0.6"/>
				<circle class="st3" cx="32.3" cy="106.4" r="0.6"/>
				<circle class="st3" cx="42.3" cy="110.4" r="0.6"/>
				<circle class="st3" cx="46" cy="108.8" r="0.6"/>
				<circle class="st3" cx="51.2" cy="108" r="0.6"/>
				<circle class="st3" cx="54.8" cy="104.8" r="0.6"/>
				<circle class="st3" cx="57.2" cy="101.6" r="0.6"/>
				<circle class="st3" cx="47.6" cy="106.4" r="0.6"/>
				<circle class="st3" cx="46" cy="104" r="0.6"/>
				<circle class="st3" cx="49.2" cy="101.6" r="0.6"/>
				<circle class="st3" cx="46.8" cy="99.2" r="0.6"/>
				<circle class="st3" cx="43.5" cy="100.8" r="0.6"/>
				<circle class="st3" cx="42.8" cy="98.4" r="0.6"/>
				<circle class="st3" cx="45.1" cy="95.2" r="0.6"/>
				<circle class="st3" cx="50.8" cy="96.8" r="0.6"/>
				<circle class="st3" cx="56.4" cy="96.8" r="0.6"/>
				<circle class="st3" cx="51.6" cy="92" r="0.6"/>
				<circle class="st3" cx="52.4" cy="88" r="0.6"/>
				<circle class="st3" cx="50.4" cy="82.4" r="0.6"/>
				<circle class="st3" cx="57.6" cy="86.4" r="0.6"/>
				<circle class="st3" cx="60" cy="83.2" r="0.6"/>
				<circle class="st3" cx="55.2" cy="82.4" r="0.6"/>
				<circle class="st3" cx="64.8" cy="83.2" r="0.6"/>
				<circle class="st3" cx="54.8" cy="90.4" r="0.6"/>
				<circle class="st3" cx="58.8" cy="88.8" r="0.6"/>
				<circle class="st3" cx="62.4" cy="87.2" r="0.6"/>
				<circle class="st3" cx="58.8" cy="92" r="0.6"/>
				<circle class="st3" cx="62.8" cy="91.2" r="0.6"/>
				<circle class="st3" cx="70.8" cy="90.4" r="0.6"/>
				<circle class="st3" cx="60.4" cy="96" r="0.6"/>
				<circle class="st3" cx="69.2" cy="95.2" r="0.6"/>
				<circle class="st3" cx="44.4" cy="113.6" r="0.6"/>
				<circle class="st3" cx="42.8" cy="117.6" r="0.6"/>
				<circle class="st3" cx="45.2" cy="118.4" r="0.6"/>
				<circle class="st3" cx="53.1" cy="118.4" r="0.6"/>
				<circle class="st3" cx="57.2" cy="120" r="0.6"/>
				<circle class="st3" cx="62" cy="119.2" r="0.6"/>
				<circle class="st3" cx="61.2" cy="116.8" r="0.6"/>
				<circle class="st3" cx="58" cy="112.8" r="0.6"/>
				<circle class="st3" cx="64.4" cy="112" r="0.6"/>
				<circle class="st3" cx="70" cy="110" r="0.6"/>
				<circle class="st3" cx="71.6" cy="106.8" r="0.6"/>
				<circle class="st3" cx="60.4" cy="109.6" r="0.6"/>
				<circle class="st3" cx="66" cy="107.2" r="0.6"/>
				<circle class="st3" cx="67.6" cy="104" r="0.6"/>
				<circle class="st3" cx="70.8" cy="102.8" r="0.6"/>
				<circle class="st3" cx="70" cy="100" r="0.6"/>
				<circle class="st3" cx="66.8" cy="100" r="0.6"/>
				<circle class="st3" cx="66" cy="119.2" r="0.6"/>
				<circle class="st3" cx="51.6" cy="123.2" r="0.6"/>
				<circle class="st3" cx="56.4" cy="123.2" r="0.6"/>
				<circle class="st3" cx="63.6" cy="124.9" r="0.6"/>
				<circle class="st3" cx="50.7" cy="125.7" r="0.6"/>
				<circle class="st3" cx="52.4" cy="129.7" r="0.6"/>
				<circle class="st3" cx="54" cy="126.4" r="0.6"/>
				<circle class="st3" cx="56.4" cy="129.7" r="0.6"/>
				<circle class="st3" cx="59.6" cy="129.7" r="0.6"/>
				<circle class="st3" cx="40.3" cy="119.2" r="0.6"/>
				<circle class="st3" cx="37.2" cy="121.7" r="0.6"/>
				<circle class="st3" cx="42.8" cy="122.4" r="0.6"/>
				<circle class="st3" cx="34.7" cy="125.7" r="0.6"/>
				<circle class="st3" cx="38.7" cy="125.7" r="0.6"/>
				<circle class="st3" cx="37.1" cy="128.9" r="0.6"/>
				<circle class="st3" cx="31.5" cy="129.6" r="0.6"/>
				<circle class="st3" cx="27.5" cy="130.5" r="0.6"/>
				<circle class="st3" cx="40.3" cy="129.6" r="0.6"/>
				<circle class="st3" cx="48.4" cy="112.8" r="0.6"/>
			</g>
		</g>
		<g>
			<polygon id="SVGID_1_" class="st4" points="72,95.9 72.2,100 72,104.1 71.6,108.1 71,112 70.1,115.7 68.9,119.1 67.6,122.2 
				66,124.9 64.3,127.2 62.5,129 60.5,130.3 58.5,131.1 56.5,131.4 55,131.4 53.6,131.4 16.4,131.4 18.5,131.1 20.5,130.3 22.4,129 
				24.3,127.2 26,124.9 27.5,122.2 28.9,119.1 30,115.7 30.9,112 31.6,108.1 32,104.1 32.1,100 32,95.9 31.6,91.9 30.9,88 30,84.3 
				28.9,80.9 27.5,77.8 26,75.1 24.3,72.8 22.4,71 20.5,69.7 18.5,68.9 16.4,68.6 53.6,68.6 55,68.6 56.5,68.6 58.5,68.9 60.5,69.7 
				62.5,71 64.3,72.8 66,75.1 67.6,77.8 68.9,80.9 70.1,84.3 71,88 71.6,91.9 			"/>
		</g>
	</g>
</g>
</svg>
