<?xml version="1.0" encoding="utf-8"?>
<!-- Generator: Adobe Illustrator 21.0.0, SVG Export Plug-In . SVG Version: 6.00 Build 0)  -->
<svg version="1.1" id="Layer_1" xmlns="http://www.w3.org/2000/svg" xmlns:xlink="http://www.w3.org/1999/xlink" x="0px" y="0px"
	 viewBox="0 0 200 200" style="enable-background:new 0 0 200 200;" xml:space="preserve">
<style type="text/css">
	.st0{fill:#ECF0F1;}
	.st1{fill:none;stroke:#000000;stroke-width:1.5;stroke-linecap:round;stroke-linejoin:round;}
	.st2{fill:none;stroke:#000000;stroke-linecap:round;stroke-linejoin:round;}
</style>
<g>
	<g id="XMLID_18_">
		<g>
			<polygon class="st0" points="46.3,30.1 49.1,28.9 52.1,28.1 55.1,27.9 58.1,28.1 59.3,28.4 61.1,28.9 64.1,30.2 67,32 69.8,34.4 
				71.9,36.6 71.9,36.6 72.5,37.2 75,40.4 77.4,44.1 79.6,48.2 81.7,52.6 83.5,57.4 85.2,62.6 86.5,67.9 87.7,73.5 88.6,79.3 
				89.3,85.2 89.7,91.2 89.8,97.2 89.7,103.3 89.3,109.3 88.6,115.2 87.7,121 86.5,126.6 85.2,131.9 83.5,137 81.7,141.8 
				79.6,146.3 77.4,150.4 75,154.1 72.5,157.3 69.8,160.1 67,162.4 64.1,164.2 61.1,165.6 58.1,166.4 55.1,166.6 52.1,166.4 
				49.1,165.6 46.1,164.2 43.2,162.4 40.4,160.1 37.8,157.3 35.2,154.1 32.8,150.4 30.6,146.3 28.4,142 27.3,139.6 29.2,143.2 
				31.3,146.3 33.5,149.2 35.8,151.6 38.2,153.6 40.7,155.1 43.3,156.3 45.9,156.9 48.5,157.2 51.1,156.9 53.7,156.3 56.2,155.1 
				58.7,153.6 61.1,151.6 63.4,149.2 65.7,146.3 67.7,143.2 69.7,139.6 71.4,135.8 73,131.6 74.4,127.2 75.6,122.6 76.6,117.7 
				77.2,114.1 77.4,112.8 78,107.6 78.3,102.5 78.4,97.2 78.3,93 78.3,92 78,86.8 77.4,81.7 77.3,80.9 77.3,80.8 76.6,76.8 
				75.6,71.9 74.4,67.3 73,62.9 72.8,62.5 71.4,58.7 69.7,54.9 67.7,51.3 65.7,48.2 63.4,45.3 61.1,42.9 58.7,40.9 56.2,39.3 
				55.2,38.9 53.7,38.2 51.1,37.5 50.7,37.5 48.5,37.3 45.9,37.5 43.3,38.2 40.7,39.3 38.2,40.9 35.8,42.9 33.5,45.3 31.3,48.2 
				29.2,51.3 27.3,54.9 28.4,52.5 30.6,48.2 32.8,44.1 35.2,40.4 37.8,37.2 40.4,34.4 43.2,32 46.1,30.2 			"/>
			<path class="st0" d="M72.2,114.1l-1.8-0.5l-1.7-1.4l-1.4-2.2l-0.5-1.1c-0.4-1.2-0.8-2.4-1-3.6c-0.2-1-0.4-2.1-0.4-3.2l0-0.5
				c-0.1-0.5-0.1-1-0.1-1.5c0-0.5,0-1,0.1-1.5l0-0.5c0.1-1.1,0.2-2.1,0.4-3.2c0.2-1.2,0.6-2.4,1-3.6l0.5-1.2l1.4-2.2l1.7-1.4
				l1.8-0.5l0.6,0.1l1.3,0.3l1.7,1.4l1.5,2.2l0.4,1.2c0.2,0.6,0.4,1.2,0.6,1.8h0.1l0.1,4.2l-0.1,5.2l-0.3,5.2l-0.6,5.1l-0.2,1.4
				h-0.6H72.2z M73,100l-0.1-1.8l-0.3-1.7L72,95L71.3,94l-0.8-0.7L69.5,93l-0.9,0.2L67.8,94L67,95l-0.5,1.4l-0.4,1.7L66,100l0.1,1.8
				l0.4,1.7l0.5,1.4l0.7,1.1l0.8,0.7l0.9,0.2l0.9-0.2l0.8-0.7l0.7-1.1l0.6-1.4l0.3-1.7L73,100z"/>
			<polygon class="st0" points="59.3,10.1 59.3,28.4 58.1,28.1 55.1,27.9 52.1,28.1 49.1,28.9 46.3,30.1 46.3,10.1 			"/>
			<path class="st0" d="M57.1,98.5c0.1,1,0.1,2,0,3l0,0.5c-0.1,1.1-0.2,2.1-0.4,3.2c-0.2,1.2-0.6,2.4-1.1,3.6l-0.4,1.2l-1.5,2.2
				l-1.7,1.4l-1.8,0.5l-1.8-0.5l-1.7-1.4l-1.4-2.2l-0.5-1.1c-0.4-1.2-0.8-2.4-1-3.6c-0.2-1-0.4-2.1-0.4-3.2l0-0.5c-0.1-1-0.1-2,0-3
				l0-0.5c0.1-1.1,0.2-2.1,0.4-3.2c0.2-1.2,0.6-2.4,1-3.6l0.5-1.2l1.4-2.2l1.7-1.4l1.8-0.5l0.6,0.1l1.3,0.3l1.7,1.4l1.5,2.2l0.4,1.2
				c0.5,1.2,0.8,2.4,1.1,3.6c0.2,1,0.4,2.1,0.4,3.2L57.1,98.5z M50.9,100l-0.1-1.8l-0.4-1.7L49.9,95L49.2,94l-0.8-0.7L47.4,93
				l-0.9,0.2L45.7,94L45,95l-0.6,1.4L44,98.2l-0.1,1.8l0.1,1.8l0.4,1.7l0.6,1.4l0.7,1.1l0.8,0.7l0.9,0.2l0.9-0.2l0.8-0.7l0.7-1.1
				l0.5-1.4l0.4-1.7L50.9,100z"/>
		</g>
		<g>
			<polyline class="st1" points="71.9,36.6 72.5,37.2 75,40.4 77.4,44.1 79.6,48.2 81.7,52.6 83.5,57.4 85.2,62.6 86.5,67.9 
				87.7,73.5 88.6,79.3 89.3,85.2 89.7,91.2 89.8,97.2 89.7,103.3 89.3,109.3 88.6,115.2 87.7,121 86.5,126.6 85.2,131.9 83.5,137 
				81.7,141.8 79.6,146.3 77.4,150.4 75,154.1 72.5,157.3 69.8,160.1 67,162.4 64.1,164.2 61.1,165.6 58.1,166.4 55.1,166.6 			"/>
			<polyline class="st1" points="161.5,34.4 164.1,37.2 166.7,40.4 169.1,44.1 171.3,48.2 173.4,52.6 175.2,57.4 176.9,62.6 
				178.3,67.9 179.4,73.5 180.3,79.3 181,85.2 181.4,91.2 181.5,97.2 181.4,103.3 181,109.3 180.3,115.2 179.4,121 178.3,126.6 
				176.9,131.9 175.2,137 173.4,141.8 171.3,146.3 169.1,150.4 166.7,154.1 164.1,157.3 161.5,160.1 158.7,162.4 155.8,164.2 
				152.8,165.6 149.8,166.4 146.8,166.6 55.1,166.6 52.1,166.4 49.1,165.6 46.1,164.2 43.2,162.4 40.4,160.1 37.8,157.3 35.2,154.1 
				32.8,150.4 30.6,146.3 28.4,142 27.3,139.6 25.5,135.8 23.9,131.6 22.5,127.2 21.3,122.6 20.3,117.7 19.5,112.8 19,107.6 
				18.6,102.5 18.5,97.2 18.6,92 19,86.8 19.5,81.7 20.3,76.8 21.3,71.9 22.5,67.3 23.9,62.9 25.5,58.7 27.3,54.9 28.4,52.5 
				30.6,48.2 32.8,44.1 35.2,40.4 37.8,37.2 40.4,34.4 43.2,32 46.1,30.2 46.3,30.1 49.1,28.9 52.1,28.1 55.1,27.9 58.1,28.1 
				59.3,28.4 61.1,28.9 64.1,30.2 67,32 69.8,34.4 71.9,36.6 			"/>
			<polyline class="st1" points="77.3,80.9 77.4,81.7 78,86.8 78.3,92 78.3,93 78.4,97.2 78.3,102.5 78,107.6 77.4,112.8 
				77.2,114.1 76.6,117.7 75.6,122.6 74.4,127.2 73,131.6 71.4,135.8 69.7,139.6 67.7,143.2 65.7,146.3 63.4,149.2 61.1,151.6 
				58.7,153.6 56.2,155.1 53.7,156.3 51.1,156.9 48.5,157.2 45.9,156.9 43.3,156.3 40.7,155.1 38.2,153.6 35.8,151.6 33.5,149.2 
				31.3,146.3 29.2,143.2 27.3,139.6 			"/>
			<polyline class="st1" points="27.3,54.9 29.2,51.3 31.3,48.2 33.5,45.3 35.8,42.9 38.2,40.9 40.7,39.3 43.3,38.2 45.9,37.5 
				48.5,37.3 50.7,37.5 51.1,37.5 53.7,38.2 55.2,38.9 56.2,39.3 58.7,40.9 61.1,42.9 63.4,45.3 65.7,48.2 67.7,51.3 69.7,54.9 
				71.4,58.7 72.8,62.5 73,62.9 74.4,67.3 75.6,71.9 76.6,76.8 77.3,80.8 			"/>
			<path class="st1" d="M50.1,114.1l1.8-0.5l1.7-1.4l1.5-2.2l0.4-1.2c0.5-1.1,0.8-2.4,1.1-3.6c0.2-1,0.4-2.1,0.4-3.2l0-0.5
				c0.1-1,0.1-2,0-3l0-0.5c-0.1-1.1-0.2-2.1-0.4-3.2c-0.2-1.2-0.6-2.4-1.1-3.6L55.1,90l-1.5-2.2l-1.7-1.4L50.7,86l-0.6-0.1l-1.8,0.5
				l-1.7,1.4L45.1,90l-0.5,1.2c-0.4,1.2-0.8,2.4-1,3.6c-0.2,1-0.4,2.1-0.4,3.2l0,0.5c-0.1,1-0.1,2,0,3l0,0.5
				c0.1,1.1,0.2,2.1,0.4,3.2c0.2,1.2,0.6,2.4,1,3.6l0.5,1.1l1.4,2.2l1.7,1.4L50.1,114.1h4.4h1.1l1.8-0.5l1.7-1.4l1.4-2.2l0.5-1.2
				c0.4-1.1,0.8-2.4,1-3.6c0.2-1,0.4-2.1,0.4-3.2l0-0.5c0.1-0.5,0.1-1,0.1-1.5c0-0.5,0-1-0.1-1.5l0-0.5c-0.1-1.1-0.2-2.1-0.4-3.2
				c-0.2-1.2-0.6-2.4-1-3.6L60.6,90l-1.4-2.2l-1.7-1.4l-1.8-0.5h-0.4"/>
			<polygon class="st2" points="50.8,98.2 50.5,96.5 49.9,95 49.2,94 48.3,93.2 47.4,93 46.5,93.2 45.7,94 45,95 44.4,96.5 44,98.2 
				43.9,100 44,101.8 44.4,103.5 45,104.9 45.7,106.1 46.5,106.7 47.4,107 48.3,106.7 49.2,106.1 49.9,104.9 50.5,103.5 50.8,101.8 
				50.9,100 			"/>
			<polygon class="st2" points="49.4,98.6 49.3,97.9 49,97.3 48.9,97 48.8,96.8 48.5,96.4 48.1,96 48,95.9 47.8,95.8 47.4,95.8 
				47.1,95.8 46.9,95.9 46.7,96 46.4,96.4 46.1,96.8 45.9,97 45.8,97.3 45.6,97.9 45.5,98.6 45.4,98.9 45.3,99.3 45.3,100 
				45.3,100.7 45.4,101.1 45.5,101.4 45.6,102.1 45.8,102.7 45.9,103 46.1,103.2 46.4,103.7 46.7,104 46.9,104.1 47.1,104.1 
				47.4,104.2 47.8,104.1 48,104.1 48.1,104 48.5,103.7 48.8,103.2 48.9,103 49,102.7 49.3,102.1 49.4,101.4 49.4,101.1 49.5,100.7 
				49.5,100 49.5,99.3 49.4,98.9 			"/>
			<polyline class="st1" points="55.2,86 55.2,85.9 55.2,38.9 			"/>
			<polyline class="st1" points="50.1,85.9 50.7,85.9 50.7,37.5 			"/>
			<line class="st1" x1="77.7" y1="85.9" x2="77.3" y2="85.9"/>
			<path class="st1" d="M78.3,93c-0.2-0.6-0.4-1.2-0.6-1.8L77.2,90l-1.5-2.2L74,86.3L72.8,86l-0.6-0.1l-1.8,0.5l-1.7,1.4L67.2,90
				l-0.5,1.2c-0.4,1.2-0.8,2.4-1,3.6c-0.2,1-0.4,2.1-0.4,3.2l0,0.5c-0.1,0.5-0.1,1-0.1,1.5c0,0.5,0,1,0.1,1.5l0,0.5
				c0.1,1.1,0.2,2.1,0.4,3.2c0.2,1.2,0.6,2.4,1,3.6l0.5,1.1l1.4,2.2l1.7,1.4l1.8,0.5h4.4h0.6"/>
			<polyline class="st1" points="72.2,114.1 74,113.6 75.7,112.2 77.2,110 77.6,108.8 			"/>
			<polygon class="st2" points="72.9,98.2 72.5,96.5 72,95 71.3,94 70.4,93.2 69.5,93 68.6,93.2 67.8,94 67,95 66.5,96.5 66.1,98.2 
				66,100 66.1,101.8 66.5,103.5 67,104.9 67.8,106.1 68.6,106.7 69.5,107 70.4,106.7 71.3,106.1 72,104.9 72.5,103.5 72.9,101.8 
				73,100 			"/>
			<polygon class="st2" points="71.5,98.6 71.3,97.9 71.1,97.3 71,97 70.9,96.8 70.6,96.4 70.2,96 70.1,95.9 69.9,95.8 69.5,95.8 
				69.1,95.8 69,95.9 68.8,96 68.4,96.4 68.1,96.8 68,97 67.9,97.3 67.7,97.9 67.5,98.6 67.5,98.9 67.4,99.3 67.4,100 67.4,100.7 
				67.5,101.1 67.5,101.4 67.7,102.1 67.9,102.7 68,103 68.1,103.2 68.4,103.7 68.8,104 69,104.1 69.1,104.1 69.5,104.2 69.9,104.1 
				70.1,104.1 70.2,104 70.6,103.7 70.9,103.2 71,103 71.1,102.7 71.3,102.1 71.5,101.4 71.5,101.1 71.6,100.7 71.6,100 71.6,99.3 
				71.5,98.9 			"/>
			<polyline class="st1" points="77.3,86 77.3,85.9 77.3,80.9 77.3,80.8 			"/>
			<polyline class="st1" points="72.2,85.9 72.8,85.9 72.8,62.5 			"/>
			<polyline class="st1" points="71.9,36.6 71.9,36.6 161.5,36.6 161.5,34.4 161.5,10.1 			"/>
			<polyline class="st1" points="161.5,10.1 59.3,10.1 46.3,10.1 46.3,30.1 46.3,30.2 			"/>
			<line class="st1" x1="59.3" y1="10.1" x2="59.3" y2="28.4"/>
		</g>
	</g>
</g>
</svg>
