<?xml version="1.0" encoding="utf-8"?>
<!-- Generator: Adobe Illustrator 21.0.0, SVG Export Plug-In . SVG Version: 6.00 Build 0)  -->
<svg version="1.1" id="Layer_1" xmlns="http://www.w3.org/2000/svg" xmlns:xlink="http://www.w3.org/1999/xlink" x="0px" y="0px"
	 viewBox="0 0 72.9 200" style="enable-background:new 0 0 72.9 200;" xml:space="preserve">
<style type="text/css">
	.st0{fill:#ECF0F1;}
	.st1{fill:none;stroke:#000000;stroke-width:1.5;stroke-linecap:round;stroke-linejoin:round;}
</style>
<g>
	<g>
		<g id="XMLID_11_">
			<g>
				<polygon class="st0" points="32,95.9 32.1,100 32,104.1 31.6,108.1 30.9,112 30,115.7 28.9,119.1 27.5,122.2 26,124.9 
					24.3,127.2 22.4,129 20.5,130.3 18.5,131.1 16.4,131.4 14.4,131.1 12.4,130.3 10.4,129 8.6,127.2 6.9,124.9 5.3,122.2 4,119.1 
					2.9,115.7 1.9,112 1.3,108.1 0.9,104.1 0.8,100 0.9,95.9 1.3,91.9 1.9,88 2.9,84.3 4,80.9 5.3,77.8 6.9,75.1 8.6,72.8 10.4,71 
					12.4,69.7 14.4,68.9 16.4,68.6 18.5,68.9 20.5,69.7 22.4,71 24.3,72.8 26,75.1 27.5,77.8 28.9,80.9 30,84.3 30.9,88 31.6,91.9 
									"/>
			</g>
			<g>
				<polyline class="st1" points="53.6,68.6 55,68.6 56.5,68.6 58.5,68.9 60.5,69.7 62.5,71 64.3,72.8 66,75.1 67.6,77.8 68.9,80.9 
					70.1,84.3 71,88 71.6,91.9 72,95.9 72.2,100 72,104.1 71.6,108.1 71,112 70.1,115.7 68.9,119.1 67.6,122.2 66,124.9 64.3,127.2 
					62.5,129 60.5,130.3 58.5,131.1 56.5,131.4 55,131.4 53.6,131.4 16.4,131.4 14.4,131.1 12.4,130.3 10.4,129 8.6,127.2 
					6.9,124.9 5.3,122.2 4,119.1 2.9,115.7 1.9,112 1.3,108.1 0.9,104.1 0.8,100 0.9,95.9 1.3,91.9 1.9,88 2.9,84.3 4,80.9 
					5.3,77.8 6.9,75.1 8.6,72.8 10.4,71 12.4,69.7 14.4,68.9 16.4,68.6 18.5,68.9 20.5,69.7 22.4,71 24.3,72.8 26,75.1 27.5,77.8 
					28.9,80.9 30,84.3 30.9,88 31.6,91.9 32,95.9 32.1,100 32,104.1 31.6,108.1 30.9,112 30,115.7 28.9,119.1 27.5,122.2 26,124.9 
					24.3,127.2 22.4,129 20.5,130.3 18.5,131.1 16.4,131.4 				"/>
				<line class="st1" x1="16.4" y1="68.6" x2="53.6" y2="68.6"/>
			</g>
		</g>
	</g>
	<g>
		<line class="st1" x1="18.8" y1="100" x2="14.1" y2="100"/>
		<line class="st1" x1="16.4" y1="102.3" x2="16.4" y2="97.7"/>
	</g>
</g>
</svg>
