<?xml version="1.0" encoding="utf-8"?>
<!-- Generator: Adobe Illustrator 21.0.0, SVG Export Plug-In . SVG Version: 6.00 Build 0)  -->
<svg version="1.1" id="Layer_1" xmlns="http://www.w3.org/2000/svg" xmlns:xlink="http://www.w3.org/1999/xlink" x="0px" y="0px"
	 viewBox="0 0 100 100" style="enable-background:new 0 0 100 100;" xml:space="preserve">
<style type="text/css">
	.st0{fill:#797979;}
	.st1{fill:#FFFFFF;}
</style>
<g>
	<g>
		<g>
			<path d="M85.2123184,55.9813271l-1.496727-0.2621498c0.3412933-1.9483109,0.5144043-3.9488068,0.5144043-5.9458389
				c0-1.9967842-0.173111-3.9972763-0.5144043-5.945591l1.496727-0.2621498
				c0.3566208,2.034626,0.5371552,4.1231613,0.5371552,6.2077408
				C85.7494736,51.8579216,85.5689392,53.9469528,85.2123184,55.9813271z"/>
		</g>
	</g>
	<g>
		<g>
			<path d="M83.3164368,40.8461723c-0.7775497-2.908123-1.9379272-5.7061958-3.4485016-8.3163109l0.8764725-0.5074806
				c1.5555801,2.6872749,2.7500916,5.5679512,3.5503845,8.5621376L83.3164368,40.8461723z"/>
		</g>
	</g>
	<g>
		<g>
			<path d="M49.999752,92.8563156c-23.7559032,0-43.0827255-19.3268204-43.0827255-43.0829773
				c0-17.4687767,10.426857-33.0896492,26.5633736-39.7959671l0.6397934-0.2658587l5.7197952,10.8312101
				c3.2642517-1.1354027,6.6786232-1.7103996,10.1597633-1.7103996c3.481636,0,6.8960075,0.5749969,10.1600113,1.7103996
				l5.719799-10.8312101l0.6395416,0.2658587c16.1370087,6.7060719,26.5641174,22.3269463,26.5641174,39.7959671
				C93.0832214,73.5294952,73.7559052,92.8563156,49.999752,92.8563156z M33.426487,11.6514158
				C18.222332,18.2640038,8.4365034,33.1518478,8.4365034,49.7733383c0,22.9182663,18.6452332,41.5634995,41.5632477,41.5634995
				c22.9182625,0,41.5639915-18.6452332,41.5639915-41.5634995c0-16.6214905-9.7860794-31.5093346-24.9902267-38.1219215
				L60.8833923,22.425745l-0.6251984-0.2327194c-3.2828026-1.221714-6.7342682-1.8412266-10.2584419-1.8412266
				c-3.5236778,0-6.9751434,0.6195126-10.2584381,1.8412266l-0.6252022,0.2327194L33.426487,11.6514158z"/>
		</g>
	</g>
	<g>
		<g>
			<path d="M17.1732407,40.9757652l-1.9572153-0.5233116c1.6315069-6.1021385,4.8732538-11.6980324,9.3743048-16.1827621
				l1.4299488,1.4353905C21.7719803,29.9378014,18.7127495,35.2183762,17.1732407,40.9757652z"/>
		</g>
	</g>
	<g>
		<g>
			<path d="M14.7876835,55.9813271c-0.3563738-2.0363541-0.537158-4.1246452-0.537158-6.2077408
				s0.1807842-4.1718788,0.537158-6.2082329l1.4967232,0.262146c-0.3412876,1.9500465-0.5144053,3.9505386-0.5144053,5.9460869
				s0.1731176,3.9957962,0.5144053,5.945591L14.7876835,55.9813271z"/>
		</g>
	</g>
	<g>
		<g>
			<path d="M19.2553482,67.5242996c-1.555584-2.6882629-2.7500935-5.5689392-3.5503893-8.5623856l0.9788542-0.261158
				c0.77705,2.9068871,1.9371834,5.7049599,3.4484978,8.3160591L19.2553482,67.5242996z"/>
		</g>
	</g>
	<g>
		<g>
			<g>
				<path d="M22.2124405,71.4515915c-0.3741817-0.4792938-0.738718-0.9714355-1.0832214-1.4625931l0.4149876-0.2908401
					c0.3393097,0.48423,0.6984043,0.9694595,1.0673923,1.4418182L22.2124405,71.4515915z"/>
			</g>
		</g>
		<g>
			<g>
				<g>
					<polygon points="24.1850185,68.6034393 25.3052273,74.5595703 19.5866661,72.5524139 					"/>
				</g>
			</g>
		</g>
	</g>
	<g>
		<g>
			<path d="M75.4099197,75.2774811l-1.4304428-1.4353867c4.2487869-4.2334595,7.3080215-9.5140381,8.8467865-15.2709312
				l1.9577103,0.5233078C83.1527176,65.1961136,79.910965,70.7917633,75.4099197,75.2774811z"/>
		</g>
	</g>
	<g>
		<g>
			<g>
				<path d="M78.4562912,29.8485222c-0.3422775-0.4876957-0.7013779-0.9726715-1.0678864-1.4413261l0.3986588-0.3121052
					c0.3719559,0.4755783,0.736496,0.9677258,1.0837173,1.462595L78.4562912,29.8485222z"/>
			</g>
		</g>
		<g>
			<g>
				<g>
					<polygon points="75.814949,30.9434128 74.6947403,24.9872627 80.4132843,26.9944363 					"/>
				</g>
			</g>
		</g>
	</g>
	<g>
		<g>
			<path d="M76.1375046,92.4027481l-1.3255844-2.1575394c14.1862259-8.7162094,22.6556168-23.8461761,22.6556168-40.4721146
				S88.9981461,18.017683,74.8124161,9.3014717l1.3255844-2.157537C91.0795135,16.3241005,100,32.2602959,100,49.7730942
				S91.0795135,83.222084,76.1375046,92.4027481z"/>
		</g>
	</g>
	<g>
		<g>
			<path d="M23.8627434,92.4027481C8.9207373,83.22258,0,67.2858887,0,49.7730942s8.9204893-33.4489937,23.8624954-42.629406
				l1.3255844,2.1575365C11.0018549,18.017683,2.5324595,33.1471481,2.5324595,49.7730942
				s8.4693956,31.7559052,22.6558685,40.4721146L23.8627434,92.4027481z"/>
		</g>
	</g>
</g>
<path d="M69.7190704,67.9416199h-39.437645c-0.7364922,0-1.3963165-0.3808594-1.7643147-1.018425
	c-0.3684921-0.6380615-0.3684921-1.3997803,0-2.0378418l19.7185764-34.1540947
	c0.3684921-0.6378155,1.0283165-1.018425,1.7643127-1.018425c0.0004959,0,0.0004959,0,0.0004959,0
	c0.7364883,0.000246,1.3958206,0.3811054,1.7638168,1.018671l19.7190704,34.1538467
	c0.3684921,0.6380615,0.3684921,1.3997803,0,2.0373459C71.1148911,67.5607605,70.4555588,67.9416199,69.7190704,67.9416199z"/>
<path class="st0" d="M49.5513802,31.4912434L29.8328056,65.6450958c-0.1350327,0.2339554-0.0450115,0.4402084,0,0.5183563
	c0.0450096,0.0776596,0.1785583,0.2586899,0.4486217,0.2586899h39.437645c0.2695694,0,0.4036102-0.1810303,0.4481277-0.2591782
	c0.0450058-0.0776596,0.1355209-0.2844086,0.0004883-0.517868L50.4486198,31.4912434
	c-0.1350288-0.2337093-0.3586006-0.258934-0.4481239-0.258934H50C49.9099808,31.2323093,49.686409,31.257534,49.5513802,31.4912434
	L49.5513802,31.4912434z"/>
<g>
	<path class="st1" d="M50.3933105,55.5292969h-0.769043c-0.081543-1.328125-0.3496094-2.9345703-0.8037109-4.8212891
		l-0.9082031-3.8085938c-0.5478516-2.2827148-0.8212891-3.9189453-0.8212891-4.9091797
		c0-0.8964844,0.2680664-1.6186523,0.8037109-2.1660156s1.234375-0.8212891,2.0961914-0.8212891
		c0.8388672,0,1.5341797,0.2768555,2.0878906,0.8300781c0.5527344,0.5532227,0.8300781,1.2548828,0.8300781,2.1049805
		c0,0.8852539-0.2919922,2.5390625-0.8740234,4.9614258l-0.9257812,3.8085938
		C50.782959,52.0585938,50.5437012,53.6660156,50.3933105,55.5292969z M50.026123,58.0273438
		c0.7802734,0,1.4472656,0.2773438,2,0.8300781s0.8300781,1.2255859,0.8300781,2.0175781
		c0,0.7802734-0.2773438,1.4472656-0.8300781,2c-0.5527344,0.5537109-1.2197266,0.8300781-2,0.8300781
		c-0.7807617,0-1.4472656-0.2763672-2.0004883-0.8300781c-0.5532227-0.5527344-0.8295898-1.2197266-0.8295898-2
		s0.2734375-1.4501953,0.8208008-2.0087891C48.564209,58.3066406,49.2336426,58.0273438,50.026123,58.0273438z"/>
</g>
</svg>
