<?xml version="1.0" encoding="utf-8"?>
<!-- Generator: Adobe Illustrator 21.0.0, SVG Export Plug-In . SVG Version: 6.00 Build 0)  -->
<svg version="1.1" id="Layer_1" xmlns="http://www.w3.org/2000/svg" xmlns:xlink="http://www.w3.org/1999/xlink" x="0px" y="0px"
	 viewBox="0 0 100 100" style="enable-background:new 0 0 100 100;" xml:space="preserve">
<style type="text/css">
	.st0{fill:#FFFFFF;}
	.st1{fill:#A9A9A9;stroke:#FFFFFF;stroke-width:2;stroke-linejoin:round;stroke-miterlimit:10;}
	.st2{fill:#231F20;}
</style>
<g>
	<g>
		<g>
			<path class="st0" d="M85.2,56l-1.5-0.3c0.3-1.9,0.5-3.9,0.5-5.9c0-2-0.2-4-0.5-5.9l1.5-0.3c0.4,2,0.5,4.1,0.5,6.2
				C85.7,51.9,85.6,53.9,85.2,56z"/>
		</g>
	</g>
	<g>
		<g>
			<path class="st0" d="M83.3,40.8c-0.8-2.9-1.9-5.7-3.4-8.3l0.9-0.5c1.6,2.7,2.8,5.6,3.6,8.6L83.3,40.8z"/>
		</g>
	</g>
	<g>
		<g>
			<path class="st0" d="M50,92.9c-23.8,0-43.1-19.3-43.1-43.1c0-17.5,10.4-33.1,26.6-39.8l0.6-0.3l5.7,10.8
				c3.3-1.1,6.7-1.7,10.2-1.7c3.5,0,6.9,0.6,10.2,1.7l5.7-10.8l0.6,0.3c16.1,6.7,26.6,22.3,26.6,39.8C93.1,73.5,73.8,92.9,50,92.9z
				 M33.4,11.7c-15.2,6.6-25,21.5-25,38.1c0,22.9,18.6,41.6,41.6,41.6c22.9,0,41.6-18.6,41.6-41.6c0-16.6-9.8-31.5-25-38.1
				l-5.7,10.8l-0.6-0.2C57,21,53.5,20.4,50,20.4c-3.5,0-7,0.6-10.3,1.8l-0.6,0.2L33.4,11.7z"/>
		</g>
	</g>
	<g>
		<g>
			<path class="st0" d="M17.2,41l-2-0.5c1.6-6.1,4.9-11.7,9.4-16.2l1.4,1.4C21.8,29.9,18.7,35.2,17.2,41z"/>
		</g>
	</g>
	<g>
		<g>
			<path class="st0" d="M14.8,56c-0.4-2-0.5-4.1-0.5-6.2s0.2-4.2,0.5-6.2l1.5,0.3c-0.3,2-0.5,4-0.5,5.9s0.2,4,0.5,5.9L14.8,56z"/>
		</g>
	</g>
	<g>
		<g>
			<path class="st0" d="M19.3,67.5c-1.6-2.7-2.8-5.6-3.6-8.6l1-0.3c0.8,2.9,1.9,5.7,3.4,8.3L19.3,67.5z"/>
		</g>
	</g>
	<g>
		<g>
			<g>
				<path class="st0" d="M22.2,71.5c-0.4-0.5-0.7-1-1.1-1.5l0.4-0.3c0.3,0.5,0.7,1,1.1,1.4L22.2,71.5z"/>
			</g>
		</g>
		<g>
			<g>
				<g>
					<polygon class="st0" points="24.2,68.6 25.3,74.6 19.6,72.6 					"/>
				</g>
			</g>
		</g>
	</g>
	<g>
		<g>
			<path class="st0" d="M75.4,75.3L74,73.8c4.2-4.2,7.3-9.5,8.8-15.3l2,0.5C83.2,65.2,79.9,70.8,75.4,75.3z"/>
		</g>
	</g>
	<g>
		<g>
			<g>
				<path class="st0" d="M78.5,29.8c-0.3-0.5-0.7-1-1.1-1.4l0.4-0.3c0.4,0.5,0.7,1,1.1,1.5L78.5,29.8z"/>
			</g>
		</g>
		<g>
			<g>
				<g>
					<polygon class="st0" points="75.8,30.9 74.7,25 80.4,27 					"/>
				</g>
			</g>
		</g>
	</g>
	<g>
		<g>
			<path class="st0" d="M76.1,92.4l-1.3-2.2C89,81.5,97.5,66.4,97.5,49.8S89,18,74.8,9.3l1.3-2.2C91.1,16.3,100,32.3,100,49.8
				S91.1,83.2,76.1,92.4z"/>
		</g>
	</g>
	<g>
		<g>
			<path class="st0" d="M23.9,92.4C8.9,83.2,0,67.3,0,49.8S8.9,16.3,23.9,7.1l1.3,2.2C11,18,2.5,33.1,2.5,49.8S11,81.5,25.2,90.2
				L23.9,92.4z"/>
		</g>
	</g>
</g>
<polygon class="st1" points="58.7,29 41.3,29 29,41.3 29,58.7 41.3,71 58.7,71 71,58.7 71,41.3 "/>
<g>
	<path class="st2" d="M39.7,45.6v1.2c-0.5-0.2-0.9-0.4-1.4-0.5c-0.4-0.1-0.8-0.2-1.2-0.2c-0.7,0-1.2,0.1-1.6,0.4
		c-0.4,0.3-0.6,0.7-0.6,1.2c0,0.4,0.1,0.7,0.4,0.9s0.7,0.4,1.4,0.5l0.8,0.2c1,0.2,1.7,0.5,2.1,1s0.7,1.1,0.7,1.8
		c0,0.9-0.3,1.6-0.9,2.1s-1.5,0.7-2.7,0.7c-0.4,0-0.9-0.1-1.4-0.2c-0.5-0.1-1-0.3-1.6-0.4V53c0.5,0.3,1,0.5,1.5,0.7
		c0.5,0.1,1,0.2,1.5,0.2c0.7,0,1.3-0.1,1.7-0.4c0.4-0.3,0.6-0.7,0.6-1.2c0-0.5-0.1-0.8-0.4-1.1c-0.3-0.3-0.8-0.5-1.4-0.6l-0.8-0.2
		c-1-0.2-1.6-0.5-2.1-0.9c-0.4-0.4-0.6-1-0.6-1.7c0-0.8,0.3-1.5,0.9-2c0.6-0.5,1.4-0.7,2.4-0.7c0.4,0,0.9,0,1.4,0.1
		C38.7,45.3,39.2,45.4,39.7,45.6z"/>
	<path class="st2" d="M40.9,45.3h8v1.1h-3.4v8.4h-1.3v-8.4h-3.4V45.3z"/>
	<path class="st2" d="M54,45.1c1.3,0,2.4,0.4,3.2,1.3c0.8,0.9,1.2,2.1,1.2,3.6c0,1.5-0.4,2.7-1.2,3.6c-0.8,0.9-1.8,1.3-3.2,1.3
		c-1.3,0-2.4-0.4-3.2-1.3c-0.8-0.9-1.2-2.1-1.2-3.6c0-1.5,0.4-2.7,1.2-3.6S52.6,45.1,54,45.1z M54,46.1c-0.9,0-1.7,0.3-2.2,1
		s-0.8,1.6-0.8,2.8c0,1.2,0.3,2.1,0.8,2.8s1.3,1,2.2,1c0.9,0,1.7-0.3,2.2-1c0.5-0.7,0.8-1.6,0.8-2.8c0-1.2-0.3-2.1-0.8-2.8
		C55.6,46.5,54.9,46.1,54,46.1z"/>
	<path class="st2" d="M60.3,45.3h2.9c1.1,0,1.9,0.2,2.4,0.7c0.5,0.5,0.8,1.2,0.8,2.1c0,0.9-0.3,1.6-0.8,2.1
		c-0.5,0.5-1.3,0.7-2.4,0.7h-1.6v3.8h-1.3V45.3z M61.6,46.3v3.5h1.6c0.6,0,1.1-0.2,1.4-0.5c0.3-0.3,0.5-0.7,0.5-1.3
		c0-0.6-0.2-1-0.5-1.3c-0.3-0.3-0.8-0.5-1.4-0.5H61.6z"/>
</g>
</svg>
