<?xml version="1.0" encoding="utf-8"?>
<!-- Generator: Adobe Illustrator 21.0.0, SVG Export Plug-In . SVG Version: 6.00 Build 0)  -->
<svg version="1.1" id="Layer_1" xmlns="http://www.w3.org/2000/svg" xmlns:xlink="http://www.w3.org/1999/xlink" x="0px" y="0px"
	 viewBox="0 0 94.7 200" style="enable-background:new 0 0 94.7 200;" xml:space="preserve">
<style type="text/css">
	.st0{fill:#797979;}
	.st1{fill:none;stroke:#FFFFFF;stroke-width:1.5;stroke-linecap:round;stroke-linejoin:round;}
	.st2{fill:none;stroke:#FFFFFF;stroke-width:1.25;stroke-linecap:round;stroke-linejoin:round;}
	.st3{fill:none;stroke:#FFFFFF;stroke-width:1.25;stroke-linecap:round;stroke-linejoin:round;stroke-miterlimit:10;}
</style>
<g>
	<rect x="0.8" y="75" class="st0" width="22.9" height="23.5"/>
	<rect x="0.8" y="101.5" class="st0" width="22.9" height="23.5"/>
	<polygon class="st0" points="71.1,79.3 71.1,81.6 85.6,81.6 85.6,118.4 71.1,118.4 71.1,120.7 91,120.7 91,79.3 	"/>
	<g id="XMLID_1_">
		<g>
			<polygon class="st0" points="85.6,118.4 85.6,81.6 85.6,79.3 91.1,79.3 91.1,120.8 83.8,120.8 83.8,118.4 			"/>
			<polygon class="st0" points="83.8,81.6 83.8,118.4 80.2,118.4 80.2,104.5 78.5,104.5 74.8,104.5 74.8,100.7 73.6,100 74.8,99.3 
				74.8,95.5 78.5,95.5 80.2,95.5 80.2,81.6 			"/>
			<polygon class="st0" points="36.6,110.5 36.6,112.5 28.6,112.5 28.6,110.5 			"/>
			<polygon class="st0" points="74.8,81.6 78.5,81.6 78.5,95.5 74.8,95.5 74.8,82 			"/>
			<polygon class="st0" points="78.5,104.5 78.5,118.4 74.8,118.4 74.8,118 74.8,104.5 			"/>
			<polygon class="st0" points="73,100 73,118.4 71.1,118.4 55.8,118.4 55.8,112.6 66.7,112.6 66.7,110.5 55.8,110.5 55.8,89.5 
				66.7,89.5 66.7,87.4 55.8,87.4 55.8,81.6 71.1,81.6 73,81.6 			"/>
			<rect x="28.6" y="87.4" class="st0" width="8.1" height="2.1"/>
		</g>
		<g>
			<polyline class="st1" points="94,125 23.7,125 0.8,125 			"/>
			<line class="st1" x1="94" y1="75" x2="94" y2="125"/>
			<line class="st2" x1="91.1" y1="79.3" x2="91.1" y2="120.8"/>
			<line class="st2" x1="83.8" y1="81.6" x2="83.8" y2="118.4"/>
			<line class="st2" x1="85.6" y1="81.6" x2="85.6" y2="118.4"/>
			<polyline class="st2" points="73,81.6 73,100 73,118.4 			"/>
			<line class="st2" x1="23.7" y1="101.5" x2="26.3" y2="100"/>
			<polyline class="st2" points="0.8,101.5 3.4,100 26.3,100 			"/>
			<line class="st2" x1="0.8" y1="98.5" x2="23.7" y2="98.5"/>
			<line class="st2" x1="23.7" y1="101.5" x2="0.8" y2="101.5"/>
			<polyline class="st1" points="0.8,75 23.7,75 94,75 			"/>
			<line class="st2" x1="55.8" y1="89.5" x2="55.8" y2="110.5"/>
			<polyline class="st2" points="74.8,81.6 74.8,82 74.8,95.5 74.8,99.3 73.6,100 			"/>
			<line class="st2" x1="78.5" y1="81.6" x2="78.5" y2="95.5"/>
			<line class="st2" x1="78.5" y1="104.5" x2="78.5" y2="118.4"/>
			<line class="st2" x1="80.2" y1="81.6" x2="80.2" y2="95.5"/>
			<line class="st2" x1="80.2" y1="104.5" x2="80.2" y2="118.4"/>
			<polyline class="st2" points="74.8,81.6 78.5,81.6 80.2,81.6 83.8,81.6 85.6,81.6 			"/>
			<polyline class="st2" points="28.6,89.5 28.6,87.4 36.6,87.4 55.8,87.4 66.7,87.4 66.7,89.5 55.8,89.5 36.6,89.5 28.6,89.5 			
				"/>
			<polyline class="st2" points="74.8,95.5 78.5,95.5 80.2,95.5 			"/>
			<line class="st2" x1="26.3" y1="100" x2="23.7" y2="98.5"/>
			<line class="st2" x1="3.4" y1="100" x2="0.8" y2="98.5"/>
			<polyline class="st2" points="74.8,118.4 73,118.4 71.1,118.4 55.8,118.4 55.8,112.6 			"/>
			<polyline class="st2" points="80.2,104.5 78.5,104.5 74.8,104.5 			"/>
			<polyline class="st2" points="85.6,118.4 83.8,118.4 80.2,118.4 78.5,118.4 74.8,118.4 			"/>
			<polyline class="st2" points="73.6,100 74.8,100.7 74.8,104.5 74.8,118 74.8,118.4 			"/>
			<polyline class="st2" points="26.5,79.3 71.1,79.3 85.6,79.3 91.1,79.3 			"/>
			<polyline class="st2" points="91.1,120.8 83.8,120.8 71.1,120.8 26.5,120.8 			"/>
			<polygon class="st2" points="28.6,112.5 28.6,110.5 36.6,110.5 55.8,110.5 66.7,110.5 66.7,112.6 55.8,112.6 36.6,112.5 			"/>
			<polyline class="st2" points="74.8,81.6 73,81.6 71.1,81.6 55.8,81.6 55.8,87.4 			"/>
			<polyline class="st2" points="26.5,120.8 26.5,112.6 26.5,112.5 26.5,110.5 26.5,89.5 26.5,87.4 26.5,79.3 			"/>
			<line class="st2" x1="36.6" y1="87.4" x2="36.6" y2="89.5"/>
			<polyline class="st2" points="36.6,110.5 36.6,112.5 36.6,112.6 			"/>
		</g>
	</g>
	<polyline class="st3" points="71.1,81.6 71.1,79.3 71.1,79.3 	"/>
	<line class="st3" x1="71.1" y1="118.6" x2="71.1" y2="121"/>
	<line class="st1" x1="0.8" y1="75" x2="0.8" y2="98.5"/>
	<line class="st1" x1="0.8" y1="101.5" x2="0.8" y2="125"/>
	<line class="st1" x1="23.7" y1="98.5" x2="23.7" y2="75"/>
	<line class="st1" x1="23.7" y1="125" x2="23.7" y2="101.5"/>
</g>
</svg>
