<?xml version="1.0" encoding="utf-8"?>
<!-- Generator: Adobe Illustrator 21.1.0, SVG Export Plug-In . SVG Version: 6.00 Build 0)  -->
<svg version="1.1" id="Layer_1" xmlns="http://www.w3.org/2000/svg" xmlns:xlink="http://www.w3.org/1999/xlink" x="0px" y="0px"
	 viewBox="0 0 100 100" style="enable-background:new 0 0 100 100;" xml:space="preserve">
<path d="M50,0C22.386,0,0,22.386,0,50s22.386,50,50,50s50-22.386,50-50S77.614,0,50,0z M15.916,57.847
	c-4.334,0-7.847-3.513-7.847-7.847s3.513-7.847,7.847-7.847c4.334,0,7.847,3.513,7.847,7.847S20.249,57.847,15.916,57.847z
	 M32.944,28.304c-4.334,0-7.847-3.513-7.847-7.847s3.513-7.847,7.847-7.847c4.334,0,7.847,3.513,7.847,7.847
	S37.278,28.304,32.944,28.304z"/>
</svg>
