<?xml version="1.0" encoding="utf-8"?>
<!-- Generator: Adobe Illustrator 21.0.0, SVG Export Plug-In . SVG Version: 6.00 Build 0)  -->
<svg version="1.1" id="Layer_1" xmlns="http://www.w3.org/2000/svg" xmlns:xlink="http://www.w3.org/1999/xlink" x="0px" y="0px"
	 viewBox="0 0 100 100" style="enable-background:new 0 0 100 100;" xml:space="preserve">
<style type="text/css">
	.st0{fill:#A9A9A9;}
	.st1{fill:#FFFFFF;}
</style>
<g>
	<g>
		<g id="XMLID_1_">
			<g>
				<path class="st0" d="M49.5,31.5c0.1-0.2,0.4-0.3,0.5-0.3s0.3,0,0.5,0.3l19.7,34.2c0.1,0.2,0,0.4,0,0.5c0,0.1-0.2,0.3-0.4,0.3
					H30.3c-0.3,0-0.4-0.2-0.5-0.3c0-0.1-0.1-0.3,0-0.5L49.5,31.5z"/>
				<path class="st1" d="M70.2,66.2c0-0.1,0.1-0.3,0-0.5L50.5,31.5c-0.1-0.2-0.4-0.3-0.5-0.3s-0.3,0-0.5,0.3L29.8,65.7
					c-0.1,0.2,0,0.4,0,0.5c0,0.1,0.2,0.3,0.5,0.3h39.4C70,66.4,70.1,66.2,70.2,66.2z M71.5,64.9c0.4,0.6,0.4,1.4,0,2
					c-0.4,0.6-1,1-1.8,1H30.3c-0.7,0-1.4-0.4-1.8-1c-0.4-0.6-0.4-1.4,0-2l19.7-34.2c0.4-0.6,1-1,1.8-1s1.4,0.4,1.8,1L71.5,64.9z"/>
				<path class="st1" d="M91.6,49.8c0-16.6-9.8-31.5-25-38.1l-5.7,10.8l-0.6-0.2C57,21,53.5,20.4,50,20.4s-7,0.6-10.3,1.8l-0.6,0.2
					l-5.7-10.8c-15.2,6.6-25,21.5-25,38.1c0,22.9,18.6,41.6,41.6,41.6S91.6,72.7,91.6,49.8z M93.1,49.8c0,23.8-19.3,43.1-43.1,43.1
					S6.9,73.5,6.9,49.8c0-17.5,10.4-33.1,26.6-39.8l0.6-0.3l5.7,10.8c3.3-1.1,6.7-1.7,10.2-1.7s6.9,0.6,10.2,1.7l5.7-10.8l0.6,0.3
					C82.7,16.7,93.1,32.3,93.1,49.8z"/>
			</g>
		</g>
	</g>
</g>
<g>
	<path d="M50.4,55.5h-0.8c-0.1-1.3-0.3-2.9-0.8-4.8l-0.9-3.8c-0.5-2.3-0.8-3.9-0.8-4.9c0-0.9,0.3-1.6,0.8-2.2S49.1,39,50,39
		c0.8,0,1.5,0.3,2.1,0.8c0.6,0.6,0.8,1.3,0.8,2.1c0,0.9-0.3,2.5-0.9,5l-0.9,3.8C50.8,52.1,50.5,53.7,50.4,55.5z M50,58
		c0.8,0,1.4,0.3,2,0.8s0.8,1.2,0.8,2c0,0.8-0.3,1.4-0.8,2c-0.6,0.6-1.2,0.8-2,0.8c-0.8,0-1.4-0.3-2-0.8c-0.6-0.6-0.8-1.2-0.8-2
		s0.3-1.5,0.8-2C48.6,58.3,49.2,58,50,58z"/>
</g>
</svg>
