<?xml version="1.0" encoding="utf-8"?>
<!-- Generator: Adobe Illustrator 21.0.0, SVG Export Plug-In . SVG Version: 6.00 Build 0)  -->
<svg version="1.1" id="Layer_1" xmlns="http://www.w3.org/2000/svg" xmlns:xlink="http://www.w3.org/1999/xlink" x="0px" y="0px"
	 viewBox="0 0 100 100" style="enable-background:new 0 0 100 100;" xml:space="preserve">
<style type="text/css">
	.st0{fill:#FFFFFF;}
</style>
<g>
	<g>
		<path class="st0" d="M50,92.8561859c-23.7561665,0-43.0830002-19.326828-43.0830002-43.0829964
			c0-17.4687881,10.4266167-33.0896721,26.5636368-39.7959938l0.6395454-0.2658587l5.720295,10.8312168
			C43.1044846,19.4071503,46.518856,18.8321533,50,18.8321533c3.4816399,0,6.8960114,0.5749969,10.1600151,1.7103996
			l5.719799-10.8312168l0.6395493,0.2658587c16.1370163,6.7063227,26.5636368,22.3272057,26.5636368,39.7959938
			C93.0830002,73.5293579,73.7561646,92.8561859,50,92.8561859z M33.4262276,11.6512403
			C18.222559,18.2638321,8.4364767,33.1516876,8.4364767,49.7731895c0,22.9182777,18.6452446,41.5635262,41.5635223,41.5635262
			s41.5635223-18.6452484,41.5635223-41.5635262c0-16.6215019-9.7860794-31.5091095-24.9897537-38.1219482l-5.6901207,10.7743368
			l-0.6252022-0.2327194C56.9756432,20.9711418,53.5241776,20.3516293,50,20.3516293
			c-3.5236816,0-6.9751511,0.6195126-10.2579498,1.8412285l-0.6252022,0.2327194L33.4262276,11.6512403z"/>
	</g>
	<g>
		<path class="st0" d="M69.7190704,67.9416199h-39.437645c-0.7364922,0-1.3963165-0.3808594-1.7643147-1.018425
			c-0.3684921-0.6380615-0.3684921-1.3997803,0-2.0378418l19.7185745-34.1540947
			c0.3684921-0.6378155,1.0283165-1.018425,1.7643127-1.018425c0.0004959,0,0.0004959,0,0.0004959,0
			c0.7364883,0.000246,1.3958206,0.3811054,1.7638168,1.018671l19.7190704,34.1538467
			c0.3684921,0.6380615,0.3684921,1.3997803,0,2.0373459C71.1148911,67.5607605,70.4555588,67.9416199,69.7190704,67.9416199z
			 M49.5513802,31.4912434L29.8328056,65.6450958c-0.1350327,0.2339554-0.0450115,0.4402084,0,0.5183563
			c0.0450096,0.0776596,0.1785583,0.2586899,0.4486217,0.2586899h39.437645c0.2695694,0,0.4036102-0.1810303,0.4481277-0.2591782
			c0.0450058-0.0776596,0.1355209-0.2844086,0.0004883-0.517868L50.4486198,31.4912434
			c-0.1350288-0.2337093-0.3586006-0.258934-0.4481239-0.258934H50
			C49.9099808,31.2323093,49.686409,31.257534,49.5513802,31.4912434L49.5513802,31.4912434z"/>
	</g>
	<g>
		<path class="st0" d="M50.2997398,57.4838409h-0.5638695l-1.3048096-12.0138588
			c-0.0593529-0.5238037-0.0890312-0.9145546-0.0890312-1.1717567c0-0.6227264,0.1652031-1.1217995,0.4966011-1.4977112
			c0.3313942-0.3759155,0.7290688-0.5638695,1.1940155-0.5638695c0.464447,0,0.8576736,0.1879539,1.1791763,0.5638695
			c0.3210106,0.3759117,0.4817619,0.9343376,0.4817619,1.6757736c0,0.2374191-0.0197868,0.5688171-0.0588608,0.9936943
			L50.2997398,57.4838409z M50.0029678,59.946064c0.4545555,0,0.8428345,0.1607552,1.1643372,0.4817619
			c0.3210106,0.3215027,0.4817619,0.7048378,0.4817619,1.1495018c0,0.4550514-0.1607513,0.8433266-0.4817619,1.1643372
			c-0.3215027,0.3210106-0.7097816,0.4822578-1.1643372,0.4822578c-0.4550514,0-0.8428345-0.1612473-1.1643372-0.4822578
			c-0.3215065-0.3210106-0.4817619-0.7092857-0.4817619-1.1643372c0-0.444664,0.1602554-0.8279991,0.4817619-1.1495018
			C49.1601334,60.1068192,49.5479164,59.946064,50.0029678,59.946064z"/>
	</g>
</g>
</svg>
