<?xml version="1.0" encoding="utf-8"?>
<!-- Generator: Adobe Illustrator 21.0.0, SVG Export Plug-In . SVG Version: 6.00 Build 0)  -->
<svg version="1.1" id="Layer_1" xmlns="http://www.w3.org/2000/svg" xmlns:xlink="http://www.w3.org/1999/xlink" x="0px" y="0px"
	 viewBox="0 0 100 100" style="enable-background:new 0 0 100 100;" xml:space="preserve">
<style type="text/css">
	.st0{fill:#FFFFFF;}
	.st1{fill:#A9A9A9;}
</style>
<g>
	<g>
		<g>
			<path class="st0" d="M85.2,56l-1.5-0.3c0.3-1.9,0.5-3.9,0.5-5.9c0-2-0.2-4-0.5-5.9l1.5-0.3c0.4,2,0.5,4.1,0.5,6.2
				C85.7,51.9,85.6,53.9,85.2,56z"/>
		</g>
	</g>
	<g>
		<g>
			<path class="st0" d="M83.3,40.8c-0.8-2.9-1.9-5.7-3.4-8.3l0.9-0.5c1.6,2.7,2.8,5.6,3.6,8.6L83.3,40.8z"/>
		</g>
	</g>
	<g>
		<g>
			<path class="st0" d="M50,92.9c-23.8,0-43.1-19.3-43.1-43.1c0-17.5,10.4-33.1,26.6-39.8l0.6-0.3l5.7,10.8
				c3.3-1.1,6.7-1.7,10.2-1.7c3.5,0,6.9,0.6,10.2,1.7l5.7-10.8l0.6,0.3c16.1,6.7,26.6,22.3,26.6,39.8C93.1,73.5,73.8,92.9,50,92.9z
				 M33.4,11.7c-15.2,6.6-25,21.5-25,38.1c0,22.9,18.6,41.6,41.6,41.6c22.9,0,41.6-18.6,41.6-41.6c0-16.6-9.8-31.5-25-38.1
				l-5.7,10.8l-0.6-0.2C57,21,53.5,20.4,50,20.4c-3.5,0-7,0.6-10.3,1.8l-0.6,0.2L33.4,11.7z"/>
		</g>
	</g>
	<g>
		<g>
			<path class="st0" d="M17.2,41l-2-0.5c1.6-6.1,4.9-11.7,9.4-16.2l1.4,1.4C21.8,29.9,18.7,35.2,17.2,41z"/>
		</g>
	</g>
	<g>
		<g>
			<path class="st0" d="M14.8,56c-0.4-2-0.5-4.1-0.5-6.2s0.2-4.2,0.5-6.2l1.5,0.3c-0.3,2-0.5,4-0.5,5.9s0.2,4,0.5,5.9L14.8,56z"/>
		</g>
	</g>
	<g>
		<g>
			<path class="st0" d="M19.3,67.5c-1.6-2.7-2.8-5.6-3.6-8.6l1-0.3c0.8,2.9,1.9,5.7,3.4,8.3L19.3,67.5z"/>
		</g>
	</g>
	<g>
		<g>
			<g>
				<path class="st0" d="M22.2,71.5c-0.4-0.5-0.7-1-1.1-1.5l0.4-0.3c0.3,0.5,0.7,1,1.1,1.4L22.2,71.5z"/>
			</g>
		</g>
		<g>
			<g>
				<g>
					<polygon class="st0" points="24.2,68.6 25.3,74.6 19.6,72.6 					"/>
				</g>
			</g>
		</g>
	</g>
	<g>
		<g>
			<path class="st0" d="M75.4,75.3L74,73.8c4.2-4.2,7.3-9.5,8.8-15.3l2,0.5C83.2,65.2,79.9,70.8,75.4,75.3z"/>
		</g>
	</g>
	<g>
		<g>
			<g>
				<path class="st0" d="M78.5,29.8c-0.3-0.5-0.7-1-1.1-1.4l0.4-0.3c0.4,0.5,0.7,1,1.1,1.5L78.5,29.8z"/>
			</g>
		</g>
		<g>
			<g>
				<g>
					<polygon class="st0" points="75.8,30.9 74.7,25 80.4,27 					"/>
				</g>
			</g>
		</g>
	</g>
	<g>
		<g>
			<path class="st0" d="M76.1,92.4l-1.3-2.2C89,81.5,97.5,66.4,97.5,49.8S89,18,74.8,9.3l1.3-2.2C91.1,16.3,100,32.3,100,49.8
				S91.1,83.2,76.1,92.4z"/>
		</g>
	</g>
	<g>
		<g>
			<path class="st0" d="M23.9,92.4C8.9,83.2,0,67.3,0,49.8S8.9,16.3,23.9,7.1l1.3,2.2C11,18,2.5,33.1,2.5,49.8S11,81.5,25.2,90.2
				L23.9,92.4z"/>
		</g>
	</g>
</g>
<path class="st0" d="M69.7,67.9H30.3c-0.7,0-1.4-0.4-1.8-1c-0.4-0.6-0.4-1.4,0-2l19.7-34.2c0.4-0.6,1-1,1.8-1c0,0,0,0,0,0
	c0.7,0,1.4,0.4,1.8,1l19.7,34.2c0.4,0.6,0.4,1.4,0,2C71.1,67.6,70.5,67.9,69.7,67.9z"/>
<path class="st1" d="M49.6,31.5L29.8,65.6c-0.1,0.2,0,0.4,0,0.5c0,0.1,0.2,0.3,0.4,0.3h39.4c0.3,0,0.4-0.2,0.4-0.3
	c0-0.1,0.1-0.3,0-0.5L50.4,31.5c-0.1-0.2-0.4-0.3-0.4-0.3h0C49.9,31.2,49.7,31.3,49.6,31.5L49.6,31.5z"/>
<g>
	<path d="M50.4,55.5h-0.8c-0.1-1.3-0.3-2.9-0.8-4.8l-0.9-3.8c-0.5-2.3-0.8-3.9-0.8-4.9c0-0.9,0.3-1.6,0.8-2.2S49.1,39,50,39
		c0.8,0,1.5,0.3,2.1,0.8c0.6,0.6,0.8,1.3,0.8,2.1c0,0.9-0.3,2.5-0.9,5l-0.9,3.8C50.8,52.1,50.5,53.7,50.4,55.5z M50,58
		c0.8,0,1.4,0.3,2,0.8s0.8,1.2,0.8,2c0,0.8-0.3,1.4-0.8,2c-0.6,0.6-1.2,0.8-2,0.8c-0.8,0-1.4-0.3-2-0.8c-0.6-0.6-0.8-1.2-0.8-2
		s0.3-1.5,0.8-2C48.6,58.3,49.2,58,50,58z"/>
</g>
</svg>
