<?xml version="1.0" encoding="utf-8"?>
<!-- Generator: Adobe Illustrator 21.0.0, SVG Export Plug-In . SVG Version: 6.00 Build 0)  -->
<svg version="1.1" id="Layer_1" xmlns="http://www.w3.org/2000/svg" xmlns:xlink="http://www.w3.org/1999/xlink" x="0px" y="0px"
	 viewBox="0 0 100 100" style="enable-background:new 0 0 100 100;" xml:space="preserve">
<style type="text/css">
	.st0{fill:#797979;}
	.st1{fill:#FFFFFF;}
</style>
<g>
	<g>
		<g id="XMLID_1_">
			<g>
				<path d="M66.5199966,9.9799995c16.140007,6.7000008,26.5600052,22.3199997,26.5600052,39.7900009
					c0,23.7599983-19.3199997,43.0900002-43.0800018,43.0900002S6.9200001,73.5299988,6.9200001,49.7700005
					c0-17.4700012,10.4200001-33.0900002,26.5599995-39.7900009L34.1199989,9.71l5.7200012,10.8300009
					C43.0999985,19.4099998,46.5200005,18.8299999,50,18.8299999s6.9000015,0.5799999,10.1599998,1.710001L65.8799973,9.71
					L66.5199966,9.9799995z M91.5599976,49.7700005c0-16.6199989-9.7799988-31.5100002-24.9899979-38.1200027l-5.6899986,10.7800007
					l-0.6200027-0.2399998C56.9799995,20.9699993,53.5200005,20.3500004,50,20.3500004s-6.9799995,0.6199989-10.2599983,1.8400002
					l-0.6200027,0.2399998l-5.6899986-10.7800007C18.2199993,18.2600002,8.4399996,33.1500015,8.4399996,49.7700005
					c0,22.920002,18.6399994,41.5699959,41.5600014,41.5699959S91.5599976,72.6900024,91.5599976,49.7700005z"/>
				<path d="M71.4800034,64.8899994c0.3699951,0.6299973,0.3699951,1.4000015,0,2.0299988
					c-0.3700027,0.6399994-1.0200043,1.0200043-1.7600021,1.0200043H30.2800007
					c-0.7399998,0-1.3900013-0.3800049-1.7600002-1.0200043c-0.3700008-0.6299973-0.3700008-1.4000015,0-2.0299988
					l19.7200012-34.1599998C48.5999985,30.0900002,49.2599983,29.7099991,50,29.7099991s1.4000015,0.3800011,1.7599983,1.0200005
					L71.4800034,64.8899994z M70.1699982,66.1600037c0.0400009-0.0700073,0.1300049-0.2800064,0-0.5100021L50.4500008,31.4899998
					C50.3100014,31.2600002,50.0900002,31.2299995,50,31.2299995s-0.3100014,0.0300007-0.4500008,0.2600002L29.8299999,65.6500015
					c-0.1299992,0.2299957-0.039999,0.4399948,0,0.5100021c0.0499992,0.0799942,0.1800003,0.2599945,0.4500008,0.2599945h39.4400024
					C69.9899979,66.4199982,70.1200027,66.2399979,70.1699982,66.1600037z"/>
				<path class="st0" d="M70.1699982,65.6500015c0.1300049,0.2299957,0.0400009,0.4399948,0,0.5100021
					c-0.0499954,0.0799942-0.1800003,0.2599945-0.4499969,0.2599945H30.2800007
					c-0.2700005,0-0.4000015-0.1800003-0.4500008-0.2599945c-0.039999-0.0700073-0.1299992-0.2800064,0-0.5100021
					l19.7199993-34.1600037C49.6899986,31.2600002,49.9099998,31.2299995,50,31.2299995s0.3100014,0.0300007,0.4500008,0.2600002
					L70.1699982,65.6500015z"/>
			</g>
			<g>
			</g>
		</g>
	</g>
</g>
<g>
	<path class="st1" d="M50.3933105,55.5292969h-0.769043c-0.081543-1.328125-0.3496094-2.9345703-0.8037109-4.8212891
		l-0.9082031-3.8085938c-0.5478516-2.2827148-0.8212891-3.9189453-0.8212891-4.9091797
		c0-0.8964844,0.2680664-1.6186523,0.8037109-2.1660156s1.234375-0.8212891,2.0961914-0.8212891
		c0.8388672,0,1.5341797,0.2768555,2.0878906,0.8300781c0.5527344,0.5532227,0.8300781,1.2548828,0.8300781,2.1049805
		c0,0.8852539-0.2919922,2.5390625-0.8740234,4.9614258l-0.9257812,3.8085938
		C50.782959,52.0585938,50.5437012,53.6660156,50.3933105,55.5292969z M50.026123,58.0273438
		c0.7802734,0,1.4472656,0.2773438,2,0.8300781s0.8300781,1.2255859,0.8300781,2.0175781
		c0,0.7802734-0.2773438,1.4472656-0.8300781,2c-0.5527344,0.5537109-1.2197266,0.8300781-2,0.8300781
		c-0.7807617,0-1.4472656-0.2763672-2.0004883-0.8300781c-0.5532227-0.5527344-0.8295898-1.2197266-0.8295898-2
		s0.2734375-1.4501953,0.8208008-2.0087891C48.564209,58.3066406,49.2336426,58.0273438,50.026123,58.0273438z"/>
</g>
</svg>
