<?xml version="1.0" encoding="utf-8"?>
<!-- Generator: Adobe Illustrator 21.0.0, SVG Export Plug-In . SVG Version: 6.00 Build 0)  -->
<svg version="1.1" id="Layer_1" xmlns="http://www.w3.org/2000/svg" xmlns:xlink="http://www.w3.org/1999/xlink" x="0px" y="0px"
	 viewBox="0 0 96.7 200" style="enable-background:new 0 0 96.7 200;" xml:space="preserve">
<style type="text/css">
	.st0{fill:#797979;}
	.st1{fill:none;stroke:#FFFFFF;stroke-width:1.5;stroke-linecap:round;stroke-linejoin:round;}
	.st2{fill:none;stroke:#FFFFFF;stroke-width:2;stroke-linecap:round;stroke-linejoin:round;}
</style>
<g>
	<g id="XMLID_1_">
		<g>
			<polygon class="st0" points="14.9,126 13.9,123.2 12.9,120.2 12.7,119.2 12.4,118 12.7,117.6 13.8,116.6 15,115.6 16.2,114.7 
				17.5,113.8 18.5,113.2 18.5,113.2 18.6,113.6 19.3,115.6 20,117.5 20.4,118.4 19.5,119.3 19.5,119.3 18.4,120.8 17.4,122.3 
				16.5,123.9 15.8,125.6 15.3,126.8 			"/>
			<polygon class="st0" points="14.4,106 15.9,105.7 17.1,105.4 17.3,107 17.6,109.3 17.8,110.4 17.6,110.5 16,111.4 14.6,112.3 
				13.2,113.4 13.2,113.4 11.9,114.5 11.6,114.8 11.4,113.8 10.9,110.4 10.5,107.2 11.6,106.8 11.6,106.8 12.9,106.4 			"/>
			<polygon class="st0" points="10.7,104.1 10.7,104.2 10.3,104.3 10.3,103.5 10.3,103.1 10.2,100.3 10.2,100 10.3,96.4 10.5,92.9 
				10.9,89.5 11.4,86.1 12.1,82.9 12.9,79.7 13.9,76.7 14.9,73.9 16.1,71.3 17.4,69 18.8,66.8 20.3,64.9 21.9,63.3 23.5,61.9 
				25.2,60.9 26.9,60.1 28.7,59.6 30.5,59.5 32.2,59.6 34,60.1 35.7,60.9 37.4,61.9 39,63.3 40.6,64.9 42.1,66.8 43.5,69 44.8,71.3 
				46,73.9 47,76.7 48,79.7 48.8,82.9 49.5,86.1 50,89.5 50.4,92.9 50.6,96.4 50.7,100 50.6,103.5 50.4,107 50,110.4 49.5,113.8 
				48.8,117.1 48,120.2 47,123.2 46,126 44.8,128.6 43.5,131 42.1,133.1 40.6,135 39,136.7 37.4,138 35.7,139.1 34,139.8 
				32.2,140.3 30.5,140.5 28.7,140.3 27.5,140 27.4,140 26.9,139.8 25.2,139.1 23.5,138 22.8,137.4 22.7,137.3 21.9,136.7 20.3,135 
				18.8,133.1 17.4,131 17.2,130.6 17.4,129.8 17.8,128.2 18.4,126.7 19,125.2 19.8,123.8 20.7,122.4 21.7,121.1 21.8,121.1 
				22.6,122.3 23.6,123.6 24.7,124.7 25.8,125.7 26.9,126.4 28.1,126.9 29.3,127.2 30.5,127.3 31.6,127.2 32.8,126.9 34,126.4 
				35.1,125.7 36.2,124.7 37.3,123.6 38.3,122.3 39.2,120.9 39.2,120.9 39.2,120.9 40.1,119.3 40.9,117.5 41.6,115.8 41.6,115.7 
				41.6,115.6 41.8,115.2 41.8,115.2 42.3,113.6 42.6,112.4 42.8,111.5 43.3,109.3 43.4,108.7 43.7,107 43.9,104.7 44.1,102.4 
				44.1,100 44.1,97.6 43.9,95.2 43.7,92.9 43.3,90.6 42.8,88.4 42.3,86.3 41.6,84.3 40.9,82.4 40.1,80.7 39.2,79 39.2,79 39.2,79 
				38.3,77.6 37.3,76.3 36.2,75.2 35.1,74.3 34,73.6 32.8,73.1 31.6,72.7 30.5,72.6 29.3,72.7 28.1,73.1 26.9,73.6 25.8,74.3 
				24.7,75.2 23.6,76.3 22.6,77.6 21.7,79 20.8,80.7 20,82.4 19.3,84.3 18.6,86.3 18.1,88.4 17.6,90.6 17.3,92.9 17,95.2 16.8,97.6 
				16.8,100 16.8,102.4 16.8,102.6 15.3,102.9 13.7,103.3 12.2,103.7 			"/>
		</g>
		<g>
			<polyline class="st1" points="30.5,59.5 32.2,59.6 34,60.1 35.7,60.9 37.4,61.9 39,63.3 40.6,64.9 42.1,66.8 43.5,69 44.8,71.3 
				46,73.9 47,76.7 48,79.7 48.8,82.9 49.5,86.1 50,89.5 50.4,92.9 50.6,96.4 50.7,100 50.6,103.5 50.4,107 50,110.4 49.5,113.8 
				48.8,117.1 48,120.2 47,123.2 46,126 44.8,128.6 43.5,131 42.1,133.1 40.6,135 39,136.7 37.4,138 35.7,139.1 34,139.8 
				32.2,140.3 30.5,140.5 			"/>
			<polyline class="st1" points="10.6,115.8 9.4,115.5 8.3,115 7.3,114.6 6.5,114.1 5.8,113.7 5.2,113.2 4.8,112.8 4.6,112.4 
				4.4,112 4.4,111.7 4.4,111.4 4.5,111.1 4.7,110.7 5.1,110.3 5.6,109.8 6.3,109.3 7.1,108.8 8.1,108.2 9.1,107.8 10.3,107.3 
				10.5,107.2 11.6,106.8 11.6,106.8 12.9,106.4 14.4,106 15.9,105.7 17.1,105.4 17.5,105.3 19.1,105 20.8,104.8 22.5,104.5 
				24.1,104.3 25.8,104.2 27.4,104 29,103.9 30.6,103.8 32.1,103.7 33.5,103.7 34.5,103.7 34.9,103.7 36.1,103.7 36.1,103.7 
				37.2,103.7 37.2,103.7 38.2,103.7 38.3,103.7 39.2,103.8 40,103.8 40.6,103.9 40.6,103.9 41,103.9 41,103.9 41.3,104 41.5,104 
							"/>
			<polyline class="st1" points="17.8,110.4 17.6,109.3 17.3,107 17.1,105.4 			"/>
			<polyline class="st1" points="38.7,114.1 37.8,114.5 36.7,115 36.6,115 			"/>
			<polyline class="st1" points="11.6,114.8 11.4,113.8 10.9,110.4 10.5,107.2 			"/>
			<polyline class="st1" points="20.4,118.4 20,117.5 19.3,115.6 18.6,113.6 18.5,113.2 			"/>
			<polyline class="st1" points="14.5,138.3 13.6,137.9 13.6,137.9 12.2,137.1 11,136.3 10.9,136.3 9.8,135.3 9.8,135.3 8.8,134.3 
				7.9,133.2 7.9,133.1 7.2,132 7.2,131.9 6.6,130.7 6.6,130.6 6.2,129.3 6.1,129.2 5.9,128 5.9,127.9 5.8,126.5 5.8,126.4 
				5.9,125.1 5.9,125 6.1,123.7 6.1,123.6 6.5,122.2 7.1,120.9 7.1,120.8 7.8,119.5 7.8,119.5 8.6,118.2 8.6,118.2 9.6,116.9 
				9.6,116.9 10.6,115.8 10.7,115.7 11.6,114.8 11.9,114.5 13.2,113.4 13.2,113.4 14.6,112.3 16,111.4 17.6,110.5 17.8,110.4 
				19.2,109.7 20.8,108.9 22.5,108.3 24.1,107.7 25.8,107.3 27.5,106.9 29.1,106.6 30.8,106.3 30.8,106.3 32.4,106.2 33.9,106.1 
				34.7,106.1 35.3,106.2 35.5,106.2 35.9,106.2 36.7,106.2 36.8,106.3 38.1,106.4 39.2,106.7 39.3,106.7 40.3,107 40.4,107 
				41.3,107.3 41.4,107.4 42.2,107.8 42.3,107.9 43,108.3 43.1,108.4 43.2,108.5 43.4,108.7 			"/>
			<polyline class="st1" points="42.6,112.4 41.8,112.1 41.7,112 41.6,112 41.5,112 40.5,111.6 40.4,111.6 39,111.3 38.9,111.3 
				37.5,111.1 36,111.1 35.9,111.1 35.5,111.1 34.4,111.1 32.8,111.3 31.2,111.7 31.1,111.7 29.5,112.2 28,112.8 27.9,112.8 
				26.4,113.6 24.9,114.5 23.4,115.5 22,116.7 20.8,117.9 20.4,118.4 19.5,119.3 19.5,119.3 18.4,120.8 17.4,122.3 16.5,123.9 
				15.8,125.6 15.3,126.8 15.1,127.4 15.1,127.4 14.6,129.1 14.3,130.9 14.1,132.8 14.1,134.6 14.1,135 14.2,136.4 14.4,138.2 
				14.5,138.2 14.5,138.3 14.9,139.9 15.4,141.6 16.2,143.3 16.2,143.3 17,144.9 17,144.9 18,146.4 19.2,147.8 19.2,147.8 20.4,149 
				20.5,149.1 21.8,150.2 23.3,151.2 24.9,152.1 24.9,152.1 26.5,152.9 28.2,153.5 30,153.9 30.1,153.9 31.9,154.2 33.7,154.4 
				35.6,154.3 37.4,154.1 39.2,153.8 39.3,153.8 41.1,153.3 42.9,152.6 44.6,151.8 46.2,150.8 47.8,149.8 49.2,148.5 50.6,147.2 
				51.8,145.8 52.9,144.3 53.9,142.7 54.8,141 55.5,139.3 56.1,137.5 56.2,136.9 			"/>
			<polyline class="st1" points="15.3,126.8 14.9,126 13.9,123.2 12.9,120.2 12.7,119.2 12.4,118 			"/>
			<polyline class="st1" points="34.3,100.8 34.3,100 34.4,97.6 34.5,95.2 34.8,92.9 35.1,90.6 35.6,88.4 36.1,86.3 36.8,84.3 
				37.5,82.4 38.3,80.7 39.2,79 39.2,79 39.2,79 			"/>
			<polyline class="st1" points="10.3,104.3 10.3,103.5 10.3,103.1 10.2,100.3 10.2,100 10.3,96.4 10.5,92.9 10.9,89.5 11.4,86.1 
				12.1,82.9 12.9,79.7 13.9,76.7 14.9,73.9 16.1,71.3 17.4,69 18.8,66.8 20.3,64.9 21.9,63.3 23.5,61.9 25.2,60.9 26.9,60.1 
				28.7,59.6 30.5,59.5 48,59.5 49.7,59.6 51.5,60.1 53.2,60.9 54.9,61.9 56.5,63.3 58.1,64.9 59.6,66.8 61,69 62.3,71.3 63.5,73.9 
				64.6,76.7 65.5,79.7 66.3,82.9 67,86.1 67.5,89.5 67.9,92.9 68.2,96.4 68.2,100 68.2,103.5 67.9,107 67.5,110.4 67,113.8 
				66.3,117.1 65.5,120.2 64.6,123.2 63.5,126 62.3,128.6 61,131 59.6,133.1 58.1,135 56.5,136.7 56.3,136.9 56.2,136.9 54.9,138 
				53.2,139.1 52.4,139.4 51.5,139.8 49.7,140.3 48,140.5 30.5,140.5 28.7,140.3 27.5,140 27.4,140 26.9,139.8 25.2,139.1 23.5,138 
				22.8,137.4 22.7,137.3 21.9,136.7 20.3,135 18.8,133.1 17.4,131 17.2,130.6 			"/>
			<polyline class="st1" points="22.7,137.3 22,137.3 20.4,137.1 18.9,136.9 17.5,136.5 17,136.3 			"/>
			<polyline class="st1" points="41.6,115.7 41.1,116 40.1,116.6 40,116.6 38.9,117.1 37.7,117.6 37.6,117.7 37.6,117.7 			"/>
			<polyline class="st1" points="35.1,109 35.1,109.3 35.5,111.1 			"/>
			<polyline class="st1" points="27.4,140 27.1,140 25.3,140.2 23.5,140.2 21.8,140.1 21.7,140.1 20,139.9 18.3,139.6 17.7,139.5 
							"/>
			<polyline class="st1" points="39.2,120.9 38.3,122.3 37.3,123.6 36.2,124.7 35.1,125.7 34,126.4 32.8,126.9 31.6,127.2 
				30.5,127.3 29.3,127.2 28.1,126.9 26.9,126.4 25.8,125.7 24.7,124.7 23.6,123.6 22.6,122.3 21.8,121.1 			"/>
			<polyline class="st1" points="16.8,102.6 16.8,102.4 16.8,100 16.8,97.6 17,95.2 17.3,92.9 17.6,90.6 18.1,88.4 18.6,86.3 
				19.3,84.3 20,82.4 20.8,80.7 21.7,79 22.6,77.6 23.6,76.3 24.7,75.2 25.8,74.3 26.9,73.6 28.1,73.1 29.3,72.7 30.5,72.6 
				31.6,72.7 32.8,73.1 34,73.6 35.1,74.3 36.2,75.2 37.3,76.3 38.3,77.6 39.2,79 39.2,79 39.2,79 40.1,80.7 40.9,82.4 41.6,84.3 
				42.3,86.3 42.8,88.4 43.3,90.6 43.7,92.9 43.9,95.2 44.1,97.6 44.1,100 44.1,102.4 43.9,104.7 43.7,107 43.4,108.7 43.3,109.3 
				42.8,111.5 42.6,112.4 42.3,113.6 41.8,115.2 41.8,115.2 41.6,115.6 41.6,115.7 41.6,115.8 40.9,117.5 40.1,119.3 39.2,120.9 
				39.2,120.9 			"/>
			<polyline class="st1" points="8.6,118.2 8.5,118.1 7.2,117.7 7.2,117.7 6.1,117.1 5.1,116.6 5,116.6 4.1,116 4,115.9 3.3,115.3 
				3.2,115.2 2.7,114.6 2.6,114.5 2.5,114.4 2.1,113.7 2.1,113.7 2,113.6 1.7,112.9 1.7,112.8 1.7,112.7 1.6,112 1.5,111.8 
				1.5,111.7 1.6,111.1 1.6,110.9 1.6,110.8 1.7,110.7 1.9,110 1.9,109.9 2,109.8 2.3,109.2 2.4,109.1 2.5,109 3,108.3 3.1,108.3 
				3.8,107.6 3.8,107.5 4.7,106.9 4.8,106.9 5.6,106.4 5.7,106.3 6.7,105.7 6.8,105.7 7.9,105.2 8,105.1 9.3,104.6 10.3,104.3 
				10.7,104.2 10.7,104.1 12.2,103.7 13.7,103.3 15.3,102.9 16.8,102.6 17,102.6 18.7,102.2 20.4,102 22.1,101.7 23.8,101.5 
				25.5,101.3 27.2,101.2 28.9,101.1 30.5,101 32,100.9 33.5,100.9 34.3,100.8 34.8,100.8 36.1,100.8 36.2,100.8 37.3,100.8 
				37.3,100.8 38.3,100.9 38.4,100.9 39.3,100.9 40.1,101 40.8,101 40.9,101 41.4,101.1 41.8,101.2 42,101.2 42.1,101.2 42.3,101.3 
				42.4,101.3 42.5,101.4 42.7,101.5 42.7,101.6 42.8,101.6 42.9,101.7 43,101.8 43.1,101.9 43.2,102 43.2,102.2 43.3,102.3 
				43.3,102.4 43.3,102.6 43.3,102.7 43.3,102.8 43.3,102.9 43.3,103 43.2,103.2 43.2,103.3 43.1,103.4 43.1,103.5 43,103.6 
				42.9,103.7 42.8,103.8 42.7,103.9 42.6,103.9 42.5,104 42.4,104.1 42.2,104.1 42.1,104.1 41.9,104.2 41.8,104.2 41.4,104.3 
				40.9,104.3 40.7,104.3 40.1,104.3 39.3,104.3 38.4,104.4 37.4,104.4 36.2,104.3 35,104.3 34.5,104.3 			"/>
			<polyline class="st1" points="41.5,112 41.6,111.9 41.8,111.6 41.8,111.4 41.8,111.2 41.7,111.1 41.5,110.9 41.2,110.6 
				40.8,110.3 40.2,109.9 39.5,109.7 38.6,109.4 37.6,109.2 36.5,109.1 35.8,109 35.3,109 35.1,109 34,109 32.5,109 31.1,109.1 
				29.6,109.3 28.1,109.6 26.5,110 25,110.4 23.4,111 21.9,111.5 20.4,112.2 18.9,113 18.5,113.2 18.5,113.2 17.5,113.8 16.2,114.7 
				15,115.6 13.8,116.6 12.7,117.6 12.4,118 11.8,118.7 11.6,119 10.9,119.8 10.2,120.9 9.6,122 9.2,123.1 8.9,124.2 8.7,125.4 
				8.6,126.5 8.7,127.5 8.9,128.6 9.2,129.6 9.7,130.6 10.2,131.5 10.9,132.4 11.7,133.2 12.7,134 13.7,134.8 14.1,135 			"/>
			<polyline class="st1" points="4.4,99.7 4.4,99.7 5.3,99.8 6.2,99.9 7.3,100 8.5,100.1 9.7,100.2 9.8,100.2 10.2,100.3 			"/>
			<polyline class="st1" points="41.8,115.2 41.7,115.2 40.7,114.7 39.7,114.3 38.7,114.1 38.5,114.1 37.3,113.9 36.2,113.9 
				36,113.9 34.6,113.9 33.2,114.1 31.9,114.4 30.5,114.8 29.1,115.4 27.8,116.1 26.4,116.9 25.1,117.8 23.9,118.8 22.8,119.9 
				21.8,121.1 21.7,121.1 20.7,122.4 19.8,123.8 19,125.2 18.4,126.7 17.8,128.2 17.4,129.8 17.2,130.6 17.1,131.3 16.9,132.9 
				16.9,134.5 17,136.1 17,136.3 17.2,137.6 17.6,139.2 17.7,139.5 18.1,140.6 18.7,142.1 19.4,143.4 20.3,144.7 21.3,145.9 
				22.4,146.9 23.5,147.9 24.8,148.8 26.1,149.6 27.6,150.2 29.1,150.7 30.6,151.1 32.2,151.4 33.8,151.5 35.4,151.5 37,151.3 
				38.6,151 40.2,150.6 41.7,150 43.2,149.3 44.7,148.4 46,147.5 47.3,146.4 48.5,145.3 49.6,144 50.6,142.7 51.5,141.3 52.2,139.8 
				52.4,139.4 			"/>
			<polyline class="st1" points="39.2,120.9 39.2,120.9 39.2,120.9 38.3,119.3 37.6,117.7 37.5,117.5 36.8,115.6 36.6,115 
				36.2,113.9 			"/>
			<polyline class="st1" points="10.3,103.1 9.6,103.1 9.5,103.1 8.2,103 7,102.9 5.9,102.7 4.9,102.6 4.1,102.5 3.4,102.4 
				3.3,102.4 2.7,102.3 2.3,102.2 2.1,102.1 2,102.1 1.7,102 1.6,101.9 1.5,101.8 1.4,101.7 1.2,101.6 1.2,101.6 1.1,101.5 1,101.4 
				0.9,101.2 0.9,101.1 0.8,101 0.8,100.9 0.8,100.7 0.8,100.6 0.8,100.5 0.8,100.4 0.8,100.3 0.8,100.1 0.9,100 0.9,99.9 1,99.8 
				1,99.6 1.1,99.5 1.2,99.4 1.3,99.4 1.4,99.3 1.6,99.2 1.7,99.1 1.8,99 1.9,99 2.3,98.9 2.4,98.9 2.7,98.8 2.7,98.8 2.7,98.8 
				2.8,98.8 3,98.7 3.1,98.7 3.2,98.7 3.3,98.7 3.5,98.8 3.6,98.8 3.7,98.9 3.8,98.9 3.9,99 4,99.1 4.1,99.2 4.2,99.3 4.3,99.4 
				4.3,99.5 4.4,99.6 4.4,99.7 4.4,99.7 4.5,99.9 4.5,100 4.5,100.1 4.5,100.3 4.5,100.4 4.5,100.5 4.4,100.6 4.4,100.8 4.3,100.9 
				4.3,101 4.2,101.1 4.1,101.2 4,101.3 3.9,101.3 3.8,101.4 3.7,101.5 3.5,101.5 3.4,101.5 3.3,101.6 3.3,101.6 3.2,101.6 3,101.6 
				3,101.6 2.9,101.7 2.8,101.6 2.7,101.5 2.5,101.4 2.4,101.4 2.3,101.3 2.2,101.2 2.1,101.1 2.1,101 2,100.9 1.9,100.8 1.9,100.7 
				1.8,100.6 1.8,100.4 1.8,100.3 1.8,100.2 1.8,100 1.8,100 1.8,99.8 1.8,99.7 1.9,99.6 1.9,99.4 2,99.3 2.1,99.2 2.2,99.1 2.3,99 
				2.4,99 2.5,98.9 2.6,98.8 2.7,98.8 			"/>
			<polyline class="st1" points="34.5,103.7 34.5,104.3 34.5,104.7 34.7,106.1 			"/>
			<line class="st2" x1="66" y1="59.5" x2="95.7" y2="59.5"/>
			<line class="st2" x1="69" y1="69.8" x2="84.2" y2="69.8"/>
			<line class="st2" x1="71.5" y1="80.1" x2="81.7" y2="80.1"/>
			<line class="st2" x1="66" y1="139.7" x2="95.7" y2="139.7"/>
			<line class="st2" x1="69" y1="129.4" x2="84.2" y2="129.4"/>
			<line class="st2" x1="71.5" y1="119" x2="81.7" y2="119"/>
		</g>
	</g>
</g>
</svg>
