<?xml version="1.0" encoding="utf-8"?>
<!-- Generator: Adobe Illustrator 21.0.0, SVG Export Plug-In . SVG Version: 6.00 Build 0)  -->
<svg version="1.1" id="Layer_1" xmlns="http://www.w3.org/2000/svg" xmlns:xlink="http://www.w3.org/1999/xlink" x="0px" y="0px"
	 viewBox="0 0 92.3 200" style="enable-background:new 0 0 92.3 200;" xml:space="preserve">
<style type="text/css">
	.st0{fill:#ECF0F1;}
	.st1{fill:none;stroke:#000000;stroke-width:0.75;stroke-linecap:round;stroke-linejoin:round;}
	.st2{fill:none;stroke:#000000;stroke-width:1.5;stroke-linecap:round;stroke-linejoin:round;}
</style>
<g>
	<g id="XMLID_57_">
		<g>
			<path class="st0" d="M16.4,135.6l-2.3-0.9l-2.2-1.5l-2.1-2.1l-2-2.6L6,125.4l-1.5-3.5L3.2,118l-1-4.2l-0.8-4.5l-0.5-4.6L0.8,100
				l0.2-4.7l0.5-4.6l0.8-4.5l1-4.2l1.3-3.9L6,74.6l1.8-3.1l2-2.6l2.1-2.1l2.2-1.5l2.3-0.9l2.3-0.3l2.3,0.3l2.3,0.9l2.2,1.5l2.1,2.1
				l2,2.6l1.8,3.1l1.5,3.5l1.3,3.9l1,4.2l0.8,4.5l0.5,4.6l0.1,4.7l-0.1,4.7l-0.5,4.6l-0.8,4.5l-1,4.2l-1.3,3.9l-1.5,3.5l-1.8,3.1
				l-2,2.6l-2.1,2.1l-2.2,1.5l-2.3,0.9l-2.3,0.3L16.4,135.6z M30.9,100l-0.1-3.2l-0.3-3.1l-0.5-3l-0.7-2.8l-0.9-2.6l-1-2.4l-1.2-2.1
				L24.8,79l-1.4-1.4l-1.5-1l-1.6-0.6l-1.1-0.1l-0.5-0.1l-0.1,0l-1.5,0.2l-1.6,0.6l-1.5,1L12.7,79l-1.3,1.8l-1.2,2.1l-1,2.4
				l-0.9,2.6l-0.7,2.8l-0.5,3l-0.3,3.1L6.6,100l0.1,3.2l0.3,3.1l0.5,3l0.7,2.9l0.9,2.6l1,2.4l1.2,2.1l1.3,1.8l1.4,1.4l1.5,1l1.6,0.6
				l1.5,0.2l0.1,0l0.5-0.1l1.1-0.1l1.6-0.6l1.5-1l1.4-1.4l1.3-1.8l1.2-2.1l1-2.4l0.9-2.6l0.7-2.9l0.5-3l0.3-3.1L30.9,100z"/>
			<path class="st0" d="M26.5,100l0-1.8l-0.2-1.7L26,94.8l-0.4-1.6l-0.5-1.5l-0.6-1.3l-0.7-1.2l-0.7-1l-0.8-0.8l-0.8-0.6l-0.9-0.4
				l-0.6-0.1l-0.2,0l-0.1,0l-0.7,0.1L18,86.9l-0.8,0.6l-0.8,0.8l-0.7,1l-0.7,1.2l-0.6,1.3l-0.5,1.5l-0.4,1.6l-0.3,1.7L13,98.2
				l-0.1,1.8l0.1,1.8l0.2,1.7l0.3,1.7l0.4,1.6l0.5,1.5l0.6,1.3l0.7,1.2l0.7,1l0.8,0.8l0.8,0.6l0.9,0.3l0.7,0.1l0.1,0l0.2,0l0.6-0.1
				l0.9-0.3l0.8-0.6l0.8-0.8l0.7-1l0.7-1.2l0.6-1.3l0.5-1.5l0.4-1.6l0.3-1.7l0.2-1.7L26.5,100z M16.6,76.6l1.6-0.6l1.1-0.1l1.1,0.1
				l1.6,0.6l1.5,1l1.4,1.4l1.3,1.8l1.2,2.1l1,2.4l0.9,2.6l0.7,2.8l0.5,3l0.3,3.1l0.1,3.2l-0.1,3.2l-0.3,3.1l-0.5,3l-0.7,2.9
				l-0.9,2.6l-1,2.4l-1.2,2.1l-1.3,1.8l-1.4,1.4l-1.5,1l-1.6,0.6l-1.1,0.1l-1.1-0.1l-1.6-0.6l-1.5-1l-1.4-1.4l-1.3-1.8l-1.2-2.1
				l-1-2.4l-0.9-2.6l-0.7-2.9l-0.5-3l-0.3-3.1L7.6,100l0.1-3.2L8,93.7l0.5-3l0.7-2.8l0.9-2.6l1-2.4l1.2-2.1l1.3-1.8l1.4-1.4
				L16.6,76.6z"/>
			<path class="st0" d="M26.4,98.2l-0.2-1.7L26,94.8l-0.4-1.6l-0.5-1.5l-0.6-1.3l-0.7-1.2l-0.7-1l-0.8-0.8l-0.8-0.6l-0.9-0.4
				l-0.6-0.1l-0.6,0.1l-0.9,0.4l-0.8,0.6l-0.8,0.8l-0.7,1l-0.7,1.2l-0.6,1.3l-0.5,1.5l-0.4,1.6l-0.3,1.7l-0.2,1.7l0,1.8l0,1.8
				l0.2,1.7l0.3,1.7l0.4,1.6l0.5,1.5l0.6,1.3l0.7,1.2l0.7,1l0.8,0.8l0.8,0.6l0.9,0.3l0.6,0.1l0.6-0.1l0.9-0.3l0.8-0.6l0.8-0.8l0.7-1
				l0.7-1.2l0.6-1.3l0.5-1.5l0.4-1.6l0.3-1.7l0.2-1.7l0-1.8L26.4,98.2z M22.2,100.5l0,0.5l-0.1,0.5l-0.1,0.5l-0.1,0.4l-0.2,0.4
				l-0.2,0.4l-0.2,0.3l-0.2,0.2l-0.2,0.2h0h0l-0.2,0.1l-0.3,0l-0.3,0l-0.2-0.1l-0.3-0.2l-0.2-0.2l-0.2-0.3l-0.2-0.4l-0.2-0.4
				l-0.1-0.4l-0.1-0.5l-0.1-0.5l0-0.5l0-0.5l0-0.5l0-0.5l0.1-0.5l0.1-0.5l0.1-0.4l0.2-0.4l0.2-0.3l0.2-0.3l0.2-0.2l0.3-0.2l0.2-0.1
				l0.3,0l0.3,0l0.2,0.1l0,0l0.2,0.2l0.2,0.2l0.2,0.3l0.2,0.3l0.2,0.4l0.1,0.4l0.1,0.5l0.1,0.5l0,0.5l0,0.5L22.2,100.5z"/>
		</g>
		<g>
			<polyline class="st1" points="30.9,100 30.8,96.8 30.5,93.7 29.9,90.7 29.2,87.9 28.4,85.2 27.3,82.8 26.1,80.7 24.8,79 
				23.4,77.6 21.9,76.6 20.3,75.9 19.2,75.8 18.7,75.7 18.6,75.8 17.1,75.9 15.6,76.6 14.1,77.6 12.7,79 11.3,80.7 10.1,82.8 
				9.1,85.2 8.2,87.9 7.5,90.7 7,93.7 6.7,96.8 6.6,100 6.7,103.2 7,106.3 7.5,109.3 8.2,112.1 9.1,114.8 10.1,117.2 11.3,119.3 
				12.7,121 14.1,122.4 15.6,123.5 17.1,124.1 18.6,124.3 18.7,124.3 19.2,124.2 20.3,124.1 21.9,123.5 23.4,122.4 24.8,121 
				26.1,119.3 27.3,117.2 28.4,114.8 29.2,112.1 29.9,109.3 30.5,106.3 30.8,103.2 30.9,100 			"/>
			<polyline class="st1" points="26.5,100 26.4,98.2 26.2,96.5 26,94.8 25.6,93.2 25.1,91.8 24.5,90.4 23.8,89.3 23.1,88.3 
				22.3,87.5 21.5,86.9 20.6,86.6 19.9,86.5 19.7,86.5 19.6,86.5 18.8,86.6 18,86.9 17.1,87.5 16.3,88.3 15.6,89.3 14.9,90.4 
				14.4,91.8 13.9,93.2 13.5,94.8 13.2,96.5 13,98.2 12.9,100 13,101.8 13.2,103.5 13.5,105.2 13.9,106.8 14.4,108.2 14.9,109.6 
				15.6,110.7 16.3,111.7 17.1,112.5 18,113.1 18.8,113.4 19.6,113.5 19.7,113.5 19.9,113.5 20.6,113.4 21.5,113.1 22.3,112.5 
				23.1,111.7 23.8,110.7 24.5,109.6 25.1,108.2 25.6,106.8 26,105.2 26.2,103.5 26.4,101.8 26.5,100 			"/>
			<polyline class="st1" points="19.2,124.2 18.1,124.1 16.6,123.5 15.1,122.4 13.6,121 12.3,119.3 11.1,117.2 10.1,114.8 
				9.2,112.1 8.5,109.3 8,106.3 7.7,103.2 7.6,100 7.7,96.8 8,93.7 8.5,90.7 9.2,87.9 10.1,85.2 11.1,82.8 12.3,80.7 13.6,79 
				15.1,77.6 16.6,76.6 18.1,75.9 19.2,75.8 			"/>
			<polyline class="st1" points="19.9,113.5 19.3,113.4 18.4,113.1 17.6,112.5 16.8,111.7 16.1,110.7 15.4,109.6 14.8,108.2 
				14.4,106.8 13.9,105.2 13.7,103.5 13.5,101.8 13.4,100 13.5,98.2 13.7,96.5 13.9,94.8 14.4,93.2 14.8,91.8 15.4,90.4 16.1,89.3 
				16.8,88.3 17.6,87.5 18.4,86.9 19.3,86.6 19.9,86.5 			"/>
			<polyline class="st1" points="20.7,103.9 20.7,103.9 21,103.7 21.2,103.5 21.4,103.2 21.6,102.8 21.8,102.4 21.9,102 22,101.5 
				22.1,101 22.2,100.5 22.2,100 			"/>
			<polyline class="st1" points="22.2,100 22.2,99.5 22.1,99 22,98.5 21.9,98 21.8,97.6 21.6,97.2 21.4,96.8 21.2,96.5 21,96.3 
				20.7,96.1 20.7,96.1 20.5,96 20.2,96 19.9,96 19.7,96.1 19.4,96.3 19.2,96.5 19,96.8 18.8,97.2 18.6,97.6 18.5,98 18.4,98.5 
				18.3,99 18.2,99.5 18.2,100 18.2,100.5 18.3,101 18.4,101.5 18.5,102 18.6,102.4 18.8,102.8 19,103.2 19.2,103.5 19.4,103.7 
				19.7,103.9 19.9,104 20.2,104 20.5,104 20.7,103.9 			"/>
			<polyline class="st1" points="20.7,103.9 20.7,103.9 20.4,103.7 20.2,103.5 20,103.2 19.8,102.8 19.6,102.4 19.4,102 19.3,101.5 
				19.3,101 19.2,100.5 19.2,100 19.2,99.5 19.3,99 19.3,98.5 19.4,98 19.6,97.6 19.8,97.2 20,96.8 20.2,96.5 20.4,96.3 20.7,96.1 
				20.7,96.1 			"/>
			<polyline class="st2" points="18.7,135.9 21.1,135.6 23.4,134.7 25.6,133.2 27.7,131.1 29.7,128.5 31.4,125.4 33,121.9 34.3,118 
				35.3,113.8 36.1,109.3 36.6,104.7 36.7,100 36.6,95.3 36.1,90.7 35.3,86.3 34.3,82 33,78.1 31.4,74.6 29.7,71.5 27.7,68.9 
				25.6,66.8 23.4,65.3 21.1,64.4 18.7,64.1 16.4,64.4 14.1,65.3 11.9,66.8 9.7,68.9 7.8,71.5 6,74.6 4.5,78.1 3.2,82 2.1,86.3 
				1.4,90.7 0.9,95.3 0.8,100 0.9,104.7 1.4,109.3 2.1,113.8 3.2,118 4.5,121.9 6,125.4 7.8,128.5 9.7,131.1 11.9,133.2 14.1,134.7 
				16.4,135.6 18.7,135.9 70.3,135.9 72,135.9 73.6,135.9 76,135.6 78.3,134.7 80.5,133.2 82.6,131.1 84.6,128.5 86.3,125.4 
				87.9,121.9 89.2,118 90.2,113.8 91,109.3 91.4,104.7 91.6,100 91.4,95.3 91,90.7 90.2,86.3 89.2,82 87.9,78.1 86.3,74.6 
				84.6,71.5 82.6,68.9 80.5,66.8 78.3,65.3 76,64.4 73.6,64.1 72,64.1 70.3,64.1 18.7,64.1 			"/>
		</g>
	</g>
</g>
</svg>
