<?xml version="1.0" encoding="utf-8"?>
<!-- Generator: Adobe Illustrator 21.0.0, SVG Export Plug-In . SVG Version: 6.00 Build 0)  -->
<svg version="1.1" id="Layer_1" xmlns="http://www.w3.org/2000/svg" xmlns:xlink="http://www.w3.org/1999/xlink" x="0px" y="0px"
	 viewBox="0 0 47.1 200" style="enable-background:new 0 0 47.1 200;" xml:space="preserve">
<style type="text/css">
	.st0{fill:#ECF0F1;}
	.st1{fill:none;stroke:#000000;stroke-width:1.5;stroke-linecap:round;stroke-linejoin:round;}
	.st2{fill:none;stroke:#000000;stroke-width:0.5;stroke-linecap:round;stroke-linejoin:round;}
	.st3{fill:none;stroke:#000000;stroke-width:0.75;stroke-linecap:round;stroke-linejoin:round;}
</style>
<g id="XMLID_49_">
	<g>
		<g id="XMLID_1_">
			<g>
				<polygon class="st0" points="41.8,57 41.8,67.6 37.5,67.6 35.6,67.6 35.6,65.8 11.5,65.8 6.9,65.8 6.9,67.6 6.8,67.6 3.6,67.6 
					0.8,67.6 0.8,57 				"/>
				<polygon class="st0" points="35.6,69.6 37.5,69.6 41.8,69.6 41.8,72.8 37.5,72.8 35.6,72.8 				"/>
				<polygon class="st0" points="35.6,74.8 37.5,74.8 41.8,74.8 41.8,78.1 37.5,78.1 35.6,78.1 				"/>
				<polygon class="st0" points="35.6,80.1 37.5,80.1 41.8,80.1 41.8,83.3 37.5,83.3 35.6,83.3 				"/>
				<polygon class="st0" points="35.6,85.3 37.5,85.3 41.8,85.3 41.8,88.5 37.5,88.5 35.6,88.5 				"/>
				<polygon class="st0" points="35.6,90.5 37.5,90.5 41.8,90.5 41.8,93.8 37.5,93.8 35.6,93.8 				"/>
				<polygon class="st0" points="35.6,95.8 37.5,95.8 41.8,95.8 41.8,99 37.5,99 35.6,99 				"/>
				<polygon class="st0" points="35.6,101 37.5,101 41.8,101 41.8,104.2 37.5,104.2 35.6,104.2 				"/>
				<polygon class="st0" points="35.6,106.2 37.5,106.2 41.8,106.2 41.8,109.5 37.5,109.5 35.6,109.5 				"/>
				<polygon class="st0" points="35.6,111.5 37.5,111.5 41.8,111.5 41.8,114.7 37.5,114.7 35.6,114.7 				"/>
				<polygon class="st0" points="35.6,116.7 37.5,116.7 41.8,116.7 41.8,119.9 37.5,119.9 35.6,119.9 				"/>
				<polygon class="st0" points="35.6,121.9 37.5,121.9 41.8,121.9 41.8,125.2 37.5,125.2 35.6,125.2 				"/>
				<polygon class="st0" points="35.6,127.2 37.5,127.2 41.8,127.2 41.8,130.4 37.5,130.4 35.6,130.4 				"/>
				<polygon class="st0" points="0.8,132.4 3.6,132.4 6.9,132.4 6.9,134.2 11.5,134.2 35.6,134.2 35.6,132.4 37.5,132.4 41.8,132.4 
					41.8,143 0.8,143 				"/>
				<polygon class="st0" points="0.8,69.6 3.6,69.6 6.9,69.6 6.9,72.8 3.6,72.8 0.8,72.8 				"/>
				<polygon class="st0" points="0.8,74.8 3.6,74.8 6.9,74.8 6.9,78.1 3.6,78.1 0.8,78.1 				"/>
				<polygon class="st0" points="0.8,80.1 3.6,80.1 6.9,80.1 6.9,83.3 3.6,83.3 0.8,83.3 				"/>
				<polygon class="st0" points="0.8,85.3 3.6,85.3 6.9,85.3 6.9,88.5 3.6,88.5 0.8,88.5 				"/>
				<polygon class="st0" points="0.8,90.5 3.6,90.5 6.9,90.5 6.9,93.8 3.6,93.8 0.8,93.8 				"/>
				<polygon class="st0" points="0.8,95.8 3.6,95.8 6.9,95.8 6.9,99 3.6,99 0.8,99 				"/>
				<polygon class="st0" points="0.8,101 3.6,101 6.9,101 6.9,104.2 3.6,104.2 0.8,104.2 				"/>
				<polygon class="st0" points="0.8,106.2 3.6,106.2 6.9,106.2 6.9,109.5 3.6,109.5 0.8,109.5 				"/>
				<polygon class="st0" points="0.8,111.5 3.6,111.5 6.9,111.5 6.9,114.7 3.6,114.7 0.8,114.7 				"/>
				<polygon class="st0" points="0.8,116.7 3.6,116.7 6.9,116.7 6.9,119.9 3.6,119.9 0.8,119.9 				"/>
				<polygon class="st0" points="0.8,121.9 3.6,121.9 6.9,121.9 6.9,125.2 3.6,125.2 0.8,125.2 				"/>
				<polygon class="st0" points="0.8,127.2 3.6,127.2 6.9,127.2 6.9,130.4 3.6,130.4 0.8,130.4 				"/>
			</g>
			<g>
				<line class="st1" x1="46.3" y1="57" x2="46.3" y2="143"/>
				<polyline class="st2" points="11.5,134.2 11.5,131.4 11.5,126.2 11.5,120.9 11.5,115.7 11.5,110.5 11.5,105.2 11.5,100 
					11.5,94.8 11.5,89.5 11.5,84.3 11.5,79.1 11.5,73.8 11.5,68.6 11.5,65.8 				"/>
				<polyline class="st2" points="6.9,134.2 6.9,132.4 6.9,131.4 6.9,130.4 6.9,127.2 6.9,126.2 6.9,125.2 6.9,121.9 6.9,120.9 
					6.9,119.9 6.9,116.7 6.9,115.7 6.9,114.7 6.9,111.5 6.9,110.5 6.9,109.5 6.9,106.2 6.9,105.2 6.9,104.2 6.9,101 6.9,100 6.9,99 
					6.9,95.8 6.9,94.8 6.9,93.8 6.9,90.5 6.9,89.5 6.9,88.5 6.9,85.3 6.9,84.3 6.9,83.3 6.9,80.1 6.9,79.1 6.9,78.1 6.9,74.8 
					6.9,73.8 6.9,72.8 6.9,69.6 6.9,68.6 6.9,67.6 6.9,65.8 				"/>
				<polyline class="st1" points="0.8,57 41.8,57 46.3,57 				"/>
				<polyline class="st2" points="6.9,65.8 11.5,65.8 35.6,65.8 35.6,67.6 				"/>
				<polyline class="st2" points="6.9,134.2 11.5,134.2 35.6,134.2 35.6,132.4 				"/>
				<line class="st1" x1="0.8" y1="143" x2="0.8" y2="132.4"/>
				<line class="st1" x1="0.8" y1="67.6" x2="0.8" y2="57"/>
				<polyline class="st1" points="46.3,143 41.8,143 0.8,143 				"/>
				<polyline class="st2" points="41.8,114.7 37.5,114.7 35.6,114.7 34.4,114.7 				"/>
				<polyline class="st2" points="41.8,109.5 37.5,109.5 35.6,109.5 34.4,109.5 				"/>
				<polyline class="st2" points="41.8,104.2 37.5,104.2 35.6,104.2 34.4,104.2 				"/>
				<polyline class="st2" points="41.8,116.7 37.5,116.7 35.6,116.7 34.4,116.7 				"/>
				<polyline class="st2" points="41.8,111.5 37.5,111.5 35.6,111.5 34.4,111.5 				"/>
				<polyline class="st2" points="41.8,106.2 37.5,106.2 35.6,106.2 34.4,106.2 				"/>
				<polyline class="st2" points="41.8,101 37.5,101 35.6,101 34.4,101 				"/>
				<polyline class="st2" points="41.8,132.4 37.5,132.4 35.6,132.4 34.4,132.4 				"/>
				<polyline class="st2" points="6.9,130.4 3.6,130.4 0.8,130.4 0.5,130.4 				"/>
				<polyline class="st2" points="6.9,125.2 3.6,125.2 0.8,125.2 0.5,125.2 				"/>
				<polyline class="st2" points="6.9,119.9 3.6,119.9 0.8,119.9 0.5,119.9 				"/>
				<polyline class="st2" points="6.9,114.7 3.6,114.7 0.8,114.7 0.5,114.7 				"/>
				<polyline class="st2" points="6.9,109.5 3.6,109.5 0.8,109.5 0.5,109.5 				"/>
				<polyline class="st2" points="6.9,104.2 3.6,104.2 0.8,104.2 0.5,104.2 				"/>
				<polyline class="st2" points="6.9,132.4 3.6,132.4 0.8,132.4 0.5,132.4 				"/>
				<polyline class="st2" points="6.9,127.2 3.6,127.2 0.8,127.2 0.5,127.2 				"/>
				<polyline class="st2" points="6.9,121.9 3.6,121.9 0.8,121.9 0.5,121.9 				"/>
				<polyline class="st2" points="6.9,116.7 3.6,116.7 0.8,116.7 0.5,116.7 				"/>
				<polyline class="st2" points="6.9,111.5 3.6,111.5 0.8,111.5 0.5,111.5 				"/>
				<polyline class="st2" points="6.9,106.2 3.6,106.2 0.8,106.2 0.5,106.2 				"/>
				<polyline class="st2" points="6.9,101 3.6,101 0.8,101 0.5,101 				"/>
				<line class="st2" x1="35.6" y1="85.3" x2="35.6" y2="88.5"/>
				<line class="st1" x1="0.8" y1="88.5" x2="0.8" y2="85.3"/>
				<line class="st2" x1="35.6" y1="69.6" x2="35.6" y2="72.8"/>
				<line class="st1" x1="0.8" y1="72.8" x2="0.8" y2="69.6"/>
				<line class="st2" x1="35.6" y1="121.9" x2="35.6" y2="125.2"/>
				<line class="st2" x1="35.6" y1="106.2" x2="35.6" y2="109.5"/>
				<line class="st1" x1="0.8" y1="125.2" x2="0.8" y2="121.9"/>
				<line class="st1" x1="0.8" y1="109.5" x2="0.8" y2="106.2"/>
				<line class="st2" x1="35.6" y1="101" x2="35.6" y2="104.2"/>
				<line class="st1" x1="0.8" y1="104.2" x2="0.8" y2="101"/>
				<line class="st2" x1="35.6" y1="127.2" x2="35.6" y2="130.4"/>
				<line class="st2" x1="35.6" y1="116.7" x2="35.6" y2="119.9"/>
				<line class="st2" x1="35.6" y1="111.5" x2="35.6" y2="114.7"/>
				<line class="st2" x1="35.6" y1="95.8" x2="35.6" y2="99"/>
				<line class="st2" x1="35.6" y1="90.5" x2="35.6" y2="93.8"/>
				<line class="st2" x1="35.6" y1="80.1" x2="35.6" y2="83.3"/>
				<line class="st1" x1="0.8" y1="130.4" x2="0.8" y2="127.2"/>
				<line class="st1" x1="0.8" y1="119.9" x2="0.8" y2="116.7"/>
				<line class="st1" x1="0.8" y1="114.7" x2="0.8" y2="111.5"/>
				<line class="st1" x1="0.8" y1="99" x2="0.8" y2="95.8"/>
				<line class="st1" x1="0.8" y1="93.8" x2="0.8" y2="90.5"/>
				<line class="st1" x1="0.8" y1="83.3" x2="0.8" y2="80.1"/>
				<line class="st2" x1="35.6" y1="74.8" x2="35.6" y2="78.1"/>
				<line class="st1" x1="0.8" y1="78.1" x2="0.8" y2="74.8"/>
				<polyline class="st2" points="41.8,130.4 37.5,130.4 35.6,130.4 34.4,130.4 				"/>
				<polyline class="st2" points="34.4,95.8 35.6,95.8 37.5,95.8 41.8,95.8 				"/>
				<polyline class="st2" points="34.4,90.5 35.6,90.5 37.5,90.5 41.8,90.5 				"/>
				<polyline class="st2" points="34.4,85.3 35.6,85.3 37.5,85.3 41.8,85.3 				"/>
				<polyline class="st2" points="34.4,80.1 35.6,80.1 37.5,80.1 41.8,80.1 				"/>
				<polyline class="st2" points="34.4,74.8 35.6,74.8 37.5,74.8 41.8,74.8 				"/>
				<polyline class="st2" points="34.4,69.6 35.6,69.6 37.5,69.6 41.8,69.6 				"/>
				<polyline class="st2" points="0.5,95.8 0.8,95.8 3.6,95.8 6.9,95.8 				"/>
				<polyline class="st2" points="0.5,90.5 0.8,90.5 3.6,90.5 6.9,90.5 				"/>
				<polyline class="st2" points="0.5,85.3 0.8,85.3 3.6,85.3 6.9,85.3 				"/>
				<polyline class="st2" points="0.5,80.1 0.8,80.1 3.6,80.1 6.9,80.1 				"/>
				<polyline class="st2" points="0.5,74.8 0.8,74.8 3.6,74.8 6.9,74.8 				"/>
				<polyline class="st2" points="0.5,69.6 0.8,69.6 3.6,69.6 6.9,69.6 				"/>
				<polyline class="st2" points="41.8,127.2 37.5,127.2 35.6,127.2 34.4,127.2 				"/>
				<polyline class="st2" points="41.8,125.2 37.5,125.2 35.6,125.2 34.4,125.2 				"/>
				<polyline class="st2" points="41.8,121.9 37.5,121.9 35.6,121.9 34.4,121.9 				"/>
				<polyline class="st2" points="41.8,119.9 37.5,119.9 35.6,119.9 34.4,119.9 				"/>
				<line class="st2" x1="37.5" y1="119.9" x2="37.5" y2="121.9"/>
				<polyline class="st2" points="34.4,119.9 34.4,120.9 34.4,121.9 				"/>
				<line class="st2" x1="37.5" y1="109.5" x2="37.5" y2="111.5"/>
				<polyline class="st2" points="34.4,109.5 34.4,110.5 34.4,111.5 				"/>
				<line class="st2" x1="37.5" y1="72.8" x2="37.5" y2="74.8"/>
				<polyline class="st2" points="34.4,72.8 34.4,73.8 34.4,74.8 				"/>
				<polyline class="st2" points="3.6,121.9 3.6,120.9 3.6,119.9 				"/>
				<line class="st2" x1="0.5" y1="121.9" x2="0.5" y2="119.9"/>
				<polyline class="st2" points="3.6,111.5 3.6,110.5 3.6,109.5 				"/>
				<line class="st2" x1="0.5" y1="111.5" x2="0.5" y2="109.5"/>
				<polyline class="st2" points="3.6,74.8 3.6,73.8 3.6,72.8 				"/>
				<line class="st2" x1="0.5" y1="74.8" x2="0.5" y2="72.8"/>
				<line class="st2" x1="37.5" y1="93.8" x2="37.5" y2="95.8"/>
				<polyline class="st2" points="34.4,93.8 34.4,94.8 34.4,95.8 				"/>
				<line class="st2" x1="37.5" y1="88.5" x2="37.5" y2="90.5"/>
				<polyline class="st2" points="34.4,88.5 34.4,89.5 34.4,90.5 				"/>
				<line class="st2" x1="37.5" y1="78.1" x2="37.5" y2="80.1"/>
				<polyline class="st2" points="34.4,78.1 34.4,79.1 34.4,80.1 				"/>
				<line class="st2" x1="37.5" y1="67.6" x2="37.5" y2="69.6"/>
				<polyline class="st2" points="34.4,67.6 34.4,68.6 34.4,69.6 				"/>
				<polyline class="st2" points="3.6,95.8 3.6,94.8 3.6,93.8 				"/>
				<line class="st2" x1="0.5" y1="95.8" x2="0.5" y2="93.8"/>
				<polyline class="st2" points="3.6,90.5 3.6,89.5 3.6,88.5 				"/>
				<line class="st2" x1="0.5" y1="90.5" x2="0.5" y2="88.5"/>
				<polyline class="st2" points="3.6,80.1 3.6,79.1 3.6,78.1 				"/>
				<line class="st2" x1="0.5" y1="80.1" x2="0.5" y2="78.1"/>
				<polyline class="st2" points="3.6,69.6 3.6,68.6 3.6,67.6 				"/>
				<line class="st2" x1="0.5" y1="69.6" x2="0.5" y2="67.6"/>
				<line class="st2" x1="37.5" y1="130.4" x2="37.5" y2="132.4"/>
				<polyline class="st2" points="34.4,130.4 34.4,131.4 34.4,132.4 				"/>
				<line class="st2" x1="37.5" y1="125.2" x2="37.5" y2="127.2"/>
				<polyline class="st2" points="34.4,125.2 34.4,126.2 34.4,127.2 				"/>
				<line class="st2" x1="37.5" y1="114.7" x2="37.5" y2="116.7"/>
				<polyline class="st2" points="34.4,114.7 34.4,115.7 34.4,116.7 				"/>
				<line class="st2" x1="37.5" y1="104.2" x2="37.5" y2="106.2"/>
				<polyline class="st2" points="34.4,104.2 34.4,105.2 34.4,106.2 				"/>
				<line class="st2" x1="37.5" y1="99" x2="37.5" y2="101"/>
				<polyline class="st2" points="34.4,99 34.4,100 34.4,101 				"/>
				<line class="st2" x1="37.5" y1="83.3" x2="37.5" y2="85.3"/>
				<polyline class="st2" points="34.4,83.3 34.4,84.3 34.4,85.3 				"/>
				<polyline class="st2" points="3.6,132.4 3.6,131.4 3.6,130.4 				"/>
				<line class="st2" x1="0.5" y1="132.4" x2="0.5" y2="130.4"/>
				<polyline class="st2" points="3.6,127.2 3.6,126.2 3.6,125.2 				"/>
				<line class="st2" x1="0.5" y1="127.2" x2="0.5" y2="125.2"/>
				<polyline class="st2" points="3.6,116.7 3.6,115.7 3.6,114.7 				"/>
				<line class="st2" x1="0.5" y1="116.7" x2="0.5" y2="114.7"/>
				<polyline class="st2" points="3.6,106.2 3.6,105.2 3.6,104.2 				"/>
				<line class="st2" x1="0.5" y1="106.2" x2="0.5" y2="104.2"/>
				<polyline class="st2" points="3.6,101 3.6,100 3.6,99 				"/>
				<line class="st2" x1="0.5" y1="101" x2="0.5" y2="99"/>
				<polyline class="st2" points="3.6,85.3 3.6,84.3 3.6,83.3 				"/>
				<line class="st2" x1="0.5" y1="85.3" x2="0.5" y2="83.3"/>
				<polyline class="st1" points="41.8,57 41.8,67.6 41.8,69.6 41.8,72.8 41.8,74.8 41.8,78.1 41.8,80.1 41.8,83.3 41.8,85.3 
					41.8,88.5 41.8,90.5 41.8,93.8 41.8,95.8 41.8,99 41.8,101 41.8,104.2 41.8,106.2 41.8,109.5 41.8,111.5 41.8,114.7 41.8,116.7 
					41.8,119.9 41.8,121.9 41.8,125.2 41.8,127.2 41.8,130.4 41.8,132.4 41.8,143 				"/>
				<polyline class="st2" points="0.5,67.6 0.8,67.6 3.6,67.6 6.8,67.6 				"/>
				<polyline class="st2" points="34.4,88.5 35.6,88.5 37.5,88.5 41.8,88.5 				"/>
				<polyline class="st2" points="0.5,88.5 0.8,88.5 3.6,88.5 6.9,88.5 				"/>
				<polyline class="st2" points="34.4,72.8 35.6,72.8 37.5,72.8 41.8,72.8 				"/>
				<polyline class="st2" points="0.5,72.8 0.8,72.8 3.6,72.8 6.9,72.8 				"/>
				<polyline class="st2" points="34.4,99 35.6,99 37.5,99 41.8,99 				"/>
				<polyline class="st2" points="34.4,93.8 35.6,93.8 37.5,93.8 41.8,93.8 				"/>
				<polyline class="st2" points="34.4,83.3 35.6,83.3 37.5,83.3 41.8,83.3 				"/>
				<polyline class="st2" points="0.5,99 0.8,99 3.6,99 6.9,99 				"/>
				<polyline class="st2" points="0.5,93.8 0.8,93.8 3.6,93.8 6.9,93.8 				"/>
				<polyline class="st2" points="0.5,83.3 0.8,83.3 3.6,83.3 6.9,83.3 				"/>
				<polyline class="st2" points="34.4,78.1 35.6,78.1 37.5,78.1 41.8,78.1 				"/>
				<polyline class="st2" points="0.5,78.1 0.8,78.1 3.6,78.1 6.9,78.1 				"/>
				<polyline class="st2" points="34.4,67.6 35.6,67.6 37.5,67.6 41.8,67.6 				"/>
				<polyline class="st3" points="2,68.6 3.6,68.6 6.9,68.6 11.5,68.6 34.4,68.6 35.6,68.6 				"/>
				<polyline class="st3" points="2,73.8 3.6,73.8 6.9,73.8 11.5,73.8 34.4,73.8 35.6,73.8 				"/>
				<polyline class="st3" points="2,79.1 3.6,79.1 6.9,79.1 11.5,79.1 34.4,79.1 35.6,79.1 				"/>
				<polyline class="st3" points="2,84.3 3.6,84.3 6.9,84.3 11.5,84.3 34.4,84.3 35.6,84.3 				"/>
				<polyline class="st3" points="2,89.5 3.6,89.5 6.9,89.5 11.5,89.5 34.4,89.5 35.6,89.5 				"/>
				<polyline class="st3" points="2,94.8 3.6,94.8 6.9,94.8 11.5,94.8 34.4,94.8 35.6,94.8 				"/>
				<polyline class="st3" points="2,100 3.6,100 6.9,100 11.5,100 34.4,100 35.6,100 				"/>
				<polyline class="st3" points="2,105.2 3.6,105.2 6.9,105.2 11.5,105.2 34.4,105.2 35.6,105.2 				"/>
				<polyline class="st3" points="2,110.5 3.6,110.5 6.9,110.5 11.5,110.5 34.4,110.5 35.6,110.5 				"/>
				<polyline class="st3" points="2,115.7 3.6,115.7 6.9,115.7 11.5,115.7 34.4,115.7 35.6,115.7 				"/>
				<polyline class="st3" points="2,120.9 3.6,120.9 6.9,120.9 11.5,120.9 34.4,120.9 35.6,120.9 				"/>
				<polyline class="st3" points="2,126.2 3.6,126.2 6.9,126.2 11.5,126.2 34.4,126.2 35.6,126.2 				"/>
				<polyline class="st3" points="2,131.4 3.6,131.4 6.9,131.4 11.5,131.4 34.4,131.4 35.6,131.4 				"/>
			</g>
		</g>
	</g>
</g>
</svg>
