<?xml version="1.0" encoding="utf-8"?>
<!-- Generator: Adobe Illustrator 21.0.0, SVG Export Plug-In . SVG Version: 6.00 Build 0)  -->
<svg version="1.1" id="Layer_1" xmlns="http://www.w3.org/2000/svg" xmlns:xlink="http://www.w3.org/1999/xlink" x="0px" y="0px"
	 viewBox="0 0 45.5 200" style="enable-background:new 0 0 45.5 200;" xml:space="preserve">
<style type="text/css">
	.st0{fill:#ECF0F1;}
	.st1{fill:none;stroke:#000000;stroke-width:0.5;stroke-linecap:round;stroke-linejoin:round;}
	.st2{fill:none;stroke:#000000;stroke-width:1.5;stroke-linecap:round;stroke-linejoin:round;}
	.st3{fill:none;stroke:#000000;stroke-width:0.75;stroke-linecap:round;stroke-linejoin:round;}
</style>
<g>
	<g>
		<g id="XMLID_50_">
			<g>
				<path class="st0" d="M34.7,66.1h0.6h1.9v-5h-1.9h-1.2v5H34.7z M34.7,133.9h-0.6v5h1.2h1.9v-5h-1.9H34.7z M29.8,66.1h0.6h1.9v-5
					h-1.9h-1.2v5H29.8z M29.8,133.9h-0.6v5h1.2h1.9v-5h-1.9H29.8z M10,66.1h0.6h1.9v-5h-1.9H9.4v5H10z M10,133.9H9.4v5h1.2h1.9v-5
					h-1.9H10z M5.1,66.1h0.6h1.9v-5H5.7H4.4v5H5.1z M5.1,133.9H4.4v5h1.2h1.9v-5H5.7H5.1z M24.8,133.9h-0.6v5h1.2h1.9v-5h-1.9H24.8z
					 M24.8,66.1h0.6h1.9v-5h-1.9h-1.2v5H24.8z M19.9,66.1h0.6h1.9v-5h-1.9h-1.2v5H19.9z M19.9,133.9h-0.6v5h1.2h1.9v-5h-1.9H19.9z
					 M14.9,66.1h0.6h1.9v-5h-1.9h-1.2v5H14.9z M14.9,131.6h4.9h4.9h4.9h4.9h1.9V68.4h-1.9h-4.9h-4.9h-4.9h-4.9H10H9.2H5.1H5v63.3
					h0.1h4.2H10H14.9z M14.9,133.9h-0.6v5h1.2h1.9v-5h-1.9H14.9z M40.5,57v86H0.8V57H40.5z"/>
			</g>
			<g>
				<rect x="35.3" y="61" class="st1" width="1.9" height="5"/>
				<polyline class="st1" points="35.3,61 34.1,61 34.1,66.1 34.7,66.1 35.3,66.1 				"/>
				<rect x="30.4" y="61" class="st1" width="1.9" height="5"/>
				<polyline class="st1" points="30.4,61 29.1,61 29.1,66.1 29.8,66.1 30.4,66.1 				"/>
				<rect x="25.4" y="61" class="st1" width="1.9" height="5"/>
				<polyline class="st1" points="25.4,61 24.2,61 24.2,66.1 24.8,66.1 25.4,66.1 				"/>
				<rect x="20.5" y="61" class="st1" width="1.9" height="5"/>
				<polyline class="st1" points="20.5,61 19.3,61 19.3,66.1 19.9,66.1 20.5,66.1 				"/>
				<rect x="15.6" y="61" class="st1" width="1.9" height="5"/>
				<polyline class="st1" points="15.6,61 14.3,61 14.3,66.1 14.9,66.1 15.6,66.1 				"/>
				<rect x="10.6" y="61" class="st1" width="1.9" height="5"/>
				<polyline class="st1" points="10.6,61 9.4,61 9.4,66.1 10,66.1 10.6,66.1 				"/>
				<rect x="5.7" y="61" class="st1" width="1.9" height="5"/>
				<polyline class="st1" points="5.7,61 4.4,61 4.4,66.1 5.1,66.1 5.7,66.1 				"/>
				<rect x="35.3" y="133.9" class="st1" width="1.9" height="5"/>
				<polyline class="st1" points="35.3,133.9 34.7,133.9 34.1,133.9 34.1,139 35.3,139 				"/>
				<rect x="30.4" y="133.9" class="st1" width="1.9" height="5"/>
				<polyline class="st1" points="30.4,133.9 29.8,133.9 29.1,133.9 29.1,139 30.4,139 				"/>
				<rect x="25.4" y="133.9" class="st1" width="1.9" height="5"/>
				<polyline class="st1" points="25.4,133.9 24.8,133.9 24.2,133.9 24.2,139 25.4,139 				"/>
				<rect x="20.5" y="133.9" class="st1" width="1.9" height="5"/>
				<polyline class="st1" points="20.5,133.9 19.9,133.9 19.3,133.9 19.3,139 20.5,139 				"/>
				<rect x="15.6" y="133.9" class="st1" width="1.9" height="5"/>
				<polyline class="st1" points="15.6,133.9 14.9,133.9 14.3,133.9 14.3,139 15.6,139 				"/>
				<rect x="10.6" y="133.9" class="st1" width="1.9" height="5"/>
				<polyline class="st1" points="10.6,133.9 10,133.9 9.4,133.9 9.4,139 10.6,139 				"/>
				<rect x="5.7" y="133.9" class="st1" width="1.9" height="5"/>
				<polyline class="st1" points="5.7,133.9 5.1,133.9 4.4,133.9 4.4,139 5.7,139 				"/>
				<polyline class="st1" points="5,68.4 5.1,68.4 9.2,68.4 10,68.4 14.9,68.4 19.9,68.4 24.8,68.4 29.8,68.4 34.7,68.4 36.6,68.4 
									"/>
				<line class="st2" x1="44.8" y1="57" x2="44.8" y2="143"/>
				<line class="st2" x1="40.5" y1="57" x2="40.5" y2="143"/>
				<line class="st2" x1="0.8" y1="143" x2="0.8" y2="57"/>
				<polyline class="st2" points="0.8,57 40.5,57 44.8,57 				"/>
				<polyline class="st2" points="44.8,143 40.5,143 0.8,143 				"/>
				<line class="st1" x1="9.2" y1="131.6" x2="9.2" y2="68.4"/>
				<line class="st1" x1="36.6" y1="68.4" x2="36.6" y2="131.6"/>
				<polyline class="st1" points="36.6,131.6 34.7,131.6 29.8,131.6 24.8,131.6 19.9,131.6 14.9,131.6 10,131.6 9.2,131.6 
					5.1,131.6 5,131.6 5,68.4 				"/>
				<polyline class="st3" points="34.7,63.6 34.7,66.1 34.7,68.4 34.7,131.6 34.7,133.9 34.7,136.4 				"/>
				<polyline class="st3" points="29.8,63.6 29.8,66.1 29.8,68.4 29.8,131.6 29.8,133.9 29.8,136.4 				"/>
				<polyline class="st3" points="24.8,63.6 24.8,66.1 24.8,68.4 24.8,131.6 24.8,133.9 24.8,136.4 				"/>
				<polyline class="st3" points="19.9,63.6 19.9,66.1 19.9,68.4 19.9,131.6 19.9,133.9 19.9,136.4 				"/>
				<polyline class="st3" points="14.9,63.6 14.9,66.1 14.9,68.4 14.9,131.6 14.9,133.9 14.9,136.4 				"/>
				<polyline class="st3" points="10,63.6 10,66.1 10,68.4 10,131.6 10,133.9 10,136.4 				"/>
				<polyline class="st3" points="5.1,63.6 5.1,66.1 5.1,68.4 5.1,131.6 5.1,133.9 5.1,136.4 				"/>
			</g>
		</g>
	</g>
</g>
</svg>
