<?xml version="1.0" encoding="utf-8"?>
<!-- Generator: Adobe Illustrator 21.0.0, SVG Export Plug-In . SVG Version: 6.00 Build 0)  -->
<svg version="1.1" id="Layer_1" xmlns="http://www.w3.org/2000/svg" xmlns:xlink="http://www.w3.org/1999/xlink" x="0px" y="0px"
	 viewBox="0 0 90.1 200" style="enable-background:new 0 0 90.1 200;" xml:space="preserve">
<style type="text/css">
	.st0{fill:#797979;}
	.st1{fill:none;stroke:#FFFFFF;stroke-width:1.5;stroke-linecap:round;stroke-linejoin:round;}
</style>
<g>
	<g id="XMLID_44_">
		<g>
			<polygon class="st0" points="84.8,99.6 84.9,99.2 84.9,98.8 84.9,98.4 84.9,98.1 85,97.7 85,97.3 85.1,96.9 85.2,96.5 85.3,96.2 
				85.3,95.8 85.4,95.5 85.5,95.2 85.6,94.8 85.8,94.5 85.9,94.2 86,93.9 86.1,93.6 86.3,93.4 86.4,93.1 86.6,92.9 86.7,92.6 
				86.9,92.4 87.1,92.2 87.3,92 87.4,91.8 87.6,91.7 87.8,91.5 88,91.4 88.2,91.3 88.4,91.2 88.5,91.1 88.7,91.1 88.9,91 89.1,91 
				89.3,91 89.3,68.5 88.7,68.5 88,68.6 87.3,68.8 86.6,69 85.9,69.2 85.3,69.6 84.6,69.9 83.9,70.4 83.3,70.9 82.7,71.4 82.1,72 
				81.5,72.7 80.9,73.4 80.6,73.8 80.6,74 80.6,79.7 80.6,85.4 80.6,91.1 80.6,94.9 80.6,96.8 80.6,100.4 80.6,102.5 80.6,108.2 
				75.7,108.2 74.1,108.2 74.3,109.5 74.5,110.8 74.8,112.1 75.1,113.3 75.4,114.6 75.7,115.8 76,116.9 76.4,118.1 76.8,119.2 
				77.3,120.3 77.7,121.3 78.2,122.3 78.7,123.2 79.2,124.1 79.7,125 80.3,125.8 80.9,126.6 81.5,127.3 82.1,128 82.7,128.6 
				83.3,129.1 83.9,129.6 84.6,130 85.3,130.4 85.9,130.8 86.6,131 87.3,131.2 88,131.4 88.7,131.5 89.3,131.5 89.3,109 89.1,109 
				88.9,109 88.7,108.9 88.5,108.9 88.4,108.8 88.2,108.7 88,108.6 87.8,108.5 87.6,108.3 87.4,108.2 87.3,108 87.1,107.8 
				86.9,107.6 86.7,107.4 86.6,107.1 86.4,106.9 86.3,106.6 86.1,106.4 86,106.1 85.9,105.8 85.8,105.5 85.6,105.2 85.5,104.8 
				85.4,104.5 85.3,104.2 85.3,103.8 85.2,103.4 85.1,103.1 85,102.7 85,102.3 84.9,101.9 84.9,101.6 84.9,101.2 84.9,100.8 
				84.8,100.4 84.8,100 			"/>
			<polygon class="st0" points="75.7,102.5 75.7,108.2 74.1,108.2 71.7,108.2 67.6,108.2 63.5,108.2 63.5,102.5 63.5,96.8 
				63.5,91.1 63.5,85.4 63.5,79.7 63.5,74 63.5,72.5 63.4,72.5 63.5,72.5 63.5,68.3 63.5,62.6 63.5,56.9 63.5,51.2 67.6,51.2 
				71.7,51.2 75.7,51.2 75.7,56.9 75.7,62.6 75.7,68.3 75.7,74 75.7,79.7 75.7,85.4 75.7,91.1 75.7,91.6 71.7,91.6 69.6,91.6 
				69.6,97.7 69.6,98.2 71.7,98.2 75.7,98.2 			"/>
			<polygon class="st0" points="16.5,109 16.5,131.5 15.8,131.5 15.1,131.4 14.4,131.2 13.8,131 13.1,130.8 12.4,130.4 11.8,130 
				11.1,129.6 10.5,129.1 9.8,128.6 9.2,128 8.6,127.3 8,126.6 7.5,125.8 6.9,125 6.4,124.1 5.9,123.2 5.4,122.3 4.9,121.3 
				4.4,120.3 4,119.2 3.6,118.1 3.2,116.9 2.9,115.8 2.5,114.6 2.2,113.3 1.9,112.1 1.7,110.8 1.5,109.5 1.3,108.2 1.1,106.8 
				1,105.5 0.9,104.1 0.8,102.7 0.8,101.4 0.8,100 0.8,98.6 0.8,97.3 0.9,95.9 1,94.5 1.1,93.2 1.3,91.8 1.5,90.5 1.7,89.2 
				1.9,87.9 2.2,86.7 2.5,85.5 2.9,84.3 3.2,83.1 3.6,81.9 4,80.8 4.4,79.7 4.9,78.7 5.4,77.7 5.9,76.8 6.4,75.9 6.9,75 7.5,74.2 
				8,73.4 8.6,72.7 9.2,72 9.8,71.4 10.5,70.9 11.1,70.4 11.8,69.9 12.4,69.6 13.1,69.2 13.8,69 14.4,68.8 15.1,68.6 15.8,68.5 
				16.5,68.5 16.5,91 16.3,91 10.3,91 10.2,91 10,91 9.8,91.1 9.6,91.1 9.4,91.2 9.2,91.3 9,91.4 8.8,91.5 8.6,91.7 8.4,91.8 
				8.3,92 8.1,92.2 7.9,92.4 7.8,92.6 7.6,92.9 7.4,93.1 7.3,93.4 7.2,93.6 7,93.9 6.9,94.2 6.8,94.5 6.7,94.8 6.6,95.2 6.4,95.5 
				6.4,95.8 6.3,96.2 6.2,96.5 6.1,96.9 6.1,97.3 6,97.7 5.9,98.1 5.9,98.4 5.9,98.8 5.9,99.2 5.9,99.6 5.9,100 5.9,100.4 
				5.9,100.8 5.9,101.2 5.9,101.6 5.9,101.9 6,102.3 6.1,102.7 6.1,103.1 6.2,103.4 6.3,103.8 6.4,104.2 6.4,104.5 6.6,104.8 
				6.7,105.2 6.8,105.5 6.9,105.8 7,106.1 7.2,106.4 7.3,106.6 7.4,106.9 7.6,107.1 7.8,107.4 7.9,107.6 8.1,107.8 8.3,108 
				8.4,108.2 8.6,108.3 8.8,108.5 9,108.6 9.2,108.7 9.4,108.8 9.6,108.9 9.8,108.9 10,109 10.2,109 10.3,109 16.3,109 			"/>
		</g>
		<g>
			<polyline class="st1" points="89.3,131.5 16.5,131.5 15.8,131.5 15.1,131.4 14.4,131.2 13.8,131 13.1,130.8 12.4,130.4 11.8,130 
				11.1,129.6 10.5,129.1 9.8,128.6 9.2,128 8.6,127.3 8,126.6 7.5,125.8 6.9,125 6.4,124.1 5.9,123.2 5.4,122.3 4.9,121.3 
				4.4,120.3 4,119.2 3.6,118.1 3.2,116.9 2.9,115.8 2.5,114.6 2.2,113.3 1.9,112.1 1.7,110.8 1.5,109.5 1.3,108.2 1.1,106.8 
				1,105.5 0.9,104.1 0.8,102.7 0.8,101.4 0.8,100 0.8,98.6 0.8,97.3 0.9,95.9 1,94.5 1.1,93.2 1.3,91.8 1.5,90.5 1.7,89.2 
				1.9,87.9 2.2,86.7 2.5,85.5 2.9,84.3 3.2,83.1 3.6,81.9 4,80.8 4.4,79.7 4.9,78.7 5.4,77.7 5.9,76.8 6.4,75.9 6.9,75 7.5,74.2 
				8,73.4 8.6,72.7 9.2,72 9.8,71.4 10.5,70.9 11.1,70.4 11.8,69.9 12.4,69.6 13.1,69.2 13.8,69 14.4,68.8 15.1,68.6 15.8,68.5 
				16.5,68.5 56.8,68.5 58.9,68.5 			"/>
			<line class="st1" x1="85.6" y1="39.9" x2="85.6" y2="68.5"/>
			<line class="st1" x1="58.9" y1="39.9" x2="58.9" y2="68.5"/>
			<line class="st1" x1="56.8" y1="39.9" x2="56.8" y2="68.5"/>
			<line class="st1" x1="89.3" y1="68.5" x2="89.3" y2="91"/>
			<line class="st1" x1="89.3" y1="109" x2="89.3" y2="131.5"/>
			<line class="st1" x1="16.5" y1="131.5" x2="16.5" y2="109"/>
			<line class="st1" x1="16.5" y1="91" x2="16.5" y2="68.5"/>
			<polyline class="st1" points="16.3,91 10.3,91 10.2,91 10,91 9.8,91.1 9.6,91.1 9.4,91.2 9.2,91.3 9,91.4 8.8,91.5 8.6,91.7 
				8.4,91.8 8.3,92 8.1,92.2 7.9,92.4 7.8,92.6 7.6,92.9 7.4,93.1 7.3,93.4 7.2,93.6 7,93.9 6.9,94.2 6.8,94.5 6.7,94.8 6.6,95.2 
				6.4,95.5 6.4,95.8 6.3,96.2 6.2,96.5 6.1,96.9 6.1,97.3 6,97.7 5.9,98.1 5.9,98.4 5.9,98.8 5.9,99.2 5.9,99.6 5.9,100 5.9,100.4 
				5.9,100.8 5.9,101.2 5.9,101.6 5.9,101.9 6,102.3 6.1,102.7 6.1,103.1 6.2,103.4 6.3,103.8 6.4,104.2 6.4,104.5 6.6,104.8 
				6.7,105.2 6.8,105.5 6.9,105.8 7,106.1 7.2,106.4 7.3,106.6 7.4,106.9 7.6,107.1 7.8,107.4 7.9,107.6 8.1,107.8 8.3,108 
				8.4,108.2 8.6,108.3 8.8,108.5 9,108.6 9.2,108.7 9.4,108.8 9.6,108.9 9.8,108.9 10,109 10.2,109 10.3,109 16.3,109 			"/>
			<polyline class="st1" points="75.7,51.2 75.7,56.9 75.7,62.6 75.7,68.3 75.7,74 75.7,79.7 75.7,85.4 75.7,91.1 75.7,91.6 
				80.5,94.9 			"/>
			<polyline class="st1" points="80.6,51.2 80.6,56.9 80.6,62.6 80.6,68.3 80.6,69.3 80.6,69.3 80.6,73.8 80.6,74 80.6,79.7 
				80.6,85.4 80.6,91.1 80.6,94.9 80.6,96.8 80.6,100.4 80.6,102.5 80.6,108.2 			"/>
			<polyline class="st1" points="63.5,51.2 63.5,56.9 63.5,62.6 63.5,68.3 63.5,72.5 			"/>
			<polyline class="st1" points="75.7,98.2 75.7,102.5 75.7,108.2 			"/>
			<polyline class="st1" points="80.6,108.2 75.7,108.2 74.1,108.2 71.7,108.2 67.6,108.2 63.5,108.2 			"/>
			<polyline class="st1" points="69.6,91.6 74.4,94.9 80.5,94.9 			"/>
			<line class="st1" x1="74.4" y1="94.9" x2="69.6" y2="98.2"/>
			<polyline class="st1" points="69.6,91.6 69.6,97.7 69.6,98.2 			"/>
			<polyline class="st1" points="63.5,51.2 67.6,51.2 71.7,51.2 75.7,51.2 80.6,51.2 			"/>
			<polyline class="st1" points="75.7,91.6 71.7,91.6 69.6,91.6 			"/>
			<polyline class="st1" points="80.5,94.9 76.6,97.7 75.7,98.2 71.7,98.2 69.6,98.2 			"/>
			<polyline class="st1" points="74.1,108.2 74.3,109.5 74.5,110.8 74.8,112.1 75.1,113.3 75.4,114.6 75.7,115.8 76,116.9 
				76.4,118.1 76.8,119.2 77.3,120.3 77.7,121.3 78.2,122.3 78.7,123.2 79.2,124.1 79.7,125 80.3,125.8 80.9,126.6 81.5,127.3 
				82.1,128 82.7,128.6 83.3,129.1 83.9,129.6 84.6,130 85.3,130.4 85.9,130.8 86.6,131 87.3,131.2 88,131.4 88.7,131.5 89.3,131.5 
							"/>
			<line class="st1" x1="63.4" y1="72.5" x2="63.5" y2="72.5"/>
			<polyline class="st1" points="60.4,72.1 61,72.2 61.3,72.3 62.1,72.4 62.3,72.4 63.2,72.5 63.4,72.5 			"/>
			<polyline class="st1" points="58.9,71.5 59.6,71.8 60.1,72 			"/>
			<polyline class="st1" points="58.9,68.5 58.3,68.5 58.2,68.5 57.7,68.6 57.7,68.6 57.3,68.8 57.3,68.8 57,68.9 57,68.9 57,68.9 
				57,69 56.9,69.2 56.9,69.2 56.8,69.5 56.8,69.6 56.9,69.8 56.9,69.8 57,70.1 57,70.1 57.3,70.4 57.3,70.4 57.3,70.4 57.6,70.7 
				57.7,70.8 57.9,70.9 58.3,71.2 58.8,71.4 58.9,71.5 58.9,71.5 59.5,71.7 59.6,71.8 60.1,72 60.4,72.1 60.5,72 61.3,72.3 
				62.3,72.4 63.4,72.5 63.4,72.5 63.5,72.5 63.5,74 63.5,79.7 63.5,85.4 63.5,91.1 63.5,96.8 63.5,102.5 63.5,108.2 			"/>
			<line class="st1" x1="80.6" y1="69.3" x2="81.1" y2="69.2"/>
			<polyline class="st1" points="80.6,73.8 80.9,73.4 81.5,72.7 82.1,72 82.7,71.4 83.3,70.9 83.9,70.4 84.6,69.9 85.3,69.6 
				85.9,69.2 86.6,69 87.3,68.8 88,68.6 88.7,68.5 89.3,68.5 			"/>
			<polyline class="st1" points="80.6,69.3 80.9,69.2 81.1,69.2 81.6,69.1 82.1,69 82.1,68.9 82.2,68.9 83.1,68.8 83.2,68.8 
				83.8,68.7 84.1,68.6 84.1,68.6 84.1,68.6 84.9,68.5 84.9,68.5 85.6,68.5 85.6,68.5 89.3,68.5 			"/>
			<polyline class="st1" points="16.5,109 16.3,109 16.1,109 15.9,108.9 15.7,108.9 15.5,108.8 15.3,108.7 15.1,108.6 15,108.5 
				14.8,108.3 14.6,108.2 14.4,108 14.3,107.8 14.1,107.6 13.9,107.4 13.8,107.1 13.6,106.9 13.5,106.6 13.3,106.4 13.2,106.1 
				13,105.8 12.9,105.5 12.8,105.2 12.7,104.8 12.6,104.5 12.5,104.2 12.4,103.8 12.3,103.4 12.3,103.1 12.2,102.7 12.2,102.3 
				12.1,101.9 12.1,101.6 12,101.2 12,100.8 12,100.4 12,100 12,99.6 12,99.2 12,98.8 12.1,98.4 12.1,98.1 12.2,97.7 12.2,97.3 
				12.3,96.9 12.3,96.5 12.4,96.2 12.5,95.8 12.6,95.5 12.7,95.2 12.8,94.8 12.9,94.5 13,94.2 13.2,93.9 13.3,93.6 13.5,93.4 
				13.6,93.1 13.8,92.9 13.9,92.6 14.1,92.4 14.3,92.2 14.4,92 14.6,91.8 14.8,91.7 15,91.5 15.1,91.4 15.3,91.3 15.5,91.2 
				15.7,91.1 15.9,91.1 16.1,91 16.3,91 16.5,91 			"/>
			<polyline class="st1" points="89.3,91 89.1,91 88.9,91 88.7,91.1 88.5,91.1 88.4,91.2 88.2,91.3 88,91.4 87.8,91.5 87.6,91.7 
				87.4,91.8 87.3,92 87.1,92.2 86.9,92.4 86.7,92.6 86.6,92.9 86.4,93.1 86.3,93.4 86.1,93.6 86,93.9 85.9,94.2 85.8,94.5 
				85.6,94.8 85.5,95.2 85.4,95.5 85.3,95.8 85.3,96.2 85.2,96.5 85.1,96.9 85,97.3 85,97.7 84.9,98.1 84.9,98.4 84.9,98.8 
				84.9,99.2 84.8,99.6 84.8,100 84.8,100.4 84.9,100.8 84.9,101.2 84.9,101.6 84.9,101.9 85,102.3 85,102.7 85.1,103.1 85.2,103.4 
				85.3,103.8 85.3,104.2 85.4,104.5 85.5,104.8 85.6,105.2 85.8,105.5 85.9,105.8 86,106.1 86.1,106.4 86.3,106.6 86.4,106.9 
				86.6,107.1 86.7,107.4 86.9,107.6 87.1,107.8 87.3,108 87.4,108.2 87.6,108.3 87.8,108.5 88,108.6 88.2,108.7 88.4,108.8 
				88.5,108.9 88.7,108.9 88.9,109 89.1,109 89.3,109 			"/>
			<polyline class="st1" points="56.8,39.9 56.9,39.9 56.9,39.9 57,39.9 57.3,39.9 57.5,39.9 57.7,39.9 58.3,39.9 58.9,39.9 
				59.6,39.9 60.4,39.9 61.3,39.9 62.3,39.9 63.4,39.9 64.5,39.9 65.7,39.9 67,39.9 68.3,39.9 69.6,39.9 70.9,39.9 72.3,39.9 
				72.3,39.9 73.6,39.9 74.9,39.9 76.3,39.9 76.3,39.9 77.6,39.9 78.8,39.9 79.1,39.9 80,39.9 81.1,39.9 81.5,39.9 82.2,39.9 
				83.2,39.9 83.6,39.9 84.1,39.9 84.9,39.9 85.6,39.9 			"/>
			<polyline class="st1" points="82.1,69 82.2,68.9 83.2,68.8 84.1,68.6 			"/>
		</g>
	</g>
</g>
</svg>
