<?xml version="1.0" encoding="utf-8"?>
<!-- Generator: Adobe Illustrator 21.0.0, SVG Export Plug-In . SVG Version: 6.00 Build 0)  -->
<svg version="1.1" id="Layer_1" xmlns="http://www.w3.org/2000/svg" xmlns:xlink="http://www.w3.org/1999/xlink" x="0px" y="0px"
	 viewBox="0 0 124.1 200" style="enable-background:new 0 0 124.1 200;" xml:space="preserve">
<style type="text/css">
	.st0{fill:#ECF0F1;}
	.st1{fill:#797979;}
	.st2{fill:none;stroke:#FFFFFF;stroke-width:1.5;stroke-linecap:round;stroke-linejoin:round;}
</style>
<g>
	<g id="XMLID_61_">
		<g>
			<polygon class="st0" points="115.6,96.8 115.7,100 115.6,103.2 115.4,106.3 115.1,109.4 114.6,112.4 114,115.4 113.2,118.2 
				112.4,120.8 111.4,123.3 110.3,125.7 109.2,127.8 107.9,129.8 106.6,131.5 105.2,132.9 103.7,134.1 102.2,135.1 100.7,135.8 
				99.1,136.2 97.5,136.3 95.9,136.2 94.4,135.8 92.8,135.1 91.5,134.2 97.5,134.2 99,134.1 100.5,133.7 101.9,133.1 103.4,132.2 
				104.7,131 106.1,129.7 107.3,128.1 108.5,126.2 109.6,124.2 110.6,122 111.5,119.7 112.3,117.1 113,114.5 113.6,111.7 
				114.1,108.9 114.4,105.9 114.6,103 114.6,100 114.6,97 114.4,94.1 114.1,91.1 113.6,88.3 113,85.5 112.3,82.9 111.5,80.3 
				110.6,78 109.6,75.8 108.5,73.8 107.3,71.9 106.1,70.3 104.7,69 103.4,67.8 101.9,66.9 100.5,66.3 99,65.9 97.5,65.8 91.5,65.8 
				92.8,64.9 94.4,64.2 95.9,63.8 97.5,63.7 99.1,63.8 100.7,64.2 102.2,64.9 103.7,65.9 105.2,67.1 106.6,68.5 107.9,70.2 
				109.2,72.2 110.3,74.3 111.4,76.7 112.4,79.2 113.2,81.8 114,84.6 114.6,87.6 115.1,90.6 115.4,93.7 			"/>
			<path class="st0" d="M60.7,99.6l0,0.4l0,0.4l0,0.4l0,0.4l-0.1,0.4l-0.1,0.4l-0.1,0.4l-0.1,0.3l-0.1,0.3l-0.1,0.3l-0.2,0.3
				l-0.1,0.3l-0.2,0.2l-0.2,0.2l-0.2,0.1l-0.2,0.1l-0.2,0.1l-0.2,0l-0.2,0l-0.2,0l-0.2,0l-0.2-0.1l-0.2-0.1l-0.2-0.1l-0.2-0.2
				l-0.2-0.2l-0.2-0.3l-0.1-0.3l-0.1-0.3l-0.1-0.3l-0.1-0.3l-0.1-0.4l-0.1-0.4l-0.1-0.4l0-0.4l0-0.4l0-0.4l0-0.4l0-0.4l0-0.4
				l0.1-0.4l0.1-0.4l0.1-0.4l0.1-0.3l0.1-0.3l0.1-0.3l0.1-0.3l0.2-0.3l0.2-0.2l0.2-0.2l0.2-0.1l0.2-0.1l0.2-0.1l0.2,0l0.2,0l0.2,0
				l0.2,0l0.2,0.1l0.2,0.1l0.2,0.1l0.2,0.2l0.2,0.2l0.1,0.3l0.2,0.3l0.1,0.3l0.1,0.3l0.1,0.3l0.1,0.4l0.1,0.4l0.1,0.4l0,0.4
				L60.7,99.6z M60.3,100l0-0.3l0-0.3l0-0.3l0-0.3l-0.1-0.3L60,98.1l-0.1-0.3l-0.1-0.3l-0.1-0.2L59.6,97l-0.1-0.2l-0.1-0.2l-0.2-0.2
				L59,96.4l-0.2-0.1l-0.2-0.1l-0.1,0l0,0l-0.2,0l-0.2,0l-0.2,0l-0.2,0.1l-0.2,0.1l-0.1,0.1l-0.2,0.2l-0.1,0.2L57.1,97L57,97.3
				l-0.1,0.2l-0.1,0.3l-0.1,0.3l-0.1,0.3l-0.1,0.3l0,0.3l0,0.3l0,0.3l0,0.3l0,0.3l0,0.3l0,0.3l0,0.3l0.1,0.3l0.1,0.3l0.1,0.3
				l0.1,0.3l0.1,0.2l0.1,0.2l0.1,0.2l0.1,0.2l0.2,0.2l0.1,0.1l0.2,0.1l0.2,0.1l0.2,0l0.2,0l0.2,0l0,0l0.1,0l0.2-0.1l0.2-0.1l0.1-0.1
				l0.2-0.2l0.1-0.2l0.1-0.2l0.1-0.2l0.1-0.2l0.1-0.3l0.1-0.3l0.1-0.3l0.1-0.3l0-0.3l0-0.3l0-0.3L60.3,100z"/>
			<polygon class="st1" points="60.3,99.7 60.3,100 60.3,100.3 60.3,100.7 60.2,101 60.2,101.3 60.1,101.6 60,101.9 59.9,102.2 
				59.9,102.5 59.7,102.7 59.6,103 59.5,103.2 59.3,103.4 59.2,103.5 59,103.6 58.9,103.8 58.7,103.8 58.6,103.9 58.4,103.8 
				58.3,103.8 58.1,103.6 58,103.5 57.8,103.4 57.7,103.2 57.5,103 57.4,102.7 57.3,102.5 57.2,102.2 57.1,101.9 57,101.6 57,101.3 
				56.9,101 56.9,100.7 56.8,100.3 56.8,100 56.8,99.7 56.9,99.3 56.9,99 57,98.7 57,98.4 57.1,98.1 57.2,97.8 57.3,97.5 57.4,97.3 
				57.5,97 57.7,96.8 57.8,96.6 58,96.5 58.1,96.4 58.3,96.3 58.4,96.2 58.6,96.1 58.7,96.2 58.9,96.3 59,96.4 59.2,96.5 59.3,96.6 
				59.5,96.8 59.6,97 59.7,97.3 59.9,97.5 59.9,97.8 60,98.1 60.1,98.4 60.2,98.7 60.2,99 60.3,99.3 			"/>
			<polygon class="st1" points="37,96.8 37.1,100 32.7,100 32.6,97.6 32.5,95.2 32.2,92.9 31.9,90.6 31.4,88.4 30.8,86.2 30.2,84.2 
				29.5,82.3 28.7,80.5 27.8,78.9 26.8,77.4 25.8,76.1 24.7,75 23.6,74.1 22.7,73.6 22.5,73.4 21.3,72.9 20.1,72.5 18.9,72.5 
				17.7,72.5 16.5,72.9 15.3,73.4 14.2,74.1 13.1,75 12,76.1 11,77.4 10.1,78.9 9.2,80.5 8.4,82.3 7.6,84.2 7,86.2 6.4,88.4 6,90.6 
				5.6,92.9 5.3,95.2 5.2,97.6 5.1,100 0.8,100 0.8,96.8 1,93.7 1.4,90.6 1.8,87.6 2.4,84.6 3.2,81.8 4,79.2 5,76.7 6.1,74.3 
				7.2,72.2 8.5,70.2 9.8,68.5 11.2,67.1 12.7,65.9 14.2,64.9 15.8,64.2 17.3,63.8 18.9,63.7 20.5,63.8 22.1,64.2 23.6,64.9 
				25.1,65.9 26.6,67.1 28,68.5 29.3,70.2 30.6,72.2 31.8,74.3 32.8,76.7 33.8,79.2 34.6,81.8 35.4,84.6 36,87.6 36.5,90.6 
				36.8,93.7 			"/>
			<polygon class="st1" points="37.1,100 37,103.2 36.8,106.3 36.5,109.4 36,112.4 35.4,115.4 34.6,118.2 33.8,120.8 32.8,123.3 
				31.8,125.7 30.6,127.8 29.3,129.8 28,131.5 26.6,132.9 25.1,134.1 23.6,135.1 22.1,135.8 20.5,136.2 18.9,136.3 17.3,136.2 
				15.8,135.8 14.2,135.1 12.7,134.1 11.2,132.9 9.8,131.5 8.5,129.8 7.2,127.8 6.1,125.7 5,123.3 4,120.8 3.2,118.2 2.4,115.4 
				1.8,112.4 1.4,109.4 1,106.3 0.8,103.2 0.8,100 5.1,100 5.2,102.4 5.3,104.8 5.6,107.1 6,109.4 6.4,111.6 7,113.8 7.6,115.8 
				8.4,117.7 9.2,119.5 10.1,121.1 11,122.6 12,123.9 13.1,125 14.2,125.9 15.3,126.6 16.5,127.1 17.7,127.5 18.9,127.5 20.1,127.5 
				21.3,127.1 22.5,126.6 22.7,126.4 23.6,125.9 24.7,125 25.8,123.9 26.8,122.6 27.8,121.1 28.7,119.5 29.5,117.7 30.2,115.8 
				30.8,113.8 31.4,111.6 31.9,109.4 32.2,107.1 32.5,104.8 32.6,102.4 32.7,100 			"/>
		</g>
		<g>
			<polyline class="st2" points="32.6,65.8 91.5,65.8 97.5,65.8 99,65.9 100.5,66.3 101.9,66.9 103.4,67.8 104.7,69 106.1,70.3 
				107.3,71.9 108.5,73.8 109.6,75.8 110.6,78 111.5,80.3 112.3,82.9 113,85.5 113.6,88.3 114.1,91.1 114.4,94.1 114.6,97 
				114.6,100 114.6,103 114.4,105.9 114.1,108.9 113.6,111.7 113,114.5 112.3,117.1 111.5,119.7 110.6,122 109.6,124.2 108.5,126.2 
				107.3,128.1 106.1,129.7 104.7,131 103.4,132.2 101.9,133.1 100.5,133.7 99,134.1 97.5,134.2 91.5,134.2 32.6,134.2 			"/>
			<polyline class="st2" points="97.5,63.7 105.2,63.7 106.8,63.8 108.3,64.2 109.9,64.9 111.4,65.9 112.8,67.1 114.3,68.5 
				115.6,70.2 116.9,72.2 118,74.3 119.1,76.7 120,79.2 120.9,81.8 121.6,84.6 122.2,87.6 122.7,90.6 123.1,93.7 123.3,96.8 
				123.3,100 123.3,103.2 123.1,106.3 122.7,109.4 122.2,112.4 121.6,115.4 120.9,118.2 120,120.8 119.1,123.3 118,125.7 
				116.9,127.8 115.6,129.8 114.3,131.5 112.8,132.9 111.4,134.1 109.9,135.1 108.3,135.8 106.8,136.2 105.2,136.3 97.5,136.3 			
				"/>
			<polyline class="st2" points="18.9,136.3 26.6,136.3 28.2,136.2 29.7,135.8 31.3,135.1 32.6,134.2 32.8,134.1 34.2,132.9 
				35.6,131.5 37,129.8 38.2,127.8 39.4,125.7 40.5,123.3 41.4,120.8 42.3,118.2 43,115.4 43.6,112.4 44.1,109.4 44.5,106.3 
				44.7,103.2 44.7,100 44.7,96.8 44.5,93.7 44.1,90.6 43.6,87.6 43,84.6 42.3,81.8 41.4,79.2 40.5,76.7 39.4,74.3 38.2,72.2 
				37,70.2 35.6,68.5 34.2,67.1 32.8,65.9 32.6,65.8 31.3,64.9 29.7,64.2 28.2,63.8 26.6,63.7 18.9,63.7 17.3,63.8 15.8,64.2 
				14.2,64.9 12.7,65.9 11.2,67.1 9.8,68.5 8.5,70.2 7.2,72.2 6.1,74.3 5,76.7 4,79.2 3.2,81.8 2.4,84.6 1.8,87.6 1.4,90.6 1,93.7 
				0.8,96.8 0.8,100 0.8,103.2 1,106.3 1.4,109.4 1.8,112.4 2.4,115.4 3.2,118.2 4,120.8 5,123.3 6.1,125.7 7.2,127.8 8.5,129.8 
				9.8,131.5 11.2,132.9 12.7,134.1 14.2,135.1 15.8,135.8 17.3,136.2 18.9,136.3 20.5,136.2 22.1,135.8 23.6,135.1 25.1,134.1 
				26.6,132.9 28,131.5 29.3,129.8 30.6,127.8 31.8,125.7 32.8,123.3 33.8,120.8 34.6,118.2 35.4,115.4 36,112.4 36.5,109.4 
				36.8,106.3 37,103.2 37.1,100 37,96.8 36.8,93.7 36.5,90.6 36,87.6 35.4,84.6 34.6,81.8 33.8,79.2 32.8,76.7 31.8,74.3 
				30.6,72.2 29.3,70.2 28,68.5 26.6,67.1 25.1,65.9 23.6,64.9 22.1,64.2 20.5,63.8 18.9,63.7 			"/>
			<polyline class="st2" points="32.7,100 32.6,97.6 32.5,95.2 32.2,92.9 31.9,90.6 31.4,88.4 30.8,86.2 30.2,84.2 29.5,82.3 
				28.7,80.5 27.8,78.9 26.8,77.4 25.8,76.1 24.7,75 23.6,74.1 22.7,73.6 22.5,73.4 21.3,72.9 20.1,72.5 18.9,72.5 17.7,72.5 
				16.5,72.9 15.3,73.4 14.2,74.1 13.1,75 12,76.1 11,77.4 10.1,78.9 9.2,80.5 8.4,82.3 7.6,84.2 7,86.2 6.4,88.4 6,90.6 5.6,92.9 
				5.3,95.2 5.2,97.6 5.1,100 5.2,102.4 5.3,104.8 5.6,107.1 6,109.4 6.4,111.6 7,113.8 7.6,115.8 8.4,117.7 9.2,119.5 10.1,121.1 
				11,122.6 12,123.9 13.1,125 14.2,125.9 15.3,126.6 16.5,127.1 17.7,127.5 18.9,127.5 20.1,127.5 21.3,127.1 22.5,126.6 
				22.7,126.4 23.6,125.9 24.7,125 25.8,123.9 26.8,122.6 27.8,121.1 28.7,119.5 29.5,117.7 30.2,115.8 30.8,113.8 31.4,111.6 
				31.9,109.4 32.2,107.1 32.5,104.8 32.6,102.4 32.7,100 			"/>
			<polyline class="st2" points="91.5,65.8 92.8,64.9 94.4,64.2 95.9,63.8 97.5,63.7 99.1,63.8 100.7,64.2 102.2,64.9 103.7,65.9 
				105.2,67.1 106.6,68.5 107.9,70.2 109.2,72.2 110.3,74.3 111.4,76.7 112.4,79.2 113.2,81.8 114,84.6 114.6,87.6 115.1,90.6 
				115.4,93.7 115.6,96.8 115.7,100 115.6,103.2 115.4,106.3 115.1,109.4 114.6,112.4 114,115.4 113.2,118.2 112.4,120.8 
				111.4,123.3 110.3,125.7 109.2,127.8 107.9,129.8 106.6,131.5 105.2,132.9 103.7,134.1 102.2,135.1 100.7,135.8 99.1,136.2 
				97.5,136.3 95.9,136.2 94.4,135.8 92.8,135.1 91.5,134.2 			"/>
			<polyline class="st2" points="22.7,126.4 21.9,125.9 20.8,125 19.7,123.9 18.7,122.6 17.7,121.1 16.8,119.5 16,117.7 15.3,115.8 
				14.6,113.8 14.1,111.6 13.6,109.4 13.3,107.1 13,104.8 12.8,102.4 12.8,100 12.8,97.6 13,95.2 13.3,92.9 13.6,90.6 14.1,88.4 
				14.6,86.2 15.3,84.2 16,82.3 16.8,80.5 17.7,78.9 18.7,77.4 19.7,76.1 20.8,75 21.9,74.1 22.7,73.6 			"/>
			<polyline class="st2" points="60.3,100 60.3,99.7 60.3,99.3 60.2,99 60.2,98.7 60.1,98.4 60,98.1 59.9,97.8 59.9,97.5 59.7,97.3 
				59.6,97 59.5,96.8 59.3,96.6 59.2,96.5 59,96.4 58.9,96.3 58.7,96.2 58.6,96.1 58.5,96.1 58.3,96.1 58.2,96.1 58,96.2 57.8,96.3 
				57.7,96.4 57.5,96.5 57.4,96.6 57.2,96.8 57.1,97 57,97.3 56.9,97.5 56.8,97.8 56.7,98.1 56.6,98.4 56.5,98.7 56.5,99 56.4,99.3 
				56.4,99.7 56.4,100 56.4,100.3 56.4,100.7 56.5,101 56.5,101.3 56.6,101.6 56.7,101.9 56.8,102.2 56.9,102.5 57,102.7 57.1,103 
				57.2,103.2 57.4,103.4 57.5,103.5 57.7,103.6 57.8,103.8 58,103.8 58.2,103.9 58.3,103.9 58.5,103.9 58.6,103.9 58.7,103.8 
				58.9,103.8 59,103.6 59.2,103.5 59.3,103.4 59.5,103.2 59.6,103 59.7,102.7 59.9,102.5 59.9,102.2 60,101.9 60.1,101.6 
				60.2,101.3 60.2,101 60.3,100.7 60.3,100.3 60.3,100 			"/>
			<polyline class="st2" points="58.3,104.6 58.6,104.6 58.8,104.6 58.9,104.5 59.1,104.3 59.3,104.2 59.5,104 59.7,103.8 
				59.8,103.5 60,103.3 60.1,103 60.3,102.6 60.4,102.3 60.4,102 60.5,101.6 60.6,101.2 60.6,100.8 60.7,100.4 60.7,100 60.7,99.6 
				60.6,99.2 60.6,98.8 60.5,98.4 60.4,98 60.4,97.7 60.3,97.4 60.1,97 60,96.7 59.8,96.5 59.7,96.2 59.5,96 59.3,95.8 59.1,95.7 
				58.9,95.5 58.8,95.4 58.6,95.4 58.3,95.4 			"/>
			<polyline class="st2" points="104.6,95.4 104.8,95.4 105,95.4 105.2,95.5 105.4,95.7 105.6,95.8 105.8,96 105.9,96.2 106.1,96.5 
				106.2,96.7 106.4,97 106.5,97.4 106.6,97.7 106.7,98 106.8,98.4 106.8,98.8 106.9,99.2 106.9,99.6 106.9,100 106.9,100.4 
				106.9,100.8 106.8,101.2 106.8,101.6 106.7,102 106.6,102.3 106.5,102.6 106.4,103 106.2,103.3 106.1,103.5 105.9,103.8 
				105.8,104 105.6,104.2 105.4,104.3 105.2,104.5 105,104.6 104.8,104.6 104.6,104.6 58.3,104.6 58.2,104.6 58,104.6 57.8,104.5 
				57.6,104.3 57.4,104.2 57.2,104 57,103.8 56.9,103.5 56.7,103.3 56.6,103 56.5,102.6 56.3,102.3 56.3,102 56.2,101.6 56.1,101.2 
				56.1,100.8 56.1,100.4 56,100 56.1,99.6 56.1,99.2 56.1,98.8 56.2,98.4 56.3,98 56.3,97.7 56.5,97.4 56.6,97 56.7,96.7 
				56.9,96.5 57,96.2 57.2,96 57.4,95.8 57.6,95.7 57.8,95.5 58,95.4 58.2,95.4 58.3,95.4 104.6,95.4 			"/>
			<polyline class="st2" points="58.6,103.9 58.4,103.8 58.3,103.8 58.1,103.6 58,103.5 57.8,103.4 57.7,103.2 57.5,103 57.4,102.7 
				57.3,102.5 57.2,102.2 57.1,101.9 57,101.6 57,101.3 56.9,101 56.9,100.7 56.8,100.3 56.8,100 56.8,99.7 56.9,99.3 56.9,99 
				57,98.7 57,98.4 57.1,98.1 57.2,97.8 57.3,97.5 57.4,97.3 57.5,97 57.7,96.8 57.8,96.6 58,96.5 58.1,96.4 58.3,96.3 58.4,96.2 
				58.6,96.1 			"/>
		</g>
	</g>
</g>
</svg>
