<?xml version="1.0" encoding="utf-8"?>
<!-- Generator: Adobe Illustrator 21.0.0, SVG Export Plug-In . SVG Version: 6.00 Build 0)  -->
<svg version="1.1" id="Layer_1" xmlns="http://www.w3.org/2000/svg" xmlns:xlink="http://www.w3.org/1999/xlink" x="0px" y="0px"
	 viewBox="0 0 100 100" style="enable-background:new 0 0 100 100;" xml:space="preserve">
<style type="text/css">
	.st0{fill:#FFFFFF;}
</style>
<g>
	<path class="st0" d="M50,92.8561859c-23.7561665,0-43.0830002-19.326828-43.0830002-43.0827484
		c0-17.4692841,10.4266167-33.08992,26.5636368-39.7959976l0.6395454-0.2658587l5.720295,10.8309698
		C43.1049805,19.4073982,46.5193481,18.8321533,50,18.8321533s6.8955154,0.5752449,10.1600151,1.7103996l5.719799-10.8309698
		l0.6395493,0.2658587c16.1370163,6.7060757,26.5636368,22.3267117,26.5636368,39.7959976
		C93.0830002,73.5293579,73.7561646,92.8561859,50,92.8561859z M33.4262276,11.6514883
		C18.222559,18.2638321,8.4364767,33.1516876,8.4364767,49.7734375c0,22.9180298,18.6452446,41.5632782,41.5635223,41.5632782
		s41.5635223-18.6452484,41.5635223-41.5632782c0-16.6217499-9.7860794-31.5096054-24.9897537-38.1219482l-5.6901207,10.7740898
		l-0.6252022-0.2327194C56.9751511,20.9711418,53.5236816,20.3516293,50,20.3516293
		c-3.5231857,0-6.9746552,0.6195126-10.2579498,1.8412285l-0.6252022,0.2327194L33.4262276,11.6514883z"/>
</g>
</svg>
