<?xml version="1.0" encoding="utf-8"?>
<!-- Generator: Adobe Illustrator 21.0.0, SVG Export Plug-In . SVG Version: 6.00 Build 0)  -->
<svg version="1.1" id="Layer_1" xmlns="http://www.w3.org/2000/svg" xmlns:xlink="http://www.w3.org/1999/xlink" x="0px" y="0px"
	 viewBox="0 0 100 100" style="enable-background:new 0 0 100 100;" xml:space="preserve">
<g>
	<path d="M50,92.9c-23.8,0-43.1-19.3-43.1-43.1c0-17.5,10.4-33.1,26.6-39.8l0.6-0.3l5.7,10.8c3.3-1.1,6.7-1.7,10.2-1.7
		s6.9,0.6,10.2,1.7l5.7-10.8l0.6,0.3c16.1,6.7,26.6,22.3,26.6,39.8C93.1,73.5,73.8,92.9,50,92.9z M33.4,11.7
		c-15.2,6.6-25,21.5-25,38.1c0,22.9,18.6,41.6,41.6,41.6s41.6-18.6,41.6-41.6c0-16.6-9.8-31.5-25-38.1l-5.7,10.8l-0.6-0.2
		C57,21,53.5,20.4,50,20.4c-3.5,0-7,0.6-10.3,1.8l-0.6,0.2L33.4,11.7z"/>
</g>
</svg>
