<?xml version="1.0" encoding="utf-8"?>
<!-- Generator: Adobe Illustrator 21.0.0, SVG Export Plug-In . SVG Version: 6.00 Build 0)  -->
<svg version="1.1" id="Layer_1" xmlns="http://www.w3.org/2000/svg" xmlns:xlink="http://www.w3.org/1999/xlink" x="0px" y="0px"
	 viewBox="0 0 100 100" style="enable-background:new 0 0 100 100;" xml:space="preserve">
<style type="text/css">
	.st0{fill:#A9A9A9;}
</style>
<g>
	<path class="st0" d="M33.6,20.5h32.8v6.7H54v45.6h12.4v6.7H33.6v-6.7H46V27.2H33.6V20.5z"/>
</g>
<g>
	<path class="st0" d="M50,0C50,0,50,0,50,0C50,0,50,0,50,0C50,0,50,0,50,0C50,0,49.9,0,50,0C49.9,0,49.9,0,50,0C49.9,0,49.9,0,50,0
		C49.9,0,49.9,0,50,0C49.9,0,49.9,0,50,0c-0.1,0-0.1,0-0.1,0c0,0,0,0,0,0c0,0,0,0,0,0l0,0c0,0,0,0,0,0c0,0,0,0,0,0c0,0,0,0,0,0
		c0,0,0,0,0,0c0,0,0,0,0,0c0,0,0,0,0,0c0,0,0,0,0,0c0,0,0,0,0,0c0,0,0,0,0,0h0c0,0,0,0-0.1,0h0c0,0,0,0,0,0h0c0,0,0,0,0,0
		c0,0,0,0,0,0c-0.4,0-0.8,0-1.1,0l0,1.7c0.5,0,1,0,1.4,0V0L50,0L50,0z M47,0.1c-0.4,0-0.9,0.1-1.3,0.1c0,0,0,0,0,0c0,0,0,0,0,0
		c0,0,0,0,0,0c0,0,0,0,0,0c0,0,0,0,0,0s0,0,0,0c0,0,0,0,0,0c0,0,0,0,0,0c0,0-0.1,0-0.1,0l0.2,1.7c0.5,0,1-0.1,1.4-0.1L47,0.1L47,0.1
		z M44,0.4C44,0.4,44,0.4,44,0.4C43.9,0.4,43.9,0.4,44,0.4c-0.1,0-0.1,0-0.1,0c0,0,0,0,0,0s0,0,0,0c0,0,0,0,0,0c0,0,0,0,0,0
		c-0.5,0.1-0.9,0.1-1.3,0.2l0.3,1.7c0.5-0.1,1-0.1,1.4-0.2L44,0.4L44,0.4z M41,0.8c-0.2,0-0.3,0.1-0.4,0.1c0,0,0,0,0,0c0,0,0,0,0,0
		c0,0,0,0,0,0c0,0,0,0,0,0c0,0,0,0,0,0c0,0,0,0,0,0c0,0,0,0,0,0l0,0c0,0,0,0,0,0c0,0,0,0,0,0C40.2,1,40,1,39.7,1.1c0,0,0,0,0,0
		c0,0,0,0,0,0c0,0,0,0,0,0c0,0,0,0,0,0c0,0,0,0,0,0c0,0,0,0,0,0c0,0,0,0-0.1,0l0.4,1.7c0.5-0.1,0.9-0.2,1.4-0.3L41,0.8L41,0.8z
		 M38.1,1.4C38.1,1.4,38.1,1.4,38.1,1.4C38.1,1.4,38.1,1.4,38.1,1.4C38.1,1.4,38.1,1.4,38.1,1.4C38.1,1.4,38.1,1.4,38.1,1.4
		L38.1,1.4C38,1.4,38,1.4,38.1,1.4C38,1.4,38,1.4,38.1,1.4c-0.1,0-0.1,0-0.1,0c0,0,0,0,0,0c0,0,0,0-0.1,0l0,0c0,0,0,0,0,0h0
		c-0.1,0-0.1,0-0.2,0.1c0,0,0,0,0,0c0,0,0,0,0,0c0,0,0,0,0,0c0,0,0,0,0,0l0,0c0,0,0,0,0,0c0,0,0,0,0,0c0,0,0,0,0,0c0,0,0,0,0,0
		c0,0,0,0,0,0c0,0,0,0,0,0c0,0,0,0,0,0c0,0,0,0,0,0c0,0,0,0,0,0c0,0,0,0,0,0c0,0,0,0,0,0c0,0,0,0,0,0c0,0,0,0,0,0c0,0,0,0,0,0
		c0,0,0,0,0,0c0,0,0,0,0,0c0,0,0,0,0,0c0,0,0,0,0,0c0,0,0,0,0,0c0,0,0,0,0,0c0,0,0,0,0,0c0,0,0,0,0,0c0,0,0,0,0,0c0,0,0,0,0,0
		c0,0,0,0,0,0c0,0,0,0-0.1,0c0,0,0,0,0,0c0,0,0,0,0,0c0,0,0,0,0,0c0,0,0,0,0,0c0,0,0,0,0,0c0,0,0,0-0.1,0h0c0,0,0,0,0,0c0,0,0,0,0,0
		c0,0,0,0,0,0c0,0,0,0,0,0c0,0,0,0,0,0c0,0,0,0,0,0c0,0,0,0,0,0c0,0,0,0,0,0c0,0,0,0,0,0c0,0,0,0,0,0c0,0,0,0,0,0c0,0,0,0,0,0
		c0,0,0,0,0,0c0,0,0,0,0,0c0,0,0,0,0,0c0,0,0,0,0,0c0,0,0,0,0,0c0,0,0,0,0,0c0,0,0,0,0,0c0,0,0,0,0,0c0,0,0,0,0,0
		c-0.1,0-0.2,0-0.3,0.1l0.5,1.6c0.5-0.1,0.9-0.2,1.4-0.4L38.1,1.4L38.1,1.4z M35.2,2.2c-0.3,0.1-0.7,0.2-1,0.3c0,0,0,0,0,0
		c0,0,0,0,0,0c0,0,0,0,0,0c0,0,0,0,0,0c0,0,0,0,0,0c0,0,0,0,0,0c0,0,0,0,0,0c0,0,0,0,0,0c0,0,0,0,0,0c0,0,0,0,0,0c0,0,0,0,0,0
		c0,0,0,0,0,0c0,0,0,0,0,0c0,0,0,0,0,0c-0.1,0-0.2,0.1-0.3,0.1l0.6,1.6c0.5-0.2,0.9-0.3,1.4-0.4L35.2,2.2L35.2,2.2z M32.4,3.2
		c-0.2,0.1-0.4,0.2-0.6,0.2c0,0,0,0,0,0c0,0,0,0,0,0c0,0,0,0,0,0c0,0,0,0,0,0c0,0,0,0,0,0c0,0,0,0,0,0c0,0,0,0,0,0s0,0,0,0
		c0,0,0,0,0,0c0,0,0,0,0,0c0,0,0,0,0,0c0,0,0,0,0,0c0,0,0,0,0,0c0,0,0,0,0,0c-0.2,0.1-0.4,0.2-0.6,0.3l0.6,1.6
		C32.1,5.1,32.5,5,33,4.8L32.4,3.2L32.4,3.2z M29.6,4.3c-0.4,0.2-0.7,0.3-1.1,0.5c0,0,0,0,0,0c0,0,0,0,0,0c0,0,0,0,0,0c0,0,0,0,0,0
		c0,0,0,0,0,0c0,0,0,0,0,0c0,0,0,0,0,0l0,0c0,0,0,0,0,0c0,0,0,0,0,0c-0.1,0-0.1,0.1-0.2,0.1L29,6.5c0.4-0.2,0.9-0.4,1.3-0.6
		L29.6,4.3L29.6,4.3z M26.9,5.6c-0.4,0.2-0.9,0.5-1.3,0.7l0.8,1.5c0.4-0.2,0.8-0.5,1.3-0.7L26.9,5.6L26.9,5.6z M24.3,7.1
		c-0.4,0.3-0.9,0.5-1.3,0.8l0.9,1.4c0.4-0.3,0.8-0.5,1.2-0.8L24.3,7.1L24.3,7.1z M21.8,8.7c-0.2,0.1-0.4,0.3-0.6,0.4c0,0,0,0,0,0
		c0,0,0,0,0,0c0,0,0,0,0,0c0,0,0,0,0,0c0,0,0,0,0,0c0,0,0,0,0,0c0,0,0,0,0,0c0,0,0,0,0,0c0,0,0,0,0,0c0,0,0,0,0,0c0,0,0,0,0,0
		c0,0,0,0,0,0c0,0,0,0,0,0c0,0,0,0,0,0c0,0,0,0,0,0c0,0,0,0,0,0c0,0,0,0,0,0s0,0,0,0s0,0,0,0c0,0,0,0,0,0c0,0,0,0,0,0c0,0,0,0,0,0
		c0,0,0,0,0,0c0,0,0,0,0,0c0,0,0,0,0,0c0,0,0,0,0,0c0,0,0,0,0,0c0,0,0,0,0,0c0,0,0,0,0,0l0,0c0,0,0,0,0,0c0,0,0,0,0,0c0,0,0,0,0,0
		c0,0,0,0,0,0c0,0,0,0,0,0c0,0,0,0,0,0c0,0,0,0,0,0c0,0,0,0,0,0c0,0,0,0,0,0c0,0,0,0,0,0c0,0,0,0,0,0c0,0,0,0,0,0s0,0,0,0
		c0,0,0,0,0,0c0,0,0,0,0,0c0,0,0,0,0,0c0,0,0,0,0,0c0,0,0,0,0,0s0,0,0,0s0,0,0,0s0,0,0,0c0,0,0,0,0,0c0,0,0,0,0,0c0,0,0,0,0,0
		c0,0,0,0,0,0c0,0,0,0,0,0l0,0c0,0,0,0-0.1,0.1l1,1.4c0.4-0.3,0.8-0.6,1.2-0.8L21.8,8.7L21.8,8.7z M19.3,10.5
		c-0.1,0.1-0.2,0.2-0.3,0.2l0,0c0,0,0,0-0.1,0c0,0,0,0,0,0c0,0,0,0,0,0c0,0,0,0,0,0c0,0,0,0,0,0c0,0,0,0,0,0c0,0,0,0,0,0
		c0,0,0,0,0,0c0,0,0,0,0,0c0,0,0,0,0,0c0,0,0,0,0,0c0,0,0,0,0,0c0,0,0,0,0,0c0,0,0,0,0,0c0,0,0,0,0,0c0,0,0,0,0,0c0,0,0,0,0,0
		c0,0,0,0,0,0c0,0,0,0,0,0c0,0,0,0,0,0c0,0,0,0,0,0c0,0,0,0-0.1,0c0,0,0,0,0,0c-0.2,0.2-0.4,0.3-0.6,0.5l1.1,1.3
		c0.4-0.3,0.7-0.6,1.1-0.9L19.3,10.5L19.3,10.5z M17,12.4c0,0-0.1,0.1-0.1,0.1l0,0c0,0,0,0,0,0c0,0,0,0,0,0c0,0,0,0,0,0c0,0,0,0,0,0
		c0,0,0,0,0,0c0,0,0,0,0,0c0,0,0,0,0,0c0,0,0,0,0,0l0,0c-0.2,0.2-0.4,0.4-0.6,0.6c0,0,0,0,0,0c0,0,0,0,0,0c0,0,0,0,0,0s0,0,0,0
		c0,0,0,0,0,0c0,0,0,0,0,0c0,0,0,0,0,0c0,0,0,0,0,0c0,0,0,0,0,0l0,0c-0.1,0.1-0.1,0.1-0.2,0.2l1.2,1.2c0.4-0.3,0.7-0.7,1.1-1
		L17,12.4L17,12.4z M14.8,14.5C14.8,14.5,14.8,14.5,14.8,14.5C14.8,14.5,14.8,14.5,14.8,14.5C14.8,14.5,14.8,14.5,14.8,14.5
		C14.8,14.5,14.8,14.5,14.8,14.5c-0.3,0.3-0.7,0.7-1,1c0,0,0,0,0,0c0,0,0,0,0,0c0,0,0,0,0,0s0,0,0,0c0,0,0,0,0,0c0,0,0,0,0,0
		c0,0,0,0,0,0c0,0,0,0,0,0l1.2,1.2c0.3-0.4,0.7-0.7,1-1L14.8,14.5L14.8,14.5z M12.8,16.6c-0.3,0.3-0.6,0.7-0.9,1.1c0,0,0,0,0,0
		c0,0,0,0,0,0c0,0,0,0,0,0c0,0,0,0,0,0c0,0,0,0,0,0c0,0,0,0,0,0c0,0,0,0,0,0l1.3,1.1c0.3-0.4,0.6-0.7,1-1.1L12.8,16.6L12.8,16.6z
		 M10.8,18.9c-0.2,0.2-0.4,0.4-0.5,0.7c0,0,0,0,0,0c0,0,0,0,0,0c0,0,0,0,0,0c0,0,0,0,0,0c0,0,0,0,0,0c0,0,0,0,0,0c0,0,0,0,0,0
		c0,0,0,0,0,0c0,0,0,0,0,0c0,0,0,0,0,0c0,0,0,0,0,0c0,0,0,0,0,0c0,0,0,0,0,0c0,0,0,0,0,0c0,0,0,0,0,0c0,0,0,0,0,0c0,0,0,0,0,0l0,0
		c-0.1,0.1-0.2,0.2-0.3,0.3l1.4,1c0.3-0.4,0.6-0.8,0.9-1.1L10.8,18.9L10.8,18.9z M9,21.3c-0.3,0.4-0.5,0.8-0.8,1.1c0,0,0,0,0,0
		c0,0,0,0,0,0c0,0,0,0,0,0c0,0,0,0,0,0c0,0,0,0,0,0s0,0,0,0c0,0,0,0,0,0s0,0,0,0c0,0,0,0,0,0l0,0l1.4,0.9c0.3-0.4,0.5-0.8,0.8-1.2
		L9,21.3L9,21.3z M7.4,23.8c-0.2,0.3-0.4,0.7-0.6,1c0,0,0,0,0,0c0,0,0,0,0,0c0,0,0,0,0,0c0,0,0,0,0,0.1c0,0,0,0,0,0c0,0,0,0,0,0
		c0,0,0,0,0,0c0,0,0,0,0,0l0,0c0,0,0,0,0,0c0,0,0,0,0,0c0,0,0,0,0,0c0,0,0,0,0,0c0,0,0,0,0,0c0,0,0,0,0,0c0,0,0,0,0,0l0,0
		c0,0,0,0,0,0c0,0,0,0,0,0c0,0,0,0,0,0c0,0,0,0,0,0c0,0,0,0,0,0c0,0,0,0,0,0c0,0,0,0,0,0c0,0,0,0,0,0c0,0,0,0,0,0l0,0L8.1,26
		c0.2-0.4,0.5-0.8,0.7-1.2L7.4,23.8L7.4,23.8z M5.9,26.4c-0.1,0.2-0.2,0.4-0.3,0.6c0,0,0,0,0,0c0,0,0,0,0,0c0,0,0,0,0,0c0,0,0,0,0,0
		c0,0,0,0,0,0c0,0,0,0,0,0c0,0,0,0,0,0c0,0,0,0,0,0c0,0,0,0,0,0c0,0,0,0,0,0c0,0,0,0,0,0c0,0,0,0,0,0c0,0,0,0,0,0c0,0,0,0,0,0
		c0,0,0,0,0,0c0,0,0,0,0,0c0,0,0,0,0,0c0,0,0,0,0,0c0,0,0,0,0,0c0,0,0,0,0,0c0,0,0,0,0,0c0,0,0,0,0,0c0,0,0,0,0,0c0,0,0,0,0,0
		c0,0,0,0,0,0c0,0,0,0,0,0c0,0,0,0,0,0c0,0,0,0,0,0c0,0,0,0,0,0c0,0,0,0,0,0c0,0,0,0,0,0c0,0,0,0,0,0c0,0,0,0,0,0c0,0,0,0,0,0
		c0,0,0,0,0,0c0,0,0,0,0,0c0,0,0,0,0,0c0,0,0,0,0,0c0,0,0,0,0,0c0,0,0,0,0,0c0,0,0,0,0,0c0,0,0,0,0,0c0,0,0,0,0,0c0,0,0,0,0,0
		c0,0,0,0,0,0c0,0,0,0,0,0c0,0,0,0,0,0c0,0,0,0,0,0c0,0,0,0,0,0c0,0,0,0,0,0c0,0,0,0,0,0c0,0,0,0,0,0l0,0c0,0,0,0,0,0c0,0,0,0,0,0
		c0,0,0,0,0,0l0,0c0,0,0,0.1-0.1,0.1l1.5,0.8c0.2-0.4,0.4-0.9,0.7-1.3L5.9,26.4L5.9,26.4z M4.6,29.1C4.6,29.1,4.6,29.1,4.6,29.1
		C4.6,29.1,4.6,29.1,4.6,29.1C4.6,29.1,4.5,29.1,4.6,29.1C4.5,29.1,4.5,29.1,4.6,29.1C4.5,29.2,4.5,29.2,4.6,29.1
		C4.5,29.2,4.5,29.2,4.6,29.1C4.5,29.2,4.5,29.2,4.6,29.1C4.5,29.2,4.5,29.2,4.6,29.1L4.6,29.1c0,0.1-0.1,0.1-0.1,0.1v0c0,0,0,0,0,0
		l0,0c0,0.1-0.1,0.2-0.1,0.3l0,0c0,0,0,0,0,0l0,0c0,0,0,0,0,0l0,0c0,0,0,0,0,0c0,0,0,0,0,0c0,0,0,0,0,0c0,0,0,0,0,0c0,0,0,0,0,0
		c0,0,0,0,0,0c0,0,0,0,0,0c0,0,0,0,0,0c0,0,0,0,0,0c0,0,0,0,0,0c0,0,0,0,0,0c0,0,0,0,0,0c0,0,0,0,0,0c0,0,0,0,0,0.1c0,0,0,0,0,0
		C4.1,30,4.1,30.3,4,30.5l1.6,0.7c0.2-0.4,0.4-0.9,0.6-1.3L4.6,29.1L4.6,29.1z M3.4,31.9c-0.1,0.2-0.2,0.4-0.3,0.7v0c0,0,0,0,0,0v0
		c0,0,0,0,0,0.1c0,0,0,0,0,0c0,0,0,0,0,0c0,0,0,0,0,0c0,0,0,0,0,0c0,0,0,0,0,0c0,0,0,0,0,0c0,0,0,0,0,0c0,0,0,0,0,0c0,0,0,0,0,0
		c0,0,0,0,0,0c0,0,0,0,0,0c0,0,0,0,0,0c0,0,0,0,0,0c0,0,0,0,0,0c0,0,0,0,0,0c0,0,0,0,0,0c0,0,0,0,0,0C3,33,2.9,33.1,2.9,33.3
		l1.6,0.6c0.2-0.5,0.3-0.9,0.5-1.4L3.4,31.9L3.4,31.9z M2.4,34.7C2.4,34.7,2.4,34.7,2.4,34.7C2.4,34.7,2.4,34.7,2.4,34.7
		C2.4,34.7,2.4,34.7,2.4,34.7C2.4,34.7,2.4,34.7,2.4,34.7C2.4,34.7,2.4,34.7,2.4,34.7C2.4,34.7,2.4,34.7,2.4,34.7c0,0.1,0,0.1,0,0.1
		c0,0,0,0,0,0c0,0,0,0,0,0c0,0,0,0,0,0c-0.1,0.4-0.3,0.9-0.4,1.3l1.6,0.5c0.1-0.5,0.3-0.9,0.4-1.4L2.4,34.7L2.4,34.7z M1.6,37.6
		C1.6,37.6,1.5,37.6,1.6,37.6L1.6,37.6c-0.1,0.4-0.2,0.7-0.2,1v0c0,0,0,0,0,0v0c0,0,0,0,0,0c0,0,0,0,0,0c0,0,0,0,0,0c0,0,0,0,0,0
		c0,0,0,0,0,0c0,0,0,0,0,0c0,0,0,0,0,0c0,0.1,0,0.2-0.1,0.3l1.7,0.4C3,38.9,3.1,38.5,3.2,38L1.6,37.6L1.6,37.6z M0.9,40.5
		C0.9,40.5,0.9,40.5,0.9,40.5C0.9,40.5,0.9,40.5,0.9,40.5C0.9,40.5,0.9,40.5,0.9,40.5L0.9,40.5C0.9,40.6,0.9,40.6,0.9,40.5
		C0.9,40.6,0.9,40.6,0.9,40.5c0,0.1,0,0.1,0,0.1c0,0,0,0,0,0c0,0,0,0,0,0c0,0,0,0,0,0c0,0,0,0,0,0c0,0,0,0,0,0c0,0,0,0,0,0v0
		c0,0,0,0,0,0c0,0,0,0,0,0c0,0,0,0,0,0c0,0,0,0,0,0s0,0,0,0c0,0,0,0,0,0c0,0,0,0,0,0c0,0,0,0,0,0c0,0,0,0,0,0c0,0,0,0,0,0
		c0,0,0,0,0,0c0,0,0,0,0,0c0,0,0,0,0,0c0,0,0,0,0,0c0,0,0,0,0,0c0,0,0,0,0,0c0,0,0,0,0,0c0,0,0,0,0,0l0,0c0,0,0,0,0,0c0,0,0,0,0,0
		c0,0,0,0,0,0l0,0c-0.1,0.3-0.1,0.7-0.2,1l0,0l1.7,0.3c0.1-0.5,0.2-1,0.3-1.4L0.9,40.5L0.9,40.5z M0.4,43.5c-0.1,0.5-0.1,1-0.2,1.5
		l1.7,0.2c0-0.5,0.1-1,0.2-1.4L0.4,43.5L0.4,43.5z M0.1,46.5c0,0.1,0,0.3,0,0.4c0,0,0,0,0,0c0,0,0,0,0,0c0,0,0,0,0,0c0,0,0,0,0,0
		c0,0,0,0,0,0c0,0,0,0,0,0c0,0,0,0,0,0c0,0,0,0,0,0c0,0,0,0,0,0c0,0,0,0,0,0c0,0,0,0,0,0l0,0c0,0,0,0,0,0c0,0,0,0,0,0c0,0,0,0,0,0v0
		c0,0,0,0,0,0c0,0,0,0,0,0c0,0.3,0,0.6,0,0.9L1.7,48c0-0.5,0-1,0.1-1.4L0.1,46.5L0.1,46.5z M0,49.4c0,0,0,0.1,0,0.1c0,0,0,0,0,0
		c0,0,0,0,0,0s0,0,0,0c0,0,0,0,0,0c0,0,0,0,0,0v0c0,0.1,0,0.2,0,0.3c0,0,0,0,0,0c0,0,0,0,0,0c0,0,0,0,0,0c0,0,0,0,0,0c0,0,0,0,0,0
		c0,0,0,0,0,0c0,0,0,0,0,0c0,0,0,0,0,0l0,0c0,0,0,0,0,0c0,0,0,0,0,0c0,0,0,0,0,0c0,0,0,0,0,0c0,0,0,0,0,0c0,0,0,0,0,0c0,0,0,0,0,0
		c0,0,0,0,0,0c0,0,0,0,0,0c0,0,0,0,0,0c0,0,0,0,0,0c0,0,0,0,0,0c0,0,0,0,0,0c0,0,0,0,0,0c0,0,0,0,0,0c0,0,0,0,0,0c0,0,0,0,0,0
		c0,0,0,0,0,0c0,0,0,0,0,0c0,0,0,0,0,0c0,0,0,0,0,0c0,0,0,0,0,0c0,0,0,0,0,0c0,0,0,0,0,0c0,0,0,0,0,0v0c0,0,0,0,0,0v0
		c0,0.2,0,0.4,0,0.6l1.7,0c0-0.3,0-0.6,0-0.9c0-0.2,0-0.4,0-0.5L0,49.4L0,49.4z M1.8,52.4l-1.7,0.1c0,0.4,0,0.8,0.1,1.1c0,0,0,0,0,0
		c0,0,0,0,0,0c0,0,0,0,0,0c0,0,0,0,0,0c0,0,0,0,0,0c0,0,0,0,0,0v0c0,0,0,0,0,0c0,0,0,0,0,0s0,0,0,0s0,0,0,0c0,0,0,0,0,0c0,0,0,0,0,0
		c0,0,0,0,0,0c0,0,0,0,0,0c0,0,0,0,0,0c0,0.1,0,0.1,0,0.2l1.7-0.1C1.8,53.3,1.8,52.9,1.8,52.4L1.8,52.4z M2,55.3l-1.7,0.2
		c0.1,0.5,0.1,1,0.2,1.5l1.7-0.2C2.1,56.2,2,55.7,2,55.3L2,55.3z M2.4,58.1l-1.7,0.3c0,0.1,0,0.2,0,0.2v0c0,0,0,0,0,0c0,0,0,0,0,0
		c0,0,0,0,0,0c0,0,0,0,0,0c0,0,0,0,0,0c0,0,0,0,0,0c0,0,0,0,0,0c0,0,0,0,0,0c0,0,0,0,0,0c0,0,0,0,0,0c0,0,0,0,0,0c0,0,0,0,0,0
		c0,0,0,0,0,0c0,0,0,0,0,0l0,0c0,0.2,0.1,0.4,0.1,0.6c0,0,0,0,0,0c0,0,0,0,0,0v0c0,0,0,0,0,0.1c0,0,0,0,0,0c0,0,0,0,0,0c0,0,0,0,0,0
		s0,0,0,0c0,0,0,0,0,0s0,0,0,0c0,0,0,0,0,0c0,0,0,0,0,0c0,0,0,0,0,0c0,0,0,0,0,0c0,0,0,0,0,0c0,0,0,0,0,0c0,0,0,0,0,0c0,0,0,0,0,0
		c0,0,0,0,0,0c0,0,0,0,0,0c0,0.1,0,0.2,0.1,0.3l1.7-0.3C2.5,59.1,2.5,58.6,2.4,58.1L2.4,58.1z M3,61l-1.7,0.4
		c0.1,0.4,0.2,0.8,0.3,1.2c0,0,0,0,0,0c0,0,0,0,0,0c0,0,0,0,0,0s0,0,0,0c0,0,0,0,0,0c0,0,0,0,0,0c0,0.1,0,0.1,0.1,0.2l1.6-0.4
		C3.2,61.9,3.1,61.4,3,61L3,61z M3.7,63.8l-1.6,0.5c0,0,0,0.1,0,0.1v0c0,0,0,0,0,0c0,0,0,0,0,0c0,0,0,0,0,0c0,0,0,0,0,0c0,0,0,0,0,0
		c0,0,0,0,0,0c0,0,0,0,0,0c0,0,0,0,0,0c0,0,0,0,0,0c0,0,0,0,0,0c0,0,0,0,0,0c0,0,0,0,0,0c0,0,0,0,0,0c0,0,0,0,0,0c0,0,0,0,0,0
		c0,0,0,0,0,0c0,0,0,0,0,0c0,0,0,0,0,0c0,0,0,0,0,0c0,0,0,0,0,0c0,0,0,0,0,0c0.1,0.4,0.2,0.7,0.4,1.1l1.6-0.5
		C4,64.7,3.8,64.2,3.7,63.8L3.7,63.8z M4.6,66.5L3,67.1c0,0.1,0,0.1,0.1,0.2v0c0,0,0,0,0,0v0c0,0,0,0,0,0c0,0,0,0,0,0c0,0,0,0,0,0
		c0,0,0,0,0,0c0,0,0,0,0,0c0,0,0,0,0,0c0,0,0,0,0,0c0,0,0,0,0,0c0,0,0,0,0,0c0,0,0,0,0,0c0,0,0,0,0,0c0,0,0,0,0,0c0,0,0,0,0,0
		c0,0,0,0,0,0c0,0,0,0,0,0s0,0,0,0c0,0,0,0,0,0c0,0,0,0,0,0c0,0,0,0,0,0c0,0,0,0,0,0s0,0,0,0s0,0,0,0c0,0,0,0,0,0s0,0,0,0
		c0,0,0,0,0,0c0,0,0,0,0,0c0,0,0,0,0,0c0,0,0,0,0,0c0,0,0,0,0,0c0,0,0,0,0,0c0,0,0,0,0,0c0,0,0,0,0,0c0,0,0,0,0,0c0,0,0,0,0,0
		c0,0,0,0,0,0c0,0,0,0,0,0c0,0,0,0,0,0c0,0,0,0,0,0c0,0,0,0,0,0c0,0,0,0,0,0c0,0,0,0,0,0l0,0c0,0,0,0,0,0c0,0,0,0,0,0c0,0,0,0,0,0
		l0,0c0,0,0,0,0,0v0c0.1,0.2,0.2,0.4,0.3,0.7l1.6-0.6C4.9,67.4,4.8,67,4.6,66.5L4.6,66.5z M5.7,69.2l-1.6,0.7
		c0.2,0.5,0.4,0.9,0.6,1.4l1.5-0.7C6.1,70.1,5.9,69.7,5.7,69.2L5.7,69.2z M6.9,71.8l-1.5,0.8c0,0.1,0.1,0.1,0.1,0.2c0,0,0,0,0,0
		c0,0,0,0,0,0c0,0,0,0,0,0c0,0,0,0,0,0c0.2,0.4,0.4,0.8,0.6,1.1l1.5-0.8C7.3,72.7,7.1,72.3,6.9,71.8L6.9,71.8z M8.3,74.4l-1.5,0.9
		c0,0,0,0,0,0v0c0,0,0,0,0,0c0,0,0,0,0,0c0,0,0,0,0,0c0,0,0,0,0,0c0,0,0,0,0,0c0,0,0,0,0,0c0,0,0,0,0,0c0,0,0,0,0,0c0,0,0,0,0,0
		c0,0,0,0,0,0s0,0,0,0c0,0,0,0,0,0v0c0,0,0,0,0,0c0,0,0,0,0,0c0,0,0,0,0,0c0,0,0,0,0,0c0,0,0,0,0,0l0,0c0.2,0.3,0.4,0.6,0.6,1
		c0,0,0,0,0,0c0,0,0,0,0,0c0,0,0,0,0,0c0,0,0,0,0,0c0,0,0,0,0,0c0,0,0,0,0,0c0,0,0,0,0,0c0,0,0,0,0,0c0,0,0,0,0,0c0,0,0,0,0,0
		c0,0,0,0,0,0L9,75.6C8.8,75.2,8.5,74.8,8.3,74.4L8.3,74.4z M9.8,76.8l-1.4,0.9C8.7,78.2,9,78.6,9.3,79l1.4-1
		C10.4,77.6,10.1,77.2,9.8,76.8L9.8,76.8z M11.5,79.2l-1.4,1c0.2,0.3,0.4,0.5,0.6,0.8c0,0,0,0,0,0c0,0,0,0,0,0.1c0,0,0,0,0,0
		c0,0,0,0,0,0c0,0,0,0,0,0c0,0,0,0,0,0l0,0c0,0,0,0,0,0l0,0c0,0,0,0,0,0c0,0,0,0,0,0c0,0,0,0,0,0c0,0,0,0,0,0c0,0,0,0,0,0l0,0
		c0,0,0,0,0,0c0,0,0,0,0,0c0,0,0,0,0,0c0,0,0,0,0,0c0,0,0,0,0,0c0,0,0,0,0,0c0,0,0,0,0,0.1c0,0,0,0,0,0c0,0,0,0,0,0c0,0,0,0,0,0
		c0,0,0.1,0.1,0.1,0.1l1.3-1.1C12.1,80,11.8,79.6,11.5,79.2L11.5,79.2z M13.3,81.4L12,82.6c0.1,0.1,0.2,0.2,0.3,0.3c0,0,0,0,0,0
		c0,0,0,0,0,0c0,0,0,0,0,0c0,0,0,0,0,0c0,0,0,0,0,0c0,0,0,0,0,0c0,0,0,0,0,0c0,0,0,0,0,0c0,0,0,0,0,0c0,0,0,0,0,0c0,0,0,0,0,0
		c0,0,0,0,0,0c0.2,0.2,0.4,0.5,0.6,0.7l1.3-1.1C14,82.2,13.7,81.8,13.3,81.4L13.3,81.4z M15.3,83.6l-1.2,1.2
		c0.1,0.1,0.2,0.2,0.3,0.3l0,0c0,0,0,0,0,0l0,0c0,0,0,0,0,0l0,0c0,0,0,0,0,0c0,0,0,0,0,0c0,0,0,0,0,0c0,0,0,0,0,0c0,0,0,0,0,0
		c0,0,0,0,0,0c0,0,0,0,0,0c0,0,0,0,0,0c0,0,0,0,0,0c0,0,0,0,0,0c0,0,0,0,0,0c0,0,0,0,0,0c0,0,0,0,0,0c0,0,0,0,0,0c0,0,0,0,0,0
		c0,0,0,0,0,0c0,0,0,0,0,0c0,0,0,0,0,0c0,0,0,0,0,0c0,0,0,0,0,0c0,0,0,0,0,0c0,0,0,0,0,0c0,0,0,0,0,0c0,0,0,0,0,0c0,0,0,0,0,0
		c0,0,0,0,0,0c0,0,0,0,0,0c0,0,0,0,0,0c0,0,0,0,0,0c0,0,0,0,0,0c0,0,0,0,0.1,0.1l0,0c0.1,0.1,0.2,0.2,0.4,0.4l1.2-1.2
		C16,84.3,15.6,83.9,15.3,83.6L15.3,83.6z M17.4,85.6l-1.1,1.3c0,0,0.1,0.1,0.1,0.1c0,0,0,0,0,0c0,0,0,0,0,0c0,0,0,0,0,0
		c0,0,0,0,0,0c0,0,0,0,0,0c0,0,0,0,0,0c0,0,0,0,0,0c0,0,0,0,0,0c0,0,0,0,0,0c0,0,0,0,0,0c0,0,0,0,0,0c0,0,0,0,0,0
		c0.3,0.2,0.5,0.5,0.8,0.7c0,0,0,0,0,0c0,0,0,0,0,0c0,0,0,0,0,0c0,0,0,0,0,0c0,0,0,0,0,0s0,0,0,0c0,0,0,0,0,0c0,0,0,0,0,0
		c0,0,0,0,0,0c0,0,0,0,0,0c0,0,0,0,0,0l0,0l1.1-1.3C18.1,86.3,17.7,85.9,17.4,85.6L17.4,85.6z M19.6,87.5l-1.1,1.3
		c0.1,0.1,0.2,0.2,0.3,0.3l0,0c0,0,0,0,0,0h0c0,0,0,0,0,0c0,0,0,0,0,0c0,0,0,0,0,0c0,0,0,0,0,0c0,0,0,0,0,0c0,0,0,0,0,0s0,0,0,0
		c0,0,0,0,0,0c0,0,0,0,0,0c0,0,0,0,0,0c0,0,0,0,0,0c0,0,0,0,0,0c0,0,0,0,0,0c0.2,0.2,0.5,0.4,0.7,0.5l1-1.4
		C20.3,88.1,19.9,87.8,19.6,87.5L19.6,87.5z M21.9,89.3l-1,1.4c0.1,0.1,0.3,0.2,0.4,0.3c0,0,0,0,0,0c0,0,0,0,0,0c0,0,0,0,0,0
		s0,0,0,0c0,0,0,0,0,0c0,0,0,0,0,0c0,0,0,0,0,0c0,0,0,0,0,0c0,0,0,0,0,0c0,0,0,0,0,0c0,0,0,0,0,0c0,0,0,0,0,0c0,0,0,0,0,0
		c0,0,0,0,0,0c0,0,0,0,0,0l0,0c0,0,0,0,0,0l0,0c0,0,0,0,0,0l0,0c0.2,0.1,0.3,0.2,0.5,0.4l0,0c0,0,0,0,0,0c0,0,0,0,0,0c0,0,0,0,0,0
		l0,0c0,0,0,0,0,0c0,0,0,0,0,0c0,0,0,0,0,0c0,0,0,0,0,0l1-1.4C22.6,89.8,22.3,89.5,21.9,89.3L21.9,89.3z M24.3,90.9l-0.9,1.4
		c0.1,0,0.1,0.1,0.2,0.1l0,0c0,0,0,0,0,0l0,0c0,0,0,0,0,0c0,0,0,0,0,0c0,0,0,0,0,0c0,0,0,0,0,0c0,0,0,0,0,0c0,0,0,0,0,0c0,0,0,0,0,0
		c0,0,0,0,0,0c0,0,0,0,0,0c0.3,0.2,0.6,0.4,1,0.6l0.9-1.5C25.1,91.4,24.7,91.1,24.3,90.9L24.3,90.9z M26.8,92.4l-0.8,1.5
		c0.1,0.1,0.2,0.1,0.4,0.2c0,0,0,0,0,0c0,0,0,0,0.1,0c0,0,0,0,0,0c0,0,0,0,0,0c0,0,0,0,0,0c0,0,0,0,0,0c0,0,0,0,0,0c0,0,0,0,0,0
		c0,0,0,0,0,0c0,0,0,0,0,0c0,0,0,0,0,0c0,0,0,0,0,0c0,0,0,0,0,0c0,0,0,0,0,0c0,0,0,0,0,0c0,0,0,0,0,0c0,0,0,0,0,0c0,0,0,0,0,0
		c0,0,0,0,0,0c0,0,0,0,0,0c0,0,0,0,0,0c0,0,0,0,0,0c0,0,0,0,0,0c0,0,0,0,0,0c0,0,0,0,0,0c0,0,0,0,0,0c0,0,0,0,0,0c0,0,0,0,0,0
		c0,0,0,0,0,0l0,0c0,0,0,0,0,0l0,0c0,0,0,0,0,0l0,0c0.2,0.1,0.4,0.2,0.5,0.3L28,93C27.6,92.8,27.2,92.6,26.8,92.4L26.8,92.4z
		 M29.3,93.7l-0.7,1.5l0,0c0,0,0,0,0,0c0,0,0,0,0,0c0,0,0,0,0,0c0,0,0,0,0,0c0,0,0,0,0,0c0,0,0,0,0,0c0,0,0,0,0,0
		c0.2,0.1,0.4,0.2,0.6,0.3c0,0,0,0,0,0c0,0,0,0,0,0c0,0,0,0,0,0c0,0,0,0,0,0c0,0,0,0,0,0c0,0,0,0,0,0c0,0,0,0,0,0s0,0,0,0
		c0,0,0,0,0,0c0,0,0,0,0,0c0,0,0,0,0,0c0,0,0,0,0,0c0,0,0,0,0,0h0c0,0,0,0,0,0c0,0,0,0,0,0c0,0,0,0,0,0l0,0c0,0,0,0,0,0h0
		c0.2,0.1,0.3,0.1,0.5,0.2l0.7-1.6C30.2,94.1,29.8,93.9,29.3,93.7L29.3,93.7z M32,94.8l-0.6,1.6c0.3,0.1,0.5,0.2,0.8,0.3
		c0,0,0,0,0,0c0,0,0,0,0,0c0,0,0,0,0,0c0,0,0,0,0,0c0,0,0,0,0,0c0,0,0,0,0,0c0,0,0,0,0,0c0,0,0,0,0,0c0,0,0,0,0,0c0,0,0,0,0,0
		c0,0,0,0,0,0c0,0,0,0,0,0c0,0,0,0,0,0c0,0,0,0,0,0c0,0,0,0,0,0c0,0,0,0,0,0c0,0,0,0,0,0c0,0,0,0,0,0c0,0,0,0,0,0c0,0,0,0,0,0
		c0,0,0,0,0,0c0,0,0,0,0,0c0,0,0,0,0.1,0c0,0,0,0,0,0c0,0,0,0,0,0l0,0c0.1,0,0.2,0.1,0.3,0.1l0.6-1.6C32.9,95.2,32.4,95,32,94.8
		L32,94.8z M34.7,95.8l-0.5,1.6c0.1,0,0.2,0.1,0.3,0.1l0,0c0,0,0,0,0,0c0,0,0,0,0,0c0,0,0,0,0,0s0,0,0,0c0,0,0,0,0,0c0,0,0,0,0,0
		l0,0c0.3,0.1,0.7,0.2,1,0.3l0.5-1.6C35.6,96.1,35.2,96,34.7,95.8L34.7,95.8z M37.5,96.7L37,98.3c0.5,0.1,1,0.3,1.5,0.4l0.4-1.7
		C38.4,96.9,38,96.8,37.5,96.7L37.5,96.7z M40.3,97.3L40,99c0.5,0.1,1,0.2,1.5,0.3l0.3-1.7C41.3,97.5,40.8,97.4,40.3,97.3L40.3,97.3
		z M43.2,97.8l-0.2,1.7c0.1,0,0.2,0,0.3,0c0,0,0,0,0,0c0,0,0,0,0,0h0c0,0,0,0,0.1,0c0,0,0,0,0,0c0,0,0,0,0,0c0,0,0,0,0,0
		c0,0,0,0,0,0c0,0,0,0,0,0c0,0,0,0,0,0c0,0,0,0,0,0c0,0,0,0,0,0c0,0,0,0,0,0c0,0,0,0,0,0c0,0,0,0,0,0c0,0,0,0,0,0c0,0,0,0,0,0
		c0,0,0,0,0,0c0,0,0,0,0,0c0,0,0,0,0.1,0l0,0c0,0,0,0,0,0h0c0.3,0,0.5,0.1,0.8,0.1l0.2-1.7C44.1,97.9,43.6,97.9,43.2,97.8L43.2,97.8
		z M46,98.1l-0.1,1.7c0,0,0,0,0,0c0,0,0,0,0,0c0,0,0,0,0,0c0,0,0,0,0,0c0,0,0,0,0,0s0,0,0,0c0,0,0,0,0,0c0,0,0,0,0,0c0,0,0,0,0,0
		c0,0,0,0,0,0c0,0,0,0,0,0c0,0,0,0,0,0c0,0,0,0,0,0c0,0,0,0,0,0c0,0,0,0,0,0h0c0,0,0,0,0.1,0c0,0,0,0,0,0c0,0,0,0,0,0c0,0,0,0,0,0
		c0,0,0,0,0,0c0,0,0,0,0,0c0,0,0,0,0,0c0,0,0,0,0,0c0,0,0,0,0.1,0c0,0,0,0,0,0c0,0,0,0,0,0c0,0,0,0,0,0c0,0,0,0,0,0s0,0,0,0
		c0,0,0,0,0,0c0,0,0,0,0,0c0,0,0,0,0,0c0,0,0,0,0,0c0,0,0,0,0,0c0,0,0,0,0,0c0,0,0,0,0,0s0,0,0,0c0,0,0,0,0,0c0,0,0,0,0,0
		c0,0,0,0,0,0c0,0,0,0,0,0c0,0,0,0,0,0c0,0,0,0,0,0c0,0,0,0,0,0c0,0,0,0,0,0c0,0,0,0,0,0c0,0,0,0,0,0c0,0,0,0,0,0c0,0,0,0,0,0
		c0,0,0,0,0,0c0,0,0,0,0,0c0,0,0,0,0,0c0,0,0.1,0,0.1,0h0c0,0,0,0,0,0h0c0.1,0,0.2,0,0.3,0h0c0,0,0,0,0,0c0,0,0,0,0,0c0,0,0,0,0,0h0
		c0,0,0,0,0,0c0,0,0,0,0,0c0,0,0,0,0,0c0,0,0,0,0,0c0,0,0,0,0,0c0,0,0,0,0,0c0,0,0,0,0,0c0,0,0,0,0,0c0,0,0,0,0,0c0.1,0,0.2,0,0.3,0
		l0.1-1.7C47,98.2,46.5,98.2,46,98.1L46,98.1z M48.9,98.3l0,1.7c0.3,0,0.6,0,0.9,0c0,0,0,0,0,0c0,0,0,0,0,0c0,0,0,0,0,0c0,0,0,0,0,0
		c0,0,0,0,0,0c0,0,0,0,0,0c0,0,0,0,0,0c0,0,0,0,0,0c0,0,0,0,0,0c0,0,0,0,0,0c0,0,0,0,0,0c0,0,0,0,0,0c0,0,0,0,0,0c0,0,0,0,0,0
		c0,0,0,0,0,0s0,0,0,0c0,0,0,0,0,0c0,0,0,0,0,0l0,0c0,0,0,0,0,0c0,0,0,0,0,0c0,0,0,0,0,0c0,0,0,0,0,0c0,0,0,0,0,0c0,0,0,0,0,0
		c0,0,0,0,0,0h0c0,0,0,0,0,0c0,0,0,0,0,0c0,0,0,0,0,0c0,0,0,0,0,0c0,0,0,0,0,0c0,0,0,0,0,0c0,0,0,0,0,0c0,0,0,0,0,0c0,0,0,0,0,0
		c0,0,0,0,0,0c0,0,0,0,0,0c0,0,0.1,0,0.1,0l0-1.7l-0.4,0C49.6,98.3,49.3,98.3,48.9,98.3L48.9,98.3z M53.3,98.2c-0.5,0-1,0.1-1.4,0.1
		l0.1,1.7c0.1,0,0.2,0,0.3,0c0,0,0,0,0,0c0,0,0,0,0,0c0,0,0,0,0,0c0,0,0,0,0,0c0,0,0,0,0,0c0,0,0,0,0,0c0,0,0,0,0,0c0,0,0,0,0,0
		c0,0,0,0,0,0c0,0,0,0,0,0c0,0,0,0,0,0c0,0,0,0,0,0c0,0,0,0,0,0c0,0,0,0,0,0c0,0,0,0,0,0c0,0,0,0,0,0c0.1,0,0.3,0,0.4,0c0,0,0,0,0,0
		c0,0,0,0,0,0c0,0,0,0,0,0c0,0,0,0,0,0c0,0,0,0,0,0c0,0,0,0,0.1,0c0,0,0,0,0,0c0,0,0,0,0,0c0,0,0,0,0,0c0,0,0,0,0,0c0,0,0,0,0,0
		c0,0,0,0,0,0c0,0,0,0,0,0c0,0,0,0,0,0c0,0,0,0,0,0c0,0,0,0,0,0c0,0,0,0,0.1,0l0,0c0.1,0,0.3,0,0.4,0L53.3,98.2L53.3,98.2z
		 M56.2,97.9c-0.5,0.1-1,0.1-1.4,0.2l0.2,1.7c0.4,0,0.7-0.1,1.1-0.1h0c0,0,0,0,0,0c0,0,0,0,0,0c0,0,0,0,0,0c0,0,0,0,0,0c0,0,0,0,0,0
		c0,0,0,0,0,0c0,0,0,0,0,0c0,0,0,0,0,0c0,0,0,0,0,0c0.1,0,0.2,0,0.3,0L56.2,97.9L56.2,97.9z M59,97.5c-0.5,0.1-0.9,0.2-1.4,0.2
		l0.3,1.7c0,0,0,0,0,0c0,0,0,0,0,0c0,0,0,0,0,0c0,0,0,0,0,0c0,0,0,0,0,0c0,0,0,0,0,0c0,0,0,0,0,0c0,0,0,0,0,0c0,0,0,0,0,0
		c0,0,0,0,0,0c0,0,0,0,0,0c0,0,0,0,0,0c0,0,0,0,0,0c0,0,0,0,0,0c0,0,0,0,0,0c0,0,0,0,0,0c0,0,0,0,0,0c0,0,0,0,0,0c0,0,0,0,0,0
		c0,0,0,0,0,0c0,0,0,0,0,0c0,0,0,0,0,0c0,0,0,0,0,0c0,0,0,0,0,0l0,0c0,0,0,0,0,0l0,0c0,0,0,0,0,0c0,0,0,0,0,0c0,0,0,0,0,0
		c0,0,0,0,0,0c0,0,0,0,0,0c0,0,0,0,0,0c0,0,0,0,0,0c0,0,0,0,0,0c0,0,0,0,0,0c0,0,0,0,0,0c0,0,0,0,0,0c0,0,0,0,0,0c0,0,0,0,0,0
		c0,0,0,0,0,0c0,0,0,0,0,0c0,0,0,0,0,0c0,0,0,0,0,0c0,0,0,0,0,0c0,0,0,0,0,0s0,0,0,0c0,0,0,0,0,0s0,0,0,0c0,0,0,0,0,0c0,0,0,0,0,0
		c0,0,0,0,0,0c0,0,0,0,0.1,0c0,0,0,0,0,0c0,0,0,0,0,0c0,0,0,0,0,0c0,0,0,0,0,0c0,0,0,0,0,0c0.2,0,0.5-0.1,0.7-0.1L59,97.5L59,97.5z
		 M61.9,96.8c-0.5,0.1-0.9,0.2-1.4,0.3l0.4,1.7c0.1,0,0.2,0,0.3-0.1h0c0,0,0,0,0,0h0c0,0,0,0,0.1,0c0,0,0,0,0,0c0,0,0,0,0,0l0,0
		c0,0,0,0,0,0c0,0,0,0,0,0c0,0,0,0,0,0c0,0,0,0,0,0c0,0,0,0,0,0c0,0,0,0,0,0c0,0,0,0,0,0c0,0,0,0,0,0c0,0,0,0,0,0c0,0,0,0,0,0
		c0,0,0,0,0,0c0,0,0,0,0,0c0,0,0,0,0,0c0,0,0,0,0,0c0,0,0,0,0,0c0,0,0,0,0,0c0,0,0,0,0,0c0,0,0,0,0,0c0,0,0,0,0,0c0,0,0,0,0,0
		c0,0,0,0,0,0c0,0,0,0,0,0c0,0,0,0,0,0c0,0,0,0,0,0c0,0,0,0,0,0s0,0,0,0c0,0,0,0,0,0c0,0,0,0,0,0c0,0,0,0,0,0c0,0,0,0,0.1,0h0
		c0,0,0,0,0,0c0,0,0,0,0,0c0,0,0,0,0,0c0,0,0,0,0,0c0,0,0.1,0,0.1,0c0,0,0,0,0,0c0.2,0,0.4-0.1,0.5-0.1L61.9,96.8L61.9,96.8z
		 M64.6,96c-0.5,0.1-0.9,0.3-1.4,0.4l0.5,1.6c0.1,0,0.2,0,0.3-0.1h0c0,0,0,0,0.1,0h0c0,0,0,0,0,0c0,0,0,0,0,0c0,0,0,0,0,0
		c0,0,0,0,0,0c0,0,0,0,0,0c0,0,0,0,0,0c0,0,0,0,0,0c0,0,0,0,0,0c0,0,0,0,0,0c0,0,0,0,0,0c0,0,0,0,0,0c0,0,0,0,0,0c0,0,0,0,0,0
		c0,0,0,0,0,0c0,0,0,0,0,0c0,0,0,0,0,0c0,0,0,0,0,0c0,0,0,0,0,0c0,0,0,0,0,0c0,0,0,0,0,0c0,0,0,0,0,0c0,0,0,0,0,0c0,0,0,0,0,0
		c0,0,0,0,0,0h0c0,0,0,0,0,0c0,0,0,0,0,0c0,0,0,0,0,0c0,0,0,0,0,0c0,0,0,0,0.1,0l0,0c0,0,0,0,0,0h0c0,0,0.1,0,0.1,0c0,0,0,0,0,0
		c0,0,0,0,0,0l0,0c0,0,0,0,0,0h0c0,0,0,0,0,0c0,0,0,0,0,0c0,0,0,0,0,0c0,0,0,0,0,0c0,0,0,0,0,0c0,0,0,0,0,0c0,0,0,0,0,0c0,0,0,0,0,0
		c0,0,0,0,0,0c0,0,0,0,0,0s0,0,0,0c0,0,0,0,0,0c0,0,0,0,0,0c0,0,0,0,0,0c0,0,0,0,0,0c0.1,0,0.2-0.1,0.3-0.1L64.6,96L64.6,96z
		 M67.4,95.1c-0.4,0.2-0.9,0.3-1.4,0.5l0.6,1.6c0.3-0.1,0.6-0.2,1-0.3c0,0,0,0,0,0c0,0,0,0,0,0c0,0,0,0,0,0c0,0,0,0,0,0c0,0,0,0,0,0
		c0,0,0,0,0,0c0.1,0,0.3-0.1,0.4-0.1L67.4,95.1L67.4,95.1z M70.1,94c-0.4,0.2-0.9,0.4-1.3,0.6l0.7,1.6c0.2-0.1,0.4-0.2,0.6-0.3l0,0
		c0,0,0.1,0,0.1,0c0,0,0,0,0,0c0,0,0,0,0,0c0,0,0,0,0,0c0,0,0,0,0.1,0c0,0,0,0,0,0c0,0,0,0,0,0c0,0,0,0,0,0c0,0,0,0,0,0l0,0
		c0,0,0,0,0,0c0,0,0,0,0,0c0,0,0,0,0,0c0,0,0,0,0,0c0,0,0,0,0,0c0,0,0,0,0,0c0,0,0,0,0,0c0,0,0,0,0,0c0,0,0,0,0,0c0,0,0,0,0,0
		c0,0,0,0,0,0c0,0,0,0,0,0c0,0,0,0,0,0c0,0,0,0,0,0c0,0,0,0,0,0c0,0,0,0,0,0c0,0,0,0,0,0c0,0,0,0,0,0c0,0,0,0,0,0c0,0,0,0,0,0h0
		c0.1,0,0.2-0.1,0.2-0.1L70.1,94L70.1,94z M72.6,92.7c-0.4,0.2-0.9,0.4-1.3,0.7l0.8,1.5c0.4-0.2,0.9-0.4,1.3-0.7L72.6,92.7
		L72.6,92.7z M75.2,91.2c-0.4,0.3-0.8,0.5-1.2,0.7l0.8,1.5c0.4-0.2,0.7-0.4,1.1-0.6c0,0,0,0,0,0c0,0,0,0,0,0l0,0c0,0,0,0,0,0
		c0,0,0,0,0,0c0,0,0,0,0,0c0,0,0,0,0,0c0,0,0,0,0,0c0,0,0,0,0,0c0,0,0,0,0,0c0,0,0,0,0,0l0,0c0,0,0,0,0,0l0,0c0,0,0,0,0,0L75.2,91.2
		L75.2,91.2z M77.6,89.6c-0.4,0.3-0.8,0.5-1.2,0.8l0.9,1.4c0.1,0,0.1-0.1,0.2-0.1c0,0,0,0,0,0c0,0,0,0,0,0c0,0,0,0,0,0c0,0,0,0,0,0
		c0,0,0,0,0,0c0,0,0,0,0,0c0,0,0,0,0,0c0,0,0,0,0,0c0,0,0,0,0,0c0,0,0,0,0,0c0.3-0.2,0.7-0.4,1-0.7L77.6,89.6L77.6,89.6z M79.9,87.9
		c-0.4,0.3-0.8,0.6-1.2,0.9l1,1.4c0.1,0,0.1-0.1,0.2-0.1c0,0,0,0,0,0c0,0,0,0,0.1,0c0,0,0,0,0,0c0,0,0,0,0,0c0,0,0,0,0,0
		c0,0,0,0,0,0c0,0,0,0,0,0c0,0,0,0,0,0c0,0,0,0,0,0c0,0,0,0,0,0c0,0,0,0,0,0c0,0,0,0,0,0c0,0,0,0,0,0c0,0,0,0,0,0c0,0,0,0,0,0
		c0,0,0,0,0,0c0,0,0,0,0,0c0,0,0,0,0,0c0,0,0,0,0,0c0,0,0,0,0,0c0,0,0,0,0,0c0,0,0,0,0,0c0,0,0,0,0,0c0,0,0,0,0,0c0,0,0,0,0,0
		c0,0,0,0,0,0c0,0,0,0,0,0c0,0,0,0,0,0c0,0,0,0,0,0c0,0,0,0,0,0c0,0,0,0,0.1,0c0,0,0,0,0,0c0,0,0,0,0,0c0,0,0,0,0,0
		c0.2-0.2,0.4-0.3,0.6-0.5L79.9,87.9L79.9,87.9z M82.1,86.1c-0.4,0.3-0.7,0.6-1.1,0.9l1.1,1.3c0.3-0.2,0.5-0.4,0.7-0.6l0,0
		c0,0,0,0,0,0l0,0c0,0,0,0,0,0l0,0c0,0,0,0,0,0l0,0c0,0,0,0,0,0c0,0,0,0,0,0c0,0,0,0,0,0c0,0,0,0,0,0c0,0,0,0,0,0
		c0.1-0.1,0.2-0.2,0.3-0.3L82.1,86.1L82.1,86.1z M84.2,84.1c-0.3,0.3-0.7,0.7-1,1l1.2,1.2c0.3-0.3,0.6-0.6,0.9-0.8l0,0c0,0,0,0,0,0
		l0,0c0,0,0,0,0,0c0,0,0,0,0,0c0,0,0,0,0,0c0,0,0,0,0,0c0,0,0,0,0,0c0,0,0,0,0,0c0,0,0,0,0,0c0,0,0,0,0,0c0,0,0,0,0,0c0,0,0,0,0,0
		c0,0,0,0,0,0c0,0,0.1-0.1,0.1-0.1L84.2,84.1L84.2,84.1z M86.2,82c-0.3,0.4-0.6,0.7-1,1.1l1.2,1.2c0,0,0,0,0,0c0,0,0,0,0,0
		c0,0,0,0,0,0c0,0,0,0,0,0c0,0,0,0,0,0c0,0,0,0,0,0l0,0c0.2-0.2,0.4-0.4,0.5-0.6l0,0c0,0,0,0,0,0c0,0,0,0,0,0c0,0,0,0,0,0l0,0
		c0,0,0,0,0,0c0,0,0,0,0,0c0,0,0,0,0,0c0,0,0,0,0,0c0,0,0,0,0,0c0,0,0,0,0,0c0,0,0,0,0,0c0,0,0,0,0,0c0,0,0,0,0,0c0,0,0,0,0,0
		c0,0,0,0,0,0c0,0,0,0,0,0c0,0,0,0,0,0c0,0,0,0,0,0c0,0,0,0,0,0c0,0,0,0,0,0c0,0,0,0,0,0c0,0,0,0,0,0c0,0,0,0,0,0c0,0,0,0,0,0
		c0,0,0,0,0,0c0,0,0,0,0,0c0,0,0,0,0,0c0,0,0,0,0,0c0,0,0,0,0,0c0,0,0,0,0,0c0,0,0,0,0,0c0,0,0,0,0,0c0,0,0,0,0,0c0,0,0,0,0,0
		c0,0,0,0,0,0c0,0,0,0,0,0c0,0,0,0,0,0c0,0,0,0,0,0c0,0,0,0,0,0c0,0,0,0,0,0c0,0,0,0,0,0l0,0c0,0,0,0,0.1-0.1L86.2,82L86.2,82z
		 M88.1,79.7c-0.3,0.4-0.6,0.8-0.9,1.1l1.3,1.1c0,0,0,0,0,0c0,0,0,0,0,0c0,0,0,0,0,0c0,0,0,0,0,0c0,0,0,0,0,0c0,0,0,0,0,0l0,0
		c0,0,0,0,0,0c0,0,0,0,0,0c0,0,0,0,0,0c0,0,0,0,0,0c0,0,0,0,0,0l0,0c0,0,0,0,0,0c0,0,0,0,0,0c0,0,0,0,0,0c0,0,0,0,0,0c0,0,0,0,0,0
		l0,0c0,0,0,0,0,0c0,0,0,0,0,0c0,0,0,0,0,0c0,0,0,0,0,0c0,0,0,0,0,0l0,0c0,0,0,0,0,0c0,0,0,0,0,0c0,0,0,0,0,0l0,0c0,0,0,0,0-0.1l0,0
		c0,0,0,0,0,0l0,0c0.2-0.2,0.4-0.5,0.6-0.8L88.1,79.7L88.1,79.7z M89.8,77.4c-0.3,0.4-0.6,0.8-0.8,1.2l1.4,1l0,0
		c0.3-0.4,0.5-0.7,0.8-1.1c0,0,0,0,0,0c0,0,0,0,0,0c0,0,0,0,0,0c0,0,0,0,0,0c0,0,0,0,0,0c0,0,0,0,0,0c0,0,0,0,0-0.1L89.8,77.4
		L89.8,77.4z M91.4,75c-0.2,0.4-0.5,0.8-0.8,1.2l1.4,0.9c0.3-0.4,0.5-0.8,0.8-1.3L91.4,75L91.4,75z M92.8,72.4
		c-0.2,0.4-0.5,0.9-0.7,1.3l1.5,0.8c0.1-0.1,0.1-0.2,0.2-0.3v0c0,0,0,0,0,0c0,0,0,0,0,0c0,0,0,0,0,0c0,0,0,0,0,0c0,0,0,0,0,0
		c0,0,0,0,0,0c0,0,0,0,0,0c0,0,0,0,0,0c0,0,0,0,0,0c0,0,0,0,0,0c0,0,0,0,0,0s0,0,0,0s0,0,0,0c0,0,0,0,0,0c0,0,0,0,0,0c0,0,0,0,0,0
		c0,0,0,0,0,0c0,0,0,0,0,0c0,0,0,0,0,0c0,0,0,0,0,0c0,0,0,0,0,0c0,0,0,0,0,0c0,0,0,0,0,0c0,0,0,0,0,0c0,0,0,0,0,0c0,0,0,0,0,0
		c0,0,0,0,0,0c0,0,0,0,0,0c0,0,0,0,0,0c0,0,0,0,0,0c0,0,0,0,0,0c0,0,0,0,0,0c0,0,0,0,0,0c0,0,0,0,0,0c0,0,0,0,0,0c0,0,0,0,0,0
		c0,0,0,0,0,0c0,0,0,0,0,0c0,0,0,0,0,0c0,0,0,0,0,0c0,0,0,0,0,0c0,0,0,0,0,0c0,0,0,0,0,0c0,0,0,0,0,0c0,0,0,0,0,0c0,0,0,0,0,0
		c0,0,0,0,0,0c0,0,0,0,0,0c0,0,0,0,0,0c0,0,0,0,0,0c0,0,0,0,0,0c0,0,0,0,0,0c0,0,0,0,0,0c0,0,0,0,0,0c0,0,0,0,0,0c0,0,0,0,0,0
		c0,0,0,0,0,0c0,0,0,0,0,0c0,0,0,0,0,0c0,0,0,0,0,0c0,0,0,0,0,0c0,0,0,0,0,0c0-0.1,0.1-0.2,0.1-0.3L92.8,72.4L92.8,72.4z M94.1,69.8
		c-0.2,0.4-0.4,0.9-0.6,1.3l1.5,0.7c0,0,0-0.1,0.1-0.1v0c0,0,0,0,0,0c0,0,0,0,0,0c0,0,0,0,0,0c0,0,0,0,0,0c0,0,0,0,0,0c0,0,0,0,0,0
		c0,0,0,0,0,0c0,0,0,0,0,0l0,0c0.1-0.3,0.3-0.6,0.4-0.9l0,0c0,0,0,0,0,0c0,0,0,0,0,0c0,0,0,0,0,0c0,0,0,0,0,0c0,0,0,0,0,0
		c0,0,0,0,0,0c0,0,0,0,0,0c0,0,0,0,0,0c0,0,0,0,0,0c0,0,0-0.1,0.1-0.1L94.1,69.8L94.1,69.8z M95.2,67.1c-0.2,0.5-0.3,0.9-0.5,1.3
		l1.6,0.7c0.1-0.1,0.1-0.3,0.2-0.4v0c0,0,0,0,0,0l0,0c0,0,0,0,0,0c0,0,0,0,0,0c0,0,0,0,0,0c0,0,0,0,0,0s0,0,0,0c0,0,0,0,0,0
		c0,0,0,0,0,0c0,0,0,0,0,0c0,0,0,0,0,0c0,0,0,0,0,0c0,0,0,0,0,0c0,0,0,0,0,0c0,0,0,0,0,0c0,0,0,0,0,0l0,0c0,0,0,0,0,0l0,0
		c0,0,0,0,0,0l0,0c0,0,0,0,0,0v0c0-0.1,0-0.1,0.1-0.2v0c0,0,0-0.1,0-0.1l0,0c0,0,0,0,0,0v0c0,0,0,0,0-0.1c0,0,0,0,0,0c0,0,0,0,0,0
		c0,0,0,0,0,0c0,0,0,0,0,0c0,0,0,0,0,0c0,0,0,0,0,0c0,0,0,0,0,0c0,0,0,0,0,0c0,0,0,0,0,0c0,0,0,0,0,0c0,0,0,0,0,0c0,0,0,0,0,0
		c0,0,0,0,0,0c0,0,0,0,0,0c0,0,0,0,0,0c0,0,0,0,0,0c0,0,0,0,0,0c0,0,0,0,0,0c0,0,0,0,0,0c0,0,0,0,0,0c0,0,0,0,0,0c0,0,0,0,0,0
		c0,0,0,0,0-0.1l0,0c0,0,0,0,0,0L95.2,67.1L95.2,67.1z M96.1,64.4c-0.1,0.5-0.3,0.9-0.5,1.4l1.6,0.6c0-0.1,0.1-0.2,0.1-0.3v0
		c0,0,0,0,0,0c0,0,0,0,0,0c0,0,0,0,0,0c0,0,0,0,0,0c0,0,0,0,0,0c0,0,0,0,0,0c0,0,0,0,0,0c0,0,0,0,0,0c0,0,0,0,0,0s0,0,0,0
		c0,0,0,0,0,0c0,0,0,0,0,0c0,0,0,0,0,0c0,0,0,0,0,0c0,0,0,0,0,0c0,0,0,0,0,0c0,0,0,0,0,0c0,0,0,0,0,0c0,0,0,0,0,0c0,0,0,0,0,0
		c0,0,0,0,0,0c0,0,0,0,0,0c0,0,0,0,0,0c0,0,0,0,0,0c0,0,0,0,0,0c0,0,0,0,0,0c0,0,0,0,0,0c0,0,0,0,0,0c0,0,0,0,0,0c0,0,0,0,0,0
		c0,0,0,0,0,0c0,0,0,0,0,0c0,0,0,0,0,0c0,0,0,0,0,0c0,0,0,0,0,0c0,0,0,0,0,0l0,0c0,0,0,0,0,0c0,0,0,0,0,0c0,0,0,0,0,0c0,0,0,0,0,0
		c0,0,0,0,0,0c0,0,0,0,0,0c0,0,0,0,0,0c0,0,0,0,0,0c0,0,0,0,0,0c0,0,0,0,0,0c0,0,0,0,0,0c0,0,0,0,0,0c0,0,0,0,0,0c0,0,0,0,0,0
		s0,0,0,0c0,0,0,0,0,0c0,0,0,0,0,0c0,0,0,0,0,0c0,0,0,0,0,0c0,0,0,0,0,0c0,0,0,0,0,0c0,0,0,0,0,0c0,0,0,0,0,0c0-0.1,0.1-0.2,0.1-0.4
		L96.1,64.4L96.1,64.4z M96.9,61.6c-0.1,0.5-0.2,0.9-0.4,1.4l1.6,0.5c0.1-0.2,0.1-0.4,0.2-0.6l0,0c0,0,0,0,0,0l0,0c0,0,0,0,0,0
		c0,0,0,0,0,0c0,0,0,0,0,0c0,0,0,0,0,0c0,0,0,0,0,0c0,0,0,0,0,0c0,0,0,0,0,0s0,0,0,0c0,0,0,0,0,0c0,0,0,0,0,0c0,0,0,0,0,0
		c0,0,0,0,0,0c0,0,0,0,0,0c0,0,0,0,0,0c0,0,0,0,0,0c0,0,0,0,0-0.1l0,0c0,0,0,0,0,0c0,0,0,0,0,0c0,0,0,0,0,0c0,0,0,0,0,0
		c0,0,0-0.1,0-0.1c0,0,0,0,0,0c0,0,0-0.1,0-0.1l0,0c0,0,0-0.1,0-0.1c0,0,0,0,0,0c0,0,0,0,0,0c0,0,0,0,0,0c0,0,0,0,0,0c0,0,0,0,0,0
		c0,0,0,0,0,0c0,0,0,0,0,0s0,0,0,0c0,0,0,0,0,0c0,0,0,0,0,0c0,0,0,0,0,0c0,0,0,0,0,0c0,0,0,0,0-0.1l0,0c0,0,0,0,0,0L96.9,61.6
		L96.9,61.6z M97.5,58.8c-0.1,0.5-0.2,1-0.3,1.4l1.7,0.4c0-0.1,0.1-0.2,0.1-0.4c0,0,0,0,0,0c0,0,0,0,0,0c0,0,0,0,0,0c0,0,0,0,0,0
		c0,0,0,0,0,0c0,0,0,0,0,0c0,0,0,0,0,0l0,0c0,0,0,0,0,0l0,0c0,0,0,0,0,0c0,0,0,0,0,0c0,0,0,0,0,0c0,0,0,0,0,0c0-0.2,0.1-0.4,0.1-0.5
		l0,0c0,0,0,0,0,0c0,0,0,0,0,0c0,0,0,0,0,0c0,0,0,0,0,0c0,0,0,0,0,0c0,0,0,0,0,0c0,0,0,0,0,0c0,0,0,0,0,0s0,0,0,0s0,0,0,0
		c0,0,0,0,0,0c0,0,0,0,0,0v0c0-0.1,0-0.2,0.1-0.3L97.5,58.8L97.5,58.8z M97.9,55.9c-0.1,0.5-0.1,1-0.2,1.4l1.7,0.3
		c0-0.2,0-0.3,0.1-0.5v0c0,0,0,0,0-0.1c0,0,0,0,0,0c0,0,0,0,0,0c0,0,0,0,0,0s0,0,0,0c0,0,0,0,0,0c0,0,0,0,0,0c0,0,0,0,0,0
		c0,0,0,0,0,0c0-0.3,0.1-0.6,0.1-0.9L97.9,55.9L97.9,55.9z M98.2,53c0,0.5-0.1,1-0.1,1.4l1.7,0.2c0-0.1,0-0.1,0-0.2v0c0,0,0,0,0,0
		c0,0,0,0,0,0c0,0,0,0,0,0c0,0,0,0,0,0c0,0,0,0,0,0c0,0,0,0,0,0c0,0,0,0,0,0c0,0,0,0,0,0c0,0,0,0,0,0c0-0.4,0.1-0.8,0.1-1.2L98.2,53
		L98.2,53z M98.3,50.1c0,0.5,0,1,0,1.5l1.7,0.1c0-0.5,0-1,0-1.5L98.3,50.1L98.3,50.1z M99.9,47.1l-1.7,0.1c0,0.5,0,1,0.1,1.4l1.7,0
		c0-0.2,0-0.4,0-0.6c0,0,0,0,0,0s0,0,0,0c0,0,0,0,0,0s0,0,0,0s0,0,0,0c0,0,0,0,0,0c0,0,0,0,0,0c0,0,0,0,0,0c0,0,0,0,0,0v0
		c0,0,0,0,0,0c0,0,0,0,0,0c0,0,0,0,0,0l0,0C99.9,47.6,99.9,47.4,99.9,47.1L99.9,47.1z M99.7,44.2L98,44.4c0.1,0.5,0.1,1,0.1,1.4
		l1.7-0.1C99.8,45.2,99.7,44.7,99.7,44.2L99.7,44.2z M99.2,41.2l-1.7,0.3c0.1,0.5,0.2,1,0.2,1.4l1.7-0.2c0-0.1,0-0.2-0.1-0.4
		c0,0,0,0,0,0c0,0,0,0,0,0c0,0,0,0,0,0c0,0,0,0,0,0c0,0,0,0,0,0c0,0,0,0,0,0c0,0,0,0,0,0c0,0,0,0,0,0c0,0,0,0,0,0c0,0,0,0,0,0
		c0,0,0,0,0,0c0,0,0,0,0,0c0,0,0,0,0,0c0,0,0,0,0,0c0,0,0,0,0,0c0,0,0,0,0,0c0,0,0,0,0,0c0,0,0,0,0,0c0,0,0,0,0,0c0,0,0,0,0,0
		c0,0,0,0,0,0c0,0,0,0,0,0c0,0,0,0,0,0c0,0,0,0,0,0c0,0,0,0,0,0c0,0,0,0,0,0c0,0,0,0,0,0c0,0,0,0,0,0c0,0,0,0,0,0c0,0,0,0,0,0
		s0,0,0,0c0,0,0,0,0,0c0,0,0,0,0,0c0,0,0,0,0,0s0,0,0,0c0,0,0,0,0,0c0,0,0,0,0,0c0,0,0,0,0,0c0,0,0,0,0,0c0,0,0,0,0,0c0,0,0,0,0,0
		c0,0,0,0,0,0c0,0,0,0,0,0c0,0,0,0,0,0c0,0,0,0,0-0.1l0,0c0,0,0,0,0,0c0,0,0,0,0,0c0,0,0,0,0,0c0,0,0,0,0,0
		C99.3,41.5,99.3,41.4,99.2,41.2L99.2,41.2z M98.6,38.3L97,38.7c0.1,0.5,0.2,0.9,0.3,1.4l1.7-0.3c0-0.1,0-0.2,0-0.2v0c0,0,0,0,0,0
		c0,0,0,0,0,0c0,0,0,0,0,0s0,0,0,0c0,0,0,0,0,0c0,0,0,0,0,0c0,0,0,0,0,0c-0.1-0.3-0.1-0.6-0.2-0.8c0,0,0,0,0,0c0,0,0,0,0,0
		c0,0,0,0,0,0c0,0,0,0,0,0s0,0,0,0c0,0,0,0,0,0c0,0,0,0,0,0c0,0,0,0,0,0c0,0,0,0,0,0c0,0,0,0,0,0c0,0,0,0,0,0l0,0
		C98.6,38.4,98.6,38.3,98.6,38.3L98.6,38.3z M97.8,35.4l-1.6,0.5c0.1,0.5,0.3,0.9,0.4,1.4l1.6-0.4c0,0,0,0,0-0.1c0,0,0,0,0,0
		c0,0,0,0,0,0s0,0,0,0c0,0,0,0,0,0c0,0,0,0,0,0c0,0,0,0,0,0c-0.1-0.3-0.2-0.6-0.3-0.9c0,0,0,0,0,0c0,0,0,0,0,0c0,0,0,0,0,0
		c0,0,0,0,0,0c0,0,0,0,0,0c0,0,0,0,0,0c0,0,0,0,0,0c0,0,0,0,0,0c0,0,0,0,0,0l0,0c0,0,0,0,0,0c0,0,0,0,0,0c0,0,0,0,0,0c0,0,0,0,0,0
		C97.9,35.6,97.9,35.5,97.8,35.4L97.8,35.4z M96.9,32.5l-1.6,0.6c0.2,0.5,0.3,0.9,0.5,1.4l1.6-0.5c-0.1-0.3-0.2-0.6-0.3-0.9l0,0
		c0,0,0,0,0,0c0,0,0,0,0,0c0,0,0,0,0,0c0,0,0,0,0,0c0,0,0,0,0-0.1c0,0,0,0,0,0c0,0,0,0,0,0c0,0,0,0,0,0c0,0,0,0,0,0c0,0,0,0,0,0
		c0,0,0,0,0,0c0,0,0,0,0,0c0,0,0,0,0,0c0,0,0,0,0,0c0,0,0,0,0,0s0,0,0,0s0,0,0,0c0,0,0,0,0,0c0,0,0,0,0,0c0,0,0,0,0,0c0,0,0,0,0,0
		c0,0,0,0,0,0c0,0,0,0,0,0c0,0,0,0,0,0l0,0C96.9,32.7,96.9,32.6,96.9,32.5L96.9,32.5z M95.7,29.7l-1.6,0.7c0.2,0.4,0.4,0.9,0.6,1.3
		l1.6-0.6l0,0c0,0,0,0,0,0c0,0,0,0,0,0c0,0,0,0,0,0c0,0,0,0,0,0c0,0,0,0,0,0c0,0,0,0,0,0c0,0,0,0,0,0c0,0,0,0,0,0
		C96.1,30.6,95.9,30.2,95.7,29.7L95.7,29.7z M94.4,27l-1.5,0.8c0.2,0.4,0.4,0.9,0.6,1.3l1.5-0.7C94.9,27.9,94.7,27.5,94.4,27
		L94.4,27C94.4,27.1,94.4,27.1,94.4,27C94.4,27.1,94.4,27.1,94.4,27C94.4,27,94.4,27,94.4,27L94.4,27z M93,24.4l-1.5,0.9
		c0.2,0.4,0.5,0.8,0.7,1.3l1.5-0.8c-0.2-0.4-0.4-0.7-0.6-1.1c0,0,0,0,0,0c0,0,0,0,0,0c0,0,0,0,0,0c0,0,0,0,0,0c0,0,0,0,0,0
		c0,0,0,0,0,0c0,0,0,0,0,0c0,0,0,0,0,0C93,24.5,93,24.5,93,24.4C93,24.5,93,24.5,93,24.4C93,24.5,93,24.5,93,24.4
		C93,24.5,93,24.5,93,24.4C93,24.5,93,24.4,93,24.4L93,24.4z M91.4,21.9l-1.4,1c0.3,0.4,0.5,0.8,0.8,1.2l1.4-0.9c0,0,0-0.1-0.1-0.1
		c0,0,0,0,0,0c0,0,0,0,0,0c0,0,0,0,0,0c0,0,0,0,0,0c0,0,0,0,0,0c0,0,0,0,0,0c0,0,0,0,0,0c0,0,0,0,0,0c0,0,0,0,0,0c0,0,0,0,0,0
		c0,0,0,0,0,0c0,0,0,0,0,0c0,0,0,0,0,0c0,0,0,0,0,0c0,0,0,0,0,0c0,0,0,0,0,0c0,0,0,0,0,0c0,0,0,0,0,0c0,0,0,0,0,0c0,0,0,0,0,0
		c0,0,0,0,0,0c0,0,0,0,0,0c0,0,0,0,0,0c0,0,0,0,0,0c0,0,0,0,0,0c0,0,0,0,0,0c0,0,0,0,0,0c0,0,0,0,0,0c0,0,0,0,0,0c0,0,0,0,0-0.1
		c0,0,0,0,0,0c-0.1-0.1-0.1-0.2-0.2-0.3l0,0c0,0,0,0,0-0.1c0,0,0,0,0,0c0,0,0,0,0,0c0,0,0,0,0,0c0,0,0,0,0,0c0,0,0,0,0,0
		c0,0,0,0,0,0c0,0,0,0,0,0c0,0,0,0,0,0c0,0,0,0,0,0c0,0,0,0,0,0C91.5,22.1,91.4,22,91.4,21.9L91.4,21.9z M89.6,19.5l-1.3,1
		c0.3,0.4,0.6,0.8,0.9,1.2l1.4-1c-0.1-0.2-0.3-0.4-0.4-0.6v0c0,0,0,0,0,0c0,0,0,0,0,0c0,0,0,0,0-0.1c0,0,0,0,0,0c0,0,0,0,0,0
		c0,0,0,0,0,0c0,0,0,0,0,0c0,0,0,0,0,0c0,0,0,0,0,0c0,0,0,0,0,0c0,0,0,0,0,0c0,0,0,0,0,0c0,0,0,0,0,0c0,0,0,0,0,0c0,0,0,0,0,0
		c0,0,0,0,0,0c0,0,0,0,0,0c0,0,0,0,0,0c0,0,0,0,0,0c0,0,0,0,0,0c0,0,0,0,0,0c0,0,0,0,0,0c0,0,0,0,0,0c0,0,0,0,0,0c0,0,0,0,0,0
		c0,0,0,0,0,0c0,0,0,0,0,0c0,0,0,0,0,0c0,0,0,0,0,0c0,0,0,0,0,0c0,0,0,0,0,0c0,0,0,0,0,0c0,0,0,0,0,0c0,0,0,0,0,0l0,0c0,0,0,0,0-0.1
		l0,0C89.7,19.6,89.6,19.5,89.6,19.5L89.6,19.5z M87.7,17.1l-1.3,1.1c0.3,0.4,0.6,0.7,0.9,1.1l1.3-1.1c0,0,0,0-0.1-0.1c0,0,0,0,0,0
		c0,0,0,0,0,0c0,0,0,0,0,0c0,0,0,0,0,0c0,0,0,0,0,0l0,0c0,0,0,0,0,0l0,0c-0.1-0.1-0.2-0.2-0.2-0.3l0,0c0,0,0,0,0,0l0,0c0,0,0,0,0,0
		c0,0,0,0,0,0c0,0,0,0,0,0c0,0,0,0,0,0c0,0,0,0,0,0c0,0,0,0,0,0c0,0,0,0,0,0c0,0,0,0,0,0c0,0,0,0,0,0c0,0,0,0,0,0c0,0,0,0,0,0
		c0,0,0,0,0,0c0,0,0,0,0,0C88,17.5,87.9,17.4,87.7,17.1L87.7,17.1C87.8,17.2,87.7,17.2,87.7,17.1C87.7,17.2,87.7,17.2,87.7,17.1
		C87.7,17.2,87.7,17.2,87.7,17.1C87.7,17.2,87.7,17.2,87.7,17.1C87.7,17.2,87.7,17.2,87.7,17.1C87.7,17.2,87.7,17.2,87.7,17.1
		C87.7,17.2,87.7,17.2,87.7,17.1C87.7,17.2,87.7,17.1,87.7,17.1C87.7,17.1,87.7,17.1,87.7,17.1L87.7,17.1z M85.7,14.9l-1.2,1.2
		c0.3,0.3,0.7,0.7,1,1l1.2-1.2c0,0-0.1-0.1-0.1-0.1c0,0,0,0,0,0c0,0,0,0,0,0l0,0c0,0,0,0,0,0c0,0,0,0,0,0c0,0,0,0,0,0c0,0,0,0,0,0
		c0,0,0,0,0,0c0,0,0,0,0,0c0,0,0,0,0,0c0,0,0,0,0,0c0,0,0,0,0,0c0,0,0,0,0,0c0,0,0,0,0,0c0,0,0,0,0,0l0,0c0,0,0,0,0,0l0,0
		c0,0,0,0,0,0l0,0c0,0,0,0,0,0l0,0c0,0,0,0,0,0c0,0,0,0,0,0c0,0,0,0,0,0c0,0,0,0,0,0c0,0,0,0,0,0c0,0,0,0,0,0c0,0,0,0,0,0
		c0,0,0,0,0,0c0,0,0,0,0,0c0,0,0,0,0,0c0,0,0,0,0,0c0,0,0,0,0,0c0,0,0,0,0,0s0,0,0,0c0,0,0,0,0,0c0,0,0,0,0,0c0,0,0,0,0,0
		c0,0,0,0,0,0c0,0,0,0,0,0c0,0,0,0,0-0.1l0,0C86,15.3,85.8,15.1,85.7,14.9L85.7,14.9z M83.5,12.9l-1.1,1.3c0.4,0.3,0.7,0.7,1.1,1
		l1.2-1.2C84.2,13.5,83.9,13.2,83.5,12.9L83.5,12.9z M81.2,10.9l-1.1,1.3c0.4,0.3,0.8,0.6,1.1,0.9l1.1-1.3c0,0,0,0,0,0c0,0,0,0,0,0
		c0,0,0,0,0,0c0,0,0,0,0,0c0,0,0,0,0,0c0,0,0,0,0,0c0,0,0,0,0,0c0,0,0,0,0,0c0,0,0,0,0,0c0,0,0,0,0,0l0,0c0,0,0,0,0,0l0,0
		c0,0,0,0,0,0l0,0c-0.3-0.2-0.6-0.5-0.9-0.7l0,0c0,0,0,0,0,0c0,0,0,0,0,0c0,0,0,0,0,0l0,0C81.3,11,81.3,11,81.2,10.9
		C81.3,11,81.3,11,81.2,10.9C81.3,11,81.3,11,81.2,10.9C81.3,11,81.3,11,81.2,10.9C81.3,11,81.3,11,81.2,10.9
		C81.3,11,81.3,11,81.2,10.9C81.2,11,81.2,11,81.2,10.9C81.2,11,81.2,10.9,81.2,10.9L81.2,10.9z M78.8,9.1l-1,1.4
		c0.4,0.3,0.8,0.6,1.2,0.9l1-1.4C79.6,9.7,79.2,9.4,78.8,9.1L78.8,9.1z M76.3,7.5l-0.9,1.4c0.4,0.3,0.8,0.5,1.2,0.8l0.9-1.4
		c-0.2-0.1-0.3-0.2-0.5-0.3l0,0c0,0,0,0,0,0c0,0,0,0,0,0c0,0,0,0,0,0c0,0,0,0,0,0c0,0,0,0,0,0c0,0,0,0,0,0c0,0,0,0,0,0c0,0,0,0,0,0
		c0,0,0,0,0,0c0,0,0,0,0,0s0,0,0,0c0,0,0,0,0,0c0,0,0,0,0,0c0,0,0,0,0,0c0,0,0,0,0,0c0,0,0,0,0,0c0,0,0,0,0,0c0,0,0,0,0,0
		c0,0,0,0,0,0c0,0,0,0,0,0c0,0,0,0,0,0c0,0,0,0,0,0c0,0,0,0,0,0c0,0,0,0,0,0l0,0c0,0,0,0,0,0l0,0C76.6,7.6,76.4,7.6,76.3,7.5
		L76.3,7.5z M73.7,6l-0.8,1.5c0.4,0.2,0.8,0.5,1.3,0.7L75,6.7c-0.3-0.2-0.6-0.4-0.9-0.5c0,0,0,0,0,0c0,0,0,0,0,0c0,0,0,0,0,0
		c0,0,0,0,0,0c0,0,0,0,0,0c0,0,0,0,0,0c0,0,0,0,0,0c0,0,0,0,0,0c0,0,0,0,0,0c0,0,0,0,0,0c0,0,0,0,0,0c0,0,0,0,0,0c0,0,0,0,0,0
		c0,0,0,0,0,0c0,0,0,0,0,0l0,0C73.8,6,73.8,6,73.7,6L73.7,6z M71,4.6l-0.7,1.5c0.4,0.2,0.9,0.4,1.3,0.6l0.8-1.5c0,0,0,0,0,0
		c0,0,0,0,0,0s0,0,0,0c0,0,0,0,0,0c0,0,0,0,0,0s0,0,0,0c0,0,0,0,0,0c0,0,0,0,0,0c0,0,0,0,0,0c0,0,0,0,0,0c0,0,0,0,0,0c0,0,0,0,0,0
		c0,0,0,0,0,0c0,0,0,0,0,0c0,0,0,0-0.1,0c0,0,0,0,0,0c-0.3-0.2-0.7-0.3-1-0.5h0C71.1,4.7,71.1,4.7,71,4.6C71.1,4.7,71.1,4.7,71,4.6
		C71.1,4.7,71.1,4.7,71,4.6C71.1,4.7,71.1,4.7,71,4.6C71.1,4.7,71.1,4.7,71,4.6C71.1,4.6,71.1,4.6,71,4.6C71.1,4.6,71.1,4.6,71,4.6
		C71.1,4.6,71,4.6,71,4.6L71,4.6z M68.3,3.4L67.6,5c0.4,0.2,0.9,0.4,1.3,0.6L69.7,4C69.2,3.8,68.7,3.6,68.3,3.4L68.3,3.4z M65.4,2.4
		L64.9,4c0.5,0.1,0.9,0.3,1.4,0.5l0.6-1.6C66.4,2.7,65.9,2.6,65.4,2.4L65.4,2.4z M62.6,1.6l-0.4,1.6c0.5,0.1,0.9,0.2,1.4,0.4L64,2
		c0,0,0,0,0,0c0,0,0,0,0,0s0,0,0,0c0,0,0,0,0,0c0,0,0,0,0,0c0,0,0,0,0,0c0,0,0,0,0,0c0,0,0,0,0,0l0,0c-0.2-0.1-0.5-0.1-0.7-0.2
		c0,0,0,0,0,0c0,0,0,0,0,0c0,0,0,0,0,0c0,0,0,0,0,0h0c0,0,0,0,0,0c0,0,0,0,0,0c0,0,0,0,0,0c0,0,0,0,0,0c0,0,0,0,0,0c0,0,0,0,0,0
		c0,0,0,0,0,0s0,0,0,0s0,0,0,0c0,0,0,0,0,0c0,0,0,0,0,0c0,0,0,0,0,0c0,0,0,0,0,0c0,0,0,0,0,0c0,0,0,0,0,0c0,0,0,0-0.1,0l0,0
		c0,0,0,0,0,0c0,0,0,0,0,0C62.8,1.6,62.7,1.6,62.6,1.6L62.6,1.6z M59.6,0.9l-0.3,1.7c0.5,0.1,0.9,0.2,1.4,0.3l0.4-1.7
		c-0.1,0-0.2,0-0.3-0.1c0,0,0,0,0,0c0,0,0,0,0,0c0,0,0,0,0,0c0,0,0,0,0,0c0,0,0,0,0,0c0,0,0,0,0,0c0,0,0,0,0,0c0,0,0,0,0,0
		c0,0,0,0,0,0c0,0,0,0,0,0c0,0,0,0,0,0c0,0,0,0,0,0c0,0,0,0,0,0c0,0,0,0,0,0C60.3,1.1,60,1,59.6,0.9L59.6,0.9z M56.7,0.4l-0.2,1.7
		c0.5,0.1,1,0.1,1.4,0.2l0.3-1.7c-0.1,0-0.1,0-0.2,0c0,0,0,0,0,0c0,0,0,0,0,0c0,0,0,0,0,0c0,0,0,0,0,0c0,0,0,0,0,0c0,0,0,0,0,0
		c0,0,0,0,0,0c0,0,0,0,0,0c0,0,0,0,0,0c0,0,0,0,0,0c0,0,0,0,0,0c0,0,0,0,0,0c0,0,0,0,0,0c0,0,0,0,0,0c0,0,0,0,0,0c0,0,0,0,0,0
		c0,0,0,0-0.1,0c0,0,0,0,0,0c0,0,0,0,0,0c0,0,0,0,0,0c0,0,0,0,0,0l0,0c0,0-0.1,0-0.1,0l0,0C57.3,0.5,57,0.5,56.7,0.4L56.7,0.4z
		 M53.7,0.1l-0.1,1.7c0.5,0,1,0.1,1.4,0.1l0.2-1.7c0,0,0,0,0,0c0,0,0,0,0,0c0,0,0,0,0,0c0,0,0,0,0,0c0,0,0,0,0,0c0,0,0,0,0,0
		c0,0,0,0,0,0l0,0c0,0-0.1,0-0.1,0h0c0,0,0,0,0,0h0C54.6,0.2,54.1,0.2,53.7,0.1L53.7,0.1z M50.7,0l0,1.7c0.5,0,1,0,1.4,0L52.2,0
		C51.7,0,51.2,0,50.7,0L50.7,0z"/>
</g>
</svg>
