<?xml version="1.0" encoding="utf-8"?>
<!-- Generator: Adobe Illustrator 21.0.0, SVG Export Plug-In . SVG Version: 6.00 Build 0)  -->
<svg version="1.1" id="Layer_1" xmlns="http://www.w3.org/2000/svg" xmlns:xlink="http://www.w3.org/1999/xlink" x="0px" y="0px"
	 viewBox="0 0 60 200" style="enable-background:new 0 0 60 200;" xml:space="preserve">
<style type="text/css">
	.st0{fill:#ECF0F1;}
	.st1{fill:none;stroke:#000000;stroke-width:1.5;stroke-linecap:round;stroke-linejoin:round;}
</style>
<g>
	<g id="XMLID_59_">
		<g>
			<path class="st0" d="M52,95.5l0.1,4.5l-0.1,4.5l-0.3,4.5l-0.5,4.4l-0.7,4.3l-0.9,4.1l-1,4l-1.2,3.8l-1.4,3.5l-1.5,3.3l-1.6,3
				l-1.8,2.7l-1.9,2.4l-2,2.1l-2.1,1.7l-2.1,1.4l-2.2,1l-2.2,0.6l-2.2,0.2l-2.3-0.2l-2.2-0.6l-2.2-1l-2.1-1.4l-2.1-1.7l-2-2.1
				l-1.9-2.4l-1.8-2.7l-1.6-3L6.8,133l-1.4-3.5l-1.2-3.8l-1-4l-0.9-4.1l-0.7-4.3l-0.5-4.4l-0.3-4.5L0.8,100l0.1-4.5l0.3-4.5l0.5-4.4
				l0.7-4.3l0.9-4.1l1-4l1.2-3.8L6.8,67l1.5-3.3l1.6-3l1.8-2.7l1.9-2.4l2-2.1l2.1-1.7l2.1-1.4l2.2-1l2.2-0.6l2.3-0.2l2.2,0.2
				l2.2,0.6l2.2,1l2.1,1.4l2.1,1.7l2,2.1l1.9,2.4l1.8,2.7l1.6,3l1.5,3.3l1.4,3.5l1.2,3.8l1,4l0.9,4.1l0.7,4.3l0.5,4.4L52,95.5z
				 M32.5,100l0-1.1l-0.1-1l-0.1-1l-0.2-1l-0.2-1L31.7,94l-0.3-0.9l-0.3-0.8l-0.4-0.8l-0.4-0.7L30,90.3l-0.1-0.1l-0.5-0.6L29,89.1
				l-0.5-0.4L28,88.3l-0.5-0.2L27,88l-0.5-0.1L25.9,88l-0.5,0.1l-0.5,0.2l-0.5,0.3l-0.5,0.4l-0.5,0.5L23,90.1l-0.4,0.6l-0.4,0.7
				l-0.4,0.8l-0.3,0.8L21.2,94L21,94.9l-0.2,1l-0.2,1l-0.1,1l-0.1,1l0,1.1l0,1.1l0.1,1l0.1,1l0.2,1l0.2,1l0.2,0.9l0.3,0.9l0.3,0.8
				l0.4,0.8l0.4,0.7l0.4,0.6l0.5,0.6l0.5,0.5l0.5,0.4l0.5,0.3l0.5,0.2l0.5,0.1l0.5,0l0.5,0l0.5-0.1l0.5-0.2l0.5-0.3l0.5-0.4l0.5-0.5
				l0.5-0.6l0.1-0.2l0.3-0.5l0.4-0.7l0.4-0.8l0.3-0.8l0.3-0.9l0.2-0.9l0.2-1l0.2-1l0.1-1l0.1-1L32.5,100z"/>
		</g>
		<g>
			<polyline class="st1" points="26.4,48.6 33.5,48.6 35.8,48.8 38,49.4 40.2,50.4 42.3,51.7 44.4,53.4 46.4,55.5 48.3,57.9 
				50.1,60.7 51.7,63.7 53.2,67 54.6,70.5 55.8,74.3 56.8,78.3 57.7,82.4 58.4,86.7 58.8,91.1 59.1,95.5 59.2,100 59.1,104.5 
				58.8,108.9 58.4,113.3 57.7,117.6 56.8,121.7 55.8,125.7 54.6,129.5 53.2,133 51.7,136.3 50.1,139.3 48.3,142.1 46.4,144.5 
				44.4,146.5 42.3,148.3 40.2,149.6 38,150.6 35.8,151.2 33.5,151.4 26.4,151.4 24.2,151.2 22,150.6 19.8,149.6 17.7,148.3 
				15.6,146.5 13.6,144.5 11.7,142.1 9.9,139.3 8.3,136.3 6.8,133 5.4,129.5 4.2,125.7 3.2,121.7 2.3,117.6 1.6,113.3 1.1,108.9 
				0.8,104.5 0.8,100 0.8,95.5 1.1,91.1 1.6,86.7 2.3,82.4 3.2,78.3 4.2,74.3 5.4,70.5 6.8,67 8.3,63.7 9.9,60.7 11.7,57.9 
				13.6,55.5 15.6,53.4 17.7,51.7 19.8,50.4 22,49.4 24.2,48.8 26.4,48.6 28.7,48.8 30.9,49.4 33.1,50.4 35.2,51.7 37.3,53.4 
				39.3,55.5 41.2,57.9 42.9,60.7 44.6,63.7 46.1,67 47.5,70.5 48.7,74.3 49.7,78.3 50.6,82.4 51.2,86.7 51.7,91.1 52,95.5 
				52.1,100 52,104.5 51.7,108.9 51.2,113.3 50.6,117.6 49.7,121.7 48.7,125.7 47.5,129.5 46.1,133 44.6,136.3 42.9,139.3 
				41.2,142.1 39.3,144.5 37.3,146.5 35.2,148.3 33.1,149.6 30.9,150.6 28.7,151.2 26.4,151.4 			"/>
			<polyline class="st1" points="32.4,97.9 32.4,98.9 32.5,100 32.4,101.1 32.4,102.1 32.3,103.1 32.1,104.1 31.9,105.1 31.7,106 
				31.4,106.9 31.1,107.7 30.7,108.5 30.3,109.2 30,109.7 29.9,109.9 29.4,110.5 29,110.9 28.5,111.3 28,111.6 27.5,111.9 27,112 
				26.4,112.1 25.9,112 25.4,111.9 24.9,111.6 24.4,111.3 23.9,110.9 23.4,110.5 23,109.9 22.6,109.2 22.2,108.5 21.8,107.7 
				21.5,106.9 21.2,106 21,105.1 20.8,104.1 20.6,103.1 20.5,102.1 20.4,101.1 20.4,100 20.4,98.9 20.5,97.9 20.6,96.9 20.8,95.9 
				21,94.9 21.2,94 21.5,93.1 21.8,92.2 22.2,91.5 22.6,90.7 23,90.1 23.4,89.5 23.9,89.1 24.4,88.7 24.9,88.3 25.4,88.1 25.9,88 
				26.4,87.9 27,88 27.5,88.1 28,88.3 28.5,88.7 29,89.1 29.4,89.5 29.9,90.1 30,90.3 30.3,90.7 30.7,91.5 31.1,92.2 31.4,93.1 
				31.7,94 31.9,94.9 32.1,95.9 32.3,96.9 32.4,97.9 			"/>
			<polyline class="st1" points="30,109.7 29.7,109.2 29.3,108.5 28.9,107.7 28.6,106.9 28.3,106 28.1,105.1 27.9,104.1 27.7,103.1 
				27.6,102.1 27.5,101.1 27.5,100 27.5,98.9 27.6,97.9 27.7,96.9 27.9,95.9 28.1,94.9 28.3,94 28.6,93.1 28.9,92.2 29.3,91.5 
				29.7,90.7 30,90.3 			"/>
		</g>
	</g>
</g>
</svg>
