<?xml version="1.0" encoding="utf-8"?>
<!-- Generator: Adobe Illustrator 21.0.0, SVG Export Plug-In . SVG Version: 6.00 Build 0)  -->
<svg version="1.1" id="Layer_1" xmlns="http://www.w3.org/2000/svg" xmlns:xlink="http://www.w3.org/1999/xlink" x="0px" y="0px"
	 viewBox="0 0 122.5 200" style="enable-background:new 0 0 122.5 200;" xml:space="preserve">
<style type="text/css">
	.st0{fill:#ECF0F1;}
	.st1{fill:none;stroke:#000000;stroke-width:1.5;stroke-linecap:round;stroke-linejoin:round;}
</style>
<g>
	<g id="XMLID_46_">
		<g>
			<polygon class="st0" points="114.8,121.1 114.4,120.9 113.9,120.7 113.5,120.4 113,120 112.6,119.6 112.2,119.2 111.8,118.8 
				111.4,118.3 111,117.8 110.6,117.2 110.2,116.6 109.9,116 109.5,115.3 109.2,114.6 108.9,113.9 108.6,113.2 108.3,112.4 
				108,111.7 107.8,110.8 107.6,110 107.4,109.2 107.2,108.3 107,107.4 106.9,106.5 106.7,105.6 106.6,104.7 106.5,103.8 
				106.4,102.8 106.4,101.9 106.4,100.9 106.3,100 106.4,99.1 106.4,98.1 106.4,97.2 106.5,96.2 106.6,95.3 106.7,94.4 106.9,93.5 
				107,92.6 107.2,91.7 107.4,90.8 107.6,90 107.8,89.1 108,88.3 108.3,87.6 108.6,86.8 108.9,86.1 109.2,85.3 109.5,84.7 109.9,84 
				110.2,83.4 110.6,82.8 111,82.2 111.4,81.7 111.8,81.2 112.2,80.8 112.6,80.4 113,80 113.5,79.6 113.9,79.3 114.4,79 114.8,78.8 
				115.3,78.7 115.8,78.5 116.2,78.4 116.7,78.3 117.2,78.3 117.2,95 117.1,95 117,95 116.9,95 116.7,95 116.6,95 116.5,95 
				116.4,95 116.3,95 116.2,95 116,95 115.9,95 115.7,95 115.6,95 115.4,95 115.3,95 115.1,95 114.9,95 114.7,95 114.7,95.4 
				114.7,95.8 114.7,96.1 114.7,96.5 114.7,96.8 114.7,97.1 114.7,97.4 114.7,97.7 114.7,97.9 114.7,98.2 114.7,98.4 114.7,98.6 
				114.7,98.9 114.7,99.1 114.7,99.3 114.7,99.6 114.7,99.8 114.7,100 114.7,100.2 114.7,100.4 114.7,100.7 114.7,100.9 
				114.7,101.1 114.7,101.3 114.7,101.6 114.7,101.8 114.7,102.1 114.7,102.3 114.7,102.6 114.7,102.9 114.7,103.2 114.7,103.5 
				114.7,103.8 114.7,104.2 114.7,104.6 114.7,105 114.9,105 115.1,105 115.3,105 115.4,105 115.6,105 115.7,105 115.9,105 116,105 
				116.2,105 116.3,105 116.4,105 116.5,105 116.6,105 116.7,105 116.9,105 117,105 117.1,105 117.2,105 117.2,121.7 116.7,121.7 
				116.2,121.6 115.8,121.5 115.3,121.3 			"/>
			<polygon class="st0" points="88.1,129.8 87.4,129.3 86.8,128.9 86.2,128.3 85.6,127.7 85,127 84.4,126.3 83.8,125.6 83.3,124.8 
				82.7,123.9 82.2,123 81.8,122.1 81.3,121.1 80.8,120.1 80.4,119 80,117.9 79.6,116.8 79.3,115.6 78.9,114.4 78.6,113.2 
				78.4,111.9 78.1,110.7 77.9,109.4 77.8,108.6 91.2,104.9 91.1,102.3 92.5,102.3 92.5,102.3 92.6,102.3 92.6,102.3 92.7,102.4 
				92.7,102.4 92.8,102.4 92.8,121.7 92.8,131.2 92.1,131.2 91.4,131.1 90.7,131 90.1,130.7 89.4,130.5 88.8,130.2 			"/>
			<polygon class="st0" points="87.4,70.7 88.1,70.2 88.8,69.8 89.4,69.5 90.1,69.2 90.7,69 91.4,68.9 92.1,68.8 92.8,68.8 
				92.8,78.3 92.8,97.6 92.7,97.6 92.7,97.6 92.6,97.6 92.6,97.7 92.5,97.7 92.5,97.7 92.4,97.7 92.4,97.7 92.3,97.8 92.3,97.8 
				92.2,97.9 92.2,97.9 92.1,98 92.1,98 92.1,98.1 92,98.2 92,98.2 92,98.3 91.9,98.4 91.9,98.4 91.8,98.5 91.8,98.6 91.8,98.7 
				91.8,98.8 91.7,98.9 91.7,99 91.7,99.1 91.7,99.2 91.6,99.3 91.6,99.4 91.6,99.5 91.6,99.6 91.6,99.7 91.6,99.8 91.6,99.9 
				91.6,100 91.6,100.1 91.6,100.2 91.6,100.3 91.6,100.4 91.6,100.5 91.6,100.6 91.6,100.7 91.7,100.8 91.7,100.9 91.7,101 
				91.7,101.1 91.8,101.2 91.8,101.3 91.8,101.4 91.8,101.5 91.9,101.5 91.9,101.6 92,101.7 92,101.7 92,101.8 92.1,101.9 
				92.1,101.9 92.1,102 92.2,102.1 92.2,102.1 92.3,102.2 92.3,102.2 92.4,102.2 92.4,102.3 92.5,102.3 91.1,102.3 90.9,102.3 
				90.9,102.3 90.8,102.2 90.8,102.2 90.7,102.2 90.7,102.1 90.6,102.1 90.6,102 90.5,101.9 90.5,101.9 90.5,101.8 90.4,101.7 
				90.4,101.7 90.3,101.6 90.3,101.5 90.3,101.5 90.2,101.4 90.2,101.3 90.2,101.2 90.2,101.1 90.1,101 90.1,100.9 90.1,100.8 
				90.1,100.7 90.1,100.6 90,100.5 90,100.4 90,100.3 90,100.2 90,100.1 90,100 90,99.9 90,99.8 90,99.7 90,99.6 90,99.5 90.1,99.4 
				90.1,99.3 90.1,99.2 90.1,99.1 90.1,99 90.2,98.9 90.2,98.8 90.2,98.7 90.2,98.6 90.3,98.5 90.3,98.4 90.3,98.4 90.4,98.3 
				90.4,98.2 90.5,98.2 90.5,98.1 90.5,98 90.6,98 90.6,97.9 90.7,97.9 90.7,97.8 90.8,97.8 90.8,97.7 90.9,97.7 90.9,97.7 
				91.1,97.6 91.2,95.1 77.8,91.4 77.9,90.6 78.1,89.3 78.4,88 78.6,86.8 78.9,85.6 79.3,84.4 79.6,83.2 80,82.1 80.4,81 80.8,79.9 
				81.3,78.9 81.8,77.9 82.2,77 82.7,76.1 83.3,75.2 83.8,74.4 84.4,73.7 85,72.9 85.6,72.3 86.2,71.7 86.8,71.1 			"/>
			<polygon class="st0" points="45.5,102.3 45.6,102.8 45.6,103.4 45.7,103.9 45.8,104.5 45.9,105 46,105.5 46.1,106.1 46.3,106.6 
				46.4,107.1 46.6,107.5 46.8,108 46.9,108.5 47.1,108.9 47.3,109.3 47.6,109.7 47.8,110.1 48,110.4 48.2,110.8 48.4,111.1 
				48.7,111.4 49,111.7 49.2,111.9 49.5,112.1 49.7,112.4 50,112.5 50.3,112.7 50.6,112.8 50.8,112.9 51.1,113 51.4,113.1 
				51.7,113.1 52,113.2 52,115.7 52,126.2 51.4,126.2 50.8,126.1 50.3,126 49.7,125.8 49.1,125.6 48.6,125.3 48,125 47.5,124.6 
				47,124.2 46.4,123.7 45.9,123.3 45.4,122.7 44.9,122.1 44.5,121.5 44,120.8 43.6,120.1 43.1,119.3 42.7,118.5 42.3,117.7 
				42,116.8 41.6,115.9 41.3,115 40.9,114.1 40.6,113.1 40.4,112.1 40.1,111.1 39.9,110 39.7,109 39.5,107.9 39.3,106.8 39.2,105.7 
				39.1,104.6 39,103.4 38.9,102.3 38.9,101.1 38.9,100 38.9,98.9 38.9,97.7 39,96.6 39.1,95.4 39.2,94.3 39.3,93.2 39.5,92.1 
				39.7,91 39.9,90 40.1,88.9 40.4,87.9 40.6,86.9 40.9,85.9 41.3,85 41.6,84 42,83.1 42.3,82.3 42.7,81.5 43.1,80.7 43.6,79.9 
				44,79.2 44.5,78.5 44.9,77.9 45.4,77.3 45.9,76.7 46.4,76.2 47,75.8 47.5,75.4 48,75 48.6,74.7 49.1,74.4 49.7,74.2 50.3,74 
				50.8,73.9 51.4,73.8 52,73.8 52,84.3 52,86.8 51.7,86.8 51.4,86.9 51.1,86.9 50.8,87 50.6,87.2 50.3,87.3 50,87.5 49.7,87.6 
				49.5,87.8 49.2,88.1 49,88.3 48.7,88.6 48.4,88.9 48.2,89.2 48,89.6 47.8,89.9 47.6,90.3 47.3,90.7 47.1,91.1 46.9,91.5 46.8,92 
				46.6,92.4 46.4,92.9 46.3,93.4 46.1,93.9 46,94.4 45.9,95 45.8,95.5 45.7,96 45.6,96.6 45.6,97.1 45.5,97.7 45.5,98.3 45.4,98.8 
				45.4,99.4 45.4,100 45.4,100.6 45.4,101.1 45.5,101.7 			"/>
			<polygon class="st0" points="45.8,148 44.8,147.7 43.7,147.3 42.7,146.8 41.7,146.2 40.7,145.5 39.7,144.7 38.7,143.9 
				37.8,142.9 36.9,141.9 35.9,140.8 35.1,139.7 34.2,138.4 33.4,137.1 32.6,135.7 31.9,134.2 31.1,132.7 30.4,131.1 29.9,129.8 
				49,129.8 49,131.2 49,148.4 47.9,148.4 46.8,148.2 			"/>
			<polygon class="st0" points="44.8,52.3 45.8,52 46.8,51.8 47.9,51.6 49,51.6 49,68.8 49,70.2 29.9,70.2 30.4,68.9 31.1,67.3 
				31.9,65.8 32.6,64.3 33.4,62.9 34.2,61.6 35.1,60.3 35.9,59.2 36.9,58.1 37.8,57.1 38.7,56.1 39.7,55.3 40.7,54.5 41.7,53.8 
				42.7,53.2 43.7,52.7 			"/>
		</g>
		<g>
			<polyline class="st1" points="91.1,102.3 52,113.2 51.7,113.1 51.4,113.1 51.1,113 50.8,112.9 50.6,112.8 50.3,112.7 50,112.5 
				49.7,112.4 49.5,112.1 49.2,111.9 49,111.7 48.7,111.4 48.4,111.1 48.2,110.8 48,110.4 47.8,110.1 47.6,109.7 47.3,109.3 
				47.1,108.9 46.9,108.5 46.8,108 46.6,107.5 46.4,107.1 46.3,106.6 46.1,106.1 46,105.5 45.9,105 45.8,104.5 45.7,103.9 
				45.6,103.4 45.6,102.8 45.5,102.3 45.5,101.7 45.4,101.1 45.4,100.6 45.4,100 45.4,99.4 45.4,98.8 45.5,98.3 45.5,97.7 
				45.6,97.1 45.6,96.6 45.7,96 45.8,95.5 45.9,95 46,94.4 46.1,93.9 46.3,93.4 46.4,92.9 46.6,92.4 46.8,92 46.9,91.5 47.1,91.1 
				47.3,90.7 47.6,90.3 47.8,89.9 48,89.6 48.2,89.2 48.4,88.9 48.7,88.6 49,88.3 49.2,88.1 49.5,87.8 49.7,87.6 50,87.5 50.3,87.3 
				50.6,87.2 50.8,87 51.1,86.9 51.4,86.9 51.7,86.8 52,86.8 91.1,97.6 			"/>
			<polyline class="st1" points="121.7,44.4 121.7,78.3 121.7,95 			"/>
			<polyline class="st1" points="121.7,155.6 92.8,155.6 91.6,155.5 90.4,155.4 89.2,155.1 88,154.7 86.8,154.3 85.6,153.7 
				84.4,153 83.3,152.2 82.1,151.3 81.1,150.4 80,149.3 79.2,148.4 			"/>
			<line class="st1" x1="117.2" y1="121.7" x2="94.1" y2="121.7"/>
			<line class="st1" x1="94.1" y1="78.3" x2="117.2" y2="78.3"/>
			<polyline class="st1" points="92.8,102.4 92.8,121.7 92.8,131.2 			"/>
			<line class="st1" x1="94.1" y1="102.4" x2="94.1" y2="121.7"/>
			<line class="st1" x1="94.1" y1="78.3" x2="94.1" y2="97.6"/>
			<polyline class="st1" points="49,148.4 49,131.2 49,129.8 			"/>
			<line class="st1" x1="117.2" y1="105" x2="117.2" y2="121.7"/>
			<polyline class="st1" points="121.7,105 121.7,121.7 121.7,155.6 			"/>
			<line class="st1" x1="117.2" y1="78.3" x2="117.2" y2="95"/>
			<line class="st1" x1="53.8" y1="126.2" x2="53.8" y2="115.2"/>
			<line class="st1" x1="53.8" y1="84.8" x2="53.8" y2="73.8"/>
			<polyline class="st1" points="52,126.2 52,115.7 52,113.2 			"/>
			<polyline class="st1" points="92.8,68.8 92.8,78.3 92.8,97.6 			"/>
			<polyline class="st1" points="91.2,95.1 91.1,97.6 90.9,97.7 90.9,97.7 90.8,97.7 90.8,97.8 90.7,97.8 90.7,97.9 90.6,97.9 
				90.6,98 90.5,98 90.5,98.1 90.5,98.2 90.4,98.2 90.4,98.3 90.3,98.4 90.3,98.4 90.3,98.5 90.2,98.6 90.2,98.7 90.2,98.8 
				90.2,98.9 90.1,99 90.1,99.1 90.1,99.2 90.1,99.3 90.1,99.4 90,99.5 90,99.6 90,99.7 90,99.8 90,99.9 90,100 90,100.1 90,100.2 
				90,100.3 90,100.4 90,100.5 90.1,100.6 90.1,100.7 90.1,100.8 90.1,100.9 90.1,101 90.2,101.1 90.2,101.2 90.2,101.3 90.2,101.4 
				90.3,101.5 90.3,101.5 90.3,101.6 90.4,101.7 90.4,101.7 90.5,101.8 90.5,101.9 90.5,101.9 90.6,102 90.6,102.1 90.7,102.1 
				90.7,102.2 90.8,102.2 90.8,102.2 90.9,102.3 90.9,102.3 91.1,102.3 91.2,104.9 			"/>
			<polyline class="st1" points="52,86.8 52,84.3 52,73.8 			"/>
			<polyline class="st1" points="53.8,126.2 52,126.2 51.4,126.2 50.8,126.1 50.3,126 49.7,125.8 49.1,125.6 48.6,125.3 48,125 
				47.5,124.6 47,124.2 46.4,123.7 45.9,123.3 45.4,122.7 44.9,122.1 44.5,121.5 44,120.8 43.6,120.1 43.1,119.3 42.7,118.5 
				42.3,117.7 42,116.8 41.6,115.9 41.3,115 40.9,114.1 40.6,113.1 40.4,112.1 40.1,111.1 39.9,110 39.7,109 39.5,107.9 39.3,106.8 
				39.2,105.7 39.1,104.6 39,103.4 38.9,102.3 38.9,101.1 38.9,100 38.9,98.9 38.9,97.7 39,96.6 39.1,95.4 39.2,94.3 39.3,93.2 
				39.5,92.1 39.7,91 39.9,90 40.1,88.9 40.4,87.9 40.6,86.9 40.9,85.9 41.3,85 41.6,84 42,83.1 42.3,82.3 42.7,81.5 43.1,80.7 
				43.6,79.9 44,79.2 44.5,78.5 44.9,77.9 45.4,77.3 45.9,76.7 46.4,76.2 47,75.8 47.5,75.4 48,75 48.6,74.7 49.1,74.4 49.7,74.2 
				50.3,74 50.8,73.9 51.4,73.8 52,73.8 53.8,73.8 			"/>
			<polyline class="st1" points="50.5,127.9 49,127.9 15.6,127.9 15,127.9 14.4,127.8 13.8,127.6 13.2,127.4 12.6,127.2 12,126.9 
				11.4,126.6 10.9,126.2 10.3,125.8 9.7,125.3 9.2,124.7 8.7,124.2 8.1,123.5 7.6,122.8 7.1,122.1 6.7,121.3 6.2,120.5 5.8,119.7 
				5.4,118.8 5,117.9 4.6,117 4.2,116 3.9,115 3.6,113.9 3.3,112.9 3,111.8 2.8,110.7 2.5,109.5 2.3,108.4 2.2,107.2 2,106 
				1.9,104.8 1.8,103.6 1.7,102.4 1.7,101.2 1.7,100 1.7,98.8 1.7,97.6 1.8,96.4 1.9,95.2 2,94 2.2,92.8 2.3,91.6 2.5,90.5 
				2.8,89.3 3,88.2 3.3,87.1 3.6,86 3.9,85 4.2,84 4.6,83 5,82.1 5.4,81.2 5.8,80.3 6.2,79.4 6.7,78.6 7.1,77.9 7.6,77.2 8.1,76.5 
				8.7,75.8 9.2,75.3 9.7,74.7 10.3,74.2 10.9,73.8 11.4,73.4 12,73.1 12.6,72.8 13.2,72.5 13.8,72.4 14.4,72.2 15,72.1 15.6,72.1 
				49,72.1 50.5,72.1 			"/>
			<polyline class="st1" points="49,70.2 49,68.8 49,51.6 			"/>
			<polyline class="st1" points="29.9,70.2 30.4,68.9 31.1,67.3 31.9,65.8 32.6,64.3 33.4,62.9 34.2,61.6 35.1,60.3 35.9,59.2 
				36.9,58.1 37.8,57.1 38.7,56.1 39.7,55.3 40.7,54.5 41.7,53.8 42.7,53.2 43.7,52.7 44.8,52.3 45.8,52 46.8,51.8 47.9,51.6 
				49,51.6 79.2,51.6 92.8,51.6 92.8,44.4 			"/>
			<polyline class="st1" points="94,102.4 92.8,102.4 92.7,102.4 92.7,102.4 92.6,102.3 92.6,102.3 92.5,102.3 92.5,102.3 
				92.4,102.3 92.4,102.2 92.3,102.2 92.3,102.2 92.2,102.1 92.2,102.1 92.1,102 92.1,101.9 92.1,101.9 92,101.8 92,101.7 92,101.7 
				91.9,101.6 91.9,101.5 91.8,101.5 91.8,101.4 91.8,101.3 91.8,101.2 91.7,101.1 91.7,101 91.7,100.9 91.7,100.8 91.6,100.7 
				91.6,100.6 91.6,100.5 91.6,100.4 91.6,100.3 91.6,100.2 91.6,100.1 91.6,100 91.6,99.9 91.6,99.8 91.6,99.7 91.6,99.6 
				91.6,99.5 91.6,99.4 91.6,99.3 91.7,99.2 91.7,99.1 91.7,99 91.7,98.9 91.8,98.8 91.8,98.7 91.8,98.6 91.8,98.5 91.9,98.4 
				91.9,98.4 92,98.3 92,98.2 92,98.2 92.1,98.1 92.1,98 92.1,98 92.2,97.9 92.2,97.9 92.3,97.8 92.3,97.8 92.4,97.7 92.4,97.7 
				92.5,97.7 92.5,97.7 92.6,97.7 92.6,97.6 92.7,97.6 92.7,97.6 92.8,97.6 94.1,97.6 94.1,97.6 94.1,97.6 			"/>
			<polyline class="st1" points="94.1,102.4 94.1,102.4 94.1,102.4 			"/>
			<polyline class="st1" points="79.2,51.6 80,50.7 81.1,49.6 82.1,48.6 83.3,47.8 84.4,47 85.6,46.3 86.8,45.7 88,45.3 89.2,44.9 
				90.4,44.6 91.6,44.5 92.8,44.4 121.7,44.4 			"/>
			<polyline class="st1" points="121.7,105 120.7,105 119.2,105 117.2,105 117.1,105 117,105 116.9,105 116.7,105 116.6,105 
				116.5,105 116.4,105 116.3,105 116.2,105 116,105 115.9,105 115.7,105 115.6,105 115.4,105 115.3,105 115.1,105 114.9,105 
				114.7,105 			"/>
			<polyline class="st1" points="77.8,108.6 77.9,109.4 78.1,110.7 78.4,111.9 78.6,113.2 78.9,114.4 79.3,115.6 79.6,116.8 
				80,117.9 80.4,119 80.8,120.1 81.3,121.1 81.8,122.1 82.2,123 82.7,123.9 83.3,124.8 83.8,125.6 84.4,126.3 85,127 85.6,127.7 
				86.2,128.3 86.8,128.9 87.4,129.3 88.1,129.8 88.8,130.2 89.4,130.5 90.1,130.7 90.7,131 91.4,131.1 92.1,131.2 92.8,131.2 			
				"/>
			<polyline class="st1" points="77.8,91.4 77.9,90.6 78.1,89.3 78.4,88 78.6,86.8 78.9,85.6 79.3,84.4 79.6,83.2 80,82.1 80.4,81 
				80.8,79.9 81.3,78.9 81.8,77.9 82.2,77 82.7,76.1 83.3,75.2 83.8,74.4 84.4,73.7 85,72.9 85.6,72.3 86.2,71.7 86.8,71.1 
				87.4,70.7 88.1,70.2 88.8,69.8 89.4,69.5 90.1,69.2 90.7,69 91.4,68.9 92.1,68.8 92.8,68.8 			"/>
			<polyline class="st1" points="92.8,68.8 50.5,68.8 50.5,72.1 49.9,72.1 49.3,72.2 48.7,72.4 48.1,72.5 47.5,72.8 46.9,73.1 
				46.3,73.4 45.7,73.8 45.2,74.2 44.6,74.7 44.1,75.3 43.5,75.8 43,76.5 42.5,77.2 42,77.9 41.5,78.6 41.1,79.4 40.6,80.3 
				40.2,81.2 39.8,82.1 39.5,83 39.1,84 38.8,85 38.4,86 38.2,87.1 37.9,88.2 37.6,89.3 37.4,90.5 37.2,91.6 37,92.8 36.9,94 
				36.8,95.2 36.7,96.4 36.6,97.6 36.6,98.8 36.6,100 36.6,101.2 36.6,102.4 36.7,103.6 36.8,104.8 36.9,106 37,107.2 37.2,108.4 
				37.4,109.5 37.6,110.7 37.9,111.8 38.2,112.9 38.4,113.9 38.8,115 39.1,116 39.5,117 39.8,117.9 40.2,118.8 40.6,119.7 
				41.1,120.5 41.5,121.3 42,122.1 42.5,122.8 43,123.5 43.5,124.2 44.1,124.7 44.6,125.3 45.2,125.8 45.7,126.2 46.3,126.6 
				46.9,126.9 47.5,127.2 48.1,127.4 48.7,127.6 49.3,127.8 49.9,127.9 50.2,127.9 50.5,127.9 50.5,131.2 92.8,131.2 			"/>
			<polyline class="st1" points="117.2,78.3 116.7,78.3 116.2,78.4 115.8,78.5 115.3,78.7 114.8,78.8 114.4,79 113.9,79.3 
				113.5,79.6 113,80 112.6,80.4 112.2,80.8 111.8,81.2 111.4,81.7 111,82.2 110.6,82.8 110.2,83.4 109.9,84 109.5,84.7 109.2,85.3 
				108.9,86.1 108.6,86.8 108.3,87.6 108,88.3 107.8,89.1 107.6,90 107.4,90.8 107.2,91.7 107,92.6 106.9,93.5 106.7,94.4 
				106.6,95.3 106.5,96.2 106.4,97.2 106.4,98.1 106.4,99.1 106.3,100 106.4,100.9 106.4,101.9 106.4,102.8 106.5,103.8 
				106.6,104.7 106.7,105.6 106.9,106.5 107,107.4 107.2,108.3 107.4,109.2 107.6,110 107.8,110.8 108,111.7 108.3,112.4 
				108.6,113.2 108.9,113.9 109.2,114.6 109.5,115.3 109.9,116 110.2,116.6 110.6,117.2 111,117.8 111.4,118.3 111.8,118.8 
				112.2,119.2 112.6,119.6 113,120 113.5,120.4 113.9,120.7 114.4,120.9 114.8,121.1 115.3,121.3 115.8,121.5 116.2,121.6 
				116.7,121.7 117.2,121.7 			"/>
			<polyline class="st1" points="119.2,95 119.2,95.4 119.2,95.8 119.2,96.1 119.2,96.5 119.2,96.8 119.2,97.1 119.2,97.4 
				119.2,97.7 119.2,97.9 119.2,98.2 119.2,98.4 119.2,98.6 119.2,98.9 119.2,99.1 119.2,99.3 119.2,99.6 119.2,99.8 119.2,100 
				119.2,100.2 119.2,100.4 119.2,100.7 119.2,100.9 119.2,101.1 119.2,101.3 119.2,101.6 119.2,101.8 119.2,102.1 119.2,102.3 
				119.2,102.6 119.2,102.9 119.2,103.2 119.2,103.5 119.2,103.8 119.2,104.2 119.2,104.6 119.2,105 			"/>
			<polyline class="st1" points="114.7,95 114.7,95.4 114.7,95.8 114.7,96.1 114.7,96.5 114.7,96.8 114.7,97.1 114.7,97.4 
				114.7,97.7 114.7,97.9 114.7,98.2 114.7,98.4 114.7,98.6 114.7,98.9 114.7,99.1 114.7,99.3 114.7,99.6 114.7,99.8 114.7,100 
				114.7,100.2 114.7,100.4 114.7,100.7 114.7,100.9 114.7,101.1 114.7,101.3 114.7,101.6 114.7,101.8 114.7,102.1 114.7,102.3 
				114.7,102.6 114.7,102.9 114.7,103.2 114.7,103.5 114.7,103.8 114.7,104.2 114.7,104.6 114.7,105 			"/>
			<polyline class="st1" points="114.7,95 114.9,95 115.1,95 115.3,95 115.4,95 115.6,95 115.7,95 115.9,95 116,95 116.2,95 
				116.3,95 116.4,95 116.5,95 116.6,95 116.7,95 116.9,95 117,95 117.1,95 117.2,95 118.2,95 119.2,95 121.7,95 			"/>
			<polyline class="st1" points="94.1,97.6 94,97.6 94,97.6 93.9,97.7 93.8,97.7 93.8,97.7 93.7,97.7 93.7,97.7 93.6,97.8 
				93.6,97.8 93.6,97.9 93.5,97.9 93.5,98 93.4,98 93.4,98.1 93.3,98.2 93.3,98.2 93.3,98.3 93.2,98.4 93.2,98.4 93.2,98.5 
				93.1,98.6 93.1,98.7 93.1,98.8 93,98.9 93,99 93,99.1 93,99.2 93,99.3 92.9,99.4 92.9,99.5 92.9,99.6 92.9,99.7 92.9,99.8 
				92.9,99.9 92.9,100 92.9,100.1 92.9,100.2 92.9,100.3 92.9,100.4 92.9,100.5 92.9,100.6 93,100.7 93,100.8 93,100.9 93,101 
				93,101.1 93.1,101.2 93.1,101.3 93.1,101.4 93.2,101.5 93.2,101.5 93.2,101.6 93.3,101.7 93.3,101.7 93.3,101.8 93.4,101.9 
				93.4,101.9 93.5,102 93.5,102.1 93.6,102.1 93.6,102.2 93.6,102.2 93.7,102.2 93.7,102.3 93.8,102.3 93.8,102.3 93.9,102.3 
				94,102.3 94,102.4 94.1,102.4 			"/>
			<polyline class="st1" points="29.9,129.8 30.4,131.1 31.1,132.7 31.9,134.2 32.6,135.7 33.4,137.1 34.2,138.4 35.1,139.7 
				35.9,140.8 36.9,141.9 37.8,142.9 38.7,143.9 39.7,144.7 40.7,145.5 41.7,146.2 42.7,146.8 43.7,147.3 44.8,147.7 45.8,148 
				46.8,148.2 47.9,148.4 49,148.4 79.2,148.4 92.8,148.4 92.8,155.6 			"/>
			<polyline class="st1" points="53.8,84.8 77.8,91.4 77.8,91.4 91.2,95.1 			"/>
			<polyline class="st1" points="49,129.8 29.9,129.8 15.6,129.8 15,129.7 14.3,129.7 13.7,129.5 13.1,129.3 12.4,129.1 11.8,128.8 
				11.2,128.4 10.5,128 9.9,127.5 9.3,127 8.8,126.4 8.2,125.8 7.6,125.1 7.1,124.4 6.6,123.6 6.1,122.8 5.6,121.9 5.1,121.1 
				4.7,120.1 4.2,119.1 3.8,118.1 3.4,117.1 3.1,116 2.7,114.9 2.4,113.8 2.1,112.6 1.9,111.4 1.6,110.2 1.4,109 1.3,107.7 
				1.1,106.4 1,105.2 0.9,103.9 0.8,102.6 0.8,101.3 0.8,100 0.8,98.7 0.8,97.4 0.9,96.1 1,94.8 1.1,93.6 1.3,92.3 1.4,91 1.6,89.8 
				1.9,88.6 2.1,87.4 2.4,86.2 2.7,85.1 3.1,84 3.4,82.9 3.8,81.9 4.2,80.8 4.7,79.9 5.1,78.9 5.6,78 6.1,77.2 6.6,76.4 7.1,75.6 
				7.6,74.9 8.2,74.2 8.8,73.6 9.3,73 9.9,72.5 10.5,72 11.2,71.6 11.8,71.2 12.4,70.9 13.1,70.7 13.7,70.4 14.3,70.3 15,70.2 
				15.6,70.2 29.9,70.2 49,70.2 			"/>
			<polyline class="st1" points="91.2,104.9 77.8,108.6 77.8,108.6 53.8,115.2 			"/>
		</g>
	</g>
</g>
</svg>
