<?xml version="1.0" encoding="utf-8"?>
<!-- Generator: Adobe Illustrator 21.0.0, SVG Export Plug-In . SVG Version: 6.00 Build 0)  -->
<svg version="1.1" id="Layer_1" xmlns="http://www.w3.org/2000/svg" xmlns:xlink="http://www.w3.org/1999/xlink" x="0px" y="0px"
	 viewBox="0 0 92 200" style="enable-background:new 0 0 92 200;" xml:space="preserve">
<style type="text/css">
	.st0{fill:#ECF0F1;}
	.st1{fill:none;stroke:#000000;stroke-width:1.5;stroke-linecap:round;stroke-linejoin:round;}
	.st2{fill:none;stroke:#000000;stroke-width:0.75;stroke-linecap:round;stroke-linejoin:round;stroke-dasharray:1.5;}
</style>
<g>
	<g id="XMLID_51_">
		<g>
			<polygon class="st0" points="39.3,107.8 39.3,113.3 39.2,113.4 38.1,113.6 37.3,113.7 25.6,113.7 25.6,86.3 37.3,86.3 38.1,86.4 
				39.2,86.6 39.3,86.7 			"/>
		</g>
		<g>
			<line class="st1" x1="17.6" y1="136.5" x2="17.6" y2="63.5"/>
			<line class="st1" x1="20.5" y1="136.5" x2="20.5" y2="63.5"/>
			<polyline class="st1" points="36,113.8 35.6,115.5 34.9,118.3 34,121 33.1,123.5 32,125.9 30.8,128 29.5,130 28.2,131.7 
				26.8,133.2 25.3,134.4 23.8,135.4 22.2,136 20.6,136.5 20.5,136.5 19.1,136.6 			"/>
			<polyline class="st1" points="36,86.2 35.6,84.5 34.9,81.7 34,79 33.1,76.5 32,74.1 30.8,72 29.5,70 28.2,68.3 26.8,66.8 
				25.3,65.6 23.8,64.7 22.2,64 20.6,63.5 20.5,63.5 19.1,63.4 			"/>
			<polyline class="st1" points="74.6,63.5 76.2,64 77.7,64.7 79.3,65.6 80.7,66.8 82.1,68.3 83.5,70 84.8,72 85.9,74.1 87,76.5 
				88,79 88.8,81.7 89.6,84.5 90.2,87.5 90.7,90.5 91,93.6 91.2,96.8 91.3,100 91.2,103.2 91,106.4 90.7,109.5 90.2,112.5 
				89.6,115.5 88.8,118.3 88,121 87,123.5 85.9,125.9 84.8,128 83.5,130 82.1,131.7 80.7,133.2 79.3,134.4 77.7,135.4 76.2,136 
				74.6,136.5 73,136.6 19.1,136.6 17.6,136.5 17.4,136.5 15.9,136 14.3,135.4 12.8,134.4 11.3,133.2 9.9,131.7 8.5,130 7.3,128 
				6.1,125.9 5,123.5 4.1,121 3.2,118.3 2.5,115.5 1.9,112.5 1.4,109.5 1,106.4 0.8,103.2 0.8,100 0.8,96.8 1,93.6 1.4,90.5 
				1.9,87.5 2.5,84.5 3.2,81.7 4.1,79 5,76.5 6.1,74.1 7.3,72 8.5,70 9.9,68.3 11.3,66.8 12.8,65.6 14.3,64.7 15.9,64 17.4,63.5 
				17.6,63.5 19.1,63.4 73,63.4 74.6,63.5 			"/>
			<polyline class="st1" points="48.8,96.4 48.9,96.8 49.1,97.6 49.2,98.8 49.3,100 49.2,101.2 49.1,102.4 48.9,103.2 48.8,103.6 
				48.4,104.7 48,105.9 47.7,106.4 47.4,106.9 46.7,107.9 46,108.9 45.4,109.5 45.1,109.8 44.2,110.6 43.3,111.3 42.3,112 
				41.3,112.5 41.3,112.5 40.2,113 39.3,113.3 39.2,113.4 38.1,113.6 37.3,113.7 37,113.8 36,113.8 			"/>
			<polyline class="st1" points="36,86.2 37,86.2 37.3,86.3 38.1,86.4 39.2,86.6 39.3,86.7 40.2,87 41.3,87.5 41.3,87.5 42.3,88 
				43.3,88.7 44.2,89.4 45.1,90.2 45.4,90.5 46,91.1 46.7,92.1 47.4,93.1 47.7,93.6 48,94.1 48.4,95.3 48.8,96.4 			"/>
			<path class="st2" d="M39.3,107.8c0.5,0,1.1,0,1.6,0c0.5,0,1-0.1,1.5-0.2c0.5-0.1,1.1-0.3,1.6-0.6c0.5-0.3,0.9-0.9,1.4-1.5
				c0.4-0.6,0.8-1.3,1.1-2c0.3-0.8,0.6-1.5,0.9-2.3c0.3-0.8,0.6-1.7,0.8-2.5c0.2-0.7,0.4-1.4,0.7-2.1v0c0-0.1,0.1-0.2,0.1-0.4
				c0.3-0.8,0.6-1.6,0.9-2.3c0.2-0.4,0.4-0.7,0.6-1c0.2-0.3,0.5-0.5,0.7-0.5c0.3,0,0.5,0.2,0.7,0.4c0.2,0.3,0.4,0.6,0.6,1
				c0.3,0.7,0.6,1.5,0.9,2.3c0.3,0.8,0.5,1.6,0.8,2.4c0.3,0.8,0.5,1.7,0.8,2.5c0.3,0.8,0.6,1.6,0.9,2.3c0.3,0.8,0.7,1.5,1.1,2.1
				c0.4,0.6,0.9,1.1,1.4,1.5c0.5,0.3,1,0.6,1.5,0.7c0.5,0.1,1.1,0.2,1.6,0.2c0.5,0,1,0,1.6,0c0,0,0,0,0.1,0"/>
			<polyline class="st2" points="39.3,113.7 39.3,113.3 39.3,107.8 39.3,86.7 39.3,86.3 			"/>
			<polyline class="st2" points="63.1,86.3 63.1,107.8 63.1,113.7 			"/>
			<line class="st2" x1="25.6" y1="113.7" x2="25.6" y2="86.3"/>
			<polyline class="st2" points="63.1,113.7 39.3,113.7 37.3,113.7 25.6,113.7 			"/>
			<polyline class="st2" points="25.6,86.3 37.3,86.3 39.3,86.3 63.1,86.3 			"/>
		</g>
	</g>
</g>
</svg>
