<?xml version="1.0" encoding="utf-8"?>
<!-- Generator: Adobe Illustrator 21.0.0, SVG Export Plug-In . SVG Version: 6.00 Build 0)  -->
<svg version="1.1" id="Layer_1" xmlns="http://www.w3.org/2000/svg" xmlns:xlink="http://www.w3.org/1999/xlink" x="0px" y="0px"
	 viewBox="0 0 59.5 200" style="enable-background:new 0 0 59.5 200;" xml:space="preserve">
<style type="text/css">
	.st0{fill:#ECF0F1;}
	.st1{fill:none;stroke:#000000;stroke-width:1.5;stroke-linecap:round;stroke-linejoin:round;}
	.st2{fill:none;stroke:#000000;stroke-width:0.75;stroke-linecap:round;stroke-linejoin:round;}
	.st3{fill:none;stroke:#000000;stroke-linecap:round;stroke-linejoin:round;}
</style>
<g id="XMLID_30_">
	<g>
		<path class="st0" d="M26.2,140.9L26.2,140.9L26.2,140.9l-0.1,0l-0.1,0l0,0l0,0l0,0.1l0,0.1l0,0.1l0,0.1l0,0.1l0,0.1l0,0.1l0,0.1
			l0,0.1l0,0.1v0.1v0.1l0,0.1v0.1l0,0.1l0,0.1l0,0.1l0,0.1l0,0.1l0,0.1l0,0.1l0,0.1l0,0l0,0l0.1,0l0,0l0,0l0.1,0l0,0h0l0.1,0l0,0
			l0,0l0,0l0-0.1l0-0.1l0-0.1l0-0.1l0-0.1l0-0.1l0-0.1l0-0.1l0-0.1V142v-0.1v-0.1v-0.1l0-0.1l0-0.1l0-0.1l0-0.1l0-0.1l0-0.1l0-0.1
			l0-0.1l0-0.1l0,0l0,0l0,0l0,0L26.2,140.9L26.2,140.9z M37.8,142.8L37.8,142.8l0.1-0.1l0-0.1l0-0.1l0-0.1l0-0.1l0-0.1l0-0.1v-0.1
			l0-0.1v-0.1v-0.1v-0.1l0-0.1l0-0.1l0-0.1l0-0.1l0-0.1l0-0.1l0-0.1l0-0.1l0-0.1l0,0l0,0l0,0l0,0l-0.1,0h0h-0.1l0,0l0,0l-0.1,0l0,0
			l0,0l0,0.1l0,0.1l0,0.1l0,0.1l0,0.1l0,0.1l0,0.1l0,0.1l0,0.1l0,0.1v0.1v0.1l0,0.1v0.1l0,0.1l0,0.1l0,0.1l0,0.1l0,0.1l0,0.1l0,0.1
			l0,0.1l0,0l0,0l0.1,0l0,0l0,0l0.1,0l0,0h0l0.1,0L37.8,142.8L37.8,142.8L37.8,142.8z M19,142.5L19,142.5l0.1-0.2l0-0.1l0-0.1l0-0.1
			V142l0-0.1l0-0.1v-0.1l0-0.1l0-0.1l0-0.1l0-0.1l0-0.1l0-0.1l0-0.1l0-0.1l0-0.1l0,0l0,0l0,0l0,0l0,0h0h0h0l0,0l0,0l0,0l0,0l0,0
			l0,0.1l0,0.1l0,0.1l0,0.1l0,0.1l0,0.1l0,0.1l0,0.1l0,0.1v0.1v0.1v0.1v0.1l0,0.1l0,0.1l0,0.1l0,0.1l0,0.1l0,0.1l0,0.1l0,0.1l0,0.1
			l0,0l0,0l0,0l0,0l0.1,0l0,0l0.1,0h0l0,0l0,0l0,0l0,0l0-0.1l0-0.1L19,142.5L19,142.5z M33.2,142.1l0,0.1l0,0.1l0,0.1l0,0.1l0,0.1
			l0,0.1l0,0.1l0,0.1l0,0.1l0,0l0,0l0,0l0.1,0l0,0l0,0l0.1,0h0l0,0l0.1,0l0,0l0,0l0-0.1l0-0.1l0-0.1l0-0.1l0-0.1l0-0.1l0-0.1l0-0.1
			l0-0.1l0-0.1v-0.1v-0.1l0-0.1v-0.1l0-0.1l0-0.1l0-0.1l0-0.1l0-0.1l0-0.1l0-0.1l0-0.1l0,0l0,0l0,0l-0.1,0l0,0h0h0h0l0,0l-0.1,0l0,0
			l0,0l0,0l0,0.1l0,0.1l0,0.1l0,0.1l0,0.1l0,0.1l0,0.1l0,0.1v0.1l0,0.1v0.1V142.1L33.2,142.1z M22.1,141L22.1,141l-0.1,0.1l0,0.1
			l0,0.1l0,0.1l0,0.1l0,0.1l0,0.1v0.1l0,0.1v0.1v0.1v0.1l0,0.1l0,0.1l0,0.1l0,0.1l0,0.1l0,0.1l0,0.1l0,0.1l0,0.1l0,0l0,0l0,0l0.1,0
			l0,0l0,0l0.1,0h0l0,0l0.1,0l0,0l0,0l0-0.1l0-0.1l0-0.1l0-0.1l0-0.1l0-0.1l0-0.1l0-0.1l0-0.1l0-0.1v-0.1v-0.1l0-0.1v-0.1l0-0.1
			l0-0.1l0-0.1l0-0.1l0-0.1l0-0.1l0-0.1l0-0.1l0,0l0,0l0,0l-0.1,0l0,0h-0.1h0l0,0l-0.1,0L22.1,141L22.1,141L22.1,141z M30.4,141.6
			L30.4,141.6l0-0.2l0-0.1l0-0.1l0-0.1l0-0.1l0-0.1l0,0l0,0l0,0l0,0l0,0H30h0l0,0l0,0l0,0l0,0l0,0l0,0.1l0,0.1l0,0.1l0,0.1l0,0.1
			l0,0.1l0,0.1l0,0.1l0,0.1v0.1v0.1v0.1v0.1l0,0.1l0,0.1l0,0.1l0,0.1l0,0.1l0,0.1l0,0.1l0,0.1l0,0.1l0,0l0,0l0,0l0,0l0.1,0l0,0
			l0.1,0h0l0,0l0,0l0,0l0,0l0-0.1l0-0.1l0-0.1l0-0.1l0-0.1l0-0.1l0-0.1l0-0.1l0-0.1V142v-0.1v-0.1v-0.1l0-0.1L30.4,141.6z M40,145.3
			H16.1v-12.5h6.2h1.9h1.9H30h1.9h1.6h0.2H40V145.3z"/>
		<path class="st0" d="M10.9,77.8L10.9,77.8L10.9,77.8l-0.1,0.1l-0.1,0l0,0.1l0,0.1l0,0.1l0,0.1l0,0.1l0,0.1l0,0.1l0,0.1l0,0.1
			l0,0.1v0.1l0,0.1l0,0.1v0.1l0,0.1l0,0.1l0,0.1l0,0.1l0,0.1l0,0.1l0,0.1l0,0.1l0,0.1l0,0l0.1,0.1l0,0l0.1,0l0.1,0l0.1,0l0.1,0h0
			l0.1,0l0.1,0l0,0l0.1-0.1l0-0.1l0-0.1l0-0.1l0-0.1l0-0.1l0-0.1l0-0.1l0-0.1l0-0.1l0-0.1v-0.1v-0.1v-0.1l0-0.1l0-0.1l0-0.1l0-0.1
			l0-0.1l0-0.1l0-0.1l0-0.1l0-0.1l0,0l-0.1-0.1l-0.1,0l-0.1,0l-0.1,0H10.9L10.9,77.8z M10.9,119.9L10.9,119.9L10.9,119.9l-0.1,0.1
			l-0.1,0l0,0l0,0.1l0,0.1l0,0.1l0,0.1l0,0.1l0,0.1l0,0.1l0,0.1l0,0.1v0.1l0,0.1l0,0.1v0.1l0,0.1l0,0.1l0,0.1l0,0.1l0,0.1l0,0.1
			l0,0.1l0,0.1l0,0.1l0,0.1l0.1,0l0,0l0.1,0l0.1,0H11h0.1l0,0l0.1,0l0.1,0l0,0l0.1-0.1l0-0.1l0-0.1l0-0.1l0-0.1l0-0.1l0-0.1l0-0.1
			l0-0.1l0-0.1l0-0.1v-0.1v-0.1v-0.1l0-0.1l0-0.1l0-0.1l0-0.1l0-0.1l0-0.1l0-0.1l0-0.1l0-0.1l0-0.1l-0.1-0.1l-0.1,0l-0.1,0l-0.1,0
			H10.9L10.9,119.9z M7,86.8L7,86.8l-0.1-0.1l0-0.1l-0.1,0l0,0l-0.1,0l-0.1,0H6.6H6.6l0,0l-0.1,0l-0.1,0l0,0l-0.1,0l0,0.1l0,0.1
			l0,0.1l0,0.1l0,0.1l0,0.1l0,0.1l0,0.1l0,0.1l0,0.1v0.1v0.1v0.1L6,88l0,0.1l0,0.1l0,0.1l0,0.1l0,0.1l0,0.1l0,0.1l0,0.1l0,0.1l0.1,0
			l0.1,0l0.1,0l0.1,0h0.1h0.1l0,0l0.1,0l0.1,0l0.1,0l0-0.1l0-0.1l0-0.1l0-0.1l0-0.1l0-0.1l0-0.1l0-0.1l0-0.1l0-0.1v-0.1l0-0.1l0-0.1
			v-0.1l0-0.1l0-0.1l0-0.1l0-0.1l0-0.1L7,86.8L7,86.8z M7,113.1L7,113.1l0.1-0.2l0-0.1l0-0.1l0-0.1l0-0.1v-0.1l0-0.1l0-0.1v-0.1
			l0-0.1l0-0.1l0-0.1l0-0.1l0-0.1l0-0.1l0-0.1l0-0.1l0-0.1l0-0.1l-0.1,0l0,0l-0.1,0l-0.1,0H6.6H6.6l0,0l-0.1,0l-0.1,0l0,0l-0.1,0.1
			l0,0.1l0,0.1l0,0.1l0,0.1l0,0.1l0,0.1l0,0.1l0,0.1l0,0.1l0,0.1v0.1v0.1v0.1l0,0.1l0,0.1l0,0.1l0,0.1l0,0.1l0,0.1l0,0.1l0,0.1
			l0,0.1l0,0.1l0.1,0l0.1,0l0.1,0l0.1,0l0.1,0l0.1,0l0,0l0.1,0l0.1,0l0.1,0l0,0l0-0.1L7,113.1L7,113.1z M17.1,80.1L17.1,80.1h0.1h0
			l0.1,0l0.1,0l0.1,0l0-0.1l0-0.1l0-0.1l0-0.1l0-0.1l0-0.1l0-0.1l0-0.1l0-0.1l0-0.1v-0.1v-0.1v-0.1v-0.1l0-0.1l0-0.1l0-0.1l0-0.1
			l0-0.1l0-0.1l0-0.1l0-0.1l0-0.1l0,0l-0.1-0.1l-0.1,0l0,0l-0.1,0l-0.1,0l-0.1,0h0l-0.1,0l-0.1,0l-0.1,0l0,0.1l0,0.1l0,0.1l0,0.1
			l0,0.1l0,0.1l0,0.1l0,0.1l0,0.1l0,0.1v0.1v0.1v0.1v0.1l0,0.1l0,0.1l0,0.1l0,0.1l0,0.1l0,0.1l0,0.1l0,0.1l0,0.1l0,0l0.1,0.1l0,0
			L17.1,80.1L17.1,80.1z M17.1,119.9L17.1,119.9L17.1,119.9l-0.1,0.1l-0.1,0l0,0l0,0.1l0,0.1l0,0.1l0,0.1l0,0.1l0,0.1l0,0.1l0,0.1
			l0,0.1v0.1v0.1v0.1v0.1l0,0.1l0,0.1l0,0.1l0,0.1l0,0.1l0,0.1l0,0.1l0,0.1l0,0.1l0,0.1l0.1,0l0,0l0.1,0l0.1,0h0.1h0.1l0,0l0.1,0
			l0.1,0l0.1,0l0-0.1l0-0.1l0-0.1l0-0.1l0-0.1l0-0.1l0-0.1l0-0.1l0-0.1l0-0.1v-0.1v-0.1v-0.1v-0.1l0-0.1l0-0.1l0-0.1l0-0.1l0-0.1
			l0-0.1l0-0.1l0-0.1l0-0.1l0-0.1l-0.1-0.1l-0.1,0l0,0l-0.1,0H17.1L17.1,119.9z M7,100.8L7,100.8l0.1-0.2l0-0.1l0-0.1l0-0.1l0-0.1
			v-0.1l0-0.1l0-0.1v-0.1l0-0.1l0-0.1l0-0.1l0-0.1l0-0.1l0-0.1l0-0.1l0-0.1l0-0.1l0-0.1l-0.1,0l0,0l-0.1,0l-0.1,0H6.6H6.6l0,0
			l-0.1,0l-0.1,0l0,0L6.3,99l0,0.1l0,0.1l0,0.1l0,0.1l0,0.1l0,0.1l0,0.1l0,0.1l0,0.1l0,0.1v0.1v0.1v0.1l0,0.1l0,0.1l0,0.1l0,0.1
			l0,0.1l0,0.1l0,0.1l0,0.1l0,0.1l0,0.1l0.1,0l0.1,0l0.1,0l0.1,0h0.1h0.1l0,0l0.1,0l0.1,0l0.1,0l0-0.1l0-0.1L7,100.8L7,100.8z
			 M23.2,77.8L23.2,77.8L23.2,77.8l-0.1,0.1l-0.1,0l0,0.1l0,0.1l0,0.1l0,0.1l0,0.1l0,0.1l0,0.1l0,0.1l0,0.1l0,0.1v0.1v0.1v0.1v0.1
			l0,0.1l0,0.1l0,0.1l0,0.1l0,0.1l0,0.1l0,0.1l0,0.1l0,0.1l0,0l0.1,0.1l0.1,0l0,0l0.1,0l0.1,0l0.1,0h0l0.1,0l0.1,0l0.1,0l0-0.1
			l0-0.1l0-0.1l0-0.1l0-0.1l0-0.1l0-0.1l0-0.1l0-0.1l0-0.1v-0.1v-0.1v-0.1v-0.1l0-0.1l0-0.1l0-0.1l0-0.1l0-0.1l0-0.1l0-0.1l0-0.1
			l0-0.1l0,0l-0.1-0.1l0,0l-0.1,0l-0.1,0H23.2L23.2,77.8z M23.2,119.9L23.2,119.9L23.2,119.9l-0.1,0.1l-0.1,0l0,0l0,0.1l0,0.1l0,0.1
			l0,0.1l0,0.1l0,0.1l0,0.1l0,0.1l0,0.1v0.1v0.1v0.1v0.1l0,0.1l0,0.1l0,0.1l0,0.1l0,0.1l0,0.1l0,0.1l0,0.1l0,0.1l0,0.1l0.1,0l0.1,0
			l0,0l0.1,0h0.1h0.1l0,0l0.1,0l0.1,0l0.1,0l0-0.1l0-0.1l0-0.1l0-0.1l0-0.1l0-0.1l0-0.1l0-0.1l0-0.1l0-0.1v-0.1v-0.1v-0.1v-0.1
			l0-0.1l0-0.1l0-0.1l0-0.1l0-0.1l0-0.1l0-0.1l0-0.1l0-0.1l0-0.1l-0.1-0.1l0,0l-0.1,0l-0.1,0H23.2L23.2,119.9z M24.4,114.5V85.5H9.9
			v28.9H24.4z M30,132.8h-3.8h-1.9h-1.9h-6.2H0.8V67.2h15.4h6.2h1.9h1.9H30h1.9h1.6v65.5h-1.6H30z M27.3,88.6L27.3,88.6l0.1,0.1
			l0,0.1l0.1,0l0,0l0.1,0l0.1,0h0.1h0.1l0,0l0.1,0l0.1,0l0,0l0.1-0.1l0-0.1l0-0.1l0-0.1l0-0.1l0-0.1l0-0.1l0-0.1l0-0.1l0-0.1l0-0.1
			v-0.1v-0.1v-0.1l0-0.1l0-0.1l0-0.1l0-0.1l0-0.1l0-0.1l0-0.1l0-0.1l0-0.1l-0.1-0.1l0,0l-0.1,0l-0.1,0l-0.1,0h-0.1h-0.1l0,0l0,0
			l-0.1,0l-0.1,0l0,0l0,0.1l0,0.1l0,0.1l0,0.1l0,0.1l0,0.1l0,0.1l0,0.1l0,0.1v0.1l0,0.1l0,0.1v0.1l0,0.1l0,0.1l0,0.1l0,0.1l0,0.1
			L27.3,88.6L27.3,88.6z M27.3,100.9L27.3,100.9l0.1,0.1l0,0.1l0.1,0l0,0l0.1,0l0.1,0h0.1h0.1l0,0l0.1,0l0.1,0l0,0L28,101l0-0.1
			l0-0.1l0-0.1l0-0.1l0-0.1l0-0.1l0-0.1l0-0.1l0-0.1l0-0.1V100v-0.1v-0.1l0-0.1l0-0.1l0-0.1l0-0.1l0-0.1l0-0.1l0-0.1l0-0.1l0-0.1
			l-0.1-0.1l0,0l-0.1,0l-0.1,0l-0.1,0h-0.1h-0.1l0,0l0,0l-0.1,0l-0.1,0l0,0.1l0,0.1l0,0.1l0,0.1l0,0.1l0,0.1l0,0.1l0,0.1l0,0.1
			l0,0.1v0.1l0,0.1l0,0.1v0.1l0,0.1l0,0.1l0,0.1l0,0.1l0,0.1L27.3,100.9L27.3,100.9z M27.4,113.3L27.4,113.3l0.1,0.1l0.1,0l0.1,0
			l0.1,0l0.1,0l0,0l0.1,0l0.1,0l0,0l0.1,0l0-0.1l0-0.1l0-0.1l0-0.1l0-0.1l0-0.1l0-0.1l0-0.1l0-0.1l0-0.1v-0.1v-0.1v-0.1l0-0.1l0-0.1
			l0-0.1l0-0.1l0-0.1l0-0.1l0-0.1l0-0.1l0-0.1l-0.1-0.1l0,0l-0.1,0l-0.1,0l-0.1,0h-0.1h-0.1l0,0l0,0l-0.1,0l-0.1,0l0,0.1l0,0.1
			l0,0.1l0,0.1l0,0.1l0,0.1l0,0.1l0,0.1l0,0.1l0,0.1v0.1l0,0.1l0,0.1v0.1l0,0.1l0,0.1l0,0.1l0,0.1l0,0.1l0,0.1l0,0.1l0,0.1
			L27.4,113.3L27.4,113.3z"/>
		<path class="st0" d="M19,58.6L19,58.6l0-0.2l0-0.1v-0.1l0-0.1l0-0.1v-0.1l0-0.1l0-0.1l0-0.1l0-0.1l0-0.1l0-0.1l0-0.1l0-0.1l0,0
			l0-0.1l0,0l0,0l0,0l0,0l-0.1,0l0,0h0l0,0l0,0l0,0l0,0l0,0.1l0,0.1l0,0.1l0,0.1l0,0.1l0,0.1l0,0.1l0,0.1l0,0.1V58v0.1v0.1v0.1
			l0,0.1l0,0.1l0,0.1l0,0.1l0,0.1l0,0.1l0,0.1l0,0.1l0,0.1l0,0l0,0l0,0l0,0l0.1,0h0h0.1l0,0l0,0l0,0l0,0l0,0l0-0.1l0-0.1l0-0.1
			l0-0.1L19,58.6L19,58.6z M26.2,57.1L26.2,57.1h-0.1h0l0,0l-0.1,0l0,0l0,0l0,0.1l0,0.1l0,0.1l0,0.1l0,0.1l0,0.1l0,0.1l0,0.1l0,0.1
			l0,0.1v0.1v0.1l0,0.1v0.1l0,0.1l0,0.1l0,0.1l0,0.1l0,0.1l0,0.1l0,0.1l0,0.1l0,0l0,0l0.1,0l0,0l0,0h0.1h0l0,0l0.1,0l0,0l0,0l0,0
			l0-0.1l0-0.1l0-0.1l0-0.1l0-0.1l0-0.1l0-0.1l0-0.1l0-0.1v-0.1v-0.1V58v-0.1l0-0.1l0-0.1l0-0.1l0-0.1l0-0.1l0-0.1l0-0.1l0-0.1l0,0
			l0-0.1l0,0l0,0L26.2,57.1L26.2,57.1z M37.8,59L37.8,59l0.1-0.1l0-0.1l0-0.1l0-0.1l0-0.1l0-0.1l0-0.1v-0.1l0-0.1v-0.1V58v-0.1
			l0-0.1l0-0.1l0-0.1l0-0.1l0-0.1l0-0.1l0-0.1l0-0.1l0,0l0-0.1l0,0l0,0l0,0l-0.1,0l0,0l-0.1,0h0l0,0l-0.1,0l0,0l0,0l0,0.1l0,0.1
			l0,0.1l0,0.1l0,0.1l0,0.1l0,0.1l0,0.1l0,0.1l0,0.1v0.1v0.1l0,0.1v0.1l0,0.1l0,0.1l0,0.1l0,0.1l0,0.1l0,0.1l0,0.1l0,0.1l0,0l0,0
			l0.1,0l0,0l0,0h0.1h0l0,0l0.1,0L37.8,59L37.8,59L37.8,59z M30.4,58.6L30.4,58.6l0-0.2l0-0.1v-0.1v-0.1V58v-0.1l0-0.1l0-0.1l0-0.1
			l0-0.1l0-0.1l0-0.1l0-0.1l0-0.1l0,0l0-0.1l0,0l0,0l0,0l0,0l-0.1,0l0,0h0l0,0l0,0l0,0l0,0l0,0.1l0,0.1l0,0.1l0,0.1l0,0.1l0,0.1
			l0,0.1l0,0.1l0,0.1V58v0.1v0.1v0.1l0,0.1l0,0.1l0,0.1l0,0.1l0,0.1l0,0.1l0,0.1l0,0.1l0,0.1l0,0l0,0l0,0l0,0l0.1,0h0H30l0,0l0,0
			l0,0l0,0l0,0l0-0.1l0-0.1l0-0.1l0-0.1L30.4,58.6L30.4,58.6z M16.1,54.7H40v12.5h-6.2h-0.2h-1.6H30h-3.8h-1.9h-1.9h-6.2V54.7z
			 M22.1,57.3L22.1,57.3L22,57.4l0,0.1l0,0.1l0,0.1l0,0.1l0,0.1v0.1l0,0.1v0.1v0.1v0.1l0,0.1l0,0.1l0,0.1l0,0.1l0,0.1l0,0.1l0,0.1
			l0,0.1l0,0.1l0,0l0,0l0,0l0.1,0l0,0h0h0.1l0,0l0,0l0.1,0l0,0l0,0l0-0.1l0-0.1l0-0.1l0-0.1l0-0.1l0-0.1l0-0.1l0-0.1l0-0.1l0-0.1
			v-0.1V58l0-0.1v-0.1l0-0.1l0-0.1l0-0.1l0-0.1l0-0.1l0-0.1l0-0.1l0,0l0-0.1l0,0l0,0l-0.1,0l0,0l-0.1,0l0,0h0l-0.1,0l0,0l0,0
			L22.1,57.3L22.1,57.3z M34.1,57.4L34.1,57.4l-0.1-0.1l0,0l0-0.1l0,0l0,0l-0.1,0l0,0l-0.1,0l0,0h0l-0.1,0l0,0l0,0l0,0l0,0.1l0,0.1
			l0,0.1l0,0.1l0,0.1l0,0.1l0,0.1l0,0.1v0.1l0,0.1v0.1v0.1v0.1l0,0.1l0,0.1l0,0.1l0,0.1l0,0.1l0,0.1l0,0.1l0,0.1l0,0.1l0,0l0,0l0,0
			l0.1,0l0,0h0h0h0l0,0l0,0l0.1,0l0,0l0,0l0-0.1l0-0.1l0-0.1l0-0.1l0-0.1l0-0.1l0-0.1l0-0.1l0-0.1l0-0.1v-0.1V58l0-0.1v-0.1l0-0.1
			l0-0.1l0-0.1L34.1,57.4L34.1,57.4z"/>
	</g>
	<g>
		<line class="st1" x1="33.5" y1="67.2" x2="33.5" y2="132.8"/>
		<line class="st1" x1="58.7" y1="67.2" x2="58.7" y2="132.8"/>
		<line class="st1" x1="0.8" y1="132.8" x2="0.8" y2="67.2"/>
		<polyline class="st1" points="16.1,54.7 40,54.7 43.3,54.7 		"/>
		<line class="st1" x1="16.1" y1="145.3" x2="16.1" y2="132.8"/>
		<line class="st1" x1="43.3" y1="132.8" x2="43.3" y2="145.3"/>
		<line class="st1" x1="40" y1="54.7" x2="40" y2="67.2"/>
		<line class="st1" x1="40" y1="132.8" x2="40" y2="145.3"/>
		<line class="st1" x1="43.3" y1="54.7" x2="43.3" y2="67.2"/>
		<line class="st1" x1="16.1" y1="67.2" x2="16.1" y2="54.7"/>
		<polyline class="st1" points="43.3,145.3 40,145.3 16.1,145.3 		"/>
		<polygon class="st2" points="28.3,100 28.3,99.9 28.3,99.8 28.2,99.7 28.2,99.6 28.2,99.5 28.2,99.4 28.1,99.3 28.1,99.2 
			28.1,99.1 28,99.1 28,99 27.9,98.9 27.9,98.9 27.8,98.8 27.8,98.8 27.7,98.8 27.7,98.8 27.6,98.8 27.6,98.8 27.5,98.8 27.5,98.9 
			27.4,98.9 27.4,99 27.3,99 27.3,99.1 27.2,99.2 27.2,99.3 27.2,99.3 27.1,99.4 27.1,99.5 27.1,99.7 27.1,99.8 27.1,99.9 27.1,100 
			27.1,100.1 27.1,100.2 27.1,100.3 27.1,100.4 27.1,100.5 27.1,100.6 27.2,100.7 27.2,100.8 27.3,100.9 27.3,101 27.3,101 
			27.4,101.1 27.4,101.1 27.5,101.2 27.5,101.2 27.6,101.2 27.7,101.2 27.7,101.2 27.8,101.2 27.8,101.2 27.9,101.1 27.9,101.1 
			28,101 28,101 28.1,100.9 28.1,100.8 28.1,100.7 28.2,100.7 28.2,100.6 28.2,100.5 28.2,100.4 28.2,100.2 28.3,100.1 		"/>
		<polygon class="st2" points="7.2,100 7.2,99.9 7.2,99.8 7.2,99.7 7.2,99.6 7.1,99.5 7.1,99.4 7.1,99.3 7.1,99.2 7,99.1 7,99.1 
			6.9,99 6.9,98.9 6.8,98.9 6.8,98.8 6.7,98.8 6.7,98.8 6.6,98.8 6.6,98.8 6.5,98.8 6.5,98.8 6.4,98.9 6.4,98.9 6.3,99 6.3,99 
			6.2,99.1 6.2,99.2 6.1,99.3 6.1,99.3 6.1,99.4 6.1,99.5 6,99.7 6,99.8 6,99.9 6,100 6,100.1 6,100.2 6,100.3 6,100.4 6.1,100.5 
			6.1,100.6 6.1,100.7 6.2,100.8 6.2,100.9 6.2,101 6.3,101 6.3,101.1 6.4,101.1 6.4,101.2 6.5,101.2 6.6,101.2 6.6,101.2 
			6.7,101.2 6.7,101.2 6.8,101.2 6.8,101.1 6.9,101.1 6.9,101 7,101 7,100.9 7,100.8 7.1,100.7 7.1,100.7 7.1,100.6 7.2,100.5 
			7.2,100.4 7.2,100.2 7.2,100.1 		"/>
		<polygon class="st2" points="11.5,79.5 11.6,79.4 11.6,79.3 11.6,79.2 11.6,79.1 11.6,78.9 11.6,78.8 11.6,78.7 11.6,78.6 
			11.6,78.5 11.5,78.4 11.5,78.3 11.5,78.2 11.5,78.2 11.4,78.1 11.4,78 11.3,77.9 11.3,77.9 11.2,77.8 11.2,77.8 11.1,77.8 
			11.1,77.8 11,77.7 10.9,77.8 10.9,77.8 10.8,77.8 10.8,77.8 10.7,77.9 10.7,77.9 10.6,78 10.6,78 10.6,78.1 10.5,78.2 10.5,78.3 
			10.5,78.4 10.4,78.5 10.4,78.6 10.4,78.7 10.4,78.8 10.4,78.9 10.4,79.1 10.4,79.1 10.4,79.2 10.4,79.4 10.5,79.5 10.5,79.6 
			10.5,79.6 10.5,79.7 10.6,79.8 10.6,79.9 10.7,80 10.7,80 10.8,80.1 10.8,80.1 10.9,80.1 10.9,80.1 11,80.2 11.1,80.1 11.1,80.1 
			11.2,80.1 11.2,80.1 11.3,80 11.3,80 11.4,79.9 11.4,79.9 11.4,79.8 11.5,79.7 11.5,79.6 		"/>
		<polygon class="st2" points="7,88.6 7.1,88.5 7.1,88.4 7.1,88.3 7.2,88.2 7.2,88.1 7.2,88 7.2,87.9 7.2,87.7 7.2,87.6 7.2,87.5 
			7.2,87.4 7.2,87.3 7.1,87.2 7.1,87.1 7.1,87 7.1,86.9 7,86.8 7,86.8 6.9,86.7 6.9,86.7 6.8,86.6 6.8,86.6 6.7,86.5 6.7,86.5 
			6.6,86.5 6.6,86.5 6.5,86.5 6.5,86.6 6.4,86.6 6.4,86.6 6.3,86.7 6.3,86.8 6.2,86.8 6.2,86.9 6.1,87 6.1,87.1 6.1,87.2 6.1,87.3 
			6,87.4 6,87.5 6,87.6 6,87.7 6,87.9 6,87.9 6,88 6,88.1 6.1,88.3 6.1,88.3 6.1,88.4 6.2,88.5 6.2,88.6 6.2,88.7 6.3,88.7 
			6.3,88.8 6.4,88.8 6.4,88.9 6.5,88.9 6.6,88.9 6.6,88.9 6.7,88.9 6.7,88.9 6.8,88.9 6.8,88.9 6.9,88.8 6.9,88.8 7,88.7 7,88.6 		
			"/>
		<polygon class="st2" points="7.1,111.5 7,111.4 7,111.3 6.9,111.3 6.9,111.2 6.8,111.2 6.8,111.1 6.7,111.1 6.7,111.1 6.6,111.1 
			6.6,111.1 6.5,111.1 6.5,111.1 6.4,111.1 6.4,111.2 6.3,111.2 6.3,111.3 6.2,111.4 6.2,111.4 6.1,111.5 6.1,111.6 6.1,111.7 
			6.1,111.8 6,111.9 6,112 6,112.2 6,112.3 6,112.4 6,112.5 6,112.6 6,112.7 6.1,112.8 6.1,112.9 6.1,113 6.2,113.1 6.2,113.2 
			6.2,113.2 6.3,113.3 6.3,113.3 6.4,113.4 6.4,113.4 6.5,113.5 6.6,113.5 6.6,113.5 6.7,113.5 6.7,113.5 6.8,113.4 6.8,113.4 
			6.9,113.4 6.9,113.3 7,113.2 7,113.2 7,113.1 7.1,113 7.1,112.9 7.1,112.8 7.2,112.7 7.2,112.6 7.2,112.5 7.2,112.4 7.2,112.3 
			7.2,112.2 7.2,112.1 7.2,112 7.2,111.9 7.1,111.8 7.1,111.7 7.1,111.6 		"/>
		<polyline class="st2" points="34,59 34,59 34.1,58.9 34.1,58.8 34.1,58.8 34.2,58.7 34.2,58.6 34.2,58.6 34.2,58.5 34.2,58.4 
			34.3,58.3 34.3,58.2 34.3,58.1 34.3,58 34.3,57.9 34.3,57.8 34.2,57.7 34.2,57.7 34.2,57.6 34.2,57.5 34.1,57.4 34.1,57.4 
			34.1,57.3 34,57.2 34,57.2 34,57.2 33.9,57.1 33.9,57.1 33.8,57.1 33.7,57.1 33.7,57.1 33.7,57.1 33.6,57.1 33.6,57.1 33.5,57.2 
			33.5,57.2 33.4,57.3 33.4,57.3 33.4,57.4 33.3,57.5 33.3,57.5 33.3,57.6 33.3,57.7 33.3,57.8 33.3,57.9 33.2,58 33.2,58.1 
			33.2,58.2 33.2,58.3 33.3,58.3 33.3,58.4 33.3,58.5 33.3,58.6 33.3,58.7 33.4,58.8 33.4,58.8 33.4,58.9 33.5,58.9 33.5,59 
			33.6,59 33.6,59.1 33.7,59.1 33.7,59.1 33.7,59.1 33.8,59.1 33.8,59.1 33.8,59.1 33.9,59.1 33.9,59 34,59 		"/>
		<polyline class="st2" points="30.2,59 30.2,59 30.3,58.9 30.3,58.8 30.3,58.8 30.4,58.7 30.4,58.6 30.4,58.6 30.4,58.5 30.4,58.4 
			30.5,58.3 30.5,58.2 30.5,58.1 30.5,58 30.5,57.9 30.4,57.8 30.4,57.7 30.4,57.7 30.4,57.6 30.4,57.5 30.3,57.4 30.3,57.4 
			30.3,57.3 30.2,57.2 30.2,57.2 30.1,57.2 30.1,57.1 30.1,57.1 30,57.1 30,57.1 29.9,57.1 29.9,57.1 29.8,57.1 29.8,57.1 
			29.7,57.2 29.7,57.2 29.7,57.3 29.6,57.3 29.6,57.4 29.6,57.5 29.5,57.5 29.5,57.6 29.5,57.7 29.5,57.8 29.5,57.9 29.5,58 
			29.5,58.1 29.5,58.2 29.5,58.3 29.5,58.3 29.5,58.4 29.5,58.5 29.5,58.6 29.5,58.7 29.6,58.8 29.6,58.8 29.6,58.9 29.7,58.9 
			29.7,59 29.8,59 29.8,59.1 29.9,59.1 29.9,59.1 30,59.1 30,59.1 30,59.1 30.1,59.1 30.1,59 30.2,59 		"/>
		<polyline class="st2" points="22.6,59 22.6,59 22.7,58.9 22.7,58.8 22.7,58.8 22.8,58.7 22.8,58.6 22.8,58.6 22.8,58.5 22.8,58.4 
			22.9,58.3 22.9,58.2 22.9,58.1 22.9,58 22.9,57.9 22.9,57.8 22.8,57.7 22.8,57.7 22.8,57.6 22.8,57.5 22.7,57.4 22.7,57.4 
			22.7,57.3 22.6,57.2 22.6,57.2 22.6,57.2 22.5,57.1 22.5,57.1 22.4,57.1 22.4,57.1 22.3,57.1 22.3,57.1 22.2,57.1 22.2,57.1 
			22.1,57.2 22.1,57.2 22.1,57.3 22,57.3 22,57.4 22,57.5 21.9,57.5 21.9,57.6 21.9,57.7 21.9,57.8 21.9,57.9 21.9,58 21.9,58.1 
			21.9,58.2 21.9,58.3 21.9,58.3 21.9,58.4 21.9,58.5 21.9,58.6 22,58.7 22,58.8 22,58.8 22.1,58.9 22.1,58.9 22.1,59 22.2,59 
			22.2,59.1 22.3,59.1 22.3,59.1 22.4,59.1 22.4,59.1 22.4,59.1 22.5,59.1 22.5,59 22.6,59 		"/>
		<polyline class="st2" points="18.8,59 18.8,59 18.9,58.9 18.9,58.8 18.9,58.8 19,58.7 19,58.6 19,58.6 19,58.5 19.1,58.4 
			19.1,58.3 19.1,58.2 19.1,58.1 19.1,58 19.1,57.9 19.1,57.8 19,57.7 19,57.7 19,57.6 19,57.5 19,57.4 18.9,57.4 18.9,57.3 
			18.8,57.2 18.8,57.2 18.8,57.2 18.7,57.1 18.7,57.1 18.6,57.1 18.6,57.1 18.5,57.1 18.5,57.1 18.4,57.1 18.4,57.1 18.3,57.2 
			18.3,57.2 18.3,57.3 18.2,57.3 18.2,57.4 18.2,57.5 18.1,57.5 18.1,57.6 18.1,57.7 18.1,57.8 18.1,57.9 18.1,58 18.1,58.1 
			18.1,58.2 18.1,58.3 18.1,58.3 18.1,58.4 18.1,58.5 18.1,58.6 18.1,58.7 18.2,58.8 18.2,58.8 18.2,58.9 18.3,58.9 18.3,59 
			18.4,59 18.4,59.1 18.5,59.1 18.5,59.1 18.6,59.1 18.6,59.1 18.7,59.1 18.7,59.1 18.7,59 18.8,59 		"/>
		<polygon class="st2" points="27.9,88.8 28,88.8 28,88.7 28.1,88.6 28.1,88.6 28.1,88.5 28.2,88.4 28.2,88.3 28.2,88.2 28.2,88.1 
			28.2,88 28.3,87.9 28.3,87.7 28.3,87.6 28.3,87.5 28.2,87.4 28.2,87.3 28.2,87.2 28.2,87.1 28.1,87 28.1,86.9 28.1,86.8 28,86.8 
			28,86.7 27.9,86.7 27.9,86.6 27.8,86.6 27.8,86.5 27.7,86.5 27.7,86.5 27.6,86.5 27.6,86.5 27.5,86.6 27.5,86.6 27.4,86.6 
			27.4,86.7 27.3,86.8 27.3,86.8 27.2,86.9 27.2,87 27.2,87.1 27.1,87.2 27.1,87.3 27.1,87.4 27.1,87.5 27.1,87.6 27.1,87.7 
			27.1,87.9 27.1,87.9 27.1,88 27.1,88.1 27.1,88.3 27.1,88.3 27.2,88.4 27.2,88.5 27.3,88.6 27.3,88.7 27.3,88.7 27.4,88.8 
			27.4,88.8 27.5,88.9 27.5,88.9 27.6,88.9 27.7,88.9 27.7,88.9 27.8,88.9 27.8,88.9 27.9,88.9 		"/>
		<polyline class="st2" points="26.4,59 26.4,59 26.5,58.9 26.5,58.8 26.5,58.8 26.6,58.7 26.6,58.6 26.6,58.6 26.6,58.5 26.7,58.4 
			26.7,58.3 26.7,58.2 26.7,58.1 26.7,58 26.7,57.9 26.7,57.8 26.6,57.7 26.6,57.7 26.6,57.6 26.6,57.5 26.5,57.4 26.5,57.4 
			26.5,57.3 26.4,57.2 26.4,57.2 26.4,57.2 26.3,57.1 26.3,57.1 26.2,57.1 26.2,57.1 26.1,57.1 26.1,57.1 26,57.1 26,57.1 
			25.9,57.2 25.9,57.2 25.9,57.3 25.8,57.3 25.8,57.4 25.8,57.5 25.7,57.5 25.7,57.6 25.7,57.7 25.7,57.8 25.7,57.9 25.6,58 
			25.6,58.1 25.6,58.2 25.7,58.3 25.7,58.3 25.7,58.4 25.7,58.5 25.7,58.6 25.7,58.7 25.8,58.8 25.8,58.8 25.8,58.9 25.9,58.9 
			25.9,59 26,59 26,59.1 26.1,59.1 26.1,59.1 26.2,59.1 26.2,59.1 26.2,59.1 26.3,59.1 26.3,59 26.4,59 		"/>
		<polyline class="st2" points="37.8,59 37.8,59 37.9,58.9 37.9,58.8 37.9,58.8 38,58.7 38,58.6 38,58.6 38,58.5 38,58.4 38,58.3 
			38.1,58.2 38.1,58.1 38.1,58 38.1,57.9 38,57.8 38,57.7 38,57.7 38,57.6 38,57.5 37.9,57.4 37.9,57.4 37.9,57.3 37.8,57.2 
			37.8,57.2 37.7,57.2 37.7,57.1 37.7,57.1 37.6,57.1 37.6,57.1 37.5,57.1 37.5,57.1 37.4,57.1 37.4,57.1 37.3,57.2 37.3,57.2 
			37.3,57.3 37.2,57.3 37.2,57.4 37.2,57.5 37.1,57.5 37.1,57.6 37.1,57.7 37.1,57.8 37.1,57.9 37,58 37,58.1 37,58.2 37.1,58.3 
			37.1,58.3 37.1,58.4 37.1,58.5 37.1,58.6 37.1,58.7 37.2,58.8 37.2,58.8 37.2,58.9 37.3,58.9 37.3,59 37.4,59 37.4,59.1 
			37.5,59.1 37.5,59.1 37.6,59.1 37.6,59.1 37.6,59.1 37.7,59.1 37.7,59 37.8,59 		"/>
		<polygon class="st2" points="23.5,80 23.6,80 23.6,79.9 23.7,79.9 23.7,79.8 23.8,79.7 23.8,79.6 23.8,79.5 23.8,79.4 23.9,79.3 
			23.9,79.2 23.9,79.1 23.9,78.9 23.9,78.8 23.9,78.7 23.9,78.6 23.8,78.5 23.8,78.4 23.8,78.3 23.8,78.2 23.7,78.2 23.7,78.1 
			23.6,78 23.6,77.9 23.5,77.9 23.5,77.8 23.4,77.8 23.4,77.8 23.3,77.8 23.3,77.7 23.2,77.8 23.2,77.8 23.1,77.8 23.1,77.8 
			23,77.9 23,77.9 22.9,78 22.9,78 22.8,78.1 22.8,78.2 22.8,78.3 22.7,78.4 22.7,78.5 22.7,78.6 22.7,78.7 22.7,78.8 22.7,78.9 
			22.7,79.1 22.7,79.1 22.7,79.2 22.7,79.4 22.7,79.5 22.8,79.6 22.8,79.6 22.8,79.7 22.9,79.8 22.9,79.9 22.9,80 23,80 23,80.1 
			23.1,80.1 23.1,80.1 23.2,80.1 23.3,80.2 23.3,80.1 23.4,80.1 23.4,80.1 23.5,80.1 		"/>
		<polygon class="st2" points="17.4,80 17.4,80 17.5,79.9 17.5,79.9 17.6,79.8 17.6,79.7 17.6,79.6 17.7,79.5 17.7,79.4 17.7,79.3 
			17.7,79.2 17.7,79.1 17.7,78.9 17.7,78.8 17.7,78.7 17.7,78.6 17.7,78.5 17.7,78.4 17.6,78.3 17.6,78.2 17.6,78.2 17.5,78.1 
			17.5,78 17.5,77.9 17.4,77.9 17.4,77.8 17.3,77.8 17.3,77.8 17.2,77.8 17.1,77.7 17.1,77.8 17,77.8 17,77.8 16.9,77.8 16.9,77.9 
			16.8,77.9 16.8,78 16.7,78 16.7,78.1 16.7,78.2 16.6,78.3 16.6,78.4 16.6,78.5 16.6,78.6 16.5,78.7 16.5,78.8 16.5,78.9 
			16.5,79.1 16.5,79.1 16.6,79.2 16.6,79.4 16.6,79.5 16.6,79.6 16.7,79.6 16.7,79.7 16.7,79.8 16.8,79.9 16.8,80 16.9,80 
			16.9,80.1 17,80.1 17,80.1 17.1,80.1 17.1,80.2 17.2,80.1 17.2,80.1 17.3,80.1 17.3,80.1 		"/>
		<polygon class="st2" points="11.3,120 11.2,119.9 11.2,119.9 11.1,119.9 11.1,119.9 11,119.8 10.9,119.9 10.9,119.9 10.8,119.9 
			10.8,119.9 10.7,120 10.7,120 10.6,120.1 10.6,120.1 10.6,120.2 10.5,120.3 10.5,120.4 10.5,120.5 10.4,120.6 10.4,120.7 
			10.4,120.8 10.4,120.9 10.4,121.1 10.4,121.2 10.4,121.3 10.4,121.4 10.4,121.5 10.5,121.6 10.5,121.7 10.5,121.8 10.5,121.9 
			10.6,121.9 10.6,122 10.7,122.1 10.7,122.1 10.8,122.2 10.8,122.2 10.9,122.2 10.9,122.3 11,122.3 11.1,122.3 11.1,122.2 
			11.2,122.2 11.2,122.2 11.3,122.1 11.3,122.1 11.4,122 11.4,122 11.4,121.9 11.5,121.8 11.5,121.7 11.5,121.6 11.6,121.5 
			11.6,121.4 11.6,121.3 11.6,121.2 11.6,121.1 11.6,120.9 11.6,120.9 11.6,120.8 11.6,120.6 11.5,120.5 11.5,120.4 11.5,120.4 
			11.5,120.3 11.4,120.2 11.4,120.1 11.3,120 		"/>
		<polygon class="st2" points="17.4,119.9 17.3,119.9 17.3,119.9 17.2,119.9 17.1,119.8 17.1,119.9 17,119.9 17,119.9 16.9,119.9 
			16.9,120 16.8,120 16.8,120.1 16.7,120.1 16.7,120.2 16.7,120.3 16.6,120.4 16.6,120.5 16.6,120.6 16.6,120.7 16.5,120.8 
			16.5,120.9 16.5,121.1 16.5,121.2 16.5,121.3 16.6,121.4 16.6,121.5 16.6,121.6 16.6,121.7 16.7,121.8 16.7,121.9 16.7,121.9 
			16.8,122 16.8,122.1 16.9,122.1 16.9,122.2 17,122.2 17,122.2 17.1,122.3 17.1,122.3 17.2,122.3 17.2,122.2 17.3,122.2 
			17.3,122.2 17.4,122.1 17.4,122.1 17.5,122 17.5,122 17.6,121.9 17.6,121.8 17.6,121.7 17.7,121.6 17.7,121.5 17.7,121.4 
			17.7,121.3 17.7,121.2 17.7,121.1 17.7,120.9 17.7,120.9 17.7,120.8 17.7,120.6 17.7,120.5 17.6,120.4 17.6,120.4 17.6,120.3 
			17.5,120.2 17.5,120.1 17.5,120 17.4,120 		"/>
		<polygon class="st2" points="23.4,119.9 23.3,119.9 23.3,119.8 23.2,119.9 23.2,119.9 23.1,119.9 23.1,119.9 23,120 23,120 
			22.9,120.1 22.9,120.1 22.8,120.2 22.8,120.3 22.8,120.4 22.7,120.5 22.7,120.6 22.7,120.7 22.7,120.8 22.7,120.9 22.7,121.1 
			22.7,121.2 22.7,121.3 22.7,121.4 22.7,121.5 22.7,121.6 22.8,121.7 22.8,121.8 22.8,121.9 22.9,121.9 22.9,122 22.9,122.1 
			23,122.1 23,122.2 23.1,122.2 23.1,122.2 23.2,122.3 23.3,122.3 23.3,122.3 23.4,122.2 23.4,122.2 23.5,122.2 23.5,122.1 
			23.6,122.1 23.6,122 23.7,122 23.7,121.9 23.8,121.8 23.8,121.7 23.8,121.6 23.8,121.5 23.9,121.4 23.9,121.3 23.9,121.2 
			23.9,121.1 23.9,120.9 23.9,120.9 23.9,120.8 23.8,120.6 23.8,120.5 23.8,120.4 23.8,120.4 23.7,120.3 23.7,120.2 23.6,120.1 
			23.6,120 23.5,120 23.5,119.9 23.4,119.9 		"/>
		<polygon class="st2" points="27.8,111.1 27.7,111.1 27.7,111.1 27.6,111.1 27.6,111.1 27.5,111.1 27.5,111.1 27.4,111.2 
			27.4,111.2 27.3,111.3 27.3,111.4 27.2,111.4 27.2,111.5 27.2,111.6 27.1,111.7 27.1,111.8 27.1,111.9 27.1,112 27.1,112.2 
			27.1,112.3 27.1,112.4 27.1,112.5 27.1,112.6 27.1,112.7 27.1,112.8 27.1,112.9 27.2,113 27.2,113.1 27.3,113.2 27.3,113.2 
			27.3,113.3 27.4,113.3 27.4,113.4 27.5,113.4 27.5,113.5 27.6,113.5 27.7,113.5 27.7,113.5 27.8,113.5 27.8,113.4 27.9,113.4 
			27.9,113.4 28,113.3 28,113.2 28.1,113.2 28.1,113.1 28.1,113 28.2,112.9 28.2,112.8 28.2,112.7 28.2,112.6 28.2,112.5 
			28.3,112.4 28.3,112.3 28.3,112.2 28.3,112.1 28.2,112 28.2,111.9 28.2,111.8 28.2,111.7 28.1,111.6 28.1,111.5 28.1,111.4 
			28,111.3 28,111.3 27.9,111.2 27.9,111.2 27.8,111.1 		"/>
		<polygon class="st2" points="26.2,140.9 26.1,140.9 26.1,140.9 26,140.9 26,141 25.9,141 25.9,141 25.9,141.1 25.8,141.2 
			25.8,141.2 25.8,141.3 25.7,141.4 25.7,141.4 25.7,141.5 25.7,141.6 25.7,141.7 25.6,141.8 25.6,141.9 25.6,142 25.7,142.1 
			25.7,142.2 25.7,142.3 25.7,142.4 25.7,142.4 25.7,142.5 25.8,142.6 25.8,142.7 25.8,142.7 25.9,142.8 25.9,142.8 26,142.9 
			26,142.9 26.1,142.9 26.1,142.9 26.2,142.9 26.2,142.9 26.2,142.9 26.3,142.9 26.3,142.9 26.4,142.8 26.4,142.8 26.5,142.7 
			26.5,142.7 26.5,142.6 26.6,142.5 26.6,142.5 26.6,142.4 26.6,142.3 26.7,142.2 26.7,142.1 26.7,142 26.7,141.9 26.7,141.8 
			26.7,141.7 26.7,141.7 26.6,141.6 26.6,141.5 26.6,141.4 26.6,141.3 26.5,141.2 26.5,141.2 26.5,141.1 26.4,141.1 26.4,141 
			26.4,141 26.3,140.9 26.3,140.9 26.2,140.9 		"/>
		<polyline class="st3" points="18.6,140.9 18.5,140.9 18.5,140.9 18.4,140.9 18.4,141 18.3,141 18.3,141 18.3,141.1 18.2,141.2 
			18.2,141.2 18.2,141.3 18.1,141.4 18.1,141.4 18.1,141.5 18.1,141.6 18.1,141.7 18.1,141.8 18.1,141.9 18.1,142 18.1,142.1 
			18.1,142.2 18.1,142.3 18.1,142.4 18.1,142.4 18.1,142.5 18.2,142.6 18.2,142.7 18.2,142.7 18.3,142.8 18.3,142.8 18.4,142.9 
			18.4,142.9 18.5,142.9 18.5,142.9 18.6,142.9 18.6,142.9 18.7,142.9 18.7,142.9 18.7,142.9 18.8,142.8 18.8,142.8 18.9,142.7 
			18.9,142.7 18.9,142.6 19,142.5 19,142.5 19,142.4 19,142.3 19.1,142.2 19.1,142.1 19.1,142 19.1,141.9 19.1,141.8 19.1,141.7 
			19.1,141.7 19,141.6 19,141.5 19,141.4 19,141.3 19,141.2 18.9,141.2 18.9,141.1 18.8,141.1 18.8,141 18.8,141 18.7,140.9 
			18.7,140.9 18.6,140.9 		"/>
		<line class="st2" x1="18.6" y1="140.9" x2="18.6" y2="140.9"/>
		<polyline class="st2" points="22.4,140.9 22.4,140.9 22.3,140.9 22.3,140.9 22.2,140.9 22.2,141 22.1,141 22.1,141 22.1,141.1 
			22,141.2 22,141.2 22,141.3 21.9,141.4 21.9,141.4 21.9,141.5 21.9,141.6 21.9,141.7 21.9,141.8 21.9,141.9 21.9,142 21.9,142.1 
			21.9,142.2 21.9,142.3 21.9,142.4 21.9,142.4 22,142.5 22,142.6 22,142.7 22.1,142.7 22.1,142.8 22.1,142.8 22.2,142.9 
			22.2,142.9 22.3,142.9 22.3,142.9 22.4,142.9 22.4,142.9 22.4,142.9 22.5,142.9 22.5,142.9 22.6,142.8 22.6,142.8 22.7,142.7 
			22.7,142.7 22.7,142.6 22.8,142.5 22.8,142.5 22.8,142.4 22.8,142.3 22.8,142.2 22.9,142.1 22.9,142 22.9,141.9 22.9,141.8 
			22.9,141.7 22.9,141.7 22.8,141.6 22.8,141.5 22.8,141.4 22.8,141.3 22.7,141.2 22.7,141.2 22.7,141.1 22.6,141.1 22.6,141 
			22.6,141 22.5,140.9 22.5,140.9 22.4,140.9 		"/>
		<polygon class="st2" points="30,140.9 29.9,140.9 29.9,140.9 29.8,140.9 29.8,141 29.7,141 29.7,141 29.7,141.1 29.6,141.2 
			29.6,141.2 29.6,141.3 29.5,141.4 29.5,141.4 29.5,141.5 29.5,141.6 29.5,141.7 29.5,141.8 29.5,141.9 29.5,142 29.5,142.1 
			29.5,142.2 29.5,142.3 29.5,142.4 29.5,142.4 29.5,142.5 29.6,142.6 29.6,142.7 29.6,142.7 29.7,142.8 29.7,142.8 29.8,142.9 
			29.8,142.9 29.9,142.9 29.9,142.9 30,142.9 30,142.9 30,142.9 30.1,142.9 30.1,142.9 30.2,142.8 30.2,142.8 30.3,142.7 
			30.3,142.7 30.3,142.6 30.4,142.5 30.4,142.5 30.4,142.4 30.4,142.3 30.4,142.2 30.5,142.1 30.5,142 30.5,141.9 30.5,141.8 
			30.5,141.7 30.4,141.7 30.4,141.6 30.4,141.5 30.4,141.4 30.4,141.3 30.3,141.2 30.3,141.2 30.3,141.1 30.2,141.1 30.2,141 
			30.1,141 30.1,140.9 30.1,140.9 30,140.9 		"/>
		<polyline class="st2" points="33.7,140.9 33.7,140.9 33.6,140.9 33.6,141 33.5,141 33.5,141 33.4,141.1 33.4,141.2 33.4,141.2 
			33.3,141.3 33.3,141.4 33.3,141.4 33.3,141.5 33.3,141.6 33.3,141.7 33.2,141.8 33.2,141.9 33.2,142 33.2,142.1 33.3,142.2 
			33.3,142.3 33.3,142.4 33.3,142.4 33.3,142.5 33.4,142.6 33.4,142.7 33.4,142.7 33.5,142.8 33.5,142.8 33.6,142.9 33.6,142.9 
			33.7,142.9 33.7,142.9 33.7,142.9 33.8,142.9 33.8,142.9 33.9,142.9 33.9,142.9 34,142.8 34,142.8 34.1,142.7 34.1,142.7 
			34.1,142.6 34.2,142.5 34.2,142.5 34.2,142.4 34.2,142.3 34.2,142.2 34.3,142.1 34.3,142 34.3,141.9 34.3,141.8 34.3,141.7 
			34.3,141.7 34.2,141.6 34.2,141.5 34.2,141.4 34.2,141.3 34.1,141.2 34.1,141.2 34.1,141.1 34,141.1 34,141 34,141 33.9,140.9 
			33.9,140.9 33.8,140.9 33.8,140.9 33.7,140.9 33.7,140.9 		"/>
		<polyline class="st2" points="37.5,140.9 37.5,140.9 37.4,140.9 37.4,141 37.3,141 37.3,141 37.3,141.1 37.2,141.2 37.2,141.2 
			37.2,141.3 37.1,141.4 37.1,141.4 37.1,141.5 37.1,141.6 37.1,141.7 37,141.8 37,141.9 37,142 37.1,142.1 37.1,142.2 37.1,142.3 
			37.1,142.4 37.1,142.4 37.1,142.5 37.2,142.6 37.2,142.7 37.2,142.7 37.3,142.8 37.3,142.8 37.4,142.9 37.4,142.9 37.5,142.9 
			37.5,142.9 37.6,142.9 37.6,142.9 37.6,142.9 37.7,142.9 37.7,142.9 37.8,142.8 37.8,142.8 37.9,142.7 37.9,142.7 37.9,142.6 
			38,142.5 38,142.5 38,142.4 38,142.3 38,142.2 38,142.1 38.1,142 38.1,141.9 38.1,141.8 38.1,141.7 38,141.7 38,141.6 38,141.5 
			38,141.4 38,141.3 37.9,141.2 37.9,141.2 37.9,141.1 37.8,141.1 37.8,141 37.7,141 37.7,140.9 37.7,140.9 37.6,140.9 37.6,140.9 
			37.5,140.9 		"/>
		<polyline class="st1" points="0.8,67.2 16.1,67.2 22.4,67.2 24.2,67.2 26.2,67.2 30,67.2 31.9,67.2 33.5,67.2 33.8,67.2 40,67.2 
			43.3,67.2 58.7,67.2 		"/>
		<polyline class="st1" points="58.7,132.8 43.3,132.8 40,132.8 33.8,132.8 33.5,132.8 31.9,132.8 30,132.8 26.2,132.8 24.2,132.8 
			22.4,132.8 16.1,132.8 0.8,132.8 		"/>
		<line class="st3" x1="30" y1="59.1" x2="30" y2="67.2"/>
		<polyline class="st3" points="18.6,59.1 22.4,61.5 22.4,67.2 22.4,67.3 		"/>
		<polyline class="st3" points="22.4,59.1 24.2,61.5 24.2,67.2 		"/>
		<polyline class="st3" points="37.6,59.1 33.8,61.5 33.8,67.2 33.8,67.3 		"/>
		<polyline class="st3" points="33.8,59.1 31.9,61.5 31.9,67.2 		"/>
		<polyline class="st3" points="26.2,59.1 26.2,67.2 26.2,67.3 		"/>
		<line class="st3" x1="30" y1="140.9" x2="30" y2="132.8"/>
		<polyline class="st3" points="18.6,140.9 22.4,138.5 22.4,132.8 22.4,132.7 		"/>
		<line class="st2" x1="18.6" y1="140.9" x2="18.6" y2="140.9"/>
		<polyline class="st3" points="22.4,140.9 24.2,138.5 24.2,132.8 		"/>
		<polyline class="st3" points="37.6,140.9 33.8,138.5 33.8,132.8 33.8,132.7 		"/>
		<polyline class="st3" points="33.8,140.9 31.9,138.5 31.9,132.8 		"/>
		<polyline class="st3" points="26.2,140.9 26.2,132.8 26.2,132.7 		"/>
		<rect x="9.9" y="85.5" class="st1" width="14.5" height="28.9"/>
	</g>
</g>
</svg>
