<?xml version="1.0" encoding="utf-8"?>
<!-- Generator: Adobe Illustrator 21.0.0, SVG Export Plug-In . SVG Version: 6.00 Build 0)  -->
<svg version="1.1" id="Layer_1" xmlns="http://www.w3.org/2000/svg" xmlns:xlink="http://www.w3.org/1999/xlink" x="0px" y="0px"
	 viewBox="0 0 100 100" style="enable-background:new 0 0 100 100;" xml:space="preserve">
<style type="text/css">
	.st0{fill:#A9A9A9;}
</style>
<g>
	<g>
		<path class="st0" d="M66.2,12.4l-1.3-0.7l1-2l0.6,0.3c0.5,0.2,0.9,0.4,1.4,0.6L67.3,12c-0.2-0.1-0.5-0.2-0.7-0.3L66.2,12.4z"/>
	</g>
	<g>
		
			<rect x="61.8" y="15.3" transform="matrix(0.4672 -0.8842 0.8842 0.4672 19.5517 64.6034)" class="st0" width="3.1" height="1.5"/>
	</g>
	<g>
		<path class="st0" d="M60.9,22.4l-0.6-0.2c-0.5-0.2-0.9-0.3-1.4-0.5l0.5-1.4c0.3,0.1,0.6,0.2,0.8,0.3l0.4-0.8l1.3,0.7L60.9,22.4z"
			/>
	</g>
	<g>
		<path class="st0" d="M56.4,21c-0.8-0.2-1.7-0.3-2.5-0.4l0.2-1.5c0.9,0.1,1.8,0.3,2.7,0.5L56.4,21z M43.6,21l-0.3-1.5
			c0.9-0.2,1.8-0.4,2.7-0.5l0.2,1.5C45.3,20.7,44.5,20.9,43.6,21z M51.3,20.4c-0.4,0-0.9,0-1.3,0c-0.4,0-0.9,0-1.3,0l-0.1-1.5
			c0.5,0,0.9,0,1.4,0c0.4,0,0.9,0,1.3,0L51.3,20.4z"/>
	</g>
	<g>
		<path class="st0" d="M39.1,22.4l-1-1.9l1.3-0.7l0.4,0.8c0.3-0.1,0.6-0.2,0.8-0.3l0.5,1.4c-0.5,0.1-0.9,0.3-1.4,0.5L39.1,22.4z"/>
	</g>
	<g>
		<rect x="35.9" y="14.6" transform="matrix(0.8843 -0.467 0.467 0.8843 -3.2705 18.9643)" class="st0" width="1.5" height="3.1"/>
	</g>
	<g>
		<path class="st0" d="M33.8,12.4l-0.4-0.7c-0.2,0.1-0.5,0.2-0.7,0.3l-0.6-1.4c0.5-0.2,0.9-0.4,1.4-0.6l0.6-0.3l1,2L33.8,12.4z"/>
	</g>
	<g>
		<path class="st0" d="M50,92.9c-0.5,0-1.1,0-1.6,0l0.1-1.5c1,0,2,0,3,0l0.1,1.5C51,92.8,50.5,92.9,50,92.9z M54.6,92.6l-0.2-1.5
			c1-0.1,2-0.2,3-0.4l0.3,1.5C56.7,92.4,55.6,92.5,54.6,92.6z M45.3,92.6c-1-0.1-2.1-0.3-3.1-0.4l0.3-1.5c1,0.2,2,0.3,3,0.4
			L45.3,92.6z M60.7,91.5L60.4,90c1-0.2,1.9-0.5,2.9-0.9l0.5,1.4C62.7,91,61.7,91.2,60.7,91.5z M39.2,91.5c-1-0.3-2-0.6-3-0.9
			l0.5-1.4c0.9,0.3,1.9,0.6,2.9,0.9L39.2,91.5z M66.6,89.5l-0.6-1.4c0.9-0.4,1.8-0.8,2.7-1.3l0.7,1.4C68.6,88.7,67.6,89.1,66.6,89.5
			z M33.3,89.5c-1-0.4-1.9-0.8-2.8-1.3l0.7-1.4c0.9,0.5,1.8,0.9,2.7,1.3L33.3,89.5z M72.2,86.7l-0.8-1.3c0.9-0.5,1.7-1.1,2.5-1.6
			l0.9,1.2C74,85.6,73.1,86.2,72.2,86.7z M27.7,86.7c-0.9-0.5-1.8-1.1-2.6-1.7l0.9-1.2c0.8,0.6,1.7,1.1,2.5,1.6L27.7,86.7z
			 M77.3,83.1l-1-1.2c0.8-0.6,1.5-1.3,2.3-2l1,1.1C78.9,81.8,78.1,82.5,77.3,83.1z M22.7,83.1c-0.8-0.7-1.6-1.4-2.3-2.1l1-1.1
			c0.7,0.7,1.5,1.4,2.3,2L22.7,83.1z M81.8,78.8l-1.1-1c0.7-0.7,1.3-1.5,1.9-2.3l1.2,0.9C83.2,77.3,82.5,78.1,81.8,78.8z M18.1,78.8
			c-0.7-0.8-1.4-1.6-2-2.4l1.2-0.9c0.6,0.8,1.3,1.6,1.9,2.3L18.1,78.8z M85.7,73.9l-1.3-0.9c0.6-0.8,1.1-1.7,1.6-2.5l1.3,0.8
			C86.8,72.2,86.2,73.1,85.7,73.9z M14.3,73.9c-0.6-0.9-1.1-1.7-1.7-2.6l1.3-0.8c0.5,0.9,1,1.7,1.6,2.5L14.3,73.9z M88.8,68.6
			l-1.4-0.7c0.4-0.9,0.8-1.8,1.2-2.7l1.4,0.6C89.7,66.7,89.2,67.6,88.8,68.6z M11.2,68.5c-0.5-0.9-0.9-1.9-1.3-2.9l1.4-0.6
			c0.4,0.9,0.8,1.9,1.2,2.8L11.2,68.5z M91.1,62.8l-1.4-0.5c0.3-1,0.6-1.9,0.8-2.9l1.5,0.4C91.7,60.8,91.4,61.8,91.1,62.8z
			 M8.9,62.7c-0.3-1-0.6-2-0.8-3l1.5-0.3c0.2,1,0.5,1.9,0.8,2.9L8.9,62.7z M92.5,56.7L91,56.5c0.2-1,0.3-2,0.4-3l1.5,0.1
			C92.8,54.7,92.7,55.7,92.5,56.7z M7.5,56.6c-0.2-1-0.3-2.1-0.4-3.1l1.5-0.1c0.1,1,0.2,2,0.4,3L7.5,56.6z M93.1,50.5l-1.5,0
			c0-0.2,0-0.5,0-0.7c0-0.8,0-1.5-0.1-2.3l1.5-0.1c0,0.8,0.1,1.6,0.1,2.4C93.1,50,93.1,50.3,93.1,50.5z M6.9,50.4c0-0.2,0-0.4,0-0.7
			c0-0.8,0-1.6,0.1-2.4l1.5,0.1c0,0.8-0.1,1.6-0.1,2.4c0,0.2,0,0.4,0,0.6L6.9,50.4z M91.2,44.5c-0.1-1-0.3-2-0.5-3l1.5-0.3
			c0.2,1,0.4,2,0.5,3.1L91.2,44.5z M8.8,44.4l-1.5-0.2c0.1-1,0.3-2.1,0.5-3.1l1.5,0.3C9.1,42.4,8.9,43.4,8.8,44.4z M90,38.6
			c-0.3-1-0.6-1.9-0.9-2.9l1.4-0.5c0.3,1,0.7,2,0.9,3L90,38.6z M10,38.5l-1.5-0.4c0.3-1,0.6-2,0.9-3l1.4,0.5
			C10.6,36.6,10.2,37.6,10,38.5z M88,33c-0.4-0.9-0.8-1.8-1.3-2.7l1.3-0.7c0.5,0.9,0.9,1.9,1.4,2.8L88,33z M12,32.9l-1.4-0.6
			c0.4-0.9,0.9-1.9,1.4-2.8l1.3,0.7C12.9,31.1,12.4,32,12,32.9z M85.2,27.7c-0.5-0.8-1.1-1.7-1.7-2.5l1.2-0.9
			c0.6,0.8,1.2,1.7,1.8,2.6L85.2,27.7z M14.8,27.6l-1.3-0.8c0.6-0.9,1.1-1.7,1.8-2.6l1.2,0.9C16,25.9,15.4,26.7,14.8,27.6z
			 M81.6,22.8c-0.6-0.8-1.3-1.5-2-2.2l1.1-1.1c0.7,0.7,1.4,1.5,2.1,2.3L81.6,22.8z M18.4,22.8l-1.2-1c0.7-0.8,1.4-1.6,2.1-2.3
			l1.1,1.1C19.7,21.3,19.1,22,18.4,22.8z M77.4,18.5c-0.8-0.7-1.5-1.3-2.3-1.9l0.9-1.2c0.8,0.6,1.6,1.3,2.4,2L77.4,18.5z M22.6,18.5
			l-1-1.1c0.8-0.7,1.6-1.3,2.4-2l0.9,1.2C24.2,17.2,23.4,17.8,22.6,18.5z M72.6,14.9c-0.8-0.5-1.7-1.1-2.6-1.5l0.7-1.3
			c0.9,0.5,1.8,1,2.7,1.6L72.6,14.9z M27.4,14.9l-0.8-1.3c0.9-0.6,1.8-1.1,2.7-1.6l0.7,1.3C29.1,13.8,28.3,14.3,27.4,14.9z"/>
	</g>
</g>
</svg>
