<?xml version="1.0" encoding="utf-8"?>
<!-- Generator: Adobe Illustrator 21.0.0, SVG Export Plug-In . SVG Version: 6.00 Build 0)  -->
<svg version="1.1" id="Layer_1" xmlns="http://www.w3.org/2000/svg" xmlns:xlink="http://www.w3.org/1999/xlink" x="0px" y="0px"
	 viewBox="0 0 100 100" style="enable-background:new 0 0 100 100;" xml:space="preserve">
<style type="text/css">
	.st0{fill:#A9A9A9;}
</style>
<g>
	<g>
		<path class="st0" d="M66.1900253,12.3775759l-1.3433914-0.7097797l1.0332642-1.9564686l0.6400375,0.2663527
			c0.4768143,0.1983423,0.9486771,0.4045992,1.4170837,0.6190166l-0.63311,1.3814735
			c-0.2423706-0.111042-0.4857178-0.2198591-0.7305603-0.3264494L66.1900253,12.3775759z"/>
	</g>
	<g>
		
			<rect x="61.8462067" y="15.3204927" transform="matrix(0.4671547 -0.8841756 0.8841756 0.4671547 19.551712 64.6034393)" class="st0" width="3.0588565" height="1.5193675"/>
	</g>
	<g>
		<path class="st0" d="M60.8842354,22.4257793l-0.6256943-0.2327194c-0.4619751-0.1718807-0.9328537-0.333868-1.3997765-0.4810181
			l0.4570312-1.4492359c0.280941,0.0887852,0.5628777,0.1822681,0.8438187,0.2799549l0.4016342-0.7599831l1.3433876,0.7092838
			L60.8842354,22.4257793z"/>
	</g>
	<g>
		<path class="st0" d="M56.3777542,21.0470257c-0.8324471-0.1842461-1.6836891-0.334116-2.5294876-0.44491l0.1978493-1.5066128
			c0.8893242,0.1167297,1.7845879,0.2740192,2.6600647,0.4681587L56.3777542,21.0470257z M43.6299133,21.0452938
			l-0.3274384-1.4838581c0.8769608-0.1936436,1.7722244-0.3509331,2.6610565-0.4671688l0.1968575,1.5066128
			C45.3155785,20.7114258,44.4643364,20.8608017,43.6299133,21.0452938z M51.2886086,20.3795357
			c-0.426857-0.0185471-0.8665733-0.0422897-1.2879906-0.0276985c-0.4298248,0-0.8566818,0.0091515-1.281559,0.0274525
			l-0.0652924-1.5179882c0.4520836-0.0195389,0.9150467-0.0370979,1.3631744-0.0289364
			c0.4481239,0,0.8942719,0.0098934,1.3379478,0.0291824L51.2886086,20.3795357z"/>
	</g>
	<g>
		<path class="st0" d="M39.1165085,22.4257793l-1.0213928-1.9334698l1.3433876-0.7097797l0.4016342,0.760231
			c0.2809448-0.0976868,0.5633698-0.1911697,0.8443146-0.2799549l0.4570312,1.4492359
			c-0.4669228,0.14715-0.9378014,0.3091373-1.3997765,0.4810181L39.1165085,22.4257793z"/>
	</g>
	<g>
		
			<rect x="35.8644333" y="14.5507479" transform="matrix(0.8842614 -0.4669922 0.4669922 0.8842614 -3.2704942 18.9642754)" class="st0" width="1.5193675" height="3.0588565"/>
	</g>
	<g>
		<path class="st0" d="M33.8097305,12.3773289l-0.3833313-0.7256079c-0.2443428,0.1065903-0.4876938,0.2154074-0.7300568,0.3262014
			l-0.6331139-1.3809786c0.4674149-0.2146645,0.9402733-0.4209213,1.4170837-0.6192636l0.6400414-0.2663527l1.0327644,1.9567156
			L33.8097305,12.3773289z"/>
	</g>
	<g>
		<path class="st0" d="M50.0001221,92.8561859c-0.5356712,0-1.0698624-0.0093918-1.6015778-0.0291824l0.056385-1.5184784
			c0.9981461,0.0370941,2.0086517,0.0380859,3.004818,0.0029678l0.0534172,1.5184784
			C51.0111275,92.8477783,50.5066147,92.8561859,50.0001221,92.8561859z M54.6183891,92.611351l-0.1612473-1.5105667
			c0.9951782-0.1063461,1.9952965-0.2497864,2.9731636-0.4263611l0.2700615,1.4957275
			C56.6863937,92.353157,55.6496735,92.5015488,54.6183891,92.611351z M45.2938156,92.6014633
			c-1.0302925-0.1117859-2.0670166-0.2626495-3.0814819-0.4476318l0.2730293-1.4947433
			c0.9783592,0.1785583,1.9784813,0.3239746,2.9726677,0.4318008L45.2938156,92.6014633z M60.743763,91.5058746
			l-0.3778915-1.4719849c0.9654999-0.2478027,1.9349556-0.5346832,2.8806686-0.8522339l0.4837379,1.4403381
			C62.749939,90.9514084,61.744873,91.2486725,60.743763,91.5058746z M39.1704216,91.4831238
			c-1.001606-0.2591782-2.0056839-0.5584259-2.9845352-0.8898239l0.4867058-1.4393387
			c0.9442291,0.319519,1.912693,0.6083832,2.878685,0.8581619L39.1704216,91.4831238z M66.6480408,89.5219574l-0.5876083-1.4017563
			c0.9185104-0.3848114,1.836525-0.8096924,2.7293091-1.262764l0.6875229,1.3552628
			C68.5518341,88.6820908,67.6001816,89.1227951,66.6480408,89.5219574z M33.2770233,89.490303
			c-0.9536247-0.4021301-1.9028015-0.8438263-2.820816-1.3112411l0.6895008-1.3542709
			c0.8858624,0.4515915,1.8019009,0.8774567,2.7218914,1.2657318L33.2770233,89.490303z M72.2031174,86.7016373
			l-0.7844696-1.3008575c0.8532181-0.5144043,1.7005005-1.0678787,2.5176163-1.6441116l0.8754807,1.2414932
			C73.9654465,85.595665,73.0874939,86.1689301,72.2031174,86.7016373z M27.7357979,86.6650314
			c-0.8878422-0.5376511-1.763813-1.111412-2.6036777-1.7064362l0.8784447-1.2395172
			c0.8096924,0.5737534,1.6549969,1.1272354,2.5116787,1.6460953L27.7357979,86.6650314z M77.2912674,83.1116791
			l-0.9635162-1.1752167c0.7706146-0.631134,1.5293655-1.300354,2.2554703-1.9878769l1.044632,1.1030045
			C78.8755417,81.7643356,78.0895844,82.4572983,77.2912674,83.1116791z M22.6585255,83.070137
			c-0.798811-0.6563644-1.5837727-1.3503113-2.3331223-2.0630646l1.0466156-1.1010208
			c0.723135,0.687027,1.4808922,1.3567429,2.2510147,1.9898529L22.6585255,83.070137z M81.8096237,78.8297577l-1.1217957-1.0248489
			c0.6721878-0.7355042,1.3265686-1.5056229,1.9458313-2.2891006l1.1920319,0.9417496
			C83.1841736,77.2697296,82.5060501,78.0680466,81.8096237,78.8297577z M18.1466026,78.7822723
			c-0.6969185-0.764679-1.374054-1.5639877-2.0140915-2.3766479l1.1940117-0.9397736
			c0.6172848,0.7839737,1.2706795,1.5555801,1.9428673,2.2925568L18.1466026,78.7822723z M85.6671677,73.9468689
			l-1.2573242-0.853714c0.5574341-0.8210678,1.0950851-1.6772537,1.5971222-2.5443268l1.3147049,0.7617188
			C86.8013306,72.2087784,86.2448807,73.0956268,85.6671677,73.9468689z M14.2940083,73.8899918
			c-0.5811787-0.8586655-1.1366367-1.7474976-1.65203-2.6417694l1.316678-0.7587433
			c0.4970932,0.8626175,1.0332603,1.7202835,1.5936651,2.5487747L14.2940083,73.8899918z M88.7817841,68.5614471
			l-1.3671265-0.6637802c0.4347687-0.895256,0.8423386-1.8192062,1.211319-2.745636l1.4116516,0.5628815
			C89.6547928,66.6749725,89.2323837,67.6325531,88.7817841,68.5614471z M11.1848278,68.4917068
			c-0.4515877-0.9348297-0.873004-1.8953857-1.2528725-2.8539581l1.4126348-0.559906
			c0.3665133,0.9249344,0.7730904,1.8513641,1.2083559,2.7540436L11.1848278,68.4917068z M91.0837479,62.7813225
			l-1.4482498-0.4580193c0.3002319-0.9506607,0.5698013-1.9245644,0.8012848-2.8950119l1.4779282,0.352169
			C91.6753082,60.7865181,91.3953552,61.7960396,91.0837479,62.7813225z M8.8897915,62.697731
			c-0.3106213-0.9882507-0.5881033-1.9987602-0.8245316-3.003334l1.4789133-0.3482094
			c0.2280197,0.9684639,0.4956093,1.9433594,0.7948542,2.896492L8.8897915,62.697731z M92.5250702,56.7256889l-1.4996872-0.243351
			c0.1592636-0.981823,0.2848969-1.9849091,0.373436-2.9805794l1.5135345,0.1345367
			C92.8203583,54.6680717,92.6902695,55.7077637,92.5250702,56.7256889z M7.461329,56.6396255
			c-0.1632242-1.0179291-0.2915783-2.0576172-0.3811045-3.0903854l1.5137839-0.1315689
			c0.0863113,0.9966583,0.2102137,1.9997482,0.3675032,2.9815712L7.461329,56.6396255z M93.0765686,50.527607l-1.5194702-0.0276985
			c0.0044479-0.2418671,0.0064316-0.4837379,0.0064316-0.7265968c0-0.7607231-0.0207748-1.5273857-0.0613327-2.2777252
			l1.5174942-0.0821037c0.042038,0.7775421,0.0633087,1.5714073,0.0633087,2.3598289
			C93.0830002,50.025074,93.0810242,50.2768364,93.0765686,50.527607z M6.921946,50.4400597
			c-0.0032148-0.222084-0.0049462-0.4441681-0.0049462-0.666748c0-0.8141441,0.0230002-1.6371918,0.0682578-2.4463882
			l1.5169988,0.0850754c-0.0435266,0.781002-0.0657845,1.5753632-0.0657845,2.3613129
			c0,0.2146645,0.0017319,0.4298248,0.0049467,0.6439972L6.921946,50.4400597z M91.2326279,44.5031395
			c-0.1256332-0.9902306-0.2888565-1.9878807-0.4852219-2.965744l1.4897919-0.2992439
			c0.2037888,1.0134773,0.3729477,2.0477257,0.5030289,3.0740623L91.2326279,44.5031395z M8.7780075,44.419548l-1.5068598-0.1938934
			c0.1318164-1.0258408,0.3032022-2.059597,0.5092111-3.0728264l1.4888062,0.3027077
			C9.0708227,42.4326591,8.9056196,43.4298134,8.7780075,44.419548z M90.0480118,38.6149368
			c-0.2666016-0.9590683-0.5727692-1.9225883-0.9101028-2.8638496l1.4304428-0.5124283
			c0.3496933,0.9758873,0.667244,1.9747696,0.9437332,2.9692039L90.0480118,38.6149368z M9.974493,38.5343132l-1.4630861-0.4100418
			c0.2799549-0.9976463,0.5989847-1.9955444,0.9491758-2.9659882l1.4294519,0.5156403
			C10.5522089,36.609745,10.2440605,37.5722771,9.974493,38.5343132z M88.022049,32.9614296
			c-0.4050903-0.9135628-0.8477783-1.8224258-1.316185-2.7016144l1.3404236-0.7147255
			c0.4862061,0.9113369,0.9452133,1.8535881,1.3646545,2.8005371L88.022049,32.9614296z M12.0113373,32.8867416
			l-1.3879032-0.6177788c0.4194374-0.9420052,0.8799286-1.8830185,1.3696022-2.7973232l1.3394308,0.7171993
			C12.8601055,31.0707455,12.4159365,31.9783726,12.0113373,32.8867416z M85.1967773,27.6605892
			c-0.5326996-0.8462963-1.1025009-1.6817093-1.6925888-2.4829922l1.2236938-0.9011974
			c0.6118469,0.8309612,1.2019272,1.6970406,1.7549133,2.5744953L85.1967773,27.6605892z M14.8450146,27.5938148
			l-1.2840328-0.8126602c0.5544691-0.8759727,1.1465292-1.7405682,1.7593632-2.5700455l1.2217102,0.9026814
			C15.950985,25.9140854,15.3801937,26.7485085,14.8450146,27.5938148z M81.6374969,22.821722
			c-0.6474609-0.7594891-1.3310242-1.5046329-2.0314026-2.2146606l1.082222-1.0668945
			c0.7256088,0.7359943,1.4339066,1.5083427,2.1055984,2.2957783L81.6374969,22.821722z M18.4136982,22.7621212
			l-1.1544437-0.9882507c0.6707039-0.7834778,1.3804836-1.5545902,2.1095543-2.2913265l1.0802498,1.0683784
			C19.7457085,21.2621861,19.0606594,22.006094,18.4136982,22.7621212z M77.4203644,18.5435066
			c-0.7508316-0.6595745-1.5338135-1.299118-2.3276825-1.9010715l0.9180145-1.2108288
			c0.8225555,0.6239624,1.6342239,1.2867527,2.4127579,1.9703178L77.4203644,18.5435066z M22.6372566,18.4920673
			l-1.0001221-1.1435623c0.778532-0.6810913,1.5916882-1.3423977,2.4162197-1.9656191l0.9160347,1.2123137
			C24.1735458,17.1966572,23.3890781,17.8347168,22.6372566,18.4920673z M72.6344223,14.9142342
			c-0.8373871-0.5448236-1.7039642-1.0651646-2.5759811-1.5466766l0.7340164-1.3300333
			c0.9041672,0.4988241,1.8028946,1.0382071,2.6709518,1.6030636L72.6344223,14.9142342z M27.4316082,14.8712015
			l-0.8260155-1.2751293c0.8685513-0.5628777,1.7682648-1.1005297,2.673914-1.5983648l0.7320385,1.3315172
			C29.1380463,13.8095007,28.2699871,14.3283567,27.4316082,14.8712015z"/>
	</g>
</g>
</svg>
