<?xml version="1.0" encoding="utf-8"?>
<!-- Generator: Adobe Illustrator 21.0.0, SVG Export Plug-In . SVG Version: 6.00 Build 0)  -->
<svg version="1.1" id="Layer_1" xmlns="http://www.w3.org/2000/svg" xmlns:xlink="http://www.w3.org/1999/xlink" x="0px" y="0px"
	 viewBox="0 0 100 100" style="enable-background:new 0 0 100 100;" xml:space="preserve">
<style type="text/css">
	.st0{fill:#FFFFFF;}
	.st1{fill:#FFFFFF;stroke:#000000;stroke-width:4;stroke-miterlimit:10;}
	.st2{fill:none;}
</style>
<g>
	<path class="st0" d="M50.000248,92.8561859c-23.7561531,0-43.0829735-19.3268204-43.0829735-43.0832176
		c0-17.4687767,10.4266109-33.0896492,26.5636215-39.7959671l0.6395454-0.2658587l5.7197952,10.831212
		c3.2640038-1.1354027,6.6783752-1.7103996,10.1600113-1.7103996c3.4811401,0,6.8955116,0.575243,10.1600075,1.7103996
		l5.7197952-10.8312111l0.6395493,0.2658587c16.1370087,6.7063189,26.5636215,22.3271904,26.5636215,39.7959671
		C93.0832214,73.5293655,73.7564011,92.8561859,50.000248,92.8561859z M33.426487,11.6510448
		C18.222826,18.2638798,8.4367504,33.1514778,8.4367504,49.7729683c0,22.9185143,18.6452332,41.5637474,41.5634995,41.5637474
		s41.5634995-18.6452332,41.5634995-41.5637474c0-16.6214905-9.7860794-31.5090885-24.9897385-38.1219254l-5.6901245,10.774332
		l-0.6252022-0.2327194c-3.2832947-1.221714-6.7347603-1.8412266-10.2584381-1.8412266
		c-3.5241737,0-6.9756393,0.6195126-10.2584419,1.8412266l-0.6251984,0.2327194L33.426487,11.6510448z"/>
</g>
<g>
	<path class="st0" d="M76.1380005,92.4026184l-1.3255844-2.1575317c14.18573-8.7162094,22.6551208-23.8461761,22.6551208-40.4718704
		S88.9981461,18.017807,74.8124161,9.3013477l1.3255844-2.1575365C91.0795135,16.3244705,100,32.2606659,100,49.7732162
		S91.0795135,83.221962,76.1380005,92.4026184z"/>
</g>
<path class="st1" d="M50.0003242,49.773304"/>
<path class="st1" d="M50.0003242,49.773304"/>
<g>
	<path class="st0" d="M23.8629894,92.4026184C8.9204893,83.221962,0,67.2857666,0,49.7732162
		C0,32.26017,8.9204893,16.3239765,23.8624954,7.1438112l1.3255844,2.1575365
		C11.0018549,18.0175591,2.5324595,33.1470261,2.5324595,49.7732162c0,16.6256943,8.4693956,31.7551651,22.6561146,40.4718704
		L23.8629894,92.4026184z"/>
</g>
<g>
	<circle class="st2" cx="50.0001411" cy="49.7731056" r="18.9992561"/>
	<path class="st0" d="M50.000248,69.2790909c-10.7555351,0-19.5058746-8.7503395-19.5058746-19.5058746
		s8.7503395-19.5058727,19.5058746-19.5058727s19.5058708,8.7503376,19.5058708,19.5058727
		S60.7557793,69.2790909,50.000248,69.2790909z M50.000248,31.2803268c-10.1971054,0-18.4928913,8.295784-18.4928913,18.4928894
		s8.2957859,18.4928894,18.4928913,18.4928894s18.4928856-8.295784,18.4928856-18.4928894
		S60.1973534,31.2803268,50.000248,31.2803268z"/>
</g>
<g>
	<g>
		<path class="st0" d="M45.6058235,42.967453h4.1572838c1.5255623,0,2.6785278,0.3449478,3.4598465,1.0348434
			c0.7806892,0.6898956,1.171505,1.7002335,1.171505,3.0313339c0,1.3433495-0.3908157,2.3580856-1.171505,3.0448418
			c-0.7813187,0.6870689-1.9342842,1.0301323-3.4598465,1.0301323h-2.3156776v5.4701576h-1.8416061V42.967453z
			 M47.4474297,44.4807625v5.1145287h2.3156776c0.857029,0,1.5192795-0.2217941,1.9873772-0.66539
			c0.4677849-0.4435959,0.7018318-1.0760002,0.7018318-1.8962708c0-0.8146172-0.2340469-1.4435692-0.7018318-1.8871613
			c-0.4680977-0.4435959-1.1303482-0.6657066-1.9873772-0.6657066H47.4474297z"/>
	</g>
</g>
<path class="st0" d="M80.2340088,27.1621323l-5.7248459-1.989151l1.1389618,5.9525833l1.8981705-1.6405048
	c0.4875107,0.6607819,0.9601822,1.333622,1.3954849,2.0217648l0.85569-0.5416107
	c-0.461792-0.7302475-0.9641113-1.44417-1.4827805-2.1442757L80.2340088,27.1621323z"/>
<path class="st0" d="M81.2407761,32.9293556l-1.3364639,0.722641c0.7394562,1.3678741,1.389389,2.7995567,1.9324799,4.2554741
	l1.4235229-0.5307274C82.6929855,35.8550415,82.0133743,34.3588104,81.2407761,32.9293556z"/>
<path class="st0" d="M84.2614288,39.569397l-1.9418869,0.5777206c0.9254379,3.109436,1.3943405,6.3477211,1.3943405,9.625576
	c0,0.5856323-0.0168152,1.1846199-0.0509491,1.831089l2.0230026,0.1078262
	c0.0361099-0.6825752,0.0539169-1.3171768,0.0539169-1.9389153C85.7398529,46.2989693,85.2422638,42.8662987,84.2614288,39.569397z"
	/>
<path class="st0" d="M22.4539528,70.0610123c-0.4868946-0.6601334-0.9594727-1.3327637-1.3952351-2.0214615l-0.8561897,0.5411224
	c0.4625645,0.7311096,0.9647903,1.4449997,1.4829979,2.144455L19.76618,72.3839645l5.7248402,1.989151l-1.1389599-5.9525833
	L22.4539528,70.0610123z"/>
<path class="st0" d="M18.1632042,61.6386604l-1.4235191,0.5312233c0.5673294,1.5209579,1.2469406,3.017189,2.0192909,4.4466476
	l1.3369617-0.7221527C19.3564777,64.5262604,18.7062988,63.0943298,18.1632042,61.6386604z"/>
<path class="st0" d="M16.2861176,49.7731895c0-0.5876122,0.0168171-1.1865959,0.0511932-1.831089l-2.0230017-0.1078262
	c-0.036355,0.6805992-0.0541611,1.315197-0.0541611,1.9389153c0,3.4727364,0.4973421,6.905407,1.4784231,10.2035408
	l1.9418831-0.5777168C16.7552643,56.2888336,16.2861176,53.0500565,16.2861176,49.7731895z"/>
</svg>
