<?xml version="1.0" encoding="utf-8"?>
<!-- Generator: Adobe Illustrator 21.0.0, SVG Export Plug-In . SVG Version: 6.00 Build 0)  -->
<svg version="1.1" id="Layer_1" xmlns="http://www.w3.org/2000/svg" xmlns:xlink="http://www.w3.org/1999/xlink" x="0px" y="0px"
	 viewBox="0 0 100 100" style="enable-background:new 0 0 100 100;" xml:space="preserve">
<style type="text/css">
	.st0{fill:none;stroke:#FFFFFF;stroke-width:3;stroke-miterlimit:10;}
	.st1{fill:none;stroke:#FFFFFF;stroke-width:0.5;stroke-linecap:round;stroke-linejoin:round;stroke-miterlimit:10;}
	.st2{fill:none;stroke:#FFFFFF;stroke-width:1.5;stroke-miterlimit:10;}
</style>
<g>
	<path class="st0" d="M74.5,91.5c14.4-8.4,24-24,24-41.8c0-18.1-9.9-33.8-24.5-42.1"/>
	<path class="st0" d="M26,7.5C11.4,15.9,1.5,31.6,1.5,49.6c0,17.8,9.6,33.4,24,41.8"/>
</g>
<g>
	<path class="st1" d="M46.8,92.2l45.3-45.3c-0.1-1.4-0.3-2.9-0.5-4.3L42.6,91.6C44,91.9,45.4,92.1,46.8,92.2z"/>
	<path class="st1" d="M38.7,90.8l52.1-52.1c-0.3-1.2-0.7-2.4-1.2-3.6L35.1,89.6C36.2,90,37.4,90.4,38.7,90.8z"/>
	<path class="st1" d="M42.6,91.6l49.1-49.1c-0.2-1.3-0.5-2.6-0.9-3.9L38.7,90.8C40,91.1,41.3,91.4,42.6,91.6z"/>
	<path class="st1" d="M50,92.3c0.5,0,1,0,1.5,0l40.7-40.7c0-0.5,0-1,0-1.5c0-1.1-0.1-2.1-0.1-3.2L46.8,92.2
		C47.9,92.3,48.9,92.3,50,92.3z"/>
	<path class="st1" d="M63.2,90.2l27-27c0.7-2,1.2-4.2,1.5-6.3L56.8,91.8C59,91.4,61.1,90.9,63.2,90.2z"/>
	<path class="st1" d="M56.8,91.8l34.9-34.9c0.3-1.7,0.5-3.5,0.5-5.3L51.5,92.3C53.3,92.2,55.1,92,56.8,91.8z"/>
	<path class="st1" d="M31.9,30.5L18.5,43.9c0.8-0.4,1.7-0.6,2.6-0.6c0.8,0,1.6,0.2,2.3,0.4l12.1-12.1c0,0,0,0,0,0
		C34.2,31.6,32.9,31.2,31.9,30.5z"/>
	<path class="st1" d="M31.7,88.2l56.4-56.4c-0.5-1.1-1.1-2.1-1.7-3.1L28.6,86.5C29.6,87.1,30.6,87.6,31.7,88.2z"/>
	<path class="st1" d="M25.7,84.6l58.9-58.9c-0.7-0.9-1.3-1.8-2.1-2.7L23,82.5C23.8,83.3,24.8,84,25.7,84.6z"/>
	<path class="st1" d="M23,82.5L82.5,23c-0.7-0.9-1.5-1.7-2.3-2.5L20.5,80.3C21.3,81.1,22.1,81.8,23,82.5z"/>
	<path class="st1" d="M20.5,80.3l59.8-59.8c-0.8-0.8-1.6-1.6-2.5-2.3L18.1,77.8C18.9,78.7,19.6,79.5,20.5,80.3z"/>
	<path class="st1" d="M72,86.1L86.1,72c1.7-2.8,3.1-5.7,4.1-8.9l-27,27C66.3,89.2,69.3,87.8,72,86.1z"/>
	<path class="st1" d="M18.1,77.8l59.7-59.7c-0.9-0.7-1.7-1.5-2.6-2.1L16,75.2C16.7,76.1,17.4,76.9,18.1,77.8z"/>
	<path class="st1" d="M35.1,89.6l54.5-54.5c-0.4-1.1-0.9-2.3-1.4-3.4L31.7,88.2C32.8,88.7,33.9,89.2,35.1,89.6z"/>
	<path class="st1" d="M14.1,72.3l58.3-58.3c-1-0.6-2-1.2-3.1-1.7L12.3,69.2C12.9,70.3,13.4,71.3,14.1,72.3z"/>
	<path class="st1" d="M16,75.2L75.2,16c-0.9-0.7-1.9-1.3-2.9-1.9L14.1,72.3C14.7,73.3,15.3,74.2,16,75.2z"/>
	<path class="st1" d="M28.6,86.5l57.9-57.9c-0.6-1-1.2-2-1.9-2.9L25.7,84.6C26.6,85.3,27.6,85.9,28.6,86.5z"/>
	<path class="st1" d="M35.6,18.4c1.1,0,2.1,0.3,3,0.7L49.9,7.7c-1.7,0-3.4,0.1-5.1,0.3L34.4,18.5C34.8,18.4,35.2,18.4,35.6,18.4z"/>
	<path class="st1" d="M41.1,21.3L54.5,7.9c-1.5-0.2-3-0.2-4.5-0.2c0,0,0,0-0.1,0L38.6,19.1C39.6,19.6,40.5,20.4,41.1,21.3z"/>
	<path class="st1" d="M42.2,25C42.2,25,42.2,25,42.2,25L58.6,8.6c-1.4-0.3-2.7-0.5-4.1-0.6L41.1,21.3C41.8,22.4,42.2,23.6,42.2,25z"
		/>
	<path class="st1" d="M8,44.8l21-21c0.5-2.7,2.6-4.8,5.3-5.3L44.8,8c-2,0.2-4,0.6-5.9,1.2L9.2,38.9C8.7,40.8,8.3,42.8,8,44.8z"/>
	<path class="st1" d="M31.2,12.1c-8.2,4.1-14.9,10.8-19,19L31.2,12.1z"/>
	<path class="st1" d="M86.1,72L72,86.1C77.8,82.6,82.6,77.8,86.1,72z"/>
	<path class="st1" d="M35.6,31.6L23.4,43.8c1.1,0.4,2.1,1.1,2.8,2L62.4,9.6c-1.2-0.4-2.5-0.7-3.8-1L42.2,25
		C42.2,28.7,39.2,31.6,35.6,31.6z"/>
	<path class="st1" d="M9.2,38.9L38.9,9.2c-2.7,0.7-5.3,1.7-7.7,2.9l-19,19C10.9,33.6,9.9,36.2,9.2,38.9z"/>
	<path class="st1" d="M18.5,43.9l13.4-13.4c-1-0.6-1.7-1.5-2.2-2.5l-22,22c0,0,0,0,0,0.1c0,1.5,0.1,3,0.2,4.5l7.1-7.1
		C15.7,45.8,17,44.6,18.5,43.9z"/>
	<path class="st1" d="M27.7,49.1L66,10.8c-1.2-0.5-2.3-0.9-3.5-1.3L26.3,45.7C27,46.7,27.5,47.8,27.7,49.1z"/>
	<path class="st1" d="M14.5,50c0-0.9,0.2-1.8,0.6-2.6l-7.1,7.1c0.1,1.4,0.4,2.8,0.6,4.1l6.4-6.4C14.7,51.6,14.5,50.8,14.5,50z"/>
	<path class="st1" d="M28.9,25c0-0.4,0-0.8,0.1-1.2l-21,21c-0.2,1.7-0.3,3.4-0.3,5.1l22-22C29.2,27.1,28.9,26.1,28.9,25z"/>
	<path class="st1" d="M14.9,52.3l-6.4,6.4c0.3,1.3,0.6,2.6,1,3.8l7.3-7.3C16,54.4,15.3,53.4,14.9,52.3z"/>
	<path class="st1" d="M27.8,50c0,3.7-3,6.6-6.6,6.6c-0.3,0-0.6,0-0.9-0.1L10.8,66c0.5,1.1,1,2.2,1.5,3.3l56.9-56.9
		c-1.1-0.5-2.2-1.1-3.3-1.5L27.7,49.1C27.8,49.4,27.8,49.7,27.8,50z"/>
	<path class="st1" d="M16.9,55.1l-7.3,7.3c0.4,1.2,0.8,2.4,1.3,3.5l9.4-9.4C19,56.4,17.8,55.9,16.9,55.1z"/>
</g>
<circle class="st2" cx="50" cy="50" r="42.4"/>
<circle class="st2" cx="35.5" cy="25" r="6.6"/>
<circle class="st2" cx="21.2" cy="50" r="6.6"/>
</svg>
