<?xml version="1.0" encoding="utf-8"?>
<!-- Generator: Adobe Illustrator 21.0.0, SVG Export Plug-In . SVG Version: 6.00 Build 0)  -->
<svg version="1.1" id="Layer_1" xmlns="http://www.w3.org/2000/svg" xmlns:xlink="http://www.w3.org/1999/xlink" x="0px" y="0px"
	 viewBox="0 0 100 100" style="enable-background:new 0 0 100 100;" xml:space="preserve">
<style type="text/css">
	.st0{clip-path:url(#SVGID_2_);}
	.st1{fill:none;stroke:#000000;stroke-width:4;stroke-miterlimit:10;}
	.st2{fill:#797979;}
	.st3{fill:#FFFFFF;}
</style>
<g>
	<g>
		<g>
			<defs>
				<path id="SVGID_1_" d="M66.228096,10.5748272l-5.704525,10.8019962
					c-3.27705-1.2194557-6.8216553-1.8889885-10.5234299-1.8889885s-7.2463837,0.6695328-10.5234337,1.8889885l-5.704525-10.8019962
					C18.4521923,16.9414959,7.6768427,32.0447464,7.6768427,49.6692085c0,23.3745155,18.9487762,42.3232918,42.3232994,42.3232918
					s42.3232918-18.9487762,42.3232918-42.3232918C92.3234329,32.0447464,81.5480881,16.9414959,66.228096,10.5748272z"/>
			</defs>
			<clipPath id="SVGID_2_">
				<use xlink:href="#SVGID_1_"  style="overflow:visible;"/>
			</clipPath>
			<g class="st0">
				<g>
					
						<rect x="-35.470932" y="14.9616928" transform="matrix(0.7071068 -0.7071068 0.7071068 0.7071068 -6.7085495 14.2339535)" width="98.5971146" height="0.5064383"/>
				</g>
				<g>
					
						<rect x="-33.2788582" y="17.1539803" transform="matrix(0.7071068 -0.7071068 0.7071068 0.7071068 -7.616662 16.4261475)" width="98.5972824" height="0.5064374"/>
				</g>
				<g>
					
						<rect x="-31.0861893" y="19.3462639" transform="matrix(0.7071068 -0.7071068 0.7071068 0.7071068 -8.5246992 18.6185188)" width="98.5967636" height="0.5064374"/>
				</g>
				<g>
					
						<rect x="30.2972565" y="80.7300873" transform="matrix(0.7071068 -0.7071068 0.7071068 0.7071068 -33.9507484 80.0022659)" width="98.5972824" height="0.5064393"/>
				</g>
				<g>
					
						<rect x="32.4894218" y="82.9222488" transform="matrix(0.7071068 -0.7071068 0.7071068 0.7071068 -34.8587685 82.1944275)" width="98.59729" height="0.5064393"/>
				</g>
				<g>
					
						<rect x="34.6820908" y="85.1145325" transform="matrix(0.7071068 -0.7071068 0.7071068 0.7071068 -35.7668037 84.386795)" width="98.5967636" height="0.5064393"/>
				</g>
				<g>
					
						<rect x="36.8743362" y="87.3068161" transform="matrix(0.7071068 -0.7071068 0.7071068 0.7071068 -36.6749153 86.5789948)" width="98.5965881" height="0.5064393"/>
				</g>
			</g>
		</g>
	</g>
	<g>
		<path d="M50.000248,92.8561859c-23.7561531,0-43.0829735-19.3268204-43.0829735-43.0832176
			c0-17.4687767,10.4266109-33.0896492,26.5636215-39.7959671l0.6395454-0.2658587l5.7197952,10.831212
			c3.2640038-1.1354027,6.6783752-1.7103996,10.1600113-1.7103996c3.4811401,0,6.8955116,0.575243,10.1600075,1.7103996
			l5.7197952-10.8312111l0.6395493,0.2658587c16.1370087,6.7063189,26.5636215,22.3271904,26.5636215,39.7959671
			C93.0832214,73.5293655,73.7564011,92.8561859,50.000248,92.8561859z M33.426487,11.6510448
			C18.222826,18.2638798,8.4367504,33.1514778,8.4367504,49.7729683c0,22.9185143,18.6452332,41.5637474,41.5634995,41.5637474
			s41.5634995-18.6452332,41.5634995-41.5637474c0-16.6214905-9.7860794-31.5090885-24.9897385-38.1219254l-5.6901245,10.774332
			l-0.6252022-0.2327194c-3.2832947-1.221714-6.7347603-1.8412266-10.2584381-1.8412266
			c-3.5241737,0-6.9756393,0.6195126-10.2584419,1.8412266l-0.6251984,0.2327194L33.426487,11.6510448z"/>
	</g>
	<g>
		<path d="M76.1380005,92.4026184l-1.3255844-2.1575317c14.18573-8.7162094,22.6551208-23.8461761,22.6551208-40.4718704
			S88.9981461,18.017807,74.8124161,9.3013477l1.3255844-2.1575365C91.0795135,16.3244705,100,32.2606659,100,49.7732162
			S91.0795135,83.221962,76.1380005,92.4026184z"/>
	</g>
	<path class="st1" d="M50.0003242,49.773304"/>
	<path class="st1" d="M50.0003242,49.773304"/>
	<g>
		<path d="M23.8629894,92.4026184C8.9204893,83.221962,0,67.2857666,0,49.7732162
			C0,32.26017,8.9204893,16.3239765,23.8624954,7.1438112l1.3255844,2.1575365
			C11.0018549,18.0175591,2.5324595,33.1470261,2.5324595,49.7732162c0,16.6256943,8.4693956,31.7551651,22.6561146,40.4718704
			L23.8629894,92.4026184z"/>
	</g>
	<g>
		<circle class="st2" cx="50.0001411" cy="49.7731056" r="18.9992561"/>
		<path class="st3" d="M50.000248,69.2790909c-10.7555351,0-19.5058746-8.7503395-19.5058746-19.5058746
			s8.7503395-19.5058727,19.5058746-19.5058727s19.5058708,8.7503376,19.5058708,19.5058727
			S60.7557793,69.2790909,50.000248,69.2790909z M50.000248,31.2803268c-10.1971054,0-18.4928913,8.295784-18.4928913,18.4928894
			s8.2957859,18.4928894,18.4928913,18.4928894s18.4928856-8.295784,18.4928856-18.4928894
			S60.1973534,31.2803268,50.000248,31.2803268z"/>
	</g>
	<g>
		<g>
			<path class="st3" d="M45.6058235,42.967453h4.1572838c1.5255623,0,2.6785278,0.3449478,3.4598465,1.0348434
				c0.7806892,0.6898956,1.171505,1.7002335,1.171505,3.0313339c0,1.3433495-0.3908157,2.3580856-1.171505,3.0448418
				c-0.7813187,0.6870689-1.9342842,1.0301323-3.4598465,1.0301323h-2.3156776v5.4701576h-1.8416061V42.967453z
				 M47.4474297,44.4807625v5.1145287h2.3156776c0.857029,0,1.5192795-0.2217941,1.9873772-0.66539
				c0.4677849-0.4435959,0.7018318-1.0760002,0.7018318-1.8962708c0-0.8146172-0.2340469-1.4435692-0.7018318-1.8871613
				c-0.4680977-0.4435959-1.1303482-0.6657066-1.9873772-0.6657066H47.4474297z"/>
		</g>
	</g>
</g>
</svg>
