<?xml version="1.0" encoding="utf-8"?>
<!-- Generator: Adobe Illustrator 21.0.0, SVG Export Plug-In . SVG Version: 6.00 Build 0)  -->
<svg version="1.1" id="Layer_1" xmlns="http://www.w3.org/2000/svg" xmlns:xlink="http://www.w3.org/1999/xlink" x="0px" y="0px"
	 viewBox="0 0 100 100" style="enable-background:new 0 0 100 100;" xml:space="preserve">
<style type="text/css">
	.st0{fill:#797979;}
	.st1{fill:#FFFFFF;}
	.st2{fill:none;stroke:#000000;stroke-miterlimit:10;}
</style>
<g>
	<g id="XMLID_1_">
		<g>
			<path class="st0" d="M61.4,54.1v15.7c0,1.1-0.9,1.9-1.9,1.9H40.5c-1.1,0-1.9-0.9-1.9-1.9V54.1c0-1.1,0.9-1.9,1.9-1.9h18.9
				C60.5,52.2,61.4,53,61.4,54.1z M50.6,62.2c1.2-0.3,2.1-1.3,2.1-2.6c0-1.5-1.2-2.7-2.7-2.7s-2.7,1.2-2.7,2.7
				c0,1.3,0.9,2.3,2.1,2.6l-1.6,6h4.3L50.6,62.2z"/>
			<path class="st1" d="M49.4,62.2c-1.2-0.3-2.1-1.3-2.1-2.6c0-1.5,1.2-2.7,2.7-2.7s2.7,1.2,2.7,2.7c0,1.3-0.9,2.3-2.1,2.6l1.6,6
				h-4.3L49.4,62.2z"/>
			<path d="M59.5,52.2H40.5c-1.1,0-1.9,0.9-1.9,1.9v15.7c0,1.1,0.9,1.9,1.9,1.9h18.9c1.1,0,1.9-0.9,1.9-1.9V54.1
				C61.4,53,60.5,52.2,59.5,52.2z M40.5,46.8c0-5.2,4.3-9.5,9.5-9.5s9.5,4.3,9.5,9.5v3.8c1.9,0,3.4,1.6,3.4,3.5v15.7
				c0,1.9-1.6,3.5-3.5,3.5H40.5c-1.9,0-3.5-1.6-3.5-3.5V54.1c0-1.9,1.5-3.4,3.4-3.5V46.8z M57,46.8c0-3.8-3.1-7-7-7s-7,3.1-7,7v3.8
				H57V46.8z"/>
			<path d="M39.8,20.5c3.3-1.1,6.7-1.7,10.2-1.7s6.9,0.6,10.2,1.7l5.7-10.8l0.6,0.3c16.1,6.7,26.6,22.3,26.6,39.8
				c0,23.8-19.3,43.1-43.1,43.1S6.9,73.5,6.9,49.8c0-17.5,10.4-33.1,26.6-39.8l0.6-0.3L39.8,20.5z M50,91.3
				c22.9,0,41.6-18.6,41.6-41.6c0-16.6-9.8-31.5-25-38.1l-5.7,10.8l-0.6-0.2C57,21,53.5,20.4,50,20.4s-7,0.6-10.3,1.8l-0.6,0.2
				l-5.7-10.8c-15.2,6.6-25,21.5-25,38.1C8.4,72.7,27.1,91.3,50,91.3z"/>
		</g>
	</g>
</g>
<g>
	<g>
		<g>
			<path class="st2" d="M77.9,70.7c4.3-5.8,6.8-12.9,6.8-20.7c0-9.5-3.9-18.2-10.1-24.5"/>
			<g>
				<polygon points="81.2,72.1 74.6,74.5 75.8,67.6 				"/>
			</g>
		</g>
	</g>
	<path class="st2" d="M51.8,50"/>
	<path class="st2" d="M48.2,50"/>
	<g>
		<g>
			<path class="st2" d="M22.1,29.3c-4.3,5.8-6.8,12.9-6.8,20.7c0,9.5,3.9,18.2,10.1,24.5"/>
			<g>
				<polygon points="18.8,27.9 25.4,25.5 24.2,32.4 				"/>
			</g>
		</g>
	</g>
</g>
</svg>
