<?xml version="1.0" encoding="utf-8"?>
<!-- Generator: Adobe Illustrator 21.0.0, SVG Export Plug-In . SVG Version: 6.00 Build 0)  -->
<svg version="1.1" id="Layer_1" xmlns="http://www.w3.org/2000/svg" xmlns:xlink="http://www.w3.org/1999/xlink" x="0px" y="0px"
	 viewBox="0 0 100 100" style="enable-background:new 0 0 100 100;" xml:space="preserve">
<style type="text/css">
	.st0{fill:#FFFFFF;}
	.st1{fill:none;stroke:#FFFFFF;stroke-miterlimit:10;}
</style>
<g>
	<path class="st0" d="M66.5,10l-0.6-0.3l-5.7,10.8c-3.3-1.1-6.7-1.7-10.2-1.7c-3.5,0-6.9,0.6-10.2,1.7L34.1,9.7L33.5,10
		C17.3,16.7,6.9,32.3,6.9,49.8c0,23.8,19.3,43.1,43.1,43.1s43.1-19.3,43.1-43.1C93.1,32.3,82.7,16.7,66.5,10z M50,91.3
		c-22.9,0-41.6-18.6-41.6-41.6c0-16.6,9.8-31.5,25-38.1l5.7,10.8l0.6-0.2C43,21,46.5,20.4,50,20.4c3.5,0,7,0.6,10.3,1.8l0.6,0.2
		l5.7-10.8c15.2,6.6,25,21.5,25,38.1C91.6,72.7,72.9,91.3,50,91.3z"/>
	<path class="st0" d="M66.5,37.3c-5.2,0-9.5,4.3-9.5,9.5v3.8H40.5c-1.9,0-3.5,1.6-3.5,3.5v15.7c0,1.9,1.6,3.5,3.5,3.5h18.9
		c1.9,0,3.5-1.6,3.5-3.5V54.1c0-1.9-1.5-3.4-3.4-3.5v-3.8c0-3.8,3.1-7,7-7s7,3.1,7,7v4.6H76v-4.6C76,41.6,71.7,37.3,66.5,37.3z
		 M61.4,54.1v15.7c0,1.1-0.9,1.9-1.9,1.9H40.5c-1.1,0-1.9-0.9-1.9-1.9V54.1c0-1.1,0.9-1.9,1.9-1.9h18.9C60.5,52.1,61.4,53,61.4,54.1
		z"/>
	<path class="st0" d="M52.7,59.6c0-1.5-1.2-2.7-2.7-2.7c-1.5,0-2.7,1.2-2.7,2.7c0,1.3,0.9,2.3,2.1,2.6l-1.6,6h4.3l-1.6-6
		C51.8,61.9,52.7,60.8,52.7,59.6z"/>
</g>
<g>
	<g>
		<g>
			<path class="st1" d="M77.9,70.7c4.3-5.8,6.8-12.9,6.8-20.7c0-9.5-3.9-18.2-10.1-24.5"/>
			<g>
				<polygon class="st0" points="81.2,72.1 74.6,74.5 75.8,67.6 				"/>
			</g>
		</g>
	</g>
	<path class="st1" d="M51.8,50"/>
	<path class="st1" d="M48.2,50"/>
	<g>
		<g>
			<path class="st1" d="M22.1,29.3c-4.3,5.8-6.8,12.9-6.8,20.7c0,9.5,3.9,18.2,10.1,24.5"/>
			<g>
				<polygon class="st0" points="18.8,27.9 25.4,25.5 24.2,32.4 				"/>
			</g>
		</g>
	</g>
</g>
</svg>
