<?xml version="1.0" encoding="utf-8"?>
<!-- Generator: Adobe Illustrator 21.0.0, SVG Export Plug-In . SVG Version: 6.00 Build 0)  -->
<svg version="1.1" id="Layer_1" xmlns="http://www.w3.org/2000/svg" xmlns:xlink="http://www.w3.org/1999/xlink" x="0px" y="0px"
	 viewBox="0 0 100 100" style="enable-background:new 0 0 100 100;" xml:space="preserve">
<style type="text/css">
	.st0{fill:#FFFFFF;}
</style>
<g>
	<path class="st0" d="M66.5189438,9.9774332l-0.6395416-0.2658587l-5.7197876,10.8311863
		c-3.2639961-1.1354008-6.6783562-1.7103958-10.1594925-1.7103958c-3.4816284,0-6.8959885,0.574995-10.1599846,1.7103958
		L34.1201057,9.7115746l-0.6397934,0.2658587C17.3438339,16.6837368,6.9169998,32.3045731,6.9169998,49.7733116
		c0,23.7560997,19.3270245,43.0828743,43.0831223,43.0828743s43.0828781-19.3267746,43.0828781-43.0828743
		C93.0830002,32.3043289,82.6559143,16.6834888,66.5189438,9.9774332z M50.0001221,91.3367157
		c-22.918211,0-41.563652-18.6451874-41.563652-41.5634041c0-16.6214523,9.7858067-31.509264,24.9899273-38.1218376
		l5.6898613,10.7743053l0.6251984-0.2327194c3.2830391-1.2217102,6.7344971-1.8412228,10.2586632-1.8412228
		c3.523674,0,6.975132,0.6195126,10.2579231,1.8412228l0.6251984,0.2327194L66.573349,11.651474
		C81.7774734,18.2640476,91.56353,33.1518593,91.56353,49.7733116C91.56353,72.6915283,72.918335,91.3367157,50.0001221,91.3367157z
		"/>
	<path class="st0" d="M66.47789,37.3309021c-5.2409935,0-9.5051079,4.2638702-9.5051079,9.5051117v3.7920036H40.5410118
		c-1.9060173,0-3.4566498,1.5506325-3.4566498,3.4566498v15.6515007c0,1.905777,1.5506325,3.4564056,3.4566498,3.4564056h18.9177284
		c1.9062653,0,3.4568977-1.5506287,3.4568977-3.4564056V54.0846672c0-1.8903122-1.5257149-3.4290466-3.4104042-3.4543037v-3.7943497
		c0-3.8446808,3.1279755-6.9726562,6.9726562-6.9726562s6.9726562,3.1279755,6.9726562,6.9726562v4.5517387h2.5324554v-4.5517387
		C75.9830017,41.5947723,71.7188797,37.3309021,66.47789,37.3309021z M61.3961678,54.0846672v15.6515007
		c0,1.0678864-0.8690491,1.9369354-1.9374275,1.9369354H40.5410118c-1.0681305,0-1.9371796-0.8690491-1.9371796-1.9369354
		V54.0846672c0-1.0681305,0.8690491-1.9371796,1.9371796-1.9371796h18.9177284
		C60.5271187,52.1474876,61.3961678,53.0165367,61.3961678,54.0846672z"/>
	<path class="st0" d="M52.6628189,59.5614395c0-1.4706612-1.1922226-2.6628799-2.6628799-2.6628799
		c-1.4706917,0-2.6629105,1.1922188-2.6629105,2.6628799c0,1.2638435,0.8827095,2.3167686,2.0637398,2.5893974l-1.5540657,6.0115471
		h4.3064384l-1.5540619-6.0115471C51.7800751,61.8782082,52.6628189,60.8252831,52.6628189,59.5614395z"/>
</g>
</svg>
