<?xml version="1.0" encoding="utf-8"?>
<!-- Generator: Adobe Illustrator 21.0.0, SVG Export Plug-In . SVG Version: 6.00 Build 0)  -->
<svg version="1.1" id="Layer_1" xmlns="http://www.w3.org/2000/svg" xmlns:xlink="http://www.w3.org/1999/xlink" x="0px" y="0px"
	 viewBox="0 0 100 100" style="enable-background:new 0 0 100 100;" xml:space="preserve">
<style type="text/css">
	.st0{fill:#FFFFFF;}
</style>
<g>
	<path class="st0" d="M66.5193634,9.9771948l-0.6395493-0.2658587l-5.719799,10.8312168
		C56.8955154,19.4073982,53.481144,18.8321533,50,18.8321533s-6.8955154,0.5752449-10.1600151,1.7103996L34.120182,9.7113361
		l-0.6395454,0.2658587C17.3438644,16.6835175,6.9169998,32.3044014,6.9169998,49.7731895
		c0,23.7561684,19.3270798,43.0829964,43.0830002,43.0829964c23.7561646,0,43.0830002-19.326828,43.0830002-43.0829964
		C93.0830002,32.3044014,82.6563797,16.6835175,66.5193634,9.9771948z M50,91.3367157
		c-22.9182777,0-41.5635223-18.6452484-41.5635223-41.5635262c0-16.6215019,9.7858362-31.5091095,24.9897499-38.1219482
		l5.6901245,10.7743368l0.6252022-0.2327194C43.0248489,20.9711418,46.4763184,20.3516293,50,20.3516293
		s6.9751511,0.6195126,10.2584457,1.8412285l0.6252022,0.2327194l5.6901207-10.7743368
		C81.7774429,18.26408,91.5635223,33.1516876,91.5635223,49.7731895C91.5635223,72.6914673,72.9182816,91.3367157,50,91.3367157z"/>
	<path class="st0" d="M59.5051384,50.6302147v-3.7940865c0-5.2415009-4.2641296-9.5053864-9.5051384-9.5053864
		s-9.5051384,4.2638855-9.5051384,9.5053864v3.794117c-1.8846931,0.0252571-3.4104118,1.5639915-3.4104118,3.4545593v15.6513023
		c0,1.905777,1.5506363,3.4564133,3.4569054,3.4564133H59.459137c1.905777,0,3.4564133-1.5506363,3.4564133-3.4564133V54.0848045
		C62.9155502,52.1940498,61.3895836,50.6551933,59.5051384,50.6302147z M50,39.863205
		c3.8446922,0,6.9726753,3.128231,6.9726753,6.9729233v3.7917671H43.0273247v-3.7917671
		C43.0273247,42.991436,46.1553078,39.863205,50,39.863205z M61.3960762,69.7361069
		c0,1.0678864-0.8690491,1.9369354-1.9369392,1.9369354H40.5413551c-1.0683823,0-1.9374313-0.8690491-1.9374313-1.9369354
		V54.0848045c0-1.0683823,0.8690491-1.9374352,1.9374313-1.9374352H59.459137c1.0678902,0,1.9369392,0.8690529,1.9369392,1.9374352
		V69.7361069z"/>
	<path class="st0" d="M52.6628876,59.5613441c0-1.470665-1.1921616-2.6628876-2.6628571-2.6628876
		s-2.6629181,1.1922226-2.6629181,2.6628876c0,1.2638474,0.8827133,2.3167725,2.0637474,2.5894012l-1.5541,6.01157h4.3065414
		l-1.5541-6.01157C51.7802353,61.8781166,52.6628876,60.8251915,52.6628876,59.5613441z"/>
</g>
</svg>
