<?xml version="1.0" encoding="utf-8"?>
<!-- Generator: Adobe Illustrator 21.0.0, SVG Export Plug-In . SVG Version: 6.00 Build 0)  -->
<svg version="1.1" id="Layer_1" xmlns="http://www.w3.org/2000/svg" xmlns:xlink="http://www.w3.org/1999/xlink" x="0px" y="0px"
	 viewBox="0 0 100 100" style="enable-background:new 0 0 100 100;" xml:space="preserve">
<style type="text/css">
	.st0{fill:#797979;}
	.st1{fill:#FFFFFF;}
	.st2{fill:none;stroke:#000000;stroke-miterlimit:10;}
</style>
<g>
	<g id="XMLID_1_">
		<g>
			<path class="st0" d="M61.4000015,54.0800018v15.659996c0,1.0600052-0.8700027,1.9300003-1.9400024,1.9300003H40.5400009
				c-1.0699997,0-1.9400024-0.8699951-1.9400024-1.9300003v-15.659996c0-1.0600014,0.8700027-1.9300003,1.9400024-1.9300003
				h18.9199982C60.5299988,52.1500015,61.4000015,53.0200005,61.4000015,54.0800018z M50.5999985,62.1500015
				c1.1800003-0.2700005,2.0600014-1.3199997,2.0600014-2.5900002c0-1.4700012-1.1899986-2.6599998-2.6599998-2.6599998
				s-2.6599998,1.1899986-2.6599998,2.6599998c0,1.2700005,0.8800011,2.3199997,2.0600014,2.5900002l-1.5500031,6.0100021h4.3000031
				L50.5999985,62.1500015z"/>
			<path class="st1" d="M49.4000015,62.1500015c-1.1800003-0.2700005-2.0600014-1.3199997-2.0600014-2.5900002
				c0-1.4700012,1.1899986-2.6599998,2.6599998-2.6599998s2.6599998,1.1899986,2.6599998,2.6599998
				c0,1.2700005-0.8800011,2.3199997-2.0600014,2.5900002l1.5500031,6.0100021h-4.3000031L49.4000015,62.1500015z"/>
			<path d="M59.4599991,52.1500015H40.5400009c-1.0699997,0-1.9400024,0.8699989-1.9400024,1.9300003v15.659996
				c0,1.0600052,0.8700027,1.9300003,1.9400024,1.9300003h18.9199982c1.0699997,0,1.9400024-0.8699951,1.9400024-1.9300003
				v-15.659996C61.4000015,53.0200005,60.5299988,52.1500015,59.4599991,52.1500015z M40.4900017,46.8400002
				c0-5.25,4.2699966-9.5099983,9.5099983-9.5099983s9.5099983,4.2599983,9.5099983,9.5099983v3.7900009
				c1.8800011,0.0299988,3.4099998,1.5599976,3.4099998,3.4500008v15.659996c0,1.9000015-1.5599976,3.4500046-3.4599991,3.4500046
				H40.5400009c-1.9000015,0-3.4599991-1.5500031-3.4599991-3.4500046v-15.659996
				c0-1.8900032,1.5299988-3.420002,3.4099998-3.4500008V46.8400002z M56.9700012,46.8400002
				c0-3.8499985-3.1300011-6.9799995-6.9700012-6.9799995s-6.9700012,3.1300011-6.9700012,6.9799995v3.7900009h13.9400024
				V46.8400002z"/>
			<path d="M39.8400002,20.5400009C43.0999985,19.4099998,46.5200005,18.8299999,50,18.8299999
				s6.9000015,0.5799999,10.1599998,1.710001L65.8799973,9.71l0.6399994,0.2699995
				c16.140007,6.7000008,26.5600052,22.3199997,26.5600052,39.7900009c0,23.7599983-19.3199997,43.0900002-43.0800018,43.0900002
				S6.9200001,73.5299988,6.9200001,49.7700005c0-17.4700012,10.4200001-33.0900002,26.5599995-39.7900009L34.1199989,9.71
				L39.8400002,20.5400009z M50,91.3399963c22.9199982,0,41.5599976-18.6499939,41.5599976-41.5699959
				c0-16.6199989-9.7799988-31.5100002-24.9899979-38.1200027l-5.6899986,10.7800007l-0.6200027-0.2399998
				C56.9799995,20.9699993,53.5200005,20.3500004,50,20.3500004s-6.9799995,0.6199989-10.2599983,1.8400002l-0.6200027,0.2399998
				l-5.6899986-10.7800007C18.2199993,18.2600002,8.4399996,33.1500015,8.4399996,49.7700005
				C8.4399996,72.6900024,27.0799999,91.3399963,50,91.3399963z"/>
		</g>
		<g>
		</g>
	</g>
</g>
<g>
	<g>
		<g>
			<path class="st2" d="M77.9030762,70.6657333C82.1873856,64.8916397,84.7225342,57.7422943,84.7225342,50
				c0-9.5490112-3.8563843-18.1960449-10.0945435-24.4733887"/>
			<g>
				<polygon points="81.1777802,72.0606766 74.6279907,74.4733887 75.8124847,67.5945892 				"/>
			</g>
		</g>
	</g>
	<path class="st2" d="M51.8077393,50"/>
	<path class="st2" d="M48.1922607,50"/>
	<g>
		<g>
			<path class="st2" d="M22.0969238,29.3342667C17.8126125,35.1083603,15.2774658,42.2577057,15.2774658,50
				c0,9.5490112,3.8563843,18.1960449,10.0945435,24.4733887"/>
			<g>
				<polygon points="18.822216,27.9393234 25.3720093,25.5266113 24.1875172,32.4054108 				"/>
			</g>
		</g>
	</g>
</g>
</svg>
