<?xml version="1.0" encoding="utf-8"?>
<!-- Generator: Adobe Illustrator 21.0.0, SVG Export Plug-In . SVG Version: 6.00 Build 0)  -->
<svg version="1.1" id="Layer_1" xmlns="http://www.w3.org/2000/svg" xmlns:xlink="http://www.w3.org/1999/xlink" x="0px" y="0px"
	 viewBox="0 0 100 100" style="enable-background:new 0 0 100 100;" xml:space="preserve">
<style type="text/css">
	.st0{fill:#FFFFFF;}
	.st1{fill:#A9A9A9;}
	.st2{fill:none;stroke:#FFFFFF;stroke-miterlimit:10;}
</style>
<g>
	<path class="st0" d="M66.5193634,9.9771948l-0.6395493-0.2658587l-5.719799,10.8312168
		C56.8955154,19.4073982,53.481144,18.8321533,50,18.8321533s-6.8955154,0.5752449-10.1600151,1.7103996L34.120182,9.7113361
		l-0.6395454,0.2658587C17.3438644,16.6835175,6.9169998,32.3044014,6.9169998,49.7731895
		c0,23.7561684,19.3270798,43.0829964,43.0830002,43.0829964c23.7561646,0,43.0830002-19.326828,43.0830002-43.0829964
		C93.0830002,32.3044014,82.6563797,16.6835175,66.5193634,9.9771948z M50,91.3367157
		c-22.9182777,0-41.5635223-18.6452484-41.5635223-41.5635262c0-16.6215019,9.7858353-31.5091095,24.9897499-38.1219482
		l5.6901245,10.7743378l0.6252022-0.2327194C43.0248489,20.9711418,46.4763184,20.3516293,50,20.3516293
		s6.9751511,0.6195126,10.2584457,1.8412285l0.6252022,0.2327194l5.6901207-10.7743368
		C81.7774429,18.26408,91.5635223,33.1516876,91.5635223,49.7731895C91.5635223,72.6914673,72.9182816,91.3367157,50,91.3367157z"/>
	<g id="XMLID_1_">
		<g>
			<path class="st1" d="M61.4000015,54.0800018v15.659996c0,1.0600052-0.8700027,1.9300003-1.9400024,1.9300003H40.5400009
				c-1.0699997,0-1.9400024-0.8699951-1.9400024-1.9300003v-15.659996c0-1.0600014,0.8700027-1.9300003,1.9400024-1.9300003
				h18.9199982C60.5299988,52.1500015,61.4000015,53.0200005,61.4000015,54.0800018z"/>
			<path class="st0" d="M56.9700012,46.8400002c0-3.8499985-3.1300011-6.9799995-6.9700012-6.9799995
				s-6.9700012,3.1300011-6.9700012,6.9799995v3.7900009h13.9400024V46.8400002z M61.4000015,54.0800018
				c0-1.0600014-0.8700027-1.9300003-1.9400024-1.9300003H40.5400009c-1.0699997,0-1.9400024,0.8699989-1.9400024,1.9300003
				v15.659996c0,1.0600052,0.8700027,1.9300003,1.9400024,1.9300003h18.9199982
				c1.0699997,0,1.9400024-0.8699951,1.9400024-1.9300003V54.0800018z M62.9199982,69.7399979
				c0,1.9000015-1.5599976,3.4500046-3.4599991,3.4500046H40.5400009c-1.9000015,0-3.4599991-1.5500031-3.4599991-3.4500046
				v-15.659996c0-1.8900032,1.5299988-3.420002,3.4099998-3.4500008v-3.7900009c0-5.25,4.2699966-9.5099983,9.5099983-9.5099983
				s9.5099983,4.2599983,9.5099983,9.5099983v3.7900009c1.8800011,0.0299988,3.4099998,1.5599976,3.4099998,3.4500008V69.7399979z"
				/>
		</g>
		<g>
		</g>
	</g>
	<path d="M52.6628876,59.5613441c0-1.470665-1.1921616-2.6628876-2.6628571-2.6628876s-2.6629181,1.1922226-2.6629181,2.6628876
		c0,1.2638474,0.8827133,2.3167725,2.0637474,2.5894012l-1.5541,6.01157h4.3065414l-1.5541-6.01157
		C51.7802353,61.8781166,52.6628876,60.8251915,52.6628876,59.5613441z"/>
</g>
<g>
	<g>
		<g>
			<path class="st2" d="M77.9030762,70.6657333C82.1873856,64.8916397,84.7225342,57.7422943,84.7225342,50
				c0-9.5490112-3.8563843-18.1960449-10.0945435-24.4733887"/>
			<g>
				<polygon class="st0" points="81.1777802,72.0606766 74.6279907,74.4733887 75.8124847,67.5945892 				"/>
			</g>
		</g>
	</g>
	<path class="st2" d="M51.8077393,50"/>
	<path class="st2" d="M48.1922607,50"/>
	<g>
		<g>
			<path class="st2" d="M22.0969238,29.3342667C17.8126125,35.1083603,15.2774658,42.2577057,15.2774658,50
				c0,9.5490112,3.8563843,18.1960449,10.0945435,24.4733887"/>
			<g>
				<polygon class="st0" points="18.822216,27.9393234 25.3720093,25.5266113 24.1875172,32.4054108 				"/>
			</g>
		</g>
	</g>
</g>
</svg>
