<?xml version="1.0" encoding="utf-8"?>
<!-- Generator: Adobe Illustrator 21.0.0, SVG Export Plug-In . SVG Version: 6.00 Build 0)  -->
<svg version="1.1" id="Layer_1" xmlns="http://www.w3.org/2000/svg" xmlns:xlink="http://www.w3.org/1999/xlink" x="0px" y="0px"
	 viewBox="0 0 122.1 200" style="enable-background:new 0 0 122.1 200;" xml:space="preserve">
<style type="text/css">
	.st0{fill:#ECF0F1;}
	.st1{fill:#6CAFD8;}
	.st2{fill:#E57873;}
	.st3{fill:#999999;}
	.st4{fill:none;stroke:#000000;stroke-width:1.5;stroke-linecap:round;stroke-linejoin:round;}
	.st5{fill:none;stroke:#000000;stroke-width:0.75;stroke-linecap:round;stroke-linejoin:round;}
</style>
<g>
	<g>
		<g>
			<g id="XMLID_5_">
				<g>
					<path class="st0" d="M87.7,67.7v64.8l-22.9,45.8H32.5L9.6,132.5V67.7l19.1-38.2h40l11.2,22.4L87.7,67.7z M77.8,124.2v-15V90.9
						v-15l0,0l-6-11.9l-1.9-3.8l-3.2-6.4l-6-12h0H36.6l0,0L19.5,75.9l0,48.3v0l17.1,34.1h24.1l0,0L77.8,124.2z"/>
					<polygon class="st1" points="76.7,122.1 77.8,124.2 60.7,158.3 59.6,156.1 					"/>
					<polygon class="st2" points="60.7,41.8 77.8,75.9 76.7,78.1 59.6,44 60.7,41.9 					"/>
					<polygon class="st3" points="75.7,120 76.7,122.1 59.6,156.1 58.6,154 					"/>
					<polygon class="st3" points="59.6,44 76.7,78.1 75.6,80.2 75.6,80.2 58.6,46.1 					"/>
					<polygon class="st1" points="74.6,117.9 75.7,120 58.6,154 57.5,151.8 					"/>
					<polygon class="st2" points="75.6,80.2 74.6,82.3 74.6,82.3 57.5,48.2 58.6,46.1 75.6,80.2 					"/>
					<polygon class="st3" points="73.5,115.6 74.6,117.9 57.5,151.8 56.5,149.8 56.5,149.8 					"/>
					<polygon class="st3" points="74.6,82.3 73.5,84.5 73.5,84.4 56.4,50.4 57.5,48.2 74.6,82.3 					"/>
					<polygon class="st2" points="73.5,84.5 72.4,86.6 72.4,86.6 55.4,52.5 55.4,52.5 56.4,50.4 73.5,84.4 					"/>
					<polygon class="st1" points="73.5,115.6 56.5,149.8 56.5,149.8 55.3,147.6 55.5,147.5 72.4,113.5 					"/>
					<polygon class="st3" points="72.4,86.6 71.4,88.7 71.3,88.7 54.3,54.6 55.4,52.5 72.4,86.6 					"/>
					<polygon class="st3" points="71.4,111.4 72.4,113.5 55.5,147.5 55.3,147.6 54.3,145.5 					"/>
					<polygon class="st2" points="71.4,88.7 70.3,90.8 70.3,90.8 66.6,83.4 57,64.2 53.2,56.8 53.2,56.8 54.3,54.6 71.3,88.7 					
						"/>
					<polygon class="st1" points="70.3,109.3 71.4,111.4 54.3,145.5 53.3,143.4 68.5,112.9 70.2,109.4 70.3,109.3 					"/>
					<polygon class="st0" points="70.3,109.3 70.2,109.4 68.5,112.9 					"/>
					<polygon class="st0" points="64.9,113.3 66.6,116.7 57,135.9 55.3,132.5 54.9,131.5 54.5,130.5 54.1,129.4 53.8,128.2 
						53.6,127.1 53.5,125.8 53.4,124.6 53.3,123.4 53.3,122.1 53.4,120.9 53.5,119.6 53.7,118.4 53.9,117.3 54.2,116.1 54.6,115 
						54.9,114.3 55.3,113.3 55.8,112.5 56.3,111.7 56.9,111 57.4,110.5 58,110 58.6,109.7 59.3,109.5 59.8,109.4 59.9,109.4 
						60.5,109.4 61.1,109.5 61.7,109.8 62.4,110.1 62.9,110.6 63.5,111.2 64,111.9 64.4,112.5 					"/>
					<polygon class="st0" points="57,64.2 66.6,83.4 64.9,86.8 64.4,87.7 63.9,88.5 63.3,89.1 62.7,89.7 62.1,90.1 61.5,90.4 
						60.9,90.7 60.3,90.8 59.7,90.7 59,90.6 58.4,90.4 57.8,90 57.2,89.5 56.7,88.9 56.1,88.2 55.8,87.7 55.3,86.8 54.8,85.8 
						54.5,84.8 54.1,83.6 53.8,82.5 53.6,81.3 53.5,80.1 53.4,78.9 53.3,77.6 53.3,76.4 53.4,75.1 53.5,73.9 53.7,72.7 53.9,71.5 
						54.2,70.4 54.6,69.3 54.8,68.6 55.3,67.6 57,64.3 					"/>
					<polygon class="st2" points="33.3,121.8 44.1,143.4 43,145.5 25.9,111.4 27,109.3 30.7,116.7 					"/>
					<polygon class="st1" points="43,54.7 44.1,56.8 40.3,64.3 30.7,83.4 27,90.9 25.9,88.8 					"/>
					<polygon class="st0" points="44,121.3 44,122.5 44,123.8 43.9,125 43.8,126.3 43.6,127.5 43.4,128.6 43.1,129.8 42.7,130.9 
						42.5,131.6 42,132.5 40.3,135.9 33.3,121.8 30.7,116.7 32.4,113.4 32.9,112.5 33.4,111.7 34,111 34.6,110.5 35.2,110 
						35.8,109.7 36.4,109.5 37,109.4 37.6,109.4 38.3,109.5 38.9,109.8 39.5,110.2 40.1,110.6 40.6,111.2 41.2,111.9 41.5,112.5 
						42,113.4 42.5,114.4 42.9,115.4 43.2,116.5 43.5,117.7 43.7,118.8 43.8,120.1 					"/>
					<polygon class="st0" points="43.9,75.5 44,76.8 44,78 43.9,79.3 43.8,80.5 43.6,81.7 43.4,82.9 43.1,84 42.7,85.1 42.5,85.8 
						42,86.8 41.5,87.7 41,88.5 40.4,89.1 39.9,89.7 39.3,90.1 38.7,90.5 38,90.7 37.4,90.8 36.8,90.7 36.2,90.6 35.6,90.4 35,90 
						34.4,89.5 33.8,88.9 33.3,88.2 32.9,87.7 32.4,86.8 30.7,83.4 40.3,64.3 42,67.6 42.5,68.6 42.8,69.7 43.2,70.8 43.5,71.9 
						43.7,73.1 43.8,74.3 					"/>
					<polygon class="st3" points="25.9,111.4 43,145.5 41.9,147.6 24.9,113.5 					"/>
					<polygon class="st3" points="43,54.7 25.9,88.8 24.9,86.6 41.9,52.5 					"/>
					<polygon class="st2" points="41.9,147.6 41.9,147.6 40.9,149.8 23.8,115.7 24.9,113.5 					"/>
					<polygon class="st1" points="41.9,52.5 41.9,52.5 24.9,86.6 23.8,84.5 40.9,50.4 					"/>
					<polygon class="st3" points="23.8,115.7 40.9,149.8 39.8,151.9 22.7,117.8 					"/>
					<polygon class="st3" points="39.8,48.2 40.9,50.4 23.8,84.5 22.7,82.4 					"/>
					<polygon class="st2" points="22.7,117.8 39.8,151.9 38.7,154.1 21.7,119.9 					"/>
					<polygon class="st1" points="39.8,48.2 22.7,82.4 21.7,80.2 38.7,46.1 					"/>
					<polygon class="st3" points="38.7,154.1 38.7,154.1 37.7,156.2 20.6,122.1 21.7,119.9 					"/>
					<polygon class="st3" points="38.7,46.1 21.7,80.2 20.6,78.1 20.6,78.1 37.7,44 					"/>
					<polygon class="st2" points="37.7,156.2 37.7,156.2 36.6,158.3 19.5,124.2 20.6,122.1 					"/>
					<polygon class="st1" points="36.6,41.8 37.7,44 20.6,78.1 20.6,78.1 19.5,75.9 36.6,41.8 					"/>
				</g>
				<g>
					<polyline class="st4" points="32.5,178.3 9.6,132.5 9.6,67.7 28.7,29.5 68.6,29.5 79.8,51.9 87.7,67.7 87.7,132.5 64.8,178.3 
											"/>
					<line class="st4" x1="121.4" y1="67.7" x2="87.7" y2="67.7"/>
					<polyline class="st4" points="98.5,178.3 121.4,132.5 121.4,67.7 102.3,29.5 68.6,29.5 					"/>
					<polyline class="st4" points="19.5,124.2 19.5,75.9 36.6,41.8 					"/>
					<polyline class="st4" points="77.8,75.9 77.8,90.9 77.8,109.2 77.8,124.2 60.7,158.3 60.7,158.3 36.6,158.3 					"/>
					<polyline class="st4" points="60.7,41.8 66.7,53.8 69.9,60.2 71.8,64 77.8,75.9 					"/>
					<polyline class="st4" points="36.6,41.8 60.7,41.8 60.7,41.8 					"/>
					<polyline class="st4" points="36.6,41.8 36.6,41.8 60.7,41.8 					"/>
					<line class="st4" x1="121.4" y1="132.5" x2="87.7" y2="132.5"/>
					<polyline class="st4" points="98.5,178.3 64.8,178.3 32.5,178.3 					"/>
					<line class="st4" x1="53.2" y1="109.3" x2="53.2" y2="90.9"/>
					<polyline class="st4" points="27,90.9 25.9,88.8 24.9,86.6 23.8,84.5 22.7,82.4 21.7,80.2 20.6,78.1 19.5,75.9 					"/>
					<polyline class="st4" points="70.3,109.2 70.3,109.3 71.4,111.4 72.4,113.5 73.5,115.6 74.6,117.9 75.7,120 76.7,122.1 
						77.8,124.2 					"/>
					<polyline class="st4" points="77.8,75.9 76.7,78.1 75.6,80.2 74.6,82.3 73.5,84.5 72.4,86.6 71.4,88.7 70.3,90.8 70.3,90.9 
											"/>
					<line class="st4" x1="40.3" y1="64.3" x2="57" y2="64.3"/>
					<line class="st4" x1="57" y1="135.9" x2="40.3" y2="135.9"/>
					<polyline class="st4" points="66.6,83.4 64.9,86.8 64.4,87.7 63.9,88.5 63.3,89.1 62.7,89.7 62.1,90.1 61.5,90.4 60.9,90.7 
						60.3,90.8 59.7,90.7 59,90.6 58.4,90.4 57.8,90 57.2,89.5 56.7,88.9 56.1,88.2 55.8,87.7 55.3,86.8 54.8,85.8 54.5,84.8 
						54.1,83.6 53.8,82.5 53.6,81.3 53.5,80.1 53.4,78.9 53.3,77.6 53.3,76.4 53.4,75.1 53.5,73.9 53.7,72.7 53.9,71.5 54.2,70.4 
						54.6,69.3 54.8,68.6 55.3,67.6 57,64.3 57,64.2 					"/>
					<polyline class="st4" points="40.3,135.9 42,132.5 42.5,131.6 42.7,130.9 43.1,129.8 43.4,128.6 43.6,127.5 43.8,126.3 
						43.9,125 44,123.8 44,122.5 44,121.3 43.8,120.1 43.7,118.8 43.5,117.7 43.2,116.5 42.9,115.4 42.5,114.4 42,113.4 41.5,112.5 
						41.2,111.9 40.6,111.2 40.1,110.6 39.5,110.2 38.9,109.8 38.3,109.5 37.6,109.4 37,109.4 					"/>
					<polyline class="st4" points="66.6,116.7 64.9,113.3 64.4,112.5 64,111.9 63.5,111.2 62.9,110.6 62.4,110.1 61.7,109.8 
						61.1,109.5 60.5,109.4 59.9,109.4 					"/>
					<polyline class="st4" points="37.4,90.8 38,90.7 38.7,90.5 39.3,90.1 39.9,89.7 40.4,89.1 41,88.5 41.5,87.7 42,86.8 
						42.5,85.8 42.7,85.1 43.1,84 43.4,82.9 43.6,81.7 43.8,80.5 43.9,79.3 44,78 44,76.8 43.9,75.5 43.8,74.3 43.7,73.1 43.5,71.9 
						43.2,70.8 42.8,69.7 42.5,68.6 42,67.6 40.3,64.3 					"/>
					<polyline class="st4" points="70.3,109.3 70.2,109.4 68.5,112.9 66.6,116.7 57,135.9 57,135.9 53.2,143.4 53.3,143.4 
						53.3,143.4 54.3,145.5 55.3,147.6 56.5,149.8 57.5,151.8 58.6,154 59.6,156.1 60.7,158.3 					"/>
					<polyline class="st4" points="30.7,116.7 32.4,113.4 32.9,112.5 33.4,111.7 34,111 34.6,110.5 35.2,110 35.8,109.7 36.4,109.5 
						37,109.4 43.6,109.4 51.2,109.4 53.2,109.4 59.8,109.4 59.9,109.4 70.3,109.3 70.3,109.3 77.8,109.2 					"/>
					<polyline class="st4" points="41.9,147.6 43,145.5 44.1,143.4 40.3,135.9 33.3,121.8 					"/>
					<polyline class="st4" points="38.7,154.1 39.8,151.9 40.9,149.8 41.9,147.6 					"/>
					<line class="st4" x1="37.7" y1="156.2" x2="38.7" y2="154.1"/>
					<polyline class="st4" points="27,109.3 25.9,111.4 24.9,113.5 23.8,115.7 22.7,117.8 21.7,119.9 20.6,122.1 19.5,124.2 
						19.5,124.2 36.6,158.3 37.7,156.2 					"/>
					<polyline class="st4" points="30.7,83.4 32.4,86.8 32.9,87.7 33.3,88.2 33.8,88.9 34.4,89.5 35,90 35.6,90.4 36.2,90.6 
						36.8,90.7 37.4,90.8 43.6,90.8 51.2,90.8 53.2,90.8 60.3,90.8 61.5,90.8 61.6,90.8 70.3,90.8 70.3,90.8 77.8,90.9 					"/>
					<polyline class="st4" points="41.9,52.5 43,54.7 44.1,56.8 					"/>
					<polyline class="st4" points="36.6,41.8 36.6,41.8 36.6,41.8 37.7,44 38.7,46.1 39.8,48.2 40.9,50.4 41.9,52.5 					"/>
					<polyline class="st4" points="27,109.3 43.6,109.3 51.1,109.3 					"/>
					<polyline class="st4" points="51.1,90.9 43.6,90.9 27,90.9 					"/>
					<polyline class="st4" points="59.8,109.4 59.3,109.5 58.6,109.7 58,110 57.4,110.5 56.9,111 56.3,111.7 55.8,112.5 55.3,113.3 
						54.9,114.3 54.6,115 54.2,116.1 53.9,117.3 53.7,118.4 53.5,119.6 53.4,120.9 53.3,122.1 53.3,123.4 53.4,124.6 53.5,125.8 
						53.6,127.1 53.8,128.2 54.1,129.4 54.5,130.5 54.9,131.5 55.3,132.5 57,135.9 					"/>
					<polyline class="st4" points="55.4,52.5 56.4,50.4 57.5,48.2 58.6,46.1 59.6,44 60.7,41.9 60.7,41.8 60.7,41.8 					"/>
					<polyline class="st4" points="53.2,56.8 54.3,54.6 55.4,52.5 					"/>
					<line class="st4" x1="70.3" y1="90.9" x2="70.3" y2="90.8"/>
					<polyline class="st4" points="27,90.9 30.7,83.4 40.3,64.3 44.1,56.8 53.2,56.8 					"/>
					<line class="st5" x1="43" y1="54.7" x2="25.9" y2="88.8"/>
					<line class="st5" x1="41.9" y1="52.5" x2="24.9" y2="86.6"/>
					<line class="st4" x1="41.9" y1="52.5" x2="41.9" y2="52.5"/>
					<polyline class="st5" points="40.9,50.4 40.9,50.4 23.8,84.5 					"/>
					<polyline class="st5" points="39.8,48.2 39.8,48.2 22.7,82.4 					"/>
					<polyline class="st5" points="38.7,46.1 38.7,46.1 21.7,80.2 					"/>
					<polyline class="st5" points="37.7,44 37.7,44 20.6,78.1 					"/>
					<polyline class="st4" points="19.5,75.9 36.6,41.8 36.6,41.8 					"/>
					<polyline class="st4" points="60.7,41.8 77.8,75.9 77.8,75.9 					"/>
					<line class="st5" x1="59.6" y1="44" x2="76.7" y2="78.1"/>
					<polyline class="st5" points="58.6,46.1 58.6,46.1 75.6,80.2 					"/>
					<line class="st5" x1="57.5" y1="48.2" x2="74.6" y2="82.3"/>
					<line class="st5" x1="56.4" y1="50.4" x2="73.5" y2="84.4"/>
					<line class="st5" x1="55.4" y1="52.5" x2="72.4" y2="86.6"/>
					<line class="st4" x1="55.4" y1="52.5" x2="55.4" y2="52.5"/>
					<line class="st5" x1="54.3" y1="54.6" x2="71.3" y2="88.7"/>
					<polyline class="st4" points="53.2,56.8 53.2,56.8 57,64.2 66.6,83.4 70.3,90.8 					"/>
					<line class="st4" x1="44.1" y1="143.4" x2="53.2" y2="143.4"/>
					<polyline class="st4" points="27,109.3 30.7,116.7 33.3,121.8 44.1,143.4 					"/>
					<line class="st5" x1="25.9" y1="111.4" x2="43" y2="145.5"/>
					<line class="st4" x1="41.9" y1="147.6" x2="41.9" y2="147.6"/>
					<line class="st5" x1="24.9" y1="113.5" x2="41.9" y2="147.6"/>
					<line class="st5" x1="23.8" y1="115.7" x2="40.9" y2="149.8"/>
					<line class="st5" x1="22.7" y1="117.8" x2="39.8" y2="151.9"/>
					<line class="st4" x1="38.7" y1="154.1" x2="38.7" y2="154.1"/>
					<line class="st5" x1="21.7" y1="119.9" x2="38.7" y2="154.1"/>
					<line class="st4" x1="37.7" y1="156.2" x2="37.7" y2="156.2"/>
					<polyline class="st5" points="20.6,122.1 20.6,122.1 37.7,156.2 					"/>
					<line class="st4" x1="19.5" y1="124.2" x2="36.6" y2="158.3"/>
					<polyline class="st4" points="70.3,109.2 70.3,109.3 68.5,112.9 53.3,143.4 					"/>
					<line class="st5" x1="71.4" y1="111.4" x2="54.3" y2="145.5"/>
					<line class="st5" x1="72.4" y1="113.5" x2="55.5" y2="147.5"/>
					<line class="st5" x1="73.5" y1="115.6" x2="56.5" y2="149.8"/>
					<line class="st5" x1="57.5" y1="151.8" x2="74.6" y2="117.9"/>
					<line class="st5" x1="58.6" y1="154" x2="75.7" y2="120"/>
					<polyline class="st5" points="59.6,156.1 76.7,122.1 76.7,122.1 					"/>
					<polyline class="st4" points="60.7,158.3 60.7,158.3 77.8,124.2 					"/>
				</g>
			</g>
		</g>
	</g>
	<g>
		<path d="M96.6,149.9v1.6c-0.6-0.3-1.2-0.5-1.7-0.6c-0.5-0.1-1.1-0.2-1.6-0.2c-0.9,0-1.5,0.2-2,0.5c-0.5,0.3-0.7,0.8-0.7,1.4
			c0,0.5,0.2,0.9,0.5,1.2c0.3,0.3,0.9,0.5,1.8,0.6l1,0.2c1.2,0.2,2.1,0.6,2.6,1.2c0.6,0.6,0.9,1.3,0.9,2.3c0,1.1-0.4,2-1.2,2.6
			c-0.8,0.6-1.9,0.9-3.4,0.9c-0.6,0-1.2-0.1-1.8-0.2c-0.6-0.1-1.3-0.3-2-0.6v-1.6c0.6,0.4,1.3,0.6,1.9,0.8c0.6,0.2,1.2,0.3,1.8,0.3
			c0.9,0,1.6-0.2,2.1-0.5c0.5-0.4,0.7-0.9,0.7-1.5c0-0.6-0.2-1-0.5-1.4s-0.9-0.6-1.8-0.7l-1-0.2c-1.2-0.2-2.1-0.6-2.6-1.1
			c-0.5-0.5-0.8-1.2-0.8-2.1c0-1,0.4-1.9,1.1-2.5s1.7-0.9,3-0.9c0.6,0,1.1,0.1,1.7,0.2C95.4,149.5,96,149.7,96.6,149.9z"/>
	</g>
	<g>
		<path d="M7.6,43.1v1.6C7,44.3,6.4,44.1,5.9,44s-1.1-0.2-1.6-0.2c-0.9,0-1.5,0.2-2,0.5c-0.5,0.3-0.7,0.8-0.7,1.4
			c0,0.5,0.2,0.9,0.5,1.2s0.9,0.5,1.8,0.6l1,0.2C6,48,6.9,48.4,7.5,48.9s0.9,1.3,0.9,2.3c0,1.1-0.4,2-1.2,2.6
			c-0.8,0.6-1.9,0.9-3.4,0.9c-0.6,0-1.2-0.1-1.8-0.2S0.7,54.2,0,54v-1.6C0.7,52.7,1.3,53,2,53.1c0.6,0.2,1.2,0.3,1.8,0.3
			c0.9,0,1.6-0.2,2.1-0.5c0.5-0.4,0.7-0.9,0.7-1.5c0-0.6-0.2-1-0.5-1.4c-0.4-0.3-0.9-0.6-1.8-0.7l-1-0.2c-1.2-0.2-2.1-0.6-2.6-1.1
			S0,46.7,0,45.8c0-1,0.4-1.9,1.1-2.5c0.7-0.6,1.7-0.9,3-0.9c0.6,0,1.1,0.1,1.7,0.2C6.4,42.7,7,42.9,7.6,43.1z"/>
	</g>
	<g>
		<path d="M0,149.5h2.2l5.2,9.9v-9.9h1.6v11.8H6.8l-5.2-9.9v9.9H0V149.5z"/>
	</g>
	<g>
		<path d="M90.5,42.7h2.2l5.2,9.9v-9.9h1.6v11.8h-2.2l-5.2-9.9v9.9h-1.6V42.7z"/>
	</g>
</g>
<path class="st4" d="M87.7,67.7"/>
<path class="st4" d="M102.3,29.5"/>
</svg>
