<?xml version="1.0" encoding="utf-8"?>
<!-- Generator: Adobe Illustrator 21.0.0, SVG Export Plug-In . SVG Version: 6.00 Build 0)  -->
<svg version="1.1" id="Layer_1" xmlns="http://www.w3.org/2000/svg" xmlns:xlink="http://www.w3.org/1999/xlink" x="0px" y="0px"
	 viewBox="0 0 100 100" style="enable-background:new 0 0 100 100;" xml:space="preserve">
<style type="text/css">
	.st0{fill:none;stroke:#FFFFFF;stroke-width:0.5;stroke-linecap:round;stroke-linejoin:round;stroke-miterlimit:10;}
	.st1{fill:none;stroke:#FFFFFF;stroke-width:1.5;stroke-linecap:round;stroke-linejoin:round;stroke-miterlimit:10;}
</style>
<g>
	<g>
		<g>
			<path class="st0" d="M46.3,99.1l52.8-52.8c-0.1-1.7-0.3-3.3-0.6-5L41.4,98.5C43,98.8,44.6,99,46.3,99.1z"/>
			<path class="st0" d="M36.8,97.4l60.6-60.6c-0.4-1.4-0.8-2.8-1.4-4.2L32.6,96.1C34,96.6,35.4,97.1,36.8,97.4z"/>
			<path class="st0" d="M41.4,98.5l57.1-57.1c-0.3-1.5-0.6-3.1-1-4.5L36.8,97.4C38.3,97.9,39.8,98.2,41.4,98.5z"/>
			<path class="st0" d="M50,99.2c0.6,0,1.2,0,1.8,0l47.4-47.4c0-0.6,0-1.2,0-1.8c0-1.2-0.1-2.5-0.2-3.7L46.3,99.1
				C47.5,99.2,48.8,99.2,50,99.2z"/>
			<path class="st0" d="M65.3,96.8l31.5-31.5c0.8-2.4,1.4-4.8,1.8-7.4L58,98.6C60.5,98.2,62.9,97.6,65.3,96.8z"/>
			<path class="st0" d="M58,98.6L98.6,58c0.3-2,0.5-4.1,0.6-6.2L51.8,99.2C53.9,99.1,55.9,98.9,58,98.6z"/>
			<path class="st0" d="M28.9,27.3L13.4,42.9c0.9-0.4,2-0.6,3.1-0.6c0.9,0,1.8,0.2,2.7,0.5l14.1-14.1c0,0,0,0,0,0
				C31.6,28.6,30.2,28.2,28.9,27.3z"/>
			<path class="st0" d="M28.7,94.4l65.7-65.7c-0.6-1.2-1.3-2.4-1.9-3.6L25.1,92.5C26.3,93.2,27.5,93.8,28.7,94.4z"/>
			<path class="st0" d="M21.7,90.3l68.6-68.6c-0.8-1.1-1.6-2.1-2.4-3.2L18.5,87.9C19.6,88.7,20.6,89.5,21.7,90.3z"/>
			<path class="st0" d="M18.5,87.9l69.3-69.3c-0.8-1-1.7-2-2.6-2.9L15.6,85.2C16.5,86.1,17.5,87,18.5,87.9z"/>
			<path class="st0" d="M15.6,85.2l69.6-69.6c-0.9-0.9-1.9-1.8-2.9-2.7L12.9,82.4C13.8,83.4,14.7,84.3,15.6,85.2z"/>
			<path class="st0" d="M75.7,92L92,75.7c2-3.2,3.6-6.7,4.8-10.3L65.3,96.8C69,95.6,72.4,94,75.7,92z"/>
			<path class="st0" d="M12.9,82.4l69.5-69.5c-1-0.9-2-1.7-3.1-2.5L10.4,79.3C11.2,80.3,12,81.4,12.9,82.4z"/>
			<path class="st0" d="M32.6,96.1l63.5-63.5c-0.5-1.3-1.1-2.6-1.7-3.9L28.7,94.4C30,95,31.3,95.6,32.6,96.1z"/>
			<path class="st0" d="M8.2,76L76,8.2c-1.2-0.7-2.3-1.4-3.6-2L6.1,72.4C6.8,73.6,7.4,74.8,8.2,76z"/>
			<path class="st0" d="M10.4,79.3l68.9-68.9c-1.1-0.8-2.2-1.5-3.3-2.3L8.2,76C8.9,77.1,9.6,78.2,10.4,79.3z"/>
			<path class="st0" d="M25.1,92.5l67.4-67.4c-0.7-1.2-1.4-2.3-2.2-3.4L21.7,90.3C22.8,91.1,23.9,91.8,25.1,92.5z"/>
			<path class="st0" d="M33.2,13.2c1.3,0,2.4,0.3,3.5,0.8L49.9,0.8c-2,0-4,0.1-5.9,0.4L31.8,13.3C32.3,13.2,32.7,13.2,33.2,13.2z"/>
			<path class="st0" d="M39.6,16.6L55.2,1c-1.7-0.2-3.5-0.3-5.2-0.3c0,0,0,0-0.1,0L36.7,14C37.9,14.6,38.9,15.5,39.6,16.6z"/>
			<path class="st0" d="M40.9,20.9C40.9,20.9,40.9,20.9,40.9,20.9L60.1,1.8c-1.6-0.3-3.2-0.6-4.8-0.8L39.6,16.6
				C40.5,17.9,40.9,19.3,40.9,20.9z"/>
			<path class="st0" d="M1.1,44l24.5-24.5c0.6-3.2,3.1-5.6,6.2-6.2L44,1.1c-2.4,0.3-4.7,0.7-6.9,1.3L2.5,37.1
				C1.9,39.3,1.4,41.6,1.1,44z"/>
			<path class="st0" d="M28.1,5.9c-9.6,4.8-17.4,12.6-22.2,22.2L28.1,5.9z"/>
			<path class="st0" d="M92,75.7L75.7,92C82.3,88,88,82.3,92,75.7z"/>
			<path class="st0" d="M33.2,28.6L19.1,42.8c1.3,0.5,2.4,1.3,3.3,2.3L64.5,2.9c-1.5-0.4-2.9-0.8-4.4-1.1L40.9,20.9
				C40.9,25.2,37.5,28.6,33.2,28.6z"/>
			<path class="st0" d="M2.5,37.1L37.1,2.5c-3.1,0.9-6.1,2-9,3.4L5.9,28.1C4.5,30.9,3.3,33.9,2.5,37.1z"/>
			<path class="st0" d="M13.4,42.9l15.6-15.6c-1.1-0.7-2-1.8-2.6-3L0.8,49.9c0,0,0,0,0,0.1c0,1.8,0.1,3.5,0.3,5.2l8.3-8.3
				C10.1,45.1,11.6,43.7,13.4,42.9z"/>
			<path class="st0" d="M24.1,48.9L68.6,4.4c-1.3-0.5-2.7-1-4.1-1.5L22.4,45C23.3,46.1,23.9,47.5,24.1,48.9z"/>
			<path class="st0" d="M8.7,50c0-1.1,0.2-2.1,0.6-3.1L1,55.2c0.2,1.6,0.4,3.2,0.8,4.8l7.4-7.4C8.9,51.8,8.7,50.9,8.7,50z"/>
			<path class="st0" d="M25.5,20.9c0-0.5,0-0.9,0.1-1.4L1.1,44c-0.2,2-0.4,3.9-0.4,5.9l25.6-25.6C25.8,23.3,25.5,22.2,25.5,20.9z"/>
			<path class="st0" d="M9.2,52.7l-7.4,7.4c0.3,1.5,0.7,3,1.1,4.4l8.6-8.6C10.4,55.1,9.7,53.9,9.2,52.7z"/>
			<path class="st0" d="M24.2,50c0,4.3-3.5,7.7-7.7,7.7c-0.4,0-0.7,0-1.1-0.1L4.4,68.6c0.5,1.3,1.1,2.6,1.8,3.8L72.4,6.1
				c-1.2-0.6-2.5-1.2-3.8-1.8L24.1,48.9C24.1,49.3,24.2,49.6,24.2,50z"/>
			<path class="st0" d="M11.5,55.9l-8.6,8.6c0.4,1.4,0.9,2.8,1.5,4.1l10.9-10.9C13.9,57.4,12.6,56.8,11.5,55.9z"/>
		</g>
		<circle class="st1" cx="50" cy="50" r="49.2"/>
	</g>
	<circle class="st1" cx="16.3" cy="49.9" r="7.8"/>
	<circle class="st1" cx="33.2" cy="20.9" r="7.8"/>
</g>
</svg>
