<?xml version="1.0" encoding="utf-8"?>
<!-- Generator: Adobe Illustrator 21.0.0, SVG Export Plug-In . SVG Version: 6.00 Build 0)  -->
<svg version="1.1" id="Layer_1" xmlns="http://www.w3.org/2000/svg" xmlns:xlink="http://www.w3.org/1999/xlink" x="0px" y="0px"
	 viewBox="0 0 100 100" style="enable-background:new 0 0 100 100;" xml:space="preserve">
<style type="text/css">
	.st0{clip-path:url(#SVGID_2_);}
	.st1{fill:none;stroke:#000000;stroke-width:4;stroke-miterlimit:10;}
</style>
<g>
	<g>
		<defs>
			<path id="SVGID_1_" d="M66.228096,10.5748272l-5.704525,10.8019962c-3.27705-1.2194557-6.8216553-1.8889885-10.5234299-1.8889885
				s-7.2463837,0.6695328-10.5234337,1.8889885l-5.704525-10.8019962
				C18.4521923,16.9414959,7.6768427,32.0447464,7.6768427,49.6692085c0,23.3745155,18.9487762,42.3232918,42.3232994,42.3232918
				s42.3232918-18.9487762,42.3232918-42.3232918C92.3234329,32.0447464,81.5480881,16.9414959,66.228096,10.5748272z"/>
		</defs>
		<clipPath id="SVGID_2_">
			<use xlink:href="#SVGID_1_"  style="overflow:visible;"/>
		</clipPath>
		<g class="st0">
			<g>
				
					<rect x="-35.4709282" y="14.9616938" transform="matrix(0.7071068 -0.7071068 0.7071068 0.7071068 -6.7085505 14.2339516)" width="98.5971069" height="0.5064378"/>
			</g>
			<g>
				
					<rect x="-33.2788582" y="17.1539783" transform="matrix(0.7071068 -0.7071068 0.7071068 0.7071068 -7.6166606 16.4261475)" width="98.5972824" height="0.5064378"/>
			</g>
			<g>
				
					<rect x="-31.0861874" y="19.346262" transform="matrix(0.7071068 -0.7071068 0.7071068 0.7071068 -8.5246983 18.6185188)" width="98.596756" height="0.5064378"/>
			</g>
			<g>
				
					<rect x="-28.8939552" y="21.5384216" transform="matrix(0.7071068 -0.7071068 0.7071068 0.7071068 -9.4326477 20.810854)" width="98.5971069" height="0.5064378"/>
			</g>
			<g>
				
					<rect x="-26.7018814" y="23.7309532" transform="matrix(0.7071068 -0.7071068 0.7071068 0.7071068 -10.3409328 23.0031242)" width="98.5972824" height="0.5064378"/>
			</g>
			<g>
				
					<rect x="-24.5097218" y="25.9231129" transform="matrix(0.7071068 -0.7071068 0.7071068 0.7071068 -11.2489557 25.1952839)" width="98.5972824" height="0.5064378"/>
			</g>
			<g>
				
					<rect x="-22.3174744" y="28.1153965" transform="matrix(0.7071068 -0.7071068 0.7071068 0.7071068 -12.1570654 27.3874798)" width="98.5971069" height="0.5064378"/>
			</g>
			<g>
				
					<rect x="-20.1248913" y="30.3075581" transform="matrix(0.7071068 -0.7071068 0.7071068 0.7071068 -13.0650158 29.5798149)" width="98.596756" height="0.5064378"/>
			</g>
			<g>
				
					<rect x="-17.9327469" y="32.5000877" transform="matrix(0.7071068 -0.7071068 0.7071068 0.7071068 -13.9732275 31.7722588)" width="98.5972824" height="0.5064378"/>
			</g>
			<g>
				
					<rect x="-15.7405853" y="34.6922493" transform="matrix(0.7071068 -0.7071068 0.7071068 0.7071068 -14.8812504 33.9644203)" width="98.5972824" height="0.5064378"/>
			</g>
			<g>
				
					<rect x="-13.5483379" y="36.8845329" transform="matrix(0.7071068 -0.7071068 0.7071068 0.7071068 -15.78936 36.1566162)" width="98.5971069" height="0.5064378"/>
			</g>
			<g>
				
					<rect x="-11.3557558" y="39.0766945" transform="matrix(0.7071068 -0.7071068 0.7071068 0.7071068 -16.6973095 38.3489494)" width="98.596756" height="0.5064378"/>
			</g>
			<g>
				
					<rect x="-9.1636105" y="41.2692261" transform="matrix(0.7071068 -0.7071068 0.7071068 0.7071068 -17.6055222 40.5413933)" width="98.5972824" height="0.5064378"/>
			</g>
			<g>
				
					<rect x="-6.9714503" y="43.4613838" transform="matrix(0.7071068 -0.7071068 0.7071068 0.7071068 -18.513546 42.7335548)" width="98.5972824" height="0.5064378"/>
			</g>
			<g>
				
					<rect x="-4.7792897" y="45.6535454" transform="matrix(0.7071068 -0.7071068 0.7071068 0.7071068 -19.4215679 44.9257164)" width="98.5972824" height="0.5064378"/>
			</g>
			<g>
				
					<rect x="-2.5866199" y="47.845829" transform="matrix(0.7071068 -0.7071068 0.7071068 0.7071068 -20.3296051 47.1180878)" width="98.596756" height="0.5064378"/>
			</g>
			<g>
				
					<rect x="-0.3943873" y="50.0379906" transform="matrix(0.7071068 -0.7071068 0.7071068 0.7071068 -21.2375546 49.310421)" width="98.5971069" height="0.5064378"/>
			</g>
			<g>
				
					<rect x="1.7976855" y="52.2305222" transform="matrix(0.7071068 -0.7071068 0.7071068 0.7071068 -22.1458397 51.5026894)" width="98.5972824" height="0.5064378"/>
			</g>
			<g>
				
					<rect x="3.9898458" y="54.4226799" transform="matrix(0.7071068 -0.7071068 0.7071068 0.7071068 -23.0538635 53.6948509)" width="98.5972824" height="0.5064378"/>
			</g>
			<g>
				
					<rect x="6.1820936" y="56.6149635" transform="matrix(0.7071068 -0.7071068 0.7071068 0.7071068 -23.9619732 55.8870468)" width="98.5971069" height="0.5064378"/>
			</g>
			<g>
				
					<rect x="8.3746758" y="58.8071251" transform="matrix(0.7071068 -0.7071068 0.7071068 0.7071068 -24.8699226 58.0793839)" width="98.596756" height="0.5064378"/>
			</g>
			<g>
				
					<rect x="10.5668211" y="60.9996567" transform="matrix(0.7071068 -0.7071068 0.7071068 0.7071068 -25.7781353 60.2718277)" width="98.5972824" height="0.5064378"/>
			</g>
			<g>
				
					<rect x="12.7589817" y="63.1918182" transform="matrix(0.7071068 -0.7071068 0.7071068 0.7071068 -26.6861572 62.4639854)" width="98.5972824" height="0.5064378"/>
			</g>
			<g>
				
					<rect x="14.9512291" y="65.3841019" transform="matrix(0.7071068 -0.7071068 0.7071068 0.7071068 -27.5942669 64.6561813)" width="98.5971069" height="0.5064378"/>
			</g>
			<g>
				
					<rect x="17.1438122" y="67.5762634" transform="matrix(0.7071068 -0.7071068 0.7071068 0.7071068 -28.5022182 66.8485184)" width="98.596756" height="0.5064378"/>
			</g>
			<g>
				
					<rect x="19.3359566" y="69.7687912" transform="matrix(0.7071068 -0.7071068 0.7071068 0.7071068 -29.4104309 69.0409622)" width="98.5972824" height="0.5064378"/>
			</g>
			<g>
				
					<rect x="21.5281162" y="71.9609528" transform="matrix(0.7071068 -0.7071068 0.7071068 0.7071068 -30.3184528 71.2331238)" width="98.5972824" height="0.5064378"/>
			</g>
			<g>
				
					<rect x="23.7202778" y="74.1531143" transform="matrix(0.7071068 -0.7071068 0.7071068 0.7071068 -31.2264748 73.4252853)" width="98.5972824" height="0.5064378"/>
			</g>
			<g>
				
					<rect x="25.9129467" y="76.3453979" transform="matrix(0.7071068 -0.7071068 0.7071068 0.7071068 -32.1345139 75.6176529)" width="98.596756" height="0.5064378"/>
			</g>
			<g>
				
					<rect x="28.1051807" y="78.5375595" transform="matrix(0.7071068 -0.7071068 0.7071068 0.7071068 -33.0424614 77.8099899)" width="98.5971069" height="0.5064378"/>
			</g>
			<g>
				
					<rect x="30.2972527" y="80.7300873" transform="matrix(0.7071068 -0.7071068 0.7071068 0.7071068 -33.9507484 80.0022583)" width="98.5972824" height="0.5064378"/>
			</g>
			<g>
				
					<rect x="32.4894142" y="82.9222488" transform="matrix(0.7071068 -0.7071068 0.7071068 0.7071068 -34.8587685 82.1944199)" width="98.5972824" height="0.5064378"/>
			</g>
			<g>
				
					<rect x="34.6820831" y="85.1145325" transform="matrix(0.7071068 -0.7071068 0.7071068 0.7071068 -35.7668076 84.3867874)" width="98.596756" height="0.5064378"/>
			</g>
			<g>
				
					<rect x="36.8743324" y="87.3068161" transform="matrix(0.7071068 -0.7071068 0.7071068 0.7071068 -36.6749191 86.5789871)" width="98.5965805" height="0.5064378"/>
			</g>
		</g>
	</g>
	<g>
		<path d="M50.000248,92.8561859c-23.7561531,0-43.0829735-19.3268204-43.0829735-43.0832176
			c0-17.4687767,10.4266109-33.0896492,26.5636215-39.7959671l0.6395454-0.2658587l5.7197952,10.8312111
			c3.2640038-1.1354027,6.6783752-1.7103996,10.1600113-1.7103996c3.4811401,0,6.8955116,0.575243,10.1600075,1.7103996
			l5.7197952-10.8312111l0.6395493,0.2658587c16.1370087,6.7063189,26.5636215,22.3271904,26.5636215,39.7959671
			C93.0832214,73.5293655,73.7564011,92.8561859,50.000248,92.8561859z M33.426487,11.6510448
			C18.222826,18.2638798,8.4367504,33.1514778,8.4367504,49.7729683c0,22.9185143,18.6452332,41.5637474,41.5634995,41.5637474
			s41.5634956-18.6452332,41.5634956-41.5637474c0-16.6214905-9.7860794-31.5090885-24.9897385-38.1219254L60.8838882,22.425375
			l-0.6252022-0.2327194c-3.2832947-1.221714-6.7347603-1.8412266-10.2584381-1.8412266
			c-3.5241737,0-6.9756393,0.6195126-10.2584419,1.8412266l-0.6251984,0.2327194L33.426487,11.6510448z"/>
	</g>
	<path class="st1" d="M50.0003242,49.773304"/>
	<path class="st1" d="M50.0003242,49.773304"/>
</g>
</svg>
