<?xml version="1.0" encoding="utf-8"?>
<!-- Generator: Adobe Illustrator 21.0.0, SVG Export Plug-In . SVG Version: 6.00 Build 0)  -->
<svg version="1.1" id="Layer_1" xmlns="http://www.w3.org/2000/svg" xmlns:xlink="http://www.w3.org/1999/xlink" x="0px" y="0px"
	 viewBox="0 0 100 100" style="enable-background:new 0 0 100 100;" xml:space="preserve">
<style type="text/css">
	.st0{clip-path:url(#SVGID_2_);}
	.st1{fill:#FFFFFF;}
	.st2{fill:none;stroke:#000000;stroke-width:4;stroke-miterlimit:10;}
</style>
<g>
	<g>
		<g>
			<defs>
				<path id="SVGID_1_" d="M66.2,10.6l-5.7,10.8c-3.3-1.2-6.8-1.9-10.5-1.9s-7.2,0.7-10.5,1.9l-5.7-10.8C18.5,16.9,7.7,32,7.7,49.7
					C7.7,73,26.6,92,50,92S92.3,73,92.3,49.7C92.3,32,81.5,16.9,66.2,10.6z"/>
			</defs>
			<clipPath id="SVGID_2_">
				<use xlink:href="#SVGID_1_"  style="overflow:visible;"/>
			</clipPath>
			<g class="st0">
				<g>
					
						<rect x="-35.5" y="15" transform="matrix(0.7071 -0.7071 0.7071 0.7071 -6.7085 14.234)" class="st1" width="98.6" height="0.5"/>
				</g>
				<g>
					
						<rect x="-33.3" y="17.2" transform="matrix(0.7071 -0.7071 0.7071 0.7071 -7.6167 16.4261)" class="st1" width="98.6" height="0.5"/>
				</g>
				<g>
					
						<rect x="-31.1" y="19.3" transform="matrix(0.7071 -0.7071 0.7071 0.7071 -8.5247 18.6185)" class="st1" width="98.6" height="0.5"/>
				</g>
				<g>
					
						<rect x="-28.9" y="21.5" transform="matrix(0.7071 -0.7071 0.7071 0.7071 -9.4326 20.8109)" class="st1" width="98.6" height="0.5"/>
				</g>
				<g>
					
						<rect x="-26.7" y="23.7" transform="matrix(0.7071 -0.7071 0.7071 0.7071 -10.3409 23.0031)" class="st1" width="98.6" height="0.5"/>
				</g>
				<g>
					
						<rect x="-24.5" y="25.9" transform="matrix(0.7071 -0.7071 0.7071 0.7071 -11.249 25.1953)" class="st1" width="98.6" height="0.5"/>
				</g>
				<g>
					
						<rect x="-22.3" y="28.1" transform="matrix(0.7071 -0.7071 0.7071 0.7071 -12.1571 27.3875)" class="st1" width="98.6" height="0.5"/>
				</g>
				<g>
					
						<rect x="-20.1" y="30.3" transform="matrix(0.7071 -0.7071 0.7071 0.7071 -13.065 29.5798)" class="st1" width="98.6" height="0.5"/>
				</g>
				<g>
					
						<rect x="-17.9" y="32.5" transform="matrix(0.7071 -0.7071 0.7071 0.7071 -13.9732 31.7723)" class="st1" width="98.6" height="0.5"/>
				</g>
				<g>
					
						<rect x="-15.7" y="34.7" transform="matrix(0.7071 -0.7071 0.7071 0.7071 -14.8813 33.9644)" class="st1" width="98.6" height="0.5"/>
				</g>
				<g>
					
						<rect x="-13.5" y="36.9" transform="matrix(0.7071 -0.7071 0.7071 0.7071 -15.7894 36.1566)" class="st1" width="98.6" height="0.5"/>
				</g>
				<g>
					
						<rect x="-11.4" y="39.1" transform="matrix(0.7071 -0.7071 0.7071 0.7071 -16.6973 38.349)" class="st1" width="98.6" height="0.5"/>
				</g>
				<g>
					
						<rect x="-9.2" y="41.3" transform="matrix(0.7071 -0.7071 0.7071 0.7071 -17.6055 40.5414)" class="st1" width="98.6" height="0.5"/>
				</g>
				<g>
					
						<rect x="-7" y="43.5" transform="matrix(0.7071 -0.7071 0.7071 0.7071 -18.5135 42.7336)" class="st1" width="98.6" height="0.5"/>
				</g>
				<g>
					
						<rect x="-4.8" y="45.7" transform="matrix(0.7071 -0.7071 0.7071 0.7071 -19.4216 44.9257)" class="st1" width="98.6" height="0.5"/>
				</g>
				<g>
					
						<rect x="-2.6" y="47.8" transform="matrix(0.7071 -0.7071 0.7071 0.7071 -20.3296 47.1181)" class="st1" width="98.6" height="0.5"/>
				</g>
				<g>
					
						<rect x="-0.4" y="50" transform="matrix(0.7071 -0.7071 0.7071 0.7071 -21.2376 49.3104)" class="st1" width="98.6" height="0.5"/>
				</g>
				<g>
					
						<rect x="1.8" y="52.2" transform="matrix(0.7071 -0.7071 0.7071 0.7071 -22.1458 51.5027)" class="st1" width="98.6" height="0.5"/>
				</g>
				<g>
					
						<rect x="4" y="54.4" transform="matrix(0.7071 -0.7071 0.7071 0.7071 -23.0539 53.6949)" class="st1" width="98.6" height="0.5"/>
				</g>
				<g>
					
						<rect x="6.2" y="56.6" transform="matrix(0.7071 -0.7071 0.7071 0.7071 -23.962 55.8871)" class="st1" width="98.6" height="0.5"/>
				</g>
				<g>
					
						<rect x="8.4" y="58.8" transform="matrix(0.7071 -0.7071 0.7071 0.7071 -24.8699 58.0794)" class="st1" width="98.6" height="0.5"/>
				</g>
				<g>
					
						<rect x="10.6" y="61" transform="matrix(0.7071 -0.7071 0.7071 0.7071 -25.7781 60.2718)" class="st1" width="98.6" height="0.5"/>
				</g>
				<g>
					
						<rect x="12.8" y="63.2" transform="matrix(0.7071 -0.7071 0.7071 0.7071 -26.6862 62.464)" class="st1" width="98.6" height="0.5"/>
				</g>
				<g>
					
						<rect x="15" y="65.4" transform="matrix(0.7071 -0.7071 0.7071 0.7071 -27.5943 64.6562)" class="st1" width="98.6" height="0.5"/>
				</g>
				<g>
					
						<rect x="17.1" y="67.6" transform="matrix(0.7071 -0.7071 0.7071 0.7071 -28.5022 66.8485)" class="st1" width="98.6" height="0.5"/>
				</g>
				<g>
					
						<rect x="19.3" y="69.8" transform="matrix(0.7071 -0.7071 0.7071 0.7071 -29.4104 69.041)" class="st1" width="98.6" height="0.5"/>
				</g>
				<g>
					
						<rect x="21.5" y="72" transform="matrix(0.7071 -0.7071 0.7071 0.7071 -30.3185 71.2331)" class="st1" width="98.6" height="0.5"/>
				</g>
				<g>
					
						<rect x="23.7" y="74.2" transform="matrix(0.7071 -0.7071 0.7071 0.7071 -31.2265 73.4253)" class="st1" width="98.6" height="0.5"/>
				</g>
				<g>
					
						<rect x="25.9" y="76.3" transform="matrix(0.7071 -0.7071 0.7071 0.7071 -32.1345 75.6177)" class="st1" width="98.6" height="0.5"/>
				</g>
				<g>
					
						<rect x="28.1" y="78.5" transform="matrix(0.7071 -0.7071 0.7071 0.7071 -33.0425 77.81)" class="st1" width="98.6" height="0.5"/>
				</g>
				<g>
					
						<rect x="30.3" y="80.7" transform="matrix(0.7071 -0.7071 0.7071 0.7071 -33.9507 80.0023)" class="st1" width="98.6" height="0.5"/>
				</g>
				<g>
					
						<rect x="32.5" y="82.9" transform="matrix(0.7071 -0.7071 0.7071 0.7071 -34.8588 82.1944)" class="st1" width="98.6" height="0.5"/>
				</g>
				<g>
					
						<rect x="34.7" y="85.1" transform="matrix(0.7071 -0.7071 0.7071 0.7071 -35.7668 84.3868)" class="st1" width="98.6" height="0.5"/>
				</g>
				<g>
					
						<rect x="36.9" y="87.3" transform="matrix(0.7071 -0.7071 0.7071 0.7071 -36.6749 86.579)" class="st1" width="98.6" height="0.5"/>
				</g>
			</g>
		</g>
	</g>
	<g>
		<path class="st1" d="M50,92.9c-23.8,0-43.1-19.3-43.1-43.1c0-17.5,10.4-33.1,26.6-39.8l0.6-0.3l5.7,10.8c3.3-1.1,6.7-1.7,10.2-1.7
			c3.5,0,6.9,0.6,10.2,1.7l5.7-10.8l0.6,0.3c16.1,6.7,26.6,22.3,26.6,39.8C93.1,73.5,73.8,92.9,50,92.9z M33.4,11.7
			c-15.2,6.6-25,21.5-25,38.1c0,22.9,18.6,41.6,41.6,41.6s41.6-18.6,41.6-41.6c0-16.6-9.8-31.5-25-38.1l-5.7,10.8l-0.6-0.2
			C57,21,53.5,20.4,50,20.4c-3.5,0-7,0.6-10.3,1.8l-0.6,0.2L33.4,11.7z"/>
	</g>
	<path class="st2" d="M50,49.8"/>
	<path class="st2" d="M50,49.8"/>
</g>
</svg>
