<?xml version="1.0" encoding="utf-8"?>
<!-- Generator: Adobe Illustrator 21.0.0, SVG Export Plug-In . SVG Version: 6.00 Build 0)  -->
<svg version="1.1" id="Layer_1" xmlns="http://www.w3.org/2000/svg" xmlns:xlink="http://www.w3.org/1999/xlink" x="0px" y="0px"
	 viewBox="0 0 157.9 200" style="enable-background:new 0 0 157.9 200;" xml:space="preserve">
<style type="text/css">
	.st0{fill:#ECF0F1;}
	.st1{fill:none;stroke:#000000;stroke-width:1.5;stroke-linecap:round;stroke-linejoin:round;stroke-dasharray:2;}
	.st2{fill:none;stroke:#000000;stroke-width:1.5;stroke-linecap:round;stroke-linejoin:round;}
</style>
<g>
	<g id="XMLID_53_">
		<g>
			<polygon class="st0" points="58,121.5 58,122.3 58,122.3 57.6,122.2 57,122.1 56.2,121.9 55.3,121.6 54.2,121.4 53,121.1 
				51.9,120.8 50.8,120.5 49.8,120.2 48.9,120 48.3,119.9 47.9,119.8 47.4,119.6 46,119.1 44.7,118.4 43.5,117.5 42.3,116.5 
				41.2,115.2 40.2,113.8 39.3,112.2 38.5,110.4 37.8,108.6 37.3,106.5 36.9,104.3 36.7,102 36.6,99.6 36.7,97.2 37,94.9 37.5,92.8 
				38,90.8 38.7,88.9 39.6,87.3 40.5,85.7 41.6,84.4 42.7,83.2 43.9,82.2 45.1,81.3 46.5,80.7 47.9,80.3 48,80.2 48.5,80.1 
				49.2,79.9 50.1,79.7 51.1,79.4 52.3,79.1 53.4,78.8 54.5,78.5 55.6,78.3 56.5,78 57.3,77.9 57.8,77.7 58,77.7 58,77.9 58,78.9 
				58,80.3 58,82.2 58,84.5 58,86.9 58,89.5 58,92 58,94.3 58,96.4 58,98.1 58,99.4 58,100 58,100.2 58,101 58,102.4 58,104.2 
				58,106.4 58,108.9 58,111.4 58,113.9 58,116.3 58,118.4 58,120.2 			"/>
			<polygon class="st0" points="40.5,42.7 40.5,42.8 40.5,43.5 40.4,44.7 40.3,46.3 40.2,48.2 40.1,50.4 39.9,52.7 39.8,55 
				39.6,57.2 39.5,59.2 39.4,60.9 39.3,62.2 39.3,62.9 39.2,64 38.9,66.7 38.6,69.3 38.2,71.8 37.6,74.2 37,76.4 36.3,78.4 
				35.5,80.2 34.6,81.8 33.7,83.2 32.6,84.2 31.6,85 30.4,85.4 29.2,85.5 28,85.3 26.8,84.7 25.8,83.9 24.8,82.7 23.9,81.3 23,79.7 
				22.2,77.8 22.2,77.7 21.6,75.7 21,73.4 20.5,71 20.1,68.5 19.7,65.8 19.5,63.1 19.5,62.7 19.4,61.8 19.3,60.4 19.2,58.6 
				19.1,56.5 18.9,54.2 18.8,52 18.7,49.7 18.5,47.6 18.4,45.7 18.3,44.2 18.2,43.2 18.2,42.7 18.3,42.7 18.8,42.7 19.5,42.7 
				20.5,42.7 21.6,42.7 22.9,42.7 24.1,42.7 25.4,42.7 26.5,42.7 27.6,42.7 28.5,42.7 29.1,42.7 29.4,42.7 29.5,42.7 29.9,42.7 
				30.6,42.7 31.5,42.7 32.6,42.7 33.8,42.7 35.1,42.7 36.3,42.7 37.5,42.7 38.6,42.7 39.5,42.7 40.2,42.7 			"/>
			<polygon class="st0" points="40.5,156.8 40.5,157.3 40.4,157.3 40,157.3 39.2,157.3 38.3,157.3 37.1,157.3 35.9,157.3 
				34.7,157.3 33.4,157.3 32.2,157.3 31.2,157.3 30.3,157.3 29.7,157.3 29.4,157.3 29.3,157.3 28.9,157.3 28.2,157.3 27.3,157.3 
				26.2,157.3 25,157.3 23.7,157.3 22.4,157.3 21.2,157.3 20.2,157.3 19.3,157.3 18.6,157.3 18.2,157.3 18.2,157.2 18.3,156.5 
				18.3,155.3 18.4,153.7 18.6,151.8 18.7,149.6 18.8,147.3 19,145 19.1,142.8 19.3,140.8 19.4,139.1 19.5,137.8 19.5,137.1 
				19.6,136 19.8,133.3 20.2,130.7 20.6,128.2 21.2,125.8 21.8,123.6 22.2,122.3 22.5,121.6 23.3,119.8 24.2,118.2 25.1,116.9 
				26.1,115.8 27.2,115 28.4,114.6 29.6,114.5 30.8,114.7 31.9,115.3 33,116.1 34,117.3 34.9,118.7 35.8,120.3 36.5,122.2 
				37.2,124.3 37.8,126.6 38.3,129 38.7,131.5 39,134.2 39.3,136.9 39.3,137.3 39.3,138.2 39.4,139.6 39.6,141.4 39.7,143.5 
				39.8,145.8 40,148.1 40.1,150.3 40.3,152.4 40.4,154.3 40.5,155.8 			"/>
			<polygon class="st0" points="22.1,98 22.2,100.4 22,102.8 21.8,105.1 21.3,107.2 20.8,109.2 20,111.1 19.2,112.7 18.3,114.3 
				17.2,115.6 16.1,116.8 14.9,117.8 13.6,118.7 12.3,119.3 10.9,119.8 10.8,119.8 10.3,119.9 9.6,120.1 8.7,120.3 7.7,120.6 
				6.5,120.9 5.4,121.2 4.2,121.5 3.2,121.7 2.2,122 1.5,122.2 0.9,122.3 0.8,122.1 0.8,121.2 0.8,119.7 0.8,117.8 0.8,115.5 
				0.8,113.1 0.8,110.5 0.8,108 0.8,105.7 0.8,103.6 0.8,101.9 0.8,100.7 0.8,100 0.8,99.8 0.8,99 0.8,97.6 0.8,95.8 0.8,93.6 
				0.8,91.1 0.8,88.6 0.8,86.1 0.8,83.7 0.8,81.6 0.8,79.8 0.8,78.5 0.8,77.7 0.8,77.7 1.3,77.7 1.7,77.9 2.5,78.1 3.5,78.4 
				4.6,78.6 5.7,78.9 6.9,79.2 8,79.5 9,79.8 9.8,80 10.5,80.1 10.8,80.2 11.4,80.4 12.7,80.9 14,81.6 15.3,82.5 16.5,83.6 
				17.6,84.8 18.6,86.2 19.5,87.8 20.3,89.6 20.9,91.4 21.5,93.5 21.9,95.7 			"/>
		</g>
		<g>
			<polyline class="st1" points="58,122.3 58,121.5 58,120.2 58,118.4 58,116.3 58,113.9 58,111.4 58,108.9 58,106.4 58,104.2 
				58,102.4 58,101 58,100.2 58,100 58,99.4 58,98.1 58,96.4 58,94.3 58,92 58,89.5 58,86.9 58,84.5 58,82.2 58,80.3 58,78.9 
				58,77.9 58,77.7 			"/>
			<polyline class="st1" points="116,122.3 116.3,122.3 116.9,122.3 117.5,122.3 118.1,122.3 118.7,122.3 119.4,122.3 120,122.3 
				120.6,122.3 121.2,122.3 121.9,122.3 122.5,122.3 123.1,122.3 123.7,122.3 124.3,122.3 124.9,122.3 125.6,122.3 126.2,122.3 
				126.8,122.3 127.4,122.3 128,122.3 128.7,122.3 129.3,122.3 129.9,122.3 130.5,122.3 131.1,122.3 131.8,122.3 132.4,122.3 
				133,122.3 133.6,122.3 134.2,122.3 134.9,122.3 135.5,122.3 135.7,122.3 136.1,122.3 136.7,122.3 137.3,122.3 138,122.3 
				138.6,122.3 139.2,122.3 139.8,122.3 140.4,122.3 141.1,122.3 141.7,122.3 142.3,122.3 142.9,122.3 143.6,122.3 144.2,122.3 
				144.8,122.3 145.4,122.3 146,122.3 146.6,122.3 147.3,122.3 147.9,122.3 148.5,122.3 149.1,122.3 149.7,122.3 150.4,122.3 
				151,122.3 151.6,122.3 152.2,122.3 152.8,122.3 153.5,122.3 154.1,122.3 154.7,122.3 155.3,122.3 155.9,122.3 156.6,122.3 
				157.2,122.3 157.2,77.7 156.6,77.7 155.9,77.7 155.3,77.7 154.7,77.7 154.1,77.7 153.5,77.7 152.8,77.7 152.2,77.7 151.6,77.7 
				151,77.7 150.4,77.7 149.7,77.7 149.1,77.7 148.5,77.7 147.9,77.7 147.3,77.7 146.6,77.7 146,77.7 145.4,77.7 144.8,77.7 
				144.2,77.7 143.6,77.7 142.9,77.7 142.3,77.7 141.7,77.7 141.1,77.7 140.4,77.7 139.8,77.7 139.2,77.7 138.6,77.7 138,77.7 
				137.3,77.7 136.7,77.7 136.1,77.7 135.7,77.7 135.5,77.7 134.9,77.7 134.2,77.7 133.6,77.7 133,77.7 132.4,77.7 131.8,77.7 
				131.1,77.7 130.5,77.7 129.9,77.7 129.3,77.7 128.7,77.7 128,77.7 127.4,77.7 126.8,77.7 126.2,77.7 125.6,77.7 124.9,77.7 
				124.3,77.7 123.7,77.7 123.1,77.7 122.5,77.7 121.9,77.7 121.2,77.7 120.6,77.7 120,77.7 119.4,77.7 118.7,77.7 118.1,77.7 
				117.5,77.7 116.9,77.7 116.3,77.7 116,77.7 115.7,77.7 115,77.7 114.4,77.7 113.8,77.7 113.2,77.7 112.5,77.7 111.9,77.7 
				111.3,77.7 110.7,77.7 110.1,77.7 109.5,77.7 108.8,77.7 108.2,77.7 107.6,77.7 107,77.7 106.4,77.7 105.7,77.7 105.1,77.7 
				104.5,77.7 103.9,77.7 103.3,77.7 102.6,77.7 102,77.7 101.4,77.7 100.8,77.7 100.2,77.7 100,77.7 			"/>
			<polyline class="st1" points="99.9,122.3 100.2,122.3 100.8,122.3 101.4,122.3 102,122.3 102.6,122.3 103.3,122.3 103.9,122.3 
				104.5,122.3 105.1,122.3 105.7,122.3 106.4,122.3 107,122.3 107.6,122.3 108.2,122.3 108.8,122.3 109.5,122.3 110.1,122.3 
				110.7,122.3 111.3,122.3 111.9,122.3 112.5,122.3 113.2,122.3 113.8,122.3 114.4,122.3 115,122.3 115.7,122.3 116,122.3 			"/>
			<polyline class="st1" points="63.7,122.3 64.2,122.3 64.8,122.3 65.4,122.3 66.1,122.3 66.7,122.3 67.3,122.3 67.9,122.3 
				68.6,122.3 69.2,122.3 69.8,122.3 70.4,122.3 71,122.3 71.6,122.3 72.3,122.3 72.9,122.3 73.5,122.3 74.1,122.3 74.8,122.3 
				75.4,122.3 76,122.3 76.6,122.3 77.2,122.3 77.8,122.3 78.5,122.3 79.1,122.3 79.7,122.3 80.3,122.3 80.9,122.3 81.6,122.3 
				82.2,122.3 82.8,122.3 83.4,122.3 84,122.3 84.7,122.3 85.3,122.3 85.9,122.3 86.5,122.3 87.1,122.3 87.8,122.3 88.4,122.3 
				89,122.3 89.6,122.3 90.2,122.3 90.9,122.3 91.5,122.3 92.1,122.3 92.7,122.3 93.3,122.3 94,122.3 94.3,122.3 			"/>
			<polyline class="st1" points="58,77.7 57.8,77.7 57.3,77.9 56.5,78 55.6,78.3 54.5,78.5 53.4,78.8 52.3,79.1 51.1,79.4 
				50.1,79.7 49.2,79.9 48.5,80.1 48,80.2 47.9,80.3 46.5,80.7 45.1,81.3 43.9,82.2 42.7,83.2 41.6,84.4 40.5,85.7 39.6,87.3 
				38.7,88.9 38,90.8 37.5,92.8 37,94.9 36.7,97.2 36.6,99.6 36.7,102 36.9,104.3 37.3,106.5 37.8,108.6 38.5,110.4 39.3,112.2 
				40.2,113.8 41.2,115.2 42.3,116.5 43.5,117.5 44.7,118.4 46,119.1 47.4,119.6 47.9,119.8 48.3,119.9 48.9,120 49.8,120.2 
				50.8,120.5 51.9,120.8 53,121.1 54.2,121.4 55.3,121.6 56.2,121.9 57,122.1 57.6,122.2 58,122.3 			"/>
			<polyline class="st1" points="94.3,77.7 94,77.7 93.3,77.7 92.7,77.7 92.1,77.7 91.5,77.7 90.9,77.7 90.2,77.7 89.6,77.7 
				89,77.7 88.4,77.7 87.8,77.7 87.1,77.7 86.5,77.7 85.9,77.7 85.3,77.7 84.7,77.7 84,77.7 83.4,77.7 82.8,77.7 82.2,77.7 
				81.6,77.7 80.9,77.7 80.3,77.7 79.7,77.7 79.1,77.7 78.5,77.7 77.8,77.7 77.2,77.7 76.6,77.7 76,77.7 75.4,77.7 74.8,77.7 
				74.1,77.7 73.5,77.7 72.9,77.7 72.3,77.7 71.6,77.7 71,77.7 70.4,77.7 69.8,77.7 69.2,77.7 68.6,77.7 67.9,77.7 67.3,77.7 
				66.7,77.7 66.1,77.7 65.4,77.7 64.8,77.7 64.2,77.7 63.7,77.7 			"/>
			<polyline class="st2" points="31.6,85 32.6,84.2 33.7,83.2 34.6,81.8 35.5,80.2 36.3,78.4 37,76.4 37.6,74.2 38.2,71.8 
				38.6,69.3 38.9,66.7 39.2,64 39.3,62.9 39.3,62.2 39.4,60.9 39.5,59.2 39.6,57.2 39.8,55 39.9,52.7 40.1,50.4 40.2,48.2 
				40.3,46.3 40.4,44.7 40.5,43.5 40.5,42.8 40.5,42.7 			"/>
			<line class="st2" x1="55.5" y1="71.6" x2="56.1" y2="71.8"/>
			<polyline class="st2" points="53.7,71.4 53.8,71.4 54.5,71.4 54.7,71.4 54.8,71.5 55.3,71.6 55.5,71.6 			"/>
			<polyline class="st2" points="54.4,128.6 54.3,128.6 53.6,128.6 			"/>
			<polyline class="st2" points="55.2,128.5 55,128.5 54.5,128.6 			"/>
			<line class="st2" x1="55.8" y1="128.3" x2="55.2" y2="128.5"/>
			<polyline class="st2" points="1.3,77.7 1.7,77.9 2.5,78.1 3.5,78.4 4.6,78.6 5.7,78.9 6.9,79.2 8,79.5 9,79.8 9.8,80 10.5,80.1 
				10.8,80.2 11.4,80.4 12.7,80.9 14,81.6 15.3,82.5 16.5,83.6 17.6,84.8 18.6,86.2 19.5,87.8 20.3,89.6 20.9,91.4 21.5,93.5 
				21.9,95.7 22.1,98 22.2,100.4 22,102.8 21.8,105.1 21.3,107.2 20.8,109.2 20,111.1 19.2,112.7 18.3,114.3 17.2,115.6 16.1,116.8 
				14.9,117.8 13.6,118.7 12.3,119.3 10.9,119.8 10.8,119.8 10.3,119.9 9.6,120.1 8.7,120.3 7.7,120.6 6.5,120.9 5.4,121.2 
				4.2,121.5 3.2,121.7 2.2,122 1.5,122.2 0.9,122.3 0.8,122.1 0.8,121.2 0.8,119.7 0.8,117.8 0.8,115.5 0.8,113.1 0.8,110.5 
				0.8,108 0.8,105.7 0.8,103.6 0.8,101.9 0.8,100.7 0.8,100 0.8,99.8 0.8,99 0.8,97.6 0.8,95.8 0.8,93.6 0.8,91.1 0.8,88.6 
				0.8,86.1 0.8,83.7 0.8,81.6 0.8,79.8 0.8,78.5 0.8,77.7 			"/>
			<polyline class="st2" points="139.7,157.3 139.1,157.3 138.5,157.3 137.9,157.3 137.2,157.3 136.6,157.3 136,157.3 135.4,157.3 
				134.8,157.3 134.1,157.3 133.5,157.3 132.9,157.3 132.3,157.3 131.7,157.3 131,157.3 130.4,157.3 129.8,157.3 129.2,157.3 
				128.6,157.3 127.9,157.3 127.3,157.3 126.7,157.3 126.1,157.3 125.5,157.3 124.9,157.3 124.2,157.3 123.6,157.3 123,157.3 
				122.4,157.3 121.7,157.3 121.1,157.3 120.5,157.3 119.9,157.3 119.3,157.3 118.6,157.3 118,157.3 117.4,157.3 116.8,157.3 
				116.2,157.3 115.5,157.3 114.9,157.3 114.3,157.3 113.7,157.3 113.1,157.3 112.4,157.3 111.8,157.3 111.2,157.3 110.6,157.3 
				110,157.3 109.3,157.3 108.7,157.3 108.1,157.3 107.5,157.3 106.9,157.3 106.2,157.3 105.6,157.3 105,157.3 104.4,157.3 
				103.8,157.3 103.2,157.3 102.5,157.3 101.9,157.3 101.3,157.3 100.7,157.3 100,157.3 99.4,157.3 98.8,157.3 98.2,157.3 
				97.6,157.3 97,157.3 96.3,157.3 95.7,157.3 95.1,157.3 94.5,157.3 93.8,157.3 93.2,157.3 92.6,157.3 92,157.3 91.4,157.3 
				90.8,157.3 90.1,157.3 89.5,157.3 88.9,157.3 88.3,157.3 87.6,157.3 87,157.3 86.4,157.3 85.8,157.3 85.2,157.3 84.6,157.3 
				83.9,157.3 83.3,157.3 82.7,157.3 82.1,157.3 81.5,157.3 80.8,157.3 80.2,157.3 79.6,157.3 79,157.3 78.4,157.3 77.7,157.3 
				77.1,157.3 76.5,157.3 75.9,157.3 75.3,157.3 74.6,157.3 74,157.3 73.4,157.3 72.8,157.3 72.2,157.3 71.5,157.3 70.9,157.3 
				70.3,157.3 69.7,157.3 69.1,157.3 68.4,157.3 67.8,157.3 67.2,157.3 66.6,157.3 66,157.3 65.3,157.3 64.7,157.3 64.1,157.3 
				63.5,157.3 62.9,157.3 62.2,157.3 61.6,157.3 61,157.3 60.4,157.3 59.8,157.3 59.1,157.3 58.5,157.3 57.9,157.3 57.3,157.3 
				56.7,157.3 56.1,157.3 55.4,157.3 54.8,157.3 54.2,157.3 53.6,157.3 52.9,157.3 52.3,157.3 51.7,157.3 51.1,157.3 50.5,157.3 
				49.9,157.3 49.2,157.3 48.6,157.3 48,157.3 47.4,157.3 46.7,157.3 46.1,157.3 45.5,157.3 44.9,157.3 44.3,157.3 43.7,157.3 
				43,157.3 42.4,157.3 41.8,157.3 41.2,157.3 40.5,157.3 40.4,157.3 40,157.3 39.2,157.3 38.3,157.3 37.1,157.3 35.9,157.3 
				34.7,157.3 33.4,157.3 32.2,157.3 31.2,157.3 30.3,157.3 29.7,157.3 29.4,157.3 29.3,157.3 28.9,157.3 28.2,157.3 27.3,157.3 
				26.2,157.3 25,157.3 23.7,157.3 22.4,157.3 21.2,157.3 20.2,157.3 19.3,157.3 18.6,157.3 18.2,157.3 			"/>
			<polyline class="st2" points="40.5,157.3 40.5,156.8 40.5,155.8 40.4,154.3 40.3,152.4 40.1,150.3 40,148.1 39.8,145.8 
				39.7,143.5 39.6,141.4 39.4,139.6 39.3,138.2 39.3,137.3 39.3,136.9 39,134.2 38.7,131.5 38.3,129 37.8,126.6 37.2,124.3 
				36.5,122.2 35.8,120.3 34.9,118.7 34,117.3 33,116.1 31.9,115.3 			"/>
			<polyline class="st2" points="22.2,122.3 21.8,122.3 21.2,122.3 20.6,122.3 20,122.3 19.4,122.3 18.7,122.3 18.1,122.3 
				17.5,122.3 16.9,122.3 16.3,122.3 15.6,122.3 15,122.3 14.4,122.3 13.8,122.3 13.2,122.3 12.5,122.3 11.9,122.3 11.3,122.3 
				10.7,122.3 10.1,122.3 9.4,122.3 8.8,122.3 8.2,122.3 7.6,122.3 7,122.3 6.3,122.3 5.7,122.3 5.1,122.3 4.5,122.3 3.9,122.3 
				3.2,122.3 2.6,122.3 2,122.3 1.4,122.3 0.9,122.3 0.8,122.3 			"/>
			<polyline class="st1" points="58,77.7 58.4,77.7 59,77.7 59.7,77.7 60.3,77.7 60.9,77.7 61.5,77.7 62.1,77.7 62.7,77.7 
				63.4,77.7 63.7,77.7 			"/>
			<polyline class="st2" points="41.9,77.7 42.3,77.7 42.9,77.7 43.5,77.7 44.1,77.7 44.8,77.7 45.4,77.7 46,77.7 46.6,77.7 
				47.2,77.7 47.9,77.7 48.5,77.7 49.1,77.7 49.7,77.7 50.3,77.7 51,77.7 51.6,77.7 52.2,77.7 52.8,77.7 53.4,77.7 54.1,77.7 
				54.7,77.7 55.3,77.7 55.9,77.7 56.5,77.7 57.2,77.7 57.8,77.7 58,77.7 			"/>
			<polyline class="st2" points="58,122.3 57.8,122.3 57.2,122.3 56.5,122.3 55.9,122.3 55.3,122.3 54.7,122.3 54.1,122.3 
				53.4,122.3 52.8,122.3 52.2,122.3 51.6,122.3 51,122.3 50.3,122.3 49.7,122.3 49.1,122.3 48.5,122.3 47.9,122.3 47.2,122.3 
				46.6,122.3 46,122.3 45.4,122.3 44.8,122.3 44.1,122.3 43.5,122.3 42.9,122.3 42.3,122.3 41.9,122.3 			"/>
			<polyline class="st1" points="63.7,122.3 63.4,122.3 62.7,122.3 62.1,122.3 61.5,122.3 60.9,122.3 60.3,122.3 59.7,122.3 
				59,122.3 58.4,122.3 58,122.3 58,122.3 			"/>
			<line class="st2" x1="111" y1="74.1" x2="111.7" y2="74.5"/>
			<polyline class="st2" points="18.2,42.7 18.3,42.7 18.8,42.7 19.5,42.7 20.5,42.7 21.6,42.7 22.9,42.7 24.1,42.7 25.4,42.7 
				26.5,42.7 27.6,42.7 28.5,42.7 29.1,42.7 29.4,42.7 29.5,42.7 29.9,42.7 30.6,42.7 31.5,42.7 32.6,42.7 33.8,42.7 35.1,42.7 
				36.3,42.7 37.5,42.7 38.6,42.7 39.5,42.7 40.2,42.7 40.5,42.7 41.2,42.7 41.8,42.7 42.4,42.7 43,42.7 43.7,42.7 44.3,42.7 
				44.9,42.7 45.5,42.7 46.1,42.7 46.7,42.7 47.4,42.7 48,42.7 48.6,42.7 49.2,42.7 49.9,42.7 50.5,42.7 51.1,42.7 51.7,42.7 
				52.3,42.7 52.9,42.7 53.6,42.7 54.2,42.7 54.8,42.7 55.4,42.7 56.1,42.7 56.7,42.7 57.3,42.7 57.9,42.7 58.5,42.7 59.1,42.7 
				59.8,42.7 60.4,42.7 61,42.7 61.6,42.7 62.2,42.7 62.9,42.7 63.5,42.7 64.1,42.7 64.7,42.7 65.3,42.7 66,42.7 66.6,42.7 
				67.2,42.7 67.8,42.7 68.4,42.7 69.1,42.7 69.7,42.7 70.3,42.7 70.9,42.7 71.5,42.7 72.2,42.7 72.8,42.7 73.4,42.7 74,42.7 
				74.6,42.7 75.3,42.7 75.9,42.7 76.5,42.7 77.1,42.7 77.7,42.7 78.4,42.7 79,42.7 79.6,42.7 80.2,42.7 80.8,42.7 81.5,42.7 
				82.1,42.7 82.7,42.7 83.3,42.7 83.9,42.7 84.6,42.7 85.2,42.7 85.8,42.7 86.4,42.7 87,42.7 87.6,42.7 88.3,42.7 88.9,42.7 
				89.5,42.7 90.1,42.7 90.8,42.7 91.4,42.7 92,42.7 92.6,42.7 93.2,42.7 93.8,42.7 94.5,42.7 95.1,42.7 95.7,42.7 96.3,42.7 
				97,42.7 97.6,42.7 98.2,42.7 98.8,42.7 99.4,42.7 100,42.7 100.7,42.7 101.3,42.7 101.9,42.7 102.5,42.7 103.2,42.7 103.8,42.7 
				104.4,42.7 105,42.7 105.6,42.7 106.2,42.7 106.9,42.7 107.5,42.7 108.1,42.7 108.7,42.7 109.3,42.7 110,42.7 110.6,42.7 
				111.2,42.7 111.8,42.7 112.4,42.7 113.1,42.7 113.7,42.7 114.3,42.7 114.9,42.7 115.5,42.7 116.2,42.7 116.8,42.7 117.4,42.7 
				118,42.7 118.6,42.7 119.3,42.7 119.9,42.7 120.5,42.7 121.1,42.7 121.7,42.7 122.4,42.7 123,42.7 123.6,42.7 124.2,42.7 
				124.9,42.7 125.5,42.7 126.1,42.7 126.7,42.7 127.3,42.7 127.9,42.7 128.6,42.7 129.2,42.7 129.8,42.7 130.4,42.7 131,42.7 
				131.7,42.7 132.3,42.7 132.9,42.7 133.5,42.7 134.1,42.7 134.8,42.7 135.4,42.7 136,42.7 136.6,42.7 137.2,42.7 137.9,42.7 
				138.5,42.7 139.1,42.7 139.7,42.7 			"/>
			<polyline class="st1" points="99.9,122.3 99.3,122.3 98.7,122.3 98.1,122.3 97.4,122.3 96.8,122.3 96.2,122.3 95.6,122.3 
				95,122.3 94.4,122.3 94.3,122.3 			"/>
			<polyline class="st2" points="100,77.7 100.3,77.8 100.9,77.9 101.7,78.1 102.7,78.4 103.8,78.6 104.9,78.9 106.1,79.2 
				107.2,79.5 108.2,79.8 109,80 109.6,80.1 110,80.2 110.5,80.4 111.9,80.9 113.2,81.6 114.5,82.5 115.7,83.6 116.7,84.8 
				117.8,86.2 118.7,87.8 119.4,89.6 120.1,91.4 120.7,93.5 121,95.7 121.3,98 121.3,100.4 121.2,102.8 120.9,105.1 120.5,107.2 
				119.9,109.2 119.2,111.1 118.4,112.7 117.4,114.3 116.4,115.6 115.3,116.8 114.1,117.8 112.8,118.7 111.5,119.3 110.1,119.8 
				109.9,119.8 109.5,119.9 108.8,120.1 107.8,120.3 106.8,120.6 105.7,120.9 104.5,121.2 103.4,121.5 102.3,121.7 101.4,122 
				100.6,122.2 100.1,122.3 99.9,122.3 			"/>
			<polyline class="st1" points="94.3,77.7 94.4,77.7 95,77.7 95.6,77.7 96.2,77.7 96.8,77.7 97.4,77.7 98.1,77.7 98.7,77.7 
				99.3,77.7 99.9,77.7 100,77.7 100,77.7 			"/>
			<polyline class="st2" points="98.5,74.1 98.4,74.1 98.2,74.3 98,74.5 97.8,74.6 97.4,75 97.3,75 96.8,75.5 96.2,76 96,76.1 
				95.6,76.5 95,77 94.4,77.6 94.3,77.7 94,77.8 93.5,78.3 93.5,78.4 92.9,78.9 92.3,79.4 91.7,79.9 91.1,80.3 90.5,80.8 89.9,81.3 
				89.3,81.7 88.2,82.4 87.7,82.7 87.6,82.8 87,83.2 86.4,83.5 85.7,83.8 85.1,84.1 84.5,84.4 83.3,84.8 82.7,85 82,85.2 81.3,85.3 
				80.7,85.4 79.4,85.5 78.8,85.5 78.1,85.5 77.4,85.4 76.7,85.3 75.5,85.1 74.9,84.9 74.2,84.7 73.6,84.5 72.9,84.2 71.8,83.6 
				71.2,83.3 70.6,83 70,82.6 69.4,82.2 68.7,81.8 68.1,81.3 67.1,80.5 66.5,80 65.9,79.6 65.3,79.1 64.7,78.6 64.1,78.1 63.7,77.7 
				63.6,77.6 63,77.1 62.4,76.6 61.8,76.1 61.2,75.6 60.6,75 60,74.6 59.4,74.1 58.8,73.7 58.2,73.2 57.6,72.8 57,72.4 56.8,72.3 
				56.2,72 55.6,71.7 55.5,71.6 55.5,71.6 55.3,71.5 54.7,71.4 54.5,71.4 54,71.4 53.7,71.4 53.1,71.4 52.4,71.6 52.1,71.6 
				51.7,71.8 51,72 50.3,72.3 49.7,72.6 49.4,72.7 49,72.9 48.4,73.3 47.8,73.6 47.1,74 46.5,74.4 45.9,74.8 45.3,75.2 44.7,75.6 
				44.1,76.1 43.5,76.5 42.9,77 42.3,77.4 41.9,77.7 41.7,77.8 41.1,78.3 40.5,78.8 39.9,79.2 39.3,79.7 38.7,80.1 38.1,80.6 
				37.5,81 36.9,81.5 36.3,81.9 35.7,82.3 35.1,82.7 34,83.4 33.4,83.9 32.8,84.2 32.2,84.6 31.6,85 30.4,85.4 29.2,85.5 28,85.3 
				26.8,84.7 25.8,83.9 24.8,82.7 23.9,81.3 23,79.7 22.2,77.8 22.2,77.7 21.6,75.7 21,73.4 20.5,71 20.1,68.5 19.7,65.8 19.5,63.1 
				19.5,62.7 19.4,61.8 19.3,60.4 19.2,58.6 19.1,56.5 18.9,54.2 18.8,52 18.7,49.7 18.5,47.6 18.4,45.7 18.3,44.2 18.2,43.2 
				18.2,42.7 			"/>
			<polyline class="st2" points="139.7,42.7 139.7,42.8 139.7,43.5 139.6,44.7 139.5,46.3 139.4,48.2 139.2,50.4 139.1,52.7 
				138.9,55 138.8,57.2 138.7,59.2 138.6,60.9 138.5,62.2 138.4,62.9 138.4,64 138.1,66.7 137.8,69.3 137.3,71.8 136.8,74.2 
				136.1,76.4 135.7,77.7 135.4,78.4 134.6,80.2 133.8,81.8 132.8,83.2 131.8,84.2 130.7,85 129.6,85.4 128.3,85.5 127.1,85.3 
				126,84.7 125.4,84.4 124.8,84 124.2,83.6 123.5,83.2 122.9,82.8 122.3,82.4 121.7,82 121.1,81.5 120.5,81.1 119.5,80.3 
				118.9,79.9 118.3,79.4 117.7,78.9 117.1,78.5 116.5,78 116,77.7 115.9,77.6 115.3,77.1 114.7,76.7 114.1,76.2 113.5,75.8 
				112.9,75.4 112.3,75 111.7,74.5 111.6,74.5 111,74.1 110.8,74 110.3,73.7 110.2,73.6 109.7,73.3 109.1,73 108.4,72.7 107.8,72.4 
				107.2,72.1 106.6,71.9 106.4,71.8 105.7,71.6 105,71.5 104.7,71.4 104.2,71.4 103.6,71.4 103.4,71.4 102.9,71.5 102.6,71.6 
				102,71.8 101.7,71.9 101.2,72.3 100.6,72.6 100,73 99.4,73.4 			"/>
			<polyline class="st2" points="116,122.3 116.2,122.2 116.8,121.7 117.4,121.2 118,120.8 118.6,120.3 119.2,119.9 119.8,119.4 
				120.4,119 121,118.6 121.6,118.1 122.2,117.7 122.8,117.3 123.3,117 123.9,116.6 124.5,116.1 125.1,115.8 125.8,115.4 126.4,115 
				127.5,114.6 128.8,114.5 130,114.7 131.1,115.3 132.2,116.1 133.2,117.3 134.1,118.7 134.9,120.3 135.7,122.2 135.7,122.3 
				136.4,124.3 137,126.6 137.5,129 137.9,131.5 138.2,134.2 138.4,136.9 138.4,137.3 138.5,138.2 138.6,139.6 138.7,141.4 
				138.8,143.5 139,145.8 139.1,148.1 139.3,150.3 139.4,152.4 139.5,154.3 139.6,155.8 139.7,156.8 139.7,157.3 			"/>
			<line class="st1" x1="116" y1="122.3" x2="116" y2="122.3"/>
			<polyline class="st2" points="62.3,123.6 62.3,123.5 63.3,122.7 63.7,122.3 63.9,122.2 64.5,121.6 65.1,121.1 65.7,120.6 
				66.3,120.1 66.8,119.7 67.4,119.2 68,118.8 68.7,118.3 69.7,117.6 70.3,117.2 70.9,116.8 71.6,116.5 72.2,116.2 72.8,115.9 
				73.5,115.6 74,115.4 74.6,115.2 75.3,115 75.9,114.8 76.6,114.7 77.3,114.6 78.5,114.5 79.2,114.5 79.9,114.5 80.5,114.6 
				81.2,114.7 81.7,114.8 82.4,114.9 83.1,115.1 83.7,115.3 84.4,115.5 85,115.8 86.1,116.4 86.7,116.7 87.4,117.1 88,117.4 
				88.6,117.8 89.2,118.3 89.8,118.7 90.9,119.5 91.4,120 92,120.4 92.6,120.9 93.2,121.4 93.8,121.9 94.3,122.3 94.4,122.4 
				95,122.9 95.6,123.5 96.2,124 96.7,124.4 97.3,125 97.9,125.4 98.5,125.9 99.1,126.3 99.7,126.8 100.3,127.2 100.9,127.6 
				101.2,127.7 101.7,128 102.3,128.3 102.6,128.4 103.1,128.6 103.4,128.6 104,128.6 104.2,128.6 104.8,128.5 105.4,128.4 
				105.9,128.4 106.3,128.2 106.9,128 107.5,127.7 108.2,127.5 108.6,127.3 108.9,127.1 109.6,126.8 110.2,126.4 110.8,126 
				111.4,125.6 112,125.2 112.6,124.8 113.2,124.4 113.8,123.9 114.4,123.5 115,123.1 115.6,122.6 116,122.3 			"/>
			<line class="st2" x1="60.5" y1="125" x2="60.8" y2="124.8"/>
			<polyline class="st2" points="18.2,157.3 18.2,157.2 18.3,156.5 18.3,155.3 18.4,153.7 18.6,151.8 18.7,149.6 18.8,147.3 19,145 
				19.1,142.8 19.3,140.8 19.4,139.1 19.5,137.8 19.5,137.1 19.6,136 19.8,133.3 20.2,130.7 20.6,128.2 21.2,125.8 21.8,123.6 
				22.2,122.3 22.5,121.6 23.3,119.8 24.2,118.2 25.1,116.9 26.1,115.8 27.2,115 28.4,114.6 29.6,114.5 30.8,114.7 31.9,115.3 
				32.6,115.6 33.2,116 33.8,116.4 34.4,116.8 35,117.2 35.6,117.6 36.2,118 36.8,118.5 37.4,118.9 37.4,118.9 38.5,119.7 
				39.1,120.2 39.7,120.6 40.3,121.1 40.9,121.5 41.5,122 41.9,122.3 42.1,122.4 42.7,122.9 43.3,123.3 43.8,123.8 44.4,124.2 
				45.1,124.6 45.7,125 46.3,125.5 46.9,125.9 47.5,126.3 47.8,126.4 48.2,126.7 48.8,127 49.5,127.3 50.1,127.6 50.8,127.9 
				51.3,128.1 51.6,128.2 52.2,128.4 52.9,128.5 53.2,128.6 53.6,128.6 54.3,128.7 54.4,128.6 54.5,128.6 55,128.6 55.2,128.5 
				55.2,128.5 55.3,128.4 56,128.2 56.2,128.1 56.8,127.7 57.4,127.4 58,127 58.6,126.6 59.2,126.1 59.7,125.7 59.8,125.6 
				59.9,125.5 			"/>
			<polyline class="st2" points="0.8,77.7 0.8,77.7 1.3,77.7 2,77.7 2.6,77.7 3.2,77.7 3.9,77.7 4.5,77.7 5.1,77.7 5.7,77.7 
				6.3,77.7 7,77.7 7.6,77.7 8.2,77.7 8.8,77.7 9.4,77.7 10.1,77.7 10.7,77.7 11.3,77.7 11.9,77.7 12.5,77.7 13.2,77.7 13.8,77.7 
				14.4,77.7 15,77.7 15.6,77.7 16.3,77.7 16.9,77.7 17.5,77.7 18.1,77.7 18.7,77.7 19.4,77.7 20,77.7 20.6,77.7 21.2,77.7 
				21.8,77.7 22.2,77.7 			"/>
			<polyline class="st2" points="62.3,123.6 61.7,124.1 61.4,124.3 61.1,124.5 60.8,124.8 60.6,125 60.5,125 60.3,125.2 60,125.4 
				59.9,125.5 			"/>
			<polyline class="st2" points="98.5,74.1 98.6,74 98.8,73.8 99.1,73.6 99.4,73.4 99.8,73.1 			"/>
		</g>
	</g>
</g>
</svg>
