<?xml version="1.0" encoding="utf-8"?>
<!-- Generator: Adobe Illustrator 21.0.0, SVG Export Plug-In . SVG Version: 6.00 Build 0)  -->
<svg version="1.1" id="Layer_1" xmlns="http://www.w3.org/2000/svg" xmlns:xlink="http://www.w3.org/1999/xlink" x="0px" y="0px"
	 viewBox="0 0 179.8 200" style="enable-background:new 0 0 179.8 200;" xml:space="preserve">
<style type="text/css">
	.st0{fill:#ECF0F1;}
	.st1{fill:none;stroke:#000000;stroke-width:1.5;stroke-linecap:round;stroke-linejoin:round;}
	.st2{fill:none;stroke:#000000;stroke-width:0.5;stroke-linecap:round;stroke-linejoin:round;}
</style>
<g>
	<polygon class="st0" points="97.2,63.1 134.1,63.1 134.1,136.9 97.2,136.9 97.2,121.7 126.5,121.7 126.5,78.3 97.2,78.3 	"/>
	<rect x="4.4" y="87.6" class="st0" width="7.6" height="24.8"/>
	<polygon class="st0" points="4.4,63.1 4.4,78.3 33.7,78.3 33.7,121.7 4.4,121.7 4.4,136.9 41.3,136.9 41.3,63.1 	"/>
	<g>
		<g>
			<line class="st1" x1="41.3" y1="136.9" x2="41.3" y2="63.1"/>
			<line class="st1" x1="4.4" y1="112.4" x2="4.4" y2="87.6"/>
			<line class="st1" x1="12" y1="112.4" x2="12" y2="87.6"/>
			<polyline class="st1" points="22.4,121.7 4.4,121.7 0.8,121.7 			"/>
			<polyline class="st1" points="0.8,78.3 4.4,78.3 22.4,78.3 			"/>
			<line class="st1" x1="4.4" y1="78.3" x2="4.4" y2="63.1"/>
			<polyline class="st1" points="4.4,78.3 33.7,78.3 33.7,121.7 4.4,121.7 4.4,136.9 41.3,136.9 41.3,63.1 4.4,63.1 41.3,63.1 
				82.6,63.1 82.6,78.3 82.6,87.6 82.6,112.4 82.6,121.7 82.6,136.9 41.3,136.9 4.4,136.9 4.4,121.7 			"/>
			<polyline class="st1" points="33.7,112.4 22.4,112.4 12,112.4 4.4,112.4 0.8,112.4 			"/>
			<polyline class="st1" points="22.4,112.4 22.4,121.7 33.7,121.7 33.7,112.4 33.7,87.6 33.7,78.3 22.4,78.3 22.4,87.6 			"/>
			<line class="st1" x1="0.8" y1="87.6" x2="0.8" y2="78.3"/>
			<polyline class="st1" points="82.6,112.4 86.3,112.4 86.3,121.7 82.6,121.7 			"/>
			<line class="st1" x1="0.8" y1="121.7" x2="0.8" y2="112.4"/>
			<polyline class="st1" points="82.6,78.3 86.3,78.3 86.3,87.6 82.6,87.6 			"/>
			<polyline class="st1" points="0.8,87.6 4.4,87.6 12,87.6 22.4,87.6 33.7,87.6 			"/>
		</g>
		<g>
			<line class="st1" x1="134.1" y1="136.9" x2="134.1" y2="63.1"/>
			<line class="st1" x1="126.5" y1="121.7" x2="126.5" y2="78.3"/>
			<line class="st1" x1="115.2" y1="121.7" x2="115.2" y2="78.3"/>
			<polyline class="st1" points="175.4,78.3 179.1,78.3 179.1,121.7 175.4,121.7 			"/>
			<line class="st1" x1="110.6" y1="121.7" x2="110.6" y2="78.3"/>
			<line class="st1" x1="93.5" y1="121.7" x2="93.5" y2="78.3"/>
			<line class="st1" x1="98.2" y1="121.7" x2="98.2" y2="78.3"/>
			<polyline class="st1" points="175.4,136.9 134.1,136.9 97.2,136.9 			"/>
			<polyline class="st1" points="97.2,63.1 134.1,63.1 175.4,63.1 			"/>
			<line class="st1" x1="97.2" y1="78.3" x2="97.2" y2="63.1"/>
			<line class="st1" x1="97.2" y1="136.9" x2="97.2" y2="121.7"/>
			<line class="st1" x1="115.2" y1="121.7" x2="110.6" y2="121.7"/>
			<line class="st1" x1="110.6" y1="78.3" x2="115.2" y2="78.3"/>
			<polyline class="st1" points="93.5,78.3 97.2,78.3 98.2,78.3 104.8,78.3 110.6,78.3 115.2,78.3 126.5,78.3 			"/>
			<polyline class="st1" points="126.5,121.7 115.2,121.7 110.6,121.7 104.8,121.7 98.2,121.7 97.2,121.7 93.5,121.7 			"/>
			<polyline class="st1" points="175.4,63.1 175.4,78.3 175.4,121.7 175.4,136.9 			"/>
		</g>
		<g>
			<line class="st2" x1="0.8" y1="78.3" x2="22.4" y2="78.3"/>
			<line class="st2" x1="0.8" y1="79.3" x2="22.4" y2="79.3"/>
			<line class="st2" x1="0.8" y1="80.4" x2="22.4" y2="80.4"/>
			<line class="st2" x1="0.8" y1="81.4" x2="22.4" y2="81.4"/>
			<line class="st2" x1="0.8" y1="82.4" x2="22.4" y2="82.4"/>
			<line class="st2" x1="0.8" y1="83.5" x2="22.4" y2="83.5"/>
			<line class="st2" x1="0.8" y1="84.5" x2="22.4" y2="84.5"/>
			<line class="st2" x1="0.8" y1="85.6" x2="22.4" y2="85.6"/>
			<line class="st2" x1="0.8" y1="86.6" x2="22.4" y2="86.6"/>
			<line class="st2" x1="0.8" y1="87.6" x2="22.4" y2="87.6"/>
		</g>
		<g>
			<line class="st2" x1="0.8" y1="112.4" x2="22.4" y2="112.4"/>
			<line class="st2" x1="0.8" y1="113.4" x2="22.4" y2="113.4"/>
			<line class="st2" x1="0.8" y1="114.4" x2="22.4" y2="114.4"/>
			<line class="st2" x1="0.8" y1="115.5" x2="22.4" y2="115.5"/>
			<line class="st2" x1="0.8" y1="116.5" x2="22.4" y2="116.5"/>
			<line class="st2" x1="0.8" y1="117.6" x2="22.4" y2="117.6"/>
			<line class="st2" x1="0.8" y1="118.6" x2="22.4" y2="118.6"/>
			<line class="st2" x1="0.8" y1="119.6" x2="22.4" y2="119.6"/>
			<line class="st2" x1="0.8" y1="120.7" x2="22.4" y2="120.7"/>
			<line class="st2" x1="0.8" y1="121.7" x2="22.4" y2="121.7"/>
		</g>
		<g>
			<line class="st2" x1="93.5" y1="78.3" x2="93.5" y2="121.7"/>
			<line class="st2" x1="94" y1="78.3" x2="94" y2="121.7"/>
			<line class="st2" x1="94.6" y1="78.3" x2="94.6" y2="121.7"/>
			<line class="st2" x1="95.1" y1="78.3" x2="95.1" y2="121.7"/>
			<line class="st2" x1="95.6" y1="78.3" x2="95.6" y2="121.7"/>
			<line class="st2" x1="96.1" y1="78.3" x2="96.1" y2="121.7"/>
			<line class="st2" x1="96.6" y1="78.3" x2="96.6" y2="121.7"/>
			<line class="st2" x1="97.1" y1="78.3" x2="97.1" y2="121.7"/>
			<line class="st2" x1="97.7" y1="78.3" x2="97.7" y2="121.7"/>
			<line class="st2" x1="98.2" y1="78.3" x2="98.2" y2="121.7"/>
		</g>
		<g>
			<line class="st2" x1="110.6" y1="78.3" x2="110.6" y2="121.7"/>
			<line class="st2" x1="111.1" y1="78.3" x2="111.1" y2="121.7"/>
			<line class="st2" x1="111.6" y1="78.3" x2="111.6" y2="121.7"/>
			<line class="st2" x1="112.1" y1="78.3" x2="112.1" y2="121.7"/>
			<line class="st2" x1="112.6" y1="78.3" x2="112.6" y2="121.7"/>
			<line class="st2" x1="113.1" y1="78.3" x2="113.1" y2="121.7"/>
			<line class="st2" x1="113.7" y1="78.3" x2="113.7" y2="121.7"/>
			<line class="st2" x1="114.2" y1="78.3" x2="114.2" y2="121.7"/>
			<line class="st2" x1="114.7" y1="78.3" x2="114.7" y2="121.7"/>
			<line class="st2" x1="115.2" y1="78.3" x2="115.2" y2="121.7"/>
		</g>
	</g>
	<path class="st1" d="M4.4,78.3"/>
</g>
</svg>
