<?xml version="1.0" encoding="utf-8"?>
<!-- Generator: Adobe Illustrator 21.0.0, SVG Export Plug-In . SVG Version: 6.00 Build 0)  -->
<svg version="1.1" id="Layer_1" xmlns="http://www.w3.org/2000/svg" xmlns:xlink="http://www.w3.org/1999/xlink" x="0px" y="0px"
	 viewBox="0 0 89 200" style="enable-background:new 0 0 89 200;" xml:space="preserve">
<style type="text/css">
	.st0{fill:none;stroke:#000000;stroke-width:1.5;stroke-linecap:round;stroke-linejoin:round;}
</style>
<g>
	<g>
		<polyline class="st0" points="36.1,127.7 37.8,128 38,128 39.2,128.1 40.4,128.1 40.7,128.1 42.7,128 44.5,127.7 44.8,127.6 
			45,127.6 46.2,127.2 47.4,126.8 47.6,126.8 49.6,125.9 49.8,125.8 51.4,124.9 51.6,124.7 52.7,124 53.7,123.2 53.8,123.1 
			55.5,121.6 57,120 57.1,119.8 57.9,118.8 58.7,117.7 59.9,115.7 60.1,115.2 60.9,113.6 60.9,113.5 61.5,112.2 61.9,110.9 
			62.6,108.5 63,106.1 63,106 63.2,104.7 63.2,104.6 63.3,103.2 63.4,100.7 63.2,98.2 63.1,96.8 62.8,95.3 62.3,92.9 61.5,90.5 
			61,89.1 60.4,87.8 59.2,85.6 57.9,83.5 57.9,83.4 57,82.3 56.1,81.1 54.4,79.3 52.6,77.7 51.5,76.8 50.4,76 50.2,75.9 48.2,74.7 
			46.1,73.7 44.8,73.1 44.6,73.1 43.3,72.6 41,72.1 40.3,72 		"/>
		<polyline class="st0" points="44.5,127.7 45.8,127.9 46,127.9 47.2,128.1 48.4,128.1 48.7,128.1 50.7,128 52.8,127.7 52.9,127.7 
			53,127.6 54.2,127.3 55.4,127 55.6,126.9 57.6,126.1 59.4,125 59.6,124.9 60.7,124.2 61.7,123.5 61.9,123.3 63.5,121.9 
			65.1,120.2 65.9,119.2 66,119.1 66.8,118 68,116 68.1,115.9 69.1,113.9 69.1,113.8 69.6,112.5 70.1,111.2 70.8,108.9 71.3,106.5 
			71.3,106.4 71.5,105 71.6,103.6 71.7,101.1 71.6,98.6 71.4,97.2 71.2,95.7 70.7,93.3 69.9,90.9 69.4,89.5 68.9,88.2 67.7,85.9 
			66.4,83.8 66.4,83.8 65.6,82.6 64.7,81.4 63,79.6 61.3,78 61.2,77.9 60.1,77.1 60.1,77 58.9,76.2 56.9,74.9 54.8,73.8 54.6,73.8 
			53.3,73.2 52,72.8 49.8,72.2 49.6,72.1 48.6,72 		"/>
		<polyline class="st0" points="52.9,127.7 53.9,127.9 55.1,128 55.4,128 56.3,128.1 56.6,128.1 58.6,128 58.9,128 60.9,127.7 
			62.1,127.4 62.4,127.4 63.5,127 65.5,126.2 65.7,126.1 67.6,125.2 68.6,124.5 68.8,124.3 69.9,123.6 71.5,122.2 71.7,122 
			73.2,120.4 74.1,119.4 74.9,118.3 75,118.2 76.2,116.3 77.3,114.2 77.8,112.9 78.3,111.6 78.4,111.5 78.8,110 		"/>
		<polyline class="st0" points="36.2,83.4 35.4,83.9 34.1,85 32.8,86.1 32.2,86.7 31.6,87.4 30.5,88.8 29.6,90.4 29.1,91.2 
			28.7,92.1 28,93.7 27.5,95.5 27.2,96.4 27.1,97.4 26.8,99.2 26.7,101 26.7,102 26.7,102.9 26.9,104.7 27.3,106.5 27.5,107.4 
			27.8,108.2 28.4,109.7 29.1,111.3 29.6,112 30,112.6 30.9,113.9 32,115 32.5,115.5 33.1,116 34.2,116.8 35.4,117.5 35.9,117.8 
			36.2,117.9 		"/>
		<polyline class="st0" points="44.5,94.3 44.5,94.3 44.3,95 44,95.9 43.8,96.8 43.5,98.7 43.4,100.5 43.3,101.5 43.4,102.4 
			43.5,104.1 43.8,105.9 44,106.8 44.3,107.7 44.5,108.4 		"/>
		<polyline class="st0" points="40.3,86.9 40.1,87.3 39,88.7 38,90.1 37.6,90.9 37.2,91.8 36.5,93.5 35.9,95.2 35.6,96.2 35.4,97.1 
			35.2,98.9 35,100.8 35,101.7 35.1,102.7 35.2,104.5 35.5,106 35.5,106.1 35.8,107 36,107.9 36.6,109.5 37.3,111.1 37.7,111.7 
			38.2,112.5 39.1,113.8 40.1,114.8 40.3,115.1 		"/>
		<polyline class="st0" points="10.2,110.1 10.2,110.2 10.3,110.3 10.7,111.7 11.6,113.9 12.6,116 13.3,117.1 13.4,117.3 
			14.2,118.4 15.6,120.2 17.1,121.8 17.2,121.9 18.2,122.8 19.2,123.6 19.3,123.8 21.1,125 23,126 23.2,126.1 24.3,126.6 25.5,127 
			25.7,127.1 27.7,127.7 29.7,128 30,128 31.2,128.1 32.4,128.1 32.7,128.1 34.7,127.9 35,127.9 36.1,127.7 37,127.5 38.2,127.2 
			38.4,127.1 39.6,126.7 41.5,125.8 41.7,125.7 43.5,124.6 44.5,123.9 44.7,123.7 45.7,122.9 47.3,121.4 47.5,121.3 48.9,119.6 
			49.7,118.6 50.5,117.4 50.6,117.3 51.8,115.3 52.7,113.2 53.3,111.9 53.7,110.6 53.7,110.4 54.4,108.1 54.8,105.7 54.9,104.3 
			55,102.8 55.1,100.4 54.9,97.9 54.9,97.8 54.7,96.4 54.4,95 53.8,92.5 53,90.2 52.5,88.8 52.5,88.8 51.9,87.4 50.7,85.2 
			49.3,83.2 48.5,82 47.6,80.9 45.9,79.1 45.8,79 45.4,78.7 44.1,77.5 44,77.4 42.8,76.5 41.7,75.7 39.6,74.5 37.4,73.5 37.3,73.5 
			36,73 34.7,72.6 32.4,72 32.2,72 32.1,72 		"/>
	</g>
	<polyline class="st0" points="88.2,127.6 88.2,127.5 88.2,123.7 88.2,108.2 88,96.7 87.5,94 86.8,91.6 86.3,90.2 85.8,88.9 
		84.7,86.6 83.5,84.5 82.7,83.3 81.8,82.1 81.8,82 80.2,80.1 78.4,78.4 77.4,77.5 76.2,76.6 74.2,75.3 74.1,75.2 72,74.1 70.7,73.5 
		69.4,73 69.3,73 67.2,72.4 67,72.3 64.7,71.9 63.3,71.7 61.9,71.6 61.8,71.6 59.4,71.7 57.1,71.9 57,72 56.9,72 	"/>
	<polyline class="st0" points="0.8,127.5 0.8,112.3 1,96.8 1.3,95.1 1.6,93.7 2.3,91.3 3.2,88.9 3.8,87.6 4.4,86.3 5.7,84.2 
		5.7,84.1 7.1,82.2 7.2,82.1 8.1,81 9,79.9 10.8,78.2 12.7,76.7 13.8,75.9 14,75.8 15.2,75.1 17.3,74 19.5,73.1 19.6,73 20.9,72.6 
		22.3,72.2 24.6,71.8 24.8,71.8 26.9,71.6 27.1,71.6 28.5,71.6 29.9,71.7 32.1,72 33.2,71.8 33.4,71.8 35.7,71.6 37.1,71.6 
		38.5,71.7 38.7,71.7 40.3,72 42,71.7 44.3,71.6 44.5,71.6 45.9,71.6 47.3,71.8 48.6,72 50.8,71.7 53.1,71.6 54.5,71.7 54.7,71.7 
		56,71.8 56.9,72 56.9,72 58.3,72.2 60.6,72.9 60.8,72.9 62.1,73.4 63.4,73.9 65.5,75 65.6,75.1 67.6,76.4 68.7,77.3 69.8,78.2 
		71.6,79.9 71.7,79.9 73.2,81.7 73.3,81.8 74.1,82.9 75,84.1 76.2,86.3 77.3,88.5 77.9,89.9 78.4,91.2 79.1,93.6 79.6,96.1 
		79.8,97.6 79.9,99 80,101.5 79.9,104 79.8,105.4 79.6,106.8 79.1,109.2 79,109.3 78.8,110 78.8,123.7 78.8,127.5 78.8,127.6 	"/>
	<polyline class="st0" points="32,81.6 31.3,81.8 29.8,82.4 28.4,83.1 27.6,83.6 26.9,84.1 25.5,85.1 24.3,86.2 23.7,86.9 
		23.1,87.6 22.1,89.1 21.1,90.6 20.7,91.4 20.3,92.3 19.6,94 19.1,95.8 18.9,96.7 18.7,97.6 18.5,99.5 18.4,101.3 18.4,102.2 
		18.4,103.2 18.7,105 19,106.7 19.3,107.6 19.5,108.4 20.2,110 20.9,111.5 21.3,112.2 21.8,112.8 22.8,114.1 23.7,115.1 24.3,115.7 
		24.9,116.2 26,116.9 27.2,117.6 27.9,117.9 28.5,118.1 29.7,118.4 31,118.6 31.7,118.7 32.2,118.7 33.5,118.6 34.8,118.3 
		35.4,118.2 36,117.9 36.2,117.9 37.2,117.4 38.4,116.7 39,116.3 39.5,115.8 40.3,115.1 40.3,115.1 40.6,114.8 41.6,113.7 42.1,113 
		42.6,112.3 43.4,111 44.1,109.4 44.4,108.6 44.5,108.4 44.7,107.8 45.1,106.1 45.5,104.4 45.6,103.4 45.6,102.5 45.6,100.6 
		45.5,98.8 45.4,97.9 45.2,96.9 44.8,95.1 44.5,94.3 44.2,93.4 43.8,92.5 43.5,91.7 42.6,90.1 41.6,88.6 41.1,87.8 40.5,87.1 
		40.3,86.9 39.3,85.8 38.1,84.7 37.3,84.2 36.6,83.7 36.2,83.4 35.2,82.9 33.7,82.2 33,81.9 32.2,81.6 32,81.6 30.6,81.3 29.1,81.1 
		28.2,81 27.4,81 25.9,81.2 24.3,81.4 23.5,81.7 22.8,81.9 21.3,82.5 19.8,83.3 19,83.7 19,83.7 18.4,84.2 17.1,85.3 15.8,86.5 
		15.2,87.2 14.6,87.9 13.6,89.3 12.7,90.8 12.3,91.7 11.9,92.5 11.2,94.2 10.7,96 10.5,97 10.4,97.7 10.2,110.1 10.2,110.1 
		10.2,112.4 10.2,127.5 10.2,127.5 	"/>
	<ellipse class="st0" cx="5.5" cy="127.6" rx="4.7" ry="0.8"/>
	<path class="st0" d="M78.8,127.6c0,0.4,2.1,0.8,4.7,0.8c2.6,0,4.7-0.4,4.7-0.8"/>
</g>
</svg>
