<?xml version="1.0" encoding="utf-8"?>
<!-- Generator: Adobe Illustrator 21.0.0, SVG Export Plug-In . SVG Version: 6.00 Build 0)  -->
<svg version="1.1" id="Layer_1" xmlns="http://www.w3.org/2000/svg" xmlns:xlink="http://www.w3.org/1999/xlink" x="0px" y="0px"
	 viewBox="0 0 100 100" style="enable-background:new 0 0 100 100;" xml:space="preserve">
<style type="text/css">
	.st0{fill:none;stroke:#000000;stroke-width:3;stroke-linejoin:round;stroke-miterlimit:10;}
	.st1{fill:none;stroke:#000000;stroke-width:1.5;stroke-miterlimit:10;}
</style>
<g>
	<g>
		<g>
			<path class="st0" d="M74.5,92c14.4-8.4,24-24,24-41.8C98.5,32.1,88.6,16.4,74,8"/>
			<g>
				<polygon points="77.9,95.2 69,95.2 73.4,87.5 				"/>
			</g>
			<g>
				<polygon points="77.3,4.8 68.5,4.9 72.9,12.5 				"/>
			</g>
		</g>
	</g>
	<g>
		<g>
			<path class="st0" d="M26,8C11.4,16.4,1.5,32.1,1.5,50.1c0,17.8,9.6,33.4,24,41.8"/>
			<g>
				<polygon points="22.7,4.8 31.5,4.9 27.1,12.5 				"/>
			</g>
			<g>
				<polygon points="22.1,95.2 31,95.2 26.6,87.5 				"/>
			</g>
		</g>
	</g>
</g>
<g>
	<circle class="st1" cx="50" cy="50" r="42.3"/>
	<circle class="st1" cx="21.2" cy="50" r="6.6"/>
	<circle class="st1" cx="35.6" cy="25" r="6.6"/>
</g>
</svg>
