<?xml version="1.0" encoding="utf-8"?>
<!-- Generator: Adobe Illustrator 21.1.0, SVG Export Plug-In . SVG Version: 6.00 Build 0)  -->
<svg version="1.1" id="Layer_1" xmlns="http://www.w3.org/2000/svg" xmlns:xlink="http://www.w3.org/1999/xlink" x="0px" y="0px"
	 viewBox="0 0 100 100" style="enable-background:new 0 0 100 100;" xml:space="preserve">
<style type="text/css">
	.st0{fill:none;stroke:#000000;stroke-width:1.5;stroke-miterlimit:10;}
	.st1{fill:none;stroke:#000000;stroke-width:0.5;stroke-miterlimit:10;}
</style>
<g>
	<g>
		<g>
			<path class="st0" d="M74.909,92.688c14.588-8.561,24.389-24.4,24.389-42.537c0-18.354-10.037-34.353-24.915-42.839"/>
			<g>
				<polygon points="78.313,95.894 69.339,95.957 73.77,88.153 				"/>
			</g>
			<g>
				<polygon points="77.747,4.064 68.773,4.112 73.3,11.861 				"/>
			</g>
		</g>
	</g>
	<g>
		<g>
			<path class="st0" d="M25.617,7.312C10.739,15.798,0.702,31.798,0.702,50.151c0,18.137,9.801,33.976,24.389,42.537"/>
			<g>
				<polygon points="22.253,4.064 31.227,4.112 26.7,11.861 				"/>
			</g>
			<g>
				<polygon points="21.687,95.894 30.661,95.957 26.23,88.153 				"/>
			</g>
		</g>
	</g>
</g>
<g>
	<circle class="st1" cx="50" cy="50" r="42.306"/>
	<circle class="st1" cx="21.16" cy="50" r="6.639"/>
	<circle class="st1" cx="35.568" cy="25.003" r="6.639"/>
</g>
</svg>
