<?xml version="1.0" encoding="utf-8"?>
<!-- Generator: Adobe Illustrator 21.0.0, SVG Export Plug-In . SVG Version: 6.00 Build 0)  -->
<svg version="1.1" id="Layer_1" xmlns="http://www.w3.org/2000/svg" xmlns:xlink="http://www.w3.org/1999/xlink" x="0px" y="0px"
	 viewBox="0 0 200 200" style="enable-background:new 0 0 200 200;" xml:space="preserve">
<style type="text/css">
	.st0{fill:none;stroke:#FFFFFF;stroke-width:1.5;stroke-linecap:round;stroke-linejoin:round;}
</style>
<g>
	<polyline class="st0" points="114.7,139.9 114.7,147.3 114.5,148.2 113.8,149.1 112.7,149.9 111.2,150.6 109.4,151.3 107.3,151.8 
		105,152.2 102.5,152.4 100,152.5 97.5,152.4 95,152.2 92.7,151.8 90.6,151.3 88.8,150.6 87.3,149.9 86.2,149.1 85.5,148.2 
		85.3,147.3 85.3,139.9 	"/>
	<line class="st0" x1="181.2" y1="119.5" x2="181.2" y2="126.8"/>
	<line class="st0" x1="168.5" y1="124.8" x2="168.5" y2="132.1"/>
	<line class="st0" x1="153.3" y1="129" x2="153.3" y2="136.3"/>
	<line class="st0" x1="143.9" y1="126.3" x2="143.9" y2="133.6"/>
	<line class="st0" x1="135.9" y1="132.2" x2="135.9" y2="139.5"/>
	<line class="st0" x1="131.4" y1="130.5" x2="131.4" y2="137.8"/>
	<line class="st0" x1="121.5" y1="133.7" x2="121.5" y2="141"/>
	<line class="st0" x1="117.2" y1="134" x2="117.2" y2="141.3"/>
	<polyline class="st0" points="111.5,130.1 111.5,137.4 111.6,137.5 	"/>
	<polyline class="st0" points="88.5,130.1 88.5,137.4 88.4,137.5 86.3,139.4 85.3,139.9 82.8,141.3 78.5,141 77.3,138.8 77.3,136.6 
		77.3,131.5 	"/>
	<polyline class="st0" points="88.4,137.5 88.4,130.2 88.5,130.1 	"/>
	<line class="st0" x1="82.8" y1="141.3" x2="82.8" y2="134"/>
	<line class="st0" x1="78.5" y1="141" x2="78.5" y2="133.7"/>
	<polyline class="st0" points="71.8,128.7 71.8,136 71.7,136.1 68.6,137.8 64.1,139.5 60.1,138.9 	"/>
	<line class="st0" x1="68.6" y1="137.8" x2="68.6" y2="130.5"/>
	<line class="st0" x1="64.1" y1="139.5" x2="64.1" y2="132.2"/>
	<polyline class="st0" points="56.2,126.2 56.2,133.5 56.1,133.6 52,135.1 46.7,136.3 43.1,135.5 	"/>
	<line class="st0" x1="56.1" y1="133.6" x2="56.1" y2="126.3"/>
	<line class="st0" x1="46.7" y1="136.3" x2="46.7" y2="129"/>
	<line class="st0" x1="31.5" y1="132.1" x2="31.5" y2="124.8"/>
	<line class="st0" x1="18.8" y1="126.8" x2="18.8" y2="119.5"/>
	<polyline class="st0" points="192.4,112.1 192.4,114.6 192.4,119.4 190.7,120.8 184.3,120.8 183.6,120.8 	"/>
	<line class="st0" x1="196.8" y1="107" x2="196.8" y2="114.3"/>
	<line class="st0" x1="190.7" y1="113.5" x2="190.7" y2="120.8"/>
	<line class="st0" x1="184.3" y1="113.5" x2="184.3" y2="120.8"/>
	<line class="st0" x1="157.9" y1="122.7" x2="157.9" y2="130"/>
	<line class="st0" x1="157.8" y1="122.7" x2="157.8" y2="130"/>
	<line class="st0" x1="42.2" y1="130" x2="42.2" y2="122.7"/>
	<line class="st0" x1="42.1" y1="130" x2="42.1" y2="122.7"/>
	<line class="st0" x1="15.7" y1="120.8" x2="15.7" y2="113.5"/>
	<line class="st0" x1="9.3" y1="120.8" x2="9.3" y2="113.5"/>
	<line class="st0" x1="3.2" y1="114.3" x2="3.2" y2="107"/>
	<polyline class="st0" points="197.6,105.5 197.6,107.6 197.6,112.8 196.8,114.3 192.4,114.6 	"/>
	<polyline class="st0" points="183.6,118.3 183.6,120.8 183.6,125.6 	"/>
	<polyline class="st0" points="0.9,98.6 0.9,100.1 0.9,107.4 2.4,107.4 	"/>
	<line class="st0" x1="174.9" y1="119.1" x2="174.9" y2="126.4"/>
	<line class="st0" x1="162.7" y1="123.9" x2="162.7" y2="131.2"/>
	<line class="st0" x1="148" y1="127.8" x2="148" y2="135.1"/>
	<line class="st0" x1="128.3" y1="128.8" x2="128.3" y2="136.1"/>
	<line class="st0" x1="113.7" y1="132.1" x2="113.7" y2="139.4"/>
	<polyline class="st0" points="97.8,141.8 97.8,134.5 95.4,132.4 	"/>
	<line class="st0" x1="86.3" y1="139.4" x2="86.3" y2="132.1"/>
	<line class="st0" x1="71.7" y1="136.1" x2="71.7" y2="128.8"/>
	<line class="st0" x1="52" y1="135.1" x2="52" y2="127.8"/>
	<line class="st0" x1="37.3" y1="131.2" x2="37.3" y2="123.9"/>
	<line class="st0" x1="25.1" y1="126.4" x2="25.1" y2="119.1"/>
	<polyline class="st0" points="199.1,100.1 193.2,101 187.5,101.3 187.3,101.3 	"/>
	<polyline class="st0" points="94.4,130.3 88.4,130.2 86.3,132.1 82.8,134 78.5,133.7 77.3,131.5 77.4,129.4 77.5,129.4 	"/>
	<line class="st0" x1="111.5" y1="137.4" x2="105.6" y2="137.6"/>
	<line class="st0" x1="94.4" y1="137.6" x2="88.5" y2="137.4"/>
	<polyline class="st0" points="77.5,129.4 71.8,128.7 71.7,128.8 68.6,130.5 64.1,132.2 60.1,131.6 	"/>
	<line class="st0" x1="128.2" y1="136" x2="122.7" y2="136.6"/>
	<line class="st0" x1="77.3" y1="136.6" x2="71.8" y2="136"/>
	<polyline class="st0" points="197.6,93.2 192.3,94.5 186.9,95.2 186.7,95.3 	"/>
	<polyline class="st0" points="61.4,71.5 61.3,71.5 60.1,69.4 60.1,67.1 	"/>
	<polyline class="st0" points="61.4,127.2 56.2,126.2 56.1,126.3 52,127.8 46.7,129 43.1,128.2 	"/>
	<line class="st0" x1="43.1" y1="75.8" x2="43.1" y2="70.5"/>
	<line class="st0" x1="156.9" y1="70.5" x2="156.9" y2="75.8"/>
	<polyline class="st0" points="2.4,98.4 2.4,93.2 3.2,91.7 7.6,91.4 9.5,91.3 12.2,91.3 15.3,91.3 15.5,91.4 17,89.6 17.2,89.3 	"/>
	<line class="st0" x1="28.4" y1="80.1" x2="28.4" y2="75"/>
	<line class="st0" x1="171.6" y1="75" x2="171.6" y2="80.1"/>
	<polyline class="st0" points="7.6,91.4 7.6,86.6 9.3,85.2 15.7,85.2 16.4,85.2 20,85.5 21.3,85.6 21.5,85.7 24.1,83.8 24.3,83.8 	
		"/>
	<polyline class="st0" points="192.4,86.6 187.8,88.2 183,89.3 182.8,89.3 	"/>
	<polyline class="st0" points="46.9,124 42.2,122.7 42.1,122.7 37.3,123.9 31.5,124.8 28.4,123.7 	"/>
	<line class="st0" x1="16.4" y1="85.2" x2="16.4" y2="80.4"/>
	<line class="st0" x1="183.6" y1="80.4" x2="183.6" y2="85.2"/>
	<line class="st0" x1="60.1" y1="71.7" x2="60.1" y2="67.1"/>
	<line class="st0" x1="139.9" y1="67.1" x2="139.9" y2="71.7"/>
	<polyline class="st0" points="7.6,114.6 3.2,114.3 2.4,112.8 2.4,107.6 2.4,105.5 	"/>
	<line class="st0" x1="102.2" y1="134.5" x2="97.8" y2="134.5"/>
	<polyline class="st0" points="34.3,78.8 34.2,78.9 30.9,77.1 28.4,75 	"/>
	<polyline class="st0" points="34.3,119.9 30.5,118.2 30.4,118.3 25.1,119.1 18.8,119.5 16.4,118.3 	"/>
	<polyline class="st0" points="139.9,138.9 135.9,139.5 131.4,137.8 128.3,136.1 128.2,136 128.2,128.7 	"/>
	<polyline class="st0" points="139.9,131.6 135.9,132.2 131.4,130.5 128.3,128.8 128.2,128.7 122.5,129.4 	"/>
	<polyline class="st0" points="60.1,67.1 64.1,66.5 68.6,68.2 71.7,69.9 71.8,70 77.3,69.4 77.4,69.3 77.3,67.2 78.5,65 82.8,64.7 
		85.3,66.1 	"/>
	<polyline class="st0" points="183.6,80.4 180,82.3 175.9,83.8 175.7,83.8 	"/>
	<polyline class="st0" points="16.4,118.3 20,116.4 21.3,115.9 21.5,115.9 24.1,115 24.3,114.9 	"/>
	<line class="st0" x1="190.5" y1="107.4" x2="190.5" y2="111.4"/>
	<line class="st0" x1="9.5" y1="111.4" x2="9.5" y2="107.4"/>
	<line class="st0" x1="143.8" y1="133.5" x2="139.9" y2="134.3"/>
	<line class="st0" x1="60.1" y1="134.3" x2="56.2" y2="133.5"/>
	<line class="st0" x1="30.4" y1="122" x2="30.4" y2="118.3"/>
	<line class="st0" x1="169.6" y1="118.3" x2="169.6" y2="122"/>
	<polyline class="st0" points="43.1,70.5 46.7,69.7 52,70.9 56.1,72.4 56.2,72.5 60.1,71.7 60.1,71.7 61.3,71.5 61.4,71.5 	"/>
	<polyline class="st0" points="156.9,135.5 153.3,136.3 148,135.1 143.9,133.6 143.8,133.5 143.8,126.2 	"/>
	<polyline class="st0" points="156.9,128.2 153.3,129 148,127.8 143.9,126.3 143.8,126.2 138.6,127.2 	"/>
	<line class="st0" x1="30.5" y1="121.9" x2="30.5" y2="118.2"/>
	<line class="st0" x1="169.5" y1="118.2" x2="169.5" y2="121.9"/>
	<line class="st0" x1="193.2" y1="101" x2="193.2" y2="104.4"/>
	<line class="st0" x1="6.8" y1="104.4" x2="6.8" y2="101"/>
	<polyline class="st0" points="24.3,83.8 24.1,83.8 20,82.3 16.4,80.4 	"/>
	<polyline class="st0" points="24.3,114.9 21.5,113.1 21.3,113.1 15.7,113.5 9.3,113.5 7.6,112.1 	"/>
	<polyline class="st0" points="28.4,125.9 25.1,126.4 18.8,126.8 16.4,125.6 	"/>
	<polyline class="st0" points="171.6,131 168.5,132.1 162.7,131.2 157.9,130 157.8,130 156.9,130.2 	"/>
	<polyline class="st0" points="171.6,123.7 168.5,124.8 162.7,123.9 157.9,122.7 157.8,122.7 153.1,124 	"/>
	<polyline class="st0" points="28.4,75 31.5,73.9 37.3,74.8 42.1,76 42.2,76 43.1,75.8 44.4,75.4 46.7,74.7 46.9,74.7 	"/>
	<polyline class="st0" points="171.6,75 169.1,77.1 165.8,78.9 165.7,78.8 	"/>
	<line class="st0" x1="169.1" y1="77.1" x2="169.1" y2="80.3"/>
	<line class="st0" x1="30.9" y1="80.3" x2="30.9" y2="77.1"/>
	<line class="st0" x1="20" y1="85.5" x2="20" y2="82.3"/>
	<line class="st0" x1="180" y1="82.3" x2="180" y2="85.5"/>
	<polyline class="st0" points="104.6,132.4 102.2,134.5 102.2,141.8 	"/>
	<line class="st0" x1="7.7" y1="97.7" x2="7.7" y2="94.5"/>
	<line class="st0" x1="192.3" y1="94.5" x2="192.3" y2="97.7"/>
	<line class="st0" x1="12.2" y1="91.3" x2="12.2" y2="88.2"/>
	<line class="st0" x1="187.8" y1="88.2" x2="187.8" y2="91.3"/>
	<polyline class="st0" points="114.7,66.1 117.2,64.7 121.5,65 122.7,67.2 122.6,69.3 122.7,69.4 128.2,70 128.3,69.9 131.4,68.2 
		135.9,66.5 139.9,67.1 	"/>
	<line class="st0" x1="178.7" y1="113.1" x2="178.7" y2="115.9"/>
	<line class="st0" x1="21.3" y1="115.9" x2="21.3" y2="113.1"/>
	<line class="st0" x1="178.5" y1="113.1" x2="178.5" y2="115.9"/>
	<line class="st0" x1="21.5" y1="115.9" x2="21.5" y2="113.1"/>
	<polyline class="st0" points="16.4,80.4 18.8,79.2 25.1,79.6 28.4,80.1 30.4,80.4 30.5,80.5 30.9,80.3 34.2,78.9 34.3,78.8 	"/>
	<polyline class="st0" points="183.6,125.6 181.2,126.8 174.9,126.4 171.6,125.9 	"/>
	<polyline class="st0" points="183.6,118.3 181.2,119.5 174.9,119.1 169.6,118.3 169.5,118.2 165.7,119.9 	"/>
	<polyline class="st0" points="17.2,109.4 15.5,107.3 15.3,107.4 9.5,107.4 3.2,107 2.4,105.5 	"/>
	<line class="st0" x1="44.4" y1="75.4" x2="44.4" y2="72.7"/>
	<line class="st0" x1="155.6" y1="72.7" x2="155.6" y2="75.4"/>
	<polyline class="st0" points="156.9,70.5 155.6,72.7 153.3,74.6 153.1,74.7 	"/>
	<line class="st0" x1="184.7" y1="107.4" x2="184.7" y2="109.8"/>
	<line class="st0" x1="15.3" y1="109.8" x2="15.3" y2="107.4"/>
	<line class="st0" x1="184.5" y1="107.3" x2="184.5" y2="109.8"/>
	<line class="st0" x1="15.5" y1="109.8" x2="15.5" y2="107.3"/>
	<line class="st0" x1="60.1" y1="71.7" x2="60.1" y2="69.4"/>
	<line class="st0" x1="139.9" y1="69.4" x2="139.9" y2="71.7"/>
	<polyline class="st0" points="139.9,67.1 139.9,69.4 138.7,71.4 138.6,71.5 	"/>
	<polyline class="st0" points="105.6,130.4 104.6,132.4 104.6,139.7 	"/>
	<polyline class="st0" points="95.4,139.7 94.4,137.7 94.4,137.6 94.4,130.4 	"/>
	<line class="st0" x1="12.5" y1="103.5" x2="12.5" y2="101.3"/>
	<line class="st0" x1="187.5" y1="101.3" x2="187.5" y2="103.5"/>
	<line class="st0" x1="13.3" y1="103.5" x2="12.7" y2="101.3"/>
	<line class="st0" x1="187.3" y1="101.3" x2="186.7" y2="103.5"/>
	<polyline class="st0" points="192.4,112.1 190.7,113.5 184.3,113.5 178.7,113.1 178.5,113.1 175.7,114.9 	"/>
	<line class="st0" x1="12.7" y1="103.5" x2="12.7" y2="101.3"/>
	<line class="st0" x1="187.3" y1="101.3" x2="187.3" y2="103.5"/>
	<polyline class="st0" points="197.6,105.5 196.8,107 190.5,107.4 184.7,107.4 184.5,107.3 182.8,109.4 	"/>
	<polyline class="st0" points="199.1,98.6 199.1,100.1 199.1,107.4 197.6,107.4 	"/>
	<polyline class="st0" points="43.1,130.2 42.2,130 42.1,130 37.3,131.2 31.5,132.1 28.4,131 	"/>
	<polyline class="st0" points="85.3,58.7 85.5,59.6 86.2,60.5 87.3,61.3 88.8,62.1 90.6,62.7 92.7,63.2 95,63.6 97.5,63.8 100,63.9 
		102.5,63.8 105,63.6 107.3,63.2 109.4,62.7 111.2,62.1 112.7,61.3 113.8,60.5 114.5,59.6 114.7,58.7 	"/>
	<polyline class="st0" points="16.4,120.8 15.7,120.8 9.3,120.8 7.6,119.4 7.6,114.6 7.6,112.1 	"/>
	<polyline class="st0" points="187.3,97.4 187.5,97.4 192.3,97.7 193.2,97.7 197.6,98.4 199.1,98.6 	"/>
	<polyline class="st0" points="12.7,101.3 12.5,101.3 6.8,101 0.9,100.1 	"/>
	<polyline class="st0" points="186.7,103.5 186.9,103.5 187.3,103.5 187.5,103.5 192.3,104.2 193.2,104.4 197.6,105.5 	"/>
	<polyline class="st0" points="13.3,95.3 13.1,95.2 7.7,94.5 2.4,93.2 	"/>
	<polyline class="st0" points="182.8,109.4 183,109.4 184.5,109.8 184.7,109.8 187.8,110.5 190.5,111.4 192.4,112.1 	"/>
	<polyline class="st0" points="17.2,89.3 17,89.3 12.2,88.2 7.6,86.6 	"/>
	<polyline class="st0" points="175.7,83.8 175.9,83.8 178.5,85.7 178.7,85.6 180,85.5 183.6,85.2 184.3,85.2 190.7,85.2 192.4,86.6 
		192.4,91.4 	"/>
	<polyline class="st0" points="175.7,114.9 175.9,115 178.5,115.9 178.7,115.9 180,116.4 183.6,118.3 	"/>
	<polyline class="st0" points="165.7,78.8 165.8,78.9 169.1,80.3 169.5,80.5 169.6,80.4 171.6,80.1 174.9,79.6 181.2,79.2 
		183.6,80.4 	"/>
	<polyline class="st0" points="165.7,119.9 165.8,119.9 169.1,121.6 169.5,121.9 169.6,122 171.6,123.7 171.6,125.9 171.6,131 	"/>
	<polyline class="st0" points="153.1,124 153.3,124.1 155.6,126 156.9,128.2 156.9,130.2 156.9,135.5 	"/>
	<polyline class="st0" points="46.9,74.7 46.7,74.6 44.4,72.7 43.1,70.5 	"/>
	<polyline class="st0" points="138.6,127.2 138.7,127.3 139.9,129.3 139.9,131.6 139.9,134.3 139.9,138.9 	"/>
	<polyline class="st0" points="122.5,129.4 122.6,129.4 122.7,131.5 121.5,133.7 117.2,134 113.7,132.1 111.6,130.2 105.6,130.3 	
		"/>
	<polyline class="st0" points="111.5,130.1 111.6,130.2 111.6,137.5 113.7,139.4 114.7,139.9 117.2,141.3 121.5,141 122.7,138.8 
		122.7,136.6 122.7,131.5 	"/>
	<polyline class="st0" points="105.6,130.3 105.6,130.4 105.6,137.6 105.6,137.7 104.6,139.7 102.2,141.8 97.8,141.8 95.4,139.7 
		95.4,132.4 94.4,130.4 94.4,130.3 	"/>
	<polygon class="st0" points="85.3,106.6 85.3,66.1 85.3,58.7 85.5,57.8 86.2,56.9 87.3,56.1 88.8,55.4 90.6,54.7 92.7,54.2 
		95,53.8 97.5,53.6 100,53.5 102.5,53.6 105,53.8 107.3,54.2 109.4,54.7 111.2,55.4 112.7,56.1 113.8,56.9 114.5,57.8 114.7,58.7 
		114.7,66.1 114.7,106.6 114.7,106.8 114.5,107.7 113.8,108.6 112.7,109.4 111.2,110.1 109.4,110.8 107.3,111.3 105,111.7 
		102.5,111.9 100,112 97.5,111.9 95,111.7 92.7,111.3 90.6,110.8 88.8,110.1 87.3,109.4 86.2,108.6 85.5,107.7 85.3,106.8 	"/>
	<polyline class="st0" points="28.4,131 28.4,125.9 28.4,123.7 30.4,122 30.5,121.9 30.9,121.6 34.2,119.9 34.3,119.9 	"/>
	<polyline class="st0" points="43.1,135.5 43.1,130.2 43.1,128.2 44.4,126 46.7,124.1 46.9,124 	"/>
	<polyline class="st0" points="16.4,125.6 16.4,120.8 16.4,118.3 	"/>
	<polyline class="st0" points="60.1,138.9 60.1,134.3 60.1,131.6 60.1,129.3 61.3,127.3 61.4,127.2 	"/>
	<polyline class="st0" points="0.9,98.6 2.4,98.4 6.8,97.7 7.7,97.7 12.5,97.4 12.7,97.4 	"/>
	<polyline class="st0" points="2.4,105.5 6.8,104.4 7.7,104.2 12.5,103.5 12.7,103.5 13.1,103.5 13.3,103.5 	"/>
	<polyline class="st0" points="7.6,112.1 9.5,111.4 12.2,110.5 15.3,109.8 15.5,109.8 17,109.4 17.2,109.4 	"/>
	<polyline class="st0" points="182.8,89.3 183,89.6 184.5,91.4 184.7,91.3 187.8,91.3 190.5,91.3 192.4,91.4 196.8,91.7 197.6,93.2 
		197.6,98.4 	"/>
	<polyline class="st0" points="12.7,97.4 13.1,96 13.3,95.3 	"/>
	<polyline class="st0" points="186.7,95.3 186.9,96 187.3,97.4 	"/>
	<polyline class="st0" points="153.1,74.7 153.3,74.7 155.6,75.4 156.9,75.8 157.8,76 157.9,76 162.7,74.8 168.5,73.9 171.6,75 	"/>
	<polyline class="st0" points="138.6,71.5 138.7,71.5 139.9,71.7 139.9,71.7 143.8,72.5 143.9,72.4 148,70.9 153.3,69.7 156.9,70.5 
			"/>
</g>
</svg>
