<?xml version="1.0" encoding="utf-8"?>
<!-- Generator: Adobe Illustrator 21.0.0, SVG Export Plug-In . SVG Version: 6.00 Build 0)  -->
<svg version="1.1" id="Layer_1" xmlns="http://www.w3.org/2000/svg" xmlns:xlink="http://www.w3.org/1999/xlink" x="0px" y="0px"
	 viewBox="0 0 100 100" style="enable-background:new 0 0 100 100;" xml:space="preserve">
<style type="text/css">
	.st0{fill:#3DD83D;}
	.st1{fill:#288C28;}
	.st2{display:none;}
	.st3{display:inline;}
	.st4{font-family:'Helvetica';}
	.st5{font-size:10.385px;}
</style>
<g id="Layer_1_1_">
	<g id="Layer_2">
	</g>
	<g>
		<g>
			<rect x="0.9" y="0.9" class="st0" width="98.2" height="98.2"/>
			<path class="st1" d="M100,100H0V0h100V100z M1.8,98.2h96.4V1.8H1.8V98.2z"/>
		</g>
		<g>
			<polygon points="50.3,75.8 23.2,28.5 24.8,27.6 50.3,72.2 75.2,27.6 76.8,28.4 			"/>
		</g>
		<g>
			<rect x="24" y="49.1" width="52" height="1.8"/>
		</g>
	</g>
</g>
<g id="Layer_2_1_" class="st2">
	<text transform="matrix(1 0 0 1 5.0005 95.8096)" class="st3 st4 st5">PI</text>
</g>
<g>
	<path d="M15.2,83.8v1.6c-0.5-0.5-1.1-0.8-1.7-1.1S12.3,84,11.7,84c-1.3,0-2.3,0.4-3,1.2s-1,1.9-1,3.4c0,1.5,0.3,2.6,1,3.4
		s1.7,1.2,3,1.2c0.7,0,1.3-0.1,1.9-0.4s1.1-0.6,1.7-1.1v1.6c-0.5,0.4-1.1,0.6-1.7,0.8c-0.6,0.2-1.2,0.3-1.9,0.3
		c-1.7,0-3.1-0.5-4.1-1.6c-1-1.1-1.5-2.5-1.5-4.3c0-1.8,0.5-3.3,1.5-4.3c1-1.1,2.3-1.6,4.1-1.6c0.7,0,1.3,0.1,1.9,0.3
		C14.1,83.2,14.7,83.4,15.2,83.8z"/>
	<path d="M26,83.8v1.6c-0.5-0.5-1.1-0.8-1.7-1.1c-0.6-0.2-1.2-0.4-1.9-0.4c-1.3,0-2.3,0.4-3,1.2c-0.7,0.8-1,1.9-1,3.4
		c0,1.5,0.3,2.6,1,3.4c0.7,0.8,1.7,1.2,3,1.2c0.7,0,1.3-0.1,1.9-0.4c0.6-0.2,1.1-0.6,1.7-1.1v1.6c-0.5,0.4-1.1,0.6-1.7,0.8
		s-1.2,0.3-1.9,0.3c-1.7,0-3.1-0.5-4.1-1.6c-1-1.1-1.5-2.5-1.5-4.3c0-1.8,0.5-3.3,1.5-4.3c1-1.1,2.3-1.6,4.1-1.6
		c0.7,0,1.3,0.1,1.9,0.3C25,83.2,25.5,83.4,26,83.8z"/>
</g>
</svg>
