<?xml version="1.0" encoding="utf-8"?>
<!-- Generator: Adobe Illustrator 21.0.0, SVG Export Plug-In . SVG Version: 6.00 Build 0)  -->
<svg version="1.1" id="Layer_1" xmlns="http://www.w3.org/2000/svg" xmlns:xlink="http://www.w3.org/1999/xlink" x="0px" y="0px"
	 viewBox="0 0 100 100" style="enable-background:new 0 0 100 100;" xml:space="preserve">
<style type="text/css">
	.st0{fill:#FC0D1B;}
	.st1{fill:#960810;}
	.st2{fill:#FFFFFF;}
	.st3{display:none;}
	.st4{display:inline;}
	.st5{font-family:'Helvetica';}
	.st6{font-size:10.385px;}
	.st7{display:inline;fill:#FFFFFF;}
	.st8{font-family:'DejaVuSans';}
	.st9{font-size:12px;}
</style>
<g id="Layer_1_2_">
	<g id="Layer_1_1_">
		<g id="Layer_2">
		</g>
		<g>
			<g>
				<rect x="0.9" y="0.9" class="st0" width="98.2" height="98.2"/>
				<path class="st1" d="M100,100H0V0h100V100z M1.8,98.2h96.4V1.8H1.8V98.2z"/>
			</g>
			<g>
				<polygon class="st2" points="50.3,75.8 23.2,28.5 24.8,27.6 50.3,72.2 75.2,27.6 76.8,28.4 				"/>
			</g>
			<g>
				<rect x="24" y="49.1" class="st2" width="52" height="1.8"/>
			</g>
		</g>
	</g>
	<g id="Layer_2_1_" class="st3">
		<text transform="matrix(1 0 0 1 5.0005 95.8096)" class="st4 st5 st6">PI</text>
	</g>
	<g>
		<path class="st2" d="M15.2,83.8v1.5c-0.5-0.5-1-0.8-1.7-1c-0.6-0.3-1.2-0.4-1.8-0.4c-1.3,0-2.3,0.4-3,1.2c-0.6,0.8-1,1.9-1,3.5
			c0,1.5,0.4,2.6,1,3.4s1.7,1.2,3,1.2c0.6,0,1.3-0.1,1.8-0.4s1.2-0.6,1.7-1v1.5c-0.5,0.4-1.2,0.6-1.7,0.8c-0.5,0.1-1.3,0.3-1.9,0.3
			c-1.7,0-3.1-0.5-4-1.5c-0.9-1-1.5-2.3-1.5-4.1s0.5-3.2,1.4-4.3c0.9-1,2.3-1.5,4-1.5c0.6,0,1.3,0.1,1.9,0.3
			C14,83.2,14.6,83.5,15.2,83.8z"/>
		<path class="st2" d="M26,83.8v1.5c-0.5-0.5-1-0.8-1.7-1c-0.6-0.3-1.2-0.4-1.8-0.4c-1.3,0-2.3,0.4-3,1.2s-1,1.9-1,3.5
			c0,1.5,0.4,2.6,1,3.4s1.7,1.2,3,1.2c0.6,0,1.3-0.1,1.8-0.4s1.2-0.6,1.7-1v1.5c-0.5,0.4-1.2,0.6-1.7,0.8c-0.5,0.1-1.3,0.3-1.9,0.3
			c-1.7,0-3.1-0.5-4-1.5S17,90.3,17,88.5s0.5-3.2,1.4-4.3c1-1,2.3-1.5,4-1.5c0.6,0,1.3,0.1,1.9,0.3C25,83.1,25.5,83.5,26,83.8z"/>
	</g>
</g>
<g id="Layer_2_2_" class="st3">
	<text transform="matrix(1 0 0 1 5.375 94.2917)" class="st7 st8 st9">CC</text>
</g>
</svg>
