<?xml version="1.0" encoding="utf-8"?>
<!-- Generator: Adobe Illustrator 21.0.0, SVG Export Plug-In . SVG Version: 6.00 Build 0)  -->
<svg version="1.1" id="Layer_1" xmlns="http://www.w3.org/2000/svg" xmlns:xlink="http://www.w3.org/1999/xlink" x="0px" y="0px"
	 viewBox="0 0 100 100" style="enable-background:new 0 0 100 100;" xml:space="preserve">
<style type="text/css">
	.st0{fill:none;}
	.st1{fill:#FFFFFF;}
	.st2{display:none;}
	.st3{display:inline;}
	.st4{font-family:'Helvetica';}
	.st5{font-size:10.385px;}
</style>
<g id="Layer_1_1_">
	<g id="Layer_2">
	</g>
	<g>
		<g>
			<rect x="0.9" y="0.9" class="st0" width="98.2" height="98.2"/>
			<path class="st1" d="M100,100H0V0h100V100z M1.8,98.2h96.4V1.8H1.8V98.2z"/>
		</g>
		<g>
			<polygon class="st1" points="50.3,75.8 23.2,28.5 24.8,27.6 50.3,72.2 75.2,27.6 76.8,28.4 			"/>
		</g>
		<g>
			<rect x="24" y="49.1" class="st1" width="52" height="1.8"/>
		</g>
	</g>
</g>
<g id="Layer_2_1_" class="st2">
	<text transform="matrix(1 0 0 1 5.0005 95.8096)" class="st3 st4 st5">PI</text>
</g>
<g>
	<path class="st1" d="M15.2,83.9v1.5c-0.5-0.5-1-0.8-1.7-1c-0.6-0.3-1.2-0.4-1.8-0.4c-1.3,0-2.3,0.4-3,1.2s-1,1.9-1,3.5
		s0.4,2.6,1,3.4c0.6,0.8,1.7,1.2,3,1.2c0.6,0,1.3-0.1,1.8-0.4s1.2-0.6,1.7-1v1.5c-0.5,0.4-1.2,0.6-1.7,0.8s-1.3,0.3-1.9,0.3
		c-1.7,0-3.1-0.5-4-1.5S6,90.4,6,88.6s0.5-3.2,1.4-4.3s2.3-1.5,4-1.5c0.6,0,1.3,0.1,1.9,0.3C14,83.2,14.6,83.5,15.2,83.9z"/>
	<path class="st1" d="M17.5,82.9h3.1c2.2,0,3.7,0.5,4.8,1.4c1,0.9,1.5,2.3,1.5,4.3s-0.5,3.4-1.5,4.3s-2.6,1.4-4.8,1.4h-3.1
		L17.5,82.9L17.5,82.9z M19,84.2V93h1.8c1.5,0,2.7-0.4,3.5-1s1-1.8,1-3.4s-0.4-2.6-1-3.4s-1.8-1-3.5-1L19,84.2L19,84.2z"/>
</g>
</svg>
