<?xml version="1.0" encoding="utf-8"?>
<!-- Generator: Adobe Illustrator 21.0.0, SVG Export Plug-In . SVG Version: 6.00 Build 0)  -->
<svg version="1.1" id="Layer_1" xmlns="http://www.w3.org/2000/svg" xmlns:xlink="http://www.w3.org/1999/xlink" x="0px" y="0px"
	 viewBox="0 0 100 100" style="enable-background:new 0 0 100 100;" xml:space="preserve">
<style type="text/css">
	.st0{fill:#3DD83D;}
	.st1{fill:#288C28;}
</style>
<g id="Layer_1_1_">
	<g id="Layer_2">
	</g>
	<g>
		<g>
			<rect x="0.9" y="0.9" class="st0" width="98.2" height="98.2"/>
			<path class="st1" d="M100,100H0V0h100V100z M1.8,98.2h96.4V1.8H1.8V98.2z"/>
		</g>
		<g>
			<polygon points="50.3,75.8 23.2,28.5 24.8,27.6 50.3,72.2 75.2,27.6 76.8,28.4 			"/>
		</g>
		<g>
			<rect x="24" y="49.1" width="52" height="1.8"/>
		</g>
	</g>
</g>
<g>
	<path d="M6.6,83.1H13v1.3H8.1v3.3h4.4v1.3H8.1v5.3H6.6V83.1z"/>
	<path d="M20.7,89c0.3,0.1,0.6,0.3,0.9,0.7c0.3,0.4,0.6,0.9,0.9,1.5l1.5,3.1h-1.6L21,91.4c-0.4-0.7-0.7-1.2-1.1-1.5
		c-0.3-0.2-0.8-0.4-1.4-0.4h-1.6v4.7h-1.5V83.1h3.4c1.3,0,2.2,0.3,2.9,0.8c0.6,0.5,0.9,1.3,0.9,2.4c0,0.7-0.2,1.3-0.5,1.8
		C21.8,88.5,21.3,88.9,20.7,89z M16.9,84.3v4h1.9c0.7,0,1.3-0.2,1.7-0.5S21,87,21,86.3c0-0.7-0.2-1.1-0.6-1.5s-0.9-0.5-1.7-0.5
		L16.9,84.3L16.9,84.3z"/>
</g>
</svg>
