<?xml version="1.0" encoding="utf-8"?>
<!-- Generator: Adobe Illustrator 21.0.0, SVG Export Plug-In . SVG Version: 6.00 Build 0)  -->
<svg version="1.1" id="Layer_1" xmlns="http://www.w3.org/2000/svg" xmlns:xlink="http://www.w3.org/1999/xlink" x="0px" y="0px"
	 viewBox="0 0 100 100" style="enable-background:new 0 0 100 100;" xml:space="preserve">
<style type="text/css">
	.st0{fill:#FC0D1B;}
	.st1{fill:#960810;}
	.st2{fill:#FFFFFF;}
</style>
<g id="Layer_1_1_">
	<g id="Layer_2">
	</g>
	<g>
		<g>
			<rect x="0.9" y="0.9" class="st0" width="98.2" height="98.2"/>
			<path class="st1" d="M100,100H0V0h100V100z M1.8,98.2h96.4V1.8H1.8V98.2z"/>
		</g>
		<g>
			<polygon class="st2" points="50.3,75.8 23.2,28.5 24.8,27.6 50.3,72.2 75.2,27.6 76.8,28.4 			"/>
		</g>
		<g>
			<rect x="24" y="49.1" class="st2" width="52" height="1.8"/>
		</g>
	</g>
</g>
<g>
	<path class="st2" d="M6.6,82.9H13v1.3H8v3.4h4.5v1.3H8v5.4H6.6V82.9z"/>
	<path class="st2" d="M20.8,89c0.4,0.1,0.6,0.4,0.9,0.8s0.6,0.9,0.9,1.5l1.5,3.1h-1.5l-1.4-3.1c-0.4-0.8-0.8-1.3-1-1.5
		c-0.3-0.3-0.8-0.4-1.4-0.4H17v4.8h-1.5V82.9H19c1.3,0,2.2,0.3,2.8,0.8c0.6,0.5,0.9,1.3,0.9,2.5c0,0.8-0.1,1.3-0.5,1.8
		C21.8,88.5,21.4,88.9,20.8,89z M16.9,84.2v4h1.9c0.8,0,1.3-0.1,1.7-0.5s0.5-0.9,0.5-1.5s-0.1-1.2-0.5-1.5c-0.4-0.4-0.9-0.5-1.7-0.5
		L16.9,84.2L16.9,84.2z"/>
</g>
</svg>
