<?xml version="1.0" encoding="utf-8"?>
<!-- Generator: Adobe Illustrator 21.0.0, SVG Export Plug-In . SVG Version: 6.00 Build 0)  -->
<svg version="1.1" id="Layer_1" xmlns="http://www.w3.org/2000/svg" xmlns:xlink="http://www.w3.org/1999/xlink" x="0px" y="0px"
	 viewBox="0 0 100 100" style="enable-background:new 0 0 100 100;" xml:space="preserve">
<style type="text/css">
	.st0{fill:none;}
	.st1{display:none;}
	.st2{display:inline;}
	.st3{font-family:'Helvetica';}
	.st4{font-size:10.385px;}
</style>
<g id="Layer_1_1_">
	<g id="Layer_2">
	</g>
	<g>
		<g>
			<rect x="0.9" y="0.9" class="st0" width="98.2" height="98.2"/>
			<path d="M100,100H0V0h100V100z M1.8,98.2h96.4V1.8H1.8V98.2z"/>
		</g>
		<g>
			<polygon points="50.3,75.8 23.2,28.5 24.8,27.6 50.3,72.2 75.2,27.6 76.8,28.4 			"/>
		</g>
		<g>
			<rect x="24" y="49.1" width="52" height="1.8"/>
		</g>
	</g>
</g>
<g id="Layer_2_1_" class="st1">
	<text transform="matrix(1 0 0 1 5.0005 95.8096)" class="st2 st3 st4">PI</text>
</g>
<g>
	<path d="M6.6,79.6h4.5c1.6,0,2.9,0.4,3.7,1.1c0.8,0.7,1.3,1.8,1.3,3.2c0,1.4-0.4,2.5-1.3,3.3c-0.8,0.7-2.1,1.1-3.7,1.1H8.6v5.9h-2
		V79.6z M8.6,81.2v5.5h2.5c0.9,0,1.6-0.2,2.1-0.7s0.8-1.2,0.8-2c0-0.9-0.3-1.5-0.8-2c-0.5-0.5-1.2-0.7-2.1-0.7L8.6,81.2L8.6,81.2z"
		/>
	<path d="M18.7,79.6h2v14.6h-2V79.6z"/>
</g>
</svg>
