<?xml version="1.0" encoding="utf-8"?>
<!-- Generator: Adobe Illustrator 21.0.0, SVG Export Plug-In . SVG Version: 6.00 Build 0)  -->
<svg version="1.1" id="Layer_1" xmlns="http://www.w3.org/2000/svg" xmlns:xlink="http://www.w3.org/1999/xlink" x="0px" y="0px"
	 viewBox="0 0 100 100" style="enable-background:new 0 0 100 100;" xml:space="preserve">
<style type="text/css">
	.st0{fill:#3DD83D;}
	.st1{fill:#288C28;}
	.st2{enable-background:new    ;}
</style>
<g id="Layer_1_1_">
	<g id="Layer_2">
	</g>
	<g>
		<g>
			<rect x="0.9" y="0.9" class="st0" width="98.2" height="98.2"/>
			<path class="st1" d="M100,100H0V0h100V100z M1.8,98.2h96.4V1.8H1.8V98.2z"/>
		</g>
		<g>
			<polygon points="50.3,75.8 23.2,28.5 24.8,27.6 50.3,72.2 75.2,27.6 76.8,28.4 			"/>
		</g>
		<g>
			<rect x="24" y="49.1" width="52" height="1.8"/>
		</g>
	</g>
</g>
<g id="Layer_2_2_">
	<g class="st2">
		<path d="M11.9,89c0.4,0.1,0.6,0.4,0.9,0.8c0.3,0.4,0.6,0.9,0.9,1.5l1.5,3.1h-1.7l-1.3-3.1c-0.4-0.8-0.8-1.3-1-1.5
			c-0.3-0.3-0.9-0.3-1.5-0.3H8v4.8H6.6V83h3.5c1.3,0,2.2,0.3,2.8,0.8c0.6,0.5,0.9,1.3,0.9,2.5c0,0.8-0.1,1.3-0.5,1.8
			S12.5,88.9,11.9,89z M8,84.2v4H10c0.8,0,1.3-0.1,1.7-0.5s0.5-0.9,0.5-1.5S12,85,11.6,84.6c-0.4-0.4-0.9-0.5-1.7-0.5L8,84.2L8,84.2
			z"/>
		<path d="M25,92.6v-3h-2.5v-1.3h3.9v4.9c-0.6,0.4-1.3,0.8-1.9,0.9s-1.4,0.3-2.3,0.3c-1.8,0-3.1-0.5-4.1-1.5s-1.5-2.5-1.5-4.3
			s0.5-3.2,1.5-4.3s2.3-1.5,4.1-1.5c0.8,0,1.4,0.1,2.1,0.3c0.6,0.1,1.3,0.4,1.8,0.8v1.7c-0.5-0.5-1.2-0.9-1.8-1s-1.3-0.4-2.1-0.4
			c-1.4,0-2.5,0.4-3.1,1.2s-1,1.9-1,3.5s0.4,2.7,1,3.5s1.7,1.2,3.1,1.2c0.5,0,1,0,1.4-0.1C24,93.1,24.7,92.9,25,92.6z"/>
		<path d="M32.1,82.9h1.7l4.3,11.2h-1.5l-0.9-2.8h-5l-1,2.8H28L32.1,82.9z M33,84.5L31,90.1h4.1L33,84.5z"/>
	</g>
</g>
</svg>
