<?xml version="1.0" encoding="utf-8"?>
<!-- Generator: Adobe Illustrator 21.0.0, SVG Export Plug-In . SVG Version: 6.00 Build 0)  -->
<svg version="1.1" id="Layer_1" xmlns="http://www.w3.org/2000/svg" xmlns:xlink="http://www.w3.org/1999/xlink" x="0px" y="0px"
	 viewBox="0 0 100 100" style="enable-background:new 0 0 100 100;" xml:space="preserve">
<style type="text/css">
	.st0{fill:#FC0D1B;}
	.st1{fill:#960810;}
	.st2{fill:#FFFFFF;}
	.st3{enable-background:new    ;}
</style>
<g id="Layer_1_1_">
	<g id="Layer_2">
	</g>
	<g>
		<g>
			<rect x="0.9" y="0.9" class="st0" width="98.2" height="98.2"/>
			<path class="st1" d="M100,100H0V0h100V100z M1.8,98.2h96.4V1.8H1.8V98.2z"/>
		</g>
		<g>
			<polygon class="st2" points="50.3,75.8 23.2,28.5 24.8,27.6 50.3,72.2 75.2,27.6 76.8,28.4 			"/>
		</g>
		<g>
			<rect x="24" y="49.1" class="st2" width="52" height="1.8"/>
		</g>
	</g>
</g>
<g id="Layer_2_2_">
	<g class="st3">
		<path class="st2" d="M11.9,89c0.3,0.1,0.6,0.3,1,0.7c0.3,0.4,0.6,0.9,0.9,1.5l1.5,3.1h-1.6l-1.4-2.9c-0.4-0.8-0.7-1.3-1.1-1.5
			c-0.4-0.2-0.8-0.4-1.4-0.4H8.1v4.8H6.6V83H10c1.3,0,2.3,0.3,2.9,0.8s1,1.4,1,2.4c0,0.7-0.2,1.3-0.5,1.8S12.5,88.8,11.9,89z
			 M8.1,84.2v4H10c0.7,0,1.3-0.2,1.7-0.5s0.6-0.8,0.6-1.5S12,85,11.7,84.7c-0.4-0.3-0.9-0.5-1.7-0.5L8.1,84.2L8.1,84.2z"/>
		<path class="st2" d="M25,92.6v-3h-2.5v-1.3h4v4.8c-0.6,0.4-1.2,0.7-2,0.9c-0.7,0.2-1.5,0.3-2.3,0.3c-1.8,0-3.1-0.5-4.1-1.5
			c-1-1-1.5-2.5-1.5-4.3c0-1.8,0.5-3.3,1.5-4.3c1-1,2.4-1.5,4.1-1.5c0.7,0,1.4,0.1,2.1,0.3c0.7,0.2,1.3,0.4,1.8,0.8v1.6
			c-0.6-0.5-1.2-0.8-1.8-1.1c-0.6-0.2-1.3-0.4-2-0.4c-1.4,0-2.4,0.4-3.1,1.2s-1,1.9-1,3.4c0,1.5,0.3,2.7,1,3.4s1.7,1.2,3.1,1.2
			c0.5,0,1,0,1.4-0.1C24.3,93,24.7,92.8,25,92.6z"/>
		<path class="st2" d="M32.2,83h1.7l4.3,11.3h-1.6l-1-2.9h-5.1l-1,2.9h-1.6L32.2,83z M33.1,84.5L31,90.1h4.2L33.1,84.5z"/>
	</g>
</g>
</svg>
