<?xml version="1.0" encoding="utf-8"?>
<!-- Generator: Adobe Illustrator 21.0.0, SVG Export Plug-In . SVG Version: 6.00 Build 0)  -->
<svg version="1.1" id="Layer_1" xmlns="http://www.w3.org/2000/svg" xmlns:xlink="http://www.w3.org/1999/xlink" x="0px" y="0px"
	 viewBox="0 0 100 100" style="enable-background:new 0 0 100 100;" xml:space="preserve">
<style type="text/css">
	.st0{fill:none;}
	.st1{fill:#FFFFFF;}
	.st2{enable-background:new    ;}
</style>
<g id="Layer_1_1_">
	<g id="Layer_2">
	</g>
	<g>
		<g>
			<rect x="0.9" y="0.9" class="st0" width="98.2" height="98.2"/>
			<path class="st1" d="M100,100H0V0h100V100z M1.8,98.2h96.4V1.8H1.8V98.2z"/>
		</g>
		<g>
			<polygon class="st1" points="50.3,75.8 23.2,28.5 24.8,27.6 50.3,72.2 75.2,27.6 76.8,28.4 			"/>
		</g>
		<g>
			<rect x="24" y="49.1" class="st1" width="52" height="1.8"/>
		</g>
	</g>
</g>
<g id="Layer_2_2_">
	<g class="st2">
		<path class="st1" d="M13.4,83.3v1.5c-0.6-0.3-1.1-0.5-1.6-0.6c-0.5-0.1-1-0.2-1.5-0.2c-0.8,0-1.5,0.2-1.9,0.5
			c-0.4,0.3-0.7,0.8-0.7,1.4c0,0.5,0.2,0.9,0.5,1.1s0.9,0.5,1.7,0.6l0.9,0.2c1.1,0.2,2,0.6,2.5,1.1c0.5,0.5,0.8,1.3,0.8,2.2
			c0,1.1-0.4,1.9-1.1,2.5s-1.8,0.8-3.2,0.8c-0.5,0-1.1-0.1-1.7-0.2S6.9,94,6.2,93.7v-1.6C6.8,92.5,7.4,92.8,8,93
			c0.6,0.2,1.2,0.3,1.8,0.3c0.9,0,1.5-0.2,2-0.5c0.5-0.3,0.7-0.8,0.7-1.5c0-0.6-0.2-1-0.5-1.3s-0.9-0.5-1.7-0.7l-0.9-0.2
			c-1.1-0.2-2-0.6-2.5-1.1s-0.8-1.2-0.8-2c0-1,0.4-1.8,1.1-2.4c0.7-0.6,1.7-0.9,2.9-0.9c0.5,0,1.1,0,1.6,0.1
			C12.3,83,12.9,83.1,13.4,83.3z"/>
		<path class="st1" d="M21.8,89c0.3,0.1,0.6,0.3,1,0.7c0.3,0.4,0.6,0.9,0.9,1.5l1.5,3.1h-1.6l-1.4-2.9c-0.4-0.8-0.7-1.3-1.1-1.5
			c-0.4-0.2-0.8-0.4-1.4-0.4H18v4.8h-1.5V83h3.4c1.3,0,2.3,0.3,2.9,0.8s1,1.4,1,2.4c0,0.7-0.2,1.3-0.5,1.8
			C23,88.4,22.5,88.8,21.8,89z M18,84.2v4h1.9c0.7,0,1.3-0.2,1.7-0.5s0.6-0.8,0.6-1.5S22,85,21.6,84.7c-0.4-0.3-0.9-0.5-1.7-0.5
			L18,84.2L18,84.2z"/>
	</g>
</g>
</svg>
