<?xml version="1.0" encoding="utf-8"?>
<!-- Generator: Adobe Illustrator 21.0.0, SVG Export Plug-In . SVG Version: 6.00 Build 0)  -->
<svg version="1.1" id="Layer_1" xmlns="http://www.w3.org/2000/svg" xmlns:xlink="http://www.w3.org/1999/xlink" x="0px" y="0px"
	 viewBox="0 0 100 100" style="enable-background:new 0 0 100 100;" xml:space="preserve">
<style type="text/css">
	.st0{fill:#96900A;}
	.st1{fill:#FCF211;}
	.st2{enable-background:new    ;}
</style>
<g id="Layer_1_1_">
	<g id="Layer_2">
	</g>
	<g>
		<g>
			<rect x="0.9" y="0.9" class="st0" width="98.2" height="98.2"/>
			<path class="st1" d="M100,100H0V0h100V100z M1.8,98.2h96.4V1.8H1.8V98.2z"/>
		</g>
		<g>
			<polygon points="50.3,75.8 23.2,28.5 24.8,27.6 50.3,72.2 75.2,27.6 76.8,28.4 			"/>
		</g>
		<g>
			<rect x="24" y="49.1" width="52" height="1.8"/>
		</g>
	</g>
</g>
<g id="Layer_2_2_">
	<g class="st2">
		<path d="M5.3,83h9.5v1.3h-4v10H9.3v-10h-4V83z"/>
		<path d="M23.3,89.2v5.1h-1.4v-5.1c0-0.8-0.2-1.4-0.5-1.8s-0.8-0.6-1.4-0.6c-0.8,0-1.3,0.2-1.8,0.7s-0.6,1.1-0.6,2v4.8h-1.4V82.5
			h1.4v4.6c0.3-0.5,0.7-0.9,1.2-1.1c0.5-0.3,1-0.4,1.6-0.4c1,0,1.7,0.3,2.2,0.9C23.1,87.1,23.3,88,23.3,89.2z"/>
	</g>
</g>
</svg>
