<?xml version="1.0" encoding="utf-8"?>
<!-- Generator: Adobe Illustrator 21.0.0, SVG Export Plug-In . SVG Version: 6.00 Build 0)  -->
<svg version="1.1" id="Layer_1" xmlns="http://www.w3.org/2000/svg" xmlns:xlink="http://www.w3.org/1999/xlink" x="0px" y="0px"
	 viewBox="0 0 100 100" style="enable-background:new 0 0 100 100;" xml:space="preserve">
<style type="text/css">
	.st0{fill:#960810;}
	.st1{fill:#FC0D1B;}
	.st2{fill:none;stroke:#960810;stroke-width:2.7;stroke-miterlimit:10;}
	.st3{fill:none;stroke:#960810;stroke-width:2.7;}
</style>
<g>
	<g id="XMLID_1_">
		<g>
			<path class="st0" d="M99.6,21.4v57.3L50,50L99.6,21.4z M96.9,74V26L55.4,50L96.9,74z"/>
			<polygon class="st1" points="96.9,26 96.9,74 55.4,50 			"/>
			<path class="st0" d="M50,50L0.4,78.6V21.4L50,50z M3.1,74l41.5-24L3.1,26V74z"/>
			<polygon class="st1" points="44.6,50 3.1,74 3.1,26 			"/>
		</g>
		<g>
			<polyline class="st2" points="50,50.4 50,50 50,1.4 			"/>
			<polyline class="st2" points="31.4,1.4 50,1.4 68.6,1.4 			"/>
		</g>
	</g>
</g>
<g>
	<line class="st3" x1="33" y1="36.8" x2="62.6" y2="18.2"/>
	<line class="st3" x1="55.5" y1="6.9" x2="69.6" y2="29.4"/>
</g>
</svg>
