<?xml version="1.0" encoding="utf-8"?>
<!-- Generator: Adobe Illustrator 21.0.0, SVG Export Plug-In . SVG Version: 6.00 Build 0)  -->
<svg version="1.1" id="Layer_1" xmlns="http://www.w3.org/2000/svg" xmlns:xlink="http://www.w3.org/1999/xlink" x="0px" y="0px"
	 viewBox="0 0 100 100" style="enable-background:new 0 0 100 100;" xml:space="preserve">
<style type="text/css">
	.st0{display:none;}
	.st1{display:inline;}
	.st2{fill:#FFFFFF;}
	.st3{fill:none;stroke:#A9A9A9;stroke-width:2.7;stroke-miterlimit:10;stroke-dasharray:1.472,1.4721;}
	.st4{fill:none;stroke:#A9A9A9;stroke-width:2.7;stroke-dasharray:1.472,1.4721;}
	.st5{fill:#A9A9A9;}
</style>
<g id="Layer_1_2_" class="st0">
	<g id="Layer_2" class="st1">
	</g>
	<g id="Layer_1_1_" class="st1">
		<g>
			<g>
				<rect x="83.1" y="49.2" width="16.9" height="1.7"/>
			</g>
			<g>
				<path d="M83.9,70.5L48.3,50l35.6-20.5C83.9,29.5,83.9,70.5,83.9,70.5z M51.7,50l30.5,17.6V32.4L51.7,50z"/>
			</g>
		</g>
		<g>
			<rect y="49.2" width="16.9" height="1.7"/>
		</g>
		<g>
			<path d="M16.1,29.5L51.7,50L16.1,70.5V29.5z M17.8,32.4v35.2L48.3,50L17.8,32.4z"/>
		</g>
		<g>
			<rect x="37.2" y="16.1" width="25.5" height="1.7"/>
		</g>
		<g>
			<rect x="49.2" y="16.9" width="1.7" height="33.1"/>
		</g>
	</g>
</g>
<g id="Layer_3" class="st0">
	<g id="Layer_1_3_" class="st1">
		<g>
			<g>
				<rect x="83.1" y="49.2" width="16.9" height="1.7"/>
			</g>
			<g>
				<polygon class="st2" points="50,50 83.1,30.9 83.1,69.1 				"/>
				<path d="M83.9,70.5L48.3,50l35.6-20.5C83.9,29.5,83.9,70.5,83.9,70.5z M51.7,50l30.5,17.6V32.4L51.7,50z"/>
			</g>
		</g>
		<g>
			<rect y="49.2" width="16.9" height="1.7"/>
		</g>
		<g>
			<polygon class="st2" points="50,50 16.9,30.9 16.9,69.1 			"/>
			<path d="M16.1,29.5L51.7,50L16.1,70.5V29.5z M17.8,32.4v35.2L48.3,50L17.8,32.4z"/>
		</g>
		<g>
			<rect x="37.2" y="16.1" width="25.5" height="1.7"/>
		</g>
		<g>
			<rect x="49.2" y="16.9" width="1.7" height="33.1"/>
		</g>
	</g>
	<g class="st1">
		<g>
			<rect x="59.8" y="19.8" transform="matrix(0.8721 -0.4893 0.4893 0.8721 -5.7277 33.1997)" width="1.7" height="15.5"/>
		</g>
		<g>
			<rect x="37.2" y="32.9" transform="matrix(0.8721 -0.4893 0.4893 0.8721 -10.1529 28.6575)" width="25.1" height="1.7"/>
		</g>
	</g>
</g>
<polyline class="st3" points="50,50.4 50,50 50,1.4 "/>
<polyline class="st3" points="31.4,1.4 50,1.4 68.6,1.4 "/>
<g>
	<line class="st4" x1="33" y1="36.8" x2="62.6" y2="18.2"/>
	<line class="st4" x1="55.5" y1="6.9" x2="69.6" y2="29.4"/>
</g>
<g>
	<path class="st5" d="M3.1,27.2H0.4v1.5h2.7L3.1,27.2L3.1,27.2z M3.1,30.2H0.4v1.5h2.7L3.1,30.2L3.1,30.2z M3.1,33.1H0.4v1.5h2.7
		L3.1,33.1L3.1,33.1z M3.1,36.1H0.4v1.5h2.7L3.1,36.1L3.1,36.1z M3.1,39H0.4v1.5h2.7L3.1,39L3.1,39z M3.1,42H0.4v1.5h2.7L3.1,42
		L3.1,42z M3.1,44.9H0.4v1.5h2.7L3.1,44.9L3.1,44.9z M3.1,47.9H0.4v1.5h2.7L3.1,47.9L3.1,47.9z M3.1,50.8H0.4v1.5h2.7L3.1,50.8
		L3.1,50.8z M3.1,53.7H0.4v1.5h2.7L3.1,53.7L3.1,53.7z M3.1,56.7H0.4v1.5h2.7L3.1,56.7L3.1,56.7z M3.1,59.6H0.4v1.5h2.7L3.1,59.6
		L3.1,59.6z M3.1,62.6H0.4V64h2.7L3.1,62.6L3.1,62.6z M3.1,65.5H0.4V67h2.7L3.1,65.5L3.1,65.5z M3.1,68.5H0.4v1.5h2.7L3.1,68.5
		L3.1,68.5z M3.1,71.4H0.4v1.5h2.7L3.1,71.4L3.1,71.4z M3.1,74.4H0.4v1.5h0.2l0.9,1.5H0.4c0,0,0,0.7,0,1.1l0,0v0.3l0,0l0,0l0,0l0,0
		l0,0l0,0l0,0l2.3-1.3l0,0c0.2-0.1,0.3-0.2,0.3-0.2l-0.7-1.3h0.8V74.4L3.1,74.4z M4.3,73.3L3,74l1.3,2.3c0,0,0.3-0.1,0.5-0.3l0,0
		c0,0,0,0,0,0l0,0c0,0,0,0,0,0l0.7-0.4L4.3,73.3L4.3,73.3z M6.8,71.8l-1.3,0.7l1.3,2.3c0,0,0.2-0.1,0.5-0.3l0,0c0,0,0,0,0,0l0,0
		c0,0,0,0,0,0l0,0l0,0l0,0c0,0,0,0,0,0l0.7-0.4L6.8,71.8L6.8,71.8z M9.4,70.3l-1.3,0.7l1.4,2.3l1-0.6l0,0l0,0c0,0,0,0,0,0h0
		c0.2-0.1,0.3-0.2,0.3-0.2L9.4,70.3L9.4,70.3z M11.9,68.9l-1.3,0.7l1.4,2.3l1.3-0.7L11.9,68.9L11.9,68.9z M14.5,67.4l-1.3,0.7
		l1.4,2.3l1.3-0.7L14.5,67.4L14.5,67.4z M17,65.9l-1.3,0.7l1.4,2.3c0,0,0.3-0.2,0.6-0.4l0,0c0,0,0,0,0,0l0.6-0.4L17,65.9L17,65.9z
		 M19.6,64.5l-1.3,0.7l1.4,2.3c0,0,0.5-0.3,0.8-0.5l0,0c0,0,0,0,0,0l0,0c0,0,0,0,0,0l0.4-0.2L19.6,64.5L19.6,64.5z M22.1,63
		l-1.3,0.7l1.4,2.3l0.8-0.5c0,0,0,0,0,0h0c0,0,0,0,0,0l0,0c0.2-0.1,0.4-0.2,0.4-0.2L22.1,63L22.1,63z M24.7,61.5L23.9,62l-0.5,0.3
		l1.4,2.3l0.4-0.3l0,0l0,0c0,0,0,0,0,0l0,0c0,0,0,0,0,0l0,0l0,0h0c0,0,0,0,0,0l0,0c0,0,0,0,0,0l0,0c0,0,0,0,0,0l0,0c0,0,0,0,0,0l0,0
		l0,0c0,0,0,0,0,0l0,0c0,0,0.1,0,0.1-0.1h0c0,0,0,0,0.1,0l0,0c0,0,0,0,0,0l0,0c0,0,0,0,0,0l0,0c0,0,0,0,0,0h0c0,0,0,0,0,0l0,0
		c0,0,0,0,0,0l0,0c0,0,0,0,0,0l0,0c0,0,0,0,0,0h0c0,0,0,0,0,0h0c0,0,0,0,0,0l0,0l0,0l0,0l0,0l0,0c0,0,0,0,0,0l0,0c0,0,0,0,0,0l0,0
		c0,0,0,0,0,0l0,0c0,0,0,0,0,0l0,0c0,0,0,0,0,0l0,0c0,0,0,0,0,0l0,0c0,0,0,0,0,0l0,0c0,0,0,0,0,0l0,0c0,0,0,0,0,0l0,0c0,0,0,0,0,0
		l0,0c0,0,0,0,0,0l0,0c0,0,0,0,0,0l0,0c0,0,0,0,0,0l0,0c0,0,0,0,0,0l0,0c0,0,0,0,0,0l0,0c0,0,0,0,0,0l0,0c0,0,0,0,0,0l0,0
		c0,0,0,0,0,0l0,0c0,0,0,0,0,0l0,0c0,0,0,0,0,0l0,0l0,0l0,0c0,0,0,0,0,0l0,0c0,0,0,0,0,0l0,0l0,0h0c0,0,0,0,0,0l0,0c0,0,0,0,0,0l0,0
		h0l0,0c0,0,0,0,0,0l0,0c0,0,0,0,0,0l0,0c0,0,0,0,0,0l0,0c0,0,0,0,0,0h0c0,0,0,0,0,0l0,0c0,0,0,0,0,0l0,0l0,0l0,0c0,0,0,0,0,0l0,0
		c0,0,0,0,0,0l0,0c0,0,0,0,0,0l0,0c0,0,0,0,0,0l0,0l0,0h0c0,0,0,0,0,0l0,0c0,0,0,0,0,0l0,0c0,0,0,0,0,0l0,0c0,0,0,0,0,0l0,0
		c0,0,0,0,0,0h0c0,0,0,0,0,0h0c0,0,0,0,0,0l0,0c0,0,0,0,0,0h0l0,0l0,0c0,0,0,0,0,0l0,0l0,0l0,0c0,0,0,0,0,0l0,0c0,0,0,0,0,0l0,0h0
		l0,0c0,0,0,0,0,0l0,0c0,0,0,0,0,0l0,0l0,0l0,0l0,0l0,0l0,0l0,0l0,0l0,0c0,0,0,0,0,0l0,0l0,0l0,0c0,0,0,0,0,0h0c0,0,0,0,0,0l0.1,0
		l0,0l0,0l0,0l0,0l0,0l0,0L24.7,61.5L24.7,61.5z M27.2,60l-1.3,0.7l1.4,2.3l1.3-0.7L27.2,60L27.2,60z M29.8,58.6l-1.3,0.7l1.4,2.3
		l1.3-0.7L29.8,58.6L29.8,58.6z M32.3,57.1L31,57.8l1.4,2.3c0,0,0.8-0.5,1.2-0.7l0,0c0,0,0,0,0,0l0,0c0,0,0,0,0,0h0c0,0,0,0,0,0l0,0
		l0,0l0,0c0,0,0,0,0,0l0,0c0,0,0,0,0,0l0,0c0,0,0,0,0,0h0l0,0l0,0l0,0l0,0l0,0l0,0L32.3,57.1L32.3,57.1z M34.9,55.6l-1.3,0.7
		l1.3,2.3l1.3-0.7L34.9,55.6L34.9,55.6z M37.4,54.2l-1.3,0.7l1.3,2.3l0.4-0.3c0,0,0,0,0,0l0,0c0,0,0,0,0,0l0,0c0,0,0,0,0,0l0,0
		c0,0,0,0,0,0l0,0c0,0,0,0,0,0l0,0c0,0,0,0,0,0l0,0c0,0,0,0,0,0h0c0,0,0,0,0,0l0,0c0,0,0,0,0,0l0,0c0,0,0,0,0,0l0,0c0,0,0,0,0,0l0,0
		c0,0,0,0,0,0l0,0c0,0,0,0,0,0l0,0c0,0,0,0,0,0l0,0c0,0,0,0,0,0l0,0c0.3-0.2,0.6-0.4,0.6-0.4L37.4,54.2L37.4,54.2z M40,52.7
		l-1.3,0.7l1.3,2.3l1.3-0.7L40,52.7L40,52.7z M42.5,51.2l-1.3,0.7l1.3,2.3c0,0,0.1,0,0.2-0.1l0,0c0,0,0,0,0,0l0,0c0,0,0,0,0,0h0
		c0,0,0,0,0,0l1.1-0.6L42.5,51.2L42.5,51.2z M45.9,47.7L44.6,50l0,0l-0.8,0.5l1.3,2.3l1.3-0.7l-0.9-1.6l0.4,0.2l0.7-1.3l0.8,1.5
		l-0.3,0.5l0.2,0.1l2.2-1.3l0.2-0.4l0,0l0,0l0,0c0,0,0,0,0,0l0,0l0,0l-1.2-0.7l-0.2,0.3l-0.4-0.7l-0.6-0.4l-0.2,0.1l0.1-0.1
		L45.9,47.7L45.9,47.7z M43.4,46.2L42,48.5l1.3,0.7l1.3-2.3l-0.4-0.2c0,0,0,0,0,0l0,0c0,0,0,0,0,0l0,0l0,0l0,0c0,0,0,0,0,0h0
		c0,0,0,0,0,0l0,0c0,0,0,0,0,0l0,0C43.9,46.5,43.4,46.2,43.4,46.2L43.4,46.2z M40.8,44.7l-1.3,2.3l1.3,0.7l1.3-2.3
		c0,0-0.7-0.4-1.1-0.6l0,0c0,0,0,0,0,0L40.8,44.7L40.8,44.7z M38.3,43.2l-1.3,2.3l1.3,0.7l1.3-2.3L38.3,43.2L38.3,43.2z M35.7,41.8
		l-1.3,2.3l1.3,0.7l1.3-2.3L35.7,41.8L35.7,41.8z M33.2,40.3l-1.4,2.3l1.3,0.7l1.3-2.3l-0.6-0.3c0,0,0,0,0,0l0,0c0,0,0,0,0,0l0,0
		c0,0,0,0,0,0l0,0c0,0,0,0,0,0l0,0C33.5,40.5,33.2,40.3,33.2,40.3L33.2,40.3z M30.6,38.8l-1.4,2.3l1.3,0.7l1.4-2.3l-0.7-0.4h0l0,0
		c0,0,0,0,0,0l0,0c0,0,0,0,0,0l0,0c0,0,0,0,0,0l0,0c0,0,0,0,0,0l0,0C30.9,39,30.6,38.8,30.6,38.8L30.6,38.8z M28.1,37.4l-1.4,2.3
		l1.3,0.7l1.4-2.3c0,0-0.5-0.3-0.9-0.5l0,0c0,0,0,0,0,0l0,0c0,0,0,0,0,0l0,0l0,0L28.1,37.4L28.1,37.4z M25.5,35.9l-1.4,2.3l1.3,0.7
		l1.4-2.3L25.5,35.9L25.5,35.9z M23,34.4l-1.4,2.3l1.3,0.7l1.4-2.3L23,34.4L23,34.4z M20.5,32.9l-1.4,2.3l1.3,0.7l1.4-2.3L20.5,32.9
		L20.5,32.9z M17.9,31.5l-1.4,2.3l1.3,0.7l1.4-2.3l-1-0.6c0,0,0,0,0,0l0,0l0,0l0,0c0,0,0,0,0,0l0,0C18,31.5,17.9,31.5,17.9,31.5
		L17.9,31.5z M15.4,30L14,32.3l1.3,0.7l1.4-2.3L15.4,30L15.4,30z M12.8,28.5l-1.4,2.3l1.3,0.7l1.4-2.3c0,0-0.5-0.3-0.9-0.5l0,0
		c0,0,0,0,0,0l0,0c0,0,0,0,0,0l0,0c0,0,0,0,0,0l0,0c0,0,0,0,0,0l0,0c0,0,0,0,0,0l0,0c0,0,0,0,0,0l0,0c0,0,0,0,0,0l0,0c0,0,0,0,0,0
		L12.8,28.5L12.8,28.5z M10.3,27l-1.4,2.3l1.3,0.7l1.4-2.3L10.3,27L10.3,27z M7.7,25.6l-1.3,2.3l1.3,0.7L9,26.3l0,0l0,0l0,0l0,0l0,0
		l0,0l0,0l0,0l0,0l0,0l0,0c0,0,0,0,0,0h0c0,0,0,0,0,0l0,0c0,0,0,0,0,0l0,0c0,0,0,0,0,0l0,0c0,0,0,0,0,0l0,0c0,0,0,0,0,0l0,0
		c0,0,0,0,0,0l0,0c0,0,0,0,0,0l0,0l0,0l0,0l0,0l0,0c0,0,0,0,0,0l0,0C8.8,26.2,7.7,25.6,7.7,25.6L7.7,25.6z M5.2,24.1l-1.3,2.3
		l1.3,0.7l1.3-2.3L5.2,24.1L5.2,24.1z M0.4,21.4v2.1l0.4-0.7h1.7l-0.9,1.5H0.4v1.5h2.7v-1.1l0.8-1.3c0,0-0.6-0.3-0.9-0.5l0,0
		L0.4,21.4L0.4,21.4z"/>
</g>
<g>
	<path class="st5" d="M94.5,24.3c0,0-0.6,0.3-0.9,0.5L93.2,25l1.3,2.3l1.3-0.7L94.5,24.3L94.5,24.3z M92,25.8l-1.1,0.6
		c-0.1,0.1-0.2,0.1-0.2,0.1l1.3,2.3l1.3-0.7L92,25.8L92,25.8z M89.4,27.2L89,27.5c-0.4,0.2-0.8,0.5-0.8,0.5l1.3,2.3l1.3-0.7
		L89.4,27.2L89.4,27.2z M86.9,28.7l-1.3,0.7l1.3,2.3l1.3-0.7L86.9,28.7L86.9,28.7z M84.3,30.2c0,0-0.3,0.2-0.6,0.3l0,0c0,0,0,0,0,0
		L83,30.9l1.3,2.3l1.3-0.7L84.3,30.2L84.3,30.2z M81.8,31.7c0,0-0.7,0.4-1.1,0.6l0,0c0,0,0,0,0,0l-0.2,0.1l1.3,2.3l1.3-0.7
		L81.8,31.7L81.8,31.7z M79.2,33.1l-0.9,0.5c-0.2,0.1-0.3,0.2-0.3,0.2l1.3,2.3l1.3-0.7L79.2,33.1L79.2,33.1z M76.7,34.6l-0.3,0.2
		c0,0,0,0,0,0l0,0c-0.4,0.2-1,0.6-1,0.6l1.3,2.3l1.3-0.7L76.7,34.6L76.7,34.6z M74.1,36.1l-1.3,0.7l1.3,2.3l1.3-0.7L74.1,36.1
		L74.1,36.1z M71.6,37.6c0,0-0.5,0.3-0.8,0.5l0,0c0,0,0,0,0,0l0,0c0,0,0,0,0,0l0,0c0,0,0,0,0,0l-0.4,0.2l1.3,2.3l1.3-0.7L71.6,37.6
		L71.6,37.6z M69,39l-1.1,0.6l0,0l0,0l0,0l0,0c0,0,0,0,0,0l0,0c-0.1,0.1-0.2,0.1-0.2,0.1l1.3,2.3l1.3-0.7L69,39L69,39z M66.5,40.5
		l-0.4,0.2c0,0,0,0,0,0l0,0c0,0,0,0,0,0l0,0c0,0,0,0,0,0l0,0c0,0,0,0,0,0l0,0c-0.4,0.2-0.9,0.5-0.9,0.5l1.3,2.3l1.3-0.7L66.5,40.5
		L66.5,40.5z M63.9,42l-1.3,0.7L64,45l1.3-0.7L63.9,42L63.9,42z M61.4,43.4c0,0-0.4,0.3-0.8,0.5l0,0c0,0,0,0,0,0l-0.4,0.3l1.3,2.3
		l1.3-0.7L61.4,43.4L61.4,43.4z M58.8,44.9l-1.1,0.6c0,0,0,0,0,0l0,0h0l0,0c-0.1,0.1-0.2,0.1-0.2,0.1l1.3,2.3l1.3-0.7L58.8,44.9
		L58.8,44.9z M56.3,46.4l-0.4,0.2c0,0,0,0,0,0l0,0c0,0,0,0,0,0l0,0c-0.4,0.2-0.8,0.5-0.8,0.5l1.3,2.3l1.3-0.7L56.3,46.4L56.3,46.4z
		 M53.7,47.9l-1.3,0.7l0.1,0.2l-0.8,1.5l-0.5-0.9c0,0-0.6,0.3-0.9,0.5l0,0L50,50l0,0l0,0l0,0l0,0l0,0l0,0l0,0l0,0l2.3,1.3l0,0
		c0.1,0.1,0.2,0.1,0.3,0.2l0,0c0,0,0,0,0,0l0,0c0,0,0,0,0,0l0,0l0,0l0.1,0l0.7-1.3l0.4,0.7l1.3-0.7L53.7,47.9L53.7,47.9z M55.3,49.9
		l-1.3,2.3c0,0,0.2,0.1,0.5,0.3l0,0c0,0,0,0,0,0l0,0c0,0,0,0,0,0l0.8,0.4l1.3-2.3L55.3,49.9L55.3,49.9z M57.8,51.4l-1.3,2.3l0.2,0.1
		l0,0l0,0c0,0,0,0,0,0l0,0c0.3,0.2,1.1,0.6,1.1,0.6l1.3-2.3L57.8,51.4L57.8,51.4z M60.4,52.9L59,55.2l0.7,0.4c0,0,0,0,0,0l0,0
		c0,0,0,0,0,0l0,0c0,0,0,0,0,0l0,0c0.3,0.2,0.5,0.3,0.5,0.3l1.3-2.3L60.4,52.9L60.4,52.9z M62.9,54.4l-1.3,2.3c0,0,0.6,0.3,1,0.6
		l0,0c0,0,0,0,0,0l0,0c0,0,0,0,0,0l0,0c0,0,0,0,0,0l0,0c0,0,0,0,0,0l0,0l0,0l0.2,0.1l1.3-2.3L62.9,54.4L62.9,54.4z M65.5,55.8
		l-1.3,2.3c0,0,0.2,0.1,0.5,0.3l0,0c0,0,0,0,0,0l0,0c0,0,0,0,0,0l0,0c0,0,0,0,0,0l0,0c0,0,0,0,0,0l0,0c0,0,0,0,0,0l0.7,0.4l1.3-2.3
		L65.5,55.8L65.5,55.8z M68,57.3l-1.3,2.3l0.1,0.1c0,0,0,0,0,0h0c0,0,0,0,0,0h0c0,0,0,0,0,0l0,0c0.3,0.2,1.1,0.7,1.1,0.7l1.3-2.3
		L68,57.3L68,57.3z M70.6,58.8l-1.3,2.3l0.7,0.4c0,0,0,0,0,0h0c0.3,0.2,0.6,0.3,0.6,0.3l1.3-2.3L70.6,58.8L70.6,58.8z M73.1,60.2
		l-1.3,2.3c0,0,0.7,0.4,1.1,0.6l0,0c0,0,0,0,0,0l0,0c0,0,0,0,0,0l0,0c0,0,0,0,0,0l0,0c0,0,0,0,0,0l0,0c0,0,0,0,0,0l0,0c0,0,0,0,0,0
		l0,0c0,0,0,0,0,0h0c0,0,0,0,0,0l0,0c0,0,0,0,0,0h0c0,0,0,0,0,0l0,0c0,0,0,0,0,0l0,0c0,0,0,0,0,0l0,0c0,0,0,0,0,0l0,0h0l0,0l0,0l0,0
		l0,0l0,0c0,0,0,0,0,0l0,0c0,0,0,0,0,0l0,0h0l0,0l0,0l0,0l0,0l0,0c0,0,0,0,0,0h0l0,0l0,0l0,0l0,0l1.3-2.3L73.1,60.2L73.1,60.2z
		 M75.7,61.7l-1.3,2.3l0.5,0.3c0,0,0,0,0,0l0,0c0,0,0,0,0,0l0,0c0,0,0,0,0,0l0,0l0,0l0,0c0,0,0,0,0,0l0,0l0,0l0,0l0,0l0,0l0,0l0,0
		c0,0,0,0,0,0h0l0,0l0.8,0.5l1.3-2.3L76.1,62L75.7,61.7L75.7,61.7z M78.2,63.2l-1.3,2.3l1.3,0.7l1.3-2.3L78.2,63.2L78.2,63.2z
		 M80.8,64.7L79.4,67l0.5,0.3c0.4,0.2,0.7,0.4,0.7,0.4l1.3-2.3L80.8,64.7L80.8,64.7z M83.3,66.1L82,68.5l1.3,0.7l1.3-2.3L83.3,66.1
		L83.3,66.1z M85.9,67.6l-1.3,2.3c0,0,0.6,0.4,1,0.6l0.3,0.1l1.3-2.3L85.9,67.6L85.9,67.6z M88.4,69.1l-1.3,2.3c0,0,0.2,0.1,0.4,0.2
		h0c0,0,0,0,0,0l0.9,0.5l1.3-2.3L88.4,69.1L88.4,69.1z M91,70.5l-1.3,2.3l0.2,0.1c0,0,0,0,0,0l0,0c0.3,0.2,1.1,0.6,1.1,0.6l1.3-2.3
		L91,70.5L91,70.5z M93.5,72l-1.3,2.3l0.6,0.4c0.3,0.2,0.6,0.4,0.6,0.4l1.3-2.3L93.5,72L93.5,72z M96.1,73.5l-1.3,2.3l1.3,0.7
		l0.9-1.5v0.4h1.5l-0.8,1.5h-0.6v0.2l2.2,1.3h0.5v-1.5h-0.4l0.4-0.7v-0.7l-0.2-0.1h0.2V74h-2.7v0L96.1,73.5L96.1,73.5z M99.6,71
		h-2.7v1.5h2.7V71L99.6,71z M99.6,68.1h-2.7v1.5h2.7V68.1L99.6,68.1z M99.6,65.1h-2.7v1.5h2.7V65.1L99.6,65.1z M99.6,62.2h-2.7v1.5
		h2.7V62.2L99.6,62.2z M99.6,59.2h-2.7v1.5h2.7V59.2L99.6,59.2z M99.6,56.3h-2.7v1.5h2.7V56.3L99.6,56.3z M99.6,53.3h-2.7v1.5h2.7
		V53.3L99.6,53.3z M99.6,50.4h-2.7v1.5h2.7V50.4L99.6,50.4z M99.6,47.5h-2.7v1.5h2.7V47.5L99.6,47.5z M99.6,44.5h-2.7V46h2.7V44.5
		L99.6,44.5z M99.6,41.6h-2.7V43h2.7V41.6L99.6,41.6z M99.6,38.6h-2.7v1.5h2.7V38.6L99.6,38.6z M99.6,35.7h-2.7v1.5h2.7V35.7
		L99.6,35.7z M99.6,32.7h-2.7v1.5h2.7V32.7L99.6,32.7z M99.6,29.8h-2.7v1.5h2.7V29.8L99.6,29.8z M99.6,26.8h-2.7v1.5h2.7V26.8
		L99.6,26.8z M99.6,21.4l-1.9,1.1h0.8l0.8,1.5h-1.7l-0.6-1.1c0,0-0.2,0.1-0.5,0.3l-0.8,0.5l1.3,2.3l0.9-0.5h1.6V21.4L99.6,21.4z"/>
</g>
</svg>
