<?xml version="1.0" encoding="utf-8"?>
<!-- Generator: Adobe Illustrator 21.0.0, SVG Export Plug-In . SVG Version: 6.00 Build 0)  -->
<svg version="1.1" id="Layer_1" xmlns="http://www.w3.org/2000/svg" xmlns:xlink="http://www.w3.org/1999/xlink" x="0px" y="0px"
	 viewBox="0 0 100 100" style="enable-background:new 0 0 100 100;" xml:space="preserve">
<style type="text/css">
	.st0{fill:none;stroke:#2F8794;stroke-width:2.7;stroke-miterlimit:10;}
	.st1{fill:none;stroke:#2F8794;stroke-width:2.7;}
	.st2{fill:#4FE4FA;}
	.st3{fill:#2F8794;}
</style>
<g id="Layer_2">
</g>
<g>
	<g id="XMLID_1_">
		<g>
			<line class="st0" x1="50" y1="50.4" x2="50" y2="1.4"/>
			<polyline class="st0" points="31.4,1.4 50,1.4 68.6,1.4 			"/>
		</g>
	</g>
</g>
<g>
	<line class="st1" x1="33" y1="36.8" x2="62.6" y2="18.2"/>
	<line class="st1" x1="55.5" y1="6.9" x2="69.6" y2="29.4"/>
</g>
<g>
	<polygon class="st2" points="1.8,23.7 47.3,50 1.8,76.3 	"/>
	<path class="st3" d="M3.1,26l20.8,12l20.7,12L23.9,62L3.1,74V50V26 M0.4,21.4V50v28.6l24.8-14.3L50,50L25.2,35.7L0.4,21.4L0.4,21.4
		z"/>
</g>
<g>
	<polygon class="st2" points="52.7,50 98.2,23.7 98.2,76.3 	"/>
	<path class="st3" d="M96.9,26v24v24L76.2,62L55.4,50l20.8-12L96.9,26 M99.6,21.4L74.8,35.7L50,50l24.8,14.3l24.8,14.3V50L99.6,21.4
		L99.6,21.4z"/>
</g>
</svg>
