<?xml version="1.0" encoding="utf-8"?>
<!-- Generator: Adobe Illustrator 21.0.0, SVG Export Plug-In . SVG Version: 6.00 Build 0)  -->
<svg version="1.1" id="Layer_1" xmlns="http://www.w3.org/2000/svg" xmlns:xlink="http://www.w3.org/1999/xlink" x="0px" y="0px"
	 viewBox="0 0 100 100" style="enable-background:new 0 0 100 100;" xml:space="preserve">
<style type="text/css">
	.st0{clip-path:url(#SVGID_2_);}
	.st1{fill:none;}
</style>
<g>
	<g>
		<g>
			<defs>
				<circle id="SVGID_1_" cx="50" cy="50" r="50"/>
			</defs>
			<clipPath id="SVGID_2_">
				<use xlink:href="#SVGID_1_"  style="overflow:visible;"/>
			</clipPath>
			<g class="st0">
				<polygon class="st1" points="65.1,50.6 65.1,33.1 50,24.4 34.9,33.1 34.9,50.6 50,59.3 				"/>
				<g>
					<polygon points="91.2,24.3 76.6,82.3 23.3,82.3 8.8,24.4 6.5,24.9 23.6,92.7 25.8,92.2 23.9,84.6 76,84.6 74.1,92.1 76.4,92.6 
						93.4,24.8 					"/>
					<path d="M27.8,55.9l5.3-3.1l-0.3,1l2.2,0.6l0.6-2.1l12.5,7.2l-1.6,1.6l1.6,1.6l0.6-0.6v5.9h2.3V62l0.7,0.7l1.6-1.6l-1.5-1.5
						l12.5-7.2l0.6,2.1l2.2-0.6l-0.3-1l5.2,3l1.1-2l-5.1-3l0.8-0.2l-0.6-2.2l-2.1,0.6V34.6l2.1,0.6L69,33l-0.9-0.2l5.3-3.1l-1.2-2
						l-5.2,3l0.2-0.9L65,29.2l-0.6,2.2l-12.6-7.2l1.6-1.6l-1.6-1.6l-0.7,0.7v-6.1h-2.3v6.1l-0.7-0.7l-1.6,1.6l1.6,1.6l-12.5,7.2
						L35,29.2l-2.2,0.6l0.3,1l-5.3-3.1l-1.1,2l5.2,3L31,33l0.6,2.2l2.1-0.6V49l-2.1-0.6L31,50.7l0.9,0.2l-5.3,3L27.8,55.9z M36,49.9
						V33.7l14-8l14,8.1v16.2l-14,8L36,49.9z"/>
				</g>
			</g>
		</g>
	</g>
</g>
<circle class="st1" cx="50" cy="50" r="49.1"/>
<path d="M50,1.7C23.4,1.7,1.7,23.4,1.7,50S23.4,98.3,50,98.3S98.3,76.6,98.3,50S76.6,1.7,50,1.7z M50,100C22.4,100,0,77.6,0,50
	S22.4,0,50,0s50,22.4,50,50S77.6,100,50,100z"/>
</svg>
