<?xml version="1.0" encoding="utf-8"?>
<!-- Generator: Adobe Illustrator 21.0.0, SVG Export Plug-In . SVG Version: 6.00 Build 0)  -->
<svg version="1.1" id="Layer_1" xmlns="http://www.w3.org/2000/svg" xmlns:xlink="http://www.w3.org/1999/xlink" x="0px" y="0px"
	 viewBox="0 0 100 100" style="enable-background:new 0 0 100 100;" xml:space="preserve">
<style type="text/css">
	.st0{fill:#FC0D1B;}
	.st1{clip-path:url(#SVGID_2_);}
	.st2{fill:#FFFFFF;}
	.st3{fill:none;}
	.st4{fill:#960810;}
</style>
<circle class="st0" cx="50" cy="50" r="49.1"/>
<g>
	<g>
		<defs>
			<circle id="SVGID_1_" cx="50" cy="50" r="50"/>
		</defs>
		<clipPath id="SVGID_2_">
			<use xlink:href="#SVGID_1_"  style="overflow:visible;"/>
		</clipPath>
		<g class="st1">
			<polygon class="st2" points="83.4,71.9 81.1,72.3 82.5,80.2 51.1,48.8 51.1,5.2 55.7,11.8 57.6,10.5 51.1,1.2 51.1,0.6 48.8,0.6 
				48.8,1.3 42.4,10.5 44.3,11.8 48.8,5.3 48.8,48.8 17.6,80.1 18.9,72.4 16.7,72 14.7,82.9 14.3,83.4 15.9,85 16.3,84.6 27.4,82.7 
				27,80.4 19.1,81.8 50,50.9 80.8,81.7 73.1,80.4 72.7,82.6 83.6,84.6 84.1,85 85.7,83.4 85.3,83 			"/>
			
				<rect x="-18.8" y="40.3" transform="matrix(0.2439 -0.9698 0.9698 0.2439 -27.9643 47.0151)" class="st2" width="69.9" height="2.3"/>
			
				<rect x="82.7" y="6.6" transform="matrix(0.9699 -0.2434 0.2434 0.9699 -7.5932 21.6609)" class="st2" width="2.3" height="69.9"/>
		</g>
	</g>
</g>
<line class="st3" x1="50" y1="50" x2="50" y2="0.9"/>
<line class="st3" x1="50" y1="1.6" x2="43.5" y2="10.9"/>
<line class="st3" x1="50" y1="1.6" x2="56.5" y2="10.9"/>
<g>
	<line class="st3" x1="50" y1="49.3" x2="15.3" y2="84.1"/>
	<line class="st3" x1="15.8" y1="83.5" x2="26.9" y2="81.5"/>
	<line class="st3" x1="15.8" y1="83.5" x2="17.8" y2="72.4"/>
</g>
<g>
	<line class="st3" x1="50" y1="49.3" x2="84.7" y2="84.1"/>
	<line class="st3" x1="84.2" y1="83.5" x2="73.1" y2="81.5"/>
	<line class="st3" x1="84.2" y1="83.5" x2="82.2" y2="72.4"/>
</g>
<path class="st4" d="M50,100C22.4,100,0,77.6,0,50S22.4,0,50,0s50,22.4,50,50S77.6,100,50,100z M50,1.7C23.4,1.7,1.7,23.4,1.7,50
	S23.4,98.3,50,98.3S98.3,76.6,98.3,50S76.6,1.7,50,1.7z"/>
</svg>
