<?xml version="1.0" encoding="utf-8"?>
<!-- Generator: Adobe Illustrator 21.0.0, SVG Export Plug-In . SVG Version: 6.00 Build 0)  -->
<svg version="1.1" id="Layer_1" xmlns="http://www.w3.org/2000/svg" xmlns:xlink="http://www.w3.org/1999/xlink" x="0px" y="0px"
	 viewBox="0 0 100 100" style="enable-background:new 0 0 100 100;" xml:space="preserve">
<style type="text/css">
	.st0{fill:#FFFFFF;}
	.st1{fill:url(#SVGID_1_);}
	.st2{fill:url(#SVGID_2_);}
	.st3{fill:url(#SVGID_3_);}
	.st4{fill:url(#SVGID_4_);}
	.st5{fill:none;}
	.st6{clip-path:url(#SVGID_6_);}
</style>
<circle class="st0" cx="50" cy="50" r="50"/>
<g>
	<g>
		
			<linearGradient id="SVGID_1_" gradientUnits="userSpaceOnUse" x1="50" y1="-746.4725" x2="50" y2="-652.7142" gradientTransform="matrix(1 0 0 -1 0 -642.11)">
			<stop  offset="0" style="stop-color:#FFFF00"/>
			<stop  offset="1" style="stop-color:#C70000"/>
		</linearGradient>
		<path class="st1" d="M64.5,12.4c-13.4,3.6-17.2,7-22.3,11.8s-6.6,9.2-8.2,13.3c-1.5,4.1-1.7,9.5-1.3,11.7c-2.6-3-3.4-5.6-3.3-8.2
			c-4.6,6.4-8.7,12.4-9.8,19s0,12.8,0.4,13.7c0.4,0.9,0.8,1.8,0.4,2.2s-2.3-0.4-3.1-1.2c-0.8-0.7-2.1-2-2.1-2
			c1.8,5.3,3.7,9.7,6.1,12.8c2.4,3.1,6.6,7.6,11,9.2s13,3.5,15.8,3.5c2.7,0,13-1.7,14.6-2.3c1.6-0.5,8.3-3.5,10.5-5.3
			c2.3-1.7,6.4-5.5,8.6-9.2c2.2-3.4,3-5.4,3-5.4c-1.9,1.4-7.1,5.6-8.1,6.2c-0.4,0.3-1.3,0.9-1.6,0.7c-0.2-0.2,0.1-0.9,0.5-1.4
			s3.9-3.9,4.3-4.3s4.1-4.8,4-10s-1.4-7.3-2-8.5s-3.2-4.1-3.6-5s-1.1-2.2-1.2-3.1c-0.1-0.9-0.1-3.5,0-3.9c-1.5,0.7-2,0.9-2.7,1.6
			c-0.7,0.7-1.7,1.8-2.1,2.7c-0.8,1.9-1.1,3.8-1.1,5.9c-1.3-6.8-3.4-13.5-5.9-19.9c-1.7-4.4-2.8-7.6-3.1-9.2
			c-0.3-1.5-0.7-4.2-0.6-5.7s1.4-7,2-8.1S64.5,12.4,64.5,12.4z"/>
		
			<linearGradient id="SVGID_2_" gradientUnits="userSpaceOnUse" x1="50.466" y1="-755.5761" x2="50.466" y2="-627.8166" gradientTransform="matrix(1 0 0 -1 0 -642.11)">
			<stop  offset="0" style="stop-color:#FFFF00"/>
			<stop  offset="1" style="stop-color:#E60000"/>
		</linearGradient>
		<path class="st2" d="M55.1,23.3c-1.1,0.1-2.4,1-3.3,1.5c-1.3,0.6-2.6,1.3-3.8,2.1c-2.2,1.4-4.3,3.1-5.9,5.2
			c-2.9,3.8-6.2,10-7.1,14c-0.9,4-1.2,12.6-1.2,13.9c-3.8-3-5.3-6.5-5.2-8.5c-2.3,2.7-4.2,7.1-4.5,11.7s0,13.6,2.5,19.2
			s6.6,10.4,8.1,11.6c1.4,1.2,7.9,4.7,15.3,4.5s15.6-4.9,17.8-7.4s5.2-6.9,6.2-9s2.7-6.8,2.9-9c0.1-2.2-0.1-7-0.2-7.9
			s-0.5-4.9,0.2-8.5c-3.4,2.4-4,3.3-4.8,4.4s-1.6,2.6-1.8,3.5c-0.2,1-0.6,3.6-0.6,3.6s-0.3-2.9-0.4-3.9s-1.7-7.4-3.6-11.5
			S59.1,41,58.3,39.2c-0.9-1.8-3.8-7.2-3.7-10.1c0-1.2,0.2-2.4,0.4-3.6c0.1-0.7,0.5-1.6,0.5-2.3C55.3,23.3,55.2,23.3,55.1,23.3z"/>
		
			<linearGradient id="SVGID_3_" gradientUnits="userSpaceOnUse" x1="48.6428" y1="-743.438" x2="48.6428" y2="-576.5075" gradientTransform="matrix(1 0 0 -1 0 -642.11)">
			<stop  offset="0" style="stop-color:#FFFF00"/>
			<stop  offset="8.610000e-02" style="stop-color:#FDF400"/>
			<stop  offset="0.2371" style="stop-color:#F6D700"/>
			<stop  offset="0.4352" style="stop-color:#ECA700"/>
			<stop  offset="0.6727" style="stop-color:#DD6600"/>
			<stop  offset="0.941" style="stop-color:#CB1300"/>
			<stop  offset="1" style="stop-color:#C70000"/>
		</linearGradient>
		<path class="st3" d="M36.7,56.6c-1.8,3.9-3.9,9.2-4.7,14.4c-0.9,5.1-0.8,11.5,0.9,15c1.6,3.5,4.1,8,8.1,10.2
			c4,2.1,7.8,2.4,10.4,2.3s4.7-0.3,8-2.5c3.3-2.3,5.5-12.2,5.9-15s1-8.8,0-11s-4.2-9.5-5.8-11.8C58,56,52.8,47.8,52.2,46.8
			s-3.1-7.7-2.8-9.9s1.4-4.8,1.4-4.8c-0.1,0.2-0.8,0.4-1,0.5c-0.5,0.3-1,0.6-1.5,1c-2,1.6-4.1,3.8-5.4,6c-1.3,2-2.4,5.2-2.9,7.2
			s-0.8,6.8-0.5,8.5s1,6,1.4,7.6c0.5,1.5,1.2,3,0,3.6s-2-0.4-2.4-1.2s-1.2-4.6-1.6-6C36.8,57.9,36.7,56.6,36.7,56.6z"/>
		
			<linearGradient id="SVGID_4_" gradientUnits="userSpaceOnUse" x1="50.2914" y1="-748.2065" x2="50.2914" y2="-677.5185" gradientTransform="matrix(1 0 0 -1 0 -642.11)">
			<stop  offset="0" style="stop-color:#FFFFFF"/>
			<stop  offset="8.610000e-02" style="stop-color:#FEFDF4"/>
			<stop  offset="0.2371" style="stop-color:#FCF9D7"/>
			<stop  offset="0.4352" style="stop-color:#F7F1A7"/>
			<stop  offset="0.6727" style="stop-color:#F2E766"/>
			<stop  offset="0.941" style="stop-color:#EBDA13"/>
			<stop  offset="1" style="stop-color:#E9D700"/>
		</linearGradient>
		<path class="st4" d="M49.1,50.8c-3.7,5.8-5.6,10.8-6,14.9S43.2,74.4,44,76c0.7,1.5,2.1,3.5,2.1,5.3c0,2.5-2.3,0.1-3.1-1
			c-0.9-1.3-2.5-4.3-2.5-4.7c-1.8,2.1-3.8,6.7-3.4,10.1c0.4,3.4,1.6,6.9,4,9.4c2.3,2.5,5.4,3.3,8.7,3.3c3.4,0,7.6-0.1,10-2.8
			c2.3-2.6,4-7,3.7-10.5c-0.3-3.9-1.1-6-2.2-8c-1.2-2-5.6-6.7-7.6-9.5s-4-6-4.3-8.2s-0.6-3.4-0.5-4.5C48.9,53.7,49.1,50.8,49.1,50.8
			z"/>
	</g>
	<g>
		<g>
			<line class="st5" x1="50" y1="40.3" x2="50" y2="0.7"/>
		</g>
		<g>
			<line class="st5" x1="50" y1="1.5" x2="43.5" y2="10.7"/>
		</g>
		<g>
			<line class="st5" x1="50" y1="1.5" x2="56.5" y2="10.7"/>
		</g>
		<g>
			<g>
				<line class="st5" x1="42.9" y1="56.2" x2="15.3" y2="83.9"/>
			</g>
			<g>
				<line class="st5" x1="15.7" y1="83.4" x2="24.5" y2="81.9"/>
			</g>
			<g>
				<line class="st5" x1="15.7" y1="83.4" x2="17.3" y2="74.6"/>
			</g>
		</g>
		<g>
			<g>
				<line class="st5" x1="57.1" y1="56.2" x2="84.7" y2="83.9"/>
			</g>
			<g>
				<line class="st5" x1="84.3" y1="83.4" x2="75.5" y2="81.9"/>
			</g>
			<g>
				<line class="st5" x1="84.3" y1="83.4" x2="82.7" y2="74.6"/>
			</g>
		</g>
	</g>
</g>
<circle class="st5" cx="50" cy="50" r="49.1"/>
<line class="st5" x1="50" y1="40.4" x2="50" y2="0.9"/>
<line class="st5" x1="50" y1="1.7" x2="43.5" y2="10.9"/>
<line class="st5" x1="50" y1="1.7" x2="56.5" y2="10.9"/>
<g>
	<line class="st5" x1="42.9" y1="56.4" x2="15.3" y2="84.1"/>
	<line class="st5" x1="15.7" y1="83.6" x2="24.5" y2="82.1"/>
	<line class="st5" x1="15.7" y1="83.6" x2="17.3" y2="74.8"/>
</g>
<g>
	<g>
		<g>
			<g>
				<defs>
					<circle id="SVGID_5_" cx="50" cy="50" r="50"/>
				</defs>
				<clipPath id="SVGID_6_">
					<use xlink:href="#SVGID_5_"  style="overflow:visible;"/>
				</clipPath>
				<g class="st6">
					<line class="st5" x1="57.1" y1="56.4" x2="84.7" y2="84.1"/>
					<line class="st5" x1="84.3" y1="83.6" x2="75.5" y2="82.1"/>
					<g>
						<line class="st5" x1="84.3" y1="83.6" x2="82.7" y2="74.8"/>
						<g>
							<rect x="-19" y="40.1" transform="matrix(0.2439 -0.9698 0.9698 0.2439 -27.9637 47.0165)" width="70.3" height="2.7"/>
							<rect x="82.5" y="6.4" transform="matrix(0.9699 -0.2436 0.2436 0.9699 -7.5976 21.6795)" width="2.7" height="70.3"/>
							<polygon points="51.3,1.1 51.3,0.4 48.6,0.4 48.6,1.2 42.1,10.5 44.3,12.1 48.6,5.9 48.6,41 51.3,41 51.3,5.8 55.7,12.1 
								57.9,10.5 							"/>
							<polygon points="42.3,55.1 17.7,79.7 18.6,74.5 16,74 14.4,83 13.9,83.5 14.2,83.8 14.2,83.9 14.3,83.9 15.4,85 15.4,85.1 
								15.5,85 15.8,85.4 16.3,84.9 25.3,83.3 24.8,80.7 19.7,81.6 44.2,57 							"/>
							<polygon points="85.6,83 84,74 81.4,74.5 82.3,79.6 57.7,55.1 55.8,57 80.4,81.6 75.2,80.7 74.7,83.3 83.7,84.9 84.2,85.4 
								84.5,85 84.6,85.1 84.6,85 85.7,83.9 85.7,83.9 85.7,83.8 86.1,83.5 							"/>
						</g>
					</g>
				</g>
			</g>
		</g>
	</g>
</g>
<path d="M50,100C22.4,100,0,77.6,0,50S22.4,0,50,0s50,22.4,50,50S77.6,100,50,100z M50,1.7C23.4,1.7,1.7,23.4,1.7,50
	S23.4,98.3,50,98.3S98.3,76.6,98.3,50S76.6,1.7,50,1.7z"/>
</svg>
