<?xml version="1.0" encoding="utf-8"?>
<!-- Generator: Adobe Illustrator 21.0.0, SVG Export Plug-In . SVG Version: 6.00 Build 0)  -->
<svg version="1.1" id="Layer_1" xmlns="http://www.w3.org/2000/svg" xmlns:xlink="http://www.w3.org/1999/xlink" x="0px" y="0px"
	 viewBox="0 0 100 100" style="enable-background:new 0 0 100 100;" xml:space="preserve">
<style type="text/css">
	.st0{fill:none;}
	.st1{clip-path:url(#SVGID_2_);}
</style>
<circle class="st0" cx="50" cy="50" r="49.1"/>
<line class="st0" x1="50" y1="40.4" x2="50" y2="0.9"/>
<line class="st0" x1="50" y1="1.7" x2="43.5" y2="10.9"/>
<line class="st0" x1="50" y1="1.7" x2="56.5" y2="10.9"/>
<g>
	<line class="st0" x1="42.9" y1="56.4" x2="15.3" y2="84.1"/>
	<line class="st0" x1="15.7" y1="83.6" x2="24.5" y2="82.1"/>
	<line class="st0" x1="15.7" y1="83.6" x2="17.3" y2="74.8"/>
</g>
<g>
	<g>
		<g>
			<g>
				<defs>
					<circle id="SVGID_1_" cx="50" cy="50" r="50"/>
				</defs>
				<clipPath id="SVGID_2_">
					<use xlink:href="#SVGID_1_"  style="overflow:visible;"/>
				</clipPath>
				<g class="st1">
					<line class="st0" x1="57.1" y1="56.4" x2="84.7" y2="84.1"/>
					<line class="st0" x1="84.3" y1="83.6" x2="75.5" y2="82.1"/>
					<g>
						<line class="st0" x1="84.3" y1="83.6" x2="82.7" y2="74.8"/>
						<g>
							<rect x="-19" y="40.1" transform="matrix(0.2439 -0.9698 0.9698 0.2439 -27.9637 47.0165)" width="70.3" height="2.7"/>
							<rect x="82.5" y="6.4" transform="matrix(0.9699 -0.2436 0.2436 0.9699 -7.5976 21.6795)" width="2.7" height="70.3"/>
							<polygon points="51.3,1.1 51.3,0.4 48.6,0.4 48.6,1.2 42.1,10.5 44.3,12.1 48.6,5.9 48.6,41 51.3,41 51.3,5.8 55.7,12.1 
								57.9,10.5 							"/>
							<polygon points="42.3,55.1 17.7,79.7 18.6,74.5 16,74 14.4,83 13.9,83.5 14.2,83.8 14.2,83.9 14.3,83.9 15.4,85 15.4,85.1 
								15.5,85 15.8,85.4 16.3,84.9 25.3,83.3 24.8,80.7 19.7,81.6 44.2,57 							"/>
							<polygon points="85.6,83 84,74 81.4,74.5 82.3,79.6 57.7,55.1 55.8,57 80.4,81.6 75.2,80.7 74.7,83.3 83.7,84.9 84.2,85.4 
								84.5,85 84.6,85.1 84.6,85 85.7,83.9 85.7,83.9 85.7,83.8 86.1,83.5 							"/>
						</g>
					</g>
				</g>
			</g>
		</g>
	</g>
</g>
<path d="M50,100C22.4,100,0,77.6,0,50S22.4,0,50,0s50,22.4,50,50S77.6,100,50,100z M50,1.7C23.4,1.7,1.7,23.4,1.7,50
	S23.4,98.3,50,98.3S98.3,76.6,98.3,50S76.6,1.7,50,1.7z"/>
</svg>
