<?xml version="1.0" encoding="utf-8"?>
<!-- Generator: Adobe Illustrator 21.0.0, SVG Export Plug-In . SVG Version: 6.00 Build 0)  -->
<svg version="1.1" id="Layer_1" xmlns="http://www.w3.org/2000/svg" xmlns:xlink="http://www.w3.org/1999/xlink" x="0px" y="0px"
	 viewBox="0 0 100 100" style="enable-background:new 0 0 100 100;" xml:space="preserve">
<style type="text/css">
	.st0{fill:none;stroke:#000000;stroke-width:2.5;stroke-miterlimit:5;}
	.st1{enable-background:new    ;}
</style>
<line class="st0" x1="50" y1="10.3" x2="50" y2="22.1"/>
<polyline class="st0" points="21.6,19 50,74.4 50,89.7 "/>
<g id="Layer_2_2_">
	<g class="st1">
		<path d="M13.4,83.3v1.5c-0.6-0.3-1.1-0.5-1.6-0.6c-0.5-0.1-1-0.2-1.5-0.2c-0.8,0-1.5,0.2-1.9,0.5c-0.4,0.3-0.7,0.8-0.7,1.4
			c0,0.5,0.2,0.9,0.5,1.1s0.9,0.5,1.7,0.6l0.9,0.2c1.1,0.2,2,0.6,2.5,1.1c0.5,0.5,0.8,1.3,0.8,2.2c0,1.1-0.4,1.9-1.1,2.5
			s-1.8,0.8-3.2,0.8c-0.5,0-1.1-0.1-1.7-0.2S6.9,94,6.2,93.7v-1.6C6.8,92.5,7.4,92.8,8,93c0.6,0.2,1.2,0.3,1.8,0.3
			c0.9,0,1.5-0.2,2-0.5c0.5-0.3,0.7-0.8,0.7-1.5c0-0.6-0.2-1-0.5-1.3s-0.9-0.5-1.7-0.7l-0.9-0.2c-1.1-0.2-2-0.6-2.5-1.1
			s-0.8-1.2-0.8-2c0-1,0.4-1.8,1.1-2.4c0.7-0.6,1.7-0.9,2.9-0.9c0.5,0,1.1,0,1.6,0.1C12.3,83,12.9,83.1,13.4,83.3z"/>
		<path d="M15.5,83H17l2.4,9.5l2.4-9.5h1.7l2.4,9.5l2.4-9.5h1.5l-2.8,11.3H25l-2.4-9.8l-2.4,9.8h-1.9L15.5,83z"/>
	</g>
</g>
<path d="M100,100H0V0h100V100z M1.8,98.2h96.4V1.8H1.8V98.2z"/>
</svg>
