<?xml version="1.0" encoding="utf-8"?>
<!-- Generator: Adobe Illustrator 21.0.0, SVG Export Plug-In . SVG Version: 6.00 Build 0)  -->
<svg version="1.1" id="Layer_1" xmlns="http://www.w3.org/2000/svg" xmlns:xlink="http://www.w3.org/1999/xlink" x="0px" y="0px"
	 viewBox="0 0 100 100" style="enable-background:new 0 0 100 100;" xml:space="preserve">
<style type="text/css">
	.st0{fill:#FC0D1B;}
	.st1{fill:#960810;}
	.st2{fill:none;stroke:#960810;stroke-width:2.7;stroke-miterlimit:10;}
</style>
<g id="Layer_2">
</g>
<g>
	<polygon class="st0" points="1.8,23.7 47.3,50 1.8,76.3 	"/>
	<path class="st1" d="M44.6,50L3.1,74V26L44.6,50 M50,50L0.4,21.4v57.3L50,50L50,50z"/>
</g>
<g>
	<polygon class="st0" points="52.7,50 98.2,23.7 98.2,76.3 	"/>
	<path class="st1" d="M96.9,26V74L55.4,50L96.9,26 M99.6,21.4L50,50l49.6,28.6V21.4L99.6,21.4z"/>
</g>
<line class="st2" x1="50" y1="78.6" x2="50" y2="25.7"/>
<g>
	<path class="st1" d="M55.9,2.7v22H44.1v-22H55.9 M58.6,0H41.4v27.4h17.2L58.6,0L58.6,0z"/>
</g>
</svg>
