<?xml version="1.0" encoding="utf-8"?>
<!-- Generator: Adobe Illustrator 21.0.0, SVG Export Plug-In . SVG Version: 6.00 Build 0)  -->
<svg version="1.1" id="Layer_1" xmlns="http://www.w3.org/2000/svg" xmlns:xlink="http://www.w3.org/1999/xlink" x="0px" y="0px"
	 viewBox="0 0 100 100" style="enable-background:new 0 0 100 100;" xml:space="preserve">
<style type="text/css">
	.st0{display:none;}
	.st1{display:inline;}
	.st2{fill:none;}
	.st3{fill:none;stroke:#A9A9A9;stroke-width:2.7;stroke-miterlimit:10;stroke-dasharray:1.472,1.4721;}
	.st4{fill:#A9A9A9;}
</style>
<g id="Layer_1_2_" class="st0">
	<g id="Layer_2" class="st1">
	</g>
	<g id="Layer_1_1_" class="st1">
		<g>
			<g>
				<rect x="83.1" y="49.1" width="16.9" height="1.7"/>
			</g>
			<g>
				<polygon class="st2" points="49.9,49.9 83,30.8 83,69.1 				"/>
			</g>
			<g>
				<rect x="49" y="83.1" width="1.7" height="16.9"/>
			</g>
			<g>
				<polygon class="st2" points="49.9,49.9 69,83.1 30.7,83.1 				"/>
			</g>
			<g>
				<circle cx="49.9" cy="49.9" r="4.8"/>
			</g>
			<g>
				<rect x="42.1" y="15.9" width="15.6" height="1.7"/>
			</g>
			<g>
				<rect x="49" y="16.7" width="1.7" height="33.2"/>
			</g>
		</g>
	</g>
</g>
<line class="st3" x1="50" y1="50.4" x2="50" y2="1.4"/>
<g>
	<circle class="st4" cx="50" cy="50" r="7.7"/>
</g>
<line class="st3" x1="38.2" y1="1.4" x2="61.8" y2="1.4"/>
<g>
	<path class="st4" d="M94.5,24.3c0,0-0.1,0.1-0.3,0.1l-1,0.6l1.3,2.3l1.3-0.7L94.5,24.3L94.5,24.3z M91.9,25.8l-1.3,0.7l1.3,2.3
		l1.3-0.7L91.9,25.8L91.9,25.8z M89.4,27.3L88.1,28l1.3,2.3l1.3-0.7L89.4,27.3L89.4,27.3z M86.8,28.7c0,0-0.1,0-0.2,0.1l0,0
		c0,0,0,0,0,0l-1.1,0.6l1.3,2.3l1.3-0.7L86.8,28.7L86.8,28.7z M84.3,30.2L83,30.9l1.3,2.3l1.3-0.7L84.3,30.2L84.3,30.2z M81.8,31.7
		c0,0-0.2,0.1-0.5,0.3l-0.8,0.5l1.3,2.3l1.3-0.7L81.8,31.7L81.8,31.7z M79.2,33.1c0,0-0.2,0.1-0.5,0.3l-0.8,0.5l1.3,2.3l1.3-0.7
		L79.2,33.1L79.2,33.1z M76.7,34.6l-1.3,0.7l1.3,2.3L78,37L76.7,34.6L76.7,34.6z M74.1,36.1c0,0-0.2,0.1-0.4,0.2l0,0c0,0,0,0,0,0
		l0,0c0,0,0,0,0,0l-0.8,0.5l1.3,2.3l1.3-0.7L74.1,36.1L74.1,36.1z M71.6,37.6c0,0-0.2,0.1-0.4,0.2h0c0,0,0,0,0,0l0,0c0,0,0,0,0,0
		l0,0c0,0,0,0,0,0l0,0l0,0l0,0c0,0,0,0,0,0l0,0l0,0h0c0,0,0,0,0,0l0,0c0,0,0,0,0,0l-0.8,0.5l1.3,2.3l1.3-0.7L71.6,37.6L71.6,37.6z
		 M69,39l-1.3,0.7l1.3,2.3l1.3-0.7L69,39L69,39z M66.5,40.5c0,0-0.2,0.1-0.4,0.2l0,0c0,0,0,0,0,0l-0.9,0.5l1.3,2.3l1.3-0.7
		L66.5,40.5L66.5,40.5z M63.9,42c0,0-0.1,0.1-0.2,0.1l0,0c0,0,0,0,0,0l0,0c0,0,0,0,0,0l0,0c0,0,0,0,0,0l0,0l0,0l-1,0.6L64,45
		l1.3-0.7L63.9,42L63.9,42z M61.4,43.4l-1.3,0.7l1.3,2.3l1.3-0.7L61.4,43.4L61.4,43.4z M58.8,44.9c0,0-0.2,0.1-0.3,0.2l0,0
		c0,0,0,0,0,0l-0.9,0.5l1.3,2.3l1.3-0.7L58.8,44.9L58.8,44.9z M56.3,46.4c0,0-0.1,0-0.2,0.1l0,0c0,0,0,0,0,0l0,0c0,0,0,0,0,0l0,0
		c0,0,0,0,0,0l0,0l0,0l0,0c0,0,0,0,0,0l0,0l0,0l0,0h0L55,47.1l1.3,2.3l1.3-0.7L56.3,46.4L56.3,46.4z M53.7,47.9l-1.3,0.7l0.1,0.2
		l-0.8,1.5l-0.5-0.9c0,0-0.6,0.3-0.9,0.5l0,0L50,50l0,0l0,0l0,0l0,0l0,0l0,0l0,0l0,0l2.3,1.3l0,0c0.2,0.1,0.4,0.2,0.4,0.2l0.7-1.3
		l0.4,0.7l1.3-0.7L53.7,47.9L53.7,47.9z M55.3,49.9l-1.3,2.3l1.3,0.7l1.3-2.3L55.3,49.9L55.3,49.9z M57.8,51.4l-1.3,2.3l0.4,0.2h0
		l0,0c0.4,0.2,0.9,0.5,0.9,0.5l1.3-2.3L57.8,51.4L57.8,51.4z M60.4,52.9L59,55.2l0.6,0.3l0,0l0,0c0,0,0,0,0,0l0,0c0,0,0,0,0,0l0,0
		c0,0,0,0,0,0l0,0c0,0,0,0,0,0h0c0,0,0,0,0,0l0,0c0,0,0,0,0,0h0c0,0,0,0,0,0l0,0c0,0,0,0,0,0l0,0c0,0,0,0,0,0l0,0c0,0,0,0,0,0l0,0
		c0.3,0.2,0.6,0.4,0.6,0.4l1.3-2.3L60.4,52.9L60.4,52.9z M62.9,54.4l-1.3,2.3l1.3,0.7l1.3-2.3L62.9,54.4L62.9,54.4z M65.5,55.8
		l-1.3,2.3l0.6,0.3c0,0,0,0,0,0l0,0c0,0,0,0,0,0l0,0c0.3,0.2,0.7,0.4,0.7,0.4l1.3-2.3L65.5,55.8L65.5,55.8z M68,57.3l-1.3,2.3
		l1.1,0.7c0,0,0,0,0,0l0,0c0,0,0,0,0,0l0,0c0,0,0,0,0,0l0,0c0,0,0,0,0,0l0,0c0,0,0,0,0,0h0c0,0,0,0,0,0l0,0c0.1,0,0.1,0.1,0.1,0.1
		l1.3-2.3L68,57.3L68,57.3z M70.6,58.8l-1.3,2.3l0.4,0.3l0,0l0,0c0,0,0,0,0,0l0,0c0,0,0,0,0,0l0,0c0,0,0,0,0,0l0,0c0,0,0,0,0,0l0,0
		c0,0,0,0,0,0l0,0c0,0,0,0,0,0h0c0.4,0.2,0.8,0.4,0.8,0.4l1.3-2.3L70.6,58.8L70.6,58.8z M73.1,60.2l-1.3,2.3l0.8,0.5
		c0.3,0.2,0.5,0.3,0.5,0.3l1.3-2.3L73.1,60.2L73.1,60.2z M75.7,61.7l-1.3,2.3l1.3,0.7l1.3-2.3L75.7,61.7L75.7,61.7z M78.2,63.2
		l-1.3,2.3l1.3,0.7l1.3-2.3L78.2,63.2L78.2,63.2z M80.8,64.7L79.4,67c0,0,0.3,0.2,0.6,0.3l0,0c0,0,0,0,0,0l0.7,0.4l1.3-2.3
		L80.8,64.7L80.8,64.7z M83.3,66.1L82,68.5c0,0,0.5,0.3,0.9,0.5l0,0c0,0,0,0,0,0l0.4,0.2l1.3-2.3L83.3,66.1L83.3,66.1z M85.9,67.6
		l-1.3,2.3c0,0,0.2,0.1,0.5,0.3l0,0c0,0,0,0,0,0l0,0c0,0,0,0,0,0l0,0c0,0,0,0,0,0l0,0c0,0,0,0,0,0l0,0c0,0,0,0,0,0l0,0c0,0,0,0,0,0
		l0.7,0.4l1.3-2.3L85.9,67.6L85.9,67.6z M88.4,69.1l-1.3,2.3c0,0,0.2,0.1,0.4,0.2l0.9,0.5l1.3-2.3L88.4,69.1L88.4,69.1z M91,70.5
		l-1.3,2.3c0,0,0.3,0.2,0.6,0.4l0,0l0,0l0.6,0.4l1.3-2.3L91,70.5L91,70.5z M93.5,72l-1.3,2.3l1.3,0.7l1.3-2.3L93.5,72L93.5,72z
		 M96.1,73.5l-1.3,2.3c0,0,0.1,0,0.1,0.1h0c0,0,0,0,0,0l0,0c0,0,0,0,0,0l1.1,0.6l0.9-1.5v0.4h1.5l-0.8,1.5h-0.6v0.2l2.2,1.3h0.5
		v-1.5h-0.4l0.4-0.6v-0.7l-0.2-0.1h0.2v-1.5h-2.7v0L96.1,73.5L96.1,73.5z M99.6,71h-2.7v1.5h2.7V71L99.6,71z M99.6,68.1h-2.7v1.5
		h2.7V68.1L99.6,68.1z M99.6,65.1h-2.7v1.5h2.7V65.1L99.6,65.1z M99.6,62.2h-2.7v1.5h2.7V62.2L99.6,62.2z M99.6,59.2h-2.7v1.5h2.7
		V59.2L99.6,59.2z M99.6,56.3h-2.7v1.5h2.7V56.3L99.6,56.3z M99.6,53.3h-2.7v1.5h2.7V53.3L99.6,53.3z M99.6,50.4h-2.7v1.5h2.7V50.4
		L99.6,50.4z M99.6,47.4h-2.7v1.5h2.7V47.4L99.6,47.4z M99.6,44.5h-2.7V46h2.7V44.5L99.6,44.5z M99.6,41.6h-2.7V43h2.7V41.6
		L99.6,41.6z M99.6,38.6h-2.7v1.5h2.7V38.6L99.6,38.6z M99.6,35.7h-2.7v1.5h2.7V35.7L99.6,35.7z M99.6,32.7h-2.7v1.5h2.7V32.7
		L99.6,32.7z M99.6,29.8h-2.7v1.5h2.7V29.8L99.6,29.8z M99.6,26.8h-2.7v1.5h2.7V26.8L99.6,26.8z M99.6,21.4l-1.8,1.1h0.7l0.8,1.5
		h-1.7l-0.6-1.1l-1.3,0.7l1.3,2.3l1-0.5h1.5L99.6,21.4L99.6,21.4z"/>
</g>
<g>
	<path class="st4" d="M5.5,24.3l-1.3,2.3l1.3,0.7L6.8,25l-1-0.6C5.6,24.4,5.5,24.3,5.5,24.3L5.5,24.3z M8.1,25.8l-1.4,2.3L8,28.9
		l1.3-2.3L8.1,25.8L8.1,25.8z M10.6,27.3l-1.4,2.3l1.3,0.7l1.4-2.3L10.6,27.3L10.6,27.3z M13.1,28.7l-1.4,2.3l1.3,0.7l1.4-2.3
		l-1.1-0.6c0,0,0,0,0,0l0,0C13.2,28.8,13.1,28.7,13.1,28.7L13.1,28.7z M15.7,30.2l-1.4,2.3l1.3,0.7l1.3-2.3L15.7,30.2L15.7,30.2z
		 M18.2,31.7L16.9,34l1.3,0.7l1.4-2.3l-0.8-0.5C18.5,31.8,18.2,31.7,18.2,31.7L18.2,31.7z M20.8,33.1l-1.4,2.3l1.3,0.7l1.4-2.3
		l-0.8-0.5C21,33.3,20.8,33.1,20.8,33.1L20.8,33.1z M23.3,34.6L22,37l1.3,0.7l1.4-2.3L23.3,34.6L23.3,34.6z M25.9,36.1l-1.4,2.3
		l1.3,0.7l1.4-2.3l-0.8-0.5c0,0,0,0,0,0l0,0c0,0,0,0,0,0l0,0C26.1,36.2,25.9,36.1,25.9,36.1L25.9,36.1z M28.4,37.6l-1.4,2.3l1.3,0.7
		l1.4-2.3l-0.8-0.5c0,0,0,0,0,0l0,0c0,0,0,0,0,0h0l0,0l0,0c0,0,0,0,0,0l0,0l0,0l0,0c0,0,0,0,0,0l0,0c0,0,0,0,0,0l0,0c0,0,0,0,0,0h0
		C28.6,37.7,28.4,37.6,28.4,37.6L28.4,37.6z M31,39l-1.4,2.3l1.3,0.7l1.4-2.3L31,39L31,39z M33.5,40.5l-1.3,2.3l1.3,0.7l1.3-2.3
		l-0.9-0.5c0,0,0,0,0,0l0,0C33.7,40.6,33.5,40.5,33.5,40.5L33.5,40.5z M36.1,42l-1.4,2.3L36,45l1.3-2.3l-1-0.6l0,0l0,0c0,0,0,0,0,0
		l0,0c0,0,0,0,0,0l0,0c0,0,0,0,0,0l0,0C36.2,42,36.1,42,36.1,42L36.1,42z M38.6,43.4l-1.3,2.3l1.3,0.7l1.3-2.3L38.6,43.4L38.6,43.4z
		 M41.2,44.9l-1.3,2.3l1.3,0.7l1.3-2.3l-0.9-0.5c0,0,0,0,0,0l0,0C41.3,45,41.2,44.9,41.2,44.9L41.2,44.9z M43.7,46.4l-1.4,2.3
		l1.3,0.7l1.3-2.3l-1.1-0.6h0l0,0l0,0l0,0c0,0,0,0,0,0l0,0l0,0l0,0c0,0,0,0,0,0l0,0c0,0,0,0,0,0l0,0c0,0,0,0,0,0l0,0
		C43.8,46.4,43.7,46.4,43.7,46.4L43.7,46.4z M46.3,47.9l-1.3,2.3l1.3,0.7l0.4-0.7l0.7,1.3c0,0,0.2-0.1,0.4-0.2l0,0L50,50l0,0l0,0
		l0,0l0,0l0,0l0,0l0,0l0,0l-0.2-0.1l0,0c-0.3-0.2-0.9-0.5-0.9-0.5l-0.5,0.9l-0.8-1.5l0.1-0.2L46.3,47.9L46.3,47.9z M44.7,49.9
		l-1.3,0.7l1.3,2.3l1.3-0.7L44.7,49.9L44.7,49.9z M42.2,51.4l-1.3,0.7l1.3,2.3c0,0,0.5-0.3,0.9-0.5l0,0h0l0.4-0.2L42.2,51.4
		L42.2,51.4z M39.6,52.9l-1.3,0.7l1.3,2.3c0,0,0.3-0.2,0.6-0.4l0,0c0,0,0,0,0,0l0,0c0,0,0,0,0,0l0,0c0,0,0,0,0,0l0,0c0,0,0,0,0,0h0
		c0,0,0,0,0,0l0,0c0,0,0,0,0,0h0c0,0,0,0,0,0l0,0c0,0,0,0,0,0l0,0c0,0,0,0,0,0l0,0c0,0,0,0,0,0l0,0l0,0l0.6-0.3L39.6,52.9L39.6,52.9
		z M37.1,54.4l-1.3,0.7l1.3,2.3l1.3-0.7L37.1,54.4L37.1,54.4z M34.5,55.8l-1.3,0.7l1.3,2.3c0,0,0.3-0.2,0.7-0.4l0,0c0,0,0,0,0,0l0,0
		c0,0,0,0,0,0l0.6-0.3L34.5,55.8L34.5,55.8z M32,57.3L30.7,58l1.3,2.3c0,0,0,0,0.1-0.1l0,0c0,0,0,0,0,0h0c0,0,0,0,0,0l0,0
		c0,0,0,0,0,0l0,0c0,0,0,0,0,0l0,0c0,0,0,0,0,0l0,0c0,0,0,0,0,0l1.1-0.7L32,57.3L32,57.3z M29.4,58.8l-1.3,0.7l1.4,2.3
		c0,0,0.4-0.2,0.8-0.4h0c0,0,0,0,0,0l0,0c0,0,0,0,0,0l0,0c0,0,0,0,0,0l0,0c0,0,0,0,0,0l0,0c0,0,0,0,0,0l0,0c0,0,0,0,0,0l0,0l0,0
		l0.4-0.3L29.4,58.8L29.4,58.8z M26.9,60.2L25.6,61l1.4,2.3c0,0,0.2-0.1,0.5-0.3l0.8-0.5L26.9,60.2L26.9,60.2z M24.3,61.7L23,62.5
		l1.4,2.3l1.3-0.7L24.3,61.7L24.3,61.7z M21.8,63.2l-1.3,0.7l1.4,2.3l1.3-0.7L21.8,63.2L21.8,63.2z M19.2,64.7l-1.3,0.7l1.4,2.3
		l0.7-0.4c0,0,0,0,0,0l0,0c0.3-0.2,0.6-0.3,0.6-0.3L19.2,64.7L19.2,64.7z M16.7,66.1l-1.3,0.7l1.4,2.3l0.4-0.2c0,0,0,0,0,0l0,0
		c0.4-0.2,0.9-0.5,0.9-0.5L16.7,66.1L16.7,66.1z M14.1,67.6l-1.3,0.7l1.4,2.3l0.7-0.4c0,0,0,0,0,0l0,0c0,0,0,0,0,0l0,0c0,0,0,0,0,0
		l0,0c0,0,0,0,0,0l0,0c0,0,0,0,0,0l0,0c0,0,0,0,0,0l0,0c0.3-0.2,0.5-0.3,0.5-0.3L14.1,67.6L14.1,67.6z M11.6,69.1l-1.3,0.7l1.4,2.3
		l0.9-0.5c0.2-0.1,0.4-0.2,0.4-0.2L11.6,69.1L11.6,69.1z M9,70.5l-1.3,0.7l1.3,2.3l0.6-0.4l0,0l0,0c0.3-0.2,0.6-0.4,0.6-0.4L9,70.5
		L9,70.5z M6.5,72l-1.3,0.7l1.3,2.3l1.3-0.7L6.5,72L6.5,72z M3.9,73.5L3.1,74v0H0.4v1.5h0.2l-0.2,0.1v0.7l0.4,0.6H0.4v1.5h0.5
		l2.2-1.3v-0.2H2.5l-0.9-1.5h1.5V75L4,76.6l1.1-0.6c0,0,0,0,0,0l0,0c0,0,0,0,0,0h0c0.1-0.1,0.1-0.1,0.1-0.1L3.9,73.5L3.9,73.5z
		 M0.4,71v1.5h2.7V71H0.4L0.4,71z M0.4,68.1v1.5h2.7v-1.5H0.4L0.4,68.1z M0.4,65.1v1.5h2.7v-1.5H0.4L0.4,65.1z M0.4,62.2v1.5h2.7
		v-1.5H0.4L0.4,62.2z M0.4,59.2v1.5h2.7v-1.5H0.4L0.4,59.2z M0.4,56.3v1.5h2.7v-1.5H0.4L0.4,56.3z M0.4,53.3v1.5h2.7v-1.5H0.4
		L0.4,53.3z M0.4,50.4v1.5h2.7v-1.5H0.4L0.4,50.4z M0.4,47.4v1.5h2.7v-1.5H0.4L0.4,47.4z M0.4,44.5V46h2.7v-1.5H0.4L0.4,44.5z
		 M0.4,41.6V43h2.7v-1.5H0.4L0.4,41.6z M0.4,38.6v1.5h2.7v-1.5H0.4L0.4,38.6z M0.4,35.7v1.5h2.7v-1.5H0.4L0.4,35.7z M0.4,32.7v1.5
		h2.7v-1.5H0.4L0.4,32.7z M0.4,29.8v1.5h2.7v-1.5H0.4L0.4,29.8z M0.4,26.8v1.5h2.7v-1.5H0.4L0.4,26.8z M0.4,21.4l0,4h1.5l1,0.5
		l1.3-2.3L3,22.8l-0.6,1.1H0.6l0.9-1.5h0.7L0.4,21.4L0.4,21.4z"/>
</g>
</svg>
