<?xml version="1.0" encoding="utf-8"?>
<!-- Generator: Adobe Illustrator 21.0.0, SVG Export Plug-In . SVG Version: 6.00 Build 0)  -->
<svg version="1.1" id="Layer_1" xmlns="http://www.w3.org/2000/svg" xmlns:xlink="http://www.w3.org/1999/xlink" x="0px" y="0px"
	 viewBox="0 0 100 100" style="enable-background:new 0 0 100 100;" xml:space="preserve">
<style type="text/css">
	.st0{fill:#FFFFFF;}
	.st1{fill:none;}
	.st2{enable-background:new    ;}
</style>
<g>
	<g id="Layer_2">
	</g>
	<g>
		<polygon class="st0" points="78.3,65.5 76.6,65.5 76.6,10 68.6,2 32.4,2 24.4,10 24.4,65.5 22.6,65.5 22.6,9.3 31.6,0.2 69.3,0.2 
			78.3,9.3 		"/>
	</g>
	<g>
		<rect x="10.7" y="65.5" class="st1" width="79.6" height="30"/>
		<path class="st0" d="M91.1,96.3H9.8V64.6h81.3C91.1,64.6,91.1,96.3,91.1,96.3z M11.6,94.6h77.8V66.3H11.6V94.6z"/>
	</g>
</g>
<g id="Layer_2_2_">
	<g class="st2">
		<path class="st0" d="M32.3,24.9h2.6l3.3,8.9l3.3-8.9h2.6v13h-1.7V26.5l-3.4,8.9h-1.8L34,26.5v11.4h-1.7
			C32.3,37.9,32.3,24.9,32.3,24.9z"/>
		<path class="st0" d="M47.7,24.9h7.5v1.5h-5.7v3.8h5.2v1.5h-5.2v6.2h-1.8C47.7,37.9,47.7,24.9,47.7,24.9z"/>
		<path class="st0" d="M67.7,25.9v1.9c-0.6-0.6-1.2-1-1.9-1.2c-0.7-0.3-1.4-0.4-2.1-0.4c-1.5,0-2.6,0.5-3.4,1.4
			c-0.8,0.9-1.2,2.2-1.2,4c0,1.7,0.4,3,1.2,3.9c0.8,0.9,1.9,1.4,3.4,1.4c0.8,0,1.5-0.1,2.1-0.4c0.7-0.3,1.3-0.7,1.9-1.2v1.8
			c-0.6,0.4-1.3,0.7-2,0.9c-0.7,0.2-1.4,0.3-2.2,0.3c-2,0-3.5-0.6-4.7-1.8c-1.1-1.2-1.7-2.9-1.7-4.9c0-2.1,0.6-3.7,1.7-5
			c1.1-1.2,2.7-1.8,4.7-1.8c0.8,0,1.5,0.1,2.2,0.3C66.5,25.2,67.1,25.5,67.7,25.9z"/>
	</g>
</g>
</svg>
