<?xml version="1.0" encoding="utf-8"?>
<!-- Generator: Adobe Illustrator 21.0.0, SVG Export Plug-In . SVG Version: 6.00 Build 0)  -->
<svg version="1.1" id="Layer_1" xmlns="http://www.w3.org/2000/svg" xmlns:xlink="http://www.w3.org/1999/xlink" x="0px" y="0px"
	 viewBox="0 0 100 100" style="enable-background:new 0 0 100 100;" xml:space="preserve">
<style type="text/css">
	.st0{fill:none;stroke:#A9A9A9;stroke-width:1.8;stroke-miterlimit:5;}
	.st1{fill:none;stroke:#A9A9A9;stroke-width:1.8;stroke-miterlimit:5;stroke-dasharray:1.4731,1.4731;}
	.st2{fill:none;stroke:#A9A9A9;stroke-width:1.8;stroke-miterlimit:5;stroke-dasharray:1.4984,1.4984;}
	.st3{fill:none;stroke:#A9A9A9;stroke-width:1.8;stroke-miterlimit:5;stroke-dasharray:1.4794,1.4794;}
	.st4{fill:none;stroke:#A9A9A9;stroke-width:1.8;stroke-miterlimit:5;stroke-dasharray:1.5237,1.5237;}
	.st5{fill:none;stroke:#A9A9A9;stroke-miterlimit:10;}
	.st6{enable-background:new    ;}
	.st7{fill:#A9A9A9;}
</style>
<g id="Layer_1_1_">
	<g>
		<g>
			<line class="st0" x1="77.1" y1="65.6" x2="77.1" y2="64.8"/>
			<line class="st0" x1="23.1" y1="64.8" x2="23.1" y2="65.6"/>
		</g>
	</g>
	<g>
		<g>
			<polyline class="st0" points="89.9,94.8 89.9,95.6 89.2,95.6 			"/>
			<line class="st1" x1="87.7" y1="95.6" x2="11.8" y2="95.6"/>
			<polyline class="st0" points="11.1,95.6 10.3,95.6 10.3,94.8 			"/>
			<line class="st2" x1="10.3" y1="93.3" x2="10.3" y2="67.1"/>
			<polyline class="st0" points="10.3,66.3 10.3,65.6 11.1,65.6 			"/>
			<line class="st1" x1="12.6" y1="65.6" x2="88.4" y2="65.6"/>
			<polyline class="st0" points="89.2,65.6 89.9,65.6 89.9,66.3 			"/>
			<line class="st2" x1="89.9" y1="67.8" x2="89.9" y2="94.1"/>
		</g>
	</g>
</g>
<g id="Layer_2_1_">
</g>
<g>
	<g>
		<line class="st0" x1="77" y1="65.6" x2="77" y2="64.9"/>
		<line class="st3" x1="77" y1="63.4" x2="77" y2="10.9"/>
		<polyline class="st0" points="77,10.1 77,9.4 76.5,8.8 		"/>
		<polyline class="st4" points="75.4,7.8 68.5,0.9 31.5,0.9 24.1,8.3 		"/>
		<polyline class="st0" points="23.5,8.8 23,9.4 23,10.1 		"/>
		<line class="st3" x1="23" y1="11.6" x2="23" y2="64.1"/>
		<line class="st0" x1="23" y1="64.9" x2="23" y2="65.6"/>
	</g>
</g>
<path class="st5" d="M10.1,80.2"/>
<g id="Layer_2_2_">
	<g class="st6">
		<path class="st7" d="M32.3,24.9h2.6l3.3,8.9l3.3-8.9h2.6v13h-1.7V26.5l-3.4,8.9h-1.8L34,26.5v11.4h-1.7
			C32.3,37.9,32.3,24.9,32.3,24.9z"/>
		<path class="st7" d="M47.7,24.9h7.5v1.5h-5.7v3.8h5.2v1.5h-5.2v6.2h-1.8C47.7,37.9,47.7,24.9,47.7,24.9z"/>
		<path class="st7" d="M67.7,25.9v1.9c-0.6-0.6-1.2-1-1.9-1.2c-0.7-0.3-1.4-0.4-2.1-0.4c-1.5,0-2.6,0.5-3.4,1.4
			c-0.8,0.9-1.2,2.2-1.2,4c0,1.7,0.4,3,1.2,3.9c0.8,0.9,1.9,1.4,3.4,1.4c0.8,0,1.5-0.1,2.1-0.4c0.7-0.3,1.3-0.7,1.9-1.2v1.8
			c-0.6,0.4-1.3,0.7-2,0.9c-0.7,0.2-1.4,0.3-2.2,0.3c-2,0-3.5-0.6-4.7-1.8c-1.1-1.2-1.7-2.9-1.7-4.9c0-2.1,0.6-3.7,1.7-5
			c1.1-1.2,2.7-1.8,4.7-1.8c0.8,0,1.5,0.1,2.2,0.3C66.5,25.2,67.1,25.5,67.7,25.9z"/>
	</g>
</g>
</svg>
