<?xml version="1.0" encoding="utf-8"?>
<!-- Generator: Adobe Illustrator 21.0.0, SVG Export Plug-In . SVG Version: 6.00 Build 0)  -->
<svg version="1.1" id="Layer_1" xmlns="http://www.w3.org/2000/svg" xmlns:xlink="http://www.w3.org/1999/xlink" x="0px" y="0px"
	 viewBox="0 0 100 100" style="enable-background:new 0 0 100 100;" xml:space="preserve">
<style type="text/css">
	.st0{display:none;}
	.st1{display:inline;}
	.st2{fill:none;}
	.st3{fill:#A9A9A9;}
	.st4{fill:none;stroke:#A9A9A9;stroke-width:2.7;stroke-miterlimit:10;stroke-dasharray:1.4721,1.4721;}
</style>
<g id="Layer_1_1_" class="st0">
	<g id="Layer_2" class="st1">
	</g>
	<g class="st1">
		<g>
			<g id="XMLID_1_">
				<g>
					<path class="st2" d="M82.1,32.3v35.3l-27.7-16c0.2-0.5,0.3-1.1,0.3-1.7c0-0.6-0.1-1.1-0.3-1.7L82.1,32.3z"/>
					<path class="st2" d="M51.5,54.4l16,27.8H32.2l16.1-27.8c0.5,0.2,1.1,0.3,1.6,0.3S51,54.6,51.5,54.4z"/>
					<rect x="83.8" y="49.1" width="16.1" height="1.7"/>
					<path d="M83.9,29.3l-0.1,19.8H83v1.7l0,0v-20L54,47.5c-0.1-0.2-0.3-0.5-0.5-0.7L83.9,29.3z"/>
					<rect x="83.1" y="49.1" width="0.8" height="1.7"/>
					<path d="M83.8,50.8v19.7L53.6,53c0.2-0.2,0.3-0.5,0.5-0.7l29,16.8V50.8h0.1H83.8z"/>
					<path d="M83,50.8v18.3L54,52.3c0.1-0.2,0.2-0.5,0.3-0.7l27.7,16V32.3L54.4,48.2c-0.1-0.3-0.2-0.5-0.3-0.7l29-16.7v20H83z"/>
					<path d="M52.9,53.6l17.6,30.3H50.7v-0.8H69L52.3,54C52.5,53.9,52.7,53.8,52.9,53.6z"/>
					<path d="M52.3,54L69,83H50.7H49H30.7l16.8-29c0.2,0.1,0.5,0.3,0.8,0.4L32.2,82.2h35.3l-16-27.8C51.8,54.3,52,54.2,52.3,54z"/>
					<rect x="56" y="28.9" width="1.7" height="1.7"/>
					<rect x="56" y="5.8" width="1.7" height="23.1"/>
					<rect x="56" y="4.1" width="1.7" height="1.7"/>
					<polygon points="56,28.9 56,30.6 50.7,30.6 50.7,29.7 49,29.7 49,30.6 43.8,30.6 43.8,28.9 					"/>
					<rect x="43.8" y="4.1" width="12.2" height="1.7"/>
					<path d="M54.4,48.2c0.2,0.5,0.3,1.1,0.3,1.7c0,0.6-0.1,1.1-0.3,1.7l-2.9-1.7L54.4,48.2z"/>
					<path d="M54.4,48.2l-2.9,1.7l2.9,1.7c-0.1,0.3-0.2,0.5-0.3,0.7l-2.8-1.6l-0.5-0.9v-0.3l3.3-1.9C54.2,47.7,54.3,48,54.4,48.2z"
						/>
					<path d="M54,47.5l-3.3,1.9v-1l2.9-1.6C53.8,47,53.9,47.2,54,47.5z"/>
					<path d="M51.2,50.7l2.8,1.6c-0.1,0.2-0.3,0.5-0.5,0.7L52,52.2L51.2,50.7z"/>
					<path d="M50.7,45.2c1.1,0.2,2.1,0.8,2.9,1.6l-2.9,1.6V45.2z"/>
					<path d="M53.6,53c-0.2,0.2-0.4,0.4-0.6,0.6l-0.8-1.5L53.6,53z"/>
					<path d="M52.1,52.2l0.8,1.5c-0.2,0.2-0.4,0.3-0.6,0.4l-1.5-2.7L52.1,52.2z"/>
					<path d="M50.8,51.4l1.5,2.7c-0.2,0.2-0.5,0.3-0.8,0.4l-1.6-2.8l-1.6,2.8c-0.3-0.1-0.5-0.2-0.8-0.4l2-3.4L50.8,51.4z"/>
					<polygon points="51.2,50.7 52.1,52.2 50.8,51.4 49.9,49.9 					"/>
					<path d="M49.9,51.6l1.6,2.8c-0.5,0.2-1,0.3-1.6,0.3s-1.1-0.1-1.6-0.3L49.9,51.6z"/>
					<polygon points="50.7,49.8 51.2,50.7 49.9,49.9 50.7,49.9 					"/>
					<polygon points="50.8,51.4 49.5,50.6 49.9,49.9 					"/>
					<rect x="49" y="83.9" width="1.7" height="16.1"/>
					<rect x="49" y="83.1" width="1.7" height="0.8"/>
					<polygon points="50.7,49.8 50.7,49.9 49.9,49.9 50.6,49.5 					"/>
					<polygon points="50.7,49.4 50.7,49.8 50.6,49.5 					"/>
					<polygon points="50.7,48.5 50.7,49.4 50.6,49.5 50.1,48.8 					"/>
					<path d="M50.7,45.2v3.3l-0.6,0.3l-0.3-0.6l-0.7,1.2H49v-4.2c0.3-0.1,0.6-0.1,0.9-0.1C50.2,45.1,50.4,45.1,50.7,45.2z"/>
					<path d="M50.7,30.6v14.6c-0.3,0-0.5-0.1-0.8-0.1s-0.6,0-0.9,0.1V30.6H50.7z"/>
					<rect x="49" y="29.7" width="1.7" height="0.9"/>
					<polygon points="50.1,48.8 50.6,49.5 49.9,49.9 49,49.9 49,49.6 49.1,49.4 					"/>
					<polygon points="50.1,48.8 49.1,49.4 49.8,48.2 					"/>
					<polygon points="49.9,49.9 49.5,50.6 48.7,50.2 49,49.6 49,49.9 					"/>
					<path d="M48.7,50.2l0.8,0.5l-2,3.4c-0.3-0.2-0.5-0.3-0.8-0.5L48.7,50.2z"/>
					<polygon points="49,49.4 49.1,49.4 49,49.6 					"/>
					<path d="M49,83.1v0.8H29.2l17.5-30.4c0.2,0.2,0.5,0.4,0.8,0.5L30.7,83L49,83.1L49,83.1z"/>
					<polygon points="49,49.4 49,49.6 48.7,50.2 48.2,49.9 					"/>
					<path d="M49,45.2v4.2l-0.8,0.5l0.5,0.3l-1.9,3.3c-1-0.9-1.6-2.2-1.6-3.6C45.1,47.6,46.8,45.6,49,45.2z"/>
					<rect x="42.1" y="28.9" width="1.7" height="1.7"/>
					<rect x="42.1" y="5.8" width="1.7" height="23.1"/>
					<rect x="42.1" y="4.1" width="1.7" height="1.7"/>
				</g>
			</g>
		</g>
	</g>
</g>
<g>
	<path class="st3" d="M44.9,47.1l-0.3-0.2c0,0,0,0,0,0l0,0c0,0,0,0,0,0l0,0l0,0l0,0c-0.4-0.2-1-0.6-1-0.6l-1.3,2.3l1.3,0.7
		L44.9,47.1L44.9,47.1z M42.4,45.6L42.4,45.6C42.3,45.5,42.3,45.5,42.4,45.6L42.4,45.6C42.3,45.5,42.3,45.5,42.4,45.6L42.4,45.6
		C42.3,45.5,42.3,45.5,42.4,45.6L42.4,45.6C42.3,45.5,42.3,45.5,42.4,45.6L42.4,45.6C42.3,45.5,42.3,45.5,42.4,45.6L42.4,45.6
		C42.3,45.5,42.3,45.5,42.4,45.6L42.4,45.6C42.3,45.5,42.3,45.5,42.4,45.6l-0.1-0.1c0,0,0,0,0,0l0,0c0,0,0,0,0,0l0,0
		c-0.3-0.2-1.2-0.7-1.2-0.7l-1.3,2.3l1.3,0.7L42.4,45.6L42.4,45.6z M39.8,44.1l-1.3-0.7l-1.3,2.3l1.3,0.7L39.8,44.1L39.8,44.1z
		 M37.3,42.6l-0.3-0.2c0,0,0,0,0,0l0,0c0,0,0,0,0,0l0,0c-0.4-0.2-0.9-0.5-0.9-0.5l-1.3,2.3l1.3,0.7L37.3,42.6L37.3,42.6z M34.7,41.2
		L34.5,41l0,0l0,0l0,0l0,0c0,0,0,0,0,0l0,0c0,0,0,0,0,0l0,0c0,0,0,0,0,0l0,0c0,0,0,0,0,0h0c0,0,0,0,0,0l0,0c-0.4-0.2-1-0.6-1-0.6
		l-1.3,2.3l1.3,0.7L34.7,41.2L34.7,41.2z M32.2,39.7L30.9,39l-1.4,2.3l1.3,0.7L32.2,39.7L32.2,39.7z M29.6,38.2L29.2,38
		c-0.4-0.2-0.9-0.5-0.9-0.5L27,39.8l1.3,0.7L29.6,38.2L29.6,38.2z M27.1,36.8l-0.4-0.2l0,0l0,0c0,0,0,0,0,0l0,0c0,0,0,0,0,0l0,0
		c0,0,0,0,0,0l0,0l0,0l0,0c0,0,0,0,0,0l0,0c0,0,0,0,0,0l0,0c-0.4-0.2-0.9-0.5-0.9-0.5l-1.4,2.3l1.3,0.7L27.1,36.8L27.1,36.8z
		 M24.5,35.3l-1.3-0.7l-1.4,2.3l1.3,0.7L24.5,35.3L24.5,35.3z M22,33.8l-1.3-0.7l-1.4,2.3l1.3,0.7L22,33.8L22,33.8z M19.4,32.3
		L18.8,32l0,0l0,0c-0.3-0.2-0.7-0.4-0.7-0.4l-1.4,2.3l1.3,0.7L19.4,32.3L19.4,32.3z M16.9,30.9l-0.8-0.4c0,0,0,0,0,0l0,0
		c-0.3-0.2-0.5-0.3-0.5-0.3l-1.4,2.3l1.3,0.7L16.9,30.9L16.9,30.9z M14.3,29.4L13,28.7L11.7,31l1.3,0.7L14.3,29.4L14.3,29.4z
		 M11.8,27.9L11,27.5c0,0,0,0,0,0l0,0l0,0l0,0c0,0,0,0,0,0l0,0c-0.3-0.2-0.5-0.3-0.5-0.3l-1.4,2.3l1.3,0.7L11.8,27.9L11.8,27.9z
		 M9.2,26.4L8.4,26c0,0,0,0,0,0l0,0c-0.2-0.1-0.4-0.3-0.4-0.3L6.6,28l1.3,0.7L9.2,26.4L9.2,26.4z M6.7,25l-1.3-0.7L4,26.6l1.3,0.7
		L6.7,25L6.7,25z M4.1,23.5L3.2,23c0,0,0,0,0,0l0,0c-0.2-0.1-0.4-0.2-0.4-0.2L2.7,23H1L1.6,22l-1.2-0.7l0,0l0,0l0,0l0,0l0,0l0,0l0,0
		l0,0V24l0,0c0,0.2,0,0.4,0,0.4h1.5l-0.4,0.7l1.3,0.7L4.1,23.5L4.1,23.5z M3.1,27.4v-1.5H0.4v1.5H3.1L3.1,27.4z M3.1,30.3v-1.5H0.4
		v1.5H3.1L3.1,30.3z M3.1,33.3v-1.5H0.4v1.5H3.1L3.1,33.3z M3.1,36.2v-1.5H0.4v1.5H3.1L3.1,36.2z M3.1,39.2v-1.5H0.4v1.5H3.1
		L3.1,39.2z M3.1,42.1v-1.5H0.4v1.5H3.1L3.1,42.1z M3.1,45.1v-1.5H0.4v1.5H3.1L3.1,45.1z M3.1,48v-1.5H0.4V48H3.1L3.1,48z M3.1,50.9
		v-1.5H0.4v1.5H3.1L3.1,50.9z M3.1,53.9v-1.5H0.4v1.5H3.1L3.1,53.9z M3.1,56.8v-1.5H0.4v1.5H3.1L3.1,56.8z M3.1,59.8v-1.5H0.4v1.5
		H3.1L3.1,59.8z M3.1,62.7v-1.5H0.4v1.5H3.1L3.1,62.7z M3.1,65.7v-1.5H0.4v1.5H3.1L3.1,65.7z M3.1,68.6v-1.5H0.4v1.5H3.1L3.1,68.6z
		 M3.1,71.6v-1.5H0.4v1.5H3.1L3.1,71.6z M4.5,76.3l-1.3-2.3l0,0V73H0.4v1.5h1.8l-0.3,0.2L2.6,76H0.9l-0.3-0.5l-0.2,0.1v2.6l0.2,0.4
		l1.3-0.7l-0.2-0.3h0.7l0.6-0.4v-0.2L3.2,77l0.4-0.2c0,0,0,0,0,0l0,0C3.9,76.6,4.5,76.3,4.5,76.3L4.5,76.3z M7,74.8l-1.3-2.3
		l-1.3,0.7l1.3,2.3L7,74.8L7,74.8z M9.6,73.3L8.2,71l-1.3,0.7l1.3,2.3L8.4,74c0,0,0,0,0,0l0,0c0,0,0,0,0,0l0,0
		C8.8,73.8,9.6,73.3,9.6,73.3L9.6,73.3z M12.1,71.9l-1.4-2.3l-1.3,0.7l1.4,2.3l0.6-0.3C11.8,72.1,12.1,71.9,12.1,71.9L12.1,71.9z
		 M14.7,70.4l-1.4-2.3L12,68.8l1.4,2.3L14.7,70.4L14.7,70.4z M17.2,68.9l-1.4-2.3l-1.3,0.7l1.4,2.3l0.4-0.2c0,0,0,0,0,0l0,0
		C16.7,69.2,17.2,68.9,17.2,68.9L17.2,68.9z M19.8,67.5l-1.4-2.3l-1.3,0.7l1.4,2.3l0.8-0.5c0,0,0,0,0,0h0
		C19.6,67.6,19.8,67.5,19.8,67.5L19.8,67.5z M22.3,66L21,63.6l-1.3,0.7l1.4,2.3l1.1-0.6c0,0,0,0,0,0h0c0,0,0,0,0,0l0,0c0,0,0,0,0,0
		l0,0c0,0,0,0,0,0l0,0l0,0l0,0c0,0,0,0,0,0l0,0c0,0,0,0,0,0l0,0l0,0l0,0c0,0,0,0,0,0l0,0C22.2,66,22.2,66,22.3,66L22.3,66
		C22.3,66,22.3,66,22.3,66L22.3,66z M24.9,64.5l-1.4-2.3l-1.3,0.7l1.4,2.3l0.6-0.3c0,0,0,0,0,0h0C24.5,64.7,24.9,64.5,24.9,64.5
		L24.9,64.5z M27.4,63l-1.4-2.3l-1.3,0.7l1.4,2.3l1-0.6c0,0,0,0,0,0l0,0c0,0,0,0,0,0l0,0c0,0,0,0,0,0l0,0c0,0,0,0,0,0l0,0
		C27.3,63.1,27.4,63,27.4,63L27.4,63z M30,61.6l-1.4-2.3L27.3,60l1.4,2.3l0.4-0.2c0,0,0,0,0,0l0,0c0,0,0,0,0,0l0,0c0,0,0,0,0,0l0,0
		C29.4,61.9,30,61.6,30,61.6L30,61.6z M32.5,60.1l-1.4-2.3l-1.3,0.7l1.4,2.3l0.8-0.5l0,0l0,0c0,0,0,0,0,0l0,0
		C32.3,60.2,32.5,60.1,32.5,60.1L32.5,60.1z M35.1,58.6l-1.3-2.3L32.4,57l1.3,2.3l1-0.6l0,0l0,0c0,0,0,0,0,0l0,0c0,0,0,0,0,0l0,0
		l0,0l0,0l0,0l0,0c0,0,0,0,0,0l0,0c0,0,0,0,0,0l0,0l0,0l0,0l0,0l0,0l0,0l0,0l0,0l0,0c0,0,0,0,0,0h0c0,0,0,0,0,0l0,0c0,0,0,0,0,0l0,0
		c0,0,0,0,0,0l0,0c0,0,0,0,0,0l0,0c0,0,0,0,0,0l0,0C35,58.7,35,58.7,35.1,58.6L35.1,58.6C35,58.6,35.1,58.6,35.1,58.6L35.1,58.6z
		 M37.6,57.2l-1.3-2.3L35,55.5l1.3,2.3l0.6-0.3l0,0l0,0c0,0,0,0,0,0l0,0c0,0,0,0,0,0l0,0C37.3,57.3,37.6,57.2,37.6,57.2L37.6,57.2z
		 M40.2,55.7l-1.3-2.3l-1.3,0.7l1.3,2.3l1-0.6c0,0,0,0,0,0l0,0c0,0,0,0,0,0l0,0C40.1,55.7,40.2,55.7,40.2,55.7L40.2,55.7z
		 M42.7,54.2l-1.3-2.3l-1.3,0.7l1.3,2.3L42.7,54.2L42.7,54.2z M45.3,52.7l-1.3-2.3l-1.3,0.7l1.3,2.3l0.8-0.5
		C45.1,52.9,45.3,52.7,45.3,52.7L45.3,52.7z M50,50l-1.8-1.1l0.4,0.6l-0.8,1.5l-0.8-1.5l0.6-1.1l-1.3-0.7l-1.3,2.3l1,0.5l0.8,1.3
		L50,50L50,50z"/>
</g>
<g>
	<path class="st3" d="M94.5,24.3c0,0-0.1,0.1-0.3,0.1l-1,0.6l1.3,2.3l1.3-0.7L94.5,24.3L94.5,24.3z M91.9,25.8l-1.3,0.7l1.3,2.3
		l1.3-0.7L91.9,25.8L91.9,25.8z M89.4,27.3L88.1,28l1.3,2.3l1.3-0.7L89.4,27.3L89.4,27.3z M86.8,28.7c0,0-0.1,0-0.2,0.1l0,0
		c0,0,0,0,0,0l-1.1,0.6l1.3,2.3l1.3-0.7L86.8,28.7L86.8,28.7z M84.3,30.2L83,30.9l1.3,2.3l1.3-0.7L84.3,30.2L84.3,30.2z M81.8,31.7
		c0,0-0.2,0.1-0.5,0.3l-0.8,0.5l1.3,2.3l1.3-0.7L81.8,31.7L81.8,31.7z M79.2,33.1c0,0-0.2,0.1-0.5,0.3l-0.8,0.5l1.3,2.3l1.3-0.7
		L79.2,33.1L79.2,33.1z M76.7,34.6l-1.3,0.7l1.3,2.3L78,37L76.7,34.6L76.7,34.6z M74.1,36.1c0,0-0.2,0.1-0.4,0.2l0,0c0,0,0,0,0,0
		l0,0c0,0,0,0,0,0l-0.8,0.5l1.3,2.3l1.3-0.7L74.1,36.1L74.1,36.1z M71.6,37.6c0,0-0.2,0.1-0.4,0.2h0c0,0,0,0,0,0l0,0c0,0,0,0,0,0
		l0,0c0,0,0,0,0,0l0,0l0,0l0,0c0,0,0,0,0,0l0,0l0,0h0c0,0,0,0,0,0l0,0c0,0,0,0,0,0l-0.8,0.5l1.3,2.3l1.3-0.7L71.6,37.6L71.6,37.6z
		 M69,39l-1.3,0.7l1.3,2.3l1.3-0.7L69,39L69,39z M66.5,40.5c0,0-0.2,0.1-0.4,0.2l0,0c0,0,0,0,0,0l-0.9,0.5l1.3,2.3l1.3-0.7
		L66.5,40.5L66.5,40.5z M63.9,42c0,0-0.1,0.1-0.2,0.1l0,0c0,0,0,0,0,0l0,0c0,0,0,0,0,0l0,0c0,0,0,0,0,0l0,0l0,0l-1,0.6L64,45
		l1.3-0.7L63.9,42L63.9,42z M61.4,43.4l-1.3,0.7l1.3,2.3l1.3-0.7L61.4,43.4L61.4,43.4z M58.8,44.9c0,0-0.2,0.1-0.3,0.2l0,0
		c0,0,0,0,0,0l-0.9,0.5l1.3,2.3l1.3-0.7L58.8,44.9L58.8,44.9z M56.3,46.4c0,0-0.1,0-0.2,0.1l0,0c0,0,0,0,0,0l0,0c0,0,0,0,0,0l0,0
		c0,0,0,0,0,0l0,0l0,0l0,0c0,0,0,0,0,0l0,0l0,0l0,0h0L55,47.1l1.3,2.3l1.3-0.7L56.3,46.4L56.3,46.4z M53.7,47.9l-1.3,0.7l0.1,0.2
		l-0.8,1.5l-0.5-0.9c0,0-0.6,0.3-0.9,0.5l0,0L50,50l0,0l0,0l0,0l0,0l0,0l0,0l0,0l0,0l2.3,1.3l0,0c0.2,0.1,0.4,0.2,0.4,0.2l0.7-1.3
		l0.4,0.7l1.3-0.7L53.7,47.9L53.7,47.9z M55.3,49.9l-1.3,2.3l1.3,0.7l1.3-2.3L55.3,49.9L55.3,49.9z M57.8,51.4l-1.3,2.3l0.4,0.2h0
		l0,0c0.4,0.2,0.9,0.5,0.9,0.5l1.3-2.3L57.8,51.4L57.8,51.4z M60.4,52.9L59,55.2l0.6,0.3l0,0l0,0c0,0,0,0,0,0l0,0c0,0,0,0,0,0l0,0
		c0,0,0,0,0,0l0,0c0,0,0,0,0,0h0c0,0,0,0,0,0l0,0c0,0,0,0,0,0h0c0,0,0,0,0,0l0,0c0,0,0,0,0,0l0,0c0,0,0,0,0,0l0,0c0,0,0,0,0,0l0,0
		c0.3,0.2,0.6,0.4,0.6,0.4l1.3-2.3L60.4,52.9L60.4,52.9z M62.9,54.4l-1.3,2.3l1.3,0.7l1.3-2.3L62.9,54.4L62.9,54.4z M65.5,55.8
		l-1.3,2.3l0.6,0.3c0,0,0,0,0,0l0,0c0,0,0,0,0,0l0,0c0.3,0.2,0.7,0.4,0.7,0.4l1.3-2.3L65.5,55.8L65.5,55.8z M68,57.3l-1.3,2.3
		l1.1,0.7c0,0,0,0,0,0l0,0c0,0,0,0,0,0l0,0c0,0,0,0,0,0l0,0c0,0,0,0,0,0l0,0c0,0,0,0,0,0h0c0,0,0,0,0,0l0,0c0.1,0,0.1,0.1,0.1,0.1
		l1.3-2.3L68,57.3L68,57.3z M70.6,58.8l-1.3,2.3l0.4,0.3l0,0l0,0c0,0,0,0,0,0l0,0c0,0,0,0,0,0l0,0c0,0,0,0,0,0l0,0c0,0,0,0,0,0l0,0
		c0,0,0,0,0,0l0,0c0,0,0,0,0,0h0c0.4,0.2,0.8,0.4,0.8,0.4l1.3-2.3L70.6,58.8L70.6,58.8z M73.1,60.2l-1.3,2.3l0.8,0.5
		c0.3,0.2,0.5,0.3,0.5,0.3l1.3-2.3L73.1,60.2L73.1,60.2z M75.7,61.7l-1.3,2.3l1.3,0.7l1.3-2.3L75.7,61.7L75.7,61.7z M78.2,63.2
		l-1.3,2.3l1.3,0.7l1.3-2.3L78.2,63.2L78.2,63.2z M80.8,64.7L79.4,67c0,0,0.3,0.2,0.6,0.3l0,0c0,0,0,0,0,0l0.7,0.4l1.3-2.3
		L80.8,64.7L80.8,64.7z M83.3,66.1L82,68.5c0,0,0.5,0.3,0.9,0.5l0,0c0,0,0,0,0,0l0.4,0.2l1.3-2.3L83.3,66.1L83.3,66.1z M85.9,67.6
		l-1.3,2.3c0,0,0.2,0.1,0.5,0.3l0,0c0,0,0,0,0,0l0,0c0,0,0,0,0,0l0,0c0,0,0,0,0,0l0,0c0,0,0,0,0,0l0,0c0,0,0,0,0,0l0,0c0,0,0,0,0,0
		l0.7,0.4l1.3-2.3L85.9,67.6L85.9,67.6z M88.4,69.1l-1.3,2.3c0,0,0.2,0.1,0.4,0.2l0.9,0.5l1.3-2.3L88.4,69.1L88.4,69.1z M91,70.5
		l-1.3,2.3c0,0,0.3,0.2,0.6,0.4l0,0l0,0l0.6,0.4l1.3-2.3L91,70.5L91,70.5z M93.5,72l-1.3,2.3l1.3,0.7l1.3-2.3L93.5,72L93.5,72z
		 M96.1,73.5l-1.3,2.3c0,0,0.1,0,0.1,0.1h0c0,0,0,0,0,0l0,0c0,0,0,0,0,0l1.1,0.6l0.9-1.5v0.4h1.5l-0.8,1.5h-0.6v0.2l2.2,1.3h0.5
		v-1.5h-0.4l0.4-0.6v-0.7l-0.2-0.1h0.2v-1.5h-2.7v0L96.1,73.5L96.1,73.5z M99.6,71h-2.7v1.5h2.7V71L99.6,71z M99.6,68.1h-2.7v1.5
		h2.7V68.1L99.6,68.1z M99.6,65.1h-2.7v1.5h2.7V65.1L99.6,65.1z M99.6,62.2h-2.7v1.5h2.7V62.2L99.6,62.2z M99.6,59.2h-2.7v1.5h2.7
		V59.2L99.6,59.2z M99.6,56.3h-2.7v1.5h2.7V56.3L99.6,56.3z M99.6,53.3h-2.7v1.5h2.7V53.3L99.6,53.3z M99.6,50.4h-2.7v1.5h2.7V50.4
		L99.6,50.4z M99.6,47.4h-2.7v1.5h2.7V47.4L99.6,47.4z M99.6,44.5h-2.7V46h2.7V44.5L99.6,44.5z M99.6,41.6h-2.7V43h2.7V41.6
		L99.6,41.6z M99.6,38.6h-2.7v1.5h2.7V38.6L99.6,38.6z M99.6,35.7h-2.7v1.5h2.7V35.7L99.6,35.7z M99.6,32.7h-2.7v1.5h2.7V32.7
		L99.6,32.7z M99.6,29.8h-2.7v1.5h2.7V29.8L99.6,29.8z M99.6,26.8h-2.7v1.5h2.7V26.8L99.6,26.8z M99.6,21.4l-1.8,1.1h0.7l0.8,1.5
		h-1.7l-0.6-1.1l-1.3,0.7l1.3,2.3l1-0.5h1.5L99.6,21.4L99.6,21.4z"/>
</g>
<line class="st4" x1="50" y1="78.4" x2="50" y2="25.7"/>
<g>
	<path class="st3" d="M55.6,0h-1.5v2.7h1.5V0L55.6,0z M52.7,0h-1.5v2.7h1.5V0L52.7,0z M49.7,0h-1.5v2.7h1.5V0L49.7,0z M46.8,0h-1.5
		v2.7h1.5V0L46.8,0z M43.9,0h-1.5v0.5h-1V2h1v0.7h1.5V2h0.3V0.5h-0.3V0L43.9,0z M44.1,3.5h-2.7v1.5h2.7V3.5L44.1,3.5z M44.1,6.4
		h-2.7v1.5h2.7V6.4L44.1,6.4z M44.1,9.3h-2.7v1.5h2.7V9.3L44.1,9.3z M44.1,12.3h-2.7v1.5h2.7V12.3L44.1,12.3z M44.1,15.2h-2.7v1.5
		h2.7V15.2L44.1,15.2z M44.1,18.2h-2.7v1.5h2.7V18.2L44.1,18.2z M44.1,21.1h-2.7v1.5h2.7V21.1L44.1,21.1z M44.1,24.1h-2.7v1.5l0,0
		V27l0,0v0.4h2.7l0,0l0,0l0,0l0,0c0.4,0,1.3,0,1.3,0v-2.7h-1.3V24.1L44.1,24.1z M42.5,25.5H44V27h-1.5V25.5L42.5,25.5z M41.4,25.5
		V27l0,0V25.5L41.4,25.5z M48.4,24.7h-1.5v2.7h1.5V24.7L48.4,24.7z M51.3,24.7h-1.5v2.7h1.5V24.7L51.3,24.7z M54.3,24.7h-1.5v2.7
		h1.5V24.7L54.3,24.7z M57.2,24.7h-1.5v2.7h1.5v-0.1h1.4v-1.5h-1.4V24.7L57.2,24.7z M58.6,22.9h-2.7v1.5h2.7V22.9L58.6,22.9z
		 M58.6,19.9h-2.7v1.5h2.7V19.9L58.6,19.9z M58.6,17h-2.7v1.5h2.7V17L58.6,17z M58.6,14h-2.7v1.5h2.7V14L58.6,14z M58.6,11.1h-2.7
		v1.5h2.7V11.1L58.6,11.1z M58.6,8.1h-2.7v1.5h2.7V8.1L58.6,8.1z M58.6,5.2h-2.7v1.5h2.7V5.2L58.6,5.2z M58.6,0h-2.7v0.8h1.2v1.5
		h-1.2v1.5h2.7V0L58.6,0z"/>
</g>
</svg>
