<?xml version="1.0" encoding="utf-8"?>
<!-- Generator: Adobe Illustrator 21.0.0, SVG Export Plug-In . SVG Version: 6.00 Build 0)  -->
<svg version="1.1" id="Layer_1" xmlns="http://www.w3.org/2000/svg" xmlns:xlink="http://www.w3.org/1999/xlink" x="0px" y="0px"
	 viewBox="0 0 74.7 200" style="enable-background:new 0 0 74.7 200;" xml:space="preserve">
<style type="text/css">
	.st0{fill:#ECF0F1;}
	.st1{fill:#797979;}
	.st2{fill:none;stroke:#FFFFFF;stroke-width:1.2;stroke-linecap:round;stroke-linejoin:round;}
	
		.st3{fill:none;stroke:#FFFFFF;stroke-width:0.75;stroke-linecap:round;stroke-linejoin:round;stroke-miterlimit:10;stroke-dasharray:2;}
	.st4{fill:none;stroke:#FFFFFF;stroke-width:0.75;stroke-linecap:round;stroke-linejoin:round;}
	.st5{fill:none;stroke:#FFFFFF;stroke-width:0.75;stroke-linecap:round;stroke-linejoin:round;stroke-dasharray:2.0247,2.0247;}
	.st6{fill:none;stroke:#FFFFFF;stroke-width:0.75;stroke-linecap:round;stroke-linejoin:round;stroke-dasharray:2.0245,2.0245;}
</style>
<g>
	<g id="XMLID_3_">
		<g>
			<polygon class="st0" points="60.7,94.2 60.7,105.8 59.8,105.8 59.8,100 59.8,94.2 			"/>
			<polygon class="st1" points="59.1,173.6 59,174.7 58.1,174.7 58.2,170.3 59.8,108.7 60.7,108.7 59.2,170.3 			"/>
			<polygon class="st0" points="11.5,100 11.5,105.8 10.5,105.8 10.5,94.2 11.5,94.2 			"/>
			<path class="st1" d="M11.5,108.7l-1.7,65c0,0.1,0,0.3,0,0.4l0,0.6h-1l0.1-4.4l1.6-61.5H11.5z"/>
		</g>
		<g>
			<polyline class="st2" points="70.7,177.9 9.8,177.9 3.9,177.9 3.6,177.9 3.3,177.9 3.1,177.8 2.8,177.7 2.5,177.6 2.3,177.4 
				2,177.3 1.8,177.1 1.6,176.8 1.4,176.6 1.2,176.3 1.1,176 0.9,175.7 0.8,175.4 0.7,175.1 0.7,174.8 0.6,174.4 0.6,174.1 
				0.6,173.8 0.7,173.4 0.7,173.1 0.8,172.8 0.9,172.5 1.1,172.2 1.2,171.9 1.4,171.6 1.6,171.4 1.8,171.2 2,171 2.3,170.8 
				2.5,170.6 2.8,170.5 3.1,170.4 3.3,170.3 3.6,170.3 3.9,170.3 9,170.3 			"/>
			<polyline class="st2" points="9.9,173.7 11.5,108.7 12.4,108.7 14.2,108.7 15.8,170.3 			"/>
			<polyline class="st2" points="11.5,108.7 10.5,108.7 9,170.3 8.8,174.7 9.8,174.7 9.8,174.1 			"/>
			<polyline class="st2" points="60.7,108.7 59.2,170.3 59.1,173.6 59,174.7 			"/>
			<line class="st2" x1="58.2" y1="170.3" x2="15.8" y2="170.3"/>
			<polyline class="st2" points="11.5,105.8 11.5,100 11.5,94.2 			"/>
			<line class="st2" x1="10.5" y1="105.8" x2="10.5" y2="94.2"/>
			<polyline class="st2" points="14.2,105.8 14.2,100 14.2,94.2 			"/>
			<line class="st2" x1="60.7" y1="94.2" x2="60.7" y2="105.8"/>
			<polyline class="st2" points="59.8,94.2 59.8,100 59.8,105.8 			"/>
			<line class="st2" x1="63.4" y1="94.2" x2="63.4" y2="105.8"/>
			<line class="st2" x1="59" y1="174.7" x2="58.1" y2="174.7"/>
			<polyline class="st2" points="10.5,105.8 11.5,105.8 12.4,105.8 14.2,105.8 			"/>
			<polyline class="st2" points="10.5,94.2 11.5,94.2 14.2,94.2 			"/>
			<polyline class="st2" points="59.8,105.8 60.7,105.8 61.6,105.8 63.4,105.8 			"/>
			<polyline class="st2" points="59.8,94.2 60.7,94.2 63.4,94.2 			"/>
			<polyline class="st2" points="70.7,170.3 70.5,170.3 70.2,170.3 69.9,170.4 69.6,170.5 69.3,170.6 69.1,170.8 68.9,171 
				68.6,171.2 68.4,171.4 68.2,171.6 68,171.9 67.9,172.2 67.7,172.5 67.6,172.8 67.5,173.1 67.5,173.4 67.4,173.8 67.4,174.1 
				67.4,174.4 67.5,174.8 67.5,175.1 67.6,175.4 67.7,175.7 67.9,176 68,176.3 68.2,176.6 68.4,176.8 68.6,177.1 68.9,177.3 
				69.1,177.4 69.3,177.6 69.6,177.7 69.9,177.8 70.2,177.9 70.5,177.9 70.7,177.9 71,177.9 71.3,177.9 71.6,177.8 71.9,177.7 
				72.2,177.6 72.4,177.4 72.7,177.3 72.9,177.1 73.1,176.8 73.3,176.6 73.5,176.3 73.6,176 73.8,175.7 73.9,175.4 74,175.1 
				74,174.8 74,174.4 74.1,174.1 74,173.8 74,173.4 74,173.1 73.9,172.8 73.8,172.5 73.6,172.2 73.5,171.9 73.3,171.6 73.1,171.4 
				72.9,171.2 72.7,171 72.4,170.8 72.2,170.6 71.9,170.5 71.6,170.4 71.3,170.3 71,170.3 70.7,170.3 65,170.3 			"/>
			<polyline class="st2" points="13.8,107.1 13.7,106.9 13.7,106.7 13.6,106.6 13.5,106.4 13.4,106.3 13.2,106.2 13.1,106.1 
				12.9,106 12.7,105.9 12.5,105.9 12.4,105.9 12.2,105.9 12,105.9 11.8,106 11.7,106.1 11.5,106.2 11.4,106.3 11.2,106.4 
				11.1,106.6 11.1,106.7 11,106.9 11,107.1 10.9,107.3 11,107.5 11,107.6 11.1,107.8 11.1,108 11.2,108.1 11.4,108.3 11.5,108.4 
				11.7,108.5 11.8,108.6 12,108.6 12.2,108.7 12.4,108.7 12.5,108.7 12.7,108.6 12.9,108.6 13.1,108.5 13.2,108.4 13.4,108.3 
				13.5,108.1 13.6,108 13.7,107.8 13.7,107.6 13.8,107.5 13.8,107.3 13.8,107.1 			"/>
			<polyline class="st2" points="60.3,107.8 60.3,108 60.5,108.1 60.6,108.3 60.7,108.4 60.9,108.5 61,108.6 61.2,108.6 61.4,108.7 
				61.6,108.7 61.8,108.7 61.9,108.6 62.1,108.6 62.3,108.5 62.4,108.4 62.6,108.3 62.7,108.1 62.8,108 62.9,107.8 62.9,107.6 
				63,107.5 63,107.3 63,107.1 62.9,106.9 62.9,106.7 62.8,106.6 62.7,106.4 62.6,106.3 62.4,106.2 62.3,106.1 62.1,106 61.9,105.9 
				61.8,105.9 61.6,105.9 61.4,105.9 61.2,105.9 61,106 60.9,106.1 60.7,106.2 60.6,106.3 60.5,106.4 60.3,106.6 60.3,106.7 
				60.2,106.9 60.2,107.1 60.2,107.3 60.2,107.5 60.2,107.6 60.3,107.8 			"/>
			<polyline class="st2" points="58.1,174.7 58.2,170.3 59.8,108.7 60.7,108.7 61.6,108.7 63.4,108.7 65,170.3 62.4,170.3 			"/>
			<path class="st2" d="M62.4,170.3c-1.7,0-3.1,1.5-3.3,3.3c0,0.2,0,0.3,0,0.5"/>
			<path class="st2" d="M9.8,174.1c0-0.1,0-0.3,0-0.4c0.2-1.9,1.6-3.4,3.3-3.4h2.6"/>
			<polyline class="st3" points="12.8,100 14.2,100 59.8,100 			"/>
		</g>
	</g>
	<g>
		<g>
			<path class="st4" d="M59.8,98.6c-0.3-0.1-0.6-0.3-0.9-0.4"/>
			<path class="st5" d="M57,97.4c-4.3-1.4-11.7-2.7-20-2.7c-10.6,0-19.5,2-22.8,3.9"/>
			<path class="st4" d="M13.3,99.2c-0.3,0.3-0.5,0.6-0.5,0.8"/>
		</g>
	</g>
	<g>
		<g>
			<path class="st4" d="M59.8,101.4c-0.3,0.1-0.6,0.3-0.9,0.4"/>
			<path class="st6" d="M57,102.6c-4.3,1.4-11.7,2.7-20,2.7c-10.6,0-19.5-2-22.8-3.9"/>
			<path class="st4" d="M13.3,100.8c-0.3-0.3-0.5-0.6-0.5-0.8"/>
		</g>
	</g>
</g>
</svg>
