<?xml version="1.0" encoding="utf-8"?>
<!-- Generator: Adobe Illustrator 21.0.0, SVG Export Plug-In . SVG Version: 6.00 Build 0)  -->
<svg version="1.1" id="Layer_1" xmlns="http://www.w3.org/2000/svg" xmlns:xlink="http://www.w3.org/1999/xlink" x="0px" y="0px"
	 viewBox="0 0 100 100" style="enable-background:new 0 0 100 100;" xml:space="preserve">
<style type="text/css">
	.st0{clip-path:url(#SVGID_2_);}
	.st1{fill:none;}
	.st2{fill:#797979;}
</style>
<g>
	<defs>
		<circle id="SVGID_1_" cx="50" cy="50" r="50"/>
	</defs>
	<clipPath id="SVGID_2_">
		<use xlink:href="#SVGID_1_"  style="overflow:visible;"/>
	</clipPath>
	<g class="st0">
		<polygon class="st1" points="65.1,50.6 65.1,33.1 50,24.4 34.9,33.1 34.9,50.6 50,59.3 		"/>
		<g>
			<polygon points="91.179,24.263 76.596,82.3 23.318,82.3 8.765,24.382 6.535,24.943 23.569,92.739 25.8,92.178 23.896,84.6 
				76.018,84.6 74.144,92.059 76.374,92.62 93.409,24.824 			"/>
			<path d="M27.764,55.942l5.327-3.076l-0.273,1.019l2.221,0.596l0.566-2.112l12.541,7.211l-1.551,1.551l1.626,1.626l0.579-0.579
				V68.1H51.1v-6.128l0.731,0.731l1.626-1.626l-1.536-1.536l12.476-7.173l0.555,2.07l2.221-0.595l-0.255-0.952l5.246,3.028
				l1.149-1.993l-5.129-2.96l0.849-0.228l-0.596-2.221L66.3,49.091V34.631l2.077,0.556l0.595-2.222l-0.912-0.244l5.301-3.059
				l-1.151-1.992l-5.23,3.019l0.243-0.907l-2.222-0.595l-0.579,2.16l-12.557-7.221l1.57-1.571l-1.626-1.626l-0.71,0.71V15.5H48.8
				v6.082l-0.671-0.671l-1.626,1.626l1.604,1.604l-12.493,7.184l-0.58-2.163l-2.222,0.596l0.269,1.001l-5.292-3.055l-1.149,1.992
				l5.233,3.021l-0.899,0.241l0.595,2.221l2.131-0.571v14.414l-2.13-0.571l-0.595,2.221l0.898,0.241l-5.259,3.035L27.764,55.942z
				 M36,49.926V33.674l13.999-8.027L64,33.773v16.153l-14,8.028L36,49.926z"/>
		</g>
	</g>
</g>
<circle class="st1" cx="50" cy="50" r="49.1"/>
<path class="st2" d="M50,1.7C23.4,1.7,1.7,23.4,1.7,50S23.4,98.3,50,98.3S98.3,76.6,98.3,50S76.6,1.7,50,1.7z M50,100
	C22.4,100,0,77.6,0,50S22.4,0,50,0s50,22.4,50,50S77.6,100,50,100z"/>
</svg>
