<?xml version="1.0" encoding="utf-8"?>
<!-- Generator: Adobe Illustrator 21.0.0, SVG Export Plug-In . SVG Version: 6.00 Build 0)  -->
<svg version="1.1" id="Layer_1" xmlns="http://www.w3.org/2000/svg" xmlns:xlink="http://www.w3.org/1999/xlink" x="0px" y="0px"
	 viewBox="0 0 100 100" style="enable-background:new 0 0 100 100;" xml:space="preserve">
<style type="text/css">
	.st0{fill:#3DD83D;}
	.st1{clip-path:url(#SVGID_2_);}
	.st2{fill:#231F20;}
	.st3{fill:#288C28;}
</style>
<circle class="st0" cx="50" cy="50" r="49.1"/>
<g>
	<defs>
		<circle id="SVGID_1_" cx="50" cy="50" r="50"/>
	</defs>
	<clipPath id="SVGID_2_">
		<use xlink:href="#SVGID_1_"  style="overflow:visible;"/>
	</clipPath>
	<g class="st1">
		<polygon class="st0" points="65.1,50.6 65.1,33.1 50,24.4 34.9,33.1 34.9,50.6 50,59.3 		"/>
		<g>
			<polygon class="st2" points="91.184,24.287 76.607,82.3 23.301,82.3 8.748,24.379 6.517,24.939 23.551,92.736 25.782,92.175 
				23.879,84.6 76.03,84.6 74.149,92.083 76.38,92.645 93.415,24.849 			"/>
			<path class="st2" d="M30.969,32.957l0.595,2.221l2.136-0.572v14.369l-2.1-0.563l-0.595,2.222l0.898,0.241l-5.28,3.047
				l1.149,1.993l5.321-3.071l-0.291,1.087l2.222,0.595l0.578-2.158l12.562,7.223l-1.571,1.57l1.626,1.626l0.581-0.581V68.1H51.1
				v-6.156l0.762,0.761l1.625-1.626l-1.548-1.548l12.463-7.166l0.553,2.063l2.222-0.596l-0.234-0.873l5.201,3.002l1.149-1.993
				l-5.168-2.983l0.905-0.243l-0.596-2.221L66.3,49.093V34.623l2.119,0.567l0.595-2.222l-0.931-0.249l5.288-3.052l-1.151-1.992
				l-5.204,3.004l0.239-0.892l-2.221-0.596l-0.582,2.173l-12.593-7.242l1.565-1.565l-1.626-1.626L51.1,21.629V15.5H48.8v6.055
				l-0.685-0.685l-1.626,1.626l1.636,1.636l-12.503,7.19l-0.578-2.154l-2.222,0.596l0.271,1.01l-5.33-3.077l-1.15,1.992l5.248,3.03
				L30.969,32.957z M36,49.926V33.674l13.999-8.027L64,33.773v16.153l-14,8.028L36,49.926z"/>
		</g>
	</g>
</g>
<path class="st3" d="M50,1.7C23.4,1.7,1.7,23.4,1.7,50S23.4,98.3,50,98.3S98.3,76.6,98.3,50S76.6,1.7,50,1.7z M50,100
	C22.4,100,0,77.6,0,50S22.4,0,50,0s50,22.4,50,50S77.6,100,50,100z"/>
</svg>
