<?xml version="1.0" encoding="utf-8"?>
<!-- Generator: Adobe Illustrator 21.0.0, SVG Export Plug-In . SVG Version: 6.00 Build 0)  -->
<svg version="1.1" id="Layer_1" xmlns="http://www.w3.org/2000/svg" xmlns:xlink="http://www.w3.org/1999/xlink" x="0px" y="0px"
	 viewBox="0 0 100 100" style="enable-background:new 0 0 100 100;" xml:space="preserve">
<style type="text/css">
	.st0{display:none;}
	.st1{display:inline;}
	.st2{font-family:'Helvetica';}
	.st3{font-size:10.385px;}
	.st4{fill:none;stroke:#A9A9A9;stroke-width:2.5;stroke-miterlimit:10;}
	.st5{fill:none;stroke:#A9A9A9;stroke-width:2.5;stroke-miterlimit:10;stroke-dasharray:1.4855,1.4855;}
	.st6{fill:none;stroke:#A9A9A9;stroke-width:2.5;stroke-miterlimit:10;stroke-dasharray:1.4818,1.4818;}
	.st7{fill:none;stroke:#A9A9A9;stroke-width:2.5;stroke-miterlimit:10;stroke-dasharray:1.4806,1.4806;}
	.st8{fill:none;stroke:#A9A9A9;stroke-width:2.5;stroke-miterlimit:10;stroke-dasharray:1.44,1.44;}
	.st9{fill:none;stroke:#A9A9A9;stroke-width:2.5;stroke-miterlimit:10;stroke-dasharray:1.429,1.429;}
	.st10{fill:none;stroke:#A9A9A9;stroke-width:2.5;stroke-miterlimit:10;stroke-dasharray:1.42,1.42;}
	.st11{fill:none;stroke:#A9A9A9;stroke-width:2.5;stroke-miterlimit:10;stroke-dasharray:1.5;}
	.st12{fill:#797979;}
</style>
<g id="Layer_2_1_" class="st0">
	<text transform="matrix(1 0 0 1 5.0005 95.8096)" class="st1 st2 st3">PI</text>
</g>
<g>
	<g>
		<line class="st4" x1="76.1" y1="91.8" x2="76.282" y2="91.072"/>
		<line class="st5" x1="76.643" y1="89.631" x2="92.337" y2="26.948"/>
		<line class="st4" x1="92.518" y1="26.228" x2="92.7" y2="25.5"/>
	</g>
</g>
<g>
	<g>
		<line class="st4" x1="23.9" y1="91.8" x2="23.718" y2="91.072"/>
		<line class="st5" x1="23.357" y1="89.631" x2="7.663" y2="26.948"/>
		<line class="st4" x1="7.482" y1="26.228" x2="7.3" y2="25.5"/>
	</g>
</g>
<g>
	<g>
		<polyline class="st4" points="64.751,50.975 65.4,50.6 65.4,49.85 		"/>
		<line class="st6" x1="65.4" y1="48.368" x2="65.4" y2="34.291"/>
		<polyline class="st4" points="65.4,33.55 65.4,32.8 64.751,32.425 		"/>
		<line class="st7" x1="63.469" y1="31.684" x2="51.29" y2="24.646"/>
		<polyline class="st4" points="50.649,24.275 50,23.9 49.351,24.275 		"/>
		<line class="st7" x1="48.069" y1="25.016" x2="35.89" y2="32.054"/>
		<polyline class="st4" points="35.249,32.425 34.6,32.8 34.6,33.55 		"/>
		<line class="st6" x1="34.6" y1="35.032" x2="34.6" y2="49.109"/>
		<polyline class="st4" points="34.6,49.85 34.6,50.6 35.249,50.975 		"/>
		<line class="st7" x1="36.531" y1="51.716" x2="48.71" y2="58.754"/>
		<polyline class="st4" points="49.351,59.125 50,59.5 50.649,59.125 		"/>
		<line class="st7" x1="51.931" y1="58.384" x2="64.11" y2="51.346"/>
	</g>
</g>
<g>
	<g>
		<g>
			<line class="st4" x1="50" y1="23.9" x2="50" y2="23.15"/>
			<line class="st8" x1="50" y1="21.71" x2="50" y2="16.67"/>
			<line class="st4" x1="50" y1="15.95" x2="50" y2="15.2"/>
		</g>
	</g>
	<g>
		<g>
			<line class="st4" x1="50" y1="23.9" x2="50.53" y2="23.37"/>
			<line class="st4" x1="51.97" y1="21.93" x2="52.5" y2="21.4"/>
		</g>
	</g>
	<g>
		<g>
			<line class="st4" x1="50" y1="23.9" x2="49.47" y2="23.37"/>
			<line class="st4" x1="48.03" y1="21.93" x2="47.5" y2="21.4"/>
		</g>
	</g>
</g>
<g>
	<g>
		<g>
			<line class="st4" x1="34.6" y1="32.8" x2="33.949" y2="32.427"/>
			<line class="st9" x1="32.71" y1="31.716" x2="28.371" y2="29.228"/>
			<line class="st4" x1="27.751" y1="28.873" x2="27.1" y2="28.5"/>
		</g>
	</g>
	<g>
		<g>
			<line class="st4" x1="34.6" y1="32.8" x2="34.408" y2="32.075"/>
			<line class="st4" x1="33.892" y1="30.125" x2="33.7" y2="29.4"/>
		</g>
	</g>
	<g>
		<g>
			<line class="st4" x1="34.6" y1="32.8" x2="33.875" y2="32.992"/>
			<line class="st4" x1="31.925" y1="33.508" x2="31.2" y2="33.7"/>
		</g>
	</g>
</g>
<g>
	<g>
		<g>
			<line class="st4" x1="34.6" y1="50.6" x2="33.949" y2="50.973"/>
			<line class="st9" x1="32.71" y1="51.684" x2="28.371" y2="54.172"/>
			<line class="st4" x1="27.751" y1="54.527" x2="27.1" y2="54.9"/>
		</g>
	</g>
	<g>
		<g>
			<line class="st4" x1="34.6" y1="50.6" x2="33.875" y2="50.408"/>
			<line class="st4" x1="31.925" y1="49.892" x2="31.2" y2="49.7"/>
		</g>
	</g>
	<g>
		<g>
			<line class="st4" x1="34.6" y1="50.6" x2="34.403" y2="51.324"/>
			<line class="st4" x1="33.897" y1="53.176" x2="33.7" y2="53.9"/>
		</g>
	</g>
</g>
<g>
	<g>
		<g>
			<line class="st4" x1="50" y1="59.5" x2="50" y2="60.25"/>
			<line class="st10" x1="50" y1="61.67" x2="50" y2="66.64"/>
			<line class="st4" x1="50" y1="67.35" x2="50" y2="68.1"/>
		</g>
	</g>
	<g>
		<g>
			<line class="st4" x1="50" y1="59.5" x2="49.459" y2="60.019"/>
			<line class="st4" x1="48.041" y1="61.381" x2="47.5" y2="61.9"/>
		</g>
	</g>
	<g>
		<g>
			<line class="st4" x1="50" y1="59.5" x2="50.541" y2="60.019"/>
			<line class="st4" x1="51.959" y1="61.381" x2="52.5" y2="61.9"/>
		</g>
	</g>
</g>
<g>
	<g>
		<g>
			<line class="st4" x1="65.4" y1="50.6" x2="66.051" y2="50.973"/>
			<line class="st9" x1="67.29" y1="51.684" x2="71.629" y2="54.172"/>
			<line class="st4" x1="72.249" y1="54.527" x2="72.9" y2="54.9"/>
		</g>
	</g>
	<g>
		<g>
			<line class="st4" x1="65.4" y1="50.6" x2="65.597" y2="51.324"/>
			<line class="st4" x1="66.103" y1="53.176" x2="66.3" y2="53.9"/>
		</g>
	</g>
	<g>
		<g>
			<line class="st4" x1="65.4" y1="50.6" x2="66.125" y2="50.408"/>
			<line class="st4" x1="68.075" y1="49.892" x2="68.8" y2="49.7"/>
		</g>
	</g>
</g>
<g>
	<g>
		<g>
			<line class="st4" x1="65.4" y1="32.8" x2="66.051" y2="32.427"/>
			<line class="st9" x1="67.29" y1="31.716" x2="71.629" y2="29.228"/>
			<line class="st4" x1="72.249" y1="28.873" x2="72.9" y2="28.5"/>
		</g>
	</g>
	<g>
		<g>
			<line class="st4" x1="65.4" y1="32.8" x2="66.125" y2="32.992"/>
			<line class="st4" x1="68.075" y1="33.508" x2="68.8" y2="33.7"/>
		</g>
	</g>
	<g>
		<g>
			<line class="st4" x1="65.4" y1="32.8" x2="65.592" y2="32.075"/>
			<line class="st4" x1="66.108" y1="30.125" x2="66.3" y2="29.4"/>
		</g>
	</g>
</g>
<line class="st11" x1="22" y1="84" x2="78.2" y2="84"/>
<g>
	<path class="st12" d="M50,0c-0.007,0-0.015,0-0.022,0c-0.003,0-0.003,0-0.007,0c-0.005,0-0.01,0-0.015,0c-0.002,0-0.007,0-0.008,0
		c-0.005,0-0.009,0-0.014,0c-0.003,0-0.005,0-0.008,0c-0.005,0-0.009,0-0.014,0c-0.002,0-0.006,0-0.008,0c-0.005,0-0.01,0-0.016,0
		c-0.003,0-0.003,0-0.006,0c-0.007,0-0.014,0-0.022,0l0,0c-0.008,0-0.015,0-0.023,0c-0.002,0-0.003,0-0.005,0
		c-0.006,0-0.012,0-0.017,0c-0.002,0-0.005,0-0.007,0c-0.005,0-0.01,0-0.016,0c-0.003,0-0.003,0-0.007,0c-0.005,0-0.011,0-0.016,0
		c-0.002,0-0.004,0-0.006,0c-0.006,0-0.012,0-0.019,0h-0.003c-0.023,0-0.046,0-0.069,0H49.67c-0.007,0-0.014,0-0.021,0h-0.003
		c-0.007,0-0.013,0-0.02,0c-0.002,0-0.001,0-0.003,0c-0.375,0.003-0.75,0.01-1.123,0.021l0.053,1.799
		C49.033,1.807,49.516,1.8,50,1.8V0L50,0L50,0z M47.001,0.088c-0.437,0.026-0.873,0.057-1.308,0.094c-0.002,0-0.004,0-0.005,0
		c-0.005,0-0.011,0.001-0.016,0.001c-0.003,0-0.004,0-0.008,0.001c-0.004,0-0.009,0.001-0.013,0.001
		c-0.003,0-0.007,0.001-0.01,0.001s-0.007,0.001-0.01,0.001c-0.005,0-0.007,0.001-0.012,0.001c-0.001,0-0.002,0-0.003,0
		c-0.038,0.003-0.073,0.006-0.111,0.01l0.16,1.793c0.479-0.043,0.96-0.078,1.442-0.107L47.001,0.088L47.001,0.088z M44.014,0.355
		c-0.028,0.003-0.057,0.007-0.085,0.01c-0.001,0-0.002,0-0.004,0c-0.005,0.001-0.008,0.001-0.013,0.002
		c-0.003,0-0.007,0.001-0.01,0.001s-0.006,0.001-0.009,0.001c-0.005,0.001-0.01,0.001-0.015,0.002c-0.002,0-0.004,0-0.006,0.001
		c-0.45,0.055-0.898,0.116-1.345,0.183l0.267,1.78c0.475-0.071,0.953-0.136,1.433-0.193L44.014,0.355L44.014,0.355z M41.047,0.799
		c-0.151,0.027-0.299,0.055-0.449,0.083c-0.002,0-0.005,0.001-0.007,0.001c-0.005,0.001-0.007,0.001-0.012,0.002
		c-0.004,0.001-0.007,0.001-0.011,0.002c-0.003,0.001-0.006,0.001-0.009,0.002c-0.005,0.001-0.01,0.002-0.015,0.003
		c-0.002,0-0.004,0.001-0.005,0.001c-0.015,0.003-0.03,0.006-0.045,0.009l0,0c-0.008,0.001-0.015,0.003-0.023,0.004
		c-0.002,0,0.001,0,0,0c-0.26,0.05-0.52,0.102-0.778,0.157c-0.002,0-0.006,0.001-0.008,0.002c-0.004,0.001-0.008,0.002-0.012,0.003
		C39.668,1.069,39.664,1.07,39.66,1.07c-0.003,0.001-0.006,0.001-0.008,0.002c-0.005,0.001-0.009,0.002-0.014,0.003
		c-0.001,0-0.002,0-0.003,0.001c-0.021,0.004-0.04,0.008-0.06,0.013l0.373,1.761c0.47-0.1,0.943-0.193,1.419-0.279L41.047,0.799
		L41.047,0.799z M38.113,1.422c-0.002,0-0.003,0.001-0.005,0.001c-0.004,0.001-0.008,0.002-0.011,0.003
		c-0.003,0.001-0.006,0.001-0.009,0.002c-0.014,0.003-0.028,0.007-0.042,0.01l-0.004,0.001c-0.006,0.001-0.012,0.003-0.018,0.004
		c-0.002,0-0.004,0.001-0.005,0.001c-0.006,0.001-0.012,0.003-0.018,0.004c-0.002,0-0.002,0-0.003,0.001
		c-0.022,0.006-0.045,0.011-0.067,0.017l0,0c-0.007,0.002-0.015,0.004-0.022,0.006h-0.001c-0.068,0.017-0.136,0.034-0.204,0.051
		c-0.002,0-0.001,0-0.002,0.001c-0.007,0.002-0.013,0.003-0.02,0.005c-0.002,0-0.001,0-0.003,0.001
		c-0.007,0.002-0.014,0.004-0.022,0.005l0,0c-0.015,0.004-0.03,0.008-0.045,0.011c-0.002,0-0.002,0-0.003,0.001
		c-0.006,0.002-0.012,0.003-0.018,0.005c-0.002,0-0.003,0.001-0.005,0.001c-0.006,0.001-0.011,0.003-0.017,0.004
		c-0.002,0-0.004,0.001-0.006,0.002c-0.006,0.002-0.012,0.003-0.018,0.005c-0.002,0-0.001,0-0.003,0.001
		c-0.007,0.002-0.014,0.004-0.021,0.006c-0.002,0-0.003,0.001-0.004,0.001c-0.006,0.001-0.011,0.003-0.017,0.004
		c-0.002,0-0.006,0.002-0.008,0.002c-0.004,0.001-0.008,0.002-0.013,0.003c-0.003,0.001-0.006,0.002-0.01,0.002
		c-0.004,0.001-0.007,0.002-0.011,0.003c-0.005,0.001-0.006,0.001-0.01,0.003c-0.003,0.001-0.006,0.002-0.01,0.003
		c-0.008,0.002-0.017,0.004-0.025,0.006c-0.002,0-0.003,0.001-0.004,0.001C37.404,1.6,37.4,1.601,37.395,1.603
		c-0.002,0.001-0.004,0.001-0.006,0.002c-0.005,0.001-0.009,0.002-0.014,0.004c-0.002,0.001-0.004,0.001-0.006,0.002
		c-0.005,0.001-0.009,0.002-0.014,0.004c-0.002,0.001-0.004,0.001-0.006,0.002c-0.022,0.006-0.046,0.012-0.068,0.018
		c-0.001,0-0.003,0.001-0.004,0.001c-0.006,0.002-0.009,0.002-0.015,0.004c-0.001,0-0.003,0.001-0.004,0.001
		c-0.006,0.002-0.01,0.003-0.016,0.004c-0.001,0-0.001,0-0.002,0.001c-0.019,0.005-0.035,0.009-0.053,0.014h-0.001
		c-0.005,0.001-0.011,0.003-0.016,0.004c-0.001,0-0.003,0.001-0.004,0.001c-0.006,0.002-0.009,0.002-0.016,0.004
		c-0.001,0-0.003,0.001-0.004,0.001c-0.005,0.001-0.011,0.003-0.016,0.004c-0.001,0-0.002,0-0.002,0.001
		c-0.017,0.005-0.032,0.008-0.049,0.013c-0.002,0.001-0.005,0.001-0.007,0.002c-0.005,0.001-0.008,0.002-0.012,0.003
		c-0.003,0.001-0.006,0.002-0.009,0.002c-0.003,0.001-0.008,0.002-0.012,0.003C37.036,1.699,37.033,1.7,37.03,1.7
		c-0.004,0-0.006,0-0.01,0.001c-0.005,0.001-0.01,0.003-0.015,0.004c-0.002,0-0.006,0.001-0.007,0.002
		c-0.006,0.002-0.013,0.003-0.019,0.005c-0.002,0-0.004,0.001-0.005,0.001c-0.006,0.002-0.011,0.003-0.017,0.005
		c-0.002,0-0.003,0.001-0.005,0.001c-0.006,0.002-0.012,0.003-0.019,0.005c-0.002,0-0.001,0-0.002,0.001
		c-0.09,0.024-0.18,0.049-0.27,0.074l0.479,1.735c0.464-0.128,0.93-0.249,1.399-0.364L38.113,1.422L38.113,1.422z M35.221,2.22
		c-0.343,0.106-0.681,0.214-1.02,0.327c-0.001,0-0.001,0-0.002,0.001c-0.005,0.002-0.01,0.003-0.014,0.005
		c-0.002,0.001-0.004,0.001-0.006,0.002c-0.003,0.001-0.01,0.003-0.013,0.004c-0.002,0.001-0.005,0.002-0.007,0.002
		c-0.005,0.002-0.008,0.003-0.013,0.004c-0.003,0.001-0.007,0.002-0.01,0.003c-0.005,0.002-0.007,0.002-0.012,0.004
		c-0.006,0.002-0.012,0.004-0.017,0.006c-0.003,0.001-0.003,0.001-0.006,0.002c-0.005,0.002-0.01,0.003-0.016,0.005
		c-0.002,0.001-0.004,0.001-0.006,0.002c-0.006,0.002-0.011,0.004-0.017,0.006c-0.002,0.001-0.003,0.001-0.004,0.001
		c-0.088,0.03-0.176,0.06-0.264,0.09l0.583,1.703c0.455-0.156,0.913-0.305,1.375-0.448L35.221,2.22L35.221,2.22z M32.384,3.192
		c-0.21,0.079-0.418,0.159-0.626,0.241c-0.001,0-0.002,0.001-0.003,0.001c-0.004,0.002-0.009,0.004-0.014,0.005
		c-0.002,0.001-0.004,0.002-0.007,0.003c-0.004,0.002-0.008,0.003-0.012,0.005c-0.003,0.001-0.005,0.002-0.007,0.003
		c-0.004,0.002-0.007,0.003-0.012,0.005c-0.004,0.002-0.008,0.003-0.012,0.005s-0.009,0.003-0.013,0.005
		c-0.005,0.002-0.009,0.004-0.014,0.006c-0.001,0.001-0.005,0.002-0.006,0.003c-0.005,0.002-0.01,0.004-0.014,0.006
		c-0.004-0.001-0.004-0.001-0.007,0c-0.006,0.002-0.011,0.004-0.017,0.007c-0.001,0.001-0.001,0.001-0.003,0.001
		c-0.21,0.083-0.42,0.168-0.629,0.254l0.685,1.665c0.445-0.183,0.893-0.36,1.345-0.53L32.384,3.192L32.384,3.192z M29.61,4.333
		c-0.367,0.164-0.733,0.333-1.095,0.506c-0.002,0.001-0.003,0.002-0.005,0.002c-0.004,0.002-0.008,0.004-0.012,0.006
		c-0.003,0.001-0.005,0.003-0.008,0.004c-0.004,0.002-0.006,0.003-0.01,0.005c-0.005,0.002-0.01,0.005-0.015,0.007
		c-0.001,0.001-0.002,0.001-0.003,0.001c-0.007,0.003-0.013,0.006-0.02,0.01l-0.003,0.001c-0.006,0.003-0.012,0.006-0.018,0.009
		c-0.001,0.001-0.001,0.001-0.003,0.001c-0.056,0.027-0.112,0.054-0.167,0.081l0.784,1.62c0.433-0.21,0.87-0.413,1.311-0.61
		L29.61,4.333L29.61,4.333z M26.91,5.639c-0.444,0.231-0.884,0.469-1.319,0.714l0.88,1.57c0.42-0.235,0.844-0.465,1.272-0.688
		L26.91,5.639L26.91,5.639z M24.293,7.106c-0.428,0.257-0.854,0.522-1.274,0.791l0.973,1.515c0.405-0.26,0.815-0.515,1.228-0.763
		L24.293,7.106L24.293,7.106z M21.769,8.727c-0.2,0.137-0.398,0.275-0.596,0.415c-0.001,0.001,0,0-0.002,0.001
		c-0.005,0.004-0.011,0.008-0.016,0.011c-0.001,0.001-0.002,0.001-0.003,0.002c-0.006,0.004-0.011,0.008-0.017,0.012
		c-0.001,0.001,0,0-0.001,0.001c-0.006,0.004-0.012,0.009-0.019,0.013c-0.001,0.001-0.001,0-0.002,0.001
		c-0.005,0.004-0.01,0.007-0.015,0.011c-0.001,0.001-0.004,0.003-0.005,0.004c-0.004,0.003-0.008,0.006-0.012,0.009
		c-0.001,0.001-0.005,0.003-0.006,0.004c-0.005,0.003-0.009,0.007-0.014,0.01c-0.001,0.001-0.002,0.002-0.004,0.003
		c-0.006,0.004-0.012,0.008-0.017,0.012c-0.003,0.002-0.003,0.002-0.005,0.004c-0.004,0.003-0.008,0.006-0.012,0.008
		c-0.003,0.002-0.005,0.004-0.008,0.006s-0.006,0.004-0.009,0.006s-0.007,0.005-0.009,0.006c-0.003,0.002-0.006,0.004-0.008,0.006
		c-0.003,0.002-0.006,0.005-0.009,0.006c-0.003,0.002-0.006,0.004-0.009,0.006c-0.006,0.005-0.01,0.007-0.016,0.012
		c-0.002,0.002-0.005,0.003-0.007,0.005c-0.004,0.003-0.006,0.004-0.01,0.007c-0.003,0.002-0.005,0.004-0.008,0.005
		c-0.004,0.003-0.006,0.004-0.01,0.007c-0.002,0.002-0.004,0.003-0.007,0.005c-0.004,0.003-0.007,0.005-0.01,0.007l-0.001,0.001
		c-0.009,0.006-0.015,0.011-0.024,0.017c-0.002,0.002-0.004,0.003-0.006,0.005c-0.004,0.003-0.007,0.005-0.011,0.008
		c-0.002,0.001-0.004,0.003-0.005,0.004c-0.004,0.003-0.007,0.005-0.011,0.008c-0.002,0.001-0.004,0.003-0.006,0.004
		c-0.004,0.003-0.007,0.005-0.011,0.008c-0.002,0.001-0.003,0.002-0.005,0.004C20.817,9.396,20.81,9.4,20.804,9.405
		c-0.004,0.003-0.007,0.005-0.01,0.007c-0.004,0.003-0.005,0.004-0.009,0.007c-0.003,0.002-0.005,0.004-0.008,0.006
		S20.77,9.43,20.768,9.432c-0.003,0.002-0.006,0.004-0.008,0.006c-0.003,0.002-0.006,0.004-0.008,0.006
		c-0.004,0.003-0.008,0.006-0.012,0.008c-0.004,0.003-0.009,0.006-0.012,0.009c-0.003,0.002-0.006,0.005-0.009,0.007
		s-0.005,0.004-0.008,0.006s-0.007,0.005-0.01,0.007s-0.004,0.003-0.007,0.005c-0.004,0.003-0.008,0.006-0.013,0.009
		c-0.003,0.002-0.002,0.001-0.005,0.003c-0.012,0.009-0.024,0.017-0.036,0.026c-0.001,0.001-0.001,0.001-0.003,0.002
		c-0.005,0.004-0.011,0.008-0.016,0.012L20.619,9.54c-0.025,0.018-0.05,0.036-0.075,0.054l1.062,1.454
		c0.389-0.284,0.783-0.563,1.181-0.835L21.769,8.727L21.769,8.727z M19.346,10.496c-0.101,0.079-0.203,0.159-0.304,0.238l0,0
		c-0.018,0.015-0.038,0.03-0.057,0.045c-0.001,0.001-0.002,0.002-0.003,0.002c-0.004,0.003-0.008,0.007-0.012,0.009
		c-0.001,0.001-0.003,0.002-0.004,0.004c-0.004,0.003-0.007,0.006-0.011,0.009c-0.002,0.002-0.004,0.003-0.006,0.005
		c-0.007,0.006-0.012,0.009-0.019,0.015c-0.002,0.001-0.004,0.003-0.006,0.004c-0.002,0.002-0.006,0.005-0.008,0.007
		c-0.003,0.002-0.006,0.005-0.009,0.007c-0.002,0.002-0.005,0.004-0.007,0.006c-0.003,0.003-0.007,0.006-0.01,0.008
		c-0.001,0.001-0.005,0.004-0.006,0.005c-0.004,0.003-0.009,0.007-0.013,0.01c-0.001,0.001-0.002,0.002-0.004,0.003
		c-0.006,0.005-0.012,0.009-0.017,0.014c-0.001,0.001-0.001,0-0.002,0.001c-0.005,0.004-0.01,0.008-0.015,0.012
		c-0.001,0.001-0.002,0.002-0.004,0.003c-0.005,0.004-0.01,0.008-0.015,0.012c-0.001,0.001-0.002,0.001-0.003,0.002
		c-0.018,0.014-0.036,0.029-0.054,0.043c-0.001,0.001,0.001,0-0.001,0.001c-0.195,0.156-0.389,0.314-0.581,0.473l1.146,1.388
		c0.372-0.307,0.748-0.608,1.129-0.904L19.346,10.496L19.346,10.496z M17.034,12.406c-0.041,0.036-0.082,0.072-0.123,0.108l0,0
		c-0.005,0.004-0.01,0.009-0.015,0.013c-0.002,0.002-0.004,0.004-0.006,0.006c-0.003,0.003-0.006,0.005-0.009,0.008
		c-0.002,0.002-0.006,0.005-0.008,0.007c-0.002,0.002-0.004,0.004-0.006,0.006c-0.013,0.011-0.024,0.022-0.037,0.033
		c0,0-0.001,0-0.001,0.001c-0.005,0.004-0.009,0.008-0.014,0.012l0,0c-0.209,0.186-0.418,0.374-0.624,0.563
		c-0.001,0.001-0.003,0.003-0.004,0.004c-0.003,0.003-0.006,0.006-0.01,0.009c-0.002,0.002-0.005,0.004-0.007,0.006
		s-0.005,0.005-0.008,0.007c-0.005,0.005-0.01,0.009-0.015,0.014c-0.001,0.001-0.002,0.002-0.003,0.003
		c-0.005,0.004-0.009,0.008-0.014,0.013c-0.001,0.001-0.002,0.002-0.003,0.003c-0.005,0.005-0.01,0.009-0.015,0.014l-0.001,0.001
		c-0.063,0.058-0.126,0.117-0.189,0.175l1.227,1.317c0.353-0.329,0.71-0.652,1.073-0.97L17.034,12.406L17.034,12.406z
		 M14.839,14.451c-0.002,0.002-0.004,0.004-0.006,0.006s-0.003,0.003-0.005,0.005c-0.003,0.003-0.007,0.007-0.011,0.011
		c-0.001,0.001-0.001,0.001-0.002,0.002c-0.323,0.32-0.641,0.643-0.955,0.972c-0.001,0.001-0.003,0.003-0.004,0.004
		c-0.003,0.003-0.006,0.006-0.009,0.009c-0.002,0.002-0.004,0.004-0.006,0.006s-0.005,0.006-0.007,0.008
		c-0.003,0.003-0.007,0.007-0.01,0.01c-0.002,0.002-0.002,0.002-0.004,0.005c-0.01,0.011-0.021,0.022-0.031,0.032
		c-0.001,0.001,0,0-0.001,0.001l1.303,1.241c0.333-0.349,0.67-0.693,1.013-1.032L14.839,14.451L14.839,14.451z M12.771,16.623
		c-0.313,0.348-0.62,0.701-0.923,1.058c-0.001,0.001-0.002,0.002-0.003,0.004c-0.003,0.004-0.007,0.008-0.01,0.012
		c-0.001,0.001-0.004,0.004-0.005,0.006c-0.003,0.003-0.006,0.007-0.008,0.01c-0.01,0.012-0.02,0.023-0.03,0.035
		c0,0,0,0-0.001,0.001c-0.002,0.002-0.002,0.003-0.005,0.005l1.375,1.161c0.311-0.368,0.628-0.732,0.95-1.091L12.771,16.623
		L12.771,16.623z M10.835,18.915c-0.178,0.224-0.352,0.447-0.527,0.674c-0.001,0.001-0.001,0.001-0.002,0.002
		c-0.004,0.005-0.006,0.008-0.01,0.013c-0.001,0.001-0.002,0.003-0.003,0.004c-0.01,0.012-0.021,0.027-0.03,0.039
		c-0.001,0.001-0.002,0.002-0.002,0.003c-0.003,0.004-0.005,0.007-0.008,0.01c-0.002,0.002-0.004,0.005-0.005,0.007
		c-0.002,0.002-0.005,0.007-0.007,0.009c-0.002,0.003-0.004,0.006-0.007,0.009c-0.002,0.002-0.004,0.005-0.006,0.008
		c-0.004,0.005-0.008,0.011-0.012,0.016c-0.001,0.001-0.001,0.001-0.002,0.002c-0.004,0.005-0.008,0.01-0.012,0.016
		c-0.001,0.001-0.002,0.003-0.003,0.004c-0.004,0.005-0.007,0.009-0.011,0.014c-0.001,0.001-0.002,0.002-0.003,0.004
		c-0.004,0.005-0.008,0.011-0.012,0.016l-0.001,0.001c-0.085,0.112-0.17,0.224-0.254,0.337l1.442,1.077
		c0.289-0.386,0.583-0.768,0.883-1.145L10.835,18.915L10.835,18.915z M9.04,21.318c-0.263,0.374-0.519,0.75-0.771,1.132
		c-0.001,0.001-0.002,0.002-0.002,0.003c-0.003,0.005-0.005,0.008-0.009,0.013c-0.001,0.001-0.002,0.002-0.002,0.003
		c-0.008,0.012-0.017,0.026-0.025,0.037c-0.002,0.003-0.004,0.006-0.006,0.009s-0.004,0.006-0.005,0.008
		c-0.002,0.003-0.005,0.007-0.007,0.01S8.21,22.537,8.209,22.54c-0.003,0.005-0.006,0.009-0.009,0.014l-0.002,0.003L9.7,23.548
		c0.265-0.403,0.536-0.802,0.813-1.196L9.04,21.318L9.04,21.318z M7.391,23.824c-0.2,0.326-0.397,0.654-0.59,0.984
		c-0.001,0.001,0,0-0.001,0.001c-0.004,0.006-0.007,0.012-0.011,0.019c-0.001,0.001,0,0-0.001,0.002
		c-0.011,0.02-0.023,0.039-0.034,0.059c-0.001,0.001-0.001,0.001-0.002,0.003c-0.003,0.006-0.006,0.011-0.01,0.017
		c-0.001,0.001-0.001,0.002-0.002,0.003c-0.003,0.006-0.007,0.012-0.01,0.018l0,0c-0.004,0.007-0.008,0.013-0.012,0.02
		c-0.001,0.001,0-0.001,0,0.001c-0.004,0.006-0.007,0.012-0.011,0.018c-0.001,0.001-0.002,0.003-0.002,0.004
		c-0.003,0.005-0.006,0.01-0.009,0.015c-0.001,0.001-0.002,0.004-0.003,0.005c-0.003,0.005-0.006,0.01-0.009,0.015l-0.002,0.004
		c-0.004,0.006-0.007,0.013-0.011,0.019C6.67,25.032,6.67,25.032,6.67,25.034c-0.003,0.005-0.006,0.011-0.009,0.016
		c-0.001,0.001-0.003,0.005-0.004,0.006c-0.002,0.004-0.005,0.008-0.007,0.012c-0.002,0.003-0.003,0.004-0.004,0.007
		c-0.002,0.004-0.005,0.008-0.007,0.013c-0.002,0.003-0.002,0.003-0.004,0.006c-0.004,0.006-0.007,0.012-0.011,0.018l0,0l1.56,0.897
		c0.24-0.418,0.487-0.832,0.739-1.242L7.391,23.824L7.391,23.824z M5.896,26.424c-0.107,0.199-0.212,0.399-0.316,0.6
		c-0.001,0.001-0.001,0.001-0.001,0.003c-0.003,0.006-0.006,0.011-0.009,0.016c-0.001,0.001-0.002,0.003-0.002,0.005
		c-0.003,0.005-0.006,0.011-0.008,0.016c-0.001,0.001-0.001,0.002-0.002,0.003c-0.003,0.006-0.007,0.013-0.01,0.019
		c-0.001,0.001-0.002,0.004-0.003,0.005C5.543,27.096,5.54,27.1,5.538,27.105c-0.001,0.001-0.003,0.006-0.004,0.007
		c-0.002,0.004-0.004,0.008-0.006,0.011c-0.001,0.003-0.003,0.006-0.004,0.009c-0.002,0.004-0.004,0.007-0.006,0.011
		c-0.001,0.003-0.003,0.005-0.004,0.008c-0.002,0.004-0.005,0.009-0.007,0.013C5.505,27.17,5.502,27.175,5.5,27.179
		c-0.002,0.003-0.003,0.006-0.005,0.009c-0.002,0.004-0.003,0.006-0.005,0.01c-0.001,0.003-0.003,0.006-0.004,0.009
		c-0.001,0.003-0.004,0.008-0.005,0.01c-0.001,0.003-0.003,0.006-0.004,0.008c-0.002,0.004-0.003,0.006-0.005,0.01
		c-0.001,0.002-0.002,0.005-0.004,0.007c-0.004,0.008-0.008,0.016-0.013,0.025c-0.001,0.001-0.001,0.002-0.002,0.003
		c-0.002,0.004-0.004,0.008-0.006,0.013c-0.001,0.002-0.002,0.004-0.003,0.006c-0.001,0.003-0.005,0.009-0.006,0.012
		c-0.001,0.002-0.002,0.004-0.003,0.006c-0.002,0.004-0.004,0.008-0.006,0.013c-0.001,0.001-0.001,0.002-0.002,0.003
		c-0.007,0.014-0.015,0.03-0.023,0.044C5.402,27.37,5.401,27.372,5.4,27.374c-0.002,0.004-0.004,0.009-0.007,0.013
		c-0.001,0.002-0.002,0.003-0.003,0.005c-0.002,0.004-0.005,0.009-0.007,0.013c-0.001,0.001-0.001,0.002-0.002,0.004
		c-0.007,0.014-0.015,0.029-0.022,0.043c-0.001,0.002-0.002,0.004-0.003,0.006c-0.002,0.004-0.004,0.008-0.006,0.012
		c-0.001,0.003-0.003,0.005-0.004,0.008c-0.002,0.004-0.003,0.007-0.005,0.011c-0.002,0.003-0.003,0.006-0.005,0.009
		c-0.001,0.003-0.003,0.007-0.005,0.01c-0.003,0.006-0.006,0.012-0.009,0.018c-0.001,0.003-0.003,0.005-0.004,0.008
		c-0.002,0.004-0.004,0.008-0.006,0.011c-0.001,0.003-0.003,0.005-0.004,0.008c-0.002,0.004-0.004,0.008-0.006,0.012
		c-0.001,0.003-0.002,0.004-0.004,0.007c-0.002,0.005-0.005,0.009-0.007,0.014c-0.001,0.003-0.001,0.003-0.003,0.006
		c-0.003,0.007-0.007,0.013-0.01,0.02l0,0c-0.003,0.007-0.007,0.013-0.01,0.02c-0.001,0.001-0.001,0.002-0.002,0.003
		c-0.003,0.006-0.006,0.012-0.009,0.018l0.003,0c-0.017,0.035-0.035,0.069-0.052,0.104l1.612,0.802
		c0.215-0.432,0.436-0.86,0.663-1.285L5.896,26.424L5.896,26.424z M4.56,29.11c-0.001,0.001,0,0.001-0.001,0.002
		c-0.003,0.006-0.006,0.012-0.008,0.018c-0.001,0.001-0.002,0.004-0.002,0.005c-0.002,0.005-0.005,0.01-0.007,0.015
		c-0.001,0.001-0.002,0.005-0.003,0.006c-0.002,0.005-0.004,0.009-0.006,0.014c-0.001,0.003-0.001,0.003-0.003,0.006
		c-0.002,0.005-0.005,0.011-0.007,0.016L4.52,29.196c-0.006,0.014-0.013,0.028-0.019,0.041v0.001
		c-0.003,0.007-0.006,0.013-0.009,0.02L4.491,29.26c-0.042,0.092-0.083,0.183-0.125,0.275l-0.001,0.002
		c-0.003,0.007-0.006,0.014-0.009,0.02l0,0c-0.006,0.014-0.013,0.028-0.019,0.042l-0.001,0.003
		c-0.002,0.006-0.005,0.011-0.007,0.017c-0.001,0.003-0.001,0.003-0.003,0.006c-0.002,0.005-0.004,0.01-0.007,0.015
		c-0.001,0.001-0.002,0.004-0.002,0.005c-0.002,0.005-0.005,0.01-0.007,0.016c-0.001,0.001-0.001,0.003-0.002,0.004
		c-0.003,0.006-0.006,0.013-0.008,0.019c-0.001,0.003-0.002,0.005-0.003,0.008c-0.002,0.004-0.003,0.008-0.005,0.012
		c-0.001,0.003-0.003,0.007-0.004,0.01c-0.001,0.003-0.003,0.006-0.004,0.009c-0.001,0.003-0.003,0.008-0.005,0.011
		c-0.001,0.002-0.002,0.005-0.003,0.007c-0.01,0.022-0.018,0.042-0.028,0.063c0,0.001,0,0.001-0.001,0.002
		c-0.099,0.225-0.197,0.45-0.293,0.676l1.657,0.703c0.188-0.444,0.383-0.885,0.585-1.322L4.56,29.11L4.56,29.11z M3.388,31.871
		c-0.086,0.222-0.171,0.444-0.254,0.668v0.001c-0.002,0.006-0.004,0.011-0.006,0.017v0.001c-0.009,0.024-0.017,0.045-0.026,0.069
		c0,0.001-0.001,0.002-0.001,0.003c-0.002,0.006-0.003,0.009-0.005,0.015c-0.001,0.002-0.001,0.003-0.002,0.005
		c-0.002,0.004-0.004,0.01-0.005,0.014c-0.001,0.001-0.001,0.003-0.002,0.004c-0.006,0.015-0.012,0.033-0.018,0.048
		c0,0.001-0.001,0.003-0.001,0.004c-0.002,0.004-0.003,0.009-0.005,0.014c-0.001,0.002-0.001,0.004-0.002,0.006
		c-0.002,0.004-0.004,0.01-0.005,0.014c0,0.001-0.001,0.002-0.001,0.004c-0.005,0.015-0.012,0.033-0.018,0.048
		c0,0.001-0.001,0.002-0.001,0.003c-0.002,0.006-0.003,0.009-0.006,0.015c0,0.001-0.001,0.002-0.001,0.003
		c-0.002,0.006-0.004,0.01-0.006,0.016c0,0.001-0.001,0.002-0.001,0.002c-0.052,0.144-0.104,0.287-0.155,0.431l1.696,0.602
		c0.161-0.455,0.329-0.907,0.504-1.355L3.388,31.871L3.388,31.871z M2.385,34.698c-0.001,0.003-0.001,0.005-0.002,0.008
		c-0.001,0.003-0.002,0.005-0.003,0.008s-0.003,0.009-0.004,0.012c-0.001,0.002-0.001,0.005-0.002,0.007
		c-0.001,0.005-0.003,0.009-0.004,0.014c0,0.001-0.001,0.002-0.001,0.003c-0.005,0.017-0.011,0.034-0.016,0.051
		c0,0.001,0,0.002-0.001,0.002c-0.002,0.006-0.003,0.01-0.005,0.017c0,0.001,0,0.001-0.001,0.002
		c-0.138,0.435-0.271,0.872-0.397,1.311l1.73,0.498c0.134-0.464,0.274-0.925,0.421-1.383L2.385,34.698L2.385,34.698z M1.555,37.58
		c-0.004,0.015-0.008,0.03-0.011,0.045v0.001c-0.083,0.325-0.162,0.651-0.239,0.978v0.001c-0.002,0.007-0.003,0.014-0.005,0.021
		v0.002c-0.003,0.015-0.007,0.029-0.01,0.044c-0.001,0.003-0.001,0.003-0.001,0.006c-0.001,0.005-0.002,0.01-0.003,0.014
		c-0.001,0.003-0.002,0.007-0.002,0.01c-0.001,0.004-0.002,0.007-0.002,0.011c-0.001,0.003-0.002,0.009-0.003,0.012
		c-0.001,0.002-0.001,0.005-0.002,0.007c-0.024,0.102-0.047,0.205-0.07,0.308l1.757,0.393c0.105-0.471,0.218-0.94,0.337-1.406
		L1.555,37.58L1.555,37.58z M0.9,40.507c-0.001,0.003-0.001,0.004-0.001,0.008c0,0.001,0,0.002-0.001,0.003
		c-0.001,0.006-0.002,0.011-0.003,0.017l0,0c-0.003,0.018-0.007,0.037-0.01,0.055c0,0.001,0,0.002-0.001,0.003
		c-0.001,0.005-0.002,0.01-0.003,0.015c0,0.002-0.001,0.004-0.001,0.006c-0.001,0.005-0.002,0.01-0.003,0.014
		c0,0.002-0.001,0.004-0.001,0.006c-0.001,0.005-0.002,0.01-0.003,0.015c0,0.001-0.001,0.003-0.001,0.004
		c-0.002,0.011-0.004,0.022-0.006,0.034v0.001c-0.001,0.005-0.002,0.009-0.003,0.013c0,0.003-0.001,0.005-0.001,0.008
		c-0.001,0.005-0.001,0.007-0.002,0.012c-0.001,0.003-0.001,0.007-0.002,0.01s-0.001,0.008-0.002,0.011
		c-0.001,0.004-0.001,0.007-0.002,0.011c-0.001,0.003-0.001,0.006-0.002,0.01c-0.001,0.005-0.002,0.009-0.003,0.014
		c-0.001,0.003-0.001,0.004-0.001,0.008c-0.001,0.007-0.003,0.014-0.004,0.021c-0.001,0.003-0.001,0.003-0.001,0.006
		c-0.001,0.005-0.002,0.01-0.003,0.015c0,0.002-0.001,0.005-0.001,0.007c-0.001,0.005-0.002,0.01-0.003,0.015
		c-0.001,0.003-0.001,0.003-0.001,0.006c-0.001,0.005-0.002,0.011-0.003,0.016c0,0.002-0.001,0.004-0.001,0.006
		c-0.003,0.015-0.005,0.03-0.008,0.044l0,0c-0.001,0.007-0.003,0.015-0.004,0.022c0,0.002,0,0.002-0.001,0.003
		c-0.001,0.007-0.002,0.013-0.004,0.02l-0.001,0.003c-0.062,0.337-0.12,0.676-0.174,1.016l0,0l1.777,0.286
		c0.077-0.477,0.161-0.951,0.251-1.424L0.9,40.507L0.9,40.507z M0.423,43.469c-0.064,0.493-0.122,0.993-0.172,1.49l1.791,0.179
		c0.048-0.481,0.103-0.96,0.166-1.437L0.423,43.469L0.423,43.469z M0.124,46.453c-0.01,0.137-0.019,0.276-0.027,0.414
		c0,0.001,0,0.001,0,0.002c0,0.005-0.001,0.01-0.001,0.015c0,0.002,0,0.005,0,0.007c0,0.003-0.001,0.009-0.001,0.013
		c0,0.003,0,0.006-0.001,0.01c0,0.003,0,0.008-0.001,0.011c0,0.004,0,0.008-0.001,0.012c0,0.002,0,0.007-0.001,0.009
		c0,0.006-0.001,0.013-0.001,0.019c0,0.002,0,0.001,0,0.002c0,0.008-0.001,0.015-0.001,0.023l0,0c0,0.007-0.001,0.015-0.001,0.022
		c0,0.002,0,0.002,0,0.004c0,0.007-0.001,0.013-0.001,0.02v0.002c0,0.007-0.001,0.015-0.001,0.022c0,0.002,0-0.001,0,0
		c-0.017,0.296-0.032,0.593-0.044,0.89l1.799,0.072c0.019-0.483,0.046-0.965,0.08-1.444L0.124,46.453L0.124,46.453z M0.003,49.45
		c0,0.039-0.001,0.078-0.001,0.117c0,0.002,0,0.002,0,0.004c0,0.003,0,0.007,0,0.01s0,0.008,0,0.011c0,0.002,0,0.004,0,0.006
		c0,0.005,0,0.012,0,0.017v0.001C0.001,49.717,0,49.817,0,49.918c0,0.001,0,0.003,0,0.004c0,0.003,0,0.012,0,0.015
		c0,0.002,0,0.004,0,0.006c0,0.003,0,0.009,0,0.013c0,0.002,0,0.005,0,0.007c0,0.003,0,0.01,0,0.013c0,0.002,0,0.004,0,0.006
		C0,49.988,0,49.993,0,50l0,0c0,0.007,0,0.011,0,0.018c0,0.002,0,0.004,0,0.006c0,0.003,0,0.01,0,0.013c0,0.002,0,0.004,0,0.006
		c0,0.007,0,0.011,0,0.018c0,0.001,0,0.001,0,0.002c0,0.005,0,0.011,0,0.016c0,0.002,0,0.004,0,0.006c0,0.003,0,0.01,0,0.014
		c0,0.002,0,0.003,0,0.005c0,0.007,0,0.012,0,0.018c0,0.001,0,0.002,0,0.002c0,0.007,0,0.009,0,0.016c0,0.001,0,0.003,0,0.005
		c0,0.005,0,0.01,0,0.015c0,0.001,0,0.002,0,0.004c0,0.007,0,0.012,0,0.019c0,0.001,0,0.001,0,0.002c0,0.007,0,0.01,0,0.017
		c0,0.001,0,0.003,0,0.004c0,0.013,0,0.025,0,0.038c0,0.001,0,0.001,0,0.002c0,0.007,0,0.011,0,0.018c0,0.001,0,0.001,0,0.002
		c0,0.013,0,0.026,0,0.039v0.001c0,0.007,0,0.012,0,0.019v0.001c0.001,0.21,0.004,0.418,0.008,0.628l1.8-0.034
		C1.803,50.613,1.8,50.307,1.8,50c0-0.177,0.001-0.354,0.003-0.53L0.003,49.45L0.003,49.45z M1.857,52.363L0.059,52.45
		c0.018,0.381,0.041,0.759,0.068,1.138c0,0,0,0,0,0.001c0,0.007,0.001,0.012,0.001,0.018c0,0.001,0,0.002,0,0.003
		c0,0.007,0.001,0.011,0.001,0.018c0,0.001,0,0.002,0,0.003c0,0.007,0.001,0.011,0.001,0.018v0.001
		c0.001,0.012,0.002,0.021,0.002,0.033c0,0.002,0,0.004,0,0.007s0.001,0.007,0.001,0.011s0.001,0.008,0.001,0.011
		c0,0.003,0,0.006,0.001,0.01c0,0.004,0.001,0.009,0.001,0.013c0,0.003,0,0.005,0.001,0.008c0,0.005,0.001,0.01,0.001,0.016
		c0,0.002,0,0.004,0,0.006c0.005,0.062,0.009,0.123,0.014,0.185l1.795-0.14C1.911,53.328,1.88,52.847,1.857,52.363L1.857,52.363z
		 M2.082,55.248l-1.79,0.194c0.054,0.498,0.115,0.995,0.184,1.489l1.783-0.247C2.193,56.207,2.134,55.728,2.082,55.248L2.082,55.248
		z M2.479,58.111l-1.775,0.301c0.013,0.077,0.026,0.154,0.04,0.231v0.001c0.001,0.007,0.002,0.014,0.004,0.02
		c0,0.002,0.001,0.003,0.001,0.005c0.001,0.005,0.002,0.011,0.003,0.016c0,0.002,0.001,0.006,0.001,0.007
		c0.001,0.005,0.002,0.009,0.002,0.014c0.001,0.003,0.001,0.005,0.001,0.008c0.001,0.004,0.001,0.007,0.002,0.011
		c0.001,0.008,0.003,0.018,0.005,0.026c0,0.001,0,0.003,0.001,0.004c0.001,0.005,0.002,0.01,0.003,0.015
		c0,0.002,0.001,0.003,0.001,0.005c0.001,0.006,0.002,0.01,0.003,0.016c0,0.001,0,0.002,0.001,0.003
		c0.001,0.006,0.002,0.011,0.003,0.017l0,0c0.033,0.186,0.067,0.371,0.102,0.556c0,0.001,0,0.001,0,0.002
		c0.001,0.006,0.002,0.012,0.003,0.018v0.001c0.003,0.018,0.007,0.035,0.01,0.053c0,0.002,0.001,0.003,0.001,0.005
		c0.001,0.005,0.001,0.008,0.002,0.013c0.001,0.003,0.001,0.006,0.002,0.009s0.002,0.008,0.002,0.011
		c0.001,0.003,0.001,0.007,0.002,0.01S0.9,59.497,0.901,59.5c0.001,0.004,0.001,0.007,0.002,0.011
		c0.001,0.003,0.001,0.007,0.002,0.01c0.001,0.007,0.003,0.014,0.004,0.02c0,0.002,0,0.002,0.001,0.004
		c0.001,0.006,0.002,0.012,0.004,0.018c0,0.002,0.001,0.004,0.001,0.005c0.001,0.006,0.002,0.011,0.003,0.017
		c0,0.002,0.001,0.003,0.001,0.005c0.001,0.006,0.002,0.013,0.004,0.019c0,0.002,0,0.001,0,0.002
		c0.018,0.092,0.036,0.183,0.054,0.275l1.765-0.354C2.648,59.062,2.56,58.588,2.479,58.111L2.479,58.111z M3.048,60.946
		l-1.753,0.407c0.092,0.396,0.189,0.79,0.29,1.182c0,0.002,0.001,0.006,0.002,0.007c0.001,0.004,0.002,0.009,0.003,0.013
		c0.001,0.003,0.002,0.007,0.003,0.01s0.002,0.006,0.002,0.009c0.001,0.005,0.002,0.008,0.003,0.013
		c0,0.002,0.001,0.003,0.001,0.005c0.019,0.072,0.038,0.145,0.057,0.217l1.74-0.46C3.273,61.884,3.157,61.417,3.048,60.946
		L3.048,60.946z M3.786,63.741L2.06,64.253c0.009,0.03,0.018,0.06,0.027,0.089v0.001c0.002,0.007,0.004,0.014,0.006,0.021
		c0,0.002,0,0.001,0.001,0.002c0.002,0.007,0.004,0.014,0.006,0.021c0,0.002,0-0.001,0,0c0.002,0.007,0.004,0.015,0.007,0.022
		c0,0.002,0-0.001,0,0.001c0.002,0.007,0.004,0.013,0.006,0.02c0,0.002,0.002,0.005,0.002,0.007
		c0.001,0.005,0.003,0.009,0.004,0.014c0.001,0.003,0.002,0.005,0.002,0.008c0.001,0.004,0.002,0.008,0.004,0.012
		c0.001,0.003,0.002,0.006,0.003,0.009c0.001,0.004,0.002,0.008,0.003,0.011c0.002,0.008,0.004,0.014,0.007,0.022
		c0.001,0.002,0.001,0.004,0.002,0.005c0.001,0.005,0.003,0.009,0.004,0.014c0.001,0.002,0.001,0.004,0.002,0.007
		c0.001,0.005,0.003,0.009,0.004,0.014c0.001,0.002,0.001,0.004,0.002,0.005c0.001,0.005,0.003,0.01,0.004,0.015
		c0,0.001,0.001,0.002,0.001,0.003c0.113,0.371,0.23,0.74,0.351,1.107l1.709-0.564C4.068,64.663,3.924,64.204,3.786,63.741
		L3.786,63.741z M4.693,66.486l-1.691,0.616c0.019,0.051,0.037,0.103,0.056,0.154v0.001c0.003,0.007,0.005,0.014,0.008,0.021v0.001
		c0.005,0.014,0.01,0.028,0.016,0.043c0.001,0.001,0.001,0.002,0.001,0.004c0.002,0.006,0.004,0.011,0.006,0.017
		c0.001,0.003,0.001,0.002,0.002,0.005c0.002,0.005,0.004,0.01,0.006,0.015c0.001,0.001,0.002,0.005,0.002,0.006
		c0.002,0.005,0.004,0.011,0.006,0.016c0.001,0.001,0.001,0.003,0.002,0.004c0.002,0.007,0.005,0.013,0.007,0.02
		c0.001,0.003,0.001,0.004,0.003,0.007c0.002,0.004,0.003,0.009,0.005,0.013c0.001,0.003,0.002,0.006,0.003,0.009
		c0.001,0.004,0.003,0.007,0.004,0.011c0.001,0.003,0.003,0.007,0.004,0.01c0.001,0.004,0.003,0.008,0.004,0.011
		s0.002,0.005,0.003,0.008c0.002,0.006,0.005,0.013,0.007,0.019c0.001,0.003,0.002,0.005,0.003,0.008
		c0.001,0.004,0.003,0.008,0.004,0.012c0.001,0.003,0.003,0.007,0.004,0.01s0.003,0.007,0.004,0.01s0.003,0.007,0.004,0.01
		c0.001,0.004,0.003,0.008,0.004,0.011s0.002,0.006,0.003,0.009c0.002,0.005,0.004,0.01,0.006,0.015
		c0.001,0.003,0.003,0.007,0.004,0.01c0.002,0.005,0.004,0.01,0.006,0.015c0.001,0.003,0.002,0.005,0.003,0.008
		c0.002,0.004,0.003,0.008,0.005,0.012c0.001,0.003,0.002,0.006,0.003,0.009c0.002,0.004,0.003,0.008,0.005,0.012
		c0.001,0.001,0.002,0.006,0.003,0.008c0.002,0.005,0.004,0.01,0.006,0.015c0.001,0.001,0.001,0.003,0.002,0.005
		c0.003,0.007,0.005,0.013,0.008,0.02c0.001,0.001,0.001,0.003,0.002,0.004c0.002,0.005,0.004,0.011,0.006,0.016
		c0.001,0.001,0.002,0.005,0.002,0.006c0.002,0.005,0.004,0.01,0.006,0.015c0.001,0.001,0.002,0.004,0.002,0.006
		c0.002,0.006,0.005,0.012,0.007,0.018l0.001,0.002c0.005,0.014,0.011,0.028,0.016,0.042c0.001,0.001,0.001,0.002,0.001,0.004
		c0.002,0.006,0.005,0.012,0.007,0.018l0.001,0.003c0.002,0.007,0.005,0.013,0.007,0.019v0.001c0.084,0.219,0.169,0.437,0.255,0.654
		l1.672-0.666C5.029,67.39,4.858,66.94,4.693,66.486L4.693,66.486z M5.763,69.171l-1.651,0.717c0.199,0.459,0.405,0.915,0.618,1.367
		l1.629-0.766C6.153,70.053,5.955,69.614,5.763,69.171L5.763,69.171z M6.993,71.788l-1.605,0.815
		c0.028,0.055,0.056,0.11,0.084,0.165c0.001,0.001,0.002,0.004,0.003,0.005c0.002,0.004,0.005,0.009,0.007,0.013
		c0.001,0.001,0.003,0.006,0.004,0.008c0.002,0.003,0.003,0.006,0.005,0.01c0.194,0.377,0.394,0.755,0.597,1.126l1.58-0.863
		C7.436,72.644,7.212,72.218,6.993,71.788L6.993,71.788z M8.379,74.325l-1.553,0.91c0.002,0.004,0.004,0.007,0.007,0.011v0.001
		c0.003,0.005,0.006,0.01,0.009,0.015c0.001,0.001,0.001,0.002,0.002,0.003c0.003,0.005,0.005,0.009,0.008,0.014
		c0,0.001,0.001,0.001,0.001,0.002c0.006,0.009,0.01,0.017,0.016,0.027c0.001,0.002,0.002,0.003,0.003,0.005
		c0.002,0.004,0.004,0.007,0.006,0.011c0.002,0.003,0.003,0.005,0.005,0.008c0.002,0.003,0.004,0.007,0.005,0.009
		c0.002,0.003,0.004,0.007,0.006,0.01s0.003,0.005,0.005,0.008c0.003,0.006,0.007,0.011,0.01,0.017v0.001
		c0.004,0.006,0.007,0.013,0.011,0.019c0.001,0.001,0.002,0.003,0.002,0.004c0.003,0.005,0.006,0.011,0.009,0.016
		c0.001,0.001,0.001,0.002,0.002,0.003c0.003,0.006,0.007,0.012,0.01,0.017l0.001,0.001c0.191,0.323,0.385,0.643,0.583,0.961
		c0.001,0.001,0,0,0.001,0.001c0.004,0.006,0.007,0.011,0.011,0.017c0.001,0.001,0.001,0.002,0.002,0.003
		c0.003,0.005,0.007,0.011,0.01,0.016c0.001,0.001,0.001,0.002,0.002,0.003c0.004,0.006,0.007,0.012,0.011,0.018
		c0.002,0.004,0.004,0.006,0.006,0.01c0.001,0.002,0.003,0.005,0.004,0.007c0.003,0.005,0.005,0.008,0.008,0.013
		c0.001,0.001,0.001,0.002,0.002,0.003c0.006,0.009,0.012,0.019,0.018,0.028l1.525-0.956C8.873,75.154,8.623,74.741,8.379,74.325
		L8.379,74.325z M9.915,76.775l-1.496,1.001c0.278,0.416,0.563,0.827,0.853,1.234l1.465-1.046
		C10.457,77.573,10.183,77.176,9.915,76.775L9.915,76.775z M11.595,79.129l-1.433,1.089c0.198,0.261,0.4,0.521,0.603,0.778
		c0.001,0.001-0.001-0.001,0,0c0.014,0.018,0.028,0.036,0.043,0.054c0.001,0.001,0.001,0.001,0.002,0.003
		c0.004,0.005,0.008,0.01,0.012,0.015c0.001,0.001,0.002,0.002,0.003,0.003c0.004,0.006,0.009,0.011,0.013,0.017l0,0
		c0.005,0.006,0.01,0.012,0.014,0.018l0,0c0.004,0.006,0.009,0.011,0.013,0.017c0.001,0.001,0.002,0.003,0.003,0.004
		c0.004,0.005,0.007,0.009,0.011,0.014c0.001,0.001,0.002,0.003,0.003,0.004c0.004,0.005,0.008,0.011,0.013,0.016l0.001,0.001
		c0.005,0.006,0.01,0.012,0.014,0.018c0.001,0.001,0-0.001,0,0.001c0.004,0.006,0.009,0.011,0.013,0.017
		c0.001,0.001,0.002,0.002,0.003,0.003c0.004,0.005,0.008,0.01,0.011,0.014c0.001,0.001,0.002,0.002,0.003,0.003
		c0.014,0.018,0.028,0.035,0.042,0.053c0.001,0.001,0,0,0.001,0.002c0.004,0.005,0.009,0.011,0.013,0.016
		c0.001,0.001,0,0,0.001,0.002c0.029,0.036,0.058,0.073,0.088,0.109l1.4-1.131C12.184,79.893,11.886,79.513,11.595,79.129
		L11.595,79.129z M13.412,81.379l-1.366,1.172c0.086,0.1,0.173,0.201,0.26,0.3c0.001,0.001,0.001,0.002,0.002,0.003
		c0.004,0.004,0.008,0.009,0.011,0.013c0.002,0.002,0.003,0.003,0.005,0.005c0.003,0.004,0.006,0.007,0.009,0.011
		c0.002,0.002,0.003,0.004,0.005,0.006c0.003,0.003,0.006,0.006,0.008,0.01c0.005,0.006,0.009,0.01,0.014,0.016
		c0.001,0.002,0.003,0.003,0.004,0.005c0.003,0.004,0.007,0.008,0.01,0.011c0.001,0.001,0.002,0.002,0.003,0.003
		c0.004,0.005,0.006,0.007,0.011,0.012c0.001,0.001,0.001,0.001,0.002,0.002c0.214,0.244,0.43,0.486,0.649,0.726l1.33-1.213
		C14.046,82.106,13.726,81.745,13.412,81.379L13.412,81.379z M15.361,83.517l-1.293,1.252c0.096,0.099,0.19,0.195,0.286,0.293
		l0.001,0.001c0.004,0.004,0.008,0.008,0.012,0.012l0.001,0.001c0.013,0.013,0.024,0.025,0.038,0.038l0.001,0.001
		c0.003,0.003,0.008,0.008,0.011,0.011c0.001,0.001,0.003,0.003,0.004,0.004c0.003,0.003,0.007,0.007,0.01,0.01
		c0.002,0.002,0.003,0.003,0.005,0.005c0.011,0.011,0.023,0.023,0.034,0.034c0.001,0.001,0.002,0.002,0.003,0.003
		c0.003,0.003,0.006,0.006,0.01,0.01c0.002,0.002,0.003,0.003,0.005,0.005c0.003,0.003,0.006,0.006,0.009,0.009
		c0.002,0.002,0.003,0.003,0.005,0.005c0.011,0.011,0.021,0.021,0.032,0.032c0.002,0.002,0.004,0.004,0.005,0.006
		c0.003,0.003,0.006,0.006,0.009,0.009c0.002,0.002,0.004,0.004,0.005,0.005c0.003,0.003,0.006,0.006,0.01,0.01
		c0.002,0.002,0.003,0.003,0.005,0.005c0.011,0.011,0.023,0.023,0.034,0.034c0.001,0.001,0.002,0.002,0.003,0.003
		c0.003,0.003,0.007,0.007,0.01,0.01c0.002,0.002,0.003,0.003,0.005,0.005c0.003,0.003,0.006,0.006,0.009,0.009
		c0.002,0.002,0.003,0.003,0.005,0.005c0.003,0.003,0.006,0.006,0.009,0.009c0.001,0.001,0.001,0.001,0.002,0.002
		c0.008,0.008,0.015,0.015,0.022,0.022c0.001,0.001,0.002,0.002,0.003,0.003c0.003,0.003,0.007,0.007,0.011,0.011
		c0.001,0.001,0.002,0.002,0.003,0.003c0.004,0.004,0.007,0.007,0.011,0.011c0.001,0.001,0.002,0.002,0.003,0.003
		c0.017,0.017,0.034,0.034,0.051,0.051l0.001,0.001c0.124,0.123,0.25,0.247,0.375,0.369l1.256-1.29
		C16.036,84.204,15.696,83.863,15.361,83.517L15.361,83.517z M17.433,85.534l-1.217,1.327c0.029,0.026,0.057,0.052,0.086,0.079
		c0.001,0.001,0,0,0.001,0.001c0.005,0.004,0.01,0.009,0.015,0.013c0.001,0.001,0.002,0.002,0.003,0.003
		c0.004,0.004,0.009,0.008,0.013,0.012c0.001,0.001,0.003,0.002,0.004,0.004c0.005,0.005,0.01,0.009,0.015,0.014
		c0.002,0.002,0.005,0.005,0.008,0.007c0.003,0.002,0.005,0.005,0.008,0.007c0.003,0.003,0.005,0.005,0.009,0.008
		c0.002,0.002,0.004,0.004,0.007,0.006c0.003,0.003,0.006,0.006,0.01,0.009c0.001,0.001,0.002,0.002,0.003,0.003
		c0.272,0.247,0.546,0.49,0.823,0.731c0.001,0.001,0.002,0.002,0.003,0.003c0.005,0.004,0.007,0.006,0.012,0.01
		c0.001,0.001,0.002,0.002,0.003,0.003c0.011,0.009,0.024,0.021,0.035,0.03c0.002,0.002,0.005,0.004,0.007,0.006
		s0.006,0.005,0.008,0.007c0.003,0.002,0.005,0.005,0.008,0.007c0.002,0.002,0.006,0.005,0.008,0.007
		c0.003,0.003,0.006,0.005,0.009,0.008c0.002,0.002,0.005,0.004,0.007,0.006c0.005,0.004,0.01,0.009,0.015,0.013l0.001,0.001
		l1.176-1.362C18.149,86.18,17.788,85.86,17.433,85.534L17.433,85.534z M19.622,87.424l-1.135,1.397
		c0.109,0.088,0.218,0.176,0.327,0.264l0.002,0.001c0.006,0.005,0.011,0.009,0.017,0.014h0.001c0.012,0.009,0.023,0.019,0.035,0.028
		c0.001,0.001,0.003,0.003,0.005,0.004c0.004,0.003,0.008,0.006,0.012,0.01c0.002,0.002,0.003,0.003,0.006,0.005
		c0.004,0.003,0.007,0.006,0.011,0.009c0.002,0.002,0.004,0.003,0.007,0.005s0.006,0.005,0.009,0.007
		c0.006,0.005,0.011,0.009,0.017,0.014c0.002,0.001,0.003,0.003,0.005,0.004c0.004,0.003,0.007,0.006,0.011,0.009
		c0.002,0.001,0.003,0.003,0.005,0.004c0.004,0.003,0.008,0.006,0.012,0.009c0.001,0.001,0.002,0.002,0.003,0.002
		c0.229,0.182,0.462,0.363,0.694,0.54l1.093-1.43C20.375,88.027,19.996,87.728,19.622,87.424L19.622,87.424z M21.92,89.181
		l-1.05,1.462c0.139,0.1,0.275,0.196,0.414,0.294c0.001,0,0.001,0.001,0.002,0.001c0.004,0.003,0.007,0.005,0.011,0.008
		c0.002,0.002,0.004,0.003,0.007,0.005s0.008,0.005,0.01,0.007c0.002,0.002,0.005,0.003,0.007,0.005
		c0.004,0.003,0.006,0.004,0.01,0.007c0.004,0.003,0.008,0.005,0.011,0.008c0.003,0.002,0.007,0.005,0.01,0.007
		c0.004,0.003,0.009,0.006,0.013,0.009c0.001,0.001,0.005,0.003,0.006,0.004c0.004,0.003,0.008,0.006,0.012,0.009
		c0.003,0.002,0.003,0.002,0.005,0.004c0.005,0.003,0.009,0.006,0.014,0.01c0.001,0.001,0.003,0.002,0.004,0.003
		c0.012,0.009,0.024,0.017,0.037,0.026l0.002,0.001c0.006,0.004,0.011,0.008,0.017,0.012l0.003,0.002
		c0.006,0.004,0.012,0.008,0.018,0.012l0,0c0.173,0.12,0.347,0.24,0.521,0.358l0.001,0.001c0.006,0.004,0.012,0.008,0.018,0.012
		c0.001,0.001,0.001,0,0.002,0.001c0.013,0.008,0.025,0.017,0.038,0.026l0.002,0.001c0.005,0.004,0.011,0.007,0.016,0.011
		c0.001,0.001,0.004,0.002,0.005,0.003c0.004,0.003,0.009,0.006,0.013,0.009c0.001,0.001,0.002,0.001,0.003,0.002l1.006-1.493
		C22.707,89.737,22.311,89.462,21.92,89.181L21.92,89.181z M24.318,90.796l-0.96,1.522c0.059,0.037,0.119,0.075,0.178,0.112
		l0.001,0.001c0.006,0.004,0.012,0.008,0.019,0.012l0.001,0.001c0.013,0.008,0.025,0.016,0.038,0.023
		c0.001,0.001,0.005,0.003,0.007,0.004c0.004,0.002,0.007,0.005,0.011,0.007c0.003,0.002,0.006,0.003,0.008,0.005
		c0.003,0.002,0.006,0.004,0.009,0.006c0.004,0.002,0.006,0.004,0.01,0.006c0.002,0.001,0.003,0.002,0.004,0.003
		c0.015,0.009,0.028,0.018,0.043,0.027c0.001,0,0.001,0.001,0.002,0.001c0.315,0.195,0.63,0.386,0.95,0.575l0.914-1.55
		C25.137,91.304,24.726,91.053,24.318,90.796L24.318,90.796z M26.809,92.265l-0.867,1.577c0.119,0.065,0.239,0.131,0.358,0.195
		c0,0,0.001,0,0.001,0.001c0.022,0.012,0.042,0.023,0.064,0.035c0.001,0,0.001,0.001,0.002,0.001
		c0.006,0.003,0.009,0.005,0.014,0.008c0.001,0.001,0.003,0.001,0.004,0.002c0.004,0.002,0.01,0.005,0.014,0.007
		c0.001,0.001,0.003,0.002,0.004,0.002c0.014,0.007,0.028,0.015,0.042,0.022c0.002,0.001,0.004,0.002,0.006,0.003
		c0.004,0.002,0.007,0.004,0.011,0.006c0.003,0.001,0.005,0.003,0.008,0.004c0.004,0.002,0.007,0.003,0.011,0.006
		c0.003,0.002,0.006,0.003,0.009,0.005c0.003,0.001,0.007,0.004,0.01,0.005c0.006,0.003,0.011,0.006,0.017,0.009
		c0.003,0.001,0.006,0.003,0.009,0.005c0.004,0.002,0.007,0.004,0.011,0.006c0.003,0.001,0.005,0.003,0.008,0.004
		c0.004,0.002,0.007,0.004,0.011,0.006c0.003,0.001,0.005,0.003,0.008,0.004c0.004,0.002,0.009,0.005,0.013,0.007
		c0.003,0.001,0.003,0.002,0.006,0.003c0.006,0.003,0.012,0.007,0.019,0.01c0.001,0.001,0.002,0.001,0.003,0.002
		c0.005,0.003,0.011,0.006,0.016,0.009c0.001,0.001,0.004,0.002,0.005,0.003c0.005,0.003,0.01,0.005,0.015,0.008
		c0.001,0.001,0.004,0.002,0.005,0.003c0.006,0.003,0.011,0.006,0.017,0.009l0.002,0.001c0.014,0.007,0.027,0.014,0.041,0.022l0,0
		c0.007,0.003,0.013,0.007,0.02,0.01l0.002,0.001c0.179,0.095,0.359,0.188,0.54,0.28l0.82-1.603
		C27.657,92.723,27.231,92.497,26.809,92.265L26.809,92.265z M29.383,93.581l-0.771,1.627l0.001,0.001
		c0.006,0.003,0.012,0.006,0.018,0.009c0.004,0.002,0.007,0.003,0.011,0.005c0.002,0.001,0.005,0.002,0.007,0.004
		c0.004,0.002,0.008,0.004,0.012,0.006c0.002,0.001,0.004,0.002,0.006,0.003c0.004,0.002,0.009,0.004,0.013,0.006
		c0.001,0,0.002,0.001,0.002,0.001c0.2,0.094,0.398,0.186,0.6,0.278c0,0,0.001,0,0.001,0.001c0.006,0.003,0.01,0.004,0.015,0.007
		c0.001,0.001,0.002,0.001,0.003,0.002c0.006,0.003,0.009,0.004,0.015,0.007c0.001,0,0.002,0.001,0.003,0.001
		c0.013,0.006,0.03,0.014,0.043,0.019c0.003,0.001,0.006,0.003,0.009,0.004s0.007,0.003,0.01,0.004
		c0.003,0.002,0.007,0.003,0.01,0.005c0.003,0.001,0.006,0.003,0.009,0.004c0.005,0.002,0.009,0.004,0.014,0.006
		c0.003,0.001,0.002,0.001,0.005,0.002c0.007,0.003,0.013,0.006,0.02,0.009h0.001c0.006,0.003,0.013,0.006,0.019,0.009
		c0.001,0.001,0.003,0.001,0.004,0.002c0.006,0.002,0.011,0.005,0.017,0.007l0.003,0.002c0.006,0.003,0.013,0.006,0.019,0.009h0.001
		c0.157,0.071,0.314,0.14,0.472,0.209l0.721-1.649C30.257,93.987,29.818,93.787,29.383,93.581L29.383,93.581z M32.032,94.74
		l-0.671,1.67c0.275,0.11,0.55,0.218,0.827,0.324c0.001,0.001,0.002,0.001,0.004,0.001c0.006,0.002,0.011,0.004,0.017,0.006
		c0.001,0.001,0.004,0.001,0.005,0.002c0.006,0.002,0.011,0.004,0.017,0.006c0.001,0.001,0.003,0.001,0.004,0.002
		c0.007,0.003,0.014,0.005,0.02,0.008c0.001,0.001,0.003,0.001,0.005,0.002c0.005,0.002,0.01,0.004,0.015,0.006
		c0.001,0.001,0.007,0.003,0.008,0.003c0.004,0.001,0.008,0.003,0.012,0.004c0.003,0.001,0.007,0.002,0.009,0.004
		c0.003,0.001,0.007,0.002,0.01,0.004c0.004,0.002,0.006,0.002,0.011,0.004c0.003,0.001,0.005,0.002,0.008,0.003
		c0.007,0.003,0.018,0.007,0.026,0.01c0.001,0,0.002,0.001,0.004,0.001c0.004,0.002,0.009,0.003,0.013,0.005
		c0.002,0.001,0.004,0.002,0.007,0.003c0.006,0.002,0.008,0.003,0.013,0.005c0.002,0.001,0.003,0.001,0.005,0.002
		c0.004,0.002,0.01,0.004,0.015,0.006c0.001,0,0.002,0.001,0.003,0.001c0.024,0.009,0.045,0.017,0.069,0.026
		c0.001,0,0.001,0,0.002,0.001c0.006,0.002,0.011,0.004,0.017,0.006l0,0c0.085,0.032,0.171,0.064,0.256,0.095l0.621-1.69
		C32.928,95.092,32.478,94.919,32.032,94.74L32.032,94.74z M34.745,95.737l-0.569,1.708c0.104,0.035,0.207,0.069,0.311,0.103l0,0
		c0.014,0.005,0.028,0.009,0.042,0.014c0.005,0.001,0.006,0.002,0.01,0.003c0.003,0.001,0.006,0.002,0.009,0.003
		s0.01,0.003,0.013,0.004c0.002,0.001,0.003,0.001,0.005,0.002c0.005,0.001,0.011,0.004,0.016,0.005l0,0
		c0.339,0.11,0.681,0.217,1.024,0.319l0.517-1.724C35.661,96.034,35.202,95.889,34.745,95.737L34.745,95.737z M37.514,96.568
		l-0.465,1.739c0.482,0.129,0.967,0.251,1.455,0.366l0.412-1.752C38.446,96.809,37.979,96.692,37.514,96.568L37.514,96.568z
		 M40.328,97.23l-0.359,1.764c0.489,0.1,0.98,0.192,1.474,0.277l0.306-1.774C41.273,97.415,40.799,97.326,40.328,97.23L40.328,97.23
		z M43.177,97.721l-0.252,1.782c0.112,0.016,0.224,0.031,0.336,0.046c0,0,0,0,0.001,0c0.007,0.001,0.012,0.002,0.019,0.003h0.001
		c0.024,0.003,0.048,0.006,0.073,0.01c0.002,0,0.004,0.001,0.006,0.001c0.005,0.001,0.009,0.001,0.014,0.002
		c0.002,0,0.004,0.001,0.006,0.001c0.003,0,0.011,0.001,0.014,0.002c0.002,0,0.004,0.001,0.007,0.001
		c0.005,0.001,0.009,0.001,0.014,0.002c0.002,0,0.004,0,0.005,0.001c0.016,0.002,0.034,0.004,0.05,0.007
		c0.002,0,0.003,0,0.005,0.001c0.005,0.001,0.01,0.001,0.015,0.002c0.002,0,0.004,0,0.006,0.001c0.005,0.001,0.01,0.001,0.015,0.002
		c0.002,0,0.004,0.001,0.006,0.001c0.005,0.001,0.011,0.001,0.016,0.002c0.001,0,0.002,0,0.003,0c0.026,0.003,0.05,0.006,0.076,0.01
		l0,0c0.007,0.001,0.012,0.002,0.019,0.002h0.001c0.259,0.033,0.52,0.064,0.78,0.093l0.199-1.789
		C44.131,97.849,43.653,97.788,43.177,97.721L43.177,97.721z M46.051,98.041l-0.145,1.794c0.002,0,0.003,0,0.005,0
		c0.004,0,0.008,0.001,0.012,0.001c0.002,0,0.008,0.001,0.01,0.001c0.004,0,0.008,0.001,0.012,0.001c0.003,0,0.007,0.001,0.01,0.001
		s0.007,0.001,0.01,0.001c0.008,0.001,0.016,0.001,0.024,0.002c0.002,0,0.005,0,0.007,0.001c0.005,0,0.009,0.001,0.014,0.001
		c0.002,0,0.005,0,0.007,0.001c0.005,0,0.009,0.001,0.014,0.001c0.002,0,0.004,0,0.007,0.001c0.005,0,0.01,0.001,0.015,0.001
		c0.002,0,0.003,0,0.005,0c0.005,0,0.011,0.001,0.016,0.001h0.001c0.02,0.002,0.037,0.003,0.057,0.004c0.001,0,0.001,0,0.002,0
		c0.005,0,0.011,0.001,0.016,0.001c0.002,0,0.004,0,0.006,0c0.007,0,0.009,0.001,0.015,0.001c0.002,0,0.003,0,0.005,0
		c0.005,0,0.011,0.001,0.016,0.001c0.001,0,0.003,0,0.004,0c0.023,0.002,0.05,0.004,0.073,0.005c0.001,0,0.003,0,0.004,0
		c0.005,0,0.01,0.001,0.015,0.001c0.002,0,0.004,0,0.006,0c0.003,0,0.011,0.001,0.014,0.001s0.005,0,0.008,0.001
		c0.005,0,0.009,0.001,0.014,0.001c0.002,0,0.005,0,0.007,0.001c0.005,0,0.009,0.001,0.014,0.001c0.002,0,0.003,0,0.005,0
		c0.008,0.001,0.018,0.001,0.027,0.002c0.003,0,0.007,0,0.01,0.001c0.003,0,0.007,0.001,0.011,0.001s0.007,0.001,0.011,0.001
		c0.003,0,0.007,0.001,0.01,0.001c0.004,0,0.008,0.001,0.012,0.001c0.003,0,0.006,0,0.009,0.001c0.005,0,0.009,0.001,0.014,0.001
		c0.002,0,0.006,0,0.008,0.001c0.006,0,0.012,0.001,0.019,0.001c0.002,0,0.001,0,0.003,0c0.008,0.001,0.015,0.001,0.023,0.002
		c0.002,0,0.001,0,0.003,0c0.007,0,0.013,0.001,0.02,0.001c0.002,0,0.003,0,0.004,0c0.006,0,0.012,0.001,0.018,0.001
		c0.002,0,0.003,0,0.005,0c0.006,0,0.012,0.001,0.018,0.001c0.002,0,0.002,0,0.004,0c0.031,0.002,0.061,0.004,0.092,0.006h0.001
		c0.008,0,0.015,0.001,0.023,0.001h0.001c0.085,0.006,0.171,0.011,0.256,0.016h0.002c0.007,0,0.014,0.001,0.02,0.001
		c0.002,0,0.002,0,0.003,0c0.007,0,0.014,0.001,0.02,0.001h0.002c0.015,0.001,0.03,0.002,0.045,0.003c0.003,0,0.002,0,0.006,0
		c0.005,0,0.011,0.001,0.016,0.001c0.002,0,0.007,0,0.009,0c0.004,0,0.009,0,0.013,0.001c0.003,0,0.007,0,0.01,0.001
		c0.004,0,0.007,0,0.011,0.001c0.005,0,0.007,0,0.012,0.001c0.002,0,0.005,0,0.007,0c0.09,0.005,0.18,0.01,0.27,0.015l0.092-1.798
		C47.012,98.111,46.53,98.079,46.051,98.041L46.051,98.041z M48.941,98.189l-0.039,1.8c0.298,0.006,0.596,0.01,0.896,0.011
		c0,0,0,0,0.001,0c0.007,0,0.012,0,0.018,0c0.001,0,0.002,0,0.003,0c0.007,0,0.009,0,0.016,0c0.001,0,0.003,0,0.004,0
		c0.007,0,0.01,0,0.017,0c0.001,0,0.001,0,0.002,0c0.013,0,0.026,0,0.039,0c0.001,0,0.003,0,0.004,0c0.005,0,0.01,0,0.015,0
		c0.002,0,0.004,0,0.006,0c0.003,0,0.009,0,0.013,0c0.002,0,0.005,0,0.007,0c0.003,0,0.008,0,0.012,0c0.003,0,0.005,0,0.008,0
		s0.009,0,0.012,0c0.002,0,0.004,0,0.006,0c0.007,0,0.012,0,0.019,0l0,0c0.008,0,0.015,0,0.023,0c0.002,0,0.005,0,0.007,0
		c0.006,0,0.011,0,0.017,0c0.003,0,0.004,0,0.007,0c0.006,0,0.012,0,0.018,0c0.002,0,0.004,0,0.005,0c0.016,0,0.032,0,0.048,0h0.003
		c0.007,0,0.014,0,0.021,0c0.002,0,0.003,0,0.005,0c0.007,0,0.014,0,0.021,0c0.002,0,0.002,0,0.003,0c0.016,0,0.032,0,0.048,0
		c0.002,0,0.004,0,0.005,0c0.006,0,0.012,0,0.017,0c0.003,0,0.006,0,0.009,0c0.004,0,0.009,0,0.013,0c0.005,0,0.006,0,0.011,0
		c0.002,0,0.005,0,0.007,0c0.039,0,0.076,0,0.114-0.001l-0.014-1.8L50,98.2C49.646,98.2,49.293,98.196,48.941,98.189L48.941,98.189z
		 M53.28,98.09c-0.48,0.032-0.961,0.057-1.444,0.075l0.067,1.799c0.086-0.003,0.171-0.007,0.257-0.01c0.002,0,0.001,0,0.003,0
		c0.006,0,0.012-0.001,0.018-0.001c0.002,0,0.005,0,0.007,0c0.005,0,0.01,0,0.015-0.001c0.002,0,0.006,0,0.008,0
		c0.004,0,0.009,0,0.013-0.001c0.003,0,0.006,0,0.009,0c0.005,0,0.01,0,0.015-0.001c0.007,0,0.013-0.001,0.02-0.001
		c0.002,0,0.004,0,0.006,0c0.005,0,0.011,0,0.016-0.001c0.002,0,0.004,0,0.005,0c0.007,0,0.01,0,0.016-0.001
		c0.001,0,0.003,0,0.004,0c0.007,0,0.011,0,0.017-0.001c0.001,0,0.001,0,0.002,0c0.127-0.006,0.252-0.012,0.378-0.019
		c0,0,0,0,0.001,0c0.007,0,0.012-0.001,0.018-0.001c0.001,0,0.002,0,0.003,0c0.007,0,0.011-0.001,0.018-0.001
		c0.001,0,0.001,0,0.002,0c0.018-0.001,0.036-0.002,0.054-0.003c0.002,0,0.004,0,0.005,0c0.005,0,0.008,0,0.013-0.001
		c0.003,0,0.006,0,0.009-0.001c0.003,0,0.008,0,0.011-0.001c0.004,0,0.008,0,0.012-0.001c0.003,0,0.006,0,0.009-0.001
		c0.005,0,0.01-0.001,0.015-0.001c0.002,0,0.005,0,0.007,0c0.007,0,0.014-0.001,0.021-0.001c0.002,0-0.001,0,0.001,0
		c0.023-0.001,0.047-0.003,0.07-0.004l0,0c0.14-0.008,0.28-0.017,0.42-0.026L53.28,98.09L53.28,98.09z M56.158,97.811
		c-0.477,0.061-0.956,0.115-1.437,0.161l0.174,1.792c0.358-0.035,0.715-0.073,1.071-0.116h0.003
		c0.006-0.001,0.012-0.001,0.019-0.002c0.002,0,0.003,0,0.005-0.001c0.005-0.001,0.011-0.001,0.016-0.002
		c0.002,0,0.005-0.001,0.006-0.001c0.006-0.001,0.013-0.002,0.019-0.002c0.005-0.001,0.01-0.001,0.015-0.002
		c0.002,0,0.004-0.001,0.007-0.001c0.007-0.001,0.01-0.001,0.017-0.002c0.001,0,0.002,0,0.003,0c0.104-0.013,0.206-0.025,0.31-0.039
		L56.158,97.811L56.158,97.811z M59.014,97.359c-0.472,0.089-0.947,0.172-1.424,0.247l0.281,1.778
		c0.005-0.001,0.008-0.001,0.013-0.002c0.001,0,0.002,0,0.003-0.001c0.005-0.001,0.011-0.002,0.015-0.002
		c0.002,0,0.004-0.001,0.006-0.001c0.005-0.001,0.009-0.001,0.014-0.002c0.003,0,0.005-0.001,0.008-0.001
		c0.005-0.001,0.009-0.001,0.013-0.002c0.002,0,0.004-0.001,0.006-0.001c0.008-0.001,0.016-0.003,0.024-0.004
		c0.004-0.001,0.007-0.001,0.011-0.002c0.003-0.001,0.006-0.001,0.01-0.002c0.004-0.001,0.008-0.001,0.012-0.002
		c0.003-0.001,0.006-0.001,0.01-0.002c0.004-0.001,0.008-0.001,0.012-0.002c0.003-0.001,0.006-0.001,0.009-0.001
		c0.005-0.001,0.009-0.001,0.014-0.002c0.003-0.001,0.005-0.001,0.008-0.001c0.014-0.002,0.029-0.005,0.043-0.007
		c0.002,0,0.003-0.001,0.005-0.001c0.006-0.001,0.011-0.002,0.017-0.003c0.002,0,0.004-0.001,0.006-0.001
		c0.005-0.001,0.011-0.002,0.016-0.003c0.002,0,0.005-0.001,0.006-0.001c0.006-0.001,0.012-0.002,0.017-0.003l0.004-0.001
		c0.015-0.002,0.03-0.005,0.044-0.007l0.003-0.001c0.006-0.001,0.012-0.002,0.018-0.003c0.002,0,0.005-0.001,0.006-0.001
		c0.005-0.001,0.011-0.002,0.016-0.003c0.002,0,0.005-0.001,0.006-0.001c0.005-0.001,0.011-0.002,0.016-0.003
		c0.002,0,0.004-0.001,0.006-0.001c0.014-0.002,0.029-0.005,0.043-0.007c0.003-0.001,0.003-0.001,0.007-0.001
		c0.005-0.001,0.01-0.002,0.015-0.003c0.003-0.001,0.005-0.001,0.008-0.001c0.004-0.001,0.009-0.001,0.013-0.002
		c0.003-0.001,0.005-0.001,0.009-0.001c0.004-0.001,0.009-0.001,0.013-0.002c0.003-0.001,0.005-0.001,0.009-0.001
		c0.004-0.001,0.008-0.001,0.012-0.002c0.006-0.001,0.011-0.002,0.018-0.003c0.004-0.001,0.008-0.001,0.011-0.002
		c0.003-0.001,0.007-0.001,0.011-0.002c0.003-0.001,0.007-0.001,0.01-0.002s0.009-0.001,0.012-0.002
		c0.003-0.001,0.006-0.001,0.009-0.002s0.009-0.002,0.012-0.002c0.003,0,0.005-0.001,0.008-0.001
		c0.005-0.001,0.009-0.001,0.014-0.002c0.002,0,0.003-0.001,0.005-0.001c0.016-0.003,0.035-0.006,0.051-0.009
		c0.001,0,0.003,0,0.004-0.001c0.006-0.001,0.01-0.002,0.016-0.003c0.001,0,0.002,0,0.003-0.001
		c0.006-0.001,0.011-0.002,0.017-0.003c0.001,0,0.001,0,0.002,0c0.244-0.042,0.484-0.086,0.727-0.132L59.014,97.359L59.014,97.359z
		 M61.837,96.736c-0.466,0.118-0.935,0.229-1.407,0.333l0.388,1.758c0.091-0.02,0.183-0.041,0.274-0.061h0.002
		c0.007-0.002,0.014-0.003,0.021-0.005h0.001c0.022-0.005,0.045-0.01,0.067-0.015c0.002,0,0.002,0,0.004-0.001
		c0.006-0.001,0.012-0.003,0.018-0.004l0.004-0.001c0.006-0.001,0.012-0.003,0.018-0.004c0.002,0,0.002,0,0.004-0.001
		c0.015-0.003,0.029-0.007,0.044-0.01c0.002,0,0.001,0,0.002-0.001c0.006-0.001,0.013-0.003,0.019-0.004
		c0.002,0,0.004-0.001,0.005-0.001c0.005-0.001,0.01-0.002,0.016-0.004c0.003-0.001,0.004-0.001,0.007-0.002
		c0.005-0.001,0.01-0.002,0.015-0.003c0.002,0,0.005-0.001,0.007-0.002c0.006-0.001,0.012-0.003,0.017-0.004
		c0.002,0,0.003-0.001,0.004-0.001c0.007-0.002,0.013-0.003,0.02-0.005c0.003-0.001,0.006-0.001,0.009-0.002
		c0.004-0.001,0.008-0.002,0.012-0.003c0.003-0.001,0.007-0.002,0.01-0.002c0.004-0.001,0.007-0.002,0.011-0.003
		c0.003-0.001,0.007-0.002,0.01-0.002c0.004-0.001,0.007-0.002,0.011-0.003c0.003-0.001,0.007-0.002,0.011-0.002
		c0.003-0.001,0.006-0.002,0.01-0.002c0.008-0.002,0.014-0.003,0.022-0.005c0.002-0.001,0.005-0.001,0.007-0.002
		c0.005-0.001,0.008-0.002,0.013-0.003c0.003-0.001,0.005-0.001,0.008-0.002s0.01-0.002,0.013-0.003
		c0.002-0.001,0.004-0.001,0.007-0.002c0.005-0.001,0.009-0.002,0.014-0.003c0.002,0,0.003-0.001,0.005-0.001
		c0.017-0.004,0.035-0.008,0.052-0.012h0.001c0.005-0.001,0.012-0.003,0.016-0.004c0.001,0,0.003-0.001,0.004-0.001
		c0.006-0.001,0.01-0.002,0.016-0.004c0.001,0,0.002,0,0.002-0.001c0.031-0.007,0.061-0.015,0.092-0.022c0,0,0,0,0.001,0
		c0.177-0.043,0.356-0.087,0.532-0.131L61.837,96.736L61.837,96.736z M64.617,95.944c-0.458,0.146-0.92,0.285-1.384,0.417
		l0.493,1.731c0.086-0.025,0.171-0.049,0.258-0.074h0.001c0.025-0.007,0.048-0.014,0.073-0.021h0.001
		c0.006-0.002,0.01-0.003,0.016-0.005c0.001,0,0.002-0.001,0.003-0.001c0.006-0.002,0.009-0.003,0.015-0.005
		c0.002,0,0.003-0.001,0.005-0.001c0.005-0.001,0.01-0.003,0.014-0.004c0.001,0,0.003-0.001,0.004-0.001
		c0.009-0.003,0.017-0.005,0.026-0.008c0.002-0.001,0.005-0.001,0.007-0.002c0.005-0.001,0.007-0.002,0.011-0.003
		c0.003-0.001,0.006-0.002,0.009-0.003c0.003-0.001,0.008-0.002,0.011-0.003c0.004-0.001,0.007-0.002,0.011-0.003
		c0.003-0.001,0.006-0.002,0.009-0.003c0.004-0.001,0.009-0.003,0.013-0.004c0.003-0.001,0.004-0.001,0.007-0.002
		c0.007-0.002,0.014-0.004,0.021-0.006c0.002,0,0.001,0,0.003-0.001c0.006-0.002,0.012-0.004,0.018-0.005
		c0.002,0,0.004-0.001,0.006-0.002c0.006-0.002,0.011-0.003,0.017-0.005c0.002,0,0.003-0.001,0.004-0.001
		c0.006-0.002,0.012-0.004,0.018-0.005c0.002,0,0.002,0,0.003-0.001c0.015-0.004,0.029-0.009,0.044-0.013h0.001
		c0.007-0.002,0.014-0.004,0.021-0.006c0.002,0,0.001,0,0.003-0.001c0.006-0.002,0.013-0.004,0.019-0.006
		c0.002,0,0.001,0,0.002-0.001c0.022-0.007,0.044-0.013,0.066-0.02l0,0c0.007-0.002,0.014-0.004,0.022-0.007h0.002
		c0.03-0.009,0.059-0.018,0.089-0.027c0.002,0-0.001,0,0.001,0c0.007-0.002,0.014-0.004,0.021-0.006l0.002-0.001
		c0.007-0.002,0.014-0.004,0.021-0.006h0.001c0.014-0.004,0.029-0.009,0.043-0.013c0.002,0,0.002-0.001,0.004-0.001
		c0.006-0.002,0.011-0.003,0.017-0.005c0.003-0.001,0.003-0.001,0.006-0.002c0.005-0.002,0.01-0.003,0.015-0.005
		c0.002,0,0.005-0.002,0.007-0.002c0.005-0.002,0.01-0.003,0.015-0.005c0.003-0.001,0.003-0.001,0.006-0.002
		c0.006-0.002,0.013-0.004,0.019-0.006c0.003-0.001,0.008-0.002,0.011-0.003s0.006-0.002,0.009-0.003
		c0.005-0.001,0.008-0.002,0.012-0.004c0.002-0.001,0.005-0.001,0.007-0.002c0.005-0.001,0.01-0.003,0.015-0.005
		c0.001,0,0.002-0.001,0.003-0.001c0.116-0.036,0.231-0.072,0.347-0.109L64.617,95.944L64.617,95.944z M67.344,94.986
		c-0.449,0.173-0.901,0.34-1.356,0.5l0.597,1.698c0.322-0.113,0.642-0.229,0.961-0.349c0.002-0.001,0.004-0.001,0.006-0.002
		c0.004-0.002,0.007-0.002,0.011-0.004c0.003-0.001,0.007-0.002,0.01-0.004c0.003-0.001,0.006-0.002,0.009-0.003
		c0.005-0.002,0.009-0.003,0.014-0.005c0.001-0.001,0.005-0.002,0.006-0.002c0.131-0.049,0.262-0.099,0.392-0.149L67.344,94.986
		L67.344,94.986z M70.009,93.864c-0.438,0.2-0.879,0.394-1.324,0.581l0.698,1.659c0.216-0.091,0.432-0.184,0.646-0.278l0,0
		c0.028-0.012,0.057-0.025,0.085-0.037c0.001-0.001,0.001,0,0.002-0.001c0.006-0.003,0.013-0.006,0.019-0.008
		c0.001-0.001,0,0,0.002-0.001c0.021-0.009,0.042-0.018,0.062-0.028c0.001-0.001,0.002-0.001,0.003-0.001
		c0.006-0.003,0.011-0.005,0.017-0.008c0.001-0.001,0.003-0.001,0.004-0.002c0.006-0.003,0.011-0.005,0.017-0.008l0.003-0.001
		c0.013-0.006,0.027-0.012,0.04-0.018c0.001-0.001,0.003-0.002,0.005-0.002c0.005-0.002,0.01-0.004,0.015-0.007
		c0.003-0.001,0.004-0.002,0.006-0.003c0.004-0.002,0.009-0.004,0.013-0.006c0.003-0.001,0.004-0.002,0.007-0.003
		c0.005-0.002,0.01-0.005,0.016-0.007c0.003-0.001,0.003-0.001,0.006-0.003c0.006-0.003,0.011-0.005,0.017-0.008
		c0.003-0.001,0.006-0.003,0.008-0.004c0.003-0.002,0.007-0.003,0.01-0.005c0.003-0.001,0.007-0.003,0.01-0.005
		c0.003-0.001,0.006-0.002,0.008-0.004c0.004-0.002,0.007-0.003,0.012-0.005c0.002-0.001,0.004-0.002,0.007-0.003
		c0.014-0.006,0.029-0.013,0.043-0.019c0.001-0.001,0.003-0.001,0.004-0.002c0.006-0.003,0.009-0.004,0.014-0.007
		c0.001,0,0.002-0.001,0.003-0.001c0.006-0.003,0.01-0.004,0.016-0.007h0.001c0.084-0.038,0.165-0.075,0.249-0.113L70.009,93.864
		L70.009,93.864z M72.601,92.584c-0.425,0.226-0.854,0.446-1.287,0.66l0.797,1.614c0.449-0.222,0.894-0.45,1.335-0.684
		L72.601,92.584L72.601,92.584z M75.112,91.15c-0.411,0.251-0.826,0.497-1.245,0.736l0.893,1.563
		c0.37-0.211,0.737-0.427,1.102-0.648c0.001,0,0.001-0.001,0.002-0.001c0.005-0.003,0.01-0.006,0.015-0.009l0.001-0.001
		c0.013-0.008,0.028-0.017,0.041-0.025c0.003-0.002,0.005-0.003,0.008-0.005c0.004-0.002,0.005-0.003,0.009-0.006
		c0.003-0.002,0.006-0.004,0.009-0.006c0.003-0.002,0.006-0.003,0.008-0.005c0.004-0.002,0.007-0.004,0.011-0.007
		c0.003-0.002,0.005-0.003,0.007-0.004c0.012-0.008,0.025-0.015,0.037-0.023l0.003-0.002c0.006-0.003,0.011-0.007,0.017-0.01
		l0.002-0.001c0.006-0.004,0.013-0.008,0.019-0.011L75.112,91.15L75.112,91.15z M77.533,89.568
		c-0.395,0.276-0.795,0.545-1.199,0.809l0.985,1.507c0.056-0.037,0.11-0.072,0.166-0.109c0.001,0,0.001-0.001,0.002-0.001
		c0.005-0.003,0.008-0.005,0.014-0.009c0.002-0.001,0.003-0.002,0.005-0.003c0.004-0.003,0.008-0.005,0.012-0.008
		c0.005-0.004,0.011-0.007,0.016-0.011c0.001-0.001,0.004-0.003,0.005-0.004c0.004-0.003,0.009-0.006,0.013-0.009
		c0.001-0.001,0.004-0.002,0.005-0.003c0.005-0.003,0.01-0.007,0.015-0.01c0.001-0.001,0.001-0.001,0.002-0.002
		c0.332-0.22,0.661-0.444,0.988-0.671L77.533,89.568L77.533,89.568z M79.854,87.844c-0.378,0.299-0.761,0.592-1.148,0.879
		l1.073,1.445c0.065-0.049,0.131-0.097,0.196-0.146c0.001,0,0.001-0.001,0.002-0.001c0.019-0.014,0.037-0.028,0.056-0.042
		c0.001-0.001,0.003-0.002,0.004-0.003c0.004-0.003,0.008-0.006,0.012-0.009c0.001-0.001,0.003-0.002,0.004-0.003
		c0.004-0.003,0.008-0.006,0.012-0.009c0.001-0.001,0.002-0.002,0.003-0.002c0.009-0.007,0.018-0.014,0.027-0.02
		c0,0,0.001,0,0.001-0.001c0.004-0.003,0.007-0.005,0.011-0.008c0.002-0.002,0.004-0.003,0.006-0.005
		c0.004-0.003,0.006-0.004,0.01-0.007c0.003-0.002,0.005-0.004,0.008-0.006c0.002-0.002,0.006-0.005,0.009-0.006
		c0.003-0.002,0.006-0.005,0.009-0.007c0.002-0.002,0.005-0.004,0.007-0.005c0.005-0.004,0.011-0.008,0.016-0.012
		c0.002-0.002,0.004-0.003,0.007-0.005c0.004-0.003,0.007-0.005,0.011-0.008c0.002-0.002,0.005-0.003,0.007-0.005
		c0.004-0.003,0.007-0.005,0.011-0.008c0.001-0.001,0.005-0.004,0.006-0.005c0.004-0.003,0.009-0.007,0.013-0.01
		c0.001-0.001,0.003-0.002,0.004-0.003c0.006-0.004,0.012-0.009,0.017-0.013c0.001-0.001,0.001-0.001,0.003-0.002
		c0.005-0.004,0.01-0.008,0.015-0.012c0.001-0.001,0.002-0.002,0.004-0.003c0.005-0.004,0.01-0.008,0.015-0.011
		c0.001-0.001,0.002-0.001,0.003-0.002c0.018-0.014,0.036-0.028,0.054-0.041c0.001-0.001,0,0,0.001-0.001
		c0.006-0.005,0.012-0.009,0.018-0.014c0.001-0.001-0.001,0.001,0,0c0.205-0.157,0.408-0.315,0.61-0.475L79.854,87.844
		L79.854,87.844z M82.069,85.984c-0.36,0.321-0.724,0.636-1.094,0.946l1.157,1.378c0.251-0.211,0.501-0.425,0.748-0.64l0,0
		c0.005-0.005,0.011-0.01,0.016-0.014l0.002-0.002c0.005-0.004,0.01-0.009,0.015-0.013l0.003-0.002
		c0.006-0.005,0.011-0.01,0.017-0.015l0.001-0.001c0.005-0.004,0.01-0.009,0.015-0.013c0.001-0.001,0.006-0.005,0.007-0.006
		c0.003-0.002,0.005-0.005,0.008-0.007c0.002-0.002,0.007-0.006,0.009-0.008c0.002-0.002,0.004-0.003,0.005-0.005
		c0.096-0.085,0.193-0.17,0.288-0.255L82.069,85.984L82.069,85.984z M84.169,83.995c-0.34,0.342-0.685,0.678-1.035,1.01l1.238,1.307
		c0.289-0.274,0.575-0.551,0.858-0.832l0.001-0.001c0.005-0.005,0.01-0.01,0.016-0.016l0.001-0.001
		c0.01-0.01,0.021-0.021,0.031-0.031c0.001-0.001,0.004-0.004,0.005-0.005c0.003-0.003,0.006-0.006,0.01-0.01
		c0.002-0.002,0.004-0.004,0.007-0.007c0.003-0.003,0.005-0.005,0.008-0.008c0.002-0.002,0.006-0.006,0.008-0.008
		c0.001-0.001,0.002-0.002,0.003-0.003c0.007-0.007,0.015-0.015,0.022-0.022c0.001-0.001,0.001-0.001,0.002-0.002
		c0.003-0.003,0.008-0.008,0.011-0.011c0.001-0.001,0.002-0.002,0.003-0.003c0.03-0.03,0.059-0.059,0.089-0.089L84.169,83.995
		L84.169,83.995z M86.147,81.885c-0.319,0.361-0.644,0.718-0.973,1.07l1.313,1.231c0.009-0.009,0.016-0.017,0.024-0.026
		c0.002-0.002,0.003-0.003,0.005-0.005c0.003-0.003,0.005-0.005,0.008-0.008c0.003-0.003,0.005-0.006,0.008-0.009
		c0.002-0.002,0.004-0.004,0.006-0.006c0.004-0.004,0.008-0.009,0.012-0.013l0.002-0.002c0.181-0.194,0.361-0.389,0.539-0.586l0,0
		c0.005-0.005,0.01-0.011,0.015-0.016c0.001-0.001,0,0,0.001-0.001c0.005-0.005,0.009-0.01,0.014-0.016l0.001-0.001
		c0.01-0.011,0.02-0.022,0.03-0.033c0.001-0.001,0.003-0.003,0.004-0.004c0.004-0.004,0.007-0.008,0.011-0.012
		c0.001-0.001,0.003-0.004,0.004-0.005c0.003-0.004,0.007-0.008,0.01-0.011c0.002-0.002,0.002-0.002,0.004-0.005
		c0.005-0.005,0.009-0.01,0.014-0.016c0.001-0.001,0.003-0.003,0.004-0.004c0.004-0.004,0.007-0.008,0.011-0.012
		c0.002-0.002,0.004-0.004,0.006-0.006c0.003-0.003,0.006-0.006,0.008-0.009c0.002-0.002,0.005-0.005,0.007-0.007
		c0.002-0.003,0.005-0.005,0.007-0.008c0.002-0.002,0.005-0.006,0.008-0.008c0.002-0.003,0.005-0.006,0.007-0.008
		c0.004-0.005,0.009-0.01,0.013-0.014c0.002-0.002,0.004-0.005,0.006-0.007c0.003-0.003,0.005-0.005,0.008-0.009
		c0.002-0.002,0.004-0.005,0.006-0.007c0.002-0.002,0.006-0.006,0.008-0.009c0.002-0.002,0.004-0.005,0.006-0.007
		c0.003-0.004,0.004-0.005,0.007-0.008c0.004-0.004,0.007-0.008,0.011-0.012c0.003-0.003,0.006-0.006,0.009-0.01
		c0.003-0.003,0.005-0.006,0.008-0.008c0.002-0.002,0.005-0.006,0.007-0.008c0.002-0.003,0.005-0.005,0.007-0.008
		c0.002-0.002,0.005-0.005,0.007-0.007c0.003-0.003,0.005-0.006,0.008-0.009c0.002-0.002,0.004-0.005,0.006-0.007
		c0.005-0.005,0.009-0.01,0.014-0.015c0.001-0.001,0.002-0.002,0.003-0.003c0.004-0.004,0.008-0.009,0.011-0.013
		c0.001-0.001,0.003-0.003,0.004-0.004c0.004-0.004,0.007-0.008,0.011-0.013c0.001-0.001,0.002-0.003,0.003-0.004
		c0.004-0.005,0.008-0.009,0.013-0.014l0.002-0.002c0.021-0.023,0.041-0.047,0.062-0.07L86.147,81.885L86.147,81.885z
		 M87.996,79.661c-0.297,0.38-0.6,0.755-0.908,1.126l1.384,1.15c0.001-0.001,0,0,0.001-0.001c0.009-0.011,0.019-0.022,0.028-0.034
		c0.001-0.001,0.002-0.003,0.003-0.004c0.004-0.004,0.007-0.009,0.011-0.013c0.001-0.001,0.002-0.003,0.003-0.004
		c0.004-0.005,0.008-0.009,0.012-0.014l0.002-0.003c0.01-0.011,0.019-0.023,0.029-0.034c0.001-0.001,0.001-0.002,0.002-0.003
		c0.004-0.005,0.008-0.01,0.012-0.015c0.001-0.001,0.001-0.001,0.002-0.003c0.004-0.005,0.008-0.01,0.013-0.015l0.002-0.002
		c0.01-0.012,0.019-0.023,0.029-0.035c0.001-0.001,0.001-0.002,0.002-0.003c0.004-0.005,0.008-0.01,0.012-0.015
		c0.001-0.001,0.001-0.001,0.002-0.003c0.004-0.005,0.009-0.011,0.013-0.016l0.001-0.001c0.01-0.012,0.019-0.023,0.029-0.035
		c0.001-0.001,0.001-0.001,0.002-0.002c0.004-0.005,0.008-0.01,0.013-0.015c0.001-0.001,0.001-0.001,0.002-0.003
		c0.004-0.005,0.009-0.01,0.013-0.016l0.001-0.002c0.01-0.012,0.019-0.023,0.029-0.035c0.001-0.001,0-0.001,0.001-0.002
		c0.004-0.005,0.009-0.011,0.013-0.016l0.001-0.002c0.015-0.018,0.029-0.036,0.044-0.054l0,0c0.005-0.006,0.01-0.012,0.014-0.018
		l0.001-0.001c0.202-0.248,0.402-0.499,0.599-0.751L87.996,79.661L87.996,79.661z M89.708,77.33
		c-0.274,0.397-0.553,0.79-0.839,1.178l1.451,1.066l0.001-0.001c0.272-0.371,0.54-0.745,0.802-1.123
		c0.001-0.001,0.001-0.002,0.002-0.003c0.003-0.004,0.006-0.009,0.009-0.013c0.002-0.003,0.004-0.005,0.005-0.008
		c0.002-0.003,0.004-0.006,0.006-0.009c0.003-0.004,0.004-0.006,0.007-0.01c0.001-0.001,0.002-0.003,0.003-0.004
		c0.012-0.017,0.023-0.033,0.035-0.05L89.708,77.33L89.708,77.33z M91.278,74.902c-0.25,0.413-0.505,0.821-0.767,1.226l1.512,0.977
		c0.271-0.42,0.536-0.844,0.795-1.272L91.278,74.902L91.278,74.902z M92.699,72.383c-0.224,0.427-0.455,0.85-0.692,1.27l1.568,0.885
		c0.061-0.109,0.122-0.218,0.183-0.327V74.21c0.003-0.006,0.007-0.012,0.01-0.018c0.001-0.001,0.002-0.003,0.002-0.004
		c0.003-0.005,0.005-0.01,0.008-0.015c0.001-0.001,0.002-0.004,0.003-0.005c0.003-0.005,0.005-0.01,0.008-0.015
		c0.001-0.001,0.002-0.003,0.003-0.005c0.003-0.006,0.007-0.012,0.01-0.018c0.002-0.003,0.003-0.005,0.004-0.007
		c0.002-0.004,0.004-0.007,0.006-0.011c0.002-0.003,0.003-0.006,0.005-0.008c0.002-0.003,0.004-0.007,0.006-0.01
		s0.004-0.007,0.005-0.01s0.003-0.005,0.004-0.008c0.008-0.014,0.014-0.026,0.022-0.04c0.001-0.002,0.002-0.004,0.003-0.006
		c0.002-0.004,0.004-0.008,0.007-0.012c0.001-0.002,0.002-0.004,0.003-0.005c0.002-0.004,0.005-0.009,0.007-0.013
		c0.001-0.001,0.001-0.003,0.002-0.004c0.008-0.015,0.017-0.031,0.025-0.046c0,0,0-0.001,0.001-0.001
		c0.002-0.004,0.005-0.01,0.008-0.014c0.001-0.001,0.001-0.003,0.002-0.004c0.003-0.006,0.005-0.009,0.008-0.014
		c0.001-0.001,0.001-0.002,0.002-0.003c0.009-0.017,0.017-0.03,0.026-0.047c0,0,0-0.001,0.001-0.001
		c0.002-0.004,0.005-0.009,0.007-0.013c0.001-0.002,0.002-0.003,0.003-0.005c0.002-0.004,0.004-0.008,0.007-0.012
		c0.001-0.002,0.002-0.004,0.003-0.006c0.002-0.004,0.004-0.008,0.007-0.012c0.001-0.001,0.001-0.002,0.002-0.003
		c0.005-0.008,0.01-0.019,0.015-0.027c0.001-0.001,0.001-0.003,0.002-0.004c0.002-0.004,0.004-0.007,0.006-0.011
		c0.001-0.003,0.003-0.005,0.004-0.007c0.001-0.003,0.004-0.008,0.006-0.011c0.001-0.002,0.003-0.005,0.004-0.007
		c0.002-0.004,0.004-0.007,0.006-0.011c0.001-0.002,0.002-0.004,0.004-0.007c0.004-0.007,0.007-0.012,0.01-0.019
		c0.002-0.003,0.003-0.006,0.005-0.01c0.001-0.003,0.003-0.006,0.005-0.009c0.002-0.003,0.003-0.006,0.005-0.01
		c0.001-0.003,0.004-0.007,0.005-0.009c0.002-0.003,0.004-0.007,0.006-0.01c0.001-0.003,0.003-0.005,0.004-0.008
		c0.002-0.004,0.005-0.008,0.007-0.013c0.001-0.003,0.002-0.003,0.003-0.006c0.003-0.006,0.007-0.012,0.01-0.018
		c0.001-0.003,0.001-0.003,0.003-0.005c0.003-0.005,0.005-0.009,0.008-0.014c0.001-0.001,0.002-0.004,0.003-0.006
		c0.003-0.005,0.005-0.01,0.008-0.015c0.001-0.001,0.002-0.003,0.002-0.004c0.003-0.006,0.006-0.012,0.01-0.018
		c0.001-0.001,0,0,0.001-0.001c0.007-0.013,0.014-0.027,0.021-0.04c0.001-0.001,0-0.001,0.001-0.002
		c0.003-0.006,0.007-0.012,0.01-0.019c0.001-0.001,0,0,0.001-0.001c0.048-0.09,0.095-0.179,0.142-0.269L92.699,72.383L92.699,72.383
		z M93.966,69.785c-0.198,0.44-0.403,0.876-0.614,1.309l1.618,0.789c0.022-0.045,0.044-0.091,0.066-0.137v-0.001
		c0.003-0.006,0.005-0.01,0.008-0.016c0-0.001,0.001-0.002,0.001-0.003c0.007-0.014,0.012-0.024,0.019-0.039
		c0.002-0.005,0.004-0.009,0.007-0.014c0.001-0.001,0.002-0.004,0.003-0.006c0.002-0.005,0.005-0.01,0.007-0.015
		c0.001-0.001,0.001-0.002,0.002-0.004c0.003-0.006,0.006-0.013,0.009-0.019l0,0c0.139-0.288,0.274-0.578,0.408-0.869l0.001-0.001
		c0.003-0.006,0.006-0.012,0.008-0.018c0.001-0.001,0.001-0.002,0.002-0.004c0.002-0.005,0.005-0.011,0.007-0.016
		c0.001-0.001,0.001-0.003,0.002-0.004c0.003-0.006,0.006-0.012,0.008-0.018c0.002-0.004,0.004-0.009,0.006-0.014
		c0.001-0.002,0.001-0.003,0.002-0.005c0.003-0.006,0.004-0.01,0.007-0.015c0-0.001,0.001-0.001,0.001-0.002
		c0.021-0.046,0.042-0.092,0.062-0.138L93.966,69.785L93.966,69.785z M95.074,67.114c-0.171,0.451-0.349,0.899-0.534,1.344
		l1.663,0.69c0.061-0.147,0.121-0.295,0.181-0.442v-0.001c0.002-0.006,0.005-0.011,0.007-0.017l0,0
		c0.007-0.016,0.013-0.032,0.02-0.048c0.001-0.002,0.002-0.004,0.003-0.007c0.002-0.004,0.003-0.007,0.005-0.011
		c0.001-0.003,0.003-0.007,0.004-0.01s0.003-0.006,0.004-0.009c0.002-0.004,0.003-0.008,0.005-0.012
		c0.001-0.003,0.002-0.005,0.003-0.008c0.003-0.006,0.005-0.013,0.008-0.02c0.001-0.001,0.001-0.003,0.002-0.004
		c0.002-0.005,0.004-0.011,0.006-0.016c0.001-0.001,0.002-0.004,0.002-0.006c0.002-0.005,0.004-0.01,0.006-0.015
		c0.001-0.001,0.002-0.004,0.002-0.005c0.002-0.006,0.005-0.012,0.007-0.017l0.001-0.003c0.006-0.014,0.011-0.028,0.017-0.042
		l0.001-0.003c0.002-0.006,0.005-0.012,0.007-0.018l0.001-0.003c0.003-0.007,0.005-0.013,0.008-0.02V68.41
		c0.023-0.058,0.046-0.116,0.069-0.174v-0.001c0.011-0.029,0.022-0.057,0.034-0.086l0.001-0.002c0.003-0.007,0.005-0.013,0.008-0.02
		v-0.001c0.008-0.021,0.017-0.042,0.025-0.064c0.001-0.001,0.001-0.002,0.001-0.004c0.002-0.006,0.005-0.012,0.007-0.018
		c0.001-0.001,0.001-0.002,0.002-0.004c0.002-0.006,0.004-0.012,0.007-0.017c0.001-0.001,0.001-0.002,0.001-0.004
		c0.003-0.007,0.005-0.014,0.008-0.021c0.001-0.001,0-0.001,0.001-0.003c0.002-0.006,0.004-0.011,0.007-0.017
		c0.001-0.001,0.002-0.006,0.003-0.007c0.002-0.004,0.003-0.008,0.005-0.012c0.001-0.003,0.002-0.006,0.003-0.009
		c0.001-0.004,0.003-0.007,0.004-0.011c0.002-0.004,0.002-0.005,0.004-0.01c0.001-0.003,0.003-0.007,0.004-0.01
		c0.003-0.007,0.006-0.014,0.008-0.022c0.001-0.002,0.001-0.003,0.002-0.005c0.002-0.004,0.003-0.009,0.005-0.013
		c0.001-0.002,0.002-0.004,0.002-0.006c0.002-0.004,0.003-0.009,0.005-0.013c0.001-0.002,0.001-0.003,0.002-0.005
		c0.002-0.004,0.004-0.01,0.006-0.014c0-0.001,0.001-0.002,0.001-0.002c0.009-0.024,0.017-0.046,0.026-0.069l0,0
		c0.001-0.003,0.003-0.008,0.004-0.011L95.074,67.114L95.074,67.114z M96.018,64.383c-0.144,0.461-0.294,0.918-0.452,1.373
		l1.701,0.588c0.038-0.109,0.074-0.216,0.111-0.325v-0.001c0.002-0.006,0.003-0.01,0.005-0.016c0-0.001,0.001-0.002,0.001-0.004
		c0.002-0.006,0.003-0.01,0.005-0.016c0-0.001,0.001-0.002,0.001-0.003c0.006-0.017,0.01-0.031,0.016-0.048
		c0.001-0.002,0.001-0.004,0.002-0.006c0.002-0.005,0.002-0.007,0.004-0.012c0.001-0.003,0.002-0.006,0.003-0.008
		c0.001-0.003,0.003-0.008,0.004-0.011s0.002-0.007,0.003-0.01c0.002-0.005,0.002-0.006,0.003-0.01
		c0.001-0.004,0.003-0.007,0.004-0.011c0.001-0.003,0.002-0.006,0.003-0.009c0.002-0.006,0.004-0.013,0.006-0.019
		c0.001-0.003,0.002-0.005,0.003-0.008c0.001-0.004,0.003-0.008,0.004-0.012c0.001-0.003,0.002-0.006,0.003-0.009
		c0.001-0.004,0.003-0.008,0.004-0.013c0.001-0.003,0.001-0.004,0.002-0.008c0.002-0.005,0.003-0.01,0.005-0.015
		c0.001-0.003,0.001-0.002,0.002-0.005c0.005-0.014,0.009-0.028,0.014-0.041c0.001-0.002,0.001-0.004,0.002-0.005
		c0.002-0.005,0.003-0.011,0.005-0.016c0.001-0.003,0.001-0.003,0.002-0.006c0.002-0.005,0.003-0.011,0.005-0.016
		c0.001-0.002,0.001-0.004,0.002-0.005c0.002-0.006,0.004-0.013,0.006-0.019c0.001-0.002,0,0,0.001-0.002
		c0.002-0.007,0.005-0.014,0.007-0.021c0.001-0.002,0.001-0.002,0.001-0.003c0.002-0.006,0.004-0.012,0.006-0.017
		c0.001-0.002,0.001-0.004,0.002-0.005c0.002-0.005,0.004-0.011,0.005-0.016c0-0.002,0.001-0.004,0.002-0.005
		c0.002-0.006,0.004-0.012,0.006-0.017l0.001-0.004c0.005-0.014,0.009-0.028,0.014-0.042c0-0.002,0.001-0.003,0.001-0.004
		c0.002-0.005,0.004-0.011,0.005-0.016c0.001-0.003,0.001-0.003,0.002-0.006c0.002-0.005,0.003-0.01,0.005-0.015
		c0-0.002,0.001-0.005,0.002-0.006c0.002-0.006,0.004-0.011,0.006-0.017c0-0.002,0.001-0.002,0.001-0.004
		c0.002-0.007,0.004-0.014,0.007-0.021c0.001-0.003,0.001-0.003,0.002-0.006c0.002-0.005,0.003-0.01,0.005-0.014
		c0.001-0.003,0.002-0.006,0.003-0.009c0.001-0.004,0.002-0.008,0.004-0.011c0.001-0.003,0.002-0.007,0.003-0.01
		s0.002-0.007,0.003-0.01c0.001-0.005,0.002-0.007,0.004-0.011c0.001-0.002,0.001-0.004,0.002-0.006
		c0.003-0.009,0.006-0.019,0.009-0.028c0-0.001,0.001-0.002,0.001-0.003c0.001-0.005,0.003-0.01,0.005-0.015
		c0.001-0.002,0.001-0.003,0.002-0.005c0.002-0.006,0.003-0.01,0.005-0.016c0-0.001,0-0.001,0.001-0.002
		c0.04-0.123,0.078-0.246,0.117-0.37L96.018,64.383L96.018,64.383z M96.796,61.598c-0.116,0.469-0.238,0.935-0.368,1.398
		l1.734,0.484c0.055-0.195,0.108-0.391,0.16-0.587l0,0c0.004-0.015,0.008-0.03,0.012-0.045l0.001-0.002
		c0.002-0.006,0.003-0.013,0.005-0.019c0-0.002,0.001-0.004,0.001-0.006c0.001-0.005,0.003-0.01,0.004-0.015
		c0-0.002,0.001-0.005,0.002-0.007c0.001-0.005,0.003-0.009,0.004-0.014c0.001-0.003,0.001-0.004,0.002-0.008
		c0.001-0.005,0.003-0.009,0.004-0.014s0.003-0.011,0.004-0.015c0.001-0.004,0.002-0.007,0.003-0.011
		c0.001-0.005,0.002-0.007,0.003-0.011c0.001-0.003,0.002-0.006,0.002-0.009c0.001-0.003,0.002-0.009,0.003-0.012
		c0.001-0.003,0.001-0.005,0.002-0.008c0.001-0.005,0.002-0.008,0.003-0.013c0-0.002,0.001-0.004,0.001-0.006
		c0.004-0.017,0.009-0.035,0.014-0.052l0,0c0.002-0.006,0.003-0.011,0.004-0.017c0-0.001,0-0.002,0.001-0.003
		c0.002-0.006,0.003-0.011,0.004-0.017c0-0.001,0-0.001,0-0.002c0.008-0.031,0.016-0.06,0.024-0.092c0-0.001,0-0.001,0.001-0.002
		c0.01-0.037,0.019-0.074,0.028-0.111l0,0c0.008-0.031,0.015-0.061,0.023-0.092c0-0.001,0-0.002,0.001-0.002
		c0.002-0.006,0.002-0.01,0.004-0.016c0-0.002,0.001-0.003,0.001-0.005c0.001-0.005,0.003-0.01,0.004-0.015
		c0-0.001,0.001-0.002,0.001-0.004c0.004-0.014,0.008-0.032,0.011-0.046c0.001-0.003,0.002-0.007,0.003-0.01s0.002-0.006,0.002-0.01
		c0.001-0.004,0.002-0.008,0.003-0.012c0.001-0.003,0.001-0.005,0.002-0.008c0.001-0.005,0.003-0.01,0.004-0.015
		c0-0.002,0.001-0.004,0.001-0.005c0.006-0.022,0.011-0.045,0.017-0.067l0,0c0.004-0.015,0.008-0.03,0.011-0.046L96.796,61.598
		L96.796,61.598z M97.404,58.772c-0.087,0.475-0.182,0.948-0.283,1.418l1.76,0.379c0.026-0.119,0.051-0.237,0.075-0.356
		c0-0.001,0-0.002,0.001-0.003c0.001-0.005,0.002-0.01,0.003-0.015c0-0.002,0.001-0.005,0.001-0.007
		c0.001-0.003,0.002-0.009,0.003-0.012c0.001-0.004,0.002-0.007,0.002-0.011c0.001-0.003,0.001-0.006,0.002-0.009
		c0.001-0.007,0.003-0.014,0.004-0.021l0,0c0.001-0.007,0.003-0.014,0.004-0.022l0.001-0.004c0.001-0.006,0.003-0.013,0.004-0.019
		c0-0.002,0-0.001,0-0.002c0.001-0.007,0.003-0.015,0.004-0.022c0-0.002,0,0.001,0,0c0.037-0.183,0.074-0.367,0.109-0.55
		l0.001-0.003c0.001-0.007,0.003-0.013,0.004-0.02c0-0.002,0-0.001,0.001-0.003c0.001-0.007,0.003-0.014,0.004-0.021
		c0-0.002,0,0.001,0-0.001c0.001-0.007,0.003-0.015,0.004-0.022c0-0.002,0.001-0.004,0.001-0.006
		c0.001-0.005,0.002-0.01,0.003-0.015c0.001-0.003,0.001-0.007,0.002-0.01s0.001-0.007,0.002-0.01s0.002-0.009,0.002-0.012
		c0-0.003,0.001-0.005,0.001-0.008c0.001-0.005,0.002-0.01,0.003-0.015v-0.001c0.017-0.091,0.034-0.179,0.051-0.271L97.404,58.772
		L97.404,58.772z M97.841,55.914c-0.059,0.48-0.124,0.957-0.197,1.433l1.779,0.272c0.024-0.157,0.047-0.313,0.07-0.47v-0.001
		c0.003-0.018,0.005-0.036,0.008-0.054c0-0.001,0-0.003,0.001-0.004c0.001-0.005,0.001-0.007,0.002-0.012
		c0-0.003,0.001-0.007,0.001-0.01s0.001-0.007,0.001-0.011c0.001-0.004,0.001-0.008,0.002-0.012c0-0.003,0.001-0.005,0.001-0.008
		c0.001-0.005,0.001-0.01,0.002-0.016c0-0.002,0.001-0.004,0.001-0.006c0.041-0.293,0.08-0.588,0.116-0.883L97.841,55.914
		L97.841,55.914z M98.106,53.034c-0.03,0.483-0.067,0.963-0.111,1.442l1.792,0.165c0.006-0.069,0.013-0.139,0.019-0.209V54.43
		c0.001-0.006,0.001-0.013,0.002-0.019c0-0.002,0-0.003,0-0.005c0-0.005,0.001-0.011,0.001-0.017c0-0.003,0-0.003,0.001-0.007
		c0-0.005,0.001-0.009,0.001-0.014c0.001-0.008,0.001-0.016,0.002-0.024c0-0.001,0-0.002,0-0.003
		c0.001-0.007,0.001-0.011,0.001-0.017c0-0.001,0-0.002,0-0.003c0.033-0.391,0.062-0.783,0.087-1.176L98.106,53.034L98.106,53.034z
		 M98.2,50.142c-0.001,0.484-0.01,0.966-0.025,1.447l1.799,0.058c0.016-0.498,0.025-0.998,0.026-1.5L98.2,50.142L98.2,50.142z
		 M99.92,47.148l-1.797,0.101c0.027,0.48,0.047,0.962,0.06,1.446l1.799-0.048c-0.005-0.193-0.011-0.382-0.019-0.574
		c0-0.003,0-0.005,0-0.008s0-0.009,0-0.012c0-0.003,0-0.007,0-0.01s0-0.007,0-0.011s0-0.008,0-0.013c0-0.002,0-0.007,0-0.009
		c0-0.006,0-0.011-0.001-0.017c0-0.002,0-0.003,0-0.004c-0.001-0.015-0.001-0.031-0.002-0.046v-0.001
		c0-0.007-0.001-0.015-0.001-0.022c0-0.002,0,0,0-0.002c0-0.007-0.001-0.015-0.001-0.022l0,0
		C99.946,47.646,99.934,47.397,99.92,47.148L99.92,47.148z M99.662,44.159l-1.788,0.208c0.056,0.477,0.104,0.957,0.146,1.439
		l1.793-0.155C99.77,45.152,99.72,44.654,99.662,44.159L99.662,44.159z M99.227,41.192l-1.772,0.315
		c0.084,0.473,0.161,0.949,0.232,1.427l1.781-0.262c-0.018-0.124-0.037-0.247-0.056-0.37c0-0.002,0-0.002-0.001-0.004
		c-0.001-0.006-0.002-0.013-0.003-0.019c0-0.002,0-0.002-0.001-0.004c-0.001-0.006-0.002-0.012-0.003-0.019
		c0-0.002,0-0.002-0.001-0.004c-0.002-0.015-0.005-0.03-0.007-0.044c0-0.002,0-0.003-0.001-0.004
		c-0.001-0.006-0.002-0.012-0.003-0.017c0-0.002-0.001-0.005-0.001-0.007c-0.001-0.005-0.002-0.01-0.002-0.015
		c-0.001-0.003-0.001-0.004-0.001-0.007c-0.001-0.005-0.002-0.01-0.002-0.015c0-0.002-0.001-0.005-0.001-0.007
		c-0.001-0.006-0.002-0.011-0.003-0.017c0-0.002-0.001-0.004-0.001-0.005c-0.001-0.007-0.002-0.014-0.003-0.021
		c0-0.002-0.001-0.004-0.001-0.006c-0.001-0.005-0.002-0.011-0.003-0.016c0-0.002-0.001-0.007-0.001-0.008
		c-0.001-0.004-0.001-0.009-0.002-0.013c-0.001-0.003-0.001-0.006-0.001-0.009c-0.001-0.004-0.001-0.008-0.002-0.012
		c0-0.002-0.001-0.008-0.001-0.009c-0.001-0.005-0.001-0.009-0.002-0.014c-0.001-0.003-0.001-0.004-0.001-0.007
		c-0.001-0.007-0.002-0.013-0.003-0.02c-0.001-0.003-0.001-0.007-0.002-0.01c-0.001-0.004-0.001-0.007-0.002-0.011
		c-0.001-0.005-0.001-0.006-0.002-0.011c-0.001-0.003-0.001-0.007-0.002-0.01s-0.001-0.008-0.002-0.012
		c-0.001-0.003-0.001-0.007-0.002-0.01c-0.001-0.005-0.001-0.006-0.002-0.011c-0.001-0.003-0.001-0.007-0.002-0.01
		s-0.001-0.008-0.002-0.011c-0.001-0.006-0.002-0.013-0.003-0.019c-0.001-0.003-0.001-0.008-0.002-0.011
		c-0.001-0.003-0.001-0.006-0.002-0.01c-0.001-0.005-0.001-0.008-0.002-0.013c0-0.003-0.001-0.005-0.001-0.008
		c-0.001-0.003-0.002-0.01-0.002-0.013c0-0.003-0.001-0.005-0.001-0.008c-0.001-0.005-0.001-0.008-0.002-0.013
		c0-0.002-0.001-0.005-0.001-0.007c-0.003-0.018-0.006-0.035-0.009-0.052l0,0c-0.001-0.006-0.002-0.011-0.003-0.018
		c0-0.001,0-0.002,0-0.002c-0.001-0.006-0.002-0.011-0.003-0.017c0-0.001,0-0.001,0-0.002
		C99.284,41.522,99.256,41.357,99.227,41.192L99.227,41.192z M98.613,38.255l-1.75,0.421c0.113,0.468,0.218,0.938,0.317,1.41
		l1.762-0.368c-0.016-0.076-0.032-0.152-0.048-0.228v-0.002c-0.003-0.014-0.006-0.028-0.009-0.043
		c-0.001-0.005-0.001-0.006-0.002-0.011c-0.001-0.003-0.001-0.006-0.002-0.009s-0.002-0.01-0.003-0.013
		c0-0.002-0.001-0.004-0.001-0.006c-0.001-0.005-0.002-0.01-0.003-0.015c0-0.001,0-0.002-0.001-0.003
		c-0.061-0.283-0.125-0.566-0.191-0.848c0-0.001-0.001-0.003-0.001-0.004c-0.001-0.005-0.002-0.01-0.003-0.014
		c-0.001-0.003-0.001-0.005-0.002-0.007c-0.001-0.005-0.002-0.008-0.003-0.012s-0.002-0.008-0.003-0.012
		c-0.001-0.003-0.001-0.005-0.002-0.008c-0.002-0.007-0.003-0.014-0.005-0.021c0-0.002,0-0.002-0.001-0.004
		c-0.001-0.006-0.003-0.012-0.004-0.019c0-0.002,0-0.002-0.001-0.003c-0.002-0.007-0.003-0.014-0.005-0.02l0,0
		C98.638,38.361,98.626,38.308,98.613,38.255L98.613,38.255z M97.823,35.362l-1.721,0.526c0.141,0.46,0.275,0.923,0.402,1.389
		l1.736-0.474c-0.006-0.022-0.012-0.044-0.018-0.066c-0.001-0.003-0.002-0.006-0.002-0.009c-0.001-0.003-0.002-0.007-0.003-0.01
		s-0.003-0.01-0.003-0.013c-0.001-0.002-0.001-0.004-0.002-0.006c-0.001-0.005-0.003-0.01-0.004-0.015c0-0.001,0-0.001-0.001-0.002
		c-0.082-0.298-0.166-0.591-0.253-0.886c0-0.001,0-0.001-0.001-0.002c-0.001-0.005-0.003-0.01-0.004-0.015
		c-0.001-0.002-0.001-0.004-0.002-0.006c-0.001-0.003-0.003-0.01-0.004-0.013c-0.001-0.003-0.002-0.006-0.003-0.009
		c-0.001-0.005-0.002-0.006-0.003-0.011c-0.002-0.006-0.003-0.012-0.005-0.017c0-0.002,0-0.001-0.001-0.002
		c-0.002-0.007-0.004-0.014-0.006-0.021l-0.001-0.003c-0.002-0.006-0.004-0.012-0.006-0.018c0-0.002-0.001-0.002-0.001-0.003
		c-0.002-0.007-0.004-0.014-0.006-0.02c0-0.002,0,0.001,0,0C97.882,35.556,97.853,35.459,97.823,35.362L97.823,35.362z
		 M96.86,32.521l-1.686,0.629c0.168,0.451,0.33,0.905,0.485,1.362l1.705-0.578c-0.097-0.287-0.197-0.571-0.299-0.856l0,0
		c-0.002-0.006-0.004-0.01-0.006-0.016c0-0.001-0.001-0.002-0.001-0.003c-0.002-0.006-0.004-0.01-0.006-0.016c0,0,0,0,0-0.001
		c-0.006-0.016-0.012-0.035-0.018-0.051c0-0.001-0.001-0.002-0.001-0.003c-0.002-0.004-0.003-0.01-0.005-0.014
		c-0.001-0.002-0.001-0.004-0.002-0.006c-0.001-0.003-0.004-0.01-0.005-0.013c-0.001-0.003-0.002-0.005-0.003-0.008
		c-0.002-0.004-0.003-0.007-0.004-0.012c-0.001-0.003-0.002-0.005-0.003-0.008c-0.002-0.006-0.005-0.014-0.007-0.02
		c-0.003-0.004-0.004-0.007-0.006-0.01c-0.001-0.003-0.003-0.007-0.004-0.01s-0.003-0.007-0.004-0.01s-0.002-0.007-0.004-0.01
		c-0.001-0.004-0.003-0.007-0.004-0.011c-0.001-0.003-0.002-0.005-0.003-0.008c-0.002-0.005-0.004-0.01-0.006-0.016
		c-0.001-0.001-0.001-0.003-0.002-0.004c-0.005-0.014-0.01-0.028-0.015-0.042c-0.001-0.001-0.001-0.002-0.001-0.003
		c-0.002-0.006-0.005-0.013-0.007-0.019l-0.001-0.002C96.919,32.681,96.89,32.601,96.86,32.521L96.86,32.521z M95.727,29.744
		l-1.645,0.73c0.195,0.44,0.384,0.883,0.566,1.33l1.667-0.68l-0.001-0.004c-0.002-0.004-0.004-0.009-0.006-0.013
		c-0.001-0.003-0.001-0.003-0.002-0.006c-0.003-0.007-0.005-0.013-0.008-0.02c-0.001-0.001-0.001-0.002-0.001-0.004
		c-0.002-0.006-0.005-0.011-0.007-0.017c-0.001-0.001-0.001-0.003-0.002-0.005c-0.002-0.005-0.004-0.011-0.007-0.016
		c-0.001-0.001-0.001-0.003-0.002-0.004C96.1,30.602,95.916,30.171,95.727,29.744L95.727,29.744z M94.428,27.04l-1.598,0.828
		c0.221,0.427,0.437,0.859,0.645,1.294l1.623-0.779c-0.212-0.441-0.43-0.878-0.654-1.313l0,0c-0.003-0.006-0.006-0.011-0.009-0.016
		c0,0,0,0,0-0.001C94.432,27.048,94.43,27.044,94.428,27.04L94.428,27.04z M92.969,24.419l-1.546,0.922
		c0.247,0.414,0.488,0.831,0.722,1.253l1.573-0.875c-0.209-0.375-0.423-0.748-0.641-1.118c-0.001-0.001,0-0.001-0.001-0.002
		c-0.003-0.006-0.007-0.011-0.01-0.017c-0.001-0.001-0.001-0.002-0.002-0.003c-0.004-0.006-0.007-0.012-0.011-0.018
		c-0.001-0.001,0,0.001,0-0.001c-0.004-0.006-0.007-0.013-0.011-0.019c-0.002-0.003-0.002-0.003-0.004-0.006
		c-0.002-0.004-0.005-0.008-0.007-0.012c-0.002-0.003-0.004-0.006-0.005-0.009c-0.002-0.003-0.003-0.005-0.005-0.008
		c-0.002-0.004-0.004-0.007-0.007-0.011c-0.001-0.002-0.002-0.004-0.003-0.005C92.998,24.467,92.983,24.442,92.969,24.419
		L92.969,24.419z M91.356,21.89l-1.488,1.013c0.271,0.398,0.536,0.801,0.796,1.207l1.517-0.968c-0.019-0.03-0.038-0.06-0.058-0.09
		c-0.001-0.001-0.001-0.002-0.002-0.003c-0.003-0.005-0.005-0.008-0.008-0.013c-0.001-0.001-0.002-0.003-0.003-0.004
		c-0.003-0.004-0.006-0.009-0.008-0.013c-0.001-0.001-0.001-0.002-0.002-0.003c-0.008-0.013-0.018-0.028-0.026-0.041
		c-0.001-0.002-0.002-0.004-0.003-0.005c-0.003-0.004-0.005-0.007-0.007-0.011c-0.001-0.002-0.003-0.004-0.004-0.006
		c-0.003-0.004-0.005-0.007-0.007-0.011c-0.001-0.002-0.003-0.004-0.004-0.006c-0.009-0.013-0.016-0.025-0.025-0.038
		c-0.001-0.002-0.003-0.004-0.004-0.006c-0.003-0.004-0.004-0.007-0.007-0.011c-0.001-0.002-0.003-0.004-0.004-0.007
		c-0.003-0.004-0.005-0.007-0.007-0.011c-0.001-0.002-0.003-0.004-0.004-0.006c-0.009-0.013-0.017-0.026-0.025-0.039
		c-0.001-0.002-0.002-0.003-0.003-0.005c-0.003-0.004-0.005-0.007-0.007-0.011c-0.001-0.002-0.003-0.004-0.004-0.006
		c-0.003-0.004-0.005-0.007-0.007-0.011c-0.001-0.002-0.002-0.003-0.003-0.005c-0.009-0.013-0.018-0.028-0.027-0.041
		c-0.001-0.001-0.001-0.002-0.002-0.003c-0.003-0.005-0.005-0.008-0.009-0.013c-0.001-0.001-0.002-0.002-0.002-0.004
		c-0.003-0.005-0.005-0.008-0.009-0.014c0-0.001-0.001-0.001-0.001-0.002c-0.014-0.021-0.026-0.04-0.04-0.061c0,0,0,0,0-0.001
		c-0.072-0.11-0.145-0.22-0.218-0.329l0,0c-0.013-0.02-0.027-0.04-0.04-0.06c-0.001-0.002-0.002-0.003-0.003-0.005
		c-0.002-0.003-0.006-0.009-0.007-0.011c-0.002-0.002-0.003-0.005-0.005-0.007c-0.003-0.004-0.004-0.006-0.007-0.01
		c-0.002-0.003-0.004-0.006-0.006-0.009c-0.003-0.004-0.005-0.007-0.008-0.011c-0.003-0.005-0.006-0.009-0.009-0.014
		c-0.001-0.001-0.002-0.003-0.003-0.004c-0.003-0.005-0.007-0.01-0.01-0.015c-0.001-0.001-0.001-0.002-0.002-0.003
		C91.478,22.07,91.417,21.98,91.356,21.89L91.356,21.89z M89.594,19.462l-1.425,1.1c0.295,0.381,0.584,0.767,0.867,1.158
		l1.457-1.057c-0.142-0.196-0.286-0.391-0.431-0.585v-0.001c-0.004-0.006-0.009-0.012-0.013-0.018c-0.001-0.001,0,0-0.001-0.001
		c-0.014-0.018-0.027-0.036-0.041-0.054c-0.001-0.001-0.002-0.002-0.003-0.003c-0.004-0.005-0.007-0.01-0.011-0.014
		c-0.001-0.001-0.002-0.003-0.003-0.004c-0.009-0.012-0.018-0.024-0.027-0.035c-0.001-0.001-0.002-0.002-0.002-0.003
		c-0.003-0.005-0.007-0.009-0.01-0.014c-0.001-0.001-0.003-0.004-0.004-0.006c-0.003-0.004-0.006-0.008-0.009-0.011
		c-0.001-0.001-0.004-0.005-0.005-0.006c-0.003-0.004-0.006-0.008-0.009-0.012c-0.002-0.002-0.002-0.003-0.004-0.006
		c-0.004-0.005-0.008-0.011-0.012-0.016c-0.002-0.002-0.003-0.003-0.004-0.006c-0.003-0.004-0.006-0.007-0.008-0.011
		c-0.002-0.002-0.004-0.005-0.005-0.007c-0.002-0.003-0.005-0.006-0.007-0.01c-0.002-0.002-0.004-0.006-0.006-0.008
		c-0.002-0.003-0.004-0.006-0.006-0.008c-0.002-0.002-0.004-0.006-0.006-0.008c-0.003-0.004-0.005-0.007-0.008-0.011
		c-0.004-0.005-0.007-0.009-0.011-0.014c-0.002-0.002-0.003-0.005-0.005-0.007c-0.003-0.004-0.005-0.007-0.008-0.01
		c-0.001-0.002-0.003-0.004-0.004-0.005c-0.003-0.004-0.006-0.008-0.009-0.011c-0.001-0.001-0.002-0.003-0.003-0.004
		c-0.01-0.014-0.02-0.026-0.03-0.04c-0.001-0.001-0.001-0.002-0.002-0.002c-0.004-0.005-0.006-0.008-0.01-0.013
		c-0.001-0.001-0.002-0.002-0.003-0.003c-0.004-0.005-0.006-0.008-0.01-0.013l0,0c-0.015-0.02-0.03-0.039-0.045-0.059l0,0
		C89.675,19.568,89.634,19.514,89.594,19.462L89.594,19.462z M87.691,17.144l-1.356,1.183c0.317,0.363,0.628,0.731,0.934,1.104
		l1.391-1.142c-0.017-0.021-0.034-0.041-0.051-0.062c-0.001-0.002-0.003-0.004-0.004-0.005c-0.002-0.002-0.006-0.007-0.008-0.01
		c-0.003-0.003-0.005-0.006-0.008-0.009c-0.001-0.001-0.004-0.005-0.005-0.006c-0.009-0.011-0.019-0.023-0.028-0.034l-0.001-0.002
		c-0.004-0.005-0.009-0.011-0.013-0.016l-0.002-0.002c-0.079-0.096-0.159-0.191-0.239-0.286l-0.002-0.002
		c-0.005-0.006-0.01-0.011-0.014-0.017l0,0c-0.01-0.012-0.02-0.023-0.029-0.035c-0.001-0.001-0.002-0.002-0.003-0.003
		c-0.004-0.004-0.007-0.009-0.011-0.013c-0.002-0.002-0.003-0.003-0.005-0.006c-0.003-0.004-0.006-0.007-0.009-0.011
		c-0.001-0.001-0.004-0.004-0.005-0.006c-0.004-0.004-0.007-0.008-0.011-0.013c-0.002-0.002-0.005-0.006-0.007-0.009
		c-0.003-0.004-0.006-0.007-0.009-0.011c-0.003-0.004-0.005-0.005-0.008-0.009c-0.002-0.002-0.003-0.004-0.005-0.006
		c-0.003-0.004-0.006-0.007-0.009-0.011c-0.001-0.001-0.002-0.003-0.004-0.004c-0.136-0.161-0.274-0.322-0.412-0.481l-0.001-0.001
		c-0.004-0.005-0.007-0.008-0.011-0.013c-0.001-0.001-0.001-0.002-0.002-0.002c-0.004-0.005-0.007-0.008-0.011-0.012
		c-0.001-0.001-0.002-0.002-0.003-0.003c-0.004-0.005-0.01-0.012-0.014-0.016c-0.003-0.004-0.006-0.007-0.009-0.011
		c-0.001-0.001-0.003-0.004-0.004-0.005C87.699,17.153,87.696,17.149,87.691,17.144C87.691,17.145,87.692,17.146,87.691,17.144
		L87.691,17.144z M85.652,14.944l-1.283,1.262c0.338,0.344,0.671,0.693,0.999,1.046l1.32-1.223
		c-0.045-0.048-0.088-0.095-0.133-0.143c-0.001-0.001-0.002-0.002-0.003-0.003c-0.003-0.003-0.008-0.008-0.011-0.012L86.54,15.87
		c-0.006-0.007-0.012-0.013-0.018-0.02c-0.003-0.003-0.005-0.005-0.007-0.008c-0.002-0.002-0.004-0.004-0.006-0.007
		c-0.003-0.003-0.006-0.006-0.009-0.009c-0.002-0.002-0.004-0.004-0.006-0.006c-0.003-0.004-0.007-0.007-0.01-0.011
		c-0.001-0.001-0.003-0.004-0.004-0.005c-0.01-0.011-0.02-0.021-0.03-0.032c-0.001-0.001-0.002-0.002-0.003-0.003
		c-0.004-0.004-0.008-0.009-0.012-0.013c-0.002-0.002-0.002-0.002-0.004-0.004c-0.004-0.005-0.009-0.009-0.013-0.014l-0.002-0.002
		c-0.01-0.011-0.021-0.022-0.031-0.033l-0.001-0.001c-0.005-0.005-0.009-0.01-0.014-0.015l-0.003-0.003
		c-0.005-0.005-0.009-0.01-0.014-0.015l-0.001-0.001c-0.01-0.011-0.021-0.022-0.031-0.033c-0.001-0.001-0.001-0.001-0.002-0.002
		c-0.004-0.004-0.008-0.009-0.013-0.013c-0.002-0.002-0.002-0.002-0.004-0.004c-0.004-0.004-0.008-0.009-0.012-0.013
		c-0.001-0.001-0.002-0.002-0.003-0.003c-0.01-0.011-0.02-0.021-0.03-0.032c-0.001-0.001-0.003-0.003-0.004-0.004
		c-0.003-0.004-0.007-0.007-0.01-0.011c-0.002-0.002-0.004-0.004-0.006-0.006c-0.003-0.003-0.006-0.006-0.009-0.009
		c-0.002-0.002-0.004-0.004-0.006-0.006c-0.003-0.003-0.007-0.007-0.01-0.01s-0.006-0.007-0.01-0.01
		c-0.003-0.003-0.006-0.006-0.009-0.009c-0.003-0.003-0.005-0.005-0.008-0.008c-0.002-0.002-0.004-0.004-0.006-0.006
		c-0.003-0.003-0.006-0.006-0.009-0.01c-0.001-0.001-0.003-0.003-0.004-0.004c-0.016-0.017-0.033-0.034-0.049-0.051l0,0
		C85.962,15.261,85.808,15.102,85.652,14.944L85.652,14.944z M83.486,12.869l-1.206,1.336c0.358,0.323,0.711,0.651,1.059,0.985
		l1.245-1.3C84.224,13.544,83.857,13.204,83.486,12.869L83.486,12.869z M81.2,10.927l-1.124,1.406
		c0.377,0.301,0.749,0.608,1.116,0.92l1.166-1.372c-0.001-0.001-0.003-0.003-0.004-0.004c-0.003-0.002-0.005-0.004-0.008-0.007
		c-0.002-0.002-0.005-0.005-0.008-0.007c-0.005-0.004-0.01-0.009-0.016-0.013c-0.001-0.001-0.002-0.001-0.003-0.002
		c-0.005-0.004-0.009-0.008-0.014-0.012c-0.001-0.001-0.003-0.003-0.005-0.004c-0.004-0.003-0.008-0.007-0.012-0.01
		c-0.002-0.002-0.002-0.002-0.005-0.004c-0.005-0.004-0.01-0.009-0.016-0.013l0,0c-0.012-0.01-0.024-0.02-0.036-0.03l0,0
		c-0.006-0.005-0.012-0.01-0.017-0.015l-0.001-0.001c-0.286-0.241-0.575-0.479-0.866-0.714l-0.003-0.003
		c-0.005-0.004-0.01-0.008-0.015-0.012c-0.001-0.001-0.002-0.001-0.003-0.002c-0.006-0.005-0.011-0.009-0.017-0.014l-0.001-0.001
		c-0.005-0.004-0.01-0.008-0.015-0.012c-0.002-0.002-0.005-0.004-0.007-0.006c-0.003-0.002-0.006-0.005-0.009-0.007
		c-0.002-0.002-0.007-0.006-0.009-0.008c-0.002-0.002-0.004-0.003-0.006-0.005c-0.004-0.003-0.007-0.006-0.011-0.009
		c0,0-0.001,0-0.001-0.001C81.234,10.953,81.217,10.94,81.2,10.927L81.2,10.927z M78.802,9.124l-1.038,1.471
		c0.394,0.278,0.784,0.562,1.169,0.852l1.082-1.439C79.615,9.707,79.211,9.413,78.802,9.124L78.802,9.124z M76.301,7.468
		l-0.948,1.53c0.41,0.254,0.816,0.514,1.218,0.78l0.994-1.501c-0.167-0.111-0.334-0.22-0.503-0.329l-0.001-0.001
		c-0.004-0.003-0.009-0.006-0.013-0.009c-0.001-0.001-0.003-0.002-0.004-0.003c-0.004-0.003-0.009-0.006-0.013-0.008
		c-0.001-0.001-0.003-0.002-0.004-0.003C77.012,7.917,77,7.909,76.987,7.901c-0.002-0.002-0.005-0.003-0.007-0.005
		c-0.004-0.003-0.006-0.004-0.01-0.006c-0.003-0.002-0.005-0.004-0.008-0.005c-0.003-0.002-0.006-0.004-0.009-0.006
		c-0.003-0.002-0.007-0.004-0.01-0.006s-0.005-0.003-0.008-0.005c-0.006-0.004-0.011-0.007-0.017-0.011
		c-0.003-0.002-0.003-0.002-0.006-0.004c-0.004-0.003-0.008-0.005-0.013-0.008c-0.001-0.001-0.005-0.003-0.006-0.004
		c-0.004-0.003-0.008-0.005-0.012-0.008c-0.003-0.002-0.004-0.002-0.006-0.004c-0.004-0.003-0.009-0.006-0.013-0.009
		c-0.003-0.002-0.002-0.001-0.005-0.003c-0.012-0.008-0.025-0.016-0.037-0.024c-0.001-0.001-0.002-0.001-0.003-0.002
		c-0.005-0.003-0.01-0.007-0.016-0.01C76.8,7.78,76.799,7.78,76.798,7.779c-0.006-0.004-0.011-0.007-0.017-0.011L76.78,7.767
		c-0.013-0.008-0.026-0.017-0.039-0.025l0,0C76.593,7.65,76.447,7.559,76.301,7.468L76.301,7.468z M73.705,5.966L72.851,7.55
		c0.425,0.229,0.845,0.464,1.262,0.705l0.902-1.558c-0.31-0.18-0.623-0.356-0.938-0.529c-0.001-0.001-0.001,0-0.002-0.001
		c-0.006-0.003-0.011-0.006-0.017-0.009c-0.001-0.001-0.002-0.001-0.004-0.002c-0.005-0.003-0.011-0.006-0.016-0.009
		c-0.001-0.001-0.003-0.001-0.004-0.002c-0.006-0.003-0.013-0.007-0.019-0.01c-0.001-0.001-0.003-0.002-0.004-0.002
		c-0.005-0.003-0.009-0.005-0.014-0.008c-0.003-0.002-0.006-0.003-0.009-0.005c-0.003-0.002-0.006-0.004-0.01-0.005
		c-0.003-0.002-0.007-0.004-0.01-0.005c-0.003-0.002-0.006-0.003-0.008-0.005c-0.004-0.002-0.007-0.004-0.011-0.006
		c-0.001,0-0.002-0.001-0.003-0.001c-0.014-0.01-0.031-0.018-0.046-0.027L73.899,6.07C73.834,6.035,73.771,6.001,73.705,5.966
		L73.705,5.966z M71.024,4.621l-0.758,1.633c0.438,0.203,0.872,0.413,1.302,0.628l0.807-1.609c-0.003-0.001-0.005-0.002-0.008-0.004
		c-0.004-0.002-0.007-0.004-0.011-0.006s-0.005-0.003-0.009-0.005c-0.003-0.002-0.006-0.003-0.009-0.005
		c-0.003-0.001-0.007-0.004-0.01-0.005s-0.006-0.003-0.009-0.004c-0.004-0.002-0.006-0.003-0.01-0.005
		c-0.003-0.001-0.005-0.003-0.008-0.004c-0.014-0.007-0.026-0.013-0.04-0.02c-0.002-0.001-0.004-0.002-0.006-0.003
		c-0.004-0.002-0.008-0.004-0.012-0.006c-0.002-0.001-0.004-0.002-0.006-0.003c-0.004-0.002-0.008-0.004-0.012-0.006
		c-0.002-0.001-0.003-0.002-0.005-0.002c-0.021-0.011-0.042-0.021-0.064-0.031c-0.001,0-0.001-0.001-0.002-0.001
		c-0.328-0.162-0.657-0.321-0.99-0.476h-0.001c-0.016-0.007-0.029-0.013-0.045-0.021c-0.002-0.001-0.005-0.002-0.007-0.003
		c-0.003-0.001-0.006-0.003-0.009-0.004c-0.004-0.002-0.008-0.004-0.012-0.006c-0.001-0.001-0.005-0.002-0.007-0.003
		c-0.005-0.002-0.01-0.005-0.015-0.007c-0.001-0.001-0.002-0.001-0.003-0.002C71.051,4.634,71.037,4.628,71.024,4.621L71.024,4.621z
		 M68.266,3.442l-0.658,1.675c0.449,0.176,0.895,0.359,1.337,0.549l0.708-1.655C69.195,3.814,68.732,3.625,68.266,3.442
		L68.266,3.442z M65.442,2.43l-0.555,1.712c0.459,0.149,0.915,0.305,1.368,0.467l0.607-1.695C66.392,2.746,65.918,2.585,65.442,2.43
		L65.442,2.43z M62.562,1.591l-0.451,1.743c0.467,0.121,0.932,0.249,1.394,0.383l0.503-1.728c-0.002,0-0.003-0.001-0.004-0.001
		c-0.003-0.001-0.007-0.002-0.01-0.003s-0.006-0.002-0.009-0.003c-0.007-0.002-0.014-0.004-0.02-0.006
		c-0.002,0-0.003-0.001-0.004-0.001c-0.006-0.002-0.012-0.003-0.017-0.005c-0.002,0-0.002-0.001-0.004-0.001
		c-0.006-0.002-0.012-0.004-0.018-0.005l-0.003-0.001C63.68,1.894,63.44,1.827,63.2,1.761c-0.002,0-0.001,0-0.003-0.001
		c-0.006-0.002-0.013-0.004-0.019-0.005c-0.002,0-0.001,0-0.003-0.001c-0.007-0.002-0.014-0.004-0.02-0.006h-0.001
		c-0.014-0.004-0.029-0.008-0.043-0.012c-0.002,0-0.005-0.001-0.006-0.002C63.1,1.733,63.095,1.731,63.09,1.73
		c-0.003-0.001-0.004-0.001-0.007-0.002c-0.004-0.001-0.009-0.002-0.013-0.004c-0.002,0-0.007-0.002-0.009-0.002
		c-0.004-0.001-0.008-0.002-0.013-0.003s-0.007-0.002-0.012-0.003s-0.01-0.003-0.016-0.004c-0.005-0.001-0.007-0.002-0.012-0.003
		C63.005,1.708,63.003,1.708,63,1.707c-0.005-0.001-0.008-0.002-0.013-0.003c-0.002-0.001-0.005-0.001-0.007-0.002
		c-0.005-0.001-0.009-0.003-0.014-0.004c-0.002,0-0.003-0.001-0.005-0.001c-0.023-0.006-0.048-0.013-0.071-0.019l0,0
		c-0.006-0.002-0.012-0.003-0.018-0.005c0,0-0.001,0-0.002,0C62.766,1.644,62.665,1.618,62.562,1.591L62.562,1.591z M59.637,0.928
		l-0.345,1.767c0.474,0.093,0.946,0.192,1.415,0.298l0.398-1.755c-0.087-0.02-0.176-0.04-0.263-0.059
		c-0.002,0-0.004-0.001-0.005-0.001c-0.005-0.001-0.009-0.002-0.014-0.003c-0.003-0.001-0.005-0.001-0.008-0.002
		c-0.003-0.001-0.009-0.002-0.012-0.003c-0.003-0.001-0.006-0.001-0.009-0.002c-0.005-0.001-0.006-0.001-0.011-0.002
		c-0.005-0.001-0.01-0.002-0.015-0.003c-0.002,0-0.005-0.001-0.007-0.001c-0.007-0.001-0.013-0.003-0.02-0.004
		c-0.003-0.001-0.003-0.001-0.006-0.001c-0.005-0.001-0.011-0.002-0.016-0.004c-0.002,0-0.004-0.001-0.005-0.001
		c-0.006-0.001-0.012-0.003-0.018-0.004c-0.002,0-0.002,0-0.003-0.001C60.342,1.069,59.99,0.997,59.637,0.928L59.637,0.928z
		 M56.677,0.442l-0.238,1.784c0.479,0.064,0.956,0.135,1.43,0.213l0.292-1.776c-0.061-0.01-0.122-0.02-0.183-0.03
		c-0.002,0-0.003,0-0.004-0.001c-0.006-0.001-0.012-0.002-0.017-0.003c-0.002,0-0.004-0.001-0.006-0.001
		c-0.005-0.001-0.011-0.002-0.016-0.003c-0.002,0-0.005-0.001-0.006-0.001c-0.006-0.001-0.011-0.002-0.017-0.003
		c-0.002,0-0.003,0-0.005-0.001c-0.007-0.001-0.014-0.002-0.021-0.003c-0.003-0.001-0.008-0.001-0.011-0.002
		c-0.003-0.001-0.007-0.001-0.01-0.002c-0.005-0.001-0.007-0.001-0.012-0.002c-0.003,0-0.006-0.001-0.009-0.001
		c-0.004,0.001-0.01,0-0.013,0c-0.002,0-0.005-0.001-0.007-0.001c-0.005-0.001-0.009-0.001-0.014-0.002
		c-0.002,0-0.003-0.001-0.005-0.001c-0.024-0.004-0.047-0.007-0.071-0.011c-0.001,0-0.002,0-0.004-0.001
		c-0.006-0.001-0.01-0.002-0.017-0.003c-0.001,0-0.002,0-0.003,0c-0.006-0.001-0.011-0.002-0.018-0.003l0,0
		c-0.026-0.004-0.051-0.008-0.077-0.012l0,0C57.302,0.528,56.991,0.484,56.677,0.442L56.677,0.442z M53.693,0.134L53.562,1.93
		c0.482,0.035,0.963,0.078,1.441,0.127l0.185-1.791c-0.005-0.001-0.01-0.001-0.015-0.002c-0.001,0-0.001,0-0.002,0
		c-0.007-0.001-0.011-0.001-0.017-0.002c-0.001,0-0.002,0-0.004,0c-0.007-0.001-0.011-0.001-0.017-0.002c-0.001,0-0.002,0-0.003,0
		c-0.007-0.001-0.011-0.001-0.018-0.002l0,0c-0.026-0.003-0.052-0.005-0.078-0.008h-0.001c-0.007-0.001-0.012-0.001-0.019-0.002
		h-0.001C54.575,0.205,54.135,0.167,53.693,0.134L53.693,0.134z M50.697,0.005l-0.025,1.8c0.484,0.007,0.966,0.02,1.446,0.041
		l0.078-1.798C51.697,0.026,51.199,0.012,50.697,0.005L50.697,0.005z"/>
</g>
</svg>
