<?xml version="1.0" encoding="utf-8"?>
<!-- Generator: Adobe Illustrator 21.0.0, SVG Export Plug-In . SVG Version: 6.00 Build 0)  -->
<svg version="1.1" id="Layer_1" xmlns="http://www.w3.org/2000/svg" xmlns:xlink="http://www.w3.org/1999/xlink" x="0px" y="0px"
	 viewBox="0 0 68.978775 200" style="enable-background:new 0 0 68.978775 200;" xml:space="preserve">
<style type="text/css">
	.st0{fill:#797979;}
	.st1{fill:none;stroke:#FFFFFF;stroke-width:1.5;stroke-linecap:round;stroke-linejoin:round;}
</style>
<g>
	<g id="XMLID_62_">
		<g>
			<polygon class="st0" points="39.2195168,79.0204315 39.20298,79.003891 38.2767982,77.581543 37.2844658,76.3080521 
				36.225975,75.1999435 35.1178665,74.2902985 33.9766808,73.5791321 32.8189583,73.0664215 31.6446953,72.752182 
				30.4538937,72.6529465 29.2630901,72.752182 28.0722885,73.0664215 26.9145641,73.5791321 25.7733803,74.2902985 
				24.6652718,75.1999435 23.6233215,76.3080521 22.6144466,77.581543 21.6717281,79.036972 20.7786274,80.6577835 
				19.9847584,82.4109116 19.2570477,84.2963486 18.61203,86.3140945 18.0662441,88.431076 17.6031551,90.6307526 
				17.2558384,92.8965836 16.9912148,95.228569 16.8423653,97.5936356 16.7762089,99.975235 16.8423653,102.356842 
				16.8423653,102.571846 15.3042459,102.902626 13.7165098,103.28302 12.1783905,103.6964951 10.7064276,104.1430435 
				10.6568108,104.159584 10.3260326,104.2753601 10.2764158,103.498024 10.2764158,103.11763 10.2102594,100.2729416 
				10.2102594,99.975235 10.2764158,96.452446 10.5079603,92.9461975 10.8883553,89.489563 11.4176006,86.132164 
				12.0956964,82.85746 12.9226418,79.7316055 13.8653603,76.7546005 14.9403896,73.9429855 16.1311913,71.3463745 
				17.437767,68.9647675 18.8435745,66.8147125 20.332077,64.912735 21.886734,63.275383 23.5240879,61.9357338 
				25.2110558,60.8607025 26.9311047,60.0999107 28.6842289,59.6368217 30.4538937,59.4879723 32.2070198,59.6368217 
				33.960144,60.0999107 35.680191,60.8607025 37.3671608,61.9357338 39.0045128,63.275383 40.5757103,64.912735 
				42.0642128,66.8147125 43.4534798,68.9647675 44.7600555,71.3463745 45.9508553,73.9429855 47.0258865,76.7546005 
				47.9851456,79.7316055 48.7955513,82.85746 49.4736443,86.132164 50.0028915,89.489563 50.3832855,92.9461975 
				50.61483,96.452446 50.697525,99.975235 50.61483,103.498024 50.3832855,107.0042801 50.0028915,110.4443741 
				49.4736443,113.8183136 48.7955513,117.0764771 47.9851456,120.2188721 47.0258865,123.1958771 45.9508553,125.9909515 
				44.7600555,128.6040955 43.4534798,130.9857025 42.0642128,133.1357574 40.5757103,135.037735 39.0045128,136.6750946 
				37.3671608,138.01474 35.680191,139.0732422 33.960144,139.8505707 32.2070198,140.3136597 30.4538937,140.4625092 
				28.6842289,140.3136597 27.4934273,139.9994202 27.4438095,139.9828796 26.9311047,139.8505707 25.2110558,139.0732422 
				23.5240879,138.01474 22.7798367,137.4028015 22.7136803,137.3531952 21.886734,136.6750946 20.332077,135.037735 
				18.8435745,133.1357574 17.437767,130.9857025 17.2392998,130.638382 17.4046879,129.7618256 17.818161,128.2237091 
				18.363945,126.685585 19.0420418,125.213623 19.8359089,123.7747345 20.7290096,122.4185486 21.7048073,121.1285095 
				21.7709618,121.062355 22.6144466,122.3523941 23.6233215,123.6424255 24.6652718,124.7339935 25.7733803,125.6601715 
				26.9145641,126.3713455 28.0722885,126.8840561 29.2630901,127.1982956 30.4538937,127.2975311 31.6446953,127.1982956 
				32.8189583,126.8840561 33.9766808,126.3713455 35.1178665,125.6601715 36.225975,124.7339935 37.2844658,123.6424255 
				38.2767982,122.3523941 39.20298,120.9300461 39.2195168,120.9300461 39.2360573,120.9135056 40.1126213,119.2926941 
				40.9064865,117.539566 41.6011238,115.7699051 41.6176605,115.7037506 41.634201,115.654129 41.7830505,115.2075806 
				41.7830505,115.19104 42.2792168,113.6363831 42.5934563,112.4455795 42.8250008,111.5194016 43.2880898,109.319725 
				43.3873253,108.691246 43.651947,107.053894 43.900032,104.7219086 44.0654221,102.356842 44.115036,99.975235 
				44.0654221,97.5936356 43.900032,95.228569 43.651947,92.8965836 43.2880898,90.6307526 42.8250008,88.431076 
				42.2792168,86.3140945 41.634201,84.2963486 40.9064865,82.4109116 40.1126213,80.6577835 39.2360573,79.036972 			"/>
			<polygon class="st0" points="19.9847584,117.539566 20.3651543,118.383049 19.538208,119.3092346 19.5216694,119.3257675 
				18.4135628,120.7811966 17.4046879,122.319313 16.5115871,123.9401245 15.7507963,125.6270981 15.3207846,126.8179016 
				14.9403896,125.9909515 13.8653603,123.1958771 12.9226418,120.2188721 12.6580191,119.2430725 12.3603191,118.0522766 
				12.7241755,117.6388016 13.7992048,116.5968475 14.9734678,115.5879745 16.1973476,114.6783371 17.5204601,113.7852325 
				18.4797173,113.222908 18.4962559,113.222908 18.61203,113.6363831 19.2570477,115.654129 			"/>
			<polygon class="st0" points="17.6031551,109.319725 17.818161,110.3616791 17.5866165,110.4774475 16.0484962,111.3705521 
				14.5765333,112.346344 13.203804,113.3717575 13.1707258,113.4048386 11.8806906,114.5129471 11.6160679,114.7610321 
				11.4176006,113.8183136 10.8883553,110.4443741 10.5410385,107.2027435 11.5664511,106.8388901 11.5829897,106.8388901 
				12.9391813,106.425415 14.4111443,106.0284805 15.932725,105.6646271 17.0739098,105.4330826 17.2558384,107.053894 			"/>
		</g>
		<g>
			<polyline class="st1" points="30.4538937,59.4879723 32.2070198,59.6368217 33.960144,60.0999107 35.680191,60.8607025 
				37.3671608,61.9357338 39.0045128,63.275383 40.5757103,64.912735 42.0642128,66.8147125 43.4534798,68.9647675 
				44.7600555,71.3463745 45.9508553,73.9429855 47.0258865,76.7546005 47.9851456,79.7316055 48.7955513,82.85746 
				49.4736443,86.132164 50.0028915,89.489563 50.3832855,92.9461975 50.61483,96.452446 50.697525,99.975235 50.61483,103.498024 
				50.3832855,107.0042801 50.0028915,110.4443741 49.4736443,113.8183136 48.7955513,117.0764771 47.9851456,120.2188721 
				47.0258865,123.1958771 45.9508553,125.9909515 44.7600555,128.6040955 43.4534798,130.9857025 42.0642128,133.1357574 
				40.5757103,135.037735 39.0045128,136.6750946 37.3671608,138.01474 35.680191,139.0732422 33.960144,139.8505707 
				32.2070198,140.3136597 30.4538937,140.4625092 			"/>
			<polyline class="st1" points="10.5575771,115.8360596 9.4163923,115.4722061 8.2917452,115.0421906 7.3324885,114.6121826 
				6.4890037,114.149086 5.7778306,113.685997 5.2320461,113.222908 4.8351121,112.7763596 4.5704894,112.3628845 
				4.4381781,112.0155716 4.3885617,111.7013321 4.4051003,111.420166 4.504334,111.0893936 4.7358789,110.6924591 
				5.0997348,110.2624435 5.6124411,109.782814 6.2905369,109.2701111 7.0678658,108.773941 8.0602007,108.2446976 
				9.0856133,107.7816086 10.2929544,107.2854385 10.5410385,107.2027435 11.5664511,106.8388901 11.5829897,106.8388901 
				12.9391813,106.425415 14.4111443,106.0284805 15.932725,105.6646271 17.0739098,105.4330826 17.5204601,105.333847 
				19.1412735,105.0361481 20.795166,104.7715225 22.4655972,104.539978 24.1360264,104.3249741 25.8064575,104.159584 
				27.4438095,104.0107346 29.0480843,103.8949585 30.6192818,103.8122635 32.1077843,103.746109 33.546669,103.6964951 
				34.4563103,103.6799545 34.886322,103.6799545 36.0771255,103.6799545 36.14328,103.6799545 37.2183113,103.6964951 
				37.2513885,103.6964951 38.243721,103.7130356 38.326416,103.7295685 39.1699028,103.7626495 39.9472313,103.8122635 
				40.5757103,103.8618851 40.6087875,103.8618851 40.9726448,103.911499 40.9891815,103.911499 41.2868843,103.9611206 
				41.468811,104.0107346 			"/>
			<polyline class="st1" points="17.818161,110.3616791 17.6031551,109.319725 17.2558384,107.053894 17.0739098,105.4330826 			"/>
			<polyline class="st1" points="38.6737328,114.1325531 37.7971725,114.5460205 36.6725235,114.9925766 36.5898323,115.02565 			
				"/>
			<polyline class="st1" points="11.6160679,114.7610321 11.4176006,113.8183136 10.8883553,110.4443741 10.5410385,107.2027435 			
				"/>
			<polyline class="st1" points="20.3651543,118.383049 19.9847584,117.539566 19.2570477,115.654129 18.61203,113.6363831 
				18.4962559,113.222908 			"/>
			<polyline class="st1" points="14.4772997,138.3289795 13.6503544,137.9485931 13.584199,137.9155121 12.2445469,137.1547241 
				11.0041275,136.3112335 10.9379721,136.2616272 9.8298645,135.335434 9.7802477,135.2858276 8.7879133,134.276947 
				7.9444284,133.185379 7.8948116,133.1192322 7.1836381,131.9780426 7.1505604,131.89534 6.5882373,130.6880035 
				6.5551596,130.6053162 6.1582255,129.3483582 6.1416864,129.249115 5.8936028,127.9590836 5.8770638,127.859848 
				5.7943692,126.5367355 5.7943692,126.4540405 5.8770638,125.0978546 5.8770638,125.0151596 6.1086087,123.6589661 
				6.1416864,123.5762711 6.5220819,122.2200775 7.0513268,120.8804245 7.0844049,120.8308105 7.7625003,119.5242386 
				7.795578,119.4580841 8.6059847,118.1845856 8.6225243,118.1845856 9.5817814,116.9276276 9.6148586,116.8780136 
				10.5575771,115.8360596 10.689888,115.6706696 11.6160679,114.7610321 11.8806906,114.5129471 13.1707258,113.4048386 
				13.203804,113.3717575 14.5765333,112.346344 16.0484962,111.3705521 17.5866165,110.4774475 17.818161,110.3616791 
				19.1743526,109.6670456 20.8117046,108.9393311 22.4655972,108.2943115 24.152565,107.731987 25.8229961,107.268898 
				27.4934273,106.8719635 29.1473179,106.5742645 30.7681332,106.34272 30.8342876,106.34272 32.4054832,106.1938705 
				33.9270668,106.1277161 34.6878548,106.1442566 35.349411,106.1607895 35.4486465,106.1607895 35.9282722,106.1938705 
				36.7056046,106.2434845 36.8048363,106.260025 38.0617943,106.425415 39.20298,106.6569595 39.3187523,106.6735001 
				40.3441658,106.971199 40.4268608,106.9877396 41.3364983,107.351593 41.4357338,107.3846741 42.2296028,107.7981491 
				42.3288345,107.8643036 42.9738541,108.3108521 43.0730858,108.3770065 43.1557808,108.4597015 43.3873253,108.691246 			"/>
			<polyline class="st1" points="42.5934563,112.4455795 41.76651,112.0651855 41.6507378,112.0321045 41.5680428,111.9990311 
				41.5349655,111.9990311 40.4764748,111.6351776 40.377243,111.6020966 39.0045128,111.3043976 38.9218178,111.2878571 
				37.482933,111.122467 35.9944305,111.0728531 35.9282722,111.0728531 35.4982605,111.0893936 34.3736153,111.122467 
				32.785881,111.3209381 31.1816044,111.668251 31.1319885,111.6847916 29.5277138,112.1809616 27.9565163,112.8259735 
				27.9069004,112.842514 26.3687801,113.6198425 24.8802776,114.5294876 23.4248543,115.5548935 22.052124,116.6960831 
				20.7455502,117.9530411 20.3651543,118.383049 19.538208,119.3092346 19.5216694,119.3257675 18.4135628,120.7811966 
				17.4046879,122.319313 16.5115871,123.9401245 15.7507963,125.6270981 15.3207846,126.8179016 15.1223183,127.3636856 
				15.1223183,127.3802185 14.6426897,129.1498871 14.295372,130.9526215 14.1134443,132.7719116 14.0803661,134.574646 
				14.0969048,134.9550476 14.1795998,136.3939362 14.4442225,138.1635895 14.4607611,138.1966705 14.4772997,138.3289795 
				14.8742342,139.9497986 15.4365568,141.6533051 16.1642704,143.2906647 16.180809,143.3237305 17.0077534,144.8618622 
				17.0408325,144.894928 18.0331669,146.3834381 19.157814,147.7727051 19.1908913,147.8057861 20.4147701,149.0296631 
				20.4478493,149.0627441 21.8205795,150.2039185 23.2925415,151.2127991 24.863739,152.105896 24.8968163,152.1224365 
				26.5341702,152.866684 28.2542171,153.4620972 30.0238819,153.9086456 30.0569592,153.9251862 31.8597012,154.2063446 
				33.6955185,154.3551941 35.5644188,154.3386536 37.4167747,154.1401825 39.2525978,153.7763367 39.285675,153.7597961 
				41.0884171,153.2636261 42.858078,152.602066 44.5615883,151.7916565 46.1989403,150.8323975 47.7535973,149.75737 
				49.2090225,148.5500336 50.5652161,147.243454 51.8056335,145.821106 52.9302788,144.29953 53.9391518,142.6787262 
				54.7991753,141.0082855 55.5268898,139.2551575 56.0892143,137.4689636 56.2215233,136.923172 			"/>
			<polyline class="st1" points="15.3207846,126.8179016 14.9403896,125.9909515 13.8653603,123.1958771 12.9226418,120.2188721 
				12.6580191,119.2430725 12.3603191,118.0522766 			"/>
			<polyline class="st1" points="34.340538,100.851799 34.3074608,99.975235 34.3736153,97.5936356 34.5224648,95.228569 
				34.7870903,92.8965836 35.134407,90.6307526 35.597496,88.431076 36.14328,86.3140945 36.7882957,84.2963486 
				37.5160103,82.4109116 38.3098793,80.6577835 39.20298,79.036972 39.2195168,79.0204315 39.2195168,79.003891 			"/>
			<polyline class="st1" points="10.3260326,104.2753601 10.2764158,103.498024 10.2764158,103.11763 10.2102594,100.2729416 
				10.2102594,99.975235 10.2764158,96.452446 10.5079603,92.9461975 10.8883553,89.489563 11.4176006,86.132164 
				12.0956964,82.85746 12.9226418,79.7316055 13.8653603,76.7546005 14.9403896,73.9429855 16.1311913,71.3463745 
				17.437767,68.9647675 18.8435745,66.8147125 20.332077,64.912735 21.886734,63.275383 23.5240879,61.9357338 
				25.2110558,60.8607025 26.9311047,60.0999107 28.6842289,59.6368217 30.4538937,59.4879723 47.9851456,59.4879723 
				49.7382698,59.6368217 51.491394,60.0999107 53.211441,60.8607025 54.8984108,61.9357338 56.5357628,63.275383 
				58.1069603,64.912735 59.5954628,66.8147125 60.9847298,68.9647675 62.2913055,71.3463745 63.4821091,73.9429855 
				64.5571365,76.7546005 65.5163956,79.7316055 66.3268051,82.85746 67.0048981,86.132164 67.5341415,89.489563 
				67.9145355,92.9461975 68.14608,96.452446 68.228775,99.975235 68.14608,103.498024 67.9145355,107.0042801 
				67.5341415,110.4443741 67.0048981,113.8183136 66.3268051,117.0764771 65.5163956,120.2188721 64.5571365,123.1958771 
				63.4821091,125.9909515 62.2913055,128.6040955 60.9847298,130.9857025 59.5954628,133.1357574 58.1069603,135.037735 
				56.5357628,136.6750946 56.2876778,136.8735657 56.2215233,136.923172 54.8984108,138.01474 53.211441,139.0732422 
				52.3844948,139.4536285 51.491394,139.8505707 49.7382698,140.3136597 47.9851456,140.4625092 30.4538937,140.4625092 
				28.6842289,140.3136597 27.4934273,139.9994202 27.4438095,139.9828796 26.9311047,139.8505707 25.2110558,139.0732422 
				23.5240879,138.01474 22.7798367,137.4028015 22.7136803,137.3531952 21.886734,136.6750946 20.332077,135.037735 
				18.8435745,133.1357574 17.437767,130.9857025 17.2392998,130.638382 			"/>
			<polyline class="st1" points="22.7136803,137.3531952 21.969429,137.3201141 20.4147701,137.1547241 18.9262676,136.8900909 
				17.5369987,136.4931641 17.0408325,136.3112335 			"/>
			<polyline class="st1" points="41.6176605,115.7037506 41.1214943,116.034523 40.129158,116.580307 40.046463,116.6133881 
				38.9383583,117.1426315 37.7144775,117.6388016 37.6317825,117.6553421 37.5821648,117.6884155 			"/>
			<polyline class="st1" points="35.0847893,108.988945 35.134407,109.319725 35.4982605,111.0893936 			"/>
			<polyline class="st1" points="27.4438095,139.9828796 27.1130314,140.032486 25.3102894,140.1813354 23.5240879,140.2144165 
				21.7709618,140.1482697 21.7213459,140.1482697 20.0012989,139.9497986 18.3143291,139.6520996 17.7023888,139.4867096 			"/>
			<polyline class="st1" points="39.20298,120.9300461 38.2767982,122.3523941 37.2844658,123.6424255 36.225975,124.7339935 
				35.1178665,125.6601715 33.9766808,126.3713455 32.8189583,126.8840561 31.6446953,127.1982956 30.4538937,127.2975311 
				29.2630901,127.1982956 28.0722885,126.8840561 26.9145641,126.3713455 25.7733803,125.6601715 24.6652718,124.7339935 
				23.6233215,123.6424255 22.6144466,122.3523941 21.7709618,121.062355 			"/>
			<polyline class="st1" points="16.8423653,102.571846 16.8423653,102.356842 16.7762089,99.975235 16.8423653,97.5936356 
				16.9912148,95.228569 17.2558384,92.8965836 17.6031551,90.6307526 18.0662441,88.431076 18.61203,86.3140945 
				19.2570477,84.2963486 19.9847584,82.4109116 20.7786274,80.6577835 21.6717281,79.036972 22.6144466,77.581543 
				23.6233215,76.3080521 24.6652718,75.1999435 25.7733803,74.2902985 26.9145641,73.5791321 28.0722885,73.0664215 
				29.2630901,72.752182 30.4538937,72.6529465 31.6446953,72.752182 32.8189583,73.0664215 33.9766808,73.5791321 
				35.1178665,74.2902985 36.225975,75.1999435 37.2844658,76.3080521 38.2767982,77.581543 39.20298,79.003891 
				39.2195168,79.0204315 39.2360573,79.036972 40.1126213,80.6577835 40.9064865,82.4109116 41.634201,84.2963486 
				42.2792168,86.3140945 42.8250008,88.431076 43.2880898,90.6307526 43.651947,92.8965836 43.900032,95.228569 
				44.0654221,97.5936356 44.115036,99.975235 44.0654221,102.356842 43.900032,104.7219086 43.651947,107.053894 
				43.3873253,108.691246 43.2880898,109.319725 42.8250008,111.5194016 42.5934563,112.4455795 42.2792168,113.6363831 
				41.7830505,115.19104 41.7830505,115.2075806 41.634201,115.654129 41.6176605,115.7037506 41.6011238,115.7699051 
				40.9064865,117.539566 40.1126213,119.2926941 39.2360573,120.9135056 39.2195168,120.9300461 			"/>
			<polyline class="st1" points="8.6059847,118.1845856 8.4736738,118.1515045 7.249794,117.6884155 7.1670995,117.6553421 
				6.0589919,117.1426315 5.0666571,116.6133881 4.9839625,116.5637741 4.123939,116.0014496 4.041244,115.9352951 
				3.3135319,115.323349 3.2308373,115.240654 2.6685143,114.5956421 2.5858197,114.5129471 2.519664,114.4137115 
				2.0896523,113.7521515 2.0565743,113.685997 2.0069575,113.5702286 1.742335,112.9086685 1.6927181,112.7763596 
				1.6596404,112.6605835 1.5604069,111.9824905 1.5438679,111.8501816 1.5438679,111.7344055 1.5934848,111.0563126 
				1.5934848,110.9405365 1.6265626,110.8247681 1.6596404,110.6924591 1.8746463,110.030899 1.924263,109.9316635 
				1.9738798,109.8158951 2.3542747,109.1708755 2.4204304,109.07164 2.4865861,108.9724121 3.0158315,108.3439331 
				3.098526,108.2612381 3.7600827,107.6327591 3.8427773,107.5500641 4.6531839,106.9546585 4.7524176,106.888504 
				5.5959024,106.3592606 5.678597,106.3096466 6.7370877,105.7307816 6.8197823,105.6977005 7.9278893,105.1849976 
				7.9940453,105.1519165 9.2840805,104.6392136 10.3260326,104.2753601 10.6568108,104.159584 10.7064276,104.1430435 
				12.1783905,103.6964951 13.7165098,103.28302 15.3042459,102.902626 16.8423653,102.571846 16.9581375,102.5553055 
				18.6616459,102.2410736 20.3651543,101.9599075 22.1017399,101.728363 23.8217869,101.5133591 25.5418358,101.3314285 
				27.2288036,101.182579 28.8826962,101.0668106 30.4869709,100.9675751 32.0085526,100.9014206 33.463974,100.8683395 
				34.340538,100.851799 34.8367043,100.851799 36.1102028,100.851799 36.1763573,100.851799 37.2844658,100.851799 
				37.3506203,100.851799 38.326416,100.8848801 38.3925743,100.8848801 39.335289,100.934494 40.129158,100.9841156 
				40.7907143,101.0337296 40.923027,101.0502701 41.4357338,101.099884 41.8161278,101.1660385 41.9484406,101.1991196 
				42.1303673,101.2487335 42.312294,101.2983551 42.4280663,101.3479691 42.5438385,101.4141235 42.6596146,101.480278 
				42.7423058,101.562973 42.8415413,101.6291275 42.940773,101.728363 43.023468,101.8275986 43.0896263,101.9268341 
				43.1557808,102.0426025 43.2219353,102.1583786 43.2550125,102.2906876 43.2880898,102.4229965 43.3211708,102.5553055 
				43.3211708,102.7041626 43.3211708,102.7868576 43.3046303,102.9191666 43.271553,103.0514755 43.2384758,103.1837845 
				43.188858,103.2995605 43.1227036,103.4153366 43.0565453,103.531105 42.9738541,103.6303406 42.8746185,103.7295685 
				42.7753868,103.8122635 42.7092285,103.8784256 42.6099968,103.9445801 42.4942245,104.0107346 42.3619118,104.0603485 
				42.2461395,104.1099701 42.1138268,104.1430435 41.8822823,104.1926651 41.7499733,104.209198 41.386116,104.2588196 
				40.8734093,104.291893 40.7411003,104.3084335 40.0960808,104.3249741 39.3187523,104.3415146 38.409111,104.3580475 
				37.3836975,104.3580475 36.225975,104.3415146 34.969017,104.3084335 34.4893875,104.291893 			"/>
			<polyline class="st1" points="41.5349655,111.9990311 41.6176605,111.883255 41.7499733,111.6020966 41.7830505,111.4036255 
				41.76651,111.254776 41.7168961,111.0893936 41.551506,110.8578415 41.2538033,110.5601425 40.8237915,110.2624435 
				40.2283936,109.948204 39.4841423,109.6670456 38.5910378,109.4189606 37.6317825,109.2204895 36.4575195,109.07164 
				35.7794228,109.0220261 35.2997971,108.988945 35.0847893,108.988945 33.960144,108.9724121 32.5543365,109.0220261 
				31.1154499,109.154335 29.643486,109.3528061 28.1053677,109.6505051 26.5341702,110.0143585 24.9795113,110.4443741 
				23.4248543,110.957077 21.886734,111.5524826 20.3982315,112.2305756 18.9262676,112.974823 18.4962559,113.222908 
				18.4797173,113.222908 17.5204601,113.7852325 16.1973476,114.6783371 14.9734678,115.5879745 13.7992048,116.5968475 
				12.7241755,117.6388016 12.3603191,118.0522766 11.7814569,118.6972885 11.5499125,119.011528 10.9379721,119.805397 
				10.226799,120.9135056 9.6479368,122.0216141 9.2013865,123.1462631 8.8871469,124.254364 8.6886797,125.3790131 
				8.6390629,126.4705811 8.7052183,127.5456085 8.8871469,128.5875702 9.2179251,129.6129761 9.6644754,130.5887756 
				10.226799,131.5149536 10.9214334,132.39151 11.7318401,133.2350006 12.6910973,134.0288696 13.7330494,134.7565765 
				14.0969048,134.9550476 			"/>
			<polyline class="st1" points="4.4216394,99.7271576 4.4381781,99.7271576 5.2651238,99.842926 6.224381,99.9421616 
				7.2994108,100.0413971 8.4736738,100.140625 9.7140923,100.2398605 9.7637091,100.2398605 10.2102594,100.2729416 			"/>
			<polyline class="st1" points="41.7830505,115.2075806 41.7168961,115.1579666 40.7411003,114.7114105 39.666069,114.3475571 
				38.6737328,114.1325531 38.5083466,114.099472 37.2844658,113.9506226 36.225975,113.9175415 35.9613533,113.9010086 
				34.638237,113.9506226 33.2324295,114.1325531 31.8762398,114.4137115 30.4869709,114.8437271 29.097702,115.4225845 
				27.7745876,116.0841446 26.4349365,116.8945465 25.1449013,117.8041916 23.9375591,118.8130646 22.7798367,119.937706 
				21.7709618,121.062355 21.7048073,121.1285095 20.7290096,122.4185486 19.8359089,123.7747345 19.0420418,125.213623 
				18.363945,126.685585 17.818161,128.2237091 17.4046879,129.7618256 17.2392998,130.638382 17.106987,131.3495636 
				16.9415989,132.9373016 16.9085217,134.5250397 17.0077534,136.1127625 17.0408325,136.3112335 17.2392998,137.6508942 
				17.5866165,139.1559296 17.7023888,139.4867096 18.0827847,140.6444397 18.7112617,142.0667725 19.4389744,143.4064331 
				20.2989979,144.6964722 21.2913342,145.8872681 22.3498249,146.945755 23.5406265,147.9380951 24.8141232,148.831192 
				26.1537743,149.59198 27.5761223,150.220459 29.0811634,150.7497101 30.6358204,151.146637 32.1739388,151.3947296 
				33.7782135,151.510498 35.3990288,151.4939575 37.0198441,151.3285675 38.6241188,151.014328 40.1787758,150.5677795 
				41.7334328,149.9889221 43.2384758,149.2777405 44.6773605,148.4508057 46.0335503,147.4915466 47.3070488,146.449585 
				48.4978485,145.2918701 49.605957,144.0349121 50.5982933,142.6952515 51.4748535,141.289444 52.2356453,139.8009491 
				52.3844948,139.4536285 			"/>
			<polyline class="st1" points="39.2195168,120.9300461 39.20298,120.9300461 39.20298,120.9135056 38.3098793,119.2926941 
				37.5821648,117.6884155 37.5160103,117.539566 36.7882957,115.654129 36.5898323,115.02565 36.225975,113.9175415 			"/>
			<polyline class="st1" points="10.2764158,103.11763 9.5817814,103.0680161 9.5321646,103.0680161 8.2255898,102.9687805 
				7.018249,102.869545 5.9266806,102.7537766 4.9508848,102.654541 4.1073999,102.5387726 3.4127655,102.4229965 
				3.2804542,102.406456 2.701592,102.2906876 2.2715802,102.1749115 2.1392689,102.1418381 2.0069575,102.0922165 
				1.725796,101.9764481 1.6100236,101.9102936 1.4942513,101.8441391 1.3784788,101.7449036 1.2461674,101.645668 
				1.1634729,101.562973 1.0642394,101.4637375 0.9980837,101.3645096 0.9319281,101.2487335 0.8657724,101.1329651 
				0.8161557,101.0006485 0.7830778,100.8848801 0.7665389,100.7525711 0.75,100.6202545 0.75,100.4879456 0.7665389,100.3721695 
				0.7830778,100.2729416 0.8161557,100.140625 0.8492335,100.008316 0.8988503,99.8760071 0.9650059,99.760231 
				1.0311615,99.6444626 1.1138562,99.5286865 1.1965507,99.4459915 1.2957842,99.3632965 1.4115566,99.2806015 
				1.5769458,99.1648331 1.6927181,99.0986786 1.8084906,99.049057 1.924263,98.9994431 2.2881191,98.9002075 2.4038916,98.8671341 
				2.6685143,98.800972 2.701592,98.800972 2.7346699,98.7844391 2.8339033,98.7678986 2.9662147,98.751358 3.0819871,98.751358 
				3.2142985,98.751358 3.3135319,98.751358 3.4458432,98.7844391 3.5781546,98.834053 3.693927,98.883667 3.8096995,98.9332886 
				3.9254718,99.0159836 4.0247054,99.0986786 4.1073999,99.1813736 4.1900945,99.2806015 4.272789,99.3963776 4.3389449,99.512146 
				4.3885617,99.6279221 4.4216394,99.7271576 4.4381781,99.7436905 4.4712563,99.8760071 4.4877949,100.008316 
				4.504334,100.140625 4.504334,100.2729416 4.4877949,100.3721695 4.4712563,100.5044861 4.4216394,100.636795 
				4.3720226,100.769104 4.3224058,100.8848801 4.2562504,100.9841156 4.1735554,101.099884 4.0908608,101.182579 
				3.9916275,101.2818146 3.8923941,101.3479691 3.7766216,101.4141235 3.6608491,101.4637375 3.5450768,101.5133591 
				3.4293044,101.5464325 3.3466098,101.562973 3.2804542,101.5795135 3.1646817,101.5795135 3.0323703,101.5960541 
				2.9992926,101.645668 2.9331369,101.6622086 2.8008256,101.6125946 2.6850531,101.4968185 2.5527418,101.4472046 
				2.4369695,101.3810425 2.3377359,101.2983551 2.2385025,101.2156601 2.1392689,101.1329651 2.0565743,101.0337296 
				1.9738798,100.9179535 1.924263,100.8187256 1.8581073,100.686409 1.8250295,100.5706406 1.7919517,100.4383316 
				1.7588738,100.306015 1.7588738,100.1737061 1.7588738,100.0413971 1.7588738,99.9587021 1.7919517,99.8098526 
				1.8250295,99.677536 1.8746463,99.5617676 1.940802,99.4459915 2.0069575,99.3302231 2.0896523,99.2309875 2.1723468,99.131752 
				2.2715802,99.049057 2.3708138,98.966362 2.4700472,98.9002075 2.5858197,98.8505936 2.701592,98.800972 			"/>
			<polyline class="st1" points="34.4563103,103.6799545 34.4893875,104.291893 34.5224648,104.7219086 34.6878548,106.1442566 			
				"/>
		</g>
	</g>
</g>
</svg>
