<?xml version="1.0" encoding="utf-8"?>
<!-- Generator: Adobe Illustrator 21.0.0, SVG Export Plug-In . SVG Version: 6.00 Build 0)  -->
<svg version="1.1" id="Layer_1" xmlns="http://www.w3.org/2000/svg" xmlns:xlink="http://www.w3.org/1999/xlink" x="0px" y="0px"
	 viewBox="0 0 101.5001678 200" style="enable-background:new 0 0 101.5001678 200;" xml:space="preserve">
<style type="text/css">
	.st0{fill:#ECF0F1;}
	.st1{fill:none;stroke:#000000;stroke-width:1.5;stroke-linecap:round;stroke-linejoin:round;}
	.st2{fill:none;stroke:#000000;stroke-linecap:round;stroke-linejoin:round;}
</style>
<g>
	<g id="XMLID_56_">
		<g>
			<polygon class="st0" points="82.8784943,89.6650009 82.8784943,110.3189774 81.3959503,110.3189774 72.5413513,110.3189774 
				72.5413513,106.602478 72.5413513,93.4018097 72.5413513,89.6650009 81.3959503,89.6650009 			"/>
			<polygon class="st0" points="36.5136681,160.8877106 42.4438171,160.8877106 46.8305016,160.8877106 46.8305016,181.5213776 
				36.5136681,181.5213776 			"/>
			<polygon class="st0" points="49.3487549,94.0516968 48.5770264,88.2839966 47.3179321,82.8615723 45.6119995,77.9671631 
				43.4998779,73.7632446 41.0425415,70.3311157 38.3414307,67.8128052 35.4576416,66.2693481 32.472229,65.741333 
				29.5071411,66.2693481 26.623291,67.8128052 23.9222412,70.3311157 21.4649048,73.7632446 20.5510254,75.5910645 
				32.472229,75.5910645 33.548584,75.6925659 34.6046753,75.956604 35.6403809,76.4237061 36.6558228,77.0736084 
				37.6306763,77.8859253 38.585144,78.8607788 39.4787598,79.9980469 40.3317261,81.2977905 41.1034546,82.7397461 
				41.8345337,84.3034668 42.484436,85.9891357 43.0531006,87.7965698 43.5404663,89.6853027 43.9466553,91.6552734 
				44.2716064,93.6860962 44.4949951,95.7576294 44.637146,97.869751 44.6777954,100.0021362 44.637146,102.1142578 
				44.4949951,104.2263794 44.2716064,106.3181763 43.9466553,108.348999 43.5404663,110.298645 43.0531006,112.1873779 
				42.484436,113.994873 41.8345337,115.680481 41.1034546,117.2442627 40.3317261,118.6861572 39.4787598,119.9859009 
				38.585144,121.12323 37.6306763,122.1183472 36.6558228,122.9306641 35.6403809,123.5602417 34.6046753,124.0273438 
				33.548584,124.3117065 32.472229,124.3929443 20.5510254,124.3929443 21.4649048,126.2410278 23.9222412,129.6528931 
				26.623291,132.1914673 29.5071411,133.7349243 32.472229,134.2426758 35.4576416,133.7349243 38.3414307,132.1914673 
				41.0425415,129.6528931 43.4998779,126.2410278 45.6119995,122.0167847 47.3179321,117.1223755 48.5770264,111.7202759 
				49.3487549,105.9525757 49.5112305,102.3376465 49.612793,100.0021362 			"/>
			<path class="st0" d="M11.8791819,75.6925964l1.0763626-0.1015396l1.0560541,0.1015396l1.0560541,0.2640152l1.0357447,0.4671021
				l1.0154362,0.6498795l0.9951286,0.8123474l0.9342003,0.9748154l0.8935852,1.137291l0.8529663,1.2997589l0.7717304,1.4419174
				l0.7311153,1.5637741l0.6498795,1.6856232l0.5686436,1.8074799l0.4874096,1.88871l0.4061737,1.9699478l0.3249397,2.0308685
				l0.2233963,2.0714951l0.1421604,2.1121063l0.0406189,2.1324158l-0.0406189,2.1121063l-0.1421604,2.1121063l-0.2233963,2.0918045
				l-0.3249397,2.0308685l-0.4061737,1.9496384l-0.4874096,1.88871l-0.5686436,1.8074799l-0.6498795,1.6856232l-0.7311153,1.5637741
				l-0.7717304,1.4419174l-0.8529663,1.2997589l-0.8935852,1.137291l-0.9342003,0.9951248l-0.9951286,0.8123474l-1.0154362,0.62957
				l-1.0357447,0.4671021l-1.0560541,0.2843246l-1.0560541,0.0812302l-1.0763626-0.0812302l-1.0560532-0.2843246
				l-1.0357456-0.4671021l-1.0154362-0.62957l-0.9748187-0.8123474l-0.9545102-0.9951248l-0.8935838-1.137291l-0.8326578-1.2997589
				l-0.7920403-1.4419174l-0.7311144-1.5637741l-0.6295705-1.6856232l-0.588953-1.8074799l-0.4874095-1.88871l-0.4061745-1.9496384
				l-0.3249396-2.0308685l-0.223396-2.0918045l-0.1421611-2.1121063L0.75,100.0021439l0.0406175-2.1324158l0.1421611-2.1121063
				l0.2233961-2.0714951l0.3249396-2.0308685l0.4061745-1.9699478l0.4874096-1.88871l0.588953-1.8074799l0.6295705-1.6856232
				l0.7311141-1.5637741l0.7920403-1.4419174l0.8326578-1.2997589l0.8935838-1.137291l0.9545102-0.9748154l0.9748187-0.8123474
				l1.0154362-0.6498795l1.0357456-0.4671021L11.8791819,75.6925964z M18.2358131,100.0021439v-0.162468l-0.0203075-0.7717361
				l-0.0406189-0.913887l-0.0203075-0.182785l-0.0812359-0.7108002l-0.121851-0.8935852l-0.0406189-0.1827774L17.768713,95.513916
				l-0.2030869-0.8529663l-0.040617-0.1827774l-0.2030888-0.5889587l-0.2640133-0.7717285l-0.0609264-0.162468l-0.2640133-0.5280304
				l-0.3249397-0.6498795l-0.081234-0.1421585l-0.3046303-0.4264832l-0.3858671-0.5483398l-0.0609255-0.1015396
				l-0.3452482-0.3249435l-0.4264841-0.3858643l-0.0812349-0.0812302l-0.3858652-0.2030869l-0.4467916-0.2437057
				l-0.0812349-0.0406189l-0.3858662-0.0609283l-0.4671011-0.0812302l-0.0609255-0.0203094l-0.4264841,0.0812302
				l-0.4671001,0.0812378h-0.0406179l-0.4061737,0.2233963l-0.4671011,0.2437057l-0.0406179,0.0203094l-0.3858652,0.3858643
				l-0.4467926,0.3858643v0.0203094L9.828001,91.0866089l-0.3858662,0.5483398l-0.3452482,0.6701889l-0.3046312,0.6498795
				l-0.0203085,0.0203094l-0.2640133,0.792038l-0.2640133,0.7108078L8.2236118,94.539093l-0.1827793,0.8732758l-0.1827784,0.7717361
				l-0.0203085,0.0812302l-0.1218524,0.9342041l-0.1015434,0.7717285v0.1421661l-0.0406175,0.9341965l-0.0406175,0.7920456v0.162468
				l0.0406175,0.9342041l0.0406175,0.7717285l0.0203085,0.162468l0.1218524,0.9138947l0.1015434,0.7108078l0.0406175,0.1827774
				l0.1827788,0.8529663l0.1624699,0.6701889l0.0609264,0.162468l0.2640133,0.7514191l0.2233953,0.6092682l0.0609264,0.1421585
				l0.3249397,0.6701889l0.2640133,0.5077133l0.0812349,0.1218567l0.3858662,0.5280228l0.3046303,0.4264832l0.0812349,0.0812378
				l0.4264841,0.3858643l0.3249388,0.3249435l0.0812349,0.0406189l0.4467926,0.2436981l0.3858652,0.2030945h0.0812349
				l0.4467926,0.0812302l0.4061747,0.0812378l0.0609255-0.0203094l0.4467926-0.0812378l0.4061747-0.0609207l0.0609255-0.0406189
				l0.4467926-0.2233963l0.4061737-0.2233963l0.0203094-0.0406189l0.4264832-0.3858643l0.4061747-0.3655624v-0.0203018
				l0.3858652-0.5280304l0.3655577-0.5280304l0.3249397-0.6498718l0.3249397-0.6498795l0.0203075-0.0203094l0.2437057-0.7108078
				l0.2640133-0.7514267l0.0203094-0.0609207l0.1827774-0.7717361l0.1827793-0.8326569l0.0203075-0.1015396l0.1218529-0.7717361
				l0.1218529-0.8935852v-0.1218491l0.040617-0.792038L18.2358131,100.0021439z"/>
		</g>
		<g>
			<line class="st1" x1="46.8305016" y1="181.5213776" x2="46.8305016" y2="160.8877106"/>
			<line class="st1" x1="36.5136681" y1="181.5213776" x2="36.5136681" y2="160.8877106"/>
			<line class="st1" x1="64.7224884" y1="160.8877106" x2="64.7224884" y2="181.5213776"/>
			<line class="st1" x1="82.8784943" y1="89.6650009" x2="82.8784943" y2="110.3189774"/>
			<line class="st1" x1="100.7501678" y1="89.6650009" x2="100.7501678" y2="110.3189774"/>
			<polyline class="st1" points="12.9555445,75.5910568 20.5510082,75.5910568 32.4722328,75.5910568 			"/>
			<polyline class="st1" points="64.7224884,181.5213776 46.8305016,181.5213776 36.5136681,181.5213776 			"/>
			<polyline class="st1" points="72.5413513,89.6650009 81.3959503,89.6650009 82.8784943,89.6650009 85.0312195,89.6650009 
				99.3285599,89.6650009 100.7501678,89.6650009 			"/>
			<polyline class="st1" points="72.5413513,110.3189774 81.3959503,110.3189774 82.8784943,110.3189774 85.0312195,110.3189774 
				99.3285599,110.3189774 100.7501678,110.3189774 			"/>
			<line class="st1" x1="58.7923393" y1="151.3426056" x2="58.7923393" y2="160.8877106"/>
			<line class="st1" x1="42.4438171" y1="160.8877106" x2="42.4438171" y2="151.3426056"/>
			<polyline class="st1" points="80.6648407,75.5910568 88.2806091,75.5910568 89.3366623,75.6925964 90.3927231,75.9566116 
				91.4284668,76.4237137 92.4439011,77.0735931 93.4390259,77.8859406 94.37323,78.8607559 95.2668152,79.9980469 
				96.1197815,81.2978058 96.9118195,82.7397232 97.6226273,84.3034973 98.2725067,85.9891205 98.8411484,87.7966003 
				99.3285599,89.6650009 			"/>
			<line class="st1" x1="55.7663422" y1="148.3166046" x2="55.7663422" y2="151.3426056"/>
			<line class="st1" x1="45.4495087" y1="151.3426056" x2="45.4495087" y2="148.3166046"/>
			<polyline class="st1" points="32.4722328,65.7413177 35.4576149,66.2693481 38.3414536,67.8128128 41.0425148,70.3310928 
				43.4998703,73.7632675 45.6119766,77.9671783 47.3179092,82.8615799 48.5770531,88.2840118 49.3487816,94.0516891 
				49.6127968,100.0021439 49.5112534,102.3376465 49.3487816,105.9525986 48.5770531,111.7202759 47.3179092,117.1223984 
				45.6119766,122.0167999 43.4998703,126.2410202 41.0425148,129.6528778 38.3414536,132.1914825 35.4576149,133.7349396 
				32.4722328,134.2426605 29.5071564,133.7349396 26.6233177,132.1914825 23.9222565,129.6528778 21.464901,126.2410202 
				20.5510082,124.3929214 			"/>
			<polyline class="st2" points="72.7647476,114.4010315 70.6120224,114.1776352 68.4999161,113.5277557 66.5299683,112.4717026 
				64.7631073,111.0297852 63.2196426,109.2426147 61.9808121,107.1914291 61.046608,104.9168549 60.4982758,102.5001144 
				60.2951851,100.0021439 60.4982758,97.5041733 61.046608,95.0671234 61.9808121,92.7925491 63.2196426,90.7413635 
				64.7631073,88.9541931 66.5299683,87.5325851 68.4999161,86.4562225 70.6120224,85.8063431 72.7647476,85.6032562 			"/>
			<polyline class="st1" points="25.1001625,97.8697281 24.9580021,95.7576218 24.7346058,93.6861267 24.4096661,91.6552582 
				24.0034924,89.6853104 23.5160828,87.7966003 22.9474392,85.9891205 22.2975597,84.3034973 21.5664444,82.7397232 
				20.794714,81.2978058 19.9417477,79.9980469 19.0481625,78.8607559 18.1139622,77.8859406 17.1188335,77.0735931 
				16.1033974,76.4237137 15.0676527,75.9566116 14.0115986,75.6925964 12.9555445,75.5910568 11.8791819,75.6925964 
				10.8231287,75.9566116 9.7873831,76.4237137 8.7719469,77.0735931 7.7971282,77.8859406 6.842618,78.8607559 
				5.9490342,79.9980469 5.1163764,81.2978058 4.3243361,82.7397232 3.5932217,84.3034973 2.9636512,85.9891205 
				2.3746982,87.7966003 1.8872887,89.6853104 1.4811141,91.6552582 1.1561745,93.6861267 0.9327785,95.7576218 
				0.7906175,97.8697281 0.75,100.0021439 0.7906175,102.1142502 0.9327785,104.2263565 1.1561745,106.318161 
				1.4811141,108.3490295 1.8872887,110.2986679 2.3746982,112.1873779 2.9636512,113.9948578 3.5932217,115.680481 
				4.3243361,117.2442551 5.1163764,118.6861725 5.9490342,119.9859314 6.842618,121.1232224 7.7971282,122.1183472 
				8.7719469,122.9306946 9.7873831,123.5602646 10.8231287,124.0273666 11.8791819,124.3116913 12.9555445,124.3929214 
				14.0115986,124.3116913 15.0676527,124.0273666 16.1033974,123.5602646 17.1188335,122.9306946 18.1139622,122.1183472 
				19.0481625,121.1232224 19.9417477,119.9859314 20.794714,118.6861725 21.5664444,117.2442551 22.2975597,115.680481 
				22.9474392,113.9948578 23.5160828,112.1873779 24.0034924,110.2986679 24.4096661,108.3490295 24.7346058,106.318161 
				24.9580021,104.2263565 25.1001625,102.1142502 25.1407814,100.0021439 25.1001625,97.8697281 			"/>
			<polyline class="st1" points="32.4722328,124.3929214 33.5485954,124.3116913 34.6046486,124.0273666 35.6403923,123.5602646 
				36.6558304,122.9306946 37.6306496,122.1183472 38.5851593,121.1232224 39.4787407,119.9859314 40.331707,118.6861725 
				41.1034393,117.2442551 41.8345528,115.680481 42.4844322,113.9948578 43.0530777,112.1873779 43.5404854,110.2986679 
				43.9466629,108.3490295 44.2716026,106.318161 44.4949989,104.2263565 44.6371574,102.1142502 44.6777763,100.0021439 
				44.6371574,97.8697281 			"/>
			<polyline class="st1" points="44.6371574,97.8697281 44.4949989,95.7576218 44.2716026,93.6861267 43.9466629,91.6552582 
				43.5404854,89.6853104 43.0530777,87.7966003 42.4844322,85.9891205 41.8345528,84.3034973 41.1034393,82.7397232 
				40.331707,81.2978058 39.4787407,79.9980469 38.5851593,78.8607559 37.6306496,77.8859406 36.6558304,77.0735931 
				35.6403923,76.4237137 34.6046486,75.9566116 33.5485954,75.6925964 32.4722328,75.5910568 			"/>
			<polyline class="st1" points="20.5510082,75.5910568 21.464901,73.7632675 23.9222565,70.3310928 26.6233177,67.8128128 
				29.5071564,66.2693481 32.4722328,65.7413177 68.7436142,65.7413177 71.7289963,66.2693481 74.6128387,67.8128128 
				77.3138962,70.3310928 79.750946,73.7632675 80.6648407,75.5910568 81.8630524,77.9671783 83.568985,82.8615799 
				84.8484344,88.2840118 85.0312195,89.6650009 			"/>
			<polyline class="st1" points="99.3285599,110.3189774 98.8411484,112.1873779 98.2725067,113.9948578 97.6226273,115.680481 
				96.9118195,117.2442551 96.1197815,118.6861725 95.2668152,119.9859314 94.37323,121.1232224 93.4390259,122.1183472 
				92.4439011,122.9306946 91.4284668,123.5602646 90.3927231,124.0273666 89.3366623,124.3116913 88.2806091,124.3929214 
				80.6648407,124.3929214 			"/>
			<polyline class="st1" points="85.0312195,110.3189774 84.8484344,111.7202759 83.568985,117.1223984 81.8630524,122.0167999 
				80.6648407,124.3929214 79.750946,126.2410202 77.3138962,129.6528778 74.6128387,132.1914825 71.7289963,133.7349396 
				68.7436142,134.2426605 32.4722328,134.2426605 			"/>
			<polyline class="st2" points="81.3959503,110.3189774 80.7866898,111.0297852 78.999527,112.4717026 77.0295792,113.5277557 
				74.9377823,114.1776352 72.7647476,114.4010315 71.5056076,114.4010315 71.221283,114.3604126 69.3528824,114.1776352 
				67.2407684,113.5277557 65.2708282,112.4717026 63.5039673,111.0297852 61.9605026,109.2426147 60.7216682,107.1914291 
				59.787468,104.9168549 59.2391319,102.5001144 59.0360451,100.0021439 59.2391319,97.5041733 59.787468,95.0671234 
				60.7216682,92.7925491 61.9605026,90.7413635 63.5039673,88.9541931 65.2708282,87.5325851 67.2407684,86.4562225 
				69.3528824,85.8063431 71.221283,85.6235657 71.5056076,85.6032562 72.7647476,85.6032562 74.9377823,85.8063431 
				77.0295792,86.4562225 78.999527,87.5325851 80.7866898,88.9541931 81.3959503,89.6650009 			"/>
			<polyline class="st1" points="72.5413513,106.602478 72.1757889,106.2572327 71.7086945,105.7698212 71.3025131,105.2417984 
				70.9166489,104.6934586 70.591713,104.084198 70.3073883,103.454628 70.0636826,102.7844391 69.8809052,102.1142502 
				69.7387466,101.4237518 69.6575089,100.7129517 69.6371994,100.0021439 69.6575089,99.2913361 69.7387466,98.5805359 
				69.8809052,97.8697281 70.0636826,97.1995392 70.3073883,96.5293503 70.591713,95.8997803 70.9166489,95.3108292 
				71.3025131,94.7421799 71.7086945,94.2141571 72.1757889,93.7267456 72.5413513,93.4018097 			"/>
			<polygon class="st1" points="65.006813,140.9445343 64.8037262,140.9445343 64.1538467,140.9445343 63.0774841,140.9445343 
				61.6355629,140.9445343 59.8687019,140.9445343 57.817524,140.9445343 55.5429459,140.9445343 53.105896,140.9445343 
				50.6079254,140.9445343 48.109951,140.9445343 45.6932106,140.9445343 43.4186363,140.9445343 41.3674545,140.9445343 
				39.5802841,140.9445343 38.1383667,140.9445343 37.0823135,140.9445343 36.4324341,140.9445343 36.2090378,140.9445343 
				36.2090378,143.4425049 36.4324341,143.4425049 37.0823135,143.4425049 38.1383667,143.4425049 39.5802841,143.4425049 
				41.3674545,143.4425049 43.4186363,143.4425049 45.6932106,143.4425049 48.109951,143.4425049 50.6079254,143.4425049 
				53.105896,143.4425049 55.5429459,143.4425049 57.817524,143.4425049 59.8687019,143.4425049 61.6355629,143.4425049 
				63.0774841,143.4425049 64.1538467,143.4425049 64.8037262,143.4425049 65.006813,143.4425049 			"/>
			<polyline class="st1" points="58.7923393,151.3426056 58.7517242,151.3426056 58.6704903,151.3426056 58.5080185,151.3426056 
				58.3049316,151.3426056 58.0206108,151.3426056 57.6956711,151.3426056 57.309803,151.3426056 56.8833199,151.3426056 
				56.3959122,151.3426056 55.8678856,151.3426056 55.7663422,151.3426056 55.2992401,151.3426056 54.7102852,151.3426056 
				54.0604095,151.3426056 53.4105301,151.3426056 52.7200317,151.3426056 52.0295334,151.3426056 51.3187294,151.3426056 
				50.6079254,151.3426056 49.8971176,151.3426056 49.1863136,151.3426056 48.4958153,151.3426056 47.8256302,151.3426056 
				47.1554413,151.3426056 46.5258713,151.3426056 45.9166069,151.3426056 45.4495087,151.3426056 45.3479652,151.3426056 
				44.8402443,151.3426056 44.3528366,151.3426056 43.906044,151.3426056 43.5404854,151.3426056 43.19524,151.3426056 
				42.9312248,151.3426056 42.7078285,151.3426056 42.56567,151.3426056 42.4641266,151.3426056 42.4438171,151.3426056 			"/>
			<polygon class="st1" points="16.9766731,106.7446442 16.9969807,106.7243347 17.2406864,106.0135269 17.5046997,105.2621002 
				17.5250092,105.2011795 17.7077866,104.4294434 17.8905659,103.5967865 17.9108734,103.4952469 18.0327263,102.7235107 
				18.1545792,101.8299255 18.1545792,101.7080765 18.1951962,100.9160385 18.2358131,100.0021439 18.2358131,99.8396759 
				18.2155056,99.0679398 18.1748867,98.1540527 18.1545792,97.9712677 18.0733433,97.2604675 17.9514923,96.3668823 
				17.9108734,96.1841049 17.768713,95.513916 17.5656261,94.6609497 17.5250092,94.4781723 17.3219204,93.8892136 
				17.0579071,93.117485 16.9969807,92.9550171 16.7329674,92.4269867 16.4080276,91.7771072 16.3267937,91.6349487 
				16.0221634,91.2084656 15.6362963,90.6601257 15.5753708,90.5585861 15.2301226,90.2336426 14.8036385,89.8477783 
				14.7224035,89.7665482 14.3365383,89.5634613 13.8897467,89.3197556 13.8085117,89.2791367 13.4226456,89.2182083 
				12.9555445,89.1369781 12.894619,89.1166687 12.4681349,89.1978989 12.0010347,89.2791367 11.9604168,89.2791367 
				11.5542431,89.502533 11.087142,89.7462387 11.046524,89.7665482 10.6606588,90.1524124 10.2138662,90.5382767 
				10.2138662,90.5585861 9.828001,91.0866089 9.4421349,91.6349487 9.0968866,92.3051376 8.7922554,92.9550171 
				8.7719469,92.9753265 8.5079336,93.7673645 8.2439203,94.4781723 8.2236118,94.539093 8.0408325,95.4123688 
				7.8580542,96.1841049 7.8377457,96.2653351 7.7158933,97.1995392 7.6143498,97.9712677 7.6143498,98.1134338 
				7.5737324,99.0476303 7.5331149,99.8396759 7.5331149,100.0021439 7.5737324,100.936348 7.6143498,101.7080765 
				7.6346583,101.8705444 7.7565107,102.7844391 7.8580542,103.4952469 7.8986716,103.6780243 8.0814505,104.5309906 
				8.2439203,105.2011795 8.3048468,105.3636475 8.5688601,106.1150665 8.7922554,106.7243347 8.8531818,106.8664932 
				9.1781216,107.5366821 9.4421349,108.0443954 9.5233698,108.1662521 9.909236,108.6942749 10.2138662,109.1207581 
				10.2951012,109.2019958 10.7215853,109.5878601 11.046524,109.9128036 11.127759,109.9534225 11.5745516,110.1971207 
				11.9604168,110.4002151 12.0416517,110.4002151 12.4884443,110.4814453 12.894619,110.5626831 12.9555445,110.5423737 
				13.4023371,110.4611359 13.8085117,110.4002151 13.8694372,110.3595963 14.3162298,110.1362 14.7224035,109.9128036 
				14.742713,109.8721848 15.1691961,109.4863205 15.5753708,109.1207581 15.5753708,109.1004562 15.961236,108.5724258 
				16.3267937,108.0443954 16.6517334,107.3945236 			"/>
			<polyline class="st1" points="55.7663422,148.3166046 55.7460327,148.3166046 55.7054138,148.3166046 55.6038704,148.3166046 
				55.4617081,148.3166046 55.2992401,148.3166046 55.0758438,148.3166046 54.8321381,148.3166046 54.5681267,148.3166046 
				54.2634964,148.3166046 53.9385567,148.3166046 53.572998,148.3166046 53.1871338,148.3166046 52.8012657,148.3166046 
				52.3747826,148.3166046 51.9482994,148.3166046 51.5015068,148.3166046 51.054718,148.3166046 50.6079254,148.3166046 
				50.1611328,148.3166046 49.7143402,148.3166046 49.2675476,148.3166046 48.8410645,148.3166046 48.4348907,148.3166046 
				48.028717,148.3166046 47.6631584,148.3166046 47.2975998,148.3166046 46.9726639,148.3166046 46.6680298,148.3166046 
				46.383709,148.3166046 46.1400032,148.3166046 45.9369164,148.3166046 45.7541389,148.3166046 45.6322861,148.3166046 
				45.5307426,148.3166046 45.4698181,148.3166046 45.4495087,148.3166046 			"/>
			<polyline class="st1" points="72.5413513,89.6650009 72.5413513,93.4018097 72.5413513,106.602478 72.5413513,110.3189774 			"/>
			<polyline class="st1" points="32.4722328,124.3929214 20.5510082,124.3929214 12.9555445,124.3929214 			"/>
			<polyline class="st1" points="64.7224884,160.8877106 58.7923393,160.8877106 46.8305016,160.8877106 42.4438171,160.8877106 
				36.5136681,160.8877106 			"/>
		</g>
	</g>
</g>
</svg>
