<?xml version="1.0" encoding="utf-8"?>
<!-- Generator: Adobe Illustrator 21.0.0, SVG Export Plug-In . SVG Version: 6.00 Build 0)  -->
<svg version="1.1" id="Layer_1" xmlns="http://www.w3.org/2000/svg" xmlns:xlink="http://www.w3.org/1999/xlink" x="0px" y="0px"
	 viewBox="0 0 79.4275208 200" style="enable-background:new 0 0 79.4275208 200;" xml:space="preserve">
<style type="text/css">
	.st0{fill:#ECF0F1;}
	.st1{fill:none;stroke:#000000;stroke-width:1.5;stroke-linecap:round;stroke-linejoin:round;}
</style>
<g>
	<g id="XMLID_64_">
		<g>
			<polygon class="st0" points="74.5515137,108.261055 74.5659027,108.5036392 74.5597305,108.7503357 74.5330048,108.9949799 
				74.4857254,109.2375641 74.4178848,109.478096 74.3623734,109.6363907 74.2595825,109.8666458 74.1362381,110.0845566 
				74.0005569,110.286026 73.8504791,110.4669418 73.6860123,110.6293488 73.5133286,110.7712021 73.3283005,110.8924942 
				73.1350555,110.995285 72.9376984,111.0754547 72.7321167,111.1350784 72.5244827,111.172081 72.3127365,111.18853 
				72.1009827,111.1803055 71.8892365,111.1494675 71.6774902,111.0960159 71.4698486,111.0178986 71.3341675,110.9521103 
				71.1326981,110.8328705 70.9435654,110.6930771 70.770874,110.5347824 70.6146317,110.3600388 70.4727859,110.1729584 
				70.3905487,110.0352173 70.4851151,109.8666458 70.5879059,109.6363907 70.6434174,109.478096 70.7112579,109.2375641 
				70.7585449,108.9949799 70.7852707,108.7503357 70.7914352,108.5036392 70.7770462,108.261055 70.7462082,108.0205231 
				70.694809,107.784111 70.6249161,107.5538559 70.5365143,107.3318329 70.4296112,107.120079 70.3905487,107.0542984 
				70.4172745,107.0070114 70.5550156,106.805542 70.7050934,106.6246338 70.8695526,106.4622192 71.042244,106.3203735 
				71.2272644,106.1990814 71.418457,106.0962906 71.6178665,106.0161133 71.8213959,105.9564896 72.0310898,105.919487 
				72.2407837,105.903038 72.4545822,105.9112625 72.6663361,105.9400482 72.8780823,105.9955521 73.0857162,106.0736771 
				73.221405,106.1394577 73.4208145,106.2566376 73.6099472,106.3984909 73.7846909,106.5567856 73.9409332,106.7294769 
				74.0807266,106.9186096 74.2040787,107.120079 74.3109818,107.3318329 74.3993835,107.5538559 74.4692764,107.784111 
				74.5206757,108.0205231 			"/>
			<polygon class="st0" points="74.4939499,91.1937256 74.4939499,91.4383621 74.4733887,91.680954 74.4343262,91.9214783 
				74.3788223,92.1537857 74.3027573,92.3819809 74.2081909,92.5998993 74.0951233,92.8095932 73.967659,93.0069504 
				73.8196411,93.1899109 73.6592865,93.35849 73.5400543,93.4633408 73.3529739,93.6031342 73.1515045,93.7223663 
				72.9459229,93.8169403 72.7382889,93.8868332 72.526535,93.9320602 72.3127365,93.9546738 72.1009827,93.9546738 
				71.8912888,93.9320602 71.6836548,93.8868332 71.4801331,93.8210449 71.2848282,93.7326508 71.0956955,93.6236877 
				70.9147797,93.4962311 70.7441483,93.3461533 70.5838013,93.1775818 70.4378357,92.9905014 70.3473816,92.8548203 
				70.3227081,92.8075333 70.4337234,92.5998993 70.5282898,92.3819809 70.6023026,92.1537857 70.6619186,91.9214783 
				70.6989212,91.680954 70.7194824,91.4383621 70.7194824,91.1937256 70.6989212,90.9470291 70.6598587,90.7044373 
				70.6002426,90.461853 70.518013,90.2254333 70.4152222,89.9951859 70.3185959,89.8225021 70.3206558,89.8204422 
				70.4501724,89.6251373 70.5940781,89.4401169 70.7585449,89.2715378 70.8736649,89.1687546 71.0648575,89.0269012 
				71.264267,88.9076614 71.4677963,88.815155 71.6795425,88.7452545 71.8892365,88.6979675 72.1009827,88.675354 
				72.3147888,88.675354 72.5244827,88.6979675 72.7321167,88.7431946 72.9335861,88.8110428 73.1309433,88.8973846 
				73.3200836,89.00634 73.5030441,89.1358566 73.6716232,89.2838745 73.8319778,89.4524536 73.9779358,89.639534 
				74.0683975,89.7752151 74.1896896,89.9951859 74.2924805,90.2254333 74.3747101,90.461853 74.4343262,90.7044373 
				74.4754486,90.9470291 			"/>
			<polygon class="st0" points="62.9485207,105.1238861 63.343235,105.2677994 63.7441177,105.3705902 64.1532288,105.4322586 
				64.5643845,105.4528198 62.4715729,105.4528198 62.0604095,105.4322586 61.6513062,105.3705902 61.2504234,105.2677994 
				60.8577614,105.1238861 60.4753799,104.9409256 60.1115036,104.7230072 59.8833084,104.5544281 59.7640724,104.4660339 
				59.4371986,104.1761627 59.1329384,103.8554535 58.8533478,103.5059662 58.6045952,103.1277008 58.3825684,102.7268143 
				58.1913757,102.3053741 58.0351372,101.8654327 57.9097328,101.4110947 57.821331,100.9464874 57.7678795,100.4757004 
				57.7493782,100.0008087 57.7678795,99.5238647 57.821331,99.0530853 57.9097328,98.5884705 58.0351372,98.13414 
				58.1913757,97.6962509 58.3825684,97.2727509 58.6045952,96.8718719 58.8533478,96.4956589 59.1329384,96.1441116 
				59.4371986,95.82341 59.7640724,95.5335388 59.8833084,95.445137 60.1115036,95.2786179 60.4753799,95.0586472 
				60.8577614,94.875679 61.2504234,94.7338257 61.6513062,94.6289825 62.0604095,94.5673065 62.4715729,94.5467453 
				64.5643845,94.5467453 64.1532288,94.5673065 63.7441177,94.6289825 63.343235,94.7338257 62.9485207,94.875679 
				62.5681953,95.0586472 62.204319,95.2786179 61.856884,95.5335388 61.5300102,95.82341 61.2257538,96.1441116 
				60.9461632,96.4956589 60.6953545,96.8718719 60.4753799,97.2727509 60.2841911,97.6962509 60.1279488,98.13414 
				60.0025444,98.5884705 59.9141464,99.0530853 59.8606949,99.5238647 59.8421936,100.0008087 59.8606949,100.4757004 
				59.9141464,100.9464874 60.0025444,101.4110947 60.1279488,101.8654327 60.2841911,102.3053741 60.4753799,102.7268143 
				60.6953545,103.1277008 60.9461632,103.5059662 61.2257538,103.8554535 61.5300102,104.1761627 61.856884,104.4660339 
				62.204319,104.7230072 62.5681953,104.9409256 			"/>
			<polygon class="st0" points="61.6677513,116.9715195 61.6780319,117.2305527 61.6677513,117.4895859 61.6348572,117.7424469 
				61.5834618,117.9850311 61.5115089,118.2214508 61.423111,118.4434814 61.3162079,118.6572876 61.1949158,118.8546448 
				61.0571747,119.0396652 60.9050446,119.2102966 60.7405815,119.3624268 60.5658379,119.4981079 60.3767014,119.6132355 
				60.1814003,119.7098618 59.9737625,119.7859268 59.7599602,119.8373184 59.6139984,119.8599319 59.3899155,119.8722687 
				59.1658325,119.8599319 58.945858,119.8229294 58.7341118,119.7633133 58.5326424,119.681076 58.3373413,119.5782852 
				58.1543732,119.4549408 57.9816856,119.3130875 57.821331,119.1547928 57.6753693,118.9800491 57.5437965,118.7909088 
				57.506794,118.7271805 57.5026817,118.7210159 57.5417404,118.6572876 57.6486435,118.4434814 57.7370415,118.2214508 
				57.8089981,117.9850311 57.8603935,117.7424469 57.8932838,117.4895859 57.9035645,117.2305527 57.8932838,116.9715195 
				57.8727264,116.8008881 57.8274994,116.5541916 57.7637672,116.3177719 57.6794815,116.0895767 57.5787468,115.8737183 
				57.5026817,115.7400894 57.5849113,115.6044083 57.7226524,115.4193878 57.8747826,115.2508087 58.0392456,115.0986786 
				58.2139893,114.9629974 58.4010696,114.8458099 58.5984268,114.7491913 58.8040085,114.6751785 59.0178108,114.621727 
				59.1658325,114.6011734 59.3899155,114.5888367 59.6139984,114.6011734 59.831913,114.638176 60.043663,114.6977921 
				60.2471886,114.7800293 60.4404335,114.8828201 60.6254539,115.0061646 60.7981453,115.1459579 60.95644,115.3063126 
				61.1044579,115.4810562 61.2360306,115.6701965 61.3532104,115.8737183 61.4539452,116.0895767 61.5382347,116.3177719 
				61.6019669,116.5541916 61.6471939,116.8008881 			"/>
			<polygon class="st0" points="61.5279579,82.5099869 61.5382347,82.7690125 61.5279579,83.0301056 61.4950638,83.2809143 
				61.4436684,83.5255508 61.3717155,83.7599182 61.2833138,83.9840012 61.1764145,84.1957474 61.0551186,84.3951645 
				60.9173813,84.5801849 60.7652512,84.748764 60.6028404,84.9029465 60.4260406,85.0365753 60.2389641,85.1537552 
				60.0416069,85.2503815 59.8360252,85.3243866 59.6222191,85.3778381 59.4762573,85.3983994 59.2501183,85.4127884 
				59.0260353,85.3983994 58.8081207,85.3634491 58.5963707,85.3017731 58.3928452,85.2195435 58.1996002,85.1167526 
				58.014576,84.9934006 57.8439445,84.8536072 57.6835938,84.6953125 57.5355721,84.5205688 57.4040031,84.3293762 
				57.3669968,84.2656479 57.3628845,84.2594757 57.401947,84.1957474 57.5088501,83.9840012 57.5972481,83.7599182 
				57.6692009,83.5255508 57.7205963,83.2809143 57.7534904,83.0301056 57.7637672,82.7690125 57.7534904,82.5099869 
				57.7349892,82.3414078 57.6897583,82.0947113 57.6239738,81.8562393 57.5396843,81.6280441 57.4389496,81.412178 
				57.3628845,81.2806091 57.4471741,81.144928 57.582859,80.9598999 57.7349892,80.7913284 57.8994522,80.6371384 
				58.076252,80.5014572 58.2633286,80.3863297 58.4586334,80.289711 58.6662674,80.2156982 58.8800735,80.1622467 
				59.0260353,80.1396332 59.2501183,80.1272964 59.4762573,80.1396332 59.6941757,80.1766434 59.9059219,80.2383118 
				60.1073914,80.320549 60.3026924,80.4233398 60.4856606,80.544632 60.6583481,80.6864777 60.8187027,80.84478 
				60.9646645,81.0195236 61.0982933,81.2086563 61.2134171,81.412178 61.3141518,81.6280441 61.3984413,81.8562393 
				61.4642258,82.0947113 61.5094528,82.3414078 			"/>
			<polygon class="st0" points="59.320015,122.3515778 55.5455513,122.3515778 53.6439247,122.2446747 52.4063301,122.0596466 
				51.156395,121.7512741 50.5972176,121.6135406 48.8538895,120.9803467 47.1866264,120.1662521 45.603653,119.1815186 
				44.1131935,118.0384827 42.723465,116.7453842 41.4447517,115.3124847 41.2782326,115.0863419 41.255619,115.0555038 
				40.2832184,113.7480087 39.7137604,112.8208389 39.2491455,112.0643005 38.4556046,110.4813309 38.4494362,110.4731064 
				38.3487015,110.271637 37.6250572,108.4563599 37.5942192,108.3782349 36.9918671,106.3943787 36.5519257,104.3303452 
				36.2805595,102.1943588 36.1880455,100.0008087 36.2805595,97.8052063 36.4429665,96.3743668 36.827404,94.2856598 
				37.3763046,92.2730255 37.637394,91.5637665 37.6579514,91.5062103 38.0814476,90.3487854 38.4432678,89.5737457 
				38.4453239,89.5675812 38.9325523,88.5211716 39.7137604,87.1643372 39.7343178,87.1293869 39.9234543,86.8004608 
				41.043869,85.19487 41.255619,84.9440613 42.2855797,83.7167435 43.6383018,82.376358 45.095871,81.1819305 
				46.6500626,80.1437454 48.290596,79.2720871 50.0092545,78.5772171 50.9096985,78.3202438 51.156395,78.2503433 
				51.7957535,78.0673752 53.6439247,77.7548981 55.5455513,77.647995 59.320015,77.647995 57.4183922,77.7548981 
				55.5702209,78.0673752 53.7837219,78.5772171 52.0650635,79.2720871 50.42453,80.1437454 48.8723907,81.1819305 
				47.4127655,82.376358 46.0600433,83.7167435 44.8183365,85.19487 43.6979179,86.8004608 42.7070198,88.5211716 
				41.8559151,90.3487854 41.1507721,92.2730255 40.6018715,94.2856598 40.2174339,96.3743668 40.0550232,97.8052063 
				39.962513,100.0008087 40.0550232,102.1943588 40.3263931,104.3303452 40.7663345,106.3943787 41.3686867,108.3782349 
				42.1231689,110.271637 43.023613,112.0643005 44.0576859,113.7480087 45.2192192,115.3124847 46.4979324,116.7453842 
				47.887661,118.0384827 49.3781204,119.1815186 50.9610939,120.1662521 52.6283569,120.9803467 54.3716812,121.6135406 
				56.1807938,122.0596466 57.4183922,122.2446747 			"/>
			<polygon class="st0" points="48.7182045,108.5632553 48.7182045,108.8078995 48.6976471,109.0504837 48.6606445,109.2889633 
				48.6010246,109.5233231 48.5270157,109.7515182 48.4324493,109.9694366 48.3193779,110.1791229 48.1919174,110.3764801 
				48.0459557,110.5594482 47.8835487,110.7280273 47.7663651,110.8328705 47.5772324,110.9726715 47.3757629,111.0919037 
				47.1701813,111.18647 46.9625435,111.2563705 46.7507973,111.3015976 46.5390472,111.3242111 46.3252449,111.3242111 
				46.115551,111.3015976 45.9079132,111.2563705 45.7064438,111.1905823 45.5090866,111.1021805 45.3199539,110.9932251 
				45.1390419,110.8637085 44.9684105,110.7156906 44.8080559,110.5471191 44.6620941,110.3600388 44.57164,110.22435 
				44.5469704,110.1770706 44.6579819,109.9694366 44.7504921,109.7515182 44.8265572,109.5233231 44.8861771,109.2889633 
				44.9231834,109.0504837 44.9437408,108.8078995 44.9437408,108.5632553 44.9252357,108.3165588 44.8841209,108.0719223 
				44.824501,107.8313904 44.7422714,107.5949707 44.6394806,107.3626633 44.5428581,107.1920319 44.5449142,107.1899796 
				44.6723747,106.9926224 44.8183365,106.8096542 44.9827995,106.6410751 45.0999794,106.536232 45.2891159,106.3964386 
				45.4885292,106.2771988 45.6941109,106.1826324 45.9017487,106.1127319 46.1134949,106.0675049 46.3231888,106.0448914 
				46.5390472,106.0448914 46.7487411,106.0675049 46.9563789,106.1127319 47.1599007,106.1785202 47.3552055,106.266922 
				47.5463943,106.3758774 47.7252502,106.505394 47.8958817,106.6534119 48.0562363,106.821991 48.202198,107.0090637 
				48.2926521,107.1447525 48.4139481,107.3626633 48.5167351,107.5949707 48.5989685,107.8313904 48.6585884,108.0719223 
				48.6997032,108.3165588 			"/>
			<polygon class="st0" points="48.638031,91.1690521 48.6503639,91.4136963 48.6441956,91.6583328 48.6174698,91.902977 
				48.5722427,92.1476212 48.5044022,92.3860931 48.4468384,92.5443878 48.3440475,92.7746429 48.2227554,92.9946136 
				48.0850182,93.1940231 47.9349442,93.374939 47.7725334,93.5373459 47.5977898,93.6791992 47.4127655,93.8025436 
				47.2215767,93.9032822 47.0221634,93.9834595 46.8186378,94.0430756 46.6089439,94.0821381 46.3992538,94.0965271 
				46.1854477,94.0903625 45.9737015,94.0595245 45.7640076,94.0040131 45.5543137,93.927948 45.4186325,93.8621674 
				45.2192192,93.7429276 45.0300827,93.6010742 44.8553391,93.4448318 44.6990967,93.2700882 44.5593033,93.0809555 
				44.4750137,92.9452744 44.5695839,92.7746429 44.6723747,92.5443878 44.7299347,92.3860931 44.7977791,92.1476212 
				44.8430061,91.902977 44.8697319,91.6583328 44.8758965,91.4136963 44.8635635,91.1690521 44.8306694,90.9285278 
				44.779274,90.6921082 44.7093773,90.461853 44.6209793,90.2418823 44.5161324,90.0280762 44.4750137,89.9643478 
				44.5037956,89.9150085 44.6394806,89.7155991 44.7916107,89.5326309 44.9540176,89.3722763 45.1287613,89.2283707 
				45.3117294,89.1070786 45.5049744,89.0042877 45.7023354,88.9241104 45.9079132,88.8644943 46.115551,88.8274841 
				46.327301,88.8130951 46.5390472,88.8192596 46.7507973,88.8500977 46.9625435,88.9035492 47.1701813,88.9816742 
				47.3058662,89.0474548 47.5073357,89.1666946 47.6964684,89.306488 47.8691559,89.4647903 48.0253983,89.639534 
				48.1672478,89.8266068 48.290596,90.0280762 48.395443,90.2418823 48.4838448,90.461853 48.5537415,90.6921082 
				48.6051369,90.9285278 			"/>
			<polygon class="st0" points="39.7137604,84.0271683 38.7166939,84.6274643 38.5789528,84.6953125 38.1965714,84.9276123 
				38.1719017,84.9440613 37.7257919,85.2133713 36.8602982,85.6327591 36.751339,85.6964874 35.7994995,86.111763 
				34.8764381,86.3625717 33.9924431,86.4448013 33.149559,86.3625717 32.3580742,86.111763 31.6220932,85.6964874 
				31.5460281,85.6327591 30.9477882,85.2133713 30.4235554,84.6953125 30.3392677,84.6274643 29.802702,84.0271683 
				29.6629066,83.8154221 29.3422012,83.4063187 29.1057816,82.9972076 28.9598198,82.7854614 28.6987324,82.2468414 
				28.6596718,82.1790009 28.4438114,81.6157074 28.4355888,81.5704803 28.3142948,81.1038132 28.3040161,80.9742966 
				28.2690678,80.6412506 28.287571,80.4623947 28.3142948,80.2383118 28.3821373,80.0368423 28.4438114,79.8991089 
				28.5856628,79.703804 28.6596718,79.6297913 28.8919773,79.4632721 28.9598198,79.434494 29.2990284,79.3193665 
				29.3422012,79.3132019 29.802702,79.2700272 30.3392677,79.3132019 30.4091663,79.3193665 30.9477882,79.434494 
				31.1019726,79.4632721 31.6220932,79.6297913 31.8790703,79.703804 32.3580742,79.8991089 32.7342873,80.0368423 
				33.149559,80.2383118 33.6655693,80.4623947 33.9924431,80.6412506 34.6646919,80.9742966 34.8764381,81.1038132 
				35.7337112,81.5704803 35.7994995,81.6157074 36.751339,82.1790009 36.8787994,82.2468414 37.7257919,82.7854614 
				38.1040611,82.9972076 38.7166939,83.4063187 39.4115562,83.8154221 			"/>
			<polygon class="st0" points="37.7257919,114.7861938 38.1719017,115.0555038 38.5789528,115.3042603 38.7166939,115.3721008 
				39.7137604,115.9723969 39.4115562,116.1841431 38.7166939,116.5932541 38.1040611,117.0023575 37.7257919,117.2161636 
				36.8787994,117.7527313 36.751339,117.8205719 35.7994995,118.3859177 35.7337112,118.4290924 34.8764381,118.8978119 
				34.6646919,119.0252762 33.9924431,119.3583145 33.6655693,119.5371704 33.149559,119.7612534 32.7342873,119.9627228 
				32.3580742,120.1004639 31.8790703,120.2957611 31.6220932,120.3697739 31.1019726,120.536293 30.9477882,120.5650787 
				30.4091663,120.6822586 30.3392677,120.6863708 29.802702,120.729538 29.3422012,120.6863708 29.2990284,120.6822586 
				28.9598198,120.5650787 28.8919773,120.536293 28.6596718,120.3697739 28.5856628,120.2957611 28.4438114,120.1004639 
				28.3821373,119.9627228 28.3142948,119.7612534 28.287571,119.5371704 28.2690678,119.3583145 28.3040161,119.0252762 
				28.3142948,118.8978119 28.4355888,118.4290924 28.4438114,118.3859177 28.6596718,117.8205719 28.6987324,117.7527313 
				28.9598198,117.2161636 29.1057816,117.0023575 29.3422012,116.5932541 29.6629066,116.1841431 29.802702,115.9723969 
				30.3392677,115.3721008 30.4235554,115.3042603 30.9477882,114.7861938 31.5460281,114.366806 31.6220932,114.3030777 
				32.3580742,113.8878098 33.149559,113.6390533 33.9924431,113.5547638 34.8764381,113.6390533 35.7994995,113.8878098 
				36.751339,114.3030777 36.8602982,114.366806 			"/>
			<polygon class="st0" points="37.6250572,108.4563599 38.3487015,110.271637 38.4494362,110.4731064 38.3918762,110.5471191 
				38.2335777,110.7156906 38.0629463,110.8637085 37.8820343,110.9932251 37.6928978,111.1021805 37.4955406,111.1905823 
				37.2920151,111.2563705 37.0864372,111.3015976 36.8746872,111.3242111 36.660881,111.3242111 36.4511909,111.3015976 
				36.2394409,111.2563705 36.0297508,111.18647 35.8241692,111.0919037 35.6247559,110.9726715 35.4829025,110.8678207 
				35.7090416,110.7526932 36.1407623,110.4237671 36.2147713,110.3703156 36.6814423,109.9098129 36.796566,109.747406 
				37.1008263,109.3732452 37.320797,108.9970322 37.4749832,108.7667847 			"/>
			<polygon class="st0" points="35.8940659,89.0474548 36.0297508,88.9816742 36.2394409,88.9035492 36.4491348,88.8500977 
				36.660881,88.8192596 36.8746872,88.8130951 37.0843811,88.8274841 37.2940712,88.8644943 37.4975967,88.9241104 
				37.69701,89.0042877 37.8882027,89.1070786 38.0732231,89.2283707 38.2479668,89.3722763 38.4103775,89.5326309 
				38.4432678,89.5737457 38.0814476,90.3487854 37.6579514,91.5062103 37.637394,91.5637665 37.4749832,91.2348404 
				37.320797,91.002533 37.1008263,90.6263199 36.796566,90.2521591 36.6814423,90.0897522 36.2147713,89.6292496 
				36.1407623,89.575798 35.7090416,89.2468719 35.6350327,89.2098694 35.6946526,89.1666946 			"/>
			<polygon class="st0" points="26.2276497,82.5099869 26.2379284,82.7690125 26.2276497,83.0301056 26.2091465,83.1986771 
				26.1639194,83.4453735 26.0981331,83.6838531 26.0158997,83.9099884 25.9151649,84.1258469 25.7979851,84.3293762 
				25.6643562,84.5205688 25.5183945,84.6953125 25.3580418,84.8536072 25.1853542,84.9934006 25.0023861,85.1167526 
				24.8091393,85.2195435 24.6056156,85.3017731 24.3938675,85.3634491 24.175951,85.3983994 23.9498119,85.4127884 
				23.725729,85.3983994 23.5797653,85.3778381 23.3659611,85.3243866 23.1603813,85.2503815 22.9630222,85.1537552 
				22.7759438,85.0365753 22.599144,84.9029465 22.4346809,84.748764 22.2825508,84.5801849 22.1468658,84.3951645 
				22.0625782,84.2594757 22.1386433,84.1258469 22.239378,83.9099884 22.3236656,83.6838531 22.389452,83.4453735 
				22.4346809,83.1986771 22.4531822,83.0301056 22.4634609,82.7690125 22.4531822,82.5099869 22.42029,82.2571182 
				22.3688946,82.014534 22.2969398,81.7801743 22.2085419,81.5560913 22.1016388,81.3443375 22.0625782,81.2806091 
				22.0666904,81.2723846 22.1036949,81.2086563 22.2352657,81.0195236 22.3832855,80.84478 22.5436382,80.6864777 
				22.7142696,80.544632 22.8992939,80.4233398 23.0925388,80.320549 23.2960644,80.2383118 23.5078125,80.1766434 
				23.725729,80.1396332 23.9498119,80.1272964 24.175951,80.1396332 24.3219128,80.1622467 24.535717,80.2156982 
				24.7412987,80.289711 24.9386559,80.3863297 25.1257343,80.5014572 25.3025341,80.6371384 25.4669991,80.7913284 
				25.6170731,80.9598999 25.7548122,81.144928 25.8761063,81.3443375 25.9830074,81.5560913 26.0714073,81.7801743 
				26.1433601,82.014534 26.1947556,82.2571182 			"/>
			<polygon class="st0" points="26.0878544,116.9715195 26.1001892,117.2305527 26.0878544,117.4895859 26.0693512,117.6581573 
				26.0241241,117.9048615 25.9583378,118.1433334 25.8761063,118.3715286 25.7753716,118.5873871 25.6581898,118.7909088 
				25.5266171,118.9800491 25.3785992,119.1547928 25.2182465,119.3130875 25.0455589,119.4549408 24.8625908,119.5782852 
				24.6693459,119.681076 24.4658203,119.7633133 24.2540722,119.8229294 24.0361557,119.8599319 23.8120728,119.8722687 
				23.5859337,119.8599319 23.43997,119.8373184 23.2261677,119.7859268 23.020586,119.7098618 22.8232288,119.6132355 
				22.6361485,119.4981079 22.4593506,119.3624268 22.2948856,119.2102966 22.1448116,119.0396652 22.0070724,118.8546448 
				21.924839,118.7210159 22.0009041,118.5873871 22.1016388,118.3715286 22.1838722,118.1433334 22.2496567,117.9048615 
				22.2948856,117.6581573 22.3133869,117.4895859 22.3257217,117.2305527 22.3133869,116.9715195 22.2825508,116.7186584 
				22.2290993,116.4740143 22.1592007,116.2396545 22.0687466,116.0155716 21.9638996,115.8038177 21.924839,115.7400894 
				21.9289513,115.7339249 21.9638996,115.6701965 22.0975266,115.4790039 22.2434902,115.3063126 22.4038429,115.1459579 
				22.5765305,115.0061646 22.7594986,114.8828201 22.9527435,114.7800293 23.1562691,114.6977921 23.3680172,114.638176 
				23.5859337,114.6011734 23.8120728,114.5888367 24.0361557,114.6011734 24.1821175,114.621727 24.3959217,114.6751785 
				24.6015034,114.7491913 24.7988605,114.8458099 24.985939,114.9629974 25.1627388,115.0986786 25.3272038,115.2508087 
				25.4793339,115.4193878 25.6150169,115.6044083 25.7383671,115.8038177 25.8432121,116.0155716 25.9336681,116.2396545 
				26.0035648,116.4740143 26.0570164,116.7186584 			"/>
			<polygon class="st0" points="20.1054478,77.647995 23.8799133,77.647995 21.9803467,77.7548981 20.7406921,77.9419708 
				18.9315796,78.3860321 17.1903095,79.0192184 15.5230484,79.8333206 13.9400749,80.8180542 12.4496126,81.9610825 
				11.059885,83.2541885 9.7791157,84.687088 8.6175833,86.2515564 7.5835114,87.9352646 6.6851225,89.7279282 
				5.9306402,91.6213303 5.3282881,93.6051865 4.8862891,95.6712799 4.6169777,97.8052063 4.5244665,100.0008087 
				4.6169777,102.1943588 4.7773309,103.625206 5.1617675,105.7139053 5.7127247,107.7265472 6.4158115,109.6507797 
				7.2689724,111.4783936 8.2598724,113.2011642 9.378233,114.8046951 10.6199417,116.2828217 11.974721,117.6232147 
				13.4322901,118.8176346 14.9844255,119.8558197 16.6249619,120.7274857 18.3436184,121.422348 20.1321735,121.9321899 
				21.9803467,122.2446747 23.8799133,122.3515778 20.1054478,122.3515778 18.2058792,122.2446747 16.3577061,121.9321899 
				14.5691528,121.422348 12.8504953,120.7274857 11.209959,119.8558197 9.6578236,118.8176346 8.2002544,117.6232147 
				6.8454757,116.2828217 5.6037664,114.8046951 4.4854059,113.2011642 3.4945059,111.4783936 2.6413448,109.6507797 
				1.9382579,107.7265472 1.387301,105.7139053 1.0028646,103.625206 0.8425114,102.1943588 0.75,100.0008087 0.8425114,97.8052063 
				1.1118225,95.6712799 1.5538216,93.6051865 2.1561737,91.6213303 2.910656,89.7279282 3.8090448,87.9352646 
				4.8431168,86.2515564 6.0046496,84.687088 7.285419,83.2541885 8.6751461,81.9610825 10.1656084,80.8180542 
				11.7485819,79.8333206 13.415843,79.0192184 15.157114,78.3860321 16.9662266,77.9419708 18.2058792,77.7548981 			"/>
			<polygon class="st0" points="13.2781038,91.1916656 13.28016,91.4383621 13.2596016,91.6830063 13.220541,91.9276505 
				13.1588669,92.1681747 13.0766344,92.4045944 12.9738445,92.6369019 12.8525515,92.8548203 12.7641516,92.9905014 
				12.6161337,93.1775818 12.4578362,93.3461533 12.2872038,93.4962311 12.1062927,93.6236877 11.9171581,93.7326508 
				11.7198,93.8210449 11.5162754,93.8868332 11.3106937,93.9320602 11.0989456,93.9546738 10.8851414,93.9546738 
				10.6754494,93.9320602 10.4637003,93.8868332 10.2540083,93.8169403 10.0484266,93.7223663 9.8490133,93.6031342 
				9.6598787,93.4633408 9.5426979,93.35849 9.3802891,93.1899109 9.2343264,93.0069504 9.1048107,92.8095932 9.1048107,92.8075333 
				9.199378,92.6369019 9.3021679,92.4045944 9.3844004,92.1681747 9.4460745,91.9276505 9.4851351,91.6830063 
				9.5056934,91.4383621 9.5036373,91.1916656 9.4851351,90.9490814 9.4460745,90.7106094 9.3885117,90.4762497 
				9.3124475,90.2480545 9.2178802,90.0301361 9.1068659,89.8225021 9.1335917,89.7752151 9.2219915,89.639534 
				9.3700094,89.4524536 9.528307,89.2838745 9.6989393,89.1358566 9.8798504,89.00634 10.068985,88.8973846 10.2663431,88.8110428 
				10.4698677,88.7431946 10.6754494,88.6979675 10.8871975,88.675354 11.0989456,88.675354 11.3106937,88.6979675 
				11.5224428,88.7452545 11.7321348,88.815155 11.9377165,88.9076614 12.1371298,89.0269012 12.3262644,89.1687546 
				12.4434452,89.2715378 12.605854,89.4401169 12.7518167,89.6251373 12.8813324,89.8204422 12.9923468,90.0301361 
				13.0869141,90.2480545 13.1629782,90.4762497 13.220541,90.7106094 13.2596016,90.9490814 			"/>
			<polygon class="st0" points="13.206151,108.3412323 13.2123184,108.5858765 13.1979275,108.830513 13.1650343,109.0710449 
				13.1136389,109.3074646 13.0437412,109.5377121 12.9573975,109.7597427 12.8504953,109.971489 12.7271471,110.1729584 
				12.5873518,110.3600388 12.4290543,110.5347824 12.2563667,110.6930771 12.0672321,110.8328705 11.8678188,110.9521103 
				11.7321348,111.0178986 11.5224428,111.0960159 11.3127499,111.1494675 11.1010017,111.1803055 10.8871975,111.18853 
				10.6775045,111.172081 10.4678125,111.1350784 10.264287,111.0754547 10.0648737,110.995285 9.873683,110.8924942 
				9.6886606,110.7712021 9.513916,110.6293488 9.3515072,110.4669418 9.2014332,110.286026 9.063694,110.0845566 
				9.0369682,110.0352173 9.0760288,109.971489 9.1829309,109.7597427 9.2692747,109.5377121 9.3391724,109.3074646 
				9.3905678,109.0710449 9.423461,108.830513 9.4378519,108.5858765 9.4316845,108.3412323 9.4049587,108.0965881 
				9.3576746,107.8540039 9.2898331,107.613472 9.2343264,107.4551773 9.1315355,107.2249298 9.0369682,107.0542984 
				9.1192007,106.9186096 9.2610521,106.7294769 9.4172935,106.5567856 9.5899811,106.3984909 9.7791157,106.2566376 
				9.9785299,106.1394577 10.1162691,106.0736771 10.3239059,105.9955521 10.5356541,105.9400482 10.7474022,105.9112625 
				10.9591503,105.903038 11.1708994,105.919487 11.3785362,105.9564896 11.5841169,106.0161133 11.7814741,106.0962906 
				11.974721,106.1990814 12.1576881,106.3203735 12.3324318,106.4622192 12.4948406,106.6246338 12.6469707,106.805542 
				12.7826538,107.0049591 12.906002,107.2249298 13.0087929,107.4551773 13.0642996,107.613472 13.1321411,107.8540039 
				13.1794252,108.0965881 			"/>
		</g>
		<g>
			<line class="st1" x1="51.156395" y1="121.7512741" x2="51.156395" y2="131.6643982"/>
			<line class="st1" x1="51.156395" y1="78.2503433" x2="51.156395" y2="68.3351746"/>
			<polyline class="st1" points="28.2690678,131.6643982 28.2690678,121.7512741 28.2690678,119.3583145 			"/>
			<line class="st1" x1="62.0460205" y1="131.6643982" x2="62.0460205" y2="139.2133179"/>
			<line class="st1" x1="17.3815002" y1="139.2133179" x2="17.3815002" y2="131.6643982"/>
			<line class="st1" x1="62.0645218" y1="60.7862434" x2="62.0645218" y2="68.3351746"/>
			<line class="st1" x1="17.3609409" y1="68.3351746" x2="17.3609409" y2="60.7862434"/>
			<line class="st1" x1="44.2673798" y1="54.4831314" x2="44.2673798" y2="60.7862434"/>
			<line class="st1" x1="35.1580849" y1="60.7862434" x2="35.1580849" y2="54.4831314"/>
			<line class="st1" x1="35.1580849" y1="145.5164337" x2="35.1580849" y2="139.2133179"/>
			<line class="st1" x1="44.2673798" y1="139.2133179" x2="44.2673798" y2="145.5164337"/>
			<line class="st1" x1="34.259697" y1="149.7020721" x2="34.259697" y2="145.5164337"/>
			<line class="st1" x1="45.1657677" y1="145.5164337" x2="45.1657677" y2="149.7020721"/>
			<line class="st1" x1="45.1657677" y1="50.2975006" x2="45.1657677" y2="54.4831314"/>
			<line class="st1" x1="34.259697" y1="54.4831314" x2="34.259697" y2="50.2975006"/>
			<polyline class="st1" points="59.320015,122.3515778 55.5455513,122.3515778 53.6439247,122.2446747 52.4063301,122.0596466 
				51.156395,121.7512741 50.5972176,121.6135406 48.8538895,120.9803467 47.1866264,120.1662521 45.603653,119.1815186 
				44.1131935,118.0384827 42.723465,116.7453842 41.4447517,115.3124847 41.2782326,115.0863419 41.255619,115.0555038 
				40.2832184,113.7480087 39.7137604,112.8208389 39.2491455,112.0643005 38.4556046,110.4813309 38.4494362,110.4731064 
				38.3487015,110.271637 37.6250572,108.4563599 37.5942192,108.3782349 36.9918671,106.3943787 36.5519257,104.3303452 
				36.2805595,102.1943588 36.1880455,100.0008087 36.2805595,97.8052063 36.4429665,96.3743668 36.827404,94.2856598 
				37.3763046,92.2730255 37.637394,91.5637665 37.6579514,91.5062103 38.0814476,90.3487854 38.4432678,89.5737457 
				38.4453239,89.5675812 38.9325523,88.5211716 39.7137604,87.1643372 39.7343178,87.1293869 39.9234543,86.8004608 
				41.043869,85.19487 41.255619,84.9440613 42.2855797,83.7167435 43.6383018,82.376358 45.095871,81.1819305 
				46.6500626,80.1437454 48.290596,79.2720871 50.0092545,78.5772171 50.9096985,78.3202438 51.156395,78.2503433 
				51.7957535,78.0673752 53.6439247,77.7548981 55.5455513,77.647995 59.320015,77.647995 61.2216415,77.7548981 
				62.4592361,77.9419708 64.2683487,78.3860321 66.0116806,79.0192184 67.6789398,79.8333206 69.2619095,80.8180542 
				70.7523727,81.9610825 72.1420975,83.2541885 73.4208145,84.687088 74.5823441,86.2515564 75.6184769,87.9352646 
				76.516861,89.7279282 77.271347,91.6213303 77.8736954,93.6051865 78.3136444,95.6712799 78.5850067,97.8052063 
				78.6775208,100.0008087 78.5850067,102.1943588 78.4246521,103.625206 78.0381622,105.7139053 77.4892654,107.7265472 
				76.7841187,109.6507797 75.9330139,111.4783936 74.9421158,113.2011642 73.821701,114.8046951 72.5799866,116.2828217 
				71.2272644,117.6232147 69.7676392,118.8176346 68.2155075,119.8558197 66.5749664,120.7274857 64.8583679,121.422348 
				63.0698128,121.9321899 61.2216415,122.2446747 59.320015,122.3515778 57.4183922,122.2446747 56.1807938,122.0596466 
				54.3716812,121.6135406 52.6283569,120.9803467 50.9610939,120.1662521 49.3781204,119.1815186 47.887661,118.0384827 
				46.4979324,116.7453842 45.2192192,115.3124847 44.0576859,113.7480087 43.023613,112.0643005 42.1231689,110.271637 
				41.3686867,108.3782349 40.7663345,106.3943787 40.3263931,104.3303452 40.0550232,102.1943588 39.962513,100.0008087 
				40.0550232,97.8052063 40.2174339,96.3743668 40.6018715,94.2856598 41.1507721,92.2730255 41.8559151,90.3487854 
				42.7070198,88.5211716 43.6979179,86.8004608 44.8183365,85.19487 46.0600433,83.7167435 47.4127655,82.376358 
				48.8723907,81.1819305 50.42453,80.1437454 52.0650635,79.2720871 53.7837219,78.5772171 55.5702209,78.0673752 
				57.4183922,77.7548981 59.320015,77.647995 			"/>
			<polyline class="st1" points="64.5643845,94.5467453 62.4715729,94.5467453 62.0604095,94.5673065 61.6513062,94.6289825 
				61.2504234,94.7338257 60.8577614,94.875679 60.4753799,95.0586472 60.1115036,95.2786179 59.8833084,95.445137 
				59.320015,95.445137 58.5552559,95.4800873 58.2982788,95.6013794 57.971405,95.7206192 57.6527557,95.8727493 
				57.3484955,96.0557098 57.0586243,96.269516 56.785202,96.5100479 56.5302811,96.7793579 56.2979774,97.0712814 
				56.0882835,97.3878784 55.9032593,97.7229767 55.7449646,98.0745163 55.6133919,98.4425049 55.510601,98.8207779 
				55.4365921,99.2093277 55.3913651,99.6040421 55.3749161,100.0008087 55.3913651,100.397583 55.4365921,100.7902451 
				55.510601,101.1787872 55.6133919,101.5570602 55.7449646,101.9250488 55.9032593,102.2765961 55.915596,102.2992096 
				56.0882835,102.6116867 56.2979774,102.9282837 56.5302811,103.2202072 56.785202,103.4895172 57.0586243,103.7300491 
				57.3484955,103.9438553 57.6527557,104.1268234 57.971405,104.2789536 58.2982788,104.4002457 58.5552559,104.5194778 
				59.320015,104.5544281 59.8833084,104.5544281 60.1115036,104.7230072 60.4753799,104.9409256 60.8577614,105.1238861 
				61.2504234,105.2677994 61.6513062,105.3705902 62.0604095,105.4322586 62.4715729,105.4528198 64.5643845,105.4528198 
				64.9755478,105.4322586 65.3846512,105.3705902 65.78759,105.2677994 66.1802521,105.1238861 66.5605774,104.9409256 
				66.9265137,104.7230072 67.273941,104.4660339 67.6008148,104.1761627 67.9030228,103.8554535 68.1826096,103.5059662 
				68.4334183,103.1277008 68.653389,102.7268143 68.8445816,102.3053741 69.0028763,101.8654327 69.1262283,101.4110947 
				69.2146301,100.9464874 69.2680817,100.4757004 69.2865829,100.0008087 69.2680817,99.5238647 69.2146301,99.0530853 
				69.1262283,98.5884705 69.0028763,98.13414 68.8445816,97.6962509 68.653389,97.2727509 68.4334183,96.8718719 
				68.1826096,96.4956589 67.9030228,96.1441116 67.6008148,95.82341 67.273941,95.5335388 66.9265137,95.2786179 
				66.5605774,95.0586472 66.1802521,94.875679 65.78759,94.7338257 65.3846512,94.6289825 64.9755478,94.5673065 
				64.5643845,94.5467453 64.1532288,94.5673065 63.7441177,94.6289825 63.343235,94.7338257 62.9485207,94.875679 
				62.5681953,95.0586472 62.204319,95.2786179 61.856884,95.5335388 61.5300102,95.82341 61.2257538,96.1441116 
				60.9461632,96.4956589 60.6953545,96.8718719 60.4753799,97.2727509 60.2841911,97.6962509 60.1279488,98.13414 
				60.0025444,98.5884705 59.9141464,99.0530853 59.8606949,99.5238647 59.8421936,100.0008087 59.8606949,100.4757004 
				59.9141464,100.9464874 60.0025444,101.4110947 60.1279488,101.8654327 60.2841911,102.3053741 60.4753799,102.7268143 
				60.6953545,103.1277008 60.9461632,103.5059662 61.2257538,103.8554535 61.5300102,104.1761627 61.856884,104.4660339 
				62.204319,104.7230072 62.5681953,104.9409256 62.9485207,105.1238861 63.343235,105.2677994 63.7441177,105.3705902 
				64.1532288,105.4322586 64.5643845,105.4528198 			"/>
			<polyline class="st1" points="23.8799133,122.3515778 21.9803467,122.2446747 20.1321735,121.9321899 18.3436184,121.422348 
				16.6249619,120.7274857 14.9844255,119.8558197 13.4322901,118.8176346 11.974721,117.6232147 10.6199417,116.2828217 
				9.378233,114.8046951 8.2598724,113.2011642 7.2689724,111.4783936 6.4158115,109.6507797 5.7127247,107.7265472 
				5.1617675,105.7139053 4.7773309,103.625206 4.6169777,102.1943588 4.5244665,100.0008087 4.6169777,97.8052063 
				4.8862891,95.6712799 5.3282881,93.6051865 5.9306402,91.6213303 6.6851225,89.7279282 7.5835114,87.9352646 
				8.6175833,86.2515564 9.7791157,84.687088 11.059885,83.2541885 12.4496126,81.9610825 13.9400749,80.8180542 
				15.5230484,79.8333206 17.1903095,79.0192184 18.9315796,78.3860321 20.7406921,77.9419708 21.9803467,77.7548981 
				23.8799133,77.647995 			"/>
			<polyline class="st1" points="28.2690678,121.7512741 27.0211906,122.0596466 25.781538,122.2446747 23.8799133,122.3515778 
				20.1054478,122.3515778 18.2058792,122.2446747 16.3577061,121.9321899 14.5691528,121.422348 12.8504953,120.7274857 
				11.209959,119.8558197 9.6578236,118.8176346 8.2002544,117.6232147 6.8454757,116.2828217 5.6037664,114.8046951 
				4.4854059,113.2011642 3.4945059,111.4783936 2.6413448,109.6507797 1.9382579,107.7265472 1.387301,105.7139053 
				1.0028646,103.625206 0.8425114,102.1943588 0.75,100.0008087 0.8425114,97.8052063 1.1118225,95.6712799 1.5538216,93.6051865 
				2.1561737,91.6213303 2.910656,89.7279282 3.8090448,87.9352646 4.8431168,86.2515564 6.0046496,84.687088 7.285419,83.2541885 
				8.6751461,81.9610825 10.1656084,80.8180542 11.7485819,79.8333206 13.415843,79.0192184 15.157114,78.3860321 
				16.9662266,77.9419708 18.2058792,77.7548981 20.1054478,77.647995 23.8799133,77.647995 25.781538,77.7548981 
				27.6297112,78.0673752 28.2690678,78.2503433 			"/>
			<polyline class="st1" points="39.7137604,115.9723969 38.7166939,115.3721008 38.5789528,115.3042603 38.1719017,115.0555038 
				37.7257919,114.7861938 36.8602982,114.366806 36.751339,114.3030777 35.7994995,113.8878098 34.8764381,113.6390533 
				33.9924431,113.5547638 33.149559,113.6390533 32.3580742,113.8878098 31.6220932,114.3030777 31.5460281,114.366806 
				30.9477882,114.7861938 30.4235554,115.3042603 30.3392677,115.3721008 29.802702,115.9723969 29.6629066,116.1841431 
				29.3422012,116.5932541 29.1057816,117.0023575 28.9598198,117.2161636 28.6987324,117.7527313 28.6596718,117.8205719 
				28.4438114,118.3859177 28.4355888,118.4290924 28.3142948,118.8978119 28.3040161,119.0252762 28.2690678,119.3583145 
				28.287571,119.5371704 28.3142948,119.7612534 28.3821373,119.9627228 28.4438114,120.1004639 28.5856628,120.2957611 
				28.6596718,120.3697739 28.8919773,120.536293 28.9598198,120.5650787 29.2990284,120.6822586 29.3422012,120.6863708 
				29.802702,120.729538 30.3392677,120.6863708 30.4091663,120.6822586 30.9477882,120.5650787 31.1019726,120.536293 
				31.6220932,120.3697739 31.8790703,120.2957611 32.3580742,120.1004639 32.7342873,119.9627228 33.149559,119.7612534 
				33.6655693,119.5371704 33.9924431,119.3583145 34.6646919,119.0252762 34.8764381,118.8978119 35.7337112,118.4290924 
				35.7994995,118.3859177 36.751339,117.8205719 36.8787994,117.7527313 37.7257919,117.2161636 38.1040611,117.0023575 
				38.7166939,116.5932541 39.4115562,116.1841431 39.7137604,115.9723969 40.7108269,115.3721008 40.8465118,115.3042603 
				41.255619,115.0555038 			"/>
			<polyline class="st1" points="39.7137604,112.8208389 39.1443024,113.7480087 38.1719017,115.0555038 			"/>
			<polyline class="st1" points="32.9357567,111.4434509 32.0312004,111.4002762 31.0485229,111.2687073 29.9959488,111.0528412 
				29.8725986,111.0199509 28.9310379,110.7526932 27.9833107,110.4237671 27.8394032,110.3703156 26.772438,109.9098129 
				26.4455643,109.747406 25.7321987,109.3732452 25.1031208,108.9970322 24.7351303,108.7667847 23.9128075,108.1788254 
				23.7956257,108.0924759 22.93013,107.3564987 22.870512,107.2989349 22.1468658,106.5629578 21.9721222,106.3614883 
				21.4520035,105.7221298 21.2073612,105.3767548 20.8517075,104.8360748 20.5762272,104.3529587 20.35009,103.9130173 
				20.0828342,103.29422 19.9553738,102.961174 19.7271786,102.2087479 19.6716728,101.9867249 19.5133743,101.1088943 
				19.4969273,100.997879 19.4373093,100.0008087 19.4969273,99.0016861 19.5133743,98.8906784 19.6716728,98.0128403 
				19.7271786,97.7908173 19.9553738,97.0383911 20.0828342,96.7074051 20.35009,96.0865479 20.5762272,95.6486664 
				20.8517075,95.1634903 21.2073612,94.6228104 21.4520035,94.2774353 21.9721222,93.6380844 22.1468658,93.436615 
				22.870512,92.7006302 22.93013,92.6451263 23.7956257,91.9091415 23.9128075,91.8207474 24.7351303,91.2348404 
				25.1031208,91.002533 25.7321987,90.6263199 26.4455643,90.2521591 26.772438,90.0897522 27.8394032,89.6292496 
				27.9833107,89.575798 28.9310379,89.2468719 29.8725986,88.9796143 29.9959488,88.9467239 31.0485229,88.7308655 
				32.0312004,88.6013489 32.9357567,88.5561218 			"/>
			<polyline class="st1" points="41.255619,84.9440613 40.8465118,84.6953125 40.7108269,84.6274643 39.7137604,84.0271683 
				39.4115562,83.8154221 38.7166939,83.4063187 38.1040611,82.9972076 37.7257919,82.7854614 36.8787994,82.2468414 
				36.751339,82.1790009 35.7994995,81.6157074 35.7337112,81.5704803 34.8764381,81.1038132 34.6646919,80.9742966 
				33.9924431,80.6412506 33.6655693,80.4623947 33.149559,80.2383118 32.7342873,80.0368423 32.3580742,79.8991089 
				31.8790703,79.703804 31.6220932,79.6297913 31.1019726,79.4632721 30.9477882,79.434494 30.4091663,79.3193665 
				30.3392677,79.3132019 29.802702,79.2700272 29.3422012,79.3132019 29.2990284,79.3193665 28.9598198,79.434494 
				28.8919773,79.4632721 28.6596718,79.6297913 28.5856628,79.703804 28.4438114,79.8991089 28.3821373,80.0368423 
				28.3142948,80.2383118 28.287571,80.4623947 28.2690678,80.6412506 28.3040161,80.9742966 28.3142948,81.1038132 
				28.4355888,81.5704803 28.4438114,81.6157074 28.6596718,82.1790009 28.6987324,82.2468414 28.9598198,82.7854614 
				29.1057816,82.9972076 29.3422012,83.4063187 29.6629066,83.8154221 29.802702,84.0271683 30.3392677,84.6274643 
				30.4235554,84.6953125 30.9477882,85.2133713 31.5460281,85.6327591 31.6220932,85.6964874 32.3580742,86.111763 
				33.149559,86.3625717 33.9924431,86.4448013 34.8764381,86.3625717 35.7994995,86.111763 36.751339,85.6964874 
				36.8602982,85.6327591 37.7257919,85.2133713 38.1719017,84.9440613 38.1965714,84.9276123 38.5789528,84.6953125 
				38.7166939,84.6274643 39.7137604,84.0271683 			"/>
			<polyline class="st1" points="37.6250572,108.4563599 37.4749832,108.7667847 37.320797,108.9970322 37.1008263,109.3732452 
				36.796566,109.747406 36.6814423,109.9098129 36.2147713,110.3703156 36.1407623,110.4237671 35.7090416,110.7526932 
				35.4829025,110.8678207 35.4644012,110.8780975 35.1848106,111.0199509 35.1272469,111.0528412 34.4899483,111.2687073 
				33.7580795,111.4002762 32.9357567,111.4434509 23.8799133,111.4434509 23.0164738,111.4002762 22.1592007,111.2687073 
				21.3163204,111.0528412 21.3142643,111.0528412 20.4919395,110.7526932 20.4734383,110.7444763 19.6922302,110.3703156 
				18.9254131,109.9098129 18.9192448,109.9057007 18.1976566,109.3732452 18.1853218,109.3629684 17.5110168,108.7667847 
				17.4945698,108.7482834 16.8737144,108.0924759 16.2898655,107.3564987 16.2878094,107.3544464 16.2158566,107.2454834 
				15.7635775,106.5629578 15.7594662,106.5567856 15.2989645,105.7221298 14.9083614,104.8545761 14.9001379,104.8360748 
				14.8939705,104.8196335 14.5691528,103.9130173 14.5629854,103.8904037 14.3080645,102.961174 14.3039532,102.9344559 
				14.120986,101.9867249 14.1168747,101.9538345 14.0079165,100.997879 13.970912,100.0008087 14.0079165,99.0016861 
				14.1168747,98.0457382 14.120986,98.0128403 14.3039532,97.0671692 14.3080645,97.0383911 14.5629854,96.1091614 
				14.5691528,96.0865479 14.8939705,95.1819916 14.9001379,95.1634903 15.2927971,94.289772 15.2989645,94.2774353 
				15.3277464,94.2260437 15.7594662,93.4427795 15.7635775,93.436615 16.281641,92.6574631 16.2878094,92.6471786 
				16.2898655,92.6451263 16.8737144,91.9091415 17.4945698,91.2512894 17.5110168,91.2348404 18.1853218,90.6365967 
				18.1976566,90.6263199 18.9192448,90.0938644 18.9254131,90.0897522 19.6922302,89.6292496 20.4734383,89.2550964 
				20.4919395,89.2468719 21.3142643,88.9467239 21.3163204,88.9467239 22.1592007,88.7308655 23.0164738,88.6013489 
				23.8799133,88.5561218 32.9357567,88.5561218 33.7580795,88.6013489 34.4899483,88.7308655 35.1272469,88.9467239 
				35.1848106,88.9796143 35.6350327,89.2098694 35.7090416,89.2468719 36.1407623,89.575798 36.2147713,89.6292496 
				36.6814423,90.0897522 36.796566,90.2521591 37.1008263,90.6263199 37.320797,91.002533 37.4749832,91.2348404 
				37.637394,91.5637665 			"/>
			<polyline class="st1" points="38.1719017,84.9440613 38.3836517,85.19487 39.5020103,86.8004608 39.7137604,87.1643372 			"/>
			<polyline class="st1" points="56.9620018,82.7690125 56.9743385,83.0301056 56.9928398,83.1986771 57.0380669,83.4453735 
				57.101799,83.6838531 57.1860847,83.9099884 57.2868195,84.1258469 57.3628845,84.2594757 57.3669968,84.2656479 
				57.4040031,84.3293762 57.5355721,84.5205688 57.6835938,84.6953125 57.8439445,84.8536072 58.014576,84.9934006 
				58.1996002,85.1167526 58.3928452,85.2195435 58.5963707,85.3017731 58.8081207,85.3634491 59.0260353,85.3983994 
				59.2501183,85.4127884 59.4762573,85.3983994 59.6222191,85.3778381 59.8360252,85.3243866 60.0416069,85.2503815 
				60.2389641,85.1537552 60.4260406,85.0365753 60.6028404,84.9029465 60.7652512,84.748764 60.9173813,84.5801849 
				61.0551186,84.3951645 61.1764145,84.1957474 61.2833138,83.9840012 61.3717155,83.7599182 61.4436684,83.5255508 
				61.4950638,83.2809143 61.5279579,83.0301056 61.5382347,82.7690125 61.5279579,82.5099869 61.5094528,82.3414078 
				61.4642258,82.0947113 61.3984413,81.8562393 61.3141518,81.6280441 61.2134171,81.412178 61.0982933,81.2086563 
				60.9646645,81.0195236 60.8187027,80.84478 60.6583481,80.6864777 60.4856606,80.544632 60.3026924,80.4233398 
				60.1073914,80.320549 59.9059219,80.2383118 59.6941757,80.1766434 59.4762573,80.1396332 59.2501183,80.1272964 
				59.0260353,80.1396332 58.8800735,80.1622467 58.6662674,80.2156982 58.4586334,80.289711 58.2633286,80.3863297 
				58.076252,80.5014572 57.8994522,80.6371384 57.7349892,80.7913284 57.582859,80.9598999 57.4471741,81.144928 
				57.3628845,81.2806091 57.3238258,81.3443375 57.2169228,81.5560913 57.1285248,81.7801743 57.056572,82.014534 
				57.0051765,82.2571182 56.9743385,82.5099869 56.9620018,82.7690125 			"/>
			<polyline class="st1" points="13.1588669,92.1681747 13.220541,91.9276505 13.2596016,91.6830063 13.28016,91.4383621 
				13.2781038,91.1916656 13.2596016,90.9490814 13.220541,90.7106094 13.1629782,90.4762497 13.0869141,90.2480545 
				12.9923468,90.0301361 12.8813324,89.8204422 12.7518167,89.6251373 12.605854,89.4401169 12.4434452,89.2715378 
				12.3262644,89.1687546 12.1371298,89.0269012 11.9377165,88.9076614 11.7321348,88.815155 11.5224428,88.7452545 
				11.3106937,88.6979675 11.0989456,88.675354 10.8871975,88.675354 10.6754494,88.6979675 10.4698677,88.7431946 
				10.2663431,88.8110428 10.068985,88.8973846 9.8798504,89.00634 9.6989393,89.1358566 9.528307,89.2838745 9.3700094,89.4524536 
				9.2219915,89.639534 9.1335917,89.7752151 9.1068659,89.8225021 9.0122986,89.9951859 8.9095087,90.2254333 8.8272762,90.461853 
				8.7656021,90.7044373 8.7265415,90.9470291 8.7059832,91.1937256 8.7080393,91.4383621 8.7265415,91.680954 
				8.7656021,91.9214783 8.823164,92.1537857 8.899229,92.3819809 8.9937963,92.5998993 9.1048107,92.8075333 9.1048107,92.8095932 
				9.2343264,93.0069504 9.3802891,93.1899109 9.5426979,93.35849 9.6598787,93.4633408 9.8490133,93.6031342 
				10.0484266,93.7223663 10.2540083,93.8169403 10.4637003,93.8868332 10.6754494,93.9320602 10.8851414,93.9546738 
				11.0989456,93.9546738 11.3106937,93.9320602 11.5162754,93.8868332 11.7198,93.8210449 11.9171581,93.7326508 
				12.1062927,93.6236877 12.2872038,93.4962311 12.4578362,93.3461533 12.6161337,93.1775818 12.7641516,92.9905014 
				12.8525515,92.8548203 12.9738445,92.6369019 13.0766344,92.4045944 13.1588669,92.1681747 			"/>
			<polyline class="st1" points="70.7050934,106.6246338 70.5550156,106.805542 70.4172745,107.0070114 70.3905487,107.0542984 
				70.2959824,107.2249298 70.1931915,107.4551773 70.1356277,107.613472 70.0677872,107.8540039 70.0225601,108.0965881 
				69.9958344,108.3412323 69.9896698,108.5858765 70.0020065,108.830513 70.0348969,109.0710449 70.0862885,109.3074646 
				70.156189,109.5377121 70.2445908,109.7597427 70.3494339,109.971489 70.3905487,110.0352173 70.4727859,110.1729584 
				70.6146317,110.3600388 70.770874,110.5347824 70.9435654,110.6930771 71.1326981,110.8328705 71.3341675,110.9521103 
				71.4698486,111.0178986 71.6774902,111.0960159 71.8892365,111.1494675 72.1009827,111.1803055 72.3127365,111.18853 
				72.5244827,111.172081 72.7321167,111.1350784 72.9376984,111.0754547 73.1350555,110.995285 73.3283005,110.8924942 
				73.5133286,110.7712021 73.6860123,110.6293488 73.8504791,110.4669418 74.0005569,110.286026 74.1362381,110.0845566 
				74.2595825,109.8666458 74.3623734,109.6363907 74.4178848,109.478096 74.4857254,109.2375641 74.5330048,108.9949799 
				74.5597305,108.7503357 74.5659027,108.5036392 74.5515137,108.261055 74.5206757,108.0205231 74.4692764,107.784111 
				74.3993835,107.5538559 74.3109818,107.3318329 74.2040787,107.120079 74.0807266,106.9186096 73.9409332,106.7294769 
				73.7846909,106.5567856 73.6099472,106.3984909 73.4208145,106.2566376 73.221405,106.1394577 73.0857162,106.0736771 
				72.8780823,105.9955521 72.6663361,105.9400482 72.4545822,105.9112625 72.2407837,105.903038 72.0310898,105.919487 
				71.8213959,105.9564896 71.6178665,106.0161133 71.418457,106.0962906 71.2272644,106.1990814 71.042244,106.3203735 
				70.8695526,106.4622192 70.7050934,106.6246338 			"/>
			<polyline class="st1" points="70.7585449,89.2715378 70.5940781,89.4401169 70.4501724,89.6251373 70.3206558,89.8204422 
				70.3185959,89.8225021 70.2075882,90.0301361 70.1150742,90.2480545 70.0390091,90.4762497 69.9814453,90.7106094 
				69.9423828,90.9490814 69.9218292,91.1916656 69.9218292,91.4383621 69.9423828,91.6830063 69.9814453,91.9276505 
				70.0410614,92.1681747 70.1232986,92.4045944 70.2260895,92.6369019 70.3227081,92.8075333 70.3473816,92.8548203 
				70.4378357,92.9905014 70.5838013,93.1775818 70.7441483,93.3461533 70.9147797,93.4962311 71.0956955,93.6236877 
				71.2848282,93.7326508 71.4801331,93.8210449 71.6836548,93.8868332 71.8912888,93.9320602 72.1009827,93.9546738 
				72.3127365,93.9546738 72.526535,93.9320602 72.7382889,93.8868332 72.9459229,93.8169403 73.1515045,93.7223663 
				73.3529739,93.6031342 73.5400543,93.4633408 73.6592865,93.35849 73.8196411,93.1899109 73.967659,93.0069504 
				74.0951233,92.8095932 74.2081909,92.5998993 74.3027573,92.3819809 74.3788223,92.1537857 74.4343262,91.9214783 
				74.4733887,91.680954 74.4939499,91.4383621 74.4939499,91.1937256 74.4754486,90.9470291 74.4343262,90.7044373 
				74.3747101,90.461853 74.2924805,90.2254333 74.1896896,89.9951859 74.0683975,89.7752151 73.9779358,89.639534 
				73.8319778,89.4524536 73.6716232,89.2838745 73.5030441,89.1358566 73.3200836,89.00634 73.1309433,88.8973846 
				72.9335861,88.8110428 72.7321167,88.7431946 72.5244827,88.6979675 72.3147888,88.675354 72.1009827,88.675354 
				71.8892365,88.6979675 71.6795425,88.7452545 71.4677963,88.815155 71.264267,88.9076614 71.0648575,89.0269012 
				70.8736649,89.1687546 70.7585449,89.2715378 			"/>
			<polyline class="st1" points="25.5183945,84.6953125 25.6643562,84.5205688 25.7979851,84.3293762 25.9151649,84.1258469 
				26.0158997,83.9099884 26.0981331,83.6838531 26.1639194,83.4453735 26.2091465,83.1986771 26.2276497,83.0301056 
				26.2379284,82.7690125 26.2276497,82.5099869 26.1947556,82.2571182 26.1433601,82.014534 26.0714073,81.7801743 
				25.9830074,81.5560913 25.8761063,81.3443375 25.7548122,81.144928 25.6170731,80.9598999 25.4669991,80.7913284 
				25.3025341,80.6371384 25.1257343,80.5014572 24.9386559,80.3863297 24.7412987,80.289711 24.535717,80.2156982 
				24.3219128,80.1622467 24.175951,80.1396332 23.9498119,80.1272964 23.725729,80.1396332 23.5078125,80.1766434 
				23.2960644,80.2383118 23.0925388,80.320549 22.8992939,80.4233398 22.7142696,80.544632 22.5436382,80.6864777 
				22.3832855,80.84478 22.2352657,81.0195236 22.1036949,81.2086563 22.0666904,81.2723846 22.0625782,81.2806091 
				21.9865131,81.412178 21.8857784,81.6280441 21.8035469,81.8562393 21.7377605,82.0947113 21.6925335,82.3414078 
				21.6740303,82.5099869 21.6616955,82.7690125 21.6740303,83.0301056 21.7048683,83.2809143 21.7562637,83.5255508 
				21.8282166,83.7599182 21.9166164,83.9840012 22.0235176,84.1957474 22.0625782,84.2594757 22.1468658,84.3951645 
				22.2825508,84.5801849 22.4346809,84.748764 22.599144,84.9029465 22.7759438,85.0365753 22.9630222,85.1537552 
				23.1603813,85.2503815 23.3659611,85.3243866 23.5797653,85.3778381 23.725729,85.3983994 23.9498119,85.4127884 
				24.175951,85.3983994 24.3938675,85.3634491 24.6056156,85.3017731 24.8091393,85.2195435 25.0023861,85.1167526 
				25.1853542,84.9934006 25.3580418,84.8536072 25.5183945,84.6953125 			"/>
			<polyline class="st1" points="57.8747826,115.2508087 57.7226524,115.4193878 57.5849113,115.6044083 57.5026817,115.7400894 
				57.4636192,115.8038177 57.35672,116.0155716 57.2683182,116.2396545 57.1963654,116.4740143 57.1449699,116.7186584 
				57.1120758,116.9715195 57.101799,117.2305527 57.1120758,117.4895859 57.1305809,117.6581573 57.1778641,117.9048615 
				57.2415924,118.1433334 57.325882,118.3715286 57.4266167,118.5873871 57.5026817,118.7210159 57.506794,118.7271805 
				57.5437965,118.7909088 57.6753693,118.9800491 57.821331,119.1547928 57.9816856,119.3130875 58.1543732,119.4549408 
				58.3373413,119.5782852 58.5326424,119.681076 58.7341118,119.7633133 58.945858,119.8229294 59.1658325,119.8599319 
				59.3899155,119.8722687 59.6139984,119.8599319 59.7599602,119.8373184 59.9737625,119.7859268 60.1814003,119.7098618 
				60.3767014,119.6132355 60.5658379,119.4981079 60.7405815,119.3624268 60.9050446,119.2102966 61.0571747,119.0396652 
				61.1949158,118.8546448 61.3162079,118.6572876 61.423111,118.4434814 61.5115089,118.2214508 61.5834618,117.9850311 
				61.6348572,117.7424469 61.6677513,117.4895859 61.6780319,117.2305527 61.6677513,116.9715195 61.6471939,116.8008881 
				61.6019669,116.5541916 61.5382347,116.3177719 61.4539452,116.0895767 61.3532104,115.8737183 61.2360306,115.6701965 
				61.1044579,115.4810562 60.95644,115.3063126 60.7981453,115.1459579 60.6254539,115.0061646 60.4404335,114.8828201 
				60.2471886,114.7800293 60.043663,114.6977921 59.831913,114.638176 59.6139984,114.6011734 59.3899155,114.5888367 
				59.1658325,114.6011734 59.0178108,114.621727 58.8040085,114.6751785 58.5984268,114.7491913 58.4010696,114.8458099 
				58.2139893,114.9629974 58.0392456,115.0986786 57.8747826,115.2508087 			"/>
			<polyline class="st1" points="25.3272038,115.2508087 25.1627388,115.0986786 24.985939,114.9629974 24.7988605,114.8458099 
				24.6015034,114.7491913 24.3959217,114.6751785 24.1821175,114.621727 24.0361557,114.6011734 23.8120728,114.5888367 
				23.5859337,114.6011734 23.3680172,114.638176 23.1562691,114.6977921 22.9527435,114.7800293 22.7594986,114.8828201 
				22.5765305,115.0061646 22.4038429,115.1459579 22.2434902,115.3063126 22.0975266,115.4790039 21.9638996,115.6701965 
				21.9289513,115.7339249 21.924839,115.7400894 21.8467178,115.8737183 21.7459831,116.0895767 21.6637516,116.3177719 
				21.5979652,116.5541916 21.5527382,116.8008881 21.534235,116.9715195 21.5239563,117.2305527 21.534235,117.4895859 
				21.565073,117.7424469 21.6185246,117.9850311 21.6884212,118.2214508 21.7788773,118.4434814 21.8857784,118.6572876 
				21.924839,118.7210159 22.0070724,118.8546448 22.1448116,119.0396652 22.2948856,119.2102966 22.4593506,119.3624268 
				22.6361485,119.4981079 22.8232288,119.6132355 23.020586,119.7098618 23.2261677,119.7859268 23.43997,119.8373184 
				23.5859337,119.8599319 23.8120728,119.8722687 24.0361557,119.8599319 24.2540722,119.8229294 24.4658203,119.7633133 
				24.6693459,119.681076 24.8625908,119.5782852 25.0455589,119.4549408 25.2182465,119.3130875 25.3785992,119.1547928 
				25.5266171,118.9800491 25.6581898,118.7909088 25.7753716,118.5873871 25.8761063,118.3715286 25.9583378,118.1433334 
				26.0241241,117.9048615 26.0693512,117.6581573 26.0878544,117.4895859 26.1001892,117.2305527 26.0878544,116.9715195 
				26.0570164,116.7186584 26.0035648,116.4740143 25.9336681,116.2396545 25.8432121,116.0155716 25.7383671,115.8038177 
				25.6150169,115.6044083 25.4793339,115.4193878 25.3272038,115.2508087 			"/>
			<polyline class="st1" points="45.9017487,106.1127319 45.6941109,106.1826324 45.4885292,106.2771988 45.2891159,106.3964386 
				45.0999794,106.536232 44.9827995,106.6410751 44.8183365,106.8096542 44.6723747,106.9926224 44.5449142,107.1899796 
				44.5428581,107.1920319 44.4318428,107.3996735 44.3393326,107.6175842 44.2632675,107.8457794 44.2057037,108.0801468 
				44.1666451,108.3186188 44.1460838,108.561203 44.1460838,108.8058472 44.1666451,109.0525436 44.2057037,109.2951279 
				44.2653236,109.5377121 44.3475533,109.7741318 44.4503441,110.0064392 44.5469704,110.1770706 44.57164,110.22435 
				44.6620941,110.3600388 44.8080559,110.5471191 44.9684105,110.7156906 45.1390419,110.8637085 45.3199539,110.9932251 
				45.5090866,111.1021805 45.7064438,111.1905823 45.9079132,111.2563705 46.115551,111.3015976 46.3252449,111.3242111 
				46.5390472,111.3242111 46.7507973,111.3015976 46.9625435,111.2563705 47.1701813,111.18647 47.3757629,111.0919037 
				47.5772324,110.9726715 47.7663651,110.8328705 47.8835487,110.7280273 48.0459557,110.5594482 48.1919174,110.3764801 
				48.3193779,110.1791229 48.4324493,109.9694366 48.5270157,109.7515182 48.6010246,109.5233231 48.6606445,109.2889633 
				48.6976471,109.0504837 48.7182045,108.8078995 48.7182045,108.5632553 48.6997032,108.3165588 48.6585884,108.0719223 
				48.5989685,107.8313904 48.5167351,107.5949707 48.4139481,107.3626633 48.2926521,107.1447525 48.202198,107.0090637 
				48.0562363,106.821991 47.8958817,106.6534119 47.7252502,106.505394 47.5463943,106.3758774 47.3552055,106.266922 
				47.1599007,106.1785202 46.9563789,106.1127319 46.7487411,106.0675049 46.5390472,106.0448914 46.3231888,106.0448914 
				46.1134949,106.0675049 45.9017487,106.1127319 			"/>
			<polyline class="st1" points="45.7640076,94.0040131 45.9737015,94.0595245 46.1854477,94.0903625 46.3992538,94.0965271 
				46.6089439,94.0821381 46.8186378,94.0430756 47.0221634,93.9834595 47.2215767,93.9032822 47.4127655,93.8025436 
				47.5977898,93.6791992 47.7725334,93.5373459 47.9349442,93.374939 48.0850182,93.1940231 48.2227554,92.9946136 
				48.3440475,92.7746429 48.4468384,92.5443878 48.5044022,92.3860931 48.5722427,92.1476212 48.6174698,91.902977 
				48.6441956,91.6583328 48.6503639,91.4136963 48.638031,91.1690521 48.6051369,90.9285278 48.5537415,90.6921082 
				48.4838448,90.461853 48.395443,90.2418823 48.290596,90.0280762 48.1672478,89.8266068 48.0253983,89.639534 
				47.8691559,89.4647903 47.6964684,89.306488 47.5073357,89.1666946 47.3058662,89.0474548 47.1701813,88.9816742 
				46.9625435,88.9035492 46.7507973,88.8500977 46.5390472,88.8192596 46.327301,88.8130951 46.115551,88.8274841 
				45.9079132,88.8644943 45.7023354,88.9241104 45.5049744,89.0042877 45.3117294,89.1070786 45.1287613,89.2283707 
				44.9540176,89.3722763 44.7916107,89.5326309 44.6394806,89.7155991 44.5037956,89.9150085 44.4750137,89.9643478 
				44.3804474,90.1329269 44.2776566,90.3652344 44.2221489,90.5214767 44.1543083,90.762001 44.1070251,91.0045853 
				44.0802994,91.2512894 44.074131,91.4959259 44.0885239,91.7405701 44.1193619,91.981102 44.1707535,92.2154617 
				44.2427101,92.4457092 44.329052,92.6677399 44.435955,92.8794861 44.4750137,92.9452744 44.5593033,93.0809555 
				44.6990967,93.2700882 44.8553391,93.4448318 45.0300827,93.6010742 45.2192192,93.7429276 45.4186325,93.8621674 
				45.5543137,93.927948 45.7640076,94.0040131 			"/>
			<polyline class="st1" points="44.5428581,107.1920319 44.6394806,107.3626633 44.7422714,107.5949707 44.824501,107.8313904 
				44.8841209,108.0719223 44.9252357,108.3165588 44.9437408,108.5632553 44.9437408,108.8078995 44.9231834,109.0504837 
				44.8861771,109.2889633 44.8265572,109.5233231 44.7504921,109.7515182 44.6579819,109.9694366 44.5469704,110.1770706 			"/>
			<polyline class="st1" points="9.1048107,92.8075333 9.199378,92.6369019 9.3021679,92.4045944 9.3844004,92.1681747 
				9.4460745,91.9276505 9.4851351,91.6830063 9.5056934,91.4383621 9.5036373,91.1916656 9.4851351,90.9490814 
				9.4460745,90.7106094 9.3885117,90.4762497 9.3124475,90.2480545 9.2178802,90.0301361 9.1068659,89.8225021 			"/>
			<polyline class="st1" points="70.3185959,89.8225021 70.4152222,89.9951859 70.518013,90.2254333 70.6002426,90.461853 
				70.6598587,90.7044373 70.6989212,90.9470291 70.7194824,91.1937256 70.7194824,91.4383621 70.6989212,91.680954 
				70.6619186,91.9214783 70.6023026,92.1537857 70.5282898,92.3819809 70.4337234,92.5998993 70.3227081,92.8075333 			"/>
			<polyline class="st1" points="13.0642996,107.613472 13.0087929,107.4551773 12.906002,107.2249298 12.7826538,107.0049591 
				12.6469707,106.805542 12.4948406,106.6246338 12.3324318,106.4622192 12.1576881,106.3203735 11.974721,106.1990814 
				11.7814741,106.0962906 11.5841169,106.0161133 11.3785362,105.9564896 11.1708994,105.919487 10.9591503,105.903038 
				10.7474022,105.9112625 10.5356541,105.9400482 10.3239059,105.9955521 10.1162691,106.0736771 9.9785299,106.1394577 
				9.7791157,106.2566376 9.5899811,106.3984909 9.4172935,106.5567856 9.2610521,106.7294769 9.1192007,106.9186096 
				9.0369682,107.0542984 8.9958525,107.120079 8.8910065,107.3318329 8.8026066,107.5538559 8.7327089,107.784111 
				8.6813135,108.0205231 8.6484203,108.261055 8.6360855,108.5036392 8.6422529,108.7503357 8.6689787,108.9949799 
				8.7142067,109.2375641 8.7820482,109.478096 8.8396111,109.6363907 8.9424009,109.8666458 9.0369682,110.0352173 
				9.063694,110.0845566 9.2014332,110.286026 9.3515072,110.4669418 9.513916,110.6293488 9.6886606,110.7712021 
				9.873683,110.8924942 10.0648737,110.995285 10.264287,111.0754547 10.4678125,111.1350784 10.6775045,111.172081 
				10.8871975,111.18853 11.1010017,111.1803055 11.3127499,111.1494675 11.5224428,111.0960159 11.7321348,111.0178986 
				11.8678188,110.9521103 12.0672321,110.8328705 12.2563667,110.6930771 12.4290543,110.5347824 12.5873518,110.3600388 
				12.7271471,110.1729584 12.8504953,109.971489 12.9573975,109.7597427 13.0437412,109.5377121 13.1136389,109.3074646 
				13.1650343,109.0710449 13.1979275,108.830513 13.2123184,108.5858765 13.206151,108.3412323 13.1794252,108.0965881 
				13.1321411,107.8540039 13.0642996,107.613472 			"/>
			<polyline class="st1" points="57.3628845,81.2806091 57.4389496,81.412178 57.5396843,81.6280441 57.6239738,81.8562393 
				57.6897583,82.0947113 57.7349892,82.3414078 57.7534904,82.5099869 57.7637672,82.7690125 57.7534904,83.0301056 
				57.7205963,83.2809143 57.6692009,83.5255508 57.5972481,83.7599182 57.5088501,83.9840012 57.401947,84.1957474 
				57.3628845,84.2594757 			"/>
			<polyline class="st1" points="57.5026817,115.7400894 57.5787468,115.8737183 57.6794815,116.0895767 57.7637672,116.3177719 
				57.8274994,116.5541916 57.8727264,116.8008881 57.8932838,116.9715195 57.9035645,117.2305527 57.8932838,117.4895859 
				57.8603935,117.7424469 57.8089981,117.9850311 57.7370415,118.2214508 57.6486435,118.4434814 57.5417404,118.6572876 
				57.5026817,118.7210159 			"/>
			<polyline class="st1" points="21.924839,118.7210159 22.0009041,118.5873871 22.1016388,118.3715286 22.1838722,118.1433334 
				22.2496567,117.9048615 22.2948856,117.6581573 22.3133869,117.4895859 22.3257217,117.2305527 22.3133869,116.9715195 
				22.2825508,116.7186584 22.2290993,116.4740143 22.1592007,116.2396545 22.0687466,116.0155716 21.9638996,115.8038177 
				21.924839,115.7400894 			"/>
			<polyline class="st1" points="22.0625782,84.2594757 22.1386433,84.1258469 22.239378,83.9099884 22.3236656,83.6838531 
				22.389452,83.4453735 22.4346809,83.1986771 22.4531822,83.0301056 22.4634609,82.7690125 22.4531822,82.5099869 
				22.42029,82.2571182 22.3688946,82.014534 22.2969398,81.7801743 22.2085419,81.5560913 22.1016388,81.3443375 
				22.0625782,81.2806091 			"/>
			<polyline class="st1" points="38.4494362,110.4731064 38.3918762,110.5471191 38.2335777,110.7156906 38.0629463,110.8637085 
				37.8820343,110.9932251 37.6928978,111.1021805 37.4955406,111.1905823 37.2920151,111.2563705 37.0864372,111.3015976 
				36.8746872,111.3242111 36.660881,111.3242111 36.4511909,111.3015976 36.2394409,111.2563705 36.0297508,111.18647 
				35.8241692,111.0919037 35.6247559,110.9726715 35.4829025,110.8678207 			"/>
			<polyline class="st1" points="9.0369682,110.0352173 9.0760288,109.971489 9.1829309,109.7597427 9.2692747,109.5377121 
				9.3391724,109.3074646 9.3905678,109.0710449 9.423461,108.830513 9.4378519,108.5858765 9.4316845,108.3412323 
				9.4049587,108.0965881 9.3576746,107.8540039 9.2898331,107.613472 9.2343264,107.4551773 9.1315355,107.2249298 
				9.0369682,107.0542984 			"/>
			<polyline class="st1" points="44.4750137,89.9643478 44.5161324,90.0280762 44.6209793,90.2418823 44.7093773,90.461853 
				44.779274,90.6921082 44.8306694,90.9285278 44.8635635,91.1690521 44.8758965,91.4136963 44.8697319,91.6583328 
				44.8430061,91.902977 44.7977791,92.1476212 44.7299347,92.3860931 44.6723747,92.5443878 44.5695839,92.7746429 
				44.4750137,92.9452744 			"/>
			<polyline class="st1" points="70.3905487,107.0542984 70.4296112,107.120079 70.5365143,107.3318329 70.6249161,107.5538559 
				70.694809,107.784111 70.7462082,108.0205231 70.7770462,108.261055 70.7914352,108.5036392 70.7852707,108.7503357 
				70.7585449,108.9949799 70.7112579,109.2375641 70.6434174,109.478096 70.5879059,109.6363907 70.4851151,109.8666458 
				70.3905487,110.0352173 			"/>
			<polyline class="st1" points="35.6350327,89.2098694 35.6946526,89.1666946 35.8940659,89.0474548 36.0297508,88.9816742 
				36.2394409,88.9035492 36.4491348,88.8500977 36.660881,88.8192596 36.8746872,88.8130951 37.0843811,88.8274841 
				37.2940712,88.8644943 37.4975967,88.9241104 37.69701,89.0042877 37.8882027,89.1070786 38.0732231,89.2283707 
				38.2479668,89.3722763 38.4103775,89.5326309 38.4432678,89.5737457 			"/>
			<polyline class="st1" points="17.3609409,68.3351746 17.422617,68.3351746 17.6816483,68.3351746 18.1380386,68.3351746 
				18.7979527,68.3351746 19.3509655,68.3351746 20.3562565,68.3351746 21.5465698,68.3351746 22.884903,68.3351746 
				24.3568611,68.3351746 25.9521694,68.3351746 27.6523247,68.3351746 28.2690678,68.3351746 29.4491024,68.3351746 
				31.3240013,68.3351746 33.268795,68.3351746 35.2649879,68.3351746 37.3002396,68.3351746 39.3622169,68.3351746 
				41.4385834,68.3351746 43.5128975,68.3351746 45.5707626,68.3351746 47.601902,68.3351746 48.9340668,68.3351746 
				50.8891411,68.3351746 51.156395,68.3351746 52.7373123,68.3351746 54.429245,68.3351746 55.9628792,68.3351746 
				57.3320503,68.3351746 58.5367546,68.3351746 59.5708237,68.3351746 60.432209,68.3351746 61.1147385,68.3351746 
				61.618412,68.3351746 61.9350052,68.3351746 62.0645218,68.3351746 			"/>
			<polyline class="st1" points="17.3609409,60.7862434 17.422617,60.7862434 17.6816483,60.7862434 18.1380386,60.7862434 
				18.7979527,60.7862434 19.3509655,60.7862434 20.3562565,60.7862434 21.5465698,60.7862434 22.884903,60.7862434 
				24.3568611,60.7862434 25.9521694,60.7862434 27.6523247,60.7862434 29.4491024,60.7862434 31.3240013,60.7862434 
				33.268795,60.7862434 35.1580849,60.7862434 35.2649879,60.7862434 37.3002396,60.7862434 39.3622169,60.7862434 
				41.4385834,60.7862434 43.5128975,60.7862434 44.2673798,60.7862434 45.5707626,60.7862434 47.601902,60.7862434 
				48.9340668,60.7862434 50.8891411,60.7862434 52.7373123,60.7862434 54.429245,60.7862434 55.9628792,60.7862434 
				57.3320503,60.7862434 58.5367546,60.7862434 59.5708237,60.7862434 60.432209,60.7862434 61.1147385,60.7862434 
				61.618412,60.7862434 61.9350052,60.7862434 62.0645218,60.7862434 			"/>
			<polyline class="st1" points="45.1657677,145.5164337 45.1452103,145.5164337 45.0835342,145.5164337 44.9807434,145.5164337 
				44.8368378,145.5164337 44.6559258,145.5164337 44.435955,145.5164337 44.2673798,145.5164337 44.178978,145.5164337 
				43.8911667,145.5164337 43.5684013,145.5164337 43.218914,145.5164337 42.8406448,145.5164337 42.4397621,145.5164337 
				42.018322,145.5164337 41.5783806,145.5164337 41.1240463,145.5164337 40.6594315,145.5164337 40.188652,145.5164337 
				39.7137604,145.5164337 39.2388687,145.5164337 38.7660332,145.5164337 38.3014183,145.5164337 37.8491402,145.5164337 
				37.4091988,145.5164337 36.9877548,145.5164337 36.584816,145.5164337 36.2086029,145.5164337 35.8570595,145.5164337 
				35.5363541,145.5164337 35.2464867,145.5164337 35.1580849,145.5164337 34.9915657,145.5164337 34.771595,145.5164337 
				34.5886269,145.5164337 34.4467773,145.5164337 34.3439865,145.5164337 34.2802544,145.5164337 34.259697,145.5164337 			"/>
			<polyline class="st1" points="45.1657677,149.7020721 45.1452103,149.7020721 45.0835342,149.7020721 44.9807434,149.7020721 
				44.8368378,149.7020721 44.6559258,149.7020721 44.435955,149.7020721 44.178978,149.7020721 43.8911667,149.7020721 
				43.5684013,149.7020721 43.218914,149.7020721 42.8406448,149.7020721 42.4397621,149.7020721 42.018322,149.7020721 
				41.5783806,149.7020721 41.1240463,149.7020721 40.6594315,149.7020721 40.188652,149.7020721 39.7137604,149.7020721 
				39.2388687,149.7020721 38.7660332,149.7020721 38.3014183,149.7020721 37.8491402,149.7020721 37.4091988,149.7020721 
				36.9877548,149.7020721 36.584816,149.7020721 36.2086029,149.7020721 35.8570595,149.7020721 35.5363541,149.7020721 
				35.2464867,149.7020721 34.9915657,149.7020721 34.771595,149.7020721 34.5886269,149.7020721 34.4467773,149.7020721 
				34.3439865,149.7020721 34.2802544,149.7020721 34.259697,149.7020721 			"/>
			<polyline class="st1" points="34.259697,54.4831314 34.2802544,54.4831314 34.3439865,54.4831314 34.4467773,54.4831314 
				34.5886269,54.4831314 34.771595,54.4831314 34.9915657,54.4831314 35.1580849,54.4831314 35.2464867,54.4831314 
				35.5363541,54.4831314 35.8570595,54.4831314 36.2086029,54.4831314 36.584816,54.4831314 36.9877548,54.4831314 
				37.4091988,54.4831314 37.8491402,54.4831314 38.3014183,54.4831314 38.7660332,54.4831314 39.2388687,54.4831314 
				39.7137604,54.4831314 40.188652,54.4831314 40.6594315,54.4831314 41.1240463,54.4831314 41.5783806,54.4831314 
				42.018322,54.4831314 42.4397621,54.4831314 42.8406448,54.4831314 43.218914,54.4831314 43.5684013,54.4831314 
				43.8911667,54.4831314 44.178978,54.4831314 44.2673798,54.4831314 44.435955,54.4831314 44.6559258,54.4831314 
				44.8368378,54.4831314 44.9807434,54.4831314 45.0835342,54.4831314 45.1452103,54.4831314 45.1657677,54.4831314 			"/>
			<polyline class="st1" points="34.259697,50.2975006 34.2802544,50.2975006 34.3439865,50.2975006 34.4467773,50.2975006 
				34.5886269,50.2975006 34.771595,50.2975006 34.9915657,50.2975006 35.2464867,50.2975006 35.5363541,50.2975006 
				35.8570595,50.2975006 36.2086029,50.2975006 36.584816,50.2975006 36.9877548,50.2975006 37.4091988,50.2975006 
				37.8491402,50.2975006 38.3014183,50.2975006 38.7660332,50.2975006 39.2388687,50.2975006 39.7137604,50.2975006 
				40.188652,50.2975006 40.6594315,50.2975006 41.1240463,50.2975006 41.5783806,50.2975006 42.018322,50.2975006 
				42.4397621,50.2975006 42.8406448,50.2975006 43.218914,50.2975006 43.5684013,50.2975006 43.8911667,50.2975006 
				44.178978,50.2975006 44.435955,50.2975006 44.6559258,50.2975006 44.8368378,50.2975006 44.9807434,50.2975006 
				45.0835342,50.2975006 45.1452103,50.2975006 45.1657677,50.2975006 			"/>
			<polyline class="st1" points="62.0460205,139.2133179 62.0439644,139.2133179 61.8507195,139.2133179 61.4703941,139.2133179 
				60.9071007,139.2133179 60.1649551,139.2133179 59.246006,139.2133179 58.1543732,139.2133179 56.8941612,139.2133179 
				55.4694862,139.2133179 53.8824005,139.2133179 52.7373123,139.2133179 50.8891411,139.2133179 48.9340668,139.2133179 
				46.9296532,139.2133179 44.8882332,139.2133179 44.2673798,139.2133179 42.8221436,139.2133179 40.7457771,139.2133179 
				38.6735191,139.2133179 36.6177101,139.2133179 35.1580849,139.2133179 34.5947952,139.2133179 32.6129951,139.2133179 
				30.6908112,139.2133179 28.8405838,139.2133179 27.0746422,139.2133179 25.4073811,139.2133179 23.8511333,139.2133179 
				22.4223461,139.2133179 21.5465698,139.2133179 20.3562565,139.2133179 19.3509655,139.2133179 18.5553665,139.2133179 
				17.963295,139.2133179 17.572691,139.2133179 17.3815002,139.2133179 			"/>
			<polyline class="st1" points="62.0460205,131.6643982 62.0439644,131.6643982 61.8507195,131.6643982 61.4703941,131.6643982 
				60.9071007,131.6643982 60.1649551,131.6643982 59.246006,131.6643982 58.1543732,131.6643982 56.8941612,131.6643982 
				55.4694862,131.6643982 53.8824005,131.6643982 52.7373123,131.6643982 51.156395,131.6643982 50.8891411,131.6643982 
				48.9340668,131.6643982 46.9296532,131.6643982 44.8882332,131.6643982 42.8221436,131.6643982 40.7457771,131.6643982 
				38.6735191,131.6643982 36.6177101,131.6643982 34.5947952,131.6643982 32.6129951,131.6643982 30.6908112,131.6643982 
				28.8405838,131.6643982 28.2690678,131.6643982 27.0746422,131.6643982 25.4073811,131.6643982 23.8511333,131.6643982 
				22.4223461,131.6643982 21.5465698,131.6643982 20.3562565,131.6643982 19.3509655,131.6643982 18.5553665,131.6643982 
				17.963295,131.6643982 17.572691,131.6643982 17.3815002,131.6643982 			"/>
			<polyline class="st1" points="28.2690678,80.6412506 28.2690678,78.2503433 28.2690678,68.3351746 			"/>
			<polyline class="st1" points="59.8833084,95.445137 59.7640724,95.5335388 59.4371986,95.82341 59.1329384,96.1441116 
				58.8533478,96.4956589 58.6045952,96.8718719 58.3825684,97.2727509 58.1913757,97.6962509 58.0351372,98.13414 
				57.9097328,98.5884705 57.821331,99.0530853 57.7678795,99.5238647 57.7493782,100.0008087 57.7678795,100.4757004 
				57.821331,100.9464874 57.9097328,101.4110947 58.0351372,101.8654327 58.1913757,102.3053741 58.3825684,102.7268143 
				58.6045952,103.1277008 58.8533478,103.5059662 59.1329384,103.8554535 59.4371986,104.1761627 59.7640724,104.4660339 
				59.8833084,104.5544281 			"/>
		</g>
	</g>
</g>
</svg>
