<?xml version="1.0" encoding="utf-8"?>
<!-- Generator: Adobe Illustrator 21.0.0, SVG Export Plug-In . SVG Version: 6.00 Build 0)  -->
<svg version="1.1" id="Layer_1" xmlns="http://www.w3.org/2000/svg" xmlns:xlink="http://www.w3.org/1999/xlink" x="0px" y="0px"
	 viewBox="0 0 128.6998291 200" style="enable-background:new 0 0 128.6998291 200;" xml:space="preserve">
<style type="text/css">
	.st0{fill:#ECF0F1;}
	.st1{fill:none;stroke:#000000;stroke-linecap:round;stroke-linejoin:round;}
</style>
<g>
	<g>
		<g id="XMLID_47_">
			<g>
				<polygon class="st0" points="101.8828583,128.2154236 102.9808044,127.5904388 104.0111923,127.2019348 104.9402237,127.066803 
					105.7341232,127.2019348 106.3759995,127.5904388 106.8320694,128.2154236 107.1192245,129.076889 107.1867905,130.1241608 
					107.0854416,131.357254 106.7645035,132.7085724 106.2577591,134.1612396 105.5989914,135.6476898 104.7713089,137.13414 
					103.825386,138.5699158 102.7949982,139.9212494 101.6801605,141.1543274 100.5484314,142.2184906 99.4166946,143.0630646 
					98.3187485,143.7049408 97.2883682,144.0934448 96.3593369,144.2116852 95.5654297,144.0934448 94.9235535,143.7049408 
					94.450592,143.0630646 94.1803284,142.2184906 94.095871,141.1543274 94.2141113,139.9212494 94.5350494,138.5699158 
					95.0249023,137.13414 95.7005615,135.6476898 96.5113602,134.1612396 97.457283,132.7085724 98.5045547,131.357254 
					99.6025009,130.1241608 100.7511292,129.076889 				"/>
				<polygon class="st0" points="52.0528946,114.0434494 51.0900803,111.3576965 50.3299637,108.6043777 49.7894325,105.7666092 
					49.4684944,102.89505 49.41782,101.7802124 49.3502541,100.0065994 49.4684944,97.1012573 49.7894325,94.2297058 
					50.3299637,91.4088211 51.0900803,88.6386108 52.0528946,85.952858 53.201519,83.3853531 54.5528412,80.9529724 
					55.5494385,79.4665222 56.0899696,78.6388397 57.7791176,76.5105057 59.6371841,74.5510941 61.6303825,72.7943726 
					63.7418213,71.223465 64.9917984,70.4802322 65.9715042,69.8890305 68.2856369,68.7910843 70.6842346,67.9127274 
					73.1335068,67.2877426 75.6165543,66.8992386 78.1165009,66.7809982 81.1063004,66.7809982 78.6063538,66.8992386 
					76.1232986,67.2877426 73.6740341,67.9127274 71.2754364,68.7910843 68.9613037,69.8890305 66.7316208,71.223465 
					64.6201782,72.7943726 62.6269836,74.5510941 60.7689171,76.5105057 59.0797653,78.6388397 57.5426369,80.9529724 
					56.20821,83.3853531 55.0426941,85.952858 54.0798798,88.6386108 53.3197594,91.4088211 52.779232,94.2297058 
					52.4582939,97.1012573 52.3400536,100.0065994 52.4582939,102.89505 52.779232,105.7666092 53.3197594,108.6043777 
					54.0798798,111.3576965 55.0426941,114.0434494 56.20821,116.6109543 57.5426369,119.0602264 59.0797653,121.3574753 
					60.7689171,123.4858017 62.6269836,125.4452209 64.6201782,127.2188263 66.7316208,128.7728424 68.9613037,130.1072693 
					71.2754364,131.2221222 73.6740341,132.0835876 76.1232986,132.7085724 78.6063538,133.0970764 81.1063004,133.2153168 
					78.1165009,133.2153168 75.6165543,133.0970764 73.1335068,132.7085724 70.6842346,132.0835876 68.2856369,131.2221222 
					65.9715042,130.1072693 64.9917984,129.5160675 63.7418213,128.7728424 61.6303825,127.2188263 59.6371841,125.4452209 
					57.7791176,123.4858017 56.0899696,121.3574753 55.7521362,120.8507233 54.5528412,119.0602264 53.201519,116.6109543 				"/>
				<polygon class="st0" points="20.6684666,74.5510941 22.661665,72.7943726 24.7731037,71.223465 27.0027828,69.8890305 
					29.3169212,68.7910843 31.7155151,67.9127274 34.1647835,67.2877426 36.6478386,66.8992386 39.1646729,66.7809982 
					42.1544685,66.7809982 39.6376343,66.8992386 37.154583,67.2877426 34.7053146,67.9127274 32.3067169,68.7910843 
					29.9925804,69.8890305 27.7629013,71.223465 25.6514626,72.7943726 23.6582642,74.5510941 21.8001976,76.5105057 
					20.1110458,78.6388397 19.5705185,79.4665222 16.5807209,79.4665222 17.1212482,78.6388397 18.8104,76.5105057 				"/>
				<polygon class="st0" points="22.661665,127.2188263 20.6684666,125.4452209 18.8104,123.4858017 17.1212482,121.3574753 
					16.7834187,120.8507233 19.7732162,120.8507233 20.1110458,121.3574753 21.8001976,123.4858017 23.6582642,125.4452209 
					25.6514626,127.2188263 27.7629013,128.7728424 29.9925804,130.1072693 32.3067169,131.2221222 34.7053146,132.0835876 
					37.154583,132.7085724 39.6376343,133.0970764 41.9855537,133.2153168 39.1646729,133.2153168 36.6478386,133.0970764 
					34.1647835,132.7085724 31.7155151,132.0835876 29.3169212,131.2221222 27.0027828,130.1072693 24.7731037,128.7728424 				"/>
				<path class="st0" d="M9.0471058,79.7705688l0.8952494-0.2364807l0.9121418-0.0675659l0.8952503,0.0675659l0.8952503,0.2364807
					l0.8783588,0.388504l0.8614674,0.5574188l0.8445749,0.6756592l0.7939014,0.844574l0.7601185,0.962822l0.7094421,1.0979462
					l0.6756611,1.233078l0.6080952,1.317543l0.5574188,1.4357758l0.4729633,1.5202332l0.422287,1.6046982l0.3378315,1.6722565
					l0.2702637,1.7229385l0.2026978,1.7567139l0.1182404,1.7905045l0.033783,1.8073883l-0.033783,1.8073959l-0.1182404,1.7904968
					l-0.2026978,1.7567139l-0.2702637,1.7229385l-0.3378315,1.6722565l-0.422287,1.6046982l-0.4729633,1.5202332
					l-0.5574188,1.4357834l-0.6080952,1.3175354l-0.6756611,1.233078l-0.7094421,1.0979462l-0.7601185,0.962822l-0.7939014,0.844574
					l-0.8445749,0.6756592l-0.8614674,0.5574188l-0.8783588,0.388504l-0.8952503,0.2364807l-0.8952503,0.0675659
					l-0.9121418-0.0675659l-0.8952494-0.2364807l-0.8783588-0.388504l-0.8614674-0.5574188l-0.8276839-0.6756592
					l-0.8107929-0.844574l-0.760118-0.962822l-0.7094436-1.0979462l-0.6756604-1.233078l-0.6080945-1.3175354l-0.5405285-1.4357834
					l-0.4898537-1.5202332l-0.4222878-1.6046982l-0.3378303-1.6722565l-0.2702641-1.7229385l-0.2026982-1.7567139
					l-0.1182406-1.7904968L0.5,100.1586227l0.033783-1.8073883L0.6520236,96.56073l0.2026982-1.7567139l0.2702641-1.7229385
					l0.3378303-1.6722565l0.4222878-1.6046982l0.4898537-1.5202332l0.5405285-1.4357758l0.6080945-1.317543l0.6756604-1.233078
					l0.7094436-1.0979462l0.760118-0.962822l0.8107929-0.844574l0.8276839-0.6756592l0.8614674-0.5574188L9.0471058,79.7705688z
					 M15.3476391,100.0234909l-0.033783-0.6418762l-0.033783-0.7770081l-0.0168915-0.1520233l-0.0675659-0.6249924
					l-0.1013489-0.7601166l-0.033783-0.1520233l-0.1351318-0.5743103l-0.1520243-0.7094421l-0.0506744-0.1520233
					l-0.1689148-0.5067444l-0.2364817-0.6418762l-0.033783-0.1520233l-0.2195892-0.4391861l-0.2871561-0.5574188
					l-0.0675659-0.1182404l-0.2533722-0.3547211l-0.3209391-0.4560699l-0.0675659-0.1013489l-0.2871561-0.2702637
					l-0.3716135-0.3378296l-0.0506744-0.0506744l-0.3209381-0.1689148l-0.388505-0.2195892l-0.0675659-0.033783
					l-0.3378305-0.0506744l-0.388505-0.0675659l-0.0506744-0.0168915l-0.354722,0.0675659l-0.4053955,0.0675659h-0.033783
					L9.6552,91.2567978L9.266695,91.476387l-0.033783,0.0168915l-0.3378305,0.3040466l-0.3547211,0.3547211H8.523468
					l-0.3209381,0.4560699l-0.3209391,0.4560699l-0.2871556,0.5743103l-0.2871556,0.540535v0.033783L7.0707984,94.871582
					l-0.2026982,0.6080933l-0.0168915,0.0506744l-0.1689153,0.7432251L6.5302701,96.915451l-0.0168915,0.0844574
					l-0.1013494,0.7770081l-0.0844574,0.6756668l-0.0168915,0.1013489l-0.033783,0.810791l-0.033783,0.6587677l0.0168915,0.1351318
					l0.033783,0.7938995l0.033783,0.6587677l0.0168915,0.1351395l0.1013489,0.7770081l0.0844579,0.6080933l0.033783,0.1520233
					l0.1689153,0.7263336l0.1351318,0.5574188l0.033783,0.1351318l0.2364812,0.6587677l0.1689153,0.506752l0.0675659,0.1182404
					l0.2871556,0.5574188l0.2195897,0.4391785l0.0675664,0.1013489l0.3209386,0.4560699l0.2533722,0.3547211l0.0675669,0.0675659
					l0.3547211,0.3378296l0.2871561,0.2702637l0.0844574,0.033783l0.3716135,0.2026978l0.3209391,0.1689148l0.0675659,0.0168915
					l0.388504,0.0675659l0.3378305,0.0506744h0.0506744l0.388505-0.0675659l0.3378305-0.0675659l0.0506744-0.0168915
					l0.3716135-0.2026978l0.3547211-0.1858063l0.0168915-0.033783l0.354722-0.3209381l0.3378305-0.3209381l0.0168915-0.0168915
					l0.3040466-0.4391785l0.3209391-0.4560699l0.2871561-0.5405273l0.2702637-0.5574188l0.0168915-0.0168915l0.2026987-0.6081009
					l0.2195892-0.6418762l0.0168915-0.0506744l0.1520243-0.6418762l0.1689148-0.7094421l0.0168915-0.0844574l0.1013489-0.6587677
					l0.1013489-0.7601242V101.61129l0.033783-0.6756592l0.033783-0.7770081L15.3476391,100.0234909z"/>
			</g>
			<g>
				<polyline class="st1" points="10.854497,79.4665222 16.5807209,79.4665222 19.5705185,79.4665222 23.9116364,79.4665222 
					41.9010963,79.4665222 42.7456741,79.5340881 43.4382248,79.7705688 43.9787521,80.1590729 44.36726,80.7164917 
					44.4686089,81.0205383 44.7050896,81.3921509 44.9922447,82.2367249 45.1611595,83.1995468 45.211834,84.297493 
					45.1611595,85.2434158 45.1949425,85.530571 45.2793999,86.848114 45.2456169,88.2838898 45.1104851,89.8041229 
					45.0935936,89.9054718 45.144268,91.4088211 45.0935936,93.0810776 44.9753532,94.8040161 44.9584618,94.871582 
					45.0260277,96.56073 45.0091362,98.3512344 44.9246788,100.0065994 44.9246788,100.1586227 45.0260277,101.9660187 
					45.0429192,103.7565155 44.9922447,105.1247253 45.0429192,105.5132294 45.178051,107.2361679 45.211834,108.9084244 
					45.178051,110.0908356 45.2456169,110.5131226 45.3638573,112.0333557 45.3976402,113.4691391 45.3300743,114.7528915 
					45.3300743,114.7866745 45.4145317,116.0197525 45.3638573,117.1176987 45.178051,118.0805206 44.8908958,118.9250946 
					44.8571129,118.975769 44.6375237,119.6007538 44.2490158,120.1581726 43.7084885,120.5466766 43.0159378,120.7831573 
					42.1882515,120.8507233 24.1987915,120.8507233 19.7732162,120.8507233 16.7834187,120.8507233 10.854497,120.8507233 
					9.9423552,120.7831573 9.0471058,120.5466766 8.1687469,120.1581726 7.3072796,119.6007538 6.4795957,118.9250946 
					5.6688027,118.0805206 4.9086847,117.1176987 4.1992412,116.0197525 3.5235808,114.7866745 2.9154863,113.4691391 
					2.3749578,112.0333557 1.8851041,110.5131226 1.4628162,108.9084244 1.1249859,107.2361679 0.8547218,105.5132294 
					0.6520236,103.7565155 0.533783,101.9660187 0.5,100.1586227 0.533783,98.3512344 0.6520236,96.56073 0.8547218,94.8040161 
					1.1249859,93.0810776 1.4628162,91.4088211 1.8851041,89.8041229 2.3749578,88.2838898 2.9154863,86.848114 
					3.5235808,85.530571 4.1992412,84.297493 4.9086847,83.1995468 5.6688027,82.2367249 6.4795957,81.3921509 
					7.3072796,80.7164917 8.1687469,80.1590729 9.0471058,79.7705688 9.9423552,79.5340881 10.854497,79.4665222 
					11.7497473,79.5340881 12.6449976,79.7705688 13.5233564,80.1590729 14.3848238,80.7164917 15.2293987,81.3921509 
					16.0233002,82.2367249 16.7834187,83.1995468 17.4928608,84.297493 18.1685219,85.530571 18.7766171,86.848114 
					19.3340359,88.2838898 19.8069992,89.8041229 20.2292862,91.4088211 20.5671177,93.0810776 20.8373814,94.8040161 
					21.0400791,96.56073 21.1583195,98.3512344 21.1921024,100.1586227 21.1583195,101.9660187 21.0400791,103.7565155 
					20.8373814,105.5132294 20.5671177,107.2361679 20.2292862,108.9084244 19.8069992,110.5131226 19.3340359,112.0333557 
					18.7766171,113.4691391 18.1685219,114.7866745 17.4928608,116.0197525 16.7834187,117.1176987 16.0233002,118.0805206 
					15.2293987,118.9250946 14.3848238,119.6007538 13.5233564,120.1581726 12.6449976,120.5466766 11.7497473,120.7831573 
					10.854497,120.8507233 				"/>
				<polyline class="st1" points="103.6902466,79.4665222 110.4806366,79.4665222 111.3927765,79.5340881 112.2880325,79.7705688 
					113.1663895,80.1590729 114.0278549,80.7164917 114.8555374,81.3921509 115.6663361,82.2367249 116.4264526,83.1995468 
					117.1358948,84.297493 117.7946625,85.530571 118.4196472,86.848114 118.9601746,88.2838898 119.4500351,89.8041229 
					119.8723221,91.4088211 120.2101517,93.0810776 120.4804153,94.8040161 120.6831131,96.56073 120.8013535,98.3512344 
					120.8351364,100.1586227 120.8013535,101.9660187 120.6831131,103.7565155 120.4804153,105.5132294 120.2101517,107.2361679 
					119.8723221,108.9084244 119.4500351,110.5131226 118.9601746,112.0333557 118.4196472,113.4691391 117.7946625,114.7866745 
					117.1358948,116.0197525 116.4264526,117.1176987 115.6663361,118.0805206 114.8555374,118.9250946 114.0278549,119.6007538 
					113.1663895,120.1581726 112.2880325,120.5466766 111.3927765,120.7831573 110.4806366,120.8507233 103.4875488,120.8507233 
									"/>
				<polyline class="st1" points="90.9540482,68.7910843 93.2681885,69.8890305 95.4978638,71.223465 97.6093063,72.7943726 
					99.6025009,74.5510941 101.4605713,76.5105057 103.1497192,78.6388397 103.6902466,79.4665222 104.6868515,80.9529724 
					106.0212784,83.3853531 107.1867905,85.952858 108.1496124,88.6386108 108.909729,91.4088211 109.4502563,94.2297058 
					109.7711945,97.1012573 109.8894348,100.0065994 109.7711945,102.89505 109.4502563,105.7666092 108.909729,108.6043777 
					108.1496124,111.3576965 107.1867905,114.0434494 106.0212784,116.6109543 104.6868515,119.0602264 103.4875488,120.8507233 
					103.1497192,121.3574753 101.4605713,123.4858017 99.6025009,125.4452209 97.6093063,127.2188263 95.4978638,128.7728424 
					93.2681885,130.1072693 90.9540482,131.2221222 88.5554581,132.0835876 86.1061859,132.7085724 83.6231308,133.0970764 
					81.1063004,133.2153168 78.1165009,133.2153168 75.6165543,133.0970764 73.1335068,132.7085724 70.6842346,132.0835876 
					68.2856369,131.2221222 65.9715042,130.1072693 64.9917984,129.5160675 63.7418213,128.7728424 61.6303825,127.2188263 
					59.6371841,125.4452209 57.7791176,123.4858017 56.0899696,121.3574753 55.7521362,120.8507233 54.5528412,119.0602264 
					53.201519,116.6109543 52.0528946,114.0434494 51.0900803,111.3576965 50.3299637,108.6043777 49.7894325,105.7666092 
					49.4684944,102.89505 49.41782,101.7802124 49.3502541,100.0065994 49.4684944,97.1012573 49.7894325,94.2297058 
					50.3299637,91.4088211 51.0900803,88.6386108 52.0528946,85.952858 53.201519,83.3853531 54.5528412,80.9529724 
					55.5494385,79.4665222 56.0899696,78.6388397 57.7791176,76.5105057 59.6371841,74.5510941 61.6303825,72.7943726 
					63.7418213,71.223465 64.9917984,70.4802322 65.9715042,69.8890305 68.2856369,68.7910843 70.6842346,67.9127274 
					73.1335068,67.2877426 75.6165543,66.8992386 78.1165009,66.7809982 81.1063004,66.7809982 83.6231308,66.8992386 
					86.1061859,67.2877426 88.5554581,67.9127274 90.9540482,68.7910843 				"/>
				<polyline class="st1" points="81.1063004,133.2153168 78.6063538,133.0970764 76.1232986,132.7085724 73.6740341,132.0835876 
					71.2754364,131.2221222 68.9613037,130.1072693 66.7316208,128.7728424 64.6201782,127.2188263 62.6269836,125.4452209 
					60.7689171,123.4858017 59.0797653,121.3574753 57.5426369,119.0602264 56.20821,116.6109543 55.0426941,114.0434494 
					54.0798798,111.3576965 53.3197594,108.6043777 52.779232,105.7666092 52.4582939,102.89505 52.3400536,100.0065994 
					52.4582939,97.1012573 52.779232,94.2297058 53.3197594,91.4088211 54.0798798,88.6386108 55.0426941,85.952858 
					56.20821,83.3853531 57.5426369,80.9529724 59.0797653,78.6388397 60.7689171,76.5105057 62.6269836,74.5510941 
					64.6201782,72.7943726 66.7316208,71.223465 68.9613037,69.8890305 71.2754364,68.7910843 73.6740341,67.9127274 
					76.1232986,67.2877426 78.6063538,66.8992386 81.1063004,66.7809982 				"/>
				<polyline class="st1" points="41.9855537,133.2153168 39.6376343,133.0970764 37.154583,132.7085724 34.7053146,132.0835876 
					32.3067169,131.2221222 29.9925804,130.1072693 27.7629013,128.7728424 25.6514626,127.2188263 23.6582642,125.4452209 
					21.8001976,123.4858017 20.1110458,121.3574753 19.7732162,120.8507233 				"/>
				<polyline class="st1" points="55.2791748,129.5160675 54.299469,130.1072693 51.9853287,131.2221222 49.5867348,132.0835876 
					47.1374664,132.7085724 44.6544151,133.0970764 42.1544685,133.2153168 41.9855537,133.2153168 39.1646729,133.2153168 
					36.6478386,133.0970764 34.1647835,132.7085724 31.7155151,132.0835876 29.3169212,131.2221222 27.0027828,130.1072693 
					24.7731037,128.7728424 22.661665,127.2188263 20.6684666,125.4452209 18.8104,123.4858017 17.1212482,121.3574753 
					16.7834187,120.8507233 				"/>
				<polyline class="st1" points="16.5807209,79.4665222 17.1212482,78.6388397 18.8104,76.5105057 20.6684666,74.5510941 
					22.661665,72.7943726 24.7731037,71.223465 27.0027828,69.8890305 29.3169212,68.7910843 31.7155151,67.9127274 
					34.1647835,67.2877426 36.6478386,66.8992386 39.1646729,66.7809982 42.1544685,66.7809982 44.6544151,66.8992386 
					47.1374664,67.2877426 49.5867348,67.9127274 51.9853287,68.7910843 54.299469,69.8890305 55.2791748,70.4802322 				"/>
				<polyline class="st1" points="19.5705185,79.4665222 20.1110458,78.6388397 21.8001976,76.5105057 23.6582642,74.5510941 
					25.6514626,72.7943726 27.7629013,71.223465 29.9925804,69.8890305 32.3067169,68.7910843 34.7053146,67.9127274 
					37.154583,67.2877426 39.6376343,66.8992386 42.1544685,66.7809982 				"/>
				<polygon class="st1" points="15.3476391,100.0234909 15.3138561,99.3816147 15.2800732,98.6046066 15.2631817,98.4525833 
					15.1956158,97.8275909 15.0942669,97.0674744 15.0604839,96.915451 14.9253521,96.3411407 14.7733278,95.6316986 
					14.7226534,95.4796753 14.5537386,94.9729309 14.3172569,94.3310547 14.283474,94.1790314 14.0638847,93.7398453 
					13.7767286,93.1824265 13.7091627,93.0641861 13.4557905,92.709465 13.1348515,92.2533951 13.0672855,92.1520462 
					12.7801294,91.8817825 12.4085159,91.5439529 12.3578415,91.4932785 12.0369034,91.3243637 11.6483984,91.1047745 
					11.5808325,91.0709915 11.2430019,91.0203171 10.854497,90.9527512 10.8038225,90.9358597 10.4491005,91.0034256 
					10.043705,91.0709915 10.009922,91.0709915 9.6552,91.2567978 9.266695,91.476387 9.2329121,91.4932785 8.8950815,91.7973251 
					8.5403605,92.1520462 8.523468,92.1520462 8.2025299,92.6081161 7.8815908,93.0641861 7.5944352,93.6384964 
					7.3072796,94.1790314 7.3072796,94.2128143 7.0707984,94.871582 6.8681002,95.4796753 6.8512087,95.5303497 
					6.6822934,96.2735748 6.5302701,96.915451 6.5133786,96.9999084 6.4120293,97.7769165 6.3275719,98.4525833 
					6.3106804,98.5539322 6.2768974,99.3647232 6.2431145,100.0234909 6.260006,100.1586227 6.2937889,100.9525223 
					6.3275719,101.61129 6.3444633,101.7464294 6.4458122,102.5234375 6.5302701,103.1315308 6.5640531,103.2835541 
					6.7329683,104.0098877 6.8681002,104.5673065 6.9018831,104.7024384 7.1383643,105.3612061 7.3072796,105.8679581 
					7.3748455,105.9861984 7.6620011,106.5436172 7.8815908,106.9827957 7.9491572,107.0841446 8.2700958,107.5402145 
					8.523468,107.8949356 8.5910349,107.9625015 8.945756,108.3003311 9.2329121,108.5705948 9.3173695,108.6043777 
					9.688983,108.8070755 10.009922,108.9759903 10.0774879,108.9928818 10.465992,109.0604477 10.8038225,109.1111221 
					10.854497,109.1111221 11.2430019,109.0435562 11.5808325,108.9759903 11.6315069,108.9590988 12.0031204,108.7564011 
					12.3578415,108.5705948 12.374733,108.5368118 12.729455,108.2158737 13.0672855,107.8949356 13.084177,107.8780441 
					13.3882236,107.4388657 13.7091627,106.9827957 13.9963188,106.4422684 14.2665825,105.8848495 14.283474,105.8679581 
					14.4861727,105.2598572 14.7057619,104.617981 14.7226534,104.5673065 14.8746777,103.9254303 15.0435925,103.2159882 
					15.0604839,103.1315308 15.1618328,102.4727631 15.2631817,101.7126389 15.2631817,101.61129 15.2969646,100.9356308 
					15.3307476,100.1586227 				"/>
				<polyline class="st1" points="23.9116364,79.4665222 24.1481171,79.21315 25.7190285,77.3888626 27.5433121,75.9024124 
					29.3675957,74.4328461 31.3776855,73.3517914 33.4046669,72.2538452 35.5498886,71.5950775 37.7120018,70.9363098 
					39.9247894,70.6998291 42.1544685,70.4802322 55.2791748,70.4802322 64.9917984,70.4802322 				"/>
				<polyline class="st1" points="64.9917984,129.5160675 55.2791748,129.5160675 42.1544685,129.5160675 39.9247894,129.2964783 
					37.7120018,129.076889 35.5498886,128.4012299 33.4046669,127.7424622 31.3776855,126.644516 29.3675957,125.5634613 
					27.5433121,124.093895 25.7190285,122.6074448 24.1987915,120.8507233 				"/>
				<line class="st1" x1="128.1998291" y1="143.4515686" x2="122.0513229" y2="155.7485962"/>
				<polyline class="st1" points="122.0513229,155.7485962 111.409668,148.6541595 104.315239,148.6541595 				"/>
				<polyline class="st1" points="122.0513229,155.7485962 114.9568863,155.7485962 104.315239,148.6541595 				"/>
				<polyline class="st1" points="109.2475586,134.634201 109.4164734,134.8031158 109.5347137,135.0058136 
					109.6191711,135.2254028 109.6867371,135.4956665 109.72052,135.7828217 109.7374115,136.0868683 109.72052,136.4246979 
					109.6698456,136.7794189 109.5853882,137.167923 109.4840393,137.556427 109.365799,137.9618225 109.2137756,138.3841095 
					109.0279694,138.8064117 108.8252716,139.2286987 108.6056824,139.6509857 108.3692017,140.0732727 108.098938,140.4786682 
					107.8286743,140.8840637 107.5415115,141.2725677 107.2374649,141.6610718 106.9165268,142.0157928 106.6124802,142.3536224 
					106.2746506,142.6576691 105.9537125,142.9448242 105.6327744,143.2150879 105.3118362,143.4346771 104.9908981,143.6373749 
					104.6868515,143.8062897 104.3996964,143.92453 104.1125412,144.0258789 103.8422775,144.0765533 103.5888977,144.0934448 
					103.352417,144.0765533 103.1328278,144.0258789 103.0652618,143.9920959 				"/>
				<polyline class="st1" points="111.8488541,136.357132 117.5581818,136.357132 128.1998291,143.4515686 				"/>
				<line class="st1" x1="104.315239" y1="148.6541595" x2="105.7341232" y2="145.7994843"/>
				<polyline class="st1" points="94.9235535,143.7049408 95.4809723,144.0765533 96.224205,144.5664062 96.8660812,144.9549103 
					97.6599808,145.0731506 98.5890121,144.9549103 99.6025009,144.5664062 100.7004547,143.92453 101.8490753,143.0799561 
					102.3051453,142.6407776 102.9808044,142.0157928 103.3017426,141.6779633 104.0956497,140.7996063 104.1125412,140.7658234 
					105.12603,139.4313965 106.0719528,137.9956055 106.713829,136.8300934 106.713829,136.8132019 106.8996353,136.5091553 
					107.2205734,135.7659302 107.558403,135.0227051 107.7442169,134.4821777 107.7611084,134.4652863 108.065155,133.5700378 
					108.3692017,132.2187195 108.487442,131.002533 108.4029846,129.9383545 108.1327209,129.076889 107.6597595,128.4519043 
					106.6969376,127.8100281 106.3759995,127.5904388 105.7341232,127.2019348 104.9402237,127.066803 104.0111923,127.2019348 
					102.9808044,127.5904388 101.8828583,128.2154236 100.7511292,129.076889 99.6025009,130.1241608 98.5045547,131.357254 
					97.457283,132.7085724 96.5113602,134.1612396 95.7005615,135.6476898 95.0249023,137.13414 94.5350494,138.5699158 
					94.2141113,139.9212494 94.095871,141.1543274 94.1803284,142.2184906 94.450592,143.0630646 94.9235535,143.7049408 
					95.5654297,144.0934448 96.3593369,144.2116852 97.2883682,144.0934448 98.3187485,143.7049408 99.4166946,143.0630646 
					100.5484314,142.2184906 101.6801605,141.1543274 102.7949982,139.9212494 103.825386,138.5699158 104.7713089,137.13414 
					105.5989914,135.6476898 106.2577591,134.1612396 106.7645035,132.7085724 107.0854416,131.357254 107.1867905,130.1241608 
					107.1192245,129.076889 106.8320694,128.2154236 106.3759995,127.5904388 				"/>
				<polyline class="st1" points="107.2205734,135.7659302 107.9638062,136.2557831 108.065155,136.3402405 
					108.1665039,136.4415894 108.2340698,136.5598297 108.2847443,136.711853 108.3354187,136.8638763 108.3523102,137.0496826 
					108.3692017,137.2523804 108.3523102,137.4550781 108.3185272,137.6915588 108.2678528,137.9280396 108.2171783,138.1645203 
					108.1327209,138.4347839 108.0313721,138.6881561 107.9131317,138.9584351 107.7948914,139.2286987 107.642868,139.4820709 
					107.4908371,139.7523346 107.3388138,140.0225983 107.1530075,140.2759705 106.9840927,140.5293427 106.781395,140.7658234 
					106.5955887,140.9854126 106.3928909,141.2050018 106.1901932,141.3908081 105.9874954,141.5766144 105.7679062,141.7455292 
					105.5652084,141.880661 105.3794022,142.0157928 105.1767044,142.1171417 104.9908981,142.1847076 104.8050919,142.2522736 
					104.6361771,142.2860565 104.4841537,142.302948 104.3321304,142.2860565 104.1969986,142.2522736 104.0787582,142.1847076 
					103.3017426,141.6779633 				"/>
				<polyline class="st1" points="107.7442169,134.4821777 107.9300232,134.4315033 108.2002869,134.3639374 
					108.4536591,134.3470459 108.6901398,134.3639374 108.909729,134.4315033 109.0955353,134.5159607 109.2475586,134.634201 
					109.4164734,134.7355499 109.7036285,134.9213562 111.8488541,136.357132 114.0109634,137.7929077 114.1798782,137.9280396 
					114.3319016,138.0800629 114.4501419,138.2827606 114.5345993,138.5023499 114.6021652,138.7726288 114.6359482,139.0597839 
					114.6528397,139.3638306 114.6359482,139.7016602 114.5852737,140.0563812 114.5008163,140.4448853 114.3994675,140.8333893 
					114.2812271,141.2387848 114.1292038,141.6610718 113.9433975,142.0664673 113.7406998,142.5056458 113.5211105,142.9279327 
					113.2846298,143.3502197 113.0143661,143.7556152 112.7441025,144.1610107 112.4569473,144.5495148 112.1529007,144.9380188 
					111.8319626,145.2927399 111.5279083,145.6305695 111.1900787,145.9346161 110.8691406,146.2217712 110.5482025,146.4920349 
					110.2272644,146.7116394 109.9063263,146.9143372 109.6022797,147.083252 109.3151245,147.2014923 109.0279694,147.3028412 
					108.7577057,147.3535156 108.5043335,147.3704071 108.2678528,147.3535156 108.0482635,147.3028412 107.8455658,147.2014923 
					105.7341232,145.7994843 103.2172852,144.1103363 103.0652618,143.9920959 103.0483704,143.9920959 102.93013,143.92453 
					102.7612152,143.8062897 102.6260834,143.6373749 102.507843,143.4346771 102.4064941,143.2150879 102.3389282,142.9448242 
					102.3051453,142.6576691 102.3051453,142.6407776 				"/>
				<polyline class="st1" points="104.1125412,140.7658234 104.2138901,140.6982574 104.4165878,140.5293427 
					104.6192856,140.3435364 104.8219833,140.1577301 105.0246811,139.9381409 105.2104874,139.7185516 105.4131851,139.4820709 
					105.5989914,139.2286987 105.7679062,138.9753265 105.936821,138.7050476 106.0888443,138.4516754 106.2239761,138.1814117 
					106.359108,137.9111481 106.4604568,137.6408844 106.5618057,137.3875122 106.6462631,137.13414 106.713829,136.8807678 
					106.713829,136.8300934 				"/>
				<polyline class="st1" points="117.5581818,136.357132 116.1392975,139.1780243 113.4197617,144.6170807 
					112.8285599,145.8163757 111.409668,148.6541595 				"/>
			</g>
		</g>
	</g>
</g>
</svg>
