<?xml version="1.0" encoding="utf-8"?>
<!-- Generator: Adobe Illustrator 21.0.0, SVG Export Plug-In . SVG Version: 6.00 Build 0)  -->
<svg version="1.1" id="Layer_1" xmlns="http://www.w3.org/2000/svg" xmlns:xlink="http://www.w3.org/1999/xlink" x="0px" y="0px"
	 viewBox="0 0 94.7034836 200" style="enable-background:new 0 0 94.7034836 200;" xml:space="preserve">
<style type="text/css">
	.st0{fill:#797979;}
	.st1{fill:none;stroke:#FFFFFF;stroke-width:1.5;stroke-linecap:round;stroke-linejoin:round;}
	.st2{fill:none;stroke:#FFFFFF;stroke-width:1.25;stroke-linecap:round;stroke-linejoin:round;}
	.st3{fill:none;stroke:#FFFFFF;stroke-width:1.25;stroke-linecap:round;stroke-linejoin:round;stroke-miterlimit:10;}
</style>
<g>
	<rect x="0.7546566" y="74.9576263" class="st0" width="22.8957577" height="23.5368042"/>
	<rect x="0.7546566" y="101.5049744" class="st0" width="22.8957577" height="23.5368042"/>
	<polygon class="st0" points="71.0623779,79.2502594 71.0623779,81.6069641 85.6187057,81.6069641 85.6187057,118.3923264 
		71.0623779,118.3923264 71.0623779,120.7491455 91.0000916,120.7491455 91.0000916,79.2502594 	"/>
	<g id="XMLID_1_">
		<g>
			<polygon class="st0" points="85.6170273,118.3901749 85.6170273,81.6031494 85.6170273,79.2524643 91.1302338,79.2524643 
				91.1302338,120.7529755 83.8237228,120.7529755 83.8237228,118.3901749 			"/>
			<polygon class="st0" points="83.8237228,81.6031494 83.8237228,118.3901749 80.2492294,118.3901749 80.2492294,104.5162811 
				78.4559174,104.5162811 74.8329544,104.5162811 74.8329544,100.7357941 73.5606766,99.996666 74.8329544,99.2575302 
				74.8329544,95.4891663 78.4559174,95.4891663 80.2492294,95.4891663 80.2492294,81.6031494 			"/>
			<polygon class="st0" points="36.6403694,110.4899292 36.6403694,112.5376968 28.570488,112.5255737 28.570488,110.4899292 			"/>
			<polygon class="st0" points="74.8329544,81.6031494 78.4559174,81.6031494 78.4559174,95.4891663 74.8329544,95.4891663 
				74.8329544,81.9545441 			"/>
			<polygon class="st0" points="78.4559174,104.5162811 78.4559174,118.3901749 74.8329544,118.3901749 74.8329544,118.0387802 
				74.8329544,104.5162811 			"/>
			<polygon class="st0" points="73.03965,99.996666 73.03965,118.3901749 71.0645905,118.3901749 55.7608948,118.3901749 
				55.7608948,112.5619278 66.6540222,112.5619278 66.6540222,110.4899292 55.7608948,110.4899292 55.7608948,89.5155106 
				66.6540222,89.5155106 66.6540222,87.4435196 55.7608948,87.4435196 55.7608948,81.6031494 71.0645905,81.6031494 
				73.03965,81.6031494 			"/>
			<rect x="28.570488" y="87.4435196" class="st0" width="8.0698805" height="2.0719962"/>
		</g>
		<g>
			<polyline class="st1" points="93.9534836,125.0423737 23.6510124,125.0423737 0.75,125.0423737 			"/>
			<line class="st1" x1="93.9534836" y1="74.9630737" x2="93.9534836" y2="125.0423737"/>
			<line class="st2" x1="91.1302338" y1="79.2524643" x2="91.1302338" y2="120.7529755"/>
			<line class="st2" x1="83.8237228" y1="81.6031494" x2="83.8237228" y2="118.3901749"/>
			<line class="st2" x1="85.6170273" y1="81.6031494" x2="85.6170273" y2="118.3901749"/>
			<polyline class="st2" points="73.03965,81.6031494 73.03965,99.996666 73.03965,118.3901749 			"/>
			<line class="st2" x1="23.6510124" y1="101.4991608" x2="26.2561531" y2="99.996666"/>
			<polyline class="st2" points="0.75,101.4991608 3.3672585,99.996666 26.2561531,99.996666 			"/>
			<line class="st2" x1="0.75" y1="98.4941635" x2="23.6510124" y2="98.4941635"/>
			<line class="st2" x1="23.6510124" y1="101.4991608" x2="0.75" y2="101.4991608"/>
			<polyline class="st1" points="0.75,74.9630737 23.6510124,74.9630737 93.9534836,74.9630737 			"/>
			<line class="st2" x1="55.7608948" y1="89.5155106" x2="55.7608948" y2="110.4899292"/>
			<polyline class="st2" points="74.8329544,81.6031494 74.8329544,81.9545441 74.8329544,95.4891663 74.8329544,99.2575302 
				73.5606766,99.996666 			"/>
			<line class="st2" x1="78.4559174" y1="81.6031494" x2="78.4559174" y2="95.4891663"/>
			<line class="st2" x1="78.4559174" y1="104.5162811" x2="78.4559174" y2="118.3901749"/>
			<line class="st2" x1="80.2492294" y1="81.6031494" x2="80.2492294" y2="95.4891663"/>
			<line class="st2" x1="80.2492294" y1="104.5162811" x2="80.2492294" y2="118.3901749"/>
			<polyline class="st2" points="74.8329544,81.6031494 78.4559174,81.6031494 80.2492294,81.6031494 83.8237228,81.6031494 
				85.6170273,81.6031494 			"/>
			<polyline class="st2" points="28.570488,89.5155106 28.570488,87.4435196 36.6403694,87.4435196 55.7608948,87.4435196 
				66.6540222,87.4435196 66.6540222,89.5155106 55.7608948,89.5155106 36.6403694,89.5155106 28.570488,89.5155106 			"/>
			<polyline class="st2" points="74.8329544,95.4891663 78.4559174,95.4891663 80.2492294,95.4891663 			"/>
			<line class="st2" x1="26.2561531" y1="99.996666" x2="23.6510124" y2="98.4941635"/>
			<line class="st2" x1="3.3672585" y1="99.996666" x2="0.75" y2="98.4941635"/>
			<polyline class="st2" points="74.8329544,118.3901749 73.03965,118.3901749 71.0645905,118.3901749 55.7608948,118.3901749 
				55.7608948,112.5619278 			"/>
			<polyline class="st2" points="80.2492294,104.5162811 78.4559174,104.5162811 74.8329544,104.5162811 			"/>
			<polyline class="st2" points="85.6170273,118.3901749 83.8237228,118.3901749 80.2492294,118.3901749 78.4559174,118.3901749 
				74.8329544,118.3901749 			"/>
			<polyline class="st2" points="73.5606766,99.996666 74.8329544,100.7357941 74.8329544,104.5162811 74.8329544,118.0387802 
				74.8329544,118.3901749 			"/>
			<polyline class="st2" points="26.4742584,79.2524643 71.0645905,79.2524643 85.6170273,79.2524643 91.1302338,79.2524643 			"/>
			<polyline class="st2" points="91.1302338,120.7529755 83.8237228,120.7529755 71.0645905,120.7529755 26.4742584,120.7529755 			
				"/>
			<polygon class="st2" points="28.570488,112.5255737 28.570488,110.4899292 36.6403694,110.4899292 55.7608948,110.4899292 
				66.6540222,110.4899292 66.6540222,112.5619278 55.7608948,112.5619278 36.6403694,112.5376968 			"/>
			<polyline class="st2" points="74.8329544,81.6031494 73.03965,81.6031494 71.0645905,81.6031494 55.7608948,81.6031494 
				55.7608948,87.4435196 			"/>
			<polyline class="st2" points="26.4742584,120.7529755 26.4742584,112.5619278 26.4742584,112.5255737 26.4742584,110.4899292 
				26.4742584,89.5155106 26.4742584,87.4435196 26.4742584,79.2524643 			"/>
			<line class="st2" x1="36.6403694" y1="87.4435196" x2="36.6403694" y2="89.5155106"/>
			<polyline class="st2" points="36.6403694,110.4899292 36.6403694,112.5376968 36.6403694,112.5619278 			"/>
		</g>
	</g>
	<polyline class="st3" points="71.0623779,81.6069641 71.0623779,79.2502594 71.0623779,79.2502594 	"/>
	<line class="st3" x1="71.0623779" y1="118.6070251" x2="71.0623779" y2="120.9638443"/>
	<line class="st1" x1="0.7546566" y1="74.9576263" x2="0.7546566" y2="98.4944305"/>
	<line class="st1" x1="0.7546566" y1="101.5049744" x2="0.7546566" y2="125.0417786"/>
	<line class="st1" x1="23.6504154" y1="98.4944305" x2="23.6504154" y2="74.9576263"/>
	<line class="st1" x1="23.6504154" y1="125.0417786" x2="23.6504154" y2="101.5049744"/>
</g>
</svg>
