<?xml version="1.0" encoding="utf-8"?>
<!-- Generator: Adobe Illustrator 21.0.0, SVG Export Plug-In . SVG Version: 6.00 Build 0)  -->
<svg version="1.1" id="Layer_1" xmlns="http://www.w3.org/2000/svg" xmlns:xlink="http://www.w3.org/1999/xlink" x="0px" y="0px"
	 viewBox="0 0 96.6730728 200" style="enable-background:new 0 0 96.6730728 200;" xml:space="preserve">
<style type="text/css">
	.st0{fill:#797979;}
	.st1{fill:none;stroke:#FFFFFF;stroke-width:1.5;stroke-linecap:round;stroke-linejoin:round;}
	.st2{fill:none;stroke:#FFFFFF;stroke-width:2;stroke-linecap:round;stroke-linejoin:round;}
</style>
<g>
	<g id="XMLID_1_">
		<g>
			<polygon class="st0" points="14.9399996,125.9899979 13.8699999,123.1999969 12.9200001,120.2200012 12.6599998,119.2399979 
				12.3599997,118.0500031 12.7200003,117.6399994 13.8000002,116.5999985 14.9700003,115.5899963 16.2000008,114.6800003 
				17.5200005,113.7900009 18.4799995,113.2200012 18.5,113.2200012 18.6100006,113.6399994 19.2600002,115.6500015 
				19.9799995,117.5400009 20.3700008,118.3799973 19.5400009,119.3099976 19.5200005,119.3300018 18.4099998,120.7799988 
				17.3999996,122.3199997 16.5100002,123.9400024 15.75,125.6299973 15.3199997,126.8199997 			"/>
			<polygon class="st0" points="14.4099998,106.0299988 15.9300003,105.6600037 17.0699997,105.4300003 17.2600002,107.0500031 
				17.6000004,109.3199997 17.8199997,110.3600006 17.5900002,110.4800034 16.0499992,111.3700027 14.5799999,112.3499985 
				13.1999998,113.3700027 13.1700001,113.4000015 11.8800001,114.5100021 11.6199999,114.7600021 11.4200001,113.8199997 
				10.8900003,110.4400024 10.54,107.1999969 11.5699997,106.8399963 11.5799999,106.8399963 12.9399996,106.4300003 			"/>
			<polygon class="st0" points="10.71,104.1399994 10.6599998,104.1600037 10.3299999,104.2799988 10.2799997,103.5 
				10.2799997,103.1200027 10.21,100.2699966 10.21,99.9800034 10.2799997,96.4499969 10.5100002,92.9499969 10.8900003,89.4899979 
				11.4200001,86.1299973 12.1000004,82.8600006 12.9200001,79.7300034 13.8699999,76.75 14.9399996,73.9400024 
				16.1299992,71.3499985 17.4400005,68.9599991 18.8400002,66.8099976 20.3299999,64.9100037 21.8899994,63.2799988 
				23.5200005,61.9399986 25.2099991,60.8600006 26.9300003,60.0999985 28.6800003,59.6399994 30.4500008,59.4900017 
				32.2099991,59.6399994 33.9599991,60.0999985 35.6800003,60.8600006 37.3699989,61.9399986 39,63.2799988 40.5800018,64.9100037 
				42.0600014,66.8099976 43.4500008,68.9599991 44.7599983,71.3499985 45.9500008,73.9400024 47.0299988,76.75 
				47.9900017,79.7300034 48.7999992,82.8600006 49.4700012,86.1299973 50,89.4899979 50.3800011,92.9499969 50.6100006,96.4499969 
				50.7000008,99.9800034 50.6100006,103.5 50.3800011,107 50,110.4400024 49.4700012,113.8199997 48.7999992,117.0800018 
				47.9900017,120.2200012 47.0299988,123.1999969 45.9500008,125.9899979 44.7599983,128.6000061 43.4500008,130.9900055 
				42.0600014,133.1399994 40.5800018,135.0399933 39,136.6799927 37.3699989,138.0099945 35.6800003,139.0700073 
				33.9599991,139.8500061 32.2099991,140.3099976 30.4500008,140.4600067 28.6800003,140.3099976 27.4899998,140 
				27.4400005,139.9799957 26.9300003,139.8500061 25.2099991,139.0700073 23.5200005,138.0099945 22.7800007,137.3999939 
				22.7099991,137.3500061 21.8899994,136.6799927 20.3299999,135.0399933 18.8400002,133.1399994 17.4400005,130.9900055 
				17.2399998,130.6399994 17.3999996,129.7599945 17.8199997,128.2200012 18.3600006,126.6900024 19.0400009,125.2099991 
				19.8400002,123.7699966 20.7299995,122.4199982 21.7000008,121.1299973 21.7700005,121.0599976 22.6100006,122.3499985 
				23.6200008,123.6399994 24.6700001,124.7300034 25.7700005,125.6600037 26.9099998,126.3700027 28.0699997,126.8799973 
				29.2600002,127.1999969 30.4500008,127.3000031 31.6399994,127.1999969 32.8199997,126.8799973 33.9799995,126.3700027 
				35.1199989,125.6600037 36.2299995,124.7300034 37.2799988,123.6399994 38.2799988,122.3499985 39.2000008,120.9300003 
				39.2200012,120.9300003 39.2400017,120.9100037 40.1100006,119.2900009 40.9099998,117.5400009 41.5999985,115.7699966 
				41.6199989,115.6999969 41.6300011,115.6500015 41.7799988,115.2099991 41.7799988,115.1900024 42.2799988,113.6399994 
				42.5900002,112.4499969 42.8300018,111.5199966 43.2900009,109.3199997 43.3899994,108.6900024 43.6500015,107.0500031 
				43.9000015,104.7200012 44.0699997,102.3600006 44.1199989,99.9800034 44.0699997,97.5899963 43.9000015,95.2300034 
				43.6500015,92.9000015 43.2900009,90.6299973 42.8300018,88.4300003 42.2799988,86.3099976 41.6300011,84.3000031 
				40.9099998,82.4100037 40.1100006,80.6600037 39.2400017,79.0400009 39.2200012,79.0199966 39.2000008,79 38.2799988,77.5800018 
				37.2799988,76.3099976 36.2299995,75.1999969 35.1199989,74.2900009 33.9799995,73.5800018 32.8199997,73.0699997 
				31.6399994,72.75 30.4500008,72.6500015 29.2600002,72.75 28.0699997,73.0699997 26.9099998,73.5800018 25.7700005,74.2900009 
				24.6700001,75.1999969 23.6200008,76.3099976 22.6100006,77.5800018 21.6700001,79.0400009 20.7800007,80.6600037 
				19.9799995,82.4100037 19.2600002,84.3000031 18.6100006,86.3099976 18.0699997,88.4300003 17.6000004,90.6299973 
				17.2600002,92.9000015 16.9899998,95.2300034 16.8400002,97.5899963 16.7800007,99.9800034 16.8400002,102.3600006 
				16.8400002,102.5699997 15.3000002,102.9000015 13.7200003,103.2799988 12.1800003,103.6999969 			"/>
		</g>
		<g>
			<polyline class="st1" points="30.4500008,59.4900017 32.2099991,59.6399994 33.9599991,60.0999985 35.6800003,60.8600006 
				37.3699989,61.9399986 39,63.2799988 40.5800018,64.9100037 42.0600014,66.8099976 43.4500008,68.9599991 44.7599983,71.3499985 
				45.9500008,73.9400024 47.0299988,76.75 47.9900017,79.7300034 48.7999992,82.8600006 49.4700012,86.1299973 50,89.4899979 
				50.3800011,92.9499969 50.6100006,96.4499969 50.7000008,99.9800034 50.6100006,103.5 50.3800011,107 50,110.4400024 
				49.4700012,113.8199997 48.7999992,117.0800018 47.9900017,120.2200012 47.0299988,123.1999969 45.9500008,125.9899979 
				44.7599983,128.6000061 43.4500008,130.9900055 42.0600014,133.1399994 40.5800018,135.0399933 39,136.6799927 
				37.3699989,138.0099945 35.6800003,139.0700073 33.9599991,139.8500061 32.2099991,140.3099976 30.4500008,140.4600067 			"/>
			<polyline class="st1" points="10.5600004,115.8399963 9.4200001,115.4700012 8.29,115.0400009 7.3299999,114.6100006 
				6.4899998,114.1500015 5.7800002,113.6900024 5.23,113.2200012 4.8400002,112.7799988 4.5700002,112.3600006 
				4.4400001,112.0199966 4.3899999,111.6999969 4.4099998,111.4199982 4.5,111.0899963 4.7399998,110.6900024 
				5.0999999,110.2600021 5.6100001,109.7799988 6.29,109.2699966 7.0700002,108.7699966 8.0600004,108.2399979 
				9.0900002,107.7799988 10.29,107.2900009 10.54,107.1999969 11.5699997,106.8399963 11.5799999,106.8399963 
				12.9399996,106.4300003 14.4099998,106.0299988 15.9300003,105.6600037 17.0699997,105.4300003 17.5200005,105.3300018 
				19.1399994,105.0400009 20.7999992,104.7699966 22.4699993,104.5400009 24.1399994,104.3199997 25.8099995,104.1600037 
				27.4400005,104.0100021 29.0499992,103.8899994 30.6200008,103.8099976 32.1100006,103.75 33.5499992,103.6999969 
				34.4599991,103.6800003 34.8899994,103.6800003 36.0800018,103.6800003 36.1399994,103.6800003 37.2200012,103.6999969 
				37.25,103.6999969 38.2400017,103.7099991 38.3300018,103.7300034 39.1699982,103.7600021 39.9500008,103.8099976 
				40.5800018,103.8600006 40.6100006,103.8600006 40.9700012,103.9100037 40.9900017,103.9100037 41.2900009,103.9599991 
				41.4700012,104.0100021 			"/>
			<polyline class="st1" points="17.8199997,110.3600006 17.6000004,109.3199997 17.2600002,107.0500031 17.0699997,105.4300003 			
				"/>
			<polyline class="st1" points="38.6699982,114.1299973 37.7999992,114.5500031 36.6699982,114.9899979 36.5900002,115.0299988 			
				"/>
			<polyline class="st1" points="11.6199999,114.7600021 11.4200001,113.8199997 10.8900003,110.4400024 10.54,107.1999969 			"/>
			<polyline class="st1" points="20.3700008,118.3799973 19.9799995,117.5400009 19.2600002,115.6500015 18.6100006,113.6399994 
				18.5,113.2200012 			"/>
			<polyline class="st1" points="14.4799995,138.3300018 13.6499996,137.9499969 13.5799999,137.9199982 12.2399998,137.1499939 
				11,136.3099976 10.9399996,136.2599945 9.8299999,135.3399963 9.7799997,135.2899933 8.79,134.2799988 7.9400001,133.1900024 
				7.8899999,133.1199951 7.1799998,131.9799957 7.1500001,131.8999939 6.5900002,130.6900024 6.5599999,130.6100006 
				6.1599998,129.3500061 6.1399999,129.25 5.8899999,127.9599991 5.8800001,127.8600006 5.79,126.5400009 5.79,126.4499969 
				5.8800001,125.0999985 5.8800001,125.0199966 6.1100001,123.6600037 6.1399999,123.5800018 6.52,122.2200012 
				7.0500002,120.8799973 7.0799999,120.8300018 7.7600002,119.5199966 7.8000002,119.4599991 8.6099997,118.1800003 
				8.6199999,118.1800003 9.5799999,116.9300003 9.6099997,116.8799973 10.5600004,115.8399963 10.6899996,115.6699982 
				11.6199999,114.7600021 11.8800001,114.5100021 13.1700001,113.4000015 13.1999998,113.3700027 14.5799999,112.3499985 
				16.0499992,111.3700027 17.5900002,110.4800034 17.8199997,110.3600006 19.1700001,109.6699982 20.8099995,108.9400024 
				22.4699993,108.2900009 24.1499996,107.7300034 25.8199997,107.2699966 27.4899998,106.8700027 29.1499996,106.5699997 
				30.7700005,106.3399963 30.8299999,106.3399963 32.4099998,106.1900024 33.9300003,106.1299973 34.6899986,106.1399994 
				35.3499985,106.1600037 35.4500008,106.1600037 35.9300003,106.1900024 36.7099991,106.2399979 36.7999992,106.2600021 
				38.0600014,106.4300003 39.2000008,106.6600037 39.3199997,106.6699982 40.3400002,106.9700012 40.4300003,106.9899979 
				41.3400002,107.3499985 41.4399986,107.3799973 42.2299995,107.8000031 42.3300018,107.8600006 42.9700012,108.3099976 
				43.0699997,108.3799973 43.1599998,108.4599991 43.3899994,108.6900024 			"/>
			<polyline class="st1" points="42.5900002,112.4499969 41.7700005,112.0699997 41.6500015,112.0299988 41.5699997,112 
				41.5299988,112 40.4799995,111.6399994 40.3800011,111.5999985 39,111.3000031 38.9199982,111.2900009 37.4799995,111.1200027 
				35.9900017,111.0699997 35.9300003,111.0699997 35.5,111.0899963 34.3699989,111.1200027 32.7900009,111.3199997 
				31.1800003,111.6699982 31.1299992,111.6800003 29.5300007,112.1800003 27.9599991,112.8300018 27.9099998,112.8399963 
				26.3700008,113.6200027 24.8799992,114.5299988 23.4200001,115.5500031 22.0499992,116.6999969 20.75,117.9499969 
				20.3700008,118.3799973 19.5400009,119.3099976 19.5200005,119.3300018 18.4099998,120.7799988 17.3999996,122.3199997 
				16.5100002,123.9400024 15.75,125.6299973 15.3199997,126.8199997 15.1199999,127.3600006 15.1199999,127.3799973 
				14.6400003,129.1499939 14.3000002,130.9499969 14.1099997,132.7700043 14.0799999,134.5700073 14.1000004,134.9600067 
				14.1800003,136.3899994 14.4399996,138.1600037 14.46,138.1999969 14.4799995,138.3300018 14.8699999,139.9499969 
				15.4399996,141.6499939 16.1599998,143.2899933 16.1800003,143.3200073 17.0100002,144.8600006 17.0400009,144.8899994 
				18.0300007,146.3800049 19.1599998,147.7700043 19.1900005,147.8099976 20.4099998,149.0299988 20.4500008,149.0599976 
				21.8199997,150.1999969 23.2900009,151.2100067 24.8600006,152.1100006 24.8999996,152.1199951 26.5300007,152.8699951 
				28.25,153.4600067 30.0200005,153.9100037 30.0599995,153.9299927 31.8600006,154.2100067 33.7000008,154.3600006 
				35.5600014,154.3399963 37.4199982,154.1399994 39.25,153.7799988 39.2900009,153.7599945 41.0900002,153.2599945 
				42.8600006,152.6000061 44.5600014,151.7899933 46.2000008,150.8300018 47.75,149.7599945 49.2099991,148.5500031 
				50.5699997,147.2400055 51.8100014,145.8200073 52.9300003,144.3000031 53.9399986,142.6799927 54.7999992,141.0099945 
				55.5299988,139.2599945 56.0900002,137.4700012 56.2200012,136.9199982 			"/>
			<polyline class="st1" points="15.3199997,126.8199997 14.9399996,125.9899979 13.8699999,123.1999969 12.9200001,120.2200012 
				12.6599998,119.2399979 12.3599997,118.0500031 			"/>
			<polyline class="st1" points="34.3400002,100.8499985 34.3100014,99.9800034 34.3699989,97.5899963 34.5200005,95.2300034 
				34.7900009,92.9000015 35.1300011,90.6299973 35.5999985,88.4300003 36.1399994,86.3099976 36.7900009,84.3000031 
				37.5200005,82.4100037 38.3100014,80.6600037 39.2000008,79.0400009 39.2200012,79.0199966 39.2200012,79 			"/>
			<polyline class="st1" points="10.3299999,104.2799988 10.2799997,103.5 10.2799997,103.1200027 10.21,100.2699966 
				10.21,99.9800034 10.2799997,96.4499969 10.5100002,92.9499969 10.8900003,89.4899979 11.4200001,86.1299973 
				12.1000004,82.8600006 12.9200001,79.7300034 13.8699999,76.75 14.9399996,73.9400024 16.1299992,71.3499985 
				17.4400005,68.9599991 18.8400002,66.8099976 20.3299999,64.9100037 21.8899994,63.2799988 23.5200005,61.9399986 
				25.2099991,60.8600006 26.9300003,60.0999985 28.6800003,59.6399994 30.4500008,59.4900017 47.9900017,59.4900017 
				49.7400017,59.6399994 51.4900017,60.0999985 53.2099991,60.8600006 54.9000015,61.9399986 56.5400009,63.2799988 
				58.1100006,64.9100037 59.5999985,66.8099976 60.9799995,68.9599991 62.2900009,71.3499985 63.4799995,73.9400024 
				64.5599976,76.75 65.5199966,79.7300034 66.3300018,82.8600006 67,86.1299973 67.5299988,89.4899979 67.9100037,92.9499969 
				68.1500015,96.4499969 68.2300034,99.9800034 68.1500015,103.5 67.9100037,107 67.5299988,110.4400024 67,113.8199997 
				66.3300018,117.0800018 65.5199966,120.2200012 64.5599976,123.1999969 63.4799995,125.9899979 62.2900009,128.6000061 
				60.9799995,130.9900055 59.5999985,133.1399994 58.1100006,135.0399933 56.5400009,136.6799927 56.2900009,136.8699951 
				56.2200012,136.9199982 54.9000015,138.0099945 53.2099991,139.0700073 52.3800011,139.4499969 51.4900017,139.8500061 
				49.7400017,140.3099976 47.9900017,140.4600067 30.4500008,140.4600067 28.6800003,140.3099976 27.4899998,140 
				27.4400005,139.9799957 26.9300003,139.8500061 25.2099991,139.0700073 23.5200005,138.0099945 22.7800007,137.3999939 
				22.7099991,137.3500061 21.8899994,136.6799927 20.3299999,135.0399933 18.8400002,133.1399994 17.4400005,130.9900055 
				17.2399998,130.6399994 			"/>
			<polyline class="st1" points="22.7099991,137.3500061 21.9699993,137.3200073 20.4099998,137.1499939 18.9300003,136.8899994 
				17.5400009,136.4900055 17.0400009,136.3099976 			"/>
			<polyline class="st1" points="41.6199989,115.6999969 41.1199989,116.0299988 40.1300011,116.5800018 40.0499992,116.6100006 
				38.9399986,117.1399994 37.7099991,117.6399994 37.6300011,117.6600037 37.5800018,117.6900024 			"/>
			<polyline class="st1" points="35.0800018,108.9899979 35.1300011,109.3199997 35.5,111.0899963 			"/>
			<polyline class="st1" points="27.4400005,139.9799957 27.1100006,140.0299988 25.3099995,140.1799927 23.5200005,140.2100067 
				21.7700005,140.1499939 21.7199993,140.1499939 20,139.9499969 18.3099995,139.6499939 17.7000008,139.4900055 			"/>
			<polyline class="st1" points="39.2000008,120.9300003 38.2799988,122.3499985 37.2799988,123.6399994 36.2299995,124.7300034 
				35.1199989,125.6600037 33.9799995,126.3700027 32.8199997,126.8799973 31.6399994,127.1999969 30.4500008,127.3000031 
				29.2600002,127.1999969 28.0699997,126.8799973 26.9099998,126.3700027 25.7700005,125.6600037 24.6700001,124.7300034 
				23.6200008,123.6399994 22.6100006,122.3499985 21.7700005,121.0599976 			"/>
			<polyline class="st1" points="16.8400002,102.5699997 16.8400002,102.3600006 16.7800007,99.9800034 16.8400002,97.5899963 
				16.9899998,95.2300034 17.2600002,92.9000015 17.6000004,90.6299973 18.0699997,88.4300003 18.6100006,86.3099976 
				19.2600002,84.3000031 19.9799995,82.4100037 20.7800007,80.6600037 21.6700001,79.0400009 22.6100006,77.5800018 
				23.6200008,76.3099976 24.6700001,75.1999969 25.7700005,74.2900009 26.9099998,73.5800018 28.0699997,73.0699997 
				29.2600002,72.75 30.4500008,72.6500015 31.6399994,72.75 32.8199997,73.0699997 33.9799995,73.5800018 35.1199989,74.2900009 
				36.2299995,75.1999969 37.2799988,76.3099976 38.2799988,77.5800018 39.2000008,79 39.2200012,79.0199966 39.2400017,79.0400009 
				40.1100006,80.6600037 40.9099998,82.4100037 41.6300011,84.3000031 42.2799988,86.3099976 42.8300018,88.4300003 
				43.2900009,90.6299973 43.6500015,92.9000015 43.9000015,95.2300034 44.0699997,97.5899963 44.1199989,99.9800034 
				44.0699997,102.3600006 43.9000015,104.7200012 43.6500015,107.0500031 43.3899994,108.6900024 43.2900009,109.3199997 
				42.8300018,111.5199966 42.5900002,112.4499969 42.2799988,113.6399994 41.7799988,115.1900024 41.7799988,115.2099991 
				41.6300011,115.6500015 41.6199989,115.6999969 41.5999985,115.7699966 40.9099998,117.5400009 40.1100006,119.2900009 
				39.2400017,120.9100037 39.2200012,120.9300003 			"/>
			<polyline class="st1" points="8.6099997,118.1800003 8.4700003,118.1500015 7.25,117.6900024 7.1700001,117.6600037 
				6.0599999,117.1399994 5.0700002,116.6100006 4.98,116.5599976 4.1199999,116 4.04,115.9400024 3.3099999,115.3199997 
				3.23,115.2399979 2.6700001,114.5999985 2.5899999,114.5100021 2.52,114.4100037 2.0899999,113.75 2.0599999,113.6900024 
				2.01,113.5699997 1.74,112.9100037 1.6900001,112.7799988 1.66,112.6600037 1.5599999,111.9800034 1.54,111.8499985 
				1.54,111.7300034 1.59,111.0599976 1.59,110.9400024 1.63,110.8199997 1.66,110.6900024 1.87,110.0299988 1.92,109.9300003 
				1.97,109.8199997 2.3499999,109.1699982 2.4200001,109.0699997 2.49,108.9700012 3.02,108.3399963 3.0999999,108.2600021 
				3.76,107.6299973 3.8399999,107.5500031 4.6500001,106.9499969 4.75,106.8899994 5.5999999,106.3600006 5.6799998,106.3099976 
				6.7399998,105.7300034 6.8200002,105.6999969 7.9299998,105.1800003 7.9899998,105.1500015 9.2799997,104.6399994 
				10.3299999,104.2799988 10.6599998,104.1600037 10.71,104.1399994 12.1800003,103.6999969 13.7200003,103.2799988 
				15.3000002,102.9000015 16.8400002,102.5699997 16.9599991,102.5599976 18.6599998,102.2399979 20.3700008,101.9599991 
				22.1000004,101.7300034 23.8199997,101.5100021 25.5400009,101.3300018 27.2299995,101.1800003 28.8799992,101.0699997 
				30.4899998,100.9700012 32.0099983,100.9000015 33.4599991,100.8700027 34.3400002,100.8499985 34.8400002,100.8499985 
				36.1100006,100.8499985 36.1800003,100.8499985 37.2799988,100.8499985 37.3499985,100.8499985 38.3300018,100.8799973 
				38.3899994,100.8799973 39.3400002,100.9300003 40.1300011,100.9800034 40.7900009,101.0299988 40.9199982,101.0500031 
				41.4399986,101.0999985 41.8199997,101.1699982 41.9500008,101.1999969 42.1300011,101.25 42.3100014,101.3000031 
				42.4300003,101.3499985 42.5400009,101.4100037 42.6599998,101.4800034 42.7400017,101.5599976 42.8400002,101.6299973 
				42.9399986,101.7300034 43.0200005,101.8300018 43.0900002,101.9300003 43.1599998,102.0400009 43.2200012,102.1600037 
				43.2599983,102.2900009 43.2900009,102.4199982 43.3199997,102.5599976 43.3199997,102.6999969 43.3199997,102.7900009 
				43.2999992,102.9199982 43.2700005,103.0500031 43.2400017,103.1800003 43.1899986,103.3000031 43.1199989,103.4199982 
				43.0600014,103.5299988 42.9700012,103.6299973 42.8699989,103.7300034 42.7799988,103.8099976 42.7099991,103.8799973 
				42.6100006,103.9400024 42.4900017,104.0100021 42.3600006,104.0599976 42.25,104.1100006 42.1100006,104.1399994 
				41.8800011,104.1900024 41.75,104.2099991 41.3899994,104.2600021 40.8699989,104.2900009 40.7400017,104.3099976 
				40.0999985,104.3199997 39.3199997,104.3399963 38.4099998,104.3600006 37.3800011,104.3600006 36.2299995,104.3399963 
				34.9700012,104.3099976 34.4900017,104.2900009 			"/>
			<polyline class="st1" points="41.5299988,112 41.6199989,111.8799973 41.75,111.5999985 41.7799988,111.4000015 
				41.7700005,111.25 41.7200012,111.0899963 41.5499992,110.8600006 41.25,110.5599976 40.8199997,110.2600021 
				40.2299995,109.9499969 39.4799995,109.6699982 38.5900002,109.4199982 37.6300011,109.2200012 36.4599991,109.0699997 
				35.7799988,109.0199966 35.2999992,108.9899979 35.0800018,108.9899979 33.9599991,108.9700012 32.5499992,109.0199966 
				31.1200008,109.1500015 29.6399994,109.3499985 28.1100006,109.6500015 26.5300007,110.0100021 24.9799995,110.4400024 
				23.4200001,110.9599991 21.8899994,111.5500031 20.3999996,112.2300034 18.9300003,112.9700012 18.5,113.2200012 
				18.4799995,113.2200012 17.5200005,113.7900009 16.2000008,114.6800003 14.9700003,115.5899963 13.8000002,116.5999985 
				12.7200003,117.6399994 12.3599997,118.0500031 11.7799997,118.6999969 11.5500002,119.0100021 10.9399996,119.8099976 
				10.2299995,120.9100037 9.6499996,122.0199966 9.1999998,123.1500015 8.8900003,124.25 8.6899996,125.3799973 
				8.6400003,126.4700012 8.71,127.5500031 8.8900003,128.5899963 9.2200003,129.6100006 9.6599998,130.5899963 
				10.2299995,131.5099945 10.9200001,132.3899994 11.7299995,133.2400055 12.6899996,134.0299988 13.7299995,134.7599945 
				14.1000004,134.9600067 			"/>
			<polyline class="st1" points="4.4200001,99.7300034 4.4400001,99.7300034 5.27,99.8399963 6.2199998,99.9400024 
				7.3000002,100.0400009 8.4700003,100.1399994 9.71,100.2399979 9.7600002,100.2399979 10.21,100.2699966 			"/>
			<polyline class="st1" points="41.7799988,115.2099991 41.7200012,115.1600037 40.7400017,114.7099991 39.6699982,114.3499985 
				38.6699982,114.1299973 38.5099983,114.0999985 37.2799988,113.9499969 36.2299995,113.9199982 35.9599991,113.9000015 
				34.6399994,113.9499969 33.2299995,114.1299973 31.8799992,114.4100037 30.4899998,114.8399963 29.1000004,115.4199982 
				27.7700005,116.0800018 26.4300003,116.8899994 25.1399994,117.8000031 23.9400005,118.8099976 22.7800007,119.9400024 
				21.7700005,121.0599976 21.7000008,121.1299973 20.7299995,122.4199982 19.8400002,123.7699966 19.0400009,125.2099991 
				18.3600006,126.6900024 17.8199997,128.2200012 17.3999996,129.7599945 17.2399998,130.6399994 17.1100006,131.3500061 
				16.9400005,132.9400024 16.9099998,134.5299988 17.0100002,136.1100006 17.0400009,136.3099976 17.2399998,137.6499939 
				17.5900002,139.1600037 17.7000008,139.4900055 18.0799999,140.6399994 18.7099991,142.0700073 19.4400005,143.4100037 
				20.2999992,144.6999969 21.2900009,145.8899994 22.3500004,146.9499969 23.5400009,147.9400024 24.8099995,148.8300018 
				26.1499996,149.5899963 27.5799999,150.2200012 29.0799999,150.75 30.6399994,151.1499939 32.1699982,151.3899994 
				33.7799988,151.5099945 35.4000015,151.4900055 37.0200005,151.3300018 38.6199989,151.0099945 40.1800003,150.5700073 
				41.7299995,149.9900055 43.2400017,149.2799988 44.6800003,148.4499969 46.0299988,147.4900055 47.3100014,146.4499969 
				48.5,145.2899933 49.6100006,144.0299988 50.5999985,142.6999969 51.4700012,141.2899933 52.2400017,139.8000031 
				52.3800011,139.4499969 			"/>
			<polyline class="st1" points="39.2200012,120.9300003 39.2000008,120.9300003 39.2000008,120.9100037 38.3100014,119.2900009 
				37.5800018,117.6900024 37.5200005,117.5400009 36.7900009,115.6500015 36.5900002,115.0299988 36.2299995,113.9199982 			"/>
			<polyline class="st1" points="10.2799997,103.1200027 9.5799999,103.0699997 9.5299997,103.0699997 8.2299995,102.9700012 
				7.02,102.8700027 5.9299998,102.75 4.9499998,102.6500015 4.1100001,102.5400009 3.4100001,102.4199982 3.28,102.4100037 
				2.7,102.2900009 2.27,102.1699982 2.1400001,102.1399994 2.01,102.0899963 1.73,101.9800034 1.61,101.9100037 1.49,101.8399963 
				1.38,101.7399979 1.25,101.6500015 1.16,101.5599976 1.0599999,101.4599991 1,101.3600006 0.93,101.25 0.87,101.1299973 
				0.82,101 0.78,100.8799973 0.77,100.75 0.75,100.6200027 0.75,100.4899979 0.77,100.3700027 0.78,100.2699966 0.82,100.1399994 
				0.85,100.0100021 0.9,99.8799973 0.97,99.7600021 1.03,99.6399994 1.11,99.5299988 1.2,99.4499969 1.3,99.3600006 
				1.41,99.2799988 1.58,99.1600037 1.6900001,99.0999985 1.8099999,99.0500031 1.92,99 2.29,98.9000015 2.4000001,98.8700027 
				2.6700001,98.8000031 2.7,98.8000031 2.73,98.7799988 2.8299999,98.7699966 2.97,98.75 3.0799999,98.75 3.21,98.75 
				3.3099999,98.75 3.45,98.7799988 3.5799999,98.8300018 3.6900001,98.8799973 3.8099999,98.9300003 3.9300001,99.0199966 
				4.02,99.0999985 4.1100001,99.1800003 4.1900001,99.2799988 4.27,99.4000015 4.3400002,99.5100021 4.3899999,99.6299973 
				4.4200001,99.7300034 4.4400001,99.7399979 4.4699998,99.8799973 4.4899998,100.0100021 4.5,100.1399994 4.5,100.2699966 
				4.4899998,100.3700027 4.4699998,100.5 4.4200001,100.6399994 4.3699999,100.7699966 4.3200002,100.8799973 
				4.2600002,100.9800034 4.1700001,101.0999985 4.0900002,101.1800003 3.99,101.2799988 3.8900001,101.3499985 3.78,101.4100037 
				3.6600001,101.4599991 3.55,101.5100021 3.4300001,101.5500031 3.3499999,101.5599976 3.28,101.5800018 3.1600001,101.5800018 
				3.03,101.5999985 3,101.6500015 2.9300001,101.6600037 2.8,101.6100006 2.6900001,101.5 2.55,101.4499969 2.4400001,101.3799973 
				2.3399999,101.3000031 2.24,101.2200012 2.1400001,101.1299973 2.0599999,101.0299988 1.97,100.9199982 1.92,100.8199997 
				1.86,100.6900024 1.83,100.5699997 1.79,100.4400024 1.76,100.3099976 1.76,100.1699982 1.76,100.0400009 1.76,99.9599991 
				1.79,99.8099976 1.83,99.6800003 1.87,99.5599976 1.9400001,99.4499969 2.01,99.3300018 2.0899999,99.2300034 
				2.1700001,99.1299973 2.27,99.0500031 2.3699999,98.9700012 2.47,98.9000015 2.5899999,98.8499985 2.7,98.8000031 			"/>
			<polyline class="st1" points="34.4599991,103.6800003 34.4900017,104.2900009 34.5200005,104.7200012 34.6899986,106.1399994 			
				"/>
			<line class="st2" x1="65.9800034" y1="59.4900017" x2="95.6699982" y2="59.4900017"/>
			<line class="st2" x1="69" y1="69.8099976" x2="84.25" y2="69.8099976"/>
			<line class="st2" x1="71.5400009" y1="80.1399994" x2="81.7200012" y2="80.1399994"/>
			<line class="st2" x1="65.9800034" y1="139.6999969" x2="95.6699982" y2="139.6999969"/>
			<line class="st2" x1="69" y1="129.3699951" x2="84.25" y2="129.3699951"/>
			<line class="st2" x1="71.5400009" y1="119.0500031" x2="81.7200012" y2="119.0500031"/>
		</g>
	</g>
</g>
</svg>
