<?xml version="1.0" encoding="utf-8"?>
<!-- Generator: Adobe Illustrator 21.0.0, SVG Export Plug-In . SVG Version: 6.00 Build 0)  -->
<svg version="1.1" id="Layer_1" xmlns="http://www.w3.org/2000/svg" xmlns:xlink="http://www.w3.org/1999/xlink" x="0px" y="0px"
	 viewBox="0 0 45.5449715 200" style="enable-background:new 0 0 45.5449715 200;" xml:space="preserve">
<style type="text/css">
	.st0{fill:#797979;}
	.st1{fill:none;stroke:#FFFFFF;stroke-width:0.5;stroke-linecap:round;stroke-linejoin:round;}
	.st2{fill:none;stroke:#FFFFFF;stroke-width:1.5;stroke-linecap:round;stroke-linejoin:round;}
	.st3{fill:none;stroke:#FFFFFF;stroke-width:0.75;stroke-linecap:round;stroke-linejoin:round;}
</style>
<g>
	<g>
		<g id="XMLID_50_">
			<g>
				<path class="st0" d="M34.6887245,66.0661469h0.6280708h1.8613777v-5.0245781h-1.8613777h-1.2447243v5.0245781H34.6887245z
					 M34.6887245,133.9435883h-0.6166534v5.0131531h1.2447243h1.8613777v-5.0131531h-1.8613777H34.6887245z M29.7555046,66.0661469
					h0.6166515h1.8613758v-5.0245781h-1.8613758h-1.2447243v5.0245781H29.7555046z M29.7555046,133.9435883h-0.6280727v5.0131531
					h1.2447243h1.8613758v-5.0131531h-1.8613758H29.7555046z M9.9997864,66.0661469h0.6280727h1.8613768v-5.0245781h-1.8613768
					H9.3831339v5.0245781H9.9997864z M9.9997864,133.9435883H9.3831339v5.0131531h1.2447252h1.8613768v-5.0131531h-1.8613768
					H9.9997864z M5.0665669,66.0661469h0.6166525h1.8613768v-5.0245781H5.6832194H4.4384952v5.0245781H5.0665669z
					 M5.0665669,133.9435883H4.4384952v5.0131531h1.2447243h1.8613768v-5.0131531H5.6832194H5.0665669z M24.8108654,133.9435883
					H24.194212v5.0131531h1.2447243h1.8613777v-5.0131531h-1.8613777H24.8108654z M24.8108654,66.0661469h0.6280708h1.8613777
					v-5.0245781h-1.8613777H24.194212v5.0245781H24.8108654z M19.8776455,66.0661469h0.6166515h1.872797v-5.0245781h-1.872797
					h-1.233305v5.0245781H19.8776455z M19.8776455,133.9435883h-0.6166534v5.0131531h1.233305h1.872797v-5.0131531h-1.872797
					H19.8776455z M14.9444256,66.0661469h0.6166525h1.8613768v-5.0245781h-1.8613768h-1.2447243v5.0245781H14.9444256z
					 M14.9444256,131.6368561h4.9332199h4.9332199h4.9446392h4.9332199h1.9413109V68.3614578h-1.9413109h-4.9332199h-4.9446392
					h-4.9332199h-4.9332199H9.9997864h-0.753686H5.0665669H4.9980502v63.2753983h0.0685167h4.1795335h0.753686H14.9444256z
					 M14.9444256,133.9435883h-0.6280718v5.0131531h1.2447243h1.8613768v-5.0131531h-1.8613768H14.9444256z M40.5355034,56.9990692
					v86.0001831H0.75V56.9990692H40.5355034z"/>
			</g>
			<g>
				<rect x="35.3167953" y="61.0415688" class="st1" width="1.8613769" height="5.0245757"/>
				<polyline class="st1" points="35.3167953,61.0415688 34.0720711,61.0415688 34.0720711,66.0661469 34.6887245,66.0661469 
					35.3167953,66.0661469 				"/>
				<rect x="30.3721561" y="61.0415688" class="st1" width="1.8613769" height="5.0245757"/>
				<polyline class="st1" points="30.3721561,61.0415688 29.1274319,61.0415688 29.1274319,66.0661469 29.7555046,66.0661469 
					30.3721561,66.0661469 				"/>
				<rect x="25.4389362" y="61.0415688" class="st1" width="1.8613769" height="5.0245757"/>
				<polyline class="st1" points="25.4389362,61.0415688 24.194212,61.0415688 24.194212,66.0661469 24.8108654,66.0661469 
					25.4389362,66.0661469 				"/>
				<rect x="20.494297" y="61.0415688" class="st1" width="1.8727963" height="5.0245757"/>
				<polyline class="st1" points="20.494297,61.0415688 19.2609921,61.0415688 19.2609921,66.0661469 19.8776455,66.0661469 
					20.494297,66.0661469 				"/>
				<rect x="15.5610781" y="61.0415688" class="st1" width="1.8613769" height="5.0245757"/>
				<polyline class="st1" points="15.5610781,61.0415688 14.3163538,61.0415688 14.3163538,66.0661469 14.9444256,66.0661469 
					15.5610781,66.0661469 				"/>
				<rect x="10.6278591" y="61.0415688" class="st1" width="1.8613769" height="5.0245757"/>
				<polyline class="st1" points="10.6278591,61.0415688 9.3831339,61.0415688 9.3831339,66.0661469 9.9997864,66.0661469 
					10.6278591,66.0661469 				"/>
				<rect x="5.6832194" y="61.0415688" class="st1" width="1.8613769" height="5.0245757"/>
				<polyline class="st1" points="5.6832194,61.0415688 4.4384952,61.0415688 4.4384952,66.0661469 5.0665669,66.0661469 
					5.6832194,66.0661469 				"/>
				<rect x="35.3167953" y="133.9435883" class="st1" width="1.8613769" height="5.0131559"/>
				<polyline class="st1" points="35.3167953,133.9435883 34.6887245,133.9435883 34.0720711,133.9435883 34.0720711,138.9567413 
					35.3167953,138.9567413 				"/>
				<rect x="30.3721561" y="133.9435883" class="st1" width="1.8613769" height="5.0131559"/>
				<polyline class="st1" points="30.3721561,133.9435883 29.7555046,133.9435883 29.1274319,133.9435883 29.1274319,138.9567413 
					30.3721561,138.9567413 				"/>
				<rect x="25.4389362" y="133.9435883" class="st1" width="1.8613769" height="5.0131559"/>
				<polyline class="st1" points="25.4389362,133.9435883 24.8108654,133.9435883 24.194212,133.9435883 24.194212,138.9567413 
					25.4389362,138.9567413 				"/>
				<rect x="20.494297" y="133.9435883" class="st1" width="1.8727963" height="5.0131559"/>
				<polyline class="st1" points="20.494297,133.9435883 19.8776455,133.9435883 19.2609921,133.9435883 19.2609921,138.9567413 
					20.494297,138.9567413 				"/>
				<rect x="15.5610781" y="133.9435883" class="st1" width="1.8613769" height="5.0131559"/>
				<polyline class="st1" points="15.5610781,133.9435883 14.9444256,133.9435883 14.3163538,133.9435883 14.3163538,138.9567413 
					15.5610781,138.9567413 				"/>
				<rect x="10.6278591" y="133.9435883" class="st1" width="1.8613769" height="5.0131559"/>
				<polyline class="st1" points="10.6278591,133.9435883 9.9997864,133.9435883 9.3831339,133.9435883 9.3831339,138.9567413 
					10.6278591,138.9567413 				"/>
				<rect x="5.6832194" y="133.9435883" class="st1" width="1.8613769" height="5.0131559"/>
				<polyline class="st1" points="5.6832194,133.9435883 5.0665669,133.9435883 4.4384952,133.9435883 4.4384952,138.9567413 
					5.6832194,138.9567413 				"/>
				<polyline class="st1" points="4.9980502,68.3614578 5.0665669,68.3614578 9.2461004,68.3614578 9.9997864,68.3614578 
					14.9444256,68.3614578 19.8776455,68.3614578 24.8108654,68.3614578 29.7555046,68.3614578 34.6887245,68.3614578 
					36.6300354,68.3614578 				"/>
				<line class="st2" x1="44.7949715" y1="56.9990692" x2="44.7949715" y2="142.9992523"/>
				<line class="st2" x1="40.5355034" y1="56.9990692" x2="40.5355034" y2="142.9992523"/>
				<line class="st2" x1="0.75" y1="142.9992523" x2="0.75" y2="56.9990692"/>
				<polyline class="st2" points="0.75,56.9990692 40.5355034,56.9990692 44.7949715,56.9990692 				"/>
				<polyline class="st2" points="44.7949715,142.9992523 40.5355034,142.9992523 0.75,142.9992523 				"/>
				<line class="st1" x1="9.2461004" y1="131.6368561" x2="9.2461004" y2="68.3614578"/>
				<line class="st1" x1="36.6300354" y1="68.3614578" x2="36.6300354" y2="131.6368561"/>
				<polyline class="st1" points="36.6300354,131.6368561 34.6887245,131.6368561 29.7555046,131.6368561 24.8108654,131.6368561 
					19.8776455,131.6368561 14.9444256,131.6368561 9.9997864,131.6368561 9.2461004,131.6368561 5.0665669,131.6368561 
					4.9980502,131.6368561 4.9980502,68.3614578 				"/>
				<polyline class="st3" points="34.6887245,63.5538559 34.6887245,66.0661469 34.6887245,68.3614578 34.6887245,131.6368561 
					34.6887245,133.9435883 34.6887245,136.444458 				"/>
				<polyline class="st3" points="29.7555046,63.5538559 29.7555046,66.0661469 29.7555046,68.3614578 29.7555046,131.6368561 
					29.7555046,133.9435883 29.7555046,136.444458 				"/>
				<polyline class="st3" points="24.8108654,63.5538559 24.8108654,66.0661469 24.8108654,68.3614578 24.8108654,131.6368561 
					24.8108654,133.9435883 24.8108654,136.444458 				"/>
				<polyline class="st3" points="19.8776455,63.5538559 19.8776455,66.0661469 19.8776455,68.3614578 19.8776455,131.6368561 
					19.8776455,133.9435883 19.8776455,136.444458 				"/>
				<polyline class="st3" points="14.9444256,63.5538559 14.9444256,66.0661469 14.9444256,68.3614578 14.9444256,131.6368561 
					14.9444256,133.9435883 14.9444256,136.444458 				"/>
				<polyline class="st3" points="9.9997864,63.5538559 9.9997864,66.0661469 9.9997864,68.3614578 9.9997864,131.6368561 
					9.9997864,133.9435883 9.9997864,136.444458 				"/>
				<polyline class="st3" points="5.0665669,63.5538559 5.0665669,66.0661469 5.0665669,68.3614578 5.0665669,131.6368561 
					5.0665669,133.9435883 5.0665669,136.444458 				"/>
			</g>
		</g>
	</g>
</g>
</svg>
