<?xml version="1.0" encoding="utf-8"?>
<!-- Generator: Adobe Illustrator 21.0.0, SVG Export Plug-In . SVG Version: 6.00 Build 0)  -->
<svg version="1.1" id="Layer_1" xmlns="http://www.w3.org/2000/svg" xmlns:xlink="http://www.w3.org/1999/xlink" x="0px" y="0px"
	 viewBox="0 0 47.0868492 200" style="enable-background:new 0 0 47.0868492 200;" xml:space="preserve">
<style type="text/css">
	.st0{fill:#797979;}
	.st1{fill:none;stroke:#FFFFFF;stroke-width:1.5;stroke-linecap:round;stroke-linejoin:round;}
	.st2{fill:none;stroke:#FFFFFF;stroke-width:0.5;stroke-linecap:round;stroke-linejoin:round;}
	.st3{fill:none;stroke:#FFFFFF;stroke-width:0.75;stroke-linecap:round;stroke-linejoin:round;}
</style>
<g>
	<g id="XMLID_49_">
		<g>
			<polygon class="st0" points="41.7461891,132.4029694 41.7461891,143.0003204 0.75,143.0003204 0.75,132.4029694 
				3.5934682,132.4029694 6.8937182,132.4029694 6.8937182,134.1958466 11.4957972,134.1958466 35.6024704,134.1958466 
				35.6024704,132.4029694 37.4981155,132.4029694 			"/>
			<polygon class="st0" points="41.7461891,127.1613998 41.7461891,130.4045563 37.4981155,130.4045563 35.6024704,130.4045563 
				35.6024704,127.1613998 37.4981155,127.1613998 			"/>
			<polygon class="st0" points="41.7461891,121.9312439 41.7461891,125.1744003 37.4981155,125.1744003 35.6024704,125.1744003 
				35.6024704,121.9312439 37.4981155,121.9312439 			"/>
			<polygon class="st0" points="41.7461891,116.7010956 41.7461891,119.9442444 37.4981155,119.9442444 35.6024704,119.9442444 
				35.6024704,116.7010956 37.4981155,116.7010956 			"/>
			<polygon class="st0" points="41.7461891,111.4595184 41.7461891,114.7026749 37.4981155,114.7026749 35.6024704,114.7026749 
				35.6024704,111.4595184 37.4981155,111.4595184 			"/>
			<polygon class="st0" points="41.7461891,106.2293625 41.7461891,109.4725189 37.4981155,109.4725189 35.6024704,109.4725189 
				35.6024704,106.2293625 37.4981155,106.2293625 			"/>
			<polygon class="st0" points="41.7461891,100.9992142 41.7461891,104.242363 37.4981155,104.242363 35.6024704,104.242363 
				35.6024704,100.9992142 37.4981155,100.9992142 			"/>
			<polygon class="st0" points="41.7461891,95.757637 41.7461891,99.0007858 37.4981155,99.0007858 35.6024704,99.0007858 
				35.6024704,95.757637 37.4981155,95.757637 			"/>
			<polygon class="st0" points="41.7461891,90.5274811 41.7461891,93.7706375 37.4981155,93.7706375 35.6024704,93.7706375 
				35.6024704,90.5274811 37.4981155,90.5274811 			"/>
			<polygon class="st0" points="41.7461891,85.2973251 41.7461891,88.5404816 37.4981155,88.5404816 35.6024704,88.5404816 
				35.6024704,85.2973251 37.4981155,85.2973251 			"/>
			<polygon class="st0" points="41.7461891,80.0557556 41.7461891,83.2989044 37.4981155,83.2989044 35.6024704,83.2989044 
				35.6024704,80.0557556 37.4981155,80.0557556 			"/>
			<polygon class="st0" points="41.7461891,74.8255997 41.7461891,78.0687561 37.4981155,78.0687561 35.6024704,78.0687561 
				35.6024704,74.8255997 37.4981155,74.8255997 			"/>
			<polygon class="st0" points="41.7461891,69.5954437 41.7461891,72.8386002 37.4981155,72.8386002 35.6024704,72.8386002 
				35.6024704,69.5954437 37.4981155,69.5954437 			"/>
			<polygon class="st0" points="41.7461891,56.9996796 41.7461891,67.597023 37.4981155,67.597023 35.6024704,67.597023 
				35.6024704,65.8041534 11.4957972,65.8041534 6.8937182,65.8041534 6.8937182,67.597023 6.7452641,67.597023 
				3.5934682,67.597023 0.75,67.597023 0.75,56.9996796 			"/>
			<polygon class="st0" points="6.8937182,127.1613998 6.8937182,130.4045563 3.5934682,130.4045563 0.75,130.4045563 
				0.75,127.1613998 3.5934682,127.1613998 			"/>
			<polygon class="st0" points="6.8937182,121.9312439 6.8937182,125.1744003 3.5934682,125.1744003 0.75,125.1744003 
				0.75,121.9312439 3.5934682,121.9312439 			"/>
			<polygon class="st0" points="6.8937182,116.7010956 6.8937182,119.9442444 3.5934682,119.9442444 0.75,119.9442444 
				0.75,116.7010956 3.5934682,116.7010956 			"/>
			<polygon class="st0" points="6.8937182,111.4595184 6.8937182,114.7026749 3.5934682,114.7026749 0.75,114.7026749 
				0.75,111.4595184 3.5934682,111.4595184 			"/>
			<polygon class="st0" points="6.8937182,106.2293625 6.8937182,109.4725189 3.5934682,109.4725189 0.75,109.4725189 
				0.75,106.2293625 3.5934682,106.2293625 			"/>
			<polygon class="st0" points="6.8937182,100.9992142 6.8937182,104.242363 3.5934682,104.242363 0.75,104.242363 
				0.75,100.9992142 3.5934682,100.9992142 			"/>
			<polygon class="st0" points="6.8937182,95.757637 6.8937182,99.0007858 3.5934682,99.0007858 0.75,99.0007858 0.75,95.757637 
				3.5934682,95.757637 			"/>
			<polygon class="st0" points="6.8937182,90.5274811 6.8937182,93.7706375 3.5934682,93.7706375 0.75,93.7706375 0.75,90.5274811 
				3.5934682,90.5274811 			"/>
			<polygon class="st0" points="6.8937182,85.2973251 6.8937182,88.5404816 3.5934682,88.5404816 0.75,88.5404816 0.75,85.2973251 
				3.5934682,85.2973251 			"/>
			<polygon class="st0" points="6.8937182,80.0557556 6.8937182,83.2989044 3.5934682,83.2989044 0.75,83.2989044 0.75,80.0557556 
				3.5934682,80.0557556 			"/>
			<polygon class="st0" points="6.8937182,74.8255997 6.8937182,78.0687561 3.5934682,78.0687561 0.75,78.0687561 0.75,74.8255997 
				3.5934682,74.8255997 			"/>
			<polygon class="st0" points="6.8937182,69.5954437 6.8937182,72.8386002 3.5934682,72.8386002 0.75,72.8386002 0.75,69.5954437 
				3.5934682,69.5954437 			"/>
		</g>
		<g>
			<line class="st1" x1="46.3368492" y1="56.9996796" x2="46.3368492" y2="143.0003204"/>
			<polyline class="st2" points="11.4957972,134.1958466 11.4957972,131.4094696 11.4957972,126.1679001 11.4957972,120.9377441 
				11.4957972,115.7075958 11.4957972,110.4660187 11.4957972,105.2358627 11.4957972,100.0057068 11.4957972,94.7641373 
				11.4957972,89.5339813 11.4957972,84.3038254 11.4957972,79.0622559 11.4957972,73.8320999 11.4957972,68.601944 
				11.4957972,65.8041534 			"/>
			<polyline class="st2" points="6.8937182,134.1958466 6.8937182,132.4029694 6.8937182,131.4094696 6.8937182,130.4045563 
				6.8937182,127.1613998 6.8937182,126.1679001 6.8937182,125.1744003 6.8937182,121.9312439 6.8937182,120.9377441 
				6.8937182,119.9442444 6.8937182,116.7010956 6.8937182,115.7075958 6.8937182,114.7026749 6.8937182,111.4595184 
				6.8937182,110.4660187 6.8937182,109.4725189 6.8937182,106.2293625 6.8937182,105.2358627 6.8937182,104.242363 
				6.8937182,100.9992142 6.8937182,100.0057068 6.8937182,99.0007858 6.8937182,95.757637 6.8937182,94.7641373 
				6.8937182,93.7706375 6.8937182,90.5274811 6.8937182,89.5339813 6.8937182,88.5404816 6.8937182,85.2973251 
				6.8937182,84.3038254 6.8937182,83.2989044 6.8937182,80.0557556 6.8937182,79.0622559 6.8937182,78.0687561 
				6.8937182,74.8255997 6.8937182,73.8320999 6.8937182,72.8386002 6.8937182,69.5954437 6.8937182,68.601944 6.8937182,67.597023 
				6.8937182,65.8041534 			"/>
			<polyline class="st1" points="0.75,56.9996796 41.7461891,56.9996796 46.3368492,56.9996796 			"/>
			<polyline class="st2" points="6.8937182,65.8041534 11.4957972,65.8041534 35.6024704,65.8041534 35.6024704,67.597023 			"/>
			<polyline class="st2" points="6.8937182,134.1958466 11.4957972,134.1958466 35.6024704,134.1958466 35.6024704,132.4029694 			
				"/>
			<line class="st1" x1="0.75" y1="143.0003204" x2="0.75" y2="132.4029694"/>
			<line class="st1" x1="0.75" y1="67.597023" x2="0.75" y2="56.9996796"/>
			<polyline class="st1" points="46.3368492,143.0003204 41.7461891,143.0003204 0.75,143.0003204 			"/>
			<polyline class="st2" points="41.7461891,114.7026749 37.4981155,114.7026749 35.6024704,114.7026749 34.4034157,114.7026749 			
				"/>
			<polyline class="st2" points="41.7461891,109.4725189 37.4981155,109.4725189 35.6024704,109.4725189 34.4034157,109.4725189 			
				"/>
			<polyline class="st2" points="41.7461891,104.242363 37.4981155,104.242363 35.6024704,104.242363 34.4034157,104.242363 			"/>
			<polyline class="st2" points="41.7461891,116.7010956 37.4981155,116.7010956 35.6024704,116.7010956 34.4034157,116.7010956 			
				"/>
			<polyline class="st2" points="41.7461891,111.4595184 37.4981155,111.4595184 35.6024704,111.4595184 34.4034157,111.4595184 			
				"/>
			<polyline class="st2" points="41.7461891,106.2293625 37.4981155,106.2293625 35.6024704,106.2293625 34.4034157,106.2293625 			
				"/>
			<polyline class="st2" points="41.7461891,100.9992142 37.4981155,100.9992142 35.6024704,100.9992142 34.4034157,100.9992142 			
				"/>
			<polyline class="st2" points="41.7461891,132.4029694 37.4981155,132.4029694 35.6024704,132.4029694 34.4034157,132.4029694 			
				"/>
			<polyline class="st2" points="6.8937182,130.4045563 3.5934682,130.4045563 0.75,130.4045563 0.4873503,130.4045563 			"/>
			<polyline class="st2" points="6.8937182,125.1744003 3.5934682,125.1744003 0.75,125.1744003 0.4873503,125.1744003 			"/>
			<polyline class="st2" points="6.8937182,119.9442444 3.5934682,119.9442444 0.75,119.9442444 0.4873503,119.9442444 			"/>
			<polyline class="st2" points="6.8937182,114.7026749 3.5934682,114.7026749 0.75,114.7026749 0.4873503,114.7026749 			"/>
			<polyline class="st2" points="6.8937182,109.4725189 3.5934682,109.4725189 0.75,109.4725189 0.4873503,109.4725189 			"/>
			<polyline class="st2" points="6.8937182,104.242363 3.5934682,104.242363 0.75,104.242363 0.4873503,104.242363 			"/>
			<polyline class="st2" points="6.8937182,132.4029694 3.5934682,132.4029694 0.75,132.4029694 0.4873503,132.4029694 			"/>
			<polyline class="st2" points="6.8937182,127.1613998 3.5934682,127.1613998 0.75,127.1613998 0.4873503,127.1613998 			"/>
			<polyline class="st2" points="6.8937182,121.9312439 3.5934682,121.9312439 0.75,121.9312439 0.4873503,121.9312439 			"/>
			<polyline class="st2" points="6.8937182,116.7010956 3.5934682,116.7010956 0.75,116.7010956 0.4873503,116.7010956 			"/>
			<polyline class="st2" points="6.8937182,111.4595184 3.5934682,111.4595184 0.75,111.4595184 0.4873503,111.4595184 			"/>
			<polyline class="st2" points="6.8937182,106.2293625 3.5934682,106.2293625 0.75,106.2293625 0.4873503,106.2293625 			"/>
			<polyline class="st2" points="6.8937182,100.9992142 3.5934682,100.9992142 0.75,100.9992142 0.4873503,100.9992142 			"/>
			<line class="st2" x1="35.6024704" y1="85.2973251" x2="35.6024704" y2="88.5404816"/>
			<line class="st1" x1="0.75" y1="88.5404816" x2="0.75" y2="85.2973251"/>
			<line class="st2" x1="35.6024704" y1="69.5954437" x2="35.6024704" y2="72.8386002"/>
			<line class="st1" x1="0.75" y1="72.8386002" x2="0.75" y2="69.5954437"/>
			<line class="st2" x1="35.6024704" y1="121.9312439" x2="35.6024704" y2="125.1744003"/>
			<line class="st2" x1="35.6024704" y1="106.2293625" x2="35.6024704" y2="109.4725189"/>
			<line class="st1" x1="0.75" y1="125.1744003" x2="0.75" y2="121.9312439"/>
			<line class="st1" x1="0.75" y1="109.4725189" x2="0.75" y2="106.2293625"/>
			<line class="st2" x1="35.6024704" y1="100.9992142" x2="35.6024704" y2="104.242363"/>
			<line class="st1" x1="0.75" y1="104.242363" x2="0.75" y2="100.9992142"/>
			<line class="st2" x1="35.6024704" y1="127.1613998" x2="35.6024704" y2="130.4045563"/>
			<line class="st2" x1="35.6024704" y1="116.7010956" x2="35.6024704" y2="119.9442444"/>
			<line class="st2" x1="35.6024704" y1="111.4595184" x2="35.6024704" y2="114.7026749"/>
			<line class="st2" x1="35.6024704" y1="95.757637" x2="35.6024704" y2="99.0007858"/>
			<line class="st2" x1="35.6024704" y1="90.5274811" x2="35.6024704" y2="93.7706375"/>
			<line class="st2" x1="35.6024704" y1="80.0557556" x2="35.6024704" y2="83.2989044"/>
			<line class="st1" x1="0.75" y1="130.4045563" x2="0.75" y2="127.1613998"/>
			<line class="st1" x1="0.75" y1="119.9442444" x2="0.75" y2="116.7010956"/>
			<line class="st1" x1="0.75" y1="114.7026749" x2="0.75" y2="111.4595184"/>
			<line class="st1" x1="0.75" y1="99.0007858" x2="0.75" y2="95.757637"/>
			<line class="st1" x1="0.75" y1="93.7706375" x2="0.75" y2="90.5274811"/>
			<line class="st1" x1="0.75" y1="83.2989044" x2="0.75" y2="80.0557556"/>
			<line class="st2" x1="35.6024704" y1="74.8255997" x2="35.6024704" y2="78.0687561"/>
			<line class="st1" x1="0.75" y1="78.0687561" x2="0.75" y2="74.8255997"/>
			<polyline class="st2" points="41.7461891,130.4045563 37.4981155,130.4045563 35.6024704,130.4045563 34.4034157,130.4045563 			
				"/>
			<polyline class="st2" points="34.4034157,95.757637 35.6024704,95.757637 37.4981155,95.757637 41.7461891,95.757637 			"/>
			<polyline class="st2" points="34.4034157,90.5274811 35.6024704,90.5274811 37.4981155,90.5274811 41.7461891,90.5274811 			"/>
			<polyline class="st2" points="34.4034157,85.2973251 35.6024704,85.2973251 37.4981155,85.2973251 41.7461891,85.2973251 			"/>
			<polyline class="st2" points="34.4034157,80.0557556 35.6024704,80.0557556 37.4981155,80.0557556 41.7461891,80.0557556 			"/>
			<polyline class="st2" points="34.4034157,74.8255997 35.6024704,74.8255997 37.4981155,74.8255997 41.7461891,74.8255997 			"/>
			<polyline class="st2" points="34.4034157,69.5954437 35.6024704,69.5954437 37.4981155,69.5954437 41.7461891,69.5954437 			"/>
			<polyline class="st2" points="0.4873503,95.757637 0.75,95.757637 3.5934682,95.757637 6.8937182,95.757637 			"/>
			<polyline class="st2" points="0.4873503,90.5274811 0.75,90.5274811 3.5934682,90.5274811 6.8937182,90.5274811 			"/>
			<polyline class="st2" points="0.4873503,85.2973251 0.75,85.2973251 3.5934682,85.2973251 6.8937182,85.2973251 			"/>
			<polyline class="st2" points="0.4873503,80.0557556 0.75,80.0557556 3.5934682,80.0557556 6.8937182,80.0557556 			"/>
			<polyline class="st2" points="0.4873503,74.8255997 0.75,74.8255997 3.5934682,74.8255997 6.8937182,74.8255997 			"/>
			<polyline class="st2" points="0.4873503,69.5954437 0.75,69.5954437 3.5934682,69.5954437 6.8937182,69.5954437 			"/>
			<polyline class="st2" points="41.7461891,127.1613998 37.4981155,127.1613998 35.6024704,127.1613998 34.4034157,127.1613998 			
				"/>
			<polyline class="st2" points="41.7461891,125.1744003 37.4981155,125.1744003 35.6024704,125.1744003 34.4034157,125.1744003 			
				"/>
			<polyline class="st2" points="41.7461891,121.9312439 37.4981155,121.9312439 35.6024704,121.9312439 34.4034157,121.9312439 			
				"/>
			<polyline class="st2" points="41.7461891,119.9442444 37.4981155,119.9442444 35.6024704,119.9442444 34.4034157,119.9442444 			
				"/>
			<line class="st2" x1="37.4981155" y1="119.9442444" x2="37.4981155" y2="121.9312439"/>
			<polyline class="st2" points="34.4034157,119.9442444 34.4034157,120.9377441 34.4034157,121.9312439 			"/>
			<line class="st2" x1="37.4981155" y1="109.4725189" x2="37.4981155" y2="111.4595184"/>
			<polyline class="st2" points="34.4034157,109.4725189 34.4034157,110.4660187 34.4034157,111.4595184 			"/>
			<line class="st2" x1="37.4981155" y1="72.8386002" x2="37.4981155" y2="74.8255997"/>
			<polyline class="st2" points="34.4034157,72.8386002 34.4034157,73.8320999 34.4034157,74.8255997 			"/>
			<polyline class="st2" points="3.5934682,121.9312439 3.5934682,120.9377441 3.5934682,119.9442444 			"/>
			<line class="st2" x1="0.4873503" y1="121.9312439" x2="0.4873503" y2="119.9442444"/>
			<polyline class="st2" points="3.5934682,111.4595184 3.5934682,110.4660187 3.5934682,109.4725189 			"/>
			<line class="st2" x1="0.4873503" y1="111.4595184" x2="0.4873503" y2="109.4725189"/>
			<polyline class="st2" points="3.5934682,74.8255997 3.5934682,73.8320999 3.5934682,72.8386002 			"/>
			<line class="st2" x1="0.4873503" y1="74.8255997" x2="0.4873503" y2="72.8386002"/>
			<line class="st2" x1="37.4981155" y1="93.7706375" x2="37.4981155" y2="95.757637"/>
			<polyline class="st2" points="34.4034157,93.7706375 34.4034157,94.7641373 34.4034157,95.757637 			"/>
			<line class="st2" x1="37.4981155" y1="88.5404816" x2="37.4981155" y2="90.5274811"/>
			<polyline class="st2" points="34.4034157,88.5404816 34.4034157,89.5339813 34.4034157,90.5274811 			"/>
			<line class="st2" x1="37.4981155" y1="78.0687561" x2="37.4981155" y2="80.0557556"/>
			<polyline class="st2" points="34.4034157,78.0687561 34.4034157,79.0622559 34.4034157,80.0557556 			"/>
			<line class="st2" x1="37.4981155" y1="67.597023" x2="37.4981155" y2="69.5954437"/>
			<polyline class="st2" points="34.4034157,67.597023 34.4034157,68.601944 34.4034157,69.5954437 			"/>
			<polyline class="st2" points="3.5934682,95.757637 3.5934682,94.7641373 3.5934682,93.7706375 			"/>
			<line class="st2" x1="0.4873503" y1="95.757637" x2="0.4873503" y2="93.7706375"/>
			<polyline class="st2" points="3.5934682,90.5274811 3.5934682,89.5339813 3.5934682,88.5404816 			"/>
			<line class="st2" x1="0.4873503" y1="90.5274811" x2="0.4873503" y2="88.5404816"/>
			<polyline class="st2" points="3.5934682,80.0557556 3.5934682,79.0622559 3.5934682,78.0687561 			"/>
			<line class="st2" x1="0.4873503" y1="80.0557556" x2="0.4873503" y2="78.0687561"/>
			<polyline class="st2" points="3.5934682,69.5954437 3.5934682,68.601944 3.5934682,67.597023 			"/>
			<line class="st2" x1="0.4873503" y1="69.5954437" x2="0.4873503" y2="67.597023"/>
			<line class="st2" x1="37.4981155" y1="130.4045563" x2="37.4981155" y2="132.4029694"/>
			<polyline class="st2" points="34.4034157,130.4045563 34.4034157,131.4094696 34.4034157,132.4029694 			"/>
			<line class="st2" x1="37.4981155" y1="125.1744003" x2="37.4981155" y2="127.1613998"/>
			<polyline class="st2" points="34.4034157,125.1744003 34.4034157,126.1679001 34.4034157,127.1613998 			"/>
			<line class="st2" x1="37.4981155" y1="114.7026749" x2="37.4981155" y2="116.7010956"/>
			<polyline class="st2" points="34.4034157,114.7026749 34.4034157,115.7075958 34.4034157,116.7010956 			"/>
			<line class="st2" x1="37.4981155" y1="104.242363" x2="37.4981155" y2="106.2293625"/>
			<polyline class="st2" points="34.4034157,104.242363 34.4034157,105.2358627 34.4034157,106.2293625 			"/>
			<line class="st2" x1="37.4981155" y1="99.0007858" x2="37.4981155" y2="100.9992142"/>
			<polyline class="st2" points="34.4034157,99.0007858 34.4034157,100.0057068 34.4034157,100.9992142 			"/>
			<line class="st2" x1="37.4981155" y1="83.2989044" x2="37.4981155" y2="85.2973251"/>
			<polyline class="st2" points="34.4034157,83.2989044 34.4034157,84.3038254 34.4034157,85.2973251 			"/>
			<polyline class="st2" points="3.5934682,132.4029694 3.5934682,131.4094696 3.5934682,130.4045563 			"/>
			<line class="st2" x1="0.4873503" y1="132.4029694" x2="0.4873503" y2="130.4045563"/>
			<polyline class="st2" points="3.5934682,127.1613998 3.5934682,126.1679001 3.5934682,125.1744003 			"/>
			<line class="st2" x1="0.4873503" y1="127.1613998" x2="0.4873503" y2="125.1744003"/>
			<polyline class="st2" points="3.5934682,116.7010956 3.5934682,115.7075958 3.5934682,114.7026749 			"/>
			<line class="st2" x1="0.4873503" y1="116.7010956" x2="0.4873503" y2="114.7026749"/>
			<polyline class="st2" points="3.5934682,106.2293625 3.5934682,105.2358627 3.5934682,104.242363 			"/>
			<line class="st2" x1="0.4873503" y1="106.2293625" x2="0.4873503" y2="104.242363"/>
			<polyline class="st2" points="3.5934682,100.9992142 3.5934682,100.0057068 3.5934682,99.0007858 			"/>
			<line class="st2" x1="0.4873503" y1="100.9992142" x2="0.4873503" y2="99.0007858"/>
			<polyline class="st2" points="3.5934682,85.2973251 3.5934682,84.3038254 3.5934682,83.2989044 			"/>
			<line class="st2" x1="0.4873503" y1="85.2973251" x2="0.4873503" y2="83.2989044"/>
			<polyline class="st1" points="41.7461891,56.9996796 41.7461891,67.597023 41.7461891,69.5954437 41.7461891,72.8386002 
				41.7461891,74.8255997 41.7461891,78.0687561 41.7461891,80.0557556 41.7461891,83.2989044 41.7461891,85.2973251 
				41.7461891,88.5404816 41.7461891,90.5274811 41.7461891,93.7706375 41.7461891,95.757637 41.7461891,99.0007858 
				41.7461891,100.9992142 41.7461891,104.242363 41.7461891,106.2293625 41.7461891,109.4725189 41.7461891,111.4595184 
				41.7461891,114.7026749 41.7461891,116.7010956 41.7461891,119.9442444 41.7461891,121.9312439 41.7461891,125.1744003 
				41.7461891,127.1613998 41.7461891,130.4045563 41.7461891,132.4029694 41.7461891,143.0003204 			"/>
			<polyline class="st2" points="0.4873503,67.597023 0.75,67.597023 3.5934682,67.597023 6.7452641,67.597023 			"/>
			<polyline class="st2" points="34.4034157,88.5404816 35.6024704,88.5404816 37.4981155,88.5404816 41.7461891,88.5404816 			"/>
			<polyline class="st2" points="0.4873503,88.5404816 0.75,88.5404816 3.5934682,88.5404816 6.8937182,88.5404816 			"/>
			<polyline class="st2" points="34.4034157,72.8386002 35.6024704,72.8386002 37.4981155,72.8386002 41.7461891,72.8386002 			"/>
			<polyline class="st2" points="0.4873503,72.8386002 0.75,72.8386002 3.5934682,72.8386002 6.8937182,72.8386002 			"/>
			<polyline class="st2" points="34.4034157,99.0007858 35.6024704,99.0007858 37.4981155,99.0007858 41.7461891,99.0007858 			"/>
			<polyline class="st2" points="34.4034157,93.7706375 35.6024704,93.7706375 37.4981155,93.7706375 41.7461891,93.7706375 			"/>
			<polyline class="st2" points="34.4034157,83.2989044 35.6024704,83.2989044 37.4981155,83.2989044 41.7461891,83.2989044 			"/>
			<polyline class="st2" points="0.4873503,99.0007858 0.75,99.0007858 3.5934682,99.0007858 6.8937182,99.0007858 			"/>
			<polyline class="st2" points="0.4873503,93.7706375 0.75,93.7706375 3.5934682,93.7706375 6.8937182,93.7706375 			"/>
			<polyline class="st2" points="0.4873503,83.2989044 0.75,83.2989044 3.5934682,83.2989044 6.8937182,83.2989044 			"/>
			<polyline class="st2" points="34.4034157,78.0687561 35.6024704,78.0687561 37.4981155,78.0687561 41.7461891,78.0687561 			"/>
			<polyline class="st2" points="0.4873503,78.0687561 0.75,78.0687561 3.5934682,78.0687561 6.8937182,78.0687561 			"/>
			<polyline class="st2" points="34.4034157,67.597023 35.6024704,67.597023 37.4981155,67.597023 41.7461891,67.597023 			"/>
			<polyline class="st3" points="2.0404093,68.601944 3.5934682,68.601944 6.8937182,68.601944 11.4957972,68.601944 
				34.4034157,68.601944 35.6024704,68.601944 			"/>
			<polyline class="st3" points="2.0404093,73.8320999 3.5934682,73.8320999 6.8937182,73.8320999 11.4957972,73.8320999 
				34.4034157,73.8320999 35.6024704,73.8320999 			"/>
			<polyline class="st3" points="2.0404093,79.0622559 3.5934682,79.0622559 6.8937182,79.0622559 11.4957972,79.0622559 
				34.4034157,79.0622559 35.6024704,79.0622559 			"/>
			<polyline class="st3" points="2.0404093,84.3038254 3.5934682,84.3038254 6.8937182,84.3038254 11.4957972,84.3038254 
				34.4034157,84.3038254 35.6024704,84.3038254 			"/>
			<polyline class="st3" points="2.0404093,89.5339813 3.5934682,89.5339813 6.8937182,89.5339813 11.4957972,89.5339813 
				34.4034157,89.5339813 35.6024704,89.5339813 			"/>
			<polyline class="st3" points="2.0404093,94.7641373 3.5934682,94.7641373 6.8937182,94.7641373 11.4957972,94.7641373 
				34.4034157,94.7641373 35.6024704,94.7641373 			"/>
			<polyline class="st3" points="2.0404093,100.0057068 3.5934682,100.0057068 6.8937182,100.0057068 11.4957972,100.0057068 
				34.4034157,100.0057068 35.6024704,100.0057068 			"/>
			<polyline class="st3" points="2.0404093,105.2358627 3.5934682,105.2358627 6.8937182,105.2358627 11.4957972,105.2358627 
				34.4034157,105.2358627 35.6024704,105.2358627 			"/>
			<polyline class="st3" points="2.0404093,110.4660187 3.5934682,110.4660187 6.8937182,110.4660187 11.4957972,110.4660187 
				34.4034157,110.4660187 35.6024704,110.4660187 			"/>
			<polyline class="st3" points="2.0404093,115.7075958 3.5934682,115.7075958 6.8937182,115.7075958 11.4957972,115.7075958 
				34.4034157,115.7075958 35.6024704,115.7075958 			"/>
			<polyline class="st3" points="2.0404093,120.9377441 3.5934682,120.9377441 6.8937182,120.9377441 11.4957972,120.9377441 
				34.4034157,120.9377441 35.6024704,120.9377441 			"/>
			<polyline class="st3" points="2.0404093,126.1679001 3.5934682,126.1679001 6.8937182,126.1679001 11.4957972,126.1679001 
				34.4034157,126.1679001 35.6024704,126.1679001 			"/>
			<polyline class="st3" points="2.0404093,131.4094696 3.5934682,131.4094696 6.8937182,131.4094696 11.4957972,131.4094696 
				34.4034157,131.4094696 35.6024704,131.4094696 			"/>
		</g>
	</g>
</g>
</svg>
