<?xml version="1.0" encoding="utf-8"?>
<!-- Generator: Adobe Illustrator 21.0.0, SVG Export Plug-In . SVG Version: 6.00 Build 0)  -->
<svg version="1.1" id="Layer_1" xmlns="http://www.w3.org/2000/svg" xmlns:xlink="http://www.w3.org/1999/xlink" x="0px" y="0px"
	 viewBox="0 0 47.0868492 200" style="enable-background:new 0 0 47.0868492 200;" xml:space="preserve">
<style type="text/css">
	.st0{fill:#ECF0F1;}
	.st1{fill:none;stroke:#000000;stroke-width:1.5;stroke-linecap:round;stroke-linejoin:round;}
	.st2{fill:none;stroke:#000000;stroke-width:0.5;stroke-linecap:round;stroke-linejoin:round;}
	.st3{fill:none;stroke:#000000;stroke-width:0.75;stroke-linecap:round;stroke-linejoin:round;}
</style>
<g id="XMLID_49_">
	<g>
		<g id="XMLID_1_">
			<g>
				<polygon class="st0" points="41.75,57 41.75,67.5999985 37.5,67.5999985 35.5999985,67.5999985 35.5999985,65.8000031 
					11.5,65.8000031 6.8899999,65.8000031 6.8899999,67.5999985 6.75,67.5999985 3.5899999,67.5999985 0.75,67.5999985 0.75,57 				
					"/>
				<polygon class="st0" points="35.5999985,69.5999985 37.5,69.5999985 41.75,69.5999985 41.75,72.8399963 37.5,72.8399963 
					35.5999985,72.8399963 				"/>
				<polygon class="st0" points="35.5999985,74.8300018 37.5,74.8300018 41.75,74.8300018 41.75,78.0699997 37.5,78.0699997 
					35.5999985,78.0699997 				"/>
				<polygon class="st0" points="35.5999985,80.0599976 37.5,80.0599976 41.75,80.0599976 41.75,83.3000031 37.5,83.3000031 
					35.5999985,83.3000031 				"/>
				<polygon class="st0" points="35.5999985,85.3000031 37.5,85.3000031 41.75,85.3000031 41.75,88.5400009 37.5,88.5400009 
					35.5999985,88.5400009 				"/>
				<polygon class="st0" points="35.5999985,90.5299988 37.5,90.5299988 41.75,90.5299988 41.75,93.7699966 37.5,93.7699966 
					35.5999985,93.7699966 				"/>
				<polygon class="st0" points="35.5999985,95.7600021 37.5,95.7600021 41.75,95.7600021 41.75,99 37.5,99 35.5999985,99 				"/>
				<polygon class="st0" points="35.5999985,101 37.5,101 41.75,101 41.75,104.2399979 37.5,104.2399979 35.5999985,104.2399979 
									"/>
				<polygon class="st0" points="35.5999985,106.2300034 37.5,106.2300034 41.75,106.2300034 41.75,109.4700012 37.5,109.4700012 
					35.5999985,109.4700012 				"/>
				<polygon class="st0" points="35.5999985,111.4599991 37.5,111.4599991 41.75,111.4599991 41.75,114.6999969 37.5,114.6999969 
					35.5999985,114.6999969 				"/>
				<polygon class="st0" points="35.5999985,116.6999969 37.5,116.6999969 41.75,116.6999969 41.75,119.9400024 37.5,119.9400024 
					35.5999985,119.9400024 				"/>
				<polygon class="st0" points="35.5999985,121.9300003 37.5,121.9300003 41.75,121.9300003 41.75,125.1699982 37.5,125.1699982 
					35.5999985,125.1699982 				"/>
				<polygon class="st0" points="35.5999985,127.1600037 37.5,127.1600037 41.75,127.1600037 41.75,130.3999939 37.5,130.3999939 
					35.5999985,130.3999939 				"/>
				<polygon class="st0" points="0.75,132.3999939 3.5899999,132.3999939 6.8899999,132.3999939 6.8899999,134.1999969 
					11.5,134.1999969 35.5999985,134.1999969 35.5999985,132.3999939 37.5,132.3999939 41.75,132.3999939 41.75,143 0.75,143 				
					"/>
				<polygon class="st0" points="0.75,69.5999985 3.5899999,69.5999985 6.8899999,69.5999985 6.8899999,72.8399963 
					3.5899999,72.8399963 0.75,72.8399963 				"/>
				<polygon class="st0" points="0.75,74.8300018 3.5899999,74.8300018 6.8899999,74.8300018 6.8899999,78.0699997 
					3.5899999,78.0699997 0.75,78.0699997 				"/>
				<polygon class="st0" points="0.75,80.0599976 3.5899999,80.0599976 6.8899999,80.0599976 6.8899999,83.3000031 
					3.5899999,83.3000031 0.75,83.3000031 				"/>
				<polygon class="st0" points="0.75,85.3000031 3.5899999,85.3000031 6.8899999,85.3000031 6.8899999,88.5400009 
					3.5899999,88.5400009 0.75,88.5400009 				"/>
				<polygon class="st0" points="0.75,90.5299988 3.5899999,90.5299988 6.8899999,90.5299988 6.8899999,93.7699966 
					3.5899999,93.7699966 0.75,93.7699966 				"/>
				<polygon class="st0" points="0.75,95.7600021 3.5899999,95.7600021 6.8899999,95.7600021 6.8899999,99 3.5899999,99 0.75,99 
									"/>
				<polygon class="st0" points="0.75,101 3.5899999,101 6.8899999,101 6.8899999,104.2399979 3.5899999,104.2399979 
					0.75,104.2399979 				"/>
				<polygon class="st0" points="0.75,106.2300034 3.5899999,106.2300034 6.8899999,106.2300034 6.8899999,109.4700012 
					3.5899999,109.4700012 0.75,109.4700012 				"/>
				<polygon class="st0" points="0.75,111.4599991 3.5899999,111.4599991 6.8899999,111.4599991 6.8899999,114.6999969 
					3.5899999,114.6999969 0.75,114.6999969 				"/>
				<polygon class="st0" points="0.75,116.6999969 3.5899999,116.6999969 6.8899999,116.6999969 6.8899999,119.9400024 
					3.5899999,119.9400024 0.75,119.9400024 				"/>
				<polygon class="st0" points="0.75,121.9300003 3.5899999,121.9300003 6.8899999,121.9300003 6.8899999,125.1699982 
					3.5899999,125.1699982 0.75,125.1699982 				"/>
				<polygon class="st0" points="0.75,127.1600037 3.5899999,127.1600037 6.8899999,127.1600037 6.8899999,130.3999939 
					3.5899999,130.3999939 0.75,130.3999939 				"/>
			</g>
			<g>
				<line class="st1" x1="46.3400002" y1="57" x2="46.3400002" y2="143"/>
				<polyline class="st2" points="11.5,134.1999969 11.5,131.4100037 11.5,126.1699982 11.5,120.9400024 11.5,115.7099991 
					11.5,110.4700012 11.5,105.2399979 11.5,100.0100021 11.5,94.7600021 11.5,89.5299988 11.5,84.3000031 11.5,79.0599976 
					11.5,73.8300018 11.5,68.5999985 11.5,65.8000031 				"/>
				<polyline class="st2" points="6.8899999,134.1999969 6.8899999,132.3999939 6.8899999,131.4100037 6.8899999,130.3999939 
					6.8899999,127.1600037 6.8899999,126.1699982 6.8899999,125.1699982 6.8899999,121.9300003 6.8899999,120.9400024 
					6.8899999,119.9400024 6.8899999,116.6999969 6.8899999,115.7099991 6.8899999,114.6999969 6.8899999,111.4599991 
					6.8899999,110.4700012 6.8899999,109.4700012 6.8899999,106.2300034 6.8899999,105.2399979 6.8899999,104.2399979 
					6.8899999,101 6.8899999,100.0100021 6.8899999,99 6.8899999,95.7600021 6.8899999,94.7600021 6.8899999,93.7699966 
					6.8899999,90.5299988 6.8899999,89.5299988 6.8899999,88.5400009 6.8899999,85.3000031 6.8899999,84.3000031 
					6.8899999,83.3000031 6.8899999,80.0599976 6.8899999,79.0599976 6.8899999,78.0699997 6.8899999,74.8300018 
					6.8899999,73.8300018 6.8899999,72.8399963 6.8899999,69.5999985 6.8899999,68.5999985 6.8899999,67.5999985 
					6.8899999,65.8000031 				"/>
				<polyline class="st1" points="0.75,57 41.75,57 46.3400002,57 				"/>
				<polyline class="st2" points="6.8899999,65.8000031 11.5,65.8000031 35.5999985,65.8000031 35.5999985,67.5999985 				"/>
				<polyline class="st2" points="6.8899999,134.1999969 11.5,134.1999969 35.5999985,134.1999969 35.5999985,132.3999939 				"/>
				<line class="st1" x1="0.75" y1="143" x2="0.75" y2="132.3999939"/>
				<line class="st1" x1="0.75" y1="67.5999985" x2="0.75" y2="57"/>
				<polyline class="st1" points="46.3400002,143 41.75,143 0.75,143 				"/>
				<polyline class="st2" points="41.75,114.6999969 37.5,114.6999969 35.5999985,114.6999969 34.4000015,114.6999969 				"/>
				<polyline class="st2" points="41.75,109.4700012 37.5,109.4700012 35.5999985,109.4700012 34.4000015,109.4700012 				"/>
				<polyline class="st2" points="41.75,104.2399979 37.5,104.2399979 35.5999985,104.2399979 34.4000015,104.2399979 				"/>
				<polyline class="st2" points="41.75,116.6999969 37.5,116.6999969 35.5999985,116.6999969 34.4000015,116.6999969 				"/>
				<polyline class="st2" points="41.75,111.4599991 37.5,111.4599991 35.5999985,111.4599991 34.4000015,111.4599991 				"/>
				<polyline class="st2" points="41.75,106.2300034 37.5,106.2300034 35.5999985,106.2300034 34.4000015,106.2300034 				"/>
				<polyline class="st2" points="41.75,101 37.5,101 35.5999985,101 34.4000015,101 				"/>
				<polyline class="st2" points="41.75,132.3999939 37.5,132.3999939 35.5999985,132.3999939 34.4000015,132.3999939 				"/>
				<polyline class="st2" points="6.8899999,130.3999939 3.5899999,130.3999939 0.75,130.3999939 0.49,130.3999939 				"/>
				<polyline class="st2" points="6.8899999,125.1699982 3.5899999,125.1699982 0.75,125.1699982 0.49,125.1699982 				"/>
				<polyline class="st2" points="6.8899999,119.9400024 3.5899999,119.9400024 0.75,119.9400024 0.49,119.9400024 				"/>
				<polyline class="st2" points="6.8899999,114.6999969 3.5899999,114.6999969 0.75,114.6999969 0.49,114.6999969 				"/>
				<polyline class="st2" points="6.8899999,109.4700012 3.5899999,109.4700012 0.75,109.4700012 0.49,109.4700012 				"/>
				<polyline class="st2" points="6.8899999,104.2399979 3.5899999,104.2399979 0.75,104.2399979 0.49,104.2399979 				"/>
				<polyline class="st2" points="6.8899999,132.3999939 3.5899999,132.3999939 0.75,132.3999939 0.49,132.3999939 				"/>
				<polyline class="st2" points="6.8899999,127.1600037 3.5899999,127.1600037 0.75,127.1600037 0.49,127.1600037 				"/>
				<polyline class="st2" points="6.8899999,121.9300003 3.5899999,121.9300003 0.75,121.9300003 0.49,121.9300003 				"/>
				<polyline class="st2" points="6.8899999,116.6999969 3.5899999,116.6999969 0.75,116.6999969 0.49,116.6999969 				"/>
				<polyline class="st2" points="6.8899999,111.4599991 3.5899999,111.4599991 0.75,111.4599991 0.49,111.4599991 				"/>
				<polyline class="st2" points="6.8899999,106.2300034 3.5899999,106.2300034 0.75,106.2300034 0.49,106.2300034 				"/>
				<polyline class="st2" points="6.8899999,101 3.5899999,101 0.75,101 0.49,101 				"/>
				<line class="st2" x1="35.5999985" y1="85.3000031" x2="35.5999985" y2="88.5400009"/>
				<line class="st1" x1="0.75" y1="88.5400009" x2="0.75" y2="85.3000031"/>
				<line class="st2" x1="35.5999985" y1="69.5999985" x2="35.5999985" y2="72.8399963"/>
				<line class="st1" x1="0.75" y1="72.8399963" x2="0.75" y2="69.5999985"/>
				<line class="st2" x1="35.5999985" y1="121.9300003" x2="35.5999985" y2="125.1699982"/>
				<line class="st2" x1="35.5999985" y1="106.2300034" x2="35.5999985" y2="109.4700012"/>
				<line class="st1" x1="0.75" y1="125.1699982" x2="0.75" y2="121.9300003"/>
				<line class="st1" x1="0.75" y1="109.4700012" x2="0.75" y2="106.2300034"/>
				<line class="st2" x1="35.5999985" y1="101" x2="35.5999985" y2="104.2399979"/>
				<line class="st1" x1="0.75" y1="104.2399979" x2="0.75" y2="101"/>
				<line class="st2" x1="35.5999985" y1="127.1600037" x2="35.5999985" y2="130.3999939"/>
				<line class="st2" x1="35.5999985" y1="116.6999969" x2="35.5999985" y2="119.9400024"/>
				<line class="st2" x1="35.5999985" y1="111.4599991" x2="35.5999985" y2="114.6999969"/>
				<line class="st2" x1="35.5999985" y1="95.7600021" x2="35.5999985" y2="99"/>
				<line class="st2" x1="35.5999985" y1="90.5299988" x2="35.5999985" y2="93.7699966"/>
				<line class="st2" x1="35.5999985" y1="80.0599976" x2="35.5999985" y2="83.3000031"/>
				<line class="st1" x1="0.75" y1="130.3999939" x2="0.75" y2="127.1600037"/>
				<line class="st1" x1="0.75" y1="119.9400024" x2="0.75" y2="116.6999969"/>
				<line class="st1" x1="0.75" y1="114.6999969" x2="0.75" y2="111.4599991"/>
				<line class="st1" x1="0.75" y1="99" x2="0.75" y2="95.7600021"/>
				<line class="st1" x1="0.75" y1="93.7699966" x2="0.75" y2="90.5299988"/>
				<line class="st1" x1="0.75" y1="83.3000031" x2="0.75" y2="80.0599976"/>
				<line class="st2" x1="35.5999985" y1="74.8300018" x2="35.5999985" y2="78.0699997"/>
				<line class="st1" x1="0.75" y1="78.0699997" x2="0.75" y2="74.8300018"/>
				<polyline class="st2" points="41.75,130.3999939 37.5,130.3999939 35.5999985,130.3999939 34.4000015,130.3999939 				"/>
				<polyline class="st2" points="34.4000015,95.7600021 35.5999985,95.7600021 37.5,95.7600021 41.75,95.7600021 				"/>
				<polyline class="st2" points="34.4000015,90.5299988 35.5999985,90.5299988 37.5,90.5299988 41.75,90.5299988 				"/>
				<polyline class="st2" points="34.4000015,85.3000031 35.5999985,85.3000031 37.5,85.3000031 41.75,85.3000031 				"/>
				<polyline class="st2" points="34.4000015,80.0599976 35.5999985,80.0599976 37.5,80.0599976 41.75,80.0599976 				"/>
				<polyline class="st2" points="34.4000015,74.8300018 35.5999985,74.8300018 37.5,74.8300018 41.75,74.8300018 				"/>
				<polyline class="st2" points="34.4000015,69.5999985 35.5999985,69.5999985 37.5,69.5999985 41.75,69.5999985 				"/>
				<polyline class="st2" points="0.49,95.7600021 0.75,95.7600021 3.5899999,95.7600021 6.8899999,95.7600021 				"/>
				<polyline class="st2" points="0.49,90.5299988 0.75,90.5299988 3.5899999,90.5299988 6.8899999,90.5299988 				"/>
				<polyline class="st2" points="0.49,85.3000031 0.75,85.3000031 3.5899999,85.3000031 6.8899999,85.3000031 				"/>
				<polyline class="st2" points="0.49,80.0599976 0.75,80.0599976 3.5899999,80.0599976 6.8899999,80.0599976 				"/>
				<polyline class="st2" points="0.49,74.8300018 0.75,74.8300018 3.5899999,74.8300018 6.8899999,74.8300018 				"/>
				<polyline class="st2" points="0.49,69.5999985 0.75,69.5999985 3.5899999,69.5999985 6.8899999,69.5999985 				"/>
				<polyline class="st2" points="41.75,127.1600037 37.5,127.1600037 35.5999985,127.1600037 34.4000015,127.1600037 				"/>
				<polyline class="st2" points="41.75,125.1699982 37.5,125.1699982 35.5999985,125.1699982 34.4000015,125.1699982 				"/>
				<polyline class="st2" points="41.75,121.9300003 37.5,121.9300003 35.5999985,121.9300003 34.4000015,121.9300003 				"/>
				<polyline class="st2" points="41.75,119.9400024 37.5,119.9400024 35.5999985,119.9400024 34.4000015,119.9400024 				"/>
				<line class="st2" x1="37.5" y1="119.9400024" x2="37.5" y2="121.9300003"/>
				<polyline class="st2" points="34.4000015,119.9400024 34.4000015,120.9400024 34.4000015,121.9300003 				"/>
				<line class="st2" x1="37.5" y1="109.4700012" x2="37.5" y2="111.4599991"/>
				<polyline class="st2" points="34.4000015,109.4700012 34.4000015,110.4700012 34.4000015,111.4599991 				"/>
				<line class="st2" x1="37.5" y1="72.8399963" x2="37.5" y2="74.8300018"/>
				<polyline class="st2" points="34.4000015,72.8399963 34.4000015,73.8300018 34.4000015,74.8300018 				"/>
				<polyline class="st2" points="3.5899999,121.9300003 3.5899999,120.9400024 3.5899999,119.9400024 				"/>
				<line class="st2" x1="0.49" y1="121.9300003" x2="0.49" y2="119.9400024"/>
				<polyline class="st2" points="3.5899999,111.4599991 3.5899999,110.4700012 3.5899999,109.4700012 				"/>
				<line class="st2" x1="0.49" y1="111.4599991" x2="0.49" y2="109.4700012"/>
				<polyline class="st2" points="3.5899999,74.8300018 3.5899999,73.8300018 3.5899999,72.8399963 				"/>
				<line class="st2" x1="0.49" y1="74.8300018" x2="0.49" y2="72.8399963"/>
				<line class="st2" x1="37.5" y1="93.7699966" x2="37.5" y2="95.7600021"/>
				<polyline class="st2" points="34.4000015,93.7699966 34.4000015,94.7600021 34.4000015,95.7600021 				"/>
				<line class="st2" x1="37.5" y1="88.5400009" x2="37.5" y2="90.5299988"/>
				<polyline class="st2" points="34.4000015,88.5400009 34.4000015,89.5299988 34.4000015,90.5299988 				"/>
				<line class="st2" x1="37.5" y1="78.0699997" x2="37.5" y2="80.0599976"/>
				<polyline class="st2" points="34.4000015,78.0699997 34.4000015,79.0599976 34.4000015,80.0599976 				"/>
				<line class="st2" x1="37.5" y1="67.5999985" x2="37.5" y2="69.5999985"/>
				<polyline class="st2" points="34.4000015,67.5999985 34.4000015,68.5999985 34.4000015,69.5999985 				"/>
				<polyline class="st2" points="3.5899999,95.7600021 3.5899999,94.7600021 3.5899999,93.7699966 				"/>
				<line class="st2" x1="0.49" y1="95.7600021" x2="0.49" y2="93.7699966"/>
				<polyline class="st2" points="3.5899999,90.5299988 3.5899999,89.5299988 3.5899999,88.5400009 				"/>
				<line class="st2" x1="0.49" y1="90.5299988" x2="0.49" y2="88.5400009"/>
				<polyline class="st2" points="3.5899999,80.0599976 3.5899999,79.0599976 3.5899999,78.0699997 				"/>
				<line class="st2" x1="0.49" y1="80.0599976" x2="0.49" y2="78.0699997"/>
				<polyline class="st2" points="3.5899999,69.5999985 3.5899999,68.5999985 3.5899999,67.5999985 				"/>
				<line class="st2" x1="0.49" y1="69.5999985" x2="0.49" y2="67.5999985"/>
				<line class="st2" x1="37.5" y1="130.3999939" x2="37.5" y2="132.3999939"/>
				<polyline class="st2" points="34.4000015,130.3999939 34.4000015,131.4100037 34.4000015,132.3999939 				"/>
				<line class="st2" x1="37.5" y1="125.1699982" x2="37.5" y2="127.1600037"/>
				<polyline class="st2" points="34.4000015,125.1699982 34.4000015,126.1699982 34.4000015,127.1600037 				"/>
				<line class="st2" x1="37.5" y1="114.6999969" x2="37.5" y2="116.6999969"/>
				<polyline class="st2" points="34.4000015,114.6999969 34.4000015,115.7099991 34.4000015,116.6999969 				"/>
				<line class="st2" x1="37.5" y1="104.2399979" x2="37.5" y2="106.2300034"/>
				<polyline class="st2" points="34.4000015,104.2399979 34.4000015,105.2399979 34.4000015,106.2300034 				"/>
				<line class="st2" x1="37.5" y1="99" x2="37.5" y2="101"/>
				<polyline class="st2" points="34.4000015,99 34.4000015,100.0100021 34.4000015,101 				"/>
				<line class="st2" x1="37.5" y1="83.3000031" x2="37.5" y2="85.3000031"/>
				<polyline class="st2" points="34.4000015,83.3000031 34.4000015,84.3000031 34.4000015,85.3000031 				"/>
				<polyline class="st2" points="3.5899999,132.3999939 3.5899999,131.4100037 3.5899999,130.3999939 				"/>
				<line class="st2" x1="0.49" y1="132.3999939" x2="0.49" y2="130.3999939"/>
				<polyline class="st2" points="3.5899999,127.1600037 3.5899999,126.1699982 3.5899999,125.1699982 				"/>
				<line class="st2" x1="0.49" y1="127.1600037" x2="0.49" y2="125.1699982"/>
				<polyline class="st2" points="3.5899999,116.6999969 3.5899999,115.7099991 3.5899999,114.6999969 				"/>
				<line class="st2" x1="0.49" y1="116.6999969" x2="0.49" y2="114.6999969"/>
				<polyline class="st2" points="3.5899999,106.2300034 3.5899999,105.2399979 3.5899999,104.2399979 				"/>
				<line class="st2" x1="0.49" y1="106.2300034" x2="0.49" y2="104.2399979"/>
				<polyline class="st2" points="3.5899999,101 3.5899999,100.0100021 3.5899999,99 				"/>
				<line class="st2" x1="0.49" y1="101" x2="0.49" y2="99"/>
				<polyline class="st2" points="3.5899999,85.3000031 3.5899999,84.3000031 3.5899999,83.3000031 				"/>
				<line class="st2" x1="0.49" y1="85.3000031" x2="0.49" y2="83.3000031"/>
				<polyline class="st1" points="41.75,57 41.75,67.5999985 41.75,69.5999985 41.75,72.8399963 41.75,74.8300018 41.75,78.0699997 
					41.75,80.0599976 41.75,83.3000031 41.75,85.3000031 41.75,88.5400009 41.75,90.5299988 41.75,93.7699966 41.75,95.7600021 
					41.75,99 41.75,101 41.75,104.2399979 41.75,106.2300034 41.75,109.4700012 41.75,111.4599991 41.75,114.6999969 
					41.75,116.6999969 41.75,119.9400024 41.75,121.9300003 41.75,125.1699982 41.75,127.1600037 41.75,130.3999939 
					41.75,132.3999939 41.75,143 				"/>
				<polyline class="st2" points="0.49,67.5999985 0.75,67.5999985 3.5899999,67.5999985 6.75,67.5999985 				"/>
				<polyline class="st2" points="34.4000015,88.5400009 35.5999985,88.5400009 37.5,88.5400009 41.75,88.5400009 				"/>
				<polyline class="st2" points="0.49,88.5400009 0.75,88.5400009 3.5899999,88.5400009 6.8899999,88.5400009 				"/>
				<polyline class="st2" points="34.4000015,72.8399963 35.5999985,72.8399963 37.5,72.8399963 41.75,72.8399963 				"/>
				<polyline class="st2" points="0.49,72.8399963 0.75,72.8399963 3.5899999,72.8399963 6.8899999,72.8399963 				"/>
				<polyline class="st2" points="34.4000015,99 35.5999985,99 37.5,99 41.75,99 				"/>
				<polyline class="st2" points="34.4000015,93.7699966 35.5999985,93.7699966 37.5,93.7699966 41.75,93.7699966 				"/>
				<polyline class="st2" points="34.4000015,83.3000031 35.5999985,83.3000031 37.5,83.3000031 41.75,83.3000031 				"/>
				<polyline class="st2" points="0.49,99 0.75,99 3.5899999,99 6.8899999,99 				"/>
				<polyline class="st2" points="0.49,93.7699966 0.75,93.7699966 3.5899999,93.7699966 6.8899999,93.7699966 				"/>
				<polyline class="st2" points="0.49,83.3000031 0.75,83.3000031 3.5899999,83.3000031 6.8899999,83.3000031 				"/>
				<polyline class="st2" points="34.4000015,78.0699997 35.5999985,78.0699997 37.5,78.0699997 41.75,78.0699997 				"/>
				<polyline class="st2" points="0.49,78.0699997 0.75,78.0699997 3.5899999,78.0699997 6.8899999,78.0699997 				"/>
				<polyline class="st2" points="34.4000015,67.5999985 35.5999985,67.5999985 37.5,67.5999985 41.75,67.5999985 				"/>
				<polyline class="st3" points="2.04,68.5999985 3.5899999,68.5999985 6.8899999,68.5999985 11.5,68.5999985 
					34.4000015,68.5999985 35.5999985,68.5999985 				"/>
				<polyline class="st3" points="2.04,73.8300018 3.5899999,73.8300018 6.8899999,73.8300018 11.5,73.8300018 
					34.4000015,73.8300018 35.5999985,73.8300018 				"/>
				<polyline class="st3" points="2.04,79.0599976 3.5899999,79.0599976 6.8899999,79.0599976 11.5,79.0599976 
					34.4000015,79.0599976 35.5999985,79.0599976 				"/>
				<polyline class="st3" points="2.04,84.3000031 3.5899999,84.3000031 6.8899999,84.3000031 11.5,84.3000031 
					34.4000015,84.3000031 35.5999985,84.3000031 				"/>
				<polyline class="st3" points="2.04,89.5299988 3.5899999,89.5299988 6.8899999,89.5299988 11.5,89.5299988 
					34.4000015,89.5299988 35.5999985,89.5299988 				"/>
				<polyline class="st3" points="2.04,94.7600021 3.5899999,94.7600021 6.8899999,94.7600021 11.5,94.7600021 
					34.4000015,94.7600021 35.5999985,94.7600021 				"/>
				<polyline class="st3" points="2.04,100.0100021 3.5899999,100.0100021 6.8899999,100.0100021 11.5,100.0100021 
					34.4000015,100.0100021 35.5999985,100.0100021 				"/>
				<polyline class="st3" points="2.04,105.2399979 3.5899999,105.2399979 6.8899999,105.2399979 11.5,105.2399979 
					34.4000015,105.2399979 35.5999985,105.2399979 				"/>
				<polyline class="st3" points="2.04,110.4700012 3.5899999,110.4700012 6.8899999,110.4700012 11.5,110.4700012 
					34.4000015,110.4700012 35.5999985,110.4700012 				"/>
				<polyline class="st3" points="2.04,115.7099991 3.5899999,115.7099991 6.8899999,115.7099991 11.5,115.7099991 
					34.4000015,115.7099991 35.5999985,115.7099991 				"/>
				<polyline class="st3" points="2.04,120.9400024 3.5899999,120.9400024 6.8899999,120.9400024 11.5,120.9400024 
					34.4000015,120.9400024 35.5999985,120.9400024 				"/>
				<polyline class="st3" points="2.04,126.1699982 3.5899999,126.1699982 6.8899999,126.1699982 11.5,126.1699982 
					34.4000015,126.1699982 35.5999985,126.1699982 				"/>
				<polyline class="st3" points="2.04,131.4100037 3.5899999,131.4100037 6.8899999,131.4100037 11.5,131.4100037 
					34.4000015,131.4100037 35.5999985,131.4100037 				"/>
			</g>
		</g>
	</g>
</g>
</svg>
