<?xml version="1.0" encoding="utf-8"?>
<!-- Generator: Adobe Illustrator 21.0.0, SVG Export Plug-In . SVG Version: 6.00 Build 0)  -->
<svg version="1.1" id="Layer_1" xmlns="http://www.w3.org/2000/svg" xmlns:xlink="http://www.w3.org/1999/xlink" x="0px" y="0px"
	 viewBox="0 0 124.0926208 200" style="enable-background:new 0 0 124.0926208 200;" xml:space="preserve">
<style type="text/css">
	.st0{fill:#ECF0F1;}
	.st1{fill:#797979;}
	.st2{fill:none;stroke:#FFFFFF;stroke-width:1.5;stroke-linecap:round;stroke-linejoin:round;}
</style>
<g>
	<g id="XMLID_61_">
		<g>
			<polygon class="st0" points="115.6079178,96.8350677 115.6725082,100 115.6079178,103.1649323 115.3980026,106.3137131 
				115.0588989,109.3979034 114.5744705,112.417511 113.9608612,115.3563766 113.2342224,118.1660538 112.3784027,120.8304138 
				111.4256897,123.3494415 110.3438034,125.6908417 109.1811752,127.8223267 107.9216614,129.7600403 106.5814056,131.4555359 
				105.1765671,132.9249725 103.7232819,134.1360321 102.2054062,135.0887451 100.6552353,135.7669525 99.0889206,136.1867828 
				97.5064545,136.3321075 95.9239883,136.1867828 94.3576736,135.7669525 92.8075027,135.0887451 91.4833984,134.2490692 
				97.5064545,134.2490692 99.0081787,134.1198883 100.4776154,133.7323456 101.9470444,133.086441 103.3680344,132.1821747 
				104.7405853,131.0357056 106.064682,129.663147 107.3241959,128.0645447 108.5191193,126.2398605 109.617157,124.221405 
				110.6344604,122.0091858 111.5387268,119.6516342 112.3461075,117.1326065 113.0243073,114.4682541 113.6056137,111.707016 
				114.0577469,108.865036 114.3806992,105.9423218 114.5744705,102.9873047 114.639061,100 114.5744705,97.0126953 
				114.3806992,94.0576782 114.0577469,91.134964 113.6056137,88.292984 113.0243073,85.5317459 112.3461075,82.8673935 
				111.5387268,80.3483658 110.6344604,77.9908142 109.617157,75.778595 108.5191193,73.7601395 107.3241959,71.935463 
				106.064682,70.3368454 104.7405853,68.9643021 103.3680344,67.8178253 101.9470444,66.913559 100.4776154,66.2676544 
				99.0081787,65.8801117 97.5064545,65.7509308 91.4833984,65.7509308 92.8075027,64.9112549 94.3576736,64.2330551 
				95.9239883,63.8132172 97.5064545,63.6678886 99.0889206,63.8132172 100.6552353,64.2330551 102.2054062,64.9112549 
				103.7232819,65.8639603 105.1765671,67.0750351 106.5814056,68.5444641 107.9216614,70.2399597 109.1811752,72.1776733 
				110.3438034,74.3091583 111.4256897,76.6505585 112.3784027,79.1695862 113.2342224,81.8339462 113.9608612,84.6436234 
				114.5744705,87.582489 115.0588989,90.6020966 115.3980026,93.6862869 			"/>
			<path class="st0" d="M60.6576195,99.5963135L60.6737671,100l-0.0161476,0.4036865l-0.0322952,0.4036942l-0.0322952,0.3875427
				l-0.0645905,0.3875427l-0.0807381,0.3713913l-0.0968857,0.3552475l-0.0968857,0.3391037l-0.1291809,0.3229523
				l-0.1291809,0.290657l-0.1614761,0.2745056l-0.1453285,0.2583618l-0.1776237,0.2099228l-0.1776237,0.1937714
				l-0.1937714,0.1453247l-0.1937714,0.1291809l-0.1937714,0.0807419l-0.1937714,0.048439l-0.209919,0.0161514l-0.1937714-0.0161514
				l-0.1937714-0.048439l-0.209919-0.0807419l-0.1937714-0.1291809l-0.1776237-0.1453247l-0.1776237-0.1937714l-0.1776237-0.2099228
				l-0.1614761-0.2583618l-0.1453285-0.2745056l-0.1291809-0.290657l-0.1291809-0.3229523l-0.1130333-0.3391037
				l-0.0807381-0.3552475l-0.0807381-0.3713913l-0.0645905-0.3875427l-0.0484428-0.3875427l-0.0161476-0.4036942L56.039402,100
				l0.0161476-0.4036865l0.0161476-0.4036942l0.0484428-0.3875427l0.0645905-0.3875427l0.0807381-0.3713913l0.0807381-0.3552475
				l0.1130333-0.3391037l0.1291809-0.3229523l0.1291809-0.290657l0.1453285-0.2745056l0.1614761-0.2583618l0.1776237-0.2099228
				l0.1776237-0.1937714l0.1776237-0.1453247l0.1937714-0.1291809l0.209919-0.0807419l0.1937714-0.048439l0.1937714-0.0161514
				l0.209919,0.0161514l0.1937714,0.048439l0.1937714,0.0807419l0.1937714,0.1291809l0.1937714,0.1453247l0.1776237,0.1937714
				l0.1776237,0.2099228l0.1453285,0.2583618l0.1614761,0.2745056l0.1291809,0.290657l0.1291809,0.3229523l0.0968857,0.3391037
				l0.0968857,0.3552475l0.0807381,0.3713913l0.0645905,0.3875427l0.0322952,0.3875427L60.6576195,99.5963135z M60.302372,100
				l-0.0161476-0.3390961l-0.0161476-0.3391037l-0.0322952-0.3229523l-0.0484428-0.3229523l-0.0645905-0.3229523
				l-0.0807381-0.290657l-0.0968857-0.290657l-0.0968857-0.2745056l-0.1130333-0.242218l-0.1291809-0.2260666l-0.1453285-0.2099152
				l-0.1291809-0.1776276l-0.1614761-0.1614761l-0.1453285-0.1291809l-0.1614761-0.0968857l-0.1776237-0.0807343
				l-0.1130333-0.0322952l-0.0484428-0.0161514l-0.1776237-0.0161438l-0.1614761,0.0161438l-0.1614761,0.0484467
				l-0.1776237,0.0807343l-0.1614761,0.0968857l-0.1453285,0.1291809l-0.1614761,0.1614761l-0.1453285,0.1776276
				l-0.1291809,0.2099152l-0.1291809,0.2260666l-0.1130333,0.242218l-0.0968857,0.2745056l-0.0968857,0.290657l-0.0807381,0.290657
				l-0.0645905,0.3229523l-0.0484428,0.3229523l-0.0322952,0.3229523l-0.0161476,0.3391037L56.4107971,100l0.0161476,0.3390961
				l0.0161476,0.3391037l0.0322952,0.3229523l0.0484428,0.3229523l0.0645905,0.3229523l0.0807381,0.290657l0.0968857,0.290657
				l0.0968857,0.2745056l0.1130333,0.242218l0.1291809,0.2260666l0.1291809,0.2099152l0.1453285,0.1776276l0.1614761,0.1614761
				l0.1453285,0.1291809l0.1614761,0.1130295l0.1776237,0.0645905l0.1614761,0.0484467l0.1614761,0.0161438l0.1776237-0.0161438
				l0.0484428-0.0161514l0.1130333-0.0322952l0.1776237-0.0645905l0.1614761-0.1130295l0.1453285-0.1291809l0.1614761-0.1614761
				l0.1291809-0.1776276l0.1453285-0.2099152l0.1291809-0.2260666l0.1130333-0.242218l0.0968857-0.2745056l0.0968857-0.290657
				l0.0807381-0.290657l0.0645905-0.3229523l0.0484428-0.3229523l0.0322952-0.3229523l0.0161476-0.3391037L60.302372,100z"/>
			<polygon class="st1" points="60.2862244,99.6609039 60.302372,100 60.2862244,100.3390961 60.2700768,100.6781998 
				60.2377815,101.001152 60.1893387,101.3241043 60.1247482,101.6470566 60.0440102,101.9377136 59.9471245,102.2283707 
				59.8502388,102.5028763 59.7372055,102.7450943 59.6080246,102.9711609 59.4626961,103.181076 59.3335152,103.3587036 
				59.172039,103.5201797 59.0267105,103.6493607 58.8652344,103.7623901 58.6876106,103.8269806 58.5745773,103.8592758 
				58.4453964,103.8269806 58.2839203,103.7623901 58.1224442,103.6493607 57.960968,103.5201797 57.8156395,103.3587036 
				57.670311,103.181076 57.5411301,102.9711609 57.4119492,102.7450943 57.2989159,102.5028763 57.1858826,102.2283707 
				57.1051445,101.9377136 57.0244064,101.6470566 56.959816,101.3241043 56.9113731,101.001152 56.8790779,100.6781998 
				56.8467827,100.3390961 56.8467827,100 56.8467827,99.6609039 56.8790779,99.3218002 56.9113731,98.998848 56.959816,98.6758957 
				57.0244064,98.3529434 57.1051445,98.0622864 57.1858826,97.7716293 57.2989159,97.4971237 57.4119492,97.2549057 
				57.5411301,97.0288391 57.670311,96.818924 57.8156395,96.6412964 57.960968,96.4798203 58.1224442,96.3506393 
				58.2839203,96.2537537 58.4453964,96.1730194 58.5745773,96.1407242 58.6876106,96.1730194 58.8652344,96.2537537 
				59.0267105,96.3506393 59.172039,96.4798203 59.3335152,96.6412964 59.4626961,96.818924 59.6080246,97.0288391 
				59.7372055,97.2549057 59.8502388,97.4971237 59.9471245,97.7716293 60.0440102,98.0622864 60.1247482,98.3529434 
				60.1893387,98.6758957 60.2377815,98.998848 60.2700768,99.3218002 			"/>
			<polygon class="st1" points="37.0013733,96.8350677 37.0659637,100 32.6899643,100 32.6253738,97.5940094 32.4800453,95.2203064 
				32.2216835,92.8627548 31.8502884,90.5698013 31.3981552,88.3575745 30.8329906,86.2260895 30.1870861,84.1914902 
				29.4604435,82.2860794 28.6530628,80.5098419 27.7649441,78.8950806 26.8122368,77.4256439 25.7949371,76.1338348 
				24.7291946,75.0196533 23.6150093,74.0992432 22.7430401,73.5502243 22.4685307,73.3887482 21.3059025,72.8558731 
				20.1109791,72.5490723 18.8999081,72.4521866 17.7049866,72.5490723 16.5100632,72.8558731 15.347436,73.3887482 
				14.2009554,74.0992432 13.086771,75.0196533 12.0210285,76.1338348 11.0037298,77.4256439 10.0510206,78.8950806 
				9.1629028,80.5098419 8.3555222,82.2860794 7.6127324,84.1914902 6.9668283,86.2260895 6.4178095,88.3575745 
				5.9656768,90.5698013 5.5942817,92.8627548 5.3359199,95.2203064 5.1744442,97.5940094 5.1260014,100 0.75,100 
				0.8145904,96.8350677 1.0245093,93.6862869 1.3636091,90.6020966 1.8318896,87.582489 2.4454987,84.6436234 
				3.1721408,81.8339462 4.0279641,79.1695862 4.9968204,76.6505585 6.0625625,74.3091583 7.2251902,72.1776733 
				8.4847031,70.2399597 9.824954,68.5444641 11.2297964,67.0750351 12.6992283,65.8639603 14.2009554,64.9112549 
				15.7511263,64.2330551 17.3174438,63.8132172 18.8999081,63.6678886 20.4823742,63.8132172 22.0648403,64.2330551 
				23.6150093,64.9112549 25.1167374,65.8639603 26.5861702,67.0750351 27.9910107,68.5444641 29.3312626,70.2399597 
				30.5746288,72.1776733 31.7534027,74.3091583 32.8191452,76.6505585 33.788002,79.1695862 34.6276779,81.8339462 
				35.3704681,84.6436234 35.9679298,87.582489 36.4523582,90.6020966 36.7914581,93.6862869 			"/>
			<polygon class="st1" points="37.0659637,100 37.0013733,103.1649323 36.7914581,106.3137131 36.4523582,109.3979034 
				35.9679298,112.417511 35.3704681,115.3563766 34.6276779,118.1660538 33.788002,120.8304138 32.8191452,123.3494415 
				31.7534027,125.6908417 30.5746288,127.8223267 29.3312626,129.7600403 27.9910107,131.4555359 26.5861702,132.9249725 
				25.1167374,134.1360321 23.6150093,135.0887451 22.0648403,135.7669525 20.4823742,136.1867828 18.8999081,136.3321075 
				17.3174438,136.1867828 15.7511263,135.7669525 14.2009554,135.0887451 12.6992283,134.1360321 11.2297964,132.9249725 
				9.824954,131.4555359 8.4847031,129.7600403 7.2251902,127.8223267 6.0625625,125.6908417 4.9968204,123.3494415 
				4.0279641,120.8304138 3.1721408,118.1660538 2.4454987,115.3563766 1.8318896,112.417511 1.3636091,109.3979034 
				1.0245093,106.3137131 0.8145904,103.1649323 0.75,100 5.1260014,100 5.1744442,102.4059906 5.3359199,104.7796936 
				5.5942817,107.1372452 5.9656768,109.4301987 6.4178095,111.6424255 6.9668283,113.7739105 7.6127324,115.8085098 
				8.3555222,117.7139206 9.1629028,119.4901581 10.0510206,121.1049194 11.0037298,122.5743561 12.0210285,123.8661652 
				13.086771,124.9803467 14.2009554,125.9007568 15.347436,126.6112518 16.5100632,127.1441269 17.7049866,127.4509277 
				18.8999081,127.5478134 20.1109791,127.4509277 21.3059025,127.1441269 22.4685307,126.6112518 22.7430401,126.4497757 
				23.6150093,125.9007568 24.7291946,124.9803467 25.7949371,123.8661652 26.8122368,122.5743561 27.7649441,121.1049194 
				28.6530628,119.4901581 29.4604435,117.7139206 30.1870861,115.8085098 30.8329906,113.7739105 31.3981552,111.6424255 
				31.8502884,109.4301987 32.2216835,107.1372452 32.4800453,104.7796936 32.6253738,102.4059906 32.6899643,100 			"/>
		</g>
		<g>
			<polyline class="st2" points="32.5930786,65.7509308 91.4833984,65.7509308 97.5064545,65.7509308 99.0081787,65.8801117 
				100.4776154,66.2676544 101.9470444,66.913559 103.3680344,67.8178253 104.7405853,68.9643021 106.064682,70.3368454 
				107.3241959,71.935463 108.5191193,73.7601395 109.617157,75.778595 110.6344604,77.9908142 111.5387268,80.3483658 
				112.3461075,82.8673935 113.0243073,85.5317459 113.6056137,88.292984 114.0577469,91.134964 114.3806992,94.0576782 
				114.5744705,97.0126953 114.639061,100 114.5744705,102.9873047 114.3806992,105.9423218 114.0577469,108.865036 
				113.6056137,111.707016 113.0243073,114.4682541 112.3461075,117.1326065 111.5387268,119.6516342 110.6344604,122.0091858 
				109.617157,124.221405 108.5191193,126.2398605 107.3241959,128.0645447 106.064682,129.663147 104.7405853,131.0357056 
				103.3680344,132.1821747 101.9470444,133.086441 100.4776154,133.7323456 99.0081787,134.1198883 97.5064545,134.2490692 
				91.4833984,134.2490692 32.5930786,134.2490692 			"/>
			<polyline class="st2" points="97.5064545,63.6678886 105.1765671,63.6678886 106.7590332,63.8132172 108.3253479,64.2330551 
				109.8755188,64.9112549 111.3772507,65.8639603 112.8466797,67.0750351 114.2515182,68.5444641 115.591774,70.2399597 
				116.8512878,72.1776733 118.013916,74.3091583 119.0796585,76.6505585 120.0485153,79.1695862 120.904335,81.8339462 
				121.6309738,84.6436234 122.2445831,87.582489 122.7128677,90.6020966 123.0519638,93.6862869 123.2618866,96.8350677 
				123.3426208,100 123.2618866,103.1649323 123.0519638,106.3137131 122.7128677,109.3979034 122.2445831,112.417511 
				121.6309738,115.3563766 120.904335,118.1660538 120.0485153,120.8304138 119.0796585,123.3494415 118.013916,125.6908417 
				116.8512878,127.8223267 115.591774,129.7600403 114.2515182,131.4555359 112.8466797,132.9249725 111.3772507,134.1360321 
				109.8755188,135.0887451 108.3253479,135.7669525 106.7590332,136.1867828 105.1765671,136.3321075 97.5064545,136.3321075 			
				"/>
			<polyline class="st2" points="18.8999081,136.3321075 26.5700226,136.3321075 28.1524868,136.1867828 29.7188053,135.7669525 
				31.2689743,135.0887451 32.5930786,134.2490692 32.78685,134.1360321 34.2401352,132.9249725 35.6449776,131.4555359 
				36.9852257,129.7600403 38.2447395,127.8223267 39.4073677,125.6908417 40.4892578,123.3494415 41.441967,120.8304138 
				42.2977905,118.1660538 43.0244331,115.3563766 43.6380424,112.417511 44.1224709,109.3979034 44.4615707,106.3137131 
				44.6714897,103.1649323 44.7360802,100 44.6714897,96.8350677 44.4615707,93.6862869 44.1224709,90.6020966 
				43.6380424,87.582489 43.0244331,84.6436234 42.2977905,81.8339462 41.441967,79.1695862 40.4892578,76.6505585 
				39.4073677,74.3091583 38.2447395,72.1776733 36.9852257,70.2399597 35.6449776,68.5444641 34.2401352,67.0750351 
				32.78685,65.8639603 32.5930786,65.7509308 31.2689743,64.9112549 29.7188053,64.2330551 28.1524868,63.8132172 
				26.5700226,63.6678886 18.8999081,63.6678886 17.3174438,63.8132172 15.7511263,64.2330551 14.2009554,64.9112549 
				12.6992283,65.8639603 11.2297964,67.0750351 9.824954,68.5444641 8.4847031,70.2399597 7.2251902,72.1776733 
				6.0625625,74.3091583 4.9968204,76.6505585 4.0279641,79.1695862 3.1721408,81.8339462 2.4454987,84.6436234 
				1.8318896,87.582489 1.3636091,90.6020966 1.0245093,93.6862869 0.8145904,96.8350677 0.75,100 0.8145904,103.1649323 
				1.0245093,106.3137131 1.3636091,109.3979034 1.8318896,112.417511 2.4454987,115.3563766 3.1721408,118.1660538 
				4.0279641,120.8304138 4.9968204,123.3494415 6.0625625,125.6908417 7.2251902,127.8223267 8.4847031,129.7600403 
				9.824954,131.4555359 11.2297964,132.9249725 12.6992283,134.1360321 14.2009554,135.0887451 15.7511263,135.7669525 
				17.3174438,136.1867828 18.8999081,136.3321075 20.4823742,136.1867828 22.0648403,135.7669525 23.6150093,135.0887451 
				25.1167374,134.1360321 26.5861702,132.9249725 27.9910107,131.4555359 29.3312626,129.7600403 30.5746288,127.8223267 
				31.7534027,125.6908417 32.8191452,123.3494415 33.788002,120.8304138 34.6276779,118.1660538 35.3704681,115.3563766 
				35.9679298,112.417511 36.4523582,109.3979034 36.7914581,106.3137131 37.0013733,103.1649323 37.0659637,100 
				37.0013733,96.8350677 36.7914581,93.6862869 36.4523582,90.6020966 35.9679298,87.582489 35.3704681,84.6436234 
				34.6276779,81.8339462 33.788002,79.1695862 32.8191452,76.6505585 31.7534027,74.3091583 30.5746288,72.1776733 
				29.3312626,70.2399597 27.9910107,68.5444641 26.5861702,67.0750351 25.1167374,65.8639603 23.6150093,64.9112549 
				22.0648403,64.2330551 20.4823742,63.8132172 18.8999081,63.6678886 			"/>
			<polyline class="st2" points="32.6899643,100 32.6253738,97.5940094 32.4800453,95.2203064 32.2216835,92.8627548 
				31.8502884,90.5698013 31.3981552,88.3575745 30.8329906,86.2260895 30.1870861,84.1914902 29.4604435,82.2860794 
				28.6530628,80.5098419 27.7649441,78.8950806 26.8122368,77.4256439 25.7949371,76.1338348 24.7291946,75.0196533 
				23.6150093,74.0992432 22.7430401,73.5502243 22.4685307,73.3887482 21.3059025,72.8558731 20.1109791,72.5490723 
				18.8999081,72.4521866 17.7049866,72.5490723 16.5100632,72.8558731 15.347436,73.3887482 14.2009554,74.0992432 
				13.086771,75.0196533 12.0210285,76.1338348 11.0037298,77.4256439 10.0510206,78.8950806 9.1629028,80.5098419 
				8.3555222,82.2860794 7.6127324,84.1914902 6.9668283,86.2260895 6.4178095,88.3575745 5.9656768,90.5698013 
				5.5942817,92.8627548 5.3359199,95.2203064 5.1744442,97.5940094 5.1260014,100 5.1744442,102.4059906 5.3359199,104.7796936 
				5.5942817,107.1372452 5.9656768,109.4301987 6.4178095,111.6424255 6.9668283,113.7739105 7.6127324,115.8085098 
				8.3555222,117.7139206 9.1629028,119.4901581 10.0510206,121.1049194 11.0037298,122.5743561 12.0210285,123.8661652 
				13.086771,124.9803467 14.2009554,125.9007568 15.347436,126.6112518 16.5100632,127.1441269 17.7049866,127.4509277 
				18.8999081,127.5478134 20.1109791,127.4509277 21.3059025,127.1441269 22.4685307,126.6112518 22.7430401,126.4497757 
				23.6150093,125.9007568 24.7291946,124.9803467 25.7949371,123.8661652 26.8122368,122.5743561 27.7649441,121.1049194 
				28.6530628,119.4901581 29.4604435,117.7139206 30.1870861,115.8085098 30.8329906,113.7739105 31.3981552,111.6424255 
				31.8502884,109.4301987 32.2216835,107.1372452 32.4800453,104.7796936 32.6253738,102.4059906 32.6899643,100 			"/>
			<polyline class="st2" points="91.4833984,65.7509308 92.8075027,64.9112549 94.3576736,64.2330551 95.9239883,63.8132172 
				97.5064545,63.6678886 99.0889206,63.8132172 100.6552353,64.2330551 102.2054062,64.9112549 103.7232819,65.8639603 
				105.1765671,67.0750351 106.5814056,68.5444641 107.9216614,70.2399597 109.1811752,72.1776733 110.3438034,74.3091583 
				111.4256897,76.6505585 112.3784027,79.1695862 113.2342224,81.8339462 113.9608612,84.6436234 114.5744705,87.582489 
				115.0588989,90.6020966 115.3980026,93.6862869 115.6079178,96.8350677 115.6725082,100 115.6079178,103.1649323 
				115.3980026,106.3137131 115.0588989,109.3979034 114.5744705,112.417511 113.9608612,115.3563766 113.2342224,118.1660538 
				112.3784027,120.8304138 111.4256897,123.3494415 110.3438034,125.6908417 109.1811752,127.8223267 107.9216614,129.7600403 
				106.5814056,131.4555359 105.1765671,132.9249725 103.7232819,134.1360321 102.2054062,135.0887451 100.6552353,135.7669525 
				99.0889206,136.1867828 97.5064545,136.3321075 95.9239883,136.1867828 94.3576736,135.7669525 92.8075027,135.0887451 
				91.4833984,134.2490692 			"/>
			<polyline class="st2" points="22.7430401,126.4497757 21.8549213,125.9007568 20.7568836,124.9803467 19.6749935,123.8661652 
				18.6738434,122.5743561 17.7211342,121.1049194 16.8330154,119.4901581 16.0094872,117.7139206 15.2828455,115.8085098 
				14.636941,113.7739105 14.0879221,111.6424255 13.6196423,109.4301987 13.2643948,107.1372452 13.0060329,104.7796936 
				12.8445568,102.4059906 12.796114,100 12.8445568,97.5940094 13.0060329,95.2203064 13.2643948,92.8627548 
				13.6196423,90.5698013 14.0879221,88.3575745 14.636941,86.2260895 15.2828455,84.1914902 16.0094872,82.2860794 
				16.8330154,80.5098419 17.7211342,78.8950806 18.6738434,77.4256439 19.6749935,76.1338348 20.7568836,75.0196533 
				21.8549213,74.0992432 22.7430401,73.5502243 			"/>
			<polyline class="st2" points="60.302372,100 60.2862244,99.6609039 60.2700768,99.3218002 60.2377815,98.998848 
				60.1893387,98.6758957 60.1247482,98.3529434 60.0440102,98.0622864 59.9471245,97.7716293 59.8502388,97.4971237 
				59.7372055,97.2549057 59.6080246,97.0288391 59.4626961,96.818924 59.3335152,96.6412964 59.172039,96.4798203 
				59.0267105,96.3506393 58.8652344,96.2537537 58.6876106,96.1730194 58.5745773,96.1407242 58.5261345,96.1245728 
				58.3485107,96.108429 58.1870346,96.1245728 58.0255585,96.1730194 57.8479347,96.2537537 57.6864586,96.3506393 
				57.5411301,96.4798203 57.3796539,96.6412964 57.2343254,96.818924 57.1051445,97.0288391 56.9759636,97.2549057 
				56.8629303,97.4971237 56.7660446,97.7716293 56.6691589,98.0622864 56.5884209,98.3529434 56.5238304,98.6758957 
				56.4753876,98.998848 56.4430923,99.3218002 56.4269447,99.6609039 56.4107971,100 56.4269447,100.3390961 
				56.4430923,100.6781998 56.4753876,101.001152 56.5238304,101.3241043 56.5884209,101.6470566 56.6691589,101.9377136 
				56.7660446,102.2283707 56.8629303,102.5028763 56.9759636,102.7450943 57.1051445,102.9711609 57.2343254,103.181076 
				57.3796539,103.3587036 57.5411301,103.5201797 57.6864586,103.6493607 57.8479347,103.7623901 58.0255585,103.8269806 
				58.1870346,103.8754272 58.3485107,103.891571 58.5261345,103.8754272 58.5745773,103.8592758 58.6876106,103.8269806 
				58.8652344,103.7623901 59.0267105,103.6493607 59.172039,103.5201797 59.3335152,103.3587036 59.4626961,103.181076 
				59.6080246,102.9711609 59.7372055,102.7450943 59.8502388,102.5028763 59.9471245,102.2283707 60.0440102,101.9377136 
				60.1247482,101.6470566 60.1893387,101.3241043 60.2377815,101.001152 60.2700768,100.6781998 60.2862244,100.3390961 
				60.302372,100 			"/>
			<polyline class="st2" points="58.3485107,104.6182175 58.5584297,104.602066 58.7522011,104.553627 58.9459724,104.4728851 
				59.1397438,104.3437042 59.3335152,104.1983795 59.5111389,104.0046082 59.6887627,103.7946854 59.8340912,103.5363235 
				59.9955673,103.2618179 60.1247482,102.9711609 60.2539291,102.6482086 60.3508148,102.3091049 60.4477005,101.9538574 
				60.5284386,101.5824661 60.593029,101.1949234 60.6253242,100.8073807 60.6576195,100.4036865 60.6737671,100 
				60.6576195,99.5963135 60.6253242,99.1926193 60.593029,98.8050766 60.5284386,98.4175339 60.4477005,98.0461426 
				60.3508148,97.6908951 60.2539291,97.3517914 60.1247482,97.0288391 59.9955673,96.7381821 59.8340912,96.4636765 
				59.6887627,96.2053146 59.5111389,95.9953918 59.3335152,95.8016205 59.1397438,95.6562958 58.9459724,95.5271149 
				58.7522011,95.446373 58.5584297,95.397934 58.3485107,95.3817825 			"/>
			<polyline class="st2" points="104.595253,95.3817825 104.8051758,95.397934 104.9989471,95.446373 105.1927109,95.5271149 
				105.3864822,95.6562958 105.5802536,95.8016205 105.7578812,95.9953918 105.9193573,96.2053146 106.0808334,96.4636765 
				106.2423096,96.7381821 106.3714905,97.0288391 106.5006714,97.3517914 106.5975571,97.6908951 106.6944427,98.0461426 
				106.775177,98.4175339 106.8397675,98.8050766 106.8720627,99.1926193 106.9043579,99.5963135 106.9043579,100 
				106.9043579,100.4036865 106.8720627,100.8073807 106.8397675,101.1949234 106.775177,101.5824661 106.6944427,101.9538574 
				106.5975571,102.3091049 106.5006714,102.6482086 106.3714905,102.9711609 106.2423096,103.2618179 106.0808334,103.5363235 
				105.9193573,103.7946854 105.7578812,104.0046082 105.5802536,104.1983795 105.3864822,104.3437042 105.1927109,104.4728851 
				104.9989471,104.553627 104.8051758,104.602066 104.595253,104.6182175 58.3485107,104.6182175 58.1547394,104.602066 
				57.960968,104.553627 57.751049,104.4728851 57.5572777,104.3437042 57.3796539,104.1983795 57.2020302,104.0046082 
				57.0244064,103.7946854 56.8629303,103.5363235 56.7176018,103.2618179 56.5884209,102.9711609 56.45924,102.6482086 
				56.3462067,102.3091049 56.2654686,101.9538574 56.1847305,101.5824661 56.1201401,101.1949234 56.0716972,100.8073807 
				56.0555496,100.4036865 56.039402,100 56.0555496,99.5963135 56.0716972,99.1926193 56.1201401,98.8050766 
				56.1847305,98.4175339 56.2654686,98.0461426 56.3462067,97.6908951 56.45924,97.3517914 56.5884209,97.0288391 
				56.7176018,96.7381821 56.8629303,96.4636765 57.0244064,96.2053146 57.2020302,95.9953918 57.3796539,95.8016205 
				57.5572777,95.6562958 57.751049,95.5271149 57.960968,95.446373 58.1547394,95.397934 58.3485107,95.3817825 
				104.595253,95.3817825 			"/>
			<polyline class="st2" points="58.5745773,103.8592758 58.4453964,103.8269806 58.2839203,103.7623901 58.1224442,103.6493607 
				57.960968,103.5201797 57.8156395,103.3587036 57.670311,103.181076 57.5411301,102.9711609 57.4119492,102.7450943 
				57.2989159,102.5028763 57.1858826,102.2283707 57.1051445,101.9377136 57.0244064,101.6470566 56.959816,101.3241043 
				56.9113731,101.001152 56.8790779,100.6781998 56.8467827,100.3390961 56.8467827,100 56.8467827,99.6609039 
				56.8790779,99.3218002 56.9113731,98.998848 56.959816,98.6758957 57.0244064,98.3529434 57.1051445,98.0622864 
				57.1858826,97.7716293 57.2989159,97.4971237 57.4119492,97.2549057 57.5411301,97.0288391 57.670311,96.818924 
				57.8156395,96.6412964 57.960968,96.4798203 58.1224442,96.3506393 58.2839203,96.2537537 58.4453964,96.1730194 
				58.5745773,96.1407242 			"/>
		</g>
	</g>
</g>
</svg>
