<?xml version="1.0" encoding="utf-8"?>
<!-- Generator: Adobe Illustrator 21.0.0, SVG Export Plug-In . SVG Version: 6.00 Build 0)  -->
<svg version="1.1" id="Layer_1" xmlns="http://www.w3.org/2000/svg" xmlns:xlink="http://www.w3.org/1999/xlink" x="0px" y="0px"
	 viewBox="0 0 92.0390167 200" style="enable-background:new 0 0 92.0390167 200;" xml:space="preserve">
<style type="text/css">
	.st0{fill:#ECF0F1;}
	.st1{fill:none;stroke:#000000;stroke-width:1.5;stroke-linecap:round;stroke-linejoin:round;}
	.st2{fill:none;stroke:#000000;stroke-width:0.75;stroke-linecap:round;stroke-linejoin:round;stroke-dasharray:1.5;}
</style>
<g>
	<g id="XMLID_51_">
		<g>
			<polygon class="st0" points="39.3251648,107.7575607 39.3251648,113.3178024 39.1676521,113.3650589 38.0965576,113.6170807 
				37.3404884,113.7273407 25.6056995,113.7273407 25.6056995,86.2726593 37.3404884,86.2726593 38.0965576,86.3829193 
				39.1676521,86.6349411 39.3251648,86.6821976 			"/>
		</g>
		<g>
			<line class="st1" x1="17.6039925" y1="136.4723511" x2="17.6039925" y2="63.5276451"/>
			<line class="st1" x1="20.5022488" y1="136.4723511" x2="20.5022488" y2="63.5276451"/>
			<polyline class="st1" points="35.9701195,113.8376007 35.6235886,115.4599915 34.899025,118.2952423 34.0326958,120.9887314 
				33.0718613,123.524704 31.9850159,125.871666 30.8036613,128.0296021 29.5435486,129.9827728 28.1889286,131.6839294 
				26.7870541,133.164566 25.3064232,134.3931732 23.7785378,135.3540039 22.2191505,136.031311 20.6440105,136.456604 
				20.5022488,136.4723511 19.0531197,136.5983582 			"/>
			<polyline class="st1" points="35.9701195,86.1623993 35.6235886,84.5400085 34.899025,81.7047577 34.0326958,79.0112686 
				33.0718613,76.475296 31.9850159,74.128334 30.8036613,71.9703903 29.5435486,70.0329742 28.1889286,68.3160706 
				26.7870541,66.8354416 25.3064232,65.6225815 23.7785378,64.6617432 22.2191505,63.9686852 20.6440105,63.543396 
				20.5022488,63.5276451 19.0531197,63.4016342 			"/>
			<polyline class="st1" points="74.5925369,63.543396 76.1676788,63.9686852 77.727066,64.6617432 79.2549515,65.6225815 
				80.7198257,66.8354416 82.1374512,68.3160706 83.4920731,70.0329742 84.7521896,71.9703903 85.9335403,74.128334 
				87.0046387,76.475296 87.9812241,79.0112686 88.8317947,81.7047577 89.572113,84.5400085 90.1864166,87.4855194 
				90.6589584,90.5255356 91.0054932,93.64431 91.2102585,96.8103409 91.2890167,100.0078735 91.2102585,103.1896591 
				91.0054932,106.35569 90.6589584,109.4744644 90.1864166,112.5144806 89.572113,115.4599915 88.8317947,118.2952423 
				87.9812241,120.9887314 87.0046387,123.524704 85.9335403,125.871666 84.7521896,128.0296021 83.4920731,129.9827728 
				82.1374512,131.6839294 80.7198257,133.164566 79.2549515,134.3931732 77.727066,135.3540039 76.1676788,136.031311 
				74.5925369,136.456604 72.9858932,136.5983582 19.0531197,136.5983582 17.6039925,136.4723511 17.4464779,136.456604 
				15.8713388,136.031311 14.3119507,135.3540039 12.7840652,134.3931732 11.3191853,133.164566 9.9015598,131.6839294 
				8.5469398,129.9827728 7.2868285,128.0296021 6.105474,125.871666 5.0343795,123.524704 4.0577927,120.9887314 
				3.2072175,118.2952423 2.466902,115.4599915 1.8525976,112.5144806 1.3800558,109.4744644 1.0335251,106.35569 
				0.828757,103.1896591 0.75,100.0078735 0.828757,96.8103409 1.0335251,93.64431 1.3800558,90.5255356 1.8525976,87.4855194 
				2.466902,84.5400085 3.2072175,81.7047577 4.0577927,79.0112686 5.0343795,76.475296 6.105474,74.128334 7.2868285,71.9703903 
				8.5469398,70.0329742 9.9015598,68.3160706 11.3191853,66.8354416 12.7840652,65.6225815 14.3119507,64.6617432 
				15.8713388,63.9686852 17.4464779,63.543396 17.6039925,63.5276451 19.0531197,63.4016342 72.9858932,63.4016342 
				74.5925369,63.543396 			"/>
			<polyline class="st1" points="48.8232574,96.432312 48.9177628,96.8103409 49.0910301,97.5979156 49.2485428,98.7950211 
				49.327301,100.0078735 49.2485428,101.2049789 49.0910301,102.4020844 48.9177628,103.1896591 48.8232574,103.5834427 
				48.4294701,104.7332916 47.9569283,105.8516464 47.6891556,106.35569 47.3741264,106.9227371 46.6968193,107.9308243 
				45.956501,108.8916626 45.4367065,109.4744644 45.1374283,109.7894897 44.2396011,110.5928116 43.2945175,111.3331299 
				42.3179283,111.9789352 41.3413429,112.5144806 41.2940903,112.5302353 40.2387466,113.0027771 39.3251648,113.3178024 
				39.1676521,113.3650589 38.0965576,113.6170807 37.3404884,113.7273407 37.0254631,113.7745972 35.9701195,113.8376007 			"/>
			<polyline class="st1" points="35.9701195,86.1623993 37.0254631,86.2254028 37.3404884,86.2726593 38.0965576,86.3829193 
				39.1676521,86.6349411 39.3251648,86.6821976 40.2387466,86.9972229 41.2940903,87.4697647 41.3413429,87.4855194 
				42.3179283,88.0210648 43.2945175,88.6668701 44.2396011,89.4071884 45.1374283,90.2262573 45.4367065,90.5255356 
				45.956501,91.1083374 46.6968193,92.0691757 47.3741264,93.0930099 47.6891556,93.64431 47.9569283,94.1483536 
				48.4294701,95.2667084 48.8232574,96.4165573 			"/>
			<path class="st2" d="M39.3251648,107.7575607c0.5355492,0,1.0710945-0.0157471,1.6066437-0.0315018
				c0.5040436-0.0315018,1.023838-0.0630035,1.5278854-0.1732635c0.5355453-0.11026,1.0553436-0.2992783,1.5751381-0.6458054
				c0.5040436-0.33078,0.9450836-0.8505783,1.3546181-1.4648819c0.3937874-0.5828018,0.7560692-1.3073654,1.0553436-2.0476837
				c0.3150291-0.7560654,0.6143074-1.5278854,0.8820801-2.3469543c0.2835236-0.8190765,0.5513-1.6696472,0.8190727-2.5202255
				c0.22052-0.6930618,0.44104-1.4018707,0.6773109-2.0949326v-0.0157547
				c0.0472527-0.1260071,0.0787544-0.2362671,0.1260109-0.3622818c0.2677727-0.8033218,0.5512962-1.590889,0.8820763-2.3154526
				c0.1732674-0.3622818,0.3622818-0.6930618,0.5828018-0.9923401c0.2047691-0.2992783,0.4567909-0.4567871,0.7245636-0.4882965
				c0.2677727-0.0472488,0.5197983,0.1890182,0.7403145,0.44104c0.22052,0.2520218,0.4095383,0.6143036,0.5828018,0.9608383
				c0.3465309,0.7088089,0.6300583,1.5278854,0.9135818,2.3312073c0.2677727,0.7875671,0.5040436,1.590889,0.7560692,2.3942108
				c0.2677727,0.8348236,0.5355453,1.6854019,0.8190689,2.5044708c0.2677765,0.8033218,0.5513,1.6066437,0.8663292,2.3469543
				c0.33078,0.7718201,0.6773109,1.5121384,1.0868454,2.1421967c0.4095383,0.6300507,0.8663254,1.1340942,1.3546219,1.496376
				c0.4725418,0.3465347,0.9923363,0.5513,1.5121307,0.6615601c0.5197983,0.11026,1.0553436,0.1575165,1.5908928,0.1732635
				c0.5197945,0.0315094,1.0395927,0.0315094,1.5751381,0.0472565c0.0157509,0,0.0472565,0,0.0787582,0"/>
			<polyline class="st2" points="39.3251648,113.7273407 39.3251648,113.3178024 39.3251648,107.7575607 39.3251648,86.6821976 
				39.3251648,86.2726593 			"/>
			<polyline class="st2" points="63.0940208,86.2726593 63.0940208,107.7575607 63.0940208,113.7273407 			"/>
			<line class="st2" x1="25.6056995" y1="113.7273407" x2="25.6056995" y2="86.2726593"/>
			<polyline class="st2" points="63.0940208,113.7273407 39.3251648,113.7273407 37.3404884,113.7273407 25.6056995,113.7273407 			
				"/>
			<polyline class="st2" points="25.6056995,86.2726593 37.3404884,86.2726593 39.3251648,86.2726593 63.0940208,86.2726593 			"/>
		</g>
	</g>
</g>
</svg>
