<?xml version="1.0" encoding="utf-8"?>
<!-- Generator: Adobe Illustrator 21.0.0, SVG Export Plug-In . SVG Version: 6.00 Build 0)  -->
<svg version="1.1" id="Layer_1" xmlns="http://www.w3.org/2000/svg" xmlns:xlink="http://www.w3.org/1999/xlink" x="0px" y="0px"
	 viewBox="0 0 59.4832802 200" style="enable-background:new 0 0 59.4832802 200;" xml:space="preserve">
<style type="text/css">
	.st0{fill:#797979;}
	.st1{fill:none;stroke:#FFFFFF;stroke-width:1.5;stroke-linecap:round;stroke-linejoin:round;}
	.st2{fill:none;stroke:#FFFFFF;stroke-width:0.75;stroke-linecap:round;stroke-linejoin:round;}
	.st3{fill:none;stroke:#FFFFFF;stroke-linecap:round;stroke-linejoin:round;}
</style>
<g id="XMLID_30_">
	<g>
		<path class="st0" d="M26.1643772,140.8943024h-0.0574665l-0.0287323,0.0143738l-0.0431004,0.0143585l-0.0574665,0.0287323
			l-0.0430984,0.0431061l-0.0287342,0.0430908l-0.0430984,0.0574646l-0.0431004,0.0574799l-0.0287323,0.0574646
			l-0.0287342,0.0718231l-0.0287323,0.0861969l-0.0287323,0.0718384l-0.0143681,0.0861969l-0.0143661,0.1005707
			l-0.0143661,0.0861969l-0.0143661,0.1005707v0.1005554v0.1005707l0.0143661,0.0574646v0.1005707l0.0143661,0.0861969
			l0.0287342,0.1005707l0.0143661,0.0718231l0.0287323,0.0861969l0.0287342,0.0718384l0.0287323,0.0718384l0.0431004,0.0574646
			l0.0430984,0.0574646l0.0287342,0.0430908l0.0430984,0.0431061l0.0574665,0.0287323l0.0430984,0.0143738l0.0431004,0.0143585
			l0.0574665,0.0143738l0.0430984-0.0143738h0.0287342l0.0574665-0.0287323l0.0430984-0.0287323l0.0431004-0.0287323
			l0.0430984-0.0431061l0.0431004-0.0574646l0.0287323-0.0574646l0.0431004-0.0718231l0.0287323-0.0718384l0.0287342-0.0718384
			l0.0143661-0.0861969l0.0287323-0.0861969l0.0143661-0.0861969l0.0143681-0.0861969v-0.1005707v-0.1005707v-0.1005554v-0.0718384
			l-0.0143681-0.0861969l-0.0143661-0.1005707l-0.0143661-0.0861969l-0.0287323-0.0718384l-0.0287342-0.0861969
			l-0.0287323-0.0718231l-0.0287323-0.0718384l-0.0287342-0.0574646l-0.0430984-0.0574646l-0.0431004-0.0431061
			l-0.0431004-0.0430908l-0.0430984-0.0287323l-0.0431004-0.0287323l-0.0574665-0.0143738H26.1643772z M37.8156242,142.7906799
			l0.0431023-0.0574646l0.0287323-0.0574646l0.0430984-0.0718231l0.0287323-0.0718384l0.0287361-0.0718384l0.0143661-0.0861969
			l0.0287323-0.0861969l0.0143661-0.0861969v-0.0861969l0.0143661-0.1005707v-0.1005707v-0.1005554v-0.0718384l-0.0143661-0.0861969
			l-0.0143661-0.1005707l-0.0143661-0.0861969l-0.0287323-0.0718384l-0.0287361-0.0861969l-0.0287323-0.0718231
			l-0.0287323-0.0718384l-0.0430984-0.0574646l-0.0287323-0.0574646l-0.0431023-0.0431061l-0.0430984-0.0430908
			l-0.0430984-0.0287323l-0.0431023-0.0287323l-0.0574646-0.0143738h-0.0430984h-0.0574684l-0.0287323,0.0143738
			l-0.0430984,0.0143585l-0.0574684,0.0287323l-0.0430984,0.0431061l-0.0287323,0.0430908l-0.0430984,0.0574646
			l-0.0431023,0.0574799l-0.0287323,0.0574646l-0.0287323,0.0718231l-0.0287323,0.0861969l-0.0287323,0.0718384l-0.01437,0.0861969
			l-0.0143661,0.1005707l-0.0143661,0.0861969l-0.0143661,0.1005707v0.1005554v0.1005707l0.0143661,0.0574646v0.1005707
			l0.0143661,0.0861969l0.0287361,0.1005707l0.0143661,0.0718231l0.0287323,0.0861969l0.0287323,0.0718384l0.0287323,0.0718384
			l0.0431023,0.0574646l0.0430984,0.0574646l0.0287323,0.0430908l0.0430984,0.0431061l0.0574684,0.0287323l0.0430984,0.0143738
			l0.0430984,0.0143585l0.0574684,0.0143738l0.0430984-0.0143738h0.0287323l0.0574684-0.0287323l0.0430984-0.0287323
			l0.0430984-0.0287323L37.8156242,142.7906799z M18.9667492,142.5320892l0.0287342-0.0718384l0.0287323-0.0861969
			l0.0143661-0.0861969l0.0143661-0.0861969l0.0143681-0.0861969v-0.1005707l0.0143661-0.1005707l-0.0143661-0.1005554v-0.0718384
			l-0.0143681-0.0861969l-0.0143661-0.1005707l-0.0143661-0.0861969l-0.0143661-0.0718384l-0.0287342-0.0861969
			l-0.0287323-0.0718231l-0.0431004-0.0718384l-0.0287323-0.0574646l-0.0431004-0.0574646l-0.0430984-0.0431061
			l-0.0431004-0.0430908l-0.0430984-0.0287323l-0.0431004-0.0287323l-0.0431004-0.0143738h-0.0430984h-0.0143661h-0.0431004
			l-0.0430984,0.0143738l-0.0431004,0.0143585l-0.0431004,0.0287323l-0.0430984,0.0431061l-0.0431004,0.0430908
			l-0.0430984,0.0574646l-0.0287342,0.0574799l-0.0430984,0.0574646l-0.0287342,0.0718231l-0.0287323,0.0861969
			l-0.0143661,0.0718384l-0.0287342,0.0861969l-0.0143661,0.1005707l-0.0143661,0.0861969v0.1005707v0.1005554v0.1005707v0.0574646
			l0.0143661,0.1005707l0.0143661,0.0861969l0.0143661,0.1005707l0.0287342,0.0718231l0.0143661,0.0861969l0.0431004,0.0718384
			l0.0287323,0.0718384l0.0287323,0.0574646l0.0431004,0.0574646l0.0431004,0.0430908l0.0430984,0.0431061l0.0431004,0.0287323
			l0.0430984,0.0143738l0.0574665,0.0143585l0.0431004,0.0143738l0.0574646-0.0143738h0.0287342l0.0430984-0.0287323
			l0.0431004-0.0287323l0.0431004-0.0287323l0.0430984-0.0431061l0.0431004-0.0574646l0.0430984-0.0574646l0.0287342-0.0718231
			L18.9667492,142.5320892z M33.2470703,142.0723572l0.01437,0.1005707l0.0143661,0.0861969l0.0143661,0.1005707
			l0.0287323,0.0718231l0.0287323,0.0861969l0.0287323,0.0718384l0.0287361,0.0718384l0.0430984,0.0574646l0.0287323,0.0574646
			l0.0430984,0.0430908l0.0431023,0.0431061l0.0430984,0.0287323l0.0574646,0.0143738l0.0431023,0.0143585l0.0430984,0.0143738
			l0.0574646-0.0143738h0.0287323l0.0431023-0.0287323l0.0574646-0.0287323l0.0430984-0.0287323l0.0431023-0.0431061
			l0.0287323-0.0574646l0.0430984-0.0574646l0.0287323-0.0718231l0.0287361-0.0718384l0.0287323-0.0718384l0.0287323-0.0861969
			l0.0143661-0.0861969l0.0143661-0.0861969l0.0143661-0.0861969l0.0143661-0.1005707v-0.1005707v-0.1005554l-0.0143661-0.0718384
			v-0.0861969l-0.0143661-0.1005707l-0.0287323-0.0861969l-0.0143661-0.0718384l-0.0287323-0.0861969l-0.0287323-0.0718231
			l-0.0287361-0.0718384l-0.0430984-0.0574646l-0.0287323-0.0574646l-0.0430984-0.0431061l-0.0431023-0.0430908
			l-0.0430984-0.0287323l-0.0574646-0.0287323l-0.0431023-0.0143738H33.764267h-0.0143661h-0.0430984l-0.0287361,0.0143738
			l-0.0574646,0.0143585l-0.0430984,0.0287323l-0.0431023,0.0431061l-0.0430984,0.0430908l-0.0430984,0.0574646
			l-0.0287323,0.0574799l-0.0287361,0.0574646l-0.0430984,0.0718231l-0.0143661,0.0861969l-0.0287323,0.0718384
			l-0.0143661,0.0861969l-0.0287323,0.1005707v0.0861969l-0.01437,0.1005707v0.1005554v0.1005707V142.0723572z
			 M22.0986519,141.0379639l-0.0431004,0.0574646l-0.0287323,0.0574799l-0.0287342,0.0574646l-0.0430984,0.0718231
			l-0.0143661,0.0861969l-0.0287342,0.0718384l-0.0143661,0.0861969l-0.0287323,0.1005707v0.0861969l-0.0143681,0.1005707v0.1005554
			v0.1005707v0.0574646l0.0143681,0.1005707l0.0143661,0.0861969l0.0143661,0.1005707l0.0287323,0.0718231l0.0287342,0.0861969
			l0.0287323,0.0718384l0.0287323,0.0718384l0.0431004,0.0574646l0.0287323,0.0574646l0.0431004,0.0430908l0.0431004,0.0431061
			l0.0430984,0.0287323l0.0574665,0.0143738l0.0431004,0.0143585l0.0430984,0.0143738l0.0574665-0.0143738h0.0287323
			l0.0431004-0.0287323l0.0574665-0.0287323l0.0430984-0.0287323l0.0431004-0.0431061l0.0287323-0.0574646l0.0431004-0.0574646
			l0.0287323-0.0718231l0.0287342-0.0718384l0.0287323-0.0718384l0.0287323-0.0861969l0.0143681-0.0861969l0.0143661-0.0861969
			l0.0143661-0.0861969l0.0143661-0.1005707v-0.1005707v-0.1005554l-0.0143661-0.0718384v-0.0861969l-0.0143661-0.1005707
			l-0.0287342-0.0861969l-0.0143661-0.0718384l-0.0287323-0.0861969l-0.0287342-0.0718231l-0.0287323-0.0718384
			l-0.0431004-0.0574646l-0.0287323-0.0574646l-0.0431004-0.0431061l-0.0430984-0.0430908l-0.0431004-0.0287323
			l-0.0574646-0.0287323l-0.0431004-0.0143738h-0.0574665h-0.0430984l-0.0287342,0.0143738l-0.0574665,0.0143585
			l-0.0430984,0.0287323l-0.0431004,0.0431061L22.0986519,141.0379639z M30.4312344,141.5551605l-0.0143661-0.0861969
			l-0.0287342-0.0718384l-0.0143661-0.0861969l-0.0287323-0.0718231l-0.0431004-0.0718384l-0.0287323-0.0574646
			l-0.0431004-0.0574646l-0.0431004-0.0431061l-0.0430984-0.0430908l-0.0431004-0.0287323l-0.0430984-0.0287323
			l-0.0431004-0.0143738h-0.0574665h-0.0430984l-0.0431004,0.0143738l-0.0430984,0.0143585l-0.0431004,0.0287323
			l-0.0431004,0.0431061l-0.0430984,0.0430908l-0.0431004,0.0574646l-0.0287323,0.0574799l-0.0431004,0.0574646
			l-0.0287323,0.0718231l-0.0287342,0.0861969l-0.0143661,0.0718384l-0.0287323,0.0861969l-0.0143661,0.1005707
			l-0.0143681,0.0861969v0.1005707v0.1005554v0.1005707v0.0574646l0.0143681,0.1005707l0.0143661,0.0861969l0.0143661,0.1005707
			l0.0287323,0.0718231l0.0143681,0.0861969l0.0430984,0.0718384l0.0287342,0.0718384l0.0287323,0.0574646l0.0431004,0.0574646
			l0.0430984,0.0430908l0.0431004,0.0431061l0.0430984,0.0287323l0.0431004,0.0143738l0.0574665,0.0143585l0.0430984,0.0143738
			l0.0574665-0.0143738h0.0287323l0.0431004-0.0287323l0.0431004-0.0287323l0.0430984-0.0287323l0.0431004-0.0431061
			l0.0430984-0.0574646l0.0431004-0.0574646l0.0287323-0.0718231l0.0287342-0.0718384l0.0287323-0.0718384l0.0287342-0.0861969
			l0.0143661-0.0861969l0.0143661-0.0861969l0.0143661-0.0861969v-0.1005707v-0.1005707v-0.1005554v-0.0718384l-0.0143661-0.0861969
			L30.4312344,141.5551605z M39.9849701,145.2904663H16.1365452v-12.5276184h6.2207031h1.8676491h1.9394798h3.7927608h1.9394817
			h1.623415h0.2442322h6.2207031V145.2904663z"/>
		<path class="st0" d="M10.9358635,77.7534409h-0.0287323l-0.0574665,0.0287323l-0.0574656,0.0287323l-0.0574665,0.0430984
			l-0.0430994,0.0574722l-0.0430994,0.0574646l-0.0431004,0.0718307l-0.0430994,0.0861969l-0.0430994,0.0718384l-0.0287333,0.100563
			l-0.0287323,0.100563l-0.0143671,0.1005707l-0.0287333,0.100563l-0.0143661,0.1149292v0.1149368l-0.0143661,0.1149292
			l0.0143661,0.1149292v0.0862045l0.0143661,0.100563l0.0143671,0.1149292l0.0287333,0.1005707l0.0143661,0.100563
			l0.0430994,0.0861969l0.0287333,0.0862045l0.0430994,0.0861969l0.0430994,0.0718307l0.0430994,0.0718384l0.0431004,0.0430984
			l0.0574656,0.0574646l0.0430994,0.0287323l0.0574665,0.0287323l0.0574656,0.0143661l0.0574665,0.0143661l0.0574665-0.0143661
			h0.0430994l0.0574656-0.0287323l0.0574665-0.0287323l0.0430994-0.0430984l0.0574665-0.0574646l0.0430994-0.0574722
			l0.0430994-0.0718307l0.0430994-0.0861969l0.0287333-0.0718307l0.0430994-0.1005707l0.0287333-0.100563l0.0143661-0.100563
			l0.0143671-0.1005707l0.0143661-0.1149292l0.0143661-0.1149368v-0.1149292v-0.1149292v-0.0862045l-0.0143661-0.100563
			l-0.0143661-0.1149292l-0.0287333-0.1005707l-0.0287333-0.100563l-0.0287333-0.0861969l-0.0287333-0.0862045l-0.0430994-0.0861969
			l-0.0430994-0.0718307L11.32376,77.9258423l-0.0430994-0.0431061l-0.0574665-0.0574646l-0.0574656-0.0287323l-0.0574665-0.0287323
			l-0.0574656-0.0143661L10.99333,77.7390747L10.9358635,77.7534409z M10.9358635,119.8617172l-0.0287323,0.0143661
			l-0.0574665,0.0143661l-0.0574656,0.0430984l-0.0574665,0.0430984l-0.0430994,0.0430984l-0.0430994,0.0718384
			l-0.0431004,0.0574646l-0.0430994,0.0861969l-0.0430994,0.0861969l-0.0287333,0.0862045l-0.0287323,0.100563l-0.0143671,0.100563
			l-0.0287333,0.1005707l-0.0143661,0.1149292v0.1149368l-0.0143661,0.1149292l0.0143661,0.1149292v0.0862045l0.0143661,0.1149292
			l0.0143671,0.100563l0.0287333,0.1005707l0.0143661,0.100563l0.0430994,0.100563l0.0287333,0.0862045l0.0430994,0.0718307
			l0.0430994,0.0718307l0.0430994,0.0718307l0.0431004,0.0574722l0.0574656,0.0430984l0.0430994,0.0287323l0.0574665,0.0287323
			l0.0574656,0.0287323H10.99333h0.0574665l0.0430994-0.0143661l0.0574656-0.0287323l0.0574665-0.0287323l0.0430994-0.0430984
			l0.0574665-0.0574722l0.0430994-0.0574646l0.0430994-0.0718307l0.0430994-0.0718307l0.0287333-0.0862045l0.0430994-0.100563
			l0.0287333-0.0861969l0.0143661-0.1005707l0.0143671-0.1149292l0.0143661-0.1149292l0.0143661-0.1149368v-0.1149292v-0.1149292
			v-0.0718384l-0.0143661-0.1149292l-0.0143661-0.1149292l-0.0287333-0.1005707l-0.0287333-0.100563l-0.0287333-0.0861969
			l-0.0287333-0.0862045l-0.0430994-0.0861969l-0.0430994-0.0718307l-0.0430994-0.0574646l-0.0430994-0.0574722
			l-0.0574665-0.0574646l-0.0574656-0.0287323l-0.0574665-0.0287323l-0.0574656-0.0143661l-0.0574665-0.0143661
			L10.9358635,119.8617172z M7.0138035,86.8474503l-0.0430994-0.0718307l-0.0430999-0.0574722l-0.0430994-0.0574646
			l-0.057466-0.0430984l-0.0430999-0.0430984l-0.057466-0.0287323l-0.057466-0.0143661h-0.057466h-0.057466l-0.0430994,0.0143661
			l-0.057466,0.0143661l-0.0574665,0.0430984l-0.0430994,0.0430984l-0.057466,0.0430984L6.252378,86.7612534l-0.0430999,0.0718307
			l-0.0430994,0.0718307l-0.0287333,0.0861969L6.094346,87.0773163l-0.0287333,0.100563l-0.0143661,0.100563L6.03688,87.3790131
			l-0.0143666,0.1149292l-0.0143666,0.1149292v0.1149368v0.1292953v0.0718384l0.0143666,0.1149292l0.0143666,0.100563
			l0.0287328,0.1149368L6.094346,88.341568l0.0287333,0.100563l0.0287328,0.0862045l0.0430999,0.0718307l0.0430994,0.0718307
			l0.0430994,0.0718307L6.3242106,88.8013l0.057466,0.0430984l0.057466,0.0430984l0.057466,0.0287323l0.057466,0.0143661h0.057466
			h0.057466l0.0287333-0.0143661l0.057466-0.0287323l0.057466-0.0287323l0.057466-0.0430984l0.0430994-0.0574722
			l0.0430999-0.0574646l0.0430994-0.0718307l0.0430999-0.0718307l0.0430994-0.0862045l0.0287328-0.0861969l0.0287333-0.100563
			l0.0287333-0.1005707l0.0143661-0.1149292l0.0143666-0.100563v-0.1149368l0.0143666-0.1292953l-0.0143666-0.1149368v-0.0718307
			l-0.0143666-0.1149292l-0.0143661-0.1149368l-0.0287333-0.100563l-0.0143666-0.100563l-0.0430994-0.0862045l-0.0287333-0.0861969
			L7.0138035,86.8474503z M7.0425367,113.0950851l0.0430994-0.0861969l0.0287328-0.0862045l0.0287333-0.100563l0.0287333-0.100563
			l0.0143661-0.1005707l0.0143666-0.1149292v-0.1149292l0.0143666-0.1149368l-0.0143666-0.1149292v-0.0862045l-0.0143666-0.1149292
			l-0.0143661-0.100563l-0.0287333-0.1005707l-0.0143666-0.100563l-0.0430994-0.100563l-0.0287333-0.0862045l-0.0430994-0.0718307
			l-0.0430994-0.0718307l-0.0430999-0.0718307L6.8845048,111.1987l-0.057466-0.0430984l-0.0430999-0.0287323l-0.057466-0.0287323
			l-0.057466-0.0287323h-0.057466h-0.057466l-0.0430994,0.0143661l-0.057466,0.0287323l-0.0574665,0.0287323l-0.0430994,0.0430984
			l-0.057466,0.0574722l-0.0430994,0.0574646l-0.0430999,0.0718307l-0.0430994,0.0718307l-0.0287333,0.0862045l-0.0430994,0.100563
			l-0.0287333,0.0861969l-0.0143661,0.1005707L6.03688,111.9313965l-0.0143666,0.1149292l-0.0143666,0.1149368v0.1149292v0.1149368
			v0.0718307l0.0143666,0.1149292l0.0143666,0.1149368l0.0287328,0.100563l0.0287333,0.100563l0.0287333,0.0862045
			l0.0287328,0.0861969l0.0430999,0.0861969l0.0430994,0.0718307l0.0430994,0.0574722l0.0430999,0.0574646l0.057466,0.0430984
			l0.057466,0.0430984l0.057466,0.0287323l0.057466,0.0143661l0.057466,0.0143661l0.057466-0.0143661l0.0287333-0.0143661
			l0.057466-0.0143661l0.057466-0.0430984l0.057466-0.0430984l0.0430994-0.0430984l0.0430999-0.0718384l0.0430994-0.0574646
			L7.0425367,113.0950851z M17.0703678,80.1382828l0.0574665,0.0143661l0.0718327-0.0143661h0.0287342l0.0574646-0.0287323
			l0.0574665-0.0287323l0.0574665-0.0430984l0.0431004-0.0574646l0.0430984-0.0574722l0.0431004-0.0718307l0.0430984-0.0861969
			l0.0287342-0.0718307l0.0430984-0.1005707l0.0287342-0.100563l0.0143661-0.100563l0.0287323-0.1005707l0.0143661-0.1149292
			V79.060791v-0.1149292v-0.1149292v-0.0862045l-0.0143661-0.100563l-0.0143661-0.1149292l-0.0287323-0.1005707l-0.0287342-0.100563
			l-0.0287323-0.0861969l-0.0287342-0.0862045l-0.0430984-0.0861969l-0.0431004-0.0718307l-0.0430984-0.0718307
			l-0.0431004-0.0431061l-0.0574665-0.0574646l-0.0574646-0.0287323l-0.0431004-0.0287323l-0.0574665-0.0143661
			l-0.0718327-0.0143661l-0.0574665,0.0143661h-0.0287323l-0.0574665,0.0287323l-0.0574665,0.0287323l-0.0574646,0.0430984
			l-0.0431004,0.0574722l-0.0430984,0.0574646l-0.0431004,0.0718307l-0.0431004,0.0861969l-0.0430984,0.0718384l-0.0287342,0.100563
			l-0.0287323,0.100563l-0.0143661,0.1005707l-0.0287342,0.100563l-0.0143661,0.1149292v0.1149368v0.1149292v0.1149292v0.0862045
			l0.0143661,0.100563l0.0143681,0.1149292l0.0287323,0.1005707l0.0287323,0.100563l0.0287342,0.0861969l0.0287323,0.0862045
			l0.0431004,0.0861969l0.0430984,0.0718307l0.0431004,0.0718384l0.0431004,0.0430984l0.0574646,0.0574646l0.0431004,0.0287323
			l0.0574665,0.0287323L17.0703678,80.1382828z M17.0703678,119.8617172l-0.0287323,0.0143661l-0.0574665,0.0143661
			l-0.0574665,0.0430984l-0.0574646,0.0430984l-0.0431004,0.0430984l-0.0430984,0.0718384l-0.0431004,0.0574646
			l-0.0431004,0.0861969l-0.0430984,0.0861969l-0.0287342,0.0862045l-0.0287323,0.100563l-0.0143661,0.100563l-0.0287342,0.1005707
			l-0.0143661,0.1149292v0.1149368v0.1149292v0.1149292v0.0862045l0.0143661,0.1149292l0.0143681,0.100563l0.0287323,0.1005707
			l0.0287323,0.100563l0.0287342,0.100563l0.0287323,0.0862045l0.0431004,0.0718307l0.0430984,0.0718307l0.0431004,0.0718307
			l0.0431004,0.0574722l0.0574646,0.0430984l0.0431004,0.0287323l0.0574665,0.0287323l0.0574646,0.0287323h0.0574665h0.0718327
			l0.0287342-0.0143661l0.0574646-0.0287323l0.0574665-0.0287323l0.0574665-0.0430984l0.0431004-0.0574722l0.0430984-0.0574646
			l0.0431004-0.0718307l0.0430984-0.0718307l0.0287342-0.0862045l0.0430984-0.100563l0.0287342-0.0861969l0.0143661-0.1005707
			l0.0287323-0.1149292l0.0143661-0.1149292v-0.1149368v-0.1149292v-0.1149292v-0.0718384l-0.0143661-0.1149292
			l-0.0143661-0.1149292l-0.0287323-0.1005707l-0.0287342-0.100563l-0.0287323-0.0861969l-0.0287342-0.0862045l-0.0430984-0.0861969
			l-0.0431004-0.0718307l-0.0430984-0.0574646l-0.0431004-0.0574722l-0.0574665-0.0574646l-0.0574646-0.0287323
			l-0.0431004-0.0287323l-0.0574665-0.0143661l-0.0718327-0.0143661L17.0703678,119.8617172z M7.0425367,100.8260727
			l0.0430994-0.0861969l0.0287328-0.0861969l0.0287333-0.1005707l0.0287333-0.100563l0.0143661-0.100563l0.0143666-0.1149368
			v-0.1149292l0.0143666-0.1149292l-0.0143666-0.129303v-0.0718307l-0.0143666-0.1149368l-0.0143661-0.100563l-0.0287333-0.1149292
			l-0.0143666-0.0862045l-0.0430994-0.100563l-0.0287333-0.0861969l-0.0430994-0.0718307l-0.0430994-0.0718384l-0.0430999-0.0718307
			l-0.0430994-0.0574646l-0.057466-0.0430984l-0.0430999-0.0430984l-0.057466-0.0287399l-0.057466-0.0143661h-0.057466h-0.057466
			l-0.0430994,0.0143661l-0.057466,0.0287399l-0.0574665,0.0287323L6.3529434,98.915329l-0.057466,0.0574646L6.252378,99.0302582
			l-0.0430999,0.0718307l-0.0430994,0.0718384l-0.0287333,0.0861969L6.094346,99.3463211l-0.0287333,0.1005707l-0.0143661,0.100563
			L6.03688,99.662384l-0.0143666,0.1005707l-0.0143666,0.1149292v0.129303v0.1149292v0.0718307l0.0143666,0.1149368
			l0.0143666,0.1149292l0.0287328,0.100563l0.0287333,0.1005707l0.0287333,0.0861969l0.0287328,0.0861969l0.0430999,0.0861969
			l0.0430994,0.0718384l0.0430994,0.0574646l0.0430999,0.0574646l0.057466,0.0430984l0.057466,0.0430984l0.057466,0.0287399
			l0.057466,0.0143661h0.057466h0.057466l0.0287333-0.0143661l0.057466-0.0143738l0.057466-0.0430984l0.057466-0.0430984
			l0.0430994-0.0574646l0.0430999-0.0574646l0.0430994-0.0718307L7.0425367,100.8260727z M23.204874,77.7534409h-0.0287342
			l-0.0574646,0.0287323l-0.0574665,0.0287323l-0.0574665,0.0430984l-0.0431004,0.0574722l-0.0430984,0.0574646
			l-0.0431004,0.0718307l-0.0430984,0.0861969l-0.0287342,0.0718384l-0.0430984,0.100563l-0.0287342,0.100563l-0.0143661,0.1005707
			l-0.0287323,0.100563l-0.0143681,0.1149292v0.1149368v0.1149292v0.1149292v0.0862045l0.0143681,0.100563l0.0143661,0.1149292
			l0.0287323,0.1005707l0.0287342,0.100563l0.0287323,0.0861969l0.0287323,0.0862045l0.0431004,0.0861969l0.0431004,0.0718307
			l0.0430984,0.0718384l0.0431004,0.0430984l0.0574665,0.0574646l0.0574646,0.0287323l0.0431004,0.0287323l0.0574665,0.0143661
			l0.0718327,0.0143661l0.0574646-0.0143661h0.0287342l0.0574665-0.0287323l0.0574646-0.0287323l0.0574665-0.0430984
			l0.0431004-0.0574646l0.0430984-0.0574722l0.0431004-0.0718307l0.0430984-0.0861969l0.0431004-0.0718307l0.0287323-0.1005707
			l0.0287342-0.100563l0.0143661-0.100563l0.0287323-0.1005707l0.0143681-0.1149292V79.060791v-0.1149292v-0.1149292v-0.0862045
			l-0.0143681-0.100563l-0.0143661-0.1149292l-0.0287323-0.1005707l-0.0143661-0.100563l-0.0431004-0.0861969l-0.0287323-0.0862045
			l-0.0431004-0.0861969L23.63587,77.997673l-0.0431004-0.0718307l-0.0431004-0.0431061l-0.0574646-0.0574646l-0.0431004-0.0287323
			l-0.0574665-0.0287323l-0.0574665-0.0143661l-0.0574646-0.0143661L23.204874,77.7534409z M23.204874,119.8617172
			l-0.0287342,0.0143661l-0.0574646,0.0143661l-0.0574665,0.0430984l-0.0574665,0.0430984l-0.0431004,0.0430984
			l-0.0430984,0.0718384l-0.0431004,0.0574646l-0.0430984,0.0861969l-0.0287342,0.0861969l-0.0430984,0.0862045l-0.0287342,0.100563
			l-0.0143661,0.100563l-0.0287323,0.1005707l-0.0143681,0.1149292v0.1149368v0.1149292v0.1149292v0.0862045l0.0143681,0.1149292
			l0.0143661,0.100563l0.0287323,0.1005707l0.0287342,0.100563l0.0287323,0.100563l0.0287323,0.0862045l0.0431004,0.0718307
			l0.0431004,0.0718307l0.0430984,0.0718307l0.0431004,0.0574722l0.0574665,0.0430984l0.0574646,0.0287323l0.0431004,0.0287323
			l0.0574665,0.0287323h0.0718327h0.0574646l0.0287342-0.0143661l0.0574665-0.0287323l0.0574646-0.0287323l0.0574665-0.0430984
			l0.0431004-0.0574722l0.0430984-0.0574646l0.0431004-0.0718307l0.0430984-0.0718307l0.0431004-0.0862045l0.0287323-0.100563
			l0.0287342-0.0861969l0.0143661-0.1005707l0.0287323-0.1149292l0.0143681-0.1149292v-0.1149368v-0.1149292v-0.1149292v-0.0718384
			l-0.0143681-0.1149292l-0.0143661-0.1149292l-0.0287323-0.1005707l-0.0143661-0.100563l-0.0431004-0.0861969l-0.0287323-0.0862045
			l-0.0431004-0.0861969l-0.0430984-0.0718307l-0.0431004-0.0574646l-0.0431004-0.0574722l-0.0574646-0.0574646
			l-0.0431004-0.0287323l-0.0574665-0.0287323l-0.0574665-0.0143661l-0.0574646-0.0143661L23.204874,119.8617172z
			 M24.397295,114.4599075V85.5400925H9.8727417v28.9198151H24.397295z M29.9571381,132.7628479h-3.7927608h-1.9394798h-1.8676491
			h-6.2207031H0.75V67.2371445h15.3865452h6.2207031h1.8676491h1.9394798h3.7927608h1.9394817h1.623415v65.5257034h-1.623415
			H29.9571381z M27.2562332,88.6001663l0.0287323,0.0718307l0.0574665,0.0718307L27.3855305,88.8013l0.0574665,0.0430984
			l0.0431004,0.0430984l0.0574665,0.0287323l0.0574646,0.0143661h0.0574665h0.0574665l0.0430984-0.0143661l0.0574665-0.0287323
			l0.0574665-0.0287323l0.0431004-0.0430984l0.0574646-0.0574722l0.0431004-0.0574646l0.0431004-0.0718307l0.0430984-0.0718307
			l0.0287342-0.0862045l0.0430984-0.0861969l0.0143661-0.100563l0.0287342-0.1005707l0.0143661-0.1149292l0.0143661-0.100563
			l0.0143661-0.1149368v-0.1292953v-0.1149368v-0.0718307l-0.0143661-0.1149292l-0.0143661-0.1149368l-0.0287323-0.100563
			l-0.0287342-0.100563l-0.0287323-0.0862045l-0.0287342-0.0861969l-0.0430984-0.0861969l-0.0431004-0.0718307l-0.0430984-0.0574722
			l-0.0574665-0.0574646l-0.0431004-0.0430984l-0.0574665-0.0430984l-0.0574646-0.0287323l-0.0574665-0.0143661h-0.0574665
			h-0.0574665L27.55793,86.5457535l-0.0431004,0.0143661l-0.0574665,0.0430984l-0.0574646,0.0430984l-0.0431004,0.0430984
			l-0.0431004,0.0718384l-0.0430984,0.0718307l-0.0431004,0.0718307l-0.0430984,0.0861969l-0.0287342,0.0862045l-0.0287323,0.100563
			l-0.0287342,0.100563l-0.0143661,0.1005707l-0.0143661,0.1149292v0.1149292l-0.0143661,0.1149368l0.0143661,0.1292953v0.0718384
			l0.0143661,0.1149292l0.0143661,0.100563l0.0143681,0.1149368l0.0287323,0.0861969l0.0287323,0.100563l0.0431004,0.0862045
			L27.2562332,88.6001663z M27.2562332,100.8835373l0.0287323,0.0718384l0.0574665,0.0574646l0.0430984,0.0574646
			l0.0574665,0.0430984l0.0431004,0.0430984l0.0574665,0.0287399l0.0574646,0.0143661h0.0574665h0.0574665l0.0430984-0.0143661
			l0.0574665-0.0143738l0.0574665-0.0430984l0.0431004-0.0430984l0.0574646-0.0574646l0.0431004-0.0574646l0.0431004-0.0718307
			l0.0430984-0.0718384l0.0287342-0.0861969l0.0430984-0.0861969l0.0143661-0.1005707l0.0287342-0.100563l0.0143661-0.100563
			l0.0143661-0.1149368l0.0143661-0.1149292v-0.1149292v-0.129303v-0.0718307l-0.0143661-0.1149368l-0.0143661-0.100563
			l-0.0287323-0.1149292l-0.0287342-0.0862045l-0.0287323-0.100563l-0.0287342-0.0861969l-0.0430984-0.0718307l-0.0431004-0.0718384
			l-0.0430984-0.0718307l-0.0574665-0.0574646l-0.0431004-0.0430984l-0.0574665-0.0430984l-0.0574646-0.0287399
			l-0.0574665-0.0143661h-0.0574665h-0.0574665L27.55793,98.8147583l-0.0431004,0.0287399l-0.0574665,0.0287323
			l-0.0574646,0.0430984l-0.0431004,0.0574646l-0.0431004,0.0574646l-0.0430984,0.0718307l-0.0431004,0.0718384
			l-0.0430984,0.0861969l-0.0287342,0.0861969l-0.0287323,0.1005707l-0.0287342,0.100563l-0.0143661,0.1149292l-0.0143661,0.1005707
			v0.1149292l-0.0143661,0.129303l0.0143661,0.1149292v0.0718307l0.0143661,0.1149368l0.0143661,0.1149292l0.0143681,0.100563
			l0.0287323,0.1005707l0.0287323,0.0861969l0.0431004,0.0861969L27.2562332,100.8835373z M27.3855305,113.3393173
			l0.0574665,0.0430984l0.0431004,0.0430984l0.0574665,0.0287323l0.0574646,0.0143661l0.0574665,0.0143661l0.0574665-0.0143661
			l0.0430984-0.0143661l0.0574665-0.0143661l0.0574665-0.0430984l0.0431004-0.0430984l0.0574646-0.0430984l0.0431004-0.0718384
			l0.0431004-0.0574646l0.0430984-0.0861969l0.0287342-0.0861969l0.0430984-0.0862045l0.0143661-0.100563l0.0287342-0.100563
			l0.0143661-0.1005707l0.0143661-0.1149292l0.0143661-0.1149292v-0.1149368v-0.1149292v-0.0862045l-0.0143661-0.1149292
			l-0.0143661-0.100563l-0.0287323-0.1005707l-0.0287342-0.100563l-0.0287323-0.100563l-0.0287342-0.0862045l-0.0430984-0.0718307
			l-0.0431004-0.0718307l-0.0430984-0.0718307L27.9314594,111.1987l-0.0431004-0.0430984l-0.0574665-0.0287323l-0.0574646-0.0287323
			l-0.0574665-0.0287323h-0.0574665h-0.0574665l-0.0430984,0.0143661l-0.0431004,0.0287323l-0.0574665,0.0287323
			l-0.0574646,0.0430984l-0.0431004,0.0574722l-0.0431004,0.0574646l-0.0430984,0.0718307l-0.0431004,0.0718307
			l-0.0430984,0.0862045l-0.0287342,0.100563l-0.0287323,0.0861969l-0.0287342,0.1005707l-0.0143661,0.1149292l-0.0143661,0.1149292
			v0.1149368l-0.0143661,0.1149292l0.0143661,0.1149368v0.0718307l0.0143661,0.1149292l0.0143661,0.1149368l0.0143681,0.100563
			l0.0287323,0.100563l0.0287323,0.0862045l0.0431004,0.0861969l0.0431004,0.0861969l0.0287323,0.0718307l0.0574665,0.0574722
			L27.3855305,113.3393173z"/>
		<path class="st0" d="M19.0242157,58.5597687l0.0143661-0.0862007l0.0143661-0.0861969l0.0143681-0.1005669v-0.1005669
			l0.0143661-0.100563l-0.0143661-0.1005669v-0.0574646L19.052948,57.827076l-0.0143661-0.0862007l-0.0143661-0.0861969
			l-0.0143661-0.0862007l-0.0287342-0.0861969l-0.0287323-0.0718346l-0.0431004-0.0574646l-0.0287323-0.0718346L18.83745,57.2380486
			l-0.0430984-0.0574646l-0.0431004-0.0287361l-0.0430984-0.0430984l-0.0431004-0.0143661l-0.0431004-0.0143661
			l-0.0574646-0.0143661l-0.0431004,0.0143661h-0.0430984l-0.0431004,0.0287323l-0.0431004,0.0287323l-0.0430984,0.0287323
			l-0.0431004,0.0431023l-0.0430984,0.0574646l-0.0287342,0.0574646L18.190958,57.39608l-0.0287342,0.0718307l-0.0287323,0.0718346
			l-0.0143661,0.0862007l-0.0287342,0.0861969l-0.0143661,0.0862007l-0.0143661,0.100563v0.0862007v0.1005669v0.100563v0.0718346
			l0.0143661,0.0861969l0.0143661,0.1005669l0.0143661,0.0862007l0.0287342,0.0861969l0.0143661,0.0718346l0.0431004,0.0718307
			l0.0287323,0.0718346l0.0287323,0.0574646l0.0431004,0.0574646l0.0431004,0.0431023l0.0430984,0.0430984l0.0431004,0.0287323
			l0.0430984,0.0287323l0.0574665,0.01437h0.0431004h0.0574646l0.0287342-0.01437l0.0430984-0.0143661l0.0431004-0.0287323
			l0.0431004-0.0430984l0.0430984-0.0430984l0.0431004-0.0574684l0.0430984-0.0574646l0.0287342-0.0574684l0.0287323-0.0718307
			l0.0287342-0.0718346L19.0242157,58.5597687z M26.2074757,57.0800171l-0.0430984-0.0143661l-0.0574665,0.0143661h-0.0287323
			l-0.0431004,0.0287323l-0.0574665,0.0287323l-0.0430984,0.0287323l-0.0287342,0.0431023l-0.0430984,0.0574646
			l-0.0431004,0.0574646L25.7908478,57.39608l-0.0287342,0.0718307l-0.0287323,0.0718346L25.704649,57.625946l-0.0143681,0.0861969
			l-0.0143661,0.0862007l-0.0143661,0.100563l-0.0143661,0.0862007v0.1005669v0.100563l0.0143661,0.0718346v0.0861969
			l0.0143661,0.1005669l0.0287342,0.0862007l0.0143661,0.0861969l0.0287323,0.0718346l0.0287342,0.0718307l0.0287323,0.0718346
			l0.0431004,0.0574646l0.0430984,0.0574646l0.0287342,0.0431023l0.0430984,0.0430984l0.0574665,0.0287323l0.0430984,0.0287323
			l0.0431004,0.01437h0.0574665h0.0430984l0.0287342-0.01437l0.0574665-0.0143661l0.0430984-0.0287323l0.0431004-0.0430984
			l0.0430984-0.0430984l0.0431004-0.0574684l0.0287323-0.0574646l0.0431004-0.0574684l0.0287323-0.0718307l0.0287342-0.0718346
			l0.0143661-0.0861969l0.0287323-0.0862007l0.0143661-0.0861969l0.0143681-0.1005669v-0.1005669v-0.100563v-0.1005669v-0.0574646
			l-0.0143681-0.1005669l-0.0143661-0.0862007l-0.0143661-0.0861969l-0.0287323-0.0862007l-0.0287342-0.0861969
			l-0.0287323-0.0718346l-0.0287323-0.0574646l-0.0287342-0.0718346l-0.0430984-0.0430984l-0.0431004-0.0574646
			l-0.0431004-0.0287361l-0.0430984-0.0430984l-0.0431004-0.0143661L26.2074757,57.0800171z M37.8156242,58.9620323
			l0.0431023-0.0574684l0.0287323-0.0574646l0.0430984-0.0574684l0.0287323-0.0718307l0.0287361-0.0718346l0.0143661-0.0861969
			l0.0287323-0.0862007l0.0143661-0.0861969v-0.1005669l0.0143661-0.1005669v-0.100563v-0.1005669v-0.0574646l-0.0143661-0.1005669
			l-0.0143661-0.0862007l-0.0143661-0.0861969l-0.0287323-0.0862007l-0.0287361-0.0861969l-0.0287323-0.0718346
			l-0.0287323-0.0574646l-0.0430984-0.0718346l-0.0287323-0.0430984l-0.0431023-0.0574646l-0.0430984-0.0287361
			l-0.0430984-0.0430984l-0.0431023-0.0143661l-0.0574646-0.0143661l-0.0430984-0.0143661l-0.0574684,0.0143661H37.470829
			l-0.0430984,0.0287323l-0.0574684,0.0287323l-0.0430984,0.0287323l-0.0287323,0.0431023l-0.0430984,0.0574646
			l-0.0431023,0.0574646L37.1834984,57.39608l-0.0287323,0.0718307l-0.0287323,0.0718346l-0.0287323,0.0862007l-0.01437,0.0861969
			l-0.0143661,0.0862007l-0.0143661,0.100563l-0.0143661,0.0862007v0.1005669v0.100563l0.0143661,0.0718346v0.0861969
			l0.0143661,0.1005669l0.0287361,0.0862007l0.0143661,0.0861969l0.0287323,0.0718346l0.0287323,0.0718307l0.0287323,0.0718346
			l0.0431023,0.0574646l0.0430984,0.0574646l0.0287323,0.0431023l0.0430984,0.0430984l0.0574684,0.0287323l0.0430984,0.0287323
			l0.0430984,0.01437h0.0574684h0.0430984l0.0287323-0.01437l0.0574684-0.0143661l0.0430984-0.0287323l0.0430984-0.0430984
			L37.8156242,58.9620323z M30.4168682,58.5597687l0.0143661-0.0862007l0.0143661-0.0861969l0.0143661-0.1005669v-0.1005669
			v-0.100563v-0.1005669v-0.0574646l-0.0143661-0.1005669l-0.0143661-0.0862007l-0.0143661-0.0861969l-0.0287342-0.0862007
			l-0.0143661-0.0861969l-0.0287323-0.0718346l-0.0431004-0.0574646l-0.0287323-0.0718346l-0.0431004-0.0430984
			l-0.0431004-0.0574646l-0.0430984-0.0287361l-0.0431004-0.0430984l-0.0430984-0.0143661l-0.0431004-0.0143661
			l-0.0574665-0.0143661l-0.0430984,0.0143661h-0.0431004l-0.0430984,0.0287323l-0.0431004,0.0287323l-0.0431004,0.0287323
			l-0.0430984,0.0431023l-0.0431004,0.0574646l-0.0287323,0.0574646L29.5836086,57.39608l-0.0287323,0.0718307l-0.0287342,0.0718346
			L29.511776,57.625946l-0.0287323,0.0861969l-0.0143661,0.0862007l-0.0143681,0.100563v0.0862007v0.1005669v0.100563v0.0718346
			l0.0143681,0.0861969l0.0143661,0.1005669l0.0143661,0.0862007l0.0287323,0.0861969l0.0143681,0.0718346l0.0430984,0.0718307
			l0.0287342,0.0718346l0.0287323,0.0574646l0.0431004,0.0574646l0.0430984,0.0431023l0.0431004,0.0430984l0.0430984,0.0287323
			l0.0431004,0.0287323l0.0574665,0.01437h0.0430984h0.0574665l0.0287323-0.01437l0.0431004-0.0143661l0.0431004-0.0287323
			l0.0430984-0.0430984l0.0431004-0.0430984l0.0430984-0.0574684l0.0431004-0.0574646l0.0287323-0.0574684l0.0287342-0.0718307
			l0.0287323-0.0718346L30.4168682,58.5597687z M16.1365452,54.7095413h23.8484249v12.5276031H33.764267h-0.2442322h-1.623415
			h-1.9394817h-3.7927608h-1.9394798h-1.8676491h-6.2207031V54.7095413z M22.0555515,57.2667809l-0.0287323,0.0574646
			L21.998085,57.39608l-0.0430984,0.0718307l-0.0143661,0.0718346l-0.0287342,0.0862007l-0.0143661,0.0861969l-0.0287323,0.0862007
			v0.100563l-0.0143681,0.0862007v0.1005669v0.100563v0.0718346l0.0143681,0.0861969l0.0143661,0.1005669l0.0143661,0.0862007
			l0.0287323,0.0861969l0.0287342,0.0718346l0.0287323,0.0718307l0.0287323,0.0718346l0.0431004,0.0574646l0.0287323,0.0574646
			l0.0431004,0.0431023l0.0431004,0.0430984l0.0430984,0.0287323l0.0574665,0.0287323l0.0431004,0.01437h0.0430984h0.0574665
			l0.0287323-0.01437l0.0431004-0.0143661l0.0574665-0.0287323l0.0430984-0.0430984l0.0431004-0.0430984l0.0287323-0.0574684
			l0.0431004-0.0574646l0.0287323-0.0574684l0.0287342-0.0718307l0.0287323-0.0718346l0.0287323-0.0861969l0.0143681-0.0862007
			l0.0143661-0.0861969l0.0143661-0.1005669l0.0143661-0.1005669v-0.100563v-0.1005669l-0.0143661-0.0574646V57.827076
			l-0.0143661-0.0862007l-0.0287342-0.0861969l-0.0143661-0.0862007l-0.0287323-0.0861969l-0.0287342-0.0718346
			l-0.0287323-0.0574646l-0.0431004-0.0718346l-0.0287323-0.0430984l-0.0431004-0.0574646l-0.0430984-0.0287361
			l-0.0431004-0.0430984l-0.0574646-0.0143661l-0.0431004-0.0143661l-0.0574665-0.0143661l-0.0430984,0.0143661h-0.0287342
			l-0.0574665,0.0287323l-0.0430984,0.0287323l-0.0431004,0.0287323l-0.0430984,0.0431023L22.0555515,57.2667809z
			 M34.1377983,57.4104462l-0.0287361-0.0574646l-0.0430984-0.0718346l-0.0287323-0.0430984L33.994133,57.180584
			l-0.0431023-0.0287361l-0.0430984-0.0430984l-0.0574646-0.0143661l-0.0431023-0.0143661l-0.0574646-0.0143661
			l-0.0430984,0.0143661h-0.0287361l-0.0574646,0.0287323l-0.0430984,0.0287323l-0.0431023,0.0287323l-0.0430984,0.0431023
			l-0.0430984,0.0574646l-0.0287323,0.0574646L33.3907356,57.39608l-0.0430984,0.0718307l-0.0143661,0.0718346l-0.0287323,0.0862007
			l-0.0143661,0.0861969l-0.0287323,0.0862007v0.100563l-0.01437,0.0862007v0.1005669v0.100563v0.0718346l0.01437,0.0861969
			l0.0143661,0.1005669l0.0143661,0.0862007l0.0287323,0.0861969l0.0287323,0.0718346l0.0287323,0.0718307l0.0287361,0.0718346
			l0.0430984,0.0574646l0.0287323,0.0574646l0.0430984,0.0431023l0.0431023,0.0430984l0.0430984,0.0287323l0.0574646,0.0287323
			l0.0431023,0.01437h0.0430984h0.0143661h0.0430984l0.0287323-0.01437L33.8792,59.0769615l0.0574646-0.0287323l0.0430984-0.0430984
			l0.0431023-0.0430984l0.0287323-0.0574684l0.0430984-0.0574646l0.0287323-0.0574684l0.0287361-0.0718307l0.0287323-0.0718346
			l0.0287323-0.0861969l0.0143661-0.0862007l0.0143661-0.0861969l0.0143661-0.1005669l0.0143661-0.1005669v-0.100563v-0.1005669
			l-0.0143661-0.0574646V57.827076l-0.0143661-0.0862007l-0.0287323-0.0861969l-0.0143661-0.0862007l-0.0287323-0.0861969
			L34.1377983,57.4104462z"/>
	</g>
	<g>
		<line class="st1" x1="33.5200348" y1="67.2371445" x2="33.5200348" y2="132.7628479"/>
		<line class="st1" x1="58.7332802" y1="67.2371445" x2="58.7332802" y2="132.7628479"/>
		<line class="st1" x1="0.75" y1="132.7628479" x2="0.75" y2="67.2371445"/>
		<polyline class="st1" points="16.1365452,54.7095413 39.9849701,54.7095413 43.3467369,54.7095413 		"/>
		<line class="st1" x1="16.1365452" y1="145.2904663" x2="16.1365452" y2="132.7628479"/>
		<line class="st1" x1="43.3467369" y1="132.7628479" x2="43.3467369" y2="145.2904663"/>
		<line class="st1" x1="39.9849701" y1="54.7095413" x2="39.9849701" y2="67.2371445"/>
		<line class="st1" x1="39.9849701" y1="132.7628479" x2="39.9849701" y2="145.2904663"/>
		<line class="st1" x1="43.3467369" y1="54.7095413" x2="43.3467369" y2="67.2371445"/>
		<line class="st1" x1="16.1365452" y1="67.2371445" x2="16.1365452" y2="54.7095413"/>
		<polyline class="st1" points="43.3467369,145.2904663 39.9849701,145.2904663 16.1365452,145.2904663 		"/>
		<polygon class="st2" points="28.2618885,100.0071869 28.2618885,99.8778839 28.2618885,99.8060532 28.2475224,99.6911163 
			28.2331562,99.5905533 28.2044239,99.4756241 28.1756897,99.3894196 28.1469574,99.2888565 28.1182232,99.2026596 
			28.0751247,99.1308289 28.0320244,99.0589905 27.9889259,98.9871597 27.9314594,98.9296951 27.8883591,98.8865967 
			27.8308926,98.8434982 27.773428,98.8147583 27.7159615,98.8003922 27.6584949,98.8003922 27.6010284,98.8003922 
			27.55793,98.8147583 27.5148296,98.8434982 27.4573631,98.8722305 27.3998985,98.915329 27.3567982,98.9727936 
			27.3136978,99.0302582 27.2705994,99.1020889 27.227499,99.1739273 27.1844006,99.2601242 27.1556664,99.3463211 
			27.1269341,99.4468918 27.0981998,99.5474548 27.0838337,99.662384 27.0694675,99.7629547 27.0694675,99.8778839 
			27.0551014,100.0071869 27.0694675,100.1221161 27.0694675,100.1939468 27.0838337,100.3088837 27.0981998,100.4238129 
			27.1125679,100.5243759 27.1413002,100.6249466 27.1700325,100.7111435 27.2131329,100.7973404 27.2562332,100.8835373 
			27.2849655,100.9553757 27.342432,101.0128403 27.3855305,101.0703049 27.442997,101.1134033 27.4860973,101.1565018 
			27.5435638,101.1852417 27.6010284,101.1996078 27.6584949,101.1996078 27.7159615,101.1996078 27.7590599,101.1852417 
			27.8165264,101.1708679 27.8739929,101.1277695 27.9170933,101.084671 27.9745579,101.0272064 28.0176582,100.9697418 
			28.0607586,100.8979111 28.103857,100.8260727 28.1325912,100.7398758 28.1756897,100.6536789 28.1900558,100.5531082 
			28.2187901,100.4525452 28.2331562,100.3519821 28.2475224,100.2370453 28.2618885,100.1221161 		"/>
		<polygon class="st2" points="7.2149348,100.0071869 7.2005682,99.8778839 7.2005682,99.8060532 7.1862016,99.6911163 
			7.1718354,99.5905533 7.1431022,99.4756241 7.1287355,99.3894196 7.0856361,99.2888565 7.0569029,99.2026596 
			7.0138035,99.1308289 6.9707041,99.0589905 6.9276042,98.9871597 6.8845048,98.9296951 6.8270388,98.8865967 
			6.7839389,98.8434982 6.7264729,98.8147583 6.6690068,98.8003922 6.6115408,98.8003922 6.5540748,98.8003922 
			6.5109754,98.8147583 6.4535093,98.8434982 6.3960428,98.8722305 6.3529434,98.915329 6.2954774,98.9727936 6.252378,99.0302582 
			6.2092781,99.1020889 6.1661787,99.1739273 6.1374454,99.2601242 6.094346,99.3463211 6.0656128,99.4468918 6.0512466,99.5474548 
			6.03688,99.662384 6.0225134,99.7629547 6.0081468,99.8778839 6.0081468,100.0071869 6.0081468,100.1221161 
			6.0081468,100.1939468 6.0225134,100.3088837 6.03688,100.4238129 6.0656128,100.5243759 6.094346,100.6249466 
			6.1230793,100.7111435 6.1518121,100.7973404 6.194912,100.8835373 6.2380114,100.9553757 6.2811108,101.0128403 
			6.3242106,101.0703049 6.3816767,101.1134033 6.4391427,101.1565018 6.4966087,101.1852417 6.5540748,101.1996078 
			6.6115408,101.1996078 6.6690068,101.1996078 6.6977401,101.1852417 6.7552061,101.1708679 6.8126721,101.1277695 
			6.8701382,101.084671 6.9132376,101.0272064 6.9563375,100.9697418 6.9994369,100.8979111 7.0425367,100.8260727 
			7.0856361,100.7398758 7.1143689,100.6536789 7.1431022,100.5531082 7.1718354,100.4525452 7.1862016,100.3519821 
			7.2005682,100.2370453 7.2005682,100.1221161 		"/>
		<polygon class="st2" points="11.539258,79.4917908 11.5536242,79.3912277 11.5679913,79.290657 11.5823574,79.1757278 
			11.5967236,79.060791 11.5967236,78.9458618 11.5967236,78.8309326 11.5967236,78.7447281 11.5823574,78.644165 
			11.5679913,78.5292358 11.539258,78.4286652 11.5105247,78.3281021 11.4817915,78.2419052 11.4530582,78.1557007 
			11.4099588,78.0695038 11.3668594,77.997673 11.32376,77.9258423 11.2806606,77.8827362 11.2231941,77.8252716 
			11.1657286,77.7965393 11.1082621,77.767807 11.0507965,77.7534409 10.99333,77.7390747 10.9358635,77.7534409 
			10.9071312,77.7534409 10.8496647,77.7821732 10.7921991,77.8109055 10.7347326,77.8540039 10.6916332,77.9114761 
			10.6485338,77.9689407 10.6054335,78.0407715 10.5623341,78.1269684 10.5192347,78.1988068 10.4905014,78.2993698 
			10.4617691,78.3999329 10.447402,78.5005035 10.4186687,78.6010666 10.4043026,78.7159958 10.4043026,78.8309326 
			10.3899364,78.9458618 10.4043026,79.060791 10.4043026,79.1469955 10.4186687,79.2475586 10.4330359,79.3624878 
			10.4617691,79.4630585 10.4761353,79.5636215 10.5192347,79.6498184 10.5479679,79.7360229 10.5910673,79.8222198 
			10.6341667,79.8940506 10.6772661,79.965889 10.7203665,80.0089874 10.777832,80.066452 10.8209314,80.0951843 
			10.8783979,80.1239166 10.9358635,80.1382828 10.99333,80.1526489 11.0507965,80.1382828 11.0938959,80.1382828 
			11.1513615,80.1095505 11.208828,80.0808182 11.2519274,80.0377197 11.3093939,79.9802551 11.3524933,79.9227829 
			11.3955927,79.8509521 11.4386921,79.7647552 11.4674253,79.6929245 11.5105247,79.5923538 		"/>
		<polygon class="st2" points="7.0425367,88.5570679 7.0856361,88.4708633 7.1143689,88.3846664 7.1431022,88.2841034 
			7.1718354,88.1835327 7.1862016,88.0686035 7.2005682,87.9680405 7.2005682,87.8531036 7.2149348,87.7238083 
			7.2005682,87.6088715 7.2005682,87.5370407 7.1862016,87.4221115 7.1718354,87.3071747 7.1431022,87.2066116 
			7.1287355,87.1060486 7.0856361,87.0198441 7.0569029,86.9336472 7.0138035,86.8474503 6.9707041,86.7756195 
			6.9276042,86.7181473 6.8845048,86.6606827 6.8270388,86.6175842 6.7839389,86.5744858 6.7264729,86.5457535 
			6.6690068,86.5313873 6.6115408,86.5313873 6.5540748,86.5313873 6.5109754,86.5457535 6.4535093,86.5601196 
			6.3960428,86.6032181 6.3529434,86.6463165 6.2954774,86.689415 6.252378,86.7612534 6.2092781,86.8330841 6.1661787,86.9049149 
			6.1374454,86.9911118 6.094346,87.0773163 6.0656128,87.1778793 6.0512466,87.2784424 6.03688,87.3790131 6.0225134,87.4939423 
			6.0081468,87.6088715 6.0081468,87.7238083 6.0081468,87.8531036 6.0081468,87.924942 6.0225134,88.0398712 6.03688,88.1404343 
			6.0656128,88.2553711 6.094346,88.341568 6.1230793,88.442131 6.1518121,88.5283356 6.194912,88.6001663 6.2380114,88.6719971 
			6.2811108,88.7438278 6.3242106,88.8013 6.3816767,88.8443985 6.4391427,88.8874969 6.4966087,88.9162292 6.5540748,88.9305954 
			6.6115408,88.9305954 6.6690068,88.9305954 6.6977401,88.9162292 6.7552061,88.8874969 6.8126721,88.8587646 
			6.8701382,88.8156662 6.9132376,88.758194 6.9563375,88.7007294 6.9994369,88.6288986 		"/>
		<polygon class="st2" points="7.0569029,111.4716644 7.0138035,111.3998337 6.9707041,111.3280029 6.9276042,111.2561722 
			6.8845048,111.1987 6.8270388,111.1556015 6.7839389,111.1268692 6.7264729,111.0981369 6.6690068,111.0694046 
			6.6115408,111.0694046 6.5540748,111.0694046 6.5109754,111.0837708 6.4535093,111.1125031 6.3960428,111.1412354 
			6.3529434,111.1843338 6.2954774,111.241806 6.252378,111.2992706 6.2092781,111.3711014 6.1661787,111.4429321 
			6.1374454,111.5291367 6.094346,111.6296997 6.0656128,111.7158966 6.0512466,111.8164673 6.03688,111.9313965 
			6.0225134,112.0463257 6.0081468,112.1612625 6.0081468,112.2761917 6.0081468,112.3911285 6.0081468,112.4629593 
			6.0225134,112.5778885 6.03688,112.6928253 6.0656128,112.7933884 6.094346,112.8939514 6.1230793,112.9801559 
			6.1518121,113.0663528 6.194912,113.1525497 6.2380114,113.2243805 6.2811108,113.2818527 6.3242106,113.3393173 
			6.3816767,113.3824158 6.4391427,113.4255142 6.4966087,113.4542465 6.5540748,113.4686127 6.6115408,113.4829788 
			6.6690068,113.4686127 6.6977401,113.4542465 6.7552061,113.4398804 6.8126721,113.3967819 6.8701382,113.3536835 
			6.9132376,113.310585 6.9563375,113.2387466 6.9994369,113.181282 7.0425367,113.0950851 7.0856361,113.0088882 
			7.1143689,112.9226837 7.1431022,112.8221207 7.1718354,112.7215576 7.1862016,112.6209869 7.2005682,112.5060577 
			7.2005682,112.3911285 7.2149348,112.2761917 7.2005682,112.1612625 7.2005682,112.075058 7.1862016,111.9601288 
			7.1718354,111.8595657 7.1431022,111.7589951 7.1287355,111.658432 7.0856361,111.557869 		"/>
		<polyline class="st2" points="33.979763,59.0051308 34.0228653,58.9620323 34.0515976,58.9045639 34.094696,58.8470993 
			34.1234283,58.7896309 34.1521645,58.7178001 34.1808968,58.6459656 34.2096291,58.5597687 34.2239952,58.473568 
			34.2383614,58.3873711 34.2527275,58.2868042 34.2670937,58.1862373 34.2670937,58.0856743 34.2670937,57.9851074 
			34.2527275,57.9276428 34.2527275,57.827076 34.2383614,57.7408752 34.2096291,57.6546783 34.1952629,57.5684776 
			34.1665306,57.4822807 34.1377983,57.4104462 34.1090622,57.3529816 34.0659637,57.281147 34.0372314,57.2380486 
			33.994133,57.180584 33.9510307,57.1518478 33.9079323,57.1087494 33.8504677,57.0943832 33.8073654,57.0800171 
			33.7499008,57.0656509 33.7068024,57.0800171 33.6780663,57.0800171 33.6206017,57.1087494 33.5775032,57.1374817 
			33.5344009,57.166214 33.4913025,57.2093163 33.448204,57.2667809 33.4194717,57.3242455 33.3907356,57.39608 
			33.3476372,57.4679108 33.333271,57.5397453 33.3045387,57.625946 33.2901726,57.7121429 33.2614403,57.7983437 
			33.2614403,57.8989067 33.2470703,57.9851074 33.2470703,58.0856743 33.2470703,58.1862373 33.2470703,58.2580719 
			33.2614403,58.3442688 33.2758064,58.4448357 33.2901726,58.5310364 33.3189049,58.6172333 33.3476372,58.6890678 
			33.3763695,58.7608986 33.4051056,58.8327332 33.448204,58.8901978 33.4769363,58.9476624 33.5200348,58.9907646 
			33.5631371,59.0338631 33.6062355,59.0625954 33.6637001,59.0913277 33.7068024,59.1056976 33.7499008,59.1056976 
			33.764267,59.1056976 33.8073654,59.1056976 33.8360977,59.0913277 33.8792,59.0769615 33.9366646,59.0482292 
			33.979763,59.0051308 		"/>
		<polyline class="st2" points="30.172636,59.0051308 30.2157364,58.9620323 30.2588348,58.9045639 30.3019352,58.8470993 
			30.3306675,58.7896309 30.3594017,58.7178001 30.388134,58.6459656 30.4168682,58.5597687 30.4312344,58.473568 
			30.4456005,58.3873711 30.4599667,58.2868042 30.4599667,58.1862373 30.4599667,58.0856743 30.4599667,57.9851074 
			30.4599667,57.9276428 30.4456005,57.827076 30.4312344,57.7408752 30.4168682,57.6546783 30.388134,57.5684776 
			30.3737679,57.4822807 30.3450356,57.4104462 30.3019352,57.3529816 30.2732029,57.281147 30.2301025,57.2380486 
			30.1870022,57.180584 30.1439037,57.1518478 30.1008034,57.1087494 30.0577049,57.0943832 30.0146046,57.0800171 
			29.9571381,57.0656509 29.9140396,57.0800171 29.8709393,57.0800171 29.8278408,57.1087494 29.7847404,57.1374817 
			29.7416401,57.166214 29.6985416,57.2093163 29.6554413,57.2667809 29.626709,57.3242455 29.5836086,57.39608 
			29.5548763,57.4679108 29.5261421,57.5397453 29.511776,57.625946 29.4830437,57.7121429 29.4686775,57.7983437 
			29.4543095,57.8989067 29.4543095,57.9851074 29.4543095,58.0856743 29.4543095,58.1862373 29.4543095,58.2580719 
			29.4686775,58.3442688 29.4830437,58.4448357 29.4974098,58.5310364 29.5261421,58.6172333 29.5405102,58.6890678 
			29.5836086,58.7608986 29.6123428,58.8327332 29.6410751,58.8901978 29.6841755,58.9476624 29.7272739,58.9907646 
			29.7703743,59.0338631 29.8134727,59.0625954 29.8565731,59.0913277 29.9140396,59.1056976 29.9571381,59.1056976 
			30.0146046,59.1056976 30.0433369,59.0913277 30.0864372,59.0769615 30.1295376,59.0482292 30.172636,59.0051308 		"/>
		<polyline class="st2" points="22.5871124,59.0051308 22.6302128,58.9620323 22.6589451,58.9045639 22.7020454,58.8470993 
			22.7307777,58.7896309 22.7595119,58.7178001 22.7882442,58.6459656 22.8169765,58.5597687 22.8313446,58.473568 
			22.8457108,58.3873711 22.8600769,58.2868042 22.8744431,58.1862373 22.8744431,58.0856743 22.8744431,57.9851074 
			22.8600769,57.9276428 22.8600769,57.827076 22.8457108,57.7408752 22.8169765,57.6546783 22.8026104,57.5684776 
			22.7738781,57.4822807 22.7451439,57.4104462 22.7164116,57.3529816 22.6733112,57.281147 22.6445789,57.2380486 
			22.6014786,57.180584 22.5583801,57.1518478 22.5152798,57.1087494 22.4578152,57.0943832 22.4147148,57.0800171 
			22.3572483,57.0656509 22.3141499,57.0800171 22.2854156,57.0800171 22.2279491,57.1087494 22.1848507,57.1374817 
			22.1417503,57.166214 22.0986519,57.2093163 22.0555515,57.2667809 22.0268192,57.3242455 21.998085,57.39608 
			21.9549866,57.4679108 21.9406204,57.5397453 21.9118862,57.625946 21.8975201,57.7121429 21.8687878,57.7983437 
			21.8687878,57.8989067 21.8544197,57.9851074 21.8544197,58.0856743 21.8544197,58.1862373 21.8544197,58.2580719 
			21.8687878,58.3442688 21.8831539,58.4448357 21.8975201,58.5310364 21.9262524,58.6172333 21.9549866,58.6890678 
			21.9837189,58.7608986 22.0124512,58.8327332 22.0555515,58.8901978 22.0842838,58.9476624 22.1273842,58.9907646 
			22.1704845,59.0338631 22.213583,59.0625954 22.2710495,59.0913277 22.3141499,59.1056976 22.3572483,59.1056976 
			22.4147148,59.1056976 22.4434471,59.0913277 22.4865475,59.0769615 22.544014,59.0482292 22.5871124,59.0051308 		"/>
		<polyline class="st2" points="18.7799854,59.0051308 18.8230839,58.9620323 18.8661842,58.9045639 18.9092827,58.8470993 
			18.9380169,58.7896309 18.9667492,58.7178001 18.9954834,58.6459656 19.0242157,58.5597687 19.0385818,58.473568 
			19.052948,58.3873711 19.0673161,58.2868042 19.0673161,58.1862373 19.0816822,58.0856743 19.0673161,57.9851074 
			19.0673161,57.9276428 19.052948,57.827076 19.0385818,57.7408752 19.0242157,57.6546783 19.0098495,57.5684776 
			18.9811153,57.4822807 18.952383,57.4104462 18.9092827,57.3529816 18.8805504,57.281147 18.83745,57.2380486 
			18.7943516,57.180584 18.7512512,57.1518478 18.7081528,57.1087494 18.6650524,57.0943832 18.6219521,57.0800171 
			18.5644875,57.0656509 18.5213871,57.0800171 18.4782887,57.0800171 18.4351883,57.1087494 18.3920879,57.1374817 
			18.3489895,57.166214 18.3058891,57.2093163 18.2627907,57.2667809 18.2340565,57.3242455 18.190958,57.39608 
			18.1622238,57.4679108 18.1334915,57.5397453 18.1191254,57.625946 18.0903912,57.7121429 18.076025,57.7983437 
			18.0616589,57.8989067 18.0616589,57.9851074 18.0616589,58.0856743 18.0616589,58.1862373 18.0616589,58.2580719 
			18.076025,58.3442688 18.0903912,58.4448357 18.1047573,58.5310364 18.1334915,58.6172333 18.1478577,58.6890678 
			18.190958,58.7608986 18.2196903,58.8327332 18.2484226,58.8901978 18.291523,58.9476624 18.3346233,58.9907646 
			18.3777218,59.0338631 18.4208221,59.0625954 18.4639206,59.0913277 18.5213871,59.1056976 18.5644875,59.1056976 
			18.6219521,59.1056976 18.6506863,59.0913277 18.6937847,59.0769615 18.7368851,59.0482292 18.7799854,59.0051308 		"/>
		<polygon class="st2" points="27.9170933,88.8156662 27.9745579,88.758194 28.0176582,88.7007294 28.0607586,88.6288986 
			28.103857,88.5570679 28.1325912,88.4708633 28.1756897,88.3846664 28.1900558,88.2841034 28.2187901,88.1835327 
			28.2331562,88.0686035 28.2475224,87.9680405 28.2618885,87.8531036 28.2618885,87.7238083 28.2618885,87.6088715 
			28.2618885,87.5370407 28.2475224,87.4221115 28.2331562,87.3071747 28.2044239,87.2066116 28.1756897,87.1060486 
			28.1469574,87.0198441 28.1182232,86.9336472 28.0751247,86.8474503 28.0320244,86.7756195 27.9889259,86.7181473 
			27.9314594,86.6606827 27.8883591,86.6175842 27.8308926,86.5744858 27.773428,86.5457535 27.7159615,86.5313873 
			27.6584949,86.5313873 27.6010284,86.5313873 27.55793,86.5457535 27.5148296,86.5601196 27.4573631,86.6032181 
			27.3998985,86.6463165 27.3567982,86.689415 27.3136978,86.7612534 27.2705994,86.8330841 27.227499,86.9049149 
			27.1844006,86.9911118 27.1556664,87.0773163 27.1269341,87.1778793 27.0981998,87.2784424 27.0838337,87.3790131 
			27.0694675,87.4939423 27.0694675,87.6088715 27.0551014,87.7238083 27.0694675,87.8531036 27.0694675,87.924942 
			27.0838337,88.0398712 27.0981998,88.1404343 27.1125679,88.2553711 27.1413002,88.341568 27.1700325,88.442131 
			27.2131329,88.5283356 27.2562332,88.6001663 27.2849655,88.6719971 27.342432,88.7438278 27.3855305,88.8013 
			27.442997,88.8443985 27.4860973,88.8874969 27.5435638,88.9162292 27.6010284,88.9305954 27.6584949,88.9305954 
			27.7159615,88.9305954 27.7590599,88.9162292 27.8165264,88.8874969 27.8739929,88.8587646 		"/>
		<polyline class="st2" points="26.3798752,59.0051308 26.4229736,58.9620323 26.466074,58.9045639 26.4948063,58.8470993 
			26.5379066,58.7896309 26.5666389,58.7178001 26.5953732,58.6459656 26.6097393,58.5597687 26.6384716,58.473568 
			26.6528378,58.3873711 26.6672058,58.2868042 26.6672058,58.1862373 26.6672058,58.0856743 26.6672058,57.9851074 
			26.6672058,57.9276428 26.6528378,57.827076 26.6384716,57.7408752 26.6241055,57.6546783 26.5953732,57.5684776 
			26.5666389,57.4822807 26.5379066,57.4104462 26.5091743,57.3529816 26.4804401,57.281147 26.4373417,57.2380486 
			26.3942413,57.180584 26.351141,57.1518478 26.3080425,57.1087494 26.2649422,57.0943832 26.2074757,57.0800171 
			26.1643772,57.0656509 26.1069107,57.0800171 26.0781784,57.0800171 26.035078,57.1087494 25.9776115,57.1374817 
			25.9345131,57.166214 25.9057789,57.2093163 25.8626804,57.2667809 25.8195801,57.3242455 25.7908478,57.39608 
			25.7621136,57.4679108 25.7333813,57.5397453 25.704649,57.625946 25.6902809,57.7121429 25.6759148,57.7983437 
			25.6615486,57.8989067 25.6471825,57.9851074 25.6471825,58.0856743 25.6471825,58.1862373 25.6615486,58.2580719 
			25.6615486,58.3442688 25.6759148,58.4448357 25.704649,58.5310364 25.7190151,58.6172333 25.7477474,58.6890678 
			25.7764816,58.7608986 25.8052139,58.8327332 25.8483143,58.8901978 25.8914127,58.9476624 25.9201469,58.9907646 
			25.9632454,59.0338631 26.0207119,59.0625954 26.0638103,59.0913277 26.1069107,59.1056976 26.1643772,59.1056976 
			26.2074757,59.1056976 26.2362099,59.0913277 26.2936764,59.0769615 26.3367748,59.0482292 26.3798752,59.0051308 		"/>
		<polyline class="st2" points="37.7725258,59.0051308 37.8156242,58.9620323 37.8587265,58.9045639 37.8874588,58.8470993 
			37.9305573,58.7896309 37.9592896,58.7178001 37.9880257,58.6459656 38.0023918,58.5597687 38.0311241,58.473568 
			38.0454903,58.3873711 38.0454903,58.2868042 38.0598564,58.1862373 38.0598564,58.0856743 38.0598564,57.9851074 
			38.0598564,57.9276428 38.0454903,57.827076 38.0311241,57.7408752 38.016758,57.6546783 37.9880257,57.5684776 
			37.9592896,57.4822807 37.9305573,57.4104462 37.901825,57.3529816 37.8587265,57.281147 37.8299942,57.2380486 
			37.7868919,57.180584 37.7437935,57.1518478 37.700695,57.1087494 37.6575928,57.0943832 37.6001282,57.0800171 
			37.5570297,57.0656509 37.4995613,57.0800171 37.470829,57.0800171 37.4277306,57.1087494 37.3702621,57.1374817 
			37.3271637,57.166214 37.2984314,57.2093163 37.2553329,57.2667809 37.2122307,57.3242455 37.1834984,57.39608 
			37.1547661,57.4679108 37.1260338,57.5397453 37.0973015,57.625946 37.0829315,57.7121429 37.0685654,57.7983437 
			37.0541992,57.8989067 37.0398331,57.9851074 37.0398331,58.0856743 37.0398331,58.1862373 37.0541992,58.2580719 
			37.0541992,58.3442688 37.0685654,58.4448357 37.0973015,58.5310364 37.1116676,58.6172333 37.1403999,58.6890678 
			37.1691322,58.7608986 37.1978645,58.8327332 37.2409668,58.8901978 37.2840652,58.9476624 37.3127975,58.9907646 
			37.355896,59.0338631 37.4133644,59.0625954 37.4564629,59.0913277 37.4995613,59.1056976 37.5570297,59.1056976 
			37.6001282,59.1056976 37.6288605,59.0913277 37.6863289,59.0769615 37.7294273,59.0482292 37.7725258,59.0051308 		"/>
		<polygon class="st2" points="23.5353031,80.0377197 23.5784035,79.9802551 23.6215019,79.9227829 23.6646023,79.8509521 
			23.7077007,79.7647552 23.7508011,79.6929245 23.7795334,79.5923538 23.8082676,79.4917908 23.8226337,79.3912277 
			23.851366,79.290657 23.8657341,79.1757278 23.8657341,79.060791 23.8657341,78.9458618 23.8657341,78.8309326 
			23.8657341,78.7447281 23.851366,78.644165 23.8369999,78.5292358 23.8082676,78.4286652 23.7939014,78.3281021 
			23.7508011,78.2419052 23.7220688,78.1557007 23.6789684,78.0695038 23.63587,77.997673 23.5927696,77.9258423 
			23.5496693,77.8827362 23.4922047,77.8252716 23.4491043,77.7965393 23.3916378,77.767807 23.3341713,77.7534409 
			23.2767067,77.7390747 23.204874,77.7534409 23.1761398,77.7534409 23.1186752,77.7821732 23.0612087,77.8109055 
			23.0037422,77.8540039 22.9606419,77.9114761 22.9175434,77.9689407 22.8744431,78.0407715 22.8313446,78.1269684 
			22.8026104,78.1988068 22.7595119,78.2993698 22.7307777,78.3999329 22.7164116,78.5005035 22.6876793,78.6010666 
			22.6733112,78.7159958 22.6733112,78.8309326 22.6733112,78.9458618 22.6733112,79.060791 22.6733112,79.1469955 
			22.6876793,79.2475586 22.7020454,79.3624878 22.7307777,79.4630585 22.7595119,79.5636215 22.7882442,79.6498184 
			22.8169765,79.7360229 22.8600769,79.8222198 22.9031773,79.8940506 22.9462757,79.965889 22.9893761,80.0089874 
			23.0468426,80.066452 23.1043072,80.0951843 23.1474075,80.1239166 23.204874,80.1382828 23.2767067,80.1526489 
			23.3341713,80.1382828 23.3629055,80.1382828 23.420372,80.1095505 23.4778366,80.0808182 		"/>
		<polygon class="st2" points="17.4007988,80.0377197 17.4438992,79.9802551 17.4869976,79.9227829 17.530098,79.8509521 
			17.5731964,79.7647552 17.6019306,79.6929245 17.6450291,79.5923538 17.6737633,79.4917908 17.6881294,79.3912277 
			17.7168617,79.290657 17.7312279,79.1757278 17.7312279,79.060791 17.7312279,78.9458618 17.7312279,78.8309326 
			17.7312279,78.7447281 17.7168617,78.644165 17.7024956,78.5292358 17.6737633,78.4286652 17.6450291,78.3281021 
			17.6162968,78.2419052 17.5875626,78.1557007 17.5444641,78.0695038 17.5013638,77.997673 17.4582653,77.9258423 
			17.4151649,77.8827362 17.3576984,77.8252716 17.3002338,77.7965393 17.2571335,77.767807 17.199667,77.7534409 
			17.1278343,77.7390747 17.0703678,77.7534409 17.0416355,77.7534409 16.984169,77.7821732 16.9267025,77.8109055 
			16.8692379,77.8540039 16.8261375,77.9114761 16.7830391,77.9689407 16.7399387,78.0407715 16.6968384,78.1269684 
			16.6537399,78.1988068 16.6250057,78.2993698 16.5962734,78.3999329 16.5819073,78.5005035 16.5531731,78.6010666 
			16.5388069,78.7159958 16.5388069,78.8309326 16.5388069,78.9458618 16.5388069,79.060791 16.5388069,79.1469955 
			16.5531731,79.2475586 16.5675411,79.3624878 16.5962734,79.4630585 16.6250057,79.5636215 16.6537399,79.6498184 
			16.6824722,79.7360229 16.7255726,79.8222198 16.768671,79.8940506 16.8117714,79.965889 16.8548717,80.0089874 
			16.9123363,80.066452 16.9554367,80.0951843 17.0129032,80.1239166 17.0703678,80.1382828 17.1278343,80.1526489 
			17.199667,80.1382828 17.2284012,80.1382828 17.2858658,80.1095505 17.3433323,80.0808182 		"/>
		<polygon class="st2" points="11.2806606,119.9910126 11.2231941,119.933548 11.1657286,119.9048157 11.1082621,119.8760834 
			11.0507965,119.8617172 10.99333,119.8473511 10.9358635,119.8617172 10.9071312,119.8760834 10.8496647,119.8904495 
			10.7921991,119.933548 10.7347326,119.9766464 10.6916332,120.0197449 10.6485338,120.0915833 10.6054335,120.1490479 
			10.5623341,120.2352448 10.5192347,120.3214417 10.4905014,120.4076462 10.4617691,120.5082092 10.447402,120.6087723 
			10.4186687,120.709343 10.4043026,120.8242722 10.4043026,120.939209 10.3899364,121.0541382 10.4043026,121.1690674 
			10.4043026,121.2552719 10.4186687,121.3702011 10.4330359,121.4707642 10.4617691,121.5713348 10.4761353,121.6718979 
			10.5192347,121.7724609 10.5479679,121.8586655 10.5910673,121.9304962 10.6341667,122.002327 10.6772661,122.0741577 
			10.7203665,122.1316299 10.777832,122.1747284 10.8209314,122.2034607 10.8783979,122.232193 10.9358635,122.2609253 
			10.99333,122.2609253 11.0507965,122.2609253 11.0938959,122.2465591 11.1513615,122.2178268 11.208828,122.1890945 
			11.2519274,122.1459961 11.3093939,122.0885239 11.3524933,122.0310593 11.3955927,121.9592285 11.4386921,121.8873978 
			11.4674253,121.8011932 11.5105247,121.7006302 11.539258,121.6144333 11.5536242,121.5138626 11.5679913,121.3989334 
			11.5823574,121.2840042 11.5967236,121.1690674 11.5967236,121.0541382 11.5967236,120.939209 11.5967236,120.8673706 
			11.5823574,120.7524414 11.5679913,120.6375122 11.539258,120.5369415 11.5105247,120.4363785 11.4817915,120.3501816 
			11.4530582,120.2639771 11.4099588,120.1777802 11.3668594,120.1059494 11.32376,120.0484848 		"/>
		<polygon class="st2" points="17.3576984,119.933548 17.3002338,119.9048157 17.2571335,119.8760834 17.199667,119.8617172 
			17.1278343,119.8473511 17.0703678,119.8617172 17.0416355,119.8760834 16.984169,119.8904495 16.9267025,119.933548 
			16.8692379,119.9766464 16.8261375,120.0197449 16.7830391,120.0915833 16.7399387,120.1490479 16.6968384,120.2352448 
			16.6537399,120.3214417 16.6250057,120.4076462 16.5962734,120.5082092 16.5819073,120.6087723 16.5531731,120.709343 
			16.5388069,120.8242722 16.5388069,120.939209 16.5388069,121.0541382 16.5388069,121.1690674 16.5388069,121.2552719 
			16.5531731,121.3702011 16.5675411,121.4707642 16.5962734,121.5713348 16.6250057,121.6718979 16.6537399,121.7724609 
			16.6824722,121.8586655 16.7255726,121.9304962 16.768671,122.002327 16.8117714,122.0741577 16.8548717,122.1316299 
			16.9123363,122.1747284 16.9554367,122.2034607 17.0129032,122.232193 17.0703678,122.2609253 17.1278343,122.2609253 
			17.199667,122.2609253 17.2284012,122.2465591 17.2858658,122.2178268 17.3433323,122.1890945 17.4007988,122.1459961 
			17.4438992,122.0885239 17.4869976,122.0310593 17.530098,121.9592285 17.5731964,121.8873978 17.6019306,121.8011932 
			17.6450291,121.7006302 17.6737633,121.6144333 17.6881294,121.5138626 17.7168617,121.3989334 17.7312279,121.2840042 
			17.7312279,121.1690674 17.7312279,121.0541382 17.7312279,120.939209 17.7312279,120.8673706 17.7168617,120.7524414 
			17.7024956,120.6375122 17.6737633,120.5369415 17.6450291,120.4363785 17.6162968,120.3501816 17.5875626,120.2639771 
			17.5444641,120.1777802 17.5013638,120.1059494 17.4582653,120.0484848 17.4151649,119.9910126 		"/>
		<polygon class="st2" points="23.3916378,119.8760834 23.3341713,119.8617172 23.2767067,119.8473511 23.204874,119.8617172 
			23.1761398,119.8760834 23.1186752,119.8904495 23.0612087,119.933548 23.0037422,119.9766464 22.9606419,120.0197449 
			22.9175434,120.0915833 22.8744431,120.1490479 22.8313446,120.2352448 22.8026104,120.3214417 22.7595119,120.4076462 
			22.7307777,120.5082092 22.7164116,120.6087723 22.6876793,120.709343 22.6733112,120.8242722 22.6733112,120.939209 
			22.6733112,121.0541382 22.6733112,121.1690674 22.6733112,121.2552719 22.6876793,121.3702011 22.7020454,121.4707642 
			22.7307777,121.5713348 22.7595119,121.6718979 22.7882442,121.7724609 22.8169765,121.8586655 22.8600769,121.9304962 
			22.9031773,122.002327 22.9462757,122.0741577 22.9893761,122.1316299 23.0468426,122.1747284 23.1043072,122.2034607 
			23.1474075,122.232193 23.204874,122.2609253 23.2767067,122.2609253 23.3341713,122.2609253 23.3629055,122.2465591 
			23.420372,122.2178268 23.4778366,122.1890945 23.5353031,122.1459961 23.5784035,122.0885239 23.6215019,122.0310593 
			23.6646023,121.9592285 23.7077007,121.8873978 23.7508011,121.8011932 23.7795334,121.7006302 23.8082676,121.6144333 
			23.8226337,121.5138626 23.851366,121.3989334 23.8657341,121.2840042 23.8657341,121.1690674 23.8657341,121.0541382 
			23.8657341,120.939209 23.8657341,120.8673706 23.851366,120.7524414 23.8369999,120.6375122 23.8082676,120.5369415 
			23.7939014,120.4363785 23.7508011,120.3501816 23.7220688,120.2639771 23.6789684,120.1777802 23.63587,120.1059494 
			23.5927696,120.0484848 23.5496693,119.9910126 23.4922047,119.933548 23.4491043,119.9048157 		"/>
		<polygon class="st2" points="27.773428,111.0981369 27.7159615,111.0694046 27.6584949,111.0694046 27.6010284,111.0694046 
			27.55793,111.0837708 27.5148296,111.1125031 27.4573631,111.1412354 27.3998985,111.1843338 27.3567982,111.241806 
			27.3136978,111.2992706 27.2705994,111.3711014 27.227499,111.4429321 27.1844006,111.5291367 27.1556664,111.6296997 
			27.1269341,111.7158966 27.0981998,111.8164673 27.0838337,111.9313965 27.0694675,112.0463257 27.0694675,112.1612625 
			27.0551014,112.2761917 27.0694675,112.3911285 27.0694675,112.4629593 27.0838337,112.5778885 27.0981998,112.6928253 
			27.1125679,112.7933884 27.1413002,112.8939514 27.1700325,112.9801559 27.2131329,113.0663528 27.2562332,113.1525497 
			27.2849655,113.2243805 27.342432,113.2818527 27.3855305,113.3393173 27.442997,113.3824158 27.4860973,113.4255142 
			27.5435638,113.4542465 27.6010284,113.4686127 27.6584949,113.4829788 27.7159615,113.4686127 27.7590599,113.4542465 
			27.8165264,113.4398804 27.8739929,113.3967819 27.9170933,113.3536835 27.9745579,113.310585 28.0176582,113.2387466 
			28.0607586,113.181282 28.103857,113.0950851 28.1325912,113.0088882 28.1756897,112.9226837 28.1900558,112.8221207 
			28.2187901,112.7215576 28.2331562,112.6209869 28.2475224,112.5060577 28.2618885,112.3911285 28.2618885,112.2761917 
			28.2618885,112.1612625 28.2618885,112.075058 28.2475224,111.9601288 28.2331562,111.8595657 28.2044239,111.7589951 
			28.1756897,111.658432 28.1469574,111.557869 28.1182232,111.4716644 28.0751247,111.3998337 28.0320244,111.3280029 
			27.9889259,111.2561722 27.9314594,111.1987 27.8883591,111.1556015 27.8308926,111.1268692 		"/>
		<polygon class="st2" points="26.1643772,140.8943024 26.1069107,140.8943024 26.0781784,140.9086761 26.035078,140.9230347 
			25.9776115,140.951767 25.9345131,140.994873 25.9057789,141.0379639 25.8626804,141.0954285 25.8195801,141.1529083 
			25.7908478,141.2103729 25.7621136,141.282196 25.7333813,141.3683929 25.704649,141.4402313 25.6902809,141.5264282 
			25.6759148,141.6269989 25.6615486,141.7131958 25.6471825,141.8137665 25.6471825,141.9143219 25.6471825,142.0148926 
			25.6615486,142.0723572 25.6615486,142.1729279 25.6759148,142.2591248 25.704649,142.3596954 25.7190151,142.4315186 
			25.7477474,142.5177155 25.7764816,142.5895538 25.8052139,142.6613922 25.8483143,142.7188568 25.8914127,142.7763214 
			25.9201469,142.8194122 25.9632454,142.8625183 26.0207119,142.8912506 26.0638103,142.9056244 26.1069107,142.9199829 
			26.1643772,142.9343567 26.2074757,142.9199829 26.2362099,142.9199829 26.2936764,142.8912506 26.3367748,142.8625183 
			26.3798752,142.833786 26.4229736,142.7906799 26.466074,142.7332153 26.4948063,142.6757507 26.5379066,142.6039276 
			26.5666389,142.5320892 26.5953732,142.4602509 26.6097393,142.374054 26.6384716,142.2878571 26.6528378,142.2016602 
			26.6672058,142.1154633 26.6672058,142.0148926 26.6672058,141.9143219 26.6672058,141.8137665 26.6672058,141.7419281 
			26.6528378,141.6557312 26.6384716,141.5551605 26.6241055,141.4689636 26.5953732,141.3971252 26.5666389,141.3109283 
			26.5379066,141.2391052 26.5091743,141.1672668 26.4804401,141.1098022 26.4373417,141.0523376 26.3942413,141.0092316 
			26.351141,140.9661407 26.3080425,140.9374084 26.2649422,140.9086761 26.2074757,140.8943024 		"/>
		<polyline class="st3" points="18.5644875,140.8943024 18.5213871,140.8943024 18.4782887,140.9086761 18.4351883,140.9230347 
			18.3920879,140.951767 18.3489895,140.994873 18.3058891,141.0379639 18.2627907,141.0954285 18.2340565,141.1529083 
			18.190958,141.2103729 18.1622238,141.282196 18.1334915,141.3683929 18.1191254,141.4402313 18.0903912,141.5264282 
			18.076025,141.6269989 18.0616589,141.7131958 18.0616589,141.8137665 18.0616589,141.9143219 18.0616589,142.0148926 
			18.0616589,142.0723572 18.076025,142.1729279 18.0903912,142.2591248 18.1047573,142.3596954 18.1334915,142.4315186 
			18.1478577,142.5177155 18.190958,142.5895538 18.2196903,142.6613922 18.2484226,142.7188568 18.291523,142.7763214 
			18.3346233,142.8194122 18.3777218,142.8625183 18.4208221,142.8912506 18.4639206,142.9056244 18.5213871,142.9199829 
			18.5644875,142.9343567 18.6219521,142.9199829 18.6506863,142.9199829 18.6937847,142.8912506 18.7368851,142.8625183 
			18.7799854,142.833786 18.8230839,142.7906799 18.8661842,142.7332153 18.9092827,142.6757507 18.9380169,142.6039276 
			18.9667492,142.5320892 18.9954834,142.4602509 19.0242157,142.374054 19.0385818,142.2878571 19.052948,142.2016602 
			19.0673161,142.1154633 19.0673161,142.0148926 19.0816822,141.9143219 19.0673161,141.8137665 19.0673161,141.7419281 
			19.052948,141.6557312 19.0385818,141.5551605 19.0242157,141.4689636 19.0098495,141.3971252 18.9811153,141.3109283 
			18.952383,141.2391052 18.9092827,141.1672668 18.8805504,141.1098022 18.83745,141.0523376 18.7943516,141.0092316 
			18.7512512,140.9661407 18.7081528,140.9374084 18.6650524,140.9086761 18.6219521,140.8943024 		"/>
		<line class="st2" x1="18.6219521" y1="140.8943024" x2="18.5788536" y2="140.8943024"/>
		<polyline class="st2" points="22.4147148,140.8943024 22.3572483,140.8943024 22.3141499,140.8943024 22.2854156,140.9086761 
			22.2279491,140.9230347 22.1848507,140.951767 22.1417503,140.994873 22.0986519,141.0379639 22.0555515,141.0954285 
			22.0268192,141.1529083 21.998085,141.2103729 21.9549866,141.282196 21.9406204,141.3683929 21.9118862,141.4402313 
			21.8975201,141.5264282 21.8687878,141.6269989 21.8687878,141.7131958 21.8544197,141.8137665 21.8544197,141.9143219 
			21.8544197,142.0148926 21.8544197,142.0723572 21.8687878,142.1729279 21.8831539,142.2591248 21.8975201,142.3596954 
			21.9262524,142.4315186 21.9549866,142.5177155 21.9837189,142.5895538 22.0124512,142.6613922 22.0555515,142.7188568 
			22.0842838,142.7763214 22.1273842,142.8194122 22.1704845,142.8625183 22.213583,142.8912506 22.2710495,142.9056244 
			22.3141499,142.9199829 22.3572483,142.9343567 22.4147148,142.9199829 22.4434471,142.9199829 22.4865475,142.8912506 
			22.544014,142.8625183 22.5871124,142.833786 22.6302128,142.7906799 22.6589451,142.7332153 22.7020454,142.6757507 
			22.7307777,142.6039276 22.7595119,142.5320892 22.7882442,142.4602509 22.8169765,142.374054 22.8313446,142.2878571 
			22.8457108,142.2016602 22.8600769,142.1154633 22.8744431,142.0148926 22.8744431,141.9143219 22.8744431,141.8137665 
			22.8600769,141.7419281 22.8600769,141.6557312 22.8457108,141.5551605 22.8169765,141.4689636 22.8026104,141.3971252 
			22.7738781,141.3109283 22.7451439,141.2391052 22.7164116,141.1672668 22.6733112,141.1098022 22.6445789,141.0523376 
			22.6014786,141.0092316 22.5583801,140.9661407 22.5152798,140.9374084 22.4578152,140.9086761 22.4147148,140.8943024 		"/>
		<polygon class="st2" points="29.9571381,140.8943024 29.9140396,140.8943024 29.8709393,140.9086761 29.8278408,140.9230347 
			29.7847404,140.951767 29.7416401,140.994873 29.6985416,141.0379639 29.6554413,141.0954285 29.626709,141.1529083 
			29.5836086,141.2103729 29.5548763,141.282196 29.5261421,141.3683929 29.511776,141.4402313 29.4830437,141.5264282 
			29.4686775,141.6269989 29.4543095,141.7131958 29.4543095,141.8137665 29.4543095,141.9143219 29.4543095,142.0148926 
			29.4543095,142.0723572 29.4686775,142.1729279 29.4830437,142.2591248 29.4974098,142.3596954 29.5261421,142.4315186 
			29.5405102,142.5177155 29.5836086,142.5895538 29.6123428,142.6613922 29.6410751,142.7188568 29.6841755,142.7763214 
			29.7272739,142.8194122 29.7703743,142.8625183 29.8134727,142.8912506 29.8565731,142.9056244 29.9140396,142.9199829 
			29.9571381,142.9343567 30.0146046,142.9199829 30.0433369,142.9199829 30.0864372,142.8912506 30.1295376,142.8625183 
			30.172636,142.833786 30.2157364,142.7906799 30.2588348,142.7332153 30.3019352,142.6757507 30.3306675,142.6039276 
			30.3594017,142.5320892 30.388134,142.4602509 30.4168682,142.374054 30.4312344,142.2878571 30.4456005,142.2016602 
			30.4599667,142.1154633 30.4599667,142.0148926 30.4599667,141.9143219 30.4599667,141.8137665 30.4599667,141.7419281 
			30.4456005,141.6557312 30.4312344,141.5551605 30.4168682,141.4689636 30.388134,141.3971252 30.3737679,141.3109283 
			30.3450356,141.2391052 30.3019352,141.1672668 30.2732029,141.1098022 30.2301025,141.0523376 30.1870022,141.0092316 
			30.1439037,140.9661407 30.1008034,140.9374084 30.0577049,140.9086761 30.0146046,140.8943024 		"/>
		<polyline class="st2" points="33.7068024,140.8943024 33.6780663,140.9086761 33.6206017,140.9230347 33.5775032,140.951767 
			33.5344009,140.994873 33.4913025,141.0379639 33.448204,141.0954285 33.4194717,141.1529083 33.3907356,141.2103729 
			33.3476372,141.282196 33.333271,141.3683929 33.3045387,141.4402313 33.2901726,141.5264282 33.2614403,141.6269989 
			33.2614403,141.7131958 33.2470703,141.8137665 33.2470703,141.9143219 33.2470703,142.0148926 33.2470703,142.0723572 
			33.2614403,142.1729279 33.2758064,142.2591248 33.2901726,142.3596954 33.3189049,142.4315186 33.3476372,142.5177155 
			33.3763695,142.5895538 33.4051056,142.6613922 33.448204,142.7188568 33.4769363,142.7763214 33.5200348,142.8194122 
			33.5631371,142.8625183 33.6062355,142.8912506 33.6637001,142.9056244 33.7068024,142.9199829 33.7499008,142.9343567 
			33.8073654,142.9199829 33.8360977,142.9199829 33.8792,142.8912506 33.9366646,142.8625183 33.979763,142.833786 
			34.0228653,142.7906799 34.0515976,142.7332153 34.094696,142.6757507 34.1234283,142.6039276 34.1521645,142.5320892 
			34.1808968,142.4602509 34.2096291,142.374054 34.2239952,142.2878571 34.2383614,142.2016602 34.2527275,142.1154633 
			34.2670937,142.0148926 34.2670937,141.9143219 34.2670937,141.8137665 34.2527275,141.7419281 34.2527275,141.6557312 
			34.2383614,141.5551605 34.2096291,141.4689636 34.1952629,141.3971252 34.1665306,141.3109283 34.1377983,141.2391052 
			34.1090622,141.1672668 34.0659637,141.1098022 34.0372314,141.0523376 33.994133,141.0092316 33.9510307,140.9661407 
			33.9079323,140.9374084 33.8504677,140.9086761 33.8073654,140.8943024 33.764267,140.8943024 33.7499008,140.8943024 
			33.7068024,140.8943024 		"/>
		<polyline class="st2" points="37.4995613,140.8943024 37.470829,140.9086761 37.4277306,140.9230347 37.3702621,140.951767 
			37.3271637,140.994873 37.2984314,141.0379639 37.2553329,141.0954285 37.2122307,141.1529083 37.1834984,141.2103729 
			37.1547661,141.282196 37.1260338,141.3683929 37.0973015,141.4402313 37.0829315,141.5264282 37.0685654,141.6269989 
			37.0541992,141.7131958 37.0398331,141.8137665 37.0398331,141.9143219 37.0398331,142.0148926 37.0541992,142.0723572 
			37.0541992,142.1729279 37.0685654,142.2591248 37.0973015,142.3596954 37.1116676,142.4315186 37.1403999,142.5177155 
			37.1691322,142.5895538 37.1978645,142.6613922 37.2409668,142.7188568 37.2840652,142.7763214 37.3127975,142.8194122 
			37.355896,142.8625183 37.4133644,142.8912506 37.4564629,142.9056244 37.4995613,142.9199829 37.5570297,142.9343567 
			37.6001282,142.9199829 37.6288605,142.9199829 37.6863289,142.8912506 37.7294273,142.8625183 37.7725258,142.833786 
			37.8156242,142.7906799 37.8587265,142.7332153 37.8874588,142.6757507 37.9305573,142.6039276 37.9592896,142.5320892 
			37.9880257,142.4602509 38.0023918,142.374054 38.0311241,142.2878571 38.0454903,142.2016602 38.0454903,142.1154633 
			38.0598564,142.0148926 38.0598564,141.9143219 38.0598564,141.8137665 38.0598564,141.7419281 38.0454903,141.6557312 
			38.0311241,141.5551605 38.016758,141.4689636 37.9880257,141.3971252 37.9592896,141.3109283 37.9305573,141.2391052 
			37.901825,141.1672668 37.8587265,141.1098022 37.8299942,141.0523376 37.7868919,141.0092316 37.7437935,140.9661407 
			37.700695,140.9374084 37.6575928,140.9086761 37.6001282,140.8943024 37.5570297,140.8943024 37.4995613,140.8943024 		"/>
		<polyline class="st1" points="0.75,67.2371445 16.1365452,67.2371445 22.3572483,67.2371445 24.2248974,67.2371445 
			26.1643772,67.2371445 29.9571381,67.2371445 31.8966198,67.2371445 33.5200348,67.2371445 33.764267,67.2371445 
			39.9849701,67.2371445 43.3467369,67.2371445 58.7332802,67.2371445 		"/>
		<polyline class="st1" points="58.7332802,132.7628479 43.3467369,132.7628479 39.9849701,132.7628479 33.764267,132.7628479 
			33.5200348,132.7628479 31.8966198,132.7628479 29.9571381,132.7628479 26.1643772,132.7628479 24.2248974,132.7628479 
			22.3572483,132.7628479 16.1365452,132.7628479 0.75,132.7628479 		"/>
		<line class="st3" x1="29.9571381" y1="59.1056976" x2="29.9571381" y2="67.2371445"/>
		<polyline class="st3" points="18.5644875,59.1056976 22.3572483,61.4761734 22.3572483,67.2371445 22.3572483,67.2515106 		"/>
		<polyline class="st3" points="22.3572483,59.1056976 24.2248974,61.4761734 24.2248974,67.2371445 		"/>
		<polyline class="st3" points="37.5570297,59.1056976 33.764267,61.4761734 33.764267,67.2371445 33.764267,67.2515106 		"/>
		<polyline class="st3" points="33.764267,59.1056976 31.8966198,61.4761734 31.8966198,67.2371445 		"/>
		<polyline class="st3" points="26.1643772,59.1056976 26.1643772,67.2371445 26.1643772,67.2515106 		"/>
		<line class="st3" x1="29.9571381" y1="140.8943024" x2="29.9571381" y2="132.7628479"/>
		<polyline class="st3" points="18.5788536,140.8943024 22.3572483,138.5238342 22.3572483,132.7628479 22.3572483,132.7484894 		
			"/>
		<line class="st2" x1="18.5644875" y1="140.8943024" x2="18.5788536" y2="140.8943024"/>
		<polyline class="st3" points="22.3572483,140.8943024 24.2248974,138.5238342 24.2248974,132.7628479 		"/>
		<polyline class="st3" points="37.5570297,140.8943024 33.764267,138.5238342 33.764267,132.7628479 33.764267,132.7484894 		"/>
		<polyline class="st3" points="33.764267,140.8943024 31.8966198,138.5238342 31.8966198,132.7628479 		"/>
		<polyline class="st3" points="26.1643772,140.8943024 26.1643772,132.7628479 26.1643772,132.7484894 		"/>
		<rect x="9.8727417" y="85.5400925" class="st1" width="14.5245533" height="28.9198074"/>
	</g>
</g>
</svg>
