<?xml version="1.0" encoding="utf-8"?>
<!-- Generator: Adobe Illustrator 21.0.0, SVG Export Plug-In . SVG Version: 6.00 Build 0)  -->
<svg version="1.1" id="Layer_1" xmlns="http://www.w3.org/2000/svg" xmlns:xlink="http://www.w3.org/1999/xlink" x="0px" y="0px"
	 viewBox="0 0 74.6633072 200" style="enable-background:new 0 0 74.6633072 200;" xml:space="preserve">
<style type="text/css">
	.st0{fill:#ECF0F1;}
	.st1{fill:none;stroke:#000000;stroke-width:1.2;stroke-linecap:round;stroke-linejoin:round;}
	
		.st2{fill:none;stroke:#000000;stroke-width:0.75;stroke-linecap:round;stroke-linejoin:round;stroke-miterlimit:10;stroke-dasharray:2;}
	.st3{fill:none;stroke:#000000;stroke-width:0.75;stroke-linecap:round;stroke-linejoin:round;}
	
		.st4{fill:none;stroke:#000000;stroke-width:0.75;stroke-linecap:round;stroke-linejoin:round;stroke-dasharray:2.0246837,2.0246837;}
	
		.st5{fill:none;stroke:#000000;stroke-width:0.75;stroke-linecap:round;stroke-linejoin:round;stroke-dasharray:2.0244911,2.0244911;}
</style>
<g>
	<g id="XMLID_3_">
		<g>
			<polygon class="st0" points="60.7449951,94.1787796 60.7449951,105.8237305 59.7574387,105.8237305 59.7574387,99.9944 
				59.7574387,94.1787796 			"/>
			<polygon class="st0" points="59.0716324,173.5948639 59.0442009,174.7195892 58.0703583,174.7195892 58.180088,170.2755737 
				59.7574387,108.7315369 60.7449951,108.7315369 59.1676445,170.2755737 			"/>
			<polygon class="st0" points="11.5317125,99.9944 11.5317125,105.8237305 10.5441551,105.8237305 10.5441551,94.1787796 
				11.5317125,94.1787796 			"/>
			<path class="st0" d="M11.5317125,108.7315369l-1.6733608,64.9867706
				c-0.0137167,0.1371613-0.0137167,0.2606049-0.0137167,0.3977661l-0.0137157,0.6035156H8.8433619l0.1234446-4.4440155
				l1.5773487-61.5440369H11.5317125z"/>
		</g>
		<g>
			<polyline class="st1" points="70.7440109,177.9428558 9.8309193,177.9428558 3.9192905,177.9428558 3.6312528,177.9291382 
				3.3432152,177.8880005 3.0688937,177.8194122 2.7945721,177.7096863 2.5202508,177.5862427 2.2596452,177.4353638 
				2.0264719,177.2570496 1.7932986,177.0513153 1.5738415,176.8181458 1.3818164,176.5712585 1.2035073,176.3106537 
				1.0526305,176.0363312 0.9154698,175.7345734 0.8057411,175.4190979 0.7234447,175.1036377 0.6548643,174.7744446 
				0.6137161,174.4452667 0.6,174.1160736 0.6137161,173.7731781 0.6548643,173.443985 0.7234447,173.1285248 
				0.8057411,172.7993317 0.9154698,172.4975739 1.0526305,172.1958313 1.2035073,171.9215088 1.3818164,171.6471863 
				1.5738415,171.4002991 1.7932986,171.1808319 2.0264719,170.9750977 2.2596452,170.7967834 2.5202508,170.6459045 
				2.7945721,170.5087433 3.0688937,170.412735 3.3432152,170.3441467 3.6312528,170.303009 3.9192905,170.2755737 
				8.9668064,170.2755737 			"/>
			<polyline class="st1" points="9.8583517,173.7183075 11.5317125,108.7315369 12.3546772,108.7315369 14.2337799,108.7315369 
				15.8111286,170.2755737 			"/>
			<polyline class="st1" points="11.5317125,108.7315369 10.5441551,108.7315369 8.9668064,170.2755737 8.8433619,174.7195892 
				9.8309193,174.7195892 9.844635,174.1160736 			"/>
			<polyline class="st1" points="60.7449951,108.7315369 59.1676445,170.2755737 59.0716324,173.5948639 59.0442009,174.7195892 			
				"/>
			<line class="st1" x1="58.180088" y1="170.2755737" x2="15.8111286" y2="170.2755737"/>
			<polyline class="st1" points="11.5317125,105.8237305 11.5317125,99.9944 11.5317125,94.1787796 			"/>
			<line class="st1" x1="10.5441551" y1="105.8237305" x2="10.5441551" y2="94.1787796"/>
			<polyline class="st1" points="14.2337799,105.8237305 14.2337799,99.9944 14.2337799,94.1787796 			"/>
			<line class="st1" x1="60.7449951" y1="94.1787796" x2="60.7449951" y2="105.8237305"/>
			<polyline class="st1" points="59.7574387,94.1787796 59.7574387,99.9944 59.7574387,105.8237305 			"/>
			<line class="st1" x1="63.4470634" y1="94.1787796" x2="63.4470634" y2="105.8237305"/>
			<line class="st1" x1="59.0442009" y1="174.7195892" x2="58.0703583" y2="174.7195892"/>
			<polyline class="st1" points="10.5441551,105.8237305 11.5317125,105.8237305 12.3546772,105.8237305 14.2337799,105.8237305 			
				"/>
			<polyline class="st1" points="10.5441551,94.1787796 11.5317125,94.1787796 14.2337799,94.1787796 			"/>
			<polyline class="st1" points="59.7574387,105.8237305 60.7449951,105.8237305 61.5679588,105.8237305 63.4470634,105.8237305 			
				"/>
			<polyline class="st1" points="59.7574387,94.1787796 60.7449951,94.1787796 63.4470634,94.1787796 			"/>
			<polyline class="st1" points="70.7440109,170.2755737 70.4559784,170.303009 70.1679382,170.3441467 69.8936157,170.412735 
				69.6192932,170.5087433 69.3449783,170.6459045 69.0843658,170.7967834 68.8511963,170.9750977 68.6180191,171.1808319 
				68.3985672,171.4002991 68.206543,171.6471863 68.0282288,171.9215088 67.8773575,172.1958313 67.7401962,172.4975739 
				67.6304626,172.7993317 67.548172,173.1285248 67.4795914,173.443985 67.4384384,173.7731781 67.4247208,174.1160736 
				67.4384384,174.4452667 67.4795914,174.7744446 67.548172,175.1036377 67.6304626,175.4190979 67.7401962,175.7345734 
				67.8773575,176.0363312 68.0282288,176.3106537 68.206543,176.5712585 68.3985672,176.8181458 68.6180191,177.0513153 
				68.8511963,177.2570496 69.0843658,177.4353638 69.3449783,177.5862427 69.6192932,177.7096863 69.8936157,177.8194122 
				70.1679382,177.8880005 70.4559784,177.9291382 70.7440109,177.9428558 71.0320511,177.9291382 71.3200912,177.8880005 
				71.6081238,177.8194122 71.8824463,177.7096863 72.1567688,177.5862427 72.4036636,177.4353638 72.6505508,177.2570496 
				72.8837204,177.0513153 73.0894623,176.8181458 73.2952042,176.5712585 73.4735107,176.3106537 73.6243896,176.0363312 
				73.7615509,175.7345734 73.8712769,175.4190979 73.9535751,175.1036377 74.0221558,174.7744446 74.0495911,174.4452667 
				74.0633087,174.1160736 74.0495911,173.7731781 74.0221558,173.443985 73.9535751,173.1285248 73.8712769,172.7993317 
				73.7615509,172.4975739 73.6243896,172.1958313 73.4735107,171.9215088 73.2952042,171.6471863 73.0894623,171.4002991 
				72.8837204,171.1808319 72.6505508,170.9750977 72.4036636,170.7967834 72.1567688,170.6459045 71.8824463,170.5087433 
				71.6081238,170.412735 71.3200912,170.3441467 71.0320511,170.303009 70.7440109,170.2755737 65.0244141,170.2755737 			"/>
			<polyline class="st1" points="13.7537174,107.0993271 13.726285,106.9073029 13.6577044,106.7427063 13.575408,106.5643997 
				13.4793959,106.4135208 13.3559513,106.2763596 13.2187901,106.152916 13.0679131,106.0569077 12.9033203,105.9746094 
				12.7250118,105.9197464 12.5467024,105.8785934 12.3546772,105.8648758 12.1763687,105.8785934 11.9980593,105.9197464 
				11.8197508,105.9746094 11.6551571,106.0569077 11.504281,106.152916 11.353404,106.2763596 11.2436752,106.4135208 
				11.1339464,106.5643997 11.05165,106.7427063 10.9967861,106.9073029 10.9556379,107.0993271 10.9419212,107.2776337 
				10.9556379,107.4559402 10.9967861,107.6479721 11.05165,107.812561 11.1339464,107.9771576 11.2436752,108.1417465 
				11.353404,108.2789078 11.504281,108.4023514 11.6551571,108.4983673 11.8197508,108.5806656 11.9980593,108.6355286 
				12.1763687,108.6766739 12.3546772,108.6903915 12.5467024,108.6766739 12.7250118,108.6355286 12.9033203,108.5806656 
				13.0679131,108.4983673 13.2187901,108.4023514 13.3559513,108.2789078 13.4793959,108.1417465 13.575408,107.9771576 
				13.6577044,107.812561 13.726285,107.6479721 13.7537174,107.4559402 13.7674332,107.2776337 13.7537174,107.0993271 			"/>
			<polyline class="st1" points="60.2649307,107.812561 60.347229,107.9771576 60.4569588,108.1417465 60.5804024,108.2789078 
				60.7175636,108.4023514 60.8684387,108.4983673 61.0330315,108.5806656 61.2113419,108.6355286 61.3896523,108.6766739 
				61.5679588,108.6903915 61.7599831,108.6766739 61.9382935,108.6355286 62.1166039,108.5806656 62.2811966,108.4983673 
				62.4320717,108.4023514 62.5692329,108.2789078 62.6926765,108.1417465 62.7886887,107.9771576 62.8709869,107.812561 
				62.9395676,107.6479721 62.9669991,107.4559402 62.9807167,107.2776337 62.9669991,107.0993271 62.9395676,106.9073029 
				62.8709869,106.7427063 62.7886887,106.5643997 62.6926765,106.4135208 62.5692329,106.2763596 62.4320717,106.152916 
				62.2811966,106.0569077 62.1166039,105.9746094 61.9382935,105.9197464 61.7599831,105.8785934 61.5679588,105.8648758 
				61.3896523,105.8785934 61.2113419,105.9197464 61.0330315,105.9746094 60.8684387,106.0569077 60.7175636,106.152916 
				60.5804024,106.2763596 60.4569588,106.4135208 60.347229,106.5643997 60.2649307,106.7427063 60.2100677,106.9073029 
				60.1689186,107.0993271 60.1552048,107.2776337 60.1689186,107.4559402 60.2100677,107.6479721 60.2649307,107.812561 			"/>
			<polyline class="st1" points="58.0703583,174.7195892 58.180088,170.2755737 59.7574387,108.7315369 60.7449951,108.7315369 
				61.5679588,108.7315369 63.4470634,108.7315369 65.0244141,170.2755737 62.3909225,170.2755737 			"/>
			<path class="st1" d="M62.3909225,170.2755737c-1.7007904,0-3.0998306,1.4539032-3.3192902,3.3192902
				c-0.0137138,0.1783142-0.0274315,0.3428955-0.0274315,0.5212097"/>
			<path class="st1" d="M9.844635,174.1160736c0-0.1371613,0-0.2606049,0.0137167-0.3977661
				c0.1783085-1.9202423,1.5773487-3.4427338,3.3192902-3.4427338h2.6334867"/>
			<polyline class="st2" points="12.8210239,99.9944 14.2337799,99.9944 59.7574387,99.9944 			"/>
		</g>
	</g>
	<g>
		<g>
			<path class="st3" d="M59.7584534,98.5697861c-0.2640228-0.145668-0.5630188-0.2921906-0.8949966-0.4385147"/>
			<path class="st4" d="M56.9719543,97.417244c-4.3493195-1.4290314-11.6719818-2.666954-19.9806671-2.666954
				c-10.5632782,0-19.532814,2.0009079-22.8247528,3.8515625"/>
			<path class="st3" d="M13.3280487,99.1721649C12.996048,99.4607391,12.821579,99.7396622,12.821579,100"/>
		</g>
	</g>
	<g>
		<g>
			<path class="st3" d="M59.7545624,101.4323654c-0.2641525,0.1455612-0.5632095,0.2919617-0.8951797,0.4381714"/>
			<path class="st5" d="M56.9678879,102.5840988c-4.3498077,1.4284668-11.6705017,2.6656189-19.9766006,2.6656189
				c-10.5633926,0-19.5330124-2.0009537-22.8248596-3.8516235"/>
			<path class="st3" d="M13.3280487,100.8278427C12.996048,100.5392685,12.821579,100.2603455,12.821579,100"/>
		</g>
	</g>
</g>
</svg>
