<?xml version="1.0" encoding="utf-8"?>
<!-- Generator: Adobe Illustrator 21.0.0, SVG Export Plug-In . SVG Version: 6.00 Build 0)  -->
<svg version="1.1" id="Layer_1" xmlns="http://www.w3.org/2000/svg" xmlns:xlink="http://www.w3.org/1999/xlink" x="0px" y="0px"
	 viewBox="0 0 47.4 34.7" style="enable-background:new 0 0 47.4 34.7;" xml:space="preserve">
<style type="text/css">
	.st0{fill:none;stroke:#FFFFFF;stroke-miterlimit:10;}
	.st1{fill:none;stroke:#FFFFFF;stroke-width:0.5;stroke-miterlimit:10;}
	.st2{fill:#FFFFFF;}
</style>
<g>
	<g>
		<polygon class="st0" points="23,23.9 31.6,28.9 23,33.8 		"/>
	</g>
</g>
<g>
	<polygon class="st0" points="40.3,33.8 31.6,28.9 40.3,23.9 	"/>
</g>
<path class="st1" d="M31.7,0.2c4.8,0,8.6,3.9,8.6,8.6s-3.9,8.6-8.6,8.6s-8.6-3.9-8.6-8.6S27,0.2,31.7,0.2"/>
<path class="st1" d="M8.9,0.2c4.8,0,8.6,3.9,8.6,8.6s-3.9,8.6-8.6,8.6s-8.6-3.9-8.6-8.6S4.1,0.2,8.9,0.2"/>
<g>
	<g>
		<line class="st1" x1="31.6" y1="17.5" x2="31.6" y2="25.3"/>
		<g>
			<polygon class="st2" points="29.1,24.5 31.6,28.9 34.1,24.5 			"/>
		</g>
	</g>
</g>
<line class="st1" x1="31.7" y1="20.5" x2="16.6" y2="12.8"/>
<g>
	<path class="st2" d="M26,3.7h0.6l1.2,1.8L29,3.7h0.6L28.1,6v2.1h-0.6V6L26,3.7z"/>
	<path class="st2" d="M32.9,3.8v0.6c-0.2-0.1-0.4-0.2-0.6-0.2s-0.4-0.1-0.6-0.1c-0.3,0-0.6,0.1-0.7,0.2s-0.3,0.3-0.3,0.5
		c0,0.2,0.1,0.3,0.2,0.4s0.3,0.2,0.7,0.2l0.4,0.1c0.4,0.1,0.8,0.2,1,0.4s0.3,0.5,0.3,0.9c0,0.4-0.1,0.7-0.4,1S32,8.2,31.4,8.2
		c-0.2,0-0.4,0-0.7-0.1S30.3,8,30.1,7.9V7.3c0.2,0.1,0.5,0.2,0.7,0.3s0.5,0.1,0.7,0.1c0.3,0,0.6-0.1,0.8-0.2s0.3-0.3,0.3-0.6
		c0-0.2-0.1-0.4-0.2-0.5S32,6.2,31.7,6.1l-0.4-0.1c-0.4-0.1-0.8-0.2-1-0.4S30,5.2,30,4.9c0-0.4,0.1-0.7,0.4-0.9
		c0.3-0.2,0.6-0.3,1.1-0.3c0.2,0,0.4,0,0.6,0.1S32.6,3.8,32.9,3.8z"/>
	<path class="st2" d="M35.2,8.1l-1.7-4.4h0.6l1.4,3.7l1.4-3.7h0.6l-1.7,4.4H35.2z"/>
	<path class="st2" d="M28,9.6c0.5,0,0.9,0.2,1.1,0.6s0.4,1,0.4,1.7c0,0.7-0.1,1.3-0.4,1.7s-0.6,0.6-1.1,0.6s-0.9-0.2-1.1-0.6
		s-0.4-0.9-0.4-1.7c0-0.7,0.1-1.3,0.4-1.7S27.5,9.6,28,9.6z M28,10.1c-0.3,0-0.5,0.1-0.7,0.4S27,11.3,27,11.9c0,0.6,0.1,1,0.2,1.3
		s0.4,0.4,0.7,0.4c0.3,0,0.5-0.1,0.7-0.4s0.2-0.8,0.2-1.3c0-0.6-0.1-1.1-0.2-1.4S28.3,10.1,28,10.1z"/>
	<path class="st2" d="M31.8,9.6c0.5,0,0.9,0.2,1.1,0.6s0.4,1,0.4,1.7c0,0.7-0.1,1.3-0.4,1.7s-0.6,0.6-1.1,0.6s-0.9-0.2-1.1-0.6
		s-0.4-0.9-0.4-1.7c0-0.7,0.1-1.3,0.4-1.7S31.3,9.6,31.8,9.6z M31.8,10.1c-0.3,0-0.5,0.1-0.7,0.4s-0.2,0.8-0.2,1.4
		c0,0.6,0.1,1,0.2,1.3s0.4,0.4,0.7,0.4c0.3,0,0.5-0.1,0.7-0.4s0.2-0.8,0.2-1.3c0-0.6-0.1-1.1-0.2-1.4S32.1,10.1,31.8,10.1z"/>
	<path class="st2" d="M35.6,9.6c0.5,0,0.9,0.2,1.1,0.6s0.4,1,0.4,1.7c0,0.7-0.1,1.3-0.4,1.7s-0.6,0.6-1.1,0.6s-0.9-0.2-1.1-0.6
		s-0.4-0.9-0.4-1.7c0-0.7,0.1-1.3,0.4-1.7S35.1,9.6,35.6,9.6z M35.6,10.1c-0.3,0-0.5,0.1-0.7,0.4s-0.2,0.8-0.2,1.4
		c0,0.6,0.1,1,0.2,1.3s0.4,0.4,0.7,0.4c0.3,0,0.5-0.1,0.7-0.4s0.2-0.8,0.2-1.3c0-0.6-0.1-1.1-0.2-1.4S35.9,10.1,35.6,10.1z"/>
</g>
<g>
	<path class="st2" d="M8.1,7.4V6.3h-1V5.8h1.6v1.9C8.4,7.8,8.2,7.9,7.9,8C7.6,8.1,7.3,8.2,7,8.2C6.3,8.2,5.8,8,5.4,7.6
		s-0.6-1-0.6-1.7c0-0.7,0.2-1.3,0.6-1.7S6.3,3.6,7,3.6c0.3,0,0.6,0,0.8,0.1S8.3,3.9,8.5,4v0.6C8.3,4.5,8.1,4.3,7.8,4.2
		S7.3,4.1,7.1,4.1c-0.5,0-0.9,0.1-1.2,0.4S5.5,5.3,5.5,5.9c0,0.6,0.1,1,0.4,1.3s0.7,0.4,1.2,0.4c0.2,0,0.4,0,0.6-0.1
		S7.9,7.5,8.1,7.4z"/>
	<path class="st2" d="M9.7,3.7h1.5c0.5,0,0.8,0.1,1,0.3c0.2,0.2,0.4,0.5,0.4,0.8c0,0.3-0.1,0.5-0.2,0.6s-0.3,0.3-0.6,0.3
		c0.3,0.1,0.5,0.2,0.7,0.4s0.2,0.4,0.2,0.7c0,0.4-0.1,0.7-0.4,0.9s-0.6,0.3-1.1,0.3H9.7C9.7,8.1,9.7,3.7,9.7,3.7z M10.3,4.2v1.3h0.9
		c0.3,0,0.5-0.1,0.6-0.2s0.2-0.3,0.2-0.5c0-0.2-0.1-0.4-0.2-0.5s-0.4-0.2-0.6-0.2C11.2,4.2,10.3,4.2,10.3,4.2z M10.3,6v1.6h0.9
		c0.3,0,0.6-0.1,0.7-0.2s0.2-0.3,0.2-0.6c0-0.3-0.1-0.5-0.2-0.6S11.6,6,11.3,6H10.3z"/>
	<path class="st2" d="M5.1,9.6c0.5,0,0.9,0.2,1.1,0.6s0.4,1,0.4,1.7c0,0.7-0.1,1.3-0.4,1.7s-0.6,0.6-1.1,0.6S4.2,14,3.9,13.6
		s-0.4-0.9-0.4-1.7c0-0.7,0.1-1.3,0.4-1.7S4.6,9.6,5.1,9.6z M5.1,10.1c-0.3,0-0.5,0.1-0.7,0.4s-0.2,0.8-0.2,1.4c0,0.6,0.1,1,0.2,1.3
		s0.4,0.4,0.7,0.4c0.3,0,0.5-0.1,0.7-0.4S6,12.5,6,11.9c0-0.6-0.1-1.1-0.2-1.4S5.4,10.1,5.1,10.1z"/>
	<path class="st2" d="M8.9,9.6c0.5,0,0.9,0.2,1.1,0.6s0.4,1,0.4,1.7c0,0.7-0.1,1.3-0.4,1.7s-0.6,0.6-1.1,0.6S8,14,7.8,13.6
		s-0.4-0.9-0.4-1.7c0-0.7,0.1-1.3,0.4-1.7S8.4,9.6,8.9,9.6z M8.9,10.1c-0.3,0-0.5,0.1-0.7,0.4S8,11.3,8,11.9c0,0.6,0.1,1,0.2,1.3
		s0.4,0.4,0.7,0.4c0.3,0,0.5-0.1,0.7-0.4s0.2-0.8,0.2-1.3c0-0.6-0.1-1.1-0.2-1.4S9.2,10.1,8.9,10.1z"/>
	<path class="st2" d="M12.7,9.6c0.5,0,0.9,0.2,1.1,0.6s0.4,1,0.4,1.7c0,0.7-0.1,1.3-0.4,1.7s-0.6,0.6-1.1,0.6s-0.9-0.2-1.1-0.6
		s-0.4-0.9-0.4-1.7c0-0.7,0.1-1.3,0.4-1.7S12.2,9.6,12.7,9.6z M12.7,10.1c-0.3,0-0.5,0.1-0.7,0.4s-0.2,0.8-0.2,1.4
		c0,0.6,0.1,1,0.2,1.3s0.4,0.4,0.7,0.4c0.3,0,0.5-0.1,0.7-0.4s0.2-0.8,0.2-1.3c0-0.6-0.1-1.1-0.2-1.4S13,10.1,12.7,10.1z"/>
</g>
<line class="st0" x1="23" y1="28.9" x2="16" y2="28.9"/>
<line class="st0" x1="47.4" y1="28.9" x2="40.5" y2="28.9"/>
</svg>
