<?xml version="1.0" encoding="utf-8"?>
<!-- Generator: Adobe Illustrator 21.0.0, SVG Export Plug-In . SVG Version: 6.00 Build 0)  -->
<svg version="1.1" id="Layer_1" xmlns="http://www.w3.org/2000/svg" xmlns:xlink="http://www.w3.org/1999/xlink" x="0px" y="0px"
	 viewBox="0 0 31.18 34.716" style="enable-background:new 0 0 31.18 34.716;" xml:space="preserve">
<style type="text/css">
	.st0{fill:none;stroke:#000000;stroke-miterlimit:10;}
	.st1{fill:none;stroke:#000000;stroke-width:0.5;stroke-miterlimit:10;}
</style>
<g>
	<polygon class="st0" points="6.955,23.877 15.59,28.863 6.955,33.85 	"/>
</g>
<polygon class="st0" points="24.225,33.85 15.59,28.863 24.225,23.877 "/>
<path class="st1" d="M15.699,0.25c4.769,0,8.635,3.866,8.635,8.635s-3.866,8.635-8.635,8.635s-8.635-3.866-8.635-8.635
	S10.929,0.25,15.699,0.25"/>
<g>
	<g>
		<line class="st1" x1="15.59" y1="17.52" x2="15.59" y2="25.275"/>
		<g>
			<polygon points="13.097,24.546 15.59,28.863 18.083,24.546 			"/>
		</g>
	</g>
</g>
<g>
	<path d="M9.82,3.695h0.636l1.213,1.799l1.204-1.799h0.636l-1.547,2.291v2.083h-0.595V5.986L9.82,3.695z"/>
	<path d="M16.708,3.839v0.577c-0.225-0.107-0.437-0.188-0.636-0.24c-0.199-0.053-0.392-0.079-0.577-0.079
		c-0.322,0-0.571,0.062-0.746,0.188s-0.262,0.303-0.262,0.533c0,0.193,0.058,0.339,0.174,0.438s0.337,0.178,0.661,0.239l0.357,0.073
		c0.441,0.084,0.767,0.232,0.977,0.444s0.315,0.496,0.315,0.851c0,0.424-0.143,0.745-0.427,0.964s-0.7,0.328-1.249,0.328
		c-0.207,0-0.428-0.023-0.661-0.07S14.16,7.968,13.91,7.876V7.267c0.24,0.135,0.476,0.236,0.706,0.305
		c0.231,0.068,0.458,0.103,0.68,0.103c0.338,0,0.599-0.066,0.782-0.199c0.184-0.133,0.275-0.322,0.275-0.568
		c0-0.215-0.066-0.383-0.198-0.504S15.807,6.19,15.507,6.13l-0.36-0.07c-0.442-0.088-0.761-0.226-0.958-0.413
		s-0.296-0.448-0.296-0.782c0-0.387,0.136-0.691,0.409-0.914s0.648-0.334,1.127-0.334c0.205,0,0.414,0.019,0.627,0.056
		C16.267,3.709,16.485,3.765,16.708,3.839z"/>
	<path d="M19.022,8.069l-1.67-4.374h0.618l1.386,3.683l1.389-3.683h0.615l-1.667,4.374H19.022z"/>
	<path d="M11.802,9.616c0.49,0,0.865,0.194,1.124,0.582s0.388,0.951,0.388,1.689c0,0.736-0.129,1.298-0.388,1.686
		s-0.633,0.582-1.124,0.582s-0.865-0.194-1.124-0.582s-0.388-0.95-0.388-1.686c0-0.738,0.129-1.301,0.388-1.689
		S11.311,9.616,11.802,9.616z M11.802,10.085c-0.305,0-0.534,0.15-0.687,0.45s-0.23,0.75-0.23,1.352c0,0.6,0.077,1.049,0.23,1.349
		s0.382,0.45,0.687,0.45c0.307,0,0.537-0.15,0.69-0.45s0.23-0.75,0.23-1.349c0-0.602-0.077-1.052-0.23-1.352
		S12.108,10.085,11.802,10.085z"/>
	<path d="M15.619,9.616c0.49,0,0.865,0.194,1.124,0.582s0.388,0.951,0.388,1.689c0,0.736-0.129,1.298-0.388,1.686
		s-0.634,0.582-1.124,0.582c-0.49,0-0.865-0.194-1.124-0.582s-0.388-0.95-0.388-1.686c0-0.738,0.129-1.301,0.388-1.689
		S15.129,9.616,15.619,9.616z M15.619,10.085c-0.305,0-0.533,0.15-0.687,0.45c-0.154,0.3-0.23,0.75-0.23,1.352
		c0,0.6,0.077,1.049,0.23,1.349c0.153,0.3,0.382,0.45,0.687,0.45c0.307,0,0.537-0.15,0.69-0.45s0.229-0.75,0.229-1.349
		c0-0.602-0.076-1.052-0.229-1.352S15.926,10.085,15.619,10.085z"/>
	<path d="M19.436,9.616c0.49,0,0.865,0.194,1.124,0.582s0.388,0.951,0.388,1.689c0,0.736-0.129,1.298-0.388,1.686
		s-0.634,0.582-1.124,0.582s-0.864-0.194-1.123-0.582s-0.389-0.95-0.389-1.686c0-0.738,0.13-1.301,0.389-1.689
		S18.946,9.616,19.436,9.616z M19.436,10.085c-0.305,0-0.533,0.15-0.687,0.45s-0.23,0.75-0.23,1.352c0,0.6,0.077,1.049,0.23,1.349
		s0.382,0.45,0.687,0.45c0.307,0,0.537-0.15,0.69-0.45s0.229-0.75,0.229-1.349c0-0.602-0.076-1.052-0.229-1.352
		S19.743,10.085,19.436,10.085z"/>
</g>
<line class="st0" x1="6.955" y1="28.863" x2="0" y2="28.863"/>
<line class="st0" x1="31.18" y1="28.863" x2="24.225" y2="28.863"/>
</svg>
