<?xml version="1.0" encoding="utf-8"?>
<!-- Generator: Adobe Illustrator 21.0.0, SVG Export Plug-In . SVG Version: 6.00 Build 0)  -->
<svg version="1.1" id="Layer_1" xmlns="http://www.w3.org/2000/svg" xmlns:xlink="http://www.w3.org/1999/xlink" x="0px" y="0px"
	 viewBox="0 0 39.188 34.716" style="enable-background:new 0 0 39.188 34.716;" xml:space="preserve">
<style type="text/css">
	.st0{fill:none;stroke:#000000;stroke-miterlimit:10;}
	.st1{fill:none;stroke:#000000;stroke-width:0.5;stroke-miterlimit:10;}
</style>
<g>
	<g>
		<line class="st0" x1="10.959" y1="28.851" x2="0.001" y2="28.863"/>
		<g>
			<polygon class="st0" points="10.959,23.877 19.594,28.863 10.959,33.85 			"/>
		</g>
	</g>
	<g>
		<line class="st0" x1="28.23" y1="28.863" x2="39.188" y2="28.863"/>
		<g>
			<polygon class="st0" points="28.23,33.85 19.594,28.863 28.23,23.877 			"/>
		</g>
	</g>
</g>
<circle class="st1" cx="19.594" cy="8.885" r="8.635"/>
<g>
	<g>
		<line class="st1" x1="19.594" y1="21.109" x2="19.594" y2="28.863"/>
		<g>
			<polygon points="17.101,21.838 19.594,17.52 22.088,21.838 			"/>
		</g>
	</g>
</g>
<g>
	<path d="M14.521,3.96h0.559l1.066,1.582l1.059-1.582h0.559l-1.36,2.014v1.832h-0.523V5.974L14.521,3.96z"/>
	<path d="M20.577,4.086v0.508c-0.198-0.095-0.384-0.165-0.56-0.211c-0.175-0.046-0.344-0.069-0.507-0.069
		c-0.283,0-0.502,0.055-0.656,0.165s-0.23,0.266-0.23,0.469c0,0.17,0.051,0.298,0.153,0.385s0.295,0.157,0.581,0.21l0.314,0.064
		c0.388,0.074,0.674,0.204,0.859,0.39c0.185,0.187,0.276,0.436,0.276,0.749c0,0.373-0.125,0.655-0.375,0.847
		S19.818,7.88,19.335,7.88c-0.182,0-0.375-0.021-0.58-0.062c-0.206-0.041-0.418-0.102-0.638-0.183V7.1
		c0.211,0.118,0.418,0.208,0.621,0.268s0.402,0.09,0.597,0.09c0.298,0,0.526-0.059,0.688-0.175c0.161-0.117,0.242-0.283,0.242-0.5
		c0-0.189-0.059-0.337-0.175-0.443c-0.115-0.106-0.306-0.186-0.57-0.239l-0.316-0.062c-0.388-0.077-0.669-0.198-0.842-0.363
		c-0.173-0.165-0.26-0.394-0.26-0.688c0-0.34,0.12-0.608,0.359-0.804s0.569-0.294,0.99-0.294c0.181,0,0.364,0.017,0.551,0.049
		C20.19,3.972,20.381,4.021,20.577,4.086z"/>
	<path d="M22.612,7.806L21.144,3.96h0.544l1.218,3.238l1.221-3.238h0.541l-1.466,3.846H22.612z"/>
	<path d="M16.264,9.89c0.431,0,0.76,0.17,0.988,0.512c0.228,0.341,0.341,0.835,0.341,1.485c0,0.647-0.114,1.142-0.341,1.482
		s-0.557,0.511-0.988,0.511s-0.76-0.17-0.988-0.511s-0.341-0.835-0.341-1.482c0-0.649,0.114-1.144,0.341-1.485
		C15.503,10.061,15.832,9.89,16.264,9.89z M16.264,10.302c-0.268,0-0.469,0.132-0.604,0.396s-0.202,0.66-0.202,1.189
		c0,0.527,0.067,0.922,0.202,1.186s0.336,0.396,0.604,0.396c0.27,0,0.472-0.132,0.607-0.396s0.202-0.659,0.202-1.186
		c0-0.529-0.067-0.925-0.202-1.189S16.533,10.302,16.264,10.302z"/>
	<path d="M19.619,9.89c0.432,0,0.761,0.17,0.988,0.512c0.228,0.341,0.341,0.835,0.341,1.485c0,0.647-0.113,1.142-0.341,1.482
		s-0.557,0.511-0.988,0.511c-0.431,0-0.76-0.17-0.987-0.511s-0.341-0.835-0.341-1.482c0-0.649,0.114-1.144,0.341-1.485
		C18.86,10.061,19.189,9.89,19.619,9.89z M19.619,10.302c-0.268,0-0.469,0.132-0.604,0.396s-0.202,0.66-0.202,1.189
		c0,0.527,0.067,0.922,0.202,1.186s0.336,0.396,0.604,0.396c0.27,0,0.473-0.132,0.607-0.396s0.202-0.659,0.202-1.186
		c0-0.529-0.067-0.925-0.202-1.189S19.889,10.302,19.619,10.302z"/>
	<path d="M22.976,9.89c0.432,0,0.761,0.17,0.988,0.512c0.228,0.341,0.341,0.835,0.341,1.485c0,0.647-0.113,1.142-0.341,1.482
		s-0.557,0.511-0.988,0.511c-0.431,0-0.76-0.17-0.987-0.511s-0.342-0.835-0.342-1.482c0-0.649,0.114-1.144,0.342-1.485
		C22.216,10.061,22.545,9.89,22.976,9.89z M22.976,10.302c-0.268,0-0.469,0.132-0.604,0.396s-0.202,0.66-0.202,1.189
		c0,0.527,0.067,0.922,0.202,1.186s0.336,0.396,0.604,0.396c0.27,0,0.473-0.132,0.607-0.396s0.202-0.659,0.202-1.186
		c0-0.529-0.067-0.925-0.202-1.189S23.245,10.302,22.976,10.302z"/>
</g>
</svg>
