<?xml version="1.0" encoding="utf-8"?>
<!-- Generator: Adobe Illustrator 21.0.0, SVG Export Plug-In . SVG Version: 6.00 Build 0)  -->
<svg version="1.1" id="Layer_1" xmlns="http://www.w3.org/2000/svg" xmlns:xlink="http://www.w3.org/1999/xlink" x="0px" y="0px"
	 viewBox="0 0 47.442 34.716" style="enable-background:new 0 0 47.442 34.716;" xml:space="preserve">
<style type="text/css">
	.st0{fill:none;stroke:#000000;stroke-miterlimit:10;}
	.st1{fill:none;stroke:#000000;stroke-width:0.5;stroke-miterlimit:10;}
</style>
<g>
	<g>
		<polygon class="st0" points="23,23.877 31.635,28.863 23,33.85 		"/>
	</g>
</g>
<g>
	<polygon class="st0" points="40.27,33.85 31.635,28.863 40.27,23.877 	"/>
</g>
<path class="st1" d="M31.744,0.25c4.769,0,8.635,3.866,8.635,8.635s-3.866,8.635-8.635,8.635s-8.635-3.866-8.635-8.635
	S26.974,0.25,31.744,0.25"/>
<path class="st1" d="M8.885,0.25c4.769,0,8.635,3.866,8.635,8.635s-3.866,8.635-8.635,8.635S0.25,13.654,0.25,8.885
	S4.116,0.25,8.885,0.25"/>
<g>
	<g>
		<line class="st1" x1="31.635" y1="17.52" x2="31.635" y2="25.275"/>
		<g>
			<polygon points="29.142,24.546 31.635,28.863 34.128,24.546 			"/>
		</g>
	</g>
</g>
<line class="st1" x1="31.744" y1="20.513" x2="16.58" y2="12.799"/>
<g>
	<path d="M25.974,3.695h0.636l1.213,1.799l1.204-1.799h0.636l-1.547,2.291v2.083h-0.595V5.986L25.974,3.695z"/>
	<path d="M32.862,3.839v0.577c-0.225-0.107-0.437-0.188-0.636-0.24s-0.392-0.079-0.577-0.079c-0.322,0-0.57,0.062-0.745,0.188
		s-0.263,0.303-0.263,0.533c0,0.193,0.059,0.339,0.175,0.438s0.336,0.178,0.66,0.239l0.357,0.073
		c0.441,0.084,0.768,0.232,0.978,0.444s0.314,0.496,0.314,0.851c0,0.424-0.142,0.745-0.426,0.964s-0.701,0.328-1.25,0.328
		c-0.207,0-0.427-0.023-0.66-0.07s-0.476-0.116-0.726-0.208V7.266c0.24,0.135,0.476,0.236,0.706,0.305s0.457,0.103,0.68,0.103
		c0.338,0,0.599-0.066,0.782-0.199s0.275-0.322,0.275-0.568c0-0.215-0.065-0.383-0.197-0.504S31.961,6.19,31.661,6.13l-0.36-0.07
		c-0.441-0.088-0.761-0.226-0.958-0.413s-0.296-0.448-0.296-0.782c0-0.387,0.137-0.691,0.409-0.914
		c0.272-0.223,0.647-0.334,1.126-0.334c0.205,0,0.414,0.019,0.627,0.056S32.639,3.764,32.862,3.839z"/>
	<path d="M35.176,8.069l-1.67-4.374h0.618l1.386,3.683l1.389-3.683h0.615l-1.667,4.374H35.176z"/>
	<path d="M27.956,9.616c0.49,0,0.864,0.194,1.123,0.582s0.389,0.951,0.389,1.689c0,0.736-0.13,1.298-0.389,1.686
		s-0.633,0.582-1.123,0.582s-0.865-0.194-1.124-0.582s-0.388-0.95-0.388-1.686c0-0.738,0.129-1.301,0.388-1.689
		S27.466,9.616,27.956,9.616z M27.956,10.085c-0.305,0-0.534,0.15-0.688,0.45s-0.229,0.75-0.229,1.352
		c0,0.6,0.076,1.049,0.229,1.349s0.383,0.45,0.688,0.45c0.307,0,0.536-0.15,0.689-0.45s0.23-0.75,0.23-1.349
		c0-0.602-0.077-1.052-0.23-1.352S28.263,10.085,27.956,10.085z"/>
	<path d="M31.774,9.616c0.49,0,0.864,0.194,1.123,0.582s0.389,0.951,0.389,1.689c0,0.736-0.13,1.298-0.389,1.686
		s-0.633,0.582-1.123,0.582s-0.865-0.194-1.124-0.582s-0.388-0.95-0.388-1.686c0-0.738,0.129-1.301,0.388-1.689
		S31.284,9.616,31.774,9.616z M31.774,10.085c-0.305,0-0.534,0.15-0.688,0.45s-0.229,0.75-0.229,1.352
		c0,0.6,0.076,1.049,0.229,1.349s0.383,0.45,0.688,0.45c0.307,0,0.536-0.15,0.689-0.45s0.23-0.75,0.23-1.349
		c0-0.602-0.077-1.052-0.23-1.352S32.08,10.085,31.774,10.085z"/>
	<path d="M35.591,9.616c0.49,0,0.864,0.194,1.123,0.582s0.389,0.951,0.389,1.689c0,0.736-0.13,1.298-0.389,1.686
		s-0.633,0.582-1.123,0.582s-0.865-0.194-1.124-0.582s-0.388-0.95-0.388-1.686c0-0.738,0.129-1.301,0.388-1.689
		S35.101,9.616,35.591,9.616z M35.591,10.085c-0.305,0-0.534,0.15-0.688,0.45s-0.229,0.75-0.229,1.352
		c0,0.6,0.076,1.049,0.229,1.349s0.383,0.45,0.688,0.45c0.307,0,0.536-0.15,0.689-0.45s0.23-0.75,0.23-1.349
		c0-0.602-0.077-1.052-0.23-1.352S35.898,10.085,35.591,10.085z"/>
</g>
<g>
	<path d="M8.074,7.445V6.27H7.107V5.784h1.553v1.878C8.431,7.824,8.179,7.947,7.904,8.03S7.334,8.154,7.022,8.154
		c-0.684,0-1.218-0.2-1.604-0.599S4.839,6.599,4.839,5.886c0-0.715,0.193-1.272,0.579-1.671s0.92-0.599,1.604-0.599
		c0.285,0,0.556,0.035,0.813,0.105s0.494,0.174,0.71,0.311v0.63C8.326,4.476,8.094,4.337,7.848,4.243S7.343,4.102,7.072,4.102
		c-0.535,0-0.937,0.149-1.206,0.448S5.463,5.295,5.463,5.886c0,0.59,0.134,1.034,0.403,1.333s0.67,0.448,1.206,0.448
		c0.209,0,0.396-0.018,0.56-0.054S7.943,7.521,8.074,7.445z"/>
	<path d="M9.741,3.695h1.512c0.451,0,0.799,0.094,1.043,0.281c0.244,0.188,0.366,0.454,0.366,0.8c0,0.268-0.062,0.48-0.188,0.639
		s-0.309,0.257-0.551,0.296c0.291,0.062,0.517,0.193,0.678,0.391s0.242,0.446,0.242,0.743c0,0.391-0.133,0.692-0.398,0.905
		s-0.644,0.319-1.134,0.319h-1.57V3.695z M10.332,4.181V5.5h0.876c0.289,0,0.504-0.054,0.646-0.163s0.212-0.274,0.212-0.497
		c0-0.221-0.071-0.386-0.212-0.495s-0.357-0.164-0.646-0.164H10.332z M10.332,5.98v1.603h0.949c0.318,0,0.554-0.066,0.708-0.198
		s0.23-0.333,0.23-0.605c0-0.273-0.077-0.475-0.23-0.605S11.6,5.98,11.282,5.98H10.332z"/>
	<path d="M5.066,9.616c0.49,0,0.865,0.194,1.124,0.582s0.388,0.951,0.388,1.689c0,0.736-0.129,1.298-0.388,1.686
		s-0.633,0.582-1.124,0.582s-0.865-0.194-1.124-0.582s-0.388-0.95-0.388-1.686c0-0.738,0.129-1.301,0.388-1.689
		S4.576,9.616,5.066,9.616z M5.066,10.085c-0.305,0-0.534,0.15-0.687,0.45s-0.23,0.75-0.23,1.352c0,0.6,0.077,1.049,0.23,1.349
		s0.382,0.45,0.687,0.45c0.307,0,0.537-0.15,0.69-0.45s0.23-0.75,0.23-1.349c0-0.602-0.077-1.052-0.23-1.352
		S5.373,10.085,5.066,10.085z"/>
	<path d="M8.884,9.616c0.49,0,0.865,0.194,1.124,0.582s0.388,0.951,0.388,1.689c0,0.736-0.129,1.298-0.388,1.686
		s-0.633,0.582-1.124,0.582S8.019,13.96,7.76,13.573s-0.388-0.95-0.388-1.686c0-0.738,0.129-1.301,0.388-1.689
		S8.393,9.616,8.884,9.616z M8.884,10.085c-0.305,0-0.534,0.15-0.687,0.45s-0.23,0.75-0.23,1.352c0,0.6,0.077,1.049,0.23,1.349
		s0.382,0.45,0.687,0.45c0.307,0,0.537-0.15,0.69-0.45s0.23-0.75,0.23-1.349c0-0.602-0.077-1.052-0.23-1.352
		S9.19,10.085,8.884,10.085z"/>
	<path d="M12.701,9.616c0.49,0,0.865,0.194,1.124,0.582s0.388,0.951,0.388,1.689c0,0.736-0.129,1.298-0.388,1.686
		s-0.633,0.582-1.124,0.582s-0.865-0.194-1.124-0.582s-0.388-0.95-0.388-1.686c0-0.738,0.129-1.301,0.388-1.689
		S12.211,9.616,12.701,9.616z M12.701,10.085c-0.305,0-0.534,0.15-0.687,0.45s-0.23,0.75-0.23,1.352c0,0.6,0.077,1.049,0.23,1.349
		s0.382,0.45,0.687,0.45c0.307,0,0.537-0.15,0.69-0.45s0.23-0.75,0.23-1.349c0-0.602-0.077-1.052-0.23-1.352
		S13.008,10.085,12.701,10.085z"/>
</g>
<line class="st0" x1="23" y1="28.863" x2="16.045" y2="28.863"/>
<line class="st0" x1="47.442" y1="28.863" x2="40.487" y2="28.863"/>
</svg>
