<?xml version="1.0" encoding="utf-8"?>
<!-- Generator: Adobe Illustrator 21.0.0, SVG Export Plug-In . SVG Version: 6.00 Build 0)  -->
<svg version="1.1" id="Layer_1" xmlns="http://www.w3.org/2000/svg" xmlns:xlink="http://www.w3.org/1999/xlink" x="0px" y="0px"
	 viewBox="0 0 31.2 34.7" style="enable-background:new 0 0 31.2 34.7;" xml:space="preserve">
<style type="text/css">
	.st0{fill:none;stroke:#FFFFFF;stroke-miterlimit:10;}
	.st1{fill:none;stroke:#FFFFFF;stroke-width:0.5;stroke-miterlimit:10;}
	.st2{fill:#FFFFFF;}
</style>
<g>
	<polygon class="st0" points="7,23.9 15.6,28.9 7,33.8 	"/>
</g>
<polygon class="st0" points="24.2,33.8 15.6,28.9 24.2,23.9 "/>
<path class="st1" d="M15.7,0.2c4.8,0,8.6,3.9,8.6,8.6s-3.9,8.6-8.6,8.6s-8.6-3.9-8.6-8.6S10.9,0.2,15.7,0.2"/>
<g>
	<g>
		<line class="st1" x1="15.6" y1="17.5" x2="15.6" y2="25.3"/>
		<g>
			<polygon class="st2" points="13.1,24.5 15.6,28.9 18.1,24.5 			"/>
		</g>
	</g>
</g>
<g>
	<path class="st2" d="M9.8,3.7h0.6l1.2,1.8l1.2-1.8h0.6L12,6v2.1h-0.6V6L9.8,3.7z"/>
	<path class="st2" d="M16.7,3.8v0.6c-0.2-0.1-0.4-0.2-0.6-0.2c-0.2-0.1-0.4-0.1-0.6-0.1c-0.3,0-0.6,0.1-0.7,0.2s-0.3,0.3-0.3,0.5
		c0,0.2,0.1,0.3,0.2,0.4s0.3,0.2,0.7,0.2l0.4,0.1c0.4,0.1,0.8,0.2,1,0.4S17,6.5,17,6.9c0,0.4-0.1,0.7-0.4,1s-0.7,0.3-1.2,0.3
		c-0.2,0-0.4,0-0.7-0.1S14.2,8,13.9,7.9V7.3c0.2,0.1,0.5,0.2,0.7,0.3c0.2,0.1,0.5,0.1,0.7,0.1c0.3,0,0.6-0.1,0.8-0.2
		c0.2-0.1,0.3-0.3,0.3-0.6c0-0.2-0.1-0.4-0.2-0.5s-0.3-0.2-0.6-0.3l-0.4-0.1c-0.4-0.1-0.8-0.2-1-0.4s-0.3-0.4-0.3-0.8
		c0-0.4,0.1-0.7,0.4-0.9s0.6-0.3,1.1-0.3c0.2,0,0.4,0,0.6,0.1C16.3,3.7,16.5,3.8,16.7,3.8z"/>
	<path class="st2" d="M19,8.1l-1.7-4.4H18l1.4,3.7l1.4-3.7h0.6l-1.7,4.4H19z"/>
	<path class="st2" d="M11.8,9.6c0.5,0,0.9,0.2,1.1,0.6s0.4,1,0.4,1.7c0,0.7-0.1,1.3-0.4,1.7s-0.6,0.6-1.1,0.6s-0.9-0.2-1.1-0.6
		s-0.4-0.9-0.4-1.7c0-0.7,0.1-1.3,0.4-1.7S11.3,9.6,11.8,9.6z M11.8,10.1c-0.3,0-0.5,0.1-0.7,0.4s-0.2,0.8-0.2,1.4
		c0,0.6,0.1,1,0.2,1.3s0.4,0.4,0.7,0.4c0.3,0,0.5-0.1,0.7-0.4s0.2-0.8,0.2-1.3c0-0.6-0.1-1.1-0.2-1.4S12.1,10.1,11.8,10.1z"/>
	<path class="st2" d="M15.6,9.6c0.5,0,0.9,0.2,1.1,0.6s0.4,1,0.4,1.7c0,0.7-0.1,1.3-0.4,1.7s-0.6,0.6-1.1,0.6
		c-0.5,0-0.9-0.2-1.1-0.6s-0.4-0.9-0.4-1.7c0-0.7,0.1-1.3,0.4-1.7S15.1,9.6,15.6,9.6z M15.6,10.1c-0.3,0-0.5,0.1-0.7,0.4
		s-0.2,0.8-0.2,1.4c0,0.6,0.1,1,0.2,1.3s0.4,0.4,0.7,0.4c0.3,0,0.5-0.1,0.7-0.4s0.2-0.8,0.2-1.3c0-0.6-0.1-1.1-0.2-1.4
		S15.9,10.1,15.6,10.1z"/>
	<path class="st2" d="M19.4,9.6c0.5,0,0.9,0.2,1.1,0.6s0.4,1,0.4,1.7c0,0.7-0.1,1.3-0.4,1.7s-0.6,0.6-1.1,0.6s-0.9-0.2-1.1-0.6
		s-0.4-0.9-0.4-1.7c0-0.7,0.1-1.3,0.4-1.7S18.9,9.6,19.4,9.6z M19.4,10.1c-0.3,0-0.5,0.1-0.7,0.4s-0.2,0.8-0.2,1.4
		c0,0.6,0.1,1,0.2,1.3s0.4,0.4,0.7,0.4c0.3,0,0.5-0.1,0.7-0.4s0.2-0.8,0.2-1.3c0-0.6-0.1-1.1-0.2-1.4S19.7,10.1,19.4,10.1z"/>
</g>
<line class="st0" x1="7" y1="28.9" x2="0" y2="28.9"/>
<line class="st0" x1="31.2" y1="28.9" x2="24.2" y2="28.9"/>
</svg>
