<?xml version="1.0" encoding="utf-8"?>
<!-- Generator: Adobe Illustrator 21.0.0, SVG Export Plug-In . SVG Version: 6.00 Build 0)  -->
<svg version="1.1" id="Layer_1" xmlns="http://www.w3.org/2000/svg" xmlns:xlink="http://www.w3.org/1999/xlink" x="0px" y="0px"
	 viewBox="0 0 39.2 34.7" style="enable-background:new 0 0 39.2 34.7;" xml:space="preserve">
<style type="text/css">
	.st0{fill:none;stroke:#FFFFFF;stroke-miterlimit:10;}
	.st1{fill:none;stroke:#FFFFFF;stroke-width:0.5;stroke-miterlimit:10;}
	.st2{fill:#FFFFFF;}
</style>
<g>
	<g>
		<line class="st0" x1="11" y1="28.9" x2="0" y2="28.9"/>
		<g>
			<polygon class="st0" points="11,23.9 19.6,28.9 11,33.8 			"/>
		</g>
	</g>
	<g>
		<line class="st0" x1="28.2" y1="28.9" x2="39.2" y2="28.9"/>
		<g>
			<polygon class="st0" points="28.2,33.8 19.6,28.9 28.2,23.9 			"/>
		</g>
	</g>
</g>
<circle class="st1" cx="19.6" cy="8.9" r="8.6"/>
<g>
	<g>
		<line class="st1" x1="19.6" y1="21.1" x2="19.6" y2="28.9"/>
		<g>
			<polygon class="st2" points="17.1,21.8 19.6,17.5 22.1,21.8 			"/>
		</g>
	</g>
</g>
<g>
	<path class="st2" d="M14.5,4h0.6l1.1,1.6L17.2,4h0.6l-1.4,2v1.8h-0.5V6L14.5,4z"/>
	<path class="st2" d="M20.6,4.1v0.5c-0.2-0.1-0.4-0.2-0.6-0.2c-0.2,0-0.3-0.1-0.5-0.1c-0.3,0-0.5,0.1-0.7,0.2s-0.2,0.3-0.2,0.5
		c0,0.2,0.1,0.3,0.2,0.4s0.3,0.2,0.6,0.2l0.3,0.1c0.4,0.1,0.7,0.2,0.9,0.4c0.2,0.2,0.3,0.4,0.3,0.7c0,0.4-0.1,0.7-0.4,0.8
		s-0.6,0.3-1.1,0.3c-0.2,0-0.4,0-0.6-0.1c-0.2,0-0.4-0.1-0.6-0.2V7.1c0.2,0.1,0.4,0.2,0.6,0.3s0.4,0.1,0.6,0.1
		c0.3,0,0.5-0.1,0.7-0.2c0.2-0.1,0.2-0.3,0.2-0.5c0-0.2-0.1-0.3-0.2-0.4c-0.1-0.1-0.3-0.2-0.6-0.2L19.2,6c-0.4-0.1-0.7-0.2-0.8-0.4
		S18.1,5.3,18.1,5c0-0.3,0.1-0.6,0.4-0.8s0.6-0.3,1-0.3c0.2,0,0.4,0,0.6,0C20.2,4,20.4,4,20.6,4.1z"/>
	<path class="st2" d="M22.6,7.8L21.1,4h0.5l1.2,3.2L24.1,4h0.5l-1.5,3.8C23.2,7.8,22.6,7.8,22.6,7.8z"/>
	<path class="st2" d="M16.3,9.9c0.4,0,0.8,0.2,1,0.5c0.2,0.3,0.3,0.8,0.3,1.5c0,0.6-0.1,1.1-0.3,1.5s-0.6,0.5-1,0.5s-0.8-0.2-1-0.5
		s-0.3-0.8-0.3-1.5c0-0.6,0.1-1.1,0.3-1.5C15.5,10.1,15.8,9.9,16.3,9.9z M16.3,10.3c-0.3,0-0.5,0.1-0.6,0.4s-0.2,0.7-0.2,1.2
		c0,0.5,0.1,0.9,0.2,1.2s0.3,0.4,0.6,0.4c0.3,0,0.5-0.1,0.6-0.4s0.2-0.7,0.2-1.2c0-0.5-0.1-0.9-0.2-1.2S16.5,10.3,16.3,10.3z"/>
	<path class="st2" d="M19.6,9.9c0.4,0,0.8,0.2,1,0.5c0.2,0.3,0.3,0.8,0.3,1.5c0,0.6-0.1,1.1-0.3,1.5s-0.6,0.5-1,0.5
		c-0.4,0-0.8-0.2-1-0.5s-0.3-0.8-0.3-1.5c0-0.6,0.1-1.1,0.3-1.5C18.9,10.1,19.2,9.9,19.6,9.9z M19.6,10.3c-0.3,0-0.5,0.1-0.6,0.4
		s-0.2,0.7-0.2,1.2c0,0.5,0.1,0.9,0.2,1.2s0.3,0.4,0.6,0.4c0.3,0,0.5-0.1,0.6-0.4s0.2-0.7,0.2-1.2c0-0.5-0.1-0.9-0.2-1.2
		S19.9,10.3,19.6,10.3z"/>
	<path class="st2" d="M23,9.9c0.4,0,0.8,0.2,1,0.5c0.2,0.3,0.3,0.8,0.3,1.5c0,0.6-0.1,1.1-0.3,1.5s-0.6,0.5-1,0.5
		c-0.4,0-0.8-0.2-1-0.5s-0.3-0.8-0.3-1.5c0-0.6,0.1-1.1,0.3-1.5C22.2,10.1,22.5,9.9,23,9.9z M23,10.3c-0.3,0-0.5,0.1-0.6,0.4
		s-0.2,0.7-0.2,1.2c0,0.5,0.1,0.9,0.2,1.2s0.3,0.4,0.6,0.4c0.3,0,0.5-0.1,0.6-0.4s0.2-0.7,0.2-1.2c0-0.5-0.1-0.9-0.2-1.2
		S23.2,10.3,23,10.3z"/>
</g>
</svg>
