<?xml version="1.0" encoding="utf-8"?>
<!-- Generator: Adobe Illustrator 21.0.0, SVG Export Plug-In . SVG Version: 6.00 Build 0)  -->
<svg version="1.1" id="Layer_1" xmlns="http://www.w3.org/2000/svg" xmlns:xlink="http://www.w3.org/1999/xlink" x="0px" y="0px"
	 viewBox="0 0 71.8 34.7" style="enable-background:new 0 0 71.8 34.7;" xml:space="preserve">
<style type="text/css">
	.st0{fill:none;stroke:#FFFFFF;stroke-miterlimit:10;}
	.st1{fill:#FFFFFF;}
	.st2{fill:none;stroke:#FFFFFF;stroke-width:0.5;stroke-miterlimit:10;}
</style>
<g>
	<g>
		<line class="st0" x1="12.5" y1="29.2" x2="0" y2="29.2"/>
		<g>
			<polygon class="st1" points="10.9,26.8 19.6,29.2 10.9,31.5 			"/>
		</g>
	</g>
</g>
<line class="st0" x1="33.6" y1="28.9" x2="22.7" y2="28.9"/>
<g>
	<polygon class="st0" points="33.6,23.9 42.2,28.9 33.6,33.8 	"/>
</g>
<line class="st0" x1="50.9" y1="28.9" x2="71.8" y2="28.9"/>
<polygon class="st0" points="50.9,33.8 42.2,28.9 50.9,23.9 "/>
<path class="st2" d="M42.4,0.2c4.8,0,8.6,3.9,8.6,8.6s-3.9,8.6-8.6,8.6s-8.6-3.9-8.6-8.6S37.6,0.2,42.4,0.2"/>
<line class="st2" x1="42.2" y1="17.5" x2="42.2" y2="28.9"/>
<g>
	<g>
		<polyline class="st2" points="33.6,8.9 23.3,8.9 40.7,25.9 		"/>
		<g>
			<polygon class="st1" points="39.3,26.6 42.2,27.4 41.4,24.5 			"/>
		</g>
	</g>
</g>
<g>
	<path class="st1" d="M36.7,3.7h1.3c0.5,0,0.9,0.1,1.1,0.3c0.3,0.2,0.4,0.5,0.4,1c0,0.4-0.1,0.8-0.4,1s-0.6,0.3-1.1,0.3h-0.7v1.8
		h-0.6L36.7,3.7L36.7,3.7z M37.3,4.2v1.6h0.7c0.3,0,0.5-0.1,0.6-0.2s0.2-0.3,0.2-0.6c0-0.3-0.1-0.5-0.2-0.6s-0.4-0.2-0.6-0.2
		L37.3,4.2L37.3,4.2z"/>
	<path class="st1" d="M43.6,4v0.6c-0.2-0.2-0.4-0.3-0.6-0.4s-0.5-0.1-0.7-0.1c-0.5,0-0.9,0.2-1.1,0.5s-0.4,0.7-0.4,1.3
		c0,0.6,0.1,1,0.4,1.3s0.6,0.5,1.1,0.5c0.3,0,0.5,0,0.7-0.1s0.4-0.2,0.6-0.4v0.6C43.4,7.9,43.2,8,43,8c-0.2,0.1-0.5,0.1-0.7,0.1
		c-0.7,0-1.2-0.2-1.6-0.6s-0.6-1-0.6-1.7c0-0.7,0.2-1.3,0.6-1.7s0.9-0.6,1.6-0.6c0.3,0,0.5,0,0.7,0.1S43.4,3.9,43.6,4z"/>
	<path class="st1" d="M45.7,8.1L44,3.7h0.6L46,7.4l1.4-3.7H48l-1.7,4.4H45.7z"/>
	<path class="st1" d="M38.3,9.6c0.5,0,0.9,0.2,1.1,0.6c0.3,0.4,0.4,1,0.4,1.7c0,0.7-0.1,1.3-0.4,1.7s-0.6,0.6-1.1,0.6
		s-0.9-0.2-1.1-0.6s-0.4-0.9-0.4-1.7c0-0.7,0.1-1.3,0.4-1.7C37.4,9.8,37.8,9.6,38.3,9.6z M38.3,10.1c-0.3,0-0.5,0.1-0.7,0.4
		c-0.2,0.3-0.2,0.8-0.2,1.4c0,0.6,0.1,1,0.2,1.3s0.4,0.4,0.7,0.4c0.3,0,0.5-0.1,0.7-0.4s0.2-0.7,0.2-1.3c0-0.6-0.1-1.1-0.2-1.4
		C38.8,10.2,38.6,10.1,38.3,10.1z"/>
	<path class="st1" d="M42.1,9.6c0.5,0,0.9,0.2,1.1,0.6c0.3,0.4,0.4,1,0.4,1.7c0,0.7-0.1,1.3-0.4,1.7s-0.6,0.6-1.1,0.6
		S41.2,14,41,13.6s-0.4-0.9-0.4-1.7c0-0.7,0.1-1.3,0.4-1.7C41.2,9.8,41.6,9.6,42.1,9.6z M42.1,10.1c-0.3,0-0.5,0.1-0.7,0.4
		c-0.2,0.3-0.2,0.8-0.2,1.4c0,0.6,0.1,1,0.2,1.3s0.4,0.4,0.7,0.4c0.3,0,0.5-0.1,0.7-0.4s0.2-0.7,0.2-1.3c0-0.6-0.1-1.1-0.2-1.4
		C42.6,10.2,42.4,10.1,42.1,10.1z"/>
	<path class="st1" d="M45.9,9.6c0.5,0,0.9,0.2,1.1,0.6c0.3,0.4,0.4,1,0.4,1.7c0,0.7-0.1,1.3-0.4,1.7s-0.6,0.6-1.1,0.6
		S45,14,44.8,13.6s-0.4-0.9-0.4-1.7c0-0.7,0.1-1.3,0.4-1.7C45,9.8,45.4,9.6,45.9,9.6z M45.9,10.1c-0.3,0-0.5,0.1-0.7,0.4
		c-0.2,0.3-0.2,0.8-0.2,1.4c0,0.6,0.1,1,0.2,1.3s0.4,0.4,0.7,0.4c0.3,0,0.5-0.1,0.7-0.4s0.2-0.7,0.2-1.3c0-0.6-0.1-1.1-0.2-1.4
		C46.4,10.2,46.2,10.1,45.9,10.1z"/>
</g>
</svg>
