<?xml version="1.0" encoding="utf-8"?>
<!-- Generator: Adobe Illustrator 21.0.0, SVG Export Plug-In . SVG Version: 6.00 Build 0)  -->
<svg version="1.1" id="Layer_1" xmlns="http://www.w3.org/2000/svg" xmlns:xlink="http://www.w3.org/1999/xlink" x="0px" y="0px"
	 viewBox="0 0 84.7 30.6" style="enable-background:new 0 0 84.7 30.6;" xml:space="preserve">
<style type="text/css">
	.st0{fill:none;stroke:#FFFFFF;stroke-miterlimit:10;}
	.st1{fill:#FFFFFF;}
</style>
<g>
	<g>
		<line class="st0" x1="12.5" y1="15.3" x2="0" y2="15.3"/>
		<g>
			<polygon class="st1" points="10.9,13 19.6,15.3 10.9,17.6 			"/>
		</g>
	</g>
</g>
<g id="XMLID_2_">
	<g>
		<path class="st1" d="M69.4,7.8L50.9,1.6c1.8-0.7,3.7-1.1,5.7-1.1C62.1,0.5,66.8,3.4,69.4,7.8z"/>
		<path class="st1" d="M50.9,29l18.5-6.1c-2.6,4.4-7.3,7.3-12.8,7.3C54.6,30.1,52.7,29.7,50.9,29z"/>
	</g>
	<g>
		<line class="st0" x1="84.4" y1="15.3" x2="71.4" y2="15.3"/>
		<line class="st0" x1="41.8" y1="15.3" x2="28.9" y2="15.3"/>
		<path class="st0" d="M71.4,15.3c0,2.7-0.8,5.3-2.1,7.5c-2.6,4.4-7.3,7.3-12.8,7.3c-2,0-4-0.4-5.7-1.1c-5.3-2.2-9.1-7.5-9.1-13.7
			s3.7-11.4,9.1-13.7c1.8-0.7,3.7-1.1,5.7-1.1c5.4,0,10.2,2.9,12.8,7.3C70.7,10,71.4,12.6,71.4,15.3z"/>
		<polyline class="st0" points="69.4,7.8 69.4,7.8 50.9,1.6 		"/>
		<polyline class="st0" points="69.4,22.8 69.4,22.8 50.9,29 		"/>
	</g>
</g>
</svg>
