<?xml version="1.0" encoding="utf-8"?>
<!-- Generator: Adobe Illustrator 21.0.0, SVG Export Plug-In . SVG Version: 6.00 Build 0)  -->
<svg version="1.1" id="Layer_1" xmlns="http://www.w3.org/2000/svg" xmlns:xlink="http://www.w3.org/1999/xlink" x="0px" y="0px"
	 viewBox="0 0 37.2 14" style="enable-background:new 0 0 37.2 14;" xml:space="preserve">
<style type="text/css">
	.st0{fill:none;stroke:#FFFFFF;stroke-miterlimit:10;}
	.st1{fill:#FFFFFF;}
</style>
<g id="Layer_1_1_">
	<g>
		<line class="st0" x1="0" y1="7" x2="15.8" y2="7"/>
		<line class="st0" x1="37.2" y1="7" x2="21.5" y2="7"/>
		<g>
			<path class="st1" d="M18.6,1.4C18.6,1.4,18.6,1.4,18.6,1.4L18.6,1.4 M18.6,1.4c3.1,3.1,3.1,8.1,0,11.2
				C15.5,9.5,15.5,4.5,18.6,1.4 M18.6,12.6L18.6,12.6C18.6,12.6,18.6,12.6,18.6,12.6 M18.6,0l-0.7,0.7l0,0l0,0
				c-3.5,3.5-3.5,9.1,0,12.6l0.7,0.7l0.7-0.7c3.5-3.5,3.5-9.1,0-12.6L18.6,0L18.6,0z"/>
		</g>
	</g>
</g>
<g id="Layer_2">
</g>
<g id="Layer_3">
</g>
<g id="Layer_4">
</g>
<g id="Layer_5">
</g>
<g id="Layer_6">
</g>
<g id="Layer_7">
</g>
<g id="Layer_8">
</g>
</svg>
