<?xml version="1.0" encoding="utf-8"?>
<!-- Generator: Adobe Illustrator 21.0.0, SVG Export Plug-In . SVG Version: 6.00 Build 0)  -->
<svg version="1.1" xmlns="http://www.w3.org/2000/svg" xmlns:xlink="http://www.w3.org/1999/xlink" x="0px" y="0px"
	 viewBox="0 0 37.25 14.017" style="enable-background:new 0 0 37.25 14.017;" xml:space="preserve">
<style type="text/css">
	.st0{fill:none;stroke:#000000;stroke-miterlimit:10;}
</style>
<g id="Layer_1">
	<g>
		<line class="st0" x1="0" y1="7.008" x2="15.794" y2="7.008"/>
		<line class="st0" x1="37.25" y1="7.008" x2="21.456" y2="7.008"/>
		<g>
			<path d="M18.639,1.402c-0.005,0.005-0.009,0.009-0.013,0.013L18.639,1.402 M18.625,1.416c3.09,3.09,3.095,8.089,0.013,11.185
				C15.548,9.51,15.544,4.512,18.625,1.416 M18.638,12.601l-0.013,0.013C18.63,12.61,18.634,12.605,18.638,12.601 M18.623,0
				l-0.697,0.7l-0.009,0.009L17.916,0.71c-3.461,3.477-3.454,9.128,0.015,12.597l0.709,0.709l0.707-0.71
				c3.461-3.477,3.454-9.128-0.015-12.597L18.623,0L18.623,0z"/>
		</g>
	</g>
</g>
<g id="Layer_2">
</g>
<g id="Layer_3">
</g>
<g id="Layer_4">
</g>
<g id="Layer_5">
</g>
<g id="Layer_6">
</g>
<g id="Layer_7">
</g>
<g id="Layer_8">
</g>
</svg>
