<?xml version="1.0" encoding="utf-8"?>
<!-- Generator: Adobe Illustrator 21.0.0, SVG Export Plug-In . SVG Version: 6.00 Build 0)  -->
<svg version="1.1" id="Layer_1" xmlns="http://www.w3.org/2000/svg" xmlns:xlink="http://www.w3.org/1999/xlink" x="0px" y="0px"
	 viewBox="0 0 84.661 30.62" style="enable-background:new 0 0 84.661 30.62;" xml:space="preserve">
<style type="text/css">
	.st0{fill:none;stroke:#000000;stroke-miterlimit:10;}
</style>
<g>
	<g>
		<line class="st0" x1="12.506" y1="15.31" x2="0" y2="15.31"/>
		<g>
			<polygon points="10.921,12.986 19.594,15.31 10.921,17.634 			"/>
		</g>
	</g>
</g>
<g id="XMLID_2_">
	<g>
		<path d="M69.397,7.8l-18.49-6.15c1.76-0.74,3.7-1.15,5.73-1.15C62.077,0.5,66.827,3.43,69.397,7.8z"/>
		<path d="M50.907,28.97l18.49-6.15c-2.57,4.37-7.32,7.3-12.76,7.3C54.607,30.12,52.667,29.71,50.907,28.97z"/>
	</g>
	<g>
		<line class="st0" x1="84.407" y1="15.31" x2="71.447" y2="15.31"/>
		<line class="st0" x1="41.827" y1="15.31" x2="28.867" y2="15.31"/>
		<path class="st0" d="M71.447,15.31c0,2.74-0.75,5.31-2.05,7.51c-2.57,4.37-7.32,7.3-12.76,7.3c-2.03,0-3.97-0.41-5.73-1.15
			c-5.34-2.24-9.08-7.51-9.08-13.66s3.74-11.42,9.08-13.66c1.76-0.74,3.7-1.15,5.73-1.15c5.44,0,10.19,2.93,12.76,7.3
			C70.697,10,71.447,12.57,71.447,15.31z"/>
		<polyline class="st0" points="69.407,7.8 69.397,7.8 50.907,1.65 		"/>
		<polyline class="st0" points="69.407,22.82 69.397,22.82 50.907,28.97 		"/>
	</g>
</g>
</svg>
