<?xml version="1.0" encoding="utf-8"?>
<!-- Generator: Adobe Illustrator 21.0.0, SVG Export Plug-In . SVG Version: 6.00 Build 0)  -->
<svg version="1.1" id="Layer_1" xmlns="http://www.w3.org/2000/svg" xmlns:xlink="http://www.w3.org/1999/xlink" x="0px" y="0px"
	 viewBox="0 0 65.013 36.791" style="enable-background:new 0 0 65.013 36.791;" xml:space="preserve">
<style type="text/css">
	.st0{clip-path:url(#SVGID_2_);fill:none;stroke:#000000;stroke-width:1.1;stroke-miterlimit:10;}
	.st1{fill:none;stroke:#000000;stroke-width:0.55;stroke-miterlimit:10;}
	.st2{fill:#221F20;}
	.st3{clip-path:url(#SVGID_4_);fill:none;stroke:#000000;stroke-width:0.55;stroke-miterlimit:10;}
</style>
<g>
	<defs>
		<rect id="SVGID_1_" width="65.013" height="36.791"/>
	</defs>
	<clipPath id="SVGID_2_">
		<use xlink:href="#SVGID_1_"  style="overflow:visible;"/>
	</clipPath>
	<path class="st0" d="M42.005,35.838l-9.498-5.485l9.498-5.485V35.838z M0,30.353h23.008 M42.005,30.353h23.008 M23.008,24.868
		l9.499,5.485l-9.499,5.485V24.868z"/>
</g>
<path class="st1" d="M45.037,8.377h8.472v19.608 M32.507,17.325v13.028"/>
<polygon class="st2" points="51.864,27.504 53.509,30.354 55.155,27.504 "/>
<polyline class="st1" points="19.737,8.377 11.265,8.377 11.265,27.985 "/>
<polygon class="st2" points="9.62,27.504 11.264,30.354 12.91,27.504 "/>
<g>
	<defs>
		<rect id="SVGID_3_" width="65.013" height="36.791"/>
	</defs>
	<clipPath id="SVGID_4_">
		<use xlink:href="#SVGID_3_"  style="overflow:visible;"/>
	</clipPath>
	<path class="st3" d="M36.512,17.325h-8.25c-4.689,0-8.525-3.836-8.525-8.525s3.836-8.525,8.525-8.525h8.25
		c4.689,0,8.525,3.836,8.525,8.525S41.201,17.325,36.512,17.325z"/>
</g>
<g>
	<path d="M23.766,3.391h1.469c0.54,0,0.947,0.122,1.223,0.366C26.734,4,26.872,4.357,26.872,4.828c0,0.475-0.138,0.834-0.414,1.076
		c-0.276,0.243-0.684,0.364-1.223,0.364h-0.818v1.934h-0.651V3.391z M24.416,3.926v1.808h0.818c0.303,0,0.537-0.078,0.703-0.235
		c0.166-0.156,0.248-0.38,0.248-0.67c0-0.288-0.083-0.511-0.248-0.667c-0.166-0.157-0.399-0.235-0.703-0.235H24.416z"/>
	<path d="M27.746,3.391h1.337c0.932,0,1.617,0.194,2.053,0.582s0.654,0.994,0.654,1.819c0,0.829-0.219,1.438-0.658,1.827
		c-0.438,0.389-1.122,0.583-2.049,0.583h-1.337V3.391z M28.396,3.926v3.741h0.786c0.664,0,1.15-0.15,1.458-0.451
		c0.308-0.301,0.462-0.775,0.462-1.424c0-0.645-0.154-1.117-0.462-1.417c-0.309-0.3-0.794-0.449-1.458-0.449H28.396z"/>
	<path d="M36.43,3.762v0.687c-0.219-0.204-0.453-0.357-0.701-0.458c-0.248-0.101-0.512-0.151-0.791-0.151
		c-0.55,0-0.971,0.168-1.263,0.504c-0.292,0.337-0.438,0.822-0.438,1.459c0,0.634,0.146,1.118,0.438,1.454
		c0.292,0.337,0.713,0.505,1.263,0.505c0.279,0,0.543-0.051,0.791-0.151c0.248-0.102,0.482-0.254,0.701-0.458v0.68
		c-0.228,0.155-0.469,0.271-0.724,0.349s-0.523,0.116-0.808,0.116c-0.728,0-1.301-0.224-1.72-0.669
		C32.76,7.181,32.55,6.572,32.55,5.802c0-0.773,0.209-1.384,0.628-1.829c0.419-0.446,0.993-0.669,1.72-0.669
		c0.288,0,0.56,0.038,0.814,0.114C35.967,3.494,36.206,3.608,36.43,3.762z"/>
	<path d="M38.676,8.202l-1.837-4.812h0.68l1.524,4.051l1.527-4.051h0.677l-1.833,4.812H38.676z"/>
	<path d="M28.01,9.304c0.539,0,0.951,0.213,1.236,0.64c0.285,0.427,0.427,1.046,0.427,1.858c0,0.81-0.142,1.428-0.427,1.854
		c-0.285,0.426-0.697,0.64-1.236,0.64c-0.54,0-0.952-0.214-1.236-0.64c-0.285-0.427-0.427-1.045-0.427-1.854
		c0-0.812,0.142-1.432,0.427-1.858C27.058,9.517,27.47,9.304,28.01,9.304z M28.01,9.82c-0.335,0-0.587,0.165-0.756,0.495
		c-0.169,0.329-0.253,0.825-0.253,1.487c0,0.659,0.084,1.153,0.253,1.483c0.168,0.33,0.42,0.495,0.756,0.495
		c0.337,0,0.59-0.165,0.759-0.495c0.168-0.33,0.253-0.824,0.253-1.483c0-0.662-0.084-1.158-0.253-1.487
		C28.6,9.985,28.347,9.82,28.01,9.82z"/>
	<path d="M32.209,9.304c0.539,0,0.951,0.213,1.236,0.64c0.285,0.427,0.427,1.046,0.427,1.858c0,0.81-0.142,1.428-0.427,1.854
		c-0.285,0.426-0.697,0.64-1.236,0.64c-0.54,0-0.952-0.214-1.236-0.64c-0.285-0.427-0.427-1.045-0.427-1.854
		c0-0.812,0.142-1.432,0.427-1.858C31.257,9.517,31.669,9.304,32.209,9.304z M32.209,9.82c-0.335,0-0.587,0.165-0.756,0.495
		c-0.169,0.329-0.253,0.825-0.253,1.487c0,0.659,0.084,1.153,0.253,1.483c0.168,0.33,0.42,0.495,0.756,0.495
		c0.337,0,0.59-0.165,0.759-0.495c0.168-0.33,0.253-0.824,0.253-1.483c0-0.662-0.084-1.158-0.253-1.487
		C32.799,9.985,32.546,9.82,32.209,9.82z"/>
	<path d="M36.408,9.304c0.539,0,0.951,0.213,1.236,0.64c0.284,0.427,0.427,1.046,0.427,1.858c0,0.81-0.143,1.428-0.427,1.854
		c-0.285,0.426-0.697,0.64-1.236,0.64s-0.951-0.214-1.235-0.64c-0.285-0.427-0.428-1.045-0.428-1.854
		c0-0.812,0.143-1.432,0.428-1.858C35.456,9.517,35.869,9.304,36.408,9.304z M36.408,9.82c-0.335,0-0.587,0.165-0.756,0.495
		c-0.169,0.329-0.253,0.825-0.253,1.487c0,0.659,0.084,1.153,0.253,1.483s0.421,0.495,0.756,0.495c0.337,0,0.59-0.165,0.759-0.495
		s0.253-0.824,0.253-1.483c0-0.662-0.084-1.158-0.253-1.487C36.997,9.985,36.745,9.82,36.408,9.82z"/>
</g>
</svg>
