<?xml version="1.0" encoding="utf-8"?>
<!-- Generator: Adobe Illustrator 21.0.0, SVG Export Plug-In . SVG Version: 6.00 Build 0)  -->
<svg version="1.1" id="Layer_1" xmlns="http://www.w3.org/2000/svg" xmlns:xlink="http://www.w3.org/1999/xlink" x="0px" y="0px"
	 viewBox="0 0 52.9 29.4" style="enable-background:new 0 0 52.9 29.4;" xml:space="preserve">
<style type="text/css">
	.st0{fill:none;stroke:#FFFFFF;stroke-miterlimit:10;}
	.st1{fill:none;stroke:#FFFFFF;stroke-width:0.5;stroke-miterlimit:10;}
	.st2{fill:#FFFFFF;}
</style>
<line class="st0" x1="0" y1="28.9" x2="52.9" y2="28.9"/>
<path class="st1" d="M26.6,0.2c4.8,0,8.6,3.9,8.6,8.6s-3.9,8.6-8.6,8.6s-8.6-3.9-8.6-8.6S21.8,0.2,26.6,0.2"/>
<polyline class="st1" points="17.9,8.9 11.6,8.9 11.6,28.9 "/>
<polyline class="st1" points="35.2,8.9 41.5,8.9 41.5,28.9 "/>
<g>
	<path class="st2" d="M20.9,3.7h1.3c0.5,0,0.9,0.1,1.1,0.3c0.3,0.2,0.4,0.5,0.4,1c0,0.4-0.1,0.8-0.4,1s-0.6,0.3-1.1,0.3h-0.7V8h-0.6
		C20.9,8,20.9,3.7,20.9,3.7z M21.5,4.1v1.6h0.7c0.3,0,0.5-0.1,0.6-0.2s0.2-0.3,0.2-0.6c0-0.3-0.1-0.5-0.2-0.6s-0.4-0.2-0.6-0.2
		L21.5,4.1L21.5,4.1z"/>
	<path class="st2" d="M24.5,3.7h1.2c0.8,0,1.5,0.2,1.9,0.5s0.6,0.9,0.6,1.7c0,0.8-0.2,1.3-0.6,1.7S26.6,8,25.7,8h-1.2
		C24.5,8,24.5,3.7,24.5,3.7z M25.1,4.1v3.4h0.7c0.6,0,1-0.1,1.3-0.4s0.4-0.7,0.4-1.3c0-0.6-0.1-1-0.4-1.3s-0.7-0.4-1.3-0.4
		C25.8,4.1,25.1,4.1,25.1,4.1z"/>
	<path class="st2" d="M28.5,3.7h3.7v0.5h-1.6V8h-0.6V4.2h-1.6L28.5,3.7L28.5,3.7z"/>
	<path class="st2" d="M22.5,9.6c0.5,0,0.9,0.2,1.1,0.6s0.4,0.9,0.4,1.7c0,0.7-0.1,1.3-0.4,1.7s-0.6,0.6-1.1,0.6s-0.9-0.2-1.1-0.6
		s-0.4-0.9-0.4-1.7c0-0.7,0.1-1.3,0.4-1.7S22,9.6,22.5,9.6z M22.5,10c-0.3,0-0.5,0.1-0.7,0.4s-0.2,0.8-0.2,1.4
		c0,0.6,0.1,1.1,0.2,1.4s0.4,0.4,0.7,0.4c0.3,0,0.5-0.1,0.7-0.4s0.2-0.8,0.2-1.4c0-0.6-0.1-1.1-0.2-1.4S22.8,10,22.5,10z"/>
	<path class="st2" d="M26.3,9.6c0.5,0,0.9,0.2,1.1,0.6s0.4,0.9,0.4,1.7c0,0.7-0.1,1.3-0.4,1.7s-0.6,0.6-1.1,0.6s-0.9-0.2-1.1-0.6
		s-0.4-0.9-0.4-1.7c0-0.7,0.1-1.3,0.4-1.7S25.8,9.6,26.3,9.6z M26.3,10c-0.3,0-0.5,0.1-0.7,0.4s-0.2,0.8-0.2,1.4
		c0,0.6,0.1,1.1,0.2,1.4s0.4,0.4,0.7,0.4c0.3,0,0.5-0.1,0.7-0.4s0.2-0.8,0.2-1.4c0-0.6-0.1-1.1-0.2-1.4S26.6,10,26.3,10z"/>
	<path class="st2" d="M30.1,9.6c0.5,0,0.9,0.2,1.1,0.6s0.4,0.9,0.4,1.7c0,0.7-0.1,1.3-0.4,1.7s-0.6,0.6-1.1,0.6s-0.9-0.2-1.1-0.6
		s-0.4-0.9-0.4-1.7c0-0.7,0.1-1.3,0.4-1.7S29.6,9.6,30.1,9.6z M30.1,10c-0.3,0-0.5,0.1-0.7,0.4s-0.2,0.8-0.2,1.4
		c0,0.6,0.1,1.1,0.2,1.4s0.4,0.4,0.7,0.4c0.3,0,0.5-0.1,0.7-0.4s0.2-0.8,0.2-1.4c0-0.6-0.1-1.1-0.2-1.4S30.4,10,30.1,10z"/>
</g>
</svg>
