<?xml version="1.0" encoding="utf-8"?>
<!-- Generator: Adobe Illustrator 21.0.0, SVG Export Plug-In . SVG Version: 6.00 Build 0)  -->
<svg version="1.1" id="Layer_1" xmlns="http://www.w3.org/2000/svg" xmlns:xlink="http://www.w3.org/1999/xlink" x="0px" y="0px"
	 viewBox="0 0 52.942 29.363" style="enable-background:new 0 0 52.942 29.363;" xml:space="preserve">
<style type="text/css">
	.st0{fill:none;stroke:#000000;stroke-miterlimit:10;}
	.st1{fill:none;stroke:#000000;stroke-width:0.5;stroke-miterlimit:10;}
</style>
<line class="st0" x1="0" y1="28.863" x2="52.942" y2="28.863"/>
<path class="st1" d="M26.579,0.25c4.769,0,8.635,3.866,8.635,8.635s-3.866,8.635-8.635,8.635s-8.635-3.866-8.635-8.635
	S21.81,0.25,26.579,0.25"/>
<polyline class="st1" points="17.944,8.885 11.62,8.885 11.62,28.863 "/>
<polyline class="st1" points="35.215,8.885 41.539,8.885 41.539,28.863 "/>
<g>
	<path d="M20.913,3.656h1.336c0.49,0,0.861,0.111,1.112,0.333c0.251,0.222,0.376,0.546,0.376,0.974c0,0.432-0.125,0.758-0.376,0.979
		s-0.622,0.331-1.112,0.331h-0.744V8.03h-0.592V3.656z M21.505,4.142v1.644h0.744c0.275,0,0.488-0.071,0.639-0.214
		s0.226-0.346,0.226-0.609c0-0.262-0.075-0.464-0.226-0.606s-0.363-0.214-0.639-0.214H21.505z"/>
	<path d="M24.531,3.656h1.216c0.848,0,1.47,0.177,1.866,0.529s0.595,0.903,0.595,1.653c0,0.754-0.199,1.308-0.598,1.661
		s-1.02,0.53-1.863,0.53h-1.216V3.656z M25.123,4.142v3.401h0.715c0.604,0,1.045-0.137,1.325-0.41s0.421-0.705,0.421-1.295
		c0-0.586-0.141-1.015-0.421-1.287s-0.722-0.409-1.325-0.409H25.123z"/>
	<path d="M28.545,3.656h3.7v0.498h-1.553V8.03h-0.595V4.154h-1.553V3.656z"/>
	<path d="M22.457,9.576c0.49,0,0.865,0.194,1.124,0.582s0.388,0.95,0.388,1.688c0,0.736-0.129,1.299-0.388,1.687
		s-0.633,0.581-1.124,0.581s-0.865-0.193-1.124-0.581s-0.388-0.95-0.388-1.687c0-0.738,0.129-1.301,0.388-1.688
		S21.966,9.576,22.457,9.576z M22.457,10.045c-0.305,0-0.534,0.15-0.687,0.45s-0.23,0.75-0.23,1.352c0,0.6,0.077,1.05,0.23,1.35
		s0.382,0.449,0.687,0.449c0.307,0,0.537-0.149,0.69-0.449s0.23-0.75,0.23-1.35c0-0.602-0.077-1.052-0.23-1.352
		S22.763,10.045,22.457,10.045z"/>
	<path d="M26.275,9.576c0.49,0,0.864,0.194,1.123,0.582s0.389,0.95,0.389,1.688c0,0.736-0.13,1.299-0.389,1.687
		s-0.633,0.581-1.123,0.581s-0.865-0.193-1.124-0.581s-0.388-0.95-0.388-1.687c0-0.738,0.129-1.301,0.388-1.688
		S25.784,9.576,26.275,9.576z M26.275,10.045c-0.305,0-0.534,0.15-0.688,0.45s-0.229,0.75-0.229,1.352c0,0.6,0.076,1.05,0.229,1.35
		s0.383,0.449,0.688,0.449c0.307,0,0.536-0.149,0.689-0.449s0.23-0.75,0.23-1.35c0-0.602-0.077-1.052-0.23-1.352
		S26.581,10.045,26.275,10.045z"/>
	<path d="M30.092,9.576c0.49,0,0.864,0.194,1.123,0.582s0.389,0.95,0.389,1.688c0,0.736-0.13,1.299-0.389,1.687
		s-0.633,0.581-1.123,0.581s-0.865-0.193-1.124-0.581s-0.388-0.95-0.388-1.687c0-0.738,0.129-1.301,0.388-1.688
		S29.602,9.576,30.092,9.576z M30.092,10.045c-0.305,0-0.534,0.15-0.688,0.45s-0.229,0.75-0.229,1.352c0,0.6,0.076,1.05,0.229,1.35
		s0.383,0.449,0.688,0.449c0.307,0,0.536-0.149,0.689-0.449s0.23-0.75,0.23-1.35c0-0.602-0.077-1.052-0.23-1.352
		S30.399,10.045,30.092,10.045z"/>
</g>
</svg>
