<?xml version="1.0" encoding="utf-8"?>
<!-- Generator: Adobe Illustrator 21.0.0, SVG Export Plug-In . SVG Version: 6.00 Build 0)  -->
<svg version="1.1" id="Layer_1" xmlns="http://www.w3.org/2000/svg" xmlns:xlink="http://www.w3.org/1999/xlink" x="0px" y="0px"
	 viewBox="0 0 52.942 28.478" style="enable-background:new 0 0 52.942 28.478;" xml:space="preserve">
<style type="text/css">
	.st0{fill:none;stroke:#000000;stroke-width:0.5;stroke-miterlimit:10;}
	.st1{fill:none;stroke:#000000;stroke-miterlimit:10;}
	.st2{fill:none;stroke:#000000;stroke-width:0.5;stroke-miterlimit:10;}
</style>
<path class="st0" d="M30.221,15.75h-7.5c-4.262,0-7.75-3.487-7.75-7.75v0c0-4.262,3.487-7.75,7.75-7.75h7.5
	c4.262,0,7.75,3.487,7.75,7.75v0C37.971,12.263,34.483,15.75,30.221,15.75z"/>
<line class="st1" x1="0" y1="27.978" x2="52.942" y2="27.978"/>
<polyline class="st2" points="14.971,8 8.647,8 8.647,27.978 "/>
<polyline class="st0" points="37.971,8 44.295,8 44.295,27.978 "/>
<g>
	<path d="M20.024,2.81h1.336c0.49,0,0.861,0.111,1.112,0.333s0.376,0.546,0.376,0.974c0,0.432-0.125,0.758-0.376,0.979
		s-0.622,0.332-1.112,0.332h-0.744v1.758h-0.592V2.81z M20.616,3.296V4.94h0.744c0.275,0,0.488-0.072,0.639-0.215
		s0.226-0.346,0.226-0.609c0-0.262-0.075-0.463-0.226-0.605s-0.363-0.215-0.639-0.215H20.616z"/>
	<path d="M23.643,2.81h1.215c0.848,0,1.47,0.177,1.866,0.529s0.595,0.904,0.595,1.654c0,0.754-0.199,1.307-0.598,1.66
		s-1.02,0.531-1.863,0.531h-1.215V2.81z M24.234,3.296v3.402h0.715c0.604,0,1.046-0.137,1.326-0.41s0.42-0.705,0.42-1.295
		c0-0.586-0.14-1.016-0.42-1.288s-0.723-0.409-1.326-0.409H24.234z"/>
	<path d="M28.262,2.81h0.592v4.375h-0.592V2.81z"/>
	<path d="M32.654,2.954V3.53c-0.225-0.107-0.437-0.188-0.636-0.24s-0.392-0.078-0.577-0.078c-0.322,0-0.57,0.062-0.745,0.188
		s-0.263,0.303-0.263,0.533c0,0.193,0.059,0.339,0.175,0.438s0.336,0.178,0.66,0.238l0.357,0.074
		c0.441,0.084,0.768,0.231,0.978,0.443s0.314,0.496,0.314,0.852c0,0.424-0.142,0.744-0.426,0.963s-0.701,0.328-1.25,0.328
		c-0.207,0-0.427-0.023-0.66-0.07s-0.476-0.115-0.726-0.207V6.382c0.24,0.135,0.476,0.236,0.706,0.305s0.457,0.102,0.68,0.102
		c0.338,0,0.599-0.066,0.782-0.199s0.275-0.322,0.275-0.568c0-0.215-0.065-0.383-0.197-0.504s-0.349-0.211-0.649-0.271l-0.36-0.07
		c-0.441-0.088-0.761-0.227-0.958-0.414s-0.296-0.447-0.296-0.781c0-0.387,0.137-0.691,0.409-0.914s0.647-0.334,1.126-0.334
		c0.205,0,0.414,0.018,0.627,0.055S32.431,2.88,32.654,2.954z"/>
	<path d="M22.525,8.731c0.49,0,0.865,0.193,1.124,0.581s0.388,0.95,0.388,1.688c0,0.736-0.129,1.299-0.388,1.687
		s-0.633,0.581-1.124,0.581s-0.865-0.193-1.124-0.581s-0.388-0.95-0.388-1.687c0-0.738,0.129-1.301,0.388-1.688
		S22.035,8.731,22.525,8.731z M22.525,9.2c-0.305,0-0.534,0.149-0.687,0.449s-0.23,0.75-0.23,1.352c0,0.6,0.077,1.05,0.23,1.35
		S22.22,12.8,22.525,12.8c0.307,0,0.537-0.149,0.69-0.449s0.23-0.75,0.23-1.35c0-0.602-0.077-1.052-0.23-1.352
		S22.832,9.2,22.525,9.2z"/>
	<path d="M26.342,8.731c0.49,0,0.864,0.193,1.123,0.581s0.389,0.95,0.389,1.688c0,0.736-0.13,1.299-0.389,1.687
		s-0.633,0.581-1.123,0.581s-0.865-0.193-1.124-0.581s-0.388-0.95-0.388-1.687c0-0.738,0.129-1.301,0.388-1.688
		S25.852,8.731,26.342,8.731z M26.342,9.2c-0.305,0-0.534,0.149-0.688,0.449s-0.229,0.75-0.229,1.352c0,0.6,0.076,1.05,0.229,1.35
		s0.383,0.449,0.688,0.449c0.307,0,0.536-0.149,0.689-0.449s0.23-0.75,0.23-1.35c0-0.602-0.077-1.052-0.23-1.352
		S26.649,9.2,26.342,9.2z"/>
	<path d="M30.16,8.731c0.49,0,0.864,0.193,1.123,0.581s0.389,0.95,0.389,1.688c0,0.736-0.13,1.299-0.389,1.687
		s-0.633,0.581-1.123,0.581s-0.865-0.193-1.124-0.581s-0.388-0.95-0.388-1.687c0-0.738,0.129-1.301,0.388-1.688
		S29.669,8.731,30.16,8.731z M30.16,9.2c-0.305,0-0.534,0.149-0.688,0.449s-0.229,0.75-0.229,1.352c0,0.6,0.076,1.05,0.229,1.35
		S29.855,12.8,30.16,12.8c0.307,0,0.536-0.149,0.689-0.449s0.23-0.75,0.23-1.35c0-0.602-0.077-1.052-0.23-1.352
		S30.466,9.2,30.16,9.2z"/>
</g>
</svg>
