<?xml version="1.0" encoding="utf-8"?>
<!-- Generator: Adobe Illustrator 21.0.0, SVG Export Plug-In . SVG Version: 6.00 Build 0)  -->
<svg version="1.1" id="Layer_1" xmlns="http://www.w3.org/2000/svg" xmlns:xlink="http://www.w3.org/1999/xlink" x="0px" y="0px"
	 viewBox="0 0 52.9 28.5" style="enable-background:new 0 0 52.9 28.5;" xml:space="preserve">
<style type="text/css">
	.st0{fill:none;stroke:#FFFFFF;stroke-width:0.5;stroke-miterlimit:10;}
	.st1{fill:none;stroke:#FFFFFF;stroke-miterlimit:10;}
	.st2{fill:#FFFFFF;}
</style>
<path class="st0" d="M30.2,15.7h-7.5c-4.3,0-7.8-3.5-7.8-7.8l0,0c0-4.3,3.5-7.8,7.8-7.8h7.5C34.5,0.2,38,3.7,38,8l0,0
	C38,12.3,34.5,15.7,30.2,15.7z"/>
<line class="st1" x1="0" y1="28" x2="52.9" y2="28"/>
<polyline class="st0" points="15,8 8.6,8 8.6,28 "/>
<polyline class="st0" points="38,8 44.3,8 44.3,28 "/>
<g>
	<path class="st2" d="M20,2.8h1.3c0.5,0,0.9,0.1,1.1,0.3s0.4,0.5,0.4,1c0,0.4-0.1,0.8-0.4,1s-0.6,0.3-1.1,0.3h-0.7v1.8H20
		C20,7.2,20,2.8,20,2.8z M20.6,3.3v1.6h0.7c0.3,0,0.5-0.1,0.6-0.2s0.2-0.3,0.2-0.6c0-0.3-0.1-0.5-0.2-0.6s-0.4-0.2-0.6-0.2
		C21.4,3.3,20.6,3.3,20.6,3.3z"/>
	<path class="st2" d="M23.6,2.8h1.2c0.8,0,1.5,0.2,1.9,0.5s0.6,0.9,0.6,1.7c0,0.8-0.2,1.3-0.6,1.7s-1,0.5-1.9,0.5h-1.2
		C23.6,7.2,23.6,2.8,23.6,2.8z M24.2,3.3v3.4h0.7c0.6,0,1-0.1,1.3-0.4s0.4-0.7,0.4-1.3c0-0.6-0.1-1-0.4-1.3s-0.7-0.4-1.3-0.4H24.2z"
		/>
	<path class="st2" d="M28.3,2.8h0.6v4.4h-0.6C28.3,7.2,28.3,2.8,28.3,2.8z"/>
	<path class="st2" d="M32.7,3v0.6c-0.2-0.1-0.4-0.2-0.6-0.2s-0.4-0.1-0.6-0.1c-0.3,0-0.6,0.1-0.7,0.2s-0.3,0.3-0.3,0.5
		c0,0.2,0.1,0.3,0.2,0.4s0.3,0.2,0.7,0.2l0.4,0.1c0.4,0.1,0.8,0.2,1,0.4s0.3,0.5,0.3,0.9c0,0.4-0.1,0.7-0.4,1s-0.7,0.3-1.2,0.3
		c-0.2,0-0.4,0-0.7-0.1S30.1,7.1,29.9,7V6.4c0.2,0.1,0.5,0.2,0.7,0.3s0.5,0.1,0.7,0.1c0.3,0,0.6-0.1,0.8-0.2s0.3-0.3,0.3-0.6
		c0-0.2-0.1-0.4-0.2-0.5s-0.3-0.2-0.6-0.3l-0.4-0.1c-0.4-0.1-0.8-0.2-1-0.4S29.8,4.3,29.8,4c0-0.4,0.1-0.7,0.4-0.9s0.6-0.3,1.1-0.3
		c0.2,0,0.4,0,0.6,0.1C32.2,2.8,32.4,2.9,32.7,3z"/>
	<path class="st2" d="M22.5,8.7c0.5,0,0.9,0.2,1.1,0.6S24,10.3,24,11c0,0.7-0.1,1.3-0.4,1.7s-0.6,0.6-1.1,0.6s-0.9-0.2-1.1-0.6
		S21,11.7,21,11c0-0.7,0.1-1.3,0.4-1.7S22,8.7,22.5,8.7z M22.5,9.2c-0.3,0-0.5,0.1-0.7,0.4s-0.2,0.8-0.2,1.4c0,0.6,0.1,1.1,0.2,1.4
		s0.4,0.4,0.7,0.4c0.3,0,0.5-0.1,0.7-0.4s0.2-0.8,0.2-1.4c0-0.6-0.1-1.1-0.2-1.4S22.8,9.2,22.5,9.2z"/>
	<path class="st2" d="M26.3,8.7c0.5,0,0.9,0.2,1.1,0.6s0.4,0.9,0.4,1.7c0,0.7-0.1,1.3-0.4,1.7s-0.6,0.6-1.1,0.6s-0.9-0.2-1.1-0.6
		s-0.4-0.9-0.4-1.7c0-0.7,0.1-1.3,0.4-1.7S25.9,8.7,26.3,8.7z M26.3,9.2c-0.3,0-0.5,0.1-0.7,0.4s-0.2,0.8-0.2,1.4
		c0,0.6,0.1,1.1,0.2,1.4s0.4,0.4,0.7,0.4c0.3,0,0.5-0.1,0.7-0.4s0.2-0.8,0.2-1.4c0-0.6-0.1-1.1-0.2-1.4S26.6,9.2,26.3,9.2z"/>
	<path class="st2" d="M30.2,8.7c0.5,0,0.9,0.2,1.1,0.6s0.4,0.9,0.4,1.7c0,0.7-0.1,1.3-0.4,1.7s-0.6,0.6-1.1,0.6s-0.9-0.2-1.1-0.6
		s-0.4-0.9-0.4-1.7c0-0.7,0.1-1.3,0.4-1.7S29.7,8.7,30.2,8.7z M30.2,9.2c-0.3,0-0.5,0.1-0.7,0.4s-0.2,0.8-0.2,1.4
		c0,0.6,0.1,1.1,0.2,1.4s0.4,0.4,0.7,0.4c0.3,0,0.5-0.1,0.7-0.4s0.2-0.8,0.2-1.4c0-0.6-0.1-1.1-0.2-1.4S30.5,9.2,30.2,9.2z"/>
</g>
</svg>
