<?xml version="1.0" encoding="utf-8"?>
<!-- Generator: Adobe Illustrator 21.0.0, SVG Export Plug-In . SVG Version: 6.00 Build 0)  -->
<svg version="1.1" xmlns="http://www.w3.org/2000/svg" xmlns:xlink="http://www.w3.org/1999/xlink" x="0px" y="0px"
	 viewBox="0 0 48.206 83" style="enable-background:new 0 0 48.206 83;" xml:space="preserve">
<style type="text/css">
	.st0{fill:none;stroke:#000000;stroke-miterlimit:10;}
</style>
<g id="Layer_1">
	<path class="st0" d="M6.75,45.5V7.167c0-8.889,34.667-8.889,34.667,0V45.5v30.333c0,8.889-34.667,8.889-34.667,0V45.5z"/>
	<g>
		<line class="st0" x1="0.5" y1="14.75" x2="0.5" y2="68.25"/>
		<line class="st0" x1="0.5" y1="17.75" x2="6.75" y2="21.5"/>
		<line class="st0" x1="0.5" y1="21.5" x2="6.75" y2="25.25"/>
		<line class="st0" x1="0.5" y1="25.25" x2="6.75" y2="29"/>
		<line class="st0" x1="0.5" y1="29" x2="6.75" y2="32.75"/>
		<line class="st0" x1="0.5" y1="32.75" x2="6.75" y2="36.5"/>
		<line class="st0" x1="0.5" y1="36.5" x2="6.75" y2="40.25"/>
		<line class="st0" x1="0.5" y1="40.25" x2="6.75" y2="44"/>
		<line class="st0" x1="0.5" y1="44" x2="6.75" y2="47.75"/>
		<line class="st0" x1="0.5" y1="47.75" x2="6.75" y2="51.5"/>
		<line class="st0" x1="0.5" y1="51.5" x2="6.75" y2="55.25"/>
		<line class="st0" x1="0.5" y1="55.25" x2="6.75" y2="59"/>
		<line class="st0" x1="0.5" y1="59" x2="6.75" y2="62.75"/>
		<line class="st0" x1="0.5" y1="62.75" x2="6.75" y2="66.5"/>
	</g>
	<g>
		<line class="st0" x1="47.706" y1="68.25" x2="47.706" y2="14.75"/>
		<line class="st0" x1="47.706" y1="65.25" x2="41.456" y2="61.5"/>
		<line class="st0" x1="47.706" y1="61.5" x2="41.456" y2="57.75"/>
		<line class="st0" x1="47.706" y1="57.75" x2="41.456" y2="54"/>
		<line class="st0" x1="47.706" y1="54" x2="41.456" y2="50.25"/>
		<line class="st0" x1="47.706" y1="50.25" x2="41.456" y2="46.5"/>
		<line class="st0" x1="47.706" y1="46.5" x2="41.456" y2="42.75"/>
		<line class="st0" x1="47.706" y1="42.75" x2="41.456" y2="39"/>
		<line class="st0" x1="47.706" y1="39" x2="41.456" y2="35.25"/>
		<line class="st0" x1="47.706" y1="35.25" x2="41.456" y2="31.5"/>
		<line class="st0" x1="47.706" y1="31.5" x2="41.456" y2="27.75"/>
		<line class="st0" x1="47.706" y1="27.75" x2="41.456" y2="24"/>
		<line class="st0" x1="47.706" y1="24" x2="41.456" y2="20.25"/>
		<line class="st0" x1="47.706" y1="20.25" x2="41.456" y2="16.5"/>
	</g>
</g>
<g id="Layer_2">
</g>
<g id="Layer_3">
</g>
<g id="Layer_4">
</g>
</svg>
