<?xml version="1.0" encoding="utf-8"?>
<!-- Generator: Adobe Illustrator 21.0.0, SVG Export Plug-In . SVG Version: 6.00 Build 0)  -->
<svg version="1.1" id="Layer_1" xmlns="http://www.w3.org/2000/svg" xmlns:xlink="http://www.w3.org/1999/xlink" x="0px" y="0px"
	 viewBox="0 0 12.82 50.45" style="enable-background:new 0 0 12.82 50.45;" xml:space="preserve">
<style type="text/css">
	.st0{fill:none;stroke:#000000;stroke-miterlimit:10;}
	.st1{fill:none;stroke:#000000;stroke-miterlimit:10;stroke-dasharray:0.9836,0.9836;}
</style>
<line class="st0" x1="6.41" y1="39.159" x2="6.41" y2="50.45"/>
<line class="st0" x1="6.41" y1="0" x2="6.41" y2="11.291"/>
<rect x="-7.524" y="19.315" transform="matrix(-1.836970e-16 1 -1 -1.836970e-16 31.6348 18.815)" class="st0" width="27.868" height="11.82"/>
<g>
	<g>
		<g>
			<line class="st0" x1="12.32" y1="15.665" x2="11.82" y2="15.665"/>
			<line class="st1" x1="10.836" y1="15.665" x2="1.492" y2="15.665"/>
			<line class="st0" x1="1" y1="15.665" x2="0.5" y2="15.665"/>
		</g>
	</g>
	<g>
		<g>
			<line class="st0" x1="12.32" y1="34.785" x2="11.82" y2="34.785"/>
			<line class="st1" x1="10.836" y1="34.785" x2="1.492" y2="34.785"/>
			<line class="st0" x1="1" y1="34.785" x2="0.5" y2="34.785"/>
		</g>
	</g>
</g>
<g>
	<path d="M1.509,23.035H2.1v4.374H1.509V23.035z"/>
	<path d="M5.054,22.956c0.613,0,1.104,0.206,1.471,0.617s0.551,0.962,0.551,1.653c0,0.689-0.184,1.24-0.551,1.651
		s-0.857,0.616-1.471,0.616c-0.615,0-1.107-0.205-1.475-0.615s-0.552-0.961-0.552-1.652s0.184-1.242,0.552-1.653
		S4.438,22.956,5.054,22.956z M5.054,23.436c-0.43,0-0.771,0.16-1.024,0.48s-0.379,0.757-0.379,1.31
		c0,0.551,0.126,0.986,0.379,1.307s0.594,0.48,1.024,0.48s0.77-0.16,1.021-0.48s0.376-0.756,0.376-1.307
		c0-0.553-0.125-0.989-0.376-1.31S5.483,23.436,5.054,23.436z"/>
	<path d="M8.001,23.035h0.797l1.939,3.659v-3.659h0.574v4.374h-0.797L8.575,23.75v3.659H8.001V23.035z"/>
</g>
</svg>
