<?xml version="1.0" encoding="utf-8"?>
<!-- Generator: Adobe Illustrator 21.0.0, SVG Export Plug-In . SVG Version: 6.00 Build 0)  -->
<svg version="1.1" id="Layer_1" xmlns="http://www.w3.org/2000/svg" xmlns:xlink="http://www.w3.org/1999/xlink" x="0px" y="0px"
	 viewBox="0 0 12.8 50.5" style="enable-background:new 0 0 12.8 50.5;" xml:space="preserve">
<style type="text/css">
	.st0{fill:none;stroke:#FFFFFF;stroke-miterlimit:10;}
	.st1{fill:none;stroke:#FFFFFF;stroke-miterlimit:10;stroke-dasharray:0.9836,0.9836;}
	.st2{fill:#FFFFFF;}
</style>
<line class="st0" x1="6.4" y1="39.2" x2="6.4" y2="50.5"/>
<line class="st0" x1="6.4" y1="0" x2="6.4" y2="11.3"/>
<rect x="0.5" y="11.3" class="st0" width="11.8" height="27.9"/>
<g>
	<g>
		<g>
			<line class="st0" x1="12.3" y1="15.7" x2="11.8" y2="15.7"/>
			<line class="st1" x1="10.8" y1="15.7" x2="1.5" y2="15.7"/>
			<line class="st0" x1="1" y1="15.7" x2="0.5" y2="15.7"/>
		</g>
	</g>
	<g>
		<g>
			<line class="st0" x1="12.3" y1="34.8" x2="11.8" y2="34.8"/>
			<line class="st1" x1="10.8" y1="34.8" x2="1.5" y2="34.8"/>
			<line class="st0" x1="1" y1="34.8" x2="0.5" y2="34.8"/>
		</g>
	</g>
</g>
<g>
	<path class="st2" d="M1.5,23h0.6v4.4H1.5V23z"/>
	<path class="st2" d="M5.1,23c0.6,0,1.1,0.2,1.5,0.6s0.6,1,0.6,1.7c0,0.7-0.2,1.2-0.6,1.7s-0.9,0.6-1.5,0.6c-0.6,0-1.1-0.2-1.5-0.6
		S3,25.9,3,25.2s0.2-1.2,0.6-1.7S4.4,23,5.1,23z M5.1,23.4c-0.4,0-0.8,0.2-1,0.5s-0.4,0.8-0.4,1.3c0,0.6,0.1,1,0.4,1.3
		s0.6,0.5,1,0.5s0.8-0.2,1-0.5s0.4-0.8,0.4-1.3c0-0.6-0.1-1-0.4-1.3S5.5,23.4,5.1,23.4z"/>
	<path class="st2" d="M8,23h0.8l1.9,3.7V23h0.6v4.4h-0.8l-1.9-3.7v3.7H8V23z"/>
</g>
</svg>
