<?xml version="1.0" encoding="utf-8"?>
<!-- Generator: Adobe Illustrator 21.0.0, SVG Export Plug-In . SVG Version: 6.00 Build 0)  -->
<svg version="1.1" xmlns="http://www.w3.org/2000/svg" xmlns:xlink="http://www.w3.org/1999/xlink" x="0px" y="0px"
	 viewBox="0 0 49.622 10.12" style="enable-background:new 0 0 49.622 10.12;" xml:space="preserve">
<style type="text/css">
	.st0{fill:none;stroke:#000000;stroke-linejoin:round;stroke-miterlimit:10;stroke-dasharray:2,1,0.5,1,0.5,1;}
	.st1{fill:none;stroke:#000000;stroke-miterlimit:10;}
</style>
<g id="Layer_1">
	<g>
		<line class="st0" x1="0" y1="7.34" x2="49.622" y2="7.34"/>
		<line class="st1" x1="0" y1="5.06" x2="49.622" y2="5.06"/>
		<g>
			<line class="st1" x1="10.081" y1="0.5" x2="39.541" y2="0.5"/>
			<g>
				<line class="st1" x1="10.175" y1="5.06" x2="14.05" y2="0.5"/>
				<line class="st1" x1="14.855" y1="5.06" x2="18.73" y2="0.5"/>
				<line class="st1" x1="19.534" y1="5.06" x2="23.409" y2="0.5"/>
				<line class="st1" x1="24.213" y1="5.06" x2="28.088" y2="0.5"/>
				<line class="st1" x1="28.892" y1="5.06" x2="32.767" y2="0.5"/>
				<line class="st1" x1="33.572" y1="5.06" x2="37.447" y2="0.5"/>
			</g>
		</g>
		<g>
			<line class="st1" x1="39.541" y1="9.62" x2="10.081" y2="9.62"/>
			<g>
				<line class="st1" x1="39.447" y1="5.06" x2="35.572" y2="9.62"/>
				<line class="st1" x1="34.767" y1="5.06" x2="30.892" y2="9.62"/>
				<line class="st1" x1="30.088" y1="5.06" x2="26.213" y2="9.62"/>
				<line class="st1" x1="25.409" y1="5.06" x2="21.534" y2="9.62"/>
				<line class="st1" x1="20.73" y1="5.06" x2="16.855" y2="9.62"/>
				<line class="st1" x1="16.05" y1="5.06" x2="12.175" y2="9.62"/>
			</g>
		</g>
	</g>
</g>
<g id="Layer_2">
</g>
<g id="Layer_3">
</g>
<g id="Layer_4">
</g>
<g id="Layer_5">
</g>
<g id="Layer_6">
</g>
<g id="Layer_7">
</g>
<g id="Layer_8">
</g>
<g id="Layer_9">
</g>
</svg>
