<?xml version="1.0" encoding="utf-8"?>
<!-- Generator: Adobe Illustrator 21.0.0, SVG Export Plug-In . SVG Version: 6.00 Build 0)  -->
<svg version="1.1" id="Layer_1" xmlns="http://www.w3.org/2000/svg" xmlns:xlink="http://www.w3.org/1999/xlink" x="0px" y="0px"
	 viewBox="0 0 71.801 34.716" style="enable-background:new 0 0 71.801 34.716;" xml:space="preserve">
<style type="text/css">
	.st0{fill:none;stroke:#000000;stroke-miterlimit:10;}
	.st1{fill:none;stroke:#000000;stroke-width:0.5;stroke-miterlimit:10;}
</style>
<g>
	<g>
		<line class="st0" x1="12.506" y1="29.169" x2="0" y2="29.169"/>
		<g>
			<polygon points="10.921,26.845 19.594,29.169 10.921,31.493 			"/>
		</g>
	</g>
</g>
<g>
	<line class="st0" x1="33.615" y1="28.851" x2="22.656" y2="28.863"/>
	<g>
		<polygon class="st0" points="33.615,23.877 42.25,28.863 33.615,33.85 		"/>
	</g>
</g>
<line class="st0" x1="50.885" y1="28.863" x2="71.801" y2="28.863"/>
<g>
	<polygon class="st0" points="50.885,33.85 42.25,28.863 50.885,23.877 	"/>
</g>
<path class="st1" d="M42.358,0.25c4.769,0,8.635,3.866,8.635,8.635s-3.866,8.635-8.635,8.635s-8.635-3.866-8.635-8.635
	S37.589,0.25,42.358,0.25"/>
<line class="st1" x1="42.25" y1="17.52" x2="42.25" y2="28.863"/>
<g>
	<g>
		<polyline class="st1" points="50.994,8.885 61.343,8.885 43.798,25.838 		"/>
		<g>
			<polygon points="43.073,24.458 42.25,27.334 45.152,26.61 			"/>
		</g>
	</g>
</g>
<g>
	<path d="M36.722,3.695h1.335c0.49,0,0.861,0.111,1.112,0.333c0.251,0.222,0.376,0.546,0.376,0.974c0,0.432-0.125,0.758-0.376,0.979
		s-0.622,0.331-1.112,0.331h-0.744v1.758h-0.592V3.695z M37.313,4.181v1.644h0.744c0.275,0,0.488-0.071,0.639-0.214
		s0.226-0.346,0.226-0.609c0-0.262-0.075-0.464-0.226-0.606s-0.363-0.214-0.639-0.214H37.313z"/>
	<path d="M43.615,4.032v0.624c-0.199-0.186-0.411-0.324-0.637-0.416s-0.466-0.138-0.72-0.138c-0.5,0-0.883,0.153-1.148,0.458
		s-0.398,0.748-0.398,1.326c0,0.576,0.133,1.017,0.398,1.323s0.648,0.458,1.148,0.458c0.254,0,0.494-0.046,0.72-0.138
		s0.438-0.23,0.637-0.416v0.618c-0.207,0.141-0.426,0.246-0.657,0.316s-0.477,0.105-0.734,0.105c-0.662,0-1.184-0.203-1.564-0.608
		s-0.571-0.958-0.571-1.66c0-0.703,0.19-1.257,0.571-1.663s0.902-0.608,1.564-0.608c0.262,0,0.509,0.035,0.74,0.104
		S43.411,3.893,43.615,4.032z"/>
	<path d="M45.657,8.069l-1.67-4.374h0.618l1.386,3.683l1.389-3.683h0.615l-1.667,4.374H45.657z"/>
	<path d="M38.27,9.616c0.49,0,0.864,0.194,1.123,0.582c0.259,0.388,0.389,0.95,0.389,1.688c0,0.736-0.13,1.299-0.389,1.687
		s-0.633,0.581-1.123,0.581s-0.865-0.193-1.124-0.581s-0.388-0.95-0.388-1.687c0-0.738,0.129-1.301,0.388-1.688
		C37.405,9.81,37.78,9.616,38.27,9.616z M38.27,10.085c-0.305,0-0.534,0.15-0.687,0.45s-0.23,0.75-0.23,1.352
		c0,0.6,0.077,1.05,0.23,1.35s0.382,0.449,0.687,0.449c0.307,0,0.536-0.149,0.689-0.449s0.23-0.75,0.23-1.35
		c0-0.602-0.077-1.052-0.23-1.352S38.577,10.085,38.27,10.085z"/>
	<path d="M42.087,9.616c0.49,0,0.864,0.194,1.123,0.582c0.259,0.388,0.389,0.95,0.389,1.688c0,0.736-0.13,1.299-0.389,1.687
		s-0.633,0.581-1.123,0.581s-0.865-0.193-1.124-0.581s-0.388-0.95-0.388-1.687c0-0.738,0.129-1.301,0.388-1.688
		C41.222,9.81,41.597,9.616,42.087,9.616z M42.087,10.085c-0.305,0-0.534,0.15-0.688,0.45s-0.229,0.75-0.229,1.352
		c0,0.6,0.076,1.05,0.229,1.35s0.383,0.449,0.688,0.449c0.307,0,0.536-0.149,0.689-0.449s0.23-0.75,0.23-1.35
		c0-0.602-0.077-1.052-0.23-1.352S42.394,10.085,42.087,10.085z"/>
	<path d="M45.905,9.616c0.49,0,0.864,0.194,1.123,0.582c0.259,0.388,0.389,0.95,0.389,1.688c0,0.736-0.13,1.299-0.389,1.687
		s-0.633,0.581-1.123,0.581s-0.865-0.193-1.124-0.581s-0.388-0.95-0.388-1.687c0-0.738,0.129-1.301,0.388-1.688
		C45.039,9.81,45.414,9.616,45.905,9.616z M45.905,10.085c-0.305,0-0.534,0.15-0.688,0.45s-0.229,0.75-0.229,1.352
		c0,0.6,0.076,1.05,0.229,1.35s0.383,0.449,0.688,0.449c0.307,0,0.536-0.149,0.689-0.449s0.23-0.75,0.23-1.35
		c0-0.602-0.077-1.052-0.23-1.352S46.211,10.085,45.905,10.085z"/>
</g>
</svg>
