<?xml version="1.0" encoding="utf-8"?>
<!-- Generator: Adobe Illustrator 21.0.0, SVG Export Plug-In . SVG Version: 6.00 Build 0)  -->
<svg version="1.1" id="Layer_1" xmlns="http://www.w3.org/2000/svg" xmlns:xlink="http://www.w3.org/1999/xlink" x="0px" y="0px"
	 viewBox="0 0 34.251 29.363" style="enable-background:new 0 0 34.251 29.363;" xml:space="preserve">
<style type="text/css">
	.st0{fill:none;stroke:#000000;stroke-miterlimit:10;}
	.st1{fill:none;stroke:#000000;stroke-width:0.5;stroke-miterlimit:10;}
</style>
<line class="st0" x1="0" y1="28.863" x2="34.251" y2="28.863"/>
<path class="st1" d="M17.234,0.25c4.769,0,8.635,3.866,8.635,8.635s-3.866,8.635-8.635,8.635s-8.635-3.866-8.635-8.635
	S12.465,0.25,17.234,0.25"/>
<line class="st1" x1="17.126" y1="17.52" x2="17.126" y2="28.863"/>
<g>
	<path d="M13.226,3.695h1.336c0.49,0,0.861,0.111,1.112,0.333c0.251,0.222,0.376,0.546,0.376,0.974c0,0.432-0.125,0.758-0.376,0.979
		s-0.622,0.331-1.112,0.331h-0.744V8.07h-0.592C13.226,8.07,13.226,3.695,13.226,3.695z M13.818,4.181v1.644h0.744
		c0.275,0,0.488-0.071,0.639-0.214s0.226-0.346,0.226-0.609c0-0.262-0.075-0.464-0.226-0.606s-0.363-0.214-0.639-0.214L13.818,4.181
		L13.818,4.181z"/>
	<path d="M16.844,3.695h0.592V8.07h-0.592C16.844,8.07,16.844,3.695,16.844,3.695z"/>
	<path d="M21.236,3.838v0.577C21.012,4.308,20.8,4.228,20.6,4.175s-0.392-0.079-0.577-0.079c-0.322,0-0.571,0.062-0.746,0.188
		s-0.262,0.303-0.262,0.533c0,0.193,0.058,0.339,0.174,0.438s0.337,0.178,0.661,0.239l0.357,0.073
		c0.441,0.084,0.767,0.232,0.977,0.444S21.5,6.507,21.5,6.862c0,0.424-0.143,0.745-0.427,0.964c-0.284,0.219-0.7,0.328-1.249,0.328
		c-0.207,0-0.428-0.023-0.661-0.07s-0.475-0.116-0.725-0.208V7.267c0.24,0.135,0.476,0.236,0.706,0.305s0.458,0.103,0.68,0.103
		c0.338,0,0.599-0.066,0.782-0.199s0.275-0.322,0.275-0.568c0-0.215-0.066-0.383-0.198-0.504S20.336,6.19,20.035,6.13l-0.36-0.07
		c-0.442-0.088-0.761-0.226-0.958-0.414S18.42,5.198,18.42,4.864c0-0.387,0.136-0.691,0.409-0.914
		c0.272-0.223,0.648-0.334,1.127-0.334c0.205,0,0.414,0.019,0.627,0.056S21.014,3.764,21.236,3.838z"/>
	<path d="M13.416,9.616c0.49,0,0.865,0.193,1.124,0.581s0.388,0.951,0.388,1.689c0,0.736-0.129,1.298-0.388,1.686
		s-0.633,0.582-1.124,0.582s-0.865-0.194-1.124-0.582s-0.388-0.949-0.388-1.686c0-0.738,0.129-1.302,0.388-1.689
		S12.926,9.616,13.416,9.616z M13.416,10.085c-0.305,0-0.534,0.149-0.687,0.449s-0.23,0.751-0.23,1.353
		c0,0.6,0.077,1.049,0.23,1.349s0.382,0.45,0.687,0.45c0.307,0,0.537-0.15,0.69-0.45s0.23-0.749,0.23-1.349
		c0-0.602-0.077-1.053-0.23-1.353S13.723,10.085,13.416,10.085z"/>
	<path d="M17.234,9.616c0.49,0,0.865,0.193,1.124,0.581s0.388,0.951,0.388,1.689c0,0.736-0.129,1.298-0.388,1.686
		s-0.633,0.582-1.124,0.582s-0.865-0.194-1.124-0.582c-0.259-0.388-0.388-0.949-0.388-1.686c0-0.738,0.129-1.302,0.388-1.689
		S16.744,9.616,17.234,9.616z M17.234,10.085c-0.305,0-0.534,0.149-0.687,0.449s-0.23,0.751-0.23,1.353
		c0,0.6,0.077,1.049,0.23,1.349s0.382,0.45,0.687,0.45c0.307,0,0.537-0.15,0.69-0.45s0.23-0.749,0.23-1.349
		c0-0.602-0.077-1.053-0.23-1.353S17.54,10.085,17.234,10.085z"/>
	<path d="M21.052,9.616c0.49,0,0.864,0.193,1.123,0.581s0.389,0.951,0.389,1.689c0,0.736-0.13,1.298-0.389,1.686
		s-0.633,0.582-1.123,0.582s-0.865-0.194-1.124-0.582s-0.388-0.949-0.388-1.686c0-0.738,0.129-1.302,0.388-1.689
		S20.561,9.616,21.052,9.616z M21.052,10.085c-0.305,0-0.534,0.149-0.688,0.449s-0.229,0.751-0.229,1.353
		c0,0.6,0.076,1.049,0.229,1.349s0.383,0.45,0.688,0.45c0.307,0,0.536-0.15,0.689-0.45s0.23-0.749,0.23-1.349
		c0-0.602-0.077-1.053-0.23-1.353S21.358,10.085,21.052,10.085z"/>
</g>
</svg>
