<?xml version="1.0" encoding="utf-8"?>
<!-- Generator: Adobe Illustrator 21.0.0, SVG Export Plug-In . SVG Version: 6.00 Build 0)  -->
<svg version="1.1" id="Layer_1" xmlns="http://www.w3.org/2000/svg" xmlns:xlink="http://www.w3.org/1999/xlink" x="0px" y="0px"
	 viewBox="0 0 31.3 34.7" style="enable-background:new 0 0 31.3 34.7;" xml:space="preserve">
<style type="text/css">
	.st0{fill:none;stroke:#FFFFFF;stroke-miterlimit:10;}
	.st1{fill:none;stroke:#FFFFFF;stroke-width:0.5;stroke-miterlimit:10;}
	.st2{fill:#FFFFFF;}
</style>
<g>
	<g>
		<polygon class="st0" points="7.1,23.9 15.7,28.9 7.1,33.8 		"/>
	</g>
</g>
<g>
	<polygon class="st0" points="24.3,33.8 15.7,28.9 24.3,23.9 	"/>
</g>
<path class="st1" d="M15.8,0.2c4.8,0,8.6,3.9,8.6,8.6s-3.9,8.6-8.6,8.6s-8.6-3.9-8.6-8.6S11,0.2,15.8,0.2"/>
<g>
	<g>
		<line class="st1" x1="15.7" y1="21.1" x2="15.7" y2="28.9"/>
		<g>
			<polygon class="st2" points="13.2,21.8 15.7,17.5 18.2,21.8 			"/>
		</g>
	</g>
</g>
<g>
	<path class="st2" d="M10.2,3.7h1.3c0.5,0,0.9,0.1,1.1,0.3C12.9,4.2,13,4.6,13,5c0,0.4-0.1,0.8-0.4,1S12,6.3,11.5,6.3h-0.7v1.8h-0.6
		V3.7z M10.8,4.2v1.6h0.7c0.3,0,0.5-0.1,0.6-0.2s0.2-0.3,0.2-0.6c0-0.3-0.1-0.5-0.2-0.6s-0.4-0.2-0.6-0.2L10.8,4.2L10.8,4.2z"/>
	<path class="st2" d="M17.1,4v0.6c-0.2-0.2-0.4-0.3-0.6-0.4S16,4.1,15.7,4.1c-0.5,0-0.9,0.2-1.1,0.5s-0.4,0.7-0.4,1.3
		c0,0.6,0.1,1,0.4,1.3s0.6,0.5,1.1,0.5c0.3,0,0.5,0,0.7-0.1s0.4-0.2,0.6-0.4v0.6C16.9,7.9,16.6,8,16.4,8c-0.2,0.1-0.5,0.1-0.7,0.1
		c-0.7,0-1.2-0.2-1.6-0.6s-0.6-1-0.6-1.7c0-0.7,0.2-1.3,0.6-1.7s0.9-0.6,1.6-0.6c0.3,0,0.5,0,0.7,0.1S16.9,3.9,17.1,4z"/>
	<path class="st2" d="M19.1,8.1l-1.7-4.4h0.6l1.4,3.7l1.4-3.7h0.6l-1.7,4.4H19.1z"/>
	<path class="st2" d="M11.7,9.6c0.5,0,0.9,0.2,1.1,0.6s0.4,1,0.4,1.7c0,0.7-0.1,1.3-0.4,1.7s-0.6,0.6-1.1,0.6s-0.9-0.2-1.1-0.6
		s-0.4-0.9-0.4-1.7c0-0.7,0.1-1.3,0.4-1.7S11.2,9.6,11.7,9.6z M11.7,10.1c-0.3,0-0.5,0.1-0.7,0.4s-0.2,0.8-0.2,1.4
		c0,0.6,0.1,1,0.2,1.3s0.4,0.4,0.7,0.4c0.3,0,0.5-0.1,0.7-0.4s0.2-0.8,0.2-1.3c0-0.6-0.1-1.1-0.2-1.4S12,10.1,11.7,10.1z"/>
	<path class="st2" d="M15.5,9.6c0.5,0,0.9,0.2,1.1,0.6s0.4,1,0.4,1.7c0,0.7-0.1,1.3-0.4,1.7s-0.6,0.6-1.1,0.6
		c-0.5,0-0.9-0.2-1.1-0.6S14,12.6,14,11.9c0-0.7,0.1-1.3,0.4-1.7S15,9.6,15.5,9.6z M15.5,10.1c-0.3,0-0.5,0.1-0.7,0.4
		s-0.2,0.8-0.2,1.4c0,0.6,0.1,1,0.2,1.3s0.4,0.4,0.7,0.4c0.3,0,0.5-0.1,0.7-0.4s0.2-0.8,0.2-1.3c0-0.6-0.1-1.1-0.2-1.4
		S15.8,10.1,15.5,10.1z"/>
	<path class="st2" d="M19.4,9.6c0.5,0,0.9,0.2,1.1,0.6s0.4,1,0.4,1.7c0,0.7-0.1,1.3-0.4,1.7s-0.6,0.6-1.1,0.6s-0.9-0.2-1.1-0.6
		s-0.4-0.9-0.4-1.7c0-0.7,0.1-1.3,0.4-1.7S18.9,9.6,19.4,9.6z M19.4,10.1c-0.3,0-0.5,0.1-0.7,0.4s-0.2,0.8-0.2,1.4
		c0,0.6,0.1,1,0.2,1.3s0.4,0.4,0.7,0.4c0.3,0,0.5-0.1,0.7-0.4s0.2-0.8,0.2-1.3c0-0.6-0.1-1.1-0.2-1.4S19.7,10.1,19.4,10.1z"/>
</g>
<line class="st0" x1="7" y1="28.9" x2="0" y2="28.9"/>
<line class="st0" x1="31.3" y1="28.9" x2="24.3" y2="28.9"/>
</svg>
