<?xml version="1.0" encoding="utf-8"?>
<!-- Generator: Adobe Illustrator 21.0.0, SVG Export Plug-In . SVG Version: 6.00 Build 0)  -->
<svg version="1.1" id="Layer_1" xmlns="http://www.w3.org/2000/svg" xmlns:xlink="http://www.w3.org/1999/xlink" x="0px" y="0px"
	 viewBox="0 0 34.251 29.363" style="enable-background:new 0 0 34.251 29.363;" xml:space="preserve">
<style type="text/css">
	.st0{fill:none;stroke:#000000;stroke-miterlimit:10;}
	.st1{fill:none;stroke:#000000;stroke-width:0.5;stroke-miterlimit:10;}
</style>
<line class="st0" x1="0" y1="28.863" x2="34.251" y2="28.863"/>
<path class="st1" d="M17.234,0.25c4.769,0,8.635,3.866,8.635,8.635s-3.866,8.635-8.635,8.635s-8.635-3.866-8.635-8.635
	S12.465,0.25,17.234,0.25"/>
<line class="st1" x1="17.126" y1="17.52" x2="17.126" y2="28.863"/>
<g>
	<path d="M15.13,3.656h1.336c0.49,0,0.861,0.111,1.112,0.333c0.251,0.222,0.376,0.546,0.376,0.974c0,0.432-0.125,0.758-0.376,0.979
		s-0.622,0.331-1.112,0.331h-0.744V8.03H15.13V3.656z M15.722,4.142v1.644h0.744c0.275,0,0.488-0.071,0.639-0.214
		s0.226-0.346,0.226-0.609c0-0.262-0.075-0.464-0.226-0.606s-0.363-0.214-0.639-0.214H15.722z"/>
	<path d="M18.749,3.656h0.592V8.03h-0.592V3.656z"/>
	<path d="M13.416,9.576c0.49,0,0.865,0.194,1.124,0.582s0.388,0.951,0.388,1.689c0,0.736-0.129,1.298-0.388,1.686
		s-0.633,0.582-1.124,0.582s-0.865-0.194-1.124-0.582s-0.388-0.95-0.388-1.686c0-0.738,0.129-1.301,0.388-1.689
		S12.926,9.576,13.416,9.576z M13.416,10.045c-0.305,0-0.534,0.15-0.687,0.45s-0.23,0.75-0.23,1.352c0,0.6,0.077,1.049,0.23,1.349
		s0.382,0.45,0.687,0.45c0.307,0,0.537-0.15,0.69-0.45s0.23-0.75,0.23-1.349c0-0.602-0.077-1.052-0.23-1.352
		S13.723,10.045,13.416,10.045z"/>
	<path d="M17.234,9.576c0.49,0,0.865,0.194,1.124,0.582s0.389,0.951,0.389,1.689c0,0.736-0.13,1.298-0.389,1.686
		s-0.633,0.582-1.124,0.582s-0.865-0.194-1.124-0.582c-0.259-0.388-0.388-0.95-0.388-1.686c0-0.738,0.129-1.301,0.388-1.689
		C16.369,9.77,16.744,9.576,17.234,9.576z M17.234,10.045c-0.305,0-0.534,0.15-0.687,0.45s-0.23,0.75-0.23,1.352
		c0,0.6,0.077,1.049,0.23,1.349s0.382,0.45,0.687,0.45c0.307,0,0.537-0.15,0.69-0.45s0.23-0.75,0.23-1.349
		c0-0.602-0.077-1.052-0.23-1.352S17.54,10.045,17.234,10.045z"/>
	<path d="M21.052,9.576c0.49,0,0.864,0.194,1.123,0.582s0.389,0.951,0.389,1.689c0,0.736-0.13,1.298-0.389,1.686
		s-0.633,0.582-1.123,0.582s-0.865-0.194-1.124-0.582s-0.388-0.95-0.388-1.686c0-0.738,0.129-1.301,0.388-1.689
		S20.561,9.576,21.052,9.576z M21.052,10.045c-0.305,0-0.534,0.15-0.688,0.45s-0.229,0.75-0.229,1.352
		c0,0.6,0.076,1.049,0.229,1.349s0.383,0.45,0.688,0.45c0.307,0,0.536-0.15,0.689-0.45s0.23-0.75,0.23-1.349
		c0-0.602-0.077-1.052-0.23-1.352S21.358,10.045,21.052,10.045z"/>
</g>
</svg>
