<?xml version="1.0" encoding="utf-8"?>
<!-- Generator: Adobe Illustrator 21.0.0, SVG Export Plug-In . SVG Version: 6.00 Build 0)  -->
<svg version="1.1" id="Layer_1" xmlns="http://www.w3.org/2000/svg" xmlns:xlink="http://www.w3.org/1999/xlink" x="0px" y="0px"
	 viewBox="0 0 34.251 29.52" style="enable-background:new 0 0 34.251 29.52;" xml:space="preserve">
<style type="text/css">
	.st0{fill:none;stroke:#000000;stroke-miterlimit:10;}
	.st1{fill:none;stroke:#000000;stroke-width:0.5;stroke-miterlimit:10;}
</style>
<line class="st0" x1="0" y1="29.02" x2="34.251" y2="29.02"/>
<path class="st1" d="M17.234,0.407c4.769,0,8.635,3.866,8.635,8.635s-3.866,8.635-8.635,8.635s-8.635-3.866-8.635-8.635
	S12.465,0.407,17.234,0.407"/>
<line class="st1" x1="17.126" y1="17.677" x2="17.126" y2="29.02"/>
<g>
	<path d="M11.117,4.668h1.336c0.49,0,0.861,0.11,1.112,0.332s0.376,0.547,0.376,0.975c0,0.432-0.125,0.758-0.376,0.979
		s-0.622,0.331-1.112,0.331h-0.744v1.758h-0.592C11.117,9.043,11.117,4.668,11.117,4.668z M11.709,5.154v1.644h0.744
		c0.275,0,0.488-0.071,0.639-0.214s0.226-0.346,0.226-0.609c0-0.262-0.075-0.464-0.226-0.606s-0.363-0.214-0.639-0.214L11.709,5.154
		L11.709,5.154z"/>
	<path d="M14.735,4.668h0.592v4.374h-0.592V4.668z"/>
	<path d="M19.126,4.812v0.577c-0.225-0.107-0.437-0.188-0.636-0.24S18.098,5.07,17.913,5.07c-0.322,0-0.571,0.062-0.746,0.188
		S16.906,5.56,16.906,5.79c0,0.193,0.058,0.339,0.174,0.438s0.336,0.179,0.661,0.239l0.357,0.073
		c0.441,0.084,0.768,0.231,0.978,0.443s0.314,0.496,0.314,0.852c0,0.424-0.142,0.745-0.426,0.964s-0.701,0.328-1.25,0.328
		c-0.207,0-0.427-0.023-0.661-0.07s-0.475-0.116-0.725-0.208v-0.61c0.24,0.135,0.476,0.236,0.706,0.305s0.457,0.103,0.68,0.103
		c0.338,0,0.599-0.066,0.782-0.199s0.275-0.322,0.275-0.568c0-0.215-0.065-0.383-0.197-0.504c-0.132-0.121-0.349-0.212-0.649-0.272
		l-0.36-0.07c-0.441-0.088-0.761-0.226-0.958-0.413s-0.296-0.448-0.296-0.782c0-0.387,0.136-0.691,0.409-0.914
		s0.648-0.334,1.126-0.334c0.205,0,0.414,0.019,0.627,0.056S18.904,4.737,19.126,4.812z"/>
	<path d="M21.552,4.668h0.671l1.667,4.374h-0.615L22.876,7.92h-1.972l-0.398,1.122h-0.624L21.552,4.668z M21.886,5.251l-0.803,2.177
		h1.608L21.886,5.251z"/>
	<path d="M13.415,10.589c0.49,0,0.865,0.193,1.124,0.581s0.388,0.951,0.388,1.689c0,0.736-0.129,1.298-0.388,1.686
		s-0.633,0.582-1.124,0.582s-0.865-0.194-1.124-0.582s-0.388-0.949-0.388-1.686c0-0.738,0.129-1.302,0.388-1.689
		S12.925,10.589,13.415,10.589z M13.415,11.058c-0.305,0-0.534,0.149-0.687,0.449s-0.23,0.751-0.23,1.353
		c0,0.6,0.077,1.049,0.23,1.349s0.382,0.45,0.687,0.45c0.307,0,0.537-0.15,0.69-0.45s0.23-0.749,0.23-1.349
		c0-0.602-0.077-1.053-0.23-1.353S13.722,11.058,13.415,11.058z"/>
	<path d="M17.232,10.589c0.49,0,0.865,0.193,1.124,0.581s0.389,0.951,0.389,1.689c0,0.736-0.13,1.298-0.389,1.686
		s-0.633,0.582-1.124,0.582s-0.865-0.194-1.124-0.582c-0.259-0.388-0.388-0.949-0.388-1.686c0-0.738,0.129-1.302,0.388-1.689
		C16.368,10.782,16.742,10.589,17.232,10.589z M17.232,11.058c-0.305,0-0.534,0.149-0.687,0.449s-0.23,0.751-0.23,1.353
		c0,0.6,0.077,1.049,0.23,1.349s0.382,0.45,0.687,0.45c0.307,0,0.537-0.15,0.69-0.45s0.23-0.749,0.23-1.349
		c0-0.602-0.077-1.053-0.23-1.353S17.539,11.058,17.232,11.058z"/>
	<path d="M21.05,10.589c0.49,0,0.864,0.193,1.123,0.581s0.389,0.951,0.389,1.689c0,0.736-0.13,1.298-0.389,1.686
		s-0.633,0.582-1.123,0.582s-0.865-0.194-1.124-0.582s-0.388-0.949-0.388-1.686c0-0.738,0.129-1.302,0.388-1.689
		S20.56,10.589,21.05,10.589z M21.05,11.058c-0.305,0-0.534,0.149-0.688,0.449s-0.229,0.751-0.229,1.353
		c0,0.6,0.076,1.049,0.229,1.349s0.383,0.45,0.688,0.45c0.307,0,0.536-0.15,0.689-0.45s0.23-0.749,0.23-1.349
		c0-0.602-0.077-1.053-0.23-1.353S21.357,11.058,21.05,11.058z"/>
</g>
<g>
	<path d="M28.312,0.407h0.592V2.2h2.15V0.407h0.592v4.374h-0.592V2.698h-2.15v2.083h-0.592V0.407z"/>
</g>
<g>
	<path d="M28.289,13.303h0.592v3.876h2.129v0.498h-2.721V13.303z"/>
</g>
</svg>
