<?xml version="1.0" encoding="utf-8"?>
<!-- Generator: Adobe Illustrator 21.0.0, SVG Export Plug-In . SVG Version: 6.00 Build 0)  -->
<svg version="1.1" id="Layer_1" xmlns="http://www.w3.org/2000/svg" xmlns:xlink="http://www.w3.org/1999/xlink" x="0px" y="0px"
	 viewBox="0 0 38.2 36.2" style="enable-background:new 0 0 38.2 36.2;" xml:space="preserve">
<style type="text/css">
	.st0{fill:none;stroke:#FFFFFF;stroke-width:0.5;stroke-miterlimit:10;}
	.st1{fill:none;stroke:#FFFFFF;stroke-miterlimit:10;}
	.st2{fill:#FFFFFF;}
</style>
<line class="st0" x1="17.1" y1="23.8" x2="17.1" y2="35.7"/>
<path class="st0" d="M20.8,23.8h-7.5c-4.3,0-7.8-3.5-7.8-7.8l0,0c0-4.3,3.5-7.7,7.8-7.7h7.5c4.3,0,7.8,3.5,7.8,7.7l0,0
	C28.5,20.3,25,23.8,20.8,23.8z"/>
<line class="st1" x1="0" y1="35.7" x2="34.3" y2="35.7"/>
<g>
	<path class="st2" d="M9,11.7h1.3c0.5,0,0.9,0.1,1.1,0.3s0.4,0.5,0.4,1c0,0.4-0.1,0.8-0.4,1s-0.6,0.3-1.1,0.3H9.5v1.8H9V11.7z
		 M9.5,12.2v1.6h0.7c0.3,0,0.5-0.1,0.6-0.2s0.2-0.3,0.2-0.6c0-0.3-0.1-0.5-0.2-0.6s-0.4-0.2-0.6-0.2L9.5,12.2L9.5,12.2z"/>
	<path class="st2" d="M12.6,11.7h0.6v4.4h-0.6V11.7z"/>
	<path class="st2" d="M17,11.8v0.6c-0.2-0.1-0.4-0.2-0.6-0.2s-0.4-0.1-0.6-0.1c-0.3,0-0.6,0.1-0.7,0.2s-0.3,0.3-0.3,0.5
		c0,0.2,0.1,0.3,0.2,0.4s0.3,0.2,0.7,0.2l0.4,0.1c0.4,0.1,0.8,0.2,1,0.4s0.3,0.5,0.3,0.9c0,0.4-0.1,0.7-0.4,1
		c-0.3,0.2-0.7,0.3-1.2,0.3c-0.2,0-0.4,0-0.7-0.1s-0.5-0.1-0.7-0.2v-0.6c0.2,0.1,0.5,0.2,0.7,0.3s0.5,0.1,0.7,0.1
		c0.3,0,0.6-0.1,0.8-0.2s0.3-0.3,0.3-0.6c0-0.2-0.1-0.4-0.2-0.5s-0.3-0.2-0.6-0.3l-0.4-0.1c-0.4-0.1-0.8-0.2-1-0.4s-0.3-0.4-0.3-0.8
		c0-0.4,0.1-0.7,0.4-0.9s0.6-0.3,1.1-0.3c0.2,0,0.4,0,0.6,0.1S16.7,11.8,17,11.8z"/>
	<path class="st2" d="M19.4,11.7h0.7l1.7,4.4h-0.6l-0.4-1.1h-2l-0.4,1.1h-0.6L19.4,11.7z M19.7,12.3l-0.8,2.2h1.6L19.7,12.3z"/>
	<path class="st2" d="M22.1,11.7h3.4v0.5l-2.8,3.4h2.8v0.5H22v-0.5l2.8-3.4h-2.7L22.1,11.7L22.1,11.7z"/>
	<path class="st2" d="M13.3,17.6c0.5,0,0.9,0.2,1.1,0.6s0.4,1,0.4,1.7c0,0.7-0.1,1.3-0.4,1.7s-0.6,0.6-1.1,0.6s-0.9-0.2-1.1-0.6
		s-0.4-0.9-0.4-1.7c0-0.7,0.1-1.3,0.4-1.7S12.8,17.6,13.3,17.6z M13.3,18.1c-0.3,0-0.5,0.1-0.7,0.4s-0.2,0.8-0.2,1.4
		c0,0.6,0.1,1,0.2,1.3s0.4,0.5,0.7,0.5c0.3,0,0.5-0.1,0.7-0.5s0.2-0.7,0.2-1.3c0-0.6-0.1-1.1-0.2-1.4S13.6,18.1,13.3,18.1z"/>
	<path class="st2" d="M17.1,17.6c0.5,0,0.9,0.2,1.1,0.6s0.4,1,0.4,1.7c0,0.7-0.1,1.3-0.4,1.7s-0.6,0.6-1.1,0.6S16.3,22,16,21.6
		c-0.3-0.4-0.4-0.9-0.4-1.7c0-0.7,0.1-1.3,0.4-1.7C16.3,17.8,16.6,17.6,17.1,17.6z M17.1,18.1c-0.3,0-0.5,0.1-0.7,0.4
		s-0.2,0.8-0.2,1.4c0,0.6,0.1,1,0.2,1.3s0.4,0.5,0.7,0.5c0.3,0,0.5-0.1,0.7-0.5s0.2-0.7,0.2-1.3c0-0.6-0.1-1.1-0.2-1.4
		S17.4,18.1,17.1,18.1z"/>
	<path class="st2" d="M20.9,17.6c0.5,0,0.9,0.2,1.1,0.6s0.4,1,0.4,1.7c0,0.7-0.1,1.3-0.4,1.7s-0.6,0.6-1.1,0.6s-0.9-0.2-1.1-0.6
		s-0.4-0.9-0.4-1.7c0-0.7,0.1-1.3,0.4-1.7S20.5,17.6,20.9,17.6z M20.9,18.1c-0.3,0-0.5,0.1-0.7,0.4S20,19.3,20,19.9
		c0,0.6,0.1,1,0.2,1.3s0.4,0.5,0.7,0.5c0.3,0,0.5-0.1,0.7-0.5s0.2-0.7,0.2-1.3c0-0.6-0.1-1.1-0.2-1.4S21.2,18.1,20.9,18.1z"/>
</g>
<g>
	<path class="st2" d="M29.6,6.2h0.6V8h2.2V6.2H33v4.4h-0.6V8.5h-2.1v2.1h-0.6V6.2z"/>
</g>
<g>
	<path class="st2" d="M29.5,0.8h0.6v1.8h2.2V0.8h0.6v4.4h-0.6V3.1h-2.1v2.1h-0.6V0.8z"/>
	<path class="st2" d="M34,0.8h0.6v1.8h2.2V0.8h0.6v4.4h-0.6V3.1h-2.2v2.1H34V0.8z"/>
</g>
<g>
	<path class="st2" d="M29.6,19.7h0.6v3.9h2.1v0.5h-2.7C29.6,24.1,29.6,19.7,29.6,19.7z"/>
</g>
<g>
	<path class="st2" d="M29.6,25.4h0.6v3.9h2.1v0.5h-2.7V25.4z"/>
	<path class="st2" d="M32.9,25.4h0.6v3.9h2.1v0.5h-2.7V25.4z"/>
</g>
</svg>
