<?xml version="1.0" encoding="utf-8"?>
<!-- Generator: Adobe Illustrator 21.0.0, SVG Export Plug-In . SVG Version: 6.00 Build 0)  -->
<svg version="1.1" id="Layer_1" xmlns="http://www.w3.org/2000/svg" xmlns:xlink="http://www.w3.org/1999/xlink" x="0px" y="0px"
	 viewBox="0 0 31.289 34.716" style="enable-background:new 0 0 31.289 34.716;" xml:space="preserve">
<style type="text/css">
	.st0{fill:none;stroke:#000000;stroke-miterlimit:10;}
	.st1{fill:none;stroke:#000000;stroke-width:0.5;stroke-miterlimit:10;}
</style>
<g>
	<g>
		<polygon class="st0" points="7.063,23.877 15.699,28.863 7.063,33.85 		"/>
	</g>
</g>
<g>
	<polygon class="st0" points="24.334,33.85 15.699,28.863 24.334,23.877 	"/>
</g>
<path class="st1" d="M15.807,0.25c4.769,0,8.635,3.866,8.635,8.635s-3.866,8.635-8.635,8.635s-8.635-3.866-8.635-8.635
	S11.038,0.25,15.807,0.25"/>
<g>
	<g>
		<line class="st1" x1="15.699" y1="21.109" x2="15.699" y2="28.863"/>
		<g>
			<polygon points="13.205,21.838 15.699,17.52 18.192,21.838 			"/>
		</g>
	</g>
</g>
<g>
	<path d="M10.17,3.695h1.336c0.49,0,0.861,0.111,1.112,0.333c0.251,0.222,0.376,0.546,0.376,0.974c0,0.432-0.125,0.758-0.376,0.979
		s-0.622,0.331-1.112,0.331h-0.744v1.758H10.17V3.695z M10.762,4.181v1.644h0.744c0.275,0,0.488-0.071,0.639-0.214
		s0.226-0.346,0.226-0.609c0-0.262-0.075-0.464-0.226-0.606s-0.363-0.214-0.639-0.214H10.762z"/>
	<path d="M17.064,4.032v0.624c-0.199-0.186-0.412-0.324-0.638-0.416s-0.465-0.138-0.719-0.138c-0.5,0-0.883,0.153-1.148,0.458
		s-0.398,0.748-0.398,1.326c0,0.576,0.133,1.017,0.398,1.323s0.648,0.458,1.148,0.458c0.254,0,0.493-0.046,0.719-0.138
		s0.438-0.23,0.638-0.416v0.618c-0.207,0.141-0.427,0.246-0.658,0.316s-0.476,0.105-0.733,0.105c-0.662,0-1.184-0.203-1.564-0.608
		s-0.571-0.958-0.571-1.66c0-0.703,0.19-1.257,0.571-1.663s0.902-0.608,1.564-0.608c0.262,0,0.508,0.035,0.739,0.104
		S16.861,3.893,17.064,4.032z"/>
	<path d="M19.106,8.069l-1.67-4.374h0.618l1.386,3.683l1.389-3.683h0.615l-1.667,4.374H19.106z"/>
	<path d="M11.719,9.616c0.49,0,0.865,0.194,1.124,0.582s0.388,0.951,0.388,1.689c0,0.736-0.129,1.298-0.388,1.686
		s-0.633,0.582-1.124,0.582s-0.865-0.194-1.124-0.582s-0.388-0.95-0.388-1.686c0-0.738,0.129-1.301,0.388-1.689
		S11.228,9.616,11.719,9.616z M11.719,10.085c-0.305,0-0.534,0.15-0.687,0.45s-0.23,0.75-0.23,1.352c0,0.6,0.077,1.049,0.23,1.349
		s0.382,0.45,0.687,0.45c0.307,0,0.537-0.15,0.69-0.45s0.23-0.75,0.23-1.349c0-0.602-0.077-1.052-0.23-1.352
		S12.025,10.085,11.719,10.085z"/>
	<path d="M15.536,9.616c0.49,0,0.865,0.194,1.124,0.582s0.388,0.951,0.388,1.689c0,0.736-0.129,1.298-0.388,1.686
		s-0.634,0.582-1.124,0.582c-0.49,0-0.864-0.194-1.123-0.582s-0.388-0.95-0.388-1.686c0-0.738,0.129-1.301,0.388-1.689
		S15.046,9.616,15.536,9.616z M15.536,10.085c-0.305,0-0.533,0.15-0.687,0.45s-0.23,0.75-0.23,1.352c0,0.6,0.077,1.049,0.23,1.349
		s0.382,0.45,0.687,0.45c0.307,0,0.537-0.15,0.69-0.45s0.229-0.75,0.229-1.349c0-0.602-0.076-1.052-0.229-1.352
		S15.842,10.085,15.536,10.085z"/>
	<path d="M19.353,9.616c0.49,0,0.865,0.194,1.124,0.582s0.388,0.951,0.388,1.689c0,0.736-0.129,1.298-0.388,1.686
		s-0.634,0.582-1.124,0.582s-0.864-0.194-1.123-0.582s-0.389-0.95-0.389-1.686c0-0.738,0.13-1.301,0.389-1.689
		S18.863,9.616,19.353,9.616z M19.353,10.085c-0.305,0-0.533,0.15-0.687,0.45s-0.23,0.75-0.23,1.352c0,0.6,0.077,1.049,0.23,1.349
		s0.382,0.45,0.687,0.45c0.307,0,0.537-0.15,0.69-0.45s0.229-0.75,0.229-1.349c0-0.602-0.076-1.052-0.229-1.352
		S19.66,10.085,19.353,10.085z"/>
</g>
<line class="st0" x1="6.955" y1="28.863" x2="0" y2="28.863"/>
<line class="st0" x1="31.289" y1="28.863" x2="24.334" y2="28.863"/>
</svg>
