<?xml version="1.0" encoding="utf-8"?>
<!-- Generator: Adobe Illustrator 21.0.0, SVG Export Plug-In . SVG Version: 6.00 Build 0)  -->
<svg version="1.1" id="Layer_1" xmlns="http://www.w3.org/2000/svg" xmlns:xlink="http://www.w3.org/1999/xlink" x="0px" y="0px"
	 viewBox="0 0 35.487 39.483" style="enable-background:new 0 0 35.487 39.483;" xml:space="preserve">
<style type="text/css">
	.st0{fill:none;stroke:#000000;stroke-width:0.5;stroke-miterlimit:10;}
	.st1{fill:none;stroke:#000000;stroke-width:0.5;stroke-miterlimit:10;}
	.st2{fill:none;stroke:#000000;stroke-miterlimit:10;}
</style>
<path class="st0" d="M17.977,0.25c4.769,0,8.635,3.866,8.635,8.635s-3.866,8.635-8.635,8.635s-8.635-3.866-8.635-8.635
	S13.208,0.25,17.977,0.25"/>
<g>
	<g>
		<line class="st1" x1="17.868" y1="17.52" x2="17.868" y2="25.275"/>
		<g>
			<polygon points="15.375,24.546 17.868,28.863 20.362,24.546 			"/>
		</g>
	</g>
</g>
<g>
	<g>
		<polygon class="st2" points="9.233,23.89 17.868,28.876 9.233,33.863 		"/>
	</g>
</g>
<g>
	<g>
		<polygon class="st2" points="26.504,33.863 17.868,28.876 26.504,23.89 		"/>
	</g>
</g>
<g>
	<g>
		<line class="st2" x1="0.25" y1="39.05" x2="30.116" y2="21.804"/>
		<g>
			<polygon points="29.932,24.259 35.487,18.703 27.898,20.736 			"/>
		</g>
	</g>
</g>
<g>
	<path d="M12.34,3.695h1.336c0.49,0,0.86,0.11,1.111,0.332c0.251,0.222,0.377,0.547,0.377,0.975c0,0.432-0.126,0.758-0.377,0.979
		s-0.621,0.331-1.111,0.331h-0.744v1.758H12.34V3.695z M12.932,4.181v1.644h0.744c0.275,0,0.488-0.071,0.639-0.214
		s0.226-0.346,0.226-0.609c0-0.262-0.075-0.464-0.226-0.606s-0.363-0.214-0.639-0.214H12.932z"/>
	<path d="M19.234,4.032v0.624c-0.199-0.186-0.412-0.324-0.638-0.416s-0.465-0.138-0.719-0.138c-0.5,0-0.883,0.152-1.148,0.458
		s-0.398,0.748-0.398,1.326c0,0.576,0.133,1.017,0.398,1.322s0.648,0.459,1.148,0.459c0.254,0,0.493-0.046,0.719-0.138
		s0.438-0.23,0.638-0.416v0.618c-0.207,0.141-0.427,0.246-0.658,0.316S18.1,8.154,17.842,8.154c-0.662,0-1.184-0.203-1.564-0.608
		c-0.381-0.405-0.571-0.958-0.571-1.659c0-0.703,0.19-1.258,0.571-1.663c0.381-0.405,0.902-0.607,1.564-0.607
		c0.262,0,0.508,0.034,0.739,0.104S19.031,3.893,19.234,4.032z"/>
	<path d="M21.276,8.069l-1.67-4.374h0.618l1.386,3.683l1.389-3.683h0.615l-1.667,4.374H21.276z"/>
	<path d="M13.888,9.616c0.49,0,0.865,0.193,1.124,0.581s0.388,0.951,0.388,1.689c0,0.736-0.129,1.298-0.388,1.686
		s-0.634,0.582-1.124,0.582s-0.864-0.194-1.123-0.582s-0.389-0.949-0.389-1.686c0-0.738,0.13-1.302,0.389-1.689
		S13.398,9.616,13.888,9.616z M13.888,10.085c-0.305,0-0.533,0.149-0.687,0.449s-0.23,0.751-0.23,1.353
		c0,0.6,0.077,1.049,0.23,1.349s0.382,0.45,0.687,0.45c0.307,0,0.537-0.15,0.69-0.45s0.229-0.749,0.229-1.349
		c0-0.602-0.076-1.053-0.229-1.353S14.195,10.085,13.888,10.085z"/>
	<path d="M17.706,9.616c0.49,0,0.865,0.193,1.124,0.581s0.388,0.951,0.388,1.689c0,0.736-0.129,1.298-0.388,1.686
		s-0.634,0.582-1.124,0.582s-0.864-0.194-1.123-0.582s-0.389-0.949-0.389-1.686c0-0.738,0.13-1.302,0.389-1.689
		S17.215,9.616,17.706,9.616z M17.706,10.085c-0.305,0-0.533,0.149-0.687,0.449s-0.23,0.751-0.23,1.353
		c0,0.6,0.077,1.049,0.23,1.349s0.382,0.45,0.687,0.45c0.307,0,0.537-0.15,0.69-0.45s0.229-0.749,0.229-1.349
		c0-0.602-0.076-1.053-0.229-1.353S18.012,10.085,17.706,10.085z"/>
	<path d="M21.523,9.616c0.49,0,0.865,0.193,1.124,0.581s0.388,0.951,0.388,1.689c0,0.736-0.129,1.298-0.388,1.686
		s-0.634,0.582-1.124,0.582s-0.864-0.194-1.123-0.582s-0.389-0.949-0.389-1.686c0-0.738,0.13-1.302,0.389-1.689
		S21.033,9.616,21.523,9.616z M21.523,10.085c-0.305,0-0.533,0.149-0.687,0.449s-0.23,0.751-0.23,1.353
		c0,0.6,0.077,1.049,0.23,1.349s0.382,0.45,0.687,0.45c0.307,0,0.537-0.15,0.69-0.45s0.229-0.749,0.229-1.349
		c0-0.602-0.076-1.053-0.229-1.353S21.83,10.085,21.523,10.085z"/>
</g>
<line class="st2" x1="9.233" y1="28.472" x2="2.278" y2="28.472"/>
<line class="st2" x1="33.567" y1="28.472" x2="26.612" y2="28.472"/>
</svg>
