<?xml version="1.0" encoding="utf-8"?>
<!-- Generator: Adobe Illustrator 21.0.0, SVG Export Plug-In . SVG Version: 6.00 Build 0)  -->
<svg version="1.1" id="Layer_1" xmlns="http://www.w3.org/2000/svg" xmlns:xlink="http://www.w3.org/1999/xlink" x="0px" y="0px"
	 viewBox="0 0 38.161 36.156" style="enable-background:new 0 0 38.161 36.156;" xml:space="preserve">
<style type="text/css">
	.st0{fill:none;stroke:#000000;stroke-width:0.5;stroke-miterlimit:10;}
	.st1{fill:none;stroke:#000000;stroke-miterlimit:10;}
</style>
<line class="st0" x1="17.126" y1="23.812" x2="17.126" y2="35.656"/>
<path class="st0" d="M20.767,23.812h-7.5c-4.262,0-7.75-3.487-7.75-7.75v0c0-4.262,3.487-7.75,7.75-7.75h7.5
	c4.262,0,7.75,3.487,7.75,7.75v0C28.517,20.325,25.03,23.812,20.767,23.812z"/>
<line class="st1" x1="0" y1="35.656" x2="34.251" y2="35.656"/>
<g>
	<path d="M8.953,11.688h1.336c0.49,0,0.861,0.11,1.112,0.332s0.376,0.547,0.376,0.975c0,0.432-0.125,0.758-0.376,0.979
		s-0.622,0.331-1.112,0.331H9.545v1.758H8.953V11.688z M9.545,12.175v1.644h0.744c0.275,0,0.488-0.071,0.639-0.214
		s0.226-0.346,0.226-0.609c0-0.262-0.075-0.464-0.226-0.606s-0.363-0.214-0.639-0.214H9.545z"/>
	<path d="M12.571,11.688h0.592v4.374h-0.592V11.688z"/>
	<path d="M16.963,11.832v0.577c-0.225-0.107-0.437-0.188-0.636-0.24s-0.392-0.079-0.577-0.079c-0.322,0-0.571,0.062-0.746,0.188
		s-0.262,0.303-0.262,0.533c0,0.193,0.058,0.339,0.174,0.438s0.336,0.179,0.661,0.239l0.357,0.073
		c0.441,0.084,0.767,0.231,0.977,0.443s0.315,0.496,0.315,0.852c0,0.424-0.142,0.745-0.426,0.964s-0.701,0.328-1.25,0.328
		c-0.207,0-0.427-0.023-0.661-0.07s-0.475-0.116-0.725-0.208V15.26c0.24,0.135,0.476,0.236,0.706,0.305s0.457,0.103,0.68,0.103
		c0.338,0,0.599-0.066,0.782-0.199s0.275-0.322,0.275-0.568c0-0.215-0.066-0.383-0.198-0.504s-0.348-0.212-0.649-0.272l-0.36-0.07
		c-0.441-0.088-0.761-0.226-0.958-0.413s-0.296-0.448-0.296-0.782c0-0.387,0.136-0.691,0.409-0.914s0.648-0.334,1.126-0.334
		c0.205,0,0.414,0.019,0.627,0.056S16.74,11.758,16.963,11.832z"/>
	<path d="M19.389,11.688h0.671l1.667,4.374h-0.615l-0.398-1.122h-1.972l-0.398,1.122h-0.624L19.389,11.688z M19.723,12.271
		l-0.803,2.177h1.608L19.723,12.271z"/>
	<path d="M22.113,11.688h3.437v0.451l-2.766,3.425h2.833v0.498h-3.571v-0.451l2.766-3.425h-2.698V11.688z"/>
	<path d="M13.307,17.609c0.49,0,0.865,0.193,1.124,0.581s0.388,0.951,0.388,1.689c0,0.736-0.129,1.298-0.388,1.686
		s-0.633,0.582-1.124,0.582s-0.865-0.194-1.124-0.582s-0.388-0.949-0.388-1.686c0-0.738,0.129-1.302,0.388-1.689
		S12.816,17.609,13.307,17.609z M13.307,18.078c-0.305,0-0.534,0.149-0.687,0.449s-0.23,0.751-0.23,1.353
		c0,0.6,0.077,1.049,0.23,1.349s0.382,0.45,0.687,0.45c0.307,0,0.537-0.15,0.69-0.45s0.23-0.749,0.23-1.349
		c0-0.602-0.077-1.053-0.23-1.353S13.613,18.078,13.307,18.078z"/>
	<path d="M17.124,17.609c0.49,0,0.865,0.193,1.124,0.581s0.388,0.951,0.388,1.689c0,0.736-0.129,1.298-0.388,1.686
		s-0.633,0.582-1.124,0.582S16.259,21.953,16,21.565c-0.259-0.388-0.388-0.949-0.388-1.686c0-0.738,0.129-1.302,0.388-1.689
		C16.259,17.803,16.634,17.609,17.124,17.609z M17.124,18.078c-0.305,0-0.534,0.149-0.687,0.449s-0.23,0.751-0.23,1.353
		c0,0.6,0.077,1.049,0.23,1.349s0.382,0.45,0.687,0.45c0.307,0,0.537-0.15,0.69-0.45s0.23-0.749,0.23-1.349
		c0-0.602-0.077-1.053-0.23-1.353S17.431,18.078,17.124,18.078z"/>
	<path d="M20.941,17.609c0.49,0,0.865,0.193,1.124,0.581s0.388,0.951,0.388,1.689c0,0.736-0.129,1.298-0.388,1.686
		s-0.634,0.582-1.124,0.582c-0.49,0-0.864-0.194-1.123-0.582s-0.388-0.949-0.388-1.686c0-0.738,0.129-1.302,0.388-1.689
		S20.451,17.609,20.941,17.609z M20.941,18.078c-0.304,0-0.533,0.149-0.687,0.449s-0.23,0.751-0.23,1.353
		c0,0.6,0.077,1.049,0.23,1.349s0.382,0.45,0.687,0.45c0.307,0,0.537-0.15,0.69-0.45s0.229-0.749,0.229-1.349
		c0-0.602-0.076-1.053-0.229-1.353S21.248,18.078,20.941,18.078z"/>
</g>
<g>
	<path d="M29.619,6.247h0.592V8.04h2.15V6.247h0.592v4.374h-0.592V8.538h-2.15v2.083h-0.592V6.247z"/>
</g>
<g>
	<path d="M29.53,0.777h0.592V2.57h2.15V0.777h0.592v4.374h-0.592V3.068h-2.15v2.083H29.53V0.777z"/>
	<path d="M34.042,0.777h0.592V2.57h2.15V0.777h0.592v4.374h-0.592V3.068h-2.15v2.083h-0.592V0.777z"/>
</g>
<g>
	<path d="M29.595,19.726h0.592v3.876h2.13V24.1h-2.722V19.726z"/>
</g>
<g>
	<path d="M29.592,25.36h0.592v3.876h2.13v0.498h-2.722V25.36z"/>
	<path d="M32.935,25.36h0.592v3.876h2.13v0.498h-2.722V25.36z"/>
</g>
</svg>
