<?xml version="1.0" encoding="utf-8"?>
<!-- Generator: Adobe Illustrator 21.0.0, SVG Export Plug-In . SVG Version: 6.00 Build 0)  -->
<svg version="1.1" id="Layer_1" xmlns="http://www.w3.org/2000/svg" xmlns:xlink="http://www.w3.org/1999/xlink" x="0px" y="0px"
	 viewBox="0 0 84.7 30.6" style="enable-background:new 0 0 84.7 30.6;" xml:space="preserve">
<style type="text/css">
	.st0{fill:none;stroke:#FFFFFF;stroke-miterlimit:10;}
	.st1{fill:#FFFFFF;}
</style>
<g>
	<g>
		<line class="st0" x1="12.5" y1="15.3" x2="0" y2="15.3"/>
		<g>
			<polygon class="st1" points="10.9,13 19.6,15.3 10.9,17.6 			"/>
		</g>
	</g>
</g>
<g id="XMLID_1_">
	<g>
		<path class="st1" d="M56.6,0.5c8.2,0,14.8,6.6,14.8,14.8L56.6,0.5z"/>
		<path class="st1" d="M56.6,30.1l14.8-14.8C71.4,23.5,64.8,30.1,56.6,30.1z"/>
	</g>
	<g>
		<line class="st0" x1="41.8" y1="15.3" x2="28.9" y2="15.3"/>
		<line class="st0" x1="84.4" y1="15.3" x2="71.4" y2="15.3"/>
		<path class="st0" d="M71.4,15.3c0,8.2-6.6,14.8-14.8,14.8s-14.8-6.6-14.8-14.8c0-8.2,6.6-14.8,14.8-14.8S71.4,7.1,71.4,15.3z"/>
		<polyline class="st0" points="56.6,0.5 71.4,15.3 56.6,30.1 		"/>
	</g>
</g>
</svg>
