<?xml version="1.0" encoding="utf-8"?>
<!-- Generator: Adobe Illustrator 21.0.0, SVG Export Plug-In . SVG Version: 6.00 Build 0)  -->
<svg version="1.1" id="Layer_1" xmlns="http://www.w3.org/2000/svg" xmlns:xlink="http://www.w3.org/1999/xlink" x="0px" y="0px"
	 viewBox="0 0 84.661 30.63" style="enable-background:new 0 0 84.661 30.63;" xml:space="preserve">
<style type="text/css">
	.st0{fill:none;stroke:#000000;stroke-miterlimit:10;}
</style>
<g>
	<g>
		<line class="st0" x1="12.506" y1="15.316" x2="0" y2="15.316"/>
		<g>
			<polygon points="10.921,12.992 19.594,15.316 10.921,17.64 			"/>
		</g>
	</g>
</g>
<g id="XMLID_1_">
	<g>
		<path d="M56.635,0.5c8.18,0,14.81,6.63,14.81,14.82L56.635,0.5z"/>
		<path d="M56.635,30.13l14.81-14.81C71.445,23.5,64.815,30.13,56.635,30.13z"/>
	</g>
	<g>
		<line class="st0" x1="41.825" y1="15.32" x2="28.865" y2="15.32"/>
		<line class="st0" x1="84.415" y1="15.32" x2="71.445" y2="15.32"/>
		<path class="st0" d="M71.445,15.32c0,8.18-6.63,14.81-14.81,14.81s-14.81-6.63-14.81-14.81c0-8.19,6.63-14.82,14.81-14.82
			S71.445,7.13,71.445,15.32z"/>
		<polyline class="st0" points="56.635,0.5 71.445,15.32 56.635,30.13 		"/>
	</g>
</g>
</svg>
