<?xml version="1.0" encoding="utf-8"?>
<!-- Generator: Adobe Illustrator 21.0.0, SVG Export Plug-In . SVG Version: 6.00 Build 0)  -->
<svg version="1.1" id="Layer_1" xmlns="http://www.w3.org/2000/svg" xmlns:xlink="http://www.w3.org/1999/xlink" x="0px" y="0px"
	 viewBox="0 0 31.588 45.26" style="enable-background:new 0 0 31.588 45.26;" xml:space="preserve">
<style type="text/css">
	.st0{fill:none;stroke:#000000;stroke-miterlimit:10;}
	.st1{fill:none;stroke:#000000;stroke-width:0.5;stroke-miterlimit:10;}
</style>
<line class="st0" x1="22.301" y1="20.697" x2="22.301" y2="30.636"/>
<line class="st1" x1="24.63" y1="25.667" x2="28.902" y2="25.667"/>
<g>
	<g>
		<path d="M23.63,22.413v6.508l-5.635-3.254L23.63,22.413 M24.63,20.68l-8.635,4.986l8.635,4.986V20.68L24.63,20.68z"/>
	</g>
</g>
<line class="st1" x1="15.995" y1="34.302" x2="15.995" y2="45.26"/>
<g>
	<g>
		<path d="M15.995,27.666l3.254,5.635h-6.508L15.995,27.666 M15.995,25.667l-4.986,8.635h9.973L15.995,25.667L15.995,25.667z"/>
	</g>
</g>
<polyline class="st0" points="15.995,0 15.995,4.551 10.61,7.13 21.38,10.961 10.612,14.793 21.377,18.632 15.995,21.215 
	15.995,27.073 "/>
<path class="st0" d="M15.995,28"/>
<line class="st0" x1="0" y1="37.906" x2="31.588" y2="37.906"/>
</svg>
