<?xml version="1.0" encoding="utf-8"?>
<!-- Generator: Adobe Illustrator 21.0.0, SVG Export Plug-In . SVG Version: 6.00 Build 0)  -->
<svg version="1.1" id="Layer_1" xmlns="http://www.w3.org/2000/svg" xmlns:xlink="http://www.w3.org/1999/xlink" x="0px" y="0px"
	 viewBox="0 0 31.6 45.3" style="enable-background:new 0 0 31.6 45.3;" xml:space="preserve">
<style type="text/css">
	.st0{fill:none;stroke:#FFFFFF;stroke-miterlimit:10;}
	.st1{fill:none;stroke:#FFFFFF;stroke-width:0.5;stroke-miterlimit:10;}
	.st2{fill:#FFFFFF;}
</style>
<line class="st0" x1="22.3" y1="20.7" x2="22.3" y2="30.6"/>
<line class="st1" x1="24.6" y1="25.7" x2="28.9" y2="25.7"/>
<g>
	<g>
		<path class="st2" d="M23.6,22.4v6.5L18,25.7L23.6,22.4 M24.6,20.7l-8.6,5l8.6,5V20.7L24.6,20.7z"/>
	</g>
</g>
<line class="st1" x1="16" y1="34.3" x2="16" y2="45.3"/>
<g>
	<g>
		<path class="st2" d="M16,27.7l3.3,5.6h-6.5L16,27.7 M16,25.7l-5,8.6h10L16,25.7L16,25.7z"/>
	</g>
</g>
<polyline class="st0" points="16,0 16,4.6 10.6,7.1 21.4,11 10.6,14.8 21.4,18.6 16,21.2 16,27.1 "/>
<path class="st0" d="M16,28"/>
<line class="st0" x1="0" y1="37.9" x2="31.6" y2="37.9"/>
</svg>
