<?xml version="1.0" encoding="utf-8"?>
<!-- Generator: Adobe Illustrator 21.1.0, SVG Export Plug-In . SVG Version: 6.00 Build 0)  -->
<svg version="1.1" id="Layer_1" xmlns="http://www.w3.org/2000/svg" xmlns:xlink="http://www.w3.org/1999/xlink" x="0px" y="0px"
	 viewBox="0 0 16 16" style="enable-background:new 0 0 16 16;" xml:space="preserve">
<style type="text/css">
	.st0{fill:url(#SVGID_1_);stroke:#000000;stroke-linecap:round;stroke-linejoin:round;stroke-miterlimit:10;}
</style>
<linearGradient id="SVGID_1_" gradientUnits="userSpaceOnUse" x1="8" y1="3.5625" x2="8" y2="16.0400581">
	<stop  offset="0" style="stop-color:#FFFFFF"/>
	<stop  offset="0.3131055" style="stop-color:#F8F8F8"/>
	<stop  offset="0.3737793" style="stop-color:#F1F1F1"/>
	<stop  offset="0.465113" style="stop-color:#DCDCDC"/>
	<stop  offset="0.5758085" style="stop-color:#BABABA"/>
	<stop  offset="0.7016521" style="stop-color:#8B8B8B"/>
	<stop  offset="0.8402768" style="stop-color:#4F4F4F"/>
	<stop  offset="0.9875376" style="stop-color:#060606"/>
	<stop  offset="1" style="stop-color:#000000"/>
</linearGradient>
<path class="st0" d="M13.8965893,12.4160233H2.1034102C1.2178713,12.4160233,0.5,11.6981516,0.5,10.8126125V5.1873875
	c0-0.8855391,0.7178713-1.6034102,1.6034102-1.6034102h11.7931786C14.7821283,3.5839772,15.5,4.3018484,15.5,5.1873875v5.6252251
	C15.5,11.6981516,14.7821283,12.4160233,13.8965893,12.4160233z"/>
<g>
	<path d="M3.723877,5.7749023h1.2363281c0.8613281,0,1.4926758,0.1791992,1.8950195,0.5375977
		c0.4042969,0.3579102,0.6054688,0.9179688,0.6054688,1.6801758c0,0.7661133-0.203125,1.328125-0.6074219,1.6875
		s-1.0356445,0.5390625-1.8930664,0.5390625H3.723877V5.7749023z M4.3254395,6.269043v3.4560547H5.052002
		c0.6132812,0,1.0625-0.1386719,1.3461914-0.4169922c0.2851562-0.2773438,0.4277344-0.7163086,0.4277344-1.3154297
		c0-0.5952148-0.1425781-1.03125-0.4277344-1.3081055C6.114502,6.4077148,5.6652832,6.269043,5.052002,6.269043H4.3254395z"/>
	<path d="M10.2224121,5.6948242c0.6230469,0,1.1210938,0.2084961,1.4941406,0.6264648
		c0.3730469,0.4174805,0.5595703,0.9775391,0.5595703,1.6801758c0,0.7006836-0.1865234,1.2597656-0.5595703,1.6777344
		c-0.3730469,0.4169922-0.8710938,0.6259766-1.4941406,0.6259766c-0.625,0-1.125-0.2080078-1.4990234-0.625
		S8.1628418,8.7041016,8.1628418,8.0014648s0.1865234-1.2626953,0.5605469-1.6801758
		C9.0974121,5.9033203,9.5974121,5.6948242,10.2224121,5.6948242z M10.2224121,6.1826172
		c-0.4365234,0-0.7832031,0.1630859-1.0400391,0.4882812C8.9245605,6.996582,8.7966309,7.4399414,8.7966309,8.0014648
		c0,0.5595703,0.1279297,1.0024414,0.3857422,1.3271484c0.2568359,0.3261719,0.6035156,0.4882812,1.0400391,0.4882812
		s0.7822266-0.1621094,1.0371094-0.4882812c0.2548828-0.324707,0.3828125-0.7675781,0.3828125-1.3271484
		c0-0.5615234-0.1279297-1.0048828-0.3828125-1.3305664C11.0046387,6.3457031,10.6589355,6.1826172,10.2224121,6.1826172z"/>
</g>
</svg>
