<?xml version="1.0" encoding="utf-8"?>
<!-- Generator: Adobe Illustrator 21.0.0, SVG Export Plug-In . SVG Version: 6.00 Build 0)  -->
<svg version="1.1" id="Layer_1" xmlns="http://www.w3.org/2000/svg" xmlns:xlink="http://www.w3.org/1999/xlink" x="0px" y="0px"
	 viewBox="0 0 16 16" style="enable-background:new 0 0 16 16;" xml:space="preserve">
<style type="text/css">
	.st0{fill:#FFFFFF;}
</style>
<path d="M13.8,15.5H2.2c-1,0-1.7-0.8-1.7-1.7V2.2c0-1,0.8-1.7,1.7-1.7h11.5c1,0,1.7,0.8,1.7,1.7v11.5C15.5,14.7,14.7,15.5,13.8,15.5
	z"/>
<g>
	<path class="st0" d="M2.6,11.4v-3l0.2-0.2l0.7,0.7V11L2.6,11.4z M7.1,12.2H3.2c-0.3-0.1-0.5-0.3-0.6-0.6l0.9-0.3h3.1L7.1,12.2z
		 M6.4,4.7H3.6L2.7,4.4c0.1-0.3,0.3-0.5,0.6-0.6h3.5L6.4,4.7z M6.6,7.5L7.1,8L6.6,8.5h-3L3.1,8l0.5-0.5H6.6z M6.6,7.2V4.7L7,3.8
		c0.3,0.1,0.5,0.3,0.6,0.6v3.3L7.3,7.9L6.6,7.2z"/>
	<path class="st0" d="M9.4,4.6v2.6L8.7,7.9L8.5,7.7V4.3L9.4,4.6z M12.4,7.5L12.9,8l-0.5,0.5h-3L8.9,8l0.5-0.5H12.4z M12.4,7.2V4.7
		l0.3-0.9c0.3,0.1,0.5,0.3,0.6,0.6v3.3l-0.2,0.2L12.4,7.2z M13.1,8.1l0.2,0.2v3.3c-0.1,0.3-0.3,0.5-0.6,0.6l-0.3-0.9V8.8L13.1,8.1z"
		/>
</g>
</svg>
