<?xml version="1.0" encoding="utf-8"?>
<!-- Generator: Adobe Illustrator 21.0.0, SVG Export Plug-In . SVG Version: 6.00 Build 0)  -->
<svg version="1.1" id="Layer_1" xmlns="http://www.w3.org/2000/svg" xmlns:xlink="http://www.w3.org/1999/xlink" x="0px" y="0px"
	 viewBox="0 0 16 16" style="enable-background:new 0 0 16 16;" xml:space="preserve">
<path id="world" d="M8,1C4.1,1,1,4.1,1,8s3.1,7,7,7s7-3.1,7-7S11.9,1,8,1z M14.1,7.8h-2.7c0-1-0.2-2-0.5-2.8c0.6-0.3,1.2-0.6,1.7-1
	C13.5,5,14,6.3,14.1,7.8z M7.8,14.1c-0.8-0.6-1.4-1.4-1.8-2.4c0.6-0.2,1.2-0.3,1.9-0.3L7.8,14.1C7.8,14.1,7.8,14.1,7.8,14.1z
	 M8.2,1.9c0.9,0.7,1.5,1.7,2,2.8C9.6,4.9,8.9,5,8.2,5.1L8.2,1.9C8.2,1.9,8.2,1.9,8.2,1.9z M9,2c1.2,0.2,2.4,0.8,3.2,1.6
	c-0.5,0.4-1,0.7-1.5,0.9C10.3,3.6,9.7,2.7,9,2z M7.8,1.9v3.1c-0.7,0-1.4-0.2-2-0.4C6.2,3.6,6.9,2.6,7.8,1.9C7.8,1.9,7.8,1.9,7.8,1.9
	z M5.3,4.5C4.8,4.3,4.2,4,3.8,3.6C4.6,2.8,5.8,2.2,7,2C6.3,2.7,5.7,3.6,5.3,4.5z M5.6,5.1C6.3,5.3,7,5.5,7.8,5.5v2.3H5.1
	C5.1,6.8,5.3,5.9,5.6,5.1z M7.8,8.2v2.7c-0.7,0-1.4,0.1-2,0.3c-0.4-0.9-0.6-2-0.7-3.1H7.8z M7,14c-1.1-0.2-2.1-0.7-3-1.4
	c0.4-0.3,0.9-0.6,1.4-0.8C5.9,12.7,6.4,13.4,7,14z M8.2,14.1v-2.7c0.6,0,1.3,0.1,1.9,0.3C9.6,12.6,9,13.5,8.2,14.1
	C8.2,14.1,8.2,14.1,8.2,14.1z M10.5,11.9c0.5,0.2,1,0.5,1.4,0.8c-0.8,0.7-1.8,1.2-3,1.4C9.6,13.4,10.1,12.7,10.5,11.9z M10.3,11.3
	c-0.6-0.2-1.3-0.3-2-0.3V8.2h2.7C10.9,9.3,10.7,10.4,10.3,11.3z M8.2,7.8V5.5c0.8,0,1.5-0.2,2.2-0.4c0.3,0.8,0.5,1.7,0.5,2.7
	L8.2,7.8L8.2,7.8z M3.5,4c0.5,0.4,1.1,0.7,1.7,1C4.8,5.8,4.6,6.8,4.6,7.8H1.9C2,6.3,2.5,5,3.5,4z M1.9,8.2h2.7
	c0,1.2,0.3,2.2,0.7,3.2c-0.6,0.2-1.1,0.5-1.6,0.9C2.6,11.3,2,9.8,1.9,8.2z M12.3,12.3c-0.5-0.4-1-0.6-1.6-0.9c0.4-1,0.7-2.1,0.7-3.2
	h2.7C14,9.8,13.4,11.3,12.3,12.3z"/>
</svg>
