<?xml version="1.0" encoding="utf-8"?>
<!-- Generator: Adobe Illustrator 21.0.0, SVG Export Plug-In . SVG Version: 6.00 Build 0)  -->
<svg version="1.1" id="Layer_1" xmlns="http://www.w3.org/2000/svg" xmlns:xlink="http://www.w3.org/1999/xlink" x="0px" y="0px"
	 viewBox="0 0 100 100" style="enable-background:new 0 0 100 100;" xml:space="preserve">
<style type="text/css">
	.st0{fill:#FC0D1B;}
	.st1{fill:#FFFFFF;}
	.st2{fill:#231F20;}
</style>
<circle class="st0" cx="50" cy="50" r="49.1"/>
<g>
	<path class="st1" d="M50,59.8c-5.4,0-9.8-4.4-9.8-9.8s4.4-9.8,9.8-9.8s9.8,4.4,9.8,9.8S55.4,59.8,50,59.8z M50,41.9
		c-4.5,0-8.1,3.6-8.1,8.1s3.6,8.1,8.1,8.1s8.1-3.6,8.1-8.1S54.5,41.9,50,41.9z"/>
</g>
<g>
	<path class="st1" d="M50,69.9C39,69.9,30.1,61,30.1,50S39,30.1,50,30.1S69.9,39,69.9,50S61,69.9,50,69.9z M50,31.8
		C40,31.8,31.8,40,31.8,50S40,68.2,50,68.2S68.2,60,68.2,50S60,31.8,50,31.8z"/>
</g>
<g>
	<rect x="-18.5" y="40.6" transform="matrix(0.2432 -0.97 0.97 0.2432 -27.962 47.0269)" class="st1" width="69.3" height="1.7"/>
</g>
<g>
	<rect x="83" y="6.9" transform="matrix(0.9699 -0.2437 0.2437 0.9699 -7.5938 21.6891)" class="st1" width="1.7" height="69.3"/>
</g>
<path class="st2" d="M50,100C22.4,100,0,77.6,0,50S22.4,0,50,0s50,22.4,50,50S77.6,100,50,100z M50,1.7C23.4,1.7,1.7,23.4,1.7,50
	S23.4,98.3,50,98.3S98.3,76.6,98.3,50S76.6,1.7,50,1.7z"/>
</svg>
