<?xml version="1.0" encoding="utf-8"?>
<!-- Generator: Adobe Illustrator 21.0.0, SVG Export Plug-In . SVG Version: 6.00 Build 0)  -->
<svg version="1.1" id="Layer_1" xmlns="http://www.w3.org/2000/svg" xmlns:xlink="http://www.w3.org/1999/xlink" x="0px" y="0px"
	 viewBox="0 0 100 100" style="enable-background:new 0 0 100 100;" xml:space="preserve">
<style type="text/css">
	.st0{clip-path:url(#SVGID_2_);}
	.st1{fill:#4FE4FA;}
	.st2{fill:none;}
	.st3{fill:#2F8794;}
</style>
<g>
	<g>
		<defs>
			<circle id="SVGID_1_" cx="50" cy="50" r="50"/>
		</defs>
		<clipPath id="SVGID_2_">
			<use xlink:href="#SVGID_1_"  style="overflow:visible;"/>
		</clipPath>
		<g class="st0">
			<circle class="st1" cx="50" cy="50" r="49.1"/>
			<line class="st2" x1="50" y1="1.7" x2="43.5" y2="10.9"/>
			<line class="st2" x1="50" y1="1.7" x2="56.5" y2="10.9"/>
			<g>
				<line class="st2" x1="15.7" y1="83.6" x2="24.5" y2="82.1"/>
				<line class="st2" x1="15.7" y1="83.6" x2="17.3" y2="74.8"/>
			</g>
			<g>
				<line class="st2" x1="84.3" y1="83.6" x2="75.5" y2="82.1"/>
				<g>
					<line class="st2" x1="84.3" y1="83.6" x2="82.7" y2="74.8"/>
					<g>
						<rect x="-18.981" y="40.092" transform="matrix(0.2439 -0.9698 0.9698 0.2439 -27.9648 47.0146)" width="70.3" height="2.7"/>
						<rect x="82.507" y="6.406" transform="matrix(0.9699 -0.2436 0.2436 0.9699 -7.5974 21.679)" width="2.7" height="70.306"/>
					</g>
				</g>
			</g>
			<path class="st3" d="M50,100C22.4,100,0,77.6,0,50S22.4,0,50,0s50,22.4,50,50S77.6,100,50,100z M50,1.7C23.4,1.7,1.7,23.4,1.7,50
				S23.4,98.3,50,98.3S98.3,76.6,98.3,50S76.6,1.7,50,1.7z"/>
		</g>
	</g>
</g>
</svg>
