<?xml version="1.0" encoding="utf-8"?>
<!-- Generator: Adobe Illustrator 21.0.0, SVG Export Plug-In . SVG Version: 6.00 Build 0)  -->
<svg version="1.1" xmlns="http://www.w3.org/2000/svg" xmlns:xlink="http://www.w3.org/1999/xlink" x="0px" y="0px"
	 viewBox="0 0 100 100" style="enable-background:new 0 0 100 100;" xml:space="preserve">
<style type="text/css">
	.st0{fill:none;}
	.st1{fill:#231F20;}
	.st2{fill:#FFFFFF;}
	.st3{fill:#24E629;}
	.st4{enable-background:new    ;}
</style>
<g id="Layer_1">
	<g id="Layer_1_1_">
		<circle class="st0" cx="50" cy="50" r="49.1"/>
		<g>
			<g>
				<g>
					<rect x="-0.2" y="48.9" class="st1" width="19.6" height="1.7"/>
				</g>
			</g>
			<g>
				<g>
					<rect x="80.2" y="48.9" class="st1" width="19.6" height="1.7"/>
				</g>
			</g>
			<g>
				<g>
					<line class="st0" x1="49.8" y1="67.6" x2="49.8" y2="31.1"/>
				</g>
				<g>
					<rect x="48.9" y="31.1" class="st1" width="1.7" height="36.5"/>
				</g>
			</g>
			<g>
				<g>
					<rect x="42.5" y="6.8" class="st2" width="14.6" height="25.3"/>
				</g>
				<g>
					<path class="st1" d="M58,32.9H41.7v-27H58V32.9z M43.4,31.2h12.8V7.6H43.4V31.2z"/>
				</g>
			</g>
			<g id="XMLID_2_">
				<g>
					<g>
						<polygon class="st3" points="49.8,50 19.4,67.6 19.4,32.5 						"/>
					</g>
				</g>
				<g>
					<g>
						<path class="st1" d="M18.5,69.1V30.9l33,19.1L18.5,69.1z M20.3,34v32.1L48.1,50L20.3,34z"/>
					</g>
				</g>
			</g>
			<g id="XMLID_3_">
				<g>
					<g>
						<polygon class="st3" points="80.2,32.5 80.2,67.6 49.8,50 						"/>
					</g>
				</g>
				<g>
					<g>
						<path class="st1" d="M81.1,69.1L48.1,50l33-19.1V69.1z M51.5,50l27.8,16.1V34L51.5,50z"/>
					</g>
				</g>
			</g>
		</g>
	</g>
	<g id="Layer_2_2_">
		<g class="st4">
			<path d="M38.108,83.493c1.227,0,2.207,0.411,2.941,1.233s1.102,1.925,1.102,3.308c0,1.379-0.367,2.479-1.102,3.302
				s-1.715,1.233-2.941,1.233c-1.23,0-2.214-0.41-2.95-1.23s-1.104-1.922-1.104-3.305s0.368-2.485,1.104-3.308
				S36.878,83.493,38.108,83.493z M38.108,84.454c-0.859,0-1.542,0.32-2.048,0.961s-0.759,1.514-0.759,2.619
				c0,1.102,0.253,1.973,0.759,2.613s1.188,0.961,2.048,0.961s1.54-0.32,2.042-0.961s0.753-1.512,0.753-2.613
				c0-1.105-0.251-1.979-0.753-2.619S38.968,84.454,38.108,84.454z"/>
			<path d="M44.003,83.651h2.672c0.98,0,1.722,0.222,2.224,0.665s0.753,1.093,0.753,1.948c0,0.863-0.251,1.516-0.753,1.957
				s-1.243,0.662-2.224,0.662h-1.488v3.516h-1.184V83.651z M45.187,84.624v3.287h1.488c0.551,0,0.977-0.143,1.277-0.428
				s0.451-0.691,0.451-1.219c0-0.523-0.15-0.928-0.451-1.213s-0.727-0.428-1.277-0.428H45.187z"/>
			<path d="M51.239,83.651h5.531v0.996h-4.348v2.59h4.166v0.996h-4.166v3.17h4.453v0.996h-5.637V83.651z"/>
			<path d="M58.821,83.651h1.594l3.879,7.318v-7.318h1.148v8.748h-1.594l-3.879-7.318v7.318h-1.148V83.651z"/>
		</g>
	</g>
</g>
<g id="Layer_2_1_">
	<g>
		<g>
			<circle class="st3" cx="10.6" cy="82" r="5.892"/>
			<path class="st1" d="M10.6,88c-3.312,0-6-2.688-6-6s2.688-6,6-6s6,2.688,6,6S13.912,88,10.6,88z M10.6,76.204
				c-3.192,0-5.796,2.604-5.796,5.796s2.604,5.796,5.796,5.796s5.796-2.604,5.796-5.796S13.792,76.204,10.6,76.204z"/>
		</g>
	</g>
	<g>
		<path d="M8.634,78.46h3.931v0.806h-1.484v5.468h1.484v0.806H8.634v-0.806h1.484v-5.468H8.634V78.46z"/>
	</g>
</g>
</svg>
