<?xml version="1.0" encoding="utf-8"?>
<!-- Generator: Adobe Illustrator 21.0.0, SVG Export Plug-In . SVG Version: 6.00 Build 0)  -->
<svg version="1.1" id="Layer_1" xmlns="http://www.w3.org/2000/svg" xmlns:xlink="http://www.w3.org/1999/xlink" x="0px" y="0px"
	 viewBox="0 0 100 100" style="enable-background:new 0 0 100 100;" xml:space="preserve">
<style type="text/css">
	.st0{display:none;}
	.st1{display:inline;}
	.st2{fill:none;}
	.st3{fill:#A9A9A9;}
	.st4{fill:none;stroke:#A9A9A9;stroke-width:2.7;stroke-miterlimit:10;stroke-dasharray:1.4721,1.4721;}
</style>
<g id="Layer_1_1_" class="st0">
	<g id="Layer_2" class="st1">
	</g>
	<g class="st1">
		<g>
			<g id="XMLID_1_">
				<g>
					<path class="st2" d="M82.1,32.3v35.3l-27.7-16c0.2-0.5,0.3-1.1,0.3-1.7c0-0.6-0.1-1.1-0.3-1.7L82.1,32.3z"/>
					<path class="st2" d="M51.5,54.4l16,27.8H32.2l16.1-27.8c0.5,0.2,1.1,0.3,1.6,0.3S51,54.6,51.5,54.4z"/>
					<rect x="83.8" y="49.1" width="16.1" height="1.7"/>
					<path d="M83.9,29.3l-0.1,19.8H83v1.7l0,0v-20L54,47.5c-0.1-0.2-0.3-0.5-0.5-0.7L83.9,29.3z"/>
					<rect x="83.1" y="49.1" width="0.8" height="1.7"/>
					<path d="M83.8,50.8v19.7L53.6,53c0.2-0.2,0.3-0.5,0.5-0.7l29,16.8V50.8h0.1H83.8z"/>
					<path d="M83,50.8v18.3L54,52.3c0.1-0.2,0.2-0.5,0.3-0.7l27.7,16V32.3L54.4,48.2c-0.1-0.3-0.2-0.5-0.3-0.7l29-16.7v20H83z"/>
					<path d="M52.9,53.6l17.6,30.3H50.7v-0.8H69L52.3,54C52.5,53.9,52.7,53.8,52.9,53.6z"/>
					<path d="M52.3,54L69,83H50.7H49H30.7l16.8-29c0.2,0.1,0.5,0.3,0.8,0.4L32.2,82.2h35.3l-16-27.8C51.8,54.3,52,54.2,52.3,54z"/>
					<rect x="56" y="28.9" width="1.7" height="1.7"/>
					<rect x="56" y="5.8" width="1.7" height="23.1"/>
					<rect x="56" y="4.1" width="1.7" height="1.7"/>
					<polygon points="56,28.9 56,30.6 50.7,30.6 50.7,29.7 49,29.7 49,30.6 43.8,30.6 43.8,28.9 					"/>
					<rect x="43.8" y="4.1" width="12.2" height="1.7"/>
					<path d="M54.4,48.2c0.2,0.5,0.3,1.1,0.3,1.7c0,0.6-0.1,1.1-0.3,1.7l-2.9-1.7L54.4,48.2z"/>
					<path d="M54.4,48.2l-2.9,1.7l2.9,1.7c-0.1,0.3-0.2,0.5-0.3,0.7l-2.8-1.6l-0.5-0.9v-0.3l3.3-1.9C54.2,47.7,54.3,48,54.4,48.2z"
						/>
					<path d="M54,47.5l-3.3,1.9v-1l2.9-1.6C53.8,47,53.9,47.2,54,47.5z"/>
					<path d="M51.2,50.7l2.8,1.6c-0.1,0.2-0.3,0.5-0.5,0.7L52,52.2L51.2,50.7z"/>
					<path d="M50.7,45.2c1.1,0.2,2.1,0.8,2.9,1.6l-2.9,1.6V45.2z"/>
					<path d="M53.6,53c-0.2,0.2-0.4,0.4-0.6,0.6l-0.8-1.5L53.6,53z"/>
					<path d="M52.1,52.2l0.8,1.5c-0.2,0.2-0.4,0.3-0.6,0.4l-1.5-2.7L52.1,52.2z"/>
					<path d="M50.8,51.4l1.5,2.7c-0.2,0.2-0.5,0.3-0.8,0.4l-1.6-2.8l-1.6,2.8c-0.3-0.1-0.5-0.2-0.8-0.4l2-3.4L50.8,51.4z"/>
					<polygon points="51.2,50.7 52.1,52.2 50.8,51.4 49.9,49.9 					"/>
					<path d="M49.9,51.6l1.6,2.8c-0.5,0.2-1,0.3-1.6,0.3s-1.1-0.1-1.6-0.3L49.9,51.6z"/>
					<polygon points="50.7,49.8 51.2,50.7 49.9,49.9 50.7,49.9 					"/>
					<polygon points="50.8,51.4 49.5,50.6 49.9,49.9 					"/>
					<rect x="49" y="83.9" width="1.7" height="16.1"/>
					<rect x="49" y="83.1" width="1.7" height="0.8"/>
					<polygon points="50.7,49.8 50.7,49.9 49.9,49.9 50.6,49.5 					"/>
					<polygon points="50.7,49.4 50.7,49.8 50.6,49.5 					"/>
					<polygon points="50.7,48.5 50.7,49.4 50.6,49.5 50.1,48.8 					"/>
					<path d="M50.7,45.2v3.3l-0.6,0.3l-0.3-0.6l-0.7,1.2H49v-4.2c0.3-0.1,0.6-0.1,0.9-0.1C50.2,45.1,50.4,45.1,50.7,45.2z"/>
					<path d="M50.7,30.6v14.6c-0.3,0-0.5-0.1-0.8-0.1s-0.6,0-0.9,0.1V30.6H50.7z"/>
					<rect x="49" y="29.7" width="1.7" height="0.9"/>
					<polygon points="50.1,48.8 50.6,49.5 49.9,49.9 49,49.9 49,49.6 49.1,49.4 					"/>
					<polygon points="50.1,48.8 49.1,49.4 49.8,48.2 					"/>
					<polygon points="49.9,49.9 49.5,50.6 48.7,50.2 49,49.6 49,49.9 					"/>
					<path d="M48.7,50.2l0.8,0.5l-2,3.4c-0.3-0.2-0.5-0.3-0.8-0.5L48.7,50.2z"/>
					<polygon points="49,49.4 49.1,49.4 49,49.6 					"/>
					<path d="M49,83.1v0.8H29.2l17.5-30.4c0.2,0.2,0.5,0.4,0.8,0.5L30.7,83L49,83.1L49,83.1z"/>
					<polygon points="49,49.4 49,49.6 48.7,50.2 48.2,49.9 					"/>
					<path d="M49,45.2v4.2l-0.8,0.5l0.5,0.3l-1.9,3.3c-1-0.9-1.6-2.2-1.6-3.6C45.1,47.6,46.8,45.6,49,45.2z"/>
					<rect x="42.1" y="28.9" width="1.7" height="1.7"/>
					<rect x="42.1" y="5.8" width="1.7" height="23.1"/>
					<rect x="42.1" y="4.1" width="1.7" height="1.7"/>
				</g>
			</g>
		</g>
	</g>
</g>
<g>
	<path class="st3" d="M44.901,47.056l-0.286-0.165c-0.001,0-0.002-0.001-0.002-0.001l-0.001-0.001c-0.001,0-0.002-0.001-0.002-0.001
		l-0.001-0.001l-0.001-0.001l-0.002-0.001c-0.377-0.217-0.978-0.565-0.978-0.565l-1.35,2.338l1.275,0.736L44.901,47.056
		L44.901,47.056z M42.351,45.584l-0.07-0.041c-0.001,0-0.001-0.001-0.002-0.001h-0.001c-0.001-0.001-0.002-0.001-0.003-0.002h-0.001
		c-0.001-0.001-0.002-0.001-0.003-0.002l0,0c-0.001-0.001-0.002-0.001-0.003-0.002l-0.001-0.001
		c-0.001-0.001-0.002-0.001-0.003-0.002h-0.001c-0.001-0.001-0.002-0.001-0.004-0.002l0,0c-0.003-0.001-0.005-0.003-0.008-0.004
		H42.25c-0.003-0.002-0.005-0.003-0.008-0.005l0,0c-0.003-0.002-0.006-0.003-0.008-0.005l-0.001-0.001
		c-0.316-0.182-1.157-0.668-1.157-0.668l-1.35,2.338l1.275,0.736L42.351,45.584L42.351,45.584z M39.801,44.112l-1.275-0.736
		l-1.35,2.338l1.275,0.736L39.801,44.112L39.801,44.112z M37.251,42.64l-0.339-0.196c-0.001,0-0.001-0.001-0.002-0.001l-0.001-0.001
		c-0.002-0.001-0.003-0.002-0.005-0.003l-0.002-0.001c-0.377-0.218-0.925-0.534-0.925-0.534l-1.35,2.338l1.275,0.736L37.251,42.64
		L37.251,42.64z M34.701,41.167l-0.217-0.125l-0.001-0.001l-0.005-0.003l0,0l-0.002-0.001c0,0-0.001,0-0.001-0.001l-0.002-0.001
		c0,0-0.001,0-0.001-0.001l-0.002-0.001c0,0-0.001,0-0.001-0.001l-0.002-0.001c-0.002-0.001-0.003-0.002-0.005-0.003h-0.001
		c-0.002-0.001-0.003-0.002-0.005-0.003l-0.002-0.001c-0.371-0.214-1.028-0.594-1.028-0.594l-1.35,2.338l1.275,0.736L34.701,41.167
		L34.701,41.167z M32.152,39.695l-1.275-0.736l-1.35,2.338l1.275,0.736L32.152,39.695L32.152,39.695z M29.602,38.223l-0.405-0.234
		c-0.373-0.216-0.869-0.502-0.869-0.502l-1.35,2.338l1.275,0.736L29.602,38.223L29.602,38.223z M27.052,36.751l-0.367-0.212l0,0
		l-0.003-0.002c0,0-0.001,0-0.001-0.001l-0.009-0.005c0,0-0.001,0-0.001-0.001l-0.003-0.002c0,0-0.001,0-0.001-0.001l-0.009-0.005
		l-0.001-0.001l-0.012-0.007c-0.001-0.001-0.002-0.001-0.003-0.002l0,0c-0.002-0.001-0.005-0.003-0.007-0.004l0,0
		c-0.372-0.215-0.857-0.495-0.857-0.495l-1.35,2.338l1.275,0.736L27.052,36.751L27.052,36.751z M24.502,35.279l-1.275-0.736
		l-1.35,2.338l1.275,0.736L24.502,35.279L24.502,35.279z M21.953,33.807l-1.275-0.736l-1.35,2.338l1.275,0.736L21.953,33.807
		L21.953,33.807z M19.403,32.335L18.823,32l0,0l-0.006-0.003c-0.335-0.193-0.689-0.398-0.689-0.398l-1.35,2.338l1.275,0.736
		L19.403,32.335L19.403,32.335z M16.853,30.863l-0.776-0.448c-0.001-0.001-0.002-0.001-0.003-0.002l0,0
		c-0.265-0.153-0.497-0.287-0.497-0.287l-1.35,2.338l1.275,0.736L16.853,30.863L16.853,30.863z M14.303,29.391l-1.275-0.736
		l-1.35,2.338l1.275,0.736L14.303,29.391L14.303,29.391z M11.754,27.919l-0.72-0.416c-0.001,0-0.002-0.001-0.002-0.001L11.029,27.5
		l0,0l-0.002-0.001c-0.005-0.003-0.009-0.005-0.014-0.008l-0.001-0.001c-0.28-0.162-0.533-0.308-0.533-0.308l-1.35,2.338
		l1.275,0.736L11.754,27.919L11.754,27.919z M9.204,26.446L8.379,25.97c-0.001-0.001-0.003-0.002-0.004-0.002l0,0
		c-0.243-0.141-0.446-0.257-0.446-0.257l-1.35,2.338l1.275,0.736L9.204,26.446L9.204,26.446z M6.654,24.974l-1.275-0.736
		l-1.35,2.338l1.275,0.736L6.654,24.974L6.654,24.974z M4.104,23.502l-0.876-0.506c0,0,0,0-0.001,0l-0.002-0.001
		c-0.22-0.127-0.395-0.228-0.395-0.228l-0.121,0.209h-1.7l0.546-0.945l-1.154-0.666l0,0l0,0l0,0l0,0l0,0l0,0l0,0l0,0v2.665l0,0
		c0,0.236,0,0.419,0,0.419h1.458L1.48,25.106l1.275,0.736L4.104,23.502L4.104,23.502z M3.101,27.392V25.92h-2.7v1.472H3.101
		L3.101,27.392z M3.101,30.336v-1.472h-2.7v1.472H3.101L3.101,30.336z M3.101,33.28v-1.472h-2.7v1.472H3.101L3.101,33.28z
		 M3.101,36.224v-1.472h-2.7v1.472H3.101L3.101,36.224z M3.101,39.169v-1.472h-2.7v1.472H3.101L3.101,39.169z M3.101,42.113v-1.472
		h-2.7v1.472H3.101L3.101,42.113z M3.101,45.057v-1.472h-2.7v1.472H3.101L3.101,45.057z M3.101,48.001v-1.472h-2.7v1.472H3.101
		L3.101,48.001z M3.101,50.945v-1.472h-2.7v1.472H3.101L3.101,50.945z M3.101,53.89v-1.472h-2.7v1.472H3.101L3.101,53.89z
		 M3.101,56.834v-1.472h-2.7v1.472H3.101L3.101,56.834z M3.101,59.778v-1.472h-2.7v1.472H3.101L3.101,59.778z M3.101,62.722V61.25
		h-2.7v1.472H3.101L3.101,62.722z M3.101,65.666v-1.472h-2.7v1.472H3.101L3.101,65.666z M3.101,68.611v-1.472h-2.7v1.472H3.101
		L3.101,68.611z M3.101,71.555v-1.472h-2.7v1.472H3.101L3.101,71.555z M4.467,76.288l-1.35-2.338l-0.016,0.01v-0.933h-2.7v1.472
		h1.766l-0.324,0.187l0.742,1.285h-1.7l-0.317-0.549l-0.167,0.096v2.559l0.242,0.419l1.275-0.736l-0.183-0.317h0.732l0.634-0.366
		v-0.212l0.092,0.159l0.359-0.207c0.001,0,0.001-0.001,0.002-0.001l0.002-0.001C3.932,76.597,4.467,76.288,4.467,76.288
		L4.467,76.288z M7.017,74.816l-1.35-2.338l-1.275,0.736l1.35,2.338L7.017,74.816L7.017,74.816z M9.567,73.344l-1.35-2.338
		l-1.275,0.736l1.35,2.338l0.142-0.082c0,0,0,0,0.001,0l0.006-0.004c0.002-0.001,0.004-0.002,0.006-0.004l0.005-0.003
		C8.795,73.79,9.567,73.344,9.567,73.344L9.567,73.344z M12.116,71.872l-1.35-2.338L9.491,70.27l1.35,2.338l0.594-0.343
		C11.768,72.073,12.116,71.872,12.116,71.872L12.116,71.872z M14.666,70.4l-1.35-2.338l-1.275,0.736l1.35,2.338L14.666,70.4
		L14.666,70.4z M17.216,68.928l-1.35-2.338l-1.275,0.736l1.35,2.338l0.37-0.213c0.002-0.001,0.004-0.002,0.006-0.003l0,0
		C16.693,69.23,17.216,68.928,17.216,68.928L17.216,68.928z M19.766,67.456l-1.35-2.338l-1.275,0.736l1.35,2.338l0.816-0.471
		c0.002-0.001,0.004-0.002,0.005-0.003h0.001C19.56,67.575,19.766,67.456,19.766,67.456L19.766,67.456z M22.316,65.984l-1.35-2.338
		l-1.275,0.736l1.35,2.338l1.101-0.636c0.001,0,0.001-0.001,0.001-0.001h0.001c0.001-0.001,0.003-0.002,0.004-0.002l0.001-0.001
		c0.001,0,0.001-0.001,0.002-0.001l0,0c0.001,0,0.001-0.001,0.002-0.001l0.003-0.002l0.001-0.001l0.022-0.013c0,0,0,0,0.001,0
		l0.003-0.002c0.001,0,0.001-0.001,0.002-0.001l0,0l0.001-0.001l0.002-0.001c0.003-0.001,0.005-0.003,0.008-0.004l0.001-0.001
		c0.008-0.005,0.017-0.01,0.024-0.014h0.001C22.281,66.004,22.316,65.984,22.316,65.984L22.316,65.984z M24.865,64.512l-1.35-2.338
		L22.24,62.91l1.35,2.338l0.596-0.344c0.004-0.002,0.008-0.004,0.012-0.007h0.001C24.527,64.707,24.865,64.512,24.865,64.512
		L24.865,64.512z M27.415,63.039l-1.35-2.338l-1.275,0.736l1.35,2.338l1.008-0.582c0.001,0,0.001-0.001,0.002-0.001l0.001-0.001
		c0.002-0.001,0.003-0.002,0.005-0.003l0.002-0.001c0.002-0.001,0.003-0.002,0.005-0.003l0.001-0.001
		c0.001-0.001,0.003-0.002,0.004-0.002l0.002-0.001C27.315,63.097,27.415,63.039,27.415,63.039L27.415,63.039z M29.965,61.567
		l-1.35-2.338l-1.275,0.736l1.35,2.338l0.356-0.206c0.001,0,0.001-0.001,0.002-0.001l0,0c0.001,0,0.001-0.001,0.002-0.001
		l0.002-0.001c0.004-0.002,0.008-0.005,0.012-0.007l0,0C29.442,61.869,29.965,61.567,29.965,61.567L29.965,61.567z M32.515,60.095
		l-1.35-2.338l-1.275,0.736l1.35,2.338l0.798-0.461l0,0l0.004-0.002c0.004-0.002,0.008-0.004,0.011-0.007l0.001-0.001
		C32.304,60.217,32.515,60.095,32.515,60.095L32.515,60.095z M35.064,58.623l-1.35-2.338l-1.275,0.736l1.35,2.338l0.99-0.572l0,0
		l0.017-0.01c0.001-0.001,0.002-0.001,0.003-0.002l0.001-0.001c0.001-0.001,0.003-0.002,0.004-0.003l0.003-0.002l0,0l0.002-0.001
		l0,0l0.023-0.013c0.001,0,0.001-0.001,0.002-0.001l0.01-0.006c0.001,0,0.001-0.001,0.002-0.001l0.011-0.006l0,0l0.011-0.006l0,0
		l0.002-0.001l0.001-0.001l0.002-0.001l0,0l0.002-0.001c0.001,0,0.001-0.001,0.002-0.001h0.001c0.001,0,0.001-0.001,0.002-0.001
		l0.001-0.001c0.001,0,0.001-0.001,0.002-0.001l0,0c0.001,0,0.001-0.001,0.002-0.001l0.001-0.001
		c0.007-0.004,0.013-0.008,0.02-0.011l0.002-0.001c0.013-0.008,0.025-0.015,0.037-0.021l0.001-0.001
		c0.024-0.014,0.045-0.026,0.062-0.036h0.001C35.044,58.635,35.064,58.623,35.064,58.623L35.064,58.623z M37.614,57.151l-1.35-2.338
		l-1.275,0.736l1.35,2.338l0.587-0.339l0,0l0.003-0.001c0,0,0.001,0,0.001-0.001l0.002-0.001c0.004-0.003,0.009-0.005,0.013-0.008
		l0.002-0.001C37.276,57.346,37.614,57.151,37.614,57.151L37.614,57.151z M40.164,55.679l-1.35-2.338l-1.275,0.736l1.35,2.338
		l1.033-0.596c0.001,0,0.001-0.001,0.001-0.001l0.001-0.001c0.002-0.001,0.003-0.002,0.005-0.003l0,0
		C40.069,55.734,40.164,55.679,40.164,55.679L40.164,55.679z M42.714,54.207l-1.35-2.338l-1.275,0.736l1.35,2.338L42.714,54.207
		L42.714,54.207z M45.263,52.735l-1.35-2.338l-1.275,0.736l1.35,2.338L44.804,53C45.054,52.856,45.263,52.735,45.263,52.735
		L45.263,52.735z M50,50l-1.824-1.053l0.366,0.634l-0.85,1.472l-0.85-1.472l0.608-1.053l-1.275-0.736l-1.35,2.338l0.951,0.549
		l0.762,1.32L50,50L50,50z"/>
</g>
<g>
	<path class="st3" d="M94.5,24.308c0,0-0.106,0.061-0.257,0.148l-1.018,0.588l1.35,2.338l1.275-0.736L94.5,24.308L94.5,24.308z
		 M91.95,25.78l-1.275,0.736l1.35,2.338l1.275-0.736L91.95,25.78L91.95,25.78z M89.4,27.252l-1.275,0.736l1.35,2.338l1.275-0.736
		L89.4,27.252L89.4,27.252z M86.85,28.724c0,0-0.084,0.049-0.21,0.121l-0.001,0.001c-0.002,0.001-0.003,0.002-0.005,0.003
		l-1.059,0.611l1.35,2.338l1.275-0.736L86.85,28.724L86.85,28.724z M84.301,30.196l-1.275,0.736l1.35,2.338l1.275-0.736
		L84.301,30.196L84.301,30.196z M81.751,31.669c0,0-0.21,0.121-0.46,0.265l-0.815,0.471l1.35,2.338l1.275-0.736L81.751,31.669
		L81.751,31.669z M79.201,33.141c0,0-0.222,0.128-0.481,0.278l-0.794,0.458l1.35,2.338l1.275-0.736L79.201,33.141L79.201,33.141z
		 M76.651,34.613l-1.275,0.736l1.35,2.338l1.275-0.736L76.651,34.613L76.651,34.613z M74.102,36.085c0,0-0.194,0.112-0.43,0.248
		l-0.003,0.002c0,0-0.001,0-0.001,0.001l-0.001,0.001c-0.001,0-0.001,0.001-0.002,0.001l-0.837,0.483l1.35,2.338l1.275-0.736
		L74.102,36.085L74.102,36.085z M71.552,37.557c0,0-0.165,0.095-0.375,0.217h-0.001c-0.004,0.003-0.009,0.005-0.013,0.008l0,0
		c-0.002,0.001-0.004,0.002-0.006,0.004l-0.002,0.001c0,0-0.001,0-0.001,0.001l-0.01,0.006l0,0l-0.006,0.004c0,0,0,0-0.001,0
		L71.134,37.8l0,0H71.13c-0.001,0-0.001,0.001-0.002,0.001l-0.002,0.001c0,0-0.001,0-0.001,0.001l-0.848,0.49l1.35,2.338
		l1.275-0.736L71.552,37.557L71.552,37.557z M69.002,39.029l-1.275,0.736l1.35,2.338l1.275-0.736L69.002,39.029L69.002,39.029z
		 M66.452,40.501c0,0-0.172,0.099-0.389,0.224l-0.002,0.001c-0.002,0.001-0.003,0.002-0.005,0.003l-0.88,0.508l1.35,2.338
		l1.275-0.736L66.452,40.501L66.452,40.501z M63.903,41.973c0,0-0.101,0.058-0.246,0.142l0,0c-0.008,0.005-0.016,0.009-0.024,0.014
		l0,0c-0.004,0.002-0.008,0.005-0.012,0.007l-0.001,0.001c-0.002,0.001-0.003,0.002-0.005,0.003l-0.002,0.001l0,0l-0.984,0.568
		l1.35,2.338l1.275-0.736L63.903,41.973L63.903,41.973z M61.353,43.445l-1.275,0.736l1.35,2.338l1.275-0.736L61.353,43.445
		L61.353,43.445z M58.803,44.917c0,0-0.15,0.087-0.347,0.2l-0.003,0.002c0,0,0,0-0.001,0l-0.924,0.534l1.35,2.338l1.275-0.736
		L58.803,44.917L58.803,44.917z M56.253,46.39c0,0-0.059,0.034-0.151,0.087l0,0c-0.001,0-0.001,0.001-0.002,0.001l0,0
		c0,0-0.001,0-0.001,0.001l-0.004,0.002c-0.001,0-0.001,0.001-0.002,0.001l-0.004,0.003l0,0l-0.008,0.004c0,0,0,0-0.001,0
		l-0.008,0.004l0,0l-0.002,0.001h-0.001l-1.09,0.63l1.35,2.338l1.275-0.736L56.253,46.39L56.253,46.39z M53.704,47.862l-1.275,0.736
		l0.121,0.209l-0.85,1.472l-0.546-0.945c0,0-0.574,0.331-0.912,0.527l0,0L50,50l0,0l0,0l0,0l0,0l0,0l0,0l0,0l0,0l2.308,1.332l0,0
		c0.205,0.118,0.363,0.209,0.363,0.209l0.729-1.263l0.379,0.657l1.275-0.736L53.704,47.862L53.704,47.862z M55.296,49.94
		l-1.35,2.338l1.275,0.736l1.35-2.338L55.296,49.94L55.296,49.94z M57.845,51.412l-1.35,2.338l0.412,0.238h0.001l0.006,0.003
		c0.372,0.215,0.856,0.494,0.856,0.494l1.35-2.338L57.845,51.412L57.845,51.412z M60.395,52.884l-1.35,2.338l0.583,0.337l0,0
		l0.003,0.001c0.002,0.001,0.004,0.002,0.006,0.003l0.002,0.001c0.001,0,0.002,0.001,0.002,0.001l0.001,0.001
		c0.001,0,0.001,0.001,0.002,0.001l0.002,0.001c0.001,0,0.002,0.001,0.002,0.001h0.001c0.001,0,0.001,0.001,0.002,0.001l0.003,0.002
		c0.001,0,0.001,0.001,0.002,0.001h0.001c0.001,0,0.002,0.001,0.002,0.001l0.005,0.003c0.001,0,0.002,0.001,0.002,0.001l0.002,0.001
		c0.002,0.001,0.004,0.002,0.006,0.004l0,0c0.002,0.001,0.004,0.003,0.007,0.004l0.002,0.001c0.318,0.184,0.636,0.367,0.636,0.367
		l1.35-2.338L60.395,52.884L60.395,52.884z M62.945,54.356l-1.35,2.338l1.275,0.736l1.35-2.338L62.945,54.356L62.945,54.356z
		 M65.495,55.828l-1.35,2.338l0.601,0.347c0.001,0,0.001,0.001,0.002,0.001l0.001,0.001c0,0,0.001,0,0.001,0.001l0.003,0.002
		c0.328,0.189,0.666,0.384,0.666,0.384l1.35-2.338L65.495,55.828L65.495,55.828z M68.044,57.3l-1.35,2.338l1.127,0.65
		c0,0,0.001,0,0.001,0.001l0.002,0.001c0.001,0.001,0.002,0.001,0.003,0.002l0.001,0.001c0.001,0.001,0.002,0.001,0.003,0.002
		l0.002,0.001c0.001,0.001,0.003,0.002,0.004,0.002l0,0c0.001,0.001,0.003,0.002,0.004,0.002h0.001
		c0.003,0.002,0.005,0.003,0.008,0.005l0.002,0.001c0.072,0.042,0.117,0.067,0.117,0.067l1.35-2.338L68.044,57.3L68.044,57.3z
		 M70.594,58.772l-1.35,2.338l0.437,0.252l0,0l0.013,0.007c0.001,0,0.002,0.001,0.003,0.001l0.001,0.001
		c0.001,0.001,0.002,0.001,0.003,0.002l0.001,0.001c0,0,0,0,0.001,0l0.003,0.002c0.004,0.002,0.009,0.005,0.013,0.007l0,0
		c0.005,0.003,0.01,0.005,0.014,0.008l0,0c0.01,0.006,0.019,0.011,0.029,0.017h0.001c0.353,0.204,0.756,0.436,0.756,0.436
		l1.35-2.338L70.594,58.772L70.594,58.772z M73.144,60.244l-1.35,2.338l0.788,0.455c0.261,0.151,0.487,0.281,0.487,0.281l1.35-2.338
		L73.144,60.244L73.144,60.244z M75.694,61.716l-1.35,2.338l1.275,0.736l1.35-2.338L75.694,61.716L75.694,61.716z M78.243,63.189
		l-1.35,2.338l1.275,0.736l1.35-2.338L78.243,63.189L78.243,63.189z M80.793,64.661l-1.35,2.338c0,0,0.289,0.167,0.592,0.342
		l0.002,0.001c0.001,0.001,0.002,0.001,0.003,0.002l0.679,0.392l1.35-2.338L80.793,64.661L80.793,64.661z M83.343,66.133
		l-1.35,2.338c0,0,0.489,0.282,0.861,0.497l0.005,0.003c0,0,0.001,0,0.001,0.001l0.408,0.236l1.35-2.338L83.343,66.133
		L83.343,66.133z M85.893,67.605l-1.35,2.338c0,0,0.227,0.131,0.49,0.283l0.004,0.002c0.001,0.001,0.002,0.001,0.003,0.002l0,0
		c0.001,0.001,0.002,0.001,0.003,0.002l0.001,0.001c0.001,0,0.001,0.001,0.002,0.001l0.002,0.001
		c0.001,0.001,0.002,0.001,0.003,0.002l0,0c0.003,0.002,0.006,0.003,0.009,0.005l0.012,0.007c0.001,0.001,0.002,0.001,0.003,0.002
		l0.743,0.429l1.35-2.338L85.893,67.605L85.893,67.605z M88.442,69.077l-1.35,2.338c0,0,0.162,0.094,0.371,0.214l0.904,0.522
		l1.35-2.338L88.442,69.077L88.442,69.077z M90.992,70.549l-1.35,2.338c0,0,0.315,0.182,0.632,0.365l0.004,0.002l0,0l0.639,0.369
		l1.35-2.338L90.992,70.549L90.992,70.549z M93.542,72.021l-1.35,2.338l1.275,0.736l1.35-2.338L93.542,72.021L93.542,72.021z
		 M96.092,73.493l-1.35,2.338c0,0,0.055,0.032,0.142,0.082h0.001c0,0,0.001,0,0.001,0.001l0.004,0.002
		c0.001,0,0.001,0.001,0.002,0.001l1.125,0.649l0.883-1.529v0.374h1.484l-0.85,1.472H96.9v0.192l2.216,1.28H99.6v-1.472h-0.366
		l0.366-0.634v-0.732l-0.183-0.106H99.6v-1.472h-2.7v0.019L96.092,73.493L96.092,73.493z M99.599,70.996h-2.7v1.472h2.7V70.996
		L99.599,70.996z M99.599,68.052h-2.7v1.472h2.7V68.052L99.599,68.052z M99.599,65.108h-2.7v1.472h2.7V65.108L99.599,65.108z
		 M99.599,62.164h-2.7v1.472h2.7V62.164L99.599,62.164z M99.599,59.22h-2.7v1.472h2.7V59.22L99.599,59.22z M99.599,56.275h-2.7
		v1.472h2.7V56.275L99.599,56.275z M99.599,53.331h-2.7v1.472h2.7V53.331L99.599,53.331z M99.599,50.387h-2.7v1.472h2.7V50.387
		L99.599,50.387z M99.599,47.443h-2.7v1.472h2.7V47.443L99.599,47.443z M99.599,44.499h-2.7v1.472h2.7V44.499L99.599,44.499z
		 M99.599,41.554h-2.7v1.472h2.7V41.554L99.599,41.554z M99.599,38.61h-2.7v1.472h2.7V38.61L99.599,38.61z M99.599,35.666h-2.7
		v1.472h2.7V35.666L99.599,35.666z M99.599,32.722h-2.7v1.472h2.7V32.722L99.599,32.722z M99.599,29.778h-2.7v1.472h2.7V29.778
		L99.599,29.778z M99.599,26.833h-2.7v1.472h2.7V26.833L99.599,26.833z M99.599,21.364l-1.824,1.053h0.733l0.85,1.472h-1.7
		l-0.608-1.053l-1.275,0.736l1.35,2.338l0.951-0.549H99.6L99.599,21.364L99.599,21.364z"/>
</g>
<line class="st4" x1="50" y1="78.355" x2="50" y2="25.704"/>
<g>
	<path class="st3" d="M55.634,0h-1.472v2.7h1.472V0L55.634,0z M52.689,0h-1.472v2.7h1.472V0L52.689,0z M49.745,0h-1.472v2.7h1.472V0
		L49.745,0z M46.801,0h-1.472v2.7h1.472V0L46.801,0z M43.857,0h-1.472v0.51h-0.962v1.472h0.962V2.7h1.472V1.982h0.265V0.51h-0.265V0
		L43.857,0z M44.122,3.454h-2.7v1.472h2.7V3.454L44.122,3.454z M44.122,6.398h-2.7V7.87h2.7V6.398L44.122,6.398z M44.122,9.342h-2.7
		v1.472h2.7V9.342L44.122,9.342z M44.122,12.286h-2.7v1.472h2.7V12.286L44.122,12.286z M44.122,15.231h-2.7v1.472h2.7V15.231
		L44.122,15.231z M44.122,18.175h-2.7v1.472h2.7V18.175L44.122,18.175z M44.122,21.119h-2.7v1.472h2.7V21.119L44.122,21.119z
		 M44.122,24.063h-2.7v1.472l0,0v1.472l0,0v0.392h2.7l0,0l0,0l0,0l0,0c0.373,0,1.325,0,1.325,0v-2.7h-1.325V24.063L44.122,24.063z
		 M42.503,25.535h1.472v1.472h-1.472V25.535L42.503,25.535z M41.422,25.535v1.472l0,0V25.535L41.422,25.535z M48.391,24.699h-1.472
		v2.7h1.472V24.699L48.391,24.699z M51.335,24.699h-1.472v2.7h1.472V24.699L51.335,24.699z M54.279,24.699h-1.472v2.7h1.472V24.699
		L54.279,24.699z M57.224,24.699h-1.472v2.7h1.472v-0.118h1.354v-1.472h-1.354V24.699L57.224,24.699z M58.578,22.865h-2.7v1.472h2.7
		V22.865L58.578,22.865z M58.578,19.921h-2.7v1.472h2.7V19.921L58.578,19.921z M58.578,16.977h-2.7v1.472h2.7V16.977L58.578,16.977z
		 M58.578,14.032h-2.7v1.472h2.7V14.032L58.578,14.032z M58.578,11.088h-2.7v1.472h2.7V11.088L58.578,11.088z M58.578,8.144h-2.7
		v1.472h2.7V8.144L58.578,8.144z M58.578,5.2h-2.7v1.472h2.7V5.2L58.578,5.2z M58.578,0h-2.7v0.784h1.228v1.472h-1.228v1.472h2.7V0
		L58.578,0z"/>
</g>
</svg>
