<?xml version="1.0" encoding="utf-8"?>
<!-- Generator: Adobe Illustrator 21.0.0, SVG Export Plug-In . SVG Version: 6.00 Build 0)  -->
<svg version="1.1" id="Layer_1" xmlns="http://www.w3.org/2000/svg" xmlns:xlink="http://www.w3.org/1999/xlink" x="0px" y="0px"
	 viewBox="0 0 100 100" style="enable-background:new 0 0 100 100;" xml:space="preserve">
<style type="text/css">
	.st0{fill:none;}
	.st1{fill:#000000;}
	.st2{fill:#FFFFFF;}
	.st3{fill:#3DD83D;}
	.st4{enable-background:new    ;}
</style>
<g id="Layer_1_2_">
	<g id="Layer_1_1_">
		<circle class="st0" cx="50" cy="50" r="49.1"/>
		<g>
			<g>
				<g>
					<rect x="-0.2" y="48.9" class="st1" width="19.6" height="1.7"/>
				</g>
			</g>
			<g>
				<g>
					<rect x="80.2" y="48.9" class="st1" width="19.6" height="1.7"/>
				</g>
			</g>
			<g>
				<g>
					<line class="st0" x1="49.8" y1="67.6" x2="49.8" y2="31.1"/>
				</g>
				<g>
					<rect x="48.9" y="31.1" class="st1" width="1.7" height="36.5"/>
				</g>
			</g>
			<g>
				<g>
					<rect x="42.5" y="6.8" class="st2" width="14.6" height="25.3"/>
				</g>
				<g>
					<path class="st1" d="M58,32.9H41.7v-27H58V32.9z M43.4,31.2h12.8V7.6H43.4V31.2z"/>
				</g>
			</g>
			<g id="XMLID_2_">
				<g>
					<g>
						<polygon class="st3" points="49.8,50 19.4,67.6 19.4,32.5 						"/>
					</g>
				</g>
				<g>
					<g>
						<path class="st1" d="M18.5,69.1V30.9l33,19.1L18.5,69.1z M20.3,34v32.1L48.1,50L20.3,34z"/>
					</g>
				</g>
			</g>
			<g id="XMLID_3_">
				<g>
					<g>
						<polygon class="st3" points="80.2,32.5 80.2,67.6 49.8,50 						"/>
					</g>
				</g>
				<g>
					<g>
						<path class="st1" d="M81.1,69.1L48.1,50l33-19.1V69.1z M51.5,50l27.8,16.1V34L51.5,50z"/>
					</g>
				</g>
			</g>
		</g>
	</g>
	<g id="Layer_2_2_">
		<g class="st4">
			<path d="M38.1,83.5c1.2,0,2.2,0.4,2.9,1.2s1.1,1.9,1.1,3.3c0,1.4-0.4,2.5-1.1,3.3s-1.7,1.2-2.9,1.2c-1.2,0-2.2-0.4-3-1.2
				s-1.1-1.9-1.1-3.3s0.4-2.5,1.1-3.3S36.9,83.5,38.1,83.5z M38.1,84.5c-0.9,0-1.5,0.3-2,1s-0.8,1.5-0.8,2.6c0,1.1,0.3,2,0.8,2.6
				s1.2,1,2,1s1.5-0.3,2-1s0.8-1.5,0.8-2.6c0-1.1-0.3-2-0.8-2.6S39,84.5,38.1,84.5z"/>
			<path d="M44,83.7h2.7c1,0,1.7,0.2,2.2,0.7s0.8,1.1,0.8,1.9c0,0.9-0.3,1.5-0.8,2s-1.2,0.7-2.2,0.7h-1.5v3.5H44V83.7z M45.2,84.6
				v3.3h1.5c0.6,0,1-0.1,1.3-0.4s0.5-0.7,0.5-1.2c0-0.5-0.2-0.9-0.5-1.2s-0.7-0.4-1.3-0.4L45.2,84.6L45.2,84.6z"/>
			<path d="M51.2,83.7h5.5v1h-4.3v2.6h4.2v1h-4.2v3.2h4.5v1h-5.6L51.2,83.7L51.2,83.7z"/>
			<path d="M58.8,83.7h1.6l3.9,7.3v-7.3h1.1v8.7h-1.6L60,85.1v7.3h-1.1V83.7z"/>
		</g>
	</g>
</g>
<g id="Layer_2_1_">
	<g>
		<g>
			<circle class="st3" cx="10.6" cy="82" r="5.9"/>
			<path class="st1" d="M10.6,88c-3.3,0-6-2.7-6-6s2.7-6,6-6s6,2.7,6,6S13.9,88,10.6,88z M10.6,76.2c-3.2,0-5.8,2.6-5.8,5.8
				s2.6,5.8,5.8,5.8s5.8-2.6,5.8-5.8S13.8,76.2,10.6,76.2z"/>
		</g>
	</g>
	<g>
		<path d="M8.6,78.5h3.9v0.8h-1.5v5.5h1.5v0.8H8.6v-0.8h1.5v-5.5H8.6V78.5z"/>
	</g>
</g>
</svg>
