<?xml version="1.0" encoding="utf-8"?>
<!-- Generator: Adobe Illustrator 21.0.0, SVG Export Plug-In . SVG Version: 6.00 Build 0)  -->
<svg version="1.1" id="Layer_1" xmlns="http://www.w3.org/2000/svg" xmlns:xlink="http://www.w3.org/1999/xlink" x="0px" y="0px"
	 viewBox="0 0 16 16" style="enable-background:new 0 0 16 16;" xml:space="preserve">
<style type="text/css">
	.st0{fill:none;stroke:#FC0D1B;stroke-miterlimit:10;}
	.st1{fill:none;stroke:#3DD83D;stroke-miterlimit:10;}
	.st2{fill:none;stroke:#000000;stroke-miterlimit:10;}
</style>
<g>
	<path class="st0" d="M14.6,11.4c-2,0-2,1.2-4,1.2c-2,0-2-1.2-4-1.2s-2,1.2-4,1.2"/>
	<path class="st1" d="M14.6,6.4c-1.5,0-1.5,3.6-3,3.6c-1.5,0-1.5-3.6-3-3.6c-1.5,0-1.5,3.6-3,3.6s-1.5-3.6-3-3.6"/>
	<path class="st0" d="M14.6,1.3c-2,0-2,3.6-4,3.6c-2,0-2-3.6-4-3.6S4.6,5,2.6,5"/>
	<polyline class="st2" points="15.5,13.8 2.2,13.8 2.2,0.5 	"/>
	<g>
		<line class="st2" x1="0.5" y1="1.3" x2="2.2" y2="1.3"/>
		<line class="st2" x1="0.5" y1="5.5" x2="2.2" y2="5.5"/>
		<line class="st2" x1="0.5" y1="9.6" x2="2.2" y2="9.6"/>
		<line class="st2" x1="0.5" y1="13.8" x2="2.2" y2="13.8"/>
	</g>
	<g>
		<line class="st2" x1="2.4" y1="15.5" x2="2.4" y2="13.8"/>
		<line class="st2" x1="6.5" y1="15.5" x2="6.5" y2="13.8"/>
		<line class="st2" x1="10.6" y1="15.5" x2="10.6" y2="13.8"/>
		<line class="st2" x1="14.8" y1="15.5" x2="14.8" y2="13.8"/>
	</g>
</g>
</svg>
