<?xml version="1.0" encoding="utf-8"?>
<!-- Generator: Adobe Illustrator 21.0.0, SVG Export Plug-In . SVG Version: 6.00 Build 0)  -->
<svg version="1.1" id="Layer_1" xmlns="http://www.w3.org/2000/svg" xmlns:xlink="http://www.w3.org/1999/xlink" x="0px" y="0px"
	 viewBox="0 0 100 100" style="enable-background:new 0 0 100 100;" xml:space="preserve">
<style type="text/css">
	.st0{fill:#FC0D1B;}
	.st1{fill:#960810;}
	.st2{fill:#FFFFFF;}
	.st3{enable-background:new    ;}
</style>
<g id="Layer_1_1_">
	<g id="Layer_2">
	</g>
	<g>
		<g>
			<rect x="0.9" y="0.9" class="st0" width="98.2" height="98.2"/>
			<path class="st1" d="M100,100H0V0h100V100z M1.8,98.2h96.4V1.8H1.8V98.2z"/>
		</g>
		<g>
			<polygon class="st2" points="50.3,75.8 23.2,28.5 24.8,27.6 50.3,72.2 75.2,27.6 76.8,28.4 			"/>
		</g>
		<g>
			<rect x="24" y="49.1" class="st2" width="52" height="1.8"/>
		</g>
	</g>
</g>
<g id="Layer_2_2_">
	<g class="st3">
		<path class="st2" d="M11.904,88.951c0.328,0.111,0.646,0.348,0.956,0.711c0.31,0.362,0.62,0.862,0.934,1.496l1.549,3.084h-1.64
			l-1.444-2.895c-0.373-0.756-0.734-1.258-1.085-1.504c-0.351-0.246-0.828-0.37-1.432-0.37H8.079v4.769H6.553V82.958H10
			c1.29,0,2.252,0.27,2.887,0.809s0.952,1.353,0.952,2.442c0,0.711-0.165,1.3-0.495,1.769S12.533,88.771,11.904,88.951z
			 M8.079,84.213v4.005h1.92c0.735,0,1.291-0.17,1.667-0.511s0.564-0.84,0.564-1.5s-0.188-1.157-0.564-1.493
			c-0.375-0.335-0.931-0.503-1.667-0.503h-1.92V84.213z"/>
		<path class="st2" d="M25.003,92.633v-3.032h-2.495v-1.255h4.005v4.845c-0.59,0.418-1.24,0.734-1.95,0.948
			c-0.711,0.214-1.469,0.321-2.276,0.321c-1.763,0-3.144-0.515-4.138-1.545c-0.995-1.031-1.493-2.465-1.493-4.305
			c0-1.845,0.498-3.282,1.493-4.312c0.995-1.031,2.375-1.545,4.138-1.545c0.735,0,1.434,0.09,2.098,0.272
			c0.663,0.182,1.273,0.449,1.833,0.801v1.625c-0.565-0.479-1.164-0.839-1.8-1.081c-0.636-0.243-1.303-0.362-2.003-0.362
			c-1.38,0-2.417,0.386-3.11,1.156s-1.04,1.92-1.04,3.447c0,1.522,0.347,2.668,1.04,3.439s1.73,1.156,3.11,1.156
			c0.539,0,1.02-0.046,1.444-0.139C24.281,92.974,24.666,92.829,25.003,92.633z"/>
		<path class="st2" d="M32.214,82.958h1.731l4.301,11.285h-1.587l-1.028-2.895h-5.088l-1.028,2.895h-1.61L32.214,82.958z
			 M33.075,84.462l-2.07,5.617h4.15L33.075,84.462z"/>
	</g>
</g>
</svg>
