<?xml version="1.0" encoding="utf-8"?>
<!-- Generator: Adobe Illustrator 21.0.0, SVG Export Plug-In . SVG Version: 6.00 Build 0)  -->
<svg version="1.1" id="Layer_1" xmlns="http://www.w3.org/2000/svg" xmlns:xlink="http://www.w3.org/1999/xlink" x="0px" y="0px"
	 viewBox="0 0 100 100" style="enable-background:new 0 0 100 100;" xml:space="preserve">
<style type="text/css">
	.st0{fill:none;}
	.st1{fill:#FFFFFF;}
	.st2{enable-background:new    ;}
</style>
<g id="Layer_1_1_">
	<g id="Layer_2">
	</g>
	<g>
		<g>
			<rect x="0.9" y="0.9" class="st0" width="98.2" height="98.2"/>
			<path class="st1" d="M100,100H0V0h100V100z M1.8,98.2h96.4V1.8H1.8V98.2z"/>
		</g>
		<g>
			<polygon class="st1" points="50.3,75.8 23.2,28.5 24.8,27.6 50.3,72.2 75.2,27.6 76.8,28.4 			"/>
		</g>
		<g>
			<rect x="24" y="49.1" class="st1" width="52" height="1.8"/>
		</g>
	</g>
</g>
<g id="Layer_2_2_">
	<g class="st2">
		<path class="st1" d="M11.889,88.982c0.387,0.129,0.645,0.387,0.903,0.774c0.258,0.387,0.645,0.903,0.903,1.548l1.548,3.096h-1.677
			l-1.29-3.096c-0.387-0.774-0.774-1.29-1.032-1.548c-0.258-0.258-0.903-0.258-1.548-0.258H8.019v4.773H6.6V83.048h3.483
			c1.29,0,2.193,0.258,2.838,0.774c0.645,0.516,0.903,1.29,0.903,2.451c0,0.774-0.129,1.29-0.516,1.806S12.534,88.853,11.889,88.982
			z M8.019,84.209v3.999h1.935c0.774,0,1.29-0.129,1.677-0.516c0.387-0.387,0.516-0.903,0.516-1.548
			c0-0.645-0.129-1.161-0.516-1.548c-0.387-0.387-0.903-0.516-1.677-0.516L8.019,84.209L8.019,84.209z"/>
		<path class="st1" d="M25.047,92.594v-2.967h-2.451v-1.29h3.87v4.902c-0.645,0.387-1.29,0.774-1.935,0.903S23.112,94.4,22.209,94.4
			c-1.806,0-3.096-0.516-4.128-1.548c-1.032-1.032-1.548-2.451-1.548-4.257s0.516-3.225,1.548-4.257s2.322-1.548,4.128-1.548
			c0.774,0,1.419,0.129,2.064,0.258c0.645,0.129,1.29,0.387,1.806,0.774v1.677c-0.516-0.516-1.161-0.903-1.806-1.032
			c-0.645-0.129-1.29-0.387-2.064-0.387c-1.419,0-2.451,0.387-3.096,1.161c-0.645,0.774-1.032,1.935-1.032,3.483
			s0.387,2.709,1.032,3.483c0.645,0.774,1.677,1.161,3.096,1.161c0.516,0,1.032,0,1.419-0.129
			C24.015,93.11,24.66,92.852,25.047,92.594z"/>
		<path class="st1" d="M32.142,82.919h1.677l4.257,11.223h-1.548l-0.903-2.838h-5.031l-1.032,2.838h-1.548L32.142,82.919z
			 M33.045,84.467l-2.064,5.676h4.128L33.045,84.467z"/>
	</g>
</g>
</svg>
