<?xml version="1.0" encoding="utf-8"?>
<!-- Generator: Adobe Illustrator 21.0.0, SVG Export Plug-In . SVG Version: 6.00 Build 0)  -->
<svg version="1.1" id="Layer_1" xmlns="http://www.w3.org/2000/svg" xmlns:xlink="http://www.w3.org/1999/xlink" x="0px" y="0px"
	 viewBox="0 0 100 100" style="enable-background:new 0 0 100 100;" xml:space="preserve">
<style type="text/css">
	.st0{fill:#24E629;}
	.st1{fill:#231F20;}
	.st2{enable-background:new    ;}
</style>
<g id="Layer_1_1_">
	<g id="Layer_2">
	</g>
	<g>
		<g>
			<rect x="0.9" y="0.9" class="st0" width="98.2" height="98.2"/>
			<path class="st1" d="M100,100H0V0h100V100z M1.8,98.2h96.4V1.8H1.8V98.2z"/>
		</g>
		<g>
			<polygon points="50.3,75.8 23.2,28.5 24.8,27.6 50.3,72.2 75.2,27.6 76.8,28.4 			"/>
		</g>
		<g>
			<rect x="24" y="49.1" width="52" height="1.8"/>
		</g>
	</g>
</g>
<g id="Layer_2_2_">
	<g class="st2">
		<path d="M10.701,90.19c0.254,0.086,0.501,0.27,0.741,0.551s0.481,0.668,0.724,1.16l1.201,2.391h-1.271l-1.119-2.244
			c-0.289-0.586-0.569-0.975-0.841-1.166s-0.642-0.287-1.11-0.287H7.736v3.697H6.553v-8.748h2.672c1,0,1.746,0.209,2.238,0.627
			s0.738,1.049,0.738,1.893c0,0.551-0.128,1.008-0.384,1.371S11.189,90.05,10.701,90.19z M7.736,86.517v3.105h1.488
			c0.57,0,1.001-0.132,1.292-0.396s0.437-0.651,0.437-1.163s-0.146-0.897-0.437-1.157s-0.722-0.39-1.292-0.39H7.736z"/>
		<path d="M20.855,93.044v-2.35h-1.934v-0.973h3.105v3.756c-0.457,0.324-0.961,0.569-1.512,0.735s-1.139,0.249-1.764,0.249
			c-1.367,0-2.437-0.399-3.208-1.198s-1.157-1.911-1.157-3.337c0-1.43,0.386-2.544,1.157-3.343s1.841-1.198,3.208-1.198
			c0.57,0,1.112,0.07,1.626,0.211s0.987,0.348,1.421,0.621v1.26c-0.438-0.371-0.902-0.65-1.395-0.838s-1.01-0.281-1.553-0.281
			c-1.07,0-1.874,0.299-2.411,0.896s-0.806,1.488-0.806,2.672c0,1.18,0.269,2.068,0.806,2.666s1.341,0.896,2.411,0.896
			c0.418,0,0.791-0.036,1.119-0.108S20.594,93.196,20.855,93.044z"/>
		<path d="M26.445,85.544h1.342l3.334,8.748h-1.23l-0.797-2.244H25.15l-0.797,2.244h-1.248L26.445,85.544z M27.113,86.71
			l-1.605,4.354h3.217L27.113,86.71z"/>
	</g>
</g>
</svg>
