<?xml version="1.0" encoding="utf-8"?>
<!-- Generator: Adobe Illustrator 21.0.0, SVG Export Plug-In . SVG Version: 6.00 Build 0)  -->
<svg version="1.1" id="Layer_1" xmlns="http://www.w3.org/2000/svg" xmlns:xlink="http://www.w3.org/1999/xlink" x="0px" y="0px"
	 viewBox="0 0 100 100" style="enable-background:new 0 0 100 100;" xml:space="preserve">
<style type="text/css">
	.st0{fill:none;}
	.st1{fill:#FFFFFF;}
	.st2{enable-background:new    ;}
</style>
<g id="Layer_1_1_">
	<g id="Layer_2">
	</g>
	<g>
		<g>
			<rect x="0.9" y="0.9" class="st0" width="98.2" height="98.2"/>
			<path class="st1" d="M100,100H0V0h100V100z M1.8,98.2h96.4V1.8H1.8V98.2z"/>
		</g>
		<g>
			<polygon class="st1" points="50.3,75.8 23.2,28.5 24.8,27.6 50.3,72.2 75.2,27.6 76.8,28.4 			"/>
		</g>
		<g>
			<rect x="24" y="49.1" class="st1" width="52" height="1.8"/>
		</g>
	</g>
</g>
<g id="Layer_2_2_">
	<g class="st2">
		<path class="st1" d="M10.7,90.2c0.3,0.1,0.5,0.3,0.7,0.6s0.5,0.7,0.7,1.2l1.2,2.4h-1.3L11,92c-0.3-0.6-0.6-1-0.8-1.2
			S9.5,90.6,9,90.6H7.7v3.7H6.6v-8.7h2.7c1,0,1.7,0.2,2.2,0.6s0.7,1,0.7,1.9c0,0.6-0.1,1-0.4,1.4S11.2,90.1,10.7,90.2z M7.7,86.5
			v3.1h1.5c0.6,0,1-0.1,1.3-0.4s0.4-0.7,0.4-1.2s-0.1-0.9-0.4-1.2s-0.7-0.4-1.3-0.4L7.7,86.5L7.7,86.5z"/>
		<path class="st1" d="M20.9,93v-2.3h-1.9v-1H22v3.8c-0.5,0.3-1,0.6-1.5,0.7s-1.1,0.2-1.8,0.2c-1.4,0-2.4-0.4-3.2-1.2
			s-1.2-1.9-1.2-3.3c0-1.4,0.4-2.5,1.2-3.3s1.8-1.2,3.2-1.2c0.6,0,1.1,0.1,1.6,0.2s1,0.3,1.4,0.6v1.3c-0.4-0.4-0.9-0.7-1.4-0.8
			s-1-0.3-1.6-0.3c-1.1,0-1.9,0.3-2.4,0.9s-0.8,1.5-0.8,2.7c0,1.2,0.3,2.1,0.8,2.7c0.5,0.6,1.3,0.9,2.4,0.9c0.4,0,0.8,0,1.1-0.1
			S20.6,93.2,20.9,93z"/>
		<path class="st1" d="M26.4,85.5h1.3l3.3,8.7h-1.2L29.1,92h-3.9l-0.8,2.2h-1.2L26.4,85.5z M27.1,86.7l-1.6,4.4h3.2L27.1,86.7z"/>
	</g>
</g>
</svg>
