<?xml version="1.0" encoding="utf-8"?>
<!-- Generator: Adobe Illustrator 21.0.0, SVG Export Plug-In . SVG Version: 6.00 Build 0)  -->
<svg version="1.1" id="Layer_1" xmlns="http://www.w3.org/2000/svg" xmlns:xlink="http://www.w3.org/1999/xlink" x="0px" y="0px"
	 viewBox="0 0 84.4 30.6" style="enable-background:new 0 0 84.4 30.6;" xml:space="preserve">
<style type="text/css">
	.st0{fill:none;stroke:#FFFFFF;stroke-miterlimit:10;}
	.st1{fill:#FFFFFF;}
</style>
<g id="Layer_1_1_">
	<line class="st0" x1="84.4" y1="15.3" x2="71.4" y2="15.3"/>
	<g>
		<g>
			<line class="st0" x1="12.5" y1="15.3" x2="0" y2="15.3"/>
			<g>
				<polygon class="st1" points="10.9,13 19.6,15.3 10.9,17.6 				"/>
			</g>
		</g>
	</g>
	<line class="st0" x1="41.8" y1="15.3" x2="28.9" y2="15.3"/>
	<circle class="st0" cx="56.6" cy="15.3" r="14.8"/>
	<line class="st0" x1="69.4" y1="7.8" x2="50.9" y2="1.6"/>
	<line class="st0" x1="69.4" y1="22.8" x2="50.9" y2="29"/>
	<g>
		<ellipse transform="matrix(0.7071 -0.7071 0.7071 0.7071 6.8344 41.5676)" class="st0" cx="53.6" cy="12.5" rx="1" ry="4.3"/>
		<ellipse transform="matrix(0.2588 -0.9659 0.9659 0.2588 22.0763 68.2752)" class="st0" cx="55.5" cy="19.8" rx="4.3" ry="1"/>
		<ellipse transform="matrix(0.9659 -0.2588 0.2588 0.9659 -1.6727 16.2311)" class="st0" cx="60.8" cy="14.5" rx="4.3" ry="1"/>
	</g>
</g>
<g id="Layer_2">
</g>
</svg>
