<?xml version="1.0" encoding="utf-8"?>
<!-- Generator: Adobe Illustrator 21.0.0, SVG Export Plug-In . SVG Version: 6.00 Build 0)  -->
<svg version="1.1" id="Layer_1" xmlns="http://www.w3.org/2000/svg" xmlns:xlink="http://www.w3.org/1999/xlink" x="0px" y="0px"
	 viewBox="0 0 65 36.8" style="enable-background:new 0 0 65 36.8;" xml:space="preserve">
<style type="text/css">
	.st0{clip-path:url(#SVGID_2_);fill:none;stroke:#FFFFFF;stroke-width:1.1;stroke-miterlimit:10;}
	.st1{fill:none;stroke:#FFFFFF;stroke-width:0.55;stroke-miterlimit:10;}
	.st2{fill:#FFFFFF;}
	.st3{clip-path:url(#SVGID_4_);fill:none;stroke:#FFFFFF;stroke-width:0.55;stroke-miterlimit:10;}
</style>
<g>
	<g>
		<defs>
			<rect id="SVGID_1_" y="0" width="65" height="36.8"/>
		</defs>
		<clipPath id="SVGID_2_">
			<use xlink:href="#SVGID_1_"  style="overflow:visible;"/>
		</clipPath>
		<path class="st0" d="M42,35.8l-9.5-5.5l9.5-5.5V35.8z M0,30.4h23 M42,30.4h23 M23,24.9l9.5,5.5L23,35.8V24.9z"/>
	</g>
</g>
<path class="st1" d="M45,8.4h8.5V28 M32.5,17.3v13"/>
<polygon class="st2" points="51.9,27.5 53.5,30.4 55.2,27.5 "/>
<polyline class="st1" points="19.7,8.4 11.3,8.4 11.3,28 "/>
<polygon class="st2" points="9.6,27.5 11.3,30.4 12.9,27.5 "/>
<g>
	<g>
		<defs>
			<rect id="SVGID_3_" y="0" width="65" height="36.8"/>
		</defs>
		<clipPath id="SVGID_4_">
			<use xlink:href="#SVGID_3_"  style="overflow:visible;"/>
		</clipPath>
		<path class="st3" d="M36.5,17.3h-8.2c-4.7,0-8.5-3.8-8.5-8.5s3.8-8.5,8.5-8.5h8.2c4.7,0,8.5,3.8,8.5,8.5S41.2,17.3,36.5,17.3z"/>
	</g>
</g>
<g>
	<path class="st2" d="M23.8,3.4h1.5c0.5,0,0.9,0.1,1.2,0.4c0.3,0.2,0.4,0.6,0.4,1.1c0,0.5-0.1,0.8-0.4,1.1c-0.3,0.2-0.7,0.4-1.2,0.4
		h-0.8v1.9h-0.7C23.8,8.2,23.8,3.4,23.8,3.4z M24.4,3.9v1.8h0.8c0.3,0,0.5-0.1,0.7-0.2c0.2-0.2,0.2-0.4,0.2-0.7
		c0-0.3-0.1-0.5-0.2-0.7c-0.2-0.2-0.4-0.2-0.7-0.2L24.4,3.9L24.4,3.9z"/>
	<path class="st2" d="M27.7,3.4h1.3c0.9,0,1.6,0.2,2.1,0.6s0.7,1,0.7,1.8c0,0.8-0.2,1.4-0.7,1.8c-0.4,0.4-1.1,0.6-2,0.6h-1.3V3.4z
		 M28.4,3.9v3.7h0.8c0.7,0,1.1-0.2,1.5-0.5s0.5-0.8,0.5-1.4c0-0.6-0.2-1.1-0.5-1.4c-0.3-0.3-0.8-0.4-1.5-0.4H28.4z"/>
	<path class="st2" d="M36.4,3.8v0.7C36.2,4.2,36,4.1,35.7,4s-0.5-0.2-0.8-0.2c-0.5,0-1,0.2-1.3,0.5c-0.3,0.3-0.4,0.8-0.4,1.5
		c0,0.6,0.1,1.1,0.4,1.5c0.3,0.3,0.7,0.5,1.3,0.5c0.3,0,0.5-0.1,0.8-0.2c0.2-0.1,0.5-0.3,0.7-0.5v0.7C36.2,8,36,8.1,35.7,8.2
		s-0.5,0.1-0.8,0.1c-0.7,0-1.3-0.2-1.7-0.7c-0.4-0.4-0.6-1.1-0.6-1.8c0-0.8,0.2-1.4,0.6-1.8c0.4-0.4,1-0.7,1.7-0.7
		c0.3,0,0.6,0,0.8,0.1C36,3.5,36.2,3.6,36.4,3.8z"/>
	<path class="st2" d="M38.7,8.2l-1.8-4.8h0.7L39,7.4l1.5-4.1h0.7l-1.8,4.8H38.7z"/>
	<path class="st2" d="M28,9.3c0.5,0,1,0.2,1.2,0.6s0.4,1,0.4,1.9c0,0.8-0.1,1.4-0.4,1.9c-0.3,0.4-0.7,0.6-1.2,0.6
		c-0.5,0-1-0.2-1.2-0.6c-0.3-0.4-0.4-1-0.4-1.9c0-0.8,0.1-1.4,0.4-1.9C27.1,9.5,27.5,9.3,28,9.3z M28,9.8c-0.3,0-0.6,0.2-0.8,0.5
		c-0.2,0.3-0.3,0.8-0.3,1.5c0,0.7,0.1,1.2,0.3,1.5c0.2,0.3,0.4,0.5,0.8,0.5c0.3,0,0.6-0.2,0.8-0.5c0.2-0.3,0.3-0.8,0.3-1.5
		c0-0.7-0.1-1.2-0.3-1.5C28.6,10,28.3,9.8,28,9.8z"/>
	<path class="st2" d="M32.2,9.3c0.5,0,1,0.2,1.2,0.6s0.4,1,0.4,1.9c0,0.8-0.1,1.4-0.4,1.9c-0.3,0.4-0.7,0.6-1.2,0.6
		c-0.5,0-1-0.2-1.2-0.6c-0.3-0.4-0.4-1-0.4-1.9c0-0.8,0.1-1.4,0.4-1.9C31.3,9.5,31.7,9.3,32.2,9.3z M32.2,9.8
		c-0.3,0-0.6,0.2-0.8,0.5c-0.2,0.3-0.3,0.8-0.3,1.5c0,0.7,0.1,1.2,0.3,1.5c0.2,0.3,0.4,0.5,0.8,0.5c0.3,0,0.6-0.2,0.8-0.5
		c0.2-0.3,0.3-0.8,0.3-1.5c0-0.7-0.1-1.2-0.3-1.5C32.8,10,32.5,9.8,32.2,9.8z"/>
	<path class="st2" d="M36.4,9.3c0.5,0,1,0.2,1.2,0.6c0.3,0.4,0.4,1,0.4,1.9c0,0.8-0.1,1.4-0.4,1.9c-0.3,0.4-0.7,0.6-1.2,0.6
		s-1-0.2-1.2-0.6c-0.3-0.4-0.4-1-0.4-1.9c0-0.8,0.1-1.4,0.4-1.9C35.5,9.5,35.9,9.3,36.4,9.3z M36.4,9.8c-0.3,0-0.6,0.2-0.8,0.5
		c-0.2,0.3-0.3,0.8-0.3,1.5c0,0.7,0.1,1.2,0.3,1.5s0.4,0.5,0.8,0.5c0.3,0,0.6-0.2,0.8-0.5s0.3-0.8,0.3-1.5c0-0.7-0.1-1.2-0.3-1.5
		C37,10,36.7,9.8,36.4,9.8z"/>
</g>
</svg>
