<?xml version="1.0" encoding="utf-8"?>
<!-- Generator: Adobe Illustrator 21.0.0, SVG Export Plug-In . SVG Version: 6.00 Build 0)  -->
<svg version="1.1" id="Layer_1" xmlns="http://www.w3.org/2000/svg" xmlns:xlink="http://www.w3.org/1999/xlink" x="0px" y="0px"
	 viewBox="0 0 34.3 29.4" style="enable-background:new 0 0 34.3 29.4;" xml:space="preserve">
<style type="text/css">
	.st0{fill:none;stroke:#FFFFFF;stroke-miterlimit:10;}
	.st1{fill:none;stroke:#FFFFFF;stroke-width:0.5;stroke-miterlimit:10;}
	.st2{fill:#FFFFFF;}
</style>
<line class="st0" x1="0" y1="28.9" x2="34.3" y2="28.9"/>
<path class="st1" d="M17.2,0.2c4.8,0,8.6,3.9,8.6,8.6s-3.9,8.6-8.6,8.6s-8.6-3.9-8.6-8.6S12.5,0.2,17.2,0.2"/>
<line class="st1" x1="17.1" y1="17.5" x2="17.1" y2="28.9"/>
<g>
	<path class="st2" d="M13.2,3.7h1.3c0.5,0,0.9,0.1,1.1,0.3C15.9,4.2,16,4.6,16,5c0,0.4-0.1,0.8-0.4,1s-0.6,0.3-1.1,0.3h-0.7v1.8
		h-0.6C13.2,8.1,13.2,3.7,13.2,3.7z M13.8,4.2v1.6h0.7c0.3,0,0.5-0.1,0.6-0.2s0.2-0.3,0.2-0.6c0-0.3-0.1-0.5-0.2-0.6
		s-0.4-0.2-0.6-0.2L13.8,4.2L13.8,4.2z"/>
	<path class="st2" d="M16.8,3.7h0.6v4.4h-0.6C16.8,8.1,16.8,3.7,16.8,3.7z"/>
	<path class="st2" d="M21.2,3.8v0.6c-0.2-0.1-0.4-0.2-0.6-0.2S20.2,4.1,20,4.1c-0.3,0-0.6,0.1-0.7,0.2S19,4.6,19,4.8
		c0,0.2,0.1,0.3,0.2,0.4s0.3,0.2,0.7,0.2l0.4,0.1c0.4,0.1,0.8,0.2,1,0.4s0.3,0.5,0.3,0.9c0,0.4-0.1,0.7-0.4,1
		c-0.3,0.2-0.7,0.3-1.2,0.3c-0.2,0-0.4,0-0.7-0.1S18.7,8,18.4,7.9V7.3c0.2,0.1,0.5,0.2,0.7,0.3s0.5,0.1,0.7,0.1
		c0.3,0,0.6-0.1,0.8-0.2s0.3-0.3,0.3-0.6c0-0.2-0.1-0.4-0.2-0.5S20.3,6.2,20,6.1l-0.4-0.1c-0.4-0.1-0.8-0.2-1-0.4s-0.3-0.4-0.3-0.8
		c0-0.4,0.1-0.7,0.4-0.9c0.3-0.2,0.6-0.3,1.1-0.3c0.2,0,0.4,0,0.6,0.1S21,3.8,21.2,3.8z"/>
	<path class="st2" d="M13.4,9.6c0.5,0,0.9,0.2,1.1,0.6s0.4,1,0.4,1.7c0,0.7-0.1,1.3-0.4,1.7s-0.6,0.6-1.1,0.6s-0.9-0.2-1.1-0.6
		s-0.4-0.9-0.4-1.7c0-0.7,0.1-1.3,0.4-1.7S12.9,9.6,13.4,9.6z M13.4,10.1c-0.3,0-0.5,0.1-0.7,0.4s-0.2,0.8-0.2,1.4
		c0,0.6,0.1,1,0.2,1.3s0.4,0.4,0.7,0.4c0.3,0,0.5-0.1,0.7-0.4s0.2-0.7,0.2-1.3c0-0.6-0.1-1.1-0.2-1.4S13.7,10.1,13.4,10.1z"/>
	<path class="st2" d="M17.2,9.6c0.5,0,0.9,0.2,1.1,0.6s0.4,1,0.4,1.7c0,0.7-0.1,1.3-0.4,1.7s-0.6,0.6-1.1,0.6s-0.9-0.2-1.1-0.6
		c-0.3-0.4-0.4-0.9-0.4-1.7c0-0.7,0.1-1.3,0.4-1.7S16.7,9.6,17.2,9.6z M17.2,10.1c-0.3,0-0.5,0.1-0.7,0.4s-0.2,0.8-0.2,1.4
		c0,0.6,0.1,1,0.2,1.3s0.4,0.4,0.7,0.4c0.3,0,0.5-0.1,0.7-0.4s0.2-0.7,0.2-1.3c0-0.6-0.1-1.1-0.2-1.4S17.5,10.1,17.2,10.1z"/>
	<path class="st2" d="M21.1,9.6c0.5,0,0.9,0.2,1.1,0.6s0.4,1,0.4,1.7c0,0.7-0.1,1.3-0.4,1.7s-0.6,0.6-1.1,0.6s-0.9-0.2-1.1-0.6
		s-0.4-0.9-0.4-1.7c0-0.7,0.1-1.3,0.4-1.7S20.6,9.6,21.1,9.6z M21.1,10.1c-0.3,0-0.5,0.1-0.7,0.4s-0.2,0.8-0.2,1.4
		c0,0.6,0.1,1,0.2,1.3s0.4,0.4,0.7,0.4c0.3,0,0.5-0.1,0.7-0.4s0.2-0.7,0.2-1.3c0-0.6-0.1-1.1-0.2-1.4S21.4,10.1,21.1,10.1z"/>
</g>
</svg>
