<?xml version="1.0" encoding="utf-8"?>
<!-- Generator: Adobe Illustrator 21.0.0, SVG Export Plug-In . SVG Version: 6.00 Build 0)  -->
<svg version="1.1" id="Layer_1" xmlns="http://www.w3.org/2000/svg" xmlns:xlink="http://www.w3.org/1999/xlink" x="0px" y="0px"
	 viewBox="0 0 35.5 39.5" style="enable-background:new 0 0 35.5 39.5;" xml:space="preserve">
<style type="text/css">
	.st0{fill:none;stroke:#FFFFFF;stroke-width:0.5;stroke-miterlimit:10;}
	.st1{fill:#FFFFFF;}
	.st2{fill:none;stroke:#FFFFFF;stroke-miterlimit:10;}
</style>
<path class="st0" d="M18,0.2c4.8,0,8.6,3.9,8.6,8.6s-3.9,8.6-8.6,8.6s-8.6-3.9-8.6-8.6S13.2,0.2,18,0.2"/>
<g>
	<g>
		<line class="st0" x1="17.9" y1="17.5" x2="17.9" y2="25.3"/>
		<g>
			<polygon class="st1" points="15.4,24.5 17.9,28.9 20.4,24.5 			"/>
		</g>
	</g>
</g>
<g>
	<g>
		<polygon class="st2" points="9.2,23.9 17.9,28.9 9.2,33.9 		"/>
	</g>
</g>
<g>
	<g>
		<polygon class="st2" points="26.5,33.9 17.9,28.9 26.5,23.9 		"/>
	</g>
</g>
<g>
	<g>
		<line class="st2" x1="0.2" y1="39" x2="30.1" y2="21.8"/>
		<g>
			<polygon class="st1" points="29.9,24.3 35.5,18.7 27.9,20.7 			"/>
		</g>
	</g>
</g>
<g>
	<path class="st1" d="M12.3,3.7h1.3c0.5,0,0.9,0.1,1.1,0.3s0.4,0.5,0.4,1c0,0.4-0.1,0.8-0.4,1s-0.6,0.3-1.1,0.3h-0.7v1.8h-0.6V3.7z
		 M12.9,4.2v1.6h0.7c0.3,0,0.5-0.1,0.6-0.2s0.2-0.3,0.2-0.6c0-0.3-0.1-0.5-0.2-0.6S14,4.2,13.7,4.2L12.9,4.2L12.9,4.2z"/>
	<path class="st1" d="M19.2,4v0.6c-0.2-0.2-0.4-0.3-0.6-0.4s-0.5-0.1-0.7-0.1c-0.5,0-0.9,0.2-1.1,0.5s-0.4,0.7-0.4,1.3
		c0,0.6,0.1,1,0.4,1.3s0.6,0.5,1.1,0.5c0.3,0,0.5,0,0.7-0.1s0.4-0.2,0.6-0.4v0.6C19,7.9,18.8,8,18.6,8c-0.2,0.1-0.5,0.1-0.7,0.1
		c-0.7,0-1.2-0.2-1.6-0.6c-0.4-0.4-0.6-1-0.6-1.7c0-0.7,0.2-1.3,0.6-1.7s0.9-0.6,1.6-0.6c0.3,0,0.5,0,0.7,0.1S19,3.9,19.2,4z"/>
	<path class="st1" d="M21.3,8.1l-1.7-4.4h0.6l1.4,3.7L23,3.7h0.6l-1.7,4.4H21.3z"/>
	<path class="st1" d="M13.9,9.6c0.5,0,0.9,0.2,1.1,0.6s0.4,1,0.4,1.7c0,0.7-0.1,1.3-0.4,1.7s-0.6,0.6-1.1,0.6S13,14,12.8,13.6
		s-0.4-0.9-0.4-1.7c0-0.7,0.1-1.3,0.4-1.7S13.4,9.6,13.9,9.6z M13.9,10.1c-0.3,0-0.5,0.1-0.7,0.4S13,11.3,13,11.9
		c0,0.6,0.1,1,0.2,1.3s0.4,0.4,0.7,0.4c0.3,0,0.5-0.1,0.7-0.4s0.2-0.7,0.2-1.3c0-0.6-0.1-1.1-0.2-1.4S14.2,10.1,13.9,10.1z"/>
	<path class="st1" d="M17.7,9.6c0.5,0,0.9,0.2,1.1,0.6s0.4,1,0.4,1.7c0,0.7-0.1,1.3-0.4,1.7s-0.6,0.6-1.1,0.6s-0.9-0.2-1.1-0.6
		s-0.4-0.9-0.4-1.7c0-0.7,0.1-1.3,0.4-1.7S17.2,9.6,17.7,9.6z M17.7,10.1c-0.3,0-0.5,0.1-0.7,0.4s-0.2,0.8-0.2,1.4
		c0,0.6,0.1,1,0.2,1.3s0.4,0.4,0.7,0.4c0.3,0,0.5-0.1,0.7-0.4s0.2-0.7,0.2-1.3c0-0.6-0.1-1.1-0.2-1.4S18,10.1,17.7,10.1z"/>
	<path class="st1" d="M21.5,9.6c0.5,0,0.9,0.2,1.1,0.6s0.4,1,0.4,1.7c0,0.7-0.1,1.3-0.4,1.7s-0.6,0.6-1.1,0.6s-0.9-0.2-1.1-0.6
		S20,12.6,20,11.9c0-0.7,0.1-1.3,0.4-1.7S21,9.6,21.5,9.6z M21.5,10.1c-0.3,0-0.5,0.1-0.7,0.4s-0.2,0.8-0.2,1.4c0,0.6,0.1,1,0.2,1.3
		s0.4,0.4,0.7,0.4c0.3,0,0.5-0.1,0.7-0.4s0.2-0.7,0.2-1.3c0-0.6-0.1-1.1-0.2-1.4S21.8,10.1,21.5,10.1z"/>
</g>
<line class="st2" x1="9.2" y1="28.5" x2="2.3" y2="28.5"/>
<line class="st2" x1="33.6" y1="28.5" x2="26.6" y2="28.5"/>
</svg>
