<?xml version="1.0" encoding="utf-8"?>
<!-- Generator: Adobe Illustrator 21.0.0, SVG Export Plug-In . SVG Version: 6.00 Build 0)  -->
<svg version="1.1" id="Layer_1" xmlns="http://www.w3.org/2000/svg" xmlns:xlink="http://www.w3.org/1999/xlink" x="0px" y="0px"
	 viewBox="0 0 34.3 29.5" style="enable-background:new 0 0 34.3 29.5;" xml:space="preserve">
<style type="text/css">
	.st0{fill:none;stroke:#FFFFFF;stroke-miterlimit:10;}
	.st1{fill:none;stroke:#FFFFFF;stroke-width:0.5;stroke-miterlimit:10;}
	.st2{fill:#FFFFFF;}
</style>
<line class="st0" x1="0" y1="29" x2="34.3" y2="29"/>
<path class="st1" d="M17.2,0.4c4.8,0,8.6,3.9,8.6,8.6s-3.9,8.6-8.6,8.6S8.6,13.8,8.6,9S12.5,0.4,17.2,0.4"/>
<line class="st1" x1="17.1" y1="17.7" x2="17.1" y2="29"/>
<g>
	<path class="st2" d="M11.1,4.7h1.3c0.5,0,0.9,0.1,1.1,0.3s0.4,0.5,0.4,1c0,0.4-0.1,0.8-0.4,1s-0.6,0.3-1.1,0.3h-0.7V9h-0.6
		C11.1,9,11.1,4.7,11.1,4.7z M11.7,5.2v1.6h0.7c0.3,0,0.5-0.1,0.6-0.2s0.2-0.3,0.2-0.6c0-0.3-0.1-0.5-0.2-0.6s-0.4-0.2-0.6-0.2
		L11.7,5.2L11.7,5.2z"/>
	<path class="st2" d="M14.7,4.7h0.6V9h-0.6V4.7z"/>
	<path class="st2" d="M19.1,4.8v0.6c-0.2-0.1-0.4-0.2-0.6-0.2s-0.4-0.1-0.6-0.1c-0.3,0-0.6,0.1-0.7,0.2s-0.3,0.3-0.3,0.5
		c0,0.2,0.1,0.3,0.2,0.4s0.3,0.2,0.7,0.2l0.4,0.1c0.4,0.1,0.8,0.2,1,0.4s0.3,0.5,0.3,0.9c0,0.4-0.1,0.7-0.4,1s-0.7,0.3-1.2,0.3
		c-0.2,0-0.4,0-0.7-0.1s-0.5-0.1-0.7-0.2V8.2c0.2,0.1,0.5,0.2,0.7,0.3s0.5,0.1,0.7,0.1c0.3,0,0.6-0.1,0.8-0.2s0.3-0.3,0.3-0.6
		c0-0.2-0.1-0.4-0.2-0.5c-0.1-0.1-0.3-0.2-0.6-0.3L17.6,7c-0.4-0.1-0.8-0.2-1-0.4s-0.3-0.4-0.3-0.8c0-0.4,0.1-0.7,0.4-0.9
		s0.6-0.3,1.1-0.3c0.2,0,0.4,0,0.6,0.1S18.9,4.7,19.1,4.8z"/>
	<path class="st2" d="M21.6,4.7h0.7L23.9,9h-0.6l-0.4-1.1h-2L20.5,9h-0.6L21.6,4.7z M21.9,5.3l-0.8,2.2h1.6L21.9,5.3z"/>
	<path class="st2" d="M13.4,10.6c0.5,0,0.9,0.2,1.1,0.6s0.4,1,0.4,1.7c0,0.7-0.1,1.3-0.4,1.7s-0.6,0.6-1.1,0.6s-0.9-0.2-1.1-0.6
		s-0.4-0.9-0.4-1.7c0-0.7,0.1-1.3,0.4-1.7S12.9,10.6,13.4,10.6z M13.4,11.1c-0.3,0-0.5,0.1-0.7,0.4s-0.2,0.8-0.2,1.4
		c0,0.6,0.1,1,0.2,1.3s0.4,0.4,0.7,0.4c0.3,0,0.5-0.1,0.7-0.4s0.2-0.7,0.2-1.3c0-0.6-0.1-1.1-0.2-1.4S13.7,11.1,13.4,11.1z"/>
	<path class="st2" d="M17.2,10.6c0.5,0,0.9,0.2,1.1,0.6s0.4,1,0.4,1.7c0,0.7-0.1,1.3-0.4,1.7s-0.6,0.6-1.1,0.6s-0.9-0.2-1.1-0.6
		c-0.3-0.4-0.4-0.9-0.4-1.7c0-0.7,0.1-1.3,0.4-1.7C16.4,10.8,16.7,10.6,17.2,10.6z M17.2,11.1c-0.3,0-0.5,0.1-0.7,0.4
		s-0.2,0.8-0.2,1.4c0,0.6,0.1,1,0.2,1.3s0.4,0.4,0.7,0.4c0.3,0,0.5-0.1,0.7-0.4s0.2-0.7,0.2-1.3c0-0.6-0.1-1.1-0.2-1.4
		S17.5,11.1,17.2,11.1z"/>
	<path class="st2" d="M21,10.6c0.5,0,0.9,0.2,1.1,0.6s0.4,1,0.4,1.7c0,0.7-0.1,1.3-0.4,1.7s-0.6,0.6-1.1,0.6s-0.9-0.2-1.1-0.6
		s-0.4-0.9-0.4-1.7c0-0.7,0.1-1.3,0.4-1.7S20.6,10.6,21,10.6z M21,11.1c-0.3,0-0.5,0.1-0.7,0.4s-0.2,0.8-0.2,1.4
		c0,0.6,0.1,1,0.2,1.3s0.4,0.4,0.7,0.4c0.3,0,0.5-0.1,0.7-0.4s0.2-0.7,0.2-1.3c0-0.6-0.1-1.1-0.2-1.4S21.4,11.1,21,11.1z"/>
</g>
<g>
	<path class="st2" d="M28.3,0.4h0.6v1.8h2.1V0.4h0.6v4.4h-0.6V2.7h-2.1v2.1h-0.6V0.4z"/>
</g>
<g>
	<path class="st2" d="M28.3,13.3h0.6v3.9H31v0.5h-2.7V13.3z"/>
</g>
</svg>
