<?xml version="1.0" encoding="utf-8"?>
<!-- Generator: Adobe Illustrator 21.0.0, SVG Export Plug-In . SVG Version: 6.00 Build 0)  -->
<svg version="1.1" xmlns="http://www.w3.org/2000/svg" xmlns:xlink="http://www.w3.org/1999/xlink" x="0px" y="0px"
	 viewBox="0 0 100 100" style="enable-background:new 0 0 100 100;" xml:space="preserve">
<style type="text/css">
	.st0{fill:none;}
	.st1{fill:#231F20;}
	.st2{fill:#FFFFFF;}
</style>
<g id="Layer_2">
</g>
<g id="Layer_1">
	<circle class="st0" cx="50" cy="50" r="49.1"/>
	<g>
		<g>
			<rect x="83.1" y="49.1" class="st1" width="16.9" height="1.7"/>
		</g>
		<g>
			<polygon class="st2" points="49.9,49.9 83,30.8 83,69.1 			"/>
			<path class="st1" d="M83.8,70.5L48.2,49.9l35.7-20.6V70.5z M51.5,49.9l30.6,17.7V32.3L51.5,49.9z"/>
		</g>
		<g>
			<rect x="49" y="83.1" class="st1" width="1.7" height="16.9"/>
		</g>
		<g>
			<polygon class="st2" points="49.9,49.9 69,83.1 30.7,83.1 			"/>
			<path class="st1" d="M70.5,83.9H29.2l20.6-35.7L70.5,83.9z M32.2,82.2h35.3L49.9,51.6L32.2,82.2z"/>
		</g>
		<g>
			<circle class="st1" cx="49.9" cy="49.9" r="4.8"/>
		</g>
		<g>
			<rect x="42.1" y="15.9" class="st1" width="15.6" height="1.7"/>
		</g>
		<g>
			<rect x="49" y="16.7" class="st1" width="1.7" height="33.2"/>
		</g>
	</g>
</g>
</svg>
