<?xml version="1.0" encoding="utf-8"?>
<!-- Generator: Adobe Illustrator 21.1.0, SVG Export Plug-In . SVG Version: 6.00 Build 0)  -->
<svg version="1.1" id="Layer_1" xmlns="http://www.w3.org/2000/svg" xmlns:xlink="http://www.w3.org/1999/xlink" x="0px" y="0px"
	 viewBox="0 0 16 16" style="enable-background:new 0 0 16 16;" xml:space="preserve">
<style type="text/css">
	.st0{fill:none;stroke:#000000;stroke-miterlimit:10;}
</style>
<path class="st0" d="M14.1813641,15.1155109H1.8186355C1.0903732,15.1155109,0.5,14.5251369,0.5,13.796875V2.203125
	c0-0.7282623,0.5903732-1.3186355,1.3186355-1.3186355h12.3627281C14.909627,0.8844895,15.5,1.4748627,15.5,2.203125v11.59375
	C15.5,14.5251369,14.909627,15.1155109,14.1813641,15.1155109z"/>
<g>
	<rect x="1.8440627" y="4.1909299" width="3.2562795" height="1.7654527"/>
	<rect x="6.3487134" y="4.1909299" width="3.2562795" height="1.7654527"/>
	<rect x="10.8996582" y="4.1909299" width="3.2562795" height="1.7654527"/>
</g>
<g>
	<rect x="1.8440627" y="7.8913188" width="3.2562795" height="1.7654527"/>
	<rect x="6.3487134" y="7.8913188" width="3.2562795" height="1.7654527"/>
	<rect x="10.8996582" y="7.8913188" width="3.2562795" height="1.7654527"/>
</g>
<g>
	<rect x="1.8440627" y="11.5917082" width="3.2562795" height="1.7654527"/>
	<rect x="6.3487134" y="11.5917082" width="3.2562795" height="1.7654527"/>
	<rect x="10.8996582" y="11.5917082" width="3.2562795" height="1.7654527"/>
</g>
</svg>
