<?xml version="1.0" encoding="utf-8"?>
<!-- Generator: Adobe Illustrator 21.0.0, SVG Export Plug-In . SVG Version: 6.00 Build 0)  -->
<svg version="1.1" xmlns="http://www.w3.org/2000/svg" xmlns:xlink="http://www.w3.org/1999/xlink" x="0px" y="0px"
	 viewBox="0 0 100 100" style="enable-background:new 0 0 100 100;" xml:space="preserve">
<style type="text/css">
	.st0{display:none;}
	.st1{display:inline;}
	.st2{fill:#231F20;}
	.st3{display:inline;fill:#FFFFFF;stroke:#000000;stroke-width:1.5;stroke-miterlimit:10;stroke-dasharray:1.5;}
	.st4{fill:none;stroke:#999999;stroke-width:1.8;stroke-miterlimit:10;}
	.st5{fill:none;stroke:#999999;stroke-width:1.8;stroke-miterlimit:10;stroke-dasharray:1.4,1.4;}
	.st6{fill:none;stroke:#999999;stroke-width:1.8;stroke-miterlimit:10;stroke-dasharray:1.5207,1.5207;}
	.st7{fill:none;stroke:#999999;stroke-width:1.8;stroke-miterlimit:10;stroke-dasharray:1.468,1.468;}
	.st8{fill:none;stroke:#999999;stroke-width:1.8;stroke-miterlimit:10;stroke-dasharray:1.6389,1.6389;}
	.st9{fill:none;stroke:#999999;stroke-width:1.8;stroke-miterlimit:10;stroke-dasharray:1.4533,1.4533;}
	.st10{fill:none;stroke:#999999;stroke-width:1.8;stroke-miterlimit:10;stroke-dasharray:1.3667,1.3667;}
	.st11{fill:#999999;}
</style>
<g id="Layer_1">
	<g id="Layer_1_1_" class="st0">
		<g id="Layer_2" class="st1">
		</g>
		<g class="st1">
			<rect y="49.2" class="st2" width="16.9" height="1.7"/>
		</g>
		<g class="st1">
			<rect x="42.2" y="28.1" class="st2" width="15.5" height="1.7"/>
		</g>
		<g class="st1">
			<rect x="42.2" y="4.8" class="st2" width="15.5" height="1.7"/>
		</g>
		<g class="st1">
			<rect x="42.2" y="4.8" class="st2" width="1.7" height="25"/>
		</g>
		<g class="st1">
			<rect x="56" y="4.8" class="st2" width="1.7" height="25"/>
		</g>
		<g class="st1">
			<rect x="49.2" y="28.9" class="st2" width="1.7" height="21.1"/>
		</g>
		<path class="st3" d="M0,50.1"/>
	</g>
	<g>
		<g>
			<line class="st4" x1="0" y1="50.1" x2="0.8" y2="50.1"/>
			<line class="st5" x1="2.1" y1="50.1" x2="15.4" y2="50.1"/>
			<line class="st4" x1="16.1" y1="50.1" x2="16.9" y2="50.1"/>
		</g>
	</g>
	<g>
		<g>
			<line class="st4" x1="83.1" y1="50.1" x2="83.8" y2="50.1"/>
			<line class="st5" x1="85.2" y1="50.1" x2="98.6" y2="50.1"/>
			<line class="st4" x1="99.2" y1="50.1" x2="100" y2="50.1"/>
		</g>
	</g>
	<g>
		<g>
			<line class="st6" x1="50" y1="50" x2="18.2" y2="31.7"/>
			<polyline class="st4" points="17.5,31.3 16.9,30.9 16.9,31.7 			"/>
			<line class="st7" x1="16.9" y1="33.1" x2="16.9" y2="67.6"/>
			<polyline class="st4" points="16.9,68.3 16.9,69.1 17.5,68.7 			"/>
			<line class="st6" x1="18.9" y1="68" x2="50" y2="50"/>
		</g>
	</g>
	<g>
		<g>
			<line class="st6" x1="50" y1="50" x2="81.8" y2="68.3"/>
			<polyline class="st4" points="82.5,68.7 83.1,69.1 83.1,68.3 			"/>
			<line class="st7" x1="83.1" y1="66.9" x2="83.1" y2="32.4"/>
			<polyline class="st4" points="83.1,31.7 83.1,30.9 82.5,31.3 			"/>
			<line class="st6" x1="81.1" y1="32" x2="50" y2="50"/>
		</g>
	</g>
	<g>
		<g>
			<line class="st4" x1="50" y1="28.9" x2="50" y2="29.7"/>
			<line class="st8" x1="50" y1="31.3" x2="50" y2="43.6"/>
			<line class="st4" x1="50" y1="44.5" x2="50" y2="45.2"/>
		</g>
	</g>
	<g>
		<g>
			<polyline class="st4" points="43.8,5.7 43.1,5.7 43.1,6.4 			"/>
			<line class="st9" x1="43.1" y1="7.9" x2="43.1" y2="27.5"/>
			<polyline class="st4" points="43.1,28.2 43.1,28.9 43.8,28.9 			"/>
			<line class="st10" x1="45.2" y1="28.9" x2="55.4" y2="28.9"/>
			<polyline class="st4" points="56.1,28.9 56.8,28.9 56.8,28.2 			"/>
			<line class="st9" x1="56.8" y1="26.7" x2="56.8" y2="7.1"/>
			<polyline class="st4" points="56.8,6.4 56.8,5.7 56.1,5.7 			"/>
			<line class="st10" x1="54.7" y1="5.7" x2="44.5" y2="5.7"/>
		</g>
	</g>
</g>
<g id="Layer_2_1_">
	<g>
		<g>
			<circle class="st11" cx="50" cy="50" r="4.8"/>
		</g>
	</g>
</g>
</svg>
