<?xml version="1.0" encoding="utf-8"?>
<!-- Generator: Adobe Illustrator 21.0.0, SVG Export Plug-In . SVG Version: 6.00 Build 0)  -->
<svg version="1.1" id="Layer_1" xmlns="http://www.w3.org/2000/svg" xmlns:xlink="http://www.w3.org/1999/xlink" x="0px" y="0px"
	 viewBox="0 0 100 100" style="enable-background:new 0 0 100 100;" xml:space="preserve">
<style type="text/css">
	.st0{fill:#FFFFFF;}
	.st1{fill:#231F20;}
	.st2{enable-background:new    ;}
</style>
<g id="Layer_1_1_">
	<g id="Layer_2">
	</g>
	<g>
		<g>
			<rect x="0.9" y="0.9" class="st0" width="98.2" height="98.2"/>
			<path class="st1" d="M100,100H0V0h100V100z M1.8,98.2h96.4V1.8H1.8V98.2z"/>
		</g>
		<g>
			<polygon points="50.3,75.8 23.2,28.5 24.8,27.6 50.3,72.2 75.2,27.6 76.8,28.4 			"/>
		</g>
		<g>
			<rect x="24" y="49.1" width="52" height="1.8"/>
		</g>
	</g>
</g>
<g id="Layer_2_2_">
	<g class="st2">
		<path d="M5.34,85.544h7.4v0.996H9.635v7.752H8.445V86.54H5.34V85.544z"/>
		<path d="M19.291,90.331v3.961h-1.078v-3.926c0-0.621-0.121-1.086-0.363-1.395s-0.605-0.463-1.09-0.463
			c-0.582,0-1.041,0.186-1.377,0.557s-0.504,0.877-0.504,1.518v3.709h-1.084v-9.117h1.084v3.574
			c0.258-0.395,0.562-0.689,0.911-0.885s0.753-0.293,1.21-0.293c0.754,0,1.324,0.233,1.711,0.7S19.291,89.425,19.291,90.331z"/>
	</g>
</g>
</svg>
