<?xml version="1.0" encoding="utf-8"?>
<!-- Generator: Adobe Illustrator 21.0.0, SVG Export Plug-In . SVG Version: 6.00 Build 0)  -->
<svg version="1.1" id="Layer_1" xmlns="http://www.w3.org/2000/svg" xmlns:xlink="http://www.w3.org/1999/xlink" x="0px" y="0px"
	 viewBox="0 0 100 100" style="enable-background:new 0 0 100 100;" xml:space="preserve">
<style type="text/css">
	.st0{fill:#FCF211;}
	.st1{fill:#000000;}
	.st2{enable-background:new    ;}
</style>
<g id="Layer_1_1_">
	<g id="Layer_2">
	</g>
	<g>
		<g>
			<rect x="0.9" y="0.9" class="st0" width="98.2" height="98.2"/>
			<path class="st1" d="M100,100H0V0h100V100z M1.8,98.2h96.4V1.8H1.8V98.2z"/>
		</g>
		<g>
			<polygon points="50.3,75.8 23.2,28.5 24.8,27.6 50.3,72.2 75.2,27.6 76.8,28.4 			"/>
		</g>
		<g>
			<rect x="24" y="49.1" width="52" height="1.8"/>
		</g>
	</g>
</g>
<g id="Layer_2_2_">
	<g class="st2">
		<path d="M5.3,85.5h7.4v1H9.6v7.8H8.4v-7.8H5.3V85.5z"/>
		<path d="M19.3,90.3v4h-1.1v-3.9c0-0.6-0.1-1.1-0.4-1.4s-0.6-0.5-1.1-0.5c-0.6,0-1,0.2-1.4,0.6s-0.5,0.9-0.5,1.5v3.7h-1.1v-9.1h1.1
			v3.6c0.3-0.4,0.6-0.7,0.9-0.9c0.3-0.2,0.8-0.3,1.2-0.3c0.8,0,1.3,0.2,1.7,0.7S19.3,89.4,19.3,90.3z"/>
	</g>
</g>
</svg>
