<?xml version="1.0" encoding="utf-8"?>
<!-- Generator: Adobe Illustrator 21.0.0, SVG Export Plug-In . SVG Version: 6.00 Build 0)  -->
<svg version="1.1" id="Layer_1" xmlns="http://www.w3.org/2000/svg" xmlns:xlink="http://www.w3.org/1999/xlink" x="0px" y="0px"
	 viewBox="0 0 100 100" style="enable-background:new 0 0 100 100;" xml:space="preserve">
<style type="text/css">
	.st0{fill:#FCF211;}
	.st1{fill:#96900A;}
	.st2{enable-background:new    ;}
</style>
<g id="Layer_1_1_">
	<g id="Layer_2">
	</g>
	<g>
		<g>
			<rect x="0.9" y="0.9" class="st0" width="98.2" height="98.2"/>
			<path class="st1" d="M100,100H0V0h100V100z M1.8,98.2h96.4V1.8H1.8V98.2z"/>
		</g>
		<g>
			<polygon points="50.3,75.8 23.2,28.5 24.8,27.6 50.3,72.2 75.2,27.6 76.8,28.4 			"/>
		</g>
		<g>
			<rect x="24" y="49.1" width="52" height="1.8"/>
		</g>
	</g>
</g>
<g id="Layer_2_2_">
	<g class="st2">
		<path d="M5.34,83.007h9.546v1.285h-4.005v10H9.345v-10H5.34V83.007z"/>
		<path d="M23.337,89.182v5.11h-1.391v-5.065c0-0.801-0.156-1.401-0.468-1.8s-0.78-0.597-1.406-0.597
			c-0.751,0-1.343,0.24-1.776,0.719s-0.65,1.131-0.65,1.958v4.785h-1.398V82.531h1.398v4.61c0.333-0.51,0.725-0.889,1.175-1.142
			c0.45-0.253,0.971-0.378,1.561-0.378c0.973,0,1.708,0.301,2.207,0.903C23.088,87.127,23.337,88.014,23.337,89.182z"/>
	</g>
</g>
</svg>
