<?xml version="1.0" encoding="utf-8"?>
<!-- Generator: Adobe Illustrator 21.0.0, SVG Export Plug-In . SVG Version: 6.00 Build 0)  -->
<svg version="1.1" id="Layer_1" xmlns="http://www.w3.org/2000/svg" xmlns:xlink="http://www.w3.org/1999/xlink" x="0px" y="0px"
	 viewBox="0 0 106.0230179 200" style="enable-background:new 0 0 106.0230179 200;" xml:space="preserve">
<style type="text/css">
	.st0{fill:#797979;}
	.st1{fill:none;stroke:#FFFFFF;stroke-width:1.5;stroke-linecap:round;stroke-linejoin:round;}
</style>
<g>
	<g id="XMLID_8_">
		<g>
			<polygon class="st0" points="45.1499786,94.0713272 45.3172455,98.3830872 45.2986603,102.7320175 45.0570526,107.1367035 
				44.5738411,111.5413895 43.9605293,115.4071121 43.2728767,118.7338562 42.3807869,122.2278671 41.321434,125.5174408 
				40.0390587,128.8813629 32.0846024,115.7602234 30.9137363,113.8273697 31.4898777,112.3591385 32.0102615,110.8165741 
				32.4563065,109.2182465 32.9209366,107.0066071 33.2368851,104.7020493 33.4413185,102.3603134 33.5156593,100 
				33.4413185,97.6396866 33.2368851,95.2979507 32.9209366,92.9933929 32.4563065,90.7817535 32.0102615,89.1834259 
				31.4898777,87.6408615 30.9137363,86.1726303 32.0846024,84.2397766 40.0204735,71.1372223 41.321434,74.4825592 
				42.4551277,78.0694962 43.4029732,81.8422852 44.1649666,85.782341 44.7596893,89.8710785 			"/>
			<polygon class="st0" points="35.8016357,63.4057922 37.4743042,66.0077209 29.9473076,84.2397766 29.2039013,83.0689087 
				28.4419079,82.0467224 27.642746,81.1732178 26.5276356,80.2439575 25.39394,79.5748978 24.223074,79.1846085 
				23.0336227,79.0359268 21.8441715,79.1846085 20.6733055,79.5748978 19.5396099,80.2439575 18.4244995,81.1732178 
				17.6253376,82.0467224 16.8633461,83.0689087 16.1199379,84.2397766 10.7116528,71.1186371 8.5929432,66.0077209 
				10.284194,63.4243774 12.0683708,61.1755714 13.9454737,59.2612991 15.9340868,57.7187309 17.9784565,56.5664482 
				20.0785809,55.7858734 22.2158756,55.4141693 24.408926,55.4699249 26.6019764,55.9717255 28.813612,56.9195671 
				30.7464695,58.1461906 32.4005508,59.521492 34.1475563,61.3242531 			"/>
			<polygon class="st0" points="29.9473076,115.7602234 37.4743042,133.9922791 35.7830505,136.5756226 33.9988747,138.8244324 
				32.1217728,140.7386932 30.1331596,142.2812653 28.1073761,143.433548 25.9886665,144.2141266 23.8513699,144.5858307 
				21.6583195,144.5300751 19.4652691,144.0282745 17.2536335,143.0804291 15.320776,141.8538055 13.6666956,140.4785004 
				11.9196892,138.6757507 10.284194,136.5942078 8.5929432,133.9922791 10.7116528,128.8627777 16.1199379,115.7602234 
				16.8633461,116.9310913 17.6253376,117.9532776 18.4244995,118.8267822 19.5396099,119.7560425 20.6733055,120.4251022 
				21.8441715,120.8153915 23.0336227,120.9640732 24.223074,120.8153915 25.39394,120.4251022 26.5276356,119.7560425 
				27.642746,118.8267822 28.4419079,117.9532776 29.2039013,116.9310913 			"/>
			<polygon class="st0" points="14.5587835,85.1876144 15.1535091,86.1726303 14.5773687,87.6408615 14.0569839,89.1834259 
				13.6295252,90.7817535 13.1463108,92.9933929 12.8303633,95.2979507 12.625926,97.6396866 12.5515852,100 12.625926,102.3603134 
				12.8303633,104.7020493 13.1463108,107.0066071 13.6295252,109.2182465 14.0569839,110.8165741 14.5773687,112.3591385 
				15.1535091,113.8273697 14.5587835,114.8123856 6.0467744,128.8627777 4.7458124,125.5174408 3.6121168,121.9305038 
				2.6642728,118.1577148 1.9022808,114.217659 1.3075552,110.1289215 0.9172665,105.9286728 0.75,101.6169128 
				0.7685851,97.2679825 1.0101924,92.8632965 1.4934069,88.4586105 2.1067176,84.5928879 2.794369,81.2661438 
				3.6864574,77.7721329 4.7458124,74.4825592 6.0281892,71.1186371 			"/>
		</g>
		<g>
			<polyline class="st1" points="97.4114914,133.9922791 37.4743042,133.9922791 35.7830505,136.5756226 33.9988747,138.8244324 
				32.1217728,140.7386932 30.1331596,142.2812653 28.1073761,143.433548 25.9886665,144.2141266 23.8513699,144.5858307 			"/>
			<line class="st1" x1="29.9473076" y1="84.2397766" x2="37.4743042" y2="66.0077209"/>
			<line class="st1" x1="37.4743042" y1="133.9922791" x2="29.9473076" y2="115.7602234"/>
			<polyline class="st1" points="6.0467744,128.8627777 14.5587835,114.8123856 15.1535091,113.8273697 14.5773687,112.3591385 
				14.0569839,110.8165741 13.6295252,109.2182465 13.1463108,107.0066071 12.8303633,104.7020493 12.625926,102.3603134 
				12.5515852,100 12.625926,97.6396866 12.8303633,95.2979507 13.1463108,92.9933929 13.6295252,90.7817535 14.0569839,89.1834259 
				14.5773687,87.6408615 15.1535091,86.1726303 14.5587835,85.1876144 6.0281892,71.1186371 			"/>
			<line class="st1" x1="16.1199379" y1="84.2397766" x2="29.9473076" y2="84.2397766"/>
			<polyline class="st1" points="95.292778,128.8813629 97.4114914,133.9922791 95.7388229,136.5756226 93.936058,138.8244324 
				92.05896,140.7386932 90.0889282,142.2812653 88.0445633,143.433548 85.9444351,144.2141266 83.788559,144.5858307 
				23.8513699,144.5858307 21.6583195,144.5300751 19.4652691,144.0282745 17.2536335,143.0804291 15.320776,141.8538055 
				13.6666956,140.4785004 11.9196892,138.6757507 10.284194,136.5942078 8.5929432,133.9922791 10.7116528,128.8627777 
				16.1199379,115.7602234 			"/>
			<polyline class="st1" points="40.0390587,128.8813629 41.321434,125.5174408 42.3807869,122.2278671 43.2728767,118.7338562 
				43.9605293,115.4071121 44.5738411,111.5413895 45.0570526,107.1367035 45.2986603,102.7320175 45.3172455,98.3830872 
				45.1499786,94.0713272 44.7596893,89.8710785 44.1649666,85.782341 43.4029732,81.8422852 42.4551277,78.0694962 
				41.321434,74.4825592 40.0204735,71.1372223 			"/>
			<polyline class="st1" points="99.9762421,71.1372223 101.2586212,74.4825592 102.3923111,78.0694962 103.3401566,81.8422852 
				104.1207352,85.782341 104.6968765,89.8710785 105.0871658,94.0713272 105.2730179,98.3830872 105.2358475,102.7320175 
				104.9942398,107.1367035 104.5110245,111.5413895 103.8977127,115.4071121 103.2100601,118.7338562 102.3179703,122.2278671 
				101.2772064,125.5174408 99.9762421,128.8813629 			"/>
			<polyline class="st1" points="6.0467744,128.8627777 4.7458124,125.5174408 3.6121168,121.9305038 2.6642728,118.1577148 
				1.9022808,114.217659 1.3075552,110.1289215 0.9172665,105.9286728 0.75,101.6169128 0.7685851,97.2679825 1.0101924,92.8632965 
				1.4934069,88.4586105 2.1067176,84.5928879 2.794369,81.2661438 3.6864574,77.7721329 4.7458124,74.4825592 
				6.0281892,71.1186371 			"/>
			<polyline class="st1" points="22.2158756,55.4141693 24.408926,55.4699249 26.6019764,55.9717255 28.813612,56.9195671 
				30.7464695,58.1461906 32.4005508,59.521492 34.1475563,61.3242531 35.8016357,63.4057922 37.4743042,66.0077209 
				97.4114914,66.0077209 			"/>
			<polyline class="st1" points="29.9473076,115.7602234 29.2039013,116.9310913 28.4419079,117.9532776 27.642746,118.8267822 
				26.5276356,119.7560425 25.39394,120.4251022 24.223074,120.8153915 23.0336227,120.9640732 21.8441715,120.8153915 
				20.6733055,120.4251022 19.5396099,119.7560425 18.4244995,118.8267822 17.6253376,117.9532776 16.8633461,116.9310913 
				16.1199379,115.7602234 			"/>
			<polyline class="st1" points="16.1199379,84.2397766 16.8633461,83.0689087 17.6253376,82.0467224 18.4244995,81.1732178 
				19.5396099,80.2439575 20.6733055,79.5748978 21.8441715,79.1846085 23.0336227,79.0359268 24.223074,79.1846085 
				25.39394,79.5748978 26.5276356,80.2439575 27.642746,81.1732178 28.4419079,82.0467224 29.2039013,83.0689087 
				29.9473076,84.2397766 32.0846024,84.2397766 			"/>
			<polyline class="st1" points="99.9762421,128.8813629 95.292778,128.8813629 40.0390587,128.8813629 32.0846024,115.7602234 
				30.9137363,113.8273697 31.4898777,112.3591385 32.0102615,110.8165741 32.4563065,109.2182465 32.9209366,107.0066071 
				33.2368851,104.7020493 33.4413185,102.3603134 33.5156593,100 33.4413185,97.6396866 33.2368851,95.2979507 
				32.9209366,92.9933929 32.4563065,90.7817535 32.0102615,89.1834259 31.4898777,87.6408615 30.9137363,86.1726303 
				32.0846024,84.2397766 40.0204735,71.1372223 95.292778,71.1372223 99.9762421,71.1372223 			"/>
			<polyline class="st1" points="16.1199379,84.2397766 10.7116528,71.1186371 8.5929432,66.0077209 10.284194,63.4243774 
				12.0683708,61.1755714 13.9454737,59.2612991 15.9340868,57.7187309 17.9784565,56.5664482 20.0785809,55.7858734 
				22.2158756,55.4141693 82.1716461,55.4141693 84.3461075,55.4699249 86.5391617,55.9717255 88.7507935,56.9195671 
				90.6836548,58.1461906 92.337738,59.521492 94.0847397,61.3242531 95.7388229,63.4057922 97.4114914,66.0077209 
				95.292778,71.1372223 			"/>
			<polyline class="st1" points="32.0846024,115.7602234 29.9473076,115.7602234 16.1199379,115.7602234 			"/>
		</g>
	</g>
</g>
</svg>
