<?xml version="1.0" encoding="utf-8"?>
<!-- Generator: Adobe Illustrator 21.0.0, SVG Export Plug-In . SVG Version: 6.00 Build 0)  -->
<svg version="1.1" id="Layer_1" xmlns="http://www.w3.org/2000/svg" xmlns:xlink="http://www.w3.org/1999/xlink" x="0px" y="0px"
	 viewBox="0 0 122.4750748 200" style="enable-background:new 0 0 122.4750748 200;" xml:space="preserve">
<style type="text/css">
	.st0{fill:#ECF0F1;}
	.st1{fill:none;stroke:#000000;stroke-width:1.5;stroke-linecap:round;stroke-linejoin:round;}
</style>
<g>
	<g id="XMLID_46_">
		<g>
			<polygon class="st0" points="114.8454361,121.1476212 114.3851776,120.9296112 113.9249191,120.6631393 113.4646606,120.3724518 
				113.0286255,120.0090942 112.5925903,119.6457291 112.1807861,119.2097015 111.7689743,118.7736664 111.3571625,118.2649612 
				110.9695816,117.7562561 110.5819931,117.1990967 110.2186356,116.5934982 109.8552704,115.9636688 109.5161362,115.3096237 
				109.2012177,114.6313477 108.8863068,113.9288483 108.5956192,113.1779022 108.3049316,112.4269562 108.0384674,111.6517868 
				107.7962265,110.8281631 107.5782089,110.0045471 107.3601913,109.1567001 107.1663971,108.2846375 106.9968262,107.4125671 
				106.8514862,106.5162811 106.7061386,105.5957642 106.6092453,104.6752472 106.5123444,103.7547302 106.4396744,102.8342209 
				106.3912277,101.8894806 106.3670044,100.9447403 106.3427811,100 106.3670044,99.0552597 106.3912277,98.1105194 
				106.4396744,97.1657791 106.5123444,96.2210464 106.6092453,95.3005295 106.7061386,94.3800125 106.8514862,93.4837189 
				106.9968262,92.5874329 107.1663971,91.6911392 107.3601913,90.8432999 107.5782089,89.9954529 107.7962265,89.1476135 
				108.0384674,88.3482132 108.3049316,87.5730438 108.5956192,86.7978745 108.8863068,86.0711517 109.2012177,85.344429 
				109.5161362,84.666153 109.8552704,84.0121078 110.2186356,83.3822784 110.5819931,82.8009033 110.9695816,82.2437439 
				111.3571625,81.7108154 111.7689743,81.2263336 112.1807861,80.7660751 112.5925903,80.3542709 113.0286255,79.9666824 
				113.4646606,79.6275482 113.9249191,79.3126297 114.3851776,79.0461655 114.8454361,78.8281479 115.305687,78.6585846 
				115.7659454,78.513237 116.2262039,78.3921204 116.7106857,78.3436661 117.1709442,78.3194427 117.1709442,95.0098419 
				117.0740509,95.0098419 116.9529266,95.0098419 116.8560333,95.0098419 116.7349091,95.0098419 116.6380157,95.0098419 
				116.5168915,95.0098419 116.3957748,95.0098419 116.2746506,95.0098419 116.1535339,95.0098419 116.0081863,95.0098419 
				115.8870697,95.0098419 115.7417221,95.0098419 115.5963821,95.0098419 115.4268112,95.0098419 115.2572403,95.0098419 
				115.087677,95.0098419 114.8938828,95.0098419 114.6758652,95.0098419 114.6758652,95.4216461 114.6758652,95.8092346 
				114.6758652,96.1483688 114.6758652,96.4875107 114.6758652,96.8024216 114.6758652,97.1173325 114.6758652,97.3837967 
				114.6758652,97.6744843 114.6758652,97.9167252 114.6758652,98.183197 114.6758652,98.4254379 114.6758652,98.6434479 
				114.6758652,98.8856888 114.6758652,99.1037064 114.6758652,99.3459473 114.6758652,99.5639648 114.6758652,99.7819824 
				114.6758652,100 114.6758652,100.2180176 114.6758652,100.4360352 114.6758652,100.6540527 114.6758652,100.8720703 
				114.6758652,101.0900803 114.6758652,101.3323212 114.6758652,101.5745621 114.6758652,101.816803 114.6758652,102.0590439 
				114.6758652,102.3255157 114.6758652,102.59198 114.6758652,102.8826675 114.6758652,103.1733551 114.6758652,103.488266 
				114.6758652,103.8274078 114.6758652,104.1907654 114.6758652,104.5783539 114.6758652,104.9901581 114.8938828,104.9901581 
				115.087677,104.9901581 115.2572403,104.9901581 115.4268112,104.9901581 115.5963821,104.9901581 115.7417221,104.9901581 
				115.8870697,104.9901581 116.0081863,104.9901581 116.1535339,104.9901581 116.2746506,104.9901581 116.3957748,104.9901581 
				116.5168915,104.9901581 116.6380157,104.9901581 116.7349091,104.9901581 116.8560333,104.9901581 116.9529266,104.9901581 
				117.0740509,104.9901581 117.1709442,104.9901581 117.1709442,121.6805573 116.7106857,121.6563339 116.2262039,121.5836563 
				115.7659454,121.486763 115.305687,121.3414154 			"/>
			<polygon class="st0" points="88.1020432,129.7713928 87.4479904,129.3353577 86.8181686,128.8508759 86.1883392,128.2937317 
				85.5827408,127.6881256 84.9771347,127.0340805 84.3957596,126.3315811 83.8386078,125.5806351 83.2814484,124.7570114 
				82.7485199,123.9091721 82.2398148,123.0128784 81.7553329,122.0681381 81.2708511,121.0991745 80.834816,120.0575409 
				80.3987885,118.991684 80.0112,117.9015961 79.6236115,116.7630692 79.2602539,115.6003113 78.945343,114.4133301 
				78.6304245,113.2021255 78.3639603,111.9424744 78.1217194,110.6828232 77.9037018,109.3747177 77.7825851,108.5995483 
				91.2269516,104.9174881 91.081604,102.3497391 92.4866028,102.3012848 92.5350494,102.3255157 92.5834961,102.3497391 
				92.6319504,102.3497391 92.680397,102.3739624 92.7288437,102.3739624 92.7772903,102.3739624 92.7772903,121.6805573 
				92.7772903,131.2248383 92.0990219,131.1763916 91.4207458,131.1037292 90.7424698,130.958374 90.0884171,130.7403564 
				89.4101486,130.4738922 88.7560959,130.1589813 			"/>
			<polygon class="st0" points="87.4479904,70.6646347 88.1020432,70.2043762 88.7560959,69.8410187 89.4101486,69.5018768 
				90.0884171,69.2354126 90.7424698,69.0416183 91.4207458,68.8962784 92.0990219,68.7993774 92.7772903,68.7751541 
				92.7772903,78.3194427 92.7772903,97.6018143 92.7288437,97.6018143 92.680397,97.6260376 92.6319504,97.6260376 
				92.5834961,97.6502609 92.5350494,97.6744843 92.4866028,97.6987152 92.4381561,97.7229385 92.3897095,97.7471619 
				92.3412552,97.7956085 92.2928085,97.8198318 92.2443619,97.8682785 92.1959152,97.9167252 92.1474686,97.9894028 
				92.0990219,98.0378494 92.0505676,98.1105194 92.0263443,98.1589661 91.9778976,98.2316437 91.9536743,98.3043137 
				91.9052277,98.3769836 91.8810043,98.4496613 91.83255,98.5465546 91.8083267,98.6192245 91.7841034,98.7161255 
				91.7598801,98.7887955 91.7356567,98.8856888 91.7114334,98.9825897 91.6872101,99.079483 91.6629868,99.176384 
				91.6387634,99.2732773 91.6387634,99.3701706 91.6145401,99.4670715 91.6145401,99.5881882 91.6145401,99.6850891 
				91.5903091,99.7819824 91.5903091,99.8788834 91.5903091,100 91.5903091,100.0968933 91.5903091,100.1937943 
				91.6145401,100.3149109 91.6145401,100.4118118 91.6145401,100.5087051 91.6387634,100.6055984 91.6387634,100.7024994 
				91.6629868,100.7993927 91.6872101,100.8962936 91.7114334,100.993187 91.7356567,101.0900803 91.7598801,101.1869812 
				91.7841034,101.2838745 91.8083267,101.3565521 91.83255,101.4534454 91.8810043,101.5261154 91.9052277,101.598793 
				91.9536743,101.671463 91.9778976,101.744133 92.0263443,101.816803 92.0505676,101.8894806 92.0990219,101.9379272 
				92.1474686,102.0105972 92.1959152,102.0590439 92.2443619,102.1074982 92.2928085,102.1559448 92.3412552,102.2043915 
				92.3897095,102.2286148 92.4381561,102.2770615 92.4866028,102.3012848 91.081604,102.3497391 90.9120407,102.3012848 
				90.8635864,102.2770615 90.8151398,102.2286148 90.7666931,102.2043915 90.7182465,102.1559448 90.6697998,102.1074982 
				90.6213455,102.0590439 90.5728989,102.0105972 90.5244522,101.9379272 90.5002289,101.8894806 90.4517822,101.816803 
				90.4033356,101.744133 90.3791046,101.671463 90.330658,101.598793 90.3064346,101.5261154 90.2822113,101.4534454 
				90.2337646,101.3565521 90.2095413,101.2838745 90.185318,101.1869812 90.1610947,101.0900803 90.1368637,100.993187 
				90.1126404,100.8962936 90.0884171,100.7993927 90.0884171,100.7024994 90.0641937,100.6055984 90.0399704,100.5087051 
				90.0399704,100.4118118 90.0399704,100.3149109 90.0399704,100.1937943 90.0157471,100.0968933 90.0157471,100 
				90.0157471,99.8788834 90.0399704,99.7819824 90.0399704,99.6850891 90.0399704,99.5881882 90.0399704,99.4670715 
				90.0641937,99.3701706 90.0884171,99.2732773 90.0884171,99.176384 90.1126404,99.079483 90.1368637,98.9825897 
				90.1610947,98.8856888 90.185318,98.7887955 90.2095413,98.7161255 90.2337646,98.6192245 90.2822113,98.5465546 
				90.3064346,98.4496613 90.330658,98.3769836 90.3791046,98.3043137 90.4033356,98.2316437 90.4517822,98.1589661 
				90.5002289,98.1105194 90.5244522,98.0378494 90.5728989,97.9894028 90.6213455,97.9167252 90.6697998,97.8682785 
				90.7182465,97.8198318 90.7666931,97.7956085 90.8151398,97.7471619 90.8635864,97.7229385 90.9120407,97.6987152 
				91.081604,97.6260376 91.2269516,95.0582886 77.7825851,91.3762283 77.9037018,90.601059 78.1217194,89.3171768 
				78.3639603,88.0333023 78.6304245,86.7978745 78.945343,85.5866699 79.2602539,84.3754654 79.6236115,83.2127075 
				80.0112,82.0741806 80.3987885,80.9840927 80.834816,79.9182358 81.2708511,78.9008255 81.7553329,77.9076385 
				82.2398148,76.9628983 82.7485199,76.0666046 83.2814484,75.2187653 83.8386078,74.4193649 84.3957596,73.6684189 
				84.9771347,72.9416962 85.5827408,72.2876511 86.1883392,71.7062683 86.8181686,71.1491165 			"/>
			<polygon class="st0" points="45.5161057,102.2770615 45.5645523,102.8342209 45.6372261,103.3913727 45.7098999,103.9485245 
				45.8067932,104.4814529 45.9036903,105.0386124 46.0248108,105.5473175 46.1459312,106.0560226 46.291275,106.5647278 
				46.4366226,107.0734329 46.6061897,107.5336914 46.7757568,107.9939499 46.9453278,108.4542084 47.1391182,108.8902359 
				47.3329124,109.3020477 47.55093,109.6896362 47.7689476,110.0772171 47.9869614,110.4405823 48.2049789,110.7797165 
				48.4472198,111.0946274 48.6894608,111.3853226 48.955925,111.6517868 49.1981659,111.918251 49.4646301,112.1362686 
				49.7310982,112.3542862 49.9975624,112.5480728 50.28825,112.6934204 50.5547142,112.8387604 50.8454056,112.9356613 
				51.1360931,113.0325546 51.4025574,113.1052322 51.6932487,113.1294556 51.9839363,113.1536789 51.9839363,115.6972046 
				51.9839363,126.2104568 51.4025574,126.1862335 50.8454056,126.1135635 50.2640266,125.9924393 49.706871,125.798645 
				49.1497192,125.5806351 48.5925636,125.3141708 48.0354118,124.9992523 47.5024796,124.6358948 46.9695511,124.1998596 
				46.4366226,123.7396011 45.9279137,123.2551193 45.4434319,122.6979675 44.9347267,122.0923615 44.474472,121.4625397 
				44.0142136,120.7842636 43.5539551,120.0817642 43.1421471,119.3308182 42.7303352,118.5314255 42.3185272,117.7078018 
				41.9551659,116.8357391 41.5918045,115.9394455 41.2526665,115.0189285 40.9377556,114.0741959 40.6470642,113.1052322 
				40.3563766,112.0878143 40.1141357,111.0704041 39.8718948,110.0287704 39.6781006,108.9629135 39.4843102,107.8728256 
				39.3389664,106.7827454 39.1936188,105.6684341 39.0724983,104.5541306 38.9998283,103.415596 38.9271545,102.2770615 
				38.9029312,101.1385345 38.8787079,100 38.9029312,98.8614655 38.9271545,97.6987152 38.9998283,96.584404 
				39.0724983,95.4458694 39.1936188,94.3315659 39.3389664,93.2172546 39.4843102,92.102951 39.6781006,91.0370865 
				39.8718948,89.9712296 40.1141357,88.9053726 40.3563766,87.8879547 40.6470642,86.8947678 40.9377556,85.9015808 
				41.2526665,84.9568405 41.5918045,84.0363312 41.9551659,83.1400375 42.3185272,82.2921982 42.7303352,81.4685745 
				43.1421471,80.6691818 43.5539551,79.9182358 44.0142136,79.1915131 44.474472,78.513237 44.9347267,77.8834152 
				45.4434319,77.3020325 45.9279137,76.7448807 46.4366226,76.2361755 46.9695511,75.7759171 47.5024796,75.3641052 
				48.0354118,75.0007477 48.5925636,74.6858292 49.1497192,74.3951416 49.706871,74.177124 50.2640266,74.0075607 
				50.8454056,73.8864365 51.4025574,73.8137665 51.9839363,73.7895432 51.9839363,84.3027954 51.9839363,86.8463211 
				51.6932487,86.8463211 51.4025574,86.8947678 51.1360931,86.943222 50.8454056,87.0401154 50.5547142,87.1612396 
				50.28825,87.2823563 49.9975624,87.4519272 49.7310982,87.6457138 49.4646301,87.8395081 49.1981659,88.081749 
				48.955925,88.3239899 48.6894608,88.6146774 48.4472198,88.9053726 48.2049789,89.2202835 47.9869614,89.5594177 
				47.7689476,89.9227829 47.55093,90.2861404 47.3329124,90.6979523 47.1391182,91.1097641 46.9453278,91.5457916 
				46.7757568,91.9818268 46.6061897,92.4420853 46.4366226,92.9265671 46.291275,93.4110489 46.1459312,93.919754 
				46.0248108,94.4284592 45.9036903,94.9613876 45.8067932,95.4943237 45.7098999,96.0272522 45.6372261,96.584404 
				45.5645523,97.1415558 45.5161057,97.6987152 45.467659,98.2800903 45.4434319,98.8372421 45.4192085,99.4186249 45.4192085,100 
				45.4192085,100.5571518 45.4434319,101.1385345 45.467659,101.7199097 			"/>
			<polygon class="st0" points="45.8067932,147.987915 44.7651596,147.6729889 43.7235222,147.2611847 42.7061119,146.7524872 
				41.6887016,146.1710968 40.6712875,145.4928284 39.7023277,144.7176514 38.7333641,143.869812 37.7886238,142.9250793 
				36.8681068,141.9318848 35.9475937,140.8175812 35.0755272,139.6548309 34.227684,138.3951721 33.4040642,137.0870667 
				32.6046677,135.6820679 31.8537235,134.2286224 31.1027756,132.7025146 30.4245014,131.1037292 29.891573,129.7956238 
				48.955925,129.7956238 48.955925,131.2248383 48.955925,148.3997192 47.9142914,148.3512726 46.8484306,148.2301483 			"/>
			<polygon class="st0" points="44.7651596,52.3270035 45.8067932,51.9878654 46.8484306,51.7698517 47.9142914,51.6245041 
				48.955925,51.5760574 48.955925,68.7751541 48.955925,70.2043762 29.891573,70.2043762 30.4245014,68.8720551 
				31.1027756,67.2974854 31.8537235,65.7713699 32.6046677,64.2937012 33.4040642,62.9129295 34.227684,61.5806046 
				35.0755272,60.3451767 35.9475937,59.1581955 36.8681068,58.0681114 37.7886238,57.0507011 38.7333641,56.1301842 
				39.7023277,55.2581177 40.6712875,54.5071716 41.6887016,53.8288956 42.7061119,53.2232933 43.7235222,52.7388153 			"/>
		</g>
		<g>
			<polyline class="st1" points="91.081604,102.3497391 51.9839363,113.1536789 51.6932487,113.1294556 51.4025574,113.1052322 
				51.1360931,113.0325546 50.8454056,112.9356613 50.5547142,112.8387604 50.28825,112.6934204 49.9975624,112.5480728 
				49.7310982,112.3542862 49.4646301,112.1362686 49.1981659,111.918251 48.955925,111.6517868 48.6894608,111.3853226 
				48.4472198,111.0946274 48.2049789,110.7797165 47.9869614,110.4405823 47.7689476,110.0772171 47.55093,109.6896362 
				47.3329124,109.3020477 47.1391182,108.8902359 46.9453278,108.4542084 46.7757568,107.9939499 46.6061897,107.5336914 
				46.4366226,107.0734329 46.291275,106.5647278 46.1459312,106.0560226 46.0248108,105.5473175 45.9036903,105.0386124 
				45.8067932,104.4814529 45.7098999,103.9485245 45.6372261,103.3913727 45.5645523,102.8342209 45.5161057,102.2770615 
				45.467659,101.7199097 45.4434319,101.1385345 45.4192085,100.5571518 45.4192085,100 45.4192085,99.4186249 
				45.4434319,98.8372421 45.467659,98.2800903 45.5161057,97.6987152 45.5645523,97.1415558 45.6372261,96.584404 
				45.7098999,96.0272522 45.8067932,95.4943237 45.9036903,94.9613876 46.0248108,94.4284592 46.1459312,93.919754 
				46.291275,93.4110489 46.4366226,92.9265671 46.6061897,92.4420853 46.7757568,91.9818268 46.9453278,91.5457916 
				47.1391182,91.1097641 47.3329124,90.6979523 47.55093,90.2861404 47.7689476,89.9227829 47.9869614,89.5594177 
				48.2049789,89.2202835 48.4472198,88.9053726 48.6894608,88.6146774 48.955925,88.3239899 49.1981659,88.081749 
				49.4646301,87.8395081 49.7310982,87.6457138 49.9975624,87.4519272 50.28825,87.2823563 50.5547142,87.1612396 
				50.8454056,87.0401154 51.1360931,86.943222 51.4025574,86.8947678 51.6932487,86.8463211 51.9839363,86.8463211 
				91.081604,97.6260376 			"/>
			<polyline class="st1" points="121.7250748,44.4299545 121.7250748,78.3194427 121.7250748,95.0098419 			"/>
			<polyline class="st1" points="121.7250748,155.5700531 92.7772903,155.5700531 91.5660858,155.5216064 90.3548813,155.3520355 
				89.1679077,155.0855713 87.9567032,154.7221985 86.769722,154.2619476 85.6069641,153.6805725 84.4442062,153.0022888 
				83.2814484,152.2271271 82.1429214,151.3308258 81.0528336,150.3618622 79.9627533,149.2960052 79.1633606,148.3997192 			"/>
			<line class="st1" x1="117.1709442" y1="121.6805573" x2="94.1096191" y2="121.6805573"/>
			<line class="st1" x1="94.1096191" y1="78.3194427" x2="117.1709442" y2="78.3194427"/>
			<polyline class="st1" points="92.7772903,102.3739624 92.7772903,121.6805573 92.7772903,131.2248383 			"/>
			<line class="st1" x1="94.1096191" y1="102.3739624" x2="94.1096191" y2="121.6805573"/>
			<line class="st1" x1="94.1096191" y1="78.3194427" x2="94.1096191" y2="97.6018143"/>
			<polyline class="st1" points="48.955925,148.3997192 48.955925,131.2248383 48.955925,129.7956238 			"/>
			<line class="st1" x1="117.1709442" y1="104.9901581" x2="117.1709442" y2="121.6805573"/>
			<polyline class="st1" points="121.7250748,104.9901581 121.7250748,121.6805573 121.7250748,155.5700531 			"/>
			<line class="st1" x1="117.1709442" y1="78.3194427" x2="117.1709442" y2="95.0098419"/>
			<line class="st1" x1="53.7522926" y1="126.2104568" x2="53.7522926" y2="115.1884995"/>
			<line class="st1" x1="53.7522926" y1="84.8115005" x2="53.7522926" y2="73.7895432"/>
			<polyline class="st1" points="51.9839363,126.2104568 51.9839363,115.6972046 51.9839363,113.1536789 			"/>
			<polyline class="st1" points="92.7772903,68.7751541 92.7772903,78.3194427 92.7772903,97.6018143 			"/>
			<polyline class="st1" points="91.2269516,95.0582886 91.081604,97.6260376 90.9120407,97.6987152 90.8635864,97.7229385 
				90.8151398,97.7471619 90.7666931,97.7956085 90.7182465,97.8198318 90.6697998,97.8682785 90.6213455,97.9167252 
				90.5728989,97.9894028 90.5244522,98.0378494 90.5002289,98.1105194 90.4517822,98.1589661 90.4033356,98.2316437 
				90.3791046,98.3043137 90.330658,98.3769836 90.3064346,98.4496613 90.2822113,98.5465546 90.2337646,98.6192245 
				90.2095413,98.7161255 90.185318,98.7887955 90.1610947,98.8856888 90.1368637,98.9825897 90.1126404,99.079483 
				90.0884171,99.176384 90.0884171,99.2732773 90.0641937,99.3701706 90.0399704,99.4670715 90.0399704,99.5881882 
				90.0399704,99.6850891 90.0399704,99.7819824 90.0157471,99.8788834 90.0157471,100 90.0157471,100.0968933 
				90.0399704,100.1937943 90.0399704,100.3149109 90.0399704,100.4118118 90.0399704,100.5087051 90.0641937,100.6055984 
				90.0884171,100.7024994 90.0884171,100.7993927 90.1126404,100.8962936 90.1368637,100.993187 90.1610947,101.0900803 
				90.185318,101.1869812 90.2095413,101.2838745 90.2337646,101.3565521 90.2822113,101.4534454 90.3064346,101.5261154 
				90.330658,101.598793 90.3791046,101.671463 90.4033356,101.744133 90.4517822,101.816803 90.5002289,101.8894806 
				90.5244522,101.9379272 90.5728989,102.0105972 90.6213455,102.0590439 90.6697998,102.1074982 90.7182465,102.1559448 
				90.7666931,102.2043915 90.8151398,102.2286148 90.8635864,102.2770615 90.9120407,102.3012848 91.081604,102.3497391 
				91.2269516,104.9174881 			"/>
			<polyline class="st1" points="51.9839363,86.8463211 51.9839363,84.3027954 51.9839363,73.7895432 			"/>
			<polyline class="st1" points="53.7522926,126.2104568 51.9839363,126.2104568 51.4025574,126.1862335 50.8454056,126.1135635 
				50.2640266,125.9924393 49.706871,125.798645 49.1497192,125.5806351 48.5925636,125.3141708 48.0354118,124.9992523 
				47.5024796,124.6358948 46.9695511,124.1998596 46.4366226,123.7396011 45.9279137,123.2551193 45.4434319,122.6979675 
				44.9347267,122.0923615 44.474472,121.4625397 44.0142136,120.7842636 43.5539551,120.0817642 43.1421471,119.3308182 
				42.7303352,118.5314255 42.3185272,117.7078018 41.9551659,116.8357391 41.5918045,115.9394455 41.2526665,115.0189285 
				40.9377556,114.0741959 40.6470642,113.1052322 40.3563766,112.0878143 40.1141357,111.0704041 39.8718948,110.0287704 
				39.6781006,108.9629135 39.4843102,107.8728256 39.3389664,106.7827454 39.1936188,105.6684341 39.0724983,104.5541306 
				38.9998283,103.415596 38.9271545,102.2770615 38.9029312,101.1385345 38.8787079,100 38.9029312,98.8614655 
				38.9271545,97.6987152 38.9998283,96.584404 39.0724983,95.4458694 39.1936188,94.3315659 39.3389664,93.2172546 
				39.4843102,92.102951 39.6781006,91.0370865 39.8718948,89.9712296 40.1141357,88.9053726 40.3563766,87.8879547 
				40.6470642,86.8947678 40.9377556,85.9015808 41.2526665,84.9568405 41.5918045,84.0363312 41.9551659,83.1400375 
				42.3185272,82.2921982 42.7303352,81.4685745 43.1421471,80.6691818 43.5539551,79.9182358 44.0142136,79.1915131 
				44.474472,78.513237 44.9347267,77.8834152 45.4434319,77.3020325 45.9279137,76.7448807 46.4366226,76.2361755 
				46.9695511,75.7759171 47.5024796,75.3641052 48.0354118,75.0007477 48.5925636,74.6858292 49.1497192,74.3951416 
				49.706871,74.177124 50.2640266,74.0075607 50.8454056,73.8864365 51.4025574,73.8137665 51.9839363,73.7895432 
				53.7522926,73.7895432 			"/>
			<polyline class="st1" points="50.5062675,127.8819199 48.955925,127.8819199 15.6235876,127.8819199 15.0179853,127.8576965 
				14.4123831,127.7608032 13.8067808,127.639679 13.2254028,127.4458847 12.6198006,127.2036438 12.0384226,126.9371796 
				11.4328203,126.573822 10.8756666,126.1862335 10.2942886,125.7501984 9.7371349,125.2657166 9.2042055,124.7327881 
				8.6712751,124.151413 8.1383457,123.5215836 7.6296396,122.8433075 7.1451578,122.1165848 6.6849003,121.3414154 
				6.2246428,120.5420227 5.7886095,119.7184067 5.3525758,118.822113 4.9649906,117.9258194 4.577405,116.9568558 
				4.2140441,115.9878922 3.8749068,114.9704819 3.5599937,113.9288483 3.2693048,112.8629913 3.0028398,111.7729034 
				2.7605989,110.6585999 2.5425823,109.5200653 2.3487895,108.3815308 2.1792209,107.2187805 2.0338764,106.0317993 
				1.912756,104.8448181 1.8158597,103.6336136 1.7431874,102.4224091 1.7189634,101.2112045 1.6947392,100 1.7189634,98.7887955 
				1.7431874,97.5533676 1.8158597,96.3663864 1.912756,95.1551819 2.0338764,93.9682007 2.1792209,92.7812195 
				2.3487895,91.6184692 2.5425823,90.4557114 2.7605989,89.3171768 3.0028398,88.2028732 3.2693048,87.1127853 
				3.5599937,86.0469284 3.8749068,85.0052948 4.2140441,84.0121078 4.577405,83.0189209 4.9649906,82.0741806 
				5.3525758,81.1536636 5.7886095,80.2815933 6.2246428,79.433754 6.6849003,78.6343613 7.1451578,77.8834152 
				7.6296396,77.1566925 8.1383457,76.4784164 8.6712751,75.848587 9.2042055,75.2672119 9.7371349,74.7342834 
				10.2942886,74.2255783 10.8756666,73.7895432 11.4328203,73.4019547 12.0384226,73.0628204 12.6198006,72.7721329 
				13.2254028,72.529892 13.8067808,72.360321 14.4123831,72.2149734 15.0179853,72.1423035 15.6235876,72.1180801 
				48.955925,72.1180801 50.5062675,72.1180801 			"/>
			<polyline class="st1" points="48.955925,70.2043762 48.955925,68.7751541 48.955925,51.5760574 			"/>
			<polyline class="st1" points="29.891573,70.2043762 30.4245014,68.8720551 31.1027756,67.2974854 31.8537235,65.7713699 
				32.6046677,64.2937012 33.4040642,62.9129295 34.227684,61.5806046 35.0755272,60.3451767 35.9475937,59.1581955 
				36.8681068,58.0681114 37.7886238,57.0507011 38.7333641,56.1301842 39.7023277,55.2581177 40.6712875,54.5071716 
				41.6887016,53.8288956 42.7061119,53.2232933 43.7235222,52.7388153 44.7651596,52.3270035 45.8067932,51.9878654 
				46.8484306,51.7698517 47.9142914,51.6245041 48.955925,51.5760574 79.1633606,51.5760574 92.7772903,51.5760574 
				92.7772903,44.4299545 			"/>
			<polyline class="st1" points="94.0127182,102.3739624 92.7772903,102.3739624 92.7288437,102.3739624 92.680397,102.3739624 
				92.6319504,102.3497391 92.5834961,102.3497391 92.5350494,102.3255157 92.4866028,102.3012848 92.4381561,102.2770615 
				92.3897095,102.2286148 92.3412552,102.2043915 92.2928085,102.1559448 92.2443619,102.1074982 92.1959152,102.0590439 
				92.1474686,102.0105972 92.0990219,101.9379272 92.0505676,101.8894806 92.0263443,101.816803 91.9778976,101.744133 
				91.9536743,101.671463 91.9052277,101.598793 91.8810043,101.5261154 91.83255,101.4534454 91.8083267,101.3565521 
				91.7841034,101.2838745 91.7598801,101.1869812 91.7356567,101.0900803 91.7114334,100.993187 91.6872101,100.8962936 
				91.6629868,100.7993927 91.6387634,100.7024994 91.6387634,100.6055984 91.6145401,100.5087051 91.6145401,100.4118118 
				91.6145401,100.3149109 91.5903091,100.1937943 91.5903091,100.0968933 91.5903091,100 91.5903091,99.8788834 
				91.5903091,99.7819824 91.6145401,99.6850891 91.6145401,99.5881882 91.6145401,99.4670715 91.6387634,99.3701706 
				91.6387634,99.2732773 91.6629868,99.176384 91.6872101,99.079483 91.7114334,98.9825897 91.7356567,98.8856888 
				91.7598801,98.7887955 91.7841034,98.7161255 91.8083267,98.6192245 91.83255,98.5465546 91.8810043,98.4496613 
				91.9052277,98.3769836 91.9536743,98.3043137 91.9778976,98.2316437 92.0263443,98.1589661 92.0505676,98.1105194 
				92.0990219,98.0378494 92.1474686,97.9894028 92.1959152,97.9167252 92.2443619,97.8682785 92.2928085,97.8198318 
				92.3412552,97.7956085 92.3897095,97.7471619 92.4381561,97.7229385 92.4866028,97.6987152 92.5350494,97.6744843 
				92.5834961,97.6502609 92.6319504,97.6260376 92.680397,97.6260376 92.7288437,97.6018143 92.7772903,97.6018143 
				94.0611725,97.6018143 94.0853958,97.6018143 94.1096191,97.6018143 			"/>
			<polyline class="st1" points="94.1096191,102.3739624 94.0853958,102.3739624 94.0611725,102.3739624 			"/>
			<polyline class="st1" points="79.1633606,51.5760574 79.9627533,50.7039909 81.0528336,49.6381302 82.1429214,48.6449432 
				83.2814484,47.7728767 84.4442062,46.9977074 85.6069641,46.3194313 86.769722,45.7380524 87.9567032,45.2535706 
				89.1679077,44.8902092 90.3548813,44.623745 91.5660858,44.4784012 92.7772903,44.4299545 121.7250748,44.4299545 			"/>
			<polyline class="st1" points="121.7250748,104.9901581 120.6834335,104.9901581 119.2299881,104.9901581 
				117.1709442,104.9901581 117.0740509,104.9901581 116.9529266,104.9901581 116.8560333,104.9901581 116.7349091,104.9901581 
				116.6380157,104.9901581 116.5168915,104.9901581 116.3957748,104.9901581 116.2746506,104.9901581 116.1535339,104.9901581 
				116.0081863,104.9901581 115.8870697,104.9901581 115.7417221,104.9901581 115.5963821,104.9901581 115.4268112,104.9901581 
				115.2572403,104.9901581 115.087677,104.9901581 114.8938828,104.9901581 114.6758652,104.9901581 			"/>
			<polyline class="st1" points="77.7825851,108.5995483 77.9037018,109.3747177 78.1217194,110.6828232 78.3639603,111.9424744 
				78.6304245,113.2021255 78.945343,114.4133301 79.2602539,115.6003113 79.6236115,116.7630692 80.0112,117.9015961 
				80.3987885,118.991684 80.834816,120.0575409 81.2708511,121.0991745 81.7553329,122.0681381 82.2398148,123.0128784 
				82.7485199,123.9091721 83.2814484,124.7570114 83.8386078,125.5806351 84.3957596,126.3315811 84.9771347,127.0340805 
				85.5827408,127.6881256 86.1883392,128.2937317 86.8181686,128.8508759 87.4479904,129.3353577 88.1020432,129.7713928 
				88.7560959,130.1589813 89.4101486,130.4738922 90.0884171,130.7403564 90.7424698,130.958374 91.4207458,131.1037292 
				92.0990219,131.1763916 92.7772903,131.2248383 			"/>
			<polyline class="st1" points="77.7825851,91.3762283 77.9037018,90.601059 78.1217194,89.3171768 78.3639603,88.0333023 
				78.6304245,86.7978745 78.945343,85.5866699 79.2602539,84.3754654 79.6236115,83.2127075 80.0112,82.0741806 
				80.3987885,80.9840927 80.834816,79.9182358 81.2708511,78.9008255 81.7553329,77.9076385 82.2398148,76.9628983 
				82.7485199,76.0666046 83.2814484,75.2187653 83.8386078,74.4193649 84.3957596,73.6684189 84.9771347,72.9416962 
				85.5827408,72.2876511 86.1883392,71.7062683 86.8181686,71.1491165 87.4479904,70.6646347 88.1020432,70.2043762 
				88.7560959,69.8410187 89.4101486,69.5018768 90.0884171,69.2354126 90.7424698,69.0416183 91.4207458,68.8962784 
				92.0990219,68.7993774 92.7772903,68.7751541 			"/>
			<polyline class="st1" points="92.7772903,68.7751541 50.5062675,68.7751541 50.5062675,72.1180801 49.9006653,72.1423035 
				49.295063,72.2149734 48.6894608,72.360321 48.0838585,72.529892 47.5024796,72.7721329 46.8968773,73.0628204 
				46.3155022,73.4019547 45.7341232,73.7895432 45.1769676,74.2255783 44.6198158,74.7342834 44.0626602,75.2672119 
				43.5297318,75.848587 43.0210266,76.4784164 42.5123215,77.1566925 42.0278397,77.8834152 41.5433578,78.6343613 
				41.0830994,79.433754 40.6470642,80.2815933 40.2352562,81.1536636 39.8234482,82.0741806 39.4600868,83.0189209 
				39.0967255,84.0121078 38.7575874,85.0052948 38.4426727,86.0469284 38.1519852,87.1127853 37.8855209,88.2028732 
				37.64328,89.3171768 37.4010391,90.4557114 37.2072449,91.6184692 37.0376778,92.7812195 36.892334,93.9682007 
				36.7712135,95.1551819 36.6985397,96.3663864 36.6258659,97.5533676 36.5774193,98.7887955 36.5774193,100 
				36.5774193,101.2112045 36.6258659,102.4224091 36.6985397,103.6336136 36.7712135,104.8448181 36.892334,106.0317993 
				37.0376778,107.2187805 37.2072449,108.3815308 37.4010391,109.5200653 37.64328,110.6585999 37.8855209,111.7729034 
				38.1519852,112.8629913 38.4426727,113.9288483 38.7575874,114.9704819 39.0967255,115.9878922 39.4600868,116.9568558 
				39.8234482,117.9258194 40.2352562,118.822113 40.6470642,119.7184067 41.0830994,120.5420227 41.5433578,121.3414154 
				42.0278397,122.1165848 42.5123215,122.8433075 43.0210266,123.5215836 43.5297318,124.151413 44.0626602,124.7327881 
				44.6198158,125.2657166 45.1769676,125.7501984 45.7341232,126.1862335 46.3155022,126.573822 46.8968773,126.9371796 
				47.5024796,127.2036438 48.0838585,127.4458847 48.6894608,127.639679 49.295063,127.7608032 49.9006653,127.8576965 
				50.1913528,127.8576965 50.5062675,127.8819199 50.5062675,131.2248383 92.7772903,131.2248383 			"/>
			<polyline class="st1" points="117.1709442,78.3194427 116.7106857,78.3436661 116.2262039,78.3921204 115.7659454,78.513237 
				115.305687,78.6585846 114.8454361,78.8281479 114.3851776,79.0461655 113.9249191,79.3126297 113.4646606,79.6275482 
				113.0286255,79.9666824 112.5925903,80.3542709 112.1807861,80.7660751 111.7689743,81.2263336 111.3571625,81.7108154 
				110.9695816,82.2437439 110.5819931,82.8009033 110.2186356,83.3822784 109.8552704,84.0121078 109.5161362,84.666153 
				109.2012177,85.344429 108.8863068,86.0711517 108.5956192,86.7978745 108.3049316,87.5730438 108.0384674,88.3482132 
				107.7962265,89.1476135 107.5782089,89.9954529 107.3601913,90.8432999 107.1663971,91.6911392 106.9968262,92.5874329 
				106.8514862,93.4837189 106.7061386,94.3800125 106.6092453,95.3005295 106.5123444,96.2210464 106.4396744,97.1657791 
				106.3912277,98.1105194 106.3670044,99.0552597 106.3427811,100 106.3670044,100.9447403 106.3912277,101.8894806 
				106.4396744,102.8342209 106.5123444,103.7547302 106.6092453,104.6752472 106.7061386,105.5957642 106.8514862,106.5162811 
				106.9968262,107.4125671 107.1663971,108.2846375 107.3601913,109.1567001 107.5782089,110.0045471 107.7962265,110.8281631 
				108.0384674,111.6517868 108.3049316,112.4269562 108.5956192,113.1779022 108.8863068,113.9288483 109.2012177,114.6313477 
				109.5161362,115.3096237 109.8552704,115.9636688 110.2186356,116.5934982 110.5819931,117.1990967 110.9695816,117.7562561 
				111.3571625,118.2649612 111.7689743,118.7736664 112.1807861,119.2097015 112.5925903,119.6457291 113.0286255,120.0090942 
				113.4646606,120.3724518 113.9249191,120.6631393 114.3851776,120.9296112 114.8454361,121.1476212 115.305687,121.3414154 
				115.7659454,121.486763 116.2262039,121.5836563 116.7106857,121.6563339 117.1709442,121.6805573 			"/>
			<polyline class="st1" points="119.2299881,95.0098419 119.2299881,95.4216461 119.2299881,95.8092346 119.2299881,96.1483688 
				119.2299881,96.4875107 119.2299881,96.8024216 119.2299881,97.1173325 119.2299881,97.3837967 119.2299881,97.6744843 
				119.2299881,97.9167252 119.2299881,98.183197 119.2299881,98.4254379 119.2299881,98.6434479 119.2299881,98.8856888 
				119.2299881,99.1037064 119.2299881,99.3459473 119.2299881,99.5639648 119.2299881,99.7819824 119.2299881,100 
				119.2299881,100.2180176 119.2299881,100.4360352 119.2299881,100.6540527 119.2299881,100.8720703 119.2299881,101.0900803 
				119.2299881,101.3323212 119.2299881,101.5745621 119.2299881,101.816803 119.2299881,102.0590439 119.2299881,102.3255157 
				119.2299881,102.59198 119.2299881,102.8826675 119.2299881,103.1733551 119.2299881,103.488266 119.2299881,103.8274078 
				119.2299881,104.1907654 119.2299881,104.5783539 119.2299881,104.9901581 			"/>
			<polyline class="st1" points="114.6758652,95.0098419 114.6758652,95.4216461 114.6758652,95.8092346 114.6758652,96.1483688 
				114.6758652,96.4875107 114.6758652,96.8024216 114.6758652,97.1173325 114.6758652,97.3837967 114.6758652,97.6744843 
				114.6758652,97.9167252 114.6758652,98.183197 114.6758652,98.4254379 114.6758652,98.6434479 114.6758652,98.8856888 
				114.6758652,99.1037064 114.6758652,99.3459473 114.6758652,99.5639648 114.6758652,99.7819824 114.6758652,100 
				114.6758652,100.2180176 114.6758652,100.4360352 114.6758652,100.6540527 114.6758652,100.8720703 114.6758652,101.0900803 
				114.6758652,101.3323212 114.6758652,101.5745621 114.6758652,101.816803 114.6758652,102.0590439 114.6758652,102.3255157 
				114.6758652,102.59198 114.6758652,102.8826675 114.6758652,103.1733551 114.6758652,103.488266 114.6758652,103.8274078 
				114.6758652,104.1907654 114.6758652,104.5783539 114.6758652,104.9901581 			"/>
			<polyline class="st1" points="114.6758652,95.0098419 114.8938828,95.0098419 115.087677,95.0098419 115.2572403,95.0098419 
				115.4268112,95.0098419 115.5963821,95.0098419 115.7417221,95.0098419 115.8870697,95.0098419 116.0081863,95.0098419 
				116.1535339,95.0098419 116.2746506,95.0098419 116.3957748,95.0098419 116.5168915,95.0098419 116.6380157,95.0098419 
				116.7349091,95.0098419 116.8560333,95.0098419 116.9529266,95.0098419 117.0740509,95.0098419 117.1709442,95.0098419 
				118.2368011,95.0098419 119.2299881,95.0098419 121.7250748,95.0098419 			"/>
			<polyline class="st1" points="94.0611725,97.6018143 94.0127182,97.6260376 93.9642715,97.6260376 93.9158249,97.6502609 
				93.8431549,97.6744843 93.7947006,97.6987152 93.746254,97.7229385 93.6978073,97.7471619 93.6493607,97.7956085 
				93.600914,97.8198318 93.5524597,97.8682785 93.5040131,97.9167252 93.4797897,97.9894028 93.4313431,98.0378494 
				93.3828964,98.1105194 93.3344498,98.1589661 93.3102188,98.2316437 93.2617722,98.3043137 93.2375488,98.3769836 
				93.1891022,98.4496613 93.1648788,98.5465546 93.1406555,98.6192245 93.1164322,98.7161255 93.0679779,98.7887955 
				93.0437546,98.8856888 93.0195312,98.9825897 93.0195312,99.079483 92.9953079,99.176384 92.9710846,99.2732773 
				92.9468613,99.3701706 92.9468613,99.4670715 92.9468613,99.5881882 92.9226379,99.6850891 92.9226379,99.7819824 
				92.9226379,99.8788834 92.9226379,100 92.9226379,100.0968933 92.9226379,100.1937943 92.9226379,100.3149109 
				92.9468613,100.4118118 92.9468613,100.5087051 92.9468613,100.6055984 92.9710846,100.7024994 92.9953079,100.7993927 
				93.0195312,100.8962936 93.0195312,100.993187 93.0437546,101.0900803 93.0679779,101.1869812 93.1164322,101.2838745 
				93.1406555,101.3565521 93.1648788,101.4534454 93.1891022,101.5261154 93.2375488,101.598793 93.2617722,101.671463 
				93.3102188,101.744133 93.3344498,101.816803 93.3828964,101.8894806 93.4313431,101.9379272 93.4797897,102.0105972 
				93.5040131,102.0590439 93.5524597,102.1074982 93.600914,102.1559448 93.6493607,102.2043915 93.6978073,102.2286148 
				93.746254,102.2770615 93.7947006,102.3012848 93.8431549,102.3255157 93.9158249,102.3497391 93.9642715,102.3497391 
				94.0127182,102.3739624 94.0611725,102.3739624 			"/>
			<polyline class="st1" points="29.891573,129.7956238 30.4245014,131.1037292 31.1027756,132.7025146 31.8537235,134.2286224 
				32.6046677,135.6820679 33.4040642,137.0870667 34.227684,138.3951721 35.0755272,139.6548309 35.9475937,140.8175812 
				36.8681068,141.9318848 37.7886238,142.9250793 38.7333641,143.869812 39.7023277,144.7176514 40.6712875,145.4928284 
				41.6887016,146.1710968 42.7061119,146.7524872 43.7235222,147.2611847 44.7651596,147.6729889 45.8067932,147.987915 
				46.8484306,148.2301483 47.9142914,148.3512726 48.955925,148.3997192 79.1633606,148.3997192 92.7772903,148.3997192 
				92.7772903,155.5700531 			"/>
			<polyline class="st1" points="53.7522926,84.8115005 77.7583618,91.3762283 77.7825851,91.3762283 91.2269516,95.0582886 			"/>
			<polyline class="st1" points="48.955925,129.7956238 29.891573,129.7956238 15.6235876,129.7956238 14.9937611,129.7471771 
				14.3397112,129.6744995 13.6856604,129.5291595 13.0558348,129.3353577 12.4017839,129.0688934 11.7719584,128.7782135 
				11.1663561,128.414856 10.5365295,127.9788132 9.9309273,127.5185623 9.3495493,126.9856262 8.7681713,126.4284744 
				8.1867933,125.798645 7.6296396,125.1203766 7.0967097,124.3936539 6.5637798,123.6184845 6.0550742,122.8190842 
				5.5705924,121.9470215 5.1103349,121.0507278 4.6500773,120.1302109 4.2140441,119.1370239 3.8264587,118.1196136 
				3.4388733,117.07798 3.0755119,116.0121155 2.7363749,114.8978119 2.4214618,113.7592773 2.1307728,112.5965271 
				1.8643079,111.3853226 1.6462911,110.174118 1.4282743,108.9629135 1.2587057,107.7032547 1.0891372,106.4436035 
				0.9680167,105.159729 0.8711204,103.8758545 0.7984481,102.59198 0.75,101.2838745 0.75,100 0.75,98.6919022 0.7984481,97.40802 
				0.8711204,96.0999222 0.9680167,94.8160477 1.0891372,93.5563965 1.2587057,92.2725143 1.4282743,91.0370865 
				1.6462911,89.8016586 1.8643079,88.5904541 2.1307728,87.4034729 2.4214618,86.2407227 2.7363749,85.1021881 
				3.0755119,83.9878845 3.4388733,82.8977966 3.8264587,81.856163 4.2140441,80.8387527 4.6500773,79.8697891 
				5.1103349,78.9250488 5.5705924,78.0287552 6.0550742,77.1809158 6.5637798,76.3572922 7.0967097,75.5821228 
				7.6296396,74.8796234 8.1867933,74.201355 8.7681713,73.5715256 9.3495493,72.9901505 9.9309273,72.4814377 
				10.5365295,71.9969635 11.1663561,71.5851517 11.7719584,71.2217865 12.4017839,70.9068756 13.0558348,70.6646347 
				13.6856604,70.4466171 14.3397112,70.3255005 14.9937611,70.2285995 15.6235876,70.2043762 29.891573,70.2043762 
				48.955925,70.2043762 			"/>
			<polyline class="st1" points="91.2269516,104.9174881 77.7825851,108.5995483 77.7583618,108.5995483 53.7522926,115.1884995 			
				"/>
		</g>
	</g>
</g>
</svg>
