<?xml version="1.0" encoding="utf-8"?>
<!-- Generator: Adobe Illustrator 21.0.0, SVG Export Plug-In . SVG Version: 6.00 Build 0)  -->
<svg version="1.1" id="Layer_1" xmlns="http://www.w3.org/2000/svg" xmlns:xlink="http://www.w3.org/1999/xlink" x="0px" y="0px"
	 viewBox="0 0 157.9344177 200" style="enable-background:new 0 0 157.9344177 200;" xml:space="preserve">
<style type="text/css">
	.st0{fill:#ECF0F1;}
	.st1{fill:none;stroke:#000000;stroke-width:1.5;stroke-linecap:round;stroke-linejoin:round;stroke-dasharray:2;}
	.st2{fill:none;stroke:#000000;stroke-width:1.5;stroke-linecap:round;stroke-linejoin:round;}
</style>
<g>
	<g id="XMLID_53_">
		<g>
			<polygon class="st0" points="58.0103569,121.5239105 58.0103569,122.3201981 57.9620972,122.3201981 57.648407,122.2478104 
				57.0451584,122.0788956 56.2488708,121.8858566 55.2595444,121.6445618 54.1736946,121.3550034 53.0395889,121.0654373 
				51.8813515,120.7758789 50.7713737,120.4863205 49.7820435,120.2450256 48.9374962,120.0278549 48.2859879,119.8589401 
				47.9240379,119.7624207 47.3931808,119.6176453 46.0177727,119.1109161 44.714756,118.4111481 43.4599991,117.5183411 
				42.2776337,116.4566193 41.1917839,115.2018661 40.1783295,113.7781982 39.2613907,112.2097549 38.4892311,110.4482651 
				37.8135948,108.5661316 37.2827339,106.5392151 36.896656,104.3433914 36.6794853,102.0269165 36.6070976,99.5897903 
				36.7277451,97.176796 37.0173035,94.9085846 37.4516449,92.7851486 38.0307617,90.7823639 38.7305298,88.9484863 
				39.5509491,87.2593918 40.4920158,85.7392044 41.5537338,84.3638 42.6637115,83.181427 43.8702087,82.1679688 
				45.1490974,81.3475571 46.4762421,80.6960449 47.8516502,80.2617035 48.0205612,80.2134476 48.4790268,80.0927963 
				49.2029266,79.8997574 50.0957336,79.6825867 51.1333237,79.41716 52.2674294,79.1276016 53.401535,78.8380432 
				54.5356445,78.5484772 55.5973625,78.2830505 56.5384293,78.041748 57.2864571,77.8728409 57.7931862,77.7280655 
				58.0103569,77.6798019 58.0103569,77.9211044 58.0103569,78.8621674 58.0103569,80.3340988 58.0103569,82.2403641 
				58.0103569,84.4844437 58.0103569,86.9457016 58.0103569,89.4793472 58.0103569,91.9888611 58.0103569,94.3294601 
				58.0103569,96.428772 58.0103569,98.1419907 58.0103569,99.3726196 58.0103569,99.9517365 58.0103569,100.1689072 
				58.0103569,100.9893265 58.0103569,102.3888626 58.0103569,104.2227402 58.0103569,106.4185638 58.0103569,108.85569 
				58.0103569,111.3893356 58.0103569,113.8988495 58.0103569,116.2877121 58.0103569,118.4352798 58.0103569,120.2208939 			"/>
			<polygon class="st0" points="40.5402756,42.7396431 40.5402756,42.8361626 40.5161476,43.4876709 40.4196281,44.6700401 
				40.3231087,46.286747 40.2024574,48.241272 40.0576782,50.4370956 39.912899,52.7294388 39.7681198,55.0217857 
				39.6233406,57.2176094 39.5026894,59.2203941 39.4061699,60.9094925 39.3096504,62.1883774 39.2613907,62.9364052 
				39.1889992,63.9981232 38.9477005,66.7248077 38.5857506,69.3308411 38.151413,71.8403549 37.6205521,74.2050934 
				36.9931755,76.4009171 36.2692757,78.4278336 35.4971199,80.2375793 34.6043091,81.8060226 33.6632423,83.1573029 
				32.6497841,84.1948853 31.5639381,84.9670486 30.4057007,85.4255142 29.1750736,85.5461655 27.9685764,85.304863 
				26.8344688,84.7498779 25.7727509,83.8811951 24.7834244,82.7229614 23.8664856,81.3234253 23.0219383,79.6584549 
				22.2497807,77.7763214 22.2256489,77.6798019 21.5741405,75.701149 20.970892,73.43293 20.4641647,71.0199356 
				20.0539551,68.48629 19.7402649,65.8320007 19.4989662,63.0811882 19.4989662,62.7433662 19.4265766,61.8022995 
				19.3300571,60.4027634 19.2335377,58.5930176 19.0887566,56.5178413 18.9439774,54.2496262 18.7991982,51.957283 
				18.6544189,49.6890678 18.5337677,47.5656319 18.4131184,45.7076263 18.3165989,44.2115707 18.2442093,43.1981125 
				18.2200794,42.7396431 18.3407288,42.7396431 18.823328,42.7396431 19.547226,42.7396431 20.5124245,42.7396431 
				21.6224003,42.7396431 22.8530293,42.7396431 24.131916,42.7396431 25.386673,42.7396431 26.5449104,42.7396431 
				27.6066265,42.7396431 28.4511757,42.7396431 29.0785542,42.7396431 29.3681126,42.7396431 29.464632,42.7396431 
				29.8748417,42.7396431 30.5746098,42.7396431 31.4915485,42.7396431 32.6015244,42.7396431 33.8080215,42.7396431 
				35.0869102,42.7396431 36.3416672,42.7396431 37.5240326,42.7396431 38.6098824,42.7396431 39.5026894,42.7396431 
				40.1541977,42.7396431 			"/>
			<polygon class="st0" points="40.5161476,156.8018799 40.5402756,157.2603607 40.4196281,157.2603607 39.9611588,157.2603607 
				39.213131,157.2603607 38.2720604,157.2603607 37.1379547,157.2603607 35.9073296,157.2603607 34.6525726,157.2603607 
				33.3978119,157.2603607 32.2154465,157.2603607 31.1778584,157.2603607 30.3091812,157.2603607 29.7059326,157.2603607 
				29.4163723,157.2603607 29.295723,157.2603607 28.8855133,157.2603607 28.2098751,157.2603607 27.2688084,157.2603607 
				26.1829605,157.2603607 24.9523335,157.2603607 23.6975765,157.2603607 22.4428196,157.2603607 21.2363224,157.2603607 
				20.1746044,157.2603607 19.2817974,157.2603607 18.6302891,157.2603607 18.2200794,157.2603607 18.2200794,157.1638336 
				18.2683392,156.5123291 18.3407288,155.3299561 18.4372482,153.7132568 18.5820274,151.758728 18.7026787,149.5870361 
				18.8474579,147.294693 18.9922371,144.9782104 19.1370163,142.7823944 19.2576675,140.7796021 19.3783169,139.0905151 
				19.4507065,137.8357544 19.4989662,137.0877228 19.5713558,136.0018768 19.8367863,133.2751923 20.1746044,130.6691589 
				20.6330738,128.1596375 21.1639328,125.7949066 21.7913113,123.5990829 22.2256489,122.3201981 22.4910793,121.5721664 
				23.2873669,119.7865524 24.1560459,118.1939774 25.0971127,116.8668289 26.1347008,115.8051147 27.2205486,115.0329514 
				28.3787861,114.5744858 29.5852833,114.4538345 30.7917805,114.695137 31.9258862,115.2501221 32.987606,116.1188049 
				34.0010605,117.2770386 34.9179993,118.7007065 35.7625465,120.3415451 36.5105782,122.2236786 37.2103462,124.3229828 
				37.789463,126.56707 38.2961922,128.9800568 38.7305298,131.5378418 39.04422,134.1921234 39.2613907,136.9429474 
				39.2855186,137.2566376 39.3337784,138.1977081 39.4302979,139.6213684 39.5509491,141.4069824 39.6716003,143.5062866 
				39.8163795,145.7503662 39.9611588,148.0668488 40.105938,150.3109283 40.2507172,152.4343719 40.3713684,154.2923737 
				40.4678879,155.7884369 			"/>
			<polygon class="st0" points="22.1049995,97.9730835 22.1532593,100.4102097 22.0326099,102.823204 21.7671814,105.0914154 
				21.3328419,107.2148514 20.7537231,109.2176361 20.0298252,111.0515137 19.2094059,112.7406082 18.2683392,114.2849274 
				17.230751,115.6362 16.0966434,116.818573 14.8901472,117.8320312 13.6353903,118.6765747 12.3082428,119.3039551 
				10.9328365,119.7624207 10.7639265,119.7865524 10.2813272,119.9072037 9.5815592,120.1002426 8.6887512,120.3174133 
				7.6511641,120.58284 6.5170565,120.8723984 5.358819,121.1619568 4.2247119,121.4515228 3.1629944,121.7169495 
				2.2460566,121.958252 1.4980283,122.1512909 0.8706497,122.2960663 0.75,122.0788956 0.75,121.1619568 0.75,119.6659012 
				0.75,117.7596359 0.75,115.5155563 0.75,113.0784302 0.75,110.5206528 0.75,108.0352707 0.75,105.6705399 0.75,103.571228 
				0.75,101.8580093 0.75,100.6515121 0.75,100.0482635 0.75,99.8310928 0.75,99.0106735 0.75,97.6352692 0.75,95.7772598 
				0.75,93.5814362 0.75,91.14431 0.75,88.6347961 0.75,86.1011505 0.75,83.7122879 0.75,81.5647202 0.75,79.7791061 
				0.75,78.4760895 0.75,77.6798019 0.7982599,77.6798019 1.2567288,77.7280655 1.7151978,77.9211044 2.5356159,78.1141434 
				3.5008135,78.37957 4.6107912,78.6449966 5.7448983,78.9345627 6.9031358,79.2241211 7.9889832,79.5136795 9.0024405,79.7549744 
				9.8469887,79.9721451 10.4743671,80.1410599 10.8363161,80.2375793 11.391305,80.3823547 12.7425823,80.8890839 
				14.045599,81.5888519 15.3003559,82.4816589 16.4827232,83.5675049 17.592701,84.7981339 18.6061573,86.2218018 
				19.4989662,87.8143768 20.2952538,89.5517349 20.9467621,91.4338684 21.4776211,93.4849167 21.8637009,95.6566086 			"/>
		</g>
		<g>
			<polyline class="st1" points="58.0103569,122.3201981 58.0103569,121.5239105 58.0103569,120.2208939 58.0103569,118.4352798 
				58.0103569,116.2877121 58.0103569,113.8988495 58.0103569,111.3893356 58.0103569,108.85569 58.0103569,106.4185638 
				58.0103569,104.2227402 58.0103569,102.3888626 58.0103569,100.9893265 58.0103569,100.1689072 58.0103569,99.9517365 
				58.0103569,99.3726196 58.0103569,98.1419907 58.0103569,96.428772 58.0103569,94.3294601 58.0103569,91.9888611 
				58.0103569,89.4793472 58.0103569,86.9457016 58.0103569,84.4844437 58.0103569,82.2403641 58.0103569,80.3340988 
				58.0103569,78.8621674 58.0103569,77.9211044 58.0103569,77.6798019 			"/>
			<polyline class="st1" points="116.0187378,122.3201981 116.2600403,122.3201981 116.8874207,122.3201981 
				117.5147934,122.3201981 118.1421738,122.3201981 118.7454224,122.3201981 119.3728027,122.3201981 120.0001831,122.3201981 
				120.6034317,122.3201981 121.2308121,122.3201981 121.8581848,122.3201981 122.4614334,122.3201981 123.0888138,122.3201981 
				123.7161942,122.3201981 124.3194427,122.3201981 124.9468231,122.3201981 125.5741959,122.3201981 126.1774445,122.3201981 
				126.8048248,122.3201981 127.4322052,122.3201981 128.0354462,122.3201981 128.6628265,122.3201981 129.2902069,122.3201981 
				129.9175873,122.3201981 130.5208435,122.3201981 131.1482086,122.3201981 131.775589,122.3201981 132.3788452,122.3201981 
				133.0062256,122.3201981 133.633606,122.3201981 134.2368469,122.3201981 134.8642273,122.3201981 135.4916077,122.3201981 
				135.7087708,122.3201981 136.0948486,122.3201981 136.722229,122.3201981 137.3496094,122.3201981 137.9528656,122.3201981 
				138.5802307,122.3201981 139.2076111,122.3201981 139.8108673,122.3201981 140.4382477,122.3201981 141.0656281,122.3201981 
				141.6929932,122.3201981 142.2962494,122.3201981 142.9236298,122.3201981 143.5510101,122.3201981 144.1542511,122.3201981 
				144.7816315,122.3201981 145.4090118,122.3201981 146.0122528,122.3201981 146.6396332,122.3201981 147.2670135,122.3201981 
				147.8702698,122.3201981 148.4976501,122.3201981 149.1250305,122.3201981 149.7282715,122.3201981 150.3556519,122.3201981 
				150.9830322,122.3201981 151.6104126,122.3201981 152.2136536,122.3201981 152.8410339,122.3201981 153.4684143,122.3201981 
				154.0716553,122.3201981 154.6990356,122.3201981 155.326416,122.3201981 155.9296722,122.3201981 156.5570526,122.3201981 
				157.1844177,122.3201981 157.1844177,77.6798019 156.5570526,77.6798019 155.9296722,77.6798019 155.326416,77.6798019 
				154.6990356,77.6798019 154.0716553,77.6798019 153.4684143,77.6798019 152.8410339,77.6798019 152.2136536,77.6798019 
				151.6104126,77.6798019 150.9830322,77.6798019 150.3556519,77.6798019 149.7282715,77.6798019 149.1250305,77.6798019 
				148.4976501,77.6798019 147.8702698,77.6798019 147.2670135,77.6798019 146.6396332,77.6798019 146.0122528,77.6798019 
				145.4090118,77.6798019 144.7816315,77.6798019 144.1542511,77.6798019 143.5510101,77.6798019 142.9236298,77.6798019 
				142.2962494,77.6798019 141.6929932,77.6798019 141.0656281,77.6798019 140.4382477,77.6798019 139.8108673,77.6798019 
				139.2076111,77.6798019 138.5802307,77.6798019 137.9528656,77.6798019 137.3496094,77.6798019 136.722229,77.6798019 
				136.0948486,77.6798019 135.7087708,77.6798019 135.4916077,77.6798019 134.8642273,77.6798019 134.2368469,77.6798019 
				133.633606,77.6798019 133.0062256,77.6798019 132.3788452,77.6798019 131.775589,77.6798019 131.1482086,77.6798019 
				130.5208435,77.6798019 129.9175873,77.6798019 129.2902069,77.6798019 128.6628265,77.6798019 128.0354462,77.6798019 
				127.4322052,77.6798019 126.8048248,77.6798019 126.1774445,77.6798019 125.5741959,77.6798019 124.9468231,77.6798019 
				124.3194427,77.6798019 123.7161942,77.6798019 123.0888138,77.6798019 122.4614334,77.6798019 121.8581848,77.6798019 
				121.2308121,77.6798019 120.6034317,77.6798019 120.0001831,77.6798019 119.3728027,77.6798019 118.7454224,77.6798019 
				118.1421738,77.6798019 117.5147934,77.6798019 116.8874207,77.6798019 116.2600403,77.6798019 115.9946136,77.6798019 
				115.6567917,77.6798019 115.0294113,77.6798019 114.4020309,77.6798019 113.7987823,77.6798019 113.1714096,77.6798019 
				112.5440292,77.6798019 111.9407806,77.6798019 111.3134003,77.6798019 110.6860199,77.6798019 110.0827713,77.6798019 
				109.4553986,77.6798019 108.8280182,77.6798019 108.2247696,77.6798019 107.5973892,77.6798019 106.9700089,77.6798019 
				106.3667603,77.6798019 105.7393875,77.6798019 105.1120071,77.6798019 104.4846268,77.6798019 103.8813782,77.6798019 
				103.2539978,77.6798019 102.6266251,77.6798019 102.0233765,77.6798019 101.3959961,77.6798019 100.7686157,77.6798019 
				100.1653671,77.6798019 99.99646,77.6798019 			"/>
			<polyline class="st1" points="99.9240646,122.3201981 100.1653671,122.3201981 100.7686157,122.3201981 101.3959961,122.3201981 
				102.0233765,122.3201981 102.6266251,122.3201981 103.2539978,122.3201981 103.8813782,122.3201981 104.4846268,122.3201981 
				105.1120071,122.3201981 105.7393875,122.3201981 106.3667603,122.3201981 106.9700089,122.3201981 107.5973892,122.3201981 
				108.2247696,122.3201981 108.8280182,122.3201981 109.4553986,122.3201981 110.0827713,122.3201981 110.6860199,122.3201981 
				111.3134003,122.3201981 111.9407806,122.3201981 112.5440292,122.3201981 113.1714096,122.3201981 113.7987823,122.3201981 
				114.4020309,122.3201981 115.0294113,122.3201981 115.6567917,122.3201981 115.9946136,122.3201981 			"/>
			<polyline class="st1" points="63.6808929,122.3201981 64.2117538,122.3201981 64.8391266,122.3201981 65.4423752,122.3201981 
				66.0697556,122.3201981 66.6971359,122.3201981 67.3003845,122.3201981 67.9277649,122.3201981 68.5551453,122.3201981 
				69.1583862,122.3201981 69.7857666,122.3201981 70.413147,122.3201981 71.0163956,122.3201981 71.6437759,122.3201981 
				72.2711563,122.3201981 72.8985291,122.3201981 73.5017776,122.3201981 74.129158,122.3201981 74.7565384,122.3201981 
				75.359787,122.3201981 75.9871674,122.3201981 76.6145401,122.3201981 77.2177887,122.3201981 77.8451691,122.3201981 
				78.4725494,122.3201981 79.075798,122.3201981 79.7031784,122.3201981 80.3305511,122.3201981 80.9337997,122.3201981 
				81.5611801,122.3201981 82.1885605,122.3201981 82.8159409,122.3201981 83.4191895,122.3201981 84.0465622,122.3201981 
				84.6739426,122.3201981 85.2771912,122.3201981 85.9045715,122.3201981 86.5319519,122.3201981 87.1352005,122.3201981 
				87.7625732,122.3201981 88.3899536,122.3201981 88.9932022,122.3201981 89.6205826,122.3201981 90.247963,122.3201981 
				90.8512115,122.3201981 91.4785843,122.3201981 92.1059647,122.3201981 92.7092133,122.3201981 93.3365936,122.3201981 
				93.963974,122.3201981 94.2776642,122.3201981 			"/>
			<polyline class="st1" points="58.0103569,77.6798019 57.7931862,77.7280655 57.2864571,77.8728409 56.5384293,78.041748 
				55.5973625,78.2830505 54.5356445,78.5484772 53.401535,78.8380432 52.2674294,79.1276016 51.1333237,79.41716 
				50.0957336,79.6825867 49.2029266,79.8997574 48.4790268,80.0927963 48.0205612,80.2134476 47.8516502,80.2617035 
				46.4762421,80.6960449 45.1490974,81.3475571 43.8702087,82.1679688 42.6637115,83.181427 41.5537338,84.3638 
				40.4920158,85.7392044 39.5509491,87.2593918 38.7305298,88.9484863 38.0307617,90.7823639 37.4516449,92.7851486 
				37.0173035,94.9085846 36.7277451,97.176796 36.6070976,99.5897903 36.6794853,102.0269165 36.896656,104.3433914 
				37.2827339,106.5392151 37.8135948,108.5661316 38.4892311,110.4482651 39.2613907,112.2097549 40.1783295,113.7781982 
				41.1917839,115.2018661 42.2776337,116.4566193 43.4599991,117.5183411 44.714756,118.4111481 46.0177727,119.1109161 
				47.3931808,119.6176453 47.9240379,119.7624207 48.2859879,119.8589401 48.9374962,120.0278549 49.7820435,120.2450256 
				50.7713737,120.4863205 51.8813515,120.7758789 53.0395889,121.0654373 54.1736946,121.3550034 55.2595444,121.6445618 
				56.2488708,121.8858566 57.0451584,122.0788956 57.648407,122.2478104 57.9620972,122.3201981 			"/>
			<polyline class="st1" points="94.2535324,77.6798019 93.963974,77.6798019 93.3365936,77.6798019 92.7092133,77.6798019 
				92.1059647,77.6798019 91.4785843,77.6798019 90.8512115,77.6798019 90.247963,77.6798019 89.6205826,77.6798019 
				88.9932022,77.6798019 88.3899536,77.6798019 87.7625732,77.6798019 87.1352005,77.6798019 86.5319519,77.6798019 
				85.9045715,77.6798019 85.2771912,77.6798019 84.6739426,77.6798019 84.0465622,77.6798019 83.4191895,77.6798019 
				82.8159409,77.6798019 82.1885605,77.6798019 81.5611801,77.6798019 80.9337997,77.6798019 80.3305511,77.6798019 
				79.7031784,77.6798019 79.075798,77.6798019 78.4725494,77.6798019 77.8451691,77.6798019 77.2177887,77.6798019 
				76.6145401,77.6798019 75.9871674,77.6798019 75.359787,77.6798019 74.7565384,77.6798019 74.129158,77.6798019 
				73.5017776,77.6798019 72.8985291,77.6798019 72.2711563,77.6798019 71.6437759,77.6798019 71.0163956,77.6798019 
				70.413147,77.6798019 69.7857666,77.6798019 69.1583862,77.6798019 68.5551453,77.6798019 67.9277649,77.6798019 
				67.3003845,77.6798019 66.6971359,77.6798019 66.0697556,77.6798019 65.4423752,77.6798019 64.8391266,77.6798019 
				64.2117538,77.6798019 63.6567612,77.6798019 			"/>
			<polyline class="st2" points="31.5639381,84.9670486 32.6497841,84.1948853 33.6632423,83.1573029 34.6043091,81.8060226 
				35.4971199,80.2375793 36.2692757,78.4278336 36.9931755,76.4009171 37.6205521,74.2050934 38.151413,71.8403549 
				38.5857506,69.3308411 38.9477005,66.7248077 39.1889992,63.9981232 39.2613907,62.9364052 39.3096504,62.1883774 
				39.4061699,60.9094925 39.5026894,59.2203941 39.6233406,57.2176094 39.7681198,55.0217857 39.912899,52.7294388 
				40.0576782,50.4370956 40.2024574,48.241272 40.3231087,46.286747 40.4196281,44.6700401 40.5161476,43.4876709 
				40.5402756,42.8361626 40.5402756,42.7396431 			"/>
			<line class="st2" x1="55.500843" y1="71.647316" x2="56.1040916" y2="71.8162231"/>
			<polyline class="st2" points="53.6910973,71.3818893 53.8358765,71.3577576 54.5115128,71.3577576 54.6562958,71.4060135 
				54.801075,71.454277 55.3078041,71.5749283 55.4525833,71.6231842 			"/>
			<polyline class="st2" points="54.3908653,128.6422424 54.3184738,128.6422424 53.5945778,128.6181183 			"/>
			<polyline class="st2" points="55.1871529,128.4733276 55.0182419,128.5215912 54.5356445,128.6181183 			"/>
			<line class="st2" x1="55.8386612" y1="128.3044281" x2="55.2354126" y2="128.4733276"/>
			<polyline class="st2" points="1.2567288,77.7280655 1.7151978,77.9211044 2.5356159,78.1141434 3.5008135,78.37957 
				4.6107912,78.6449966 5.7448983,78.9345627 6.9031358,79.2241211 7.9889832,79.5136795 9.0024405,79.7549744 
				9.8469887,79.9721451 10.4743671,80.1410599 10.8363161,80.2375793 11.391305,80.3823547 12.7425823,80.8890839 
				14.045599,81.5888519 15.3003559,82.4816589 16.4827232,83.5675049 17.592701,84.7981339 18.6061573,86.2218018 
				19.4989662,87.8143768 20.2952538,89.5517349 20.9467621,91.4338684 21.4776211,93.4849167 21.8637009,95.6566086 
				22.1049995,97.9730835 22.1532593,100.4102097 22.0326099,102.823204 21.7671814,105.0914154 21.3328419,107.2148514 
				20.7537231,109.2176361 20.0298252,111.0515137 19.2094059,112.7406082 18.2683392,114.2849274 17.230751,115.6362 
				16.0966434,116.818573 14.8901472,117.8320312 13.6353903,118.6765747 12.3082428,119.3039551 10.9328365,119.7624207 
				10.7639265,119.7865524 10.2813272,119.9072037 9.5815592,120.1002426 8.6887512,120.3174133 7.6511641,120.58284 
				6.5170565,120.8723984 5.358819,121.1619568 4.2247119,121.4515228 3.1629944,121.7169495 2.2460566,121.958252 
				1.4980283,122.1512909 0.8706497,122.2960663 0.75,122.0788956 0.75,121.1619568 0.75,119.6659012 0.75,117.7596359 
				0.75,115.5155563 0.75,113.0784302 0.75,110.5206528 0.75,108.0352707 0.75,105.6705399 0.75,103.571228 0.75,101.8580093 
				0.75,100.6515121 0.75,100.0482635 0.75,99.8310928 0.75,99.0106735 0.75,97.6352692 0.75,95.7772598 0.75,93.5814362 
				0.75,91.14431 0.75,88.6347961 0.75,86.1011505 0.75,83.7122879 0.75,81.5647202 0.75,79.7791061 0.75,78.4760895 
				0.75,77.6798019 			"/>
			<polyline class="st2" points="139.7143402,157.2603607 139.0869598,157.2603607 138.4837189,157.2603607 
				137.8563385,157.2603607 137.2289581,157.2603607 136.6257172,157.2603607 135.9983368,157.2603607 135.3709564,157.2603607 
				134.7677002,157.2603607 134.1403351,157.2603607 133.5129547,157.2603607 132.9096985,157.2603607 132.2823181,157.2603607 
				131.6549377,157.2603607 131.0275726,157.2603607 130.4243164,157.2603607 129.796936,157.2603607 129.1695557,157.2603607 
				128.5663147,157.2603607 127.9389343,157.2603607 127.311554,157.2603607 126.7083054,157.2603607 126.080925,157.2603607 
				125.4535446,157.2603607 124.850296,157.2603607 124.2229233,157.2603607 123.5955429,157.2603607 122.9922943,157.2603607 
				122.3649139,157.2603607 121.7375336,157.2603607 121.1101608,157.2603607 120.5069122,157.2603607 119.8795319,157.2603607 
				119.2521515,157.2603607 118.6489029,157.2603607 118.0215225,157.2603607 117.3941498,157.2603607 116.7909012,157.2603607 
				116.1635208,157.2603607 115.5361404,157.2603607 114.9328918,157.2603607 114.3055115,157.2603607 113.6781387,157.2603607 
				113.0748901,157.2603607 112.4475098,157.2603607 111.8201294,157.2603607 111.2168808,157.2603607 110.5895004,157.2603607 
				109.9621277,157.2603607 109.3347473,157.2603607 108.7314987,157.2603607 108.1041183,157.2603607 107.476738,157.2603607 
				106.8734894,157.2603607 106.2461166,157.2603607 105.6187363,157.2603607 105.0154877,157.2603607 104.3881073,157.2603607 
				103.7607269,157.2603607 103.1574783,157.2603607 102.5301056,157.2603607 101.9027252,157.2603607 101.2994766,157.2603607 
				100.6720963,157.2603607 100.0447159,157.2603607 99.4414673,157.2603607 98.8140869,157.2603607 98.1867142,157.2603607 
				97.5593338,157.2603607 96.9560852,157.2603607 96.3287048,157.2603607 95.7013245,157.2603607 95.0980759,157.2603607 
				94.4707031,157.2603607 93.8433228,157.2603607 93.2400742,157.2603607 92.6126938,157.2603607 91.9853134,157.2603607 
				91.3820648,157.2603607 90.7546921,157.2603607 90.1273117,157.2603607 89.5240631,157.2603607 88.8966827,157.2603607 
				88.2693024,157.2603607 87.6419296,157.2603607 87.038681,157.2603607 86.4113007,157.2603607 85.7839203,157.2603607 
				85.1806717,157.2603607 84.5532913,157.2603607 83.9259186,157.2603607 83.32267,157.2603607 82.6952896,157.2603607 
				82.0679092,157.2603607 81.4646606,157.2603607 80.8372803,157.2603607 80.2099075,157.2603607 79.6066589,157.2603607 
				78.9792786,157.2603607 78.3518982,157.2603607 77.7486496,157.2603607 77.1212692,157.2603607 76.4938965,157.2603607 
				75.8665161,157.2603607 75.2632675,157.2603607 74.6358871,157.2603607 74.0085068,157.2603607 73.4052582,157.2603607 
				72.7778778,157.2603607 72.1505051,157.2603607 71.5472565,157.2603607 70.9198761,157.2603607 70.2924957,157.2603607 
				69.6892471,157.2603607 69.0618668,157.2603607 68.434494,157.2603607 67.8312454,157.2603607 67.2038651,157.2603607 
				66.5764847,157.2603607 65.9732361,157.2603607 65.3458557,157.2603607 64.718483,157.2603607 64.0911026,157.2603607 
				63.487854,157.2603607 62.8604736,157.2603607 62.2330971,157.2603607 61.6298485,157.2603607 61.0024681,157.2603607 
				60.3750916,157.2603607 59.771843,157.2603607 59.1444626,157.2603607 58.517086,157.2603607 57.9138374,157.2603607 
				57.2864571,157.2603607 56.6590805,157.2603607 56.0558319,157.2603607 55.4284515,157.2603607 54.801075,157.2603607 
				54.1978264,157.2603607 53.570446,157.2603607 52.9430695,157.2603607 52.3156891,157.2603607 51.7124405,157.2603607 
				51.0850639,157.2603607 50.4576836,157.2603607 49.854435,157.2603607 49.2270584,157.2603607 48.599678,157.2603607 
				47.9964294,157.2603607 47.3690529,157.2603607 46.7416725,157.2603607 46.1384239,157.2603607 45.5110435,157.2603607 
				44.883667,157.2603607 44.2804184,157.2603607 43.653038,157.2603607 43.0256615,157.2603607 42.4224129,157.2603607 
				41.7950325,157.2603607 41.1676559,157.2603607 40.5402756,157.2603607 40.4196281,157.2603607 39.9611588,157.2603607 
				39.213131,157.2603607 38.2720604,157.2603607 37.1379547,157.2603607 35.9073296,157.2603607 34.6525726,157.2603607 
				33.3978119,157.2603607 32.2154465,157.2603607 31.1778584,157.2603607 30.3091812,157.2603607 29.7059326,157.2603607 
				29.4163723,157.2603607 29.295723,157.2603607 28.8855133,157.2603607 28.2098751,157.2603607 27.2688084,157.2603607 
				26.1829605,157.2603607 24.9523335,157.2603607 23.6975765,157.2603607 22.4428196,157.2603607 21.2363224,157.2603607 
				20.1746044,157.2603607 19.2817974,157.2603607 18.6302891,157.2603607 18.2200794,157.2603607 			"/>
			<polyline class="st2" points="40.5402756,157.2603607 40.5161476,156.8018799 40.4678879,155.7884369 40.3713684,154.2923737 
				40.2507172,152.4343719 40.105938,150.3109283 39.9611588,148.0668488 39.8163795,145.7503662 39.6716003,143.5062866 
				39.5509491,141.4069824 39.4302979,139.6213684 39.3337784,138.1977081 39.2855186,137.2566376 39.2613907,136.9429474 
				39.04422,134.1921234 38.7305298,131.5378418 38.2961922,128.9800568 37.789463,126.56707 37.2103462,124.3229828 
				36.5105782,122.2236786 35.7625465,120.3415451 34.9179993,118.7007065 34.0010605,117.2770386 32.987606,116.1188049 
				31.9258862,115.2501221 			"/>
			<polyline class="st2" points="22.2256489,122.3201981 21.839571,122.3201981 21.2121925,122.3201981 20.5848141,122.3201981 
				19.9815655,122.3201981 19.354187,122.3201981 18.7268085,122.3201981 18.12356,122.3201981 17.4961815,122.3201981 
				16.868803,122.3201981 16.2655544,122.3201981 15.638175,122.3201981 15.0107965,122.3201981 14.407548,122.3201981 
				13.7801695,122.3201981 13.152791,122.3201981 12.5254126,122.3201981 11.922164,122.3201981 11.2947855,122.3201981 
				10.667407,122.3201981 10.0641584,122.3201981 9.43678,122.3201981 8.8094015,122.3201981 8.2061529,122.3201981 
				7.578774,122.3201981 6.9513955,122.3201981 6.3481469,122.3201981 5.7207685,122.3201981 5.09339,122.3201981 
				4.4901414,122.3201981 3.8627627,122.3201981 3.2353842,122.3201981 2.6080058,122.3201981 2.0047572,122.3201981 
				1.3773786,122.3201981 0.8706497,122.3201981 0.75,122.3201981 			"/>
			<polyline class="st1" points="58.0103569,77.6798019 58.3964348,77.6798019 59.0238152,77.6798019 59.6511917,77.6798019 
				60.2544403,77.6798019 60.8818207,77.6798019 61.5091972,77.6798019 62.1124458,77.6798019 62.7398262,77.6798019 
				63.3672028,77.6798019 63.6567612,77.6798019 			"/>
			<polyline class="st2" points="41.9398155,77.6798019 42.2776337,77.6798019 42.9050102,77.6798019 43.5323906,77.6798019 
				44.1356392,77.6798019 44.7630157,77.6798019 45.3903961,77.6798019 45.9936447,77.6798019 46.6210213,77.6798019 
				47.2484016,77.6798019 47.8516502,77.6798019 48.4790268,77.6798019 49.1064072,77.6798019 49.7337837,77.6798019 
				50.3370323,77.6798019 50.9644127,77.6798019 51.5917892,77.6798019 52.1950378,77.6798019 52.8224182,77.6798019 
				53.4497986,77.6798019 54.0530472,77.6798019 54.6804237,77.6798019 55.3078041,77.6798019 55.9110527,77.6798019 
				56.5384293,77.6798019 57.1658096,77.6798019 57.7690582,77.6798019 58.0103569,77.6798019 			"/>
			<polyline class="st2" points="57.9620972,122.3201981 57.7690582,122.3201981 57.1658096,122.3201981 56.5384293,122.3201981 
				55.9110527,122.3201981 55.3078041,122.3201981 54.6804237,122.3201981 54.0530472,122.3201981 53.4497986,122.3201981 
				52.8224182,122.3201981 52.1950378,122.3201981 51.5917892,122.3201981 50.9644127,122.3201981 50.3370323,122.3201981 
				49.7337837,122.3201981 49.1064072,122.3201981 48.4790268,122.3201981 47.8516502,122.3201981 47.2484016,122.3201981 
				46.6210213,122.3201981 45.9936447,122.3201981 45.3903961,122.3201981 44.7630157,122.3201981 44.1356392,122.3201981 
				43.5323906,122.3201981 42.9050102,122.3201981 42.2776337,122.3201981 41.9398155,122.3201981 			"/>
			<polyline class="st1" points="63.6808929,122.3201981 63.3672028,122.3201981 62.7398262,122.3201981 62.1124458,122.3201981 
				61.5091972,122.3201981 60.8818207,122.3201981 60.2544403,122.3201981 59.6511917,122.3201981 59.0238152,122.3201981 
				58.3964348,122.3201981 58.0103569,122.3201981 57.9620972,122.3201981 			"/>
			<line class="st2" x1="111.0479736" y1="74.1326981" x2="111.675354" y2="74.5429077"/>
			<polyline class="st2" points="18.2200794,42.7396431 18.3407288,42.7396431 18.823328,42.7396431 19.547226,42.7396431 
				20.5124245,42.7396431 21.6224003,42.7396431 22.8530293,42.7396431 24.131916,42.7396431 25.386673,42.7396431 
				26.5449104,42.7396431 27.6066265,42.7396431 28.4511757,42.7396431 29.0785542,42.7396431 29.3681126,42.7396431 
				29.464632,42.7396431 29.8748417,42.7396431 30.5746098,42.7396431 31.4915485,42.7396431 32.6015244,42.7396431 
				33.8080215,42.7396431 35.0869102,42.7396431 36.3416672,42.7396431 37.5240326,42.7396431 38.6098824,42.7396431 
				39.5026894,42.7396431 40.1541977,42.7396431 40.5402756,42.7396431 41.1676559,42.7396431 41.7950325,42.7396431 
				42.4224129,42.7396431 43.0256615,42.7396431 43.653038,42.7396431 44.2804184,42.7396431 44.883667,42.7396431 
				45.5110435,42.7396431 46.1384239,42.7396431 46.7416725,42.7396431 47.3690529,42.7396431 47.9964294,42.7396431 
				48.599678,42.7396431 49.2270584,42.7396431 49.854435,42.7396431 50.4576836,42.7396431 51.0850639,42.7396431 
				51.7124405,42.7396431 52.3156891,42.7396431 52.9430695,42.7396431 53.570446,42.7396431 54.1978264,42.7396431 
				54.801075,42.7396431 55.4284515,42.7396431 56.0558319,42.7396431 56.6590805,42.7396431 57.2864571,42.7396431 
				57.9138374,42.7396431 58.517086,42.7396431 59.1444626,42.7396431 59.771843,42.7396431 60.3750916,42.7396431 
				61.0024681,42.7396431 61.6298485,42.7396431 62.2330971,42.7396431 62.8604736,42.7396431 63.487854,42.7396431 
				64.0911026,42.7396431 64.718483,42.7396431 65.3458557,42.7396431 65.9732361,42.7396431 66.5764847,42.7396431 
				67.2038651,42.7396431 67.8312454,42.7396431 68.434494,42.7396431 69.0618668,42.7396431 69.6892471,42.7396431 
				70.2924957,42.7396431 70.9198761,42.7396431 71.5472565,42.7396431 72.1505051,42.7396431 72.7778778,42.7396431 
				73.4052582,42.7396431 74.0085068,42.7396431 74.6358871,42.7396431 75.2632675,42.7396431 75.8665161,42.7396431 
				76.4938965,42.7396431 77.1212692,42.7396431 77.7486496,42.7396431 78.3518982,42.7396431 78.9792786,42.7396431 
				79.6066589,42.7396431 80.2099075,42.7396431 80.8372803,42.7396431 81.4646606,42.7396431 82.0679092,42.7396431 
				82.6952896,42.7396431 83.32267,42.7396431 83.9259186,42.7396431 84.5532913,42.7396431 85.1806717,42.7396431 
				85.7839203,42.7396431 86.4113007,42.7396431 87.038681,42.7396431 87.6419296,42.7396431 88.2693024,42.7396431 
				88.8966827,42.7396431 89.5240631,42.7396431 90.1273117,42.7396431 90.7546921,42.7396431 91.3820648,42.7396431 
				91.9853134,42.7396431 92.6126938,42.7396431 93.2400742,42.7396431 93.8433228,42.7396431 94.4707031,42.7396431 
				95.0980759,42.7396431 95.7013245,42.7396431 96.3287048,42.7396431 96.9560852,42.7396431 97.5593338,42.7396431 
				98.1867142,42.7396431 98.8140869,42.7396431 99.4414673,42.7396431 100.0447159,42.7396431 100.6720963,42.7396431 
				101.2994766,42.7396431 101.9027252,42.7396431 102.5301056,42.7396431 103.1574783,42.7396431 103.7607269,42.7396431 
				104.3881073,42.7396431 105.0154877,42.7396431 105.6187363,42.7396431 106.2461166,42.7396431 106.8734894,42.7396431 
				107.476738,42.7396431 108.1041183,42.7396431 108.7314987,42.7396431 109.3347473,42.7396431 109.9621277,42.7396431 
				110.5895004,42.7396431 111.2168808,42.7396431 111.8201294,42.7396431 112.4475098,42.7396431 113.0748901,42.7396431 
				113.6781387,42.7396431 114.3055115,42.7396431 114.9328918,42.7396431 115.5361404,42.7396431 116.1635208,42.7396431 
				116.7909012,42.7396431 117.3941498,42.7396431 118.0215225,42.7396431 118.6489029,42.7396431 119.2521515,42.7396431 
				119.8795319,42.7396431 120.5069122,42.7396431 121.1101608,42.7396431 121.7375336,42.7396431 122.3649139,42.7396431 
				122.9922943,42.7396431 123.5955429,42.7396431 124.2229233,42.7396431 124.850296,42.7396431 125.4535446,42.7396431 
				126.080925,42.7396431 126.7083054,42.7396431 127.311554,42.7396431 127.9389343,42.7396431 128.5663147,42.7396431 
				129.1695557,42.7396431 129.796936,42.7396431 130.4243164,42.7396431 131.0275726,42.7396431 131.6549377,42.7396431 
				132.2823181,42.7396431 132.9096985,42.7396431 133.5129547,42.7396431 134.1403351,42.7396431 134.7677002,42.7396431 
				135.3709564,42.7396431 135.9983368,42.7396431 136.6257172,42.7396431 137.2289581,42.7396431 137.8563385,42.7396431 
				138.4837189,42.7396431 139.0869598,42.7396431 139.7143402,42.7396431 			"/>
			<polyline class="st1" points="99.9240646,122.3201981 99.2966919,122.3201981 98.6934433,122.3201981 98.0660629,122.3201981 
				97.4386826,122.3201981 96.835434,122.3201981 96.2080536,122.3201981 95.5806808,122.3201981 94.9774323,122.3201981 
				94.3500519,122.3201981 94.2776642,122.3201981 			"/>
			<polyline class="st2" points="99.99646,77.6798019 100.2860184,77.7763214 100.889267,77.9211044 101.6855545,78.1141434 
				102.674881,78.37957 103.7607269,78.6449966 104.9189682,78.9345627 106.0530701,79.2241211 107.1630478,79.5136795 
				108.1523819,79.7549744 108.9969254,79.9721451 109.6484375,80.1410599 110.0103836,80.2375793 110.5412445,80.3823547 
				111.9166489,80.8890839 113.2196655,81.5888519 114.4744263,82.4816589 115.6567917,83.5675049 116.7426376,84.7981339 
				117.7560959,86.2218018 118.6730347,87.8143768 119.4451904,89.5517349 120.1208344,91.4338684 120.6516876,93.4849167 
				121.0377655,95.6566086 121.2549362,97.9730835 121.3273315,100.4102097 121.2066803,102.823204 120.9171219,105.0914154 
				120.4827805,107.2148514 119.9036636,109.2176361 119.2038956,111.0515137 118.3834763,112.7406082 117.4424057,114.2849274 
				116.4048233,115.6362 115.2707138,116.818573 114.0642166,117.8320312 112.7853317,118.6765747 111.4581833,119.3039551 
				110.0827713,119.7624207 109.9138641,119.7865524 109.4553986,119.9072037 108.7556305,120.1002426 107.8386917,120.3174133 
				106.8011017,120.58284 105.691124,120.8723984 104.5328903,121.1619568 103.3987808,121.4515228 102.337059,121.7169495 
				101.3959961,121.958252 100.6479645,122.1512909 100.1412354,122.2719345 99.9240646,122.3201981 			"/>
			<polyline class="st1" points="94.2535324,77.6798019 94.3500519,77.6798019 94.9774323,77.6798019 95.5806808,77.6798019 
				96.2080536,77.6798019 96.835434,77.6798019 97.4386826,77.6798019 98.0660629,77.6798019 98.6934433,77.6798019 
				99.2966919,77.6798019 99.9240646,77.6798019 99.9723282,77.6798019 99.99646,77.6798019 			"/>
			<polyline class="st2" points="98.4521408,74.1326981 98.428009,74.1326981 98.1625824,74.3498688 97.9936752,74.47052 
				97.8006363,74.6394272 97.4145508,74.9531174 97.3421631,75.0255051 96.7630463,75.50811 96.2321854,75.9665756 
				96.0391464,76.1354828 95.604805,76.4733047 95.0498199,76.9800339 94.3500519,77.5832825 94.2535324,77.6798019 
				94.0363617,77.8487091 93.5296326,78.3071823 93.4572449,78.37957 92.8781281,78.8862991 92.2748795,79.3688965 
				91.695755,79.8514938 91.0925064,80.3340988 90.4892578,80.7925644 89.8860092,81.2510376 89.2827606,81.6612396 
				88.1969147,82.3851395 87.6901855,82.7229614 87.5936661,82.7953491 86.9904175,83.1573029 86.3630371,83.519249 
				85.7356644,83.8329391 85.108284,84.1224976 84.4809036,84.3638 83.32267,84.8222656 82.6711578,85.0394363 
				82.0196533,85.2083435 81.3440094,85.3289948 80.6683731,85.4013824 79.4377441,85.5220337 78.7621078,85.5461655 
				78.0864716,85.5220337 77.4108276,85.449646 76.7351913,85.304863 75.5286942,85.0876923 74.8771896,84.9187851 
				74.2256775,84.7016144 73.5982971,84.4603195 72.9467926,84.1707535 71.8368149,83.6157684 71.2094345,83.3020782 
				70.5820541,82.9642563 69.9788055,82.5781784 69.3514328,82.1679688 68.7481842,81.7577591 68.1449356,81.2992935 
				67.1073456,80.503006 66.504097,80.0445404 65.9008484,79.5860672 65.3217316,79.0793381 64.718483,78.5967407 
				64.1393585,78.0900116 63.6567612,77.6798019 63.5602417,77.5832825 62.9569931,77.0765533 62.3778763,76.5698242 
				61.7987556,76.0630951 61.195507,75.556366 60.6163902,75.0496368 60.0131416,74.5670395 59.434021,74.1085739 
				58.8307724,73.6501007 58.2275238,73.2157593 57.6242752,72.7814255 57.0210266,72.3953476 56.7797279,72.2505646 
				56.2247391,71.9851379 55.5973625,71.6955795 55.500843,71.647316 55.4525833,71.6231842 55.3319321,71.5266647 
				54.6562958,71.4060135 54.5356445,71.4060135 53.9806557,71.3818893 53.6910973,71.3818893 53.0637169,71.4301453 
				52.3880806,71.5749283 52.0743904,71.647316 51.6883125,71.7679672 51.0368042,72.0092621 50.3129044,72.2505646 
				49.661396,72.5642548 49.3718376,72.7090302 48.9857559,72.9020767 48.3583794,73.2640228 47.7551308,73.6259689 
				47.1277504,73.9879227 46.5245018,74.3740005 45.9212532,74.7842102 45.3180046,75.1944199 44.714756,75.6287537 
				44.1115074,76.0630951 43.5082588,76.4974365 42.9050102,76.9559021 42.3017616,77.3902435 41.9398155,77.6798019 
				41.698513,77.8487091 41.1193962,78.3071823 40.5161476,78.7656479 39.912899,79.2241211 39.3096504,79.6825867 
				38.7305298,80.1410599 38.1272812,80.5753937 37.5240326,81.0097351 36.920784,81.4682007 36.3175354,81.8784103 
				35.7142868,82.3127518 35.1110382,82.7229614 34.0010605,83.4468613 33.3978119,83.8570709 32.7945633,84.2431488 
				32.1671867,84.6050949 31.5639381,84.9670486 30.4057007,85.4255142 29.1750736,85.5461655 27.9685764,85.304863 
				26.8344688,84.7498779 25.7727509,83.8811951 24.7834244,82.7229614 23.8664856,81.3234253 23.0219383,79.6584549 
				22.2497807,77.7763214 22.2256489,77.6798019 21.5741405,75.701149 20.970892,73.43293 20.4641647,71.0199356 
				20.0539551,68.48629 19.7402649,65.8320007 19.4989662,63.0811882 19.4989662,62.7433662 19.4265766,61.8022995 
				19.3300571,60.4027634 19.2335377,58.5930176 19.0887566,56.5178413 18.9439774,54.2496262 18.7991982,51.957283 
				18.6544189,49.6890678 18.5337677,47.5656319 18.4131184,45.7076263 18.3165989,44.2115707 18.2442093,43.1981125 
				18.2200794,42.7396431 			"/>
			<polyline class="st2" points="139.7143402,42.7396431 139.7143402,42.8361626 139.6660919,43.4876709 139.593689,44.6700401 
				139.4971771,46.286747 139.3765259,48.241272 139.2317505,50.4370956 139.0869598,52.7294388 138.9421844,55.0217857 
				138.7974091,57.2176094 138.6767578,59.2203941 138.5561066,60.9094925 138.4837189,62.1883774 138.4354553,62.9364052 
				138.3630676,63.9981232 138.097641,66.7248077 137.7598267,69.3308411 137.3013458,71.8403549 136.7704926,74.2050934 
				136.1431122,76.4009171 135.7087708,77.6798019 135.4433441,78.4278336 134.6470642,80.2375793 133.7783813,81.8060226 
				132.8373108,83.1573029 131.8238525,84.1948853 130.7138824,84.9670486 129.5556335,85.4255142 128.3491364,85.5461655 
				127.1426468,85.304863 126.0085373,84.7498779 125.3811569,84.3879242 124.7779083,84.0259781 124.150528,83.6399002 
				123.5472794,83.2296906 122.9440308,82.8194809 122.3407822,82.4092712 121.7375336,81.9749298 121.134285,81.5164642 
				120.5310364,81.0821228 119.4693222,80.2858353 118.8660736,79.8514938 118.262825,79.3930283 117.6595764,78.9345627 
				117.0804596,78.4760895 116.477211,78.041748 115.9946136,77.6798019 115.8739624,77.5832825 115.2707138,77.1248169 
				114.691597,76.6904755 114.0883484,76.2320023 113.4850998,75.7976685 112.8818512,75.363327 112.2786026,74.9531174 
				111.675354,74.5429077 111.6029587,74.47052 111.0479736,74.1326981 110.8066711,73.9637909 110.299942,73.6501007 
				110.1551666,73.577713 109.6725616,73.3122787 109.069313,72.9744644 108.4419403,72.6607742 107.8145599,72.3712158 
				107.1630478,72.1057816 106.6080627,71.8886185 106.3667603,71.8162231 105.6669922,71.5749283 104.9913559,71.454277 
				104.7017975,71.4301453 104.2433243,71.3818893 103.6159515,71.3818893 103.4229126,71.4060135 102.9403076,71.4784088 
				102.6024933,71.5990601 101.9751129,71.8403549 101.7338104,71.9368744 101.1788254,72.2505646 100.5755768,72.6125107 
				99.9723282,73.0227203 99.3690796,73.43293 			"/>
			<polyline class="st2" points="116.0187378,122.3201981 116.2359085,122.1512909 116.8150253,121.6928177 
				117.4182739,121.2343521 118.0215225,120.7758789 118.6247711,120.3174133 119.2280197,119.8830719 119.8071442,119.4246063 
				120.4103928,118.9902649 121.0136414,118.5559235 121.61689,118.1215897 122.2201385,117.71138 122.8475113,117.3011703 
				123.3059845,116.9633484 123.9333649,116.5531387 124.5366135,116.1429291 125.1398621,115.7568512 125.7672348,115.3949051 
				126.3704834,115.0329514 127.5287247,114.5744858 128.7593536,114.4538345 129.9658508,114.695137 131.0999603,115.2501221 
				132.1616669,116.1188049 133.151001,117.2770386 134.0679321,118.7007065 134.9124908,120.3415451 135.6846466,122.2236786 
				135.7087708,122.3201981 136.3602905,124.3229828 136.9635315,126.56707 137.4702606,128.9800568 137.8804626,131.5378418 
				138.1941528,134.1921234 138.4354553,136.9429474 138.4354553,137.2566376 138.507843,138.1977081 138.6043701,139.6213684 
				138.700882,141.4069824 138.8456726,143.5062866 138.990448,145.7503662 139.1352234,148.0668488 139.2799988,150.3109283 
				139.40065,152.4343719 139.5213013,154.2923737 139.6178284,155.7884369 139.6902161,156.8018799 139.7143402,157.2603607 			"/>
			<line class="st1" x1="115.9946136" y1="122.3201981" x2="116.0187378" y2="122.3201981"/>
			<polyline class="st2" points="62.2813568,123.550827 62.3296165,123.5025635 63.318943,122.65802 63.6808929,122.3201981 
				63.8980637,122.1512909 64.4771805,121.6445618 65.0804291,121.1378326 65.6595459,120.6311035 66.2627945,120.1485062 
				66.8419189,119.6659012 67.4451675,119.2074356 68.0484161,118.7730942 68.6516647,118.3387604 69.7375107,117.6148605 
				70.3407593,117.2287827 70.9440079,116.8426971 71.5713806,116.480751 72.198761,116.1670609 72.8261414,115.8775024 
				73.4776535,115.6362 73.984375,115.443161 74.6117554,115.1777344 75.2632675,114.9846954 75.914772,114.8157883 
				76.590416,114.6710052 77.2660522,114.5986176 78.4966812,114.5020981 79.1723175,114.4538345 79.8720856,114.5020981 
				80.5235901,114.5744858 81.199234,114.695137 81.7300873,114.7916565 82.4057312,114.9123077 83.0572357,115.0812149 
				83.7087479,115.2983856 84.3602524,115.5396805 84.9876328,115.8292465 86.1217422,116.3842316 86.7249908,116.6979218 
				87.3523712,117.0598679 87.979744,117.4218216 88.5829926,117.8320312 89.1862411,118.2663651 89.7894897,118.7007065 
				90.8512115,119.496994 91.4303284,119.9554596 92.033577,120.4380646 92.6126938,120.9206619 93.2159424,121.4032593 
				93.7950592,121.9099884 94.2776642,122.3201981 94.3983078,122.4167175 94.9774323,122.9234467 95.5565491,123.4543076 
				96.1597977,123.9610367 96.7389145,124.443634 97.3180313,124.9503632 97.9212799,125.4329605 98.5004044,125.9155579 
				99.103653,126.3498993 99.7069016,126.8083649 100.3101501,127.2185745 100.9133987,127.6046524 101.1546936,127.7494354 
				101.7096863,128.0390015 102.337059,128.3285522 102.6266251,128.4250793 103.1333542,128.5698547 103.4229126,128.6181183 
				103.9778976,128.6422424 104.2433243,128.6181183 104.798317,128.5457306 105.4498215,128.4492035 105.8841629,128.3526764 
				106.2702408,128.2320404 106.8976212,128.0148621 107.5491333,127.7494354 108.176506,127.4840088 108.5625916,127.315094 
				108.9486694,127.0979233 109.5760422,126.7601089 110.1792908,126.3981552 110.8066711,126.0120773 111.4099197,125.6259995 
				112.0131683,125.2157898 112.6164169,124.8055801 113.2196655,124.3712463 113.8229141,123.9369049 114.4261627,123.5025635 
				115.0294113,123.0682297 115.6326599,122.6097565 115.9946136,122.3201981 			"/>
			<line class="st2" x1="60.5198708" y1="125.0468826" x2="60.7853012" y2="124.8297119"/>
			<polyline class="st2" points="18.2200794,157.2603607 18.2200794,157.1638336 18.2683392,156.5123291 18.3407288,155.3299561 
				18.4372482,153.7132568 18.5820274,151.758728 18.7026787,149.5870361 18.8474579,147.294693 18.9922371,144.9782104 
				19.1370163,142.7823944 19.2576675,140.7796021 19.3783169,139.0905151 19.4507065,137.8357544 19.4989662,137.0877228 
				19.5713558,136.0018768 19.8367863,133.2751923 20.1746044,130.6691589 20.6330738,128.1596375 21.1639328,125.7949066 
				21.7913113,123.5990829 22.2256489,122.3201981 22.4910793,121.5721664 23.2873669,119.7865524 24.1560459,118.1939774 
				25.0971127,116.8668289 26.1347008,115.8051147 27.2205486,115.0329514 28.3787861,114.5744858 29.5852833,114.4538345 
				30.7917805,114.695137 31.9258862,115.2501221 32.5532646,115.6120758 33.1565132,115.9740219 33.7838936,116.3600998 
				34.3871422,116.7703094 34.9903908,117.1805191 35.5936394,117.6148605 36.196888,118.0491943 36.8001366,118.4835358 
				37.3551254,118.8937454 37.4033852,118.9178772 38.4651031,119.7141647 39.0683517,120.1726303 39.6716003,120.6069717 
				40.2748489,121.0654373 40.8539658,121.5239105 41.4572144,121.9823761 41.9398155,122.3201981 42.060463,122.4167175 
				42.6637115,122.8751831 43.2669601,123.3336563 43.8460808,123.7679977 44.4493294,124.2023315 45.052578,124.636673 
				45.6558266,125.0468826 46.2590752,125.4570923 46.8864517,125.8673019 47.4897003,126.2533798 47.7792587,126.422287 
				48.1894684,126.6635895 48.792717,127.0014038 49.492485,127.3392258 50.1439934,127.6287842 50.7713737,127.9183426 
				51.3263626,128.1355133 51.5676613,128.207901 52.2191696,128.3768158 52.8706779,128.5215912 53.2326279,128.5698547 
				53.5945778,128.6181183 54.2702141,128.6663666 54.3908653,128.6422424 54.5356445,128.6181183 55.0423737,128.5698547 
				55.1871529,128.4733276 55.2354126,128.4733276 55.3319321,128.4009399 55.9834404,128.1596375 56.2006111,128.0631256 
				56.7556,127.7494354 57.3588486,127.3874893 57.9862251,126.9772797 58.5894737,126.56707 59.1685944,126.1085968 
				59.7235832,125.6983871 59.8201027,125.6259995 59.9407501,125.52948 			"/>
			<polyline class="st2" points="0.75,77.6798019 0.7982599,77.6798019 1.2567288,77.7280655 2.0047572,77.6798019 
				2.6080058,77.6798019 3.2353842,77.6798019 3.8627627,77.6798019 4.4901414,77.6798019 5.09339,77.6798019 5.7207685,77.6798019 
				6.3481469,77.6798019 6.9513955,77.6798019 7.578774,77.6798019 8.2061529,77.6798019 8.8094015,77.6798019 9.43678,77.6798019 
				10.0641584,77.6798019 10.667407,77.6798019 11.2947855,77.6798019 11.922164,77.6798019 12.5254126,77.6798019 
				13.152791,77.6798019 13.7801695,77.6798019 14.407548,77.6798019 15.0107965,77.6798019 15.638175,77.6798019 
				16.2655544,77.6798019 16.868803,77.6798019 17.4961815,77.6798019 18.12356,77.6798019 18.7268085,77.6798019 
				19.354187,77.6798019 19.9815655,77.6798019 20.5848141,77.6798019 21.2121925,77.6798019 21.839571,77.6798019 
				22.2256489,77.6798019 			"/>
			<polyline class="st2" points="62.2813568,123.550827 61.7022362,124.0575562 61.364418,124.3471146 61.1231194,124.5401535 
				60.7853012,124.8297119 60.5922585,124.9744949 60.5198708,125.0468826 60.2785721,125.2399216 60.0372696,125.4329605 
				59.9407501,125.52948 			"/>
			<polyline class="st2" points="98.4521408,74.1326981 98.5727921,74.0120544 98.8140869,73.8431396 99.1277771,73.6018448 
				99.3690796,73.43293 99.7792892,73.0951157 			"/>
		</g>
	</g>
</g>
</svg>
