<?xml version="1.0" encoding="utf-8"?>
<!-- Generator: Adobe Illustrator 21.0.0, SVG Export Plug-In . SVG Version: 6.00 Build 0)  -->
<svg version="1.1" id="Layer_1" xmlns="http://www.w3.org/2000/svg" xmlns:xlink="http://www.w3.org/1999/xlink" x="0px" y="0px"
	 viewBox="0 0 200 200" style="enable-background:new 0 0 200 200;" xml:space="preserve">
<style type="text/css">
	.st0{fill:none;stroke:#000000;stroke-width:1.5;stroke-linecap:round;stroke-linejoin:round;}
</style>
<g>
	<polyline class="st0" points="114.6737976,139.9468231 114.6737976,147.2891846 114.4508972,148.1940155 113.7889404,149.0713959 
		112.7079773,149.894577 111.2408676,150.6386261 109.4320908,151.2808838 107.3369522,151.8018799 105.0187073,152.1857452 
		102.5479813,152.4208374 99.9999084,152.5 97.4518433,152.4208374 94.981102,152.1857452 92.6630478,151.8018799 
		90.5677185,151.2808838 88.7591324,150.6386261 87.2920227,149.894577 86.2108841,149.0713959 85.5489197,148.1940155 
		85.3260117,147.2891846 85.3260117,139.9468231 	"/>
	<line class="st0" x1="181.1960144" y1="119.544838" x2="181.1960144" y2="126.836998"/>
	<line class="st0" x1="168.5422821" y1="124.7819824" x2="168.5422821" y2="132.0739746"/>
	<line class="st0" x1="153.2564087" y1="129.04216" x2="153.2564087" y2="136.3341217"/>
	<line class="st0" x1="143.9442444" y1="126.2917786" x2="143.9442444" y2="133.5837555"/>
	<line class="st0" x1="135.9228058" y1="132.1607971" x2="135.9228058" y2="139.4529572"/>
	<line class="st0" x1="131.4293365" y1="130.5466461" x2="131.4293365" y2="137.8386383"/>
	<line class="st0" x1="121.4577789" y1="133.7191162" x2="121.4577789" y2="141.0111237"/>
	<line class="st0" x1="117.2089233" y1="134.0193634" x2="117.2089233" y2="141.3113251"/>
	<polyline class="st0" points="111.5422058,130.1411743 111.5422058,137.433136 111.5697479,137.5050049 	"/>
	<polyline class="st0" points="88.4576187,130.1411743 88.4576187,137.433136 88.4302521,137.5050049 86.3108444,139.4168396 
		85.3260117,139.9468231 82.7908936,141.3113251 78.542038,141.0111237 77.3312073,138.782608 77.3312073,136.6413116 
		77.3312073,131.4906311 	"/>
	<polyline class="st0" points="88.4302521,137.5050049 88.4302521,130.213028 88.4576187,130.1411743 	"/>
	<line class="st0" x1="82.7908936" y1="141.3113251" x2="82.7908936" y2="134.0193634"/>
	<line class="st0" x1="78.542038" y1="141.0111237" x2="78.542038" y2="133.7191162"/>
	<polyline class="st0" points="71.7651825,128.7497406 71.7651825,136.0417175 71.6993332,136.110672 68.5704727,137.8386383 
		64.0770035,139.4529572 60.074585,138.864151 	"/>
	<line class="st0" x1="68.5704727" y1="137.8386383" x2="68.5704727" y2="130.5466461"/>
	<line class="st0" x1="64.0770035" y1="139.4529572" x2="64.0770035" y2="132.1607971"/>
	<polyline class="st0" points="56.1580811,126.2290344 56.1580811,133.5210114 56.0555649,133.5837555 52.0374603,135.0620117 
		46.7435837,136.3341217 43.1411934,135.4793549 	"/>
	<line class="st0" x1="56.0555649" y1="133.5837555" x2="56.0555649" y2="126.2917786"/>
	<line class="st0" x1="46.7435837" y1="136.3341217" x2="46.7435837" y2="129.04216"/>
	<line class="st0" x1="31.4569798" y1="132.0739746" x2="31.4569798" y2="124.7819824"/>
	<line class="st0" x1="18.8038139" y1="126.836998" x2="18.8038139" y2="119.544838"/>
	<polyline class="st0" points="192.3849792,112.1103897 192.3849792,114.5665283 192.3849792,119.4025574 190.728714,120.8237076 
		184.3370819,120.8103867 183.6038055,120.7538452 	"/>
	<line class="st0" x1="196.7737274" y1="106.973938" x2="196.7737274" y2="114.2659149"/>
	<line class="st0" x1="190.728714" y1="113.531723" x2="190.728714" y2="120.8237076"/>
	<line class="st0" x1="184.3370819" y1="113.5184097" x2="184.3370819" y2="120.8103867"/>
	<line class="st0" x1="157.8990936" y1="122.7296982" x2="157.8990936" y2="130.0216827"/>
	<line class="st0" x1="157.7644653" y1="122.6753464" x2="157.7644653" y2="129.9674988"/>
	<line class="st0" x1="42.2353477" y1="129.9674988" x2="42.2353477" y2="122.6753464"/>
	<line class="st0" x1="42.1007309" y1="130.0216827" x2="42.1007309" y2="122.7296982"/>
	<line class="st0" x1="15.6630945" y1="120.8103867" x2="15.6630945" y2="113.5184097"/>
	<line class="st0" x1="9.2718477" y1="120.8237076" x2="9.2718477" y2="113.531723"/>
	<line class="st0" x1="3.2258999" y1="114.2659149" x2="3.2258999" y2="106.973938"/>
	<polyline class="st0" points="197.6201019,105.4650497 197.6201019,107.629509 197.6201019,112.7570267 196.7737274,114.2659149 
		192.3849792,114.5665283 	"/>
	<polyline class="st0" points="183.6038055,118.2657852 183.6038055,120.7538452 183.6038055,125.5577621 	"/>
	<polyline class="st0" points="0.8987257,98.5847626 0.8987257,100.1231995 0.8987257,107.415184 2.3806167,107.415184 	"/>
	<line class="st0" x1="174.9339142" y1="119.0889969" x2="174.9339142" y2="126.3809738"/>
	<line class="st0" x1="162.652298" y1="123.9013062" x2="162.652298" y2="131.1932983"/>
	<line class="st0" x1="147.9623566" y1="127.7700272" x2="147.9623566" y2="135.0620117"/>
	<line class="st0" x1="128.3006744" y1="128.8187103" x2="128.3006744" y2="136.110672"/>
	<line class="st0" x1="113.6891556" y1="132.1248474" x2="113.6891556" y2="139.4168396"/>
	<polyline class="st0" points="97.8338013,141.8375702 97.8338013,134.5456085 95.4221725,132.443161 	"/>
	<line class="st0" x1="86.3108444" y1="139.4168396" x2="86.3108444" y2="132.1248474"/>
	<line class="st0" x1="71.6993332" y1="136.110672" x2="71.6993332" y2="128.8187103"/>
	<line class="st0" x1="52.0374603" y1="135.0620117" x2="52.0374603" y2="127.7700272"/>
	<line class="st0" x1="37.3480644" y1="131.1932983" x2="37.3480644" y2="123.9013062"/>
	<line class="st0" x1="25.065733" y1="126.3809738" x2="25.065733" y2="119.0889969"/>
	<polyline class="st0" points="199.1012726,100.1231995 193.1802826,100.9796066 187.4872894,101.3447876 187.2848206,101.3402328 	
		"/>
	<polyline class="st0" points="94.4065247,130.3492889 88.4439316,130.1770935 86.3108444,132.1248474 82.7908936,134.0193634 
		78.542038,133.7191162 77.3312073,131.4906311 77.4337234,129.4363251 77.4860764,129.3660889 	"/>
	<line class="st0" x1="111.5422058" y1="137.433136" x2="105.6062469" y2="137.6407166"/>
	<line class="st0" x1="94.3937531" y1="137.6407166" x2="88.4576187" y2="137.433136"/>
	<polyline class="st0" points="77.4860764,129.3660889 71.7651825,128.7497406 71.6993332,128.8187103 68.5704727,130.5466461 
		64.0770035,132.1607971 60.074585,131.5721588 	"/>
	<line class="st0" x1="128.2346344" y1="136.0417175" x2="122.6686096" y2="136.6413116"/>
	<line class="st0" x1="77.3312073" y1="136.6413116" x2="71.7651825" y2="136.0417175"/>
	<polyline class="st0" points="197.6201019,93.2429123 192.2846375,94.4929581 186.8999329,95.2455826 186.697464,95.255249 	"/>
	<polyline class="st0" points="61.430069,71.4782333 61.3403206,71.454155 60.1121597,69.4053421 60.074585,67.1358032 	"/>
	<polyline class="st0" points="61.430069,127.2299042 56.1580811,126.2290344 56.0555649,126.2917786 52.0374603,127.7700272 
		46.7435837,129.04216 43.1411934,128.1873779 	"/>
	<line class="st0" x1="43.1411934" y1="75.7686768" x2="43.1411934" y2="70.5207672"/>
	<line class="st0" x1="156.8586273" y1="70.5207672" x2="156.8586273" y2="75.7686768"/>
	<polyline class="st0" points="2.3806167,98.3704376 2.3806167,93.2429123 3.2258999,91.7342072 7.6141138,91.4336014 
		9.5018654,91.3042755 12.1597471,91.3208694 15.286603,91.3405685 15.4845161,91.3591766 17.0258732,89.5549698 
		17.2201385,89.3276901 	"/>
	<line class="st0" x1="28.3932381" y1="80.132988" x2="28.3932381" y2="75.0138626"/>
	<line class="st0" x1="171.6067657" y1="75.0138626" x2="171.6067657" y2="80.132988"/>
	<polyline class="st0" points="7.6141138,91.4336014 7.6141138,86.5975723 9.2718477,85.176239 15.6630945,85.1895523 
		16.3967438,85.2461014 19.9788933,85.5224533 21.3170452,85.6256943 21.5001831,85.6576157 24.1416492,83.8260498 
		24.3184032,83.785553 	"/>
	<polyline class="st0" points="192.3849792,86.5975723 187.8393555,88.1932907 182.9744873,89.3043365 182.7793121,89.3276901 	"/>
	<polyline class="st0" points="46.8570442,124.0218887 42.2353477,122.6753464 42.1007309,122.7296982 37.3480644,123.9013062 
		31.4569798,124.7819824 28.3932381,123.6940918 	"/>
	<line class="st0" x1="16.3967438" y1="85.2461014" x2="16.3967438" y2="80.4423599"/>
	<line class="st0" x1="183.6038055" y1="80.4423599" x2="183.6038055" y2="85.2461014"/>
	<line class="st0" x1="60.074585" y1="71.735611" x2="60.074585" y2="67.1358032"/>
	<line class="st0" x1="139.9252319" y1="67.1358032" x2="139.9252319" y2="71.735611"/>
	<polyline class="st0" points="7.6141138,114.5665283 3.2258999,114.2659149 2.3806167,112.7570267 2.3806167,107.629509 
		2.3806167,105.4650497 	"/>
	<line class="st0" x1="102.1660156" y1="134.5456085" x2="97.8338013" y2="134.5456085"/>
	<polyline class="st0" points="34.3257294,78.841362 34.1726837,78.8506546 30.8736343,77.1059113 28.3932381,75.0138626 	"/>
	<polyline class="st0" points="34.3257294,119.8666 30.5338078,118.2254715 30.3707352,118.2696152 25.065733,119.0889969 
		18.8038139,119.544838 16.3967438,118.2657852 	"/>
	<polyline class="st0" points="139.9252319,138.864151 135.9228058,139.4529572 131.4293365,137.8386383 128.3006744,136.110672 
		128.2346344,136.0417175 128.2346344,128.7497406 	"/>
	<polyline class="st0" points="139.9252319,131.5721588 135.9228058,132.1607971 131.4293365,130.5466461 128.3006744,128.8187103 
		128.2346344,128.7497406 122.5139236,129.3660889 	"/>
	<polyline class="st0" points="60.074585,67.1358032 64.0770035,66.5471725 68.5704727,68.1613083 71.6993332,69.8894577 
		71.7651825,69.9583969 77.3312073,69.3586426 77.4337234,69.3097534 77.3312073,67.2175217 78.542038,64.9888458 
		82.7908936,64.6887817 85.3260117,66.0532074 	"/>
	<polyline class="st0" points="183.6038055,80.4423599 180.0213013,82.3222656 175.8587189,83.8260498 175.681778,83.785553 	"/>
	<polyline class="st0" points="16.3967438,118.2657852 19.9788933,116.3858795 21.3170452,115.9271164 21.5001831,115.8643646 
		24.1416492,114.9588852 24.3184032,114.9225922 	"/>
	<line class="st0" x1="190.4988708" y1="107.4038696" x2="190.4988708" y2="111.4478836"/>
	<line class="st0" x1="9.5018654" y1="111.4478836" x2="9.5018654" y2="107.4038696"/>
	<line class="st0" x1="143.8417358" y1="133.5210114" x2="139.9252319" y2="134.2645264"/>
	<line class="st0" x1="60.074585" y1="134.2645264" x2="56.1580811" y2="133.5210114"/>
	<line class="st0" x1="30.3707352" y1="122.0261459" x2="30.3707352" y2="118.2696152"/>
	<line class="st0" x1="169.6294403" y1="118.2696152" x2="169.6294403" y2="122.0261459"/>
	<polyline class="st0" points="43.1411934,70.5207672 46.7435837,69.6660004 52.0374603,70.9379349 56.0555649,72.4161758 
		56.1580811,72.4789276 60.074585,71.735611 60.1121597,71.7283173 61.3403206,71.454155 61.430069,71.4782333 	"/>
	<polyline class="st0" points="156.8586273,135.4793549 153.2564087,136.3341217 147.9623566,135.0620117 143.9442444,133.5837555 
		143.8417358,133.5210114 143.8417358,126.2290344 	"/>
	<polyline class="st0" points="156.8586273,128.1873779 153.2564087,129.04216 147.9623566,127.7700272 143.9442444,126.2917786 
		143.8417358,126.2290344 138.5697479,127.2299042 	"/>
	<line class="st0" x1="30.5338078" y1="121.8887939" x2="30.5338078" y2="118.2254715"/>
	<line class="st0" x1="169.465271" y1="118.2254715" x2="169.465271" y2="121.8887939"/>
	<line class="st0" x1="193.1802826" y1="100.9796066" x2="193.1802826" y2="104.4251328"/>
	<line class="st0" x1="6.8189931" y1="104.4251328" x2="6.8189931" y2="100.9796066"/>
	<polyline class="st0" points="24.3184032,83.785553 24.1416492,83.8260498 19.9788933,82.3222656 16.3967438,80.4423599 	"/>
	<polyline class="st0" points="24.3184032,114.9225922 21.5001831,113.0503464 21.3170452,113.0822678 15.6630945,113.5184097 
		9.2718477,113.531723 7.6141138,112.1103897 	"/>
	<polyline class="st0" points="28.3932381,125.866951 25.065733,126.3809738 18.8038139,126.836998 16.3967438,125.5577621 	"/>
	<polyline class="st0" points="171.6067657,130.986084 168.5422821,132.0739746 162.652298,131.1932983 157.8990936,130.0216827 
		157.7644653,129.9674988 156.8586273,130.2312775 	"/>
	<polyline class="st0" points="171.6067657,123.6940918 168.5422821,124.7819824 162.652298,123.9013062 157.8990936,122.7296982 
		157.7644653,122.6753464 153.1427765,124.0218887 	"/>
	<polyline class="st0" points="28.3932381,75.0138626 31.4569798,73.9259872 37.3480644,74.8068314 42.1007309,75.9782639 
		42.2353477,76.0326233 43.1411934,75.7686768 44.4253502,75.3945541 46.7324562,74.7223816 46.8570442,74.6860733 	"/>
	<polyline class="st0" points="171.6067657,75.0138626 169.1260071,77.1059113 165.8280334,78.8506546 165.6748199,78.841362 	"/>
	<line class="st0" x1="169.1260071" y1="77.1059113" x2="169.1260071" y2="80.3354645"/>
	<line class="st0" x1="30.8736343" y1="80.3354645" x2="30.8736343" y2="77.1059113"/>
	<line class="st0" x1="19.9788933" y1="85.5224533" x2="19.9788933" y2="82.3222656"/>
	<line class="st0" x1="180.0213013" y1="82.3222656" x2="180.0213013" y2="85.5224533"/>
	<polyline class="st0" points="104.5776443,132.443161 102.1660156,134.5456085 102.1660156,141.8375702 	"/>
	<line class="st0" x1="7.7157159" y1="97.6708984" x2="7.7157159" y2="94.4929581"/>
	<line class="st0" x1="192.2846375" y1="94.4929581" x2="192.2846375" y2="97.6708984"/>
	<line class="st0" x1="12.1597471" y1="91.3208694" x2="12.1597471" y2="88.1932907"/>
	<line class="st0" x1="187.8393555" y1="88.1932907" x2="187.8393555" y2="91.3208694"/>
	<polyline class="st0" points="114.6737976,66.0532074 117.2089233,64.6887817 121.4577789,64.9888458 122.6686096,67.2175217 
		122.5660934,69.3097534 122.6686096,69.3586426 128.2346344,69.9583969 128.3006744,69.8894577 131.4293365,68.1613083 
		135.9228058,66.5471725 139.9252319,67.1358032 	"/>
	<line class="st0" x1="178.6824036" y1="113.0822678" x2="178.6824036" y2="115.9271164"/>
	<line class="st0" x1="21.3170452" y1="115.9271164" x2="21.3170452" y2="113.0822678"/>
	<line class="st0" x1="178.5" y1="113.0503464" x2="178.5" y2="115.8643646"/>
	<line class="st0" x1="21.5001831" y1="115.8643646" x2="21.5001831" y2="113.0503464"/>
	<polyline class="st0" points="16.3967438,80.4423599 18.8038139,79.1631241 25.065733,79.6191483 28.3932381,80.132988 
		30.3707352,80.4383469 30.5338078,80.4826736 30.8736343,80.3354645 34.1726837,78.8506546 34.3257294,78.841362 	"/>
	<polyline class="st0" points="183.6038055,125.5577621 181.1960144,126.836998 174.9339142,126.3809738 171.6067657,125.866951 	
		"/>
	<polyline class="st0" points="183.6038055,118.2657852 181.1960144,119.544838 174.9339142,119.0889969 169.6294403,118.2696152 
		169.465271,118.2254715 165.6748199,119.8666 	"/>
	<polyline class="st0" points="17.2201385,109.3802795 15.4845161,107.3487854 15.286603,107.3673935 9.5018654,107.4038696 
		3.2258999,106.973938 2.3806167,105.4650497 	"/>
	<line class="st0" x1="44.4253502" y1="75.3945541" x2="44.4253502" y2="72.7443314"/>
	<line class="st0" x1="155.5744629" y1="72.7443314" x2="155.5744629" y2="75.3945541"/>
	<polyline class="st0" points="156.8586273,70.5207672 155.5744629,72.7443314 153.2673492,74.6282578 153.1427765,74.6860733 	"/>
	<line class="st0" x1="184.7128601" y1="107.3673935" x2="184.7128601" y2="109.8009109"/>
	<line class="st0" x1="15.286603" y1="109.8009109" x2="15.286603" y2="107.3673935"/>
	<line class="st0" x1="184.5158539" y1="107.3487854" x2="184.5158539" y2="109.7556763"/>
	<line class="st0" x1="15.4845161" y1="109.7556763" x2="15.4845161" y2="107.3487854"/>
	<line class="st0" x1="60.1121597" y1="71.7283173" x2="60.1121597" y2="69.4053421"/>
	<line class="st0" x1="139.8878326" y1="69.4053421" x2="139.8878326" y2="71.7283173"/>
	<polyline class="st0" points="139.9252319,67.1358032 139.8878326,69.4053421 138.6595001,71.4131165 138.5697479,71.4782333 	"/>
	<polyline class="st0" points="105.6062469,130.421524 104.5776443,132.443161 104.5776443,139.7351532 	"/>
	<polyline class="st0" points="95.4221725,139.7351532 94.3937531,137.713501 94.3937531,137.6407166 94.3937531,130.421524 	"/>
	<line class="st0" x1="12.5123444" y1="103.5446472" x2="12.5123444" y2="101.3447876"/>
	<line class="st0" x1="187.4872894" y1="101.3447876" x2="187.4872894" y2="103.5446472"/>
	<line class="st0" x1="13.3018093" y1="103.452713" x2="12.7157297" y2="101.3402328"/>
	<line class="st0" x1="187.2848206" y1="101.3402328" x2="186.697464" y2="103.452713"/>
	<polyline class="st0" points="192.3849792,112.1103897 190.728714,113.531723 184.3370819,113.5184097 178.6824036,113.0822678 
		178.5,113.0503464 175.681778,114.9225922 	"/>
	<line class="st0" x1="12.7157297" y1="103.5161896" x2="12.7157297" y2="101.3402328"/>
	<line class="st0" x1="187.2848206" y1="101.3402328" x2="187.2848206" y2="103.5161896"/>
	<polyline class="st0" points="197.6201019,105.4650497 196.7737274,106.973938 190.4988708,107.4038696 184.7128601,107.3673935 
		184.5158539,107.3487854 182.7793121,109.3802795 	"/>
	<polyline class="st0" points="199.1012726,98.5847626 199.1012726,100.1231995 199.1012726,107.415184 197.6201019,107.415184 	"/>
	<polyline class="st0" points="43.1411934,130.2312775 42.2353477,129.9674988 42.1007309,130.0216827 37.3480644,131.1932983 
		31.4569798,132.0739746 28.3932381,130.986084 	"/>
	<polyline class="st0" points="85.3260117,58.7108765 85.5489197,59.6156273 86.2108841,60.4930153 87.2920227,61.316227 
		88.7591324,62.0602722 90.5677185,62.7025337 92.6630478,63.2234993 94.981102,63.6074715 97.4518433,63.8425941 
		99.9999084,63.9217606 102.5479813,63.8425941 105.0187073,63.6074715 107.3369522,63.2234993 109.4320908,62.7025337 
		111.2408676,62.0602722 112.7079773,61.316227 113.7889404,60.4930153 114.4508972,59.6156273 114.6737976,58.7108765 	"/>
	<polyline class="st0" points="16.3967438,120.7538452 15.6630945,120.8103867 9.2718477,120.8237076 7.6141138,119.4025574 
		7.6141138,114.5665283 7.6141138,112.1103897 	"/>
	<polyline class="st0" points="187.2848206,97.3677292 187.4872894,97.3631668 192.2846375,97.6708984 193.1802826,97.7283554 
		197.6201019,98.3704376 199.1012726,98.5847626 	"/>
	<polyline class="st0" points="12.7157297,101.3402328 12.5123444,101.3447876 6.8189931,100.9796066 0.8987257,100.1231995 	"/>
	<polyline class="st0" points="186.697464,103.452713 186.8999329,103.4625626 187.2848206,103.5161896 187.4872894,103.5446472 
		192.2846375,104.2151794 193.1802826,104.4251328 197.6201019,105.4650497 	"/>
	<polyline class="st0" points="13.3018093,95.255249 13.0995188,95.2455826 7.7157159,94.4929581 2.3806167,93.2429123 	"/>
	<polyline class="st0" points="182.7793121,109.3802795 182.9744873,109.4038086 184.5158539,109.7556763 184.7128601,109.8009109 
		187.8393555,110.5148621 190.4988708,111.4478836 192.3849792,112.1103897 	"/>
	<polyline class="st0" points="17.2201385,89.3276901 17.0258732,89.3043365 12.1597471,88.1932907 7.6141138,86.5975723 	"/>
	<polyline class="st0" points="175.681778,83.785553 175.8587189,83.8260498 178.5,85.6576157 178.6824036,85.6256943 
		180.0213013,85.5224533 183.6038055,85.2461014 184.3370819,85.1895523 190.728714,85.176239 192.3849792,86.5975723 
		192.3849792,91.4336014 	"/>
	<polyline class="st0" points="175.681778,114.9225922 175.8587189,114.9588852 178.5,115.8643646 178.6824036,115.9271164 
		180.0213013,116.3858795 183.6038055,118.2657852 	"/>
	<polyline class="st0" points="165.6748199,78.841362 165.8280334,78.8506546 169.1260071,80.3354645 169.465271,80.4826736 
		169.6294403,80.4383469 171.6067657,80.132988 174.9339142,79.6191483 181.1960144,79.1631241 183.6038055,80.4423599 	"/>
	<polyline class="st0" points="165.6748199,119.8666 165.8280334,119.9143906 169.1260071,121.6020432 169.465271,121.8887939 
		169.6294403,122.0261459 171.6067657,123.6940918 171.6067657,125.866951 171.6067657,130.986084 	"/>
	<polyline class="st0" points="153.1427765,124.0218887 153.2673492,124.079895 155.5744629,125.963623 156.8586273,128.1873779 
		156.8586273,130.2312775 156.8586273,135.4793549 	"/>
	<polyline class="st0" points="46.8570442,74.6860733 46.7324562,74.6282578 44.4253502,72.7443314 43.1411934,70.5207672 	"/>
	<polyline class="st0" points="138.5697479,127.2299042 138.6595001,127.2948456 139.8878326,129.3026276 139.9252319,131.5721588 
		139.9252319,134.2645264 139.9252319,138.864151 	"/>
	<polyline class="st0" points="122.5139236,129.3660889 122.5660934,129.4363251 122.6686096,131.4906311 121.4577789,133.7191162 
		117.2089233,134.0193634 113.6891556,132.1248474 111.5558853,130.1770935 105.5934753,130.3492889 	"/>
	<polyline class="st0" points="111.5422058,130.1411743 111.5697479,130.213028 111.5697479,137.5050049 113.6891556,139.4168396 
		114.6737976,139.9468231 117.2089233,141.3113251 121.4577789,141.0111237 122.6686096,138.782608 122.6686096,136.6413116 
		122.6686096,131.4906311 	"/>
	<polyline class="st0" points="105.5934753,130.3492889 105.6062469,130.421524 105.6062469,137.6407166 105.6062469,137.713501 
		104.5776443,139.7351532 102.1660156,141.8375702 97.8338013,141.8375702 95.4221725,139.7351532 95.4221725,132.443161 
		94.3937531,130.421524 94.4065247,130.3492889 	"/>
	<polygon class="st0" points="85.3260117,106.6459656 85.3260117,66.0532074 85.3260117,58.7108765 85.5489197,57.8059464 
		86.2108841,56.9285622 87.2920227,56.1055298 88.7591324,55.3614845 90.5677185,54.719223 92.6630478,54.1980782 
		94.981102,53.8142929 97.4518433,53.5791664 99.9999084,53.5 102.5479813,53.5791664 105.0187073,53.8142929 
		107.3369522,54.1980782 109.4320908,54.719223 111.2408676,55.3614845 112.7079773,56.1055298 113.7889404,56.9285622 
		114.4508972,57.8059464 114.6737976,58.7108765 114.6737976,66.0532074 114.6737976,106.6459656 114.6737976,106.7748337 
		114.4508972,107.6795807 113.7889404,108.5569687 112.7079773,109.3801804 111.2408676,110.1242294 109.4320908,110.7664871 
		107.3369522,111.2874527 105.0187073,111.6714249 102.5479813,111.9065475 99.9999084,111.9857178 97.4518433,111.9065475 
		94.981102,111.6714249 92.6630478,111.2874527 90.5677185,110.7664871 88.7591324,110.1242294 87.2920227,109.3801804 
		86.2108841,108.5569687 85.5489197,107.6795807 85.3260117,106.7748337 	"/>
	<polyline class="st0" points="28.3932381,130.986084 28.3932381,125.866951 28.3932381,123.6940918 30.3707352,122.0261459 
		30.5338078,121.8887939 30.8736343,121.6020432 34.1726837,119.9143906 34.3257294,119.8666 	"/>
	<polyline class="st0" points="43.1411934,135.4793549 43.1411934,130.2312775 43.1411934,128.1873779 44.4253502,125.963623 
		46.7324562,124.079895 46.8570442,124.0218887 	"/>
	<polyline class="st0" points="16.3967438,125.5577621 16.3967438,120.7538452 16.3967438,118.2657852 	"/>
	<polyline class="st0" points="60.074585,138.864151 60.074585,134.2645264 60.074585,131.5721588 60.1121597,129.3026276 
		61.3403206,127.2948456 61.430069,127.2299042 	"/>
	<polyline class="st0" points="0.8987257,98.5847626 2.3806167,98.3704376 6.8189931,97.7283554 7.7157159,97.6708984 
		12.5123444,97.3631668 12.7157297,97.3677292 	"/>
	<polyline class="st0" points="2.3806167,105.4650497 6.8189931,104.4251328 7.7157159,104.2151794 12.5123444,103.5446472 
		12.7157297,103.5161896 13.0995188,103.4625626 13.3018093,103.452713 	"/>
	<polyline class="st0" points="7.6141138,112.1103897 9.5018654,111.4478836 12.1597471,110.5148621 15.286603,109.8009109 
		15.4845161,109.7556763 17.0258732,109.4038086 17.2201385,109.3802795 	"/>
	<polyline class="st0" points="182.7793121,89.3276901 182.9744873,89.5549698 184.5158539,91.3591766 184.7128601,91.3405685 
		187.8393555,91.3208694 190.4988708,91.3042755 192.3849792,91.4336014 196.7737274,91.7342072 197.6201019,93.2429123 
		197.6201019,98.3704376 	"/>
	<polyline class="st0" points="12.7157297,97.3677292 13.0995188,95.9847031 13.3018093,95.255249 	"/>
	<polyline class="st0" points="186.697464,95.255249 186.8999329,95.9847031 187.2848206,97.3677292 	"/>
	<polyline class="st0" points="153.1427765,74.6860733 153.2673492,74.7223816 155.5744629,75.3945541 156.8586273,75.7686768 
		157.7644653,76.0326233 157.8990936,75.9782639 162.652298,74.8068314 168.5422821,73.9259872 171.6067657,75.0138626 	"/>
	<polyline class="st0" points="138.5697479,71.4782333 138.6595001,71.4952011 139.8878326,71.7283173 139.9252319,71.735611 
		143.8417358,72.4789276 143.9442444,72.4161758 147.9623566,70.9379349 153.2564087,69.6660004 156.8586273,70.5207672 	"/>
</g>
</svg>
