<?xml version="1.0" encoding="utf-8"?>
<!-- Generator: Adobe Illustrator 21.0.0, SVG Export Plug-In . SVG Version: 6.00 Build 0)  -->
<svg version="1.1" id="Layer_1" xmlns="http://www.w3.org/2000/svg" xmlns:xlink="http://www.w3.org/1999/xlink" x="0px" y="0px"
	 viewBox="0 0 16 16" style="enable-background:new 0 0 16 16;" xml:space="preserve">
<style type="text/css">
	.st0{fill:#FC0D1B;}
	.st1{clip-path:url(#SVGID_2_);}
	.st2{fill:#3DD83D;}
</style>
<g>
	<g>
		<circle class="st0" cx="10.2" cy="5.6" r="1"/>
		<path d="M10.2,6.7c-0.6,0-1.1-0.5-1.1-1.1c0-0.6,0.5-1.1,1.1-1.1c0.6,0,1.1,0.5,1.1,1.1C11.3,6.2,10.8,6.7,10.2,6.7z M10.2,4.8
			c-0.5,0-0.8,0.4-0.8,0.8s0.4,0.8,0.8,0.8c0.5,0,0.8-0.4,0.8-0.8S10.7,4.8,10.2,4.8z"/>
	</g>
	<g>
		<g>
			<path d="M10.2,4.4c-0.1,0-0.2-0.1-0.2-0.2V3.7c0-0.1,0.1-0.2,0.2-0.2c0.1,0,0.2,0.1,0.2,0.2v0.5C10.4,4.3,10.3,4.4,10.2,4.4z"/>
		</g>
		<g>
			<path d="M9.5,4.6c-0.1,0-0.1,0-0.1-0.1L9.1,4c0-0.1,0-0.2,0.1-0.2c0.1,0,0.2,0,0.2,0.1l0.3,0.4C9.7,4.4,9.7,4.5,9.5,4.6
				C9.6,4.5,9.5,4.6,9.5,4.6z"/>
		</g>
		<g>
			<path d="M9,5.1C9,5.1,8.9,5.1,9,5.1L8.5,4.8c-0.1,0-0.1-0.1-0.1-0.2c0-0.1,0.1-0.1,0.2-0.1l0.4,0.3c0.1,0,0.1,0.1,0.1,0.2
				C9.1,5,9,5.1,9,5.1z"/>
		</g>
		<g>
			<path d="M8.8,5.8H8.3c-0.1,0-0.2-0.1-0.2-0.2s0.1-0.2,0.2-0.2h0.5c0.1,0,0.2,0.1,0.2,0.2S8.9,5.8,8.8,5.8z"/>
		</g>
		<g>
			<path d="M8.5,6.8c-0.1,0-0.1,0-0.1-0.1c0-0.1,0-0.2,0.1-0.2l0.4-0.3c0.1,0,0.2,0,0.2,0.1c0,0.1,0,0.2-0.1,0.2L8.5,6.8
				C8.6,6.8,8.6,6.8,8.5,6.8z"/>
		</g>
		<g>
			<path d="M9.3,7.5C9.2,7.5,9.2,7.5,9.3,7.5C9.1,7.4,9.1,7.3,9.1,7.2l0.3-0.4c0-0.1,0.1-0.1,0.2-0.1c0.1,0,0.1,0.1,0.1,0.2L9.4,7.4
				C9.4,7.4,9.3,7.5,9.3,7.5z"/>
		</g>
		<g>
			<path d="M10.2,7.7c-0.1,0-0.2-0.1-0.2-0.2V7.1c0-0.1,0.1-0.2,0.2-0.2c0.1,0,0.2,0.1,0.2,0.2v0.5C10.4,7.7,10.3,7.7,10.2,7.7z"/>
		</g>
		<g>
			<path d="M11.2,7.5c-0.1,0-0.1,0-0.1-0.1L10.8,7c0-0.1,0-0.2,0.1-0.2c0.1,0,0.2,0,0.2,0.1l0.3,0.4C11.4,7.3,11.3,7.4,11.2,7.5
				C11.2,7.5,11.2,7.5,11.2,7.5z"/>
		</g>
		<g>
			<path d="M11.9,6.8C11.9,6.8,11.8,6.8,11.9,6.8l-0.5-0.3c-0.1,0-0.1-0.1-0.1-0.2c0-0.1,0.1-0.1,0.2-0.1L12,6.5
				c0.1,0,0.1,0.1,0.1,0.2C12,6.7,12,6.8,11.9,6.8z"/>
		</g>
		<g>
			<path d="M12.2,5.8h-0.5c-0.1,0-0.2-0.1-0.2-0.2s0.1-0.2,0.2-0.2h0.5c0.1,0,0.2,0.1,0.2,0.2S12.2,5.8,12.2,5.8z"/>
		</g>
		<g>
			<path d="M11.5,5.1c-0.1,0-0.1,0-0.1-0.1c0-0.1,0-0.2,0.1-0.2l0.4-0.3c0.1,0,0.2,0,0.2,0.1c0,0.1,0,0.2-0.1,0.2L11.5,5.1
				C11.5,5.1,11.5,5.1,11.5,5.1z"/>
		</g>
		<g>
			<path d="M10.9,4.6C10.9,4.6,10.9,4.5,10.9,4.6c-0.2-0.1-0.2-0.2-0.1-0.2l0.3-0.4c0-0.1,0.1-0.1,0.2-0.1c0.1,0,0.1,0.1,0.1,0.2
				l-0.3,0.4C11,4.5,11,4.6,10.9,4.6z"/>
		</g>
	</g>
	<g>
		<defs>
			<rect id="SVGID_1_" x="1.4" y="2.3" width="13.3" height="11.3"/>
		</defs>
		<clipPath id="SVGID_2_">
			<use xlink:href="#SVGID_1_"  style="overflow:visible;"/>
		</clipPath>
		<g class="st1">
			<polygon class="st2" points="5.5,6.4 9.3,11.6 11.7,8.3 16.4,14.9 11.7,14.9 6.9,14.9 -0.6,14.9 			"/>
			<path d="M16.4,15.3h-17c-0.1,0-0.2-0.1-0.3-0.2c-0.1-0.1,0-0.2,0-0.3l6.1-8.5c0.1-0.2,0.4-0.2,0.5,0l3.5,4.8l2.1-2.9
				c0.1-0.2,0.4-0.2,0.5,0l4.7,6.6c0.1,0.1,0.1,0.2,0,0.3C16.6,15.2,16.5,15.3,16.4,15.3z M0.1,14.6h15.7l-4.1-5.7l-2.1,2.9
				C9.4,12,9.1,12,9,11.8L5.5,7L0.1,14.6z"/>
		</g>
	</g>
	<g>
		<path d="M14.6,14.1H1.4c-0.2,0-0.4-0.2-0.4-0.4V2.3c0-0.2,0.2-0.4,0.4-0.4h13.1c0.2,0,0.4,0.2,0.4,0.4v11.3
			C15,13.9,14.8,14.1,14.6,14.1z M1.9,13.2h12.2V2.8H1.9V13.2z"/>
	</g>
</g>
</svg>
