<?xml version="1.0" encoding="utf-8"?>
<!-- Generator: Adobe Illustrator 21.0.0, SVG Export Plug-In . SVG Version: 6.00 Build 0)  -->
<svg version="1.1" id="Layer_1" xmlns="http://www.w3.org/2000/svg" xmlns:xlink="http://www.w3.org/1999/xlink" x="0px" y="0px"
	 viewBox="0 0 16 16" style="enable-background:new 0 0 16 16;" xml:space="preserve">
<style type="text/css">
	.st0{fill:#FC0D1B;}
	.st1{fill:none;stroke:#000000;stroke-miterlimit:10;}
	.st2{fill:#3DD83D;}
</style>
<g>
	<path class="st0" d="M9.6,4.8H2.5c-0.7,0-1.4-0.6-1.4-1.4v0c0-0.7,0.6-1.4,1.4-1.4h7.1c0.7,0,1.4,0.6,1.4,1.4v0
		C11,4.2,10.4,4.8,9.6,4.8z"/>
	<path class="st1" d="M13.5,5h-11C1.7,5,1,4.3,1,3.5v0C1,2.7,1.7,2,2.5,2h11C14.3,2,15,2.7,15,3.5v0C15,4.3,14.3,5,13.5,5z"/>
	<path class="st2" d="M7,7.8H2.4C1.6,7.8,1,7.2,1,6.5v0c0-0.7,0.6-1.4,1.4-1.4H7c0.7,0,1.4,0.6,1.4,1.4v0C8.3,7.2,7.7,7.8,7,7.8z"/>
	<path class="st1" d="M13.5,8h-11C1.7,8,1,7.3,1,6.5v0C1,5.7,1.7,5,2.5,5h11C14.3,5,15,5.7,15,6.5v0C15,7.3,14.3,8,13.5,8z"/>
	<path class="st0" d="M10.8,10.9H2.6c-0.7,0-1.4-0.6-1.4-1.4v0c0-0.7,0.6-1.4,1.4-1.4h8.2c0.7,0,1.4,0.6,1.4,1.4v0
		C12.2,10.3,11.6,10.9,10.8,10.9z"/>
	<path class="st1" d="M13.5,11h-11C1.7,11,1,10.3,1,9.5v0C1,8.7,1.7,8,2.5,8h11C14.3,8,15,8.7,15,9.5v0C15,10.3,14.3,11,13.5,11z"/>
	<path class="st2" d="M8.5,13.9h-6c-0.7,0-1.4-0.6-1.4-1.4v0c0-0.7,0.6-1.4,1.4-1.4h6c0.7,0,1.4,0.6,1.4,1.4v0
		C9.9,13.3,9.2,13.9,8.5,13.9z"/>
	<path class="st1" d="M13.5,14h-11C1.7,14,1,13.3,1,12.5v0C1,11.7,1.7,11,2.5,11h11c0.8,0,1.5,0.7,1.5,1.5v0
		C15,13.3,14.3,14,13.5,14z"/>
</g>
</svg>
