<?xml version="1.0" encoding="utf-8"?>
<!-- Generator: Adobe Illustrator 21.0.0, SVG Export Plug-In . SVG Version: 6.00 Build 0)  -->
<svg version="1.1" id="Layer_1" xmlns="http://www.w3.org/2000/svg" xmlns:xlink="http://www.w3.org/1999/xlink" x="0px" y="0px"
	 viewBox="0 0 151.9545288 200" style="enable-background:new 0 0 151.9545288 200;" xml:space="preserve">
<style type="text/css">
	.st0{fill:#ECF0F1;}
	.st1{fill:none;stroke:#000000;stroke-width:1.5;stroke-linecap:round;stroke-linejoin:round;}
	.st2{fill:none;stroke:#000000;stroke-linecap:round;stroke-linejoin:round;}
</style>
<g>
	<g id="XMLID_17_">
		<g>
			<polygon class="st0" points="72.3756714,61.6687584 72.3756714,138.3312378 56.642395,169.8519592 0.75,169.8519592 
				0.75,143.9638062 27.3422146,143.9638062 51.2806244,143.9638062 55.6946068,135.1087646 58.9170837,128.6908875 
				59.4315987,127.6077042 59.4315987,72.3922958 58.8629265,71.2278748 55.6675262,64.8099976 51.2806244,56.03619 
				27.3422146,56.03619 27.3422146,55.9549522 0.75,55.9549522 0.75,30.1480484 56.642395,30.1480484 			"/>
		</g>
		<g>
			<line class="st1" x1="151.2045288" y1="138.3312378" x2="72.3756714" y2="138.3312378"/>
			<line class="st1" x1="72.3756714" y1="61.6687584" x2="151.2045288" y2="61.6687584"/>
			<polyline class="st1" points="135.4712524,169.8519592 56.642395,169.8519592 0.75,169.8519592 			"/>
			<polyline class="st1" points="0.75,30.1480484 56.642395,30.1480484 135.4712524,30.1480484 			"/>
			<line class="st1" x1="27.3422146" y1="56.03619" x2="51.2806244" y2="56.03619"/>
			<polyline class="st1" points="135.4712524,30.1480484 151.2045288,61.6687584 151.2045288,138.3312378 135.4712524,169.8519592 
							"/>
			<polyline class="st1" points="56.642395,30.1480484 72.3756714,61.6687584 72.3756714,138.3312378 56.642395,169.8519592 			"/>
			<line class="st1" x1="58.9170837" y1="128.6908875" x2="24.1468163" y2="128.6908875"/>
			<line class="st1" x1="55.6946068" y1="135.1087646" x2="27.3422146" y2="135.1087646"/>
			<line class="st1" x1="27.3422146" y1="64.8099976" x2="55.6675262" y2="64.8099976"/>
			<line class="st1" x1="0.75" y1="55.9549522" x2="27.3422146" y2="55.9549522"/>
			<polyline class="st1" points="0.75,169.8519592 0.75,143.9638062 0.75,143.9096527 0.75,142.2307129 0.75,140.5517731 
				0.75,138.8457489 0.75,137.1668243 0.75,135.4878845 0.75,135.1087646 1.3999115,133.7818604 2.2393806,132.1029205 
				3.0788498,130.4239807 3.9453986,128.6908875 			"/>
			<line class="st1" x1="24.1468163" y1="71.2278748" x2="58.8629265" y2="71.2278748"/>
			<polyline class="st1" points="27.3422146,143.9638062 27.3422146,143.9096527 27.3422146,142.2307129 27.3422146,140.5517731 
				27.3422146,138.8457489 27.3422146,137.1668243 27.3422146,135.4878845 27.3422146,135.1087646 26.6923027,133.7818604 
				25.8528328,132.1029205 25.0133648,130.4239807 24.1468163,128.6908875 			"/>
			<polyline class="st1" points="24.1468163,71.2278748 24.9862843,69.5489349 25.8257542,67.8429184 26.6652241,66.1639786 
				27.3422146,64.8099976 27.3422146,64.4850388 27.3422146,62.7790222 27.3422146,61.1000862 27.3422146,59.4211464 
				27.3422146,57.7151299 27.3422146,56.03619 27.3422146,55.9549522 			"/>
			<polyline class="st1" points="3.9453986,71.2278748 3.1059294,69.5489349 2.2664602,67.8429184 1.4269912,66.1639786 
				0.75,64.8099976 0.75,64.4850388 0.75,62.7790222 0.75,61.1000862 0.75,59.4211464 0.75,57.7151299 0.75,56.03619 
				0.75,55.9549522 0.75,30.1480484 			"/>
			<polyline class="st1" points="51.2806244,143.9638062 27.3422146,143.9638062 0.75,143.9638062 			"/>
			<polyline class="st1" points="51.2806244,143.9638062 55.6946068,135.1087646 58.9170837,128.6908875 59.4315987,127.6077042 
				59.4315987,72.3922958 58.8629265,71.2278748 55.6675262,64.8099976 51.2806244,56.03619 			"/>
			<line class="st1" x1="3.9453986" y1="71.2278748" x2="24.1468163" y2="71.2278748"/>
			<line class="st2" x1="3.1059294" y1="69.5489349" x2="24.9862843" y2="69.5489349"/>
			<line class="st2" x1="2.2664602" y1="67.8429184" x2="25.8257542" y2="67.8429184"/>
			<line class="st2" x1="1.4269912" y1="66.1639786" x2="26.6652241" y2="66.1639786"/>
			<line class="st2" x1="0.75" y1="64.4850388" x2="27.3422146" y2="64.4850388"/>
			<line class="st2" x1="0.75" y1="62.7790222" x2="27.3422146" y2="62.7790222"/>
			<line class="st2" x1="0.75" y1="61.1000862" x2="27.3422146" y2="61.1000862"/>
			<line class="st2" x1="0.75" y1="59.4211464" x2="27.3422146" y2="59.4211464"/>
			<line class="st2" x1="0.75" y1="57.7151299" x2="27.3422146" y2="57.7151299"/>
			<line class="st1" x1="0.75" y1="56.03619" x2="27.3422146" y2="56.03619"/>
			<line class="st1" x1="0.75" y1="143.9096527" x2="27.3422146" y2="143.9096527"/>
			<line class="st2" x1="0.75" y1="142.2307129" x2="27.3422146" y2="142.2307129"/>
			<line class="st2" x1="0.75" y1="140.5517731" x2="27.3422146" y2="140.5517731"/>
			<line class="st2" x1="0.75" y1="138.8457489" x2="27.3422146" y2="138.8457489"/>
			<line class="st2" x1="0.75" y1="137.1668243" x2="27.3422146" y2="137.1668243"/>
			<line class="st2" x1="0.75" y1="135.4878845" x2="27.3422146" y2="135.4878845"/>
			<line class="st2" x1="1.3999115" y1="133.7818604" x2="26.6923027" y2="133.7818604"/>
			<line class="st2" x1="2.2393806" y1="132.1029205" x2="25.8528328" y2="132.1029205"/>
			<line class="st2" x1="3.0788498" y1="130.4239807" x2="25.0133648" y2="130.4239807"/>
			<line class="st1" x1="3.9453986" y1="128.6908875" x2="24.1468163" y2="128.6908875"/>
		</g>
	</g>
</g>
</svg>
