<?xml version="1.0" encoding="utf-8"?>
<!-- Generator: Adobe Illustrator 21.0.0, SVG Export Plug-In . SVG Version: 6.00 Build 0)  -->
<svg version="1.1" id="Layer_1" xmlns="http://www.w3.org/2000/svg" xmlns:xlink="http://www.w3.org/1999/xlink" x="0px" y="0px"
	 viewBox="0 0 98.2464981 200" style="enable-background:new 0 0 98.2464981 200;" xml:space="preserve">
<style type="text/css">
	.st0{fill:none;stroke:#FFFFFF;stroke-width:0.75;stroke-linecap:round;stroke-linejoin:round;}
	.st1{fill:#797979;}
	.st2{fill:none;stroke:#FFFFFF;stroke-width:1.5;stroke-linecap:round;stroke-linejoin:round;}
	.st3{fill:#FFFFFF;}
</style>
<g>
	<line class="st0" x1="71.8100891" y1="77.1495438" x2="71.8100891" y2="122.8504562"/>
	<line class="st0" x1="70.2531586" y1="77.1495438" x2="70.2531586" y2="122.8504562"/>
	<line class="st0" x1="68.6962204" y1="77.1495438" x2="68.6962204" y2="122.8504562"/>
	<line class="st0" x1="67.1392899" y1="77.1495438" x2="67.1392899" y2="122.8504562"/>
	<line class="st0" x1="65.5823517" y1="77.1495438" x2="65.5823517" y2="122.8504562"/>
	<line class="st0" x1="64.0254211" y1="77.1495438" x2="64.0254211" y2="122.8504562"/>
	<line class="st0" x1="62.468483" y1="77.1495438" x2="62.468483" y2="122.8504562"/>
	<line class="st0" x1="60.9115486" y1="77.1495438" x2="60.9115486" y2="122.8504562"/>
	<line class="st0" x1="59.3546143" y1="77.1495438" x2="59.3546143" y2="122.8504562"/>
	<line class="st0" x1="57.7976799" y1="77.1495438" x2="57.7976799" y2="122.8504562"/>
</g>
<g>
	<g id="XMLID_14_">
		<g>
			<polygon class="st1" points="68.7487183,40.6668472 73.7845306,50.7384796 70.4339294,57.4396896 70.4339294,77.1467896 
				59.608902,77.1467896 59.608902,74.490097 58.5779495,72.4083557 56.8729095,69.0181046 55.4256058,69.0181046 
				55.4256058,47.3680534 65.3981094,47.3680534 66.904892,44.3743172 			"/>
			<polygon class="st1" points="70.4339294,142.5727692 73.7845306,149.2739716 68.7487183,159.3257904 66.904892,155.6183167 
				65.3981094,152.6245728 55.4256058,152.6245728 55.4256058,130.9745178 56.8729095,130.9745178 58.5779495,127.5842667 
				59.608902,125.502533 59.608902,122.8458405 70.4339294,122.8458405 			"/>
			<polygon class="st1" points="32.5859909,130.9745178 32.5859909,152.6245728 22.8315716,152.6245728 19.4809685,159.3257904 
				14.4649773,149.2739716 17.8155804,142.5727692 17.8155804,122.8458405 28.6406059,122.8458405 28.6406059,125.502533 
				31.3766022,130.9745178 			"/>
			<polygon class="st1" points="32.5859909,47.3680534 32.5859909,69.0181046 31.3766022,69.0181046 28.6406059,74.490097 
				28.6406059,77.1467896 17.8155804,77.1467896 17.8155804,57.4396896 14.4649773,50.7384796 19.4809685,40.6668472 
				22.8315716,47.3680534 			"/>
		</g>
		<g>
			<line class="st2" x1="30.2068653" y1="122.8458405" x2="30.2068653" y2="77.1467896"/>
			<line class="st2" x1="71.8019257" y1="77.1467896" x2="71.8019257" y2="122.8458405"/>
			<line class="st2" x1="54.1567383" y1="122.8458405" x2="54.1567383" y2="77.1467896"/>
			<line class="st2" x1="16.1898441" y1="122.8458405" x2="16.1898441" y2="77.1467896"/>
			<line class="st2" x1="95.7518005" y1="77.1467896" x2="95.7518005" y2="122.8458405"/>
			<line class="st2" x1="57.8047333" y1="77.1467896" x2="57.8047333" y2="122.8458405"/>
			<polyline class="st2" points="32.5859909,155.6183167 32.5859909,152.6245728 32.5859909,130.9745178 32.5859909,127.5842667 			
				"/>
			<polyline class="st2" points="32.5859909,72.4083557 32.5859909,69.0181046 32.5859909,47.3680534 32.5859909,44.3743172 			"/>
			<line class="st2" x1="97.4964981" y1="149.2739716" x2="73.7845306" y2="149.2739716"/>
			<line class="st2" x1="73.7845306" y1="50.7384796" x2="97.4964981" y2="50.7384796"/>
			<line class="st2" x1="28.6406059" y1="74.490097" x2="52.3327408" y2="74.490097"/>
			<line class="st2" x1="52.3327408" y1="125.502533" x2="28.6406059" y2="125.502533"/>
			<line class="st2" x1="94.1458893" y1="142.5727692" x2="70.4339294" y2="142.5727692"/>
			<line class="st2" x1="70.4339294" y1="57.4396896" x2="94.1458893" y2="57.4396896"/>
			<line class="st2" x1="92.4606781" y1="159.3257904" x2="68.7487183" y2="159.3257904"/>
			<line class="st2" x1="43.1929321" y1="159.3257904" x2="19.4809685" y2="159.3257904"/>
			<line class="st2" x1="19.4809685" y1="40.6668472" x2="43.1929321" y2="40.6668472"/>
			<line class="st2" x1="68.7487183" y1="40.6668472" x2="92.4606781" y2="40.6668472"/>
			<polyline class="st2" points="66.904892,44.3743172 55.4256058,44.3743172 45.0565796,44.3743172 32.5859909,44.3743172 			"/>
			<polyline class="st2" points="17.8155804,77.1467896 17.8155804,57.4396896 14.4649773,50.7384796 19.4809685,40.6668472 			"/>
			<polyline class="st2" points="94.1458893,122.8458405 94.1458893,142.5727692 97.4964981,149.2739716 92.4606781,159.3257904 			
				"/>
			<polyline class="st2" points="70.4339294,122.8458405 70.4339294,142.5727692 73.7845306,149.2739716 68.7487183,159.3257904 			
				"/>
			<polyline class="st2" points="16.1898441,77.1467896 17.8155804,77.1467896 28.6406059,77.1467896 30.2068653,77.1467896 
				52.3327408,77.1467896 54.1567383,77.1467896 			"/>
			<polyline class="st2" points="57.8047333,77.1467896 59.608902,77.1467896 70.4339294,77.1467896 71.8019257,77.1467896 
				94.1458893,77.1467896 95.7518005,77.1467896 			"/>
			<polyline class="st2" points="66.904892,155.6183167 55.4256058,155.6183167 45.0565796,155.6183167 32.5859909,155.6183167 			
				"/>
			<polyline class="st2" points="92.4606781,40.6668472 97.4964981,50.7384796 94.1458893,57.4396896 94.1458893,77.1467896 			"/>
			<polyline class="st2" points="68.7487183,40.6668472 73.7845306,50.7384796 70.4339294,57.4396896 70.4339294,77.1467896 			"/>
			<polyline class="st2" points="19.4809685,159.3257904 14.4649773,149.2739716 17.8155804,142.5727692 17.8155804,122.8458405 			
				"/>
			<line class="st2" x1="65.3981094" y1="152.6245728" x2="55.4256058" y2="152.6245728"/>
			<line class="st2" x1="55.4256058" y1="47.3680534" x2="65.3981094" y2="47.3680534"/>
			<line class="st2" x1="22.8315716" y1="47.3680534" x2="32.5859909" y2="47.3680534"/>
			<line class="st2" x1="32.5859909" y1="152.6245728" x2="22.8315716" y2="152.6245728"/>
			<line class="st2" x1="19.4809685" y1="159.3257904" x2="22.8315716" y2="152.6245728"/>
			<line class="st2" x1="22.8315716" y1="47.3680534" x2="19.4809685" y2="40.6668472"/>
			<polyline class="st2" points="28.6406059,122.8458405 28.6406059,125.502533 31.3766022,130.9745178 32.5859909,130.9745178 			
				"/>
			<polyline class="st2" points="59.608902,77.1467896 59.608902,74.490097 58.5779495,72.4083557 56.8729095,69.0181046 
				55.4256058,69.0181046 			"/>
			<line class="st2" x1="43.1929321" y1="40.6668472" x2="45.0565796" y2="44.3743172"/>
			<line class="st2" x1="45.0565796" y1="155.6183167" x2="43.1929321" y2="159.3257904"/>
			<polyline class="st2" points="58.5779495,127.5842667 55.4256058,127.5842667 53.383522,127.5842667 32.5859909,127.5842667 			
				"/>
			<polyline class="st2" points="28.6406059,77.1467896 28.6406059,74.490097 31.3766022,69.0181046 32.5859909,69.0181046 			"/>
			<polyline class="st2" points="52.3327408,77.1467896 52.3327408,74.490097 53.383522,72.4083557 			"/>
			<polyline class="st2" points="59.608902,122.8458405 59.608902,125.502533 58.5779495,127.5842667 56.8729095,130.9745178 
				55.4256058,130.9745178 			"/>
			<polyline class="st2" points="53.383522,127.5842667 52.3327408,125.502533 52.3327408,122.8458405 			"/>
			<polyline class="st2" points="95.7518005,122.8458405 94.1458893,122.8458405 71.8019257,122.8458405 70.4339294,122.8458405 
				59.608902,122.8458405 57.8047333,122.8458405 			"/>
			<polyline class="st2" points="54.1567383,122.8458405 52.3327408,122.8458405 30.2068653,122.8458405 28.6406059,122.8458405 
				17.8155804,122.8458405 16.1898441,122.8458405 			"/>
			<polyline class="st2" points="58.5779495,72.4083557 55.4256058,72.4083557 53.383522,72.4083557 32.5859909,72.4083557 			"/>
			<polyline class="st2" points="68.7487183,159.3257904 66.904892,155.6183167 65.3981094,152.6245728 			"/>
			<polyline class="st2" points="65.3981094,47.3680534 66.904892,44.3743172 68.7487183,40.6668472 			"/>
			<polyline class="st2" points="55.4256058,155.6183167 55.4256058,152.6245728 55.4256058,130.9745178 55.4256058,127.5842667 			
				"/>
			<polyline class="st2" points="55.4256058,72.4083557 55.4256058,69.0181046 55.4256058,47.3680534 55.4256058,44.3743172 			"/>
		</g>
	</g>
	<g>
		<line class="st0" x1="30.2063408" y1="77.1495438" x2="30.2063408" y2="122.8504562"/>
		<line class="st0" x1="28.6494045" y1="77.1495438" x2="28.6494045" y2="122.8504562"/>
		<line class="st0" x1="27.0924702" y1="77.1495438" x2="27.0924702" y2="122.8504562"/>
		<line class="st0" x1="25.5355358" y1="77.1495438" x2="25.5355358" y2="122.8504562"/>
		<line class="st0" x1="23.9786015" y1="77.1495438" x2="23.9786015" y2="122.8504562"/>
		<line class="st0" x1="22.4216652" y1="77.1495438" x2="22.4216652" y2="122.8504562"/>
		<line class="st0" x1="20.8647308" y1="77.1495438" x2="20.8647308" y2="122.8504562"/>
		<line class="st0" x1="19.3077965" y1="77.1495438" x2="19.3077965" y2="122.8504562"/>
		<line class="st0" x1="17.7508621" y1="77.1495438" x2="17.7508621" y2="122.8504562"/>
		<line class="st0" x1="16.1939259" y1="77.1495438" x2="16.1939259" y2="122.8504562"/>
	</g>
</g>
<g>
	<line class="st0" x1="32.6972351" y1="44.3333321" x2="55.5476913" y2="44.3333321"/>
	<line class="st0" x1="32.6972351" y1="46.4929733" x2="55.5476913" y2="46.4929733"/>
	<line class="st0" x1="32.6972351" y1="48.6526146" x2="55.5476913" y2="48.6526146"/>
	<line class="st0" x1="32.6972351" y1="50.8122559" x2="55.5476913" y2="50.8122559"/>
	<line class="st0" x1="32.6972351" y1="52.9718971" x2="55.5476913" y2="52.9718971"/>
	<line class="st0" x1="32.6972351" y1="55.1315346" x2="55.5476913" y2="55.1315346"/>
	<line class="st0" x1="32.6972351" y1="57.2911758" x2="55.5476913" y2="57.2911758"/>
	<line class="st0" x1="32.6972351" y1="59.4508171" x2="55.5476913" y2="59.4508171"/>
	<line class="st0" x1="32.6972351" y1="61.6104584" x2="55.5476913" y2="61.6104584"/>
	<line class="st0" x1="32.6972351" y1="63.7700996" x2="55.5476913" y2="63.7700996"/>
	<line class="st0" x1="32.6972351" y1="65.9297409" x2="55.5476913" y2="65.9297409"/>
	<line class="st0" x1="32.6972351" y1="68.0893784" x2="55.5476913" y2="68.0893784"/>
	<line class="st0" x1="32.6972351" y1="70.2490234" x2="55.5476913" y2="70.2490234"/>
	<line class="st0" x1="32.6972351" y1="72.4086609" x2="55.5476913" y2="72.4086609"/>
</g>
<g>
	<line class="st0" x1="32.6972351" y1="127.5661469" x2="55.5476913" y2="127.5661469"/>
	<line class="st0" x1="32.6972351" y1="129.7257843" x2="55.5476913" y2="129.7257843"/>
	<line class="st0" x1="32.6972351" y1="131.885437" x2="55.5476913" y2="131.885437"/>
	<line class="st0" x1="32.6972351" y1="134.0450745" x2="55.5476913" y2="134.0450745"/>
	<line class="st0" x1="32.6972351" y1="136.2047119" x2="55.5476913" y2="136.2047119"/>
	<line class="st0" x1="32.6972351" y1="138.3643494" x2="55.5476913" y2="138.3643494"/>
	<line class="st0" x1="32.6972351" y1="140.5239868" x2="55.5476913" y2="140.5239868"/>
	<line class="st0" x1="32.6972351" y1="142.6836395" x2="55.5476913" y2="142.6836395"/>
	<line class="st0" x1="32.6972351" y1="144.843277" x2="55.5476913" y2="144.843277"/>
	<line class="st0" x1="32.6972351" y1="147.0029144" x2="55.5476913" y2="147.0029144"/>
	<line class="st0" x1="32.6972351" y1="149.1625519" x2="55.5476913" y2="149.1625519"/>
	<line class="st0" x1="32.6972351" y1="151.3221893" x2="55.5476913" y2="151.3221893"/>
	<line class="st0" x1="32.6972351" y1="153.481842" x2="55.5476913" y2="153.481842"/>
	<line class="st0" x1="32.6972351" y1="155.6414795" x2="55.5476913" y2="155.6414795"/>
</g>
<g>
	<path class="st3" d="M79.4073257,94.218689h2.1065216l5.1268921,9.6729507V94.218689h1.5179291v11.5626221h-2.106514
		l-5.1268921-9.6729507v9.6729507h-1.5179367V94.218689z"/>
</g>
<g>
	<path class="st3" d="M0,94.218689h2.1065183l5.126894,9.6729507V94.218689h1.5179324v11.5626221H6.6448264l-5.126894-9.6729507
		v9.6729507H0V94.218689z"/>
</g>
<g>
	<path class="st3" d="M58.6027527,25.1430893v1.5256767c-0.5934258-0.2836437-1.1539383-0.4956512-1.6805687-0.6350517
		c-0.5266304-0.1394024-1.0348663-0.2091045-1.5256767-0.2091045c-0.851902,0-1.5092201,0.1655407-1.9709892,0.4956532
		c-0.4617691,0.3301105-0.6931381,0.8005924-0.6931381,1.4095078c0,0.5111408,0.153923,0.8973999,0.460804,1.1578102
		c0.3068771,0.2604103,0.8896561,0.4714508,1.7463951,0.6311817l0.9448357,0.1936131
		c1.166523,0.2216892,2.0281029,0.6127892,2.5828094,1.1732998c0.5547028,0.5605125,0.8325386,1.3097973,0.8325386,2.2497921
		c0,1.1200562-0.3756104,1.9700203-1.1268311,2.5479584c-0.7512245,0.5779381-1.8519173,0.8673897-3.3030548,0.8673897
		c-0.5469589,0-1.129734-0.0619545-1.7463951-0.1858673s-1.2555847-0.306881-1.9167786-0.5498657V34.204216
		c0.6350555,0.3562508,1.2575226,0.6244049,1.8664398,0.8054352c0.6089134,0.1810265,1.208149,0.2710571,1.7967339,0.2710571
		c0.893528,0,1.5827942-0.1752205,2.0677986-0.5266266c0.4850006-0.3514099,0.7279854-0.851902,0.7279854-1.5024452
		c0-0.5682564-0.1742516-1.011631-0.5227547-1.3320637c-0.3485069-0.3204308-0.9206352-0.5605106-1.7154198-0.7202435
		l-0.9525795-0.1858692c-1.166523-0.232336-2.0106812-0.5963306-2.5324707-1.0919819s-0.7821999-1.1849155-0.7821999-2.0677948
		c0-1.0222816,0.3601227-1.8277149,1.080368-2.4162998c0.7202415-0.5885868,1.712513-0.8828793,2.9777794-0.8828793
		c0.5421181,0,1.0948868,0.0493717,1.6573334,0.1471462S58.0141678,24.9465714,58.6027527,25.1430893z"/>
</g>
<g>
	<path class="st3" d="M58.6027527,164.0373993v1.5256805c-0.5934258-0.2836456-1.1539383-0.4956512-1.6805687-0.6350555
		s-1.0348663-0.2091064-1.5256767-0.2091064c-0.851902,0-1.5092201,0.1655426-1.9709892,0.4956512
		c-0.4617691,0.3301239-0.6931381,0.8005981-0.6931381,1.4095154c0,0.5111389,0.153923,0.8973999,0.460804,1.1578064
		c0.3068771,0.2604065,0.8896561,0.4714508,1.7463951,0.6311798l0.9448357,0.1936188
		c1.166523,0.2216797,2.0281029,0.612793,2.5828094,1.1732941c0.5547028,0.5605164,0.8325386,1.3097992,0.8325386,2.2498016
		c0,1.1200562-0.3756104,1.9700165-1.1268311,2.5479584c-0.7512245,0.5779266-1.8519173,0.8673859-3.3030548,0.8673859
		c-0.5469589,0-1.129734-0.0619507-1.7463951-0.1858673s-1.2555847-0.3068848-1.9167786-0.5498657v-1.6108704
		c0.6350555,0.3562469,1.2575226,0.6244049,1.8664398,0.8054352c0.6089134,0.1810303,1.208149,0.2710571,1.7967339,0.2710571
		c0.893528,0,1.5827942-0.1752167,2.0677986-0.5266266c0.4850006-0.3514099,0.7279854-0.8518982,0.7279854-1.5024414
		c0-0.5682526-0.1742516-1.0116272-0.5227547-1.3320618c-0.3485069-0.3204346-0.9206352-0.5605164-1.7154198-0.7202454
		l-0.9525795-0.1858673c-1.166523-0.2323456-2.0106812-0.5963287-2.5324707-1.09198s-0.7821999-1.1849213-0.7821999-2.0677948
		c0-1.0222931,0.3601227-1.827713,1.080368-2.4163055c0.7202415-0.5885925,1.712513-0.8828735,2.9777794-0.8828735
		c0.5421181,0,1.0948868,0.0493622,1.6573334,0.1471405S58.0141678,163.8408813,58.6027527,164.0373993z"/>
</g>
</svg>
