<?xml version="1.0" encoding="utf-8"?>
<!-- Generator: Adobe Illustrator 21.0.0, SVG Export Plug-In . SVG Version: 6.00 Build 0)  -->
<svg version="1.1" id="Layer_1" xmlns="http://www.w3.org/2000/svg" xmlns:xlink="http://www.w3.org/1999/xlink" x="0px" y="0px"
	 viewBox="0 0 122.1367874 200" style="enable-background:new 0 0 122.1367874 200;" xml:space="preserve">
<style type="text/css">
	.st0{fill:#797979;}
	.st1{fill:#6CAFD8;}
	.st2{fill:#E57873;}
	.st3{fill:#999999;}
	.st4{fill:#ECF0F1;}
	.st5{fill:none;stroke:#FFFFFF;stroke-width:1.5;stroke-linecap:round;stroke-linejoin:round;}
	.st6{fill:none;stroke:#FFFFFF;stroke-width:0.75;stroke-linecap:round;stroke-linejoin:round;}
	.st7{fill:#FFFFFF;}
</style>
<g>
	<g>
		<g>
			<g id="XMLID_5_">
				<g>
					<path class="st0" d="M87.742897,67.6941223v64.7629547l-22.8974533,45.7949066H32.4639664L9.566514,132.457077V67.6941223
						L28.6745987,29.475832h39.9602127l11.2110901,22.4243107L87.742897,67.6941223z M77.7857285,124.2078857v-14.9643936
						V90.8949814V75.9433136l-0.0063629-0.0127258l-5.959877-11.9176254L69.9035873,60.18116l-3.1783142-6.3587532
						l-6.0044289-12.0067329h-0.036068H36.588562l-0.0063667,0.0127296L19.5258026,75.9433136l0.0063648,48.2645721v0.0127258
						l17.0563946,34.1149139h24.0962143l0.0403137-0.0063629L77.7857285,124.2078857z"/>
					<polygon class="st1" points="76.7206345,122.0776901 77.7857285,124.2078857 60.7102356,158.2867279 59.6408958,156.1480408 
											"/>
					<polygon class="st2" points="60.7144814,41.8284035 77.7793655,75.9305878 76.710022,78.0692673 59.6472626,43.962841 
						60.697506,41.8644714 					"/>
					<polygon class="st3" points="75.6597748,119.955986 76.7206345,122.0776901 59.6408958,156.1480408 58.5673141,154.003006 
											"/>
					<polygon class="st3" points="59.6472626,43.962841 76.710022,78.0692673 75.644928,80.1994553 75.6364365,80.1952133 
						58.5779228,46.1015205 					"/>
					<polygon class="st1" points="74.6201401,117.8788376 75.6597748,119.955986 58.5673141,154.003006 57.4725151,151.8112793 
											"/>
					<polygon class="st2" points="75.644928,80.1994553 74.5798264,82.3296509 74.5607376,82.321167 57.510704,48.2359581 
						58.5779228,46.1015205 75.6364365,80.1952133 					"/>
					<polygon class="st3" points="73.4680557,115.5725403 74.6201401,117.8788376 57.4725151,151.8112793 56.4710693,149.8105164 
						56.5219879,149.7850494 					"/>
					<polygon class="st3" points="74.5798264,82.3296509 73.5147324,84.4598465 73.4871521,84.447113 56.4434853,50.3703918 
						57.510704,48.2359581 74.5607376,82.321167 					"/>
					<polygon class="st2" points="73.5147324,84.4598465 72.4475174,86.5921555 72.4114456,86.5730591 55.3741455,52.5090714 
						55.3741455,52.5069504 56.4434853,50.3703918 73.4871521,84.447113 					"/>
					<polygon class="st1" points="73.4680557,115.5725403 56.5219879,149.7850494 56.4710693,149.8105164 55.3486862,147.5657501 
						55.4696236,147.5042114 72.4453964,113.529335 					"/>
					<polygon class="st3" points="72.4475174,86.5921555 71.3824158,88.7223511 71.3378601,88.6990128 54.3069267,54.6435089 
						55.3741455,52.5090714 72.4114456,86.5730591 					"/>
					<polygon class="st3" points="71.367569,111.3736877 72.4453964,113.529335 55.4696236,147.5042114 55.3486862,147.5657501 
						54.3217812,145.5119324 					"/>
					<polygon class="st2" points="71.3824158,88.7223511 70.3300552,90.8249588 70.2621613,90.8249588 66.5640259,83.4286957 
						56.9717903,64.2442245 53.2439537,56.7885551 53.2397118,56.7779465 54.3069267,54.6435089 71.3378601,88.6990128 					"/>
					<polygon class="st1" points="70.3364182,109.3135071 71.367569,111.3736877 54.3217812,145.5119324 53.2524414,143.3732605 
						68.4565887,112.9373779 70.2345734,109.383522 70.2685242,109.3135071 					"/>
					<polygon class="st4" points="70.2685242,109.3135071 70.2345734,109.383522 68.4565887,112.9373779 					"/>
					<polygon class="st0" points="64.8899994,113.3489914 66.5703888,116.7097778 56.978157,135.8942413 55.2977638,132.5313416 
						54.8500862,131.5447388 54.4596901,130.4944916 54.1265831,129.3890839 53.8486404,128.2412415 53.6301041,127.053093 
						53.466732,125.8394775 53.3627701,124.6046448 53.3160934,123.3570786 53.3245773,122.107399 53.3903503,120.8640747 
						53.5155334,119.6356049 53.6958771,118.42836 53.9356308,117.2529297 54.2305489,116.1178207 54.5827522,115.0315018 
						54.8500862,114.3377075 55.2977638,113.3489914 55.7921219,112.4536362 56.318306,111.670723 56.8699493,111.004509 
						57.444931,110.4507446 58.0368881,110.0115509 58.6458168,109.6890488 59.2632332,109.4790039 59.8021469,109.3962555 
						59.8848953,109.383522 60.5107956,109.4026184 61.1324577,109.5362854 61.7477531,109.782402 62.3503151,110.1452179 
						62.9380302,110.6225967 63.5045242,111.2145538 64.0498047,111.9189606 64.3956375,112.4536362 					"/>
					<polygon class="st0" points="56.9717903,64.2442245 66.5640259,83.4286957 64.8836365,86.7894745 64.3892746,87.6848373 
						63.8652153,88.4677429 63.3114471,89.1339645 62.7364655,89.6877289 62.1445122,90.1269226 61.5355797,90.4494171 
						60.9181633,90.6594696 60.296505,90.7549438 59.6706009,90.7358475 59.0489426,90.6021805 58.4357681,90.3539429 
						57.8310814,89.9932556 57.2433701,89.5158691 56.6768761,88.923912 56.1337166,88.2195053 55.785759,87.6848373 
						55.2914009,86.7894745 54.8437195,85.8007584 54.4533272,84.7505188 54.1202202,83.6472321 53.8422737,82.4972687 
						53.6237411,81.3112335 53.4603691,80.0954971 53.3564034,78.8606644 53.3097267,77.6130981 53.3182144,76.3655319 
						53.3861084,75.1222153 53.5091667,73.8916245 53.6895103,72.6843719 53.9292641,71.5089493 54.2241821,70.3738403 
						54.5763855,69.2875214 54.8437195,68.5937271 55.2914009,67.605011 56.9654274,64.256958 					"/>
					<polygon class="st2" points="33.2850647,121.7997513 44.0696983,143.3732605 43.0024796,145.5098114 25.9439621,111.3927765 
						27.0133018,109.256218 30.7453823,116.7225037 					"/>
					<polygon class="st1" points="42.9961128,54.6541176 44.0633316,56.7906761 40.3312492,64.256958 30.7390175,83.4414215 
						27.006937,90.9077072 25.9375973,88.7690277 					"/>
					<polygon class="st0" points="43.9530029,121.290535 44.0018005,122.5359802 43.9911957,123.7856674 43.9254227,125.0289841 
						43.8002396,126.2595749 43.6198959,127.4647064 43.3822632,128.6401215 43.0852242,129.777359 42.7330208,130.863678 
						42.4656868,131.5574799 42.0180092,132.5440674 40.337616,135.9048462 33.2850647,121.7997513 30.7453823,116.7225037 
						32.4257736,113.3617249 32.9201317,112.466362 33.4463158,111.6834564 33.9979591,111.0172348 34.5729408,110.4634705 
						35.1648979,110.0242767 35.7738266,109.7017822 36.391243,109.4917297 37.0150261,109.3962555 37.6388054,109.4153519 
						38.2604675,109.5490189 38.8757591,109.7951355 39.4783249,110.1579437 40.0660362,110.6353302 40.634655,111.2272873 
						41.1778107,111.931694 41.5236511,112.466362 42.0180092,113.3617249 42.4656868,114.350441 42.8560829,115.4006805 
						43.1913109,116.5039673 43.4671326,117.6539307 43.6856689,118.8399658 43.849041,120.0557022 					"/>
					<polygon class="st0" points="43.9466362,75.5465546 43.9954376,76.7941208 43.9848289,78.043808 43.9190559,79.2871246 
						43.7938766,80.5155945 43.6135292,81.7228394 43.3759003,82.8982697 43.0788612,84.0333786 42.7266579,85.1196976 
						42.4593239,85.8134918 42.0116425,86.8022079 41.5172844,87.6975632 40.9932251,88.4804764 40.4415779,89.1466904 
						39.8665962,89.7004547 39.2725182,90.1396484 38.6657104,90.4621506 38.0482941,90.6721954 37.4245148,90.7676773 
						36.7986107,90.7485809 36.1769524,90.6149139 35.5637779,90.3666763 34.9590912,90.0059814 34.3713799,89.5286026 
						33.804882,88.9366455 33.2617264,88.2322388 32.913765,87.6975632 32.4194107,86.8022079 30.7390175,83.4414215 
						40.3312492,64.256958 42.0116425,67.6198654 42.4593239,68.6064529 42.8497162,69.6567001 43.1849442,70.7599869 
						43.4607658,71.9099503 43.6793022,73.0981064 43.8426743,74.3117218 					"/>
					<polygon class="st3" points="25.9439621,111.3927765 43.0024796,145.5098114 41.9331398,147.6463776 24.8746223,113.529335 
											"/>
					<polygon class="st3" points="42.9961128,54.6541176 25.9375973,88.7690277 24.8703785,86.6324692 41.9267731,52.5175591 					
						"/>
					<polygon class="st2" points="41.9331398,147.6463776 41.9331398,147.6484985 40.8638,149.7850494 23.8074036,115.6637726 
						24.8746223,113.529335 					"/>
					<polygon class="st1" points="41.9267731,52.5154381 41.9267731,52.5175591 24.8703785,86.6324692 23.8010387,84.4937897 
						40.8574333,50.3810005 					"/>
					<polygon class="st3" points="23.8074036,115.6637726 40.8638,149.7850494 39.7944603,151.9237366 22.7380638,117.8003311 					
						"/>
					<polygon class="st3" points="39.7902145,48.242321 40.8574333,50.3810005 23.8010387,84.4937897 22.7338219,82.3572311 					
						"/>
					<polygon class="st2" points="22.7380638,117.8003311 39.7944603,151.9237366 38.7272415,154.0581665 21.6687241,119.9368896 
											"/>
					<polygon class="st1" points="39.7902145,48.242321 22.7338219,82.3572311 21.6644821,80.2185516 38.7208748,46.1057625 					
						"/>
					<polygon class="st3" points="38.7272415,154.0581665 38.7272415,154.0602875 37.6579018,156.1968384 20.5993843,122.0734482 
						21.6687241,119.9368896 					"/>
					<polygon class="st3" points="38.7208748,46.1057625 21.6644821,80.2185516 20.5951424,78.0819931 20.5972633,78.0798721 
						37.651535,43.9692039 					"/>
					<polygon class="st2" points="37.6579018,156.1968384 37.6579018,156.1989746 36.588562,158.3355255 19.5321674,124.2078857 
						20.5993843,122.0734482 					"/>
					<polygon class="st1" points="36.5843163,41.8326492 37.651535,43.9692039 20.5972633,78.0798721 20.5951424,78.0819931 
						19.5258026,75.9433136 36.5821953,41.8284035 					"/>
				</g>
				<g>
					<polyline class="st5" points="32.4639664,178.2519836 9.566514,132.457077 9.566514,67.6941223 28.6745987,29.475832 
						68.6348114,29.475832 79.8459015,51.9001427 87.742897,67.6941223 87.742897,132.457077 64.8454437,178.2519836 					"/>
					<line class="st5" x1="121.3867874" y1="67.6941223" x2="87.742897" y2="67.6941223"/>
					<polyline class="st5" points="98.4893341,178.2519836 121.3867874,132.457077 121.3867874,67.6941223 102.2787018,29.475832 
						68.6348114,29.475832 					"/>
					<polyline class="st5" points="19.5321674,124.2078857 19.5258026,75.9433136 36.5821953,41.8284035 					"/>
					<polyline class="st5" points="77.7857285,75.9433136 77.7857285,90.8949814 77.7857285,109.2434921 77.7857285,124.2078857 
						60.72509,158.3291626 60.6847763,158.3355255 36.588562,158.3355255 					"/>
					<polyline class="st5" points="60.7208443,41.8156738 66.7252731,53.8224068 69.9035873,60.18116 71.8194885,64.0129623 
						77.7793655,75.9305878 					"/>
					<polyline class="st5" points="36.588562,41.8156738 60.6847763,41.8156738 60.7208443,41.8156738 					"/>
					<polyline class="st5" points="36.5821953,41.8284035 36.586441,41.8284035 60.6784134,41.8284035 					"/>
					<line class="st5" x1="121.3867874" y1="132.457077" x2="87.742897" y2="132.457077"/>
					<polyline class="st5" points="98.4893341,178.2519836 64.8454437,178.2519836 32.4639664,178.2519836 					"/>
					<line class="st5" x1="53.169693" y1="109.256218" x2="53.169693" y2="90.9077072"/>
					<polyline class="st5" points="27.006937,90.9077072 25.9375973,88.7690277 24.8703785,86.6324692 23.8010387,84.4937897 
						22.7338219,82.3572311 21.6644821,80.2185516 20.5951424,78.0819931 19.5258026,75.9433136 					"/>
					<polyline class="st5" points="70.3024673,109.2434921 70.3364182,109.3135071 71.367569,111.3736877 72.4453964,113.529335 
						73.4680557,115.5725403 74.6201401,117.8788376 75.6597748,119.955986 76.7206345,122.0776901 77.7857285,124.2078857 					"/>
					<polyline class="st5" points="77.7793655,75.9305878 76.710022,78.0692673 75.644928,80.1994553 74.5798264,82.3296509 
						73.5147324,84.4598465 72.4475174,86.5921555 71.3824158,88.7223511 70.3300552,90.8249588 70.2961044,90.8949814 					"/>
					<line class="st5" x1="40.3312492" y1="64.256958" x2="56.9654274" y2="64.256958"/>
					<line class="st5" x1="56.9717903" y1="135.9048462" x2="40.337616" y2="135.9048462"/>
					<polyline class="st5" points="66.5640259,83.4286957 64.8836365,86.7894745 64.3892746,87.6848373 63.8652153,88.4677429 
						63.3114471,89.1339645 62.7364655,89.6877289 62.1445122,90.1269226 61.5355797,90.4494171 60.9181633,90.6594696 
						60.296505,90.7549438 59.6706009,90.7358475 59.0489426,90.6021805 58.4357681,90.3539429 57.8310814,89.9932556 
						57.2433701,89.5158691 56.6768761,88.923912 56.1337166,88.2195053 55.785759,87.6848373 55.2914009,86.7894745 
						54.8437195,85.8007584 54.4533272,84.7505188 54.1202202,83.6472321 53.8422737,82.4972687 53.6237411,81.3112335 
						53.4603691,80.0954971 53.3564034,78.8606644 53.3097267,77.6130981 53.3182144,76.3655319 53.3861084,75.1222153 
						53.5091667,73.8916245 53.6895103,72.6843719 53.9292641,71.5089493 54.2241821,70.3738403 54.5763855,69.2875214 
						54.8437195,68.5937271 55.2914009,67.605011 56.9654274,64.256958 56.9717903,64.2442245 					"/>
					<polyline class="st5" points="40.337616,135.9048462 42.0180092,132.5440674 42.4656868,131.5574799 42.7330208,130.863678 
						43.0852242,129.777359 43.3822632,128.6401215 43.6198959,127.4647064 43.8002396,126.2595749 43.9254227,125.0289841 
						43.9911957,123.7856674 44.0018005,122.5359802 43.9530029,121.290535 43.849041,120.0557022 43.6856689,118.8399658 
						43.4671326,117.6539307 43.1913109,116.5039673 42.8560829,115.4006805 42.4656868,114.350441 42.0180092,113.3617249 
						41.5236511,112.466362 41.1778107,111.931694 40.634655,111.2272873 40.0660362,110.6353302 39.4783249,110.1579437 
						38.8757591,109.7951355 38.2604675,109.5490189 37.6388054,109.4153519 37.0150261,109.3962555 					"/>
					<polyline class="st5" points="66.5703888,116.7097778 64.8899994,113.3489914 64.3956375,112.4536362 64.0498047,111.9189606 
						63.5045242,111.2145538 62.9380302,110.6225967 62.3503151,110.1452179 61.7477531,109.782402 61.1324577,109.5362854 
						60.5107956,109.4026184 59.8848953,109.383522 					"/>
					<polyline class="st5" points="37.4245148,90.7676773 38.0482941,90.6721954 38.6657104,90.4621506 39.2725182,90.1396484 
						39.8665962,89.7004547 40.4415779,89.1466904 40.9932251,88.4804764 41.5172844,87.6975632 42.0116425,86.8022079 
						42.4593239,85.8134918 42.7266579,85.1196976 43.0788612,84.0333786 43.3759003,82.8982697 43.6135292,81.7228394 
						43.7938766,80.5155945 43.9190559,79.2871246 43.9848289,78.043808 43.9954376,76.7941208 43.9466362,75.5465546 
						43.8426743,74.3117218 43.6793022,73.0981064 43.4607658,71.9099503 43.1849442,70.7599869 42.8497162,69.6567001 
						42.4593239,68.6064529 42.0116425,67.6198654 40.3312492,64.256958 					"/>
					<polyline class="st5" points="70.2685242,109.3135071 70.2345734,109.383522 68.4565887,112.9373779 66.5703888,116.7097778 
						56.978157,135.8942413 56.9717903,135.9048462 53.2460747,143.3605194 53.2503204,143.3711395 53.2524414,143.3732605 
						54.3217812,145.5119324 55.3486862,147.5657501 56.4710693,149.8105164 57.4725151,151.8112793 58.5673141,154.003006 
						59.6408958,156.1480408 60.7102356,158.2867279 					"/>
					<polyline class="st5" points="30.7453823,116.7225037 32.4257736,113.3617249 32.9201317,112.466362 33.4463158,111.6834564 
						33.9979591,111.0172348 34.5729408,110.4634705 35.1648979,110.0242767 35.7738266,109.7017822 36.391243,109.4917297 
						37.0150261,109.3962555 43.6220169,109.3962555 51.1795349,109.3962555 53.169693,109.3962555 59.8021469,109.3962555 
						59.8848953,109.383522 70.2685242,109.3135071 70.3364182,109.3135071 77.7857285,109.2434921 					"/>
					<polyline class="st5" points="41.9331398,147.6463776 43.0024796,145.5098114 44.0696983,143.3732605 40.337616,135.9048462 
						33.2850647,121.7997513 					"/>
					<polyline class="st5" points="38.7272415,154.0581665 39.7944603,151.9237366 40.8638,149.7850494 41.9331398,147.6484985 
											"/>
					<line class="st5" x1="37.6579018" y1="156.1968384" x2="38.7272415" y2="154.0602875"/>
					<polyline class="st5" points="27.0133018,109.256218 25.9439621,111.3927765 24.8746223,113.529335 23.8074036,115.6637726 
						22.7380638,117.8003311 21.6687241,119.9368896 20.5993843,122.0734482 19.5321674,124.2078857 19.5321674,124.2206116 
						36.588562,158.3355255 37.6579018,156.1989746 					"/>
					<polyline class="st5" points="30.7390175,83.4414215 32.4194107,86.8022079 32.913765,87.6975632 33.2617264,88.2322388 
						33.804882,88.9366455 34.3713799,89.5286026 34.9590912,90.0059814 35.5637779,90.3666763 36.1769524,90.6149139 
						36.7986107,90.7485809 37.4245148,90.7676773 43.6220169,90.7676773 51.1731682,90.7676773 53.169693,90.7676773 
						60.296505,90.7676773 61.5207291,90.7676773 61.6034775,90.7549438 70.2621613,90.8249588 70.3300552,90.8249588 
						77.7857285,90.8949814 					"/>
					<polyline class="st5" points="41.9267731,52.5175591 42.9961128,54.6541176 44.0633316,56.7906761 					"/>
					<polyline class="st5" points="36.588562,41.8156738 36.5821953,41.8284035 36.5843163,41.8326492 37.651535,43.9692039 
						38.7208748,46.1057625 39.7902145,48.242321 40.8574333,50.3810005 41.9267731,52.5154381 					"/>
					<polyline class="st5" points="27.0133018,109.256218 43.6220169,109.256218 51.1095161,109.256218 					"/>
					<polyline class="st5" points="51.1031532,90.9077072 43.6220169,90.9077072 27.006937,90.9077072 					"/>
					<polyline class="st5" points="59.8021469,109.3962555 59.2632332,109.4790039 58.6458168,109.6890488 58.0368881,110.0115509 
						57.444931,110.4507446 56.8699493,111.004509 56.318306,111.670723 55.7921219,112.4536362 55.2977638,113.3489914 
						54.8500862,114.3377075 54.5827522,115.0315018 54.2305489,116.1178207 53.9356308,117.2529297 53.6958771,118.42836 
						53.5155334,119.6356049 53.3903503,120.8640747 53.3245773,122.107399 53.3160934,123.3570786 53.3627701,124.6046448 
						53.466732,125.8394775 53.6301041,127.053093 53.8486404,128.2412415 54.1265831,129.3890839 54.4596901,130.4944916 
						54.8500862,131.5447388 55.2977638,132.5313416 56.978157,135.8942413 					"/>
					<polyline class="st5" points="55.3741455,52.5069504 56.4434853,50.3703918 57.510704,48.2359581 58.5779228,46.1015205 
						59.6472626,43.962841 60.697506,41.8644714 60.7144814,41.8284035 60.7208443,41.8156738 					"/>
					<polyline class="st5" points="53.2397118,56.7779465 54.3069267,54.6435089 55.3741455,52.5090714 					"/>
					<line class="st5" x1="70.2961044" y1="90.8949814" x2="70.2621613" y2="90.8249588"/>
					<polyline class="st5" points="27.006937,90.9077072 30.7390175,83.4414215 40.3312492,64.256958 44.0633316,56.7906761 
						53.2397118,56.7906761 					"/>
					<line class="st6" x1="42.9961128" y1="54.6541176" x2="25.9375973" y2="88.7690277"/>
					<line class="st6" x1="41.9267731" y1="52.5175591" x2="24.8703785" y2="86.6324692"/>
					<line class="st5" x1="41.9267731" y1="52.5154381" x2="41.9267731" y2="52.5175591"/>
					<polyline class="st6" points="40.8595543,50.3788795 40.8574333,50.3810005 23.8010387,84.4937897 					"/>
					<polyline class="st6" points="39.7902145,48.2402 39.7902145,48.242321 22.7338219,82.3572311 					"/>
					<polyline class="st6" points="38.7229996,46.1036415 38.7208748,46.1057625 21.6644821,80.2185516 					"/>
					<polyline class="st6" points="37.6536598,43.964962 37.651535,43.9692039 20.5972633,78.0798721 					"/>
					<polyline class="st5" points="19.5279236,75.9433136 36.5843163,41.8326492 36.586441,41.8284035 					"/>
					<polyline class="st5" points="60.7144814,41.8284035 77.7793655,75.9305878 77.7857285,75.9433136 					"/>
					<line class="st6" x1="59.6472626" y1="43.962841" x2="76.710022" y2="78.0692673"/>
					<polyline class="st6" points="58.5779228,46.0993996 58.5779228,46.1015205 75.6364365,80.1952133 					"/>
					<line class="st6" x1="57.510704" y1="48.2359581" x2="74.5607376" y2="82.321167"/>
					<line class="st6" x1="56.4434853" y1="50.3703918" x2="73.4871521" y2="84.447113"/>
					<line class="st6" x1="55.3741455" y1="52.5090714" x2="72.4114456" y2="86.5730591"/>
					<line class="st5" x1="55.3741455" y1="52.5069504" x2="55.3741455" y2="52.5090714"/>
					<line class="st6" x1="54.3069267" y1="54.6435089" x2="71.3378601" y2="88.6990128"/>
					<polyline class="st5" points="53.2397118,56.7779465 53.2439537,56.7885551 56.9717903,64.2442245 66.5640259,83.4286957 
						70.2621613,90.8249588 					"/>
					<line class="st5" x1="44.0696983" y1="143.3732605" x2="53.2460747" y2="143.3732605"/>
					<polyline class="st5" points="27.0133018,109.256218 30.7453823,116.7225037 33.2850647,121.7997513 44.0696983,143.3732605 
											"/>
					<line class="st6" x1="25.9439621" y1="111.3927765" x2="43.0024796" y2="145.5098114"/>
					<line class="st5" x1="41.9331398" y1="147.6463776" x2="41.9331398" y2="147.6484985"/>
					<line class="st6" x1="24.8746223" y1="113.529335" x2="41.9331398" y2="147.6463776"/>
					<line class="st6" x1="23.8074036" y1="115.6637726" x2="40.8638" y2="149.7850494"/>
					<line class="st6" x1="22.7380638" y1="117.8003311" x2="39.7944603" y2="151.9237366"/>
					<line class="st5" x1="38.7272415" y1="154.0581665" x2="38.7272415" y2="154.0602875"/>
					<line class="st6" x1="21.6687241" y1="119.9368896" x2="38.7272415" y2="154.0581665"/>
					<line class="st5" x1="37.6579018" y1="156.1968384" x2="37.6579018" y2="156.1989746"/>
					<polyline class="st6" points="20.5993843,122.0713272 20.5993843,122.0734482 37.6579018,156.1968384 					"/>
					<line class="st5" x1="19.5321674" y1="124.2078857" x2="36.588562" y2="158.3355255"/>
					<polyline class="st5" points="70.3024673,109.2434921 70.2685242,109.3135071 68.4565887,112.9373779 53.2524414,143.3732605 
											"/>
					<line class="st6" x1="71.367569" y1="111.3736877" x2="54.3217812" y2="145.5119324"/>
					<line class="st6" x1="72.4453964" y1="113.529335" x2="55.4696236" y2="147.5042114"/>
					<line class="st6" x1="73.4680557" y1="115.5725403" x2="56.5219879" y2="149.7850494"/>
					<line class="st6" x1="57.4725151" y1="151.8112793" x2="74.6201401" y2="117.8788376"/>
					<line class="st6" x1="58.5673141" y1="154.003006" x2="75.6597748" y2="119.955986"/>
					<polyline class="st6" points="59.6408958,156.1480408 76.7206345,122.0776901 76.7227554,122.0713272 					"/>
					<polyline class="st5" points="60.6847763,158.3355255 60.7102356,158.2867279 77.7857285,124.2078857 					"/>
				</g>
			</g>
		</g>
	</g>
	<g>
		<path class="st7" d="M96.5628128,149.8902435v1.5587311c-0.6062775-0.2897949-1.1789322-0.5063934-1.7169724-0.648819
			c-0.5380402-0.1424103-1.0572815-0.213623-1.5587234-0.213623c-0.8703537,0-1.5419159,0.1691284-2.0136871,0.5063782
			c-0.4717712,0.337265-0.7081528,0.8179474-0.7081528,1.4400482c0,0.5222168,0.1572571,0.9168396,0.4707794,1.1828918
			c0.31353,0.2660522,0.9089279,0.4816589,1.7842331,0.6448517l0.9653015,0.1978149
			c1.1917953,0.2264862,2.0720367,0.6260529,2.6387558,1.1987152c0.5667191,0.5726471,0.8505783,1.3381653,0.8505783,2.2985229
			c0,1.1443176-0.3837509,2.0126953-1.1512451,2.6031494c-0.7674942,0.5904694-1.8920288,0.8861847-3.3746033,0.8861847
			c-0.5588074,0-1.154213-0.0632935-1.7842255-0.1898956c-0.6300201-0.1266022-1.2827835-0.3135223-1.9582977-0.5617676v-1.6457672
			c0.6488037,0.3639679,1.2847595,0.6379242,1.906868,0.822876c0.6221008,0.1849518,1.2343216,0.2769318,1.8356552,0.2769318
			c0.9128876,0,1.6170807-0.1790161,2.112587-0.5380402c0.4955139-0.3590088,0.7437592-0.8703461,0.7437592-1.5349884
			c0-0.5805664-0.1780243-1.0335388-0.5340805-1.3609161s-0.9405746-0.5726471-1.7525787-0.7358398l-0.9732132-0.1898956
			c-1.1917953-0.237381-2.0542374-0.6092529-2.587326-1.1156464c-0.5330963-0.5063782-0.7991486-1.2105865-0.7991486-2.1125793
			c0-1.0444336,0.3679199-1.8673096,1.1037674-2.4686432s1.7496109-0.9020081,3.0422897-0.9020081
			c0.5538635,0,1.1185989,0.0504456,1.6932373,0.1503296C95.3730011,149.5391388,95.9614792,149.6894684,96.5628128,149.8902435z"/>
	</g>
	<g>
		<path class="st7" d="M7.6037383,43.059185v1.5587273C6.997457,44.328125,6.4248028,44.1115227,5.886765,43.969101
			s-1.0572834-0.2136307-1.5587268-0.2136307c-0.8703549,0-1.541913,0.1691246-2.013685,0.5063896
			c-0.471772,0.3372612-0.7081525,0.8179359-0.7081525,1.4400406c0,0.522213,0.1572573,0.9168396,0.470783,1.1828918
			s0.9089277,0.4816628,1.7842278,0.6448517l0.9653027,0.1978111c1.191793,0.22649,2.0720387,0.6260605,2.6387587,1.1987152
			s0.8505745,1.3381691,0.8505745,2.2985268c0,1.1443214-0.3837481,2.0126991-1.1512427,2.6031532
			c-0.7674952,0.5904579-1.8920331,0.8861809-3.374604,0.8861809c-0.5588076,0-1.1542096-0.0632973-1.7842278-0.1898956
			s-1.2827847-0.3135262-1.9582989-0.5617752V52.316597c0.6488101,0.3639679,1.2847627,0.6379318,1.9068688,0.8228836
			c0.622106,0.184948,1.2343217,0.2769318,1.835658,0.2769318c0.912884,0,1.61708-0.1790161,2.1125891-0.5380402
			c0.4955091-0.3590202,0.7437577-0.8703537,0.7437577-1.5349884c0-0.5805664-0.1780272-1.0335464-0.5340815-1.36092
			c-0.3560543-0.3273697-0.9405766-0.5726547-1.7525783-0.7358437l-0.9732153-0.1898956
			c-1.191793-0.2373695-2.0542359-0.6092491-2.5873282-1.1156387S0,46.7305031,0,45.8284988
			c0-1.044426,0.3679228-1.8673096,1.1037685-2.4686432c0.7358457-0.6013374,1.7496115-0.9020042,3.0422869-0.9020042
			c0.5538621,0,1.1186037,0.0504379,1.6932359,0.1503334C6.4139233,42.7080765,7.0024023,42.8584099,7.6037383,43.059185z"/>
	</g>
	<g>
		<path class="st7" d="M0,149.5104523h2.1521506l5.2379551,9.8824921v-9.8824921h1.5508142v11.8130951H6.7887692
			l-5.2379546-9.8824921v9.8824921H0V149.5104523z"/>
	</g>
	<g>
		<path class="st7" d="M90.5405426,42.6793938h2.1521454l5.2379608,9.8824883v-9.8824883h1.5508118V54.492485h-2.152153
			l-5.2379532-9.8824844v9.8824844h-1.5508118V42.6793938z"/>
	</g>
</g>
<path class="st5" d="M87.7435989,67.6936111"/>
<path class="st5" d="M102.2789841,29.476593"/>
</svg>
