<?xml version="1.0" encoding="utf-8"?>
<!-- Generator: Adobe Illustrator 21.0.0, SVG Export Plug-In . SVG Version: 6.00 Build 0)  -->
<svg version="1.1" id="Layer_1" xmlns="http://www.w3.org/2000/svg" xmlns:xlink="http://www.w3.org/1999/xlink" x="0px" y="0px"
	 viewBox="0 0 122.1367874 200" style="enable-background:new 0 0 122.1367874 200;" xml:space="preserve">
<style type="text/css">
	.st0{fill:#FFFFFF;}
	.st1{fill:#E57873;}
	.st2{fill:#797979;}
	.st3{fill:#6CAFD8;}
	.st4{fill:#999999;}
	.st5{fill:none;stroke:#FFFFFF;stroke-width:1.5;stroke-linecap:round;stroke-linejoin:round;}
	.st6{fill:none;stroke:#FFFFFF;stroke-width:0.75;stroke-linecap:round;stroke-linejoin:round;}
</style>
<g>
	<g id="XMLID_1_">
		<g>
			<path class="st0" d="M96.9700012,49.9799995c-0.3600006-0.3199997-0.9400024-0.5699997-1.75-0.7299995l-0.9800034-0.1899986
				c-1.1899948-0.2400017-2.0499954-0.6100006-2.5899963-1.1200027c-0.5299988-0.5099983-0.7900009-1.2099991-0.7900009-2.1099968
				c0-1.0500031,0.3600006-1.8700027,1.0999985-2.4700012c0.7399979-0.6000023,1.75-0.9000015,3.0400009-0.9000015
				c0.5599976,0,1.1200027,0.0499992,1.6999969,0.1500015c0.5699997,0.0999985,1.1600037,0.25,1.7600021,0.4500008v1.5599976
				c-0.6100006-0.2899971-1.1800003-0.5099983-1.7200012-0.6499977s-1.0499954-0.2100029-1.5599976-0.2100029
				c-0.8700027,0-1.5400009,0.1599998-2.0100021,0.5s-0.7099991,0.8200035-0.7099991,1.4400024
				c0,0.5200005,0.1600037,0.9199982,0.4700012,1.1800003c0.3199997,0.2700005,0.909996,0.4899979,1.7900009,0.6499977
				l0.9599991,0.2000008c1.1900024,0.2200012,2.0699997,0.6199989,2.6399994,1.2000008
				c0.5699997,0.5699997,0.8499985,1.329998,0.8499985,2.2900009c0,1.1499977-0.3799973,2.0200005-1.1500015,2.6100006
				c-0.7699966,0.5899963-1.8899994,0.8799973-3.3699951,0.8799973c-0.5600052,0-1.1600037-0.0599976-1.7900009-0.1899986
				c-0.6299973-0.1199989-1.2799988-0.3100014-1.9599991-0.5600014v-1.6399994
				c0.6500015,0.3600006,1.2900009,0.6300011,1.909996,0.8199997c0.6200027,0.1800003,1.2300034,0.2799988,1.840004,0.2799988
				c0.909996,0,1.6100006-0.1799965,2.1100006-0.5399971C97.25,52.5200005,97.5,52.0099983,97.5,51.3400002
				C97.5,50.7599983,97.3199997,50.3100014,96.9700012,49.9799995z"/>
			<polygon class="st0" points="97.5100021,161.3200073 95.3600006,161.3200073 90.1200027,151.4400024 90.1200027,161.3200073 
				88.5699997,161.3200073 88.5699997,149.5099945 90.7200012,149.5099945 95.9599991,159.3899994 95.9599991,149.5099945 
				97.5100021,149.5099945 			"/>
			<polygon class="st1" points="76.7200012,122.0800018 77.7900009,124.2099991 60.7099991,158.2899933 59.6399994,156.1499939 			
				"/>
			<polygon class="st2" points="56.9700012,64.2399979 66.5599976,83.4300003 64.8799973,86.7900009 64.3899994,87.6800003 
				63.8699989,88.4700012 63.3100014,89.1299973 62.7400017,89.6900024 62.1399994,90.1299973 61.5400009,90.4499969 
				60.9199982,90.6600037 60.2999992,90.75 59.6699982,90.7399979 59.0499992,90.5999985 58.4399986,90.3499985 
				57.8300018,89.9899979 57.2400017,89.5199966 56.6800003,88.9199982 56.1300011,88.2200012 55.7900009,87.6800003 
				55.2900009,86.7900009 54.8400002,85.8000031 54.4500008,84.75 54.1199989,83.6500015 53.8400002,82.5 53.6199989,81.3099976 
				53.4599991,80.0999985 53.3600006,78.8600006 53.3100014,77.6100006 53.3199997,76.3700027 53.3899994,75.1200027 
				53.5099983,73.8899994 53.6899986,72.6800003 53.9300003,71.5100021 54.2200012,70.3700027 54.5800018,69.2900009 
				54.8400002,68.5899963 55.2900009,67.6100006 56.9700012,64.2600021 			"/>
			<path class="st2" d="M60.7299995,158.3300018l17.0600014-34.1200027v-14.9700012V90.8899994V75.9400024l-0.0100021-0.0100021
				l-7.8799973-15.75l-3.1699982-6.3600006l-6.0100021-12h-0.0400009H36.5900002v0.0100021h-0.0099983L19.5300007,75.9400024
				v48.2699966l17.0599995,34.1299973h24.0900002L60.7299995,158.3300018z M87.7399979,67.6900024v64.7700043L64.8499985,178.25
				H32.4599991L9.5699997,132.4600067V67.6900024l19.1000004-38.2100029h39.9599991l11.2200012,22.420002L87.7399979,67.6900024z"/>
			<polygon class="st3" points="77.7799988,75.9300003 76.7099991,78.0699997 59.6500015,43.9599991 60.7000008,41.8600006 
				60.7099991,41.8300018 69.9000015,60.1800003 			"/>
			<polygon class="st2" points="60.5099983,109.4000015 61.1300011,109.5400009 61.75,109.7799988 62.3499985,110.1500015 
				62.9399986,110.6200027 63.5,111.2099991 64.0500031,111.9199982 64.4000015,112.4499969 64.8899994,113.3499985 
				66.5699997,116.7099991 56.9799995,135.8899994 55.2999992,132.5299988 54.8499985,131.5399933 54.4599991,130.4900055 
				54.1300011,129.3899994 53.8499985,128.2400055 53.6300011,127.0500031 53.4700012,125.8399963 53.3600006,124.5999985 
				53.3199997,123.3600006 53.3199997,122.1100006 53.3899994,120.8600006 53.5200005,119.6399994 53.7000008,118.4300003 
				53.9399986,117.25 54.2299995,116.1200027 54.5800018,115.0299988 54.8499985,114.3399963 55.2999992,113.3499985 
				55.7900009,112.4499969 56.3199997,111.6699982 56.8699989,111 57.4399986,110.4499969 58.0400009,110.0100021 
				58.6500015,109.6900024 59.2599983,109.4800034 59.7999992,109.4000015 59.8800011,109.3799973 			"/>
			<polygon class="st4" points="76.7099991,78.0699997 75.6399994,80.1999969 58.5800018,46.0999985 59.6500015,43.9599991 			"/>
			<polygon class="st4" points="58.5699997,154 75.6600037,119.9599991 76.7200012,122.0699997 76.7200012,122.0800018 
				59.6399994,156.1499939 			"/>
			<polygon class="st1" points="75.6600037,119.9599991 58.5699997,154 57.4700012,151.8099976 74.6200027,117.8799973 			"/>
			<polygon class="st3" points="75.6399994,80.1999969 74.5800018,82.3300018 74.5599976,82.3199997 57.5099983,48.2400017 
				58.5800018,46.0999985 			"/>
			<polygon class="st4" points="74.5599976,82.3199997 74.5800018,82.3300018 73.5100021,84.4599991 73.4899979,84.4499969 
				56.4399986,50.3699989 57.5099983,48.2400017 			"/>
			<polygon class="st3" points="73.4899979,84.4499969 73.5100021,84.4599991 72.4499969,86.5899963 72.4100037,86.5699997 
				55.3699989,52.5099983 56.4399986,50.3699989 			"/>
			<polygon class="st1" points="73.4700012,115.5699997 56.5200005,149.7899933 56.4700012,149.8099976 55.3499985,147.5700073 
				55.4700012,147.5 72.4499969,113.5299988 			"/>
			<polygon class="st4" points="74.6200027,117.8799973 57.4700012,151.8099976 56.4700012,149.8099976 56.5200005,149.7899933 
				73.4700012,115.5699997 			"/>
			<polygon class="st4" points="72.4100037,86.5699997 72.4499969,86.5899963 71.3799973,88.7200012 71.3399963,88.6999969 
				54.3100014,54.6399994 55.3699989,52.5099983 			"/>
			<polygon class="st4" points="72.4499969,113.5299988 55.4700012,147.5 55.3499985,147.5700073 54.3199997,145.5099945 
				71.3700027,111.3700027 			"/>
			<polygon class="st1" points="71.3700027,111.3700027 54.3199997,145.5099945 53.25,143.3699951 53.25,143.3600006 
				66.5699997,116.7099991 68.4599991,112.9400024 70.2699966,109.3099976 70.3399963,109.3099976 			"/>
			<polygon class="st3" points="71.3399963,88.6999969 71.3799973,88.7200012 70.3300018,90.8199997 70.2600021,90.8199997 
				66.5599976,83.4300003 56.9700012,64.2399979 53.2400017,56.7900009 53.2400017,56.7799988 54.3100014,54.6399994 			"/>
			<polygon class="st2" points="38.0499992,90.6699982 37.4199982,90.7699966 36.7999992,90.75 36.1800003,90.6100006 
				35.5600014,90.3700027 34.9599991,90.0100021 34.3699989,89.5299988 33.7999992,88.9400024 33.2599983,88.2300034 
				32.9099998,87.6999969 32.4199982,86.8000031 30.7399998,83.4400024 40.3300018,64.2600021 42.0099983,67.6200027 
				42.4599991,68.6100006 42.8499985,69.6600037 43.1800003,70.7600021 43.4599991,71.9100037 43.6800003,73.0999985 
				43.8400002,74.3099976 43.9500008,75.5500031 44,76.7900009 43.9799995,78.0400009 43.9199982,79.2900009 43.7900009,80.5199966 
				43.6100006,81.7200012 43.3800011,82.9000015 43.0800018,84.0299988 42.7299995,85.1200027 42.4599991,85.8099976 
				42.0099983,86.8000031 41.5200005,87.6999969 40.9900017,88.4800034 40.4399986,89.1500015 39.8699989,89.6999969 
				39.2700005,90.1399994 38.6699982,90.4599991 			"/>
			<polygon class="st2" points="37.6399994,109.4199982 38.2599983,109.5500031 38.8800011,109.8000031 39.4799995,110.1600037 
				40.0699997,110.6399994 40.6300011,111.2300034 41.1800003,111.9300003 41.5200005,112.4700012 42.0200005,113.3600006 
				42.4700012,114.3499985 42.8600006,115.4000015 43.1899986,116.5 43.4700012,117.6500015 43.6899986,118.8399963 
				43.8499985,120.0599976 43.9500008,121.2900009 44,122.5400009 43.9900017,123.7900009 43.9300003,125.0299988 
				43.7999992,126.2600021 43.6199989,127.4599991 43.3800011,128.6399994 43.0900002,129.7799988 42.7299995,130.8600006 
				42.4700012,131.5599976 42.0200005,132.5399933 40.3400002,135.8999939 33.2900009,121.8000031 30.75,116.7200012 
				32.4300003,113.3600006 32.9199982,112.4700012 33.4500008,111.6800003 34,111.0199966 34.5699997,110.4599991 
				35.1599998,110.0199966 35.7700005,109.6999969 36.3899994,109.4899979 37.0200005,109.4000015 			"/>
			<polygon class="st1" points="44.0600014,56.7900009 40.3300018,64.2600021 30.7399998,83.4400024 27.0100002,90.9100037 
				25.9400005,88.7699966 43,54.6500015 			"/>
			<polygon class="st3" points="33.2900009,121.8000031 40.3400002,135.8999939 44.0699997,143.3699951 43,145.5099945 
				25.9400005,111.3899994 27.0100002,109.2600021 30.75,116.7200012 			"/>
			<polygon class="st4" points="24.8700008,86.6299973 41.9300003,52.5200005 43,54.6500015 25.9400005,88.7699966 			"/>
			<polygon class="st4" points="43,145.5099945 41.9300003,147.6499939 24.8700008,113.5299988 25.9400005,111.3899994 			"/>
			<polygon class="st1" points="41.9300003,52.5200005 24.8700008,86.6299973 23.7999992,84.4899979 40.8600006,50.3800011 			"/>
			<polygon class="st3" points="41.9300003,147.6499939 40.8600006,149.7899933 23.8099995,115.6600037 24.8700008,113.5299988 			
				"/>
			<polygon class="st4" points="40.8600006,149.7899933 39.7900009,151.9199982 22.7399998,117.8000031 23.8099995,115.6600037 			
				"/>
			<polygon class="st4" points="40.8600006,50.3800011 23.7999992,84.4899979 22.7299995,82.3600006 39.7900009,48.2400017 			"/>
			<polygon class="st3" points="39.7900009,151.9199982 38.7299995,154.0599976 21.6700001,119.9400024 22.7399998,117.8000031 			
				"/>
			<polygon class="st1" points="39.7900009,48.2400017 22.7299995,82.3600006 21.6599998,80.2200012 38.7200012,46.1100006 			"/>
			<polygon class="st4" points="38.7299995,154.0599976 37.6599998,156.1999969 20.6000004,122.0699997 21.6700001,119.9400024 			
				"/>
			<polygon class="st4" points="20.6000004,78.0800018 37.6500015,43.9700012 38.7200012,46.0999985 38.7200012,46.1100006 
				21.6599998,80.2200012 			"/>
			<polygon class="st3" points="37.6599998,156.1999969 36.5900002,158.3399963 19.5300007,124.2099991 20.6000004,122.0699997 			
				"/>
			<polygon class="st1" points="37.6500015,43.9599991 37.6500015,43.9700012 20.6000004,78.0800018 19.5300007,75.9400024 
				36.5800018,41.8300018 			"/>
			<path class="st0" d="M1.61,152.4700012c0,0.5200043,0.15,0.9199982,0.4699999,1.1799927
				c0.3100002,0.2700043,0.9100001,0.4900055,1.78,0.6500092l0.97,0.1999969
				c1.1900001,0.2200012,2.0700002,0.6199951,2.6399999,1.1999969c0.5599999,0.5700073,0.8499999,1.3300018,0.8499999,2.2900085
				c0,1.1499939-0.3899999,2.019989-1.1599998,2.6100006C6.4000001,161.1900024,5.27,161.4799957,3.79,161.4799957
				c-0.5599999,0-1.1499999-0.0599976-1.78-0.1900024c-0.63-0.1199951-1.29-0.3099976-1.96-0.5599976v-1.6399994
				C0.7,159.4499969,1.33,159.7200012,1.95,159.9100037c0.6299999,0.1799927,1.24,0.2799988,1.8399999,0.2799988
				c0.9099998,0,1.6199999-0.1800079,2.1100001-0.5400085c0.5-0.3600006,0.75-0.8699951,0.75-1.5399933
				c0-0.5800018-0.1800003-1.0299988-0.54-1.3600006c-0.3499999-0.3300018-0.9400001-0.5700073-1.75-0.7299957l-0.97-0.1900024
				c-1.2-0.2400055-2.0599999-0.6100006-2.5900002-1.1199951C0.27,154.1999969,0,153.5,0,152.6000061
				c0-1.0500031,0.37-1.8700104,1.1-2.4700012c0.74-0.6000061,1.7499999-0.9000092,3.0500002-0.9000092
				c0.5499997,0,1.1100001,0.0500031,1.6900001,0.1500092c0.5699997,0.0999908,1.1599998,0.25,1.7599998,0.4499969v1.5599976
				c-0.5999999-0.2899933-1.1799998-0.5099945-1.71-0.6499939c-0.54-0.1399994-1.0599999-0.2200012-1.5599999-0.2200012
				c-0.8699999,0-1.54,0.1699982-2.02,0.5099945C1.84,151.3699951,1.61,151.8500061,1.61,152.4700012z"/>
			<polygon class="st0" points="1.55,44.6199989 1.55,54.5 0,54.5 0,42.6899986 2.1500001,42.6899986 7.3899999,52.5699997 
				7.3899999,42.6899986 8.9399996,42.6899986 8.9399996,54.5 6.79,54.5 			"/>
		</g>
		<g>
			<polyline class="st5" points="32.4599991,178.25 9.5699997,132.4600067 9.5699997,67.6900024 28.6700001,29.4799995 
				68.6299973,29.4799995 79.8499985,51.9000015 87.7399979,67.6900024 87.7399979,132.4600067 64.8499985,178.25 			"/>
			<line class="st5" x1="121.3899994" y1="67.6900024" x2="87.7399979" y2="67.6900024"/>
			<polyline class="st5" points="98.4899979,178.25 121.3899994,132.4600067 121.3899994,67.6900024 102.2799988,29.4799995 
				68.6299973,29.4799995 			"/>
			<line class="st5" x1="19.5300007" y1="124.2099991" x2="19.5300007" y2="75.9400024"/>
			<polyline class="st5" points="77.7900009,75.9400024 77.7900009,90.8899994 77.7900009,109.2399979 77.7900009,124.2099991 
				60.7299995,158.3300018 60.6800003,158.3399963 36.5900002,158.3399963 			"/>
			<polyline class="st5" points="60.7200012,41.8199997 66.7300034,53.8199997 69.9000015,60.1800003 			"/>
			<polyline class="st5" points="36.5900002,41.8199997 60.6800003,41.8199997 60.7200012,41.8199997 			"/>
			<line class="st5" x1="36.5900002" y1="41.8300018" x2="60.6800003" y2="41.8300018"/>
			<line class="st5" x1="121.3899994" y1="132.4600067" x2="87.7399979" y2="132.4600067"/>
			<polyline class="st5" points="98.4899979,178.25 64.8499985,178.25 32.4599991,178.25 			"/>
			<line class="st5" x1="53.1699982" y1="109.2600021" x2="53.1699982" y2="90.9100037"/>
			<polyline class="st5" points="27.0100002,90.9100037 25.9400005,88.7699966 24.8700008,86.6299973 23.7999992,84.4899979 
				22.7299995,82.3600006 21.6599998,80.2200012 20.6000004,78.0800018 19.5300007,75.9400024 			"/>
			<line class="st5" x1="76.7200012" y1="122.0800018" x2="77.7900009" y2="124.2099991"/>
			<polyline class="st5" points="70.3000031,109.2399979 70.3399963,109.3099976 71.3700027,111.3700027 72.4499969,113.5299988 
				73.4700012,115.5699997 74.6200027,117.8799973 75.6600037,119.9599991 76.7200012,122.0699997 			"/>
			<polyline class="st5" points="77.7799988,75.9300003 76.7099991,78.0699997 75.6399994,80.1999969 74.5800018,82.3300018 
				73.5100021,84.4599991 72.4499969,86.5899963 71.3799973,88.7200012 70.3300018,90.8199997 70.3000031,90.8899994 			"/>
			<line class="st5" x1="40.3300018" y1="64.2600021" x2="56.9700012" y2="64.2600021"/>
			<line class="st5" x1="56.9700012" y1="135.8999939" x2="40.3400002" y2="135.8999939"/>
			<polyline class="st5" points="66.5599976,83.4300003 64.8799973,86.7900009 64.3899994,87.6800003 63.8699989,88.4700012 
				63.3100014,89.1299973 62.7400017,89.6900024 62.1399994,90.1299973 61.5400009,90.4499969 60.9199982,90.6600037 
				60.2999992,90.75 59.6699982,90.7399979 59.0499992,90.5999985 58.4399986,90.3499985 57.8300018,89.9899979 
				57.2400017,89.5199966 56.6800003,88.9199982 56.1300011,88.2200012 55.7900009,87.6800003 55.2900009,86.7900009 
				54.8400002,85.8000031 54.4500008,84.75 54.1199989,83.6500015 53.8400002,82.5 53.6199989,81.3099976 53.4599991,80.0999985 
				53.3600006,78.8600006 53.3100014,77.6100006 53.3199997,76.3700027 53.3899994,75.1200027 53.5099983,73.8899994 
				53.6899986,72.6800003 53.9300003,71.5100021 54.2200012,70.3700027 54.5800018,69.2900009 54.8400002,68.5899963 
				55.2900009,67.6100006 56.9700012,64.2600021 56.9700012,64.2399979 			"/>
			<polyline class="st5" points="40.3400002,135.8999939 42.0200005,132.5399933 42.4700012,131.5599976 42.7299995,130.8600006 
				43.0900002,129.7799988 43.3800011,128.6399994 43.6199989,127.4599991 43.7999992,126.2600021 43.9300003,125.0299988 
				43.9900017,123.7900009 44,122.5400009 43.9500008,121.2900009 43.8499985,120.0599976 43.6899986,118.8399963 
				43.4700012,117.6500015 43.1899986,116.5 42.8600006,115.4000015 42.4700012,114.3499985 42.0200005,113.3600006 
				41.5200005,112.4700012 41.1800003,111.9300003 40.6300011,111.2300034 40.0699997,110.6399994 39.4799995,110.1600037 
				38.8800011,109.8000031 38.2599983,109.5500031 37.6399994,109.4199982 37.0200005,109.4000015 			"/>
			<polyline class="st5" points="66.5699997,116.7099991 64.8899994,113.3499985 64.4000015,112.4499969 64.0500031,111.9199982 
				63.5,111.2099991 62.9399986,110.6200027 62.3499985,110.1500015 61.75,109.7799988 61.1300011,109.5400009 
				60.5099983,109.4000015 59.8800011,109.3799973 			"/>
			<polyline class="st5" points="37.4199982,90.7699966 38.0499992,90.6699982 38.6699982,90.4599991 39.2700005,90.1399994 
				39.8699989,89.6999969 40.4399986,89.1500015 40.9900017,88.4800034 41.5200005,87.6999969 42.0099983,86.8000031 
				42.4599991,85.8099976 42.7299995,85.1200027 43.0800018,84.0299988 43.3800011,82.9000015 43.6100006,81.7200012 
				43.7900009,80.5199966 43.9199982,79.2900009 43.9799995,78.0400009 44,76.7900009 43.9500008,75.5500031 43.8400002,74.3099976 
				43.6800003,73.0999985 43.4599991,71.9100037 43.1800003,70.7600021 42.8499985,69.6600037 42.4599991,68.6100006 
				42.0099983,67.6200027 40.3300018,64.2600021 			"/>
			<polyline class="st5" points="53.25,143.3699951 54.3199997,145.5099945 55.3499985,147.5700073 56.4700012,149.8099976 
				57.4700012,151.8099976 58.5699997,154 59.6399994,156.1499939 60.7099991,158.2899933 			"/>
			<polyline class="st5" points="66.5699997,116.7099991 56.9799995,135.8899994 56.9700012,135.8999939 53.25,143.3600006 			"/>
			<polyline class="st5" points="30.75,116.7200012 32.4300003,113.3600006 32.9199982,112.4700012 33.4500008,111.6800003 
				34,111.0199966 34.5699997,110.4599991 35.1599998,110.0199966 35.7700005,109.6999969 36.3899994,109.4899979 
				37.0200005,109.4000015 43.6199989,109.4000015 51.1100006,109.4000015 51.1800003,109.4000015 53.1699982,109.4000015 
				59.7999992,109.4000015 59.8800011,109.3799973 70.2699966,109.3099976 70.3399963,109.3099976 77.7900009,109.2399979 			"/>
			<polyline class="st5" points="41.9300003,147.6499939 43,145.5099945 44.0699997,143.3699951 			"/>
			<polyline class="st5" points="38.7299995,154.0599976 39.7900009,151.9199982 40.8600006,149.7899933 41.9300003,147.6499939 			
				"/>
			<line class="st5" x1="37.6599998" y1="156.1999969" x2="38.7299995" y2="154.0599976"/>
			<line class="st5" x1="36.5900002" y1="158.3399963" x2="37.6599998" y2="156.1999969"/>
			<polyline class="st5" points="27.0100002,109.2600021 25.9400005,111.3899994 24.8700008,113.5299988 23.8099995,115.6600037 
				22.7399998,117.8000031 21.6700001,119.9400024 20.6000004,122.0699997 19.5300007,124.2099991 			"/>
			<polyline class="st5" points="30.7399998,83.4400024 32.4199982,86.8000031 32.9099998,87.6999969 33.2599983,88.2300034 
				33.7999992,88.9400024 34.3699989,89.5299988 34.9599991,90.0100021 35.5600014,90.3700027 36.1800003,90.6100006 
				36.7999992,90.75 37.4199982,90.7699966 43.6199989,90.7699966 51.0999985,90.7699966 51.1699982,90.7699966 
				53.1699982,90.7699966 60.2999992,90.7699966 61.5200005,90.7699966 61.5999985,90.75 70.2600021,90.8199997 
				70.3300018,90.8199997 77.7900009,90.8899994 			"/>
			<polyline class="st5" points="41.9300003,52.5200005 43,54.6500015 44.0600014,56.7900009 			"/>
			<polyline class="st5" points="38.7200012,46.1100006 39.7900009,48.2400017 40.8600006,50.3800011 41.9300003,52.5200005 			"/>
			<line class="st5" x1="37.6500015" y1="43.9700012" x2="38.7200012" y2="46.0999985"/>
			<line class="st5" x1="36.5800018" y1="41.8300018" x2="37.6500015" y2="43.9599991"/>
			<line class="st5" x1="36.5900002" y1="41.8199997" x2="36.5900002" y2="41.8300018"/>
			<polyline class="st5" points="27.0100002,109.2600021 43.6199989,109.2600021 51.1100006,109.2600021 			"/>
			<polyline class="st5" points="51.0999985,90.9100037 43.6199989,90.9100037 27.0100002,90.9100037 			"/>
			<polyline class="st5" points="59.7999992,109.4000015 59.2599983,109.4800034 58.6500015,109.6900024 58.0400009,110.0100021 
				57.4399986,110.4499969 56.8699989,111 56.3199997,111.6699982 55.7900009,112.4499969 55.2999992,113.3499985 
				54.8499985,114.3399963 54.5800018,115.0299988 54.2299995,116.1200027 53.9399986,117.25 53.7000008,118.4300003 
				53.5200005,119.6399994 53.3899994,120.8600006 53.3199997,122.1100006 53.3199997,123.3600006 53.3600006,124.5999985 
				53.4700012,125.8399963 53.6300011,127.0500031 53.8499985,128.2400055 54.1300011,129.3899994 54.4599991,130.4900055 
				54.8499985,131.5399933 55.2999992,132.5299988 56.9799995,135.8899994 			"/>
			<polyline class="st5" points="55.3699989,52.5099983 56.4399986,50.3699989 57.5099983,48.2400017 58.5800018,46.0999985 
				59.6500015,43.9599991 60.7000008,41.8600006 60.7099991,41.8300018 60.7200012,41.8199997 			"/>
			<polyline class="st5" points="53.2400017,56.7799988 54.3100014,54.6399994 55.3699989,52.5099983 			"/>
			<line class="st5" x1="70.3000031" y1="90.8899994" x2="70.2600021" y2="90.8199997"/>
			<polyline class="st5" points="27.0100002,90.9100037 30.7399998,83.4400024 40.3300018,64.2600021 44.0600014,56.7900009 
				53.2400017,56.7900009 			"/>
			<line class="st6" x1="43" y1="54.6500015" x2="25.9400005" y2="88.7699966"/>
			<line class="st6" x1="41.9300003" y1="52.5200005" x2="24.8700008" y2="86.6299973"/>
			<line class="st6" x1="40.8600006" y1="50.3800011" x2="23.7999992" y2="84.4899979"/>
			<line class="st6" x1="39.7900009" y1="48.2400017" x2="22.7299995" y2="82.3600006"/>
			<polyline class="st6" points="38.7200012,46.0999985 38.7200012,46.1100006 21.6599998,80.2200012 			"/>
			<polyline class="st6" points="37.6500015,43.9599991 37.6500015,43.9700012 20.6000004,78.0800018 			"/>
			<polyline class="st5" points="19.5300007,75.9400024 36.5800018,41.8300018 36.5900002,41.8300018 			"/>
			<polyline class="st5" points="60.7099991,41.8300018 69.9000015,60.1800003 77.7799988,75.9300003 77.7900009,75.9400024 			"/>
			<line class="st6" x1="59.6500015" y1="43.9599991" x2="76.7099991" y2="78.0699997"/>
			<line class="st6" x1="58.5800018" y1="46.0999985" x2="75.6399994" y2="80.1999969"/>
			<line class="st6" x1="57.5099983" y1="48.2400017" x2="74.5599976" y2="82.3199997"/>
			<line class="st6" x1="56.4399986" y1="50.3699989" x2="73.4899979" y2="84.4499969"/>
			<line class="st6" x1="55.3699989" y1="52.5099983" x2="72.4100037" y2="86.5699997"/>
			<line class="st6" x1="54.3100014" y1="54.6399994" x2="71.3399963" y2="88.6999969"/>
			<polyline class="st5" points="53.2400017,56.7799988 53.2400017,56.7900009 56.9700012,64.2399979 66.5599976,83.4300003 
				70.2600021,90.8199997 			"/>
			<line class="st5" x1="44.0699997" y1="143.3699951" x2="53.25" y2="143.3699951"/>
			<polyline class="st5" points="27.0100002,109.2600021 30.75,116.7200012 33.2900009,121.8000031 40.3400002,135.8999939 
				44.0699997,143.3699951 			"/>
			<line class="st6" x1="25.9400005" y1="111.3899994" x2="43" y2="145.5099945"/>
			<line class="st6" x1="24.8700008" y1="113.5299988" x2="41.9300003" y2="147.6499939"/>
			<line class="st6" x1="23.8099995" y1="115.6600037" x2="40.8600006" y2="149.7899933"/>
			<line class="st6" x1="22.7399998" y1="117.8000031" x2="39.7900009" y2="151.9199982"/>
			<line class="st6" x1="21.6700001" y1="119.9400024" x2="38.7299995" y2="154.0599976"/>
			<line class="st6" x1="20.6000004" y1="122.0699997" x2="37.6599998" y2="156.1999969"/>
			<line class="st5" x1="19.5300007" y1="124.2099991" x2="36.5900002" y2="158.3399963"/>
			<polyline class="st5" points="70.3000031,109.2399979 70.2699966,109.3099976 68.4599991,112.9400024 66.5699997,116.7099991 
				53.25,143.3600006 53.25,143.3699951 			"/>
			<line class="st6" x1="71.3700027" y1="111.3700027" x2="54.3199997" y2="145.5099945"/>
			<line class="st6" x1="72.4499969" y1="113.5299988" x2="55.4700012" y2="147.5"/>
			<line class="st6" x1="73.4700012" y1="115.5699997" x2="56.5200005" y2="149.7899933"/>
			<line class="st6" x1="57.4700012" y1="151.8099976" x2="74.6200027" y2="117.8799973"/>
			<line class="st6" x1="58.5699997" y1="154" x2="75.6600037" y2="119.9599991"/>
			<polyline class="st6" points="59.6399994,156.1499939 76.7200012,122.0800018 76.7200012,122.0699997 			"/>
			<polyline class="st5" points="60.6800003,158.3399963 60.7099991,158.2899933 77.7900009,124.2099991 			"/>
		</g>
	</g>
</g>
</svg>
