<?xml version="1.0" encoding="utf-8"?>
<!-- Generator: Adobe Illustrator 21.0.0, SVG Export Plug-In . SVG Version: 6.00 Build 0)  -->
<svg version="1.1" id="Layer_1" xmlns="http://www.w3.org/2000/svg" xmlns:xlink="http://www.w3.org/1999/xlink" x="0px" y="0px"
	 viewBox="0 0 179.8188782 200" style="enable-background:new 0 0 179.8188782 200;" xml:space="preserve">
<style type="text/css">
	.st0{fill:#ECF0F1;}
	.st1{fill:none;stroke:#000000;stroke-width:1.5;stroke-linecap:round;stroke-linejoin:round;}
	.st2{fill:none;stroke:#000000;stroke-width:0.5;stroke-linecap:round;stroke-linejoin:round;}
</style>
<g>
	<polygon class="st0" points="97.1980286,63.1342926 134.0638123,63.1342926 134.0638123,136.8657074 97.1980286,136.8657074 
		97.1980286,121.6895981 126.4757538,121.6895981 126.4757538,78.3104019 97.1980286,78.3104019 	"/>
	<rect x="4.422533" y="87.6238251" class="st0" width="7.5880518" height="24.7524261"/>
	<polygon class="st0" points="4.422533,63.1342926 4.422533,78.3104019 33.700264,78.3104019 33.700264,121.6897507 
		4.422533,121.6897507 4.422533,136.8657074 41.2883148,136.8657074 41.2883148,63.1342926 	"/>
	<g>
		<g>
			<line class="st1" x1="41.2883148" y1="136.8657074" x2="41.2883148" y2="63.1342926"/>
			<line class="st1" x1="4.422533" y1="112.3761749" x2="4.422533" y2="87.6238251"/>
			<line class="st1" x1="12.0105867" y1="112.3761749" x2="12.0105867" y2="87.6238251"/>
			<polyline class="st1" points="22.4395866,121.6897507 4.422533,121.6897507 0.75,121.6897507 			"/>
			<polyline class="st1" points="0.75,78.3104019 4.422533,78.3104019 22.4395866,78.3104019 			"/>
			<line class="st1" x1="4.422533" y1="78.3104019" x2="4.422533" y2="63.1342926"/>
			<polyline class="st1" points="4.422533,78.3104019 33.700264,78.3104019 33.700264,121.6897507 4.422533,121.6897507 
				4.422533,136.8657074 41.2883148,136.8657074 41.2883148,63.1342926 4.422533,63.1342926 41.2883148,63.1342926 
				82.6203079,63.1342926 82.6203079,78.3104019 82.6203079,87.6238251 82.6203079,112.3761749 82.6203079,121.6897507 
				82.6203079,136.8657074 41.2883148,136.8657074 4.422533,136.8657074 4.422533,121.6897507 			"/>
			<polyline class="st1" points="33.700264,112.3761749 22.4395866,112.3761749 12.0105867,112.3761749 4.422533,112.3761749 
				0.75,112.3761749 			"/>
			<polyline class="st1" points="22.4395866,112.3761749 22.4395866,121.6897507 33.700264,121.6897507 33.700264,112.3761749 
				33.700264,87.6238251 33.700264,78.3104019 22.4395866,78.3104019 22.4395866,87.6238251 			"/>
			<line class="st1" x1="0.75" y1="87.6238251" x2="0.75" y2="78.3104019"/>
			<polyline class="st1" points="82.6203079,112.3761749 86.2929306,112.3761749 86.2929306,121.6897507 82.6203079,121.6897507 			
				"/>
			<line class="st1" x1="0.75" y1="121.6897507" x2="0.75" y2="112.3761749"/>
			<polyline class="st1" points="82.6203079,78.3104019 86.2929306,78.3104019 86.2929306,87.6238251 82.6203079,87.6238251 			"/>
			<polyline class="st1" points="0.75,87.6238251 4.422533,87.6238251 12.0105867,87.6238251 22.4395866,87.6238251 
				33.700264,87.6238251 			"/>
		</g>
		<g>
			<line class="st1" x1="134.0638123" y1="136.8657074" x2="134.0638123" y2="63.1342926"/>
			<line class="st1" x1="126.4757538" y1="121.6897507" x2="126.4757538" y2="78.3104019"/>
			<line class="st1" x1="115.2150803" y1="121.6895981" x2="115.2150803" y2="78.3104019"/>
			<polyline class="st1" points="175.3959503,78.3104019 179.0688782,78.3104019 179.0688782,121.6895981 175.3959503,121.6895981 
							"/>
			<line class="st1" x1="110.5584412" y1="121.6895981" x2="110.5584412" y2="78.3104019"/>
			<line class="st1" x1="93.5254059" y1="121.6895981" x2="93.5254059" y2="78.3104019"/>
			<line class="st1" x1="98.1821899" y1="121.6895981" x2="98.1821899" y2="78.3104019"/>
			<polyline class="st1" points="175.3959503,136.8657074 134.0638123,136.8657074 97.1980286,136.8657074 			"/>
			<polyline class="st1" points="97.1980286,63.1342926 134.0638123,63.1342926 175.3959503,63.1342926 			"/>
			<line class="st1" x1="97.1980286" y1="78.3104019" x2="97.1980286" y2="63.1342926"/>
			<line class="st1" x1="97.1980286" y1="136.8657074" x2="97.1980286" y2="121.6895981"/>
			<line class="st1" x1="115.2150803" y1="121.6895981" x2="110.5584412" y2="121.6895981"/>
			<line class="st1" x1="110.5584412" y1="78.3104019" x2="115.2150803" y2="78.3104019"/>
			<polyline class="st1" points="93.5254059,78.3104019 97.1980286,78.3104019 98.1821899,78.3104019 104.7860794,78.3104019 
				110.5584412,78.3104019 115.2150803,78.3104019 126.4757538,78.3104019 			"/>
			<polyline class="st1" points="126.4757538,121.6897507 115.2150803,121.6897507 110.5584412,121.6897507 
				104.7860794,121.6895981 98.1821899,121.6895981 97.1980286,121.6895981 93.5254059,121.6895981 			"/>
			<polyline class="st1" points="175.3959503,63.1342926 175.3959503,78.3104019 175.3959503,121.6895981 175.3959503,136.8657074 
							"/>
		</g>
		<g>
			<line class="st2" x1="0.75" y1="78.3104019" x2="22.4395866" y2="78.3104019"/>
			<line class="st2" x1="0.75" y1="79.3452225" x2="22.4395866" y2="79.3452225"/>
			<line class="st2" x1="0.75" y1="80.3800507" x2="22.4395866" y2="80.3800507"/>
			<line class="st2" x1="0.75" y1="81.4148712" x2="22.4395866" y2="81.4148712"/>
			<line class="st2" x1="0.75" y1="82.4496994" x2="22.4395866" y2="82.4496994"/>
			<line class="st2" x1="0.75" y1="83.48452" x2="22.4395866" y2="83.48452"/>
			<line class="st2" x1="0.75" y1="84.5193481" x2="22.4395866" y2="84.5193481"/>
			<line class="st2" x1="0.75" y1="85.5541763" x2="22.4395866" y2="85.5541763"/>
			<line class="st2" x1="0.75" y1="86.5889969" x2="22.4395866" y2="86.5889969"/>
			<line class="st2" x1="0.75" y1="87.6238251" x2="22.4395866" y2="87.6238251"/>
		</g>
		<g>
			<line class="st2" x1="0.75" y1="112.3762512" x2="22.4395866" y2="112.3762512"/>
			<line class="st2" x1="0.75" y1="113.4110794" x2="22.4395866" y2="113.4110794"/>
			<line class="st2" x1="0.75" y1="114.4459" x2="22.4395866" y2="114.4459"/>
			<line class="st2" x1="0.75" y1="115.4807281" x2="22.4395866" y2="115.4807281"/>
			<line class="st2" x1="0.75" y1="116.5155487" x2="22.4395866" y2="116.5155487"/>
			<line class="st2" x1="0.75" y1="117.5503769" x2="22.4395866" y2="117.5503769"/>
			<line class="st2" x1="0.75" y1="118.5851974" x2="22.4395866" y2="118.5851974"/>
			<line class="st2" x1="0.75" y1="119.6200256" x2="22.4395866" y2="119.6200256"/>
			<line class="st2" x1="0.75" y1="120.6548538" x2="22.4395866" y2="120.6548538"/>
			<line class="st2" x1="0.75" y1="121.6896744" x2="22.4395866" y2="121.6896744"/>
		</g>
		<g>
			<line class="st2" x1="93.5254059" y1="78.3104019" x2="93.5254059" y2="121.6895981"/>
			<line class="st2" x1="94.0428238" y1="78.3104019" x2="94.0428238" y2="121.6895981"/>
			<line class="st2" x1="94.5602493" y1="78.3104019" x2="94.5602493" y2="121.6895981"/>
			<line class="st2" x1="95.0776672" y1="78.3104019" x2="95.0776672" y2="121.6895981"/>
			<line class="st2" x1="95.5950851" y1="78.3104019" x2="95.5950851" y2="121.6895981"/>
			<line class="st2" x1="96.1125107" y1="78.3104019" x2="96.1125107" y2="121.6895981"/>
			<line class="st2" x1="96.6299286" y1="78.3104019" x2="96.6299286" y2="121.6895981"/>
			<line class="st2" x1="97.1473465" y1="78.3104019" x2="97.1473465" y2="121.6895981"/>
			<line class="st2" x1="97.664772" y1="78.3104019" x2="97.664772" y2="121.6895981"/>
			<line class="st2" x1="98.1821899" y1="78.3104019" x2="98.1821899" y2="121.6895981"/>
		</g>
		<g>
			<line class="st2" x1="110.5583649" y1="78.3104019" x2="110.5583649" y2="121.6895981"/>
			<line class="st2" x1="111.0757904" y1="78.3104019" x2="111.0757904" y2="121.6895981"/>
			<line class="st2" x1="111.5932083" y1="78.3104019" x2="111.5932083" y2="121.6895981"/>
			<line class="st2" x1="112.1106339" y1="78.3104019" x2="112.1106339" y2="121.6895981"/>
			<line class="st2" x1="112.6280518" y1="78.3104019" x2="112.6280518" y2="121.6895981"/>
			<line class="st2" x1="113.1454697" y1="78.3104019" x2="113.1454697" y2="121.6895981"/>
			<line class="st2" x1="113.6628952" y1="78.3104019" x2="113.6628952" y2="121.6895981"/>
			<line class="st2" x1="114.1803131" y1="78.3104019" x2="114.1803131" y2="121.6895981"/>
			<line class="st2" x1="114.697731" y1="78.3104019" x2="114.697731" y2="121.6895981"/>
			<line class="st2" x1="115.2151566" y1="78.3104019" x2="115.2151566" y2="121.6895981"/>
		</g>
	</g>
	<path class="st1" d="M4.422533,78.3104019"/>
</g>
</svg>
