<?xml version="1.0" encoding="utf-8"?>
<!-- Generator: Adobe Illustrator 21.0.0, SVG Export Plug-In . SVG Version: 6.00 Build 0)  -->
<svg version="1.1" id="Layer_1" xmlns="http://www.w3.org/2000/svg" xmlns:xlink="http://www.w3.org/1999/xlink" x="0px" y="0px"
	 viewBox="0 0 88.9889908 200" style="enable-background:new 0 0 88.9889908 200;" xml:space="preserve">
<style type="text/css">
	.st0{fill:none;stroke:#FFFFFF;stroke-width:1.5;stroke-linecap:round;stroke-linejoin:round;}
</style>
<g>
	<g>
		<polyline class="st0" points="36.1483078,127.6605072 37.818409,127.9525986 37.9968452,127.9740829 39.2073975,128.0813751 
			40.4201775,128.1085052 40.6957169,128.1039734 42.7440224,127.9722519 44.4902878,127.656044 44.7756157,127.604393 
			45.0427933,127.555687 46.2253304,127.2370071 47.390358,126.8404999 47.6350136,126.7521515 49.5551033,125.9143219 
			49.7724609,125.7906342 51.4026833,124.8568954 51.612957,124.7363968 52.6594772,124.0221634 53.6704178,123.2392502 
			53.8437614,123.0940781 55.4634018,121.6282806 56.9607925,119.9762497 57.0874176,119.8192215 57.9045601,118.7766037 
			58.671402,117.6802673 59.8564034,115.7074051 60.1257362,115.1517181 60.8796043,113.5963058 60.9460602,113.4593353 
			61.4688797,112.1726913 61.9306564,110.8508759 62.5765228,108.5356293 63.0344009,106.1407928 63.0464172,106.0470352 
			63.2187271,104.7050018 63.2293129,104.6238251 63.3450356,103.1865997 63.3926315,100.7205353 63.2414093,98.239418 
			63.0645638,96.7828598 62.8199081,95.3345718 62.2553024,92.9010544 61.4958611,90.5185547 60.965004,89.1477127 
			60.3708687,87.806633 59.2255821,85.6046448 57.9053574,83.5159073 57.8576012,83.4488144 57.0010643,82.2679443 
			56.0903244,81.1365051 54.433918,79.336998 52.6367149,77.7054214 51.520237,76.8224564 50.3637276,76.0046005 
			50.2456169,75.9248505 48.1987419,74.6849289 46.0578766,73.6541748 44.7590599,73.1405029 44.603302,73.0883713 
			43.2780647,72.6495209 40.9974365,72.0787811 40.3413048,71.9831161 		"/>
		<polyline class="st0" points="44.4902878,127.656044 45.7551956,127.8997498 46.0082893,127.9356461 47.2197952,128.0640259 
			48.4346466,128.1121674 48.6924362,128.1077881 50.7463112,128.0110931 52.7861824,127.6777725 52.87397,127.6620178 
			53.0374451,127.6325684 54.2261086,127.3336334 55.3983002,126.9566956 55.6346779,126.8728104 57.5687752,126.0664902 
			59.4324341,125.0388412 59.641037,124.9213638 60.6982193,124.2239227 61.7205429,123.4574051 61.8961945,123.3110352 
			63.536129,121.871109 65.0558014,120.2431107 65.8925247,119.2067871 66.016449,119.0503082 66.7971344,117.966629 
			68.0070496,116.0135117 68.0600586,115.9077377 69.0566711,113.9199982 69.1050644,113.8235321 69.6448364,112.5431824 
			70.1238022,111.22686 70.7991943,108.9197235 71.2871552,106.5306168 71.3060989,106.4284286 71.5059509,105.0075989 
			71.6390228,103.5721283 71.7162247,101.107338 71.5948486,98.6250305 71.4355087,97.1667175 71.2083664,95.715889 
			70.6732864,93.2762375 69.942894,90.8850632 69.4290695,89.5081711 68.8516541,88.160408 67.7340622,85.9448853 
			66.4406586,83.8403091 66.3936157,83.7693176 65.5525208,82.5773087 64.6568222,81.4340134 63.0247688,79.6126938 
			61.2503281,77.9573212 61.1822815,77.9019241 60.1465874,77.0596313 60.0740013,77.001297 58.9254494,76.1647339 
			56.8999062,74.8980713 54.7782211,73.8385773 54.6312981,73.7686234 53.3385315,73.2352982 52.0222054,72.7775803 
			49.7545509,72.1740494 49.5842323,72.1399078 48.6150742,71.9835968 		"/>
		<polyline class="st0" points="52.87397,127.6620178 53.8880157,127.8751602 55.0960197,128.0243073 55.36129,128.0404663 
			56.3081627,128.0942688 56.5743065,128.1093903 58.6274681,128.0484161 58.8885994,128.0216827 60.9291077,127.7237778 
			62.121273,127.4455338 62.3682404,127.3786011 63.5421791,127.0225143 65.486618,126.2497101 65.7097092,126.1472778 
			67.5807724,125.1541595 68.6479034,124.4743118 68.838913,124.343071 69.86689,123.5967636 71.527359,122.183342 
			71.678978,122.0315628 73.213295,120.4353256 74.0593262,119.4172974 74.8560944,118.3437958 74.957016,118.1889954 
			76.1862717,116.2637329 77.2576981,114.1955338 77.8141022,112.9227448 78.3100281,111.6128616 78.3510132,111.4858398 
			78.8165283,109.9664841 		"/>
		<polyline class="st0" points="36.1572227,83.4359207 35.4220581,83.9139328 34.0582199,84.9554367 32.7826424,86.1182327 
			32.2142982,86.7159424 31.6066341,87.4170456 30.5395832,88.8401031 29.5807724,90.3638382 29.1277504,91.2031784 
			28.712534,92.0592422 28.0309315,93.7427902 27.4781857,95.4880219 27.2457848,96.4267807 27.0538158,97.3693542 
			26.8067722,99.1776962 26.6989288,101.0035477 26.7033062,101.9661789 26.7477169,102.9191055 26.949316,104.7059555 
			27.2892418,106.464241 27.5276909,107.3725128 27.7758484,108.1727066 28.3818417,109.7355194 29.1289444,111.2686386 
			29.5735283,112.0373917 29.9604111,112.6384506 30.9243965,113.9135513 31.9552345,115.0453873 32.4571228,115.516716 
			33.0771217,116.0405655 34.1706772,116.8179169 35.4383736,117.5398712 35.9497337,117.7753754 36.1673317,117.8609314 		"/>
		<polyline class="st0" points="44.4972115,94.2965698 44.4964142,94.2989578 44.2715759,94.9532623 44.0144234,95.8935318 
			43.7980995,96.8392105 43.5057678,98.6527252 43.3530388,100.4886093 43.3340149,101.4613495 43.3551064,102.4025726 
			43.5087128,104.1447754 43.8047867,105.9106216 44.0199928,106.8231888 44.2717361,107.7145844 44.5059662,108.3682556 		"/>
		<polyline class="st0" points="40.3350182,86.9493027 40.0636978,87.2539673 38.9831963,88.6561737 38.046032,90.1033401 
			37.5831413,90.9361572 37.154953,91.7919846 36.4501915,93.473465 35.8741264,95.2188492 35.6289101,96.160553 
			35.4245262,97.1066284 35.1546402,98.9199066 35.0244293,100.7526855 35.017189,101.7216873 35.0503769,102.6814499 
			35.2302475,104.4698181 35.5096855,106.0202179 35.5316544,106.1421432 35.7568893,107.0465927 36.0180206,107.9290009 
			36.6221848,109.5487976 37.3437386,111.0801773 37.7034035,111.7224579 38.1630287,112.459053 39.1280479,113.7736282 
			40.0726128,114.8413162 40.3263435,115.086853 		"/>
		<polyline class="st0" points="10.2004156,110.0927124 10.2338428,110.2145615 10.2712498,110.3429413 10.7081947,111.6813126 
			11.5860624,113.8778152 12.6390276,115.9550858 13.328269,117.1150208 13.4253683,117.2742004 14.1719141,118.3936996 
			15.5503988,120.1745911 17.068243,121.7839584 17.2183475,121.9429016 18.1706333,122.8148804 19.1606426,123.6211929 
			19.3481541,123.7574539 21.112566,124.9791489 22.9698582,125.9898453 23.1894455,126.0988083 24.321043,126.6014938 
			25.473175,127.0281677 25.7142506,127.1026611 27.7069244,127.655014 29.7379608,127.9742432 29.9922485,128.0118103 
			31.2012062,128.0980835 32.4113617,128.1041412 32.6689911,128.1027069 34.7108498,127.9361191 34.963623,127.8959274 
			36.1483078,127.6605072 36.9838371,127.4944839 38.1604042,127.1558304 38.3990898,127.0791855 39.5544853,126.664444 
			41.4617615,125.7944565 41.6770477,125.6854172 43.50354,124.6000595 44.5412254,123.8675232 44.725235,123.731987 
			45.7215309,122.9356918 47.3236618,121.441246 47.46875,121.2866058 48.9393196,119.6164322 49.7451591,118.5575714 
			50.4999847,117.4453964 50.5950928,117.2897186 51.7506485,115.305481 52.7438393,113.1853104 53.2524147,111.8851395 
			53.6993103,110.5505066 53.7362366,110.4259491 54.3513832,108.1092682 54.7785378,105.7155457 54.9444809,104.2826233 
			55.0430908,102.8365707 55.0607605,100.3597565 54.8786621,97.870842 54.8761139,97.8498306 54.6820755,96.397644 
			54.4205475,94.9546204 53.827446,92.5312042 53.0402298,90.1612778 52.4936142,88.7994308 52.4819145,88.7722092 
			51.8685989,87.4333649 50.6920319,85.2394867 49.341404,83.1621323 48.4727707,81.9967041 47.550808,80.881424 
			45.8758545,79.1094513 45.784565,79.0285873 45.3578072,78.6517334 44.0618591,77.5074005 43.9616547,77.4189758 
			42.8302956,76.5496292 41.6594582,75.74617 39.599453,74.5379333 37.4480019,73.5398788 37.298851,73.474144 
			35.9907227,72.9790955 34.6607094,72.5604553 32.3737144,72.0241089 32.202755,71.9966507 32.0896606,71.981926 		"/>
	</g>
	<polyline class="st0" points="88.229538,127.5987625 88.2367401,127.4763336 88.224205,123.6944199 88.2389908,108.1634674 
		88.0321655,96.7405167 87.5029831,94.0278015 86.8303604,91.6172028 86.3496399,90.2258301 85.8044586,88.8611145 
		84.7397919,86.6122437 83.4962921,84.4681091 82.6890182,83.2593918 81.826355,82.097229 81.7653046,82.0195465 
		80.1752777,80.1481705 78.4386444,78.4378815 77.3550339,77.505806 76.2291641,76.6369324 74.2371292,75.3112946 
		74.106842,75.230278 72.0053711,74.1038513 70.7264557,73.5321655 69.422226,73.0351257 69.2546921,72.9851456 
		67.1699295,72.3631592 66.9971466,72.3126144 64.6931992,71.8697815 63.3187714,71.7103653 61.9382172,71.6309357 
		61.7531738,71.6240158 59.4156418,71.6673126 57.0905228,71.947464 56.9719353,71.9672775 56.9186897,71.9777832 	"/>
	<polyline class="st0" points="0.7563671,127.4912949 0.75,112.327095 0.9577277,96.7903442 1.256187,95.1135559 
		1.5769312,93.6813507 2.2685609,91.2764816 3.1535923,88.9418182 3.7568781,87.6078186 4.4206514,86.3069382 5.6813436,84.1741867 
		5.7251177,84.1092453 7.1091733,82.1706924 7.1632938,82.0955582 8.0809565,80.9732666 9.0495567,79.903595 10.800518,78.2096939 
		12.6820059,76.6970215 13.8432112,75.8900681 13.960207,75.8096848 15.1635952,75.0664825 17.2748566,73.9601135 
		19.4672184,73.0713425 19.6209068,73.0184174 20.9491692,72.5914993 22.2950211,72.2419434 24.6041412,71.821312 
		24.77701,71.8063507 26.9372177,71.6355515 27.1112804,71.6217804 28.4954948,71.617569 29.8774796,71.6936493 
		32.0896606,71.981926 33.2269096,71.7925034 33.4028015,71.7632141 35.7383461,71.6137466 37.1220818,71.6303787 
		38.5025558,71.7272415 38.6784477,71.7406082 40.3413048,71.9831161 42.0055923,71.7314606 44.3382721,71.6178055 
		44.5140839,71.6118317 45.8951149,71.6493225 47.2720871,71.7669525 48.6150742,71.9835968 50.7724991,71.6903076 
		53.1062889,71.6117554 54.4864464,71.6703339 54.6592331,71.6831436 56.0335808,71.8213959 56.8862953,71.9720535 
		56.9186897,71.9777832 58.3394356,72.2287292 60.6013603,72.8673553 60.7583084,72.9158249 62.0669136,73.3924866 
		63.3512459,73.9442749 65.4636993,75.0379105 65.5898514,75.1146317 67.5965271,76.4090729 68.7324295,77.2607574 
		69.8269348,78.1764297 71.5836258,79.8605347 71.6574097,79.9437027 73.1969757,81.7076416 73.2614441,81.7815018 
		74.1390762,82.9319611 74.9619446,84.1302567 76.232666,86.2584686 77.3258286,88.495163 77.8885193,89.8551025 
		78.387146,91.2431335 79.0901566,93.6498337 79.5967407,96.1019745 79.8069382,97.5598068 79.9489212,99.0238495 
		80.0403748,101.5121231 79.9328461,103.9795456 79.7817841,105.4161301 79.5640335,106.8367996 79.0501251,109.2039413 
		79.0158234,109.3158417 78.8165283,109.9664841 78.8030777,123.7065125 78.8156586,127.5088882 78.8165283,127.5987625 	"/>
	<polyline class="st0" points="32.0050583,81.6080704 31.264719,81.8317947 29.7775154,82.414711 28.3621025,83.1254425 
		27.600275,83.5836334 26.8623257,84.0782852 25.5312767,85.1244812 24.3385525,86.2417526 23.7086849,86.9219208 
		23.1109695,87.6300278 22.0630188,89.0658188 21.1241055,90.6010895 20.6819878,91.445694 20.2776756,92.3066864 
		19.6170864,93.9985886 19.085907,95.750824 18.8649673,96.6927643 18.6844597,97.6381226 18.4594612,99.4503708 
		18.3737431,101.2785339 18.3899002,102.2421951 18.4460106,103.1958313 18.6697369,104.9818115 19.0317078,106.737709 
		19.2576618,107.5569229 19.527071,108.3880692 20.170866,109.9859009 20.938982,111.510437 21.3206921,112.1505661 
		21.7760201,112.8368683 22.7754211,114.1203995 23.7331181,115.1420059 24.3360062,115.6912537 24.9094467,116.1609879 
		26.0342789,116.9340363 27.245945,117.5986862 27.8509007,117.8652267 28.4841137,118.102005 29.7340603,118.443367 
		30.9520931,118.6395493 31.6695099,118.6885757 32.1994934,118.6931152 33.5147057,118.5810547 34.7761917,118.3345642 
		35.3822632,118.158432 35.9932709,117.9409943 36.1673317,117.8609314 37.2038994,117.3841095 38.4351425,116.657547 
		38.9647293,116.2818832 39.5404778,115.8240051 40.3064461,115.1055527 40.3263435,115.086853 40.639286,114.7933273 
		41.6153679,113.6900635 42.1346855,113.0047226 42.588028,112.3403854 43.3694344,110.9900818 44.1012535,109.4375305 
		44.4318695,108.5879211 44.5059662,108.3682556 44.7048607,107.7789764 45.1380615,106.1310043 45.4577713,104.3603058 
		45.5657768,103.4129562 45.6324692,102.4632187 45.6417046,100.6440506 45.5126114,98.8204193 45.3839951,97.8717194 
		45.212719,96.917923 44.7713165,95.132019 44.4964142,94.2989578 44.1942139,93.3832855 43.8382912,92.5016022 
		43.4508514,91.6508713 42.5958252,90.0647354 41.6207809,88.5569992 41.0607109,87.808548 40.4725456,87.0940704 
		40.3350182,86.9493027 39.2644615,85.822876 38.0516052,84.7464294 37.3484344,84.2084122 36.6175652,83.7040558 
		36.1572227,83.4359207 35.1578217,82.8535614 33.7402611,82.1915436 32.9707108,81.9023972 32.151104,81.6418228 
		32.0050583,81.6080704 30.5956135,81.2823181 29.0908203,81.081192 28.2373867,81.0364609 27.3876934,81.036705 
		25.9242878,81.1575165 24.3108559,81.4463501 23.4770794,81.6652145 22.7677822,81.8912506 21.270153,82.5032883 
		19.7754688,83.2813568 19.0260563,83.7467957 19.0215206,83.7498169 18.402317,84.1775284 17.0633087,85.2599411 
		15.8056412,86.4706497 15.186676,87.1569519 14.6008997,87.8703842 13.6060352,89.2720337 12.6931477,90.8075409 
		12.2577953,91.6643219 11.8614416,92.5369339 11.2175646,94.2458725 10.7050114,96.0133133 10.4940996,96.9646378 
		10.3667574,97.6860352 10.2004156,110.0927124 10.2004156,110.0994797 10.1693764,112.3937912 10.1757431,127.4912949 
		10.1693764,127.4912949 	"/>
	<ellipse class="st0" cx="5.4596882" cy="127.5987625" rx="4.7096882" ry="0.789481"/>
	<path class="st0" d="M78.8165283,127.5987625c0,0.4360123,2.1086044,0.7894821,4.7096863,0.7894821
		c2.6010895,0,4.7096939-0.3534698,4.7096939-0.7894821"/>
</g>
</svg>
