<?xml version="1.0" encoding="utf-8"?>
<!-- Generator: Adobe Illustrator 21.0.0, SVG Export Plug-In . SVG Version: 6.00 Build 0)  -->
<svg version="1.1" id="Layer_1" xmlns="http://www.w3.org/2000/svg" xmlns:xlink="http://www.w3.org/1999/xlink" x="0px" y="0px"
	 viewBox="0 0 100 100" style="enable-background:new 0 0 100 100;" xml:space="preserve">
<style type="text/css">
	.st0{fill:none;}
	.st1{fill:#231F20;}
	.st2{fill:#FFFFFF;}
	.st3{fill:#3DD83D;}
	.st4{enable-background:new    ;}
</style>
<g id="Layer_2">
</g>
<g id="Layer_1_1_">
	<circle class="st0" cx="50" cy="50" r="49.1"/>
	<g>
		<g>
			<g>
				<rect x="-0.2" y="48.9" class="st1" width="19.6" height="1.7"/>
			</g>
		</g>
		<g>
			<g>
				<rect x="80.2" y="48.9" class="st1" width="19.6" height="1.7"/>
			</g>
		</g>
		<g>
			<g>
				<line class="st0" x1="49.8" y1="67.6" x2="49.8" y2="31.1"/>
			</g>
			<g>
				<rect x="48.9" y="31.1" class="st1" width="1.7" height="36.5"/>
			</g>
		</g>
		<g>
			<g>
				<rect x="42.5" y="6.8" class="st2" width="14.6" height="25.3"/>
			</g>
			<g>
				<path class="st1" d="M58,32.9H41.7v-27H58V32.9z M43.4,31.2h12.8V7.6H43.4V31.2z"/>
			</g>
		</g>
		<g id="XMLID_2_">
			<g>
				<g>
					<polygon class="st3" points="49.8,50 19.4,67.6 19.4,32.5 					"/>
				</g>
			</g>
			<g>
				<g>
					<path class="st1" d="M18.5,69.1V30.9l33,19.1L18.5,69.1z M20.3,34v32.1L48.1,50L20.3,34z"/>
				</g>
			</g>
		</g>
		<g id="XMLID_3_">
			<g>
				<g>
					<polygon class="st3" points="80.2,32.5 80.2,67.6 49.8,50 					"/>
				</g>
			</g>
			<g>
				<g>
					<path class="st1" d="M81.1,69.1L48.1,50l33-19.1V69.1z M51.5,50l27.8,16.1V34L51.5,50z"/>
				</g>
			</g>
		</g>
	</g>
</g>
<g id="Layer_2_2_">
	<g class="st4">
		<path d="M60.4,13.9h5v1h-3.8v2.6h3.5v1h-3.5v4.2h-1.2L60.4,13.9L60.4,13.9z"/>
		<path d="M69.6,22.6l-3.3-8.7h1.2l2.8,7.4l2.8-7.4h1.2l-3.3,8.7C70.9,22.6,69.6,22.6,69.6,22.6z"/>
	</g>
</g>
</svg>
