<?xml version="1.0" encoding="utf-8"?>
<!-- Generator: Adobe Illustrator 21.0.0, SVG Export Plug-In . SVG Version: 6.00 Build 0)  -->
<svg version="1.1" id="Layer_1" xmlns="http://www.w3.org/2000/svg" xmlns:xlink="http://www.w3.org/1999/xlink" x="0px" y="0px"
	 viewBox="0 0 100 100" style="enable-background:new 0 0 100 100;" xml:space="preserve">
<style type="text/css">
	.st0{fill:none;stroke:#999999;stroke-width:1.8;stroke-miterlimit:10;stroke-dasharray:1.471,1.4706;}
	.st1{fill:none;stroke:#999999;stroke-width:1.8;stroke-miterlimit:10;}
	.st2{fill:none;stroke:#999999;stroke-width:1.8;stroke-miterlimit:10;stroke-dasharray:1.459,1.4586;}
	.st3{fill:none;stroke:#999999;stroke-width:1.8;stroke-miterlimit:10;stroke-dasharray:1.4019,1.4015;}
	.st4{enable-background:new    ;}
	.st5{fill:#999999;}
</style>
<g id="Layer_2">
</g>
<g id="Layer_1_1_">
	<g>
		<g>
			<g>
				<line class="st0" x1="49.8" y1="67.6" x2="49.8" y2="31.1"/>
			</g>
		</g>
		<g>
			<g>
				<g>
					<g>
						<polyline class="st1" points="42.5,7.535 42.5,6.8 43.236,6.8 						"/>
						<line class="st2" x1="44.694" y1="6.8" x2="55.635" y2="6.8"/>
						<polyline class="st1" points="56.364,6.8 57.1,6.8 57.1,7.535 						"/>
						<line class="st3" x1="57.1" y1="8.937" x2="57.1" y2="30.664"/>
						<polyline class="st1" points="57.1,31.365 57.1,32.1 56.364,32.1 						"/>
						<line class="st2" x1="54.906" y1="32.1" x2="43.965" y2="32.1"/>
						<polyline class="st1" points="43.236,32.1 42.5,32.1 42.5,31.365 						"/>
						<line class="st3" x1="42.5" y1="29.963" x2="42.5" y2="8.236"/>
					</g>
				</g>
			</g>
		</g>
		<g id="XMLID_2_">
			<g>
				<g>
					<polygon class="st0" points="49.8,50 19.4,67.6 19.4,32.5 					"/>
				</g>
			</g>
		</g>
		<g id="XMLID_3_">
			<g>
				<g>
					<polygon class="st0" points="80.2,32.5 80.2,67.6 49.8,50 					"/>
				</g>
			</g>
		</g>
	</g>
</g>
<g id="Layer_2_2_">
	<g class="st4">
		<path class="st5" d="M60.428,13.902h5.027v0.996h-3.844v2.578h3.469v0.996h-3.469v4.178h-1.184V13.902z"/>
		<path class="st5" d="M69.586,22.65l-3.34-8.748h1.236l2.771,7.365l2.777-7.365h1.23l-3.334,8.748H69.586z"/>
	</g>
</g>
<line class="st0" x1="19.388" y1="50" x2="-0.012" y2="50"/>
<line class="st0" x1="99.6" y1="50" x2="80.2" y2="50"/>
</svg>
