<?xml version="1.0" encoding="utf-8"?>
<!-- Generator: Adobe Illustrator 21.1.0, SVG Export Plug-In . SVG Version: 6.00 Build 0)  -->
<svg version="1.1" id="Layer_1" xmlns="http://www.w3.org/2000/svg" xmlns:xlink="http://www.w3.org/1999/xlink" x="0px" y="0px"
	 viewBox="0 0 16 16" style="enable-background:new 0 0 16 16;" xml:space="preserve">
<style type="text/css">
	.st0{fill:none;stroke:#000000;stroke-linecap:round;stroke-linejoin:round;stroke-miterlimit:10;}
	.st1{fill:none;stroke:#FC0D1B;stroke-width:1.8;stroke-linejoin:round;stroke-miterlimit:10;}
</style>
<g>
	
		<ellipse transform="matrix(0.7432941 -0.6689647 0.6689647 0.7432941 -3.2980709 7.4053645)" class="st0" cx="8" cy="8" rx="6.9999399" ry="6.9999399"/>
	<path class="st1" d="M12.0420322,7.1403508c-0.145937-0.6897717-0.4520283-1.3546553-0.9575691-1.9163671
		C9.551301,3.5204706,6.9274964,3.3823757,5.2239838,4.9155374s-1.841608,4.1569657-0.3084464,5.8604789
		c0.5055408,0.5617123,1.1346197,0.9359074,1.8052611,1.1534452"/>
	<g>
		<path d="M5.7668386,8.6887693h0.4744678V7.3423347L5.7541862,7.4425006V7.0776873l0.4844842-0.1012197h0.5103164v1.7123017
			h0.4744678v0.371666H5.7668386V8.6887693z"/>
		<path d="M7.7116289,8.5200691h0.502409v0.5403662h-0.502409V8.5200691z"/>
		<path d="M9.3285093,8.6655731h0.917305v0.3948622h-1.51408V8.6655731l0.7602034-0.6716356
			c0.0685339-0.0611539,0.1191444-0.121253,0.150775-0.1802979c0.0316315-0.0579906,0.048501-0.119144,0.048501-0.1824064
			c0-0.0980568-0.0316305-0.1760802-0.0991106-0.2361798C9.5267315,7.3360085,9.4402733,7.3064861,9.3316727,7.3064861
			c-0.0832949,0-0.1760798,0.0179243-0.2751913,0.0537734C8.9573708,7.3961082,8.8508787,7.4488268,8.7370062,7.5194697V7.061872
			c0.121253-0.0400662,0.2403975-0.0706429,0.3584871-0.0906763c0.1180897-0.0210872,0.2340708-0.031631,0.3468885-0.031631
			c0.2509413,0,0.4428368,0.0548272,0.5820141,0.1644821c0.1370678,0.1096549,0.2066565,0.2625389,0.2066565,0.458652
			c0,0.1138725-0.0295219,0.2193098-0.0885668,0.3173661c-0.0569363,0.0980568-0.1813526,0.2298536-0.369031,0.3943357
			L9.3285093,8.6655731z"/>
	</g>
</g>
</svg>
