<?xml version="1.0" encoding="utf-8"?>
<!-- Generator: Adobe Illustrator 21.0.0, SVG Export Plug-In . SVG Version: 6.00 Build 0)  -->
<svg version="1.1" id="Layer_1" xmlns="http://www.w3.org/2000/svg" xmlns:xlink="http://www.w3.org/1999/xlink" x="0px" y="0px"
	 viewBox="0 0 100 100" style="enable-background:new 0 0 100 100;" xml:space="preserve">
<style type="text/css">
	.st0{fill:#FC0D1B;}
	.st1{clip-path:url(#SVGID_2_);}
	.st2{fill:#FFFFFF;}
	.st3{fill:none;}
	.st4{fill:#960810;}
</style>
<circle class="st0" cx="50" cy="50" r="49.1"/>
<g>
	<defs>
		<circle id="SVGID_1_" cx="50" cy="50" r="50"/>
	</defs>
	<clipPath id="SVGID_2_">
		<use xlink:href="#SVGID_1_"  style="overflow:visible;"/>
	</clipPath>
	<g class="st1">
		<polygon class="st2" points="83.351,71.89 81.085,72.289 82.474,80.169 51.1,48.793 51.1,5.174 55.721,11.775 57.604,10.455 
			51.1,1.164 51.1,0.6 48.8,0.6 48.8,1.284 42.369,10.465 44.253,11.785 48.8,5.293 48.8,48.846 17.563,80.083 18.927,72.361 
			16.662,71.961 14.726,82.92 14.262,83.384 15.888,85.01 16.282,84.617 27.41,82.652 27.01,80.387 19.118,81.781 49.976,50.922 
			80.783,81.73 73.05,80.366 72.65,82.631 83.619,84.565 84.084,85.031 85.71,83.405 85.309,83.004 		"/>
		
			<rect x="-18.78" y="40.291" transform="matrix(0.2439 -0.9698 0.9698 0.2439 -27.9639 47.0158)" class="st2" width="69.9" height="2.3"/>
		
			<rect x="82.708" y="6.603" transform="matrix(0.9699 -0.2434 0.2434 0.9699 -7.5931 21.664)" class="st2" width="2.301" height="69.904"/>
	</g>
</g>
<line class="st3" x1="50" y1="50" x2="50" y2="0.9"/>
<line class="st3" x1="50" y1="1.6" x2="43.5" y2="10.9"/>
<line class="st3" x1="50" y1="1.6" x2="56.5" y2="10.9"/>
<g>
	<line class="st3" x1="50" y1="49.3" x2="15.3" y2="84.1"/>
	<line class="st3" x1="15.8" y1="83.5" x2="26.9" y2="81.5"/>
	<line class="st3" x1="15.8" y1="83.5" x2="17.8" y2="72.4"/>
</g>
<g>
	<line class="st3" x1="50" y1="49.3" x2="84.7" y2="84.1"/>
	<line class="st3" x1="84.2" y1="83.5" x2="73.1" y2="81.5"/>
	<line class="st3" x1="84.2" y1="83.5" x2="82.2" y2="72.4"/>
</g>
<path class="st4" d="M50,100C22.4,100,0,77.6,0,50S22.4,0,50,0s50,22.4,50,50S77.6,100,50,100z M50,1.7C23.4,1.7,1.7,23.4,1.7,50
	S23.4,98.3,50,98.3S98.3,76.6,98.3,50S76.6,1.7,50,1.7z"/>
</svg>
