<?xml version="1.0" encoding="utf-8"?>
<!-- Generator: Adobe Illustrator 21.0.0, SVG Export Plug-In . SVG Version: 6.00 Build 0)  -->
<svg version="1.1" id="Layer_1" xmlns="http://www.w3.org/2000/svg" xmlns:xlink="http://www.w3.org/1999/xlink" x="0px" y="0px"
	 viewBox="0 0 100 100" style="enable-background:new 0 0 100 100;" xml:space="preserve">
<style type="text/css">
	.st0{fill:none;}
	.st1{fill:#FEC251;}
	.st2{fill:url(#New_Pattern_Swatch_1);}
	.st3{fill:#231F20;}
</style>
<pattern  y="100" width="31.006" height="31.006" patternUnits="userSpaceOnUse" id="New_Pattern_Swatch_1" viewBox="0 -31.006 31.006 31.006" style="overflow:visible;">
	<g>
		<rect y="-31.006" class="st0" width="31.006" height="31.006"/>
		<rect x="0" y="-31.006" class="st1" width="31.006" height="31.006"/>
	</g>
</pattern>
<circle class="st2" cx="50" cy="50" r="49.1"/>
<g>
	<line class="st0" x1="50" y1="50" x2="50" y2="0.9"/>
	<rect x="49.1" y="0.9" class="st3" width="1.7" height="49.1"/>
</g>
<g>
	<line class="st0" x1="50" y1="1.6" x2="43.5" y2="10.9"/>
	
		<rect x="41.088" y="5.423" transform="matrix(0.5737 -0.819 0.819 0.5737 14.7853 40.9545)" class="st3" width="11.299" height="1.7"/>
</g>
<g>
	<line class="st0" x1="50" y1="1.6" x2="56.5" y2="10.9"/>
	
		<rect x="52.385" y="0.595" transform="matrix(0.8192 -0.5735 0.5735 0.8192 6.0432 31.6595)" class="st3" width="1.7" height="11.3"/>
</g>
<g>
	<g>
		<line class="st0" x1="50" y1="49.3" x2="15.3" y2="84.1"/>
		
			<rect x="8.07" y="65.792" transform="matrix(0.7071 -0.7071 0.7071 0.7071 -37.5687 42.5847)" class="st3" width="49.1" height="1.7"/>
	</g>
	<g>
		<line class="st0" x1="15.8" y1="83.5" x2="26.9" y2="81.5"/>
		
			<rect x="15.707" y="81.705" transform="matrix(0.9848 -0.1739 0.1739 0.9848 -14.0305 4.9716)" class="st3" width="11.3" height="1.7"/>
	</g>
	<g>
		<line class="st0" x1="15.8" y1="83.5" x2="17.8" y2="72.4"/>
		
			<rect x="11.145" y="77.131" transform="matrix(0.1739 -0.9848 0.9848 0.1739 -62.9187 80.9604)" class="st3" width="11.3" height="1.7"/>
	</g>
</g>
<g>
	<g>
		<line class="st0" x1="50" y1="49.3" x2="84.7" y2="84.1"/>
		
			<rect x="66.484" y="42.126" transform="matrix(0.7071 -0.7071 0.7071 0.7071 -27.4253 67.1414)" class="st3" width="1.7" height="49.1"/>
	</g>
	<g>
		<line class="st0" x1="84.2" y1="83.5" x2="73.1" y2="81.5"/>
		
			<rect x="77.819" y="76.855" transform="matrix(0.1737 -0.9848 0.9848 0.1737 -16.2469 145.6475)" class="st3" width="1.7" height="11.3"/>
	</g>
	<g>
		<line class="st0" x1="84.2" y1="83.5" x2="82.2" y2="72.4"/>
		
			<rect x="82.402" y="72.288" transform="matrix(0.9848 -0.1736 0.1736 0.9848 -12.266 15.6363)" class="st3" width="1.7" height="11.3"/>
	</g>
</g>
<g>
	
		<rect x="-18.495" y="40.583" transform="matrix(0.2439 -0.9698 0.9698 0.2439 -27.9671 46.9944)" class="st3" width="69.3" height="1.7"/>
</g>
<g>
	
		<rect x="83.015" y="6.886" transform="matrix(0.9699 -0.2437 0.2437 0.9699 -7.594 21.6891)" class="st3" width="1.7" height="69.303"/>
</g>
<path class="st3" d="M50,100C22.4,100,0,77.6,0,50S22.4,0,50,0s50,22.4,50,50S77.6,100,50,100z M50,1.7C23.4,1.7,1.7,23.4,1.7,50
	S23.4,98.3,50,98.3S98.3,76.6,98.3,50S76.6,1.7,50,1.7z"/>
</svg>
