<?xml version="1.0" encoding="utf-8"?>
<!-- Generator: Adobe Illustrator 21.0.0, SVG Export Plug-In . SVG Version: 6.00 Build 0)  -->
<svg version="1.1" id="Layer_1" xmlns="http://www.w3.org/2000/svg" xmlns:xlink="http://www.w3.org/1999/xlink" x="0px" y="0px"
	 viewBox="0 0 100 100" style="enable-background:new 0 0 100 100;" xml:space="preserve">
<style type="text/css">
	.st0{clip-path:url(#SVGID_2_);}
	.st1{fill:#797979;}
</style>
<rect x="49.1" y="0.9" width="1.7" height="49.1"/>
<rect x="41.075" y="5.402" transform="matrix(0.5737 -0.819 0.819 0.5737 14.7967 40.9344)" width="11.299" height="1.7"/>
<rect x="52.4" y="0.591" transform="matrix(0.8192 -0.5735 0.5735 0.8192 6.0484 31.6673)" width="1.7" height="11.3"/>
<rect x="8.097" y="65.776" transform="matrix(0.7071 -0.7071 0.7071 0.7071 -37.5499 42.5988)" width="49.1" height="1.7"/>
<rect x="15.7" y="81.704" transform="matrix(0.9848 -0.1739 0.1739 0.9848 -14.0303 4.9705)" width="11.3" height="1.7"/>
<rect x="11.109" y="77.17" transform="matrix(0.1739 -0.9848 0.9848 0.1739 -62.9869 80.9572)" width="11.3" height="1.7"/>
<rect x="66.476" y="42.097" transform="matrix(0.7071 -0.7071 0.7071 0.7071 -27.4068 67.127)" width="1.7" height="49.1"/>
<rect x="77.86" y="76.882" transform="matrix(0.1737 -0.9848 0.9848 0.1737 -16.2393 145.7095)" width="1.7" height="11.3"/>
<rect x="82.401" y="72.299" transform="matrix(0.9848 -0.1736 0.1736 0.9848 -12.2681 15.6362)" width="1.7" height="11.3"/>
<rect x="-18.48" y="40.592" transform="matrix(0.2439 -0.9698 0.9698 0.2439 -27.964 47.0159)" width="69.3" height="1.7"/>
<g>
	<defs>
		<circle id="SVGID_1_" cx="50" cy="50" r="50"/>
	</defs>
	<clipPath id="SVGID_2_">
		<use xlink:href="#SVGID_1_"  style="overflow:visible;"/>
	</clipPath>
	<g class="st0">
		<g>
			<polygon points="83.351,71.89 81.085,72.289 82.474,80.169 51.1,48.793 51.1,5.174 55.721,11.775 57.604,10.455 51.1,1.164 
				51.1,0.6 48.8,0.6 48.8,1.284 42.369,10.465 44.253,11.785 48.8,5.293 48.8,48.846 17.563,80.083 18.927,72.361 16.662,71.961 
				14.726,82.92 14.262,83.384 15.888,85.01 16.282,84.617 27.41,82.652 27.01,80.387 19.118,81.781 49.976,50.922 80.783,81.73 
				73.05,80.366 72.65,82.631 83.619,84.565 84.084,85.031 85.71,83.405 85.309,83.004 			"/>
			<rect x="-18.78" y="40.291" transform="matrix(0.2439 -0.9698 0.9698 0.2439 -27.9639 47.0158)" width="69.9" height="2.3"/>
			<rect x="82.708" y="6.603" transform="matrix(0.9699 -0.2434 0.2434 0.9699 -7.5931 21.664)" width="2.301" height="69.904"/>
		</g>
		<rect x="83.008" y="6.903" transform="matrix(0.9699 -0.2437 0.2437 0.9699 -7.5983 21.6879)" width="1.7" height="69.303"/>
	</g>
</g>
<path class="st1" d="M50,1.7C23.4,1.7,1.7,23.4,1.7,50S23.4,98.3,50,98.3S98.3,76.6,98.3,50S76.6,1.7,50,1.7z M50,100
	C22.4,100,0,77.6,0,50S22.4,0,50,0s50,22.4,50,50S77.6,100,50,100z"/>
</svg>
