<?xml version="1.0" encoding="utf-8"?>
<!-- Generator: Adobe Illustrator 21.0.0, SVG Export Plug-In . SVG Version: 6.00 Build 0)  -->
<svg version="1.1" id="Layer_1" xmlns="http://www.w3.org/2000/svg" xmlns:xlink="http://www.w3.org/1999/xlink" x="0px" y="0px"
	 viewBox="0 0 100 100" style="enable-background:new 0 0 100 100;" xml:space="preserve">
<style type="text/css">
	.st0{fill:none;stroke:#999999;stroke-width:1.8;stroke-miterlimit:5;}
	.st1{fill:none;stroke:#999999;stroke-width:1.8;stroke-miterlimit:5;stroke-dasharray:1.4731,1.4731;}
	.st2{fill:none;stroke:#999999;stroke-width:1.8;stroke-miterlimit:5;stroke-dasharray:1.4984,1.4984;}
	.st3{fill:none;stroke:#999999;stroke-width:1.8;stroke-miterlimit:10;}
	.st4{fill:none;stroke:#999999;stroke-width:1.8;stroke-miterlimit:10;stroke-dasharray:1.7191,1.7191;}
	.st5{enable-background:new    ;}
	.st6{fill:#999999;}
	.st7{fill:none;stroke:#999999;stroke-width:1.8;stroke-miterlimit:5;stroke-dasharray:1.4794,1.4794;}
	.st8{fill:none;stroke:#999999;stroke-width:1.8;stroke-miterlimit:5;stroke-dasharray:1.5237,1.5237;}
	.st9{fill:none;stroke:#000000;stroke-miterlimit:10;}
</style>
<g id="Layer_1_1_">
	<g>
		<g>
			<line class="st0" x1="77.1" y1="65.6" x2="77.1" y2="64.8"/>
			<line class="st0" x1="23.1" y1="64.8" x2="23.1" y2="65.6"/>
		</g>
	</g>
	<g>
		<g>
			<polyline class="st0" points="89.9,94.8 89.9,95.6 89.2,95.6 			"/>
			<line class="st1" x1="87.7" y1="95.6" x2="11.8" y2="95.6"/>
			<polyline class="st0" points="11.1,95.6 10.3,95.6 10.3,94.8 			"/>
			<line class="st2" x1="10.3" y1="93.3" x2="10.3" y2="67.1"/>
			<polyline class="st0" points="10.3,66.3 10.3,65.6 11.1,65.6 			"/>
			<line class="st1" x1="12.6" y1="65.6" x2="88.4" y2="65.6"/>
			<polyline class="st0" points="89.2,65.6 89.9,65.6 89.9,66.3 			"/>
			<line class="st2" x1="89.9" y1="67.8" x2="89.9" y2="94.1"/>
		</g>
	</g>
	<g>
		<g>
			<line class="st3" x1="10.1" y1="80.6" x2="9.3" y2="80.6"/>
			<line class="st4" x1="7.6" y1="80.6" x2="1.6" y2="80.6"/>
			<line class="st3" x1="0.8" y1="80.6" x2="0" y2="80.6"/>
		</g>
	</g>
	<g>
		<g>
			<line class="st3" x1="100" y1="80.6" x2="99.2" y2="80.6"/>
			<line class="st4" x1="97.5" y1="80.6" x2="91.5" y2="80.6"/>
			<line class="st3" x1="90.7" y1="80.6" x2="89.9" y2="80.6"/>
		</g>
	</g>
</g>
<g id="Layer_2_1_">
</g>
<g id="Layer_2_2_">
	<g class="st5">
		<path class="st6" d="M40.836,28.064h1.358l1.719,4.583l1.728-4.583h1.358V34.8h-0.889v-5.914l-1.737,4.619h-0.916l-1.737-4.619
			V34.8h-0.884V28.064z"/>
		<path class="st6" d="M48.808,28.064h3.87v0.767h-2.959v1.985h2.67v0.767h-2.67V34.8h-0.911V28.064z"/>
		<path class="st6" d="M59.164,28.583v0.961c-0.307-0.286-0.634-0.5-0.981-0.641c-0.347-0.142-0.716-0.212-1.107-0.212
			c-0.77,0-1.359,0.235-1.769,0.706c-0.408,0.471-0.613,1.151-0.613,2.042c0,0.887,0.205,1.566,0.613,2.037
			c0.409,0.471,0.999,0.706,1.769,0.706c0.392,0,0.761-0.07,1.107-0.212c0.348-0.141,0.675-0.355,0.981-0.641v0.952
			c-0.318,0.217-0.656,0.379-1.013,0.486c-0.356,0.109-0.733,0.163-1.13,0.163c-1.02,0-1.822-0.312-2.409-0.936
			c-0.586-0.624-0.88-1.476-0.88-2.556c0-1.083,0.294-1.936,0.88-2.56c0.587-0.624,1.39-0.936,2.409-0.936
			c0.403,0,0.782,0.053,1.139,0.16C58.517,28.209,58.852,28.37,59.164,28.583z"/>
	</g>
</g>
<g>
	<g>
		<line class="st0" x1="76.99" y1="65.6" x2="76.991" y2="64.851"/>
		<line class="st7" x1="76.991" y1="63.371" x2="77.005" y2="10.854"/>
		<polyline class="st0" points="77.005,10.114 77.005,9.365 76.472,8.838 		"/>
		<polyline class="st8" points="75.389,7.767 68.483,0.938 31.532,0.938 24.084,8.302 		"/>
		<polyline class="st0" points="23.542,8.838 23.01,9.365 23.009,10.114 		"/>
		<line class="st7" x1="23.009" y1="11.593" x2="22.995" y2="64.111"/>
		<line class="st0" x1="22.995" y1="64.851" x2="22.995" y2="65.6"/>
	</g>
</g>
<path class="st9" d="M0,80.172"/>
<path class="st9" d="M10.095,80.172"/>
</svg>
