<?xml version="1.0" encoding="utf-8"?>
<!-- Generator: Adobe Illustrator 21.0.0, SVG Export Plug-In . SVG Version: 6.00 Build 0)  -->
<svg version="1.1" id="Layer_1" xmlns="http://www.w3.org/2000/svg" xmlns:xlink="http://www.w3.org/1999/xlink" x="0px" y="0px"
	 viewBox="0 0 100 100" style="enable-background:new 0 0 100 100;" xml:space="preserve">
<style type="text/css">
	.st0{fill:none;}
	.st1{enable-background:new    ;}
</style>
<g>
	<g id="Layer_2">
	</g>
	<g>
		<polygon points="78.3,65.5 76.6,65.5 76.6,10 68.6,2 32.4,2 24.4,10 24.4,65.5 22.6,65.5 22.6,9.3 31.6,0.2 69.3,0.2 78.3,9.3 		
			"/>
	</g>
	<g>
		<rect x="10.7" y="65.5" class="st0" width="79.6" height="30"/>
		<path d="M91.1,96.3H9.8V64.6h81.3C91.1,64.6,91.1,96.3,91.1,96.3z M11.6,94.6h77.8V66.3H11.6V94.6z"/>
	</g>
</g>
<g id="Layer_2_2_">
	<g class="st1">
		<path d="M32.267,24.91h2.628l3.327,8.868l3.343-8.868h2.628v13.034h-1.72V26.5l-3.362,8.939H37.34L33.979,26.5v11.444h-1.71
			C32.267,37.945,32.267,24.91,32.267,24.91z"/>
		<path d="M47.693,24.91h7.488v1.484h-5.726v3.842h5.166v1.483h-5.166v6.225h-1.763C47.693,37.945,47.693,24.91,47.693,24.91z"/>
		<path d="M67.733,25.915v1.86c-0.594-0.553-1.227-0.968-1.898-1.24c-0.672-0.274-1.386-0.41-2.142-0.41
			c-1.49,0-2.629,0.454-3.423,1.366c-0.789,0.912-1.187,2.228-1.187,3.951c0,1.716,0.396,3.03,1.187,3.942
			c0.792,0.912,1.934,1.367,3.423,1.367c0.759,0,1.473-0.135,2.142-0.41c0.674-0.273,1.307-0.687,1.898-1.24v1.842
			c-0.615,0.42-1.269,0.733-1.961,0.94c-0.688,0.211-1.419,0.315-2.187,0.315c-1.974,0-3.525-0.603-4.662-1.811
			c-1.134-1.208-1.702-2.856-1.702-4.945c0-2.095,0.569-3.746,1.702-4.953c1.136-1.208,2.689-1.811,4.662-1.811
			c0.78,0,1.514,0.102,2.204,0.309C66.48,25.19,67.128,25.502,67.733,25.915z"/>
	</g>
</g>
</svg>
