<?xml version="1.0" encoding="utf-8"?>
<!-- Generator: Adobe Illustrator 21.0.0, SVG Export Plug-In . SVG Version: 6.00 Build 0)  -->
<svg version="1.1" id="Layer_1" xmlns="http://www.w3.org/2000/svg" xmlns:xlink="http://www.w3.org/1999/xlink" x="0px" y="0px"
	 viewBox="0 0 100 100" style="enable-background:new 0 0 100 100;" xml:space="preserve">
<style type="text/css">
	.st0{fill:none;stroke:#A9A9A9;stroke-width:1.8;stroke-miterlimit:5;}
	.st1{fill:none;stroke:#A9A9A9;stroke-width:1.8;stroke-miterlimit:5;stroke-dasharray:1.4731,1.4731;}
	.st2{fill:none;stroke:#A9A9A9;stroke-width:1.8;stroke-miterlimit:5;stroke-dasharray:1.4984,1.4984;}
	.st3{fill:none;stroke:#A9A9A9;stroke-width:1.8;stroke-miterlimit:5;stroke-dasharray:1.4794,1.4794;}
	.st4{fill:none;stroke:#A9A9A9;stroke-width:1.8;stroke-miterlimit:5;stroke-dasharray:1.5237,1.5237;}
	.st5{fill:none;stroke:#A9A9A9;stroke-miterlimit:10;}
	.st6{enable-background:new    ;}
	.st7{fill:#A9A9A9;}
</style>
<g id="Layer_1_1_">
	<g>
		<g>
			<line class="st0" x1="77.1" y1="65.6" x2="77.1" y2="64.8"/>
			<line class="st0" x1="23.1" y1="64.8" x2="23.1" y2="65.6"/>
		</g>
	</g>
	<g>
		<g>
			<polyline class="st0" points="89.9,94.8 89.9,95.6 89.2,95.6 			"/>
			<line class="st1" x1="87.7" y1="95.6" x2="11.8" y2="95.6"/>
			<polyline class="st0" points="11.1,95.6 10.3,95.6 10.3,94.8 			"/>
			<line class="st2" x1="10.3" y1="93.3" x2="10.3" y2="67.1"/>
			<polyline class="st0" points="10.3,66.3 10.3,65.6 11.1,65.6 			"/>
			<line class="st1" x1="12.6" y1="65.6" x2="88.4" y2="65.6"/>
			<polyline class="st0" points="89.2,65.6 89.9,65.6 89.9,66.3 			"/>
			<line class="st2" x1="89.9" y1="67.8" x2="89.9" y2="94.1"/>
		</g>
	</g>
</g>
<g id="Layer_2_1_">
</g>
<g>
	<g>
		<line class="st0" x1="76.99" y1="65.6" x2="76.991" y2="64.851"/>
		<line class="st3" x1="76.991" y1="63.371" x2="77.005" y2="10.854"/>
		<polyline class="st0" points="77.005,10.114 77.005,9.365 76.472,8.838 		"/>
		<polyline class="st4" points="75.389,7.767 68.483,0.938 31.532,0.938 24.084,8.302 		"/>
		<polyline class="st0" points="23.542,8.838 23.01,9.365 23.009,10.114 		"/>
		<line class="st3" x1="23.009" y1="11.593" x2="22.995" y2="64.111"/>
		<line class="st0" x1="22.995" y1="64.851" x2="22.995" y2="65.6"/>
	</g>
</g>
<path class="st5" d="M10.095,80.172"/>
<g id="Layer_2_2_">
	<g class="st6">
		<path class="st7" d="M32.267,24.91h2.628l3.327,8.868l3.343-8.868h2.628v13.034h-1.72V26.5l-3.362,8.939H37.34L33.979,26.5v11.444
			h-1.71C32.267,37.945,32.267,24.91,32.267,24.91z"/>
		<path class="st7" d="M47.693,24.91h7.488v1.484h-5.726v3.842h5.166v1.483h-5.166v6.225h-1.763
			C47.693,37.945,47.693,24.91,47.693,24.91z"/>
		<path class="st7" d="M67.733,25.915v1.86c-0.594-0.553-1.227-0.968-1.898-1.24c-0.672-0.274-1.386-0.41-2.142-0.41
			c-1.49,0-2.629,0.454-3.423,1.366c-0.789,0.912-1.187,2.228-1.187,3.951c0,1.716,0.396,3.03,1.187,3.942
			c0.792,0.912,1.934,1.367,3.423,1.367c0.759,0,1.473-0.135,2.142-0.41c0.674-0.273,1.307-0.687,1.898-1.24v1.842
			c-0.615,0.42-1.269,0.733-1.961,0.94c-0.688,0.211-1.419,0.315-2.187,0.315c-1.974,0-3.525-0.603-4.662-1.811
			c-1.134-1.208-1.702-2.856-1.702-4.945c0-2.095,0.569-3.746,1.702-4.953c1.136-1.208,2.689-1.811,4.662-1.811
			c0.78,0,1.514,0.102,2.204,0.309C66.48,25.19,67.128,25.502,67.733,25.915z"/>
	</g>
</g>
</svg>
