<?xml version="1.0" encoding="utf-8"?>
<!-- Generator: Adobe Illustrator 21.0.0, SVG Export Plug-In . SVG Version: 6.00 Build 0)  -->
<svg version="1.1" id="Layer_1" xmlns="http://www.w3.org/2000/svg" xmlns:xlink="http://www.w3.org/1999/xlink" x="0px" y="0px"
	 viewBox="0 0 100 100" style="enable-background:new 0 0 100 100;" xml:space="preserve">
<style type="text/css">
	.st0{fill:#FFFFFF;}
	.st1{fill:none;}
	.st2{enable-background:new    ;}
</style>
<g>
	<g id="Layer_2">
	</g>
	<g>
		<polygon class="st0" points="78.3,65.5 76.6,65.5 76.6,10 68.6,2 32.4,2 24.4,10 24.4,65.5 22.6,65.5 22.6,9.3 31.6,0.2 69.3,0.2 
			78.3,9.3 		"/>
	</g>
	<g>
		<rect x="10.7" y="65.5" class="st1" width="79.6" height="30"/>
		<path class="st0" d="M91.1,96.3H9.8V64.6h81.3C91.1,64.6,91.1,96.3,91.1,96.3z M11.6,94.6h77.8V66.3H11.6V94.6z"/>
	</g>
	<g>
		<rect x="0.4" y="79.6" class="st0" width="10.1" height="1.7"/>
	</g>
	<g>
		<rect x="90.3" y="79.6" class="st0" width="10.1" height="1.7"/>
	</g>
</g>
<g id="Layer_2_2_">
	<g class="st2">
		<path class="st0" d="M40.8,28.1h1.4l1.7,4.6l1.7-4.6H47v6.7h-0.9v-5.9l-1.7,4.6h-0.9l-1.7-4.6v5.9h-0.9
			C40.8,34.8,40.8,28.1,40.8,28.1z"/>
		<path class="st0" d="M48.8,28.1h3.9v0.8h-3v2h2.7v0.8h-2.7v3.2h-0.9C48.8,34.8,48.8,28.1,48.8,28.1z"/>
		<path class="st0" d="M59.2,28.6v1c-0.3-0.3-0.6-0.5-1-0.6c-0.3-0.1-0.7-0.2-1.1-0.2c-0.8,0-1.4,0.2-1.8,0.7
			c-0.4,0.5-0.6,1.2-0.6,2c0,0.9,0.2,1.6,0.6,2c0.4,0.5,1,0.7,1.8,0.7c0.4,0,0.8-0.1,1.1-0.2c0.3-0.1,0.7-0.4,1-0.6v1
			c-0.3,0.2-0.7,0.4-1,0.5c-0.4,0.1-0.7,0.2-1.1,0.2c-1,0-1.8-0.3-2.4-0.9c-0.6-0.6-0.9-1.5-0.9-2.6c0-1.1,0.3-1.9,0.9-2.6
			c0.6-0.6,1.4-0.9,2.4-0.9c0.4,0,0.8,0.1,1.1,0.2C58.5,28.2,58.9,28.4,59.2,28.6z"/>
	</g>
</g>
</svg>
