<?xml version="1.0" encoding="utf-8"?>
<!-- Generator: Adobe Illustrator 21.0.0, SVG Export Plug-In . SVG Version: 6.00 Build 0)  -->
<svg version="1.1" id="Layer_1" xmlns="http://www.w3.org/2000/svg" xmlns:xlink="http://www.w3.org/1999/xlink" x="0px" y="0px"
	 viewBox="0 0 100 100" style="enable-background:new 0 0 100 100;" xml:space="preserve">
<style type="text/css">
	.st0{fill:none;}
	.st1{enable-background:new    ;}
</style>
<g>
	<g id="Layer_2">
	</g>
	<g>
		<polygon points="78.3,65.5 76.6,65.5 76.6,10 68.6,2 32.4,2 24.4,10 24.4,65.5 22.6,65.5 22.6,9.3 31.6,0.2 69.3,0.2 78.3,9.3 		
			"/>
	</g>
	<g>
		<rect x="10.7" y="65.5" class="st0" width="79.6" height="30"/>
		<path d="M91.1,96.3H9.8V64.6h81.3C91.1,64.6,91.1,96.3,91.1,96.3z M11.6,94.6h77.8V66.3H11.6V94.6z"/>
	</g>
</g>
<g id="Layer_2_2_">
	<g class="st1">
		<path d="M38.178,27.086h1.752l2.218,5.912l2.229-5.912h1.752v8.689h-1.147v-7.629l-2.241,5.959H41.56l-2.241-5.959v7.629h-1.14
			C38.178,35.776,38.178,27.086,38.178,27.086z"/>
		<path d="M48.462,27.086h4.992v0.989h-3.817v2.561h3.444v0.989h-3.444v4.15h-1.175C48.462,35.776,48.462,27.086,48.462,27.086z"/>
		<path d="M61.822,27.756v1.24c-0.396-0.369-0.818-0.645-1.265-0.827c-0.448-0.183-0.924-0.273-1.428-0.273
			c-0.993,0-1.753,0.303-2.282,0.911c-0.526,0.608-0.791,1.485-0.791,2.634c0,1.144,0.264,2.02,0.791,2.628
			c0.528,0.608,1.289,0.911,2.282,0.911c0.506,0,0.982-0.09,1.428-0.273c0.449-0.182,0.871-0.458,1.265-0.827v1.228
			c-0.41,0.28-0.846,0.489-1.307,0.627c-0.459,0.141-0.946,0.21-1.458,0.21c-1.316,0-2.35-0.402-3.108-1.207
			c-0.756-0.805-1.135-1.904-1.135-3.297c0-1.397,0.379-2.497,1.135-3.302c0.757-0.805,1.793-1.207,3.108-1.207
			c0.52,0,1.009,0.068,1.469,0.206C60.987,27.273,61.419,27.481,61.822,27.756z"/>
	</g>
</g>
</svg>
