<?xml version="1.0" encoding="utf-8"?>
<!-- Generator: Adobe Illustrator 21.0.0, SVG Export Plug-In . SVG Version: 6.00 Build 0)  -->
<svg version="1.1" id="Layer_1" xmlns="http://www.w3.org/2000/svg" xmlns:xlink="http://www.w3.org/1999/xlink" x="0px" y="0px"
	 viewBox="0 0 100 100" style="enable-background:new 0 0 100 100;" xml:space="preserve">
<style type="text/css">
	.st0{fill:#000000;}
	.st1{fill:none;}
	.st2{enable-background:new    ;}
</style>
<g>
	<g id="Layer_2">
	</g>
	<g>
		<polygon class="st0" points="78.3,65.5 76.6,65.5 76.6,10 68.6,2 32.4,2 24.4,10 24.4,65.5 22.6,65.5 22.6,9.3 31.6,0.2 69.3,0.2 
			78.3,9.3 		"/>
	</g>
	<g>
		<rect x="10.7" y="65.5" class="st1" width="79.6" height="30"/>
		<path class="st0" d="M91.1,96.3H9.8V64.6h81.3C91.1,64.6,91.1,96.3,91.1,96.3z M11.6,94.6h77.8V66.3H11.6V94.6z"/>
	</g>
	<g>
		<rect x="0.4" y="79.6" width="10.1" height="1.7"/>
	</g>
	<g>
		<rect x="90.3" y="79.6" width="10.1" height="1.7"/>
	</g>
</g>
<g id="Layer_2_2_">
	<g class="st2">
		<path d="M40.836,28.064h1.358l1.719,4.583l1.728-4.583h1.358V34.8h-0.889v-5.914l-1.737,4.619h-0.916l-1.737-4.619V34.8h-0.884
			V28.064z"/>
		<path d="M48.808,28.064h3.87v0.767h-2.959v1.985h2.67v0.767h-2.67V34.8h-0.911V28.064z"/>
		<path d="M59.164,28.583v0.961c-0.307-0.286-0.634-0.5-0.981-0.641c-0.347-0.142-0.716-0.212-1.107-0.212
			c-0.77,0-1.359,0.235-1.769,0.706c-0.408,0.471-0.613,1.151-0.613,2.042c0,0.887,0.205,1.566,0.613,2.037
			c0.409,0.471,0.999,0.706,1.769,0.706c0.392,0,0.761-0.07,1.107-0.212c0.348-0.141,0.675-0.355,0.981-0.641v0.952
			c-0.318,0.217-0.656,0.379-1.013,0.486c-0.356,0.109-0.733,0.163-1.13,0.163c-1.02,0-1.822-0.312-2.409-0.936
			c-0.586-0.624-0.88-1.476-0.88-2.556c0-1.083,0.294-1.936,0.88-2.56c0.587-0.624,1.39-0.936,2.409-0.936
			c0.403,0,0.782,0.053,1.139,0.16C58.517,28.209,58.852,28.37,59.164,28.583z"/>
	</g>
</g>
</svg>
