<?xml version="1.0" encoding="utf-8"?>
<!-- Generator: Adobe Illustrator 21.0.0, SVG Export Plug-In . SVG Version: 6.00 Build 0)  -->
<svg version="1.1" id="Layer_1" xmlns="http://www.w3.org/2000/svg" xmlns:xlink="http://www.w3.org/1999/xlink" x="0px" y="0px"
	 viewBox="0 0 100 100" style="enable-background:new 0 0 100 100;" xml:space="preserve">
<style type="text/css">
	.st0{fill:none;stroke:#A9A9A9;stroke-width:1.8;stroke-miterlimit:5;}
	.st1{fill:none;stroke:#A9A9A9;stroke-width:1.8;stroke-miterlimit:5;stroke-dasharray:1.4731,1.4731;}
	.st2{fill:none;stroke:#A9A9A9;stroke-width:1.8;stroke-miterlimit:5;stroke-dasharray:1.4984,1.4984;}
	.st3{enable-background:new    ;}
	.st4{fill:#A9A9A9;}
	.st5{fill:none;stroke:#A9A9A9;stroke-width:1.8;stroke-miterlimit:5;stroke-dasharray:1.4794,1.4794;}
	.st6{fill:none;stroke:#A9A9A9;stroke-width:1.8;stroke-miterlimit:5;stroke-dasharray:1.5237,1.5237;}
	.st7{fill:none;stroke:#A9A9A9;stroke-miterlimit:10;}
</style>
<g id="Layer_1_1_">
	<g>
		<g>
			<line class="st0" x1="77.1" y1="65.6" x2="77.1" y2="64.8"/>
			<line class="st0" x1="23.1" y1="64.8" x2="23.1" y2="65.6"/>
		</g>
	</g>
	<g>
		<g>
			<polyline class="st0" points="89.9,94.8 89.9,95.6 89.2,95.6 			"/>
			<line class="st1" x1="87.7" y1="95.6" x2="11.8" y2="95.6"/>
			<polyline class="st0" points="11.1,95.6 10.3,95.6 10.3,94.8 			"/>
			<line class="st2" x1="10.3" y1="93.3" x2="10.3" y2="67.1"/>
			<polyline class="st0" points="10.3,66.3 10.3,65.6 11.1,65.6 			"/>
			<line class="st1" x1="12.6" y1="65.6" x2="88.4" y2="65.6"/>
			<polyline class="st0" points="89.2,65.6 89.9,65.6 89.9,66.3 			"/>
			<line class="st2" x1="89.9" y1="67.8" x2="89.9" y2="94.1"/>
		</g>
	</g>
</g>
<g id="Layer_2_1_">
</g>
<g id="Layer_2_2_">
	<g class="st3">
		<path class="st4" d="M38.178,27.086h1.752l2.218,5.912l2.229-5.912h1.752v8.689h-1.147v-7.629l-2.241,5.959H41.56l-2.241-5.959
			v7.629h-1.14C38.178,35.776,38.178,27.086,38.178,27.086z"/>
		<path class="st4" d="M48.462,27.086h4.992v0.989h-3.817v2.561h3.444v0.989h-3.444v4.15h-1.175
			C48.462,35.776,48.462,27.086,48.462,27.086z"/>
		<path class="st4" d="M61.822,27.756v1.24c-0.396-0.369-0.818-0.645-1.265-0.827c-0.448-0.183-0.924-0.273-1.428-0.273
			c-0.993,0-1.753,0.303-2.282,0.911c-0.526,0.608-0.791,1.485-0.791,2.634c0,1.144,0.264,2.02,0.791,2.628
			c0.528,0.608,1.289,0.911,2.282,0.911c0.506,0,0.982-0.09,1.428-0.273c0.449-0.182,0.871-0.458,1.265-0.827v1.228
			c-0.41,0.28-0.846,0.489-1.307,0.627c-0.459,0.141-0.946,0.21-1.458,0.21c-1.316,0-2.35-0.402-3.108-1.207
			c-0.756-0.805-1.135-1.904-1.135-3.297c0-1.397,0.379-2.497,1.135-3.302c0.757-0.805,1.793-1.207,3.108-1.207
			c0.52,0,1.009,0.068,1.469,0.206C60.987,27.273,61.419,27.481,61.822,27.756z"/>
	</g>
</g>
<g>
	<g>
		<line class="st0" x1="76.99" y1="65.6" x2="76.991" y2="64.851"/>
		<line class="st5" x1="76.991" y1="63.371" x2="77.005" y2="10.854"/>
		<polyline class="st0" points="77.005,10.114 77.005,9.365 76.472,8.838 		"/>
		<polyline class="st6" points="75.389,7.767 68.483,0.938 31.532,0.938 24.084,8.302 		"/>
		<polyline class="st0" points="23.542,8.838 23.01,9.365 23.009,10.114 		"/>
		<line class="st5" x1="23.009" y1="11.593" x2="22.995" y2="64.111"/>
		<line class="st0" x1="22.995" y1="64.851" x2="22.995" y2="65.6"/>
	</g>
</g>
<path class="st7" d="M10.095,80.172"/>
</svg>
