<?xml version="1.0" encoding="utf-8"?>
<!-- Generator: Adobe Illustrator 21.1.0, SVG Export Plug-In . SVG Version: 6.00 Build 0)  -->
<svg version="1.1" id="Layer_1" xmlns="http://www.w3.org/2000/svg" xmlns:xlink="http://www.w3.org/1999/xlink" x="0px" y="0px"
	 viewBox="0 0 16 16" style="enable-background:new 0 0 16 16;" xml:space="preserve">
<g>
	<path d="M3.2831597,3.8226655c0.9025574,0,1.5918598,0.3566821,2.0683799,1.0705187s0.7147799,1.7499132,0.7147799,3.1091752
		c0,1.3554869-0.2382598,2.3906202-0.7147799,3.1039848c-0.4765201,0.7143078-1.1658225,1.0709906-2.0683799,1.0709906
		S1.6912999,11.820652,1.21478,11.1063442C0.73826,10.3929796,0.5,9.3578463,0.5,8.0023594
		c0-1.359262,0.23826-2.395339,0.71478-3.1091752S2.3806026,3.8226655,3.2831597,3.8226655z M3.2831597,4.6855912
		c-0.5609725,0-0.9822917,0.2760043-1.2649009,0.8275404C1.7361212,6.0651402,1.5950524,6.8950396,1.5950524,8.0023594
		c0,1.1040163,0.1410688,1.9320288,0.4232064,2.4840374c0.2826092,0.5520077,0.7039285,0.8275404,1.2649009,0.8275404
		c0.5647471,0,0.9879532-0.2755327,1.2700911-0.8275404c0.2826095-0.5520086,0.4236779-1.3800211,0.4236779-2.4840374
		c0-1.1073198-0.1410685-1.9372191-0.4236779-2.4892278C4.2711129,4.9615955,3.8479068,4.6855912,3.2831597,4.6855912z"/>
	<path d="M7.4288836,10.6505833h1.1379862v1.3701134H7.4288836V10.6505833z"/>
	<path d="M12.7173119,3.8226655c0.9020853,0,1.5918598,0.3566821,2.0683804,1.0705187
		C15.2622118,5.6070204,15.5,6.6430974,15.5,8.0023594c0,1.3554869-0.2377882,2.3906202-0.7143078,3.1039848
		c-0.4765205,0.7143078-1.1662951,1.0709906-2.0683804,1.0709906s-1.5918598-0.3566828-2.0683794-1.0709906
		c-0.4765205-0.7133646-0.7143087-1.748498-0.7143087-3.1039848c0-1.359262,0.2377882-2.395339,0.7143087-3.1091752
		C11.125452,4.1793475,11.8152266,3.8226655,12.7173119,3.8226655z M12.7173119,4.6855912
		c-0.5605001,0-0.9822912,0.2760043-1.2644291,0.8275404c-0.2830811,0.5520086-0.4236784,1.3819079-0.4236784,2.4892278
		c0,1.1040163,0.1405973,1.9320288,0.4236784,2.4840374c0.2821379,0.5520077,0.7039289,0.8275404,1.2644291,0.8275404
		c0.5642757,0,0.9879532-0.2755327,1.2700911-0.8275404c0.2821379-0.5520086,0.4236784-1.3800211,0.4236784-2.4840374
		c0-1.1073198-0.1415405-1.9372191-0.4236784-2.4892278C13.705265,4.9615955,13.2815876,4.6855912,12.7173119,4.6855912z"/>
</g>
</svg>
