<?xml version="1.0" encoding="utf-8"?>
<!-- Generator: Adobe Illustrator 21.0.0, SVG Export Plug-In . SVG Version: 6.00 Build 0)  -->
<svg version="1.1" id="Layer_1" xmlns="http://www.w3.org/2000/svg" xmlns:xlink="http://www.w3.org/1999/xlink" x="0px" y="0px"
	 viewBox="0 0 100 100" style="enable-background:new 0 0 100 100;" xml:space="preserve">
<style type="text/css">
	.st0{fill:#FC0D1B;}
	.st1{fill:#960810;}
	.st2{fill:none;stroke:#FFFFFF;stroke-width:2.5;stroke-miterlimit:5;}
	.st3{enable-background:new    ;}
	.st4{fill:#FFFFFF;}
</style>
<g id="Layer_1_1_">
	<g id="Layer_2">
	</g>
	<g>
		<g>
			<rect x="0.9" y="0.9" class="st0" width="98.2" height="98.2"/>
			<path class="st1" d="M100,100H0V0h100V100z M1.8,98.2h96.4V1.8H1.8V98.2z"/>
		</g>
	</g>
</g>
<line class="st2" x1="50" y1="10.3" x2="50" y2="22.1"/>
<polyline class="st2" points="21.6,19 50,74.4 50,89.7 "/>
<g id="Layer_2_2_">
	<g class="st3">
		<path class="st4" d="M13.43,83.328v1.489c-0.579-0.277-1.126-0.484-1.64-0.619c-0.513-0.135-1.01-0.204-1.489-0.204
			c-0.832,0-1.473,0.161-1.923,0.484c-0.45,0.322-0.676,0.78-0.676,1.375c0,0.499,0.15,0.876,0.45,1.13s0.868,0.459,1.704,0.617
			l0.922,0.188c1.139,0.217,1.979,0.599,2.521,1.146c0.542,0.547,0.813,1.278,0.813,2.196c0,1.094-0.366,1.922-1.1,2.487
			s-1.807,0.846-3.224,0.846c-0.534,0-1.102-0.061-1.704-0.182c-0.602-0.121-1.225-0.299-1.87-0.537v-1.573
			c0.619,0.348,1.227,0.61,1.821,0.786c0.595,0.175,1.179,0.264,1.753,0.264c0.872,0,1.544-0.172,2.018-0.513
			c0.473-0.342,0.711-0.832,0.711-1.467c0-0.555-0.17-0.988-0.511-1.3s-0.898-0.547-1.674-0.703l-0.93-0.182
			c-1.139-0.227-1.962-0.582-2.472-1.066c-0.51-0.484-0.764-1.156-0.764-2.018c0-0.997,0.351-1.784,1.054-2.358
			c0.703-0.574,1.672-0.862,2.906-0.862c0.529,0,1.068,0.048,1.618,0.143C12.293,82.991,12.856,83.137,13.43,83.328z"/>
		<path class="st4" d="M15.486,82.958h1.542l2.374,9.54l2.366-9.54h1.716l2.374,9.54l2.366-9.54h1.549l-2.834,11.285h-1.92
			l-2.381-9.796l-2.403,9.796h-1.92L15.486,82.958z"/>
	</g>
</g>
</svg>
