<?xml version="1.0" encoding="utf-8"?>
<!-- Generator: Adobe Illustrator 21.0.0, SVG Export Plug-In . SVG Version: 6.00 Build 0)  -->
<svg version="1.1" id="Layer_1" xmlns="http://www.w3.org/2000/svg" xmlns:xlink="http://www.w3.org/1999/xlink" x="0px" y="0px"
	 viewBox="0 0 100 100" style="enable-background:new 0 0 100 100;" xml:space="preserve">
<style type="text/css">
	.st0{fill:#FC0D1B;}
	.st1{fill:#000000;}
	.st2{fill:none;stroke:#FFFFFF;stroke-width:1.8;stroke-miterlimit:5;}
	.st3{fill:none;}
	.st4{enable-background:new    ;}
	.st5{fill:#FFFFFF;}
</style>
<g id="Layer_1_1_">
	<g id="Layer_2">
	</g>
	<g>
		<g>
			<rect x="0.9" y="0.9" class="st0" width="98.2" height="98.2"/>
			<path class="st1" d="M100,100H0V0h100V100z M1.8,98.2h96.4V1.8H1.8V98.2z"/>
		</g>
	</g>
</g>
<line class="st2" x1="50" y1="10.3" x2="50" y2="22.1"/>
<polyline class="st2" points="21.6,19 50,74.4 50,89.7 "/>
<rect x="50" y="1.8" class="st3" width="48.2" height="96.4"/>
<g id="Layer_2_2_">
	<g class="st4">
		<path class="st5" d="M11.8,85.8V87c-0.4-0.2-0.9-0.4-1.3-0.5s-0.8-0.2-1.2-0.2c-0.6,0-1.1,0.1-1.5,0.4s-0.5,0.6-0.5,1.1
			c0,0.4,0.1,0.7,0.3,0.9S8.4,89,9,89.1l0.7,0.1c0.9,0.2,1.5,0.5,2,0.9s0.6,1,0.6,1.7c0,0.8-0.3,1.5-0.9,1.9s-1.4,0.7-2.5,0.7
			c-0.4,0-0.9,0-1.3-0.1s-0.9-0.2-1.4-0.4v-1.2c0.5,0.3,1,0.5,1.4,0.6s0.9,0.2,1.4,0.2c0.7,0,1.2-0.1,1.6-0.4s0.6-0.6,0.6-1.1
			c0-0.4-0.1-0.8-0.4-1s-0.7-0.4-1.3-0.5l-0.7-0.1c-0.9-0.2-1.5-0.5-1.9-0.8s-0.6-0.9-0.6-1.6c0-0.8,0.3-1.4,0.8-1.8
			s1.3-0.7,2.3-0.7c0.4,0,0.8,0,1.3,0.1S11.4,85.7,11.8,85.8z"/>
		<path class="st5" d="M13.4,85.5h1.2l1.8,7.4l1.8-7.4h1.3l1.8,7.4l1.8-7.4h1.2l-2.2,8.7h-1.5l-1.8-7.6l-1.9,7.6h-1.5L13.4,85.5z"/>
	</g>
</g>
</svg>
