<?xml version="1.0" encoding="utf-8"?>
<!-- Generator: Adobe Illustrator 21.0.0, SVG Export Plug-In . SVG Version: 6.00 Build 0)  -->
<svg version="1.1" id="Layer_1" xmlns="http://www.w3.org/2000/svg" xmlns:xlink="http://www.w3.org/1999/xlink" x="0px" y="0px"
	 viewBox="0 0 100 100" style="enable-background:new 0 0 100 100;" xml:space="preserve">
<style type="text/css">
	.st0{fill:none;}
	.st1{fill:#231F20;}
	.st2{fill:none;stroke:#000000;stroke-width:1.8;stroke-miterlimit:5;}
	.st3{enable-background:new    ;}
</style>
<g id="Layer_1_1_">
	<g id="Layer_2">
	</g>
	<g>
		<g>
			<rect x="0.9" y="0.9" class="st0" width="98.2" height="98.2"/>
			<path class="st1" d="M100,100H0V0h100V100z M1.8,98.2h96.4V1.8H1.8V98.2z"/>
		</g>
	</g>
</g>
<line class="st2" x1="50" y1="10.3" x2="50" y2="22.1"/>
<polyline class="st2" points="21.6,19 50,74.4 50,89.7 "/>
<g id="Layer_2_2_">
	<g class="st3">
		<path d="M11.797,85.831v1.154c-0.449-0.215-0.873-0.375-1.271-0.48s-0.783-0.158-1.154-0.158c-0.645,0-1.142,0.125-1.491,0.375
			s-0.524,0.605-0.524,1.066c0,0.387,0.116,0.679,0.349,0.876s0.673,0.356,1.321,0.478l0.715,0.146
			c0.883,0.168,1.534,0.464,1.954,0.888s0.63,0.991,0.63,1.702c0,0.848-0.284,1.49-0.853,1.928s-1.401,0.656-2.499,0.656
			c-0.414,0-0.854-0.047-1.321-0.141s-0.95-0.232-1.45-0.416v-1.219c0.48,0.27,0.951,0.473,1.412,0.609s0.914,0.205,1.359,0.205
			c0.676,0,1.197-0.133,1.564-0.398s0.551-0.645,0.551-1.137c0-0.43-0.132-0.766-0.396-1.008s-0.696-0.424-1.298-0.545l-0.721-0.141
			c-0.883-0.176-1.521-0.451-1.916-0.826s-0.592-0.896-0.592-1.564c0-0.773,0.272-1.383,0.817-1.828s1.296-0.668,2.253-0.668
			c0.41,0,0.828,0.037,1.254,0.111S11.352,85.683,11.797,85.831z"/>
		<path d="M13.391,85.544h1.195l1.84,7.395l1.834-7.395h1.33l1.84,7.395l1.834-7.395h1.201l-2.197,8.748h-1.488l-1.846-7.594
			l-1.863,7.594h-1.488L13.391,85.544z"/>
	</g>
</g>
</svg>
