<?xml version="1.0" encoding="utf-8"?>
<!-- Generator: Adobe Illustrator 21.1.0, SVG Export Plug-In . SVG Version: 6.00 Build 0)  -->
<svg version="1.1" id="Layer_1" xmlns="http://www.w3.org/2000/svg" xmlns:xlink="http://www.w3.org/1999/xlink" x="0px" y="0px"
	 viewBox="0 0 16 16" style="enable-background:new 0 0 16 16;" xml:space="preserve">
<style type="text/css">
	.st0{fill:none;stroke:#000000;stroke-linecap:round;stroke-linejoin:round;stroke-miterlimit:10;}
	.st1{fill:#3DD83D;}
</style>
<g>
	<path class="st0" d="M13.2075624,9.7924395H2.792438C1.8025018,9.7924395,1,8.9899378,1,8.0000019V7.9999981
		c0-0.9899359,0.8025018-1.792438,1.792438-1.792438h10.4151249C14.1974983,6.2075601,15,7.0100622,15,7.9999981v0.0000038
		C15,8.9899378,14.1974983,9.7924395,13.2075624,9.7924395z"/>
	<path class="st1" d="M9.3419676,9.3705339H2.7670174c-0.7569246,0-1.370533-0.6136084-1.370533-1.370533V7.9999986
		c0-0.7569242,0.6136084-1.370533,1.370533-1.370533h6.5749502c0.7569237,0,1.370532,0.6136088,1.370532,1.370533V8.000001
		C10.7124996,8.7569256,10.0988913,9.3705339,9.3419676,9.3705339z"/>
</g>
</svg>
