<?xml version="1.0" encoding="utf-8"?>
<!-- Generator: Adobe Illustrator 21.0.0, SVG Export Plug-In . SVG Version: 6.00 Build 0)  -->
<svg version="1.1" id="Layer_1" xmlns="http://www.w3.org/2000/svg" xmlns:xlink="http://www.w3.org/1999/xlink" x="0px" y="0px"
	 viewBox="0 0 72.9028625 200" style="enable-background:new 0 0 72.9028625 200;" xml:space="preserve">
<style type="text/css">
	.st0{fill:#797979;}
	.st1{fill:none;stroke:#FFFFFF;stroke-width:1.5;stroke-linecap:round;stroke-linejoin:round;}
	.st2{clip-path:url(#SVGID_2_);}
	.st3{fill:#FFFFFF;}
</style>
<g>
	<g>
		<g id="XMLID_15_">
			<g>
				<polygon class="st0" points="31.976265,95.9080658 32.1205444,99.9960175 31.976265,104.0999908 31.5754852,108.1238098 
					30.9182091,112.0033493 30.0204639,115.6905136 28.8662205,119.089119 27.5196037,122.1831284 25.9806137,124.892395 
					24.2652798,127.1688232 22.437727,128.9803467 20.4979572,130.2948914 18.4780331,131.0964508 16.4260445,131.368988 
					14.3900881,131.0964508 12.370163,130.2948914 10.4303932,128.9803467 8.5868111,127.1688232 6.8875084,124.892395 
					5.3485174,122.1831284 3.9858694,119.089119 2.8476574,115.6905136 1.9338818,112.0033493 1.2766044,108.1238098 
					0.8758256,104.0999908 0.7475764,99.9960175 0.8758256,95.9080658 1.2766044,91.8842468 1.9338818,87.988678 
					2.8476574,84.317543 3.9858694,80.9029083 5.3485174,77.8249283 6.8875084,75.1156616 8.5868111,72.839241 
					10.4303932,71.0277176 12.370163,69.6971359 14.3900881,68.8955765 16.4260445,68.6390762 18.4780331,68.8955765 
					20.4979572,69.6971359 22.437727,71.0277176 24.2652798,72.839241 25.9806137,75.1156616 27.5196037,77.8249283 
					28.8662205,80.9029083 30.0204639,84.317543 30.9182091,87.988678 31.5754852,91.8842468 				"/>
			</g>
			<g>
				<polyline class="st1" points="53.5702286,68.6390762 55.0290642,68.6390762 56.4718666,68.6390762 58.5238571,68.8955765 
					60.5277481,69.6971359 62.4675179,71.0277176 64.3111038,72.839241 66.0264359,75.1156616 67.5654297,77.8249283 
					68.9120407,80.9029083 70.0502548,84.317543 70.9640274,87.988678 71.6213074,91.8842468 72.0220871,95.9080658 
					72.1503372,99.9960175 72.0220871,104.0999908 71.6213074,108.1238098 70.9640274,112.0033493 70.0502548,115.6905136 
					68.9120407,119.089119 67.5654297,122.1831284 66.0264359,124.892395 64.3111038,127.1688232 62.4675179,128.9803467 
					60.5277481,130.2948914 58.5238571,131.0964508 56.4718666,131.368988 55.0290642,131.368988 53.5702286,131.368988 
					16.4260445,131.368988 14.3900881,131.0964508 12.370163,130.2948914 10.4303932,128.9803467 8.5868111,127.1688232 
					6.8875084,124.892395 5.3485174,122.1831284 3.9858694,119.089119 2.8476574,115.6905136 1.9338818,112.0033493 
					1.2766044,108.1238098 0.8758256,104.0999908 0.7475764,99.9960175 0.8758256,95.9080658 1.2766044,91.8842468 
					1.9338818,87.988678 2.8476574,84.317543 3.9858694,80.9029083 5.3485174,77.8249283 6.8875084,75.1156616 8.5868111,72.839241 
					10.4303932,71.0277176 12.370163,69.6971359 14.3900881,68.8955765 16.4260445,68.6390762 18.4780331,68.8955765 
					20.4979572,69.6971359 22.437727,71.0277176 24.2652798,72.839241 25.9806137,75.1156616 27.5196037,77.8249283 
					28.8662205,80.9029083 30.0204639,84.317543 30.9182091,87.988678 31.5754852,91.8842468 31.976265,95.9080658 
					32.1205444,99.9960175 31.976265,104.0999908 31.5754852,108.1238098 30.9182091,112.0033493 30.0204639,115.6905136 
					28.8662205,119.089119 27.5196037,122.1831284 25.9806137,124.892395 24.2652798,127.1688232 22.437727,128.9803467 
					20.4979572,130.2948914 18.4780331,131.0964508 16.4260445,131.368988 				"/>
				<line class="st1" x1="16.4260445" y1="68.6390762" x2="53.5702286" y2="68.6390762"/>
			</g>
		</g>
	</g>
	<line class="st1" x1="18.7439003" y1="100" x2="14.1011944" y2="100"/>
	<line class="st1" x1="16.4225483" y1="102.3213501" x2="16.4225483" y2="97.6786499"/>
	<g>
		<defs>
			<polygon id="SVGID_1_" points="72.0271835,95.9032898 72.1554337,100.0072632 72.0271835,104.0952072 71.6264038,108.1190262 
				70.9691238,112.014595 70.0553513,115.68573 68.9171371,119.1003647 67.5705185,122.1783524 66.0154953,124.8876114 
				64.3162003,127.1640396 62.4726143,128.9755554 60.5328445,130.3061371 58.5289497,131.1076965 56.476963,131.3641968 
				55.0181274,131.3641968 53.575325,131.3641968 16.431139,131.3641968 18.4831276,131.1076965 20.4870224,130.3061371 
				22.4428215,128.9755554 24.2703743,127.1640396 25.9857082,124.8876114 27.5246983,122.1783524 28.871315,119.1003647 
				30.0095272,115.68573 30.9233036,112.014595 31.5805798,108.1190262 31.9813595,104.0952072 32.1096077,100.0072632 
				31.9813595,95.9032898 31.5805798,91.8794708 30.9233036,87.9999313 30.0095272,84.312767 28.871315,80.9141617 
				27.5246983,77.8201447 25.9857082,75.110878 24.2703743,72.8344574 22.4428215,71.022934 20.4870224,69.7083817 
				18.4831276,68.9068222 16.431139,68.6342926 53.575325,68.6342926 55.0181274,68.6342926 56.476963,68.6342926 
				58.5289497,68.9068222 60.5328445,69.7083817 62.4726143,71.022934 64.3162003,72.8344574 66.0154953,75.110878 
				67.5705185,77.8201447 68.9171371,80.9141617 70.0553513,84.312767 70.9691238,87.9999313 71.6264038,91.8794708 			"/>
		</defs>
		<clipPath id="SVGID_2_">
			<use xlink:href="#SVGID_1_"  style="overflow:visible;"/>
		</clipPath>
		<g class="st2">
			<circle class="st3" cx="33.1073875" cy="95.184494" r="0.6035258"/>
			<circle class="st3" cx="38.7528687" cy="96.7813187" r="0.6035258"/>
			<circle class="st3" cx="40.3371239" cy="92.7955399" r="0.6035258"/>
			<circle class="st3" cx="35.5277786" cy="91.9845505" r="0.6035258"/>
			<circle class="st3" cx="35.5277786" cy="89.5893097" r="0.6035258"/>
			<circle class="st3" cx="38.7528687" cy="87.9736176" r="0.6035258"/>
			<circle class="st3" cx="35.5277786" cy="86.3893585" r="0.6035258"/>
			<circle class="st3" cx="39.5449982" cy="83.9752579" r="0.6035258"/>
			<circle class="st3" cx="44.3732033" cy="83.9752579" r="0.6035258"/>
			<circle class="st3" cx="34.7545128" cy="83.189415" r="0.6035258"/>
			<circle class="st3" cx="29.1718979" cy="81.5863037" r="0.6035258"/>
			<circle class="st3" cx="39.1300735" cy="81.1462326" r="0.6035258"/>
			<circle class="st3" cx="49.1636887" cy="78.7887115" r="0.6035258"/>
			<circle class="st3" cx="44.3732033" cy="75.1486969" r="0.6035258"/>
			<circle class="st3" cx="41.185833" cy="71.5652618" r="0.6035258"/>
			<circle class="st3" cx="29.0964565" cy="69.1454849" r="0.6035258"/>
			<circle class="st3" cx="44.3732033" cy="69.1454849" r="0.6035258"/>
			<circle class="st3" cx="48.3904228" cy="74.3754272" r="0.6035258"/>
			<circle class="st3" cx="53.963604" cy="77.5816574" r="0.6035258"/>
			<circle class="st3" cx="62.7901688" cy="71.546402" r="0.6035258"/>
			<circle class="st3" cx="33.9246635" cy="101.6095276" r="0.6035258"/>
			<circle class="st3" cx="32.3404083" cy="106.41259" r="0.6035258"/>
			<circle class="st3" cx="42.348877" cy="110.3983688" r="0.6035258"/>
			<circle class="st3" cx="45.9606018" cy="108.8235474" r="0.6035258"/>
			<circle class="st3" cx="51.1722984" cy="108.0188446" r="0.6035258"/>
			<circle class="st3" cx="54.7745934" cy="104.8126144" r="0.6035258"/>
			<circle class="st3" cx="57.160408" cy="101.6063843" r="0.6035258"/>
			<circle class="st3" cx="47.5637169" cy="106.42202" r="0.6035258"/>
			<circle class="st3" cx="45.9606018" cy="104.0079117" r="0.6035258"/>
			<circle class="st3" cx="49.1605453" cy="101.6063843" r="0.6035258"/>
			<circle class="st3" cx="46.7621613" cy="99.2142868" r="0.6035258"/>
			<circle class="st3" cx="43.543354" cy="100.8048248" r="0.6035258"/>
			<circle class="st3" cx="42.7638016" cy="98.4032974" r="0.6035258"/>
			<circle class="st3" cx="45.1464691" cy="95.1970673" r="0.6035258"/>
			<circle class="st3" cx="50.7668037" cy="96.7938919" r="0.6035258"/>
			<circle class="st3" cx="56.3682785" cy="96.7938919" r="0.6035258"/>
			<circle class="st3" cx="51.5777931" cy="91.9845505" r="0.6035258"/>
			<circle class="st3" cx="52.3762054" cy="87.9736176" r="0.6035258"/>
			<circle class="st3" cx="50.3707428" cy="82.3532867" r="0.6035258"/>
			<circle class="st3" cx="57.556469" cy="86.4082184" r="0.6035258"/>
			<circle class="st3" cx="59.9705734" cy="83.1831284" r="0.6035258"/>
			<circle class="st3" cx="55.1706581" cy="82.3532867" r="0.6035258"/>
			<circle class="st3" cx="64.7855911" cy="83.1831284" r="0.6035258"/>
			<circle class="st3" cx="54.7777367" cy="90.375145" r="0.6035258"/>
			<circle class="st3" cx="58.7635231" cy="88.7657471" r="0.6035258"/>
			<circle class="st3" cx="62.3846779" cy="87.1626282" r="0.6035258"/>
			<circle class="st3" cx="58.7635231" cy="91.9845505" r="0.6035258"/>
			<circle class="st3" cx="62.8184624" cy="91.1547012" r="0.6035258"/>
			<circle class="st3" cx="70.8016663" cy="90.375145" r="0.6035258"/>
			<circle class="st3" cx="60.3792114" cy="95.9829102" r="0.6035258"/>
			<circle class="st3" cx="69.2246323" cy="95.1907806" r="0.6035258"/>
			<circle class="st3" cx="44.3669167" cy="113.6328964" r="0.6035258"/>
			<circle class="st3" cx="42.7638016" cy="117.6406784" r="0.6035258"/>
			<circle class="st3" cx="45.1653328" cy="118.4202347" r="0.6035258"/>
			<circle class="st3" cx="53.1494751" cy="118.4202347" r="0.6035258"/>
			<circle class="st3" cx="57.160408" cy="120.0296402" r="0.6035258"/>
			<circle class="st3" cx="61.9886131" cy="119.2249374" r="0.6035258"/>
			<circle class="st3" cx="61.1964836" cy="116.8485565" r="0.6035258"/>
			<circle class="st3" cx="57.9902534" cy="112.8124771" r="0.6035258"/>
			<circle class="st3" cx="64.381546" cy="112.0217209" r="0.6035258"/>
			<circle class="st3" cx="69.9984894" cy="110.0037842" r="0.6035258"/>
			<circle class="st3" cx="71.5542526" cy="106.8158722" r="0.6035258"/>
			<circle class="st3" cx="60.3638802" cy="109.619751" r="0.6035258"/>
			<circle class="st3" cx="66.0219345" cy="107.2182236" r="0.6035258"/>
			<circle class="st3" cx="67.5935669" cy="104.0076218" r="0.6035258"/>
			<circle class="st3" cx="70.8016663" cy="102.8005676" r="0.6035258"/>
			<circle class="st3" cx="69.9984894" cy="100.0031738" r="0.6035258"/>
			<circle class="st3" cx="66.8247757" cy="100.0031738" r="0.6035258"/>
			<circle class="st3" cx="65.9995422" cy="119.2249374" r="0.6035258"/>
			<circle class="st3" cx="51.5526466" cy="123.2358704" r="0.6035258"/>
			<circle class="st3" cx="56.3684273" cy="123.2358704" r="0.6035258"/>
			<circle class="st3" cx="63.5807762" cy="124.855835" r="0.6035258"/>
			<circle class="st3" cx="50.7353706" cy="125.6625443" r="0.6035258"/>
			<circle class="st3" cx="52.3699188" cy="129.6609039" r="0.6035258"/>
			<circle class="st3" cx="53.9918976" cy="126.4421005" r="0.6035258"/>
			<circle class="st3" cx="56.3684273" cy="129.6609039" r="0.6035258"/>
			<circle class="st3" cx="59.5870819" cy="129.6609039" r="0.6035258"/>
			<circle class="st3" cx="40.3462601" cy="119.2437973" r="0.6035258"/>
			<circle class="st3" cx="37.1659126" cy="121.6785126" r="0.6035258"/>
			<circle class="st3" cx="42.7638016" cy="122.4437408" r="0.6035258"/>
			<circle class="st3" cx="34.7392349" cy="125.6517181" r="0.6035258"/>
			<circle class="st3" cx="38.7328758" cy="125.6517181" r="0.6035258"/>
			<circle class="st3" cx="37.1149788" cy="128.8676758" r="0.6035258"/>
			<circle class="st3" cx="31.5231342" cy="129.6386414" r="0.6035258"/>
			<circle class="st3" cx="27.5163765" cy="130.4855804" r="0.6035258"/>
			<circle class="st3" cx="40.3462601" cy="129.6386414" r="0.6035258"/>
			<circle class="st3" cx="48.3747063" cy="112.821907" r="0.6035258"/>
		</g>
		
			<use xlink:href="#SVGID_1_"  style="overflow:visible;fill:none;stroke:#FFFFFF;stroke-width:1.5;stroke-linecap:round;stroke-linejoin:round;stroke-miterlimit:10;"/>
	</g>
</g>
</svg>
