<?xml version="1.0" encoding="utf-8"?>
<!-- Generator: Adobe Illustrator 21.0.0, SVG Export Plug-In . SVG Version: 6.00 Build 0)  -->
<svg version="1.1" id="Layer_1" xmlns="http://www.w3.org/2000/svg" xmlns:xlink="http://www.w3.org/1999/xlink" x="0px" y="0px"
	 viewBox="0 0 72.9028625 200" style="enable-background:new 0 0 72.9028625 200;" xml:space="preserve">
<style type="text/css">
	.st0{fill:#797979;}
	.st1{fill:none;stroke:#FFFFFF;stroke-width:1.5;stroke-linecap:round;stroke-linejoin:round;}
</style>
<g>
	<g>
		<g id="XMLID_11_">
			<g>
				<polygon class="st0" points="31.9787331,95.9040375 32.1069832,100.0080185 31.9787331,104.0959625 31.5779533,108.1197891 
					30.9206753,112.0153656 30.0068989,115.6865082 28.8686848,119.1011505 27.5220661,122.1791306 25.9830723,124.8884048 
					24.2677364,127.1648331 22.4401817,128.9763489 20.4843788,130.3069458 18.4804821,131.1085052 16.4284916,131.3649902 
					14.3765001,131.1085052 12.3726034,130.3069458 10.4328308,128.9763489 8.5892458,127.1648331 6.8899407,124.8884048 
					5.3349166,122.1791306 3.9882977,119.1011505 2.8500841,115.6865082 1.9363071,112.0153656 1.2790289,108.1197891 
					0.8782494,104.0959625 0.75,100.0080185 0.8782494,95.9040375 1.2790289,91.8802109 1.9363071,88.0006638 2.8500841,84.3134918 
					3.9882977,80.9148865 5.3349166,77.8208694 6.8899407,75.1115952 8.5892458,72.8351669 10.4328308,71.0236511 
					12.3726034,69.7090912 14.3765001,68.9075317 16.4284916,68.6350021 18.4804821,68.9075317 20.4843788,69.7090912 
					22.4401817,71.0236511 24.2677364,72.8351669 25.9830723,75.1115952 27.5220661,77.8208694 28.8686848,80.9148865 
					30.0068989,84.3134918 30.9206753,88.0006638 31.5779533,91.8802109 				"/>
			</g>
			<g>
				<polyline class="st1" points="53.5727272,68.6350021 55.0155334,68.6350021 56.4743729,68.6350021 58.5263634,68.9075317 
					60.5302582,69.7090912 62.4700317,71.0236511 64.3136139,72.8351669 66.0129242,75.1115952 67.5679474,77.8208694 
					68.914566,80.9148865 70.0527802,84.3134918 70.9665527,88.0006638 71.6238327,91.8802109 72.0246124,95.9040375 
					72.1528625,100.0080185 72.0246124,104.0959625 71.6238327,108.1197891 70.9665527,112.0153656 70.0527802,115.6865082 
					68.914566,119.1011505 67.5679474,122.1791306 66.0129242,124.8884048 64.3136139,127.1648331 62.4700317,128.9763489 
					60.5302582,130.3069458 58.5263634,131.1085052 56.4743729,131.3649902 55.0155334,131.3649902 53.5727272,131.3649902 
					16.4284916,131.3649902 14.3765001,131.1085052 12.3726034,130.3069458 10.4328308,128.9763489 8.5892458,127.1648331 
					6.8899407,124.8884048 5.3349166,122.1791306 3.9882977,119.1011505 2.8500841,115.6865082 1.9363071,112.0153656 
					1.2790289,108.1197891 0.8782494,104.0959625 0.75,100.0080185 0.8782494,95.9040375 1.2790289,91.8802109 
					1.9363071,88.0006638 2.8500841,84.3134918 3.9882977,80.9148865 5.3349166,77.8208694 6.8899407,75.1115952 
					8.5892458,72.8351669 10.4328308,71.0236511 12.3726034,69.7090912 14.3765001,68.9075317 16.4284916,68.6350021 
					18.4804821,68.9075317 20.4843788,69.7090912 22.4401817,71.0236511 24.2677364,72.8351669 25.9830723,75.1115952 
					27.5220661,77.8208694 28.8686848,80.9148865 30.0068989,84.3134918 30.9206753,88.0006638 31.5779533,91.8802109 
					31.9787331,95.9040375 32.1069832,100.0080185 31.9787331,104.0959625 31.5779533,108.1197891 30.9206753,112.0153656 
					30.0068989,115.6865082 28.8686848,119.1011505 27.5220661,122.1791306 25.9830723,124.8884048 24.2677364,127.1648331 
					22.4401817,128.9763489 20.4843788,130.3069458 18.4804821,131.1085052 16.4284916,131.3649902 				"/>
				<line class="st1" x1="16.4284916" y1="68.6350021" x2="53.5727272" y2="68.6350021"/>
			</g>
		</g>
	</g>
	<g>
		<line class="st1" x1="18.7522774" y1="100.0039291" x2="14.1095657" y2="100.0039291"/>
		<line class="st1" x1="16.4309216" y1="102.3252869" x2="16.4309216" y2="97.6825714"/>
	</g>
</g>
</svg>
