<?xml version="1.0" encoding="utf-8"?>
<!-- Generator: Adobe Illustrator 21.0.0, SVG Export Plug-In . SVG Version: 6.00 Build 0)  -->
<svg version="1.1" id="Layer_1" xmlns="http://www.w3.org/2000/svg" xmlns:xlink="http://www.w3.org/1999/xlink" x="0px" y="0px"
	 viewBox="0 0 92.3353195 200" style="enable-background:new 0 0 92.3353195 200;" xml:space="preserve">
<style type="text/css">
	.st0{fill:#ECF0F1;}
	.st1{fill:none;stroke:#000000;stroke-width:0.75;stroke-linecap:round;stroke-linejoin:round;}
	.st2{fill:none;stroke:#000000;stroke-width:1.5;stroke-linecap:round;stroke-linejoin:round;}
</style>
<g>
	<g id="XMLID_57_">
		<g>
			<path class="st0" d="M16.3840027,135.6403656l-2.3071899-0.9196472l-2.2265091-1.500473l-2.1135788-2.0813141
				l-1.9522324-2.613739l-1.7747574-3.0977631l-1.5488815-3.5333786l-1.3068657-3.9206009l-1.0325851-4.2110138
				l-0.7583046-4.4530334l-0.4517593-4.6143646L0.75,99.9999924l0.1613388-4.6950378l0.4517593-4.5982361l0.7583046-4.4530258
				l1.0325851-4.22715l1.3068657-3.9044647l1.5488815-3.5333862l1.7747574-3.0977554l1.9522324-2.6137314l2.1135788-2.0813065
				l2.2265091-1.5166168l2.3071899-0.9196396l2.339447-0.3065491l2.3394547,0.3065491l2.3071823,0.9196396l2.2265167,1.5166168
				l2.1135788,2.0813065l1.9522324,2.6137314l1.7747574,3.0977554l1.5488815,3.5333862l1.3068619,3.9044647l1.0325851,4.22715
				l0.7583084,4.4530258l0.4678879,4.5982361l0.1452103,4.6950378l-0.1452103,4.6950455l-0.4678879,4.6143646l-0.7583084,4.4530334
				l-1.0325851,4.2110138l-1.3068619,3.9206009l-1.5488815,3.5333786l-1.7747574,3.0977631l-1.9522324,2.613739
				l-2.1135788,2.0813141l-2.2265167,1.500473l-2.3071823,0.9196472l-2.3394547,0.3065491L16.3840027,135.6403656z
				 M30.8563385,99.9999924l-0.0968018-3.1622925l-0.3065491-3.1138916l-0.5162964-3.0170898l-0.6937637-2.8396149
				l-0.8873825-2.6459961l-1.0487213-2.3878555l-1.193924-2.0974426l-1.3230057-1.7586212l-1.4198074-1.4036713l-1.500473-1.0164566
				l-1.5650101-0.6292343l-1.0809937-0.1290665l-0.5001602-0.064537l-0.1129379,0.0161285l-1.4682083,0.177475l-1.5650101,0.6292343
				l-1.5004807,1.0164566l-1.4198074,1.4036713l-1.322998,1.7586212l-1.1939278,2.0974426l-1.0487213,2.3878555
				l-0.8712425,2.6459961l-0.7099037,2.8396149l-0.5162926,3.0170898l-0.3065491,3.1138916l-0.0968056,3.1622925
				l0.0968056,3.1784363l0.3065491,3.1138916l0.5162926,3.0009537l0.7099037,2.8557434l0.8712425,2.6298676l1.0487213,2.3878555
				l1.1939278,2.0974426l1.322998,1.7586212l1.4198074,1.4036713l1.5004807,1.0325851l1.5650101,0.6130981l1.4682083,0.1936111
				l0.1129379,0.0161362l0.5001602-0.064537l1.0809937-0.1452103l1.5650101-0.6130981l1.500473-1.0325851l1.4198074-1.4036713
				l1.3230057-1.7586212l1.193924-2.0974426l1.0487213-2.3878555l0.8873825-2.6298676l0.6937637-2.8557434l0.5162964-3.0009537
				l0.3065491-3.1138916L30.8563385,99.9999924z"/>
			<path class="st0" d="M26.4678497,99.9999924l-0.0484009-1.7586212l-0.177475-1.742485l-0.2904205-1.6618195l-0.3872147-1.5972824
				l-0.484024-1.4682083l-0.5969696-1.3230057l-0.661499-1.1777878l-0.7260361-0.9841843l-0.8067093-0.7744446l-0.8228378-0.5646896
				l-0.8712463-0.3549576l-0.6453705-0.0806656l-0.242012-0.0322723l-0.1452026,0.0161362l-0.7421722,0.0968018
				l-0.8551102,0.3549576l-0.8389816,0.5646896l-0.7905731,0.7744446l-0.7421722,0.9841843l-0.661499,1.1777878
				l-0.5808258,1.3230057l-0.5001602,1.4682083l-0.3872223,1.5972824l-0.2904129,1.6618195l-0.1613388,1.742485l-0.064537,1.7586212
				l0.064537,1.7747574l0.1613388,1.7263565l0.2904129,1.6779556l0.3872223,1.5811462l0.5001602,1.4682083l0.5808258,1.3391342
				l0.661499,1.1616592l0.7421722,0.9841843l0.7905731,0.7744446l0.8389816,0.5808258l0.8551102,0.3388214l0.7421722,0.0968018
				l0.1452026,0.0161362l0.242012-0.0322723l0.6453705-0.0806656l0.8712463-0.3388214l0.8228378-0.5808258l0.8067093-0.7744446
				l0.7260361-0.9841843l0.661499-1.1616592l0.5969696-1.3391342l0.484024-1.4682083l0.3872147-1.5811462l0.2904205-1.6779556
				l0.177475-1.7263565L26.4678497,99.9999924z M16.5614777,76.5570602l1.5650101-0.6292343l1.0971222-0.1290665
				l1.0809937,0.1290665l1.5650101,0.6292343l1.500473,1.0164566l1.4198074,1.4036713l1.3230057,1.7586212l1.193924,2.0974426
				l1.0487213,2.3878555l0.8873825,2.6459961l0.6937637,2.8396149l0.5162964,3.0170898l0.3065491,3.1138916l0.0968018,3.1622925
				l-0.0968018,3.1784363l-0.3065491,3.1138916l-0.5162964,3.0009537l-0.6937637,2.8557434l-0.8873825,2.6298676
				l-1.0487213,2.3878555l-1.193924,2.0974426l-1.3230057,1.7586212l-1.4198074,1.4036713l-1.500473,1.0325851l-1.5650101,0.6130981
				l-1.0809937,0.1452103l-1.0971222-0.1452103l-1.5650101-0.6130981l-1.5004807-1.0325851l-1.4198074-1.4036713
				l-1.322998-1.7586212l-1.1939316-2.0974426l-1.0487175-2.3878555l-0.8712425-2.6298676l-0.7099037-2.8557434
				l-0.5162926-3.0009537l-0.3065491-3.1138916L7.574749,99.9999924l0.0968056-3.1622925l0.3065491-3.1138916l0.5162926-3.0170898
				l0.7099037-2.8396149l0.8712425-2.6459961l1.0487175-2.3878555l1.1939316-2.0974426l1.322998-1.7586212l1.4198074-1.4036713
				L16.5614777,76.5570602z"/>
			<path class="st0" d="M26.4194717,98.2413406l-0.1774902-1.7424316l-0.2904053-1.6618652l-0.387207-1.59729l-0.4840698-1.4682007
				l-0.5969238-1.322998l-0.661499-1.1777954l-0.7260742-0.9841919l-0.8067017-0.7744141l-0.8228149-0.5646973l-0.8712769-0.3549805
				l-0.6453857-0.0806274l-0.6292114,0.0806274l-0.8712158,0.3549805l-0.8389893,0.5646973l-0.7905884,0.7744141
				l-0.7421875,0.9841919l-0.661499,1.1777954l-0.5808105,1.322998l-0.4840088,1.4682007l-0.4033813,1.59729l-0.274292,1.6618652
				l-0.1774292,1.7424316l-0.0484009,1.758667l0.0484009,1.7747192l0.1774292,1.7263794l0.274292,1.6779785l0.4033813,1.5811157
				l0.4840088,1.4682007l0.5808105,1.3391724l0.661499,1.1616211l0.7421875,0.9841919l0.7905884,0.7744751l0.8389893,0.5808105
				l0.8712158,0.3388062l0.6292114,0.0806885l0.6453857-0.0806885l0.8712769-0.3388062l0.8228149-0.5808105l0.8067017-0.7744751
				l0.7260742-0.9841919l0.661499-1.1616211l0.5969238-1.3391724l0.4840698-1.4682007l0.387207-1.5811157l0.2904053-1.6779785
				l0.1774902-1.7263794l0.0484009-1.7747192L26.4194717,98.2413406z M22.1761856,100.5324173l-0.0484009,0.5001831
				l-0.0806885,0.5001221l-0.112915,0.4678955l-0.1452637,0.4356079l-0.1774292,0.3872681l-0.1936035,0.3549194
				l-0.2097778,0.2904053l-0.2420044,0.2258911L20.7240982,103.8722h-0.0322876h-0.0161133l-0.2097778,0.0968018
				l-0.2581177,0.0322876l-0.274292-0.0322876L19.6915054,103.8722l-0.2581177-0.1774902l-0.2258911-0.2258911l-0.2258911-0.2904053
				l-0.1936035-0.3549194l-0.1774902-0.3872681l-0.1452026-0.4356079l-0.112915-0.4678955l-0.0806885-0.5001221
				l-0.0484009-0.5001831l-0.0161133-0.5324097l0.0161133-0.5162964l0.0484009-0.5162964l0.0806885-0.5001831l0.112915-0.4678955
				l0.1452026-0.4356079l0.1774902-0.387207l0.1936035-0.3388062l0.2258911-0.2904053l0.2258911-0.2420654l0.2581177-0.1613159
				l0.2420044-0.112915l0.274292-0.0322876l0.2581177,0.0322876l0.2258911,0.0968018l0.0322876,0.0161133l0.2420044,0.1613159
				l0.2420044,0.2420654l0.2097778,0.2904053l0.1936035,0.3388062l0.1774292,0.387207l0.1452637,0.4356079l0.112915,0.4678955
				l0.0806885,0.5001831l0.0484009,0.5162964l0.0322266,0.5162964L22.1761856,100.5324173z"/>
		</g>
		<g>
			<polyline class="st1" points="30.8563385,99.9999924 30.7595367,96.8376999 30.4529877,93.7238083 29.9366913,90.7067184 
				29.2429276,87.8671036 28.355545,85.2211075 27.3068237,82.833252 26.1128998,80.7358093 24.7898941,78.9771881 
				23.3700867,77.5735168 21.8696136,76.5570602 20.3046036,75.9278259 19.2236099,75.7987595 18.7234497,75.7342224 
				18.6105118,75.750351 17.1423035,75.9278259 15.5772934,76.5570602 14.0768127,77.5735168 12.6570053,78.9771881 
				11.3340073,80.7358093 10.1400795,82.833252 9.0913582,85.2211075 8.2201157,87.8671036 7.5102119,90.7067184 
				6.9939194,93.7238083 6.6873703,96.8376999 6.5905647,99.9999924 6.6873703,103.1784286 6.9939194,106.2923203 
				7.5102119,109.2932739 8.2201157,112.1490173 9.0913582,114.7788849 10.1400795,117.1667404 11.3340073,119.264183 
				12.6570053,121.0228043 14.0768127,122.4264755 15.5772934,123.4590607 17.1423035,124.0721588 18.6105118,124.26577 
				18.7234497,124.2819061 19.2236099,124.2173691 20.3046036,124.0721588 21.8696136,123.4590607 23.3700867,122.4264755 
				24.7898941,121.0228043 26.1128998,119.264183 27.3068237,117.1667404 28.355545,114.7788849 29.2429276,112.1490173 
				29.9366913,109.2932739 30.4529877,106.2923203 30.7595367,103.1784286 30.8563385,99.9999924 			"/>
			<polyline class="st1" points="26.4678497,99.9999924 26.4194489,98.2413712 26.2419739,96.4988861 25.9515533,94.8370667 
				25.5643387,93.2397842 25.0803146,91.7715759 24.483345,90.4485703 23.821846,89.2707825 23.0958099,88.2865982 
				22.2891006,87.5121536 21.4662628,86.947464 20.5950165,86.5925064 19.949646,86.5118408 19.707634,86.4795685 
				19.5624313,86.4957047 18.8202591,86.5925064 17.9651489,86.947464 17.1261673,87.5121536 16.3355942,88.2865982 
				15.5934219,89.2707825 14.9319229,90.4485703 14.3510971,91.7715759 13.8509369,93.2397842 13.4637146,94.8370667 
				13.1733017,96.4988861 13.0119629,98.2413712 12.9474258,99.9999924 13.0119629,101.7747498 13.1733017,103.5011063 
				13.4637146,105.1790619 13.8509369,106.7602081 14.3510971,108.2284164 14.9319229,109.5675507 15.5934219,110.7292099 
				16.3355942,111.7133942 17.1261673,112.4878387 17.9651489,113.0686646 18.8202591,113.407486 19.5624313,113.5042877 
				19.707634,113.5204239 19.949646,113.4881516 20.5950165,113.407486 21.4662628,113.0686646 22.2891006,112.4878387 
				23.0958099,111.7133942 23.821846,110.7292099 24.483345,109.5675507 25.0803146,108.2284164 25.5643387,106.7602081 
				25.9515533,105.1790619 26.2419739,103.5011063 26.4194489,101.7747498 26.4678497,99.9999924 			"/>
			<polyline class="st1" points="19.2236099,124.2173691 18.1264877,124.0721588 16.5614777,123.4590607 15.060997,122.4264755 
				13.6411896,121.0228043 12.3181915,119.264183 11.1242599,117.1667404 10.0755424,114.7788849 9.2042999,112.1490173 
				8.4943962,109.2932739 7.9781036,106.2923203 7.6715546,103.1784286 7.574749,99.9999924 7.6715546,96.8376999 
				7.9781036,93.7238083 8.4943962,90.7067184 9.2042999,87.8671036 10.0755424,85.2211075 11.1242599,82.833252 
				12.3181915,80.7358093 13.6411896,78.9771881 15.060997,77.5735168 16.5614777,76.5570602 18.1264877,75.9278259 
				19.2236099,75.7987595 			"/>
			<polyline class="st1" points="19.949646,113.4881516 19.3204193,113.407486 18.449173,113.0686646 17.610199,112.4878387 
				16.8196182,111.7133942 16.0774536,110.7292099 15.415947,109.5675507 14.8351212,108.2284164 14.3510971,106.7602081 
				13.9477386,105.1790619 13.6734619,103.5011063 13.4959869,101.7747498 13.4475784,99.9999924 13.4959869,98.2413712 
				13.6734619,96.4988861 13.9477386,94.8370667 14.3510971,93.2397842 14.8351212,91.7715759 15.415947,90.4485703 
				16.0774536,89.2707825 16.8196182,88.2865982 17.610199,87.5121536 18.449173,86.947464 19.3204193,86.5925064 
				19.949646,86.5118408 			"/>
			<polyline class="st1" points="20.6918182,103.8721924 20.7240906,103.8721924 20.9661026,103.6947174 21.2081146,103.4688416 
				21.4178543,103.1784286 21.6114655,102.8234711 21.7889404,102.4362564 21.9341507,102.0006332 22.0470886,101.5327377 
				22.1277618,101.0325851 22.1761627,100.5324249 22.2084274,99.9999924 			"/>
			<polyline class="st1" points="22.2084274,99.9999924 22.1761627,99.4837036 22.1277618,98.9674072 22.0470886,98.467247 
				21.9341507,97.9993591 21.7889404,97.563736 21.6114655,97.1765213 21.4178543,96.8376999 21.2081146,96.547287 
				20.9661026,96.305275 20.7240906,96.1439285 20.6918182,96.1278 20.4659424,96.0309906 20.2077942,95.9987259 
				19.9335175,96.0309906 19.6915054,96.1439285 19.4333572,96.305275 19.2074738,96.547287 18.9815979,96.8376999 
				18.7879868,97.1765213 18.6105118,97.563736 18.4653091,97.9993591 18.3523636,98.467247 18.271698,98.9674072 
				18.2232971,99.4837036 18.2071609,99.9999924 18.2232971,100.5324249 18.271698,101.0325851 18.3523636,101.5327377 
				18.4653091,102.0006332 18.6105118,102.4362564 18.7879868,102.8234711 18.9815979,103.1784286 19.2074738,103.4688416 
				19.4333572,103.6947174 19.6915054,103.8721924 19.9335175,103.9690018 20.2077942,104.0012665 20.4659424,103.9690018 
				20.6756821,103.8721924 			"/>
			<polyline class="st1" points="20.6918182,103.8721924 20.6756821,103.8721924 20.4175415,103.6947174 20.191658,103.4688416 
				19.9657822,103.1784286 19.772171,102.8234711 19.594696,102.4362564 19.4494934,102.0006332 19.3365479,101.5327377 
				19.2558823,101.0325851 19.2074738,100.5324249 19.1913452,99.9999924 19.2074738,99.4837036 19.2558823,98.9674072 
				19.3365479,98.467247 19.4494934,97.9993591 19.594696,97.563736 19.772171,97.1765213 19.9657822,96.8376999 
				20.191658,96.547287 20.4175415,96.305275 20.6756821,96.1439285 20.6918182,96.1278 			"/>
			<polyline class="st2" points="18.7234497,135.9469147 21.0629044,135.6403656 23.3700867,134.7207184 25.5966034,133.2202454 
				27.7101822,131.1389313 29.6624146,128.5251923 31.4371719,125.4274292 32.9860535,121.8940506 34.2929153,117.9734497 
				35.3255005,113.7624359 36.0838089,109.3094025 36.5516968,104.6950378 36.696907,99.9999924 36.5516968,95.3049545 
				36.0838089,90.7067184 35.3255005,86.2536926 34.2929153,82.0265427 32.9860535,78.1220779 31.4371719,74.5886917 
				29.6624146,71.4909363 27.7101822,68.8772049 25.5966034,66.7958984 23.3700867,65.2792816 21.0629044,64.359642 
				18.7234497,64.053093 16.3840027,64.359642 14.0768127,65.2792816 11.8503036,66.7958984 9.7367249,68.8772049 
				7.7844925,71.4909363 6.0097351,74.5886917 4.4608536,78.1220779 3.1539879,82.0265427 2.1214027,86.2536926 
				1.3630981,90.7067184 0.9113388,95.3049545 0.75,99.9999924 0.9113388,104.6950378 1.3630981,109.3094025 2.1214027,113.7624359 
				3.1539879,117.9734497 4.4608536,121.8940506 6.0097351,125.4274292 7.7844925,128.5251923 9.7367249,131.1389313 
				11.8503036,133.2202454 14.0768127,134.7207184 16.3840027,135.6403656 18.7234497,135.9469147 70.2882309,135.9469147 
				71.9500427,135.9469147 73.6118622,135.9469147 75.9513168,135.6403656 78.2585068,134.7207184 80.4850235,133.2202454 
				82.5985947,131.1389313 84.5508194,128.5251923 86.3255844,125.4274292 87.8744583,121.8940506 89.1813278,117.9734497 
				90.2139206,113.7624359 90.9722214,109.3094025 91.4239731,104.6950378 91.5853195,99.9999924 91.4239731,95.3049545 
				90.9722214,90.7067184 90.2139206,86.2536926 89.1813278,82.0265427 87.8744583,78.1220779 86.3255844,74.5886917 
				84.5508194,71.4909363 82.5985947,68.8772049 80.4850235,66.7958984 78.2585068,65.2792816 75.9513168,64.359642 
				73.6118622,64.053093 71.9500427,64.053093 70.2882309,64.053093 18.7234497,64.053093 			"/>
		</g>
	</g>
</g>
</svg>
