<?xml version="1.0" encoding="utf-8"?>
<!-- Generator: Adobe Illustrator 21.0.0, SVG Export Plug-In . SVG Version: 6.00 Build 0)  -->
<svg version="1.1" id="Layer_1" xmlns="http://www.w3.org/2000/svg" xmlns:xlink="http://www.w3.org/1999/xlink" x="0px" y="0px"
	 viewBox="0 0 92.3353195 200" style="enable-background:new 0 0 92.3353195 200;" xml:space="preserve">
<style type="text/css">
	.st0{fill:#797979;}
	.st1{fill:none;stroke:#FFFFFF;stroke-width:0.75;stroke-linecap:round;stroke-linejoin:round;}
	.st2{fill:none;stroke:#FFFFFF;stroke-width:1.5;stroke-linecap:round;stroke-linejoin:round;}
</style>
<g>
	<g id="XMLID_57_">
		<g>
			<path class="st0" d="M16.3840008,135.6403656l-2.3071852-0.9196472l-2.2265139-1.5004883l-2.113575-2.0812988
				l-1.9522333-2.613739l-1.7747574-3.0977554l-1.5488791-3.5333786l-1.3068671-3.9206009l-1.0325861-4.2110214
				l-0.7583058-4.4530258l-0.4517564-4.6143723L0.75,100l0.1613416-4.6950378l0.4517564-4.5982361l0.7583057-4.4530334
				l1.0325861-4.22715l1.3068671-3.9044647l1.5488791-3.5333786l1.7747574-3.0977631l1.9522333-2.6137314l2.113575-2.0813065
				l2.2265139-1.5166092l2.3071852-0.9196472l2.3394527-0.3065491l2.3394527,0.3065491l2.3071861,0.9196472l2.2265129,1.5166092
				l2.113575,2.0813065l1.9522343,2.6137314l1.7747574,3.0977631l1.5488777,3.5333786l1.3068695,3.9044647l1.0325851,4.22715
				l0.7583046,4.4530334l0.4678917,4.5982361L36.696907,100l-0.1452065,4.6950378l-0.4678917,4.6143723l-0.7583046,4.4530258
				l-1.0325851,4.2110214l-1.3068695,3.9206009l-1.5488777,3.5333786l-1.7747574,3.0977554l-1.9522343,2.613739l-2.113575,2.0812988
				l-2.2265129,1.5004883l-2.3071861,0.9196472l-2.3394527,0.3065491L16.3840008,135.6403656z M30.8563423,100l-0.0968056-3.1622925
				l-0.3065491-3.1138992l-0.5162926-3.0170822l-0.6937695-2.8396149l-0.8873787-2.6460037l-1.0487194-2.3878555
				l-1.1939278-2.097435l-1.3230019-1.7586288l-1.4198055-1.4036713l-1.5004768-1.016449l-1.5650139-0.6292343l-1.0809879-0.1290741
				l-0.5001602-0.064537l-0.1129379,0.0161362l-1.4682083,0.177475l-1.5650148,0.6292343l-1.5004768,1.016449l-1.4198055,1.4036713
				l-1.3230009,1.7586288l-1.1939278,2.097435L9.091361,85.2211075l-0.8712454,2.6460037l-0.7099028,2.8396149l-0.516293,3.0170822
				l-0.3065491,3.1138992L6.5905657,100l0.0968051,3.1784286l0.3065491,3.1138916l0.516293,3.0009537l0.7099028,2.855751
				l0.8712454,2.6298676l1.0487204,2.3878555l1.1939278,2.097435l1.3230009,1.7586288l1.4198055,1.4036713l1.5004768,1.0325851
				l1.5650148,0.6130981l1.4682083,0.1936111l0.1129379,0.0161362l0.5001602-0.064537l1.0809879-0.1452103l1.5650139-0.6130981
				l1.5004768-1.0325851l1.4198055-1.4036713l1.3230019-1.7586288l1.1939278-2.097435l1.0487194-2.3878555l0.8873787-2.6298676
				l0.6937695-2.855751l0.5162926-3.0009537l0.3065491-3.1138916L30.8563423,100z"/>
			<path class="st0" d="M26.4678516,100l-0.0484028-1.7586212l-0.1774769-1.7424927l-0.2904148-1.6618195l-0.3872185-1.5972824
				l-0.484026-1.4682083l-0.5969639-1.322998l-0.6615009-1.1777954l-0.7260361-0.9841843l-0.8067093-0.774437l-0.8228416-0.5646973
				l-0.8712444-0.35495l-0.6453667-0.0806732l-0.242012-0.0322647l-0.1452084,0.0161285l-0.7421703,0.0968094l-0.8551102,0.35495
				l-0.8389759,0.5646973l-0.790575,0.774437l-0.7421713,0.9841843l-0.6615,1.1777954l-0.5808296,1.322998l-0.5001593,1.4682083
				l-0.3872204,1.5972824l-0.2904148,1.6618195l-0.1613417,1.7424927L12.9474249,100l0.0645361,1.7747574l0.1613417,1.7263565
				l0.2904148,1.677948l0.3872204,1.5811539l0.5001593,1.4682083l0.5808296,1.3391342l0.6615,1.1616592l0.7421713,0.9841843
				l0.790575,0.774437l0.8389759,0.5808334l0.8551102,0.3388138l0.7421703,0.0968094l0.1452084,0.0161285l0.242012-0.0322647
				l0.6453667-0.0806732l0.8712444-0.3388138l0.8228416-0.5808334l0.8067093-0.774437l0.7260361-0.9841843l0.6615009-1.1616592
				l0.5969639-1.3391342l0.484026-1.4682083l0.3872185-1.5811539l0.2904148-1.677948l0.1774769-1.7263565L26.4678516,100z
				 M16.5614758,76.5570679l1.5650139-0.6292343l1.0971241-0.1290741l1.0809879,0.1290741l1.5650139,0.6292343l1.5004768,1.016449
				l1.4198055,1.4036713l1.3230019,1.7586288l1.1939278,2.097435l1.0487194,2.3878555l0.8873787,2.6460037l0.6937695,2.8396149
				l0.5162926,3.0170822l0.3065491,3.1138992L30.8563423,100l-0.0968056,3.1784286l-0.3065491,3.1138916l-0.5162926,3.0009537
				l-0.6937695,2.855751l-0.8873787,2.6298676l-1.0487194,2.3878555l-1.1939278,2.097435l-1.3230019,1.7586288l-1.4198055,1.4036713
				l-1.5004768,1.0325851l-1.5650139,0.6130981l-1.0809879,0.1452103l-1.0971241-0.1452103l-1.5650139-0.6130981
				l-1.5004759-1.0325851l-1.4198065-1.4036713l-1.3230009-1.7586288l-1.1939278-2.097435l-1.0487204-2.3878555
				l-0.8712444-2.6298676l-0.7099028-2.855751l-0.5162935-3.0009537l-0.3065491-3.1138916L7.5747495,100l0.0968051-3.1622925
				l0.3065491-3.1138992l0.5162935-3.0170822l0.7099028-2.8396149l0.8712444-2.6460037l1.0487204-2.3878555l1.1939278-2.097435
				l1.3230009-1.7586288l1.4198065-1.4036713L16.5614758,76.5570679z"/>
			<path class="st0" d="M26.4194336,98.241394l-0.1774902-1.7424927l-0.2904053-1.6618652l-0.387207-1.597229l-0.4840088-1.4682617
				l-0.5969849-1.322998l-0.661499-1.1777954l-0.7260132-0.9841309l-0.8067017-0.7744751l-0.822876-0.5646973l-0.8712158-0.3549194
				l-0.6453857-0.0806885l-0.6292114,0.0806885l-0.8712769,0.3549194l-0.8389893,0.5646973l-0.7905273,0.7744751
				l-0.7421875,0.9841309l-0.661499,1.1777954l-0.5808105,1.322998l-0.4840698,1.4682617l-0.4033203,1.597229l-0.274292,1.6618652
				l-0.1774902,1.7424927L13.4475708,100l0.0484009,1.7747803l0.1774902,1.7263184l0.274292,1.6779785l0.4033203,1.5811157
				l0.4840698,1.4682007l0.5808105,1.3391724l0.661499,1.1616211l0.7421875,0.9841919l0.7905273,0.7744751l0.8389893,0.5808105
				l0.8712769,0.3388062l0.6292114,0.0806885l0.6453857-0.0806885l0.8712158-0.3388062l0.822876-0.5808105l0.8067017-0.7744751
				l0.7260132-0.9841919l0.661499-1.1616211l0.5969849-1.3391724l0.4840088-1.4682007l0.387207-1.5811157l0.2904053-1.6779785
				l0.1774902-1.7263184L26.4678345,100L26.4194336,98.241394z M22.1761475,100.5324097l-0.0484009,0.5001831l-0.0806274,0.5001221
				l-0.1129761,0.4678955l-0.1452026,0.4356689l-0.1774902,0.387207l-0.1936035,0.3549194l-0.2097168,0.2904053
				l-0.2420044,0.2258911l-0.2420044,0.1774902h-0.0322876h-0.0161743l-0.2097168,0.0968018l-0.2581177,0.0322876
				l-0.274292-0.0322876l-0.2420044-0.0968018l-0.2581787-0.1774902l-0.2258911-0.2258911l-0.2258301-0.2904053
				l-0.1936646-0.3549194l-0.1774292-0.387207l-0.1452026-0.4356689l-0.1129761-0.4678955l-0.0806274-0.5001221
				l-0.0484619-0.5001831L18.2071533,100l0.0161133-0.5162964l0.0484619-0.5162964l0.0806274-0.5001831l0.1129761-0.4678345
				l0.1452026-0.4356689l0.1774292-0.387207l0.1936646-0.3388062l0.2258301-0.2904053l0.2258911-0.2420044l0.2581787-0.161377
				l0.2420044-0.112915l0.274292-0.0322876l0.2581177,0.0322876l0.2258911,0.0968018l0.0322876,0.0161133l0.2420044,0.161377
				l0.2420044,0.2420044l0.2097168,0.2904053l0.1936035,0.3388062l0.1774902,0.387207l0.1452026,0.4356689l0.1129761,0.4678345
				l0.0806274,0.5001831l0.0484009,0.5162964L22.2084351,100L22.1761475,100.5324097z"/>
		</g>
		<g>
			<polyline class="st1" points="30.8563423,100 30.7595367,96.8377075 30.4529877,93.7238083 29.9366951,90.7067261 
				29.2429256,87.8671112 28.355547,85.2211075 27.3068275,82.833252 26.1128998,80.735817 24.7898979,78.9771881 
				23.3700924,77.5735168 21.8696156,76.5570679 20.3046017,75.9278336 19.2236137,75.7987595 18.7234535,75.7342224 
				18.6105156,75.7503586 17.1423073,75.9278336 15.5772924,76.5570679 14.0768156,77.5735168 12.6570101,78.9771881 
				11.3340092,80.735817 10.1400814,82.833252 9.091361,85.2211075 8.2201157,87.8671112 7.5102129,90.7067261 
				6.9939198,93.7238083 6.6873708,96.8377075 6.5905657,100 6.6873708,103.1784286 6.9939198,106.2923203 7.5102129,109.2932739 
				8.2201157,112.149025 9.091361,114.7788925 10.1400814,117.166748 11.3340092,119.264183 12.6570101,121.0228119 
				14.0768156,122.4264832 15.5772924,123.4590683 17.1423073,124.0721664 18.6105156,124.2657776 18.7234535,124.2819138 
				19.2236137,124.2173767 20.3046017,124.0721664 21.8696156,123.4590683 23.3700924,122.4264832 24.7898979,121.0228119 
				26.1128998,119.264183 27.3068275,117.166748 28.355547,114.7788925 29.2429256,112.149025 29.9366951,109.2932739 
				30.4529877,106.2923203 30.7595367,103.1784286 30.8563423,100 			"/>
			<polyline class="st1" points="26.4678516,100 26.4194489,98.2413788 26.241972,96.4988861 25.9515572,94.8370667 
				25.5643387,93.2397842 25.0803127,91.7715759 24.4833488,90.4485779 23.8218479,89.2707825 23.0958118,88.2865982 
				22.2891026,87.5121613 21.4662609,86.947464 20.5950165,86.592514 19.9496498,86.5118408 19.7076378,86.4795761 
				19.5624294,86.4957047 18.8202591,86.592514 17.9651489,86.947464 17.126173,87.5121613 16.335598,88.2865982 
				15.5934267,89.2707825 14.9319267,90.4485779 14.3510971,91.7715759 13.8509378,93.2397842 13.4637175,94.8370667 
				13.1733027,96.4988861 13.011961,98.2413788 12.9474249,100 13.011961,101.7747574 13.1733027,103.5011139 
				13.4637175,105.1790619 13.8509378,106.7602158 14.3510971,108.2284241 14.9319267,109.5675583 15.5934267,110.7292175 
				16.335598,111.7134018 17.126173,112.4878387 17.9651489,113.0686722 18.8202591,113.407486 19.5624294,113.5042953 
				19.7076378,113.5204239 19.9496498,113.4881592 20.5950165,113.407486 21.4662609,113.0686722 22.2891026,112.4878387 
				23.0958118,111.7134018 23.8218479,110.7292175 24.4833488,109.5675583 25.0803127,108.2284241 25.5643387,106.7602158 
				25.9515572,105.1790619 26.241972,103.5011139 26.4194489,101.7747574 26.4678516,100 			"/>
			<polyline class="st1" points="19.2236137,124.2173767 18.1264896,124.0721664 16.5614758,123.4590683 15.0609999,122.4264832 
				13.6411934,121.0228119 12.3181925,119.264183 11.1242647,117.166748 10.0755444,114.7788925 9.2042999,112.149025 
				8.4943972,109.2932739 7.9781036,106.2923203 7.6715546,103.1784286 7.5747495,100 7.6715546,96.8377075 7.9781036,93.7238083 
				8.4943972,90.7067261 9.2042999,87.8671112 10.0755444,85.2211075 11.1242647,82.833252 12.3181925,80.735817 
				13.6411934,78.9771881 15.0609999,77.5735168 16.5614758,76.5570679 18.1264896,75.9278336 19.2236137,75.7987595 			"/>
			<polyline class="st1" points="19.9496498,113.4881592 19.3204174,113.407486 18.449173,113.0686722 17.6101971,112.4878387 
				16.8196239,111.7134018 16.0774517,110.7292175 15.4159508,109.5675583 14.8351212,108.2284241 14.3510971,106.7602158 
				13.9477425,105.1790619 13.6734619,103.5011139 13.495986,101.7747574 13.4475842,100 13.495986,98.2413788 
				13.6734619,96.4988861 13.9477425,94.8370667 14.3510971,93.2397842 14.8351212,91.7715759 15.4159508,90.4485779 
				16.0774517,89.2707825 16.8196239,88.2865982 17.6101971,87.5121613 18.449173,86.947464 19.3204174,86.592514 
				19.9496498,86.5118408 			"/>
			<polyline class="st1" points="20.6918221,103.8722 20.7240906,103.8722 20.9661026,103.694725 21.2081146,103.4688416 
				21.4178581,103.1784286 21.6114693,102.8234787 21.7889442,102.4362564 21.9341526,102.0006332 22.0470905,101.5327454 
				22.1277618,101.0325851 22.1761646,100.5324249 22.2084332,100 			"/>
			<polyline class="st1" points="22.2084332,100 22.1761646,99.4837036 22.1277618,98.9674149 22.0470905,98.4672546 
				21.9341526,97.9993668 21.7889442,97.5637436 21.6114693,97.1765213 21.4178581,96.8377075 21.2081146,96.547287 
				20.9661026,96.305275 20.7240906,96.1439362 20.6918221,96.1278 20.4659424,96.0309982 20.2077961,95.9987259 
				19.9335155,96.0309982 19.6915035,96.1439362 19.4333572,96.305275 19.2074795,96.547287 18.9815998,96.8377075 
				18.7879906,97.1765213 18.6105156,97.5637436 18.4653072,97.9993668 18.3523674,98.4672546 18.271698,98.9674149 
				18.2232952,99.4837036 18.2071609,100 18.2232952,100.5324249 18.271698,101.0325851 18.3523674,101.5327454 
				18.4653072,102.0006332 18.6105156,102.4362564 18.7879906,102.8234787 18.9815998,103.1784286 19.2074795,103.4688416 
				19.4333572,103.694725 19.6915035,103.8722 19.9335155,103.9690018 20.2077961,104.0012741 20.4659424,103.9690018 
				20.6756878,103.8722 			"/>
			<polyline class="st1" points="20.6918221,103.8722 20.6756878,103.8722 20.4175415,103.694725 20.1916618,103.4688416 
				19.9657841,103.1784286 19.7721748,102.8234787 19.594698,102.4362564 19.4494915,102.0006332 19.3365517,101.5327454 
				19.2558804,101.0325851 19.2074795,100.5324249 19.1913452,100 19.2074795,99.4837036 19.2558804,98.9674149 
				19.3365517,98.4672546 19.4494915,97.9993668 19.594698,97.5637436 19.7721748,97.1765213 19.9657841,96.8377075 
				20.1916618,96.547287 20.4175415,96.305275 20.6756878,96.1439362 20.6918221,96.1278 			"/>
			<polyline class="st2" points="18.7234535,135.9469147 21.0629063,135.6403656 23.3700924,134.7207184 25.5966053,133.2202301 
				27.7101803,131.1389313 29.6624146,128.5251923 31.4371719,125.4274368 32.9860497,121.8940582 34.2929192,117.9734573 
				35.3255043,113.7624359 36.0838089,109.3094101 36.5517006,104.6950378 36.696907,100 36.5517006,95.3049622 
				36.0838089,90.7067261 35.3255043,86.2536926 34.2929192,82.0265427 32.9860497,78.1220779 31.4371719,74.5886993 
				29.6624146,71.4909363 27.7101803,68.8772049 25.5966053,66.7958984 23.3700924,65.2792892 21.0629063,64.359642 
				18.7234535,64.053093 16.3840008,64.359642 14.0768156,65.2792892 11.8503017,66.7958984 9.7367268,68.8772049 
				7.7844934,71.4909363 6.0097361,74.5886993 4.4608569,78.1220779 3.1539898,82.0265427 2.1214037,86.2536926 
				1.363098,90.7067261 0.9113416,95.3049622 0.75,100 0.9113416,104.6950378 1.363098,109.3094101 2.1214037,113.7624359 
				3.1539898,117.9734573 4.4608569,121.8940582 6.0097361,125.4274368 7.7844934,128.5251923 9.7367268,131.1389313 
				11.8503017,133.2202301 14.0768156,134.7207184 16.3840008,135.6403656 18.7234535,135.9469147 70.2882309,135.9469147 
				71.9500504,135.9469147 73.6118622,135.9469147 75.9513168,135.6403656 78.2585068,134.7207184 80.4850159,133.2202301 
				82.5985947,131.1389313 84.550827,128.5251923 86.3255844,125.4274368 87.8744659,121.8940582 89.1813278,117.9734573 
				90.213913,113.7624359 90.9722214,109.3094101 91.4239807,104.6950378 91.5853195,100 91.4239807,95.3049622 
				90.9722214,90.7067261 90.213913,86.2536926 89.1813278,82.0265427 87.8744659,78.1220779 86.3255844,74.5886993 
				84.550827,71.4909363 82.5985947,68.8772049 80.4850159,66.7958984 78.2585068,65.2792892 75.9513168,64.359642 
				73.6118622,64.053093 71.9500504,64.053093 70.2882309,64.053093 18.7234535,64.053093 			"/>
		</g>
	</g>
</g>
</svg>
