<?xml version="1.0" encoding="utf-8"?>
<!-- Generator: Adobe Illustrator 21.0.0, SVG Export Plug-In . SVG Version: 6.00 Build 0)  -->
<svg version="1.1" id="Layer_1" xmlns="http://www.w3.org/2000/svg" xmlns:xlink="http://www.w3.org/1999/xlink" x="0px" y="0px"
	 viewBox="0 0 90.0759354 200" style="enable-background:new 0 0 90.0759354 200;" xml:space="preserve">
<style type="text/css">
	.st0{fill:#ECF0F1;}
	.st1{fill:none;stroke:#000000;stroke-width:1.5;stroke-linecap:round;stroke-linejoin:round;}
</style>
<g>
	<g id="XMLID_44_">
		<g>
			<polygon class="st0" points="84.8353271,99.5994873 84.8510132,99.208313 84.8666382,98.8171387 84.8979492,98.4416504 
				84.9291992,98.0504761 84.9761353,97.6749268 85.0387573,97.2837524 85.1013184,96.9238892 85.1795654,96.5484009 
				85.2578125,96.1884766 85.3360596,95.8442993 85.4299316,95.500061 85.5394287,95.1558228 85.6489868,94.8272705 
				85.7584839,94.5142822 85.883667,94.217041 86.0088501,93.9197388 86.1496582,93.6381226 86.2904663,93.3564453 
				86.4312744,93.1060791 86.5877686,92.8557739 86.7442627,92.6210327 86.9163208,92.4019775 87.0884399,92.1986084 
				87.2605591,92.0108643 87.4326782,91.8387451 87.6047974,91.682251 87.7925415,91.5414429 87.9803467,91.4162598 
				88.1680908,91.3067627 88.355835,91.2128296 88.5435791,91.1346436 88.7470093,91.0720215 88.9347534,91.0250854 
				89.1381836,90.9937744 89.3259277,90.9937744 89.3259277,68.4938354 88.6531372,68.5251465 87.9646606,68.6033936 
				87.2762451,68.7598267 86.6033936,68.9632568 85.930603,69.229248 85.2578125,69.5578613 84.600647,69.9489746 
				83.9434814,70.387085 83.3019409,70.8878174 82.6760864,71.4354248 82.0502319,72.0456543 81.4556274,72.7028198 
				80.861084,73.4225464 80.5794067,73.7980957 80.5794067,74.0014648 80.5794067,79.6968994 80.5794067,85.3922729 
				80.5794067,91.0877075 80.5794067,94.9054565 80.5794067,96.7674561 80.5794067,100.3974609 80.5794067,102.4628296 
				80.5794067,108.1582031 75.7446289,108.1582031 74.1173706,108.1582031 74.3051147,109.4725342 74.5241699,110.7712402 
				74.7745361,112.0542603 75.0561523,113.3216553 75.3534546,114.5577393 75.6820068,115.7625122 76.0418701,116.9360352 
				76.4330444,118.0782471 76.8399048,119.1891479 77.2623291,120.2531128 77.7160645,121.2858276 78.1854858,122.2871704 
				78.6861572,123.2260132 79.2025146,124.1334839 79.7344971,124.9940796 80.2977905,125.8076782 80.861084,126.5744019 
				81.4556274,127.2941284 82.0502319,127.9512939 82.6760864,128.5615234 83.3019409,129.1091309 83.9434814,129.6098633 
				84.600647,130.0479736 85.2578125,130.4390869 85.930603,130.7677002 86.6033936,131.0336914 87.2762451,131.2371216 
				87.9646606,131.3935547 88.6531372,131.4874268 89.3259277,131.5187378 89.3259277,109.0031738 89.1381836,109.0031738 
				88.9347534,108.9718628 88.7470093,108.9249268 88.5435791,108.8779907 88.355835,108.7997437 88.1680908,108.7058716 
				87.9803467,108.5963135 87.7925415,108.4711304 87.6047974,108.3146973 87.4326782,108.1582031 87.2605591,107.986084 
				87.0884399,107.7983398 86.9163208,107.5949707 86.7442627,107.3759155 86.5877686,107.1411743 86.4312744,106.9064941 
				86.2904663,106.6405029 86.1496582,106.3745117 86.0088501,106.0928345 85.883667,105.7955933 85.7584839,105.482666 
				85.6489868,105.1696777 85.5394287,104.8411255 85.4299316,104.4968872 85.3360596,104.1526489 85.2578125,103.8084717 
				85.1795654,103.4485474 85.1013184,103.0730591 85.0387573,102.7131958 84.9761353,102.3376465 84.9291992,101.9464722 
				84.8979492,101.5709839 84.8666382,101.1798096 84.8510132,100.7886353 84.8353271,100.3974609 84.8353271,100.0062866 			"/>
			<polygon class="st0" points="75.744606,102.4628296 75.744606,108.158226 74.1173477,108.158226 71.66082,108.158226 
				67.5613861,108.158226 63.4775963,108.158226 63.4775963,102.4628296 63.4775963,96.7674332 63.4775963,91.0876846 
				63.4775963,85.3922882 63.4775963,79.6968918 63.4775963,74.0014954 63.4775963,72.5307083 63.4306564,72.5150604 
				63.4775963,72.5150604 63.4775963,68.3060989 63.4775963,62.6263504 63.4775963,56.930954 63.4775963,51.2355576 
				67.5613861,51.2355576 71.66082,51.2355576 75.744606,51.2355576 75.744606,56.930954 75.744606,62.6263504 
				75.744606,68.3060989 75.744606,74.0014954 75.744606,79.6968918 75.744606,85.3922882 75.744606,91.0876846 
				75.744606,91.6196747 71.66082,91.6196747 69.6110992,91.6196747 69.6110992,97.7062378 69.6110992,98.2069321 
				71.66082,98.2069321 75.744606,98.2069321 			"/>
			<polygon class="st0" points="16.5062199,109.0031509 16.5062199,131.5187378 15.8177662,131.487442 15.1293116,131.3935699 
				14.4408569,131.2371063 13.7680492,131.0336914 13.0952415,130.7677002 12.4224339,130.4391174 11.7652721,130.0479584 
				11.1081114,129.609848 10.4665966,129.1091461 9.8407288,128.5615234 9.2305079,127.9512939 8.6202869,127.294136 
				8.0413589,126.5743866 7.4624319,125.8077011 6.9147973,124.994072 6.3828096,124.1334991 5.8664689,123.2259979 
				5.3657746,122.2871933 4.8807273,121.2858047 4.4269729,120.2531204 4.0045123,119.1891479 3.5976982,118.0782318 
				3.2221777,116.9360275 2.8623037,115.7625198 2.5337231,114.557724 2.2207892,113.32164 1.9391488,112.0542526 
				1.7044483,110.771225 1.4697479,109.4725494 1.2819875,108.158226 1.1255207,106.8282623 0.9847004,105.4669952 
				0.8751736,104.1057358 0.8125868,102.7444687 0.7656467,101.3675613 0.75,100.0063019 0.7656467,98.6293945 
				0.8125868,97.2524796 0.8751736,95.8912201 0.9847004,94.5299606 1.1255207,93.1843414 1.2819875,91.8387299 
				1.4697479,90.5244064 1.7044483,89.2257309 1.9391488,87.9427032 2.2207892,86.6753159 2.5337231,85.4548721 
				2.8623037,84.2500839 3.2221777,83.0609283 3.5976982,81.9187241 4.0045123,80.8234558 4.4269729,79.7438354 
				4.8807273,78.7111511 5.3657746,77.7097626 5.8664689,76.7709579 6.3828096,75.8634491 6.9147973,75.0028839 
				7.4624319,74.1892548 8.0413589,73.4225693 8.6202869,72.7028198 9.2305079,72.0456619 9.8407288,71.4354401 
				10.4665966,70.8878021 11.1081114,70.3871078 11.7652721,69.9490051 12.4224339,69.5578384 13.0952415,69.2292557 
				13.7680492,68.9632568 14.4408569,68.7598495 15.1293116,68.6033859 15.8177662,68.5251541 16.5062199,68.4938583 
				16.5062199,90.9938049 16.3028145,90.9938049 10.341423,90.9938049 10.1536627,90.9938049 9.9502563,91.0251007 
				9.762496,91.0720367 9.5747356,91.1346283 9.3713284,91.2128601 9.183568,91.3067398 8.9958076,91.4162674 8.8080473,91.5414429 
				8.6202869,91.6822586 8.4481735,91.8387299 8.2760601,92.0108414 8.1039457,92.1986008 7.9318323,92.4020081 
				7.7597189,92.6210632 7.6032519,92.8557587 7.446785,93.1061096 7.3059649,93.3564529 7.1651444,93.6380997 
				7.0243244,93.9197388 6.8991508,94.2170258 6.7739773,94.5143127 6.6644502,94.8272476 6.5549235,95.1558228 
				6.4453964,95.5000534 6.3515162,95.8442841 6.273283,96.1885071 6.1950493,96.548378 6.116816,96.9239044 6.0542293,97.2837753 
				5.9916425,97.674942 5.9447021,98.0504608 5.9134088,98.4416351 5.8821154,98.8171539 5.8664689,99.2083206 5.850822,99.5994873 
				5.850822,100.0063019 5.850822,100.3974686 5.8664689,100.7886353 5.8821154,101.1798019 5.9134088,101.5709686 
				5.9447021,101.9464874 5.9916425,102.3376617 6.0542293,102.7131805 6.116816,103.0886993 6.1950493,103.4485703 
				6.273283,103.8084488 6.3515162,104.1526718 6.4453964,104.4969025 6.5549235,104.8411331 6.6644502,105.1697083 
				6.7739773,105.4826431 6.8991508,105.795578 7.0243244,106.092865 7.1651444,106.3745041 7.3059649,106.6405029 
				7.446785,106.9064941 7.6032519,107.1411896 7.7597189,107.3758926 7.9318323,107.5949478 8.1039457,107.7983551 
				8.2760601,107.9861145 8.4481735,108.158226 8.6202869,108.3146973 8.8080473,108.4711609 8.9958076,108.5963364 
				9.183568,108.705864 9.3713284,108.7997437 9.5747356,108.8779755 9.762496,108.9249191 9.9502563,108.9718552 
				10.1536627,109.0031509 10.341423,109.0031509 16.3028145,109.0031509 			"/>
		</g>
		<g>
			<polyline class="st1" points="89.3259354,131.5187378 16.5062199,131.5187378 15.8177662,131.487442 15.1293116,131.3935699 
				14.4408569,131.2371063 13.7680492,131.0336914 13.0952415,130.7677002 12.4224339,130.4391174 11.7652721,130.0479584 
				11.1081114,129.609848 10.4665966,129.1091461 9.8407288,128.5615234 9.2305079,127.9512939 8.6202869,127.294136 
				8.0413589,126.5743866 7.4624319,125.8077011 6.9147973,124.994072 6.3828096,124.1334991 5.8664689,123.2259979 
				5.3657746,122.2871933 4.8807273,121.2858047 4.4269729,120.2531204 4.0045123,119.1891479 3.5976982,118.0782318 
				3.2221777,116.9360275 2.8623037,115.7625198 2.5337231,114.557724 2.2207892,113.32164 1.9391488,112.0542526 
				1.7044483,110.771225 1.4697479,109.4725494 1.2819875,108.158226 1.1255207,106.8282623 0.9847004,105.4669952 
				0.8751736,104.1057358 0.8125868,102.7444687 0.7656467,101.3675613 0.75,100.0063019 0.7656467,98.6293945 
				0.8125868,97.2524796 0.8751736,95.8912201 0.9847004,94.5299606 1.1255207,93.1843414 1.2819875,91.8387299 
				1.4697479,90.5244064 1.7044483,89.2257309 1.9391488,87.9427032 2.2207892,86.6753159 2.5337231,85.4548721 
				2.8623037,84.2500839 3.2221777,83.0609283 3.5976982,81.9187241 4.0045123,80.8234558 4.4269729,79.7438354 
				4.8807273,78.7111511 5.3657746,77.7097626 5.8664689,76.7709579 6.3828096,75.8634491 6.9147973,75.0028839 
				7.4624319,74.1892548 8.0413589,73.4225693 8.6202869,72.7028198 9.2305079,72.0456619 9.8407288,71.4354401 
				10.4665966,70.8878021 11.1081114,70.3871078 11.7652721,69.9490051 12.4224339,69.5578384 13.0952415,69.2292557 
				13.7680492,68.9632568 14.4408569,68.7598495 15.1293116,68.6033859 15.8177662,68.5251541 16.5062199,68.4938583 
				56.7964592,68.4938583 58.8774681,68.4938583 			"/>
			<line class="st1" x1="85.6489639" y1="39.8760567" x2="85.6489639" y2="68.4938583"/>
			<line class="st1" x1="58.8774681" y1="39.8760567" x2="58.8774681" y2="68.4938583"/>
			<line class="st1" x1="56.7964592" y1="39.8760567" x2="56.7964592" y2="68.4938583"/>
			<line class="st1" x1="89.3259354" y1="68.4938583" x2="89.3259354" y2="90.9938049"/>
			<line class="st1" x1="89.3259354" y1="109.0031509" x2="89.3259354" y2="131.5187378"/>
			<line class="st1" x1="16.5062199" y1="131.5187378" x2="16.5062199" y2="109.0031509"/>
			<line class="st1" x1="16.5062199" y1="90.9938049" x2="16.5062199" y2="68.4938583"/>
			<polyline class="st1" points="16.3028145,90.9938049 10.341423,90.9938049 10.1536627,90.9938049 9.9502563,91.0251007 
				9.762496,91.0720367 9.5747356,91.1346283 9.3713284,91.2128601 9.183568,91.3067398 8.9958076,91.4162674 8.8080473,91.5414429 
				8.6202869,91.6822586 8.4481735,91.8387299 8.2760601,92.0108414 8.1039457,92.1986008 7.9318323,92.4020081 
				7.7597189,92.6210632 7.6032519,92.8557587 7.446785,93.1061096 7.3059649,93.3564529 7.1651444,93.6380997 
				7.0243244,93.9197388 6.8991508,94.2170258 6.7739773,94.5143127 6.6644502,94.8272476 6.5549235,95.1558228 
				6.4453964,95.5000534 6.3515162,95.8442841 6.273283,96.1885071 6.1950493,96.548378 6.116816,96.9239044 6.0542293,97.2837753 
				5.9916425,97.674942 5.9447021,98.0504608 5.9134088,98.4416351 5.8821154,98.8171539 5.8664689,99.2083206 5.850822,99.5994873 
				5.850822,100.0063019 5.850822,100.3974686 5.8664689,100.7886353 5.8821154,101.1798019 5.9134088,101.5709686 
				5.9447021,101.9464874 5.9916425,102.3376617 6.0542293,102.7131805 6.116816,103.0886993 6.1950493,103.4485703 
				6.273283,103.8084488 6.3515162,104.1526718 6.4453964,104.4969025 6.5549235,104.8411331 6.6644502,105.1697083 
				6.7739773,105.4826431 6.8991508,105.795578 7.0243244,106.092865 7.1651444,106.3745041 7.3059649,106.6405029 
				7.446785,106.9064941 7.6032519,107.1411896 7.7597189,107.3758926 7.9318323,107.5949478 8.1039457,107.7983551 
				8.2760601,107.9861145 8.4481735,108.158226 8.6202869,108.3146973 8.8080473,108.4711609 8.9958076,108.5963364 
				9.183568,108.705864 9.3713284,108.7997437 9.5747356,108.8779755 9.762496,108.9249191 9.9502563,108.9718552 
				10.1536627,109.0031509 10.341423,109.0031509 16.3028145,109.0031509 			"/>
			<polyline class="st1" points="75.744606,51.2355576 75.744606,56.930954 75.744606,62.6263504 75.744606,68.3060989 
				75.744606,74.0014954 75.744606,79.6968918 75.744606,85.3922882 75.744606,91.0876846 75.744606,91.6196747 
				80.5481415,94.9054794 			"/>
			<polyline class="st1" points="80.5794296,51.2355576 80.5794296,56.930954 80.5794296,62.6263504 80.5794296,68.3060989 
				80.5794296,69.3074875 80.5794296,69.3231354 80.5794296,73.7980881 80.5794296,74.0014954 80.5794296,79.6968918 
				80.5794296,85.3922882 80.5794296,91.0876846 80.5794296,94.9054794 80.5794296,96.7674332 80.5794296,100.3974686 
				80.5794296,102.4628296 80.5794296,108.158226 			"/>
			<polyline class="st1" points="63.4775963,51.2355576 63.4775963,56.930954 63.4775963,62.6263504 63.4775963,68.3060989 
				63.4775963,72.5150604 			"/>
			<polyline class="st1" points="75.744606,98.2069321 75.744606,102.4628296 75.744606,108.158226 			"/>
			<polyline class="st1" points="80.5794296,108.158226 75.744606,108.158226 74.1173477,108.158226 71.66082,108.158226 
				67.5613861,108.158226 63.4775963,108.158226 			"/>
			<polyline class="st1" points="69.6110992,91.6196747 74.4146347,94.9054794 80.5481415,94.9054794 			"/>
			<line class="st1" x1="74.4146347" y1="94.9054794" x2="69.6110992" y2="98.2069321"/>
			<polyline class="st1" points="69.6110992,91.6196747 69.6110992,97.7062378 69.6110992,98.2069321 			"/>
			<polyline class="st1" points="63.4775963,51.2355576 67.5613861,51.2355576 71.66082,51.2355576 75.744606,51.2355576 
				80.5794296,51.2355576 			"/>
			<polyline class="st1" points="75.744606,91.6196747 71.66082,91.6196747 69.6110992,91.6196747 			"/>
			<polyline class="st1" points="80.5481415,94.9054794 76.6208191,97.7062378 75.744606,98.2069321 71.66082,98.2069321 
				69.6110992,98.2069321 			"/>
			<polyline class="st1" points="74.1173477,108.158226 74.3051071,109.4725494 74.5241623,110.771225 74.7745056,112.0542526 
				75.0561523,113.32164 75.3534393,114.557724 75.6820145,115.7625198 76.041893,116.9360275 76.4330597,118.0782318 
				76.8398743,119.1891479 77.2623367,120.2531204 77.7160873,121.2858047 78.1854858,122.2871933 78.6861801,123.2259979 
				79.2025223,124.1334991 79.7345123,124.994072 80.2977905,125.8077011 80.8610764,126.5743866 81.4556503,127.294136 
				82.0502243,127.9512939 82.6760864,128.5615234 83.3019562,129.1091461 83.9434738,129.609848 84.6006317,130.0479584 
				85.2577972,130.4391174 85.930603,130.7677002 86.6034088,131.0336914 87.2762146,131.2371063 87.9646683,131.3935699 
				88.6531296,131.487442 89.3259354,131.5187378 			"/>
			<line class="st1" x1="63.4306564" y1="72.5150604" x2="63.4775963" y2="72.5150604"/>
			<polyline class="st1" points="60.4108429,72.0613022 61.0054169,72.2021255 61.3339996,72.2803574 62.085041,72.4055328 
				62.3197403,72.4368286 63.2272491,72.5150604 63.3993607,72.5150604 			"/>
			<polyline class="st1" points="58.8774681,71.4823761 59.5972137,71.7796631 60.1135559,71.9674225 			"/>
			<polyline class="st1" points="58.8774681,68.4938583 58.2515984,68.5251541 58.2359543,68.5251541 57.73526,68.6033859 
				57.7039642,68.6033859 57.3284454,68.7598495 57.2971535,68.7598495 57.0468063,68.9319687 57.0311584,68.9319687 
				57.0311584,68.9476166 56.9998627,68.9632568 56.8590431,69.182312 56.8590431,69.2136078 56.7964592,69.4639511 
				56.8121033,69.5578384 56.8590431,69.7612381 56.8590431,69.7925339 56.9998627,70.074173 57.0311584,70.1211166 
				57.2815056,70.3871078 57.3127975,70.4496994 57.3284454,70.4496994 57.6413803,70.7469864 57.73526,70.8095703 
				57.8604317,70.8878021 58.2515984,71.153801 58.7992325,71.4354401 58.8618202,71.4667282 58.8774681,71.4823761 
				59.4563942,71.7483749 59.5972137,71.8109589 60.1135559,71.9674225 60.4108429,72.0613022 60.4577827,72.0456619 
				61.3339996,72.2647095 62.3197403,72.4211807 63.3993607,72.5150604 63.4306564,72.5150604 63.4775963,72.5307083 
				63.4775963,74.0014954 63.4775963,79.6968918 63.4775963,85.3922882 63.4775963,91.0876846 63.4775963,96.7674332 
				63.4775963,102.4628296 63.4775963,108.158226 			"/>
			<line class="st1" x1="80.5794296" y1="69.3231354" x2="81.1270676" y2="69.182312"/>
			<polyline class="st1" points="80.5794296,73.7980881 80.8610764,73.4225693 81.4556503,72.7028198 82.0502243,72.0456619 
				82.6760864,71.4354401 83.3019562,70.8878021 83.9434738,70.3871078 84.6006317,69.9490051 85.2577972,69.5578384 
				85.930603,69.2292557 86.6034088,68.9632568 87.2762146,68.7598495 87.9646683,68.6033859 88.6531296,68.5251541 
				89.3259354,68.4938583 			"/>
			<polyline class="st1" points="80.5794296,69.3074875 80.8610764,69.2292557 81.1270676,69.182312 81.6277618,69.0727844 
				82.0502243,68.9632568 82.1128082,68.9476166 82.2066879,68.9319687 83.1141968,68.7598495 83.1924286,68.7598495 
				83.7713547,68.6659698 84.0686417,68.6033859 84.0842896,68.6033859 84.1155853,68.6033859 84.9135666,68.5251541 
				84.9292145,68.5251541 85.5707245,68.4938583 85.6489639,68.4938583 89.3259354,68.4938583 			"/>
			<polyline class="st1" points="16.5062199,109.0031509 16.3028145,109.0031509 16.1150532,108.9718552 15.9116459,108.9249191 
				15.7238865,108.8779755 15.5361261,108.7997437 15.3327188,108.705864 15.1449585,108.5963364 14.9571981,108.4711609 
				14.7850847,108.3146973 14.5973244,108.158226 14.42521,107.9861145 14.2530966,107.7983551 14.0809832,107.5949478 
				13.9245167,107.3758926 13.7680492,107.1411896 13.6115828,106.9064941 13.4551153,106.6405029 13.3142948,106.3745041 
				13.1891212,106.092865 13.0483017,105.795578 12.9231281,105.4826431 12.8136005,105.1697083 12.7040739,104.8411331 
				12.6101942,104.4969025 12.5163136,104.1526718 12.4224339,103.8084488 12.3442001,103.4485703 12.2659664,103.0886993 
				12.2033796,102.7131805 12.1564398,102.3376617 12.1094999,101.9464874 12.0625601,101.5709686 12.0312662,101.1798019 
				12.0156193,100.7886353 11.9999733,100.3974686 11.9999733,100.0063019 11.9999733,99.5994873 12.0156193,99.2083206 
				12.0312662,98.8171539 12.0625601,98.4416351 12.1094999,98.0504608 12.1564398,97.674942 12.2033796,97.2837753 
				12.2659664,96.9239044 12.3442001,96.548378 12.4224339,96.1885071 12.5163136,95.8442841 12.6101942,95.5000534 
				12.7040739,95.1558228 12.8136005,94.8272476 12.9231281,94.5143127 13.0483017,94.2170258 13.1891212,93.9197388 
				13.3142948,93.6380997 13.4551153,93.3564529 13.6115828,93.1061096 13.7680492,92.8557587 13.9245167,92.6210632 
				14.0809832,92.4020081 14.2530966,92.1986008 14.42521,92.0108414 14.5973244,91.8387299 14.7850847,91.6822586 
				14.9571981,91.5414429 15.1449585,91.4162674 15.3327188,91.3067398 15.5361261,91.2128601 15.7238865,91.1346283 
				15.9116459,91.0720367 16.1150532,91.0251007 16.3028145,90.9938049 16.5062199,90.9938049 			"/>
			<polyline class="st1" points="89.3259354,90.9938049 89.138176,90.9938049 88.9347687,91.0251007 88.7470093,91.0720367 
				88.543602,91.1346283 88.3558426,91.2128601 88.1680756,91.3067398 87.9803162,91.4162674 87.7925568,91.5414429 
				87.6047974,91.6822586 87.4326859,91.8387299 87.2605667,92.0108414 87.0884552,92.1986008 86.9163437,92.4020081 
				86.7442322,92.6210632 86.5877609,92.8557587 86.4312973,93.1061096 86.2904739,93.3564529 86.1496582,93.6380997 
				86.0088348,93.9197388 85.8836594,94.2170258 85.7584915,94.5143127 85.6489639,94.8272476 85.5394363,95.1558228 
				85.4299088,95.5000534 85.3360291,95.8442841 85.2577972,96.1885071 85.1795578,96.548378 85.101326,96.9239044 
				85.0387421,97.2837753 84.9761505,97.674942 84.9292145,98.0504608 84.8979187,98.4416351 84.8666229,98.8171539 
				84.8509827,99.2083206 84.8353348,99.5994873 84.8353348,100.0063019 84.8353348,100.3974686 84.8509827,100.7886353 
				84.8666229,101.1798019 84.8979187,101.5709686 84.9292145,101.9464874 84.9761505,102.3376617 85.0387421,102.7131805 
				85.101326,103.0730515 85.1795578,103.4485703 85.2577972,103.8084488 85.3360291,104.1526718 85.4299088,104.4969025 
				85.5394363,104.8411331 85.6489639,105.1697083 85.7584915,105.4826431 85.8836594,105.795578 86.0088348,106.092865 
				86.1496582,106.3745041 86.2904739,106.6405029 86.4312973,106.9064941 86.5877609,107.1411896 86.7442322,107.3758926 
				86.9163437,107.5949478 87.0884552,107.7983551 87.2605667,107.9861145 87.4326859,108.158226 87.6047974,108.3146973 
				87.7925568,108.4711609 87.9803162,108.5963364 88.1680756,108.705864 88.3558426,108.7997437 88.543602,108.8779755 
				88.7470093,108.9249191 88.9347687,108.9718552 89.138176,109.0031509 89.3259354,109.0031509 			"/>
			<polyline class="st1" points="56.7964592,39.8760567 56.8590431,39.8760567 56.9216309,39.8760567 57.0311584,39.8760567 
				57.3284454,39.8760567 57.4849129,39.8760567 57.73526,39.8760567 58.2515984,39.8760567 58.8774681,39.8760567 
				59.5972137,39.8760567 60.4108429,39.8760567 61.3339996,39.8760567 62.3197403,39.8760567 63.3993607,39.8760567 
				64.5259247,39.8760567 65.7307205,39.8760567 66.9668121,39.8760567 68.2654877,39.8760567 69.5798035,39.8760567 
				70.9097748,39.8760567 72.255394,39.8760567 72.3179779,39.8760567 73.6166534,39.8760567 74.9466248,39.8760567 
				76.2609482,39.8760567 76.33918,39.8760567 77.5596237,39.8760567 78.7957077,39.8760567 79.0929947,39.8760567 
				80.0005035,39.8760567 81.1270676,39.8760567 81.5025864,39.8760567 82.2066879,39.8760567 83.1924286,39.8760567 
				83.5523071,39.8760567 84.1155853,39.8760567 84.9292145,39.8760567 85.6489639,39.8760567 			"/>
			<polyline class="st1" points="82.1128082,68.9632568 82.2066879,68.9476166 83.1924286,68.7598495 84.0686417,68.6033859 			"/>
		</g>
	</g>
</g>
</svg>
