<?xml version="1.0" encoding="utf-8"?>
<!-- Generator: Adobe Illustrator 21.0.0, SVG Export Plug-In . SVG Version: 6.00 Build 0)  -->
<svg version="1.1" id="Layer_1" xmlns="http://www.w3.org/2000/svg" xmlns:xlink="http://www.w3.org/1999/xlink" x="0px" y="0px"
	 viewBox="0 0 69.2650833 200" style="enable-background:new 0 0 69.2650833 200;" xml:space="preserve">
<style type="text/css">
	.st0{fill:#797979;}
	.st1{fill:none;stroke:#FFFFFF;stroke-width:1.5;stroke-linecap:round;stroke-linejoin:round;}
</style>
<g>
	<g id="XMLID_58_">
		<g>
			<polygon class="st0" points="43.8840942,67.189064 43.8840942,132.803421 38.0805359,144.3934631 36.4077454,141.0478821 
				41.5114632,130.8404388 41.5114632,69.1520309 36.4077454,58.9616661 38.0805359,55.5990181 			"/>
			<polygon class="st0" points="6.5535583,55.5990181 8.2263489,58.9616661 3.1226313,69.1520309 3.1226313,130.8404388 
				8.2263489,141.0478821 6.5535583,144.3934631 0.75,132.803421 0.75,67.189064 			"/>
		</g>
		<g>
			<line class="st1" x1="68.5150833" y1="132.803421" x2="43.8840942" y2="132.803421"/>
			<line class="st1" x1="43.8840942" y1="67.189064" x2="68.5150833" y2="67.189064"/>
			<line class="st1" x1="38.0805359" y1="55.5990181" x2="62.7115211" y2="55.5990181"/>
			<line class="st1" x1="62.7115211" y1="144.3934631" x2="38.0805359" y2="144.3934631"/>
			<polyline class="st1" points="62.7115211,55.5990181 68.5150833,67.189064 68.5150833,132.803421 62.7115211,144.3934631 			"/>
			<polyline class="st1" points="38.0805359,55.5990181 43.8840942,67.189064 43.8840942,132.803421 38.0805359,144.3934631 			"/>
			<polyline class="st1" points="38.0805359,55.5990181 36.4077454,58.9616661 41.5114632,69.1520309 41.5114632,130.8404388 
				36.4077454,141.0478821 38.0805359,144.3934631 			"/>
			<line class="st1" x1="27.7536163" y1="130.8404388" x2="3.1226313" y2="130.8404388"/>
			<line class="st1" x1="3.1226313" y1="69.1520309" x2="27.7536163" y2="69.1520309"/>
			<line class="st1" x1="6.5535583" y1="55.5990181" x2="31.1845436" y2="55.5990181"/>
			<line class="st1" x1="31.1845436" y1="144.3934631" x2="6.5535583" y2="144.3934631"/>
			<line class="st1" x1="32.8573341" y1="141.0478821" x2="8.2263489" y2="141.0478821"/>
			<line class="st1" x1="8.2263489" y1="58.9616661" x2="32.8573341" y2="58.9616661"/>
			<polyline class="st1" points="6.5535583,144.3934631 0.75,132.803421 0.75,67.189064 6.5535583,55.5990181 			"/>
			<polyline class="st1" points="6.5535583,144.3934631 8.2263489,141.0478821 3.1226313,130.8404388 3.1226313,69.1520309 
				8.2263489,58.9616661 6.5535583,55.5990181 			"/>
			<polyline class="st1" points="31.1845436,144.3934631 32.8573341,141.0478821 27.7536163,130.8404388 27.7536163,69.1520309 
				32.8573341,58.9616661 31.1845436,55.5990181 			"/>
		</g>
	</g>
</g>
</svg>
