<?xml version="1.0" encoding="utf-8"?>
<!-- Generator: Adobe Illustrator 21.0.0, SVG Export Plug-In . SVG Version: 6.00 Build 0)  -->
<svg version="1.1" id="Layer_1" xmlns="http://www.w3.org/2000/svg" xmlns:xlink="http://www.w3.org/1999/xlink" x="0px" y="0px"
	 viewBox="0 0 59.3423347 200" style="enable-background:new 0 0 59.3423347 200;" xml:space="preserve">
<style type="text/css">
	.st0{fill:#797979;}
	.st1{fill:none;stroke:#FFFFFF;stroke-width:1.5;stroke-linecap:round;stroke-linejoin:round;}
</style>
<g id="XMLID_54_">
	<g>
		<polygon class="st0" points="1.4030118,89.9944077 2.2156487,85.1911469 3.3330245,80.6635971 4.7406278,76.4552994 
			6.4094357,72.6533203 8.3104258,69.3157043 10.4145746,66.5004959 12.6783495,64.2657394 15.0727253,62.6404686 
			17.5541706,61.6536942 20.0791492,61.3199348 20.0791492,69.0399857 18.0620689,69.3011856 16.0740108,70.0993118 
			14.1585093,71.3908234 12.3445873,73.190239 10.6612682,75.4394989 9.1375742,78.1095963 7.8025274,81.1569824 
			6.6706405,84.5236206 5.7854466,88.1514664 5.1324348,91.9824677 4.7406278,95.95858 4.6100254,99.9927444 0.75,99.9927444 
			0.9096251,94.9572983 		"/>
		<polygon class="st0" points="1.4030118,110.0055923 0.9096251,105.0427017 0.75,99.9927444 4.6100254,99.9927444 
			4.7406278,104.04142 5.1324348,108.0175323 5.7854466,111.8485336 6.6706405,115.4763794 7.8025274,118.8430176 
			9.1375742,121.8904037 10.6612682,124.5605011 12.3445873,126.809761 14.1585093,128.6091766 16.0740108,129.9006805 
			18.0620689,130.6988068 20.0791492,130.960022 20.0791492,138.680069 17.5541706,138.3462982 15.0727253,137.3595276 
			12.6783495,135.7342529 10.4145746,133.4995117 8.3104258,130.6842957 6.4094357,127.3466797 4.7406278,123.5447006 
			3.3330245,119.3364029 2.2156487,114.794342 		"/>
	</g>
	<g>
		<polyline class="st1" points="42.2525291,105.3619537 20.0791492,130.960022 18.0620689,130.6988068 16.0740108,129.9006805 
			14.1585093,128.6091766 12.3445873,126.809761 10.6612682,124.5605011 9.1375742,121.8904037 7.8025274,118.8430176 
			6.6706405,115.4763794 5.7854466,111.8485336 5.1324348,108.0175323 4.7406278,104.04142 4.6100254,99.9927444 
			4.7406278,95.95858 5.1324348,91.9824677 5.7854466,88.1514664 6.6706405,84.5236206 7.8025274,81.1569824 9.1375742,78.1095963 
			10.6612682,75.4394989 12.3445873,73.190239 14.1585093,71.3908234 16.0740108,70.0993118 18.0620689,69.3011856 
			20.0791492,69.0399857 22.6476631,72.0003052 42.2525291,94.6380463 		"/>
		<polyline class="st1" points="58.5923347,105.3619537 42.2525291,105.3619537 41.9042549,105.3184204 41.5559807,105.1878128 
			41.2222214,104.9556351 40.9029694,104.6508942 40.6127434,104.2590866 40.3515396,103.7947235 40.1193581,103.272316 
			39.9307098,102.6773453 39.7710838,102.05336 39.6549911,101.3858337 39.5824356,100.703804 39.5679245,99.9927444 
			39.5824356,99.296196 39.6549911,98.6141663 39.7710838,97.94664 39.9307098,97.3226547 40.1193581,96.727684 
			40.3515396,96.2052765 40.6127434,95.7409134 40.9029694,95.3491058 41.2222214,95.0443649 41.5559807,94.8121872 
			41.9042549,94.6815796 42.2525291,94.6380463 58.5923347,94.6380463 		"/>
		<polygon class="st1" points="58.5923347,110.8182297 44.2115631,110.8182297 20.0791492,138.680069 17.5541706,138.3462982 
			15.0727253,137.3595276 12.6783495,135.7342529 10.4145746,133.4995117 8.3104258,130.6842957 6.4094357,127.3466797 
			4.7406278,123.5447006 3.3330245,119.3364029 2.2156487,114.794342 1.4030118,110.0055923 0.9096251,105.0427017 0.75,99.9927444 
			0.9096251,94.9572983 1.4030118,89.9944077 2.2156487,85.1911469 3.3330245,80.6635971 4.7406278,76.4552994 
			6.4094357,72.6533203 8.3104258,69.3157043 10.4145746,66.5004959 12.6783495,64.2657394 15.0727253,62.6404686 
			17.5541706,61.6536942 20.0791492,61.3199348 24.2729359,66.1522217 44.2115631,89.1817703 58.5923347,89.1817703 
			58.5923347,94.6380463 58.2440605,94.6815796 57.8957901,94.8121872 57.562027,95.0443649 57.2427788,95.3491058 
			56.952549,95.7409134 56.6913452,96.2052765 56.4591637,96.727684 56.2705154,97.3226547 56.1108894,97.94664 
			55.9948006,98.6141663 55.9222412,99.296196 55.9077301,99.9927444 55.9222412,100.703804 55.9948006,101.3858337 
			56.1108894,102.05336 56.2705154,102.6773453 56.4591637,103.272316 56.6913452,103.7947235 56.952549,104.2590866 
			57.2427788,104.6508942 57.562027,104.9556351 57.8957901,105.1878128 58.2440605,105.3184204 58.5923347,105.3619537 		"/>
		<polyline class="st1" points="20.0791492,69.0399857 20.0791492,61.3199348 58.5923347,61.3199348 58.5923347,89.1817703 		"/>
		<polyline class="st1" points="20.0791492,130.960022 20.0791492,138.680069 58.5923347,138.680069 58.5923347,110.8182297 		"/>
	</g>
</g>
</svg>
