<?xml version="1.0" encoding="utf-8"?>
<!-- Generator: Adobe Illustrator 21.0.0, SVG Export Plug-In . SVG Version: 6.00 Build 0)  -->
<svg version="1.1" id="Layer_1" xmlns="http://www.w3.org/2000/svg" xmlns:xlink="http://www.w3.org/1999/xlink" x="0px" y="0px"
	 viewBox="0 0 59.9834862 200" style="enable-background:new 0 0 59.9834862 200;" xml:space="preserve">
<style type="text/css">
	.st0{fill:#797979;}
	.st1{fill:none;stroke:#FFFFFF;stroke-width:1.5;stroke-linecap:round;stroke-linejoin:round;}
</style>
<g>
	<g id="XMLID_59_">
		<g>
			<path class="st0" d="M52.0162086,95.5284271L52.1142693,100l-0.0980606,4.4715729l-0.2941818,4.4519653l-0.4903069,4.3735123
				l-0.6668129,4.2754517l-0.8629341,4.1381683l-1.0198326,3.9616547l-1.2159538,3.7851486l-1.353241,3.5498047
				l-1.5297508,3.3144531l-1.647419,3.0202789L41.1706772,142.0681l-1.9023781,2.4122925l-1.9808311,2.0592804l-2.0788879,1.7258759
				l-2.1377258,1.353241l-2.1769524,0.9609985l-2.2161751,0.5883636l-2.2357864,0.1961212l-2.2553997-0.1961212
				l-2.2161751-0.5883636l-2.1769505-0.9609985l-2.1377258-1.353241l-2.0788898-1.7258759l-1.9808292-2.0592804l-1.90238-2.4122925
				l-1.7650957-2.7260895l-1.6474218-3.0202789l-1.5297489-3.3144531l-1.35324-3.5498047l-1.196342-3.7851486l-1.0394449-3.9616547
				l-0.8629355-4.1381683l-0.6668136-4.2754517l-0.4903042-4.3735123l-0.2941825-4.4519653L0.75,100l0.0980608-4.4715729
				l0.2941825-4.4519653l0.4903042-4.3735123l0.6668136-4.2754517l0.8629355-4.1381683l1.0394449-3.9812698l1.196342-3.7655334
				l1.35324-3.5498047l1.5297489-3.3144569l1.6474218-3.0202751L11.6935902,57.9319l1.90238-2.4122963l1.9808292-2.0788918
				l2.0788898-1.7062569l2.1377258-1.353241l2.1769505-0.9609947l2.2161751-0.5883675l2.2553997-0.1961212l2.2357864,0.1961212
				l2.2161751,0.5883675l2.1769524,0.9609947l2.1377258,1.353241l2.0788879,1.7062569l1.9808311,2.0788918L41.1706772,57.9319
				l1.7650986,2.7260895l1.647419,3.0202751l1.5297508,3.3144569l1.353241,3.5498047l1.2159538,3.7655334l1.0198326,3.9812698
				l0.8629341,4.1381683l0.6668129,4.2754517l0.4903069,4.3735123L52.0162086,95.5284271z M32.4628754,100l-0.0196114-1.0590591
				l-0.0588379-1.039444l-0.117672-1.0198288l-0.1568985-1.0198364l-0.2157326-0.9609985l-0.2353458-0.9413834l-0.2745705-0.8825455
				l-0.3334064-0.8433228l-0.3530197-0.7648773l-0.3922424-0.725647l-0.3137951-0.490303l-0.0980606-0.1372833l-0.4510803-0.5687561
				l-0.4510803-0.490303l-0.490303-0.3922424l-0.5099163-0.3334122l-0.5099163-0.2157288l-0.5295296-0.137291l-0.5099163-0.0588303
				l-0.5295277,0.0588303l-0.5295296,0.137291l-0.5099163,0.2157288l-0.5099163,0.3334122l-0.4706917,0.3922424l-0.4706917,0.490303
				l-0.4510803,0.5687561l-0.4118557,0.6275864l-0.3922424,0.725647l-0.3530197,0.7648773l-0.3334064,0.8433228
				l-0.2745705,0.8825455l-0.2353458,0.9413834l-0.2157345,0.9609985l-0.1568966,1.0198364l-0.0980625,1.0198288
				l-0.0784473,1.039444L20.401392,100l0.0196133,1.0590591l0.0784473,1.039444l0.0980625,1.0198288l0.1568966,1.0002213
				l0.2157345,0.9806137l0.2353458,0.9413834l0.2745705,0.8825455l0.3334064,0.8237076l0.3530197,0.7844925l0.3922424,0.7060318
				l0.4118557,0.6472015l0.4510803,0.5687561l0.4706917,0.490303l0.4706917,0.3922424l0.5099163,0.313797l0.5099163,0.2353439
				l0.5295296,0.137291l0.5295277,0.0392227l0.5099163-0.0392227l0.5295296-0.137291l0.5099163-0.2353439l0.5099163-0.313797
				l0.490303-0.3922424l0.4510803-0.490303l0.4510803-0.5687561l0.0980606-0.1568909l0.3137951-0.4903107l0.3922424-0.7060318
				l0.3530197-0.7844925l0.3334064-0.8237076l0.2745705-0.8825455l0.2353458-0.9413834l0.2157326-0.9806137l0.1568985-1.0002213
				l0.117672-1.0198288l0.0588379-1.039444L32.4628754,100z"/>
		</g>
		<g>
			<polyline class="st1" points="26.4419403,48.6357307 33.5415459,48.6357307 35.7969437,48.831852 38.0131187,49.4202194 
				40.1900711,50.3812141 42.3277969,51.7344551 44.4066849,53.440712 46.387516,55.5196037 48.2702827,57.9319 
				50.0549927,60.6579895 51.7024117,63.6782646 53.2321625,66.9927216 54.5854034,70.5425262 55.7817459,74.3080597 
				56.8211899,78.2893295 57.684124,82.4274979 58.3509369,86.7029495 58.8412437,91.0764618 59.1354256,95.5284271 59.2334862,100 
				59.1354256,104.4715729 58.8412437,108.9235382 58.3509369,113.2970505 57.684124,117.5725021 56.8211899,121.7106705 
				55.7817459,125.6723251 54.5854034,129.4574738 53.2321625,133.0072784 51.7024117,136.3217316 50.0549927,139.3420105 
				48.2702827,142.0681 46.387516,144.4803925 44.4066849,146.5396729 42.3277969,148.2655487 40.1900711,149.6187897 
				38.0131187,150.5797882 35.7969437,151.1681519 33.5415459,151.3642731 26.4419403,151.3642731 24.1865406,151.1681519 
				21.9703655,150.5797882 19.7934151,149.6187897 17.6556892,148.2655487 15.5767994,146.5396729 13.5959702,144.4803925 
				11.6935902,142.0681 9.9284945,139.3420105 8.2810726,136.3217316 6.7513237,133.0072784 5.3980837,129.4574738 
				4.2017417,125.6723251 3.1622968,121.7106705 2.2993612,117.5725021 1.6325476,113.2970505 1.1422434,108.9235382 
				0.8480608,104.4715729 0.75,100 0.8480608,95.5284271 1.1422434,91.0764618 1.6325476,86.7029495 2.2993612,82.4274979 
				3.1622968,78.2893295 4.2017417,74.3080597 5.3980837,70.5425262 6.7513237,66.9927216 8.2810726,63.6782646 
				9.9284945,60.6579895 11.6935902,57.9319 13.5959702,55.5196037 15.5767994,53.440712 17.6556892,51.7344551 
				19.7934151,50.3812141 21.9703655,49.4202194 24.1865406,48.831852 26.4419403,48.6357307 28.6777267,48.831852 
				30.8939018,49.4202194 33.0708542,50.3812141 35.20858,51.7344551 37.287468,53.440712 39.2682991,55.5196037 
				41.1706772,57.9319 42.9357758,60.6579895 44.5831947,63.6782646 46.1129456,66.9927216 47.4661865,70.5425262 
				48.6821404,74.3080597 49.701973,78.2893295 50.5649071,82.4274979 51.23172,86.7029495 51.7220268,91.0764618 
				52.0162086,95.5284271 52.1142693,100 52.0162086,104.4715729 51.7220268,108.9235382 51.23172,113.2970505 
				50.5649071,117.5725021 49.701973,121.7106705 48.6821404,125.6723251 47.4661865,129.4574738 46.1129456,133.0072784 
				44.5831947,136.3217316 42.9357758,139.3420105 41.1706772,142.0681 39.2682991,144.4803925 37.287468,146.5396729 
				35.20858,148.2655487 33.0708542,149.6187897 30.8939018,150.5797882 28.6777267,151.1681519 26.4419403,151.3642731 			"/>
			<polyline class="st1" points="32.3844261,97.9014969 32.443264,98.9409409 32.4628754,100 32.443264,101.0590591 
				32.3844261,102.0985031 32.2667542,103.1183319 32.1098557,104.1185532 31.8941231,105.0991669 31.6587772,106.0405502 
				31.3842068,106.9230957 31.0508003,107.7468033 30.6977806,108.5312958 30.3055382,109.2373276 29.9917431,109.7276382 
				29.8936825,109.8845291 29.4426022,110.4532852 28.9915218,110.9435883 28.5012188,111.3358307 27.9913025,111.6496277 
				27.4813862,111.8849716 26.9518566,112.0222626 26.4419403,112.0614853 25.9124126,112.0222626 25.3828831,111.8849716 
				24.8729668,111.6496277 24.3630505,111.3358307 23.8923588,110.9435883 23.4216671,110.4532852 22.9705868,109.8845291 
				22.5587311,109.2373276 22.1664886,108.5312958 21.8134689,107.7468033 21.4800625,106.9230957 21.205492,106.0405502 
				20.9701462,105.0991669 20.7544117,104.1185532 20.5975151,103.1183319 20.4994526,102.0985031 20.4210052,101.0590591 
				20.401392,100 20.4210052,98.9409409 20.4994526,97.9014969 20.5975151,96.8816681 20.7544117,95.8618317 20.9701462,94.9008331 
				21.205492,93.9594498 21.4800625,93.0769043 21.8134689,92.2335815 22.1664886,91.4687042 22.5587311,90.7430573 
				22.9705868,90.1154709 23.4216671,89.5467148 23.8923588,89.0564117 24.3630505,88.6641693 24.8729668,88.3307571 
				25.3828831,88.1150284 25.9124126,87.9777374 26.4419403,87.9189072 26.9518566,87.9777374 27.4813862,88.1150284 
				27.9913025,88.3307571 28.5012188,88.6641693 28.9915218,89.0564117 29.4426022,89.5467148 29.8936825,90.1154709 
				29.9917431,90.2527542 30.3055382,90.7430573 30.6977806,91.4687042 31.0508003,92.2335815 31.3842068,93.0769043 
				31.6587772,93.9594498 31.8941231,94.9008331 32.1098557,95.8618317 32.2667542,96.8816681 32.3844261,97.9014969 			"/>
			<polyline class="st1" points="29.9917431,109.7276382 29.677948,109.2373276 29.2857056,108.5312958 28.9326859,107.7468033 
				28.5992794,106.9230957 28.3247089,106.0405502 28.0893631,105.0991669 27.8736286,104.1185532 27.716732,103.1183319 
				27.5990582,102.0985031 27.5402222,101.0590591 27.5206089,100 27.5402222,98.9409409 27.5990582,97.9014969 
				27.716732,96.8816681 27.8736286,95.8618317 28.0893631,94.9008331 28.3247089,93.9594498 28.5992794,93.0769043 
				28.9326859,92.2335815 29.2857056,91.4687042 29.677948,90.7430573 29.9917431,90.2527542 			"/>
		</g>
	</g>
</g>
</svg>
