<?xml version="1.0" encoding="utf-8"?>
<!-- Generator: Adobe Illustrator 21.0.0, SVG Export Plug-In . SVG Version: 6.00 Build 0)  -->
<svg version="1.1" id="Layer_1" xmlns="http://www.w3.org/2000/svg" xmlns:xlink="http://www.w3.org/1999/xlink" x="0px" y="0px"
	 viewBox="0 0 100 100" style="enable-background:new 0 0 100 100;" xml:space="preserve">
<style type="text/css">
	.st0{clip-path:url(#SVGID_2_);}
	.st1{fill:#FC0D1B;}
	.st2{fill:none;}
	.st3{fill:#FFFFFF;}
	.st4{fill:#960810;}
</style>
<g>
	<g>
		<defs>
			<circle id="SVGID_1_" cx="50" cy="50" r="50"/>
		</defs>
		<clipPath id="SVGID_2_">
			<use xlink:href="#SVGID_1_"  style="overflow:visible;"/>
		</clipPath>
		<g class="st0">
			<circle class="st1" cx="50" cy="50" r="49.1"/>
			<line class="st2" x1="50" y1="40.4" x2="50" y2="0.9"/>
			<line class="st2" x1="50" y1="1.7" x2="43.5" y2="10.9"/>
			<line class="st2" x1="50" y1="1.7" x2="56.5" y2="10.9"/>
			<g>
				<line class="st2" x1="42.9" y1="56.4" x2="15.3" y2="84.1"/>
				<line class="st2" x1="15.7" y1="83.6" x2="24.5" y2="82.1"/>
				<line class="st2" x1="15.7" y1="83.6" x2="17.3" y2="74.8"/>
			</g>
			<g>
				<line class="st2" x1="57.1" y1="56.4" x2="84.7" y2="84.1"/>
				<line class="st2" x1="84.3" y1="83.6" x2="75.5" y2="82.1"/>
				<g>
					<line class="st2" x1="84.3" y1="83.6" x2="82.7" y2="74.8"/>
					<g>
						
							<rect x="-18.981" y="40.092" transform="matrix(0.2439 -0.9698 0.9698 0.2439 -27.9648 47.0146)" class="st3" width="70.3" height="2.7"/>
						
							<rect x="82.507" y="6.406" transform="matrix(0.9699 -0.2436 0.2436 0.9699 -7.5974 21.679)" class="st3" width="2.7" height="70.306"/>
						<polygon class="st3" points="57.883,10.501 51.3,1.103 51.3,0.4 48.6,0.4 48.6,1.225 42.092,10.514 44.303,12.063 48.6,5.931 
							48.6,41 51.3,41 51.3,5.809 55.671,12.05 						"/>
						<polygon class="st3" points="42.269,55.139 17.721,79.686 18.635,74.511 15.976,74.042 14.392,83.016 13.915,83.493 
							14.248,83.827 14.237,83.89 14.327,83.906 15.396,84.974 15.41,85.057 15.468,85.046 15.824,85.402 16.332,84.894 
							25.258,83.318 24.789,80.659 19.662,81.564 44.178,57.048 						"/>
						<polygon class="st3" points="85.588,82.959 84.015,74.039 81.356,74.508 82.259,79.63 57.745,55.116 55.836,57.025 
							80.391,81.581 75.2,80.665 74.731,83.323 83.719,84.908 84.19,85.38 84.52,85.05 84.579,85.06 84.594,84.976 85.669,83.901 
							85.752,83.887 85.741,83.829 86.099,83.471 						"/>
					</g>
				</g>
			</g>
			<path class="st4" d="M50,100C22.4,100,0,77.6,0,50S22.4,0,50,0s50,22.4,50,50S77.6,100,50,100z M50,1.7C23.4,1.7,1.7,23.4,1.7,50
				S23.4,98.3,50,98.3S98.3,76.6,98.3,50S76.6,1.7,50,1.7z"/>
		</g>
	</g>
</g>
</svg>
