<?xml version="1.0" encoding="utf-8"?>
<!-- Generator: Adobe Illustrator 21.0.0, SVG Export Plug-In . SVG Version: 6.00 Build 0)  -->
<svg version="1.1" id="Layer_1" xmlns="http://www.w3.org/2000/svg" xmlns:xlink="http://www.w3.org/1999/xlink" x="0px" y="0px"
	 viewBox="0 0 100 100" style="enable-background:new 0 0 100 100;" xml:space="preserve">
<style type="text/css">
	.st0{fill:none;}
	.st1{fill:#FEC251;}
	.st2{fill:url(#New_Pattern_Swatch_1);}
	.st3{fill:#231F20;}
</style>
<pattern  y="100" width="31.006" height="31.006" patternUnits="userSpaceOnUse" id="New_Pattern_Swatch_1" viewBox="0 -31.006 31.006 31.006" style="overflow:visible;">
	<g>
		<rect y="-31.006" class="st0" width="31.006" height="31.006"/>
		<rect x="0" y="-31.006" class="st1" width="31.006" height="31.006"/>
	</g>
</pattern>
<circle class="st2" cx="50" cy="50" r="49.1"/>
<g>
	
		<rect x="-18.496" y="40.583" transform="matrix(0.2439 -0.9698 0.9698 0.2439 -27.9671 46.994)" class="st3" width="69.3" height="1.7"/>
</g>
<g>
	
		<rect x="83.011" y="6.893" transform="matrix(0.9699 -0.2436 0.2436 0.9699 -7.5937 21.6795)" class="st3" width="1.7" height="69.302"/>
</g>
<g>
	<line class="st0" x1="50" y1="40.4" x2="50" y2="0.9"/>
	<rect x="49.1" y="0.9" class="st3" width="1.7" height="39.6"/>
</g>
<g>
	<line class="st0" x1="50" y1="1.7" x2="43.5" y2="10.9"/>
	
		<rect x="41.088" y="5.423" transform="matrix(0.5737 -0.819 0.819 0.5737 14.7851 40.9536)" class="st3" width="11.299" height="1.7"/>
</g>
<g>
	<line class="st0" x1="50" y1="1.7" x2="56.5" y2="10.9"/>
	
		<rect x="52.383" y="0.595" transform="matrix(0.8191 -0.5736 0.5736 0.8191 6.0465 31.6649)" class="st3" width="1.7" height="11.3"/>
</g>
<g>
	<g>
		<line class="st0" x1="42.9" y1="56.4" x2="15.3" y2="84.1"/>
		
			<rect x="9.524" y="69.413" transform="matrix(0.7071 -0.7071 0.7071 0.7071 -41.1681 41.1379)" class="st3" width="39.1" height="1.7"/>
	</g>
	<g>
		<line class="st0" x1="15.7" y1="83.6" x2="24.5" y2="82.1"/>
		
			<rect x="15.605" y="82.006" transform="matrix(0.9848 -0.1739 0.1739 0.9848 -14.1018 4.7584)" class="st3" width="9" height="1.7"/>
	</g>
	<g>
		<line class="st0" x1="15.7" y1="83.6" x2="17.3" y2="74.8"/>
		
			<rect x="11.946" y="78.307" transform="matrix(0.1739 -0.9848 0.9848 0.1739 -64.3654 81.5879)" class="st3" width="9" height="1.7"/>
	</g>
</g>
<g>
	<g>
		<line class="st0" x1="57.1" y1="56.4" x2="84.7" y2="84.1"/>
		
			<rect x="70.107" y="50.676" transform="matrix(0.7071 -0.7071 0.7071 0.7071 -28.8743 70.7424)" class="st3" width="1.7" height="39.1"/>
	</g>
	<g>
		<line class="st0" x1="84.3" y1="83.6" x2="75.5" y2="82.1"/>
		
			<rect x="78.994" y="78.356" transform="matrix(0.1736 -0.9848 0.9848 0.1736 -15.6149 147.1036)" class="st3" width="1.7" height="9"/>
	</g>
	<g>
		<line class="st0" x1="84.3" y1="83.6" x2="82.7" y2="74.8"/>
		
			<rect x="82.702" y="74.695" transform="matrix(0.9848 -0.1737 0.1737 0.9848 -12.4861 15.7168)" class="st3" width="1.7" height="9"/>
	</g>
</g>
<path class="st3" d="M50,100C22.4,100,0,77.6,0,50S22.4,0,50,0s50,22.4,50,50S77.6,100,50,100z M50,1.7C23.4,1.7,1.7,23.4,1.7,50
	S23.4,98.3,50,98.3S98.3,76.6,98.3,50S76.6,1.7,50,1.7z"/>
</svg>
