<?xml version="1.0" encoding="utf-8"?>
<!-- Generator: Adobe Illustrator 21.0.0, SVG Export Plug-In . SVG Version: 6.00 Build 0)  -->
<svg version="1.1" id="Layer_1" xmlns="http://www.w3.org/2000/svg" xmlns:xlink="http://www.w3.org/1999/xlink" x="0px" y="0px"
	 viewBox="0 0 100 100" style="enable-background:new 0 0 100 100;" xml:space="preserve">
<style type="text/css">
	.st0{fill:#FFFFFF;}
	.st1{fill:#000000;}
	.st2{fill:url(#SVGID_1_);}
	.st3{fill:url(#SVGID_2_);}
	.st4{fill:url(#SVGID_3_);}
	.st5{fill:url(#SVGID_4_);}
	.st6{fill:#ED1C24;}
</style>
<g>
	<g>
		<circle class="st0" cx="50" cy="50" r="49.1"/>
		<path class="st1" d="M50,100C22.4,100,0,77.6,0,50S22.4,0,50,0s50,22.4,50,50S77.6,100,50,100z M50,1.7C23.4,1.7,1.7,23.4,1.7,50
			S23.4,98.3,50,98.3c26.6,0,48.3-21.7,48.3-48.3S76.6,1.7,50,1.7z"/>
	</g>
	<g>
		
			<rect x="-18.4" y="40.6" transform="matrix(0.2441 -0.9697 0.9697 0.2441 -28.0075 47.0718)" class="st1" width="69.3" height="1.7"/>
	</g>
	<g>
		
			<rect x="82.9" y="6.9" transform="matrix(0.9699 -0.2436 0.2436 0.9699 -7.5862 21.6699)" class="st1" width="1.7" height="69.3"/>
	</g>
	<circle class="st0" cx="50" cy="50" r="9.6"/>
	<g>
		<linearGradient id="SVGID_1_" gradientUnits="userSpaceOnUse" x1="49.9997" y1="104.3625" x2="49.9997" y2="10.6042">
			<stop  offset="0" style="stop-color:#FFFF00"/>
			<stop  offset="1" style="stop-color:#C70000"/>
		</linearGradient>
		<path class="st2" d="M64.5,12.4c-13.4,3.6-17.2,7-22.3,11.8s-6.6,9.2-8.2,13.3c-1.5,4.1-1.7,9.5-1.3,11.7c-2.6-3-3.4-5.6-3.3-8.2
			c-4.6,6.4-8.7,12.4-9.8,19s0,12.8,0.4,13.7c0.4,0.9,0.8,1.8,0.4,2.2s-2.3-0.4-3.1-1.2c-0.8-0.7-2.1-2-2.1-2
			c1.8,5.3,3.7,9.7,6.1,12.8c2.4,3.1,6.6,7.6,11,9.2s13,3.5,15.8,3.5c2.7,0,13-1.7,14.6-2.3c1.6-0.5,8.3-3.5,10.5-5.3
			c2.3-1.7,6.4-5.5,8.6-9.2C84,78,84.8,76,84.8,76c-1.9,1.4-7.1,5.6-8.1,6.2c-0.4,0.3-1.3,0.9-1.6,0.7c-0.2-0.2,0.1-0.9,0.5-1.4
			c0.4-0.5,3.9-3.9,4.3-4.3c0.4-0.4,4.1-4.8,4-10c-0.1-5.2-1.4-7.3-2-8.5c-0.6-1.2-3.2-4.1-3.6-5s-1.1-2.2-1.2-3.1
			c-0.1-0.9-0.1-3.5,0-3.9c-1.5,0.7-2,0.9-2.7,1.6c-0.7,0.7-1.7,1.8-2.1,2.7c-0.8,1.9-1.1,3.8-1.1,5.9c-1.3-6.8-3.4-13.5-5.9-19.9
			c-1.7-4.4-2.8-7.6-3.1-9.2c-0.3-1.5-0.7-4.2-0.6-5.7s1.4-7,2-8.1S64.5,12.4,64.5,12.4z"/>
		<linearGradient id="SVGID_2_" gradientUnits="userSpaceOnUse" x1="50.4824" y1="113.4661" x2="50.4824" y2="-14.2934">
			<stop  offset="0" style="stop-color:#FFFF00"/>
			<stop  offset="1" style="stop-color:#E60000"/>
		</linearGradient>
		<path class="st3" d="M55.1,23.3c-1.1,0.1-2.4,1-3.3,1.5c-1.3,0.6-2.6,1.3-3.8,2.1c-2.2,1.4-4.3,3.1-5.9,5.2
			c-2.9,3.8-6.2,10-7.1,14c-0.9,4-1.2,12.6-1.2,13.9c-3.8-3-5.3-6.5-5.2-8.5c-2.3,2.7-4.2,7.1-4.5,11.7s0,13.6,2.5,19.2
			s6.6,10.4,8.1,11.6c1.4,1.2,7.9,4.7,15.3,4.5s15.6-4.9,17.8-7.4s5.2-6.9,6.2-9s2.7-6.8,2.9-9c0.1-2.2-0.1-7-0.2-7.9
			c-0.1-0.9-0.5-4.9,0.2-8.5c-3.4,2.4-4,3.3-4.8,4.4s-1.6,2.6-1.8,3.5c-0.2,1-0.6,3.6-0.6,3.6s-0.3-2.9-0.4-3.9
			c-0.1-1-1.7-7.4-3.6-11.5s-6.6-11.8-7.4-13.6c-0.9-1.8-3.8-7.2-3.7-10.1c0-1.2,0.2-2.4,0.4-3.6c0.1-0.7,0.5-1.6,0.5-2.3
			C55.3,23.3,55.2,23.3,55.1,23.3z"/>
		<linearGradient id="SVGID_3_" gradientUnits="userSpaceOnUse" x1="48.6922" y1="101.328" x2="48.6922" y2="-65.6025">
			<stop  offset="0" style="stop-color:#FFFF00"/>
			<stop  offset="8.611509e-02" style="stop-color:#FDF400"/>
			<stop  offset="0.2371" style="stop-color:#F6D700"/>
			<stop  offset="0.4352" style="stop-color:#ECA700"/>
			<stop  offset="0.6727" style="stop-color:#DD6600"/>
			<stop  offset="0.941" style="stop-color:#CB1300"/>
			<stop  offset="1" style="stop-color:#C70000"/>
		</linearGradient>
		<path class="st4" d="M36.7,56.6c-1.8,3.9-3.9,9.2-4.7,14.4c-0.9,5.1-0.8,11.5,0.9,15C34.5,89.5,37,94,41,96.2
			c4,2.1,7.8,2.4,10.4,2.3s4.7-0.3,8-2.5c3.3-2.3,5.5-12.2,5.9-15s1-8.8,0-11c-1-2.2-4.2-9.5-5.8-11.8c-1.5-2.2-6.7-10.4-7.3-11.4
			c-0.6-1-3.1-7.7-2.8-9.9c0.3-2.2,1.4-4.8,1.4-4.8c-0.1,0.2-0.8,0.4-1,0.5c-0.5,0.3-1,0.6-1.5,1c-2,1.6-4.1,3.8-5.4,6
			c-1.3,2-2.4,5.2-2.9,7.2c-0.5,2-0.8,6.8-0.5,8.5s1,6,1.4,7.6c0.5,1.5,1.2,3,0,3.6s-2-0.4-2.4-1.2s-1.2-4.6-1.6-6
			C36.8,57.9,36.7,56.6,36.7,56.6z"/>
		<linearGradient id="SVGID_4_" gradientUnits="userSpaceOnUse" x1="50.3732" y1="106.0965" x2="50.3732" y2="35.4085">
			<stop  offset="0" style="stop-color:#FFFFFF"/>
			<stop  offset="8.611509e-02" style="stop-color:#FEFDF4"/>
			<stop  offset="0.2371" style="stop-color:#FCF9D7"/>
			<stop  offset="0.4352" style="stop-color:#F7F1A7"/>
			<stop  offset="0.6727" style="stop-color:#F2E766"/>
			<stop  offset="0.941" style="stop-color:#EBDA13"/>
			<stop  offset="1" style="stop-color:#E9D700"/>
		</linearGradient>
		<path class="st5" d="M49.1,50.8c-3.7,5.8-5.6,10.8-6,14.9c-0.4,4.1,0.1,8.7,0.9,10.3c0.7,1.5,2.1,3.5,2.1,5.3c0,2.5-2.3,0.1-3.1-1
			c-0.9-1.3-2.5-4.3-2.5-4.7c-1.8,2.1-3.8,6.7-3.4,10.1c0.4,3.4,1.6,6.9,4,9.4c2.3,2.5,5.4,3.3,8.7,3.3c3.4,0,7.6-0.1,10-2.8
			c2.3-2.6,4-7,3.7-10.5c-0.3-3.9-1.1-6-2.2-8c-1.2-2-5.6-6.7-7.6-9.5c-2-2.8-4-6-4.3-8.2c-0.3-2.2-0.6-3.4-0.5-4.5
			C48.9,53.7,49.1,50.8,49.1,50.8z"/>
	</g>
	<g>
		<g>
			<line class="st6" x1="50" y1="40.3" x2="50" y2="0.7"/>
			<rect x="49.1" y="0.7" class="st1" width="1.7" height="39.6"/>
		</g>
		<g>
			<line class="st6" x1="50" y1="1.5" x2="43.5" y2="10.7"/>
			
				<rect x="41.1" y="5.3" transform="matrix(0.5733 -0.8194 0.8194 0.5733 14.9497 40.924)" class="st1" width="11.3" height="1.7"/>
		</g>
		<g>
			<line class="st6" x1="50" y1="1.5" x2="56.5" y2="10.7"/>
			
				<rect x="52.4" y="0.5" transform="matrix(0.8191 -0.5736 0.5736 0.8191 6.1251 31.6432)" class="st1" width="1.7" height="11.3"/>
		</g>
		<g>
			<g>
				<line class="st6" x1="42.9" y1="56.2" x2="15.3" y2="83.9"/>
				
					<rect x="9.5" y="69.2" transform="matrix(0.7071 -0.7071 0.7071 0.7071 -41.0269 41.0838)" class="st1" width="39.1" height="1.7"/>
			</g>
			<g>
				<line class="st6" x1="15.7" y1="83.4" x2="24.5" y2="81.9"/>
				
					<rect x="15.6" y="81.8" transform="matrix(0.9848 -0.1739 0.1739 0.9848 -14.0694 4.7581)" class="st1" width="9" height="1.7"/>
			</g>
			<g>
				<line class="st6" x1="15.7" y1="83.4" x2="17.3" y2="74.6"/>
				<rect x="12" y="78.2" transform="matrix(0.1739 -0.9848 0.9848 0.1739 -64.2118 81.5101)" class="st1" width="9" height="1.7"/>
			</g>
		</g>
		<g>
			<g>
				<line class="st6" x1="57.1" y1="56.2" x2="84.7" y2="83.9"/>
				
					<rect x="70.1" y="50.5" transform="matrix(0.7071 -0.7071 0.7071 0.7071 -28.772 70.6695)" class="st1" width="1.7" height="39.1"/>
			</g>
			<g>
				<line class="st6" x1="84.3" y1="83.4" x2="75.5" y2="81.9"/>
				
					<rect x="79" y="78.2" transform="matrix(0.1737 -0.9848 0.9848 0.1737 -15.4066 146.9763)" class="st1" width="1.7" height="9"/>
			</g>
			<g>
				<line class="st6" x1="84.3" y1="83.4" x2="82.7" y2="74.6"/>
				
					<rect x="82.7" y="74.5" transform="matrix(0.9848 -0.1737 0.1737 0.9848 -12.4574 15.7093)" class="st1" width="1.7" height="9"/>
			</g>
		</g>
	</g>
</g>
</svg>
