<?xml version="1.0" encoding="utf-8"?>
<!-- Generator: Adobe Illustrator 21.0.0, SVG Export Plug-In . SVG Version: 6.00 Build 0)  -->
<svg version="1.1" id="Layer_1" xmlns="http://www.w3.org/2000/svg" xmlns:xlink="http://www.w3.org/1999/xlink" x="0px" y="0px"
	 viewBox="0 0 100 100" style="enable-background:new 0 0 100 100;" xml:space="preserve">
<style type="text/css">
	.st0{fill:none;}
	.st1{clip-path:url(#SVGID_2_);}
	.st2{fill:#FFFFFF;}
</style>
<circle class="st0" cx="50" cy="50" r="49.1"/>
<line class="st0" x1="50" y1="40.4" x2="50" y2="0.9"/>
<line class="st0" x1="50" y1="1.7" x2="43.5" y2="10.9"/>
<line class="st0" x1="50" y1="1.7" x2="56.5" y2="10.9"/>
<g>
	<line class="st0" x1="42.9" y1="56.4" x2="15.3" y2="84.1"/>
	<line class="st0" x1="15.7" y1="83.6" x2="24.5" y2="82.1"/>
	<line class="st0" x1="15.7" y1="83.6" x2="17.3" y2="74.8"/>
</g>
<g>
	<g>
		<g>
			<defs>
				<circle id="SVGID_1_" cx="50" cy="50" r="50"/>
			</defs>
			<clipPath id="SVGID_2_">
				<use xlink:href="#SVGID_1_"  style="overflow:visible;"/>
			</clipPath>
			<g class="st1">
				<line class="st0" x1="57.1" y1="56.4" x2="84.7" y2="84.1"/>
				<line class="st0" x1="84.3" y1="83.6" x2="75.5" y2="82.1"/>
				<g>
					<line class="st0" x1="84.3" y1="83.6" x2="82.7" y2="74.8"/>
					<g>
						
							<rect x="-18.979" y="40.092" transform="matrix(0.2439 -0.9698 0.9698 0.2439 -27.9639 47.0168)" class="st2" width="70.3" height="2.7"/>
						
							<rect x="82.507" y="6.406" transform="matrix(0.9699 -0.2436 0.2436 0.9699 -7.5974 21.679)" class="st2" width="2.7" height="70.306"/>
						<polygon class="st2" points="51.3,1.104 51.3,0.4 48.6,0.4 48.6,1.22 42.09,10.513 44.302,12.062 48.6,5.926 48.6,41 51.3,41 
							51.3,5.811 55.67,12.052 57.882,10.503 						"/>
						<polygon class="st2" points="42.27,55.139 17.718,79.691 18.633,74.512 15.974,74.043 14.388,83.02 13.915,83.494 
							14.246,83.825 14.235,83.89 14.328,83.906 15.398,84.976 15.411,85.052 15.464,85.043 15.824,85.403 16.339,84.888 
							25.259,83.314 24.79,80.655 19.667,81.559 44.179,57.047 						"/>
						<polygon class="st2" points="85.584,82.954 84.012,74.042 81.354,74.511 82.255,79.626 57.745,55.116 55.836,57.025 
							80.389,81.577 75.197,80.661 74.729,83.32 83.717,84.904 84.191,85.379 84.524,85.047 84.576,85.056 84.589,84.981 
							85.665,83.905 85.749,83.89 85.739,83.831 86.1,83.47 						"/>
					</g>
				</g>
			</g>
		</g>
	</g>
</g>
<path class="st2" d="M50,100C22.4,100,0,77.6,0,50S22.4,0,50,0s50,22.4,50,50S77.6,100,50,100z M50,1.7C23.4,1.7,1.7,23.4,1.7,50
	S23.4,98.3,50,98.3S98.3,76.6,98.3,50S76.6,1.7,50,1.7z"/>
</svg>
