<?xml version="1.0" encoding="utf-8"?>
<!-- Generator: Adobe Illustrator 21.1.0, SVG Export Plug-In . SVG Version: 6.00 Build 0)  -->
<svg version="1.1" id="Layer_1" xmlns="http://www.w3.org/2000/svg" xmlns:xlink="http://www.w3.org/1999/xlink" x="0px" y="0px"
	 viewBox="0 0 16 16" style="enable-background:new 0 0 16 16;" xml:space="preserve">
<style type="text/css">
	.st0{fill:none;stroke:#000000;stroke-linecap:round;stroke-linejoin:round;stroke-miterlimit:10;}
	.st1{fill:none;stroke:#000000;stroke-width:0.75;stroke-linecap:round;stroke-linejoin:round;stroke-miterlimit:10;}
</style>
<path class="st0" d="M13.1517782,12.1812973H2.8482218C1.8274771,12.1812973,1,11.3538198,1,10.3330746V5.666925
	c0-1.0207448,0.8274771-1.8482218,1.8482218-1.8482218h10.3035564C14.1725225,3.8187032,15,4.6461802,15,5.666925v4.6661496
	C15,11.3538198,14.1725225,12.1812973,13.1517782,12.1812973z"/>
<polyline class="st0" points="8.5040731,3.8187032 8.5040731,8 8.5040731,12.1812973 "/>
<g>
	<path d="M3.3953128,8.9372177H4.224637V6.5828395L3.3731916,6.7585068V6.119164l0.8466742-0.1756678h0.893085v2.9937215H5.942275
		v0.6488857H3.3953128V8.9372177z"/>
</g>
<line class="st0" x1="8.5040731" y1="8" x2="15" y2="8"/>
<polyline class="st1" points="13.1937256,6.67875 11.7520361,5.2623606 10.3103476,6.67875 "/>
<polyline class="st1" points="13.1937256,9.32125 11.7520361,10.7376394 10.3103476,9.32125 "/>
</svg>
